<?xml version="1.0" encoding="UTF-8" standalone="no"?>
<!DOCTYPE svg PUBLIC "-//W3C//DTD SVG 1.1//EN"
 "http://www.w3.org/Graphics/SVG/1.1/DTD/svg11.dtd">
<!-- Generated by graphviz version 13.1.0 (20250701.0955)
 -->
<!-- Title: FIEAGameEngine/src/Actions/ActionListWhileLoop.h Pages: 1 -->
<svg width="1027pt" height="488pt"
 viewBox="0.00 0.00 1027.00 488.00" xmlns="http://www.w3.org/2000/svg" xmlns:xlink="http://www.w3.org/1999/xlink">
<g id="graph0" class="graph" transform="scale(1 1) rotate(0) translate(4 484)">
<title>FIEAGameEngine/src/Actions/ActionListWhileLoop.h</title>
<!-- Node1 -->
<g id="Node000001" class="node">
<title>Node1</title>
<g id="a_Node000001"><a xlink:title=" ">
<polygon fill="#999999" stroke="#666666" points="705.25,-480 552.75,-480 552.75,-448 705.25,-448 705.25,-480"/>
<text xml:space="preserve" text-anchor="start" x="560.75" y="-466.5" font-family="Helvetica,sans-Serif" font-size="10.00">FIEAGameEngine/src</text>
<text xml:space="preserve" text-anchor="middle" x="629" y="-454.5" font-family="Helvetica,sans-Serif" font-size="10.00">/Actions/ActionListWhileLoop.h</text>
</a>
</g>
</g>
<!-- Node2 -->
<g id="Node000002" class="node">
<title>Node2</title>
<g id="a_Node000002"><a xlink:href="_types_8h.html" target="_top" xlink:title=" ">
<polygon fill="white" stroke="#666666" points="699.25,-76 570.75,-76 570.75,-56 699.25,-56 699.25,-76"/>
<text xml:space="preserve" text-anchor="middle" x="635" y="-62.5" font-family="Helvetica,sans-Serif" font-size="10.00">FieaGameEngine/Types.h</text>
</a>
</g>
</g>
<!-- Node1&#45;&gt;Node2 -->
<g id="edge1_Node000001_Node000002" class="edge">
<title>Node1&#45;&gt;Node2</title>
<g id="a_edge1_Node000001_Node000002"><a xlink:title=" ">
<path fill="none" stroke="#63b8ff" d="M552.5,-456.8C384.87,-442.19 0,-402.59 0,-347 0,-347 0,-347 0,-177 0,-143.76 8.85,-129.68 37,-112 84.24,-82.33 466.27,-81.58 559.2,-75.99"/>
<polygon fill="#63b8ff" stroke="#63b8ff" points="559.31,-79.49 569.02,-75.25 558.79,-72.51 559.31,-79.49"/>
</a>
</g>
</g>
<!-- Node11 -->
<g id="Node000011" class="node">
<title>Node11</title>
<g id="a_Node000011"><a xlink:href="_action_list_8h.html" target="_top" xlink:title=" ">
<polygon fill="white" stroke="#666666" points="703.75,-412 554.25,-412 554.25,-392 703.75,-392 703.75,-412"/>
<text xml:space="preserve" text-anchor="middle" x="629" y="-398.5" font-family="Helvetica,sans-Serif" font-size="10.00">FIEAGameEngine/ActionList.h</text>
</a>
</g>
</g>
<!-- Node1&#45;&gt;Node11 -->
<g id="edge10_Node000001_Node000011" class="edge">
<title>Node1&#45;&gt;Node11</title>
<g id="a_edge10_Node000001_Node000011"><a xlink:title=" ">
<path fill="none" stroke="#63b8ff" d="M629,-447.55C629,-440.34 629,-431.66 629,-423.88"/>
<polygon fill="#63b8ff" stroke="#63b8ff" points="632.5,-423.92 629,-413.92 625.5,-423.92 632.5,-423.92"/>
</a>
</g>
</g>
<!-- Node20 -->
<g id="Node000020" class="node">
<title>Node20</title>
<g id="a_Node000020"><a xlink:href="_factory_service_8h.html" target="_top" xlink:title=" ">
<polygon fill="white" stroke="#666666" points="911,-188 739,-188 739,-168 911,-168 911,-188"/>
<text xml:space="preserve" text-anchor="middle" x="825" y="-174.5" font-family="Helvetica,sans-Serif" font-size="10.00">FIEAGameEngine/FactoryService.h</text>
</a>
</g>
</g>
<!-- Node1&#45;&gt;Node20 -->
<g id="edge46_Node000001_Node000020" class="edge">
<title>Node1&#45;&gt;Node20</title>
<g id="a_edge46_Node000001_Node000020"><a xlink:title=" ">
<path fill="none" stroke="#63b8ff" d="M705.6,-453.98C768.75,-441.78 848,-413.26 848,-347 848,-347 848,-347 848,-289 848,-257.05 838.59,-220.96 831.8,-199.1"/>
<polygon fill="#63b8ff" stroke="#63b8ff" points="835.18,-198.15 828.76,-189.72 828.52,-200.31 835.18,-198.15"/>
</a>
</g>
</g>
<!-- Node3 -->
<g id="Node000003" class="node">
<title>Node3</title>
<g id="a_Node000003"><a xlink:title=" ">
<polygon fill="#e0e0e0" stroke="#999999" points="415,-20 255,-20 255,0 415,0 415,-20"/>
<text xml:space="preserve" text-anchor="middle" x="335" y="-6.5" font-family="Helvetica,sans-Serif" font-size="10.00">../src/Memory/SystemAllocator.h</text>
</a>
</g>
</g>
<!-- Node2&#45;&gt;Node3 -->
<g id="edge2_Node000002_Node000003" class="edge">
<title>Node2&#45;&gt;Node3</title>
<g id="a_edge2_Node000002_Node000003"><a xlink:title=" ">
<path fill="none" stroke="#63b8ff" d="M582.4,-55.53C531.26,-46.33 453.5,-32.33 398.83,-22.49"/>
<polygon fill="#63b8ff" stroke="#63b8ff" points="399.49,-19.05 389.03,-20.73 398.25,-25.94 399.49,-19.05"/>
</a>
</g>
</g>
<!-- Node4 -->
<g id="Node000004" class="node">
<title>Node4</title>
<g id="a_Node000004"><a xlink:title=" ">
<polygon fill="#e0e0e0" stroke="#999999" points="495.25,-20 432.75,-20 432.75,0 495.25,0 495.25,-20"/>
<text xml:space="preserve" text-anchor="middle" x="464" y="-6.5" font-family="Helvetica,sans-Serif" font-size="10.00">windows.h</text>
</a>
</g>
</g>
<!-- Node2&#45;&gt;Node4 -->
<g id="edge3_Node000002_Node000004" class="edge">
<title>Node2&#45;&gt;Node4</title>
<g id="a_edge3_Node000002_Node000004"><a xlink:title=" ">
<path fill="none" stroke="#63b8ff" d="M605.21,-55.59C577.43,-46.82 535.75,-33.66 504.86,-23.9"/>
<polygon fill="#63b8ff" stroke="#63b8ff" points="506.05,-20.61 495.46,-20.94 503.94,-27.28 506.05,-20.61"/>
</a>
</g>
</g>
<!-- Node5 -->
<g id="Node000005" class="node">
<title>Node5</title>
<g id="a_Node000005"><a xlink:title=" ">
<polygon fill="#e0e0e0" stroke="#999999" points="561.12,-20 512.88,-20 512.88,0 561.12,0 561.12,-20"/>
<text xml:space="preserve" text-anchor="middle" x="537" y="-6.5" font-family="Helvetica,sans-Serif" font-size="10.00">cassert</text>
</a>
</g>
</g>
<!-- Node2&#45;&gt;Node5 -->
<g id="edge4_Node000002_Node000005" class="edge">
<title>Node2&#45;&gt;Node5</title>
<g id="a_edge4_Node000002_Node000005"><a xlink:title=" ">
<path fill="none" stroke="#63b8ff" d="M617.93,-55.59C603.12,-47.44 581.43,-35.48 564.23,-26"/>
<polygon fill="#63b8ff" stroke="#63b8ff" points="565.98,-22.97 555.53,-21.21 562.6,-29.1 565.98,-22.97"/>
</a>
</g>
</g>
<!-- Node6 -->
<g id="Node000006" class="node">
<title>Node6</title>
<g id="a_Node000006"><a xlink:title=" ">
<polygon fill="#e0e0e0" stroke="#999999" points="627.12,-20 578.88,-20 578.88,0 627.12,0 627.12,-20"/>
<text xml:space="preserve" text-anchor="middle" x="603" y="-6.5" font-family="Helvetica,sans-Serif" font-size="10.00">cstddef</text>
</a>
</g>
</g>
<!-- Node2&#45;&gt;Node6 -->
<g id="edge5_Node000002_Node000006" class="edge">
<title>Node2&#45;&gt;Node6</title>
<g id="a_edge5_Node000002_Node000006"><a xlink:title=" ">
<path fill="none" stroke="#63b8ff" d="M629.43,-55.59C625.25,-48.55 619.4,-38.67 614.26,-30"/>
<polygon fill="#63b8ff" stroke="#63b8ff" points="617.39,-28.42 609.28,-21.6 611.37,-31.99 617.39,-28.42"/>
</a>
</g>
</g>
<!-- Node7 -->
<g id="Node000007" class="node">
<title>Node7</title>
<g id="a_Node000007"><a xlink:title=" ">
<polygon fill="#e0e0e0" stroke="#999999" points="690.62,-20 645.38,-20 645.38,0 690.62,0 690.62,-20"/>
<text xml:space="preserve" text-anchor="middle" x="668" y="-6.5" font-family="Helvetica,sans-Serif" font-size="10.00">cstdint</text>
</a>
</g>
</g>
<!-- Node2&#45;&gt;Node7 -->
<g id="edge6_Node000002_Node000007" class="edge">
<title>Node2&#45;&gt;Node7</title>
<g id="a_edge6_Node000002_Node000007"><a xlink:title=" ">
<path fill="none" stroke="#63b8ff" d="M640.75,-55.59C645.05,-48.55 651.09,-38.67 656.39,-30"/>
<polygon fill="#63b8ff" stroke="#63b8ff" points="659.3,-31.95 661.53,-21.59 653.33,-28.3 659.3,-31.95"/>
</a>
</g>
</g>
<!-- Node8 -->
<g id="Node000008" class="node">
<title>Node8</title>
<g id="a_Node000008"><a xlink:title=" ">
<polygon fill="#e0e0e0" stroke="#999999" points="761.38,-20 708.62,-20 708.62,0 761.38,0 761.38,-20"/>
<text xml:space="preserve" text-anchor="middle" x="735" y="-6.5" font-family="Helvetica,sans-Serif" font-size="10.00">cstdbool</text>
</a>
</g>
</g>
<!-- Node2&#45;&gt;Node8 -->
<g id="edge7_Node000002_Node000008" class="edge">
<title>Node2&#45;&gt;Node8</title>
<g id="a_edge7_Node000002_Node000008"><a xlink:title=" ">
<path fill="none" stroke="#63b8ff" d="M652.42,-55.59C667.67,-47.36 690.08,-35.26 707.71,-25.74"/>
<polygon fill="#63b8ff" stroke="#63b8ff" points="708.98,-29.03 716.11,-21.2 705.65,-22.87 708.98,-29.03"/>
</a>
</g>
</g>
<!-- Node9 -->
<g id="Node000009" class="node">
<title>Node9</title>
<g id="a_Node000009"><a xlink:title=" ">
<polygon fill="#e0e0e0" stroke="#999999" points="819,-20 779,-20 779,0 819,0 819,-20"/>
<text xml:space="preserve" text-anchor="middle" x="799" y="-6.5" font-family="Helvetica,sans-Serif" font-size="10.00">string</text>
</a>
</g>
</g>
<!-- Node2&#45;&gt;Node9 -->
<g id="edge8_Node000002_Node000009" class="edge">
<title>Node2&#45;&gt;Node9</title>
<g id="a_edge8_Node000002_Node000009"><a xlink:title=" ">
<path fill="none" stroke="#63b8ff" d="M663.57,-55.59C692.7,-46 737.77,-31.16 767.81,-21.27"/>
<polygon fill="#63b8ff" stroke="#63b8ff" points="768.69,-24.67 777.09,-18.21 766.5,-18.02 768.69,-24.67"/>
</a>
</g>
</g>
<!-- Node10 -->
<g id="Node000010" class="node">
<title>Node10</title>
<g id="a_Node000010"><a xlink:title=" ">
<polygon fill="#e0e0e0" stroke="#999999" points="891.12,-20 836.88,-20 836.88,0 891.12,0 891.12,-20"/>
<text xml:space="preserve" text-anchor="middle" x="864" y="-6.5" font-family="Helvetica,sans-Serif" font-size="10.00">crtdefs.h</text>
</a>
</g>
</g>
<!-- Node2&#45;&gt;Node10 -->
<g id="edge9_Node000002_Node000010" class="edge">
<title>Node2&#45;&gt;Node10</title>
<g id="a_edge9_Node000002_Node000010"><a xlink:title=" ">
<path fill="none" stroke="#63b8ff" d="M676.46,-55.53C713.2,-47.1 768.61,-34.27 825.48,-20.58"/>
<polygon fill="#63b8ff" stroke="#63b8ff" points="826.12,-24.03 835.02,-18.28 824.48,-17.22 826.12,-24.03"/>
</a>
</g>
</g>
<!-- Node11&#45;&gt;Node2 -->
<g id="edge11_Node000011_Node000002" class="edge">
<title>Node11&#45;&gt;Node2</title>
<g id="a_edge11_Node000011_Node000002"><a xlink:title=" ">
<path fill="none" stroke="#63b8ff" d="M553.85,-394.76C394.67,-380.54 38,-342.89 38,-291 38,-291 38,-291 38,-177 38,-146.9 33.57,-130.9 57,-112 98.73,-78.34 468.81,-81.09 559.29,-75.95"/>
<polygon fill="#63b8ff" stroke="#63b8ff" points="559.3,-79.46 569.02,-75.24 558.8,-72.48 559.3,-79.46"/>
</a>
</g>
</g>
<!-- Node12 -->
<g id="Node000012" class="node">
<title>Node12</title>
<g id="a_Node000012"><a xlink:href="_attributed_8h.html" target="_top" xlink:title=" ">
<polygon fill="white" stroke="#666666" points="633.88,-300 530.12,-300 530.12,-280 633.88,-280 633.88,-300"/>
<text xml:space="preserve" text-anchor="middle" x="582" y="-286.5" font-family="Helvetica,sans-Serif" font-size="10.00">Content/Attributed.h</text>
</a>
</g>
</g>
<!-- Node11&#45;&gt;Node12 -->
<g id="edge12_Node000011_Node000012" class="edge">
<title>Node11&#45;&gt;Node12</title>
<g id="a_edge12_Node000011_Node000012"><a xlink:title=" ">
<path fill="none" stroke="#63b8ff" d="M622.2,-391.76C615.98,-382.95 606.86,-369.1 601,-356 594.53,-341.52 589.6,-324.26 586.39,-311.16"/>
<polygon fill="#63b8ff" stroke="#63b8ff" points="589.84,-310.54 584.18,-301.58 583.01,-312.11 589.84,-310.54"/>
</a>
</g>
</g>
<!-- Node11&#45;&gt;Node20 -->
<g id="edge40_Node000011_Node000020" class="edge">
<title>Node11&#45;&gt;Node20</title>
<g id="a_edge40_Node000011_Node000020"><a xlink:title=" ">
<path fill="none" stroke="#63b8ff" d="M683.77,-391.53C707.54,-385.01 734.19,-374.1 753,-356 798.54,-312.17 816.18,-235.53 822.22,-199.21"/>
<polygon fill="#63b8ff" stroke="#63b8ff" points="825.63,-200.07 823.67,-189.65 818.71,-199.01 825.63,-200.07"/>
</a>
</g>
</g>
<!-- Node26 -->
<g id="Node000026" class="node">
<title>Node26</title>
<g id="a_Node000026"><a xlink:href="_action_8h.html" target="_top" xlink:title=" ">
<polygon fill="white" stroke="#666666" points="743.88,-356 610.12,-356 610.12,-336 743.88,-336 743.88,-356"/>
<text xml:space="preserve" text-anchor="middle" x="677" y="-342.5" font-family="Helvetica,sans-Serif" font-size="10.00">FIEAGameEngine/Action.h</text>
</a>
</g>
</g>
<!-- Node11&#45;&gt;Node26 -->
<g id="edge41_Node000011_Node000026" class="edge">
<title>Node11&#45;&gt;Node26</title>
<g id="a_edge41_Node000011_Node000026"><a xlink:title=" ">
<path fill="none" stroke="#63b8ff" d="M637.36,-391.59C643.9,-384.24 653.18,-373.8 661.12,-364.87"/>
<polygon fill="#63b8ff" stroke="#63b8ff" points="663.7,-367.23 667.73,-357.43 658.47,-362.58 663.7,-367.23"/>
</a>
</g>
</g>
<!-- Node12&#45;&gt;Node2 -->
<g id="edge13_Node000012_Node000002" class="edge">
<title>Node12&#45;&gt;Node2</title>
<g id="a_edge13_Node000012_Node000002"><a xlink:title=" ">
<path fill="none" stroke="#63b8ff" d="M586.9,-279.76C591.66,-270.72 599.02,-256.51 605,-244 616.76,-219.41 623.77,-214.54 630,-188 638.11,-153.47 637.7,-111.91 636.48,-87.58"/>
<polygon fill="#63b8ff" stroke="#63b8ff" points="639.99,-87.55 635.88,-77.78 633,-87.97 639.99,-87.55"/>
</a>
</g>
</g>
<!-- Node13 -->
<g id="Node000013" class="node">
<title>Node13</title>
<g id="a_Node000013"><a xlink:href="_datum_8h.html" target="_top" xlink:title=" ">
<polygon fill="white" stroke="#666666" points="371.5,-188 280.5,-188 280.5,-168 371.5,-168 371.5,-188"/>
<text xml:space="preserve" text-anchor="middle" x="326" y="-174.5" font-family="Helvetica,sans-Serif" font-size="10.00">Content/Datum.h</text>
</a>
</g>
</g>
<!-- Node12&#45;&gt;Node13 -->
<g id="edge14_Node000012_Node000013" class="edge">
<title>Node12&#45;&gt;Node13</title>
<g id="a_edge14_Node000012_Node000013"><a xlink:title=" ">
<path fill="none" stroke="#63b8ff" d="M532.26,-279.52C499.66,-272.25 456.64,-260.62 421,-244 393.06,-230.97 364.29,-210.04 345.84,-195.46"/>
<polygon fill="#63b8ff" stroke="#63b8ff" points="348.12,-192.8 338.14,-189.25 343.73,-198.25 348.12,-192.8"/>
</a>
</g>
</g>
<!-- Node17 -->
<g id="Node000017" class="node">
<title>Node17</title>
<g id="a_Node000017"><a xlink:href="_scope_8h.html" target="_top" xlink:title=" ">
<polygon fill="white" stroke="#666666" points="553.75,-244 464.25,-244 464.25,-224 553.75,-224 553.75,-244"/>
<text xml:space="preserve" text-anchor="middle" x="509" y="-230.5" font-family="Helvetica,sans-Serif" font-size="10.00">Content/Scope.h</text>
</a>
</g>
</g>
<!-- Node12&#45;&gt;Node17 -->
<g id="edge20_Node000012_Node000017" class="edge">
<title>Node12&#45;&gt;Node17</title>
<g id="a_edge20_Node000012_Node000017"><a xlink:title=" ">
<path fill="none" stroke="#63b8ff" d="M569.28,-279.59C558.61,-271.7 543.12,-260.24 530.52,-250.92"/>
<polygon fill="#63b8ff" stroke="#63b8ff" points="532.91,-248.33 522.79,-245.2 528.74,-253.96 532.91,-248.33"/>
</a>
</g>
</g>
<!-- Node18 -->
<g id="Node000018" class="node">
<title>Node18</title>
<g id="a_Node000018"><a xlink:href="_r_t_t_i_8h.html" target="_top" xlink:title=" ">
<polygon fill="white" stroke="#666666" points="568.88,-132 441.12,-132 441.12,-112 568.88,-112 568.88,-132"/>
<text xml:space="preserve" text-anchor="middle" x="505" y="-118.5" font-family="Helvetica,sans-Serif" font-size="10.00">FIEAGameEngine/RTTI.h</text>
</a>
</g>
</g>
<!-- Node12&#45;&gt;Node18 -->
<g id="edge37_Node000012_Node000018" class="edge">
<title>Node12&#45;&gt;Node18</title>
<g id="a_edge37_Node000012_Node000018"><a xlink:title=" ">
<path fill="none" stroke="#63b8ff" d="M529.85,-284.53C502.79,-279.26 471.94,-267.98 455,-244 431.52,-210.77 465.33,-164.85 487.78,-140.23"/>
<polygon fill="#63b8ff" stroke="#63b8ff" points="490.03,-142.95 494.38,-133.29 484.95,-138.13 490.03,-142.95"/>
</a>
</g>
</g>
<!-- Node24 -->
<g id="Node000024" class="node">
<title>Node24</title>
<g id="a_Node000024"><a xlink:title=" ">
<polygon fill="#e0e0e0" stroke="#999999" points="620.5,-188 577.5,-188 577.5,-168 620.5,-168 620.5,-188"/>
<text xml:space="preserve" text-anchor="middle" x="599" y="-174.5" font-family="Helvetica,sans-Serif" font-size="10.00">vector</text>
</a>
</g>
</g>
<!-- Node12&#45;&gt;Node24 -->
<g id="edge38_Node000012_Node000024" class="edge">
<title>Node12&#45;&gt;Node24</title>
<g id="a_edge38_Node000012_Node000024"><a xlink:title=" ">
<path fill="none" stroke="#63b8ff" d="M583.45,-279.62C586.17,-262.01 592.11,-223.59 595.81,-199.65"/>
<polygon fill="#63b8ff" stroke="#63b8ff" points="599.25,-200.27 597.32,-189.85 592.34,-199.2 599.25,-200.27"/>
</a>
</g>
</g>
<!-- Node25 -->
<g id="Node000025" class="node">
<title>Node25</title>
<g id="a_Node000025"><a xlink:title=" ">
<polygon fill="#e0e0e0" stroke="#999999" points="706,-244 648,-244 648,-224 706,-224 706,-244"/>
<text xml:space="preserve" text-anchor="middle" x="677" y="-230.5" font-family="Helvetica,sans-Serif" font-size="10.00">functional</text>
</a>
</g>
</g>
<!-- Node12&#45;&gt;Node25 -->
<g id="edge39_Node000012_Node000025" class="edge">
<title>Node12&#45;&gt;Node25</title>
<g id="a_edge39_Node000012_Node000025"><a xlink:title=" ">
<path fill="none" stroke="#63b8ff" d="M598.55,-279.59C612.9,-271.44 633.93,-259.48 650.6,-250"/>
<polygon fill="#63b8ff" stroke="#63b8ff" points="652.04,-253.21 659.01,-245.23 648.58,-247.13 652.04,-253.21"/>
</a>
</g>
</g>
<!-- Node13&#45;&gt;Node2 -->
<g id="edge15_Node000013_Node000002" class="edge">
<title>Node13&#45;&gt;Node2</title>
<g id="a_edge15_Node000013_Node000002"><a xlink:title=" ">
<path fill="none" stroke="#63b8ff" d="M340.09,-167.54C364.32,-151.43 413.09,-119.64 432,-112 472.51,-95.62 520.1,-84.67 559.02,-77.68"/>
<polygon fill="#63b8ff" stroke="#63b8ff" points="559.53,-81.14 568.78,-75.98 558.33,-74.25 559.53,-81.14"/>
</a>
</g>
</g>
<!-- Node14 -->
<g id="Node000014" class="node">
<title>Node14</title>
<g id="a_Node000014"><a xlink:title=" ">
<polygon fill="#e0e0e0" stroke="#999999" points="248.62,-132 179.38,-132 179.38,-112 248.62,-112 248.62,-132"/>
<text xml:space="preserve" text-anchor="middle" x="214" y="-118.5" font-family="Helvetica,sans-Serif" font-size="10.00">glm/glm.hpp</text>
</a>
</g>
</g>
<!-- Node13&#45;&gt;Node14 -->
<g id="edge16_Node000013_Node000014" class="edge">
<title>Node13&#45;&gt;Node14</title>
<g id="a_edge16_Node000013_Node000014"><a xlink:title=" ">
<path fill="none" stroke="#63b8ff" d="M306.49,-167.59C289.25,-159.28 263.84,-147.03 244.01,-137.47"/>
<polygon fill="#63b8ff" stroke="#63b8ff" points="245.55,-134.33 235.02,-133.14 242.51,-140.63 245.55,-134.33"/>
</a>
</g>
</g>
<!-- Node15 -->
<g id="Node000015" class="node">
<title>Node15</title>
<g id="a_Node000015"><a xlink:title=" ">
<polygon fill="#e0e0e0" stroke="#999999" points="385,-132 267,-132 267,-112 385,-112 385,-132"/>
<text xml:space="preserve" text-anchor="middle" x="326" y="-118.5" font-family="Helvetica,sans-Serif" font-size="10.00">glm/gtx/string_cast.hpp</text>
</a>
</g>
</g>
<!-- Node13&#45;&gt;Node15 -->
<g id="edge17_Node000013_Node000015" class="edge">
<title>Node13&#45;&gt;Node15</title>
<g id="a_edge17_Node000013_Node000015"><a xlink:title=" ">
<path fill="none" stroke="#63b8ff" d="M326,-167.59C326,-161.01 326,-151.96 326,-143.73"/>
<polygon fill="#63b8ff" stroke="#63b8ff" points="329.5,-143.81 326,-133.81 322.5,-143.81 329.5,-143.81"/>
</a>
</g>
</g>
<!-- Node16 -->
<g id="Node000016" class="node">
<title>Node16</title>
<g id="a_Node000016"><a xlink:href="_datum_8inl.html" target="_top" xlink:title=" ">
<polygon fill="white" stroke="#666666" points="161.75,-132 66.25,-132 66.25,-112 161.75,-112 161.75,-132"/>
<text xml:space="preserve" text-anchor="middle" x="114" y="-118.5" font-family="Helvetica,sans-Serif" font-size="10.00">Content/Datum.inl</text>
</a>
</g>
</g>
<!-- Node13&#45;&gt;Node16 -->
<g id="edge18_Node000013_Node000016" class="edge">
<title>Node13&#45;&gt;Node16</title>
<g id="a_edge18_Node000013_Node000016"><a xlink:title=" ">
<path fill="none" stroke="#63b8ff" d="M283.55,-167.53C246.69,-158.6 193.72,-145.15 156.77,-135.37"/>
<polygon fill="#63b8ff" stroke="#63b8ff" points="157.88,-132.04 147.31,-132.85 156.08,-138.8 157.88,-132.04"/>
</a>
</g>
</g>
<!-- Node16&#45;&gt;Node13 -->
<g id="edge19_Node000016_Node000013" class="edge">
<title>Node16&#45;&gt;Node13</title>
<g id="a_edge19_Node000016_Node000013"><a xlink:title=" ">
<path fill="none" stroke="#63b8ff" d="M156.5,-132.48C193.42,-141.43 246.49,-154.91 283.43,-164.69"/>
<polygon fill="#63b8ff" stroke="#63b8ff" points="282.31,-168.01 292.88,-167.2 284.12,-161.25 282.31,-168.01"/>
</a>
</g>
</g>
<!-- Node17&#45;&gt;Node2 -->
<g id="edge21_Node000017_Node000002" class="edge">
<title>Node17&#45;&gt;Node2</title>
<g id="a_edge21_Node000017_Node000002"><a xlink:title=" ">
<path fill="none" stroke="#63b8ff" d="M511.12,-223.9C514.52,-210.65 522.16,-185.71 535,-168 549.63,-147.82 560.18,-149.42 578,-132 593.37,-116.97 609.39,-98.41 620.51,-84.98"/>
<polygon fill="#63b8ff" stroke="#63b8ff" points="623.09,-87.35 626.71,-77.4 617.67,-82.92 623.09,-87.35"/>
</a>
</g>
</g>
<!-- Node17&#45;&gt;Node13 -->
<g id="edge26_Node000017_Node000013" class="edge">
<title>Node17&#45;&gt;Node13</title>
<g id="a_edge26_Node000017_Node000013"><a xlink:title=" ">
<path fill="none" stroke="#63b8ff" d="M477.12,-223.59C447.13,-214.74 402,-201.43 368.86,-191.65"/>
<polygon fill="#63b8ff" stroke="#63b8ff" points="370.16,-188.38 359.58,-188.91 368.18,-195.09 370.16,-188.38"/>
</a>
</g>
</g>
<!-- Node17&#45;&gt;Node18 -->
<g id="edge22_Node000017_Node000018" class="edge">
<title>Node17&#45;&gt;Node18</title>
<g id="a_edge22_Node000017_Node000018"><a xlink:title=" ">
<path fill="none" stroke="#63b8ff" d="M505.8,-223.83C502.84,-214.84 498.66,-200.67 497,-188 495.03,-172.96 497.28,-155.95 499.9,-143.1"/>
<polygon fill="#63b8ff" stroke="#63b8ff" points="503.22,-144.27 502.04,-133.74 496.4,-142.7 503.22,-144.27"/>
</a>
</g>
</g>
<!-- Node17&#45;&gt;Node20 -->
<g id="edge27_Node000017_Node000020" class="edge">
<title>Node17&#45;&gt;Node20</title>
<g id="a_edge27_Node000017_Node000020"><a xlink:title=" ">
<path fill="none" stroke="#63b8ff" d="M553.94,-225.32C607.36,-216.19 696.98,-200.88 758.44,-190.37"/>
<polygon fill="#63b8ff" stroke="#63b8ff" points="758.82,-193.86 768.09,-188.73 757.64,-186.96 758.82,-193.86"/>
</a>
</g>
</g>
<!-- Node22 -->
<g id="Node000022" class="node">
<title>Node22</title>
<g id="a_Node000022"><a xlink:title=" ">
<polygon fill="#e0e0e0" stroke="#999999" points="968.38,-76 885.62,-76 885.62,-56 968.38,-56 968.38,-76"/>
<text xml:space="preserve" text-anchor="middle" x="927" y="-62.5" font-family="Helvetica,sans-Serif" font-size="10.00">unordered_map</text>
</a>
</g>
</g>
<!-- Node17&#45;&gt;Node22 -->
<g id="edge36_Node000017_Node000022" class="edge">
<title>Node17&#45;&gt;Node22</title>
<g id="a_edge36_Node000017_Node000022"><a xlink:title=" ">
<path fill="none" stroke="#63b8ff" d="M515.17,-223.51C524.9,-209.3 545.17,-182.61 569,-168 666.58,-108.15 800.68,-82.76 873.93,-72.8"/>
<polygon fill="#63b8ff" stroke="#63b8ff" points="874.19,-76.3 883.65,-71.53 873.28,-69.36 874.19,-76.3"/>
</a>
</g>
</g>
<!-- Node17&#45;&gt;Node24 -->
<g id="edge35_Node000017_Node000024" class="edge">
<title>Node17&#45;&gt;Node24</title>
<g id="a_edge35_Node000017_Node000024"><a xlink:title=" ">
<path fill="none" stroke="#63b8ff" d="M524.68,-223.59C538.14,-215.51 557.82,-203.71 573.54,-194.27"/>
<polygon fill="#63b8ff" stroke="#63b8ff" points="575.13,-197.4 581.9,-189.26 571.53,-191.4 575.13,-197.4"/>
</a>
</g>
</g>
<!-- Node18&#45;&gt;Node2 -->
<g id="edge23_Node000018_Node000002" class="edge">
<title>Node18&#45;&gt;Node2</title>
<g id="a_edge23_Node000018_Node000002"><a xlink:title=" ">
<path fill="none" stroke="#63b8ff" d="M527.64,-111.59C548.12,-103.09 578.52,-90.46 601.75,-80.81"/>
<polygon fill="#63b8ff" stroke="#63b8ff" points="602.89,-84.13 610.78,-77.06 600.2,-77.66 602.89,-84.13"/>
</a>
</g>
</g>
<!-- Node19 -->
<g id="Node000019" class="node">
<title>Node19</title>
<g id="a_Node000019"><a xlink:href="_r_t_t_i_8inl.html" target="_top" xlink:title=" ">
<polygon fill="white" stroke="#666666" points="553.12,-76 420.88,-76 420.88,-56 553.12,-56 553.12,-76"/>
<text xml:space="preserve" text-anchor="middle" x="487" y="-62.5" font-family="Helvetica,sans-Serif" font-size="10.00">FIEAGameEngine/RTTI.inl</text>
</a>
</g>
</g>
<!-- Node18&#45;&gt;Node19 -->
<g id="edge24_Node000018_Node000019" class="edge">
<title>Node18&#45;&gt;Node19</title>
<g id="a_edge24_Node000018_Node000019"><a xlink:title=" ">
<path fill="none" stroke="#63b8ff" d="M496.6,-111.59C493.04,-104.93 489.55,-95.75 487.24,-87.44"/>
<polygon fill="#63b8ff" stroke="#63b8ff" points="490.69,-86.82 485.17,-77.78 483.85,-88.29 490.69,-86.82"/>
</a>
</g>
</g>
<!-- Node19&#45;&gt;Node18 -->
<g id="edge25_Node000019_Node000018" class="edge">
<title>Node19&#45;&gt;Node18</title>
<g id="a_edge25_Node000019_Node000018"><a xlink:title=" ">
<path fill="none" stroke="#63b8ff" d="M495.34,-76.3C498.9,-82.93 502.4,-92.11 504.72,-100.43"/>
<polygon fill="#63b8ff" stroke="#63b8ff" points="501.28,-101.08 506.81,-110.11 508.12,-99.6 501.28,-101.08"/>
</a>
</g>
</g>
<!-- Node20&#45;&gt;Node2 -->
<g id="edge28_Node000020_Node000002" class="edge">
<title>Node20&#45;&gt;Node2</title>
<g id="a_edge28_Node000020_Node000002"><a xlink:title=" ">
<path fill="none" stroke="#63b8ff" d="M811.71,-167.67C792.84,-154.58 756.99,-130.31 725,-112 705.67,-100.93 683.26,-89.72 665.64,-81.26"/>
<polygon fill="#63b8ff" stroke="#63b8ff" points="667.26,-78.15 656.73,-77.02 664.25,-84.48 667.26,-78.15"/>
</a>
</g>
</g>
<!-- Node20&#45;&gt;Node18 -->
<g id="edge29_Node000020_Node000018" class="edge">
<title>Node20&#45;&gt;Node18</title>
<g id="a_edge29_Node000020_Node000018"><a xlink:title=" ">
<path fill="none" stroke="#63b8ff" d="M768.89,-167.53C714.11,-158.29 630.7,-144.21 572.36,-134.37"/>
<polygon fill="#63b8ff" stroke="#63b8ff" points="572.98,-130.92 562.53,-132.71 571.81,-137.82 572.98,-130.92"/>
</a>
</g>
</g>
<!-- Node21 -->
<g id="Node000021" class="node">
<title>Node21</title>
<g id="a_Node000021"><a xlink:href="_service_mgr_8h.html" target="_top" xlink:title=" ">
<polygon fill="white" stroke="#666666" points="1004.75,-132 849.25,-132 849.25,-112 1004.75,-112 1004.75,-132"/>
<text xml:space="preserve" text-anchor="middle" x="927" y="-118.5" font-family="Helvetica,sans-Serif" font-size="10.00">FIEAGameEngine/ServiceMgr.h</text>
</a>
</g>
</g>
<!-- Node20&#45;&gt;Node21 -->
<g id="edge30_Node000020_Node000021" class="edge">
<title>Node20&#45;&gt;Node21</title>
<g id="a_edge30_Node000020_Node000021"><a xlink:title=" ">
<path fill="none" stroke="#63b8ff" d="M842.77,-167.59C858.32,-159.36 881.18,-147.26 899.16,-137.74"/>
<polygon fill="#63b8ff" stroke="#63b8ff" points="900.56,-140.96 907.76,-133.19 897.28,-134.77 900.56,-140.96"/>
</a>
</g>
</g>
<!-- Node20&#45;&gt;Node22 -->
<g id="edge34_Node000020_Node000022" class="edge">
<title>Node20&#45;&gt;Node22</title>
<g id="a_edge34_Node000020_Node000022"><a xlink:title=" ">
<path fill="none" stroke="#63b8ff" d="M907.41,-167.53C951.88,-160.54 1000.41,-149.2 1014,-132 1031.23,-110.19 999.77,-91.95 969.99,-80.39"/>
<polygon fill="#63b8ff" stroke="#63b8ff" points="971.2,-77.11 960.6,-76.97 968.79,-83.68 971.2,-77.11"/>
</a>
</g>
</g>
<!-- Node23 -->
<g id="Node000023" class="node">
<title>Node23</title>
<g id="a_Node000023"><a xlink:title=" ">
<polygon fill="#e0e0e0" stroke="#999999" points="830.75,-132 777.25,-132 777.25,-112 830.75,-112 830.75,-132"/>
<text xml:space="preserve" text-anchor="middle" x="804" y="-118.5" font-family="Helvetica,sans-Serif" font-size="10.00">iostream</text>
</a>
</g>
</g>
<!-- Node20&#45;&gt;Node23 -->
<g id="edge33_Node000020_Node000023" class="edge">
<title>Node20&#45;&gt;Node23</title>
<g id="a_edge33_Node000020_Node000023"><a xlink:title=" ">
<path fill="none" stroke="#63b8ff" d="M821.34,-167.59C818.69,-160.78 815.01,-151.32 811.72,-142.86"/>
<polygon fill="#63b8ff" stroke="#63b8ff" points="815.05,-141.76 808.16,-133.71 808.53,-144.3 815.05,-141.76"/>
</a>
</g>
</g>
<!-- Node21&#45;&gt;Node2 -->
<g id="edge31_Node000021_Node000002" class="edge">
<title>Node21&#45;&gt;Node2</title>
<g id="a_edge31_Node000021_Node000002"><a xlink:title=" ">
<path fill="none" stroke="#63b8ff" d="M875.8,-111.53C826.02,-102.33 750.34,-88.33 697.13,-78.49"/>
<polygon fill="#63b8ff" stroke="#63b8ff" points="698.1,-75.11 687.63,-76.73 696.82,-81.99 698.1,-75.11"/>
</a>
</g>
</g>
<!-- Node21&#45;&gt;Node22 -->
<g id="edge32_Node000021_Node000022" class="edge">
<title>Node21&#45;&gt;Node22</title>
<g id="a_edge32_Node000021_Node000022"><a xlink:title=" ">
<path fill="none" stroke="#63b8ff" d="M927,-111.59C927,-105.01 927,-95.96 927,-87.73"/>
<polygon fill="#63b8ff" stroke="#63b8ff" points="930.5,-87.81 927,-77.81 923.5,-87.81 930.5,-87.81"/>
</a>
</g>
</g>
<!-- Node26&#45;&gt;Node2 -->
<g id="edge42_Node000026_Node000002" class="edge">
<title>Node26&#45;&gt;Node2</title>
<g id="a_edge42_Node000026_Node000002"><a xlink:title=" ">
<path fill="none" stroke="#63b8ff" d="M683.54,-335.71C696.88,-315.59 725.18,-266.39 715,-224 702.08,-170.19 667.48,-114.04 648.28,-85.72"/>
<polygon fill="#63b8ff" stroke="#63b8ff" points="651.19,-83.77 642.62,-77.54 645.43,-87.75 651.19,-83.77"/>
</a>
</g>
</g>
<!-- Node26&#45;&gt;Node12 -->
<g id="edge43_Node000026_Node000012" class="edge">
<title>Node26&#45;&gt;Node12</title>
<g id="a_edge43_Node000026_Node000012"><a xlink:title=" ">
<path fill="none" stroke="#63b8ff" d="M660.45,-335.59C646.1,-327.44 625.07,-315.48 608.4,-306"/>
<polygon fill="#63b8ff" stroke="#63b8ff" points="610.42,-303.13 599.99,-301.23 606.96,-309.21 610.42,-303.13"/>
</a>
</g>
</g>
<!-- Node26&#45;&gt;Node20 -->
<g id="edge44_Node000026_Node000020" class="edge">
<title>Node26&#45;&gt;Node20</title>
<g id="a_edge44_Node000026_Node000020"><a xlink:title=" ">
<path fill="none" stroke="#63b8ff" d="M696.72,-335.57C711.97,-327.59 732.95,-315.08 748,-300 776.23,-271.73 774.51,-257.68 796,-224 801.49,-215.39 807.61,-205.88 812.81,-197.84"/>
<polygon fill="#63b8ff" stroke="#63b8ff" points="815.67,-199.86 818.16,-189.56 809.79,-196.06 815.67,-199.86"/>
</a>
</g>
</g>
<!-- Node26&#45;&gt;Node25 -->
<g id="edge45_Node000026_Node000025" class="edge">
<title>Node26&#45;&gt;Node25</title>
<g id="a_edge45_Node000026_Node000025"><a xlink:title=" ">
<path fill="none" stroke="#63b8ff" d="M677,-335.62C677,-318.01 677,-279.59 677,-255.65"/>
<polygon fill="#63b8ff" stroke="#63b8ff" points="680.5,-255.87 677,-245.87 673.5,-255.87 680.5,-255.87"/>
</a>
</g>
</g>
</g>
</svg>
