<?xml version="1.0" encoding="UTF-8" standalone="no"?>
<!DOCTYPE svg PUBLIC "-//W3C//DTD SVG 1.1//EN"
 "http://www.w3.org/Graphics/SVG/1.1/DTD/svg11.dtd">
<!-- Generated by graphviz version 13.1.0 (20250701.0955)
 -->
<!-- Title: Tests/Support/ActionOutput.h Pages: 1 -->
<svg width="318pt" height="84pt"
 viewBox="0.00 0.00 318.00 84.00" xmlns="http://www.w3.org/2000/svg" xmlns:xlink="http://www.w3.org/1999/xlink">
<g id="graph0" class="graph" transform="scale(1 1) rotate(0) translate(4 80)">
<title>Tests/Support/ActionOutput.h</title>
<!-- Node1 -->
<g id="Node000001" class="node">
<title>Node1</title>
<g id="a_Node000001"><a xlink:title=" ">
<polygon fill="#999999" stroke="#666666" points="222.88,-76 77.88,-76 77.88,-56 222.88,-56 222.88,-76"/>
<text xml:space="preserve" text-anchor="middle" x="150.38" y="-62.5" font-family="Helvetica,sans-Serif" font-size="10.00">Tests/Support/ActionOutput.h</text>
</a>
</g>
</g>
<!-- Node2 -->
<g id="Node000002" class="node">
<title>Node2</title>
<g id="a_Node000002"><a xlink:href="_scope_parser_test_8cpp.html" target="_top" xlink:title=" ">
<polygon fill="white" stroke="#666666" points="136.75,-20 0,-20 0,0 136.75,0 136.75,-20"/>
<text xml:space="preserve" text-anchor="middle" x="68.38" y="-6.5" font-family="Helvetica,sans-Serif" font-size="10.00">Tests/ScopeParserTest.cpp</text>
</a>
</g>
</g>
<!-- Node1&#45;&gt;Node2 -->
<g id="edge1_Node000001_Node000002" class="edge">
<title>Node1&#45;&gt;Node2</title>
<g id="a_edge1_Node000001_Node000002"><a xlink:title=" ">
<path fill="none" stroke="#63b8ff" d="M126.49,-49.27C112.33,-39.94 94.84,-28.43 82.77,-20.48"/>
<polygon fill="#63b8ff" stroke="#63b8ff" points="124.55,-52.18 134.83,-54.76 128.4,-46.34 124.55,-52.18"/>
</a>
</g>
</g>
<!-- Node3 -->
<g id="Node000003" class="node">
<title>Node3</title>
<g id="a_Node000003"><a xlink:href="_action_output_8cpp.html" target="_top" xlink:title=" ">
<polygon fill="white" stroke="#666666" points="310.12,-20 154.62,-20 154.62,0 310.12,0 310.12,-20"/>
<text xml:space="preserve" text-anchor="middle" x="232.38" y="-6.5" font-family="Helvetica,sans-Serif" font-size="10.00">Tests/Support/ActionOutput.cpp</text>
</a>
</g>
</g>
<!-- Node1&#45;&gt;Node3 -->
<g id="edge2_Node000001_Node000003" class="edge">
<title>Node1&#45;&gt;Node3</title>
<g id="a_edge2_Node000001_Node000003"><a xlink:title=" ">
<path fill="none" stroke="#63b8ff" d="M174.26,-49.27C188.42,-39.94 205.91,-28.43 217.98,-20.48"/>
<polygon fill="#63b8ff" stroke="#63b8ff" points="172.35,-46.34 165.92,-54.76 176.2,-52.18 172.35,-46.34"/>
</a>
</g>
</g>
</g>
</svg>
