<?xml version="1.0" encoding="UTF-8" standalone="no"?>
<!DOCTYPE svg PUBLIC "-//W3C//DTD SVG 1.1//EN"
 "http://www.w3.org/Graphics/SVG/1.1/DTD/svg11.dtd">
<!-- Generated by graphviz version 13.1.0 (20250701.0955)
 -->
<!-- Title: FIEAGameEngine/src/Actions/ActionListWhileLoop.cpp Pages: 1 -->
<svg width="1143pt" height="544pt"
 viewBox="0.00 0.00 1143.00 544.00" xmlns="http://www.w3.org/2000/svg" xmlns:xlink="http://www.w3.org/1999/xlink">
<g id="graph0" class="graph" transform="scale(1 1) rotate(0) translate(4 540)">
<title>FIEAGameEngine/src/Actions/ActionListWhileLoop.cpp</title>
<!-- Node1 -->
<g id="Node000001" class="node">
<title>Node1</title>
<g id="a_Node000001"><a xlink:title=" ">
<polygon fill="#999999" stroke="#666666" points="564.5,-536 401.5,-536 401.5,-504 564.5,-504 564.5,-536"/>
<text xml:space="preserve" text-anchor="start" x="409.5" y="-522.5" font-family="Helvetica,sans-Serif" font-size="10.00">FIEAGameEngine/src</text>
<text xml:space="preserve" text-anchor="middle" x="483" y="-510.5" font-family="Helvetica,sans-Serif" font-size="10.00">/Actions/ActionListWhileLoop.cpp</text>
</a>
</g>
</g>
<!-- Node2 -->
<g id="Node000002" class="node">
<title>Node2</title>
<g id="a_Node000002"><a xlink:href="_action_list_while_loop_8h.html" target="_top" xlink:title=" ">
<polygon fill="white" stroke="#666666" points="608.75,-468 495.25,-468 495.25,-448 608.75,-448 608.75,-468"/>
<text xml:space="preserve" text-anchor="middle" x="552" y="-454.5" font-family="Helvetica,sans-Serif" font-size="10.00">ActionListWhileLoop.h</text>
</a>
</g>
</g>
<!-- Node1&#45;&gt;Node2 -->
<g id="edge1_Node000001_Node000002" class="edge">
<title>Node1&#45;&gt;Node2</title>
<g id="a_edge1_Node000001_Node000002"><a xlink:title=" ">
<path fill="none" stroke="#63b8ff" d="M500.77,-503.55C510.55,-495.04 522.7,-484.48 532.72,-475.77"/>
<polygon fill="#63b8ff" stroke="#63b8ff" points="534.79,-478.6 540.04,-469.4 530.2,-473.32 534.79,-478.6"/>
</a>
</g>
</g>
<!-- Node28 -->
<g id="Node000028" class="node">
<title>Node28</title>
<g id="a_Node000028"><a xlink:href="_action_preamble_8h.html" target="_top" xlink:title=" ">
<polygon fill="white" stroke="#666666" points="915.62,-412 822.38,-412 822.38,-392 915.62,-392 915.62,-412"/>
<text xml:space="preserve" text-anchor="middle" x="869" y="-398.5" font-family="Helvetica,sans-Serif" font-size="10.00">ActionPreamble.h</text>
</a>
</g>
</g>
<!-- Node1&#45;&gt;Node28 -->
<g id="edge48_Node000001_Node000028" class="edge">
<title>Node1&#45;&gt;Node28</title>
<g id="a_edge48_Node000001_Node000028"><a xlink:title=" ">
<path fill="none" stroke="#63b8ff" d="M534.26,-503.6C611.25,-480.46 755.3,-437.17 826.68,-415.72"/>
<polygon fill="#63b8ff" stroke="#63b8ff" points="827.47,-419.13 836.04,-412.9 825.46,-412.43 827.47,-419.13"/>
</a>
</g>
</g>
<!-- Node29 -->
<g id="Node000029" class="node">
<title>Node29</title>
<g id="a_Node000029"><a xlink:href="_action_condition_8h.html" target="_top" xlink:title=" ">
<polygon fill="white" stroke="#666666" points="179.62,-412 86.38,-412 86.38,-392 179.62,-392 179.62,-412"/>
<text xml:space="preserve" text-anchor="middle" x="133" y="-398.5" font-family="Helvetica,sans-Serif" font-size="10.00">ActionCondition.h</text>
</a>
</g>
</g>
<!-- Node1&#45;&gt;Node29 -->
<g id="edge52_Node000001_Node000029" class="edge">
<title>Node1&#45;&gt;Node29</title>
<g id="a_edge52_Node000001_Node000029"><a xlink:title=" ">
<path fill="none" stroke="#63b8ff" d="M436.52,-503.6C366.91,-480.53 236.84,-437.42 171.93,-415.9"/>
<polygon fill="#63b8ff" stroke="#63b8ff" points="173.37,-412.69 162.78,-412.87 171.17,-419.34 173.37,-412.69"/>
</a>
</g>
</g>
<!-- Node30 -->
<g id="Node000030" class="node">
<title>Node30</title>
<g id="a_Node000030"><a xlink:href="_action_loop_increment_8h.html" target="_top" xlink:title=" ">
<polygon fill="white" stroke="#666666" points="408.25,-412 291.75,-412 291.75,-392 408.25,-392 408.25,-412"/>
<text xml:space="preserve" text-anchor="middle" x="350" y="-398.5" font-family="Helvetica,sans-Serif" font-size="10.00">ActionLoopIncrement.h</text>
</a>
</g>
</g>
<!-- Node1&#45;&gt;Node30 -->
<g id="edge56_Node000001_Node000030" class="edge">
<title>Node1&#45;&gt;Node30</title>
<g id="a_edge56_Node000001_Node000030"><a xlink:title=" ">
<path fill="none" stroke="#63b8ff" d="M465.34,-503.6C440.42,-481.86 395.1,-442.34 369.31,-419.84"/>
<polygon fill="#63b8ff" stroke="#63b8ff" points="371.75,-417.32 361.91,-413.39 367.15,-422.6 371.75,-417.32"/>
</a>
</g>
</g>
<!-- Node3 -->
<g id="Node000003" class="node">
<title>Node3</title>
<g id="a_Node000003"><a xlink:href="_types_8h.html" target="_top" xlink:title=" ">
<polygon fill="white" stroke="#666666" points="602.25,-76 473.75,-76 473.75,-56 602.25,-56 602.25,-76"/>
<text xml:space="preserve" text-anchor="middle" x="538" y="-62.5" font-family="Helvetica,sans-Serif" font-size="10.00">FieaGameEngine/Types.h</text>
</a>
</g>
</g>
<!-- Node2&#45;&gt;Node3 -->
<g id="edge2_Node000002_Node000003" class="edge">
<title>Node2&#45;&gt;Node3</title>
<g id="a_edge2_Node000002_Node000003"><a xlink:title=" ">
<path fill="none" stroke="#63b8ff" d="M560.4,-447.63C567.8,-438.95 578.4,-425.38 585,-412 598.32,-385.01 604,-377.1 604,-347 604,-347 604,-347 604,-177 604,-139.95 576.12,-104.59 556.6,-84.38"/>
<polygon fill="#63b8ff" stroke="#63b8ff" points="559.24,-82.07 549.68,-77.51 554.31,-87.04 559.24,-82.07"/>
</a>
</g>
</g>
<!-- Node12 -->
<g id="Node000012" class="node">
<title>Node12</title>
<g id="a_Node000012"><a xlink:href="_action_list_8h.html" target="_top" xlink:title=" ">
<polygon fill="white" stroke="#666666" points="575.75,-412 426.25,-412 426.25,-392 575.75,-392 575.75,-412"/>
<text xml:space="preserve" text-anchor="middle" x="501" y="-398.5" font-family="Helvetica,sans-Serif" font-size="10.00">FIEAGameEngine/ActionList.h</text>
</a>
</g>
</g>
<!-- Node2&#45;&gt;Node12 -->
<g id="edge11_Node000002_Node000012" class="edge">
<title>Node2&#45;&gt;Node12</title>
<g id="a_edge11_Node000002_Node000012"><a xlink:title=" ">
<path fill="none" stroke="#63b8ff" d="M543.12,-447.59C536.1,-440.16 526.1,-429.58 517.61,-420.58"/>
<polygon fill="#63b8ff" stroke="#63b8ff" points="520.23,-418.27 510.82,-413.4 515.14,-423.07 520.23,-418.27"/>
</a>
</g>
</g>
<!-- Node21 -->
<g id="Node000021" class="node">
<title>Node21</title>
<g id="a_Node000021"><a xlink:href="_factory_service_8h.html" target="_top" xlink:title=" ">
<polygon fill="white" stroke="#666666" points="880,-188 708,-188 708,-168 880,-168 880,-188"/>
<text xml:space="preserve" text-anchor="middle" x="794" y="-174.5" font-family="Helvetica,sans-Serif" font-size="10.00">FIEAGameEngine/FactoryService.h</text>
</a>
</g>
</g>
<!-- Node2&#45;&gt;Node21 -->
<g id="edge47_Node000002_Node000021" class="edge">
<title>Node2&#45;&gt;Node21</title>
<g id="a_edge47_Node000002_Node000021"><a xlink:title=" ">
<path fill="none" stroke="#63b8ff" d="M592.23,-447.51C661.05,-430.1 794,-390.79 794,-347 794,-347 794,-347 794,-289 794,-257.87 794,-221.78 794,-199.68"/>
<polygon fill="#63b8ff" stroke="#63b8ff" points="797.5,-199.93 794,-189.93 790.5,-199.93 797.5,-199.93"/>
</a>
</g>
</g>
<!-- Node4 -->
<g id="Node000004" class="node">
<title>Node4</title>
<g id="a_Node000004"><a xlink:title=" ">
<polygon fill="#e0e0e0" stroke="#999999" points="318,-20 158,-20 158,0 318,0 318,-20"/>
<text xml:space="preserve" text-anchor="middle" x="238" y="-6.5" font-family="Helvetica,sans-Serif" font-size="10.00">../src/Memory/SystemAllocator.h</text>
</a>
</g>
</g>
<!-- Node3&#45;&gt;Node4 -->
<g id="edge3_Node000003_Node000004" class="edge">
<title>Node3&#45;&gt;Node4</title>
<g id="a_edge3_Node000003_Node000004"><a xlink:title=" ">
<path fill="none" stroke="#63b8ff" d="M485.4,-55.53C434.26,-46.33 356.5,-32.33 301.83,-22.49"/>
<polygon fill="#63b8ff" stroke="#63b8ff" points="302.49,-19.05 292.03,-20.73 301.25,-25.94 302.49,-19.05"/>
</a>
</g>
</g>
<!-- Node5 -->
<g id="Node000005" class="node">
<title>Node5</title>
<g id="a_Node000005"><a xlink:title=" ">
<polygon fill="#e0e0e0" stroke="#999999" points="398.25,-20 335.75,-20 335.75,0 398.25,0 398.25,-20"/>
<text xml:space="preserve" text-anchor="middle" x="367" y="-6.5" font-family="Helvetica,sans-Serif" font-size="10.00">windows.h</text>
</a>
</g>
</g>
<!-- Node3&#45;&gt;Node5 -->
<g id="edge4_Node000003_Node000005" class="edge">
<title>Node3&#45;&gt;Node5</title>
<g id="a_edge4_Node000003_Node000005"><a xlink:title=" ">
<path fill="none" stroke="#63b8ff" d="M508.21,-55.59C480.43,-46.82 438.75,-33.66 407.86,-23.9"/>
<polygon fill="#63b8ff" stroke="#63b8ff" points="409.05,-20.61 398.46,-20.94 406.94,-27.28 409.05,-20.61"/>
</a>
</g>
</g>
<!-- Node6 -->
<g id="Node000006" class="node">
<title>Node6</title>
<g id="a_Node000006"><a xlink:title=" ">
<polygon fill="#e0e0e0" stroke="#999999" points="464.12,-20 415.88,-20 415.88,0 464.12,0 464.12,-20"/>
<text xml:space="preserve" text-anchor="middle" x="440" y="-6.5" font-family="Helvetica,sans-Serif" font-size="10.00">cassert</text>
</a>
</g>
</g>
<!-- Node3&#45;&gt;Node6 -->
<g id="edge5_Node000003_Node000006" class="edge">
<title>Node3&#45;&gt;Node6</title>
<g id="a_edge5_Node000003_Node000006"><a xlink:title=" ">
<path fill="none" stroke="#63b8ff" d="M520.93,-55.59C506.12,-47.44 484.43,-35.48 467.23,-26"/>
<polygon fill="#63b8ff" stroke="#63b8ff" points="468.98,-22.97 458.53,-21.21 465.6,-29.1 468.98,-22.97"/>
</a>
</g>
</g>
<!-- Node7 -->
<g id="Node000007" class="node">
<title>Node7</title>
<g id="a_Node000007"><a xlink:title=" ">
<polygon fill="#e0e0e0" stroke="#999999" points="530.12,-20 481.88,-20 481.88,0 530.12,0 530.12,-20"/>
<text xml:space="preserve" text-anchor="middle" x="506" y="-6.5" font-family="Helvetica,sans-Serif" font-size="10.00">cstddef</text>
</a>
</g>
</g>
<!-- Node3&#45;&gt;Node7 -->
<g id="edge6_Node000003_Node000007" class="edge">
<title>Node3&#45;&gt;Node7</title>
<g id="a_edge6_Node000003_Node000007"><a xlink:title=" ">
<path fill="none" stroke="#63b8ff" d="M532.43,-55.59C528.25,-48.55 522.4,-38.67 517.26,-30"/>
<polygon fill="#63b8ff" stroke="#63b8ff" points="520.39,-28.42 512.28,-21.6 514.37,-31.99 520.39,-28.42"/>
</a>
</g>
</g>
<!-- Node8 -->
<g id="Node000008" class="node">
<title>Node8</title>
<g id="a_Node000008"><a xlink:title=" ">
<polygon fill="#e0e0e0" stroke="#999999" points="593.62,-20 548.38,-20 548.38,0 593.62,0 593.62,-20"/>
<text xml:space="preserve" text-anchor="middle" x="571" y="-6.5" font-family="Helvetica,sans-Serif" font-size="10.00">cstdint</text>
</a>
</g>
</g>
<!-- Node3&#45;&gt;Node8 -->
<g id="edge7_Node000003_Node000008" class="edge">
<title>Node3&#45;&gt;Node8</title>
<g id="a_edge7_Node000003_Node000008"><a xlink:title=" ">
<path fill="none" stroke="#63b8ff" d="M543.75,-55.59C548.05,-48.55 554.09,-38.67 559.39,-30"/>
<polygon fill="#63b8ff" stroke="#63b8ff" points="562.3,-31.95 564.53,-21.59 556.33,-28.3 562.3,-31.95"/>
</a>
</g>
</g>
<!-- Node9 -->
<g id="Node000009" class="node">
<title>Node9</title>
<g id="a_Node000009"><a xlink:title=" ">
<polygon fill="#e0e0e0" stroke="#999999" points="664.38,-20 611.62,-20 611.62,0 664.38,0 664.38,-20"/>
<text xml:space="preserve" text-anchor="middle" x="638" y="-6.5" font-family="Helvetica,sans-Serif" font-size="10.00">cstdbool</text>
</a>
</g>
</g>
<!-- Node3&#45;&gt;Node9 -->
<g id="edge8_Node000003_Node000009" class="edge">
<title>Node3&#45;&gt;Node9</title>
<g id="a_edge8_Node000003_Node000009"><a xlink:title=" ">
<path fill="none" stroke="#63b8ff" d="M555.42,-55.59C570.67,-47.36 593.08,-35.26 610.71,-25.74"/>
<polygon fill="#63b8ff" stroke="#63b8ff" points="611.98,-29.03 619.11,-21.2 608.65,-22.87 611.98,-29.03"/>
</a>
</g>
</g>
<!-- Node10 -->
<g id="Node000010" class="node">
<title>Node10</title>
<g id="a_Node000010"><a xlink:title=" ">
<polygon fill="#e0e0e0" stroke="#999999" points="722,-20 682,-20 682,0 722,0 722,-20"/>
<text xml:space="preserve" text-anchor="middle" x="702" y="-6.5" font-family="Helvetica,sans-Serif" font-size="10.00">string</text>
</a>
</g>
</g>
<!-- Node3&#45;&gt;Node10 -->
<g id="edge9_Node000003_Node000010" class="edge">
<title>Node3&#45;&gt;Node10</title>
<g id="a_edge9_Node000003_Node000010"><a xlink:title=" ">
<path fill="none" stroke="#63b8ff" d="M566.57,-55.59C595.7,-46 640.77,-31.16 670.81,-21.27"/>
<polygon fill="#63b8ff" stroke="#63b8ff" points="671.69,-24.67 680.09,-18.21 669.5,-18.02 671.69,-24.67"/>
</a>
</g>
</g>
<!-- Node11 -->
<g id="Node000011" class="node">
<title>Node11</title>
<g id="a_Node000011"><a xlink:title=" ">
<polygon fill="#e0e0e0" stroke="#999999" points="794.12,-20 739.88,-20 739.88,0 794.12,0 794.12,-20"/>
<text xml:space="preserve" text-anchor="middle" x="767" y="-6.5" font-family="Helvetica,sans-Serif" font-size="10.00">crtdefs.h</text>
</a>
</g>
</g>
<!-- Node3&#45;&gt;Node11 -->
<g id="edge10_Node000003_Node000011" class="edge">
<title>Node3&#45;&gt;Node11</title>
<g id="a_edge10_Node000003_Node000011"><a xlink:title=" ">
<path fill="none" stroke="#63b8ff" d="M579.46,-55.53C616.2,-47.1 671.61,-34.27 728.48,-20.58"/>
<polygon fill="#63b8ff" stroke="#63b8ff" points="729.12,-24.03 738.02,-18.28 727.48,-17.22 729.12,-24.03"/>
</a>
</g>
</g>
<!-- Node12&#45;&gt;Node3 -->
<g id="edge12_Node000012_Node000003" class="edge">
<title>Node12&#45;&gt;Node3</title>
<g id="a_edge12_Node000012_Node000003"><a xlink:title=" ">
<path fill="none" stroke="#63b8ff" d="M448.54,-391.52C358.4,-374.48 178.79,-336.98 127,-300 97.12,-278.66 76,-271.72 76,-235 76,-235 76,-235 76,-177 76,-140.55 94.23,-129.85 126,-112 181.85,-80.62 359.35,-71.12 462.24,-68.25"/>
<polygon fill="#63b8ff" stroke="#63b8ff" points="462.07,-71.75 471.97,-67.99 461.89,-64.75 462.07,-71.75"/>
</a>
</g>
</g>
<!-- Node13 -->
<g id="Node000013" class="node">
<title>Node13</title>
<g id="a_Node000013"><a xlink:href="_attributed_8h.html" target="_top" xlink:title=" ">
<polygon fill="white" stroke="#666666" points="434.88,-300 331.12,-300 331.12,-280 434.88,-280 434.88,-300"/>
<text xml:space="preserve" text-anchor="middle" x="383" y="-286.5" font-family="Helvetica,sans-Serif" font-size="10.00">Content/Attributed.h</text>
</a>
</g>
</g>
<!-- Node12&#45;&gt;Node13 -->
<g id="edge13_Node000012_Node000013" class="edge">
<title>Node12&#45;&gt;Node13</title>
<g id="a_edge13_Node000012_Node000013"><a xlink:title=" ">
<path fill="none" stroke="#63b8ff" d="M493.11,-391.76C481.86,-378.78 460.29,-354.63 440,-336 429.05,-325.95 416.09,-315.61 405.3,-307.38"/>
<polygon fill="#63b8ff" stroke="#63b8ff" points="407.43,-304.6 397.33,-301.39 403.23,-310.2 407.43,-304.6"/>
</a>
</g>
</g>
<!-- Node12&#45;&gt;Node21 -->
<g id="edge41_Node000012_Node000021" class="edge">
<title>Node12&#45;&gt;Node21</title>
<g id="a_edge41_Node000012_Node000021"><a xlink:title=" ">
<path fill="none" stroke="#63b8ff" d="M575.97,-394.46C634.25,-387.93 708.94,-375.95 732,-356 738.19,-350.65 772.9,-244.52 787.52,-199.21"/>
<polygon fill="#63b8ff" stroke="#63b8ff" points="790.8,-200.44 790.53,-189.85 784.13,-198.3 790.8,-200.44"/>
</a>
</g>
</g>
<!-- Node27 -->
<g id="Node000027" class="node">
<title>Node27</title>
<g id="a_Node000027"><a xlink:href="_action_8h.html" target="_top" xlink:title=" ">
<polygon fill="white" stroke="#666666" points="430.88,-356 297.12,-356 297.12,-336 430.88,-336 430.88,-356"/>
<text xml:space="preserve" text-anchor="middle" x="364" y="-342.5" font-family="Helvetica,sans-Serif" font-size="10.00">FIEAGameEngine/Action.h</text>
</a>
</g>
</g>
<!-- Node12&#45;&gt;Node27 -->
<g id="edge42_Node000012_Node000027" class="edge">
<title>Node12&#45;&gt;Node27</title>
<g id="a_edge42_Node000012_Node000027"><a xlink:title=" ">
<path fill="none" stroke="#63b8ff" d="M477.14,-391.59C455.46,-383.05 423.23,-370.35 398.71,-360.68"/>
<polygon fill="#63b8ff" stroke="#63b8ff" points="400.04,-357.45 389.46,-357.03 397.48,-363.96 400.04,-357.45"/>
</a>
</g>
</g>
<!-- Node13&#45;&gt;Node3 -->
<g id="edge14_Node000013_Node000003" class="edge">
<title>Node13&#45;&gt;Node3</title>
<g id="a_edge14_Node000013_Node000003"><a xlink:title=" ">
<path fill="none" stroke="#63b8ff" d="M353.62,-279.58C281.42,-255 105.78,-185.7 171,-112 189.94,-90.59 360.22,-77.19 462.05,-71.01"/>
<polygon fill="#63b8ff" stroke="#63b8ff" points="462.22,-74.51 472,-70.42 461.81,-67.52 462.22,-74.51"/>
</a>
</g>
</g>
<!-- Node14 -->
<g id="Node000014" class="node">
<title>Node14</title>
<g id="a_Node000014"><a xlink:href="_datum_8h.html" target="_top" xlink:title=" ">
<polygon fill="white" stroke="#666666" points="400.5,-188 309.5,-188 309.5,-168 400.5,-168 400.5,-188"/>
<text xml:space="preserve" text-anchor="middle" x="355" y="-174.5" font-family="Helvetica,sans-Serif" font-size="10.00">Content/Datum.h</text>
</a>
</g>
</g>
<!-- Node13&#45;&gt;Node14 -->
<g id="edge15_Node000013_Node000014" class="edge">
<title>Node13&#45;&gt;Node14</title>
<g id="a_edge15_Node000013_Node000014"><a xlink:title=" ">
<path fill="none" stroke="#63b8ff" d="M380.61,-279.62C376.11,-261.92 366.26,-223.24 360.17,-199.32"/>
<polygon fill="#63b8ff" stroke="#63b8ff" points="363.61,-198.65 357.75,-189.82 356.83,-200.38 363.61,-198.65"/>
</a>
</g>
</g>
<!-- Node18 -->
<g id="Node000018" class="node">
<title>Node18</title>
<g id="a_Node000018"><a xlink:href="_scope_8h.html" target="_top" xlink:title=" ">
<polygon fill="white" stroke="#666666" points="575.75,-244 486.25,-244 486.25,-224 575.75,-224 575.75,-244"/>
<text xml:space="preserve" text-anchor="middle" x="531" y="-230.5" font-family="Helvetica,sans-Serif" font-size="10.00">Content/Scope.h</text>
</a>
</g>
</g>
<!-- Node13&#45;&gt;Node18 -->
<g id="edge21_Node000013_Node000018" class="edge">
<title>Node13&#45;&gt;Node18</title>
<g id="a_edge21_Node000013_Node000018"><a xlink:title=" ">
<path fill="none" stroke="#63b8ff" d="M408.78,-279.59C432.4,-270.97 467.64,-258.12 494.22,-248.42"/>
<polygon fill="#63b8ff" stroke="#63b8ff" points="495.4,-251.71 503.6,-245 493,-245.14 495.4,-251.71"/>
</a>
</g>
</g>
<!-- Node19 -->
<g id="Node000019" class="node">
<title>Node19</title>
<g id="a_Node000019"><a xlink:href="_r_t_t_i_8h.html" target="_top" xlink:title=" ">
<polygon fill="white" stroke="#666666" points="759.88,-132 632.12,-132 632.12,-112 759.88,-112 759.88,-132"/>
<text xml:space="preserve" text-anchor="middle" x="696" y="-118.5" font-family="Helvetica,sans-Serif" font-size="10.00">FIEAGameEngine/RTTI.h</text>
</a>
</g>
</g>
<!-- Node13&#45;&gt;Node19 -->
<g id="edge38_Node000013_Node000019" class="edge">
<title>Node13&#45;&gt;Node19</title>
<g id="a_edge38_Node000013_Node000019"><a xlink:title=" ">
<path fill="none" stroke="#63b8ff" d="M386.27,-279.58C394.84,-256.43 420.27,-196.53 463,-168 488.42,-151.03 562.63,-138.62 620.54,-131.18"/>
<polygon fill="#63b8ff" stroke="#63b8ff" points="620.9,-134.66 630.39,-129.94 620.03,-127.71 620.9,-134.66"/>
</a>
</g>
</g>
<!-- Node25 -->
<g id="Node000025" class="node">
<title>Node25</title>
<g id="a_Node000025"><a xlink:title=" ">
<polygon fill="#e0e0e0" stroke="#999999" points="514.5,-188 471.5,-188 471.5,-168 514.5,-168 514.5,-188"/>
<text xml:space="preserve" text-anchor="middle" x="493" y="-174.5" font-family="Helvetica,sans-Serif" font-size="10.00">vector</text>
</a>
</g>
</g>
<!-- Node13&#45;&gt;Node25 -->
<g id="edge39_Node000013_Node000025" class="edge">
<title>Node13&#45;&gt;Node25</title>
<g id="a_edge39_Node000013_Node000025"><a xlink:title=" ">
<path fill="none" stroke="#63b8ff" d="M394.26,-279.69C404.81,-270.81 420.88,-256.93 434,-244 449.54,-228.67 466.16,-210.15 477.79,-196.8"/>
<polygon fill="#63b8ff" stroke="#63b8ff" points="480.41,-199.12 484.3,-189.27 475.11,-194.55 480.41,-199.12"/>
</a>
</g>
</g>
<!-- Node26 -->
<g id="Node000026" class="node">
<title>Node26</title>
<g id="a_Node000026"><a xlink:title=" ">
<polygon fill="#e0e0e0" stroke="#999999" points="200,-244 142,-244 142,-224 200,-224 200,-244"/>
<text xml:space="preserve" text-anchor="middle" x="171" y="-230.5" font-family="Helvetica,sans-Serif" font-size="10.00">functional</text>
</a>
</g>
</g>
<!-- Node13&#45;&gt;Node26 -->
<g id="edge40_Node000013_Node000026" class="edge">
<title>Node13&#45;&gt;Node26</title>
<g id="a_edge40_Node000013_Node000026"><a xlink:title=" ">
<path fill="none" stroke="#63b8ff" d="M346.07,-279.59C308.39,-270 250.08,-255.14 211.24,-245.25"/>
<polygon fill="#63b8ff" stroke="#63b8ff" points="212.37,-241.93 201.81,-242.85 210.64,-248.71 212.37,-241.93"/>
</a>
</g>
</g>
<!-- Node14&#45;&gt;Node3 -->
<g id="edge16_Node000014_Node000003" class="edge">
<title>Node14&#45;&gt;Node3</title>
<g id="a_edge16_Node000014_Node000003"><a xlink:title=" ">
<path fill="none" stroke="#63b8ff" d="M400.79,-168.06C440.06,-159.61 492.79,-146.15 509,-132 522.24,-120.44 529.71,-101.67 533.75,-87.27"/>
<polygon fill="#63b8ff" stroke="#63b8ff" points="537.06,-88.46 536.02,-77.92 530.26,-86.81 537.06,-88.46"/>
</a>
</g>
</g>
<!-- Node15 -->
<g id="Node000015" class="node">
<title>Node15</title>
<g id="a_Node000015"><a xlink:title=" ">
<polygon fill="#e0e0e0" stroke="#999999" points="249.62,-132 180.38,-132 180.38,-112 249.62,-112 249.62,-132"/>
<text xml:space="preserve" text-anchor="middle" x="215" y="-118.5" font-family="Helvetica,sans-Serif" font-size="10.00">glm/glm.hpp</text>
</a>
</g>
</g>
<!-- Node14&#45;&gt;Node15 -->
<g id="edge17_Node000014_Node000015" class="edge">
<title>Node14&#45;&gt;Node15</title>
<g id="a_edge17_Node000014_Node000015"><a xlink:title=" ">
<path fill="none" stroke="#63b8ff" d="M330.61,-167.59C308.37,-159.01 275.23,-146.23 250.13,-136.55"/>
<polygon fill="#63b8ff" stroke="#63b8ff" points="251.58,-133.36 240.99,-133.02 249.06,-139.89 251.58,-133.36"/>
</a>
</g>
</g>
<!-- Node16 -->
<g id="Node000016" class="node">
<title>Node16</title>
<g id="a_Node000016"><a xlink:title=" ">
<polygon fill="#e0e0e0" stroke="#999999" points="386,-132 268,-132 268,-112 386,-112 386,-132"/>
<text xml:space="preserve" text-anchor="middle" x="327" y="-118.5" font-family="Helvetica,sans-Serif" font-size="10.00">glm/gtx/string_cast.hpp</text>
</a>
</g>
</g>
<!-- Node14&#45;&gt;Node16 -->
<g id="edge18_Node000014_Node000016" class="edge">
<title>Node14&#45;&gt;Node16</title>
<g id="a_edge18_Node000014_Node000016"><a xlink:title=" ">
<path fill="none" stroke="#63b8ff" d="M350.12,-167.59C346.51,-160.63 341.46,-150.89 337,-142.29"/>
<polygon fill="#63b8ff" stroke="#63b8ff" points="340.23,-140.91 332.52,-133.64 334.01,-144.13 340.23,-140.91"/>
</a>
</g>
</g>
<!-- Node17 -->
<g id="Node000017" class="node">
<title>Node17</title>
<g id="a_Node000017"><a xlink:href="_datum_8inl.html" target="_top" xlink:title=" ">
<polygon fill="white" stroke="#666666" points="499.75,-132 404.25,-132 404.25,-112 499.75,-112 499.75,-132"/>
<text xml:space="preserve" text-anchor="middle" x="452" y="-118.5" font-family="Helvetica,sans-Serif" font-size="10.00">Content/Datum.inl</text>
</a>
</g>
</g>
<!-- Node14&#45;&gt;Node17 -->
<g id="edge19_Node000014_Node000017" class="edge">
<title>Node14&#45;&gt;Node17</title>
<g id="a_edge19_Node000014_Node000017"><a xlink:title=" ">
<path fill="none" stroke="#63b8ff" d="M366.63,-167.59C379.83,-159.32 401.44,-147.14 419.69,-137.6"/>
<polygon fill="#63b8ff" stroke="#63b8ff" points="421.04,-140.85 428.34,-133.17 417.85,-134.62 421.04,-140.85"/>
</a>
</g>
</g>
<!-- Node17&#45;&gt;Node14 -->
<g id="edge20_Node000017_Node000014" class="edge">
<title>Node17&#45;&gt;Node14</title>
<g id="a_edge20_Node000017_Node000014"><a xlink:title=" ">
<path fill="none" stroke="#63b8ff" d="M440.25,-132.48C427.06,-140.74 405.58,-152.84 387.4,-162.35"/>
<polygon fill="#63b8ff" stroke="#63b8ff" points="385.81,-159.23 378.51,-166.9 389.01,-165.46 385.81,-159.23"/>
</a>
</g>
</g>
<!-- Node18&#45;&gt;Node3 -->
<g id="edge22_Node000018_Node000003" class="edge">
<title>Node18&#45;&gt;Node3</title>
<g id="a_edge22_Node000018_Node000003"><a xlink:title=" ">
<path fill="none" stroke="#63b8ff" d="M531.4,-223.6C532.5,-197.46 535.62,-123.48 537.14,-87.36"/>
<polygon fill="#63b8ff" stroke="#63b8ff" points="540.62,-87.95 537.54,-77.81 533.63,-87.65 540.62,-87.95"/>
</a>
</g>
</g>
<!-- Node18&#45;&gt;Node14 -->
<g id="edge27_Node000018_Node000014" class="edge">
<title>Node18&#45;&gt;Node14</title>
<g id="a_edge27_Node000018_Node000014"><a xlink:title=" ">
<path fill="none" stroke="#63b8ff" d="M500.34,-223.59C471.62,-214.78 428.47,-201.54 396.64,-191.78"/>
<polygon fill="#63b8ff" stroke="#63b8ff" points="397.93,-188.51 387.34,-188.92 395.88,-195.2 397.93,-188.51"/>
</a>
</g>
</g>
<!-- Node18&#45;&gt;Node19 -->
<g id="edge23_Node000018_Node000019" class="edge">
<title>Node18&#45;&gt;Node19</title>
<g id="a_edge23_Node000018_Node000019"><a xlink:title=" ">
<path fill="none" stroke="#63b8ff" d="M545.07,-223.62C573.44,-204.71 637.78,-161.82 672.59,-138.61"/>
<polygon fill="#63b8ff" stroke="#63b8ff" points="674.33,-141.65 680.71,-133.19 670.45,-135.83 674.33,-141.65"/>
</a>
</g>
</g>
<!-- Node18&#45;&gt;Node21 -->
<g id="edge28_Node000018_Node000021" class="edge">
<title>Node18&#45;&gt;Node21</title>
<g id="a_edge28_Node000018_Node000021"><a xlink:title=" ">
<path fill="none" stroke="#63b8ff" d="M576.21,-223.72C620.67,-214.59 688.7,-200.62 736.87,-190.73"/>
<polygon fill="#63b8ff" stroke="#63b8ff" points="737.48,-194.18 746.57,-188.74 736.07,-187.32 737.48,-194.18"/>
</a>
</g>
</g>
<!-- Node23 -->
<g id="Node000023" class="node">
<title>Node23</title>
<g id="a_Node000023"><a xlink:title=" ">
<polygon fill="#e0e0e0" stroke="#999999" points="1083.38,-76 1000.62,-76 1000.62,-56 1083.38,-56 1083.38,-76"/>
<text xml:space="preserve" text-anchor="middle" x="1042" y="-62.5" font-family="Helvetica,sans-Serif" font-size="10.00">unordered_map</text>
</a>
</g>
</g>
<!-- Node18&#45;&gt;Node23 -->
<g id="edge37_Node000018_Node000023" class="edge">
<title>Node18&#45;&gt;Node23</title>
<g id="a_edge37_Node000018_Node000023"><a xlink:title=" ">
<path fill="none" stroke="#63b8ff" d="M555.48,-223.5C588.18,-210.82 647.93,-187.67 699,-168 763.85,-143.02 778.51,-132.23 845,-112 893.22,-97.33 949.35,-84.95 989.34,-76.92"/>
<polygon fill="#63b8ff" stroke="#63b8ff" points="989.81,-80.39 998.94,-75.01 988.45,-73.52 989.81,-80.39"/>
</a>
</g>
</g>
<!-- Node18&#45;&gt;Node25 -->
<g id="edge36_Node000018_Node000025" class="edge">
<title>Node18&#45;&gt;Node25</title>
<g id="a_edge36_Node000018_Node000025"><a xlink:title=" ">
<path fill="none" stroke="#63b8ff" d="M524.38,-223.59C519.31,-216.39 512.16,-206.23 505.97,-197.43"/>
<polygon fill="#63b8ff" stroke="#63b8ff" points="509.03,-195.7 500.41,-189.54 503.31,-199.73 509.03,-195.7"/>
</a>
</g>
</g>
<!-- Node19&#45;&gt;Node3 -->
<g id="edge24_Node000019_Node000003" class="edge">
<title>Node19&#45;&gt;Node3</title>
<g id="a_edge24_Node000019_Node000003"><a xlink:title=" ">
<path fill="none" stroke="#63b8ff" d="M668.48,-111.59C643.03,-102.9 604.97,-89.89 576.51,-80.16"/>
<polygon fill="#63b8ff" stroke="#63b8ff" points="577.76,-76.89 567.17,-76.97 575.5,-83.52 577.76,-76.89"/>
</a>
</g>
</g>
<!-- Node20 -->
<g id="Node000020" class="node">
<title>Node20</title>
<g id="a_Node000020"><a xlink:href="_r_t_t_i_8inl.html" target="_top" xlink:title=" ">
<polygon fill="white" stroke="#666666" points="762.12,-76 629.88,-76 629.88,-56 762.12,-56 762.12,-76"/>
<text xml:space="preserve" text-anchor="middle" x="696" y="-62.5" font-family="Helvetica,sans-Serif" font-size="10.00">FIEAGameEngine/RTTI.inl</text>
</a>
</g>
</g>
<!-- Node19&#45;&gt;Node20 -->
<g id="edge25_Node000019_Node000020" class="edge">
<title>Node19&#45;&gt;Node20</title>
<g id="a_edge25_Node000019_Node000020"><a xlink:title=" ">
<path fill="none" stroke="#63b8ff" d="M690.73,-111.59C689.42,-105.01 688.98,-95.96 689.41,-87.73"/>
<polygon fill="#63b8ff" stroke="#63b8ff" points="692.89,-88.14 690.58,-77.8 685.94,-87.33 692.89,-88.14"/>
</a>
</g>
</g>
<!-- Node20&#45;&gt;Node19 -->
<g id="edge26_Node000020_Node000019" class="edge">
<title>Node20&#45;&gt;Node19</title>
<g id="a_edge26_Node000020_Node000019"><a xlink:title=" ">
<path fill="none" stroke="#63b8ff" d="M701.25,-76.3C702.59,-82.93 703.03,-92.11 702.58,-100.43"/>
<polygon fill="#63b8ff" stroke="#63b8ff" points="699.13,-99.75 701.44,-110.09 706.08,-100.57 699.13,-99.75"/>
</a>
</g>
</g>
<!-- Node21&#45;&gt;Node3 -->
<g id="edge29_Node000021_Node000003" class="edge">
<title>Node21&#45;&gt;Node3</title>
<g id="a_edge29_Node000021_Node000003"><a xlink:title=" ">
<path fill="none" stroke="#63b8ff" d="M793.22,-167.86C791.5,-153.62 786.04,-126.3 769,-112 756.99,-101.92 676.3,-87.75 613.63,-78.01"/>
<polygon fill="#63b8ff" stroke="#63b8ff" points="614.46,-74.6 604.05,-76.54 613.4,-81.52 614.46,-74.6"/>
</a>
</g>
</g>
<!-- Node21&#45;&gt;Node19 -->
<g id="edge30_Node000021_Node000019" class="edge">
<title>Node21&#45;&gt;Node19</title>
<g id="a_edge30_Node000021_Node000019"><a xlink:title=" ">
<path fill="none" stroke="#63b8ff" d="M776.93,-167.59C762.12,-159.44 740.43,-147.48 723.23,-138"/>
<polygon fill="#63b8ff" stroke="#63b8ff" points="724.98,-134.97 714.53,-133.21 721.6,-141.1 724.98,-134.97"/>
</a>
</g>
</g>
<!-- Node22 -->
<g id="Node000022" class="node">
<title>Node22</title>
<g id="a_Node000022"><a xlink:href="_service_mgr_8h.html" target="_top" xlink:title=" ">
<polygon fill="white" stroke="#666666" points="1119.75,-132 964.25,-132 964.25,-112 1119.75,-112 1119.75,-132"/>
<text xml:space="preserve" text-anchor="middle" x="1042" y="-118.5" font-family="Helvetica,sans-Serif" font-size="10.00">FIEAGameEngine/ServiceMgr.h</text>
</a>
</g>
</g>
<!-- Node21&#45;&gt;Node22 -->
<g id="edge31_Node000021_Node000022" class="edge">
<title>Node21&#45;&gt;Node22</title>
<g id="a_edge31_Node000021_Node000022"><a xlink:title=" ">
<path fill="none" stroke="#63b8ff" d="M837.48,-167.53C879.23,-158.44 942.43,-144.68 987.52,-134.86"/>
<polygon fill="#63b8ff" stroke="#63b8ff" points="988.06,-138.33 997.09,-132.78 986.57,-131.49 988.06,-138.33"/>
</a>
</g>
</g>
<!-- Node21&#45;&gt;Node23 -->
<g id="edge35_Node000021_Node000023" class="edge">
<title>Node21&#45;&gt;Node23</title>
<g id="a_edge35_Node000021_Node000023"><a xlink:title=" ">
<path fill="none" stroke="#63b8ff" d="M880.42,-177.78C968.75,-176.5 1097.32,-168.22 1129,-132 1147.6,-110.74 1114.62,-92.1 1084.07,-80.29"/>
<polygon fill="#63b8ff" stroke="#63b8ff" points="1085.47,-77.08 1074.88,-76.93 1083.07,-83.65 1085.47,-77.08"/>
</a>
</g>
</g>
<!-- Node24 -->
<g id="Node000024" class="node">
<title>Node24</title>
<g id="a_Node000024"><a xlink:title=" ">
<polygon fill="#e0e0e0" stroke="#999999" points="907.75,-132 854.25,-132 854.25,-112 907.75,-112 907.75,-132"/>
<text xml:space="preserve" text-anchor="middle" x="881" y="-118.5" font-family="Helvetica,sans-Serif" font-size="10.00">iostream</text>
</a>
</g>
</g>
<!-- Node21&#45;&gt;Node24 -->
<g id="edge34_Node000021_Node000024" class="edge">
<title>Node21&#45;&gt;Node24</title>
<g id="a_edge34_Node000021_Node000024"><a xlink:title=" ">
<path fill="none" stroke="#63b8ff" d="M809.15,-167.59C822.05,-159.59 840.83,-147.93 855.96,-138.54"/>
<polygon fill="#63b8ff" stroke="#63b8ff" points="857.79,-141.53 864.44,-133.28 854.1,-135.58 857.79,-141.53"/>
</a>
</g>
</g>
<!-- Node22&#45;&gt;Node3 -->
<g id="edge32_Node000022_Node000003" class="edge">
<title>Node22&#45;&gt;Node3</title>
<g id="a_edge32_Node000022_Node000003"><a xlink:title=" ">
<path fill="none" stroke="#63b8ff" d="M964.02,-112.7C879.5,-103.7 740.68,-88.88 621,-76 618.54,-75.74 616.04,-75.47 613.52,-75.19"/>
<polygon fill="#63b8ff" stroke="#63b8ff" points="614.17,-71.74 603.85,-74.15 613.41,-78.7 614.17,-71.74"/>
</a>
</g>
</g>
<!-- Node22&#45;&gt;Node23 -->
<g id="edge33_Node000022_Node000023" class="edge">
<title>Node22&#45;&gt;Node23</title>
<g id="a_edge33_Node000022_Node000023"><a xlink:title=" ">
<path fill="none" stroke="#63b8ff" d="M1042,-111.59C1042,-105.01 1042,-95.96 1042,-87.73"/>
<polygon fill="#63b8ff" stroke="#63b8ff" points="1045.5,-87.81 1042,-77.81 1038.5,-87.81 1045.5,-87.81"/>
</a>
</g>
</g>
<!-- Node27&#45;&gt;Node3 -->
<g id="edge43_Node000027_Node000003" class="edge">
<title>Node27&#45;&gt;Node3</title>
<g id="a_edge43_Node000027_Node000003"><a xlink:title=" ">
<path fill="none" stroke="#63b8ff" d="M296.68,-343.26C222.63,-337.34 114,-315.02 114,-235 114,-235 114,-235 114,-177 114,-142.61 126.81,-130.19 156,-112 205.56,-81.12 365.69,-71.43 462.18,-68.39"/>
<polygon fill="#63b8ff" stroke="#63b8ff" points="462.22,-71.89 472.11,-68.1 462.01,-64.89 462.22,-71.89"/>
</a>
</g>
</g>
<!-- Node27&#45;&gt;Node13 -->
<g id="edge44_Node000027_Node000013" class="edge">
<title>Node27&#45;&gt;Node13</title>
<g id="a_edge44_Node000027_Node000013"><a xlink:title=" ">
<path fill="none" stroke="#63b8ff" d="M367.31,-335.59C369.68,-328.86 372.96,-319.53 375.91,-311.15"/>
<polygon fill="#63b8ff" stroke="#63b8ff" points="379.21,-312.32 379.23,-301.73 372.61,-310 379.21,-312.32"/>
</a>
</g>
</g>
<!-- Node27&#45;&gt;Node21 -->
<g id="edge45_Node000027_Node000021" class="edge">
<title>Node27&#45;&gt;Node21</title>
<g id="a_edge45_Node000027_Node000021"><a xlink:title=" ">
<path fill="none" stroke="#63b8ff" d="M404.94,-335.51C438.43,-327.34 486.81,-314.58 528,-300 586.54,-279.29 599.46,-269.68 656,-244 693.47,-226.99 736.29,-206.68 764.16,-193.35"/>
<polygon fill="#63b8ff" stroke="#63b8ff" points="765.56,-196.56 773.06,-189.08 762.53,-190.25 765.56,-196.56"/>
</a>
</g>
</g>
<!-- Node27&#45;&gt;Node26 -->
<g id="edge46_Node000027_Node000026" class="edge">
<title>Node27&#45;&gt;Node26</title>
<g id="a_edge46_Node000027_Node000026"><a xlink:title=" ">
<path fill="none" stroke="#63b8ff" d="M347.54,-335.62C314.07,-316.54 237.81,-273.08 197.35,-250.02"/>
<polygon fill="#63b8ff" stroke="#63b8ff" points="199.15,-247.02 188.73,-245.1 195.68,-253.1 199.15,-247.02"/>
</a>
</g>
</g>
<!-- Node28&#45;&gt;Node3 -->
<g id="edge49_Node000028_Node000003" class="edge">
<title>Node28&#45;&gt;Node3</title>
<g id="a_edge49_Node000028_Node000003"><a xlink:title=" ">
<path fill="none" stroke="#63b8ff" d="M879.76,-391.59C898.7,-373.92 936,-333.71 936,-291 936,-291 936,-291 936,-177 936,-146.9 939.98,-131.44 917,-112 914.12,-109.56 723.66,-87.83 613.87,-75.48"/>
<polygon fill="#63b8ff" stroke="#63b8ff" points="614.36,-72.02 604.04,-74.38 613.58,-78.97 614.36,-72.02"/>
</a>
</g>
</g>
<!-- Node28&#45;&gt;Node21 -->
<g id="edge51_Node000028_Node000021" class="edge">
<title>Node28&#45;&gt;Node21</title>
<g id="a_edge51_Node000028_Node000021"><a xlink:title=" ">
<path fill="none" stroke="#63b8ff" d="M865.87,-391.74C854.68,-358.6 816.42,-245.35 800.76,-199.01"/>
<polygon fill="#63b8ff" stroke="#63b8ff" points="804.14,-198.08 797.62,-189.73 797.51,-200.32 804.14,-198.08"/>
</a>
</g>
</g>
<!-- Node28&#45;&gt;Node27 -->
<g id="edge50_Node000028_Node000027" class="edge">
<title>Node28&#45;&gt;Node27</title>
<g id="a_edge50_Node000028_Node000027"><a xlink:title=" ">
<path fill="none" stroke="#63b8ff" d="M821.94,-395.97C735.12,-386.68 548.92,-366.77 442.63,-355.41"/>
<polygon fill="#63b8ff" stroke="#63b8ff" points="443.16,-351.94 432.84,-354.36 442.41,-358.9 443.16,-351.94"/>
</a>
</g>
</g>
<!-- Node29&#45;&gt;Node3 -->
<g id="edge53_Node000029_Node000003" class="edge">
<title>Node29&#45;&gt;Node3</title>
<g id="a_edge53_Node000029_Node000003"><a xlink:title=" ">
<path fill="none" stroke="#63b8ff" d="M103.81,-391.57C64.66,-376.86 0,-344.49 0,-291 0,-291 0,-291 0,-177 0,-139.16 21.45,-129.5 55,-112 123.83,-76.1 344.02,-68.57 461.87,-67.17"/>
<polygon fill="#63b8ff" stroke="#63b8ff" points="461.82,-70.67 471.78,-67.06 461.74,-63.67 461.82,-70.67"/>
</a>
</g>
</g>
<!-- Node29&#45;&gt;Node21 -->
<g id="edge55_Node000029_Node000021" class="edge">
<title>Node29&#45;&gt;Node21</title>
<g id="a_edge55_Node000029_Node000021"><a xlink:title=" ">
<path fill="none" stroke="#63b8ff" d="M152.17,-391.71C181.06,-377.99 237.73,-352.21 288,-336 355.72,-314.16 375.72,-320.04 444,-300 540.04,-271.81 561.3,-256.41 656,-224 688.59,-212.85 725.71,-200.78 753.24,-191.95"/>
<polygon fill="#63b8ff" stroke="#63b8ff" points="754.14,-195.34 762.59,-188.96 752,-188.67 754.14,-195.34"/>
</a>
</g>
</g>
<!-- Node29&#45;&gt;Node27 -->
<g id="edge54_Node000029_Node000027" class="edge">
<title>Node29&#45;&gt;Node27</title>
<g id="a_edge54_Node000029_Node000027"><a xlink:title=" ">
<path fill="none" stroke="#63b8ff" d="M173.5,-391.53C212.14,-382.5 270.51,-368.85 312.45,-359.05"/>
<polygon fill="#63b8ff" stroke="#63b8ff" points="313.13,-362.49 322.07,-356.8 311.54,-355.67 313.13,-362.49"/>
</a>
</g>
</g>
<!-- Node30&#45;&gt;Node3 -->
<g id="edge57_Node000030_Node000003" class="edge">
<title>Node30&#45;&gt;Node3</title>
<g id="a_edge57_Node000030_Node000003"><a xlink:title=" ">
<path fill="none" stroke="#63b8ff" d="M291.32,-395.97C200.94,-384.65 38,-348.51 38,-235 38,-235 38,-235 38,-177 38,-139.44 58.85,-129.64 92,-112 154.29,-78.85 352.11,-70.08 462.2,-67.79"/>
<polygon fill="#63b8ff" stroke="#63b8ff" points="462.11,-71.29 472.04,-67.6 461.97,-64.3 462.11,-71.29"/>
</a>
</g>
</g>
<!-- Node30&#45;&gt;Node21 -->
<g id="edge59_Node000030_Node000021" class="edge">
<title>Node30&#45;&gt;Node21</title>
<g id="a_edge59_Node000030_Node000021"><a xlink:title=" ">
<path fill="none" stroke="#63b8ff" d="M372.76,-391.67C428.13,-368.71 573.9,-306.77 690,-244 718.52,-228.58 749.91,-208.51 770.66,-194.77"/>
<polygon fill="#63b8ff" stroke="#63b8ff" points="772.57,-197.71 778.95,-189.25 768.68,-191.88 772.57,-197.71"/>
</a>
</g>
</g>
<!-- Node30&#45;&gt;Node27 -->
<g id="edge58_Node000030_Node000027" class="edge">
<title>Node30&#45;&gt;Node27</title>
<g id="a_edge58_Node000030_Node000027"><a xlink:title=" ">
<path fill="none" stroke="#63b8ff" d="M352.44,-391.59C354.17,-384.93 356.55,-375.75 358.7,-367.44"/>
<polygon fill="#63b8ff" stroke="#63b8ff" points="362.09,-368.32 361.21,-357.76 355.31,-366.56 362.09,-368.32"/>
</a>
</g>
</g>
</g>
</svg>
