<?xml version="1.0" encoding="UTF-8" standalone="no"?>
<!DOCTYPE svg PUBLIC "-//W3C//DTD SVG 1.1//EN"
 "http://www.w3.org/Graphics/SVG/1.1/DTD/svg11.dtd">
<!-- Generated by graphviz version 13.1.0 (20250701.0955)
 -->
<!-- Title: FIEAGameEngine/include/FIEAGameEngine/ActionList.h Pages: 1 -->
<svg width="3411pt" height="368pt"
 viewBox="0.00 0.00 3411.00 368.00" xmlns="http://www.w3.org/2000/svg" xmlns:xlink="http://www.w3.org/1999/xlink">
<g id="graph0" class="graph" transform="scale(1 1) rotate(0) translate(4 364)">
<title>FIEAGameEngine/include/FIEAGameEngine/ActionList.h</title>
<!-- Node1 -->
<g id="Node000001" class="node">
<title>Node1</title>
<g id="a_Node000001"><a xlink:title=" ">
<polygon fill="#999999" stroke="#666666" points="2955.5,-360 2803,-360 2803,-328 2955.5,-328 2955.5,-360"/>
<text xml:space="preserve" text-anchor="start" x="2811" y="-346.5" font-family="Helvetica,sans-Serif" font-size="10.00">FIEAGameEngine/include</text>
<text xml:space="preserve" text-anchor="middle" x="2879.25" y="-334.5" font-family="Helvetica,sans-Serif" font-size="10.00">/FIEAGameEngine/ActionList.h</text>
</a>
</g>
</g>
<!-- Node2 -->
<g id="Node000002" class="node">
<title>Node2</title>
<g id="a_Node000002"><a xlink:href="_game_object_8h.html" target="_top" xlink:title=" ">
<polygon fill="white" stroke="#666666" points="1305.12,-292 1141.38,-292 1141.38,-260 1305.12,-260 1305.12,-292"/>
<text xml:space="preserve" text-anchor="start" x="1149.38" y="-278.5" font-family="Helvetica,sans-Serif" font-size="10.00">FIEAGameEngine/include</text>
<text xml:space="preserve" text-anchor="middle" x="1223.25" y="-266.5" font-family="Helvetica,sans-Serif" font-size="10.00">/FIEAGameEngine/GameObject.h</text>
</a>
</g>
</g>
<!-- Node1&#45;&gt;Node2 -->
<g id="edge1_Node000001_Node000002" class="edge">
<title>Node1&#45;&gt;Node2</title>
<g id="a_edge1_Node000001_Node000002"><a xlink:title=" ">
<path fill="none" stroke="#63b8ff" d="M2791.47,-339.5C2502.8,-328 1585.4,-291.43 1305.27,-280.27"/>
<polygon fill="#63b8ff" stroke="#63b8ff" points="2791.06,-342.99 2801.19,-339.89 2791.33,-335.99 2791.06,-342.99"/>
</a>
</g>
</g>
<!-- Node3 -->
<g id="Node000003" class="node">
<title>Node3</title>
<g id="a_Node000003"><a xlink:href="_scope_writer_8cpp.html" target="_top" xlink:title=" ">
<polygon fill="white" stroke="#666666" points="1111.5,-224 983,-224 983,-192 1111.5,-192 1111.5,-224"/>
<text xml:space="preserve" text-anchor="start" x="991" y="-210.5" font-family="Helvetica,sans-Serif" font-size="10.00">FIEAGameEngine/src</text>
<text xml:space="preserve" text-anchor="middle" x="1047.25" y="-198.5" font-family="Helvetica,sans-Serif" font-size="10.00">/Content/ScopeWriter.cpp</text>
</a>
</g>
</g>
<!-- Node1&#45;&gt;Node3 -->
<g id="edge46_Node000001_Node000003" class="edge">
<title>Node1&#45;&gt;Node3</title>
<g id="a_edge46_Node000001_Node000003"><a xlink:title=" ">
<path fill="none" stroke="#63b8ff" d="M2791.34,-342.21C2447.54,-338.87 1209.17,-324.64 1132.25,-292 1099.02,-277.9 1071.5,-244.29 1057.41,-224.43"/>
<polygon fill="#63b8ff" stroke="#63b8ff" points="2791.16,-345.7 2801.19,-342.3 2791.22,-338.7 2791.16,-345.7"/>
</a>
</g>
</g>
<!-- Node21 -->
<g id="Node000021" class="node">
<title>Node21</title>
<g id="a_Node000021"><a xlink:href="_scope_parser_test_8cpp.html" target="_top" xlink:title=" ">
<polygon fill="white" stroke="#666666" points="866.62,-94 729.88,-94 729.88,-74 866.62,-74 866.62,-94"/>
<text xml:space="preserve" text-anchor="middle" x="798.25" y="-80.5" font-family="Helvetica,sans-Serif" font-size="10.00">Tests/ScopeParserTest.cpp</text>
</a>
</g>
</g>
<!-- Node1&#45;&gt;Node21 -->
<g id="edge47_Node000001_Node000021" class="edge">
<title>Node1&#45;&gt;Node21</title>
<g id="a_edge47_Node000001_Node000021"><a xlink:title=" ">
<path fill="none" stroke="#63b8ff" d="M2842.74,-321.09C2832.16,-313.14 2821.52,-303.29 2814.25,-292 2775.61,-232.01 2831.79,-180.81 2776.25,-136 2738.31,-105.39 1211.57,-88.96 866.9,-85.63"/>
<polygon fill="#63b8ff" stroke="#63b8ff" points="2840.5,-323.8 2850.69,-326.71 2844.54,-318.08 2840.5,-323.8"/>
</a>
</g>
</g>
<!-- Node32 -->
<g id="Node000032" class="node">
<title>Node32</title>
<g id="a_Node000032"><a xlink:href="_action_list_8cpp.html" target="_top" xlink:title=" ">
<polygon fill="white" stroke="#666666" points="2934.88,-292 2823.62,-292 2823.62,-260 2934.88,-260 2934.88,-292"/>
<text xml:space="preserve" text-anchor="start" x="2831.62" y="-278.5" font-family="Helvetica,sans-Serif" font-size="10.00">FIEAGameEngine/src</text>
<text xml:space="preserve" text-anchor="middle" x="2879.25" y="-266.5" font-family="Helvetica,sans-Serif" font-size="10.00">/ActionList.cpp</text>
</a>
</g>
</g>
<!-- Node1&#45;&gt;Node32 -->
<g id="edge39_Node000001_Node000032" class="edge">
<title>Node1&#45;&gt;Node32</title>
<g id="a_edge39_Node000001_Node000032"><a xlink:title=" ">
<path fill="none" stroke="#63b8ff" d="M2879.25,-316.31C2879.25,-308.12 2879.25,-299.38 2879.25,-292.22"/>
<polygon fill="#63b8ff" stroke="#63b8ff" points="2875.75,-316.18 2879.25,-326.18 2882.75,-316.18 2875.75,-316.18"/>
</a>
</g>
</g>
<!-- Node33 -->
<g id="Node000033" class="node">
<title>Node33</title>
<g id="a_Node000033"><a xlink:href="_action_delayed_8h.html" target="_top" xlink:title=" ">
<polygon fill="white" stroke="#666666" points="3079.75,-292 2952.75,-292 2952.75,-260 3079.75,-260 3079.75,-292"/>
<text xml:space="preserve" text-anchor="start" x="2960.75" y="-278.5" font-family="Helvetica,sans-Serif" font-size="10.00">FIEAGameEngine/src</text>
<text xml:space="preserve" text-anchor="middle" x="3016.25" y="-266.5" font-family="Helvetica,sans-Serif" font-size="10.00">/Actions/ActionDelayed.h</text>
</a>
</g>
</g>
<!-- Node1&#45;&gt;Node33 -->
<g id="edge40_Node000001_Node000033" class="edge">
<title>Node1&#45;&gt;Node33</title>
<g id="a_edge40_Node000001_Node000033"><a xlink:title=" ">
<path fill="none" stroke="#63b8ff" d="M2921.58,-322.61C2941.82,-312.86 2965.64,-301.38 2984.33,-292.38"/>
<polygon fill="#63b8ff" stroke="#63b8ff" points="2920.22,-319.38 2912.73,-326.87 2923.26,-325.68 2920.22,-319.38"/>
</a>
</g>
</g>
<!-- Node35 -->
<g id="Node000035" class="node">
<title>Node35</title>
<g id="a_Node000035"><a xlink:href="_action_list_while_loop_8h.html" target="_top" xlink:title=" ">
<polygon fill="white" stroke="#666666" points="3250.5,-292 3098,-292 3098,-260 3250.5,-260 3250.5,-292"/>
<text xml:space="preserve" text-anchor="start" x="3106" y="-278.5" font-family="Helvetica,sans-Serif" font-size="10.00">FIEAGameEngine/src</text>
<text xml:space="preserve" text-anchor="middle" x="3174.25" y="-266.5" font-family="Helvetica,sans-Serif" font-size="10.00">/Actions/ActionListWhileLoop.h</text>
</a>
</g>
</g>
<!-- Node1&#45;&gt;Node35 -->
<g id="edge42_Node000001_Node000035" class="edge">
<title>Node1&#45;&gt;Node35</title>
<g id="a_edge42_Node000001_Node000035"><a xlink:title=" ">
<path fill="none" stroke="#63b8ff" d="M2959.44,-325.06C3004.98,-314.87 3061.41,-302.24 3105.01,-292.49"/>
<polygon fill="#63b8ff" stroke="#63b8ff" points="2958.89,-321.6 2949.89,-327.2 2960.41,-328.43 2958.89,-321.6"/>
</a>
</g>
</g>
<!-- Node37 -->
<g id="Node000037" class="node">
<title>Node37</title>
<g id="a_Node000037"><a xlink:href="_action_timed_8h.html" target="_top" xlink:title=" ">
<polygon fill="white" stroke="#666666" points="3391.25,-292 3273.25,-292 3273.25,-260 3391.25,-260 3391.25,-292"/>
<text xml:space="preserve" text-anchor="start" x="3281.25" y="-278.5" font-family="Helvetica,sans-Serif" font-size="10.00">FIEAGameEngine/src</text>
<text xml:space="preserve" text-anchor="middle" x="3332.25" y="-266.5" font-family="Helvetica,sans-Serif" font-size="10.00">/Actions/ActionTimed.h</text>
</a>
</g>
</g>
<!-- Node1&#45;&gt;Node37 -->
<g id="edge44_Node000001_Node000037" class="edge">
<title>Node1&#45;&gt;Node37</title>
<g id="a_edge44_Node000001_Node000037"><a xlink:title=" ">
<path fill="none" stroke="#63b8ff" d="M2967.01,-332.97C3044.2,-323.73 3159.48,-308.92 3259.25,-292 3263.71,-291.24 3268.32,-290.41 3272.95,-289.54"/>
<polygon fill="#63b8ff" stroke="#63b8ff" points="2966.93,-329.46 2957.41,-334.11 2967.76,-336.41 2966.93,-329.46"/>
</a>
</g>
</g>
<!-- Node2&#45;&gt;Node3 -->
<g id="edge2_Node000002_Node000003" class="edge">
<title>Node2&#45;&gt;Node3</title>
<g id="a_edge2_Node000002_Node000003"><a xlink:title=" ">
<path fill="none" stroke="#63b8ff" d="M1171.4,-255.56C1144.98,-245.65 1113.3,-233.77 1088.56,-224.49"/>
<polygon fill="#63b8ff" stroke="#63b8ff" points="1169.98,-258.76 1180.57,-258.99 1172.43,-252.21 1169.98,-258.76"/>
</a>
</g>
</g>
<!-- Node4 -->
<g id="Node000004" class="node">
<title>Node4</title>
<g id="a_Node000004"><a xlink:href="_game_object_8cpp.html" target="_top" xlink:title=" ">
<polygon fill="white" stroke="#666666" points="1278.88,-224 1167.62,-224 1167.62,-192 1278.88,-192 1278.88,-224"/>
<text xml:space="preserve" text-anchor="start" x="1175.62" y="-210.5" font-family="Helvetica,sans-Serif" font-size="10.00">FIEAGameEngine/src</text>
<text xml:space="preserve" text-anchor="middle" x="1223.25" y="-198.5" font-family="Helvetica,sans-Serif" font-size="10.00">/GameObject.cpp</text>
</a>
</g>
</g>
<!-- Node2&#45;&gt;Node4 -->
<g id="edge3_Node000002_Node000004" class="edge">
<title>Node2&#45;&gt;Node4</title>
<g id="a_edge3_Node000002_Node000004"><a xlink:title=" ">
<path fill="none" stroke="#63b8ff" d="M1223.25,-248.31C1223.25,-240.12 1223.25,-231.38 1223.25,-224.22"/>
<polygon fill="#63b8ff" stroke="#63b8ff" points="1219.75,-248.18 1223.25,-258.18 1226.75,-248.18 1219.75,-248.18"/>
</a>
</g>
</g>
<!-- Node5 -->
<g id="Node000005" class="node">
<title>Node5</title>
<g id="a_Node000005"><a xlink:href="_game_object_tests_8cpp.html" target="_top" xlink:title=" ">
<polygon fill="white" stroke="#666666" points="140.5,-156 0,-156 0,-136 140.5,-136 140.5,-156"/>
<text xml:space="preserve" text-anchor="middle" x="70.25" y="-142.5" font-family="Helvetica,sans-Serif" font-size="10.00">Tests/GameObjectTests.cpp</text>
</a>
</g>
</g>
<!-- Node2&#45;&gt;Node5 -->
<g id="edge4_Node000002_Node000005" class="edge">
<title>Node2&#45;&gt;Node5</title>
<g id="a_edge4_Node000002_Node000005"><a xlink:title=" ">
<path fill="none" stroke="#63b8ff" d="M1194.18,-252.54C1182.89,-243.73 1169.9,-233.47 1158.25,-224 1141.12,-210.07 1140.85,-199.95 1120.25,-192 1020.06,-153.3 261.38,-163.73 154.25,-156 149.86,-155.68 145.35,-155.32 140.8,-154.92"/>
<polygon fill="#63b8ff" stroke="#63b8ff" points="1191.96,-255.24 1202,-258.62 1196.26,-249.72 1191.96,-255.24"/>
</a>
</g>
</g>
<!-- Node6 -->
<g id="Node000006" class="node">
<title>Node6</title>
<g id="a_Node000006"><a xlink:href="_tests_8h.html" target="_top" xlink:title=" ">
<polygon fill="white" stroke="#666666" points="1371.88,-218 1296.62,-218 1296.62,-198 1371.88,-198 1371.88,-218"/>
<text xml:space="preserve" text-anchor="middle" x="1334.25" y="-204.5" font-family="Helvetica,sans-Serif" font-size="10.00">Tests/Tests.h</text>
</a>
</g>
</g>
<!-- Node2&#45;&gt;Node6 -->
<g id="edge5_Node000002_Node000006" class="edge">
<title>Node2&#45;&gt;Node6</title>
<g id="a_edge5_Node000002_Node000006"><a xlink:title=" ">
<path fill="none" stroke="#63b8ff" d="M1259.01,-253.74C1279,-241.85 1302.92,-227.63 1318.34,-218.46"/>
<polygon fill="#63b8ff" stroke="#63b8ff" points="1257.38,-250.63 1250.58,-258.75 1260.96,-256.65 1257.38,-250.63"/>
</a>
</g>
</g>
<!-- Node6&#45;&gt;Node5 -->
<g id="edge14_Node000006_Node000005" class="edge">
<title>Node6&#45;&gt;Node5</title>
<g id="a_edge14_Node000006_Node000005"><a xlink:title=" ">
<path fill="none" stroke="#63b8ff" d="M1298.76,-194.33C1295.24,-193.41 1291.7,-192.6 1288.25,-192 1039.91,-148.48 405.77,-173.44 154.25,-156 149.86,-155.7 145.35,-155.34 140.8,-154.95"/>
<polygon fill="#63b8ff" stroke="#63b8ff" points="1297.72,-197.67 1308.3,-197.16 1299.71,-190.96 1297.72,-197.67"/>
</a>
</g>
</g>
<!-- Node7 -->
<g id="Node000007" class="node">
<title>Node7</title>
<g id="a_Node000007"><a xlink:href="_action_test_8cpp.html" target="_top" xlink:title=" ">
<polygon fill="white" stroke="#666666" points="545.38,-156 437.12,-156 437.12,-136 545.38,-136 545.38,-156"/>
<text xml:space="preserve" text-anchor="middle" x="491.25" y="-142.5" font-family="Helvetica,sans-Serif" font-size="10.00">Tests/ActionTest.cpp</text>
</a>
</g>
</g>
<!-- Node6&#45;&gt;Node7 -->
<g id="edge6_Node000006_Node000007" class="edge">
<title>Node6&#45;&gt;Node7</title>
<g id="a_edge6_Node000006_Node000007"><a xlink:title=" ">
<path fill="none" stroke="#63b8ff" d="M1298.5,-194.33C1295.07,-193.42 1291.61,-192.62 1288.25,-192 969.23,-133.2 882.32,-185.31 559.25,-156 554.86,-155.6 550.32,-155.13 545.77,-154.62"/>
<polygon fill="#63b8ff" stroke="#63b8ff" points="1297.22,-197.6 1307.8,-197.09 1299.21,-190.89 1297.22,-197.6"/>
</a>
</g>
</g>
<!-- Node8 -->
<g id="Node000008" class="node">
<title>Node8</title>
<g id="a_Node000008"><a xlink:href="_async_test_8cpp.html" target="_top" xlink:title=" ">
<polygon fill="white" stroke="#666666" points="2767.38,-156 2659.12,-156 2659.12,-136 2767.38,-136 2767.38,-156"/>
<text xml:space="preserve" text-anchor="middle" x="2713.25" y="-142.5" font-family="Helvetica,sans-Serif" font-size="10.00">Tests/AsyncTest.cpp</text>
</a>
</g>
</g>
<!-- Node6&#45;&gt;Node8 -->
<g id="edge7_Node000006_Node000008" class="edge">
<title>Node6&#45;&gt;Node8</title>
<g id="a_edge7_Node000006_Node000008"><a xlink:title=" ">
<path fill="none" stroke="#63b8ff" d="M1383.6,-206.92C1557.43,-206.25 2157.48,-200.63 2650.25,-156 2653,-155.75 2655.82,-155.46 2658.65,-155.15"/>
<polygon fill="#63b8ff" stroke="#63b8ff" points="1383.8,-203.42 1373.81,-206.95 1383.82,-210.42 1383.8,-203.42"/>
</a>
</g>
</g>
<!-- Node9 -->
<g id="Node000009" class="node">
<title>Node9</title>
<g id="a_Node000009"><a xlink:href="_attributed_test_8cpp.html" target="_top" xlink:title=" ">
<polygon fill="white" stroke="#666666" points="788.5,-26 666,-26 666,-6 788.5,-6 788.5,-26"/>
<text xml:space="preserve" text-anchor="middle" x="727.25" y="-12.5" font-family="Helvetica,sans-Serif" font-size="10.00">Tests/AttributedTest.cpp</text>
</a>
</g>
</g>
<!-- Node6&#45;&gt;Node9 -->
<g id="edge8_Node000006_Node000009" class="edge">
<title>Node6&#45;&gt;Node9</title>
<g id="a_edge8_Node000006_Node000009"><a xlink:title=" ">
<path fill="none" stroke="#63b8ff" d="M1383.57,-207.15C1630.96,-207.69 2726.88,-207.15 2776.25,-156 2782.42,-149.6 2782.35,-142.47 2776.25,-136 2706.27,-61.83 1122.77,-25.15 788.76,-18.22"/>
<polygon fill="#63b8ff" stroke="#63b8ff" points="1383.63,-203.65 1373.62,-207.13 1383.61,-210.65 1383.63,-203.65"/>
</a>
</g>
</g>
<!-- Node10 -->
<g id="Node000010" class="node">
<title>Node10</title>
<g id="a_Node000010"><a xlink:href="_container_test_8cpp.html" target="_top" xlink:title=" ">
<polygon fill="white" stroke="#666666" points="761.5,-156 639,-156 639,-136 761.5,-136 761.5,-156"/>
<text xml:space="preserve" text-anchor="middle" x="700.25" y="-142.5" font-family="Helvetica,sans-Serif" font-size="10.00">Tests/ContainerTest.cpp</text>
</a>
</g>
</g>
<!-- Node6&#45;&gt;Node10 -->
<g id="edge9_Node000006_Node000010" class="edge">
<title>Node6&#45;&gt;Node10</title>
<g id="a_edge9_Node000006_Node000010"><a xlink:title=" ">
<path fill="none" stroke="#63b8ff" d="M1298.49,-194.4C1295.06,-193.48 1291.6,-192.65 1288.25,-192 1062.16,-147.96 1000.48,-178.49 771.25,-156 768.16,-155.7 764.99,-155.37 761.8,-155.02"/>
<polygon fill="#63b8ff" stroke="#63b8ff" points="1297.2,-197.67 1307.79,-197.18 1299.21,-190.97 1297.2,-197.67"/>
</a>
</g>
</g>
<!-- Node11 -->
<g id="Node000011" class="node">
<title>Node11</title>
<g id="a_Node000011"><a xlink:href="_core_tests_8cpp.html" target="_top" xlink:title=" ">
<polygon fill="white" stroke="#666666" points="886.62,-156 779.88,-156 779.88,-136 886.62,-136 886.62,-156"/>
<text xml:space="preserve" text-anchor="middle" x="833.25" y="-142.5" font-family="Helvetica,sans-Serif" font-size="10.00">Tests/CoreTests.cpp</text>
</a>
</g>
</g>
<!-- Node6&#45;&gt;Node11 -->
<g id="edge10_Node000006_Node000011" class="edge">
<title>Node6&#45;&gt;Node11</title>
<g id="a_edge10_Node000006_Node000011"><a xlink:title=" ">
<path fill="none" stroke="#63b8ff" d="M1297.9,-194.33C1294.66,-193.45 1291.41,-192.65 1288.25,-192 1116.46,-156.59 1069.43,-176.61 895.25,-156 892.55,-155.68 889.79,-155.34 887,-154.98"/>
<polygon fill="#63b8ff" stroke="#63b8ff" points="1296.7,-197.62 1307.28,-197.13 1298.7,-190.91 1296.7,-197.62"/>
</a>
</g>
</g>
<!-- Node12 -->
<g id="Node000012" class="node">
<title>Node12</title>
<g id="a_Node000012"><a xlink:href="_datum_test_8cpp.html" target="_top" xlink:title=" ">
<polygon fill="white" stroke="#666666" points="1014.12,-156 904.38,-156 904.38,-136 1014.12,-136 1014.12,-156"/>
<text xml:space="preserve" text-anchor="middle" x="959.25" y="-142.5" font-family="Helvetica,sans-Serif" font-size="10.00">Tests/DatumTest.cpp</text>
</a>
</g>
</g>
<!-- Node6&#45;&gt;Node12 -->
<g id="edge11_Node000006_Node000012" class="edge">
<title>Node6&#45;&gt;Node12</title>
<g id="a_edge11_Node000006_Node000012"><a xlink:title=" ">
<path fill="none" stroke="#63b8ff" d="M1297.32,-194.32C1294.27,-193.47 1291.22,-192.68 1288.25,-192 1172.39,-165.47 1140.99,-172.28 1023.25,-156 1020.36,-155.6 1017.4,-155.19 1014.41,-154.77"/>
<polygon fill="#63b8ff" stroke="#63b8ff" points="1296.17,-197.63 1306.76,-197.17 1298.2,-190.93 1296.17,-197.63"/>
</a>
</g>
</g>
<!-- Node13 -->
<g id="Node000013" class="node">
<title>Node13</title>
<g id="a_Node000013"><a xlink:href="_factory_tests_8cpp.html" target="_top" xlink:title=" ">
<polygon fill="white" stroke="#666666" points="314.62,-94 195.88,-94 195.88,-74 314.62,-74 314.62,-94"/>
<text xml:space="preserve" text-anchor="middle" x="255.25" y="-80.5" font-family="Helvetica,sans-Serif" font-size="10.00">Tests/FactoryTests.cpp</text>
</a>
</g>
</g>
<!-- Node6&#45;&gt;Node13 -->
<g id="edge12_Node000006_Node000013" class="edge">
<title>Node6&#45;&gt;Node13</title>
<g id="a_edge12_Node000006_Node000013"><a xlink:title=" ">
<path fill="none" stroke="#63b8ff" d="M1298.75,-194.35C1295.24,-193.42 1291.7,-192.61 1288.25,-192 1232.42,-182.11 311.16,-193.07 268.25,-156 250.42,-140.6 251.77,-109.53 253.74,-94.11"/>
<polygon fill="#63b8ff" stroke="#63b8ff" points="1297.71,-197.69 1308.3,-197.18 1299.7,-190.98 1297.71,-197.69"/>
</a>
</g>
</g>
<!-- Node14 -->
<g id="Node000014" class="node">
<title>Node14</title>
<g id="a_Node000014"><a xlink:href="_foo_tests_8cpp.html" target="_top" xlink:title=" ">
<polygon fill="white" stroke="#666666" points="1134.38,-156 1032.12,-156 1032.12,-136 1134.38,-136 1134.38,-156"/>
<text xml:space="preserve" text-anchor="middle" x="1083.25" y="-142.5" font-family="Helvetica,sans-Serif" font-size="10.00">Tests/FooTests.cpp</text>
</a>
</g>
</g>
<!-- Node6&#45;&gt;Node14 -->
<g id="edge13_Node000006_Node000014" class="edge">
<title>Node6&#45;&gt;Node14</title>
<g id="a_edge13_Node000006_Node000014"><a xlink:title=" ">
<path fill="none" stroke="#63b8ff" d="M1295.7,-194.12C1293.19,-193.38 1290.69,-192.66 1288.25,-192 1235.69,-177.7 1174.6,-164.75 1132.88,-156.46"/>
<polygon fill="#63b8ff" stroke="#63b8ff" points="1294.62,-197.45 1305.21,-197.06 1296.69,-190.76 1294.62,-197.45"/>
</a>
</g>
</g>
<!-- Node15 -->
<g id="Node000015" class="node">
<title>Node15</title>
<g id="a_Node000015"><a xlink:href="_heap_test_8cpp.html" target="_top" xlink:title=" ">
<polygon fill="white" stroke="#666666" points="1256.12,-156 1152.38,-156 1152.38,-136 1256.12,-136 1256.12,-156"/>
<text xml:space="preserve" text-anchor="middle" x="1204.25" y="-142.5" font-family="Helvetica,sans-Serif" font-size="10.00">Tests/HeapTest.cpp</text>
</a>
</g>
</g>
<!-- Node6&#45;&gt;Node15 -->
<g id="edge15_Node000006_Node000015" class="edge">
<title>Node6&#45;&gt;Node15</title>
<g id="a_edge15_Node000006_Node000015"><a xlink:title=" ">
<path fill="none" stroke="#63b8ff" d="M1303.75,-192.92C1279.28,-181.63 1245.64,-166.1 1224.42,-156.31"/>
<polygon fill="#63b8ff" stroke="#63b8ff" points="1302.02,-195.98 1312.56,-196.99 1304.95,-189.62 1302.02,-195.98"/>
</a>
</g>
</g>
<!-- Node16 -->
<g id="Node000016" class="node">
<title>Node16</title>
<g id="a_Node000016"><a xlink:href="_json_cpp_test_8cpp.html" target="_top" xlink:title=" ">
<polygon fill="white" stroke="#666666" points="1394,-156 1274.5,-156 1274.5,-136 1394,-136 1394,-156"/>
<text xml:space="preserve" text-anchor="middle" x="1334.25" y="-142.5" font-family="Helvetica,sans-Serif" font-size="10.00">Tests/JsonCppTest.cpp</text>
</a>
</g>
</g>
<!-- Node6&#45;&gt;Node16 -->
<g id="edge16_Node000006_Node000016" class="edge">
<title>Node6&#45;&gt;Node16</title>
<g id="a_edge16_Node000006_Node000016"><a xlink:title=" ">
<path fill="none" stroke="#63b8ff" d="M1334.25,-186.25C1334.25,-175.97 1334.25,-164.09 1334.25,-156.11"/>
<polygon fill="#63b8ff" stroke="#63b8ff" points="1330.75,-186.11 1334.25,-196.11 1337.75,-186.11 1330.75,-186.11"/>
</a>
</g>
</g>
<!-- Node17 -->
<g id="Node000017" class="node">
<title>Node17</title>
<g id="a_Node000017"><a xlink:href="_json_parser_tests_8cpp.html" target="_top" xlink:title=" ">
<polygon fill="white" stroke="#666666" points="1546.88,-156 1411.62,-156 1411.62,-136 1546.88,-136 1546.88,-156"/>
<text xml:space="preserve" text-anchor="middle" x="1479.25" y="-142.5" font-family="Helvetica,sans-Serif" font-size="10.00">Tests/JsonParserTests.cpp</text>
</a>
</g>
</g>
<!-- Node6&#45;&gt;Node17 -->
<g id="edge17_Node000006_Node000017" class="edge">
<title>Node6&#45;&gt;Node17</title>
<g id="a_edge17_Node000006_Node000017"><a xlink:title=" ">
<path fill="none" stroke="#63b8ff" d="M1367.54,-193.23C1394.88,-181.91 1432.87,-166.19 1456.75,-156.31"/>
<polygon fill="#63b8ff" stroke="#63b8ff" points="1366.21,-189.99 1358.3,-197.05 1368.88,-196.46 1366.21,-189.99"/>
</a>
</g>
</g>
<!-- Node18 -->
<g id="Node000018" class="node">
<title>Node18</title>
<g id="a_Node000018"><a xlink:href="_list_tests_8cpp.html" target="_top" xlink:title=" ">
<polygon fill="white" stroke="#666666" points="1666,-156 1564.5,-156 1564.5,-136 1666,-136 1666,-156"/>
<text xml:space="preserve" text-anchor="middle" x="1615.25" y="-142.5" font-family="Helvetica,sans-Serif" font-size="10.00">Tests/ListTests.cpp</text>
</a>
</g>
</g>
<!-- Node6&#45;&gt;Node18 -->
<g id="edge18_Node000006_Node000018" class="edge">
<title>Node6&#45;&gt;Node18</title>
<g id="a_edge18_Node000006_Node000018"><a xlink:title=" ">
<path fill="none" stroke="#63b8ff" d="M1383.29,-196.53C1436.29,-185.21 1519.99,-167.34 1571.03,-156.44"/>
<polygon fill="#63b8ff" stroke="#63b8ff" points="1382.68,-193.08 1373.63,-198.59 1384.14,-199.93 1382.68,-193.08"/>
</a>
</g>
</g>
<!-- Node19 -->
<g id="Node000019" class="node">
<title>Node19</title>
<g id="a_Node000019"><a xlink:href="_memory_service_test_8cpp.html" target="_top" xlink:title=" ">
<polygon fill="white" stroke="#666666" points="1832.62,-156 1683.88,-156 1683.88,-136 1832.62,-136 1832.62,-156"/>
<text xml:space="preserve" text-anchor="middle" x="1758.25" y="-142.5" font-family="Helvetica,sans-Serif" font-size="10.00">Tests/MemoryServiceTest.cpp</text>
</a>
</g>
</g>
<!-- Node6&#45;&gt;Node19 -->
<g id="edge19_Node000006_Node000019" class="edge">
<title>Node6&#45;&gt;Node19</title>
<g id="a_edge19_Node000006_Node000019"><a xlink:title=" ">
<path fill="none" stroke="#63b8ff" d="M1383.38,-200.05C1459.38,-189.29 1605.58,-168.6 1691.22,-156.49"/>
<polygon fill="#63b8ff" stroke="#63b8ff" points="1383.16,-196.54 1373.75,-201.41 1384.14,-203.47 1383.16,-196.54"/>
</a>
</g>
</g>
<!-- Node20 -->
<g id="Node000020" class="node">
<title>Node20</title>
<g id="a_Node000020"><a xlink:href="_r_t_t_i_test_8cpp.html" target="_top" xlink:title=" ">
<polygon fill="white" stroke="#666666" points="1953.38,-156 1851.12,-156 1851.12,-136 1953.38,-136 1953.38,-156"/>
<text xml:space="preserve" text-anchor="middle" x="1902.25" y="-142.5" font-family="Helvetica,sans-Serif" font-size="10.00">Tests/RTTITest.cpp</text>
</a>
</g>
</g>
<!-- Node6&#45;&gt;Node20 -->
<g id="edge20_Node000006_Node000020" class="edge">
<title>Node6&#45;&gt;Node20</title>
<g id="a_edge20_Node000006_Node000020"><a xlink:title=" ">
<path fill="none" stroke="#63b8ff" d="M1383.44,-202.81C1474.12,-194.93 1673.67,-176.78 1841.25,-156 1844.33,-155.62 1847.5,-155.21 1850.69,-154.78"/>
<polygon fill="#63b8ff" stroke="#63b8ff" points="1383.33,-199.31 1373.67,-203.66 1383.93,-206.28 1383.33,-199.31"/>
</a>
</g>
</g>
<!-- Node6&#45;&gt;Node21 -->
<g id="edge21_Node000006_Node000021" class="edge">
<title>Node6&#45;&gt;Node21</title>
<g id="a_edge21_Node000006_Node000021"><a xlink:title=" ">
<path fill="none" stroke="#63b8ff" d="M1298.5,-194.35C1295.06,-193.44 1291.61,-192.63 1288.25,-192 1216.28,-178.54 680.59,-209.17 630.25,-156 624.14,-149.55 624.96,-143.14 630.25,-136 643.91,-117.58 699.57,-103.19 743.13,-94.46"/>
<polygon fill="#63b8ff" stroke="#63b8ff" points="1297.22,-197.62 1307.8,-197.11 1299.21,-190.91 1297.22,-197.62"/>
</a>
</g>
</g>
<!-- Node22 -->
<g id="Node000022" class="node">
<title>Node22</title>
<g id="a_Node000022"><a xlink:href="_scope_test_8cpp.html" target="_top" xlink:title=" ">
<polygon fill="white" stroke="#666666" points="2079.38,-156 1971.12,-156 1971.12,-136 2079.38,-136 2079.38,-156"/>
<text xml:space="preserve" text-anchor="middle" x="2025.25" y="-142.5" font-family="Helvetica,sans-Serif" font-size="10.00">Tests/ScopeTest.cpp</text>
</a>
</g>
</g>
<!-- Node6&#45;&gt;Node22 -->
<g id="edge22_Node000006_Node000022" class="edge">
<title>Node6&#45;&gt;Node22</title>
<g id="a_edge22_Node000006_Node000022"><a xlink:title=" ">
<path fill="none" stroke="#63b8ff" d="M1383.47,-204.03C1489.48,-197.4 1747.19,-180.07 1962.25,-156 1964.99,-155.69 1967.8,-155.36 1970.64,-155.01"/>
<polygon fill="#63b8ff" stroke="#63b8ff" points="1383.47,-200.52 1373.71,-204.63 1383.91,-207.51 1383.47,-200.52"/>
</a>
</g>
</g>
<!-- Node23 -->
<g id="Node000023" class="node">
<title>Node23</title>
<g id="a_Node000023"><a xlink:href="_service_mgr_test_8cpp.html" target="_top" xlink:title=" ">
<polygon fill="white" stroke="#666666" points="2227.25,-156 2097.25,-156 2097.25,-136 2227.25,-136 2227.25,-156"/>
<text xml:space="preserve" text-anchor="middle" x="2162.25" y="-142.5" font-family="Helvetica,sans-Serif" font-size="10.00">Tests/ServiceMgrTest.cpp</text>
</a>
</g>
</g>
<!-- Node6&#45;&gt;Node23 -->
<g id="edge23_Node000006_Node000023" class="edge">
<title>Node6&#45;&gt;Node23</title>
<g id="a_edge23_Node000006_Node000023"><a xlink:title=" ">
<path fill="none" stroke="#63b8ff" d="M1383.74,-204.57C1504.37,-198.45 1823.11,-181.07 2088.25,-156 2091.08,-155.73 2093.98,-155.44 2096.9,-155.14"/>
<polygon fill="#63b8ff" stroke="#63b8ff" points="1383.68,-201.07 1373.87,-205.07 1384.04,-208.06 1383.68,-201.07"/>
</a>
</g>
</g>
<!-- Node24 -->
<g id="Node000024" class="node">
<title>Node24</title>
<g id="a_Node000024"><a xlink:href="_skeleton_test_8cpp.html" target="_top" xlink:title=" ">
<polygon fill="white" stroke="#666666" points="2363.62,-156 2244.88,-156 2244.88,-136 2363.62,-136 2363.62,-156"/>
<text xml:space="preserve" text-anchor="middle" x="2304.25" y="-142.5" font-family="Helvetica,sans-Serif" font-size="10.00">Tests/SkeletonTest.cpp</text>
</a>
</g>
</g>
<!-- Node6&#45;&gt;Node24 -->
<g id="edge24_Node000006_Node000024" class="edge">
<title>Node6&#45;&gt;Node24</title>
<g id="a_edge24_Node000006_Node000024"><a xlink:title=" ">
<path fill="none" stroke="#63b8ff" d="M1383.35,-205.52C1519.22,-201.15 1911.54,-186.62 2236.25,-156 2238.98,-155.74 2241.76,-155.46 2244.57,-155.16"/>
<polygon fill="#63b8ff" stroke="#63b8ff" points="1383.53,-202.01 1373.65,-205.83 1383.75,-209.01 1383.53,-202.01"/>
</a>
</g>
</g>
<!-- Node25 -->
<g id="Node000025" class="node">
<title>Node25</title>
<g id="a_Node000025"><a xlink:href="_action_output_8cpp.html" target="_top" xlink:title=" ">
<polygon fill="white" stroke="#666666" points="2537,-156 2381.5,-156 2381.5,-136 2537,-136 2537,-156"/>
<text xml:space="preserve" text-anchor="middle" x="2459.25" y="-142.5" font-family="Helvetica,sans-Serif" font-size="10.00">Tests/Support/ActionOutput.cpp</text>
</a>
</g>
</g>
<!-- Node6&#45;&gt;Node25 -->
<g id="edge25_Node000006_Node000025" class="edge">
<title>Node6&#45;&gt;Node25</title>
<g id="a_edge25_Node000006_Node000025"><a xlink:title=" ">
<path fill="none" stroke="#63b8ff" d="M1383.42,-205.53C1532.44,-200.86 1992.15,-184.98 2372.25,-156 2375.13,-155.78 2378.06,-155.54 2381.01,-155.29"/>
<polygon fill="#63b8ff" stroke="#63b8ff" points="1383.4,-202.03 1373.51,-205.83 1383.62,-209.02 1383.4,-202.03"/>
</a>
</g>
</g>
<!-- Node26 -->
<g id="Node000026" class="node">
<title>Node26</title>
<g id="a_Node000026"><a xlink:href="_attribute_box_8h.html" target="_top" xlink:title=" ">
<polygon fill="white" stroke="#666666" points="419.25,-156 277.25,-156 277.25,-136 419.25,-136 419.25,-156"/>
<text xml:space="preserve" text-anchor="middle" x="348.25" y="-142.5" font-family="Helvetica,sans-Serif" font-size="10.00">Tests/Support/AttributeBox.h</text>
</a>
</g>
</g>
<!-- Node6&#45;&gt;Node26 -->
<g id="edge26_Node000006_Node000026" class="edge">
<title>Node6&#45;&gt;Node26</title>
<g id="a_edge26_Node000006_Node000026"><a xlink:title=" ">
<path fill="none" stroke="#63b8ff" d="M1298.75,-194.37C1295.23,-193.44 1291.69,-192.62 1288.25,-192 911.77,-124.07 809.68,-185.4 428.25,-156 425.32,-155.77 422.34,-155.53 419.33,-155.26"/>
<polygon fill="#63b8ff" stroke="#63b8ff" points="1297.71,-197.71 1308.29,-197.21 1299.7,-191 1297.71,-197.71"/>
</a>
</g>
</g>
<!-- Node28 -->
<g id="Node000028" class="node">
<title>Node28</title>
<g id="a_Node000028"><a xlink:href="_attribute_box_plus_8h.html" target="_top" xlink:title=" ">
<polygon fill="white" stroke="#666666" points="674.12,-100 540.38,-100 540.38,-68 674.12,-68 674.12,-100"/>
<text xml:space="preserve" text-anchor="start" x="548.38" y="-86.5" font-family="Helvetica,sans-Serif" font-size="10.00">Tests/Support/AttributeBox</text>
<text xml:space="preserve" text-anchor="middle" x="607.25" y="-74.5" font-family="Helvetica,sans-Serif" font-size="10.00">Plus.h</text>
</a>
</g>
</g>
<!-- Node6&#45;&gt;Node28 -->
<g id="edge36_Node000006_Node000028" class="edge">
<title>Node6&#45;&gt;Node28</title>
<g id="a_edge36_Node000006_Node000028"><a xlink:title=" ">
<path fill="none" stroke="#63b8ff" d="M1298.5,-194.35C1295.06,-193.43 1291.61,-192.63 1288.25,-192 1215.4,-178.4 678.53,-204.21 622.25,-156 606.46,-142.48 604.79,-116.89 605.6,-100.41"/>
<polygon fill="#63b8ff" stroke="#63b8ff" points="1297.22,-197.62 1307.8,-197.11 1299.21,-190.91 1297.22,-197.62"/>
</a>
</g>
</g>
<!-- Node30 -->
<g id="Node000030" class="node">
<title>Node30</title>
<g id="a_Node000030"><a xlink:href="_attribute_box_tests_8cpp.html" target="_top" xlink:title=" ">
<polygon fill="white" stroke="#666666" points="409.12,-32 275.38,-32 275.38,0 409.12,0 409.12,-32"/>
<text xml:space="preserve" text-anchor="start" x="283.38" y="-18.5" font-family="Helvetica,sans-Serif" font-size="10.00">Tests/Support/AttributeBox</text>
<text xml:space="preserve" text-anchor="middle" x="342.25" y="-6.5" font-family="Helvetica,sans-Serif" font-size="10.00">Tests.cpp</text>
</a>
</g>
</g>
<!-- Node6&#45;&gt;Node30 -->
<g id="edge37_Node000006_Node000030" class="edge">
<title>Node6&#45;&gt;Node30</title>
<g id="a_edge37_Node000006_Node000030"><a xlink:title=" ">
<path fill="none" stroke="#63b8ff" d="M1298.75,-194.34C1295.24,-193.42 1291.7,-192.61 1288.25,-192 1174.83,-171.95 359.51,-197.97 252.25,-156 206.97,-138.28 158.74,-107.39 187.25,-68 207.35,-40.23 243.07,-27.32 275.16,-21.42"/>
<polygon fill="#63b8ff" stroke="#63b8ff" points="1297.71,-197.69 1308.3,-197.17 1299.7,-190.97 1297.71,-197.69"/>
</a>
</g>
</g>
<!-- Node31 -->
<g id="Node000031" class="node">
<title>Node31</title>
<g id="a_Node000031"><a xlink:href="_tests_8cpp.html" target="_top" xlink:title=" ">
<polygon fill="white" stroke="#666666" points="2641.12,-156 2555.38,-156 2555.38,-136 2641.12,-136 2641.12,-156"/>
<text xml:space="preserve" text-anchor="middle" x="2598.25" y="-142.5" font-family="Helvetica,sans-Serif" font-size="10.00">Tests/Tests.cpp</text>
</a>
</g>
</g>
<!-- Node6&#45;&gt;Node31 -->
<g id="edge38_Node000006_Node000031" class="edge">
<title>Node6&#45;&gt;Node31</title>
<g id="a_edge38_Node000006_Node000031"><a xlink:title=" ">
<path fill="none" stroke="#63b8ff" d="M1383.55,-207.21C1548.59,-207.41 2096.61,-204.17 2546.25,-156 2549.07,-155.7 2551.98,-155.34 2554.9,-154.93"/>
<polygon fill="#63b8ff" stroke="#63b8ff" points="1383.86,-203.71 1373.85,-207.19 1383.84,-210.71 1383.86,-203.71"/>
</a>
</g>
</g>
<!-- Node26&#45;&gt;Node9 -->
<g id="edge27_Node000026_Node000009" class="edge">
<title>Node26&#45;&gt;Node9</title>
<g id="a_edge27_Node000026_Node000009"><a xlink:title=" ">
<path fill="none" stroke="#63b8ff" d="M430.8,-134.85C528.31,-122.72 678.07,-103.61 683.25,-100 709.08,-82.01 720.97,-43.97 725.26,-26.34"/>
<polygon fill="#63b8ff" stroke="#63b8ff" points="430.47,-131.36 420.98,-136.07 431.34,-138.31 430.47,-131.36"/>
</a>
</g>
</g>
<!-- Node26&#45;&gt;Node13 -->
<g id="edge28_Node000026_Node000013" class="edge">
<title>Node26&#45;&gt;Node13</title>
<g id="a_edge28_Node000026_Node000013"><a xlink:title=" ">
<path fill="none" stroke="#63b8ff" d="M324.28,-129.54C307,-118.39 284.25,-103.71 269.68,-94.31"/>
<polygon fill="#63b8ff" stroke="#63b8ff" points="322.15,-132.32 332.45,-134.8 325.94,-126.44 322.15,-132.32"/>
</a>
</g>
</g>
<!-- Node26&#45;&gt;Node21 -->
<g id="edge29_Node000026_Node000021" class="edge">
<title>Node26&#45;&gt;Node21</title>
<g id="a_edge29_Node000026_Node000021"><a xlink:title=" ">
<path fill="none" stroke="#63b8ff" d="M430.93,-135.47C522.13,-124.85 663.01,-108.12 716.25,-100 726.98,-98.36 738.46,-96.4 749.33,-94.44"/>
<polygon fill="#63b8ff" stroke="#63b8ff" points="430.55,-131.99 421.02,-136.62 431.36,-138.94 430.55,-131.99"/>
</a>
</g>
</g>
<!-- Node27 -->
<g id="Node000027" class="node">
<title>Node27</title>
<g id="a_Node000027"><a xlink:href="_attribute_box_8cpp.html" target="_top" xlink:title=" ">
<polygon fill="white" stroke="#666666" points="522.5,-94 370,-94 370,-74 522.5,-74 522.5,-94"/>
<text xml:space="preserve" text-anchor="middle" x="446.25" y="-80.5" font-family="Helvetica,sans-Serif" font-size="10.00">Tests/Support/AttributeBox.cpp</text>
</a>
</g>
</g>
<!-- Node26&#45;&gt;Node27 -->
<g id="edge30_Node000026_Node000027" class="edge">
<title>Node26&#45;&gt;Node27</title>
<g id="a_edge30_Node000026_Node000027"><a xlink:title=" ">
<path fill="none" stroke="#63b8ff" d="M373.25,-129.69C391.49,-118.52 415.62,-103.75 431.05,-94.31"/>
<polygon fill="#63b8ff" stroke="#63b8ff" points="371.55,-126.63 364.85,-134.83 375.21,-132.6 371.55,-126.63"/>
</a>
</g>
</g>
<!-- Node26&#45;&gt;Node28 -->
<g id="edge31_Node000026_Node000028" class="edge">
<title>Node26&#45;&gt;Node28</title>
<g id="a_edge31_Node000026_Node000028"><a xlink:title=" ">
<path fill="none" stroke="#63b8ff" d="M400.2,-132.96C440.57,-123.61 496.84,-110.58 540.53,-100.46"/>
<polygon fill="#63b8ff" stroke="#63b8ff" points="399.43,-129.55 390.48,-135.22 401.01,-136.37 399.43,-129.55"/>
</a>
</g>
</g>
<!-- Node26&#45;&gt;Node30 -->
<g id="edge35_Node000026_Node000030" class="edge">
<title>Node26&#45;&gt;Node30</title>
<g id="a_edge35_Node000026_Node000030"><a xlink:title=" ">
<path fill="none" stroke="#63b8ff" d="M347.29,-124.46C346.08,-98.73 344.04,-55.24 342.97,-32.27"/>
<polygon fill="#63b8ff" stroke="#63b8ff" points="343.78,-124.46 347.75,-134.28 350.78,-124.13 343.78,-124.46"/>
</a>
</g>
</g>
<!-- Node28&#45;&gt;Node9 -->
<g id="edge32_Node000028_Node000009" class="edge">
<title>Node28&#45;&gt;Node9</title>
<g id="a_edge32_Node000028_Node000009"><a xlink:title=" ">
<path fill="none" stroke="#63b8ff" d="M645.32,-62.06C667.05,-50.11 693.23,-35.71 710.05,-26.46"/>
<polygon fill="#63b8ff" stroke="#63b8ff" points="643.79,-58.91 636.71,-66.8 647.16,-65.04 643.79,-58.91"/>
</a>
</g>
</g>
<!-- Node29 -->
<g id="Node000029" class="node">
<title>Node29</title>
<g id="a_Node000029"><a xlink:href="_attribute_box_plus_8cpp.html" target="_top" xlink:title=" ">
<polygon fill="white" stroke="#666666" points="648.12,-32 514.38,-32 514.38,0 648.12,0 648.12,-32"/>
<text xml:space="preserve" text-anchor="start" x="522.38" y="-18.5" font-family="Helvetica,sans-Serif" font-size="10.00">Tests/Support/AttributeBox</text>
<text xml:space="preserve" text-anchor="middle" x="581.25" y="-6.5" font-family="Helvetica,sans-Serif" font-size="10.00">Plus.cpp</text>
</a>
</g>
</g>
<!-- Node28&#45;&gt;Node29 -->
<g id="edge33_Node000028_Node000029" class="edge">
<title>Node28&#45;&gt;Node29</title>
<g id="a_edge33_Node000028_Node000029"><a xlink:title=" ">
<path fill="none" stroke="#63b8ff" d="M597.07,-57.17C593.75,-48.73 590.16,-39.63 587.25,-32.22"/>
<polygon fill="#63b8ff" stroke="#63b8ff" points="593.74,-58.26 600.66,-66.28 600.26,-55.7 593.74,-58.26"/>
</a>
</g>
</g>
<!-- Node28&#45;&gt;Node30 -->
<g id="edge34_Node000028_Node000030" class="edge">
<title>Node28&#45;&gt;Node30</title>
<g id="a_edge34_Node000028_Node000030"><a xlink:title=" ">
<path fill="none" stroke="#63b8ff" d="M534.17,-64.8C493.45,-54.66 443.28,-42.16 404.45,-32.49"/>
<polygon fill="#63b8ff" stroke="#63b8ff" points="533.1,-68.14 543.65,-67.16 534.79,-61.35 533.1,-68.14"/>
</a>
</g>
</g>
<!-- Node34 -->
<g id="Node000034" class="node">
<title>Node34</title>
<g id="a_Node000034"><a xlink:href="_action_delayed_8cpp.html" target="_top" xlink:title=" ">
<polygon fill="white" stroke="#666666" points="3075,-224 2937.5,-224 2937.5,-192 3075,-192 3075,-224"/>
<text xml:space="preserve" text-anchor="start" x="2945.5" y="-210.5" font-family="Helvetica,sans-Serif" font-size="10.00">FIEAGameEngine/src</text>
<text xml:space="preserve" text-anchor="middle" x="3006.25" y="-198.5" font-family="Helvetica,sans-Serif" font-size="10.00">/Actions/ActionDelayed.cpp</text>
</a>
</g>
</g>
<!-- Node33&#45;&gt;Node34 -->
<g id="edge41_Node000033_Node000034" class="edge">
<title>Node33&#45;&gt;Node34</title>
<g id="a_edge41_Node000033_Node000034"><a xlink:title=" ">
<path fill="none" stroke="#63b8ff" d="M3012.21,-248.31C3010.96,-240.12 3009.64,-231.38 3008.56,-224.22"/>
<polygon fill="#63b8ff" stroke="#63b8ff" points="3008.75,-248.83 3013.7,-258.2 3015.67,-247.78 3008.75,-248.83"/>
</a>
</g>
</g>
<!-- Node36 -->
<g id="Node000036" class="node">
<title>Node36</title>
<g id="a_Node000036"><a xlink:href="_action_list_while_loop_8cpp.html" target="_top" xlink:title=" ">
<polygon fill="white" stroke="#666666" points="3255.75,-224 3092.75,-224 3092.75,-192 3255.75,-192 3255.75,-224"/>
<text xml:space="preserve" text-anchor="start" x="3100.75" y="-210.5" font-family="Helvetica,sans-Serif" font-size="10.00">FIEAGameEngine/src</text>
<text xml:space="preserve" text-anchor="middle" x="3174.25" y="-198.5" font-family="Helvetica,sans-Serif" font-size="10.00">/Actions/ActionListWhileLoop.cpp</text>
</a>
</g>
</g>
<!-- Node35&#45;&gt;Node36 -->
<g id="edge43_Node000035_Node000036" class="edge">
<title>Node35&#45;&gt;Node36</title>
<g id="a_edge43_Node000035_Node000036"><a xlink:title=" ">
<path fill="none" stroke="#63b8ff" d="M3174.25,-248.31C3174.25,-240.12 3174.25,-231.38 3174.25,-224.22"/>
<polygon fill="#63b8ff" stroke="#63b8ff" points="3170.75,-248.18 3174.25,-258.18 3177.75,-248.18 3170.75,-248.18"/>
</a>
</g>
</g>
<!-- Node38 -->
<g id="Node000038" class="node">
<title>Node38</title>
<g id="a_Node000038"><a xlink:href="_action_timed_8cpp.html" target="_top" xlink:title=" ">
<polygon fill="white" stroke="#666666" points="3402.5,-224 3274,-224 3274,-192 3402.5,-192 3402.5,-224"/>
<text xml:space="preserve" text-anchor="start" x="3282" y="-210.5" font-family="Helvetica,sans-Serif" font-size="10.00">FIEAGameEngine/src</text>
<text xml:space="preserve" text-anchor="middle" x="3338.25" y="-198.5" font-family="Helvetica,sans-Serif" font-size="10.00">/Actions/ActionTimed.cpp</text>
</a>
</g>
</g>
<!-- Node37&#45;&gt;Node38 -->
<g id="edge45_Node000037_Node000038" class="edge">
<title>Node37&#45;&gt;Node38</title>
<g id="a_edge45_Node000037_Node000038"><a xlink:title=" ">
<path fill="none" stroke="#63b8ff" d="M3334.68,-248.31C3335.42,-240.12 3336.22,-231.38 3336.87,-224.22"/>
<polygon fill="#63b8ff" stroke="#63b8ff" points="3331.2,-247.91 3333.78,-258.19 3338.17,-248.54 3331.2,-247.91"/>
</a>
</g>
</g>
</g>
</svg>
