<?xml version="1.0" encoding="UTF-8" standalone="no"?>
<!DOCTYPE svg PUBLIC "-//W3C//DTD SVG 1.1//EN"
 "http://www.w3.org/Graphics/SVG/1.1/DTD/svg11.dtd">
<!-- Generated by graphviz version 13.1.0 (20250701.0955)
 -->
<!-- Title: FIEAGameEngine/src/Actions/ActionConditionalIncrement.cpp Pages: 1 -->
<svg width="1004pt" height="500pt"
 viewBox="0.00 0.00 1004.00 500.00" xmlns="http://www.w3.org/2000/svg" xmlns:xlink="http://www.w3.org/1999/xlink">
<g id="graph0" class="graph" transform="scale(1 1) rotate(0) translate(4 496)">
<title>FIEAGameEngine/src/Actions/ActionConditionalIncrement.cpp</title>
<!-- Node1 -->
<g id="Node000001" class="node">
<title>Node1</title>
<g id="a_Node000001"><a xlink:title=" ">
<polygon fill="#999999" stroke="#666666" points="849.75,-492 718.25,-492 718.25,-448 849.75,-448 849.75,-492"/>
<text xml:space="preserve" text-anchor="start" x="726.25" y="-478.5" font-family="Helvetica,sans-Serif" font-size="10.00">FIEAGameEngine/src</text>
<text xml:space="preserve" text-anchor="start" x="726.25" y="-466.5" font-family="Helvetica,sans-Serif" font-size="10.00">/Actions/ActionConditional</text>
<text xml:space="preserve" text-anchor="middle" x="784" y="-454.5" font-family="Helvetica,sans-Serif" font-size="10.00">Increment.cpp</text>
</a>
</g>
</g>
<!-- Node2 -->
<g id="Node000002" class="node">
<title>Node2</title>
<g id="a_Node000002"><a xlink:href="_action_conditional_increment_8h.html" target="_top" xlink:title=" ">
<polygon fill="white" stroke="#666666" points="788.12,-412 643.88,-412 643.88,-392 788.12,-392 788.12,-412"/>
<text xml:space="preserve" text-anchor="middle" x="716" y="-398.5" font-family="Helvetica,sans-Serif" font-size="10.00">ActionConditionalIncrement.h</text>
</a>
</g>
</g>
<!-- Node1&#45;&gt;Node2 -->
<g id="edge1_Node000001_Node000002" class="edge">
<title>Node1&#45;&gt;Node2</title>
<g id="a_edge1_Node000001_Node000002"><a xlink:title=" ">
<path fill="none" stroke="#63b8ff" d="M762.11,-447.75C753,-438.92 742.57,-428.78 733.93,-420.4"/>
<polygon fill="#63b8ff" stroke="#63b8ff" points="736.4,-417.93 726.79,-413.47 731.53,-422.95 736.4,-417.93"/>
</a>
</g>
</g>
<!-- Node27 -->
<g id="Node000027" class="node">
<title>Node27</title>
<g id="a_Node000027"><a xlink:href="_action_condition_8h.html" target="_top" xlink:title=" ">
<polygon fill="white" stroke="#666666" points="899.62,-412 806.38,-412 806.38,-392 899.62,-392 899.62,-412"/>
<text xml:space="preserve" text-anchor="middle" x="853" y="-398.5" font-family="Helvetica,sans-Serif" font-size="10.00">ActionCondition.h</text>
</a>
</g>
</g>
<!-- Node1&#45;&gt;Node27 -->
<g id="edge44_Node000001_Node000027" class="edge">
<title>Node1&#45;&gt;Node27</title>
<g id="a_edge44_Node000001_Node000027"><a xlink:title=" ">
<path fill="none" stroke="#63b8ff" d="M806.21,-447.75C815.55,-438.82 826.27,-428.57 835.09,-420.13"/>
<polygon fill="#63b8ff" stroke="#63b8ff" points="837.25,-422.91 842.06,-413.47 832.41,-417.85 837.25,-422.91"/>
</a>
</g>
</g>
<!-- Node3 -->
<g id="Node000003" class="node">
<title>Node3</title>
<g id="a_Node000003"><a xlink:href="_types_8h.html" target="_top" xlink:title=" ">
<polygon fill="white" stroke="#666666" points="535.25,-76 406.75,-76 406.75,-56 535.25,-56 535.25,-76"/>
<text xml:space="preserve" text-anchor="middle" x="471" y="-62.5" font-family="Helvetica,sans-Serif" font-size="10.00">FieaGameEngine/Types.h</text>
</a>
</g>
</g>
<!-- Node2&#45;&gt;Node3 -->
<g id="edge2_Node000002_Node000003" class="edge">
<title>Node2&#45;&gt;Node3</title>
<g id="a_edge2_Node000002_Node000003"><a xlink:title=" ">
<path fill="none" stroke="#63b8ff" d="M643.41,-397.39C461.38,-387.37 0,-355.61 0,-291 0,-291 0,-291 0,-177 0,-143.54 9.88,-130.13 38,-112 95.3,-75.05 286.92,-67.83 395.05,-66.79"/>
<polygon fill="#63b8ff" stroke="#63b8ff" points="395.05,-70.29 405.02,-66.71 394.99,-63.29 395.05,-70.29"/>
</a>
</g>
</g>
<!-- Node12 -->
<g id="Node000012" class="node">
<title>Node12</title>
<g id="a_Node000012"><a xlink:href="_action_8h.html" target="_top" xlink:title=" ">
<polygon fill="white" stroke="#666666" points="783.88,-356 650.12,-356 650.12,-336 783.88,-336 783.88,-356"/>
<text xml:space="preserve" text-anchor="middle" x="717" y="-342.5" font-family="Helvetica,sans-Serif" font-size="10.00">FIEAGameEngine/Action.h</text>
</a>
</g>
</g>
<!-- Node2&#45;&gt;Node12 -->
<g id="edge11_Node000002_Node000012" class="edge">
<title>Node2&#45;&gt;Node12</title>
<g id="a_edge11_Node000002_Node000012"><a xlink:title=" ">
<path fill="none" stroke="#63b8ff" d="M716.17,-391.59C716.3,-385.01 716.46,-375.96 716.62,-367.73"/>
<polygon fill="#63b8ff" stroke="#63b8ff" points="720.11,-367.87 716.8,-357.81 713.12,-367.75 720.11,-367.87"/>
</a>
</g>
</g>
<!-- Node21 -->
<g id="Node000021" class="node">
<title>Node21</title>
<g id="a_Node000021"><a xlink:href="_factory_service_8h.html" target="_top" xlink:title=" ">
<polygon fill="white" stroke="#666666" points="900,-188 728,-188 728,-168 900,-168 900,-188"/>
<text xml:space="preserve" text-anchor="middle" x="814" y="-174.5" font-family="Helvetica,sans-Serif" font-size="10.00">FIEAGameEngine/FactoryService.h</text>
</a>
</g>
</g>
<!-- Node2&#45;&gt;Node21 -->
<g id="edge43_Node000002_Node000021" class="edge">
<title>Node2&#45;&gt;Node21</title>
<g id="a_edge43_Node000002_Node000021"><a xlink:title=" ">
<path fill="none" stroke="#63b8ff" d="M744.81,-391.59C761.68,-384.53 781.8,-373.1 793,-356 824.87,-307.36 821.27,-234.75 817.1,-199.57"/>
<polygon fill="#63b8ff" stroke="#63b8ff" points="820.6,-199.37 815.8,-189.92 813.66,-200.3 820.6,-199.37"/>
</a>
</g>
</g>
<!-- Node4 -->
<g id="Node000004" class="node">
<title>Node4</title>
<g id="a_Node000004"><a xlink:title=" ">
<polygon fill="#e0e0e0" stroke="#999999" points="251,-20 91,-20 91,0 251,0 251,-20"/>
<text xml:space="preserve" text-anchor="middle" x="171" y="-6.5" font-family="Helvetica,sans-Serif" font-size="10.00">../src/Memory/SystemAllocator.h</text>
</a>
</g>
</g>
<!-- Node3&#45;&gt;Node4 -->
<g id="edge3_Node000003_Node000004" class="edge">
<title>Node3&#45;&gt;Node4</title>
<g id="a_edge3_Node000003_Node000004"><a xlink:title=" ">
<path fill="none" stroke="#63b8ff" d="M418.4,-55.53C367.26,-46.33 289.5,-32.33 234.83,-22.49"/>
<polygon fill="#63b8ff" stroke="#63b8ff" points="235.49,-19.05 225.03,-20.73 234.25,-25.94 235.49,-19.05"/>
</a>
</g>
</g>
<!-- Node5 -->
<g id="Node000005" class="node">
<title>Node5</title>
<g id="a_Node000005"><a xlink:title=" ">
<polygon fill="#e0e0e0" stroke="#999999" points="331.25,-20 268.75,-20 268.75,0 331.25,0 331.25,-20"/>
<text xml:space="preserve" text-anchor="middle" x="300" y="-6.5" font-family="Helvetica,sans-Serif" font-size="10.00">windows.h</text>
</a>
</g>
</g>
<!-- Node3&#45;&gt;Node5 -->
<g id="edge4_Node000003_Node000005" class="edge">
<title>Node3&#45;&gt;Node5</title>
<g id="a_edge4_Node000003_Node000005"><a xlink:title=" ">
<path fill="none" stroke="#63b8ff" d="M441.21,-55.59C413.43,-46.82 371.75,-33.66 340.86,-23.9"/>
<polygon fill="#63b8ff" stroke="#63b8ff" points="342.05,-20.61 331.46,-20.94 339.94,-27.28 342.05,-20.61"/>
</a>
</g>
</g>
<!-- Node6 -->
<g id="Node000006" class="node">
<title>Node6</title>
<g id="a_Node000006"><a xlink:title=" ">
<polygon fill="#e0e0e0" stroke="#999999" points="397.12,-20 348.88,-20 348.88,0 397.12,0 397.12,-20"/>
<text xml:space="preserve" text-anchor="middle" x="373" y="-6.5" font-family="Helvetica,sans-Serif" font-size="10.00">cassert</text>
</a>
</g>
</g>
<!-- Node3&#45;&gt;Node6 -->
<g id="edge5_Node000003_Node000006" class="edge">
<title>Node3&#45;&gt;Node6</title>
<g id="a_edge5_Node000003_Node000006"><a xlink:title=" ">
<path fill="none" stroke="#63b8ff" d="M453.93,-55.59C439.12,-47.44 417.43,-35.48 400.23,-26"/>
<polygon fill="#63b8ff" stroke="#63b8ff" points="401.98,-22.97 391.53,-21.21 398.6,-29.1 401.98,-22.97"/>
</a>
</g>
</g>
<!-- Node7 -->
<g id="Node000007" class="node">
<title>Node7</title>
<g id="a_Node000007"><a xlink:title=" ">
<polygon fill="#e0e0e0" stroke="#999999" points="463.12,-20 414.88,-20 414.88,0 463.12,0 463.12,-20"/>
<text xml:space="preserve" text-anchor="middle" x="439" y="-6.5" font-family="Helvetica,sans-Serif" font-size="10.00">cstddef</text>
</a>
</g>
</g>
<!-- Node3&#45;&gt;Node7 -->
<g id="edge6_Node000003_Node000007" class="edge">
<title>Node3&#45;&gt;Node7</title>
<g id="a_edge6_Node000003_Node000007"><a xlink:title=" ">
<path fill="none" stroke="#63b8ff" d="M465.43,-55.59C461.25,-48.55 455.4,-38.67 450.26,-30"/>
<polygon fill="#63b8ff" stroke="#63b8ff" points="453.39,-28.42 445.28,-21.6 447.37,-31.99 453.39,-28.42"/>
</a>
</g>
</g>
<!-- Node8 -->
<g id="Node000008" class="node">
<title>Node8</title>
<g id="a_Node000008"><a xlink:title=" ">
<polygon fill="#e0e0e0" stroke="#999999" points="526.62,-20 481.38,-20 481.38,0 526.62,0 526.62,-20"/>
<text xml:space="preserve" text-anchor="middle" x="504" y="-6.5" font-family="Helvetica,sans-Serif" font-size="10.00">cstdint</text>
</a>
</g>
</g>
<!-- Node3&#45;&gt;Node8 -->
<g id="edge7_Node000003_Node000008" class="edge">
<title>Node3&#45;&gt;Node8</title>
<g id="a_edge7_Node000003_Node000008"><a xlink:title=" ">
<path fill="none" stroke="#63b8ff" d="M476.75,-55.59C481.05,-48.55 487.09,-38.67 492.39,-30"/>
<polygon fill="#63b8ff" stroke="#63b8ff" points="495.3,-31.95 497.53,-21.59 489.33,-28.3 495.3,-31.95"/>
</a>
</g>
</g>
<!-- Node9 -->
<g id="Node000009" class="node">
<title>Node9</title>
<g id="a_Node000009"><a xlink:title=" ">
<polygon fill="#e0e0e0" stroke="#999999" points="597.38,-20 544.62,-20 544.62,0 597.38,0 597.38,-20"/>
<text xml:space="preserve" text-anchor="middle" x="571" y="-6.5" font-family="Helvetica,sans-Serif" font-size="10.00">cstdbool</text>
</a>
</g>
</g>
<!-- Node3&#45;&gt;Node9 -->
<g id="edge8_Node000003_Node000009" class="edge">
<title>Node3&#45;&gt;Node9</title>
<g id="a_edge8_Node000003_Node000009"><a xlink:title=" ">
<path fill="none" stroke="#63b8ff" d="M488.42,-55.59C503.67,-47.36 526.08,-35.26 543.71,-25.74"/>
<polygon fill="#63b8ff" stroke="#63b8ff" points="544.98,-29.03 552.11,-21.2 541.65,-22.87 544.98,-29.03"/>
</a>
</g>
</g>
<!-- Node10 -->
<g id="Node000010" class="node">
<title>Node10</title>
<g id="a_Node000010"><a xlink:title=" ">
<polygon fill="#e0e0e0" stroke="#999999" points="655,-20 615,-20 615,0 655,0 655,-20"/>
<text xml:space="preserve" text-anchor="middle" x="635" y="-6.5" font-family="Helvetica,sans-Serif" font-size="10.00">string</text>
</a>
</g>
</g>
<!-- Node3&#45;&gt;Node10 -->
<g id="edge9_Node000003_Node000010" class="edge">
<title>Node3&#45;&gt;Node10</title>
<g id="a_edge9_Node000003_Node000010"><a xlink:title=" ">
<path fill="none" stroke="#63b8ff" d="M499.57,-55.59C528.7,-46 573.77,-31.16 603.81,-21.27"/>
<polygon fill="#63b8ff" stroke="#63b8ff" points="604.69,-24.67 613.09,-18.21 602.5,-18.02 604.69,-24.67"/>
</a>
</g>
</g>
<!-- Node11 -->
<g id="Node000011" class="node">
<title>Node11</title>
<g id="a_Node000011"><a xlink:title=" ">
<polygon fill="#e0e0e0" stroke="#999999" points="727.12,-20 672.88,-20 672.88,0 727.12,0 727.12,-20"/>
<text xml:space="preserve" text-anchor="middle" x="700" y="-6.5" font-family="Helvetica,sans-Serif" font-size="10.00">crtdefs.h</text>
</a>
</g>
</g>
<!-- Node3&#45;&gt;Node11 -->
<g id="edge10_Node000003_Node000011" class="edge">
<title>Node3&#45;&gt;Node11</title>
<g id="a_edge10_Node000003_Node000011"><a xlink:title=" ">
<path fill="none" stroke="#63b8ff" d="M512.46,-55.53C549.2,-47.1 604.61,-34.27 661.48,-20.58"/>
<polygon fill="#63b8ff" stroke="#63b8ff" points="662.12,-24.03 671.02,-18.28 660.48,-17.22 662.12,-24.03"/>
</a>
</g>
</g>
<!-- Node12&#45;&gt;Node3 -->
<g id="edge12_Node000012_Node000003" class="edge">
<title>Node12&#45;&gt;Node3</title>
<g id="a_edge12_Node000012_Node000003"><a xlink:title=" ">
<path fill="none" stroke="#63b8ff" d="M649.72,-341.11C478.2,-330.29 38,-296.54 38,-235 38,-235 38,-235 38,-177 38,-146.9 33.93,-131.33 57,-112 82.35,-90.76 282.94,-76.9 395.33,-70.71"/>
<polygon fill="#63b8ff" stroke="#63b8ff" points="395.28,-74.22 405.08,-70.18 394.9,-67.23 395.28,-74.22"/>
</a>
</g>
</g>
<!-- Node13 -->
<g id="Node000013" class="node">
<title>Node13</title>
<g id="a_Node000013"><a xlink:href="_attributed_8h.html" target="_top" xlink:title=" ">
<polygon fill="white" stroke="#666666" points="669.88,-300 566.12,-300 566.12,-280 669.88,-280 669.88,-300"/>
<text xml:space="preserve" text-anchor="middle" x="618" y="-286.5" font-family="Helvetica,sans-Serif" font-size="10.00">Content/Attributed.h</text>
</a>
</g>
</g>
<!-- Node12&#45;&gt;Node13 -->
<g id="edge13_Node000012_Node000013" class="edge">
<title>Node12&#45;&gt;Node13</title>
<g id="a_edge13_Node000012_Node000013"><a xlink:title=" ">
<path fill="none" stroke="#63b8ff" d="M699.76,-335.59C684.66,-327.36 662.47,-315.26 645.02,-305.74"/>
<polygon fill="#63b8ff" stroke="#63b8ff" points="647.16,-302.92 636.71,-301.2 643.81,-309.07 647.16,-302.92"/>
</a>
</g>
</g>
<!-- Node12&#45;&gt;Node21 -->
<g id="edge41_Node000012_Node000021" class="edge">
<title>Node12&#45;&gt;Node21</title>
<g id="a_edge41_Node000012_Node000021"><a xlink:title=" ">
<path fill="none" stroke="#63b8ff" d="M722.49,-335.6C737.97,-309.12 782.13,-233.54 802.92,-197.96"/>
<polygon fill="#63b8ff" stroke="#63b8ff" points="805.78,-200 807.8,-189.6 799.74,-196.47 805.78,-200"/>
</a>
</g>
</g>
<!-- Node26 -->
<g id="Node000026" class="node">
<title>Node26</title>
<g id="a_Node000026"><a xlink:title=" ">
<polygon fill="#e0e0e0" stroke="#999999" points="748,-244 690,-244 690,-224 748,-224 748,-244"/>
<text xml:space="preserve" text-anchor="middle" x="719" y="-230.5" font-family="Helvetica,sans-Serif" font-size="10.00">functional</text>
</a>
</g>
</g>
<!-- Node12&#45;&gt;Node26 -->
<g id="edge42_Node000012_Node000026" class="edge">
<title>Node12&#45;&gt;Node26</title>
<g id="a_edge42_Node000012_Node000026"><a xlink:title=" ">
<path fill="none" stroke="#63b8ff" d="M717.17,-335.62C717.49,-318.01 718.19,-279.59 718.62,-255.65"/>
<polygon fill="#63b8ff" stroke="#63b8ff" points="722.12,-255.93 718.8,-245.87 715.12,-255.8 722.12,-255.93"/>
</a>
</g>
</g>
<!-- Node13&#45;&gt;Node3 -->
<g id="edge14_Node000013_Node000003" class="edge">
<title>Node13&#45;&gt;Node3</title>
<g id="a_edge14_Node000013_Node000003"><a xlink:title=" ">
<path fill="none" stroke="#63b8ff" d="M565.92,-283.56C539.4,-277.98 509.04,-266.71 491,-244 454.52,-198.08 461.11,-123.06 466.98,-87.26"/>
<polygon fill="#63b8ff" stroke="#63b8ff" points="470.35,-88.29 468.69,-77.83 463.46,-87.05 470.35,-88.29"/>
</a>
</g>
</g>
<!-- Node14 -->
<g id="Node000014" class="node">
<title>Node14</title>
<g id="a_Node000014"><a xlink:href="_datum_8h.html" target="_top" xlink:title=" ">
<polygon fill="white" stroke="#666666" points="371.5,-188 280.5,-188 280.5,-168 371.5,-168 371.5,-188"/>
<text xml:space="preserve" text-anchor="middle" x="326" y="-174.5" font-family="Helvetica,sans-Serif" font-size="10.00">Content/Datum.h</text>
</a>
</g>
</g>
<!-- Node13&#45;&gt;Node14 -->
<g id="edge15_Node000013_Node000014" class="edge">
<title>Node13&#45;&gt;Node14</title>
<g id="a_edge15_Node000013_Node000014"><a xlink:title=" ">
<path fill="none" stroke="#63b8ff" d="M565.65,-280.11C528.82,-272.87 478.83,-261.04 437,-244 404.5,-230.77 370.09,-209.29 348.34,-194.68"/>
<polygon fill="#63b8ff" stroke="#63b8ff" points="350.51,-191.92 340.28,-189.17 346.56,-197.7 350.51,-191.92"/>
</a>
</g>
</g>
<!-- Node18 -->
<g id="Node000018" class="node">
<title>Node18</title>
<g id="a_Node000018"><a xlink:href="_scope_8h.html" target="_top" xlink:title=" ">
<polygon fill="white" stroke="#666666" points="589.75,-244 500.25,-244 500.25,-224 589.75,-224 589.75,-244"/>
<text xml:space="preserve" text-anchor="middle" x="545" y="-230.5" font-family="Helvetica,sans-Serif" font-size="10.00">Content/Scope.h</text>
</a>
</g>
</g>
<!-- Node13&#45;&gt;Node18 -->
<g id="edge21_Node000013_Node000018" class="edge">
<title>Node13&#45;&gt;Node18</title>
<g id="a_edge21_Node000013_Node000018"><a xlink:title=" ">
<path fill="none" stroke="#63b8ff" d="M605.28,-279.59C594.61,-271.7 579.12,-260.24 566.52,-250.92"/>
<polygon fill="#63b8ff" stroke="#63b8ff" points="568.91,-248.33 558.79,-245.2 564.74,-253.96 568.91,-248.33"/>
</a>
</g>
</g>
<!-- Node19 -->
<g id="Node000019" class="node">
<title>Node19</title>
<g id="a_Node000019"><a xlink:href="_r_t_t_i_8h.html" target="_top" xlink:title=" ">
<polygon fill="white" stroke="#666666" points="682.88,-132 555.12,-132 555.12,-112 682.88,-112 682.88,-132"/>
<text xml:space="preserve" text-anchor="middle" x="619" y="-118.5" font-family="Helvetica,sans-Serif" font-size="10.00">FIEAGameEngine/RTTI.h</text>
</a>
</g>
</g>
<!-- Node13&#45;&gt;Node19 -->
<g id="edge38_Node000013_Node000019" class="edge">
<title>Node13&#45;&gt;Node19</title>
<g id="a_edge38_Node000013_Node000019"><a xlink:title=" ">
<path fill="none" stroke="#63b8ff" d="M623.79,-279.51C635.54,-259.01 660.1,-209.11 648,-168 645.19,-158.45 639.66,-149.02 634.17,-141.27"/>
<polygon fill="#63b8ff" stroke="#63b8ff" points="637,-139.21 628.14,-133.4 631.44,-143.47 637,-139.21"/>
</a>
</g>
</g>
<!-- Node25 -->
<g id="Node000025" class="node">
<title>Node25</title>
<g id="a_Node000025"><a xlink:title=" ">
<polygon fill="#e0e0e0" stroke="#999999" points="638.5,-188 595.5,-188 595.5,-168 638.5,-168 638.5,-188"/>
<text xml:space="preserve" text-anchor="middle" x="617" y="-174.5" font-family="Helvetica,sans-Serif" font-size="10.00">vector</text>
</a>
</g>
</g>
<!-- Node13&#45;&gt;Node25 -->
<g id="edge39_Node000013_Node000025" class="edge">
<title>Node13&#45;&gt;Node25</title>
<g id="a_edge39_Node000013_Node000025"><a xlink:title=" ">
<path fill="none" stroke="#63b8ff" d="M617.91,-279.62C617.75,-262.01 617.41,-223.59 617.19,-199.65"/>
<polygon fill="#63b8ff" stroke="#63b8ff" points="620.69,-199.84 617.1,-189.87 613.69,-199.9 620.69,-199.84"/>
</a>
</g>
</g>
<!-- Node13&#45;&gt;Node26 -->
<g id="edge40_Node000013_Node000026" class="edge">
<title>Node13&#45;&gt;Node26</title>
<g id="a_edge40_Node000013_Node000026"><a xlink:title=" ">
<path fill="none" stroke="#63b8ff" d="M635.59,-279.59C650.92,-271.4 673.42,-259.37 691.19,-249.87"/>
<polygon fill="#63b8ff" stroke="#63b8ff" points="692.77,-252.99 699.94,-245.19 689.47,-246.82 692.77,-252.99"/>
</a>
</g>
</g>
<!-- Node14&#45;&gt;Node3 -->
<g id="edge16_Node000014_Node000003" class="edge">
<title>Node14&#45;&gt;Node3</title>
<g id="a_edge16_Node000014_Node000003"><a xlink:title=" ">
<path fill="none" stroke="#63b8ff" d="M341.2,-167.66C355.21,-158.88 376.44,-145.15 394,-132 414.64,-116.54 437.04,-97.33 452.33,-83.82"/>
<polygon fill="#63b8ff" stroke="#63b8ff" points="454.59,-86.5 459.72,-77.23 449.93,-81.27 454.59,-86.5"/>
</a>
</g>
</g>
<!-- Node15 -->
<g id="Node000015" class="node">
<title>Node15</title>
<g id="a_Node000015"><a xlink:title=" ">
<polygon fill="#e0e0e0" stroke="#999999" points="248.62,-132 179.38,-132 179.38,-112 248.62,-112 248.62,-132"/>
<text xml:space="preserve" text-anchor="middle" x="214" y="-118.5" font-family="Helvetica,sans-Serif" font-size="10.00">glm/glm.hpp</text>
</a>
</g>
</g>
<!-- Node14&#45;&gt;Node15 -->
<g id="edge17_Node000014_Node000015" class="edge">
<title>Node14&#45;&gt;Node15</title>
<g id="a_edge17_Node000014_Node000015"><a xlink:title=" ">
<path fill="none" stroke="#63b8ff" d="M306.49,-167.59C289.25,-159.28 263.84,-147.03 244.01,-137.47"/>
<polygon fill="#63b8ff" stroke="#63b8ff" points="245.55,-134.33 235.02,-133.14 242.51,-140.63 245.55,-134.33"/>
</a>
</g>
</g>
<!-- Node16 -->
<g id="Node000016" class="node">
<title>Node16</title>
<g id="a_Node000016"><a xlink:title=" ">
<polygon fill="#e0e0e0" stroke="#999999" points="385,-132 267,-132 267,-112 385,-112 385,-132"/>
<text xml:space="preserve" text-anchor="middle" x="326" y="-118.5" font-family="Helvetica,sans-Serif" font-size="10.00">glm/gtx/string_cast.hpp</text>
</a>
</g>
</g>
<!-- Node14&#45;&gt;Node16 -->
<g id="edge18_Node000014_Node000016" class="edge">
<title>Node14&#45;&gt;Node16</title>
<g id="a_edge18_Node000014_Node000016"><a xlink:title=" ">
<path fill="none" stroke="#63b8ff" d="M326,-167.59C326,-161.01 326,-151.96 326,-143.73"/>
<polygon fill="#63b8ff" stroke="#63b8ff" points="329.5,-143.81 326,-133.81 322.5,-143.81 329.5,-143.81"/>
</a>
</g>
</g>
<!-- Node17 -->
<g id="Node000017" class="node">
<title>Node17</title>
<g id="a_Node000017"><a xlink:href="_datum_8inl.html" target="_top" xlink:title=" ">
<polygon fill="white" stroke="#666666" points="161.75,-132 66.25,-132 66.25,-112 161.75,-112 161.75,-132"/>
<text xml:space="preserve" text-anchor="middle" x="114" y="-118.5" font-family="Helvetica,sans-Serif" font-size="10.00">Content/Datum.inl</text>
</a>
</g>
</g>
<!-- Node14&#45;&gt;Node17 -->
<g id="edge19_Node000014_Node000017" class="edge">
<title>Node14&#45;&gt;Node17</title>
<g id="a_edge19_Node000014_Node000017"><a xlink:title=" ">
<path fill="none" stroke="#63b8ff" d="M283.55,-167.53C246.69,-158.6 193.72,-145.15 156.77,-135.37"/>
<polygon fill="#63b8ff" stroke="#63b8ff" points="157.88,-132.04 147.31,-132.85 156.08,-138.8 157.88,-132.04"/>
</a>
</g>
</g>
<!-- Node17&#45;&gt;Node14 -->
<g id="edge20_Node000017_Node000014" class="edge">
<title>Node17&#45;&gt;Node14</title>
<g id="a_edge20_Node000017_Node000014"><a xlink:title=" ">
<path fill="none" stroke="#63b8ff" d="M156.5,-132.48C193.42,-141.43 246.49,-154.91 283.43,-164.69"/>
<polygon fill="#63b8ff" stroke="#63b8ff" points="282.31,-168.01 292.88,-167.2 284.12,-161.25 282.31,-168.01"/>
</a>
</g>
</g>
<!-- Node18&#45;&gt;Node3 -->
<g id="edge22_Node000018_Node000003" class="edge">
<title>Node18&#45;&gt;Node3</title>
<g id="a_edge22_Node000018_Node000003"><a xlink:title=" ">
<path fill="none" stroke="#63b8ff" d="M540.81,-223.6C529.06,-197.23 495.6,-122.19 479.66,-86.42"/>
<polygon fill="#63b8ff" stroke="#63b8ff" points="483.03,-85.39 475.76,-77.68 476.64,-88.24 483.03,-85.39"/>
</a>
</g>
</g>
<!-- Node18&#45;&gt;Node14 -->
<g id="edge27_Node000018_Node000014" class="edge">
<title>Node18&#45;&gt;Node14</title>
<g id="a_edge27_Node000018_Node000014"><a xlink:title=" ">
<path fill="none" stroke="#63b8ff" d="M506.6,-223.53C470.13,-214.54 415.1,-200.97 375.38,-191.18"/>
<polygon fill="#63b8ff" stroke="#63b8ff" points="376.37,-187.82 365.82,-188.82 374.69,-194.61 376.37,-187.82"/>
</a>
</g>
</g>
<!-- Node18&#45;&gt;Node19 -->
<g id="edge23_Node000018_Node000019" class="edge">
<title>Node18&#45;&gt;Node19</title>
<g id="a_edge23_Node000018_Node000019"><a xlink:title=" ">
<path fill="none" stroke="#63b8ff" d="M543.88,-223.84C542.72,-210.51 542.35,-185.48 553,-168 560.86,-155.11 573.97,-145.04 586.45,-137.73"/>
<polygon fill="#63b8ff" stroke="#63b8ff" points="587.74,-141.01 594.88,-133.17 584.42,-134.85 587.74,-141.01"/>
</a>
</g>
</g>
<!-- Node18&#45;&gt;Node21 -->
<g id="edge28_Node000018_Node000021" class="edge">
<title>Node18&#45;&gt;Node21</title>
<g id="a_edge28_Node000018_Node000021"><a xlink:title=" ">
<path fill="none" stroke="#63b8ff" d="M590.02,-223.96C635.54,-214.83 706.07,-200.67 755.8,-190.68"/>
<polygon fill="#63b8ff" stroke="#63b8ff" points="756.42,-194.13 765.53,-188.73 755.04,-187.27 756.42,-194.13"/>
</a>
</g>
</g>
<!-- Node23 -->
<g id="Node000023" class="node">
<title>Node23</title>
<g id="a_Node000023"><a xlink:title=" ">
<polygon fill="#e0e0e0" stroke="#999999" points="858.38,-76 775.62,-76 775.62,-56 858.38,-56 858.38,-76"/>
<text xml:space="preserve" text-anchor="middle" x="817" y="-62.5" font-family="Helvetica,sans-Serif" font-size="10.00">unordered_map</text>
</a>
</g>
</g>
<!-- Node18&#45;&gt;Node23 -->
<g id="edge37_Node000018_Node000023" class="edge">
<title>Node18&#45;&gt;Node23</title>
<g id="a_edge37_Node000018_Node000023"><a xlink:title=" ">
<path fill="none" stroke="#63b8ff" d="M548.67,-223.62C554.64,-209.56 567.74,-183.06 587,-168 625.86,-137.61 646.7,-151.55 692,-132 709.52,-124.44 713.08,-120.83 730,-112 749.6,-101.77 771.73,-90.33 788.77,-81.54"/>
<polygon fill="#63b8ff" stroke="#63b8ff" points="790.02,-84.83 797.3,-77.14 786.81,-78.61 790.02,-84.83"/>
</a>
</g>
</g>
<!-- Node18&#45;&gt;Node25 -->
<g id="edge36_Node000018_Node000025" class="edge">
<title>Node18&#45;&gt;Node25</title>
<g id="a_edge36_Node000018_Node000025"><a xlink:title=" ">
<path fill="none" stroke="#63b8ff" d="M557.54,-223.59C567.97,-215.77 583.05,-204.46 595.41,-195.19"/>
<polygon fill="#63b8ff" stroke="#63b8ff" points="597.49,-198.01 603.39,-189.21 593.29,-192.41 597.49,-198.01"/>
</a>
</g>
</g>
<!-- Node19&#45;&gt;Node3 -->
<g id="edge24_Node000019_Node000003" class="edge">
<title>Node19&#45;&gt;Node3</title>
<g id="a_edge24_Node000019_Node000003"><a xlink:title=" ">
<path fill="none" stroke="#63b8ff" d="M593.22,-111.59C569.6,-102.97 534.36,-90.12 507.78,-80.42"/>
<polygon fill="#63b8ff" stroke="#63b8ff" points="509,-77.14 498.4,-77 506.6,-83.71 509,-77.14"/>
</a>
</g>
</g>
<!-- Node20 -->
<g id="Node000020" class="node">
<title>Node20</title>
<g id="a_Node000020"><a xlink:href="_r_t_t_i_8inl.html" target="_top" xlink:title=" ">
<polygon fill="white" stroke="#666666" points="685.12,-76 552.88,-76 552.88,-56 685.12,-56 685.12,-76"/>
<text xml:space="preserve" text-anchor="middle" x="619" y="-62.5" font-family="Helvetica,sans-Serif" font-size="10.00">FIEAGameEngine/RTTI.inl</text>
</a>
</g>
</g>
<!-- Node19&#45;&gt;Node20 -->
<g id="edge25_Node000019_Node000020" class="edge">
<title>Node19&#45;&gt;Node20</title>
<g id="a_edge25_Node000019_Node000020"><a xlink:title=" ">
<path fill="none" stroke="#63b8ff" d="M613.73,-111.59C612.42,-105.01 611.98,-95.96 612.41,-87.73"/>
<polygon fill="#63b8ff" stroke="#63b8ff" points="615.89,-88.14 613.58,-77.8 608.94,-87.33 615.89,-88.14"/>
</a>
</g>
</g>
<!-- Node20&#45;&gt;Node19 -->
<g id="edge26_Node000020_Node000019" class="edge">
<title>Node20&#45;&gt;Node19</title>
<g id="a_edge26_Node000020_Node000019"><a xlink:title=" ">
<path fill="none" stroke="#63b8ff" d="M624.25,-76.3C625.59,-82.93 626.03,-92.11 625.58,-100.43"/>
<polygon fill="#63b8ff" stroke="#63b8ff" points="622.13,-99.75 624.44,-110.09 629.08,-100.57 622.13,-99.75"/>
</a>
</g>
</g>
<!-- Node21&#45;&gt;Node3 -->
<g id="edge29_Node000021_Node000003" class="edge">
<title>Node21&#45;&gt;Node3</title>
<g id="a_edge29_Node000021_Node000003"><a xlink:title=" ">
<path fill="none" stroke="#63b8ff" d="M727.77,-174.39C673.41,-169.92 602.98,-158.84 546,-132 522.25,-120.81 500.2,-99.91 486.24,-84.83"/>
<polygon fill="#63b8ff" stroke="#63b8ff" points="488.93,-82.59 479.66,-77.46 483.71,-87.25 488.93,-82.59"/>
</a>
</g>
</g>
<!-- Node21&#45;&gt;Node19 -->
<g id="edge30_Node000021_Node000019" class="edge">
<title>Node21&#45;&gt;Node19</title>
<g id="a_edge30_Node000021_Node000019"><a xlink:title=" ">
<path fill="none" stroke="#63b8ff" d="M780.03,-167.59C747.93,-158.71 699.56,-145.31 664.21,-135.52"/>
<polygon fill="#63b8ff" stroke="#63b8ff" points="665.26,-132.18 654.69,-132.88 663.39,-138.93 665.26,-132.18"/>
</a>
</g>
</g>
<!-- Node22 -->
<g id="Node000022" class="node">
<title>Node22</title>
<g id="a_Node000022"><a xlink:href="_service_mgr_8h.html" target="_top" xlink:title=" ">
<polygon fill="white" stroke="#666666" points="894.75,-132 739.25,-132 739.25,-112 894.75,-112 894.75,-132"/>
<text xml:space="preserve" text-anchor="middle" x="817" y="-118.5" font-family="Helvetica,sans-Serif" font-size="10.00">FIEAGameEngine/ServiceMgr.h</text>
</a>
</g>
</g>
<!-- Node21&#45;&gt;Node22 -->
<g id="edge31_Node000021_Node000022" class="edge">
<title>Node21&#45;&gt;Node22</title>
<g id="a_edge31_Node000021_Node000022"><a xlink:title=" ">
<path fill="none" stroke="#63b8ff" d="M814.52,-167.59C814.89,-161.01 815.39,-151.96 815.85,-143.73"/>
<polygon fill="#63b8ff" stroke="#63b8ff" points="819.34,-143.99 816.4,-133.81 812.35,-143.6 819.34,-143.99"/>
</a>
</g>
</g>
<!-- Node21&#45;&gt;Node23 -->
<g id="edge35_Node000021_Node000023" class="edge">
<title>Node21&#45;&gt;Node23</title>
<g id="a_edge35_Node000021_Node000023"><a xlink:title=" ">
<path fill="none" stroke="#63b8ff" d="M876.89,-167.51C917.02,-160.03 963.72,-148.15 976,-132 1006.54,-91.82 927.23,-76.36 869.95,-70.49"/>
<polygon fill="#63b8ff" stroke="#63b8ff" points="870.62,-67.04 860.34,-69.59 869.96,-74.01 870.62,-67.04"/>
</a>
</g>
</g>
<!-- Node24 -->
<g id="Node000024" class="node">
<title>Node24</title>
<g id="a_Node000024"><a xlink:title=" ">
<polygon fill="#e0e0e0" stroke="#999999" points="966.75,-132 913.25,-132 913.25,-112 966.75,-112 966.75,-132"/>
<text xml:space="preserve" text-anchor="middle" x="940" y="-118.5" font-family="Helvetica,sans-Serif" font-size="10.00">iostream</text>
</a>
</g>
</g>
<!-- Node21&#45;&gt;Node24 -->
<g id="edge34_Node000021_Node000024" class="edge">
<title>Node21&#45;&gt;Node24</title>
<g id="a_edge34_Node000021_Node000024"><a xlink:title=" ">
<path fill="none" stroke="#63b8ff" d="M835.95,-167.59C855.7,-159.13 884.99,-146.58 907.47,-136.94"/>
<polygon fill="#63b8ff" stroke="#63b8ff" points="908.68,-140.23 916.49,-133.08 905.92,-133.8 908.68,-140.23"/>
</a>
</g>
</g>
<!-- Node22&#45;&gt;Node3 -->
<g id="edge32_Node000022_Node000003" class="edge">
<title>Node22&#45;&gt;Node3</title>
<g id="a_edge32_Node000022_Node000003"><a xlink:title=" ">
<path fill="none" stroke="#63b8ff" d="M756.34,-111.53C696.73,-102.23 605.79,-88.04 542.65,-78.18"/>
<polygon fill="#63b8ff" stroke="#63b8ff" points="543.51,-74.77 533.09,-76.69 542.43,-81.69 543.51,-74.77"/>
</a>
</g>
</g>
<!-- Node22&#45;&gt;Node23 -->
<g id="edge33_Node000022_Node000023" class="edge">
<title>Node22&#45;&gt;Node23</title>
<g id="a_edge33_Node000022_Node000023"><a xlink:title=" ">
<path fill="none" stroke="#63b8ff" d="M817,-111.59C817,-105.01 817,-95.96 817,-87.73"/>
<polygon fill="#63b8ff" stroke="#63b8ff" points="820.5,-87.81 817,-77.81 813.5,-87.81 820.5,-87.81"/>
</a>
</g>
</g>
<!-- Node27&#45;&gt;Node3 -->
<g id="edge45_Node000027_Node000003" class="edge">
<title>Node27&#45;&gt;Node3</title>
<g id="a_edge45_Node000027_Node000003"><a xlink:title=" ">
<path fill="none" stroke="#63b8ff" d="M885.93,-391.57C927.88,-377.29 995,-345.88 995,-291 995,-291 995,-291 995,-177 995,-146.9 999.31,-131.04 976,-112 940.66,-83.14 627.63,-81.09 546.73,-75.98"/>
<polygon fill="#63b8ff" stroke="#63b8ff" points="547.22,-72.5 536.98,-75.21 546.67,-79.48 547.22,-72.5"/>
</a>
</g>
</g>
<!-- Node27&#45;&gt;Node12 -->
<g id="edge46_Node000027_Node000012" class="edge">
<title>Node27&#45;&gt;Node12</title>
<g id="a_edge46_Node000027_Node000012"><a xlink:title=" ">
<path fill="none" stroke="#63b8ff" d="M829.31,-391.59C807.8,-383.05 775.8,-370.35 751.46,-360.68"/>
<polygon fill="#63b8ff" stroke="#63b8ff" points="752.87,-357.48 742.28,-357.04 750.28,-363.98 752.87,-357.48"/>
</a>
</g>
</g>
<!-- Node27&#45;&gt;Node21 -->
<g id="edge47_Node000027_Node000021" class="edge">
<title>Node27&#45;&gt;Node21</title>
<g id="a_edge47_Node000027_Node000021"><a xlink:title=" ">
<path fill="none" stroke="#63b8ff" d="M852.22,-391.69C849.88,-365.21 842.22,-287.28 828,-224 826.14,-215.72 823.49,-206.77 821,-199.04"/>
<polygon fill="#63b8ff" stroke="#63b8ff" points="824.33,-197.98 817.82,-189.62 817.7,-200.22 824.33,-197.98"/>
</a>
</g>
</g>
</g>
</svg>
