<?xml version="1.0" encoding="UTF-8" standalone="no"?>
<!DOCTYPE svg PUBLIC "-//W3C//DTD SVG 1.1//EN"
 "http://www.w3.org/Graphics/SVG/1.1/DTD/svg11.dtd">
<!-- Generated by graphviz version 13.1.0 (20250701.0955)
 -->
<!-- Title: FIEAGameEngine/src/Content/ActionListHandler.cpp Pages: 1 -->
<svg width="1148pt" height="488pt"
 viewBox="0.00 0.00 1148.00 488.00" xmlns="http://www.w3.org/2000/svg" xmlns:xlink="http://www.w3.org/1999/xlink">
<g id="graph0" class="graph" transform="scale(1 1) rotate(0) translate(4 484)">
<title>FIEAGameEngine/src/Content/ActionListHandler.cpp</title>
<!-- Node1 -->
<g id="Node000001" class="node">
<title>Node1</title>
<g id="a_Node000001"><a xlink:title=" ">
<polygon fill="#999999" stroke="#666666" points="976.07,-480 823.57,-480 823.57,-448 976.07,-448 976.07,-480"/>
<text xml:space="preserve" text-anchor="start" x="831.57" y="-466.5" font-family="Helvetica,sans-Serif" font-size="10.00">FIEAGameEngine/src</text>
<text xml:space="preserve" text-anchor="middle" x="899.82" y="-454.5" font-family="Helvetica,sans-Serif" font-size="10.00">/Content/ActionListHandler.cpp</text>
</a>
</g>
</g>
<!-- Node2 -->
<g id="Node000002" class="node">
<title>Node2</title>
<g id="a_Node000002"><a xlink:href="_action_list_handler_8h.html" target="_top" xlink:title=" ">
<polygon fill="white" stroke="#666666" points="671.57,-412 570.07,-412 570.07,-392 671.57,-392 671.57,-412"/>
<text xml:space="preserve" text-anchor="middle" x="620.82" y="-398.5" font-family="Helvetica,sans-Serif" font-size="10.00">ActionListHandler.h</text>
</a>
</g>
</g>
<!-- Node1&#45;&gt;Node2 -->
<g id="edge1_Node000001_Node000002" class="edge">
<title>Node1&#45;&gt;Node2</title>
<g id="a_edge1_Node000001_Node000002"><a xlink:title=" ">
<path fill="none" stroke="#63b8ff" d="M827.97,-447.55C780.69,-437.38 719.73,-424.27 676.2,-414.91"/>
<polygon fill="#63b8ff" stroke="#63b8ff" points="676.97,-411.5 666.46,-412.81 675.5,-418.34 676.97,-411.5"/>
</a>
</g>
</g>
<!-- Node28 -->
<g id="Node000028" class="node">
<title>Node28</title>
<g id="a_Node000028"><a xlink:href="_scope_writer_8h.html" target="_top" xlink:title=" ">
<polygon fill="white" stroke="#666666" points="938.57,-412 861.07,-412 861.07,-392 938.57,-392 938.57,-412"/>
<text xml:space="preserve" text-anchor="middle" x="899.82" y="-398.5" font-family="Helvetica,sans-Serif" font-size="10.00">ScopeWriter.h</text>
</a>
</g>
</g>
<!-- Node1&#45;&gt;Node28 -->
<g id="edge47_Node000001_Node000028" class="edge">
<title>Node1&#45;&gt;Node28</title>
<g id="a_edge47_Node000001_Node000028"><a xlink:title=" ">
<path fill="none" stroke="#63b8ff" d="M899.82,-447.55C899.82,-440.34 899.82,-431.66 899.82,-423.88"/>
<polygon fill="#63b8ff" stroke="#63b8ff" points="903.32,-423.92 899.82,-413.92 896.32,-423.92 903.32,-423.92"/>
</a>
</g>
</g>
<!-- Node30 -->
<g id="Node000030" class="node">
<title>Node30</title>
<g id="a_Node000030"><a xlink:title=" ">
<polygon fill="#e0e0e0" stroke="#999999" points="996.82,-412 956.82,-412 956.82,-392 996.82,-392 996.82,-412"/>
<text xml:space="preserve" text-anchor="middle" x="976.82" y="-398.5" font-family="Helvetica,sans-Serif" font-size="10.00">regex</text>
</a>
</g>
</g>
<!-- Node1&#45;&gt;Node30 -->
<g id="edge51_Node000001_Node000030" class="edge">
<title>Node1&#45;&gt;Node30</title>
<g id="a_edge51_Node000001_Node000030"><a xlink:title=" ">
<path fill="none" stroke="#63b8ff" d="M919.65,-447.55C930.79,-438.87 944.68,-428.04 955.98,-419.24"/>
<polygon fill="#63b8ff" stroke="#63b8ff" points="957.81,-422.25 963.55,-413.34 953.51,-416.72 957.81,-422.25"/>
</a>
</g>
</g>
<!-- Node3 -->
<g id="Node000003" class="node">
<title>Node3</title>
<g id="a_Node000003"><a xlink:href="_types_8h.html" target="_top" xlink:title=" ">
<polygon fill="white" stroke="#666666" points="647.07,-76 518.57,-76 518.57,-56 647.07,-56 647.07,-76"/>
<text xml:space="preserve" text-anchor="middle" x="582.82" y="-62.5" font-family="Helvetica,sans-Serif" font-size="10.00">FieaGameEngine/Types.h</text>
</a>
</g>
</g>
<!-- Node2&#45;&gt;Node3 -->
<g id="edge2_Node000002_Node000003" class="edge">
<title>Node2&#45;&gt;Node3</title>
<g id="a_edge2_Node000002_Node000003"><a xlink:title=" ">
<path fill="none" stroke="#63b8ff" d="M620.82,-391.58C620.82,-372.57 620.82,-328.24 620.82,-291 620.82,-291 620.82,-291 620.82,-177 620.82,-143.77 605.14,-107.85 593.92,-86.4"/>
<polygon fill="#63b8ff" stroke="#63b8ff" points="597.02,-84.76 589.15,-77.66 590.87,-88.12 597.02,-84.76"/>
</a>
</g>
</g>
<!-- Node12 -->
<g id="Node000012" class="node">
<title>Node12</title>
<g id="a_Node000012"><a xlink:href="_content_service_8h.html" target="_top" xlink:title=" ">
<polygon fill="white" stroke="#666666" points="567.57,-356 394.07,-356 394.07,-336 567.57,-336 567.57,-356"/>
<text xml:space="preserve" text-anchor="middle" x="480.82" y="-342.5" font-family="Helvetica,sans-Serif" font-size="10.00">FIEAGameEngine/ContentService.h</text>
</a>
</g>
</g>
<!-- Node2&#45;&gt;Node12 -->
<g id="edge11_Node000002_Node000012" class="edge">
<title>Node2&#45;&gt;Node12</title>
<g id="a_edge11_Node000002_Node000012"><a xlink:title=" ">
<path fill="none" stroke="#63b8ff" d="M596.43,-391.59C574.18,-383.01 541.05,-370.23 515.95,-360.55"/>
<polygon fill="#63b8ff" stroke="#63b8ff" points="517.4,-357.36 506.81,-357.02 514.88,-363.89 517.4,-357.36"/>
</a>
</g>
</g>
<!-- Node4 -->
<g id="Node000004" class="node">
<title>Node4</title>
<g id="a_Node000004"><a xlink:title=" ">
<polygon fill="#e0e0e0" stroke="#999999" points="362.82,-20 202.82,-20 202.82,0 362.82,0 362.82,-20"/>
<text xml:space="preserve" text-anchor="middle" x="282.82" y="-6.5" font-family="Helvetica,sans-Serif" font-size="10.00">../src/Memory/SystemAllocator.h</text>
</a>
</g>
</g>
<!-- Node3&#45;&gt;Node4 -->
<g id="edge3_Node000003_Node000004" class="edge">
<title>Node3&#45;&gt;Node4</title>
<g id="a_edge3_Node000003_Node000004"><a xlink:title=" ">
<path fill="none" stroke="#63b8ff" d="M530.22,-55.53C479.07,-46.33 401.31,-32.33 346.65,-22.49"/>
<polygon fill="#63b8ff" stroke="#63b8ff" points="347.31,-19.05 336.85,-20.73 346.07,-25.94 347.31,-19.05"/>
</a>
</g>
</g>
<!-- Node5 -->
<g id="Node000005" class="node">
<title>Node5</title>
<g id="a_Node000005"><a xlink:title=" ">
<polygon fill="#e0e0e0" stroke="#999999" points="443.07,-20 380.57,-20 380.57,0 443.07,0 443.07,-20"/>
<text xml:space="preserve" text-anchor="middle" x="411.82" y="-6.5" font-family="Helvetica,sans-Serif" font-size="10.00">windows.h</text>
</a>
</g>
</g>
<!-- Node3&#45;&gt;Node5 -->
<g id="edge4_Node000003_Node000005" class="edge">
<title>Node3&#45;&gt;Node5</title>
<g id="a_edge4_Node000003_Node000005"><a xlink:title=" ">
<path fill="none" stroke="#63b8ff" d="M553.03,-55.59C525.25,-46.82 483.57,-33.66 452.68,-23.9"/>
<polygon fill="#63b8ff" stroke="#63b8ff" points="453.87,-20.61 443.28,-20.94 451.76,-27.28 453.87,-20.61"/>
</a>
</g>
</g>
<!-- Node6 -->
<g id="Node000006" class="node">
<title>Node6</title>
<g id="a_Node000006"><a xlink:title=" ">
<polygon fill="#e0e0e0" stroke="#999999" points="508.94,-20 460.69,-20 460.69,0 508.94,0 508.94,-20"/>
<text xml:space="preserve" text-anchor="middle" x="484.82" y="-6.5" font-family="Helvetica,sans-Serif" font-size="10.00">cassert</text>
</a>
</g>
</g>
<!-- Node3&#45;&gt;Node6 -->
<g id="edge5_Node000003_Node000006" class="edge">
<title>Node3&#45;&gt;Node6</title>
<g id="a_edge5_Node000003_Node000006"><a xlink:title=" ">
<path fill="none" stroke="#63b8ff" d="M565.75,-55.59C550.94,-47.44 529.25,-35.48 512.05,-26"/>
<polygon fill="#63b8ff" stroke="#63b8ff" points="513.79,-22.97 503.35,-21.21 510.42,-29.1 513.79,-22.97"/>
</a>
</g>
</g>
<!-- Node7 -->
<g id="Node000007" class="node">
<title>Node7</title>
<g id="a_Node000007"><a xlink:title=" ">
<polygon fill="#e0e0e0" stroke="#999999" points="574.94,-20 526.69,-20 526.69,0 574.94,0 574.94,-20"/>
<text xml:space="preserve" text-anchor="middle" x="550.82" y="-6.5" font-family="Helvetica,sans-Serif" font-size="10.00">cstddef</text>
</a>
</g>
</g>
<!-- Node3&#45;&gt;Node7 -->
<g id="edge6_Node000003_Node000007" class="edge">
<title>Node3&#45;&gt;Node7</title>
<g id="a_edge6_Node000003_Node000007"><a xlink:title=" ">
<path fill="none" stroke="#63b8ff" d="M577.24,-55.59C573.07,-48.55 567.21,-38.67 562.08,-30"/>
<polygon fill="#63b8ff" stroke="#63b8ff" points="565.21,-28.42 557.1,-21.6 559.19,-31.99 565.21,-28.42"/>
</a>
</g>
</g>
<!-- Node8 -->
<g id="Node000008" class="node">
<title>Node8</title>
<g id="a_Node000008"><a xlink:title=" ">
<polygon fill="#e0e0e0" stroke="#999999" points="638.44,-20 593.19,-20 593.19,0 638.44,0 638.44,-20"/>
<text xml:space="preserve" text-anchor="middle" x="615.82" y="-6.5" font-family="Helvetica,sans-Serif" font-size="10.00">cstdint</text>
</a>
</g>
</g>
<!-- Node3&#45;&gt;Node8 -->
<g id="edge7_Node000003_Node000008" class="edge">
<title>Node3&#45;&gt;Node8</title>
<g id="a_edge7_Node000003_Node000008"><a xlink:title=" ">
<path fill="none" stroke="#63b8ff" d="M588.57,-55.59C592.87,-48.55 598.91,-38.67 604.21,-30"/>
<polygon fill="#63b8ff" stroke="#63b8ff" points="607.12,-31.95 609.35,-21.59 601.15,-28.3 607.12,-31.95"/>
</a>
</g>
</g>
<!-- Node9 -->
<g id="Node000009" class="node">
<title>Node9</title>
<g id="a_Node000009"><a xlink:title=" ">
<polygon fill="#e0e0e0" stroke="#999999" points="709.19,-20 656.44,-20 656.44,0 709.19,0 709.19,-20"/>
<text xml:space="preserve" text-anchor="middle" x="682.82" y="-6.5" font-family="Helvetica,sans-Serif" font-size="10.00">cstdbool</text>
</a>
</g>
</g>
<!-- Node3&#45;&gt;Node9 -->
<g id="edge8_Node000003_Node000009" class="edge">
<title>Node3&#45;&gt;Node9</title>
<g id="a_edge8_Node000003_Node000009"><a xlink:title=" ">
<path fill="none" stroke="#63b8ff" d="M600.24,-55.59C615.49,-47.36 637.9,-35.26 655.53,-25.74"/>
<polygon fill="#63b8ff" stroke="#63b8ff" points="656.8,-29.03 663.93,-21.2 653.47,-22.87 656.8,-29.03"/>
</a>
</g>
</g>
<!-- Node10 -->
<g id="Node000010" class="node">
<title>Node10</title>
<g id="a_Node000010"><a xlink:title=" ">
<polygon fill="#e0e0e0" stroke="#999999" points="766.82,-20 726.82,-20 726.82,0 766.82,0 766.82,-20"/>
<text xml:space="preserve" text-anchor="middle" x="746.82" y="-6.5" font-family="Helvetica,sans-Serif" font-size="10.00">string</text>
</a>
</g>
</g>
<!-- Node3&#45;&gt;Node10 -->
<g id="edge9_Node000003_Node000010" class="edge">
<title>Node3&#45;&gt;Node10</title>
<g id="a_edge9_Node000003_Node000010"><a xlink:title=" ">
<path fill="none" stroke="#63b8ff" d="M611.38,-55.59C640.52,-46 685.59,-31.16 715.63,-21.27"/>
<polygon fill="#63b8ff" stroke="#63b8ff" points="716.51,-24.67 724.91,-18.21 714.32,-18.02 716.51,-24.67"/>
</a>
</g>
</g>
<!-- Node11 -->
<g id="Node000011" class="node">
<title>Node11</title>
<g id="a_Node000011"><a xlink:title=" ">
<polygon fill="#e0e0e0" stroke="#999999" points="838.94,-20 784.69,-20 784.69,0 838.94,0 838.94,-20"/>
<text xml:space="preserve" text-anchor="middle" x="811.82" y="-6.5" font-family="Helvetica,sans-Serif" font-size="10.00">crtdefs.h</text>
</a>
</g>
</g>
<!-- Node3&#45;&gt;Node11 -->
<g id="edge10_Node000003_Node000011" class="edge">
<title>Node3&#45;&gt;Node11</title>
<g id="a_edge10_Node000003_Node000011"><a xlink:title=" ">
<path fill="none" stroke="#63b8ff" d="M624.28,-55.53C661.02,-47.1 716.43,-34.27 773.3,-20.58"/>
<polygon fill="#63b8ff" stroke="#63b8ff" points="773.94,-24.03 782.84,-18.28 772.3,-17.22 773.94,-24.03"/>
</a>
</g>
</g>
<!-- Node12&#45;&gt;Node3 -->
<g id="edge12_Node000012_Node000003" class="edge">
<title>Node12&#45;&gt;Node3</title>
<g id="a_edge12_Node000012_Node000003"><a xlink:title=" ">
<path fill="none" stroke="#63b8ff" d="M567.83,-345.43C723.56,-343.82 1033.82,-328.85 1033.82,-235 1033.82,-235 1033.82,-235 1033.82,-177 1033.82,-146.9 1037.93,-131.28 1014.82,-112 988.09,-89.71 775.27,-76.17 658.64,-70.35"/>
<polygon fill="#63b8ff" stroke="#63b8ff" points="659,-66.86 648.84,-69.87 658.65,-73.85 659,-66.86"/>
</a>
</g>
</g>
<!-- Node13 -->
<g id="Node000013" class="node">
<title>Node13</title>
<g id="a_Node000013"><a xlink:href="_service_mgr_8h.html" target="_top" xlink:title=" ">
<polygon fill="white" stroke="#666666" points="368.57,-132 213.07,-132 213.07,-112 368.57,-112 368.57,-132"/>
<text xml:space="preserve" text-anchor="middle" x="290.82" y="-118.5" font-family="Helvetica,sans-Serif" font-size="10.00">FIEAGameEngine/ServiceMgr.h</text>
</a>
</g>
</g>
<!-- Node12&#45;&gt;Node13 -->
<g id="edge13_Node000012_Node000013" class="edge">
<title>Node12&#45;&gt;Node13</title>
<g id="a_edge13_Node000012_Node000013"><a xlink:title=" ">
<path fill="none" stroke="#63b8ff" d="M417.34,-335.51C384.91,-328.82 345.67,-317.78 313.82,-300 250.4,-264.6 223.62,-254.67 194.82,-188 184.02,-163.01 211.42,-146.29 239.67,-136.07"/>
<polygon fill="#63b8ff" stroke="#63b8ff" points="240.65,-139.43 249.02,-132.95 238.43,-132.79 240.65,-139.43"/>
</a>
</g>
</g>
<!-- Node14 -->
<g id="Node000014" class="node">
<title>Node14</title>
<g id="a_Node000014"><a xlink:title=" ">
<polygon fill="#e0e0e0" stroke="#999999" points="296.19,-76 213.44,-76 213.44,-56 296.19,-56 296.19,-76"/>
<text xml:space="preserve" text-anchor="middle" x="254.82" y="-62.5" font-family="Helvetica,sans-Serif" font-size="10.00">unordered_map</text>
</a>
</g>
</g>
<!-- Node12&#45;&gt;Node14 -->
<g id="edge45_Node000012_Node000014" class="edge">
<title>Node12&#45;&gt;Node14</title>
<g id="a_edge45_Node000012_Node000014"><a xlink:title=" ">
<path fill="none" stroke="#63b8ff" d="M393.62,-342.7C255.23,-336.64 0.82,-314.67 0.82,-235 0.82,-235 0.82,-235 0.82,-177 0.82,-146.9 -2.45,-132.25 19.82,-112 33.17,-99.86 136.73,-83.46 201.84,-74.18"/>
<polygon fill="#63b8ff" stroke="#63b8ff" points="202.21,-77.66 211.62,-72.8 201.23,-70.73 202.21,-77.66"/>
</a>
</g>
</g>
<!-- Node15 -->
<g id="Node000015" class="node">
<title>Node15</title>
<g id="a_Node000015"><a xlink:href="_r_t_t_i_8h.html" target="_top" xlink:title=" ">
<polygon fill="white" stroke="#666666" points="156.69,-132 28.94,-132 28.94,-112 156.69,-112 156.69,-132"/>
<text xml:space="preserve" text-anchor="middle" x="92.82" y="-118.5" font-family="Helvetica,sans-Serif" font-size="10.00">FIEAGameEngine/RTTI.h</text>
</a>
</g>
</g>
<!-- Node12&#45;&gt;Node15 -->
<g id="edge16_Node000012_Node000015" class="edge">
<title>Node12&#45;&gt;Node15</title>
<g id="a_edge16_Node000012_Node000015"><a xlink:title=" ">
<path fill="none" stroke="#63b8ff" d="M393.7,-336.01C355.42,-329.6 310.85,-318.65 273.82,-300 197.03,-261.34 131.91,-178.42 105.46,-141.45"/>
<polygon fill="#63b8ff" stroke="#63b8ff" points="108.53,-139.73 99.92,-133.55 102.8,-143.75 108.53,-139.73"/>
</a>
</g>
</g>
<!-- Node17 -->
<g id="Node000017" class="node">
<title>Node17</title>
<g id="a_Node000017"><a xlink:href="_attributed_8h.html" target="_top" xlink:title=" ">
<polygon fill="white" stroke="#666666" points="426.69,-300 322.94,-300 322.94,-280 426.69,-280 426.69,-300"/>
<text xml:space="preserve" text-anchor="middle" x="374.82" y="-286.5" font-family="Helvetica,sans-Serif" font-size="10.00">Content/Attributed.h</text>
</a>
</g>
</g>
<!-- Node12&#45;&gt;Node17 -->
<g id="edge20_Node000012_Node000017" class="edge">
<title>Node12&#45;&gt;Node17</title>
<g id="a_edge20_Node000012_Node000017"><a xlink:title=" ">
<path fill="none" stroke="#63b8ff" d="M462.35,-335.59C446.11,-327.32 422.21,-315.14 403.48,-305.6"/>
<polygon fill="#63b8ff" stroke="#63b8ff" points="405.27,-302.59 394.77,-301.17 402.1,-308.82 405.27,-302.59"/>
</a>
</g>
</g>
<!-- Node18 -->
<g id="Node000018" class="node">
<title>Node18</title>
<g id="a_Node000018"><a xlink:href="_datum_8h.html" target="_top" xlink:title=" ">
<polygon fill="white" stroke="#666666" points="760.32,-188 669.32,-188 669.32,-168 760.32,-168 760.32,-188"/>
<text xml:space="preserve" text-anchor="middle" x="714.82" y="-174.5" font-family="Helvetica,sans-Serif" font-size="10.00">Content/Datum.h</text>
</a>
</g>
</g>
<!-- Node12&#45;&gt;Node18 -->
<g id="edge43_Node000012_Node000018" class="edge">
<title>Node12&#45;&gt;Node18</title>
<g id="a_edge43_Node000012_Node000018"><a xlink:title=" ">
<path fill="none" stroke="#63b8ff" d="M497.83,-335.51C513.25,-326.74 536.46,-313.12 555.82,-300 607.64,-264.89 665.42,-219.15 695,-195.21"/>
<polygon fill="#63b8ff" stroke="#63b8ff" points="696.84,-198.23 702.39,-189.21 692.42,-192.8 696.84,-198.23"/>
</a>
</g>
</g>
<!-- Node22 -->
<g id="Node000022" class="node">
<title>Node22</title>
<g id="a_Node000022"><a xlink:href="_scope_8h.html" target="_top" xlink:title=" ">
<polygon fill="white" stroke="#666666" points="472.57,-244 383.07,-244 383.07,-224 472.57,-224 472.57,-244"/>
<text xml:space="preserve" text-anchor="middle" x="427.82" y="-230.5" font-family="Helvetica,sans-Serif" font-size="10.00">Content/Scope.h</text>
</a>
</g>
</g>
<!-- Node12&#45;&gt;Node22 -->
<g id="edge44_Node000012_Node000022" class="edge">
<title>Node12&#45;&gt;Node22</title>
<g id="a_edge44_Node000012_Node000022"><a xlink:title=" ">
<path fill="none" stroke="#63b8ff" d="M476.3,-335.62C467.69,-317.76 448.79,-278.53 437.3,-254.67"/>
<polygon fill="#63b8ff" stroke="#63b8ff" points="440.48,-253.21 432.98,-245.72 434.17,-256.25 440.48,-253.21"/>
</a>
</g>
</g>
<!-- Node27 -->
<g id="Node000027" class="node">
<title>Node27</title>
<g id="a_Node000027"><a xlink:title=" ">
<polygon fill="#e0e0e0" stroke="#999999" points="546.44,-300 483.19,-300 483.19,-280 546.44,-280 546.44,-300"/>
<text xml:space="preserve" text-anchor="middle" x="514.82" y="-286.5" font-family="Helvetica,sans-Serif" font-size="10.00">json/json.h</text>
</a>
</g>
</g>
<!-- Node12&#45;&gt;Node27 -->
<g id="edge46_Node000012_Node000027" class="edge">
<title>Node12&#45;&gt;Node27</title>
<g id="a_edge46_Node000012_Node000027"><a xlink:title=" ">
<path fill="none" stroke="#63b8ff" d="M486.74,-335.59C491.18,-328.55 497.4,-318.67 502.85,-310"/>
<polygon fill="#63b8ff" stroke="#63b8ff" points="505.79,-311.91 508.16,-301.58 499.87,-308.18 505.79,-311.91"/>
</a>
</g>
</g>
<!-- Node13&#45;&gt;Node3 -->
<g id="edge14_Node000013_Node000003" class="edge">
<title>Node13&#45;&gt;Node3</title>
<g id="a_edge14_Node000013_Node000003"><a xlink:title=" ">
<path fill="none" stroke="#63b8ff" d="M342.01,-111.53C391.8,-102.33 467.48,-88.33 520.69,-78.49"/>
<polygon fill="#63b8ff" stroke="#63b8ff" points="520.99,-81.99 530.19,-76.73 519.72,-75.11 520.99,-81.99"/>
</a>
</g>
</g>
<!-- Node13&#45;&gt;Node14 -->
<g id="edge15_Node000013_Node000014" class="edge">
<title>Node13&#45;&gt;Node14</title>
<g id="a_edge15_Node000013_Node000014"><a xlink:title=" ">
<path fill="none" stroke="#63b8ff" d="M284.55,-111.59C279.8,-104.47 273.12,-94.45 267.29,-85.72"/>
<polygon fill="#63b8ff" stroke="#63b8ff" points="270.32,-83.94 261.86,-77.56 264.49,-87.82 270.32,-83.94"/>
</a>
</g>
</g>
<!-- Node15&#45;&gt;Node3 -->
<g id="edge17_Node000015_Node000003" class="edge">
<title>Node15&#45;&gt;Node3</title>
<g id="a_edge17_Node000015_Node000003"><a xlink:title=" ">
<path fill="none" stroke="#63b8ff" d="M157.13,-113.91C247.32,-103.97 411.09,-85.93 507.07,-75.35"/>
<polygon fill="#63b8ff" stroke="#63b8ff" points="507.37,-78.84 516.92,-74.26 506.6,-71.88 507.37,-78.84"/>
</a>
</g>
</g>
<!-- Node16 -->
<g id="Node000016" class="node">
<title>Node16</title>
<g id="a_Node000016"><a xlink:href="_r_t_t_i_8inl.html" target="_top" xlink:title=" ">
<polygon fill="white" stroke="#666666" points="158.94,-76 26.69,-76 26.69,-56 158.94,-56 158.94,-76"/>
<text xml:space="preserve" text-anchor="middle" x="92.82" y="-62.5" font-family="Helvetica,sans-Serif" font-size="10.00">FIEAGameEngine/RTTI.inl</text>
</a>
</g>
</g>
<!-- Node15&#45;&gt;Node16 -->
<g id="edge18_Node000015_Node000016" class="edge">
<title>Node15&#45;&gt;Node16</title>
<g id="a_edge18_Node000015_Node000016"><a xlink:title=" ">
<path fill="none" stroke="#63b8ff" d="M87.55,-111.59C86.23,-105.01 85.79,-95.96 86.23,-87.73"/>
<polygon fill="#63b8ff" stroke="#63b8ff" points="89.71,-88.14 87.4,-77.8 82.76,-87.33 89.71,-88.14"/>
</a>
</g>
</g>
<!-- Node16&#45;&gt;Node15 -->
<g id="edge19_Node000016_Node000015" class="edge">
<title>Node16&#45;&gt;Node15</title>
<g id="a_edge19_Node000016_Node000015"><a xlink:title=" ">
<path fill="none" stroke="#63b8ff" d="M98.06,-76.3C99.41,-82.93 99.85,-92.11 99.39,-100.43"/>
<polygon fill="#63b8ff" stroke="#63b8ff" points="95.95,-99.75 98.26,-110.09 102.9,-100.57 95.95,-99.75"/>
</a>
</g>
</g>
<!-- Node17&#45;&gt;Node3 -->
<g id="edge21_Node000017_Node000003" class="edge">
<title>Node17&#45;&gt;Node3</title>
<g id="a_edge21_Node000017_Node000003"><a xlink:title=" ">
<path fill="none" stroke="#63b8ff" d="M404.24,-279.58C426.48,-271.78 457.27,-259.47 481.82,-244 513.51,-224.03 522.91,-218.39 544.82,-188 566.96,-157.29 576.5,-113.24 580.38,-87.63"/>
<polygon fill="#63b8ff" stroke="#63b8ff" points="583.82,-88.26 581.69,-77.88 576.89,-87.33 583.82,-88.26"/>
</a>
</g>
</g>
<!-- Node17&#45;&gt;Node15 -->
<g id="edge40_Node000017_Node000015" class="edge">
<title>Node17&#45;&gt;Node15</title>
<g id="a_edge40_Node000017_Node000015"><a xlink:title=" ">
<path fill="none" stroke="#63b8ff" d="M349.39,-279.56C327.94,-271.22 296.68,-258.22 270.82,-244 211.17,-211.21 146.29,-163.82 113.82,-139.21"/>
<polygon fill="#63b8ff" stroke="#63b8ff" points="116.1,-136.55 106.03,-133.26 111.85,-142.11 116.1,-136.55"/>
</a>
</g>
</g>
<!-- Node17&#45;&gt;Node18 -->
<g id="edge22_Node000017_Node000018" class="edge">
<title>Node17&#45;&gt;Node18</title>
<g id="a_edge22_Node000017_Node000018"><a xlink:title=" ">
<path fill="none" stroke="#63b8ff" d="M422.27,-279.51C459.77,-271.51 513.2,-258.98 558.82,-244 603.7,-229.26 653.84,-207.35 684.86,-193.12"/>
<polygon fill="#63b8ff" stroke="#63b8ff" points="686.02,-196.44 693.63,-189.06 683.08,-190.08 686.02,-196.44"/>
</a>
</g>
</g>
<!-- Node17&#45;&gt;Node22 -->
<g id="edge28_Node000017_Node000022" class="edge">
<title>Node17&#45;&gt;Node22</title>
<g id="a_edge28_Node000017_Node000022"><a xlink:title=" ">
<path fill="none" stroke="#63b8ff" d="M384.05,-279.59C391.42,-272.08 401.95,-261.35 410.84,-252.3"/>
<polygon fill="#63b8ff" stroke="#63b8ff" points="413.12,-254.97 417.63,-245.38 408.13,-250.06 413.12,-254.97"/>
</a>
</g>
</g>
<!-- Node25 -->
<g id="Node000025" class="node">
<title>Node25</title>
<g id="a_Node000025"><a xlink:title=" ">
<polygon fill="#e0e0e0" stroke="#999999" points="247.32,-188 204.32,-188 204.32,-168 247.32,-168 247.32,-188"/>
<text xml:space="preserve" text-anchor="middle" x="225.82" y="-174.5" font-family="Helvetica,sans-Serif" font-size="10.00">vector</text>
</a>
</g>
</g>
<!-- Node17&#45;&gt;Node25 -->
<g id="edge41_Node000017_Node000025" class="edge">
<title>Node17&#45;&gt;Node25</title>
<g id="a_edge41_Node000017_Node000025"><a xlink:title=" ">
<path fill="none" stroke="#63b8ff" d="M356.42,-279.63C340.4,-271.15 316.81,-257.9 297.82,-244 277.78,-229.34 256.95,-210.01 242.88,-196.25"/>
<polygon fill="#63b8ff" stroke="#63b8ff" points="245.7,-194.12 236.13,-189.56 240.77,-199.09 245.7,-194.12"/>
</a>
</g>
</g>
<!-- Node26 -->
<g id="Node000026" class="node">
<title>Node26</title>
<g id="a_Node000026"><a xlink:title=" ">
<polygon fill="#e0e0e0" stroke="#999999" points="364.82,-244 306.82,-244 306.82,-224 364.82,-224 364.82,-244"/>
<text xml:space="preserve" text-anchor="middle" x="335.82" y="-230.5" font-family="Helvetica,sans-Serif" font-size="10.00">functional</text>
</a>
</g>
</g>
<!-- Node17&#45;&gt;Node26 -->
<g id="edge42_Node000017_Node000026" class="edge">
<title>Node17&#45;&gt;Node26</title>
<g id="a_edge42_Node000017_Node000026"><a xlink:title=" ">
<path fill="none" stroke="#63b8ff" d="M368.02,-279.59C362.82,-272.39 355.49,-262.23 349.13,-253.43"/>
<polygon fill="#63b8ff" stroke="#63b8ff" points="352.11,-251.58 343.42,-245.53 346.44,-255.68 352.11,-251.58"/>
</a>
</g>
</g>
<!-- Node18&#45;&gt;Node3 -->
<g id="edge23_Node000018_Node000003" class="edge">
<title>Node18&#45;&gt;Node3</title>
<g id="a_edge23_Node000018_Node000003"><a xlink:title=" ">
<path fill="none" stroke="#63b8ff" d="M703.56,-167.62C681.16,-148.95 630.72,-106.92 602.64,-83.52"/>
<polygon fill="#63b8ff" stroke="#63b8ff" points="605.13,-81.04 595.21,-77.32 600.65,-86.41 605.13,-81.04"/>
</a>
</g>
</g>
<!-- Node19 -->
<g id="Node000019" class="node">
<title>Node19</title>
<g id="a_Node000019"><a xlink:title=" ">
<polygon fill="#e0e0e0" stroke="#999999" points="869.44,-132 800.19,-132 800.19,-112 869.44,-112 869.44,-132"/>
<text xml:space="preserve" text-anchor="middle" x="834.82" y="-118.5" font-family="Helvetica,sans-Serif" font-size="10.00">glm/glm.hpp</text>
</a>
</g>
</g>
<!-- Node18&#45;&gt;Node19 -->
<g id="edge24_Node000018_Node000019" class="edge">
<title>Node18&#45;&gt;Node19</title>
<g id="a_edge24_Node000018_Node000019"><a xlink:title=" ">
<path fill="none" stroke="#63b8ff" d="M735.72,-167.59C754.45,-159.17 782.17,-146.69 803.54,-137.07"/>
<polygon fill="#63b8ff" stroke="#63b8ff" points="804.69,-140.4 812.37,-133.1 801.82,-134.01 804.69,-140.4"/>
</a>
</g>
</g>
<!-- Node20 -->
<g id="Node000020" class="node">
<title>Node20</title>
<g id="a_Node000020"><a xlink:title=" ">
<polygon fill="#e0e0e0" stroke="#999999" points="1005.82,-132 887.82,-132 887.82,-112 1005.82,-112 1005.82,-132"/>
<text xml:space="preserve" text-anchor="middle" x="946.82" y="-118.5" font-family="Helvetica,sans-Serif" font-size="10.00">glm/gtx/string_cast.hpp</text>
</a>
</g>
</g>
<!-- Node18&#45;&gt;Node20 -->
<g id="edge25_Node000018_Node000020" class="edge">
<title>Node18&#45;&gt;Node20</title>
<g id="a_edge25_Node000018_Node000020"><a xlink:title=" ">
<path fill="none" stroke="#63b8ff" d="M755.49,-167.53C794.3,-158.5 852.92,-144.85 895.05,-135.05"/>
<polygon fill="#63b8ff" stroke="#63b8ff" points="895.77,-138.48 904.71,-132.8 894.18,-131.66 895.77,-138.48"/>
</a>
</g>
</g>
<!-- Node21 -->
<g id="Node000021" class="node">
<title>Node21</title>
<g id="a_Node000021"><a xlink:href="_datum_8inl.html" target="_top" xlink:title=" ">
<polygon fill="white" stroke="#666666" points="782.57,-132 687.07,-132 687.07,-112 782.57,-112 782.57,-132"/>
<text xml:space="preserve" text-anchor="middle" x="734.82" y="-118.5" font-family="Helvetica,sans-Serif" font-size="10.00">Content/Datum.inl</text>
</a>
</g>
</g>
<!-- Node18&#45;&gt;Node21 -->
<g id="edge26_Node000018_Node000021" class="edge">
<title>Node18&#45;&gt;Node21</title>
<g id="a_edge26_Node000018_Node000021"><a xlink:title=" ">
<path fill="none" stroke="#63b8ff" d="M713.03,-167.59C714.21,-160.7 717.35,-151.1 721.05,-142.57"/>
<polygon fill="#63b8ff" stroke="#63b8ff" points="724.17,-144.17 725.46,-133.66 717.89,-141.07 724.17,-144.17"/>
</a>
</g>
</g>
<!-- Node21&#45;&gt;Node18 -->
<g id="edge27_Node000021_Node000018" class="edge">
<title>Node21&#45;&gt;Node18</title>
<g id="a_edge27_Node000021_Node000018"><a xlink:title=" ">
<path fill="none" stroke="#63b8ff" d="M736.62,-132.3C735.47,-139.16 732.34,-148.75 728.64,-157.29"/>
<polygon fill="#63b8ff" stroke="#63b8ff" points="725.52,-155.72 724.24,-166.24 731.8,-158.81 725.52,-155.72"/>
</a>
</g>
</g>
<!-- Node22&#45;&gt;Node3 -->
<g id="edge29_Node000022_Node000003" class="edge">
<title>Node22&#45;&gt;Node3</title>
<g id="a_edge29_Node000022_Node000003"><a xlink:title=" ">
<path fill="none" stroke="#63b8ff" d="M460.54,-223.6C480.54,-216.49 505.5,-205.01 522.82,-188 551.99,-159.35 569.26,-113.59 577.31,-87.32"/>
<polygon fill="#63b8ff" stroke="#63b8ff" points="580.61,-88.48 580.03,-77.9 573.89,-86.54 580.61,-88.48"/>
</a>
</g>
</g>
<!-- Node22&#45;&gt;Node14 -->
<g id="edge39_Node000022_Node000014" class="edge">
<title>Node22&#45;&gt;Node14</title>
<g id="a_edge39_Node000022_Node000014"><a xlink:title=" ">
<path fill="none" stroke="#63b8ff" d="M407.77,-223.59C388.52,-214.53 358.64,-200.41 332.82,-188 314.54,-179.22 310.32,-176.29 291.82,-168 253.25,-150.73 227.37,-167.08 203.82,-132 191.97,-114.35 210.92,-95.36 228.99,-82.49"/>
<polygon fill="#63b8ff" stroke="#63b8ff" points="230.55,-85.66 236.93,-77.2 226.67,-79.83 230.55,-85.66"/>
</a>
</g>
</g>
<!-- Node22&#45;&gt;Node15 -->
<g id="edge30_Node000022_Node000015" class="edge">
<title>Node22&#45;&gt;Node15</title>
<g id="a_edge30_Node000022_Node000015"><a xlink:title=" ">
<path fill="none" stroke="#63b8ff" d="M398.57,-223.54C372.45,-214.89 333.26,-201.45 299.82,-188 279.89,-179.99 276.01,-175.33 255.82,-168 219.4,-154.79 177.23,-143.24 144.9,-135.15"/>
<polygon fill="#63b8ff" stroke="#63b8ff" points="145.92,-131.8 135.37,-132.8 144.24,-138.6 145.92,-131.8"/>
</a>
</g>
</g>
<!-- Node22&#45;&gt;Node18 -->
<g id="edge31_Node000022_Node000018" class="edge">
<title>Node22&#45;&gt;Node18</title>
<g id="a_edge31_Node000022_Node000018"><a xlink:title=" ">
<path fill="none" stroke="#63b8ff" d="M472.98,-224.5C522.94,-215.1 603.54,-199.94 657.81,-189.73"/>
<polygon fill="#63b8ff" stroke="#63b8ff" points="658.31,-193.19 667.49,-187.91 657.01,-186.32 658.31,-193.19"/>
</a>
</g>
</g>
<!-- Node23 -->
<g id="Node000023" class="node">
<title>Node23</title>
<g id="a_Node000023"><a xlink:href="_factory_service_8h.html" target="_top" xlink:title=" ">
<polygon fill="white" stroke="#666666" points="513.82,-188 341.82,-188 341.82,-168 513.82,-168 513.82,-188"/>
<text xml:space="preserve" text-anchor="middle" x="427.82" y="-174.5" font-family="Helvetica,sans-Serif" font-size="10.00">FIEAGameEngine/FactoryService.h</text>
</a>
</g>
</g>
<!-- Node22&#45;&gt;Node23 -->
<g id="edge32_Node000022_Node000023" class="edge">
<title>Node22&#45;&gt;Node23</title>
<g id="a_edge32_Node000022_Node000023"><a xlink:title=" ">
<path fill="none" stroke="#63b8ff" d="M427.82,-223.59C427.82,-217.01 427.82,-207.96 427.82,-199.73"/>
<polygon fill="#63b8ff" stroke="#63b8ff" points="431.32,-199.81 427.82,-189.81 424.32,-199.81 431.32,-199.81"/>
</a>
</g>
</g>
<!-- Node22&#45;&gt;Node25 -->
<g id="edge38_Node000022_Node000025" class="edge">
<title>Node22&#45;&gt;Node25</title>
<g id="a_edge38_Node000022_Node000025"><a xlink:title=" ">
<path fill="none" stroke="#63b8ff" d="M392.63,-223.59C354.89,-213.51 295.44,-197.61 258.64,-187.77"/>
<polygon fill="#63b8ff" stroke="#63b8ff" points="259.57,-184.4 249.01,-185.2 257.76,-191.16 259.57,-184.4"/>
</a>
</g>
</g>
<!-- Node23&#45;&gt;Node3 -->
<g id="edge33_Node000023_Node000003" class="edge">
<title>Node23&#45;&gt;Node3</title>
<g id="a_edge33_Node000023_Node000003"><a xlink:title=" ">
<path fill="none" stroke="#63b8ff" d="M441.03,-167.62C467.57,-148.79 527.6,-106.18 560.4,-82.91"/>
<polygon fill="#63b8ff" stroke="#63b8ff" points="562.27,-85.87 568.4,-77.23 558.22,-80.16 562.27,-85.87"/>
</a>
</g>
</g>
<!-- Node23&#45;&gt;Node13 -->
<g id="edge35_Node000023_Node000013" class="edge">
<title>Node23&#45;&gt;Node13</title>
<g id="a_edge35_Node000023_Node000013"><a xlink:title=" ">
<path fill="none" stroke="#63b8ff" d="M403.95,-167.59C382.28,-159.05 350.05,-146.35 325.53,-136.68"/>
<polygon fill="#63b8ff" stroke="#63b8ff" points="326.86,-133.45 316.28,-133.03 324.3,-139.96 326.86,-133.45"/>
</a>
</g>
</g>
<!-- Node23&#45;&gt;Node14 -->
<g id="edge37_Node000023_Node000014" class="edge">
<title>Node23&#45;&gt;Node14</title>
<g id="a_edge37_Node000023_Node000014"><a xlink:title=" ">
<path fill="none" stroke="#63b8ff" d="M422.94,-167.69C415.17,-153.71 398.71,-127.33 377.82,-112 357.1,-96.8 330.7,-86.25 307.68,-79.21"/>
<polygon fill="#63b8ff" stroke="#63b8ff" points="308.72,-75.87 298.14,-76.45 306.78,-82.59 308.72,-75.87"/>
</a>
</g>
</g>
<!-- Node23&#45;&gt;Node15 -->
<g id="edge34_Node000023_Node000015" class="edge">
<title>Node23&#45;&gt;Node15</title>
<g id="a_edge34_Node000023_Node000015"><a xlink:title=" ">
<path fill="none" stroke="#63b8ff" d="M369.08,-167.53C311.49,-158.25 223.68,-144.09 162.57,-134.24"/>
<polygon fill="#63b8ff" stroke="#63b8ff" points="163.41,-130.83 152.98,-132.7 162.3,-137.74 163.41,-130.83"/>
</a>
</g>
</g>
<!-- Node24 -->
<g id="Node000024" class="node">
<title>Node24</title>
<g id="a_Node000024"><a xlink:title=" ">
<polygon fill="#e0e0e0" stroke="#999999" points="478.57,-132 425.07,-132 425.07,-112 478.57,-112 478.57,-132"/>
<text xml:space="preserve" text-anchor="middle" x="451.82" y="-118.5" font-family="Helvetica,sans-Serif" font-size="10.00">iostream</text>
</a>
</g>
</g>
<!-- Node23&#45;&gt;Node24 -->
<g id="edge36_Node000023_Node000024" class="edge">
<title>Node23&#45;&gt;Node24</title>
<g id="a_edge36_Node000023_Node000024"><a xlink:title=" ">
<path fill="none" stroke="#63b8ff" d="M432,-167.59C435.06,-160.7 439.33,-151.1 443.12,-142.57"/>
<polygon fill="#63b8ff" stroke="#63b8ff" points="446.21,-144.24 447.07,-133.68 439.81,-141.4 446.21,-144.24"/>
</a>
</g>
</g>
<!-- Node28&#45;&gt;Node3 -->
<g id="edge48_Node000028_Node000003" class="edge">
<title>Node28&#45;&gt;Node3</title>
<g id="a_edge48_Node000028_Node000003"><a xlink:title=" ">
<path fill="none" stroke="#63b8ff" d="M938.85,-393.96C989.59,-382.31 1071.82,-353.74 1071.82,-291 1071.82,-291 1071.82,-291 1071.82,-177 1071.82,-144.19 1064.12,-130.2 1036.82,-112 976.68,-71.92 771.59,-66.12 658.76,-66.09"/>
<polygon fill="#63b8ff" stroke="#63b8ff" points="658.98,-62.59 648.98,-66.1 658.99,-69.59 658.98,-62.59"/>
</a>
</g>
</g>
<!-- Node28&#45;&gt;Node12 -->
<g id="edge49_Node000028_Node000012" class="edge">
<title>Node28&#45;&gt;Node12</title>
<g id="a_edge49_Node000028_Node000012"><a xlink:title=" ">
<path fill="none" stroke="#63b8ff" d="M860.78,-395.97C793.85,-387.34 655.76,-369.55 565.79,-357.95"/>
<polygon fill="#63b8ff" stroke="#63b8ff" points="566.38,-354.5 556.01,-356.69 565.49,-361.44 566.38,-354.5"/>
</a>
</g>
</g>
<!-- Node29 -->
<g id="Node000029" class="node">
<title>Node29</title>
<g id="a_Node000029"><a xlink:title=" ">
<polygon fill="#e0e0e0" stroke="#999999" points="1139.82,-356 1099.82,-356 1099.82,-336 1139.82,-336 1139.82,-356"/>
<text xml:space="preserve" text-anchor="middle" x="1119.82" y="-342.5" font-family="Helvetica,sans-Serif" font-size="10.00">stack</text>
</a>
</g>
</g>
<!-- Node28&#45;&gt;Node29 -->
<g id="edge50_Node000028_Node000029" class="edge">
<title>Node28&#45;&gt;Node29</title>
<g id="a_edge50_Node000028_Node000029"><a xlink:title=" ">
<path fill="none" stroke="#63b8ff" d="M939.07,-391.76C976.75,-382.83 1035.25,-368.81 1085.82,-356 1086.64,-355.79 1087.47,-355.58 1088.31,-355.37"/>
<polygon fill="#63b8ff" stroke="#63b8ff" points="1089.08,-358.78 1097.87,-352.88 1087.32,-352.01 1089.08,-358.78"/>
</a>
</g>
</g>
</g>
</svg>
