<?xml version="1.0" encoding="UTF-8" standalone="no"?>
<!DOCTYPE svg PUBLIC "-//W3C//DTD SVG 1.1//EN"
 "http://www.w3.org/Graphics/SVG/1.1/DTD/svg11.dtd">
<!-- Generated by graphviz version 13.1.0 (20250701.0955)
 -->
<!-- Title: Tests/Support/ActionOutput.h Pages: 1 -->
<svg width="1093pt" height="420pt"
 viewBox="0.00 0.00 1093.00 420.00" xmlns="http://www.w3.org/2000/svg" xmlns:xlink="http://www.w3.org/1999/xlink">
<g id="graph0" class="graph" transform="scale(1 1) rotate(0) translate(4 416)">
<title>Tests/Support/ActionOutput.h</title>
<!-- Node1 -->
<g id="Node000001" class="node">
<title>Node1</title>
<g id="a_Node000001"><a xlink:title=" ">
<polygon fill="#999999" stroke="#666666" points="607.5,-412 462.5,-412 462.5,-392 607.5,-392 607.5,-412"/>
<text xml:space="preserve" text-anchor="middle" x="535" y="-398.5" font-family="Helvetica,sans-Serif" font-size="10.00">Tests/Support/ActionOutput.h</text>
</a>
</g>
</g>
<!-- Node2 -->
<g id="Node000002" class="node">
<title>Node2</title>
<g id="a_Node000002"><a xlink:href="_types_8h.html" target="_top" xlink:title=" ">
<polygon fill="white" stroke="#666666" points="444.25,-76 315.75,-76 315.75,-56 444.25,-56 444.25,-76"/>
<text xml:space="preserve" text-anchor="middle" x="380" y="-62.5" font-family="Helvetica,sans-Serif" font-size="10.00">FieaGameEngine/Types.h</text>
</a>
</g>
</g>
<!-- Node1&#45;&gt;Node2 -->
<g id="edge1_Node000001_Node000002" class="edge">
<title>Node1&#45;&gt;Node2</title>
<g id="a_edge1_Node000001_Node000002"><a xlink:title=" ">
<path fill="none" stroke="#63b8ff" d="M462.08,-398.43C333.06,-391.87 78,-369.04 78,-291 78,-291 78,-291 78,-177 78,-141.09 95.48,-130.92 126,-112 155.17,-93.91 240.49,-81.35 304.24,-74.18"/>
<polygon fill="#63b8ff" stroke="#63b8ff" points="304.41,-77.69 313.97,-73.12 303.65,-70.73 304.41,-77.69"/>
</a>
</g>
</g>
<!-- Node11 -->
<g id="Node000011" class="node">
<title>Node11</title>
<g id="a_Node000011"><a xlink:href="_action_8h.html" target="_top" xlink:title=" ">
<polygon fill="white" stroke="#666666" points="326.88,-356 193.12,-356 193.12,-336 326.88,-336 326.88,-356"/>
<text xml:space="preserve" text-anchor="middle" x="260" y="-342.5" font-family="Helvetica,sans-Serif" font-size="10.00">FIEAGameEngine/Action.h</text>
</a>
</g>
</g>
<!-- Node1&#45;&gt;Node11 -->
<g id="edge10_Node000001_Node000011" class="edge">
<title>Node1&#45;&gt;Node11</title>
<g id="a_edge10_Node000001_Node000011"><a xlink:title=" ">
<path fill="none" stroke="#63b8ff" d="M486.78,-391.53C440.1,-382.36 369.22,-368.45 319.15,-358.61"/>
<polygon fill="#63b8ff" stroke="#63b8ff" points="320.13,-355.24 309.65,-356.75 318.78,-362.11 320.13,-355.24"/>
</a>
</g>
</g>
<!-- Node20 -->
<g id="Node000020" class="node">
<title>Node20</title>
<g id="a_Node000020"><a xlink:href="_factory_service_8h.html" target="_top" xlink:title=" ">
<polygon fill="white" stroke="#666666" points="797,-188 625,-188 625,-168 797,-168 797,-188"/>
<text xml:space="preserve" text-anchor="middle" x="711" y="-174.5" font-family="Helvetica,sans-Serif" font-size="10.00">FIEAGameEngine/FactoryService.h</text>
</a>
</g>
</g>
<!-- Node1&#45;&gt;Node20 -->
<g id="edge42_Node000001_Node000020" class="edge">
<title>Node1&#45;&gt;Node20</title>
<g id="a_edge42_Node000001_Node000020"><a xlink:title=" ">
<path fill="none" stroke="#63b8ff" d="M563.61,-391.57C615.07,-372.86 721.87,-325.65 765,-244 774.98,-225.11 756.13,-206.68 738.03,-194.3"/>
<polygon fill="#63b8ff" stroke="#63b8ff" points="740.37,-191.64 730.06,-189.22 736.61,-197.54 740.37,-191.64"/>
</a>
</g>
</g>
<!-- Node26 -->
<g id="Node000026" class="node">
<title>Node26</title>
<g id="a_Node000026"><a xlink:title=" ">
<polygon fill="#e0e0e0" stroke="#999999" points="1035.62,-356 990.38,-356 990.38,-336 1035.62,-336 1035.62,-356"/>
<text xml:space="preserve" text-anchor="middle" x="1013" y="-342.5" font-family="Helvetica,sans-Serif" font-size="10.00">chrono</text>
</a>
</g>
</g>
<!-- Node1&#45;&gt;Node26 -->
<g id="edge43_Node000001_Node000026" class="edge">
<title>Node1&#45;&gt;Node26</title>
<g id="a_edge43_Node000001_Node000026"><a xlink:title=" ">
<path fill="none" stroke="#63b8ff" d="M607.99,-396.62C695.79,-390.65 847.44,-378.09 976,-356 977,-355.83 978.01,-355.65 979.03,-355.45"/>
<polygon fill="#63b8ff" stroke="#63b8ff" points="979.48,-358.93 988.53,-353.42 978.02,-352.09 979.48,-358.93"/>
</a>
</g>
</g>
<!-- Node3 -->
<g id="Node000003" class="node">
<title>Node3</title>
<g id="a_Node000003"><a xlink:title=" ">
<polygon fill="#e0e0e0" stroke="#999999" points="160,-20 0,-20 0,0 160,0 160,-20"/>
<text xml:space="preserve" text-anchor="middle" x="80" y="-6.5" font-family="Helvetica,sans-Serif" font-size="10.00">../src/Memory/SystemAllocator.h</text>
</a>
</g>
</g>
<!-- Node2&#45;&gt;Node3 -->
<g id="edge2_Node000002_Node000003" class="edge">
<title>Node2&#45;&gt;Node3</title>
<g id="a_edge2_Node000002_Node000003"><a xlink:title=" ">
<path fill="none" stroke="#63b8ff" d="M327.4,-55.53C276.26,-46.33 198.5,-32.33 143.83,-22.49"/>
<polygon fill="#63b8ff" stroke="#63b8ff" points="144.49,-19.05 134.03,-20.73 143.25,-25.94 144.49,-19.05"/>
</a>
</g>
</g>
<!-- Node4 -->
<g id="Node000004" class="node">
<title>Node4</title>
<g id="a_Node000004"><a xlink:title=" ">
<polygon fill="#e0e0e0" stroke="#999999" points="240.25,-20 177.75,-20 177.75,0 240.25,0 240.25,-20"/>
<text xml:space="preserve" text-anchor="middle" x="209" y="-6.5" font-family="Helvetica,sans-Serif" font-size="10.00">windows.h</text>
</a>
</g>
</g>
<!-- Node2&#45;&gt;Node4 -->
<g id="edge3_Node000002_Node000004" class="edge">
<title>Node2&#45;&gt;Node4</title>
<g id="a_edge3_Node000002_Node000004"><a xlink:title=" ">
<path fill="none" stroke="#63b8ff" d="M350.21,-55.59C322.43,-46.82 280.75,-33.66 249.86,-23.9"/>
<polygon fill="#63b8ff" stroke="#63b8ff" points="251.05,-20.61 240.46,-20.94 248.94,-27.28 251.05,-20.61"/>
</a>
</g>
</g>
<!-- Node5 -->
<g id="Node000005" class="node">
<title>Node5</title>
<g id="a_Node000005"><a xlink:title=" ">
<polygon fill="#e0e0e0" stroke="#999999" points="306.12,-20 257.88,-20 257.88,0 306.12,0 306.12,-20"/>
<text xml:space="preserve" text-anchor="middle" x="282" y="-6.5" font-family="Helvetica,sans-Serif" font-size="10.00">cassert</text>
</a>
</g>
</g>
<!-- Node2&#45;&gt;Node5 -->
<g id="edge4_Node000002_Node000005" class="edge">
<title>Node2&#45;&gt;Node5</title>
<g id="a_edge4_Node000002_Node000005"><a xlink:title=" ">
<path fill="none" stroke="#63b8ff" d="M362.93,-55.59C348.12,-47.44 326.43,-35.48 309.23,-26"/>
<polygon fill="#63b8ff" stroke="#63b8ff" points="310.98,-22.97 300.53,-21.21 307.6,-29.1 310.98,-22.97"/>
</a>
</g>
</g>
<!-- Node6 -->
<g id="Node000006" class="node">
<title>Node6</title>
<g id="a_Node000006"><a xlink:title=" ">
<polygon fill="#e0e0e0" stroke="#999999" points="372.12,-20 323.88,-20 323.88,0 372.12,0 372.12,-20"/>
<text xml:space="preserve" text-anchor="middle" x="348" y="-6.5" font-family="Helvetica,sans-Serif" font-size="10.00">cstddef</text>
</a>
</g>
</g>
<!-- Node2&#45;&gt;Node6 -->
<g id="edge5_Node000002_Node000006" class="edge">
<title>Node2&#45;&gt;Node6</title>
<g id="a_edge5_Node000002_Node000006"><a xlink:title=" ">
<path fill="none" stroke="#63b8ff" d="M374.43,-55.59C370.25,-48.55 364.4,-38.67 359.26,-30"/>
<polygon fill="#63b8ff" stroke="#63b8ff" points="362.39,-28.42 354.28,-21.6 356.37,-31.99 362.39,-28.42"/>
</a>
</g>
</g>
<!-- Node7 -->
<g id="Node000007" class="node">
<title>Node7</title>
<g id="a_Node000007"><a xlink:title=" ">
<polygon fill="#e0e0e0" stroke="#999999" points="435.62,-20 390.38,-20 390.38,0 435.62,0 435.62,-20"/>
<text xml:space="preserve" text-anchor="middle" x="413" y="-6.5" font-family="Helvetica,sans-Serif" font-size="10.00">cstdint</text>
</a>
</g>
</g>
<!-- Node2&#45;&gt;Node7 -->
<g id="edge6_Node000002_Node000007" class="edge">
<title>Node2&#45;&gt;Node7</title>
<g id="a_edge6_Node000002_Node000007"><a xlink:title=" ">
<path fill="none" stroke="#63b8ff" d="M385.75,-55.59C390.05,-48.55 396.09,-38.67 401.39,-30"/>
<polygon fill="#63b8ff" stroke="#63b8ff" points="404.3,-31.95 406.53,-21.59 398.33,-28.3 404.3,-31.95"/>
</a>
</g>
</g>
<!-- Node8 -->
<g id="Node000008" class="node">
<title>Node8</title>
<g id="a_Node000008"><a xlink:title=" ">
<polygon fill="#e0e0e0" stroke="#999999" points="506.38,-20 453.62,-20 453.62,0 506.38,0 506.38,-20"/>
<text xml:space="preserve" text-anchor="middle" x="480" y="-6.5" font-family="Helvetica,sans-Serif" font-size="10.00">cstdbool</text>
</a>
</g>
</g>
<!-- Node2&#45;&gt;Node8 -->
<g id="edge7_Node000002_Node000008" class="edge">
<title>Node2&#45;&gt;Node8</title>
<g id="a_edge7_Node000002_Node000008"><a xlink:title=" ">
<path fill="none" stroke="#63b8ff" d="M397.42,-55.59C412.67,-47.36 435.08,-35.26 452.71,-25.74"/>
<polygon fill="#63b8ff" stroke="#63b8ff" points="453.98,-29.03 461.11,-21.2 450.65,-22.87 453.98,-29.03"/>
</a>
</g>
</g>
<!-- Node9 -->
<g id="Node000009" class="node">
<title>Node9</title>
<g id="a_Node000009"><a xlink:title=" ">
<polygon fill="#e0e0e0" stroke="#999999" points="564,-20 524,-20 524,0 564,0 564,-20"/>
<text xml:space="preserve" text-anchor="middle" x="544" y="-6.5" font-family="Helvetica,sans-Serif" font-size="10.00">string</text>
</a>
</g>
</g>
<!-- Node2&#45;&gt;Node9 -->
<g id="edge8_Node000002_Node000009" class="edge">
<title>Node2&#45;&gt;Node9</title>
<g id="a_edge8_Node000002_Node000009"><a xlink:title=" ">
<path fill="none" stroke="#63b8ff" d="M408.57,-55.59C437.7,-46 482.77,-31.16 512.81,-21.27"/>
<polygon fill="#63b8ff" stroke="#63b8ff" points="513.69,-24.67 522.09,-18.21 511.5,-18.02 513.69,-24.67"/>
</a>
</g>
</g>
<!-- Node10 -->
<g id="Node000010" class="node">
<title>Node10</title>
<g id="a_Node000010"><a xlink:title=" ">
<polygon fill="#e0e0e0" stroke="#999999" points="636.12,-20 581.88,-20 581.88,0 636.12,0 636.12,-20"/>
<text xml:space="preserve" text-anchor="middle" x="609" y="-6.5" font-family="Helvetica,sans-Serif" font-size="10.00">crtdefs.h</text>
</a>
</g>
</g>
<!-- Node2&#45;&gt;Node10 -->
<g id="edge9_Node000002_Node000010" class="edge">
<title>Node2&#45;&gt;Node10</title>
<g id="a_edge9_Node000002_Node000010"><a xlink:title=" ">
<path fill="none" stroke="#63b8ff" d="M421.46,-55.53C458.2,-47.1 513.61,-34.27 570.48,-20.58"/>
<polygon fill="#63b8ff" stroke="#63b8ff" points="571.12,-24.03 580.02,-18.28 569.48,-17.22 571.12,-24.03"/>
</a>
</g>
</g>
<!-- Node11&#45;&gt;Node2 -->
<g id="edge11_Node000011_Node000002" class="edge">
<title>Node11&#45;&gt;Node2</title>
<g id="a_edge11_Node000011_Node000002"><a xlink:title=" ">
<path fill="none" stroke="#63b8ff" d="M226.24,-335.59C183.68,-321.42 116,-290.21 116,-235 116,-235 116,-235 116,-177 116,-94.89 226.16,-72.96 304.16,-67.72"/>
<polygon fill="#63b8ff" stroke="#63b8ff" points="304.13,-71.23 313.91,-67.16 303.72,-64.24 304.13,-71.23"/>
</a>
</g>
</g>
<!-- Node12 -->
<g id="Node000012" class="node">
<title>Node12</title>
<g id="a_Node000012"><a xlink:href="_attributed_8h.html" target="_top" xlink:title=" ">
<polygon fill="white" stroke="#666666" points="455.88,-300 352.12,-300 352.12,-280 455.88,-280 455.88,-300"/>
<text xml:space="preserve" text-anchor="middle" x="404" y="-286.5" font-family="Helvetica,sans-Serif" font-size="10.00">Content/Attributed.h</text>
</a>
</g>
</g>
<!-- Node11&#45;&gt;Node12 -->
<g id="edge12_Node000011_Node000012" class="edge">
<title>Node11&#45;&gt;Node12</title>
<g id="a_edge12_Node000011_Node000012"><a xlink:title=" ">
<path fill="none" stroke="#63b8ff" d="M285.08,-335.59C308.07,-326.97 342.35,-314.12 368.21,-304.42"/>
<polygon fill="#63b8ff" stroke="#63b8ff" points="369.17,-307.8 377.3,-301.01 366.71,-301.25 369.17,-307.8"/>
</a>
</g>
</g>
<!-- Node11&#45;&gt;Node20 -->
<g id="edge40_Node000011_Node000020" class="edge">
<title>Node11&#45;&gt;Node20</title>
<g id="a_edge40_Node000011_Node000020"><a xlink:title=" ">
<path fill="none" stroke="#63b8ff" d="M251.64,-335.51C233.01,-313.2 192.03,-256.86 222,-224 235,-209.75 474.16,-193.15 613.11,-184.65"/>
<polygon fill="#63b8ff" stroke="#63b8ff" points="613.3,-188.14 623.07,-184.04 612.88,-181.16 613.3,-188.14"/>
</a>
</g>
</g>
<!-- Node25 -->
<g id="Node000025" class="node">
<title>Node25</title>
<g id="a_Node000025"><a xlink:title=" ">
<polygon fill="#e0e0e0" stroke="#999999" points="289,-244 231,-244 231,-224 289,-224 289,-244"/>
<text xml:space="preserve" text-anchor="middle" x="260" y="-230.5" font-family="Helvetica,sans-Serif" font-size="10.00">functional</text>
</a>
</g>
</g>
<!-- Node11&#45;&gt;Node25 -->
<g id="edge41_Node000011_Node000025" class="edge">
<title>Node11&#45;&gt;Node25</title>
<g id="a_edge41_Node000011_Node000025"><a xlink:title=" ">
<path fill="none" stroke="#63b8ff" d="M260,-335.62C260,-318.01 260,-279.59 260,-255.65"/>
<polygon fill="#63b8ff" stroke="#63b8ff" points="263.5,-255.87 260,-245.87 256.5,-255.87 263.5,-255.87"/>
</a>
</g>
</g>
<!-- Node12&#45;&gt;Node2 -->
<g id="edge13_Node000012_Node000002" class="edge">
<title>Node12&#45;&gt;Node2</title>
<g id="a_edge13_Node000012_Node000002"><a xlink:title=" ">
<path fill="none" stroke="#63b8ff" d="M388.61,-279.69C344.72,-252.78 220.72,-174.1 200,-132 177.67,-86.63 245.51,-72.23 304.19,-68.02"/>
<polygon fill="#63b8ff" stroke="#63b8ff" points="304.13,-71.53 313.89,-67.42 303.69,-64.54 304.13,-71.53"/>
</a>
</g>
</g>
<!-- Node13 -->
<g id="Node000013" class="node">
<title>Node13</title>
<g id="a_Node000013"><a xlink:href="_datum_8h.html" target="_top" xlink:title=" ">
<polygon fill="white" stroke="#666666" points="449.5,-188 358.5,-188 358.5,-168 449.5,-168 449.5,-188"/>
<text xml:space="preserve" text-anchor="middle" x="404" y="-174.5" font-family="Helvetica,sans-Serif" font-size="10.00">Content/Datum.h</text>
</a>
</g>
</g>
<!-- Node12&#45;&gt;Node13 -->
<g id="edge14_Node000012_Node000013" class="edge">
<title>Node12&#45;&gt;Node13</title>
<g id="a_edge14_Node000012_Node000013"><a xlink:title=" ">
<path fill="none" stroke="#63b8ff" d="M404,-279.62C404,-262.01 404,-223.59 404,-199.65"/>
<polygon fill="#63b8ff" stroke="#63b8ff" points="407.5,-199.87 404,-189.87 400.5,-199.87 407.5,-199.87"/>
</a>
</g>
</g>
<!-- Node17 -->
<g id="Node000017" class="node">
<title>Node17</title>
<g id="a_Node000017"><a xlink:href="_scope_8h.html" target="_top" xlink:title=" ">
<polygon fill="white" stroke="#666666" points="755.75,-244 666.25,-244 666.25,-224 755.75,-224 755.75,-244"/>
<text xml:space="preserve" text-anchor="middle" x="711" y="-230.5" font-family="Helvetica,sans-Serif" font-size="10.00">Content/Scope.h</text>
</a>
</g>
</g>
<!-- Node12&#45;&gt;Node17 -->
<g id="edge20_Node000012_Node000017" class="edge">
<title>Node12&#45;&gt;Node17</title>
<g id="a_edge20_Node000012_Node000017"><a xlink:title=" ">
<path fill="none" stroke="#63b8ff" d="M456.08,-279.84C511.29,-270.13 598.2,-254.84 654.9,-244.87"/>
<polygon fill="#63b8ff" stroke="#63b8ff" points="655.43,-248.33 664.68,-243.15 654.22,-241.43 655.43,-248.33"/>
</a>
</g>
</g>
<!-- Node18 -->
<g id="Node000018" class="node">
<title>Node18</title>
<g id="a_Node000018"><a xlink:href="_r_t_t_i_8h.html" target="_top" xlink:title=" ">
<polygon fill="white" stroke="#666666" points="1082.88,-132 955.12,-132 955.12,-112 1082.88,-112 1082.88,-132"/>
<text xml:space="preserve" text-anchor="middle" x="1019" y="-118.5" font-family="Helvetica,sans-Serif" font-size="10.00">FIEAGameEngine/RTTI.h</text>
</a>
</g>
</g>
<!-- Node12&#45;&gt;Node18 -->
<g id="edge37_Node000012_Node000018" class="edge">
<title>Node12&#45;&gt;Node18</title>
<g id="a_edge37_Node000012_Node000018"><a xlink:title=" ">
<path fill="none" stroke="#63b8ff" d="M456.21,-287.7C533.68,-284.76 683.13,-275.18 806,-244 870.16,-227.72 887.56,-222.59 944,-188 966.14,-174.43 988.21,-154.31 1002.61,-140.05"/>
<polygon fill="#63b8ff" stroke="#63b8ff" points="1004.92,-142.7 1009.46,-133.12 999.94,-137.78 1004.92,-142.7"/>
</a>
</g>
</g>
<!-- Node24 -->
<g id="Node000024" class="node">
<title>Node24</title>
<g id="a_Node000024"><a xlink:title=" ">
<polygon fill="#e0e0e0" stroke="#999999" points="934.5,-188 891.5,-188 891.5,-168 934.5,-168 934.5,-188"/>
<text xml:space="preserve" text-anchor="middle" x="913" y="-174.5" font-family="Helvetica,sans-Serif" font-size="10.00">vector</text>
</a>
</g>
</g>
<!-- Node12&#45;&gt;Node24 -->
<g id="edge38_Node000012_Node000024" class="edge">
<title>Node12&#45;&gt;Node24</title>
<g id="a_edge38_Node000012_Node000024"><a xlink:title=" ">
<path fill="none" stroke="#63b8ff" d="M456.33,-287.22C527.39,-283.73 657.84,-273.53 765,-244 809.14,-231.83 857.13,-208.77 886.14,-193.65"/>
<polygon fill="#63b8ff" stroke="#63b8ff" points="887.74,-196.76 894.94,-188.99 884.46,-190.57 887.74,-196.76"/>
</a>
</g>
</g>
<!-- Node12&#45;&gt;Node25 -->
<g id="edge39_Node000012_Node000025" class="edge">
<title>Node12&#45;&gt;Node25</title>
<g id="a_edge39_Node000012_Node000025"><a xlink:title=" ">
<path fill="none" stroke="#63b8ff" d="M378.92,-279.59C355.93,-270.97 321.65,-258.12 295.79,-248.42"/>
<polygon fill="#63b8ff" stroke="#63b8ff" points="297.29,-245.25 286.7,-245.01 294.83,-251.8 297.29,-245.25"/>
</a>
</g>
</g>
<!-- Node13&#45;&gt;Node2 -->
<g id="edge15_Node000013_Node000002" class="edge">
<title>Node13&#45;&gt;Node2</title>
<g id="a_edge15_Node000013_Node000002"><a xlink:title=" ">
<path fill="none" stroke="#63b8ff" d="M358.09,-172.78C306.93,-167.02 229.02,-154.7 211,-132 181.37,-94.66 246.14,-78.75 303.87,-71.98"/>
<polygon fill="#63b8ff" stroke="#63b8ff" points="304.22,-75.47 313.79,-70.91 303.47,-68.51 304.22,-75.47"/>
</a>
</g>
</g>
<!-- Node14 -->
<g id="Node000014" class="node">
<title>Node14</title>
<g id="a_Node000014"><a xlink:title=" ">
<polygon fill="#e0e0e0" stroke="#999999" points="538.62,-132 469.38,-132 469.38,-112 538.62,-112 538.62,-132"/>
<text xml:space="preserve" text-anchor="middle" x="504" y="-118.5" font-family="Helvetica,sans-Serif" font-size="10.00">glm/glm.hpp</text>
</a>
</g>
</g>
<!-- Node13&#45;&gt;Node14 -->
<g id="edge16_Node000013_Node000014" class="edge">
<title>Node13&#45;&gt;Node14</title>
<g id="a_edge16_Node000013_Node000014"><a xlink:title=" ">
<path fill="none" stroke="#63b8ff" d="M421.42,-167.59C436.67,-159.36 459.08,-147.26 476.71,-137.74"/>
<polygon fill="#63b8ff" stroke="#63b8ff" points="477.98,-141.03 485.11,-133.2 474.65,-134.87 477.98,-141.03"/>
</a>
</g>
</g>
<!-- Node15 -->
<g id="Node000015" class="node">
<title>Node15</title>
<g id="a_Node000015"><a xlink:title=" ">
<polygon fill="#e0e0e0" stroke="#999999" points="338,-132 220,-132 220,-112 338,-112 338,-132"/>
<text xml:space="preserve" text-anchor="middle" x="279" y="-118.5" font-family="Helvetica,sans-Serif" font-size="10.00">glm/gtx/string_cast.hpp</text>
</a>
</g>
</g>
<!-- Node13&#45;&gt;Node15 -->
<g id="edge17_Node000013_Node000015" class="edge">
<title>Node13&#45;&gt;Node15</title>
<g id="a_edge17_Node000013_Node000015"><a xlink:title=" ">
<path fill="none" stroke="#63b8ff" d="M382.23,-167.59C362.63,-159.13 333.57,-146.58 311.28,-136.94"/>
<polygon fill="#63b8ff" stroke="#63b8ff" points="312.9,-133.83 302.33,-133.08 310.12,-140.26 312.9,-133.83"/>
</a>
</g>
</g>
<!-- Node16 -->
<g id="Node000016" class="node">
<title>Node16</title>
<g id="a_Node000016"><a xlink:href="_datum_8inl.html" target="_top" xlink:title=" ">
<polygon fill="white" stroke="#666666" points="451.75,-132 356.25,-132 356.25,-112 451.75,-112 451.75,-132"/>
<text xml:space="preserve" text-anchor="middle" x="404" y="-118.5" font-family="Helvetica,sans-Serif" font-size="10.00">Content/Datum.inl</text>
</a>
</g>
</g>
<!-- Node13&#45;&gt;Node16 -->
<g id="edge18_Node000013_Node000016" class="edge">
<title>Node13&#45;&gt;Node16</title>
<g id="a_edge18_Node000013_Node000016"><a xlink:title=" ">
<path fill="none" stroke="#63b8ff" d="M398.73,-167.59C397.42,-161.01 396.98,-151.96 397.41,-143.73"/>
<polygon fill="#63b8ff" stroke="#63b8ff" points="400.89,-144.14 398.58,-133.8 393.94,-143.33 400.89,-144.14"/>
</a>
</g>
</g>
<!-- Node16&#45;&gt;Node13 -->
<g id="edge19_Node000016_Node000013" class="edge">
<title>Node16&#45;&gt;Node13</title>
<g id="a_edge19_Node000016_Node000013"><a xlink:title=" ">
<path fill="none" stroke="#63b8ff" d="M409.25,-132.3C410.59,-138.93 411.03,-148.11 410.58,-156.43"/>
<polygon fill="#63b8ff" stroke="#63b8ff" points="407.13,-155.75 409.44,-166.09 414.08,-156.57 407.13,-155.75"/>
</a>
</g>
</g>
<!-- Node17&#45;&gt;Node2 -->
<g id="edge21_Node000017_Node000002" class="edge">
<title>Node17&#45;&gt;Node2</title>
<g id="a_edge21_Node000017_Node000002"><a xlink:title=" ">
<path fill="none" stroke="#63b8ff" d="M684.03,-223.57C664.1,-215.83 636.91,-203.62 616,-188 579.69,-160.87 586.61,-135.74 548,-112 520.17,-94.89 485.85,-84.2 455.5,-77.56"/>
<polygon fill="#63b8ff" stroke="#63b8ff" points="456.5,-74.2 446,-75.6 455.08,-81.05 456.5,-74.2"/>
</a>
</g>
</g>
<!-- Node17&#45;&gt;Node13 -->
<g id="edge26_Node000017_Node000013" class="edge">
<title>Node17&#45;&gt;Node13</title>
<g id="a_edge26_Node000017_Node000013"><a xlink:title=" ">
<path fill="none" stroke="#63b8ff" d="M666.03,-225.09C611.66,-215.53 520.09,-199.42 460.87,-189"/>
<polygon fill="#63b8ff" stroke="#63b8ff" points="461.79,-185.61 451.33,-187.33 460.58,-192.51 461.79,-185.61"/>
</a>
</g>
</g>
<!-- Node17&#45;&gt;Node18 -->
<g id="edge22_Node000017_Node000018" class="edge">
<title>Node17&#45;&gt;Node18</title>
<g id="a_edge22_Node000017_Node000018"><a xlink:title=" ">
<path fill="none" stroke="#63b8ff" d="M740.25,-223.54C766.37,-214.89 805.56,-201.45 839,-188 858.93,-179.99 863,-175.83 883,-168 913.94,-155.89 949.62,-144.16 976.68,-135.72"/>
<polygon fill="#63b8ff" stroke="#63b8ff" points="977.37,-139.17 985.88,-132.87 975.3,-132.48 977.37,-139.17"/>
</a>
</g>
</g>
<!-- Node17&#45;&gt;Node20 -->
<g id="edge27_Node000017_Node000020" class="edge">
<title>Node17&#45;&gt;Node20</title>
<g id="a_edge27_Node000017_Node000020"><a xlink:title=" ">
<path fill="none" stroke="#63b8ff" d="M711,-223.59C711,-217.01 711,-207.96 711,-199.73"/>
<polygon fill="#63b8ff" stroke="#63b8ff" points="714.5,-199.81 711,-189.81 707.5,-199.81 714.5,-199.81"/>
</a>
</g>
</g>
<!-- Node22 -->
<g id="Node000022" class="node">
<title>Node22</title>
<g id="a_Node000022"><a xlink:title=" ">
<polygon fill="#e0e0e0" stroke="#999999" points="930.38,-76 847.62,-76 847.62,-56 930.38,-56 930.38,-76"/>
<text xml:space="preserve" text-anchor="middle" x="889" y="-62.5" font-family="Helvetica,sans-Serif" font-size="10.00">unordered_map</text>
</a>
</g>
</g>
<!-- Node17&#45;&gt;Node22 -->
<g id="edge36_Node000017_Node000022" class="edge">
<title>Node17&#45;&gt;Node22</title>
<g id="a_edge36_Node000017_Node000022"><a xlink:title=" ">
<path fill="none" stroke="#63b8ff" d="M733.35,-223.52C752.9,-214.97 781.86,-201.67 806,-188 810.88,-185.24 887.35,-136.94 890,-132 897.26,-118.44 896.5,-100.9 894.21,-87.45"/>
<polygon fill="#63b8ff" stroke="#63b8ff" points="897.7,-87.02 892.18,-77.97 890.85,-88.48 897.7,-87.02"/>
</a>
</g>
</g>
<!-- Node17&#45;&gt;Node24 -->
<g id="edge35_Node000017_Node000024" class="edge">
<title>Node17&#45;&gt;Node24</title>
<g id="a_edge35_Node000017_Node000024"><a xlink:title=" ">
<path fill="none" stroke="#63b8ff" d="M746.19,-223.59C783.92,-213.51 843.38,-197.61 880.18,-187.77"/>
<polygon fill="#63b8ff" stroke="#63b8ff" points="881.06,-191.16 889.81,-185.2 879.25,-184.4 881.06,-191.16"/>
</a>
</g>
</g>
<!-- Node18&#45;&gt;Node2 -->
<g id="edge23_Node000018_Node000002" class="edge">
<title>Node18&#45;&gt;Node2</title>
<g id="a_edge23_Node000018_Node000002"><a xlink:title=" ">
<path fill="none" stroke="#63b8ff" d="M954.8,-115.58C836.07,-105.54 582.7,-84.13 455.77,-73.4"/>
<polygon fill="#63b8ff" stroke="#63b8ff" points="456.4,-69.94 446.14,-72.59 455.81,-76.92 456.4,-69.94"/>
</a>
</g>
</g>
<!-- Node19 -->
<g id="Node000019" class="node">
<title>Node19</title>
<g id="a_Node000019"><a xlink:href="_r_t_t_i_8inl.html" target="_top" xlink:title=" ">
<polygon fill="white" stroke="#666666" points="1085.12,-76 952.88,-76 952.88,-56 1085.12,-56 1085.12,-76"/>
<text xml:space="preserve" text-anchor="middle" x="1019" y="-62.5" font-family="Helvetica,sans-Serif" font-size="10.00">FIEAGameEngine/RTTI.inl</text>
</a>
</g>
</g>
<!-- Node18&#45;&gt;Node19 -->
<g id="edge24_Node000018_Node000019" class="edge">
<title>Node18&#45;&gt;Node19</title>
<g id="a_edge24_Node000018_Node000019"><a xlink:title=" ">
<path fill="none" stroke="#63b8ff" d="M1013.73,-111.59C1012.42,-105.01 1011.98,-95.96 1012.41,-87.73"/>
<polygon fill="#63b8ff" stroke="#63b8ff" points="1015.89,-88.14 1013.58,-77.8 1008.94,-87.33 1015.89,-88.14"/>
</a>
</g>
</g>
<!-- Node19&#45;&gt;Node18 -->
<g id="edge25_Node000019_Node000018" class="edge">
<title>Node19&#45;&gt;Node18</title>
<g id="a_edge25_Node000019_Node000018"><a xlink:title=" ">
<path fill="none" stroke="#63b8ff" d="M1024.25,-76.3C1025.59,-82.93 1026.03,-92.11 1025.58,-100.43"/>
<polygon fill="#63b8ff" stroke="#63b8ff" points="1022.13,-99.75 1024.44,-110.09 1029.08,-100.57 1022.13,-99.75"/>
</a>
</g>
</g>
<!-- Node20&#45;&gt;Node2 -->
<g id="edge28_Node000020_Node000002" class="edge">
<title>Node20&#45;&gt;Node2</title>
<g id="a_edge28_Node000020_Node000002"><a xlink:title=" ">
<path fill="none" stroke="#63b8ff" d="M692.83,-167.61C659.83,-150.59 592.41,-116.06 581,-112 538.99,-97.05 490.22,-85.99 451.24,-78.57"/>
<polygon fill="#63b8ff" stroke="#63b8ff" points="451.96,-75.14 441.49,-76.76 450.68,-82.03 451.96,-75.14"/>
</a>
</g>
</g>
<!-- Node20&#45;&gt;Node18 -->
<g id="edge29_Node000020_Node000018" class="edge">
<title>Node20&#45;&gt;Node18</title>
<g id="a_edge29_Node000020_Node000018"><a xlink:title=" ">
<path fill="none" stroke="#63b8ff" d="M765,-167.53C817.62,-158.31 897.68,-144.27 953.82,-134.43"/>
<polygon fill="#63b8ff" stroke="#63b8ff" points="954.32,-137.89 963.57,-132.72 953.12,-131 954.32,-137.89"/>
</a>
</g>
</g>
<!-- Node21 -->
<g id="Node000021" class="node">
<title>Node21</title>
<g id="a_Node000021"><a xlink:href="_service_mgr_8h.html" target="_top" xlink:title=" ">
<polygon fill="white" stroke="#666666" points="788.75,-132 633.25,-132 633.25,-112 788.75,-112 788.75,-132"/>
<text xml:space="preserve" text-anchor="middle" x="711" y="-118.5" font-family="Helvetica,sans-Serif" font-size="10.00">FIEAGameEngine/ServiceMgr.h</text>
</a>
</g>
</g>
<!-- Node20&#45;&gt;Node21 -->
<g id="edge30_Node000020_Node000021" class="edge">
<title>Node20&#45;&gt;Node21</title>
<g id="a_edge30_Node000020_Node000021"><a xlink:title=" ">
<path fill="none" stroke="#63b8ff" d="M711,-167.59C711,-161.01 711,-151.96 711,-143.73"/>
<polygon fill="#63b8ff" stroke="#63b8ff" points="714.5,-143.81 711,-133.81 707.5,-143.81 714.5,-143.81"/>
</a>
</g>
</g>
<!-- Node20&#45;&gt;Node22 -->
<g id="edge34_Node000020_Node000022" class="edge">
<title>Node20&#45;&gt;Node22</title>
<g id="a_edge34_Node000020_Node000022"><a xlink:title=" ">
<path fill="none" stroke="#63b8ff" d="M797.19,-168.86C823.48,-162.45 850.54,-151.29 870,-132 881.75,-120.35 886.33,-101.86 888.06,-87.57"/>
<polygon fill="#63b8ff" stroke="#63b8ff" points="891.53,-88.14 888.84,-77.89 884.55,-87.57 891.53,-88.14"/>
</a>
</g>
</g>
<!-- Node23 -->
<g id="Node000023" class="node">
<title>Node23</title>
<g id="a_Node000023"><a xlink:title=" ">
<polygon fill="#e0e0e0" stroke="#999999" points="860.75,-132 807.25,-132 807.25,-112 860.75,-112 860.75,-132"/>
<text xml:space="preserve" text-anchor="middle" x="834" y="-118.5" font-family="Helvetica,sans-Serif" font-size="10.00">iostream</text>
</a>
</g>
</g>
<!-- Node20&#45;&gt;Node23 -->
<g id="edge33_Node000020_Node000023" class="edge">
<title>Node20&#45;&gt;Node23</title>
<g id="a_edge33_Node000020_Node000023"><a xlink:title=" ">
<path fill="none" stroke="#63b8ff" d="M732.42,-167.59C751.62,-159.17 780.04,-146.69 801.94,-137.07"/>
<polygon fill="#63b8ff" stroke="#63b8ff" points="803.27,-140.31 811.02,-133.09 800.46,-133.9 803.27,-140.31"/>
</a>
</g>
</g>
<!-- Node21&#45;&gt;Node2 -->
<g id="edge31_Node000021_Node000002" class="edge">
<title>Node21&#45;&gt;Node2</title>
<g id="a_edge31_Node000021_Node000002"><a xlink:title=" ">
<path fill="none" stroke="#63b8ff" d="M652.97,-111.53C596.18,-102.27 509.66,-88.15 449.3,-78.31"/>
<polygon fill="#63b8ff" stroke="#63b8ff" points="449.89,-74.86 439.46,-76.7 448.77,-81.77 449.89,-74.86"/>
</a>
</g>
</g>
<!-- Node21&#45;&gt;Node22 -->
<g id="edge32_Node000021_Node000022" class="edge">
<title>Node21&#45;&gt;Node22</title>
<g id="a_edge32_Node000021_Node000022"><a xlink:title=" ">
<path fill="none" stroke="#63b8ff" d="M742.01,-111.59C771.05,-102.78 814.7,-89.54 846.89,-79.78"/>
<polygon fill="#63b8ff" stroke="#63b8ff" points="847.75,-83.17 856.3,-76.92 845.72,-76.47 847.75,-83.17"/>
</a>
</g>
</g>
</g>
</svg>
