<?xml version="1.0" encoding="UTF-8" standalone="no"?>
<!DOCTYPE svg PUBLIC "-//W3C//DTD SVG 1.1//EN"
 "http://www.w3.org/Graphics/SVG/1.1/DTD/svg11.dtd">
<!-- Generated by graphviz version 13.1.0 (20250701.0955)
 -->
<!-- Title: FIEAGameEngine/src/Actions/ActionPreamble.h Pages: 1 -->
<svg width="332pt" height="108pt"
 viewBox="0.00 0.00 332.00 108.00" xmlns="http://www.w3.org/2000/svg" xmlns:xlink="http://www.w3.org/1999/xlink">
<g id="graph0" class="graph" transform="scale(1 1) rotate(0) translate(4 104)">
<title>FIEAGameEngine/src/Actions/ActionPreamble.h</title>
<!-- Node1 -->
<g id="Node000001" class="node">
<title>Node1</title>
<g id="a_Node000001"><a xlink:title=" ">
<polygon fill="#999999" stroke="#666666" points="232.62,-100 100.38,-100 100.38,-68 232.62,-68 232.62,-100"/>
<text xml:space="preserve" text-anchor="start" x="108.38" y="-86.5" font-family="Helvetica,sans-Serif" font-size="10.00">FIEAGameEngine/src</text>
<text xml:space="preserve" text-anchor="middle" x="166.5" y="-74.5" font-family="Helvetica,sans-Serif" font-size="10.00">/Actions/ActionPreamble.h</text>
</a>
</g>
</g>
<!-- Node2 -->
<g id="Node000002" class="node">
<title>Node2</title>
<g id="a_Node000002"><a xlink:href="_action_list_while_loop_8cpp.html" target="_top" xlink:title=" ">
<polygon fill="white" stroke="#666666" points="163,-32 0,-32 0,0 163,0 163,-32"/>
<text xml:space="preserve" text-anchor="start" x="8" y="-18.5" font-family="Helvetica,sans-Serif" font-size="10.00">FIEAGameEngine/src</text>
<text xml:space="preserve" text-anchor="middle" x="81.5" y="-6.5" font-family="Helvetica,sans-Serif" font-size="10.00">/Actions/ActionListWhileLoop.cpp</text>
</a>
</g>
</g>
<!-- Node1&#45;&gt;Node2 -->
<g id="edge1_Node000001_Node000002" class="edge">
<title>Node1&#45;&gt;Node2</title>
<g id="a_edge1_Node000001_Node000002"><a xlink:title=" ">
<path fill="none" stroke="#63b8ff" d="M138,-60.87C125.99,-51.55 112.3,-40.91 101.4,-32.45"/>
<polygon fill="#63b8ff" stroke="#63b8ff" points="135.55,-63.4 145.59,-66.76 139.84,-57.87 135.55,-63.4"/>
</a>
</g>
</g>
<!-- Node3 -->
<g id="Node000003" class="node">
<title>Node3</title>
<g id="a_Node000003"><a xlink:href="_action_preamble_8cpp.html" target="_top" xlink:title=" ">
<polygon fill="white" stroke="#666666" points="323.88,-32 181.12,-32 181.12,0 323.88,0 323.88,-32"/>
<text xml:space="preserve" text-anchor="start" x="189.12" y="-18.5" font-family="Helvetica,sans-Serif" font-size="10.00">FIEAGameEngine/src</text>
<text xml:space="preserve" text-anchor="middle" x="252.5" y="-6.5" font-family="Helvetica,sans-Serif" font-size="10.00">/Actions/ActionPreamble.cpp</text>
</a>
</g>
</g>
<!-- Node1&#45;&gt;Node3 -->
<g id="edge2_Node000001_Node000003" class="edge">
<title>Node1&#45;&gt;Node3</title>
<g id="a_edge2_Node000001_Node000003"><a xlink:title=" ">
<path fill="none" stroke="#63b8ff" d="M195.33,-60.87C207.49,-51.55 221.34,-40.91 232.36,-32.45"/>
<polygon fill="#63b8ff" stroke="#63b8ff" points="193.45,-57.91 187.65,-66.77 197.71,-63.46 193.45,-57.91"/>
</a>
</g>
</g>
</g>
</svg>
