<?xml version="1.0" encoding="UTF-8" standalone="no"?>
<!DOCTYPE svg PUBLIC "-//W3C//DTD SVG 1.1//EN"
 "http://www.w3.org/Graphics/SVG/1.1/DTD/svg11.dtd">
<!-- Generated by graphviz version 13.1.0 (20250701.0955)
 -->
<!-- Title: FIEAGameEngine/src/Actions/ActionDecrement.h Pages: 1 -->
<svg width="1006pt" height="432pt"
 viewBox="0.00 0.00 1006.00 432.00" xmlns="http://www.w3.org/2000/svg" xmlns:xlink="http://www.w3.org/1999/xlink">
<g id="graph0" class="graph" transform="scale(1 1) rotate(0) translate(4 428)">
<title>FIEAGameEngine/src/Actions/ActionDecrement.h</title>
<!-- Node1 -->
<g id="Node000001" class="node">
<title>Node1</title>
<g id="a_Node000001"><a xlink:title=" ">
<polygon fill="#999999" stroke="#666666" points="435.5,-424 296.5,-424 296.5,-392 435.5,-392 435.5,-424"/>
<text xml:space="preserve" text-anchor="start" x="304.5" y="-410.5" font-family="Helvetica,sans-Serif" font-size="10.00">FIEAGameEngine/src</text>
<text xml:space="preserve" text-anchor="middle" x="366" y="-398.5" font-family="Helvetica,sans-Serif" font-size="10.00">/Actions/ActionDecrement.h</text>
</a>
</g>
</g>
<!-- Node2 -->
<g id="Node000002" class="node">
<title>Node2</title>
<g id="a_Node000002"><a xlink:href="_types_8h.html" target="_top" xlink:title=" ">
<polygon fill="white" stroke="#666666" points="525.25,-76 396.75,-76 396.75,-56 525.25,-56 525.25,-76"/>
<text xml:space="preserve" text-anchor="middle" x="461" y="-62.5" font-family="Helvetica,sans-Serif" font-size="10.00">FieaGameEngine/Types.h</text>
</a>
</g>
</g>
<!-- Node1&#45;&gt;Node2 -->
<g id="edge1_Node000001_Node000002" class="edge">
<title>Node1&#45;&gt;Node2</title>
<g id="a_edge1_Node000001_Node000002"><a xlink:title=" ">
<path fill="none" stroke="#63b8ff" d="M296.3,-399.3C190.11,-385.6 0,-352.49 0,-291 0,-291 0,-291 0,-177 0,-143.54 9.9,-130.17 38,-112 93.65,-76.02 279.15,-68.37 385.1,-67.01"/>
<polygon fill="#63b8ff" stroke="#63b8ff" points="384.88,-70.52 394.84,-66.91 384.8,-63.52 384.88,-70.52"/>
</a>
</g>
</g>
<!-- Node11 -->
<g id="Node000011" class="node">
<title>Node11</title>
<g id="a_Node000011"><a xlink:href="_action_8h.html" target="_top" xlink:title=" ">
<polygon fill="white" stroke="#666666" points="432.88,-356 299.12,-356 299.12,-336 432.88,-336 432.88,-356"/>
<text xml:space="preserve" text-anchor="middle" x="366" y="-342.5" font-family="Helvetica,sans-Serif" font-size="10.00">FIEAGameEngine/Action.h</text>
</a>
</g>
</g>
<!-- Node1&#45;&gt;Node11 -->
<g id="edge10_Node000001_Node000011" class="edge">
<title>Node1&#45;&gt;Node11</title>
<g id="a_edge10_Node000001_Node000011"><a xlink:title=" ">
<path fill="none" stroke="#63b8ff" d="M366,-391.55C366,-384.34 366,-375.66 366,-367.88"/>
<polygon fill="#63b8ff" stroke="#63b8ff" points="369.5,-367.92 366,-357.92 362.5,-367.92 369.5,-367.92"/>
</a>
</g>
</g>
<!-- Node20 -->
<g id="Node000020" class="node">
<title>Node20</title>
<g id="a_Node000020"><a xlink:href="_factory_service_8h.html" target="_top" xlink:title=" ">
<polygon fill="white" stroke="#666666" points="797,-188 625,-188 625,-168 797,-168 797,-188"/>
<text xml:space="preserve" text-anchor="middle" x="711" y="-174.5" font-family="Helvetica,sans-Serif" font-size="10.00">FIEAGameEngine/FactoryService.h</text>
</a>
</g>
</g>
<!-- Node1&#45;&gt;Node20 -->
<g id="edge42_Node000001_Node000020" class="edge">
<title>Node1&#45;&gt;Node20</title>
<g id="a_edge42_Node000001_Node000020"><a xlink:title=" ">
<path fill="none" stroke="#63b8ff" d="M393.99,-391.56C443.38,-363.94 548.64,-303.4 632,-244 653.52,-228.66 676.71,-209.2 692.36,-195.58"/>
<polygon fill="#63b8ff" stroke="#63b8ff" points="694.3,-198.54 699.5,-189.31 689.68,-193.28 694.3,-198.54"/>
</a>
</g>
</g>
<!-- Node3 -->
<g id="Node000003" class="node">
<title>Node3</title>
<g id="a_Node000003"><a xlink:title=" ">
<polygon fill="#e0e0e0" stroke="#999999" points="241,-20 81,-20 81,0 241,0 241,-20"/>
<text xml:space="preserve" text-anchor="middle" x="161" y="-6.5" font-family="Helvetica,sans-Serif" font-size="10.00">../src/Memory/SystemAllocator.h</text>
</a>
</g>
</g>
<!-- Node2&#45;&gt;Node3 -->
<g id="edge2_Node000002_Node000003" class="edge">
<title>Node2&#45;&gt;Node3</title>
<g id="a_edge2_Node000002_Node000003"><a xlink:title=" ">
<path fill="none" stroke="#63b8ff" d="M408.4,-55.53C357.26,-46.33 279.5,-32.33 224.83,-22.49"/>
<polygon fill="#63b8ff" stroke="#63b8ff" points="225.49,-19.05 215.03,-20.73 224.25,-25.94 225.49,-19.05"/>
</a>
</g>
</g>
<!-- Node4 -->
<g id="Node000004" class="node">
<title>Node4</title>
<g id="a_Node000004"><a xlink:title=" ">
<polygon fill="#e0e0e0" stroke="#999999" points="321.25,-20 258.75,-20 258.75,0 321.25,0 321.25,-20"/>
<text xml:space="preserve" text-anchor="middle" x="290" y="-6.5" font-family="Helvetica,sans-Serif" font-size="10.00">windows.h</text>
</a>
</g>
</g>
<!-- Node2&#45;&gt;Node4 -->
<g id="edge3_Node000002_Node000004" class="edge">
<title>Node2&#45;&gt;Node4</title>
<g id="a_edge3_Node000002_Node000004"><a xlink:title=" ">
<path fill="none" stroke="#63b8ff" d="M431.21,-55.59C403.43,-46.82 361.75,-33.66 330.86,-23.9"/>
<polygon fill="#63b8ff" stroke="#63b8ff" points="332.05,-20.61 321.46,-20.94 329.94,-27.28 332.05,-20.61"/>
</a>
</g>
</g>
<!-- Node5 -->
<g id="Node000005" class="node">
<title>Node5</title>
<g id="a_Node000005"><a xlink:title=" ">
<polygon fill="#e0e0e0" stroke="#999999" points="387.12,-20 338.88,-20 338.88,0 387.12,0 387.12,-20"/>
<text xml:space="preserve" text-anchor="middle" x="363" y="-6.5" font-family="Helvetica,sans-Serif" font-size="10.00">cassert</text>
</a>
</g>
</g>
<!-- Node2&#45;&gt;Node5 -->
<g id="edge4_Node000002_Node000005" class="edge">
<title>Node2&#45;&gt;Node5</title>
<g id="a_edge4_Node000002_Node000005"><a xlink:title=" ">
<path fill="none" stroke="#63b8ff" d="M443.93,-55.59C429.12,-47.44 407.43,-35.48 390.23,-26"/>
<polygon fill="#63b8ff" stroke="#63b8ff" points="391.98,-22.97 381.53,-21.21 388.6,-29.1 391.98,-22.97"/>
</a>
</g>
</g>
<!-- Node6 -->
<g id="Node000006" class="node">
<title>Node6</title>
<g id="a_Node000006"><a xlink:title=" ">
<polygon fill="#e0e0e0" stroke="#999999" points="453.12,-20 404.88,-20 404.88,0 453.12,0 453.12,-20"/>
<text xml:space="preserve" text-anchor="middle" x="429" y="-6.5" font-family="Helvetica,sans-Serif" font-size="10.00">cstddef</text>
</a>
</g>
</g>
<!-- Node2&#45;&gt;Node6 -->
<g id="edge5_Node000002_Node000006" class="edge">
<title>Node2&#45;&gt;Node6</title>
<g id="a_edge5_Node000002_Node000006"><a xlink:title=" ">
<path fill="none" stroke="#63b8ff" d="M455.43,-55.59C451.25,-48.55 445.4,-38.67 440.26,-30"/>
<polygon fill="#63b8ff" stroke="#63b8ff" points="443.39,-28.42 435.28,-21.6 437.37,-31.99 443.39,-28.42"/>
</a>
</g>
</g>
<!-- Node7 -->
<g id="Node000007" class="node">
<title>Node7</title>
<g id="a_Node000007"><a xlink:title=" ">
<polygon fill="#e0e0e0" stroke="#999999" points="516.62,-20 471.38,-20 471.38,0 516.62,0 516.62,-20"/>
<text xml:space="preserve" text-anchor="middle" x="494" y="-6.5" font-family="Helvetica,sans-Serif" font-size="10.00">cstdint</text>
</a>
</g>
</g>
<!-- Node2&#45;&gt;Node7 -->
<g id="edge6_Node000002_Node000007" class="edge">
<title>Node2&#45;&gt;Node7</title>
<g id="a_edge6_Node000002_Node000007"><a xlink:title=" ">
<path fill="none" stroke="#63b8ff" d="M466.75,-55.59C471.05,-48.55 477.09,-38.67 482.39,-30"/>
<polygon fill="#63b8ff" stroke="#63b8ff" points="485.3,-31.95 487.53,-21.59 479.33,-28.3 485.3,-31.95"/>
</a>
</g>
</g>
<!-- Node8 -->
<g id="Node000008" class="node">
<title>Node8</title>
<g id="a_Node000008"><a xlink:title=" ">
<polygon fill="#e0e0e0" stroke="#999999" points="587.38,-20 534.62,-20 534.62,0 587.38,0 587.38,-20"/>
<text xml:space="preserve" text-anchor="middle" x="561" y="-6.5" font-family="Helvetica,sans-Serif" font-size="10.00">cstdbool</text>
</a>
</g>
</g>
<!-- Node2&#45;&gt;Node8 -->
<g id="edge7_Node000002_Node000008" class="edge">
<title>Node2&#45;&gt;Node8</title>
<g id="a_edge7_Node000002_Node000008"><a xlink:title=" ">
<path fill="none" stroke="#63b8ff" d="M478.42,-55.59C493.67,-47.36 516.08,-35.26 533.71,-25.74"/>
<polygon fill="#63b8ff" stroke="#63b8ff" points="534.98,-29.03 542.11,-21.2 531.65,-22.87 534.98,-29.03"/>
</a>
</g>
</g>
<!-- Node9 -->
<g id="Node000009" class="node">
<title>Node9</title>
<g id="a_Node000009"><a xlink:title=" ">
<polygon fill="#e0e0e0" stroke="#999999" points="645,-20 605,-20 605,0 645,0 645,-20"/>
<text xml:space="preserve" text-anchor="middle" x="625" y="-6.5" font-family="Helvetica,sans-Serif" font-size="10.00">string</text>
</a>
</g>
</g>
<!-- Node2&#45;&gt;Node9 -->
<g id="edge8_Node000002_Node000009" class="edge">
<title>Node2&#45;&gt;Node9</title>
<g id="a_edge8_Node000002_Node000009"><a xlink:title=" ">
<path fill="none" stroke="#63b8ff" d="M489.57,-55.59C518.7,-46 563.77,-31.16 593.81,-21.27"/>
<polygon fill="#63b8ff" stroke="#63b8ff" points="594.69,-24.67 603.09,-18.21 592.5,-18.02 594.69,-24.67"/>
</a>
</g>
</g>
<!-- Node10 -->
<g id="Node000010" class="node">
<title>Node10</title>
<g id="a_Node000010"><a xlink:title=" ">
<polygon fill="#e0e0e0" stroke="#999999" points="717.12,-20 662.88,-20 662.88,0 717.12,0 717.12,-20"/>
<text xml:space="preserve" text-anchor="middle" x="690" y="-6.5" font-family="Helvetica,sans-Serif" font-size="10.00">crtdefs.h</text>
</a>
</g>
</g>
<!-- Node2&#45;&gt;Node10 -->
<g id="edge9_Node000002_Node000010" class="edge">
<title>Node2&#45;&gt;Node10</title>
<g id="a_edge9_Node000002_Node000010"><a xlink:title=" ">
<path fill="none" stroke="#63b8ff" d="M502.46,-55.53C539.2,-47.1 594.61,-34.27 651.48,-20.58"/>
<polygon fill="#63b8ff" stroke="#63b8ff" points="652.12,-24.03 661.02,-18.28 650.48,-17.22 652.12,-24.03"/>
</a>
</g>
</g>
<!-- Node11&#45;&gt;Node2 -->
<g id="edge11_Node000011_Node000002" class="edge">
<title>Node11&#45;&gt;Node2</title>
<g id="a_edge11_Node000011_Node000002"><a xlink:title=" ">
<path fill="none" stroke="#63b8ff" d="M298.83,-336.32C202.87,-322.02 38,-289.51 38,-235 38,-235 38,-235 38,-177 38,-146.9 33.95,-131.36 57,-112 81.56,-91.37 275.02,-77.34 385.07,-70.95"/>
<polygon fill="#63b8ff" stroke="#63b8ff" points="385.14,-74.45 394.92,-70.38 384.74,-67.46 385.14,-74.45"/>
</a>
</g>
</g>
<!-- Node12 -->
<g id="Node000012" class="node">
<title>Node12</title>
<g id="a_Node000012"><a xlink:href="_attributed_8h.html" target="_top" xlink:title=" ">
<polygon fill="white" stroke="#666666" points="464.88,-300 361.12,-300 361.12,-280 464.88,-280 464.88,-300"/>
<text xml:space="preserve" text-anchor="middle" x="413" y="-286.5" font-family="Helvetica,sans-Serif" font-size="10.00">Content/Attributed.h</text>
</a>
</g>
</g>
<!-- Node11&#45;&gt;Node12 -->
<g id="edge12_Node000011_Node000012" class="edge">
<title>Node11&#45;&gt;Node12</title>
<g id="a_edge12_Node000011_Node000012"><a xlink:title=" ">
<path fill="none" stroke="#63b8ff" d="M374.19,-335.59C380.59,-328.24 389.68,-317.8 397.45,-308.87"/>
<polygon fill="#63b8ff" stroke="#63b8ff" points="399.99,-311.28 403.91,-301.44 394.71,-306.69 399.99,-311.28"/>
</a>
</g>
</g>
<!-- Node11&#45;&gt;Node20 -->
<g id="edge40_Node000011_Node000020" class="edge">
<title>Node11&#45;&gt;Node20</title>
<g id="a_edge40_Node000011_Node000020"><a xlink:title=" ">
<path fill="none" stroke="#63b8ff" d="M389.24,-335.5C411.16,-326.5 444.89,-312.53 474,-300 530.29,-275.77 545.47,-271.97 600,-244 630.53,-228.34 664.4,-208.06 686.61,-194.35"/>
<polygon fill="#63b8ff" stroke="#63b8ff" points="688.29,-197.42 694.93,-189.17 684.59,-191.48 688.29,-197.42"/>
</a>
</g>
</g>
<!-- Node25 -->
<g id="Node000025" class="node">
<title>Node25</title>
<g id="a_Node000025"><a xlink:title=" ">
<polygon fill="#e0e0e0" stroke="#999999" points="347,-244 289,-244 289,-224 347,-224 347,-244"/>
<text xml:space="preserve" text-anchor="middle" x="318" y="-230.5" font-family="Helvetica,sans-Serif" font-size="10.00">functional</text>
</a>
</g>
</g>
<!-- Node11&#45;&gt;Node25 -->
<g id="edge41_Node000011_Node000025" class="edge">
<title>Node11&#45;&gt;Node25</title>
<g id="a_edge41_Node000011_Node000025"><a xlink:title=" ">
<path fill="none" stroke="#63b8ff" d="M361.91,-335.62C354.11,-317.76 336.99,-278.53 326.58,-254.67"/>
<polygon fill="#63b8ff" stroke="#63b8ff" points="329.89,-253.51 322.69,-245.74 323.48,-256.31 329.89,-253.51"/>
</a>
</g>
</g>
<!-- Node12&#45;&gt;Node2 -->
<g id="edge13_Node000012_Node000002" class="edge">
<title>Node12&#45;&gt;Node2</title>
<g id="a_edge13_Node000012_Node000002"><a xlink:title=" ">
<path fill="none" stroke="#63b8ff" d="M415,-279.74C422.15,-246.67 446.55,-133.83 456.61,-87.31"/>
<polygon fill="#63b8ff" stroke="#63b8ff" points="459.98,-88.29 458.67,-77.78 453.14,-86.81 459.98,-88.29"/>
</a>
</g>
</g>
<!-- Node13 -->
<g id="Node000013" class="node">
<title>Node13</title>
<g id="a_Node000013"><a xlink:href="_datum_8h.html" target="_top" xlink:title=" ">
<polygon fill="white" stroke="#666666" points="422.5,-188 331.5,-188 331.5,-168 422.5,-168 422.5,-188"/>
<text xml:space="preserve" text-anchor="middle" x="377" y="-174.5" font-family="Helvetica,sans-Serif" font-size="10.00">Content/Datum.h</text>
</a>
</g>
</g>
<!-- Node12&#45;&gt;Node13 -->
<g id="edge14_Node000012_Node000013" class="edge">
<title>Node12&#45;&gt;Node13</title>
<g id="a_edge14_Node000012_Node000013"><a xlink:title=" ">
<path fill="none" stroke="#63b8ff" d="M409.93,-279.62C404.11,-261.84 391.36,-222.88 383.54,-199"/>
<polygon fill="#63b8ff" stroke="#63b8ff" points="386.97,-198.21 380.53,-189.79 380.32,-200.39 386.97,-198.21"/>
</a>
</g>
</g>
<!-- Node17 -->
<g id="Node000017" class="node">
<title>Node17</title>
<g id="a_Node000017"><a xlink:href="_scope_8h.html" target="_top" xlink:title=" ">
<polygon fill="white" stroke="#666666" points="568.75,-244 479.25,-244 479.25,-224 568.75,-224 568.75,-244"/>
<text xml:space="preserve" text-anchor="middle" x="524" y="-230.5" font-family="Helvetica,sans-Serif" font-size="10.00">Content/Scope.h</text>
</a>
</g>
</g>
<!-- Node12&#45;&gt;Node17 -->
<g id="edge20_Node000012_Node000017" class="edge">
<title>Node12&#45;&gt;Node17</title>
<g id="a_edge20_Node000012_Node000017"><a xlink:title=" ">
<path fill="none" stroke="#63b8ff" d="M432.33,-279.59C449.42,-271.28 474.6,-259.03 494.25,-249.47"/>
<polygon fill="#63b8ff" stroke="#63b8ff" points="495.69,-252.66 503.15,-245.14 492.63,-246.37 495.69,-252.66"/>
</a>
</g>
</g>
<!-- Node18 -->
<g id="Node000018" class="node">
<title>Node18</title>
<g id="a_Node000018"><a xlink:href="_r_t_t_i_8h.html" target="_top" xlink:title=" ">
<polygon fill="white" stroke="#666666" points="682.88,-132 555.12,-132 555.12,-112 682.88,-112 682.88,-132"/>
<text xml:space="preserve" text-anchor="middle" x="619" y="-118.5" font-family="Helvetica,sans-Serif" font-size="10.00">FIEAGameEngine/RTTI.h</text>
</a>
</g>
</g>
<!-- Node12&#45;&gt;Node18 -->
<g id="edge37_Node000012_Node000018" class="edge">
<title>Node12&#45;&gt;Node18</title>
<g id="a_edge37_Node000012_Node000018"><a xlink:title=" ">
<path fill="none" stroke="#63b8ff" d="M465.29,-287.2C501.22,-283.28 547.73,-272.49 578,-244 606.3,-217.36 615.07,-170.49 617.78,-143.57"/>
<polygon fill="#63b8ff" stroke="#63b8ff" points="621.24,-144.2 618.55,-133.95 614.27,-143.64 621.24,-144.2"/>
</a>
</g>
</g>
<!-- Node24 -->
<g id="Node000024" class="node">
<title>Node24</title>
<g id="a_Node000024"><a xlink:title=" ">
<polygon fill="#e0e0e0" stroke="#999999" points="313.5,-188 270.5,-188 270.5,-168 313.5,-168 313.5,-188"/>
<text xml:space="preserve" text-anchor="middle" x="292" y="-174.5" font-family="Helvetica,sans-Serif" font-size="10.00">vector</text>
</a>
</g>
</g>
<!-- Node12&#45;&gt;Node24 -->
<g id="edge38_Node000012_Node000024" class="edge">
<title>Node12&#45;&gt;Node24</title>
<g id="a_edge38_Node000012_Node000024"><a xlink:title=" ">
<path fill="none" stroke="#63b8ff" d="M405.89,-279.55C395.67,-266.3 375.88,-241.85 356,-224 344,-213.22 329.36,-202.76 317.12,-194.64"/>
<polygon fill="#63b8ff" stroke="#63b8ff" points="319.07,-191.73 308.77,-189.24 315.26,-197.61 319.07,-191.73"/>
</a>
</g>
</g>
<!-- Node12&#45;&gt;Node25 -->
<g id="edge39_Node000012_Node000025" class="edge">
<title>Node12&#45;&gt;Node25</title>
<g id="a_edge39_Node000012_Node000025"><a xlink:title=" ">
<path fill="none" stroke="#63b8ff" d="M396.45,-279.59C382.1,-271.44 361.07,-259.48 344.4,-250"/>
<polygon fill="#63b8ff" stroke="#63b8ff" points="346.42,-247.13 335.99,-245.23 342.96,-253.21 346.42,-247.13"/>
</a>
</g>
</g>
<!-- Node13&#45;&gt;Node2 -->
<g id="edge15_Node000013_Node000002" class="edge">
<title>Node13&#45;&gt;Node2</title>
<g id="a_edge15_Node000013_Node000002"><a xlink:title=" ">
<path fill="none" stroke="#63b8ff" d="M384.16,-167.62C398.05,-149.44 428.86,-109.09 446.96,-85.38"/>
<polygon fill="#63b8ff" stroke="#63b8ff" points="449.65,-87.63 452.94,-77.56 444.09,-83.38 449.65,-87.63"/>
</a>
</g>
</g>
<!-- Node14 -->
<g id="Node000014" class="node">
<title>Node14</title>
<g id="a_Node000014"><a xlink:title=" ">
<polygon fill="#e0e0e0" stroke="#999999" points="384.62,-132 315.38,-132 315.38,-112 384.62,-112 384.62,-132"/>
<text xml:space="preserve" text-anchor="middle" x="350" y="-118.5" font-family="Helvetica,sans-Serif" font-size="10.00">glm/glm.hpp</text>
</a>
</g>
</g>
<!-- Node13&#45;&gt;Node14 -->
<g id="edge16_Node000013_Node000014" class="edge">
<title>Node13&#45;&gt;Node14</title>
<g id="a_edge16_Node000013_Node000014"><a xlink:title=" ">
<path fill="none" stroke="#63b8ff" d="M372.3,-167.59C368.85,-160.7 364.05,-151.1 359.79,-142.57"/>
<polygon fill="#63b8ff" stroke="#63b8ff" points="362.93,-141.03 355.33,-133.65 356.67,-144.16 362.93,-141.03"/>
</a>
</g>
</g>
<!-- Node15 -->
<g id="Node000015" class="node">
<title>Node15</title>
<g id="a_Node000015"><a xlink:title=" ">
<polygon fill="#e0e0e0" stroke="#999999" points="184,-132 66,-132 66,-112 184,-112 184,-132"/>
<text xml:space="preserve" text-anchor="middle" x="125" y="-118.5" font-family="Helvetica,sans-Serif" font-size="10.00">glm/gtx/string_cast.hpp</text>
</a>
</g>
</g>
<!-- Node13&#45;&gt;Node15 -->
<g id="edge17_Node000013_Node000015" class="edge">
<title>Node13&#45;&gt;Node15</title>
<g id="a_edge17_Node000013_Node000015"><a xlink:title=" ">
<path fill="none" stroke="#63b8ff" d="M332.82,-167.53C290.39,-158.44 226.17,-144.68 180.36,-134.86"/>
<polygon fill="#63b8ff" stroke="#63b8ff" points="181.12,-131.45 170.61,-132.77 179.66,-138.29 181.12,-131.45"/>
</a>
</g>
</g>
<!-- Node16 -->
<g id="Node000016" class="node">
<title>Node16</title>
<g id="a_Node000016"><a xlink:href="_datum_8inl.html" target="_top" xlink:title=" ">
<polygon fill="white" stroke="#666666" points="297.75,-132 202.25,-132 202.25,-112 297.75,-112 297.75,-132"/>
<text xml:space="preserve" text-anchor="middle" x="250" y="-118.5" font-family="Helvetica,sans-Serif" font-size="10.00">Content/Datum.inl</text>
</a>
</g>
</g>
<!-- Node13&#45;&gt;Node16 -->
<g id="edge18_Node000013_Node000016" class="edge">
<title>Node13&#45;&gt;Node16</title>
<g id="a_edge18_Node000013_Node000016"><a xlink:title=" ">
<path fill="none" stroke="#63b8ff" d="M349.61,-167.59C328.2,-159.21 298.78,-146.8 277.39,-137.21"/>
<polygon fill="#63b8ff" stroke="#63b8ff" points="278.94,-134.07 268.39,-133.11 276.04,-140.44 278.94,-134.07"/>
</a>
</g>
</g>
<!-- Node16&#45;&gt;Node13 -->
<g id="edge19_Node000016_Node000013" class="edge">
<title>Node16&#45;&gt;Node13</title>
<g id="a_edge19_Node000016_Node000013"><a xlink:title=" ">
<path fill="none" stroke="#63b8ff" d="M277.58,-132.48C299.03,-140.89 328.45,-153.3 349.8,-162.88"/>
<polygon fill="#63b8ff" stroke="#63b8ff" points="348.22,-166 358.77,-166.97 351.12,-159.63 348.22,-166"/>
</a>
</g>
</g>
<!-- Node17&#45;&gt;Node2 -->
<g id="edge21_Node000017_Node000002" class="edge">
<title>Node17&#45;&gt;Node2</title>
<g id="a_edge21_Node000017_Node000002"><a xlink:title=" ">
<path fill="none" stroke="#63b8ff" d="M520.43,-223.6C510.47,-197.35 482.19,-122.84 468.55,-86.89"/>
<polygon fill="#63b8ff" stroke="#63b8ff" points="471.89,-85.82 465.07,-77.71 465.34,-88.3 471.89,-85.82"/>
</a>
</g>
</g>
<!-- Node17&#45;&gt;Node13 -->
<g id="edge26_Node000017_Node000013" class="edge">
<title>Node17&#45;&gt;Node13</title>
<g id="a_edge26_Node000017_Node000013"><a xlink:title=" ">
<path fill="none" stroke="#63b8ff" d="M498.39,-223.59C474.93,-214.97 439.93,-202.12 413.53,-192.42"/>
<polygon fill="#63b8ff" stroke="#63b8ff" points="414.82,-189.16 404.23,-189 412.41,-195.73 414.82,-189.16"/>
</a>
</g>
</g>
<!-- Node17&#45;&gt;Node18 -->
<g id="edge22_Node000017_Node000018" class="edge">
<title>Node17&#45;&gt;Node18</title>
<g id="a_edge22_Node000017_Node000018"><a xlink:title=" ">
<path fill="none" stroke="#63b8ff" d="M532.1,-223.62C547.87,-205.36 582.96,-164.73 603.4,-141.07"/>
<polygon fill="#63b8ff" stroke="#63b8ff" points="606.04,-143.36 609.93,-133.5 600.75,-138.78 606.04,-143.36"/>
</a>
</g>
</g>
<!-- Node17&#45;&gt;Node20 -->
<g id="edge27_Node000017_Node000020" class="edge">
<title>Node17&#45;&gt;Node20</title>
<g id="a_edge27_Node000017_Node000020"><a xlink:title=" ">
<path fill="none" stroke="#63b8ff" d="M556.57,-223.59C587.22,-214.74 633.34,-201.43 667.2,-191.65"/>
<polygon fill="#63b8ff" stroke="#63b8ff" points="668.08,-195.04 676.72,-188.9 666.14,-188.31 668.08,-195.04"/>
</a>
</g>
</g>
<!-- Node22 -->
<g id="Node000022" class="node">
<title>Node22</title>
<g id="a_Node000022"><a xlink:title=" ">
<polygon fill="#e0e0e0" stroke="#999999" points="998.38,-76 915.62,-76 915.62,-56 998.38,-56 998.38,-76"/>
<text xml:space="preserve" text-anchor="middle" x="957" y="-62.5" font-family="Helvetica,sans-Serif" font-size="10.00">unordered_map</text>
</a>
</g>
</g>
<!-- Node17&#45;&gt;Node22 -->
<g id="edge36_Node000017_Node000022" class="edge">
<title>Node17&#45;&gt;Node22</title>
<g id="a_edge36_Node000017_Node000022"><a xlink:title=" ">
<path fill="none" stroke="#63b8ff" d="M568.95,-229.88C670.74,-221.73 913.48,-195.85 958,-132 966.99,-119.11 965.9,-101.02 963.04,-87.19"/>
<polygon fill="#63b8ff" stroke="#63b8ff" points="966.52,-86.67 960.66,-77.85 959.74,-88.4 966.52,-86.67"/>
</a>
</g>
</g>
<!-- Node17&#45;&gt;Node24 -->
<g id="edge35_Node000017_Node000024" class="edge">
<title>Node17&#45;&gt;Node24</title>
<g id="a_edge35_Node000017_Node000024"><a xlink:title=" ">
<path fill="none" stroke="#63b8ff" d="M479.1,-223.79C440.64,-215.7 383.52,-203.26 324.92,-188.37"/>
<polygon fill="#63b8ff" stroke="#63b8ff" points="325.99,-185.03 315.44,-185.94 324.25,-191.81 325.99,-185.03"/>
</a>
</g>
</g>
<!-- Node18&#45;&gt;Node2 -->
<g id="edge23_Node000018_Node000002" class="edge">
<title>Node18&#45;&gt;Node2</title>
<g id="a_edge23_Node000018_Node000002"><a xlink:title=" ">
<path fill="none" stroke="#63b8ff" d="M591.48,-111.59C566.03,-102.9 527.97,-89.89 499.51,-80.16"/>
<polygon fill="#63b8ff" stroke="#63b8ff" points="500.76,-76.89 490.17,-76.97 498.5,-83.52 500.76,-76.89"/>
</a>
</g>
</g>
<!-- Node19 -->
<g id="Node000019" class="node">
<title>Node19</title>
<g id="a_Node000019"><a xlink:href="_r_t_t_i_8inl.html" target="_top" xlink:title=" ">
<polygon fill="white" stroke="#666666" points="685.12,-76 552.88,-76 552.88,-56 685.12,-56 685.12,-76"/>
<text xml:space="preserve" text-anchor="middle" x="619" y="-62.5" font-family="Helvetica,sans-Serif" font-size="10.00">FIEAGameEngine/RTTI.inl</text>
</a>
</g>
</g>
<!-- Node18&#45;&gt;Node19 -->
<g id="edge24_Node000018_Node000019" class="edge">
<title>Node18&#45;&gt;Node19</title>
<g id="a_edge24_Node000018_Node000019"><a xlink:title=" ">
<path fill="none" stroke="#63b8ff" d="M613.73,-111.59C612.42,-105.01 611.98,-95.96 612.41,-87.73"/>
<polygon fill="#63b8ff" stroke="#63b8ff" points="615.89,-88.14 613.58,-77.8 608.94,-87.33 615.89,-88.14"/>
</a>
</g>
</g>
<!-- Node19&#45;&gt;Node18 -->
<g id="edge25_Node000019_Node000018" class="edge">
<title>Node19&#45;&gt;Node18</title>
<g id="a_edge25_Node000019_Node000018"><a xlink:title=" ">
<path fill="none" stroke="#63b8ff" d="M624.25,-76.3C625.59,-82.93 626.03,-92.11 625.58,-100.43"/>
<polygon fill="#63b8ff" stroke="#63b8ff" points="622.13,-99.75 624.44,-110.09 629.08,-100.57 622.13,-99.75"/>
</a>
</g>
</g>
<!-- Node20&#45;&gt;Node2 -->
<g id="edge28_Node000020_Node000002" class="edge">
<title>Node20&#45;&gt;Node2</title>
<g id="a_edge28_Node000020_Node000002"><a xlink:title=" ">
<path fill="none" stroke="#63b8ff" d="M655.96,-167.55C622.93,-160.54 580.73,-149.19 546,-132 520.43,-119.35 494.95,-98.49 478.66,-83.82"/>
<polygon fill="#63b8ff" stroke="#63b8ff" points="481.44,-81.62 471.72,-77.42 476.7,-86.77 481.44,-81.62"/>
</a>
</g>
</g>
<!-- Node20&#45;&gt;Node18 -->
<g id="edge29_Node000020_Node000018" class="edge">
<title>Node20&#45;&gt;Node18</title>
<g id="a_edge29_Node000020_Node000018"><a xlink:title=" ">
<path fill="none" stroke="#63b8ff" d="M694.97,-167.59C681.21,-159.51 661.1,-147.71 645.02,-138.27"/>
<polygon fill="#63b8ff" stroke="#63b8ff" points="646.85,-135.29 636.46,-133.25 643.31,-141.33 646.85,-135.29"/>
</a>
</g>
</g>
<!-- Node21 -->
<g id="Node000021" class="node">
<title>Node21</title>
<g id="a_Node000021"><a xlink:href="_service_mgr_8h.html" target="_top" xlink:title=" ">
<polygon fill="white" stroke="#666666" points="856.75,-132 701.25,-132 701.25,-112 856.75,-112 856.75,-132"/>
<text xml:space="preserve" text-anchor="middle" x="779" y="-118.5" font-family="Helvetica,sans-Serif" font-size="10.00">FIEAGameEngine/ServiceMgr.h</text>
</a>
</g>
</g>
<!-- Node20&#45;&gt;Node21 -->
<g id="edge30_Node000020_Node000021" class="edge">
<title>Node20&#45;&gt;Node21</title>
<g id="a_edge30_Node000020_Node000021"><a xlink:title=" ">
<path fill="none" stroke="#63b8ff" d="M722.84,-167.59C732.69,-159.77 746.93,-148.46 758.61,-139.19"/>
<polygon fill="#63b8ff" stroke="#63b8ff" points="760.45,-142.2 766.11,-133.24 756.1,-136.72 760.45,-142.2"/>
</a>
</g>
</g>
<!-- Node20&#45;&gt;Node22 -->
<g id="edge34_Node000020_Node000022" class="edge">
<title>Node20&#45;&gt;Node22</title>
<g id="a_edge34_Node000020_Node000022"><a xlink:title=" ">
<path fill="none" stroke="#63b8ff" d="M797.29,-169.17C852.48,-162.45 917.44,-150.82 938,-132 950.34,-120.71 954.84,-101.88 956.39,-87.39"/>
<polygon fill="#63b8ff" stroke="#63b8ff" points="959.87,-87.78 957.03,-77.58 952.89,-87.33 959.87,-87.78"/>
</a>
</g>
</g>
<!-- Node23 -->
<g id="Node000023" class="node">
<title>Node23</title>
<g id="a_Node000023"><a xlink:title=" ">
<polygon fill="#e0e0e0" stroke="#999999" points="928.75,-132 875.25,-132 875.25,-112 928.75,-112 928.75,-132"/>
<text xml:space="preserve" text-anchor="middle" x="902" y="-118.5" font-family="Helvetica,sans-Serif" font-size="10.00">iostream</text>
</a>
</g>
</g>
<!-- Node20&#45;&gt;Node23 -->
<g id="edge33_Node000020_Node000023" class="edge">
<title>Node20&#45;&gt;Node23</title>
<g id="a_edge33_Node000020_Node000023"><a xlink:title=" ">
<path fill="none" stroke="#63b8ff" d="M744.27,-167.59C777.74,-158.13 829.26,-143.57 864.24,-133.68"/>
<polygon fill="#63b8ff" stroke="#63b8ff" points="864.84,-137.14 873.51,-131.05 862.94,-130.41 864.84,-137.14"/>
</a>
</g>
</g>
<!-- Node21&#45;&gt;Node2 -->
<g id="edge31_Node000021_Node000002" class="edge">
<title>Node21&#45;&gt;Node2</title>
<g id="a_edge31_Node000021_Node000002"><a xlink:title=" ">
<path fill="none" stroke="#63b8ff" d="M723.24,-111.53C668.8,-102.29 585.92,-88.21 527.94,-78.37"/>
<polygon fill="#63b8ff" stroke="#63b8ff" points="528.63,-74.93 518.18,-76.71 527.46,-81.84 528.63,-74.93"/>
</a>
</g>
</g>
<!-- Node21&#45;&gt;Node22 -->
<g id="edge32_Node000021_Node000022" class="edge">
<title>Node21&#45;&gt;Node22</title>
<g id="a_edge32_Node000021_Node000022"><a xlink:title=" ">
<path fill="none" stroke="#63b8ff" d="M810.01,-111.59C839.05,-102.78 882.7,-89.54 914.89,-79.78"/>
<polygon fill="#63b8ff" stroke="#63b8ff" points="915.75,-83.17 924.3,-76.92 913.72,-76.47 915.75,-83.17"/>
</a>
</g>
</g>
</g>
</svg>
