<?xml version="1.0" encoding="UTF-8" standalone="no"?>
<!DOCTYPE svg PUBLIC "-//W3C//DTD SVG 1.1//EN"
 "http://www.w3.org/Graphics/SVG/1.1/DTD/svg11.dtd">
<!-- Generated by graphviz version 13.1.0 (20250701.0955)
 -->
<!-- Title: FIEAGameEngine/include/FIEAGameEngine/Action.h Pages: 1 -->
<svg width="952pt" height="376pt"
 viewBox="0.00 0.00 952.00 376.00" xmlns="http://www.w3.org/2000/svg" xmlns:xlink="http://www.w3.org/1999/xlink">
<g id="graph0" class="graph" transform="scale(1 1) rotate(0) translate(4 372)">
<title>FIEAGameEngine/include/FIEAGameEngine/Action.h</title>
<!-- Node1 -->
<g id="Node000001" class="node">
<title>Node1</title>
<g id="a_Node000001"><a xlink:title=" ">
<polygon fill="#999999" stroke="#666666" points="588.38,-368 451.62,-368 451.62,-336 588.38,-336 588.38,-368"/>
<text xml:space="preserve" text-anchor="start" x="459.62" y="-354.5" font-family="Helvetica,sans-Serif" font-size="10.00">FIEAGameEngine/include</text>
<text xml:space="preserve" text-anchor="middle" x="520" y="-342.5" font-family="Helvetica,sans-Serif" font-size="10.00">/FIEAGameEngine/Action.h</text>
</a>
</g>
</g>
<!-- Node2 -->
<g id="Node000002" class="node">
<title>Node2</title>
<g id="a_Node000002"><a xlink:href="_types_8h.html" target="_top" xlink:title=" ">
<polygon fill="white" stroke="#666666" points="480.12,-76 347.88,-76 347.88,-56 480.12,-56 480.12,-76"/>
<text xml:space="preserve" text-anchor="middle" x="414" y="-62.5" font-family="Helvetica,sans-Serif" font-size="10.00">FIEAGameEngine/Types.h</text>
</a>
</g>
</g>
<!-- Node1&#45;&gt;Node2 -->
<g id="edge1_Node000001_Node000002" class="edge">
<title>Node1&#45;&gt;Node2</title>
<g id="a_edge1_Node000001_Node000002"><a xlink:title=" ">
<path fill="none" stroke="#63b8ff" d="M451.22,-349.91C309.89,-345.81 0,-326.4 0,-235 0,-235 0,-235 0,-177 0,-140.82 17.67,-130.09 49,-112 96.37,-84.64 243.86,-73.75 336.21,-69.53"/>
<polygon fill="#63b8ff" stroke="#63b8ff" points="336.12,-73.04 345.95,-69.11 335.81,-66.05 336.12,-73.04"/>
</a>
</g>
</g>
<!-- Node11 -->
<g id="Node000011" class="node">
<title>Node11</title>
<g id="a_Node000011"><a xlink:href="_attributed_8h.html" target="_top" xlink:title=" ">
<polygon fill="white" stroke="#666666" points="506.88,-300 403.12,-300 403.12,-280 506.88,-280 506.88,-300"/>
<text xml:space="preserve" text-anchor="middle" x="455" y="-286.5" font-family="Helvetica,sans-Serif" font-size="10.00">Content/Attributed.h</text>
</a>
</g>
</g>
<!-- Node1&#45;&gt;Node11 -->
<g id="edge10_Node000001_Node000011" class="edge">
<title>Node1&#45;&gt;Node11</title>
<g id="a_edge10_Node000001_Node000011"><a xlink:title=" ">
<path fill="none" stroke="#63b8ff" d="M503.26,-335.55C494.14,-327.13 482.83,-316.69 473.46,-308.04"/>
<polygon fill="#63b8ff" stroke="#63b8ff" points="476.03,-305.65 466.3,-301.43 471.28,-310.79 476.03,-305.65"/>
</a>
</g>
</g>
<!-- Node19 -->
<g id="Node000019" class="node">
<title>Node19</title>
<g id="a_Node000019"><a xlink:href="_factory_service_8h.html" target="_top" xlink:title=" ">
<polygon fill="white" stroke="#666666" points="728,-188 556,-188 556,-168 728,-168 728,-188"/>
<text xml:space="preserve" text-anchor="middle" x="642" y="-174.5" font-family="Helvetica,sans-Serif" font-size="10.00">FIEAGameEngine/FactoryService.h</text>
</a>
</g>
</g>
<!-- Node1&#45;&gt;Node19 -->
<g id="edge38_Node000001_Node000019" class="edge">
<title>Node1&#45;&gt;Node19</title>
<g id="a_edge38_Node000001_Node000019"><a xlink:title=" ">
<path fill="none" stroke="#63b8ff" d="M539.62,-335.73C562.81,-316.66 601.02,-281.92 623,-244 630.95,-230.28 635.8,-212.97 638.61,-199.67"/>
<polygon fill="#63b8ff" stroke="#63b8ff" points="642.04,-200.34 640.43,-189.87 635.16,-199.06 642.04,-200.34"/>
</a>
</g>
</g>
<!-- Node24 -->
<g id="Node000024" class="node">
<title>Node24</title>
<g id="a_Node000024"><a xlink:title=" ">
<polygon fill="#e0e0e0" stroke="#999999" points="614,-244 556,-244 556,-224 614,-224 614,-244"/>
<text xml:space="preserve" text-anchor="middle" x="585" y="-230.5" font-family="Helvetica,sans-Serif" font-size="10.00">functional</text>
</a>
</g>
</g>
<!-- Node1&#45;&gt;Node24 -->
<g id="edge39_Node000001_Node000024" class="edge">
<title>Node1&#45;&gt;Node24</title>
<g id="a_edge39_Node000001_Node000024"><a xlink:title=" ">
<path fill="none" stroke="#63b8ff" d="M528.5,-335.84C540.21,-314.94 561.31,-277.27 574.15,-254.36"/>
<polygon fill="#63b8ff" stroke="#63b8ff" points="577.14,-256.19 578.97,-245.76 571.03,-252.77 577.14,-256.19"/>
</a>
</g>
</g>
<!-- Node3 -->
<g id="Node000003" class="node">
<title>Node3</title>
<g id="a_Node000003"><a xlink:title=" ">
<polygon fill="#e0e0e0" stroke="#999999" points="194,-20 34,-20 34,0 194,0 194,-20"/>
<text xml:space="preserve" text-anchor="middle" x="114" y="-6.5" font-family="Helvetica,sans-Serif" font-size="10.00">../src/Memory/SystemAllocator.h</text>
</a>
</g>
</g>
<!-- Node2&#45;&gt;Node3 -->
<g id="edge2_Node000002_Node000003" class="edge">
<title>Node2&#45;&gt;Node3</title>
<g id="a_edge2_Node000002_Node000003"><a xlink:title=" ">
<path fill="none" stroke="#63b8ff" d="M361.4,-55.53C310.26,-46.33 232.5,-32.33 177.83,-22.49"/>
<polygon fill="#63b8ff" stroke="#63b8ff" points="178.49,-19.05 168.03,-20.73 177.25,-25.94 178.49,-19.05"/>
</a>
</g>
</g>
<!-- Node4 -->
<g id="Node000004" class="node">
<title>Node4</title>
<g id="a_Node000004"><a xlink:title=" ">
<polygon fill="#e0e0e0" stroke="#999999" points="274.25,-20 211.75,-20 211.75,0 274.25,0 274.25,-20"/>
<text xml:space="preserve" text-anchor="middle" x="243" y="-6.5" font-family="Helvetica,sans-Serif" font-size="10.00">windows.h</text>
</a>
</g>
</g>
<!-- Node2&#45;&gt;Node4 -->
<g id="edge3_Node000002_Node000004" class="edge">
<title>Node2&#45;&gt;Node4</title>
<g id="a_edge3_Node000002_Node000004"><a xlink:title=" ">
<path fill="none" stroke="#63b8ff" d="M384.21,-55.59C356.43,-46.82 314.75,-33.66 283.86,-23.9"/>
<polygon fill="#63b8ff" stroke="#63b8ff" points="285.05,-20.61 274.46,-20.94 282.94,-27.28 285.05,-20.61"/>
</a>
</g>
</g>
<!-- Node5 -->
<g id="Node000005" class="node">
<title>Node5</title>
<g id="a_Node000005"><a xlink:title=" ">
<polygon fill="#e0e0e0" stroke="#999999" points="340.12,-20 291.88,-20 291.88,0 340.12,0 340.12,-20"/>
<text xml:space="preserve" text-anchor="middle" x="316" y="-6.5" font-family="Helvetica,sans-Serif" font-size="10.00">cassert</text>
</a>
</g>
</g>
<!-- Node2&#45;&gt;Node5 -->
<g id="edge4_Node000002_Node000005" class="edge">
<title>Node2&#45;&gt;Node5</title>
<g id="a_edge4_Node000002_Node000005"><a xlink:title=" ">
<path fill="none" stroke="#63b8ff" d="M396.93,-55.59C382.12,-47.44 360.43,-35.48 343.23,-26"/>
<polygon fill="#63b8ff" stroke="#63b8ff" points="344.98,-22.97 334.53,-21.21 341.6,-29.1 344.98,-22.97"/>
</a>
</g>
</g>
<!-- Node6 -->
<g id="Node000006" class="node">
<title>Node6</title>
<g id="a_Node000006"><a xlink:title=" ">
<polygon fill="#e0e0e0" stroke="#999999" points="406.12,-20 357.88,-20 357.88,0 406.12,0 406.12,-20"/>
<text xml:space="preserve" text-anchor="middle" x="382" y="-6.5" font-family="Helvetica,sans-Serif" font-size="10.00">cstddef</text>
</a>
</g>
</g>
<!-- Node2&#45;&gt;Node6 -->
<g id="edge5_Node000002_Node000006" class="edge">
<title>Node2&#45;&gt;Node6</title>
<g id="a_edge5_Node000002_Node000006"><a xlink:title=" ">
<path fill="none" stroke="#63b8ff" d="M408.43,-55.59C404.25,-48.55 398.4,-38.67 393.26,-30"/>
<polygon fill="#63b8ff" stroke="#63b8ff" points="396.39,-28.42 388.28,-21.6 390.37,-31.99 396.39,-28.42"/>
</a>
</g>
</g>
<!-- Node7 -->
<g id="Node000007" class="node">
<title>Node7</title>
<g id="a_Node000007"><a xlink:title=" ">
<polygon fill="#e0e0e0" stroke="#999999" points="469.62,-20 424.38,-20 424.38,0 469.62,0 469.62,-20"/>
<text xml:space="preserve" text-anchor="middle" x="447" y="-6.5" font-family="Helvetica,sans-Serif" font-size="10.00">cstdint</text>
</a>
</g>
</g>
<!-- Node2&#45;&gt;Node7 -->
<g id="edge6_Node000002_Node000007" class="edge">
<title>Node2&#45;&gt;Node7</title>
<g id="a_edge6_Node000002_Node000007"><a xlink:title=" ">
<path fill="none" stroke="#63b8ff" d="M419.75,-55.59C424.05,-48.55 430.09,-38.67 435.39,-30"/>
<polygon fill="#63b8ff" stroke="#63b8ff" points="438.3,-31.95 440.53,-21.59 432.33,-28.3 438.3,-31.95"/>
</a>
</g>
</g>
<!-- Node8 -->
<g id="Node000008" class="node">
<title>Node8</title>
<g id="a_Node000008"><a xlink:title=" ">
<polygon fill="#e0e0e0" stroke="#999999" points="540.38,-20 487.62,-20 487.62,0 540.38,0 540.38,-20"/>
<text xml:space="preserve" text-anchor="middle" x="514" y="-6.5" font-family="Helvetica,sans-Serif" font-size="10.00">cstdbool</text>
</a>
</g>
</g>
<!-- Node2&#45;&gt;Node8 -->
<g id="edge7_Node000002_Node000008" class="edge">
<title>Node2&#45;&gt;Node8</title>
<g id="a_edge7_Node000002_Node000008"><a xlink:title=" ">
<path fill="none" stroke="#63b8ff" d="M431.42,-55.59C446.67,-47.36 469.08,-35.26 486.71,-25.74"/>
<polygon fill="#63b8ff" stroke="#63b8ff" points="487.98,-29.03 495.11,-21.2 484.65,-22.87 487.98,-29.03"/>
</a>
</g>
</g>
<!-- Node9 -->
<g id="Node000009" class="node">
<title>Node9</title>
<g id="a_Node000009"><a xlink:title=" ">
<polygon fill="#e0e0e0" stroke="#999999" points="598,-20 558,-20 558,0 598,0 598,-20"/>
<text xml:space="preserve" text-anchor="middle" x="578" y="-6.5" font-family="Helvetica,sans-Serif" font-size="10.00">string</text>
</a>
</g>
</g>
<!-- Node2&#45;&gt;Node9 -->
<g id="edge8_Node000002_Node000009" class="edge">
<title>Node2&#45;&gt;Node9</title>
<g id="a_edge8_Node000002_Node000009"><a xlink:title=" ">
<path fill="none" stroke="#63b8ff" d="M442.57,-55.59C471.7,-46 516.77,-31.16 546.81,-21.27"/>
<polygon fill="#63b8ff" stroke="#63b8ff" points="547.69,-24.67 556.09,-18.21 545.5,-18.02 547.69,-24.67"/>
</a>
</g>
</g>
<!-- Node10 -->
<g id="Node000010" class="node">
<title>Node10</title>
<g id="a_Node000010"><a xlink:title=" ">
<polygon fill="#e0e0e0" stroke="#999999" points="670.12,-20 615.88,-20 615.88,0 670.12,0 670.12,-20"/>
<text xml:space="preserve" text-anchor="middle" x="643" y="-6.5" font-family="Helvetica,sans-Serif" font-size="10.00">crtdefs.h</text>
</a>
</g>
</g>
<!-- Node2&#45;&gt;Node10 -->
<g id="edge9_Node000002_Node000010" class="edge">
<title>Node2&#45;&gt;Node10</title>
<g id="a_edge9_Node000002_Node000010"><a xlink:title=" ">
<path fill="none" stroke="#63b8ff" d="M455.46,-55.53C492.2,-47.1 547.61,-34.27 604.48,-20.58"/>
<polygon fill="#63b8ff" stroke="#63b8ff" points="605.12,-24.03 614.02,-18.28 603.48,-17.22 605.12,-24.03"/>
</a>
</g>
</g>
<!-- Node11&#45;&gt;Node2 -->
<g id="edge11_Node000011_Node000002" class="edge">
<title>Node11&#45;&gt;Node2</title>
<g id="a_edge11_Node000011_Node000002"><a xlink:title=" ">
<path fill="none" stroke="#63b8ff" d="M402.66,-286.12C313.85,-278.08 135.67,-247.6 57,-132 52,-124.65 51.12,-118.67 57,-112 75.18,-91.39 237.04,-77.85 336.47,-71.4"/>
<polygon fill="#63b8ff" stroke="#63b8ff" points="336.41,-74.91 346.17,-70.78 335.97,-67.93 336.41,-74.91"/>
</a>
</g>
</g>
<!-- Node12 -->
<g id="Node000012" class="node">
<title>Node12</title>
<g id="a_Node000012"><a xlink:href="_datum_8h.html" target="_top" xlink:title=" ">
<polygon fill="white" stroke="#666666" points="362.5,-188 271.5,-188 271.5,-168 362.5,-168 362.5,-188"/>
<text xml:space="preserve" text-anchor="middle" x="317" y="-174.5" font-family="Helvetica,sans-Serif" font-size="10.00">Content/Datum.h</text>
</a>
</g>
</g>
<!-- Node11&#45;&gt;Node12 -->
<g id="edge12_Node000011_Node000012" class="edge">
<title>Node11&#45;&gt;Node12</title>
<g id="a_edge12_Node000011_Node000012"><a xlink:title=" ">
<path fill="none" stroke="#63b8ff" d="M440.96,-279.53C428.01,-270.67 408.37,-256.89 392,-244 372.05,-228.28 350.21,-209.12 335.27,-195.68"/>
<polygon fill="#63b8ff" stroke="#63b8ff" points="337.82,-193.27 328.06,-189.16 333.12,-198.46 337.82,-193.27"/>
</a>
</g>
</g>
<!-- Node16 -->
<g id="Node000016" class="node">
<title>Node16</title>
<g id="a_Node000016"><a xlink:href="_scope_8h.html" target="_top" xlink:title=" ">
<polygon fill="white" stroke="#666666" points="499.75,-244 410.25,-244 410.25,-224 499.75,-224 499.75,-244"/>
<text xml:space="preserve" text-anchor="middle" x="455" y="-230.5" font-family="Helvetica,sans-Serif" font-size="10.00">Content/Scope.h</text>
</a>
</g>
</g>
<!-- Node11&#45;&gt;Node16 -->
<g id="edge18_Node000011_Node000016" class="edge">
<title>Node11&#45;&gt;Node16</title>
<g id="a_edge18_Node000011_Node000016"><a xlink:title=" ">
<path fill="none" stroke="#63b8ff" d="M455,-279.59C455,-273.01 455,-263.96 455,-255.73"/>
<polygon fill="#63b8ff" stroke="#63b8ff" points="458.5,-255.81 455,-245.81 451.5,-255.81 458.5,-255.81"/>
</a>
</g>
</g>
<!-- Node17 -->
<g id="Node000017" class="node">
<title>Node17</title>
<g id="a_Node000017"><a xlink:href="_r_t_t_i_8h.html" target="_top" xlink:title=" ">
<polygon fill="white" stroke="#666666" points="607.88,-132 480.12,-132 480.12,-112 607.88,-112 607.88,-132"/>
<text xml:space="preserve" text-anchor="middle" x="544" y="-118.5" font-family="Helvetica,sans-Serif" font-size="10.00">FIEAGameEngine/RTTI.h</text>
</a>
</g>
</g>
<!-- Node11&#45;&gt;Node17 -->
<g id="edge35_Node000011_Node000017" class="edge">
<title>Node11&#45;&gt;Node17</title>
<g id="a_edge35_Node000011_Node000017"><a xlink:title=" ">
<path fill="none" stroke="#63b8ff" d="M470.45,-279.8C482.62,-271.8 499.12,-259.12 509,-244 529.57,-212.52 538.3,-168.74 541.81,-143.39"/>
<polygon fill="#63b8ff" stroke="#63b8ff" points="545.25,-144.11 542.99,-133.76 538.3,-143.26 545.25,-144.11"/>
</a>
</g>
</g>
<!-- Node23 -->
<g id="Node000023" class="node">
<title>Node23</title>
<g id="a_Node000023"><a xlink:title=" ">
<polygon fill="#e0e0e0" stroke="#999999" points="423.5,-188 380.5,-188 380.5,-168 423.5,-168 423.5,-188"/>
<text xml:space="preserve" text-anchor="middle" x="402" y="-174.5" font-family="Helvetica,sans-Serif" font-size="10.00">vector</text>
</a>
</g>
</g>
<!-- Node11&#45;&gt;Node23 -->
<g id="edge36_Node000011_Node000023" class="edge">
<title>Node11&#45;&gt;Node23</title>
<g id="a_edge36_Node000011_Node000023"><a xlink:title=" ">
<path fill="none" stroke="#63b8ff" d="M436.78,-279.51C424.16,-271.82 408.35,-259.69 401,-244 394.54,-230.21 395.17,-212.91 397.2,-199.62"/>
<polygon fill="#63b8ff" stroke="#63b8ff" points="400.63,-200.33 399.11,-189.84 393.76,-198.99 400.63,-200.33"/>
</a>
</g>
</g>
<!-- Node11&#45;&gt;Node24 -->
<g id="edge37_Node000011_Node000024" class="edge">
<title>Node11&#45;&gt;Node24</title>
<g id="a_edge37_Node000011_Node000024"><a xlink:title=" ">
<path fill="none" stroke="#63b8ff" d="M477.64,-279.59C498.12,-271.09 528.52,-258.46 551.75,-248.81"/>
<polygon fill="#63b8ff" stroke="#63b8ff" points="552.89,-252.13 560.78,-245.06 550.2,-245.66 552.89,-252.13"/>
</a>
</g>
</g>
<!-- Node12&#45;&gt;Node2 -->
<g id="edge13_Node000012_Node000002" class="edge">
<title>Node12&#45;&gt;Node2</title>
<g id="a_edge13_Node000012_Node000002"><a xlink:title=" ">
<path fill="none" stroke="#63b8ff" d="M343.69,-167.63C360.67,-160.37 381.86,-148.72 395,-132 405.01,-119.26 409.75,-101.4 411.99,-87.62"/>
<polygon fill="#63b8ff" stroke="#63b8ff" points="415.44,-88.25 413.24,-77.89 408.5,-87.36 415.44,-88.25"/>
</a>
</g>
</g>
<!-- Node13 -->
<g id="Node000013" class="node">
<title>Node13</title>
<g id="a_Node000013"><a xlink:title=" ">
<polygon fill="#e0e0e0" stroke="#999999" points="135.62,-132 66.38,-132 66.38,-112 135.62,-112 135.62,-132"/>
<text xml:space="preserve" text-anchor="middle" x="101" y="-118.5" font-family="Helvetica,sans-Serif" font-size="10.00">glm/glm.hpp</text>
</a>
</g>
</g>
<!-- Node12&#45;&gt;Node13 -->
<g id="edge14_Node000012_Node000013" class="edge">
<title>Node12&#45;&gt;Node13</title>
<g id="a_edge14_Node000012_Node000013"><a xlink:title=" ">
<path fill="none" stroke="#63b8ff" d="M279.38,-167.59C242.63,-158.41 186.64,-144.41 147.21,-134.55"/>
<polygon fill="#63b8ff" stroke="#63b8ff" points="148.07,-131.16 137.52,-132.13 146.37,-137.95 148.07,-131.16"/>
</a>
</g>
</g>
<!-- Node14 -->
<g id="Node000014" class="node">
<title>Node14</title>
<g id="a_Node000014"><a xlink:title=" ">
<polygon fill="#e0e0e0" stroke="#999999" points="272,-132 154,-132 154,-112 272,-112 272,-132"/>
<text xml:space="preserve" text-anchor="middle" x="213" y="-118.5" font-family="Helvetica,sans-Serif" font-size="10.00">glm/gtx/string_cast.hpp</text>
</a>
</g>
</g>
<!-- Node12&#45;&gt;Node14 -->
<g id="edge15_Node000012_Node000014" class="edge">
<title>Node12&#45;&gt;Node14</title>
<g id="a_edge15_Node000012_Node000014"><a xlink:title=" ">
<path fill="none" stroke="#63b8ff" d="M298.88,-167.59C283.03,-159.36 259.72,-147.26 241.38,-137.74"/>
<polygon fill="#63b8ff" stroke="#63b8ff" points="243.09,-134.68 232.6,-133.18 239.86,-140.89 243.09,-134.68"/>
</a>
</g>
</g>
<!-- Node15 -->
<g id="Node000015" class="node">
<title>Node15</title>
<g id="a_Node000015"><a xlink:href="_datum_8inl.html" target="_top" xlink:title=" ">
<polygon fill="white" stroke="#666666" points="385.75,-132 290.25,-132 290.25,-112 385.75,-112 385.75,-132"/>
<text xml:space="preserve" text-anchor="middle" x="338" y="-118.5" font-family="Helvetica,sans-Serif" font-size="10.00">Content/Datum.inl</text>
</a>
</g>
</g>
<!-- Node12&#45;&gt;Node15 -->
<g id="edge16_Node000012_Node000015" class="edge">
<title>Node12&#45;&gt;Node15</title>
<g id="a_edge16_Node000012_Node000015"><a xlink:title=" ">
<path fill="none" stroke="#63b8ff" d="M315.39,-167.59C316.71,-160.63 320.08,-150.89 324,-142.29"/>
<polygon fill="#63b8ff" stroke="#63b8ff" points="326.98,-144.14 328.45,-133.64 320.76,-140.94 326.98,-144.14"/>
</a>
</g>
</g>
<!-- Node15&#45;&gt;Node12 -->
<g id="edge17_Node000015_Node000012" class="edge">
<title>Node15&#45;&gt;Node12</title>
<g id="a_edge17_Node000015_Node000012"><a xlink:title=" ">
<path fill="none" stroke="#63b8ff" d="M339.63,-132.3C338.34,-139.24 334.97,-148.97 331.06,-157.58"/>
<polygon fill="#63b8ff" stroke="#63b8ff" points="328.06,-155.75 326.62,-166.25 334.29,-158.95 328.06,-155.75"/>
</a>
</g>
</g>
<!-- Node16&#45;&gt;Node2 -->
<g id="edge19_Node000016_Node000002" class="edge">
<title>Node16&#45;&gt;Node2</title>
<g id="a_edge19_Node000016_Node000002"><a xlink:title=" ">
<path fill="none" stroke="#63b8ff" d="M452.68,-223.6C446.22,-197.46 427.95,-123.48 419.03,-87.36"/>
<polygon fill="#63b8ff" stroke="#63b8ff" points="422.46,-86.64 416.66,-77.77 415.66,-88.31 422.46,-86.64"/>
</a>
</g>
</g>
<!-- Node16&#45;&gt;Node12 -->
<g id="edge24_Node000016_Node000012" class="edge">
<title>Node16&#45;&gt;Node12</title>
<g id="a_edge24_Node000016_Node000012"><a xlink:title=" ">
<path fill="none" stroke="#63b8ff" d="M430.96,-223.59C409.03,-215.01 376.37,-202.23 351.63,-192.55"/>
<polygon fill="#63b8ff" stroke="#63b8ff" points="353.22,-189.42 342.63,-189.03 350.67,-195.93 353.22,-189.42"/>
</a>
</g>
</g>
<!-- Node16&#45;&gt;Node17 -->
<g id="edge20_Node000016_Node000017" class="edge">
<title>Node16&#45;&gt;Node17</title>
<g id="a_edge20_Node000016_Node000017"><a xlink:title=" ">
<path fill="none" stroke="#63b8ff" d="M462.59,-223.62C477.37,-205.36 510.23,-164.73 529.38,-141.07"/>
<polygon fill="#63b8ff" stroke="#63b8ff" points="531.91,-143.51 535.48,-133.53 526.47,-139.1 531.91,-143.51"/>
</a>
</g>
</g>
<!-- Node16&#45;&gt;Node19 -->
<g id="edge25_Node000016_Node000019" class="edge">
<title>Node16&#45;&gt;Node19</title>
<g id="a_edge25_Node000016_Node000019"><a xlink:title=" ">
<path fill="none" stroke="#63b8ff" d="M487.57,-223.59C518.22,-214.74 564.34,-201.43 598.2,-191.65"/>
<polygon fill="#63b8ff" stroke="#63b8ff" points="599.08,-195.04 607.72,-188.9 597.14,-188.31 599.08,-195.04"/>
</a>
</g>
</g>
<!-- Node21 -->
<g id="Node000021" class="node">
<title>Node21</title>
<g id="a_Node000021"><a xlink:title=" ">
<polygon fill="#e0e0e0" stroke="#999999" points="889.38,-76 806.62,-76 806.62,-56 889.38,-56 889.38,-76"/>
<text xml:space="preserve" text-anchor="middle" x="848" y="-62.5" font-family="Helvetica,sans-Serif" font-size="10.00">unordered_map</text>
</a>
</g>
</g>
<!-- Node16&#45;&gt;Node21 -->
<g id="edge34_Node000016_Node000021" class="edge">
<title>Node16&#45;&gt;Node21</title>
<g id="a_edge34_Node000016_Node000021"><a xlink:title=" ">
<path fill="none" stroke="#63b8ff" d="M500.11,-226.97C615.15,-211.14 912.24,-167.19 939,-132 956.19,-109.4 924.03,-91.41 893.31,-80.13"/>
<polygon fill="#63b8ff" stroke="#63b8ff" points="894.61,-76.88 884.01,-76.92 892.32,-83.5 894.61,-76.88"/>
</a>
</g>
</g>
<!-- Node16&#45;&gt;Node23 -->
<g id="edge33_Node000016_Node000023" class="edge">
<title>Node16&#45;&gt;Node23</title>
<g id="a_edge33_Node000016_Node000023"><a xlink:title=" ">
<path fill="none" stroke="#63b8ff" d="M445.77,-223.59C438.4,-216.08 427.87,-205.35 418.98,-196.3"/>
<polygon fill="#63b8ff" stroke="#63b8ff" points="421.69,-194.06 412.19,-189.38 416.69,-198.97 421.69,-194.06"/>
</a>
</g>
</g>
<!-- Node17&#45;&gt;Node2 -->
<g id="edge21_Node000017_Node000002" class="edge">
<title>Node17&#45;&gt;Node2</title>
<g id="a_edge21_Node000017_Node000002"><a xlink:title=" ">
<path fill="none" stroke="#63b8ff" d="M521.36,-111.59C500.88,-103.09 470.48,-90.46 447.25,-80.81"/>
<polygon fill="#63b8ff" stroke="#63b8ff" points="448.8,-77.66 438.22,-77.06 446.11,-84.13 448.8,-77.66"/>
</a>
</g>
</g>
<!-- Node18 -->
<g id="Node000018" class="node">
<title>Node18</title>
<g id="a_Node000018"><a xlink:href="_r_t_t_i_8inl.html" target="_top" xlink:title=" ">
<polygon fill="white" stroke="#666666" points="630.12,-76 497.88,-76 497.88,-56 630.12,-56 630.12,-76"/>
<text xml:space="preserve" text-anchor="middle" x="564" y="-62.5" font-family="Helvetica,sans-Serif" font-size="10.00">FIEAGameEngine/RTTI.inl</text>
</a>
</g>
</g>
<!-- Node17&#45;&gt;Node18 -->
<g id="edge22_Node000017_Node000018" class="edge">
<title>Node17&#45;&gt;Node18</title>
<g id="a_edge22_Node000017_Node000018"><a xlink:title=" ">
<path fill="none" stroke="#63b8ff" d="M542.22,-111.59C543.39,-104.7 546.53,-95.1 550.23,-86.57"/>
<polygon fill="#63b8ff" stroke="#63b8ff" points="553.35,-88.17 554.64,-77.66 547.07,-85.07 553.35,-88.17"/>
</a>
</g>
</g>
<!-- Node18&#45;&gt;Node17 -->
<g id="edge23_Node000018_Node000017" class="edge">
<title>Node18&#45;&gt;Node17</title>
<g id="a_edge23_Node000018_Node000017"><a xlink:title=" ">
<path fill="none" stroke="#63b8ff" d="M565.8,-76.3C564.65,-83.16 561.52,-92.75 557.83,-101.29"/>
<polygon fill="#63b8ff" stroke="#63b8ff" points="554.7,-99.72 553.42,-110.24 560.98,-102.81 554.7,-99.72"/>
</a>
</g>
</g>
<!-- Node19&#45;&gt;Node2 -->
<g id="edge26_Node000019_Node000002" class="edge">
<title>Node19&#45;&gt;Node2</title>
<g id="a_edge26_Node000019_Node000002"><a xlink:title=" ">
<path fill="none" stroke="#63b8ff" d="M641.18,-167.91C639.4,-153.74 633.86,-126.52 617,-112 598.16,-95.77 540.8,-83.98 491.85,-76.55"/>
<polygon fill="#63b8ff" stroke="#63b8ff" points="492.48,-73.1 482.08,-75.11 491.46,-80.03 492.48,-73.1"/>
</a>
</g>
</g>
<!-- Node19&#45;&gt;Node17 -->
<g id="edge27_Node000019_Node000017" class="edge">
<title>Node19&#45;&gt;Node17</title>
<g id="a_edge27_Node000019_Node000017"><a xlink:title=" ">
<path fill="none" stroke="#63b8ff" d="M624.93,-167.59C610.12,-159.44 588.43,-147.48 571.23,-138"/>
<polygon fill="#63b8ff" stroke="#63b8ff" points="572.98,-134.97 562.53,-133.21 569.6,-141.1 572.98,-134.97"/>
</a>
</g>
</g>
<!-- Node20 -->
<g id="Node000020" class="node">
<title>Node20</title>
<g id="a_Node000020"><a xlink:href="_service_mgr_8h.html" target="_top" xlink:title=" ">
<polygon fill="white" stroke="#666666" points="819.75,-132 664.25,-132 664.25,-112 819.75,-112 819.75,-132"/>
<text xml:space="preserve" text-anchor="middle" x="742" y="-118.5" font-family="Helvetica,sans-Serif" font-size="10.00">FIEAGameEngine/ServiceMgr.h</text>
</a>
</g>
</g>
<!-- Node19&#45;&gt;Node20 -->
<g id="edge28_Node000019_Node000020" class="edge">
<title>Node19&#45;&gt;Node20</title>
<g id="a_edge28_Node000019_Node000020"><a xlink:title=" ">
<path fill="none" stroke="#63b8ff" d="M659.42,-167.59C674.67,-159.36 697.08,-147.26 714.71,-137.74"/>
<polygon fill="#63b8ff" stroke="#63b8ff" points="715.98,-141.03 723.11,-133.2 712.65,-134.87 715.98,-141.03"/>
</a>
</g>
</g>
<!-- Node19&#45;&gt;Node21 -->
<g id="edge32_Node000019_Node000021" class="edge">
<title>Node19&#45;&gt;Node21</title>
<g id="a_edge32_Node000019_Node000021"><a xlink:title=" ">
<path fill="none" stroke="#63b8ff" d="M712.46,-167.51C758.13,-159.99 812.14,-148.07 829,-132 840.98,-120.58 845.53,-102.07 847.2,-87.71"/>
<polygon fill="#63b8ff" stroke="#63b8ff" points="850.67,-88.2 847.93,-77.96 843.69,-87.68 850.67,-88.2"/>
</a>
</g>
</g>
<!-- Node22 -->
<g id="Node000022" class="node">
<title>Node22</title>
<g id="a_Node000022"><a xlink:title=" ">
<polygon fill="#e0e0e0" stroke="#999999" points="929.75,-132 876.25,-132 876.25,-112 929.75,-112 929.75,-132"/>
<text xml:space="preserve" text-anchor="middle" x="903" y="-118.5" font-family="Helvetica,sans-Serif" font-size="10.00">iostream</text>
</a>
</g>
</g>
<!-- Node19&#45;&gt;Node22 -->
<g id="edge31_Node000019_Node000022" class="edge">
<title>Node19&#45;&gt;Node22</title>
<g id="a_edge31_Node000019_Node000022"><a xlink:title=" ">
<path fill="none" stroke="#63b8ff" d="M689.25,-167.54C733.83,-158.56 802.51,-144.61 862,-132 863,-131.79 864.01,-131.57 865.03,-131.35"/>
<polygon fill="#63b8ff" stroke="#63b8ff" points="865.59,-134.81 874.63,-129.28 864.11,-127.97 865.59,-134.81"/>
</a>
</g>
</g>
<!-- Node20&#45;&gt;Node2 -->
<g id="edge29_Node000020_Node000002" class="edge">
<title>Node20&#45;&gt;Node2</title>
<g id="a_edge29_Node000020_Node000002"><a xlink:title=" ">
<path fill="none" stroke="#63b8ff" d="M684.49,-111.53C628.22,-102.27 542.49,-88.15 482.67,-78.31"/>
<polygon fill="#63b8ff" stroke="#63b8ff" points="483.37,-74.87 472.94,-76.7 482.23,-81.78 483.37,-74.87"/>
</a>
</g>
</g>
<!-- Node20&#45;&gt;Node21 -->
<g id="edge30_Node000020_Node000021" class="edge">
<title>Node20&#45;&gt;Node21</title>
<g id="a_edge30_Node000020_Node000021"><a xlink:title=" ">
<path fill="none" stroke="#63b8ff" d="M760.46,-111.59C776.7,-103.32 800.61,-91.14 819.33,-81.6"/>
<polygon fill="#63b8ff" stroke="#63b8ff" points="820.72,-84.82 828.04,-77.17 817.54,-78.59 820.72,-84.82"/>
</a>
</g>
</g>
</g>
</svg>
