<?xml version="1.0" encoding="UTF-8" standalone="no"?>
<!DOCTYPE svg PUBLIC "-//W3C//DTD SVG 1.1//EN"
 "http://www.w3.org/Graphics/SVG/1.1/DTD/svg11.dtd">
<!-- Generated by graphviz version 13.1.0 (20250701.0955)
 -->
<!-- Title: Tests/Support/ActionOutput.cpp Pages: 1 -->
<svg width="1104pt" height="588pt"
 viewBox="0.00 0.00 1104.00 588.00" xmlns="http://www.w3.org/2000/svg" xmlns:xlink="http://www.w3.org/1999/xlink">
<g id="graph0" class="graph" transform="scale(1 1) rotate(0) translate(4 584)">
<title>Tests/Support/ActionOutput.cpp</title>
<!-- Node1 -->
<g id="Node000001" class="node">
<title>Node1</title>
<g id="a_Node000001"><a xlink:title=" ">
<polygon fill="#999999" stroke="#666666" points="522.15,-580 366.65,-580 366.65,-560 522.15,-560 522.15,-580"/>
<text xml:space="preserve" text-anchor="middle" x="444.4" y="-566.5" font-family="Helvetica,sans-Serif" font-size="10.00">Tests/Support/ActionOutput.cpp</text>
</a>
</g>
</g>
<!-- Node2 -->
<g id="Node000002" class="node">
<title>Node2</title>
<g id="a_Node000002"><a xlink:href="_action_output_8h.html" target="_top" xlink:title=" ">
<polygon fill="white" stroke="#666666" points="426.02,-412 344.77,-412 344.77,-392 426.02,-392 426.02,-412"/>
<text xml:space="preserve" text-anchor="middle" x="385.4" y="-398.5" font-family="Helvetica,sans-Serif" font-size="10.00">ActionOutput.h</text>
</a>
</g>
</g>
<!-- Node1&#45;&gt;Node2 -->
<g id="edge1_Node000001_Node000002" class="edge">
<title>Node1&#45;&gt;Node2</title>
<g id="a_edge1_Node000001_Node000002"><a xlink:title=" ">
<path fill="none" stroke="#63b8ff" d="M438.67,-559.65C428.3,-542.27 406.48,-503.54 395.4,-468 390.91,-453.61 388.4,-436.78 387.01,-423.85"/>
<polygon fill="#63b8ff" stroke="#63b8ff" points="390.5,-423.6 386.1,-413.96 383.53,-424.24 390.5,-423.6"/>
</a>
</g>
</g>
<!-- Node28 -->
<g id="Node000028" class="node">
<title>Node28</title>
<g id="a_Node000028"><a xlink:href="_tests_8h.html" target="_top" xlink:title=" ">
<polygon fill="white" stroke="#666666" points="625.02,-524 567.77,-524 567.77,-504 625.02,-504 625.02,-524"/>
<text xml:space="preserve" text-anchor="middle" x="596.4" y="-510.5" font-family="Helvetica,sans-Serif" font-size="10.00">../Tests.h</text>
</a>
</g>
</g>
<!-- Node1&#45;&gt;Node28 -->
<g id="edge45_Node000001_Node000028" class="edge">
<title>Node1&#45;&gt;Node28</title>
<g id="a_edge45_Node000001_Node000028"><a xlink:title=" ">
<path fill="none" stroke="#63b8ff" d="M470.88,-559.59C495.25,-550.94 531.65,-538 558.99,-528.29"/>
<polygon fill="#63b8ff" stroke="#63b8ff" points="560.04,-531.63 568.29,-524.99 557.7,-525.04 560.04,-531.63"/>
</a>
</g>
</g>
<!-- Node3 -->
<g id="Node000003" class="node">
<title>Node3</title>
<g id="a_Node000003"><a xlink:href="_types_8h.html" target="_top" xlink:title=" ">
<polygon fill="white" stroke="#666666" points="632.65,-76 504.15,-76 504.15,-56 632.65,-56 632.65,-76"/>
<text xml:space="preserve" text-anchor="middle" x="568.4" y="-62.5" font-family="Helvetica,sans-Serif" font-size="10.00">FieaGameEngine/Types.h</text>
</a>
</g>
</g>
<!-- Node2&#45;&gt;Node3 -->
<g id="edge2_Node000002_Node000003" class="edge">
<title>Node2&#45;&gt;Node3</title>
<g id="a_edge2_Node000002_Node000003"><a xlink:title=" ">
<path fill="none" stroke="#63b8ff" d="M392.66,-391.6C399.41,-382.67 409.58,-368.75 417.4,-356 477.25,-258.33 536.83,-134.5 559.17,-86.89"/>
<polygon fill="#63b8ff" stroke="#63b8ff" points="562.33,-88.4 563.38,-77.86 555.98,-85.44 562.33,-88.4"/>
</a>
</g>
</g>
<!-- Node12 -->
<g id="Node000012" class="node">
<title>Node12</title>
<g id="a_Node000012"><a xlink:href="_action_8h.html" target="_top" xlink:title=" ">
<polygon fill="white" stroke="#666666" points="704.27,-356 570.52,-356 570.52,-336 704.27,-336 704.27,-356"/>
<text xml:space="preserve" text-anchor="middle" x="637.4" y="-342.5" font-family="Helvetica,sans-Serif" font-size="10.00">FIEAGameEngine/Action.h</text>
</a>
</g>
</g>
<!-- Node2&#45;&gt;Node12 -->
<g id="edge11_Node000002_Node000012" class="edge">
<title>Node2&#45;&gt;Node12</title>
<g id="a_edge11_Node000002_Node000012"><a xlink:title=" ">
<path fill="none" stroke="#63b8ff" d="M426.45,-392.2C468.84,-383.12 535.24,-368.89 582.2,-358.83"/>
<polygon fill="#63b8ff" stroke="#63b8ff" points="582.88,-362.26 591.92,-356.75 581.41,-355.42 582.88,-362.26"/>
</a>
</g>
</g>
<!-- Node21 -->
<g id="Node000021" class="node">
<title>Node21</title>
<g id="a_Node000021"><a xlink:href="_factory_service_8h.html" target="_top" xlink:title=" ">
<polygon fill="white" stroke="#666666" points="350.4,-188 178.4,-188 178.4,-168 350.4,-168 350.4,-188"/>
<text xml:space="preserve" text-anchor="middle" x="264.4" y="-174.5" font-family="Helvetica,sans-Serif" font-size="10.00">FIEAGameEngine/FactoryService.h</text>
</a>
</g>
</g>
<!-- Node2&#45;&gt;Node21 -->
<g id="edge43_Node000002_Node000021" class="edge">
<title>Node2&#45;&gt;Node21</title>
<g id="a_edge43_Node000002_Node000021"><a xlink:title=" ">
<path fill="none" stroke="#63b8ff" d="M378.1,-391.63C371.31,-382.72 361.11,-368.81 353.4,-356 320.23,-300.91 288.04,-231.88 273.09,-198.66"/>
<polygon fill="#63b8ff" stroke="#63b8ff" points="276.44,-197.57 269.16,-189.86 270.04,-200.42 276.44,-197.57"/>
</a>
</g>
</g>
<!-- Node27 -->
<g id="Node000027" class="node">
<title>Node27</title>
<g id="a_Node000027"><a xlink:title=" ">
<polygon fill="#e0e0e0" stroke="#999999" points="408.02,-356 362.77,-356 362.77,-336 408.02,-336 408.02,-356"/>
<text xml:space="preserve" text-anchor="middle" x="385.4" y="-342.5" font-family="Helvetica,sans-Serif" font-size="10.00">chrono</text>
</a>
</g>
</g>
<!-- Node2&#45;&gt;Node27 -->
<g id="edge44_Node000002_Node000027" class="edge">
<title>Node2&#45;&gt;Node27</title>
<g id="a_edge44_Node000002_Node000027"><a xlink:title=" ">
<path fill="none" stroke="#63b8ff" d="M385.4,-391.59C385.4,-385.01 385.4,-375.96 385.4,-367.73"/>
<polygon fill="#63b8ff" stroke="#63b8ff" points="388.9,-367.81 385.4,-357.81 381.9,-367.81 388.9,-367.81"/>
</a>
</g>
</g>
<!-- Node4 -->
<g id="Node000004" class="node">
<title>Node4</title>
<g id="a_Node000004"><a xlink:title=" ">
<polygon fill="#e0e0e0" stroke="#999999" points="348.4,-20 188.4,-20 188.4,0 348.4,0 348.4,-20"/>
<text xml:space="preserve" text-anchor="middle" x="268.4" y="-6.5" font-family="Helvetica,sans-Serif" font-size="10.00">../src/Memory/SystemAllocator.h</text>
</a>
</g>
</g>
<!-- Node3&#45;&gt;Node4 -->
<g id="edge3_Node000003_Node000004" class="edge">
<title>Node3&#45;&gt;Node4</title>
<g id="a_edge3_Node000003_Node000004"><a xlink:title=" ">
<path fill="none" stroke="#63b8ff" d="M515.8,-55.53C464.66,-46.33 386.89,-32.33 332.23,-22.49"/>
<polygon fill="#63b8ff" stroke="#63b8ff" points="332.89,-19.05 322.43,-20.73 331.65,-25.94 332.89,-19.05"/>
</a>
</g>
</g>
<!-- Node5 -->
<g id="Node000005" class="node">
<title>Node5</title>
<g id="a_Node000005"><a xlink:title=" ">
<polygon fill="#e0e0e0" stroke="#999999" points="428.65,-20 366.15,-20 366.15,0 428.65,0 428.65,-20"/>
<text xml:space="preserve" text-anchor="middle" x="397.4" y="-6.5" font-family="Helvetica,sans-Serif" font-size="10.00">windows.h</text>
</a>
</g>
</g>
<!-- Node3&#45;&gt;Node5 -->
<g id="edge4_Node000003_Node000005" class="edge">
<title>Node3&#45;&gt;Node5</title>
<g id="a_edge4_Node000003_Node000005"><a xlink:title=" ">
<path fill="none" stroke="#63b8ff" d="M538.61,-55.59C510.83,-46.82 469.15,-33.66 438.26,-23.9"/>
<polygon fill="#63b8ff" stroke="#63b8ff" points="439.45,-20.61 428.86,-20.94 437.34,-27.28 439.45,-20.61"/>
</a>
</g>
</g>
<!-- Node6 -->
<g id="Node000006" class="node">
<title>Node6</title>
<g id="a_Node000006"><a xlink:title=" ">
<polygon fill="#e0e0e0" stroke="#999999" points="494.52,-20 446.27,-20 446.27,0 494.52,0 494.52,-20"/>
<text xml:space="preserve" text-anchor="middle" x="470.4" y="-6.5" font-family="Helvetica,sans-Serif" font-size="10.00">cassert</text>
</a>
</g>
</g>
<!-- Node3&#45;&gt;Node6 -->
<g id="edge5_Node000003_Node000006" class="edge">
<title>Node3&#45;&gt;Node6</title>
<g id="a_edge5_Node000003_Node000006"><a xlink:title=" ">
<path fill="none" stroke="#63b8ff" d="M551.33,-55.59C536.52,-47.44 514.83,-35.48 497.63,-26"/>
<polygon fill="#63b8ff" stroke="#63b8ff" points="499.38,-22.97 488.93,-21.21 496,-29.1 499.38,-22.97"/>
</a>
</g>
</g>
<!-- Node7 -->
<g id="Node000007" class="node">
<title>Node7</title>
<g id="a_Node000007"><a xlink:title=" ">
<polygon fill="#e0e0e0" stroke="#999999" points="560.52,-20 512.27,-20 512.27,0 560.52,0 560.52,-20"/>
<text xml:space="preserve" text-anchor="middle" x="536.4" y="-6.5" font-family="Helvetica,sans-Serif" font-size="10.00">cstddef</text>
</a>
</g>
</g>
<!-- Node3&#45;&gt;Node7 -->
<g id="edge6_Node000003_Node000007" class="edge">
<title>Node3&#45;&gt;Node7</title>
<g id="a_edge6_Node000003_Node000007"><a xlink:title=" ">
<path fill="none" stroke="#63b8ff" d="M562.83,-55.59C558.65,-48.55 552.8,-38.67 547.66,-30"/>
<polygon fill="#63b8ff" stroke="#63b8ff" points="550.79,-28.42 542.68,-21.6 544.77,-31.99 550.79,-28.42"/>
</a>
</g>
</g>
<!-- Node8 -->
<g id="Node000008" class="node">
<title>Node8</title>
<g id="a_Node000008"><a xlink:title=" ">
<polygon fill="#e0e0e0" stroke="#999999" points="624.02,-20 578.77,-20 578.77,0 624.02,0 624.02,-20"/>
<text xml:space="preserve" text-anchor="middle" x="601.4" y="-6.5" font-family="Helvetica,sans-Serif" font-size="10.00">cstdint</text>
</a>
</g>
</g>
<!-- Node3&#45;&gt;Node8 -->
<g id="edge7_Node000003_Node000008" class="edge">
<title>Node3&#45;&gt;Node8</title>
<g id="a_edge7_Node000003_Node000008"><a xlink:title=" ">
<path fill="none" stroke="#63b8ff" d="M574.15,-55.59C578.45,-48.55 584.49,-38.67 589.79,-30"/>
<polygon fill="#63b8ff" stroke="#63b8ff" points="592.7,-31.95 594.93,-21.59 586.73,-28.3 592.7,-31.95"/>
</a>
</g>
</g>
<!-- Node9 -->
<g id="Node000009" class="node">
<title>Node9</title>
<g id="a_Node000009"><a xlink:title=" ">
<polygon fill="#e0e0e0" stroke="#999999" points="694.77,-20 642.02,-20 642.02,0 694.77,0 694.77,-20"/>
<text xml:space="preserve" text-anchor="middle" x="668.4" y="-6.5" font-family="Helvetica,sans-Serif" font-size="10.00">cstdbool</text>
</a>
</g>
</g>
<!-- Node3&#45;&gt;Node9 -->
<g id="edge8_Node000003_Node000009" class="edge">
<title>Node3&#45;&gt;Node9</title>
<g id="a_edge8_Node000003_Node000009"><a xlink:title=" ">
<path fill="none" stroke="#63b8ff" d="M585.82,-55.59C601.07,-47.36 623.48,-35.26 641.11,-25.74"/>
<polygon fill="#63b8ff" stroke="#63b8ff" points="642.38,-29.03 649.51,-21.2 639.05,-22.87 642.38,-29.03"/>
</a>
</g>
</g>
<!-- Node10 -->
<g id="Node000010" class="node">
<title>Node10</title>
<g id="a_Node000010"><a xlink:title=" ">
<polygon fill="#e0e0e0" stroke="#999999" points="752.4,-20 712.4,-20 712.4,0 752.4,0 752.4,-20"/>
<text xml:space="preserve" text-anchor="middle" x="732.4" y="-6.5" font-family="Helvetica,sans-Serif" font-size="10.00">string</text>
</a>
</g>
</g>
<!-- Node3&#45;&gt;Node10 -->
<g id="edge9_Node000003_Node000010" class="edge">
<title>Node3&#45;&gt;Node10</title>
<g id="a_edge9_Node000003_Node000010"><a xlink:title=" ">
<path fill="none" stroke="#63b8ff" d="M596.97,-55.59C626.1,-46 671.17,-31.16 701.21,-21.27"/>
<polygon fill="#63b8ff" stroke="#63b8ff" points="702.09,-24.67 710.49,-18.21 699.9,-18.02 702.09,-24.67"/>
</a>
</g>
</g>
<!-- Node11 -->
<g id="Node000011" class="node">
<title>Node11</title>
<g id="a_Node000011"><a xlink:title=" ">
<polygon fill="#e0e0e0" stroke="#999999" points="824.52,-20 770.27,-20 770.27,0 824.52,0 824.52,-20"/>
<text xml:space="preserve" text-anchor="middle" x="797.4" y="-6.5" font-family="Helvetica,sans-Serif" font-size="10.00">crtdefs.h</text>
</a>
</g>
</g>
<!-- Node3&#45;&gt;Node11 -->
<g id="edge10_Node000003_Node000011" class="edge">
<title>Node3&#45;&gt;Node11</title>
<g id="a_edge10_Node000003_Node000011"><a xlink:title=" ">
<path fill="none" stroke="#63b8ff" d="M609.86,-55.53C646.6,-47.1 702.01,-34.27 758.88,-20.58"/>
<polygon fill="#63b8ff" stroke="#63b8ff" points="759.52,-24.03 768.42,-18.28 757.88,-17.22 759.52,-24.03"/>
</a>
</g>
</g>
<!-- Node12&#45;&gt;Node3 -->
<g id="edge12_Node000012_Node000003" class="edge">
<title>Node12&#45;&gt;Node3</title>
<g id="a_edge12_Node000012_Node000003"><a xlink:title=" ">
<path fill="none" stroke="#63b8ff" d="M637.45,-335.81C637.3,-308.99 634.8,-228.88 611.4,-168 604.5,-150.05 595.52,-149.43 587.4,-132 580.7,-117.63 575.78,-100.35 572.63,-87.23"/>
<polygon fill="#63b8ff" stroke="#63b8ff" points="576.08,-86.61 570.48,-77.62 569.25,-88.14 576.08,-86.61"/>
</a>
</g>
</g>
<!-- Node13 -->
<g id="Node000013" class="node">
<title>Node13</title>
<g id="a_Node000013"><a xlink:href="_attributed_8h.html" target="_top" xlink:title=" ">
<polygon fill="white" stroke="#666666" points="800.27,-300 696.52,-300 696.52,-280 800.27,-280 800.27,-300"/>
<text xml:space="preserve" text-anchor="middle" x="748.4" y="-286.5" font-family="Helvetica,sans-Serif" font-size="10.00">Content/Attributed.h</text>
</a>
</g>
</g>
<!-- Node12&#45;&gt;Node13 -->
<g id="edge13_Node000012_Node000013" class="edge">
<title>Node12&#45;&gt;Node13</title>
<g id="a_edge13_Node000012_Node000013"><a xlink:title=" ">
<path fill="none" stroke="#63b8ff" d="M656.73,-335.59C673.82,-327.28 699,-315.03 718.65,-305.47"/>
<polygon fill="#63b8ff" stroke="#63b8ff" points="720.09,-308.66 727.55,-301.14 717.03,-302.37 720.09,-308.66"/>
</a>
</g>
</g>
<!-- Node12&#45;&gt;Node21 -->
<g id="edge41_Node000012_Node000021" class="edge">
<title>Node12&#45;&gt;Node21</title>
<g id="a_edge41_Node000012_Node000021"><a xlink:title=" ">
<path fill="none" stroke="#63b8ff" d="M623.4,-335.56C589.95,-313.38 502.26,-257.3 422.4,-224 388.99,-210.07 349.87,-198.89 318.92,-191.16"/>
<polygon fill="#63b8ff" stroke="#63b8ff" points="319.93,-187.8 309.38,-188.83 318.26,-194.6 319.93,-187.8"/>
</a>
</g>
</g>
<!-- Node26 -->
<g id="Node000026" class="node">
<title>Node26</title>
<g id="a_Node000026"><a xlink:title=" ">
<polygon fill="#e0e0e0" stroke="#999999" points="716.4,-244 658.4,-244 658.4,-224 716.4,-224 716.4,-244"/>
<text xml:space="preserve" text-anchor="middle" x="687.4" y="-230.5" font-family="Helvetica,sans-Serif" font-size="10.00">functional</text>
</a>
</g>
</g>
<!-- Node12&#45;&gt;Node26 -->
<g id="edge42_Node000012_Node000026" class="edge">
<title>Node12&#45;&gt;Node26</title>
<g id="a_edge42_Node000012_Node000026"><a xlink:title=" ">
<path fill="none" stroke="#63b8ff" d="M641.66,-335.62C649.78,-317.76 667.61,-278.53 678.46,-254.67"/>
<polygon fill="#63b8ff" stroke="#63b8ff" points="681.57,-256.28 682.52,-245.73 675.2,-253.39 681.57,-256.28"/>
</a>
</g>
</g>
<!-- Node13&#45;&gt;Node3 -->
<g id="edge14_Node000013_Node000003" class="edge">
<title>Node13&#45;&gt;Node3</title>
<g id="a_edge14_Node000013_Node000003"><a xlink:title=" ">
<path fill="none" stroke="#63b8ff" d="M768.86,-279.51C810.23,-259.97 901.75,-214.82 923.4,-188 945.2,-160.99 964.43,-137.97 941.4,-112 922.06,-90.18 747.78,-76.89 644.43,-70.86"/>
<polygon fill="#63b8ff" stroke="#63b8ff" points="644.81,-67.37 634.63,-70.3 644.41,-74.36 644.81,-67.37"/>
</a>
</g>
</g>
<!-- Node14 -->
<g id="Node000014" class="node">
<title>Node14</title>
<g id="a_Node000014"><a xlink:href="_datum_8h.html" target="_top" xlink:title=" ">
<polygon fill="white" stroke="#666666" points="913.9,-188 822.9,-188 822.9,-168 913.9,-168 913.9,-188"/>
<text xml:space="preserve" text-anchor="middle" x="868.4" y="-174.5" font-family="Helvetica,sans-Serif" font-size="10.00">Content/Datum.h</text>
</a>
</g>
</g>
<!-- Node13&#45;&gt;Node14 -->
<g id="edge15_Node000013_Node000014" class="edge">
<title>Node13&#45;&gt;Node14</title>
<g id="a_edge15_Node000013_Node000014"><a xlink:title=" ">
<path fill="none" stroke="#63b8ff" d="M758.63,-279.62C778.82,-261.11 824.06,-219.65 849.71,-196.13"/>
<polygon fill="#63b8ff" stroke="#63b8ff" points="852.07,-198.71 857.08,-189.38 847.34,-193.55 852.07,-198.71"/>
</a>
</g>
</g>
<!-- Node18 -->
<g id="Node000018" class="node">
<title>Node18</title>
<g id="a_Node000018"><a xlink:href="_scope_8h.html" target="_top" xlink:title=" ">
<polygon fill="white" stroke="#666666" points="602.15,-244 512.65,-244 512.65,-224 602.15,-224 602.15,-244"/>
<text xml:space="preserve" text-anchor="middle" x="557.4" y="-230.5" font-family="Helvetica,sans-Serif" font-size="10.00">Content/Scope.h</text>
</a>
</g>
</g>
<!-- Node13&#45;&gt;Node18 -->
<g id="edge21_Node000013_Node000018" class="edge">
<title>Node13&#45;&gt;Node18</title>
<g id="a_edge21_Node000013_Node000018"><a xlink:title=" ">
<path fill="none" stroke="#63b8ff" d="M715.13,-279.59C683.69,-270.71 636.31,-257.31 601.69,-247.52"/>
<polygon fill="#63b8ff" stroke="#63b8ff" points="602.96,-244.24 592.38,-244.89 601.06,-250.98 602.96,-244.24"/>
</a>
</g>
</g>
<!-- Node19 -->
<g id="Node000019" class="node">
<title>Node19</title>
<g id="a_Node000019"><a xlink:href="_r_t_t_i_8h.html" target="_top" xlink:title=" ">
<polygon fill="white" stroke="#666666" points="426.27,-132 298.52,-132 298.52,-112 426.27,-112 426.27,-132"/>
<text xml:space="preserve" text-anchor="middle" x="362.4" y="-118.5" font-family="Helvetica,sans-Serif" font-size="10.00">FIEAGameEngine/RTTI.h</text>
</a>
</g>
</g>
<!-- Node13&#45;&gt;Node19 -->
<g id="edge38_Node000013_Node000019" class="edge">
<title>Node13&#45;&gt;Node19</title>
<g id="a_edge38_Node000013_Node000019"><a xlink:title=" ">
<path fill="none" stroke="#63b8ff" d="M747.9,-279.9C746.62,-265.72 742,-238.47 725.4,-224 665.53,-171.83 626.97,-209.02 550.4,-188 495.84,-173.02 434.12,-150.6 396.74,-136.39"/>
<polygon fill="#63b8ff" stroke="#63b8ff" points="398.42,-133.28 387.83,-132.98 395.92,-139.82 398.42,-133.28"/>
</a>
</g>
</g>
<!-- Node25 -->
<g id="Node000025" class="node">
<title>Node25</title>
<g id="a_Node000025"><a xlink:title=" ">
<polygon fill="#e0e0e0" stroke="#999999" points="601.9,-188 558.9,-188 558.9,-168 601.9,-168 601.9,-188"/>
<text xml:space="preserve" text-anchor="middle" x="580.4" y="-174.5" font-family="Helvetica,sans-Serif" font-size="10.00">vector</text>
</a>
</g>
</g>
<!-- Node13&#45;&gt;Node25 -->
<g id="edge39_Node000013_Node000025" class="edge">
<title>Node13&#45;&gt;Node25</title>
<g id="a_edge39_Node000013_Node000025"><a xlink:title=" ">
<path fill="none" stroke="#63b8ff" d="M753.86,-279.5C760.95,-265.76 771.03,-240.22 758.4,-224 740.79,-201.38 660.07,-188.34 613.61,-182.57"/>
<polygon fill="#63b8ff" stroke="#63b8ff" points="614.16,-179.11 603.82,-181.41 613.34,-186.07 614.16,-179.11"/>
</a>
</g>
</g>
<!-- Node13&#45;&gt;Node26 -->
<g id="edge40_Node000013_Node000026" class="edge">
<title>Node13&#45;&gt;Node26</title>
<g id="a_edge40_Node000013_Node000026"><a xlink:title=" ">
<path fill="none" stroke="#63b8ff" d="M737.77,-279.59C729.11,-271.93 716.67,-260.91 706.32,-251.75"/>
<polygon fill="#63b8ff" stroke="#63b8ff" points="708.84,-249.31 699.04,-245.3 704.2,-254.55 708.84,-249.31"/>
</a>
</g>
</g>
<!-- Node14&#45;&gt;Node3 -->
<g id="edge16_Node000014_Node000003" class="edge">
<title>Node14&#45;&gt;Node3</title>
<g id="a_edge16_Node000014_Node000003"><a xlink:title=" ">
<path fill="none" stroke="#63b8ff" d="M887.12,-167.51C909.76,-154.84 942.77,-131.7 925.4,-112 907.14,-91.3 743.91,-77.73 644.6,-71.32"/>
<polygon fill="#63b8ff" stroke="#63b8ff" points="644.83,-67.82 634.63,-70.68 644.39,-74.81 644.83,-67.82"/>
</a>
</g>
</g>
<!-- Node15 -->
<g id="Node000015" class="node">
<title>Node15</title>
<g id="a_Node000015"><a xlink:title=" ">
<polygon fill="#e0e0e0" stroke="#999999" points="666.02,-132 596.77,-132 596.77,-112 666.02,-112 666.02,-132"/>
<text xml:space="preserve" text-anchor="middle" x="631.4" y="-118.5" font-family="Helvetica,sans-Serif" font-size="10.00">glm/glm.hpp</text>
</a>
</g>
</g>
<!-- Node14&#45;&gt;Node15 -->
<g id="edge17_Node000014_Node000015" class="edge">
<title>Node14&#45;&gt;Node15</title>
<g id="a_edge17_Node000014_Node000015"><a xlink:title=" ">
<path fill="none" stroke="#63b8ff" d="M826.85,-167.53C785.05,-158.01 720.74,-143.36 677.42,-133.49"/>
<polygon fill="#63b8ff" stroke="#63b8ff" points="678.34,-130.11 667.82,-131.3 676.79,-136.93 678.34,-130.11"/>
</a>
</g>
</g>
<!-- Node16 -->
<g id="Node000016" class="node">
<title>Node16</title>
<g id="a_Node000016"><a xlink:title=" ">
<polygon fill="#e0e0e0" stroke="#999999" points="802.4,-132 684.4,-132 684.4,-112 802.4,-112 802.4,-132"/>
<text xml:space="preserve" text-anchor="middle" x="743.4" y="-118.5" font-family="Helvetica,sans-Serif" font-size="10.00">glm/gtx/string_cast.hpp</text>
</a>
</g>
</g>
<!-- Node14&#45;&gt;Node16 -->
<g id="edge18_Node000014_Node000016" class="edge">
<title>Node14&#45;&gt;Node16</title>
<g id="a_edge18_Node000014_Node000016"><a xlink:title=" ">
<path fill="none" stroke="#63b8ff" d="M846.63,-167.59C827.03,-159.13 797.97,-146.58 775.67,-136.94"/>
<polygon fill="#63b8ff" stroke="#63b8ff" points="777.3,-133.83 766.73,-133.08 774.52,-140.26 777.3,-133.83"/>
</a>
</g>
</g>
<!-- Node17 -->
<g id="Node000017" class="node">
<title>Node17</title>
<g id="a_Node000017"><a xlink:href="_datum_8inl.html" target="_top" xlink:title=" ">
<polygon fill="white" stroke="#666666" points="916.15,-132 820.65,-132 820.65,-112 916.15,-112 916.15,-132"/>
<text xml:space="preserve" text-anchor="middle" x="868.4" y="-118.5" font-family="Helvetica,sans-Serif" font-size="10.00">Content/Datum.inl</text>
</a>
</g>
</g>
<!-- Node14&#45;&gt;Node17 -->
<g id="edge19_Node000014_Node000017" class="edge">
<title>Node14&#45;&gt;Node17</title>
<g id="a_edge19_Node000014_Node000017"><a xlink:title=" ">
<path fill="none" stroke="#63b8ff" d="M863.13,-167.59C861.81,-161.01 861.37,-151.96 861.81,-143.73"/>
<polygon fill="#63b8ff" stroke="#63b8ff" points="865.29,-144.14 862.98,-133.8 858.34,-143.33 865.29,-144.14"/>
</a>
</g>
</g>
<!-- Node17&#45;&gt;Node14 -->
<g id="edge20_Node000017_Node000014" class="edge">
<title>Node17&#45;&gt;Node14</title>
<g id="a_edge20_Node000017_Node000014"><a xlink:title=" ">
<path fill="none" stroke="#63b8ff" d="M873.64,-132.3C874.99,-138.93 875.43,-148.11 874.98,-156.43"/>
<polygon fill="#63b8ff" stroke="#63b8ff" points="871.53,-155.75 873.84,-166.09 878.48,-156.57 871.53,-155.75"/>
</a>
</g>
</g>
<!-- Node18&#45;&gt;Node3 -->
<g id="edge22_Node000018_Node000003" class="edge">
<title>Node18&#45;&gt;Node3</title>
<g id="a_edge22_Node000018_Node000003"><a xlink:title=" ">
<path fill="none" stroke="#63b8ff" d="M555.53,-223.74C553.8,-214.68 551.36,-200.46 550.4,-188 547.79,-154.28 548.13,-145.24 554.4,-112 555.95,-103.77 558.5,-94.92 561,-87.27"/>
<polygon fill="#63b8ff" stroke="#63b8ff" points="564.28,-88.52 564.25,-77.92 557.66,-86.22 564.28,-88.52"/>
</a>
</g>
</g>
<!-- Node18&#45;&gt;Node14 -->
<g id="edge27_Node000018_Node000014" class="edge">
<title>Node18&#45;&gt;Node14</title>
<g id="a_edge27_Node000018_Node000014"><a xlink:title=" ">
<path fill="none" stroke="#63b8ff" d="M602.62,-225.15C657.86,-215.56 751.34,-199.33 811.43,-188.89"/>
<polygon fill="#63b8ff" stroke="#63b8ff" points="811.87,-192.37 821.12,-187.21 810.67,-185.47 811.87,-192.37"/>
</a>
</g>
</g>
<!-- Node18&#45;&gt;Node19 -->
<g id="edge23_Node000018_Node000019" class="edge">
<title>Node18&#45;&gt;Node19</title>
<g id="a_edge23_Node000018_Node000019"><a xlink:title=" ">
<path fill="none" stroke="#63b8ff" d="M524.57,-223.57C500.36,-215.87 467.14,-203.7 440.4,-188 417.27,-174.42 394.09,-154.02 379.08,-139.71"/>
<polygon fill="#63b8ff" stroke="#63b8ff" points="381.94,-137.61 372.33,-133.14 377.05,-142.62 381.94,-137.61"/>
</a>
</g>
</g>
<!-- Node18&#45;&gt;Node21 -->
<g id="edge28_Node000018_Node000021" class="edge">
<title>Node18&#45;&gt;Node21</title>
<g id="a_edge28_Node000018_Node000021"><a xlink:title=" ">
<path fill="none" stroke="#63b8ff" d="M512.26,-224.68C462.63,-215.53 382.55,-200.77 326.89,-190.52"/>
<polygon fill="#63b8ff" stroke="#63b8ff" points="327.71,-187.11 317.25,-188.74 326.45,-193.99 327.71,-187.11"/>
</a>
</g>
</g>
<!-- Node23 -->
<g id="Node000023" class="node">
<title>Node23</title>
<g id="a_Node000023"><a xlink:title=" ">
<polygon fill="#e0e0e0" stroke="#999999" points="133.77,-76 51.02,-76 51.02,-56 133.77,-56 133.77,-76"/>
<text xml:space="preserve" text-anchor="middle" x="92.4" y="-62.5" font-family="Helvetica,sans-Serif" font-size="10.00">unordered_map</text>
</a>
</g>
</g>
<!-- Node18&#45;&gt;Node23 -->
<g id="edge37_Node000018_Node000023" class="edge">
<title>Node18&#45;&gt;Node23</title>
<g id="a_edge37_Node000018_Node000023"><a xlink:title=" ">
<path fill="none" stroke="#63b8ff" d="M520.77,-223.55C490.3,-215.31 445.99,-202.43 408.4,-188 353.83,-167.05 341.72,-158.06 289.4,-132 272.32,-123.49 269.12,-119.08 251.4,-112 216.88,-98.21 176.56,-86.85 145.17,-78.99"/>
<polygon fill="#63b8ff" stroke="#63b8ff" points="146.05,-75.6 135.5,-76.62 144.38,-82.4 146.05,-75.6"/>
</a>
</g>
</g>
<!-- Node18&#45;&gt;Node25 -->
<g id="edge36_Node000018_Node000025" class="edge">
<title>Node18&#45;&gt;Node25</title>
<g id="a_edge36_Node000018_Node000025"><a xlink:title=" ">
<path fill="none" stroke="#63b8ff" d="M561.41,-223.59C564.31,-216.78 568.34,-207.32 571.94,-198.86"/>
<polygon fill="#63b8ff" stroke="#63b8ff" points="575.15,-200.26 575.85,-189.69 568.71,-197.52 575.15,-200.26"/>
</a>
</g>
</g>
<!-- Node19&#45;&gt;Node3 -->
<g id="edge24_Node000019_Node000003" class="edge">
<title>Node19&#45;&gt;Node3</title>
<g id="a_edge24_Node000019_Node000003"><a xlink:title=" ">
<path fill="none" stroke="#63b8ff" d="M398.28,-111.59C432.34,-102.67 483.73,-89.19 521.12,-79.39"/>
<polygon fill="#63b8ff" stroke="#63b8ff" points="521.99,-82.78 530.77,-76.86 520.21,-76.01 521.99,-82.78"/>
</a>
</g>
</g>
<!-- Node20 -->
<g id="Node000020" class="node">
<title>Node20</title>
<g id="a_Node000020"><a xlink:href="_r_t_t_i_8inl.html" target="_top" xlink:title=" ">
<polygon fill="white" stroke="#666666" points="428.52,-76 296.27,-76 296.27,-56 428.52,-56 428.52,-76"/>
<text xml:space="preserve" text-anchor="middle" x="362.4" y="-62.5" font-family="Helvetica,sans-Serif" font-size="10.00">FIEAGameEngine/RTTI.inl</text>
</a>
</g>
</g>
<!-- Node19&#45;&gt;Node20 -->
<g id="edge25_Node000019_Node000020" class="edge">
<title>Node19&#45;&gt;Node20</title>
<g id="a_edge25_Node000019_Node000020"><a xlink:title=" ">
<path fill="none" stroke="#63b8ff" d="M357.13,-111.59C355.81,-105.01 355.37,-95.96 355.81,-87.73"/>
<polygon fill="#63b8ff" stroke="#63b8ff" points="359.29,-88.14 356.98,-77.8 352.34,-87.33 359.29,-88.14"/>
</a>
</g>
</g>
<!-- Node20&#45;&gt;Node19 -->
<g id="edge26_Node000020_Node000019" class="edge">
<title>Node20&#45;&gt;Node19</title>
<g id="a_edge26_Node000020_Node000019"><a xlink:title=" ">
<path fill="none" stroke="#63b8ff" d="M367.64,-76.3C368.99,-82.93 369.43,-92.11 368.98,-100.43"/>
<polygon fill="#63b8ff" stroke="#63b8ff" points="365.53,-99.75 367.84,-110.09 372.48,-100.57 365.53,-99.75"/>
</a>
</g>
</g>
<!-- Node21&#45;&gt;Node3 -->
<g id="edge29_Node000021_Node000003" class="edge">
<title>Node21&#45;&gt;Node3</title>
<g id="a_edge29_Node000021_Node000003"><a xlink:title=" ">
<path fill="none" stroke="#63b8ff" d="M310.16,-167.54C345.04,-159.72 393.96,-147.4 435.4,-132 445.9,-128.1 503.75,-99.38 539.61,-81.44"/>
<polygon fill="#63b8ff" stroke="#63b8ff" points="540.79,-84.77 548.17,-77.16 537.66,-78.51 540.79,-84.77"/>
</a>
</g>
</g>
<!-- Node21&#45;&gt;Node19 -->
<g id="edge30_Node000021_Node000019" class="edge">
<title>Node21&#45;&gt;Node19</title>
<g id="a_edge30_Node000021_Node000019"><a xlink:title=" ">
<path fill="none" stroke="#63b8ff" d="M281.47,-167.59C296.27,-159.44 317.97,-147.48 335.17,-138"/>
<polygon fill="#63b8ff" stroke="#63b8ff" points="336.8,-141.1 343.87,-133.21 333.42,-134.97 336.8,-141.1"/>
</a>
</g>
</g>
<!-- Node22 -->
<g id="Node000022" class="node">
<title>Node22</title>
<g id="a_Node000022"><a xlink:href="_service_mgr_8h.html" target="_top" xlink:title=" ">
<polygon fill="white" stroke="#666666" points="170.15,-132 14.65,-132 14.65,-112 170.15,-112 170.15,-132"/>
<text xml:space="preserve" text-anchor="middle" x="92.4" y="-118.5" font-family="Helvetica,sans-Serif" font-size="10.00">FIEAGameEngine/ServiceMgr.h</text>
</a>
</g>
</g>
<!-- Node21&#45;&gt;Node22 -->
<g id="edge31_Node000021_Node000022" class="edge">
<title>Node21&#45;&gt;Node22</title>
<g id="a_edge31_Node000021_Node000022"><a xlink:title=" ">
<path fill="none" stroke="#63b8ff" d="M234.44,-167.59C206.49,-158.82 164.57,-145.66 133.5,-135.9"/>
<polygon fill="#63b8ff" stroke="#63b8ff" points="134.63,-132.59 124.04,-132.93 132.53,-139.27 134.63,-132.59"/>
</a>
</g>
</g>
<!-- Node21&#45;&gt;Node23 -->
<g id="edge35_Node000021_Node000023" class="edge">
<title>Node21&#45;&gt;Node23</title>
<g id="a_edge35_Node000021_Node000023"><a xlink:title=" ">
<path fill="none" stroke="#63b8ff" d="M177.95,-173.62C111.44,-168.99 27.29,-158.02 5.4,-132 -12.68,-110.51 19.73,-92.02 49.99,-80.32"/>
<polygon fill="#63b8ff" stroke="#63b8ff" points="50.91,-83.71 59.1,-76.99 48.51,-77.14 50.91,-83.71"/>
</a>
</g>
</g>
<!-- Node24 -->
<g id="Node000024" class="node">
<title>Node24</title>
<g id="a_Node000024"><a xlink:title=" ">
<polygon fill="#e0e0e0" stroke="#999999" points="242.15,-132 188.65,-132 188.65,-112 242.15,-112 242.15,-132"/>
<text xml:space="preserve" text-anchor="middle" x="215.4" y="-118.5" font-family="Helvetica,sans-Serif" font-size="10.00">iostream</text>
</a>
</g>
</g>
<!-- Node21&#45;&gt;Node24 -->
<g id="edge34_Node000021_Node000024" class="edge">
<title>Node21&#45;&gt;Node24</title>
<g id="a_edge34_Node000021_Node000024"><a xlink:title=" ">
<path fill="none" stroke="#63b8ff" d="M255.86,-167.59C249.12,-160.16 239.51,-149.58 231.35,-140.58"/>
<polygon fill="#63b8ff" stroke="#63b8ff" points="234.17,-138.47 224.85,-133.42 228.98,-143.18 234.17,-138.47"/>
</a>
</g>
</g>
<!-- Node22&#45;&gt;Node3 -->
<g id="edge32_Node000022_Node000003" class="edge">
<title>Node22&#45;&gt;Node3</title>
<g id="a_edge32_Node000022_Node000003"><a xlink:title=" ">
<path fill="none" stroke="#63b8ff" d="M170.47,-112.14C259.54,-102.04 404.22,-85.63 492.41,-75.62"/>
<polygon fill="#63b8ff" stroke="#63b8ff" points="492.63,-79.12 502.17,-74.51 491.84,-72.16 492.63,-79.12"/>
</a>
</g>
</g>
<!-- Node22&#45;&gt;Node23 -->
<g id="edge33_Node000022_Node000023" class="edge">
<title>Node22&#45;&gt;Node23</title>
<g id="a_edge33_Node000022_Node000023"><a xlink:title=" ">
<path fill="none" stroke="#63b8ff" d="M92.4,-111.59C92.4,-105.01 92.4,-95.96 92.4,-87.73"/>
<polygon fill="#63b8ff" stroke="#63b8ff" points="95.9,-87.81 92.4,-77.81 88.9,-87.81 95.9,-87.81"/>
</a>
</g>
</g>
<!-- Node28&#45;&gt;Node3 -->
<g id="edge48_Node000028_Node000003" class="edge">
<title>Node28&#45;&gt;Node3</title>
<g id="a_edge48_Node000028_Node000003"><a xlink:title=" ">
<path fill="none" stroke="#63b8ff" d="M625.44,-512.86C732.15,-511.58 1096.4,-500.1 1096.4,-403 1096.4,-403 1096.4,-403 1096.4,-177 1096.4,-85.74 790.29,-69.68 644.22,-67.21"/>
<polygon fill="#63b8ff" stroke="#63b8ff" points="644.71,-63.72 634.66,-67.07 644.6,-70.72 644.71,-63.72"/>
</a>
</g>
</g>
<!-- Node28&#45;&gt;Node18 -->
<g id="edge49_Node000028_Node000018" class="edge">
<title>Node28&#45;&gt;Node18</title>
<g id="a_edge49_Node000028_Node000018"><a xlink:title=" ">
<path fill="none" stroke="#63b8ff" d="M593.64,-503.55C586.71,-479.3 568.6,-412.79 561.4,-356 556.96,-321 556.62,-279.89 556.92,-255.72"/>
<polygon fill="#63b8ff" stroke="#63b8ff" points="560.41,-256.03 557.09,-245.97 553.41,-255.91 560.41,-256.03"/>
</a>
</g>
</g>
<!-- Node29 -->
<g id="Node000029" class="node">
<title>Node29</title>
<g id="a_Node000029"><a xlink:title=" ">
<polygon fill="#e0e0e0" stroke="#999999" points="836.52,-468 788.27,-468 788.27,-448 836.52,-448 836.52,-468"/>
<text xml:space="preserve" text-anchor="middle" x="812.4" y="-454.5" font-family="Helvetica,sans-Serif" font-size="10.00">excpt.h</text>
</a>
</g>
</g>
<!-- Node28&#45;&gt;Node29 -->
<g id="edge46_Node000028_Node000029" class="edge">
<title>Node28&#45;&gt;Node29</title>
<g id="a_edge46_Node000028_Node000029"><a xlink:title=" ">
<path fill="none" stroke="#63b8ff" d="M625.44,-505.98C659.28,-497.75 717.18,-483.59 776.76,-468.39"/>
<polygon fill="#63b8ff" stroke="#63b8ff" points="777.61,-471.78 786.43,-465.91 775.88,-465 777.61,-471.78"/>
</a>
</g>
</g>
<!-- Node30 -->
<g id="Node000030" class="node">
<title>Node30</title>
<g id="a_Node000030"><a xlink:title=" ">
<polygon fill="#e0e0e0" stroke="#999999" points="483.9,-468 404.9,-468 404.9,-448 483.9,-448 483.9,-468"/>
<text xml:space="preserve" text-anchor="middle" x="444.4" y="-454.5" font-family="Helvetica,sans-Serif" font-size="10.00">CppUnitTest.h</text>
</a>
</g>
</g>
<!-- Node28&#45;&gt;Node30 -->
<g id="edge47_Node000028_Node000030" class="edge">
<title>Node28&#45;&gt;Node30</title>
<g id="a_edge47_Node000028_Node000030"><a xlink:title=" ">
<path fill="none" stroke="#63b8ff" d="M569.92,-503.59C545.55,-494.94 509.15,-482 481.81,-472.29"/>
<polygon fill="#63b8ff" stroke="#63b8ff" points="483.1,-469.04 472.51,-468.99 480.76,-475.63 483.1,-469.04"/>
</a>
</g>
</g>
<!-- Node31 -->
<g id="Node000031" class="node">
<title>Node31</title>
<g id="a_Node000031"><a xlink:href="_game_object_8h.html" target="_top" xlink:title=" ">
<polygon fill="white" stroke="#666666" points="769.77,-468 609.02,-468 609.02,-448 769.77,-448 769.77,-468"/>
<text xml:space="preserve" text-anchor="middle" x="689.4" y="-454.5" font-family="Helvetica,sans-Serif" font-size="10.00">FIEAGameEngine/GameObject.h</text>
</a>
</g>
</g>
<!-- Node28&#45;&gt;Node31 -->
<g id="edge50_Node000028_Node000031" class="edge">
<title>Node28&#45;&gt;Node31</title>
<g id="a_edge50_Node000028_Node000031"><a xlink:title=" ">
<path fill="none" stroke="#63b8ff" d="M612.6,-503.59C626.65,-495.44 647.23,-483.48 663.56,-474"/>
<polygon fill="#63b8ff" stroke="#63b8ff" points="664.87,-477.29 671.76,-469.24 661.36,-471.23 664.87,-477.29"/>
</a>
</g>
</g>
<!-- Node31&#45;&gt;Node3 -->
<g id="edge51_Node000031_Node000003" class="edge">
<title>Node31&#45;&gt;Node3</title>
<g id="a_edge51_Node000031_Node000003"><a xlink:title=" ">
<path fill="none" stroke="#63b8ff" d="M738.4,-447.56C838.77,-427.56 1058.4,-380.01 1058.4,-347 1058.4,-347 1058.4,-347 1058.4,-177 1058.4,-132.21 1022.56,-129.64 981.4,-112 922.59,-86.8 746.94,-74.92 644.64,-69.99"/>
<polygon fill="#63b8ff" stroke="#63b8ff" points="644.81,-66.5 634.66,-69.53 644.48,-73.49 644.81,-66.5"/>
</a>
</g>
</g>
<!-- Node31&#45;&gt;Node12 -->
<g id="edge54_Node000031_Node000012" class="edge">
<title>Node31&#45;&gt;Node12</title>
<g id="a_edge54_Node000031_Node000012"><a xlink:title=" ">
<path fill="none" stroke="#63b8ff" d="M681,-447.63C673.6,-438.95 663,-425.38 656.4,-412 649.38,-397.78 644.48,-380.5 641.42,-367.33"/>
<polygon fill="#63b8ff" stroke="#63b8ff" points="644.87,-366.72 639.35,-357.68 638.02,-368.19 644.87,-366.72"/>
</a>
</g>
</g>
<!-- Node31&#45;&gt;Node13 -->
<g id="edge52_Node000031_Node000013" class="edge">
<title>Node31&#45;&gt;Node13</title>
<g id="a_edge52_Node000031_Node000013"><a xlink:title=" ">
<path fill="none" stroke="#63b8ff" d="M769.68,-447.53C790.85,-440.95 811.4,-430.04 824.4,-412 850.56,-375.71 802.14,-330.5 771.24,-306.95"/>
<polygon fill="#63b8ff" stroke="#63b8ff" points="773.66,-304.38 763.54,-301.27 769.51,-310.02 773.66,-304.38"/>
</a>
</g>
</g>
<!-- Node31&#45;&gt;Node15 -->
<g id="edge60_Node000031_Node000015" class="edge">
<title>Node31&#45;&gt;Node15</title>
<g id="a_edge60_Node000031_Node000015"><a xlink:title=" ">
<path fill="none" stroke="#63b8ff" d="M730.41,-447.53C800.15,-430.23 934.4,-391.18 934.4,-347 934.4,-347 934.4,-347 934.4,-289 934.4,-229.93 755.07,-163.5 672.33,-136"/>
<polygon fill="#63b8ff" stroke="#63b8ff" points="673.59,-132.73 663,-132.93 671.4,-139.38 673.59,-132.73"/>
</a>
</g>
</g>
<!-- Node31&#45;&gt;Node21 -->
<g id="edge53_Node000031_Node000021" class="edge">
<title>Node31&#45;&gt;Node21</title>
<g id="a_edge53_Node000031_Node000021"><a xlink:title=" ">
<path fill="none" stroke="#63b8ff" d="M608.83,-452.8C519.57,-447.1 382.05,-434.88 335.4,-412 298.72,-394.01 270.4,-387.86 270.4,-347 270.4,-347 270.4,-347 270.4,-289 270.4,-257.82 267.97,-221.75 266.2,-199.66"/>
<polygon fill="#63b8ff" stroke="#63b8ff" points="269.71,-199.59 265.38,-189.92 262.73,-200.17 269.71,-199.59"/>
</a>
</g>
</g>
<!-- Node32 -->
<g id="Node000032" class="node">
<title>Node32</title>
<g id="a_Node000032"><a xlink:href="_action_list_8h.html" target="_top" xlink:title=" ">
<polygon fill="white" stroke="#666666" points="815.15,-412 665.65,-412 665.65,-392 815.15,-392 815.15,-412"/>
<text xml:space="preserve" text-anchor="middle" x="740.4" y="-398.5" font-family="Helvetica,sans-Serif" font-size="10.00">FIEAGameEngine/ActionList.h</text>
</a>
</g>
</g>
<!-- Node31&#45;&gt;Node32 -->
<g id="edge55_Node000031_Node000032" class="edge">
<title>Node31&#45;&gt;Node32</title>
<g id="a_edge55_Node000031_Node000032"><a xlink:title=" ">
<path fill="none" stroke="#63b8ff" d="M698.28,-447.59C705.3,-440.16 715.3,-429.58 723.79,-420.58"/>
<polygon fill="#63b8ff" stroke="#63b8ff" points="726.26,-423.07 730.58,-413.4 721.17,-418.27 726.26,-423.07"/>
</a>
</g>
</g>
<!-- Node32&#45;&gt;Node3 -->
<g id="edge56_Node000032_Node000003" class="edge">
<title>Node32&#45;&gt;Node3</title>
<g id="a_edge56_Node000032_Node000003"><a xlink:title=" ">
<path fill="none" stroke="#63b8ff" d="M757.7,-391.6C823.89,-354.55 1052.73,-215.54 960.4,-112 939.78,-88.88 752.54,-75.96 644.47,-70.38"/>
<polygon fill="#63b8ff" stroke="#63b8ff" points="644.66,-66.88 634.5,-69.87 644.31,-73.87 644.66,-66.88"/>
</a>
</g>
</g>
<!-- Node32&#45;&gt;Node12 -->
<g id="edge59_Node000032_Node000012" class="edge">
<title>Node32&#45;&gt;Node12</title>
<g id="a_edge59_Node000032_Node000012"><a xlink:title=" ">
<path fill="none" stroke="#63b8ff" d="M722.46,-391.59C706.75,-383.36 683.67,-371.26 665.51,-361.74"/>
<polygon fill="#63b8ff" stroke="#63b8ff" points="667.3,-358.73 656.82,-357.18 664.05,-364.93 667.3,-358.73"/>
</a>
</g>
</g>
<!-- Node32&#45;&gt;Node13 -->
<g id="edge57_Node000032_Node000013" class="edge">
<title>Node32&#45;&gt;Node13</title>
<g id="a_edge57_Node000032_Node000013"><a xlink:title=" ">
<path fill="none" stroke="#63b8ff" d="M741.08,-391.62C742.36,-374.01 745.16,-335.59 746.9,-311.65"/>
<polygon fill="#63b8ff" stroke="#63b8ff" points="750.37,-312.09 747.61,-301.86 743.39,-311.58 750.37,-312.09"/>
</a>
</g>
</g>
<!-- Node32&#45;&gt;Node21 -->
<g id="edge58_Node000032_Node000021" class="edge">
<title>Node32&#45;&gt;Node21</title>
<g id="a_edge58_Node000032_Node000021"><a xlink:title=" ">
<path fill="none" stroke="#63b8ff" d="M685.83,-391.58C649.68,-384.3 601.67,-372.64 561.4,-356 451.34,-310.52 333.5,-229.23 286.03,-194.95"/>
<polygon fill="#63b8ff" stroke="#63b8ff" points="288.37,-192.32 278.22,-189.27 284.25,-197.98 288.37,-192.32"/>
</a>
</g>
</g>
</g>
</svg>
