<?xml version="1.0" encoding="UTF-8" standalone="no"?>
<!DOCTYPE svg PUBLIC "-//W3C//DTD SVG 1.1//EN"
 "http://www.w3.org/Graphics/SVG/1.1/DTD/svg11.dtd">
<!-- Generated by graphviz version 13.1.0 (20250701.0955)
 -->
<!-- Title: FIEAGameEngine/src/Actions/ActionCondition.h Pages: 1 -->
<svg width="481pt" height="120pt"
 viewBox="0.00 0.00 481.00 120.00" xmlns="http://www.w3.org/2000/svg" xmlns:xlink="http://www.w3.org/1999/xlink">
<g id="graph0" class="graph" transform="scale(1 1) rotate(0) translate(4 116)">
<title>FIEAGameEngine/src/Actions/ActionCondition.h</title>
<!-- Node1 -->
<g id="Node000001" class="node">
<title>Node1</title>
<g id="a_Node000001"><a xlink:title=" ">
<polygon fill="#999999" stroke="#666666" points="292.5,-112 160.25,-112 160.25,-80 292.5,-80 292.5,-112"/>
<text xml:space="preserve" text-anchor="start" x="168.25" y="-98.5" font-family="Helvetica,sans-Serif" font-size="10.00">FIEAGameEngine/src</text>
<text xml:space="preserve" text-anchor="middle" x="226.38" y="-86.5" font-family="Helvetica,sans-Serif" font-size="10.00">/Actions/ActionCondition.h</text>
</a>
</g>
</g>
<!-- Node2 -->
<g id="Node000002" class="node">
<title>Node2</title>
<g id="a_Node000002"><a xlink:href="_action_condition_8cpp.html" target="_top" xlink:title=" ">
<polygon fill="white" stroke="#666666" points="142.75,-38 0,-38 0,-6 142.75,-6 142.75,-38"/>
<text xml:space="preserve" text-anchor="start" x="8" y="-24.5" font-family="Helvetica,sans-Serif" font-size="10.00">FIEAGameEngine/src</text>
<text xml:space="preserve" text-anchor="middle" x="71.38" y="-12.5" font-family="Helvetica,sans-Serif" font-size="10.00">/Actions/ActionCondition.cpp</text>
</a>
</g>
</g>
<!-- Node1&#45;&gt;Node2 -->
<g id="edge1_Node000001_Node000002" class="edge">
<title>Node1&#45;&gt;Node2</title>
<g id="a_edge1_Node000001_Node000002"><a xlink:title=" ">
<path fill="none" stroke="#63b8ff" d="M182.88,-74.8C158.06,-63.27 127.44,-49.04 104.57,-38.42"/>
<polygon fill="#63b8ff" stroke="#63b8ff" points="181.21,-77.88 191.75,-78.92 184.16,-71.53 181.21,-77.88"/>
</a>
</g>
</g>
<!-- Node3 -->
<g id="Node000003" class="node">
<title>Node3</title>
<g id="a_Node000003"><a xlink:href="_action_conditional_increment_8cpp.html" target="_top" xlink:title=" ">
<polygon fill="white" stroke="#666666" points="292.12,-44 160.62,-44 160.62,0 292.12,0 292.12,-44"/>
<text xml:space="preserve" text-anchor="start" x="168.62" y="-30.5" font-family="Helvetica,sans-Serif" font-size="10.00">FIEAGameEngine/src</text>
<text xml:space="preserve" text-anchor="start" x="168.62" y="-18.5" font-family="Helvetica,sans-Serif" font-size="10.00">/Actions/ActionConditional</text>
<text xml:space="preserve" text-anchor="middle" x="226.38" y="-6.5" font-family="Helvetica,sans-Serif" font-size="10.00">Increment.cpp</text>
</a>
</g>
</g>
<!-- Node1&#45;&gt;Node3 -->
<g id="edge2_Node000001_Node000003" class="edge">
<title>Node1&#45;&gt;Node3</title>
<g id="a_edge2_Node000001_Node000003"><a xlink:title=" ">
<path fill="none" stroke="#63b8ff" d="M226.38,-68.38C226.38,-60.43 226.38,-51.82 226.38,-44.26"/>
<polygon fill="#63b8ff" stroke="#63b8ff" points="222.88,-68.22 226.38,-78.22 229.88,-68.22 222.88,-68.22"/>
</a>
</g>
</g>
<!-- Node4 -->
<g id="Node000004" class="node">
<title>Node4</title>
<g id="a_Node000004"><a xlink:href="_action_list_while_loop_8cpp.html" target="_top" xlink:title=" ">
<polygon fill="white" stroke="#666666" points="472.88,-38 309.88,-38 309.88,-6 472.88,-6 472.88,-38"/>
<text xml:space="preserve" text-anchor="start" x="317.88" y="-24.5" font-family="Helvetica,sans-Serif" font-size="10.00">FIEAGameEngine/src</text>
<text xml:space="preserve" text-anchor="middle" x="391.38" y="-12.5" font-family="Helvetica,sans-Serif" font-size="10.00">/Actions/ActionListWhileLoop.cpp</text>
</a>
</g>
</g>
<!-- Node1&#45;&gt;Node4 -->
<g id="edge3_Node000001_Node000004" class="edge">
<title>Node1&#45;&gt;Node4</title>
<g id="a_edge3_Node000001_Node000004"><a xlink:title=" ">
<path fill="none" stroke="#63b8ff" d="M272.32,-74.95C298.8,-63.4 331.58,-49.09 356.04,-38.42"/>
<polygon fill="#63b8ff" stroke="#63b8ff" points="270.92,-71.74 263.16,-78.95 273.72,-78.16 270.92,-71.74"/>
</a>
</g>
</g>
</g>
</svg>
