<?xml version="1.0" encoding="UTF-8" standalone="no"?>
<!DOCTYPE svg PUBLIC "-//W3C//DTD SVG 1.1//EN"
 "http://www.w3.org/Graphics/SVG/1.1/DTD/svg11.dtd">
<!-- Generated by graphviz version 13.1.0 (20250701.0955)
 -->
<!-- Title: FIEAGameEngine/src/ActionList.cpp Pages: 1 -->
<svg width="1006pt" height="488pt"
 viewBox="0.00 0.00 1006.00 488.00" xmlns="http://www.w3.org/2000/svg" xmlns:xlink="http://www.w3.org/1999/xlink">
<g id="graph0" class="graph" transform="scale(1 1) rotate(0) translate(4 484)">
<title>FIEAGameEngine/src/ActionList.cpp</title>
<!-- Node1 -->
<g id="Node000001" class="node">
<title>Node1</title>
<g id="a_Node000001"><a xlink:title=" ">
<polygon fill="#999999" stroke="#666666" points="591.62,-480 480.38,-480 480.38,-448 591.62,-448 591.62,-480"/>
<text xml:space="preserve" text-anchor="start" x="488.38" y="-466.5" font-family="Helvetica,sans-Serif" font-size="10.00">FIEAGameEngine/src</text>
<text xml:space="preserve" text-anchor="middle" x="536" y="-454.5" font-family="Helvetica,sans-Serif" font-size="10.00">/ActionList.cpp</text>
</a>
</g>
</g>
<!-- Node2 -->
<g id="Node000002" class="node">
<title>Node2</title>
<g id="a_Node000002"><a xlink:href="_action_list_8h.html" target="_top" xlink:title=" ">
<polygon fill="white" stroke="#666666" points="610.75,-412 461.25,-412 461.25,-392 610.75,-392 610.75,-412"/>
<text xml:space="preserve" text-anchor="middle" x="536" y="-398.5" font-family="Helvetica,sans-Serif" font-size="10.00">FIEAGameEngine/ActionList.h</text>
</a>
</g>
</g>
<!-- Node1&#45;&gt;Node2 -->
<g id="edge1_Node000001_Node000002" class="edge">
<title>Node1&#45;&gt;Node2</title>
<g id="a_edge1_Node000001_Node000002"><a xlink:title=" ">
<path fill="none" stroke="#63b8ff" d="M536,-447.55C536,-440.34 536,-431.66 536,-423.88"/>
<polygon fill="#63b8ff" stroke="#63b8ff" points="539.5,-423.92 536,-413.92 532.5,-423.92 539.5,-423.92"/>
</a>
</g>
</g>
<!-- Node3 -->
<g id="Node000003" class="node">
<title>Node3</title>
<g id="a_Node000003"><a xlink:href="_types_8h.html" target="_top" xlink:title=" ">
<polygon fill="white" stroke="#666666" points="507.12,-76 374.88,-76 374.88,-56 507.12,-56 507.12,-76"/>
<text xml:space="preserve" text-anchor="middle" x="441" y="-62.5" font-family="Helvetica,sans-Serif" font-size="10.00">FIEAGameEngine/Types.h</text>
</a>
</g>
</g>
<!-- Node2&#45;&gt;Node3 -->
<g id="edge2_Node000002_Node000003" class="edge">
<title>Node2&#45;&gt;Node3</title>
<g id="a_edge2_Node000002_Node000003"><a xlink:title=" ">
<path fill="none" stroke="#63b8ff" d="M460.91,-401.04C313.39,-399.08 0,-383.98 0,-291 0,-291 0,-291 0,-177 0,-143.31 10.65,-130.21 39,-112 91.06,-78.56 261.91,-69.84 363.36,-67.64"/>
<polygon fill="#63b8ff" stroke="#63b8ff" points="363.32,-71.15 373.25,-67.45 363.19,-64.15 363.32,-71.15"/>
</a>
</g>
</g>
<!-- Node12 -->
<g id="Node000012" class="node">
<title>Node12</title>
<g id="a_Node000012"><a xlink:href="_attributed_8h.html" target="_top" xlink:title=" ">
<polygon fill="white" stroke="#666666" points="513.88,-300 410.12,-300 410.12,-280 513.88,-280 513.88,-300"/>
<text xml:space="preserve" text-anchor="middle" x="462" y="-286.5" font-family="Helvetica,sans-Serif" font-size="10.00">Content/Attributed.h</text>
</a>
</g>
</g>
<!-- Node2&#45;&gt;Node12 -->
<g id="edge11_Node000002_Node000012" class="edge">
<title>Node2&#45;&gt;Node12</title>
<g id="a_edge11_Node000002_Node000012"><a xlink:title=" ">
<path fill="none" stroke="#63b8ff" d="M527.57,-391.71C519.73,-382.86 507.95,-369 499,-356 488.76,-341.13 478.73,-323.23 471.7,-309.99"/>
<polygon fill="#63b8ff" stroke="#63b8ff" points="474.98,-308.72 467.26,-301.47 468.78,-311.95 474.98,-308.72"/>
</a>
</g>
</g>
<!-- Node20 -->
<g id="Node000020" class="node">
<title>Node20</title>
<g id="a_Node000020"><a xlink:href="_factory_service_8h.html" target="_top" xlink:title=" ">
<polygon fill="white" stroke="#666666" points="780,-188 608,-188 608,-168 780,-168 780,-188"/>
<text xml:space="preserve" text-anchor="middle" x="694" y="-174.5" font-family="Helvetica,sans-Serif" font-size="10.00">FIEAGameEngine/FactoryService.h</text>
</a>
</g>
</g>
<!-- Node2&#45;&gt;Node20 -->
<g id="edge39_Node000002_Node000020" class="edge">
<title>Node2&#45;&gt;Node20</title>
<g id="a_edge39_Node000002_Node000020"><a xlink:title=" ">
<path fill="none" stroke="#63b8ff" d="M584.68,-391.51C607.34,-384.91 633.17,-373.95 651,-356 693.47,-313.26 696.54,-236.09 695.33,-199.42"/>
<polygon fill="#63b8ff" stroke="#63b8ff" points="698.85,-199.59 694.86,-189.77 691.85,-199.93 698.85,-199.59"/>
</a>
</g>
</g>
<!-- Node26 -->
<g id="Node000026" class="node">
<title>Node26</title>
<g id="a_Node000026"><a xlink:href="_action_8h.html" target="_top" xlink:title=" ">
<polygon fill="white" stroke="#666666" points="641.88,-356 508.12,-356 508.12,-336 641.88,-336 641.88,-356"/>
<text xml:space="preserve" text-anchor="middle" x="575" y="-342.5" font-family="Helvetica,sans-Serif" font-size="10.00">FIEAGameEngine/Action.h</text>
</a>
</g>
</g>
<!-- Node2&#45;&gt;Node26 -->
<g id="edge40_Node000002_Node000026" class="edge">
<title>Node2&#45;&gt;Node26</title>
<g id="a_edge40_Node000002_Node000026"><a xlink:title=" ">
<path fill="none" stroke="#63b8ff" d="M542.79,-391.59C547.99,-384.39 555.33,-374.23 561.69,-365.43"/>
<polygon fill="#63b8ff" stroke="#63b8ff" points="564.38,-367.68 567.4,-357.53 558.71,-363.58 564.38,-367.68"/>
</a>
</g>
</g>
<!-- Node4 -->
<g id="Node000004" class="node">
<title>Node4</title>
<g id="a_Node000004"><a xlink:title=" ">
<polygon fill="#e0e0e0" stroke="#999999" points="221,-20 61,-20 61,0 221,0 221,-20"/>
<text xml:space="preserve" text-anchor="middle" x="141" y="-6.5" font-family="Helvetica,sans-Serif" font-size="10.00">../src/Memory/SystemAllocator.h</text>
</a>
</g>
</g>
<!-- Node3&#45;&gt;Node4 -->
<g id="edge3_Node000003_Node000004" class="edge">
<title>Node3&#45;&gt;Node4</title>
<g id="a_edge3_Node000003_Node000004"><a xlink:title=" ">
<path fill="none" stroke="#63b8ff" d="M388.4,-55.53C337.26,-46.33 259.5,-32.33 204.83,-22.49"/>
<polygon fill="#63b8ff" stroke="#63b8ff" points="205.49,-19.05 195.03,-20.73 204.25,-25.94 205.49,-19.05"/>
</a>
</g>
</g>
<!-- Node5 -->
<g id="Node000005" class="node">
<title>Node5</title>
<g id="a_Node000005"><a xlink:title=" ">
<polygon fill="#e0e0e0" stroke="#999999" points="301.25,-20 238.75,-20 238.75,0 301.25,0 301.25,-20"/>
<text xml:space="preserve" text-anchor="middle" x="270" y="-6.5" font-family="Helvetica,sans-Serif" font-size="10.00">windows.h</text>
</a>
</g>
</g>
<!-- Node3&#45;&gt;Node5 -->
<g id="edge4_Node000003_Node000005" class="edge">
<title>Node3&#45;&gt;Node5</title>
<g id="a_edge4_Node000003_Node000005"><a xlink:title=" ">
<path fill="none" stroke="#63b8ff" d="M411.21,-55.59C383.43,-46.82 341.75,-33.66 310.86,-23.9"/>
<polygon fill="#63b8ff" stroke="#63b8ff" points="312.05,-20.61 301.46,-20.94 309.94,-27.28 312.05,-20.61"/>
</a>
</g>
</g>
<!-- Node6 -->
<g id="Node000006" class="node">
<title>Node6</title>
<g id="a_Node000006"><a xlink:title=" ">
<polygon fill="#e0e0e0" stroke="#999999" points="367.12,-20 318.88,-20 318.88,0 367.12,0 367.12,-20"/>
<text xml:space="preserve" text-anchor="middle" x="343" y="-6.5" font-family="Helvetica,sans-Serif" font-size="10.00">cassert</text>
</a>
</g>
</g>
<!-- Node3&#45;&gt;Node6 -->
<g id="edge5_Node000003_Node000006" class="edge">
<title>Node3&#45;&gt;Node6</title>
<g id="a_edge5_Node000003_Node000006"><a xlink:title=" ">
<path fill="none" stroke="#63b8ff" d="M423.93,-55.59C409.12,-47.44 387.43,-35.48 370.23,-26"/>
<polygon fill="#63b8ff" stroke="#63b8ff" points="371.98,-22.97 361.53,-21.21 368.6,-29.1 371.98,-22.97"/>
</a>
</g>
</g>
<!-- Node7 -->
<g id="Node000007" class="node">
<title>Node7</title>
<g id="a_Node000007"><a xlink:title=" ">
<polygon fill="#e0e0e0" stroke="#999999" points="433.12,-20 384.88,-20 384.88,0 433.12,0 433.12,-20"/>
<text xml:space="preserve" text-anchor="middle" x="409" y="-6.5" font-family="Helvetica,sans-Serif" font-size="10.00">cstddef</text>
</a>
</g>
</g>
<!-- Node3&#45;&gt;Node7 -->
<g id="edge6_Node000003_Node000007" class="edge">
<title>Node3&#45;&gt;Node7</title>
<g id="a_edge6_Node000003_Node000007"><a xlink:title=" ">
<path fill="none" stroke="#63b8ff" d="M435.43,-55.59C431.25,-48.55 425.4,-38.67 420.26,-30"/>
<polygon fill="#63b8ff" stroke="#63b8ff" points="423.39,-28.42 415.28,-21.6 417.37,-31.99 423.39,-28.42"/>
</a>
</g>
</g>
<!-- Node8 -->
<g id="Node000008" class="node">
<title>Node8</title>
<g id="a_Node000008"><a xlink:title=" ">
<polygon fill="#e0e0e0" stroke="#999999" points="496.62,-20 451.38,-20 451.38,0 496.62,0 496.62,-20"/>
<text xml:space="preserve" text-anchor="middle" x="474" y="-6.5" font-family="Helvetica,sans-Serif" font-size="10.00">cstdint</text>
</a>
</g>
</g>
<!-- Node3&#45;&gt;Node8 -->
<g id="edge7_Node000003_Node000008" class="edge">
<title>Node3&#45;&gt;Node8</title>
<g id="a_edge7_Node000003_Node000008"><a xlink:title=" ">
<path fill="none" stroke="#63b8ff" d="M446.75,-55.59C451.05,-48.55 457.09,-38.67 462.39,-30"/>
<polygon fill="#63b8ff" stroke="#63b8ff" points="465.3,-31.95 467.53,-21.59 459.33,-28.3 465.3,-31.95"/>
</a>
</g>
</g>
<!-- Node9 -->
<g id="Node000009" class="node">
<title>Node9</title>
<g id="a_Node000009"><a xlink:title=" ">
<polygon fill="#e0e0e0" stroke="#999999" points="567.38,-20 514.62,-20 514.62,0 567.38,0 567.38,-20"/>
<text xml:space="preserve" text-anchor="middle" x="541" y="-6.5" font-family="Helvetica,sans-Serif" font-size="10.00">cstdbool</text>
</a>
</g>
</g>
<!-- Node3&#45;&gt;Node9 -->
<g id="edge8_Node000003_Node000009" class="edge">
<title>Node3&#45;&gt;Node9</title>
<g id="a_edge8_Node000003_Node000009"><a xlink:title=" ">
<path fill="none" stroke="#63b8ff" d="M458.42,-55.59C473.67,-47.36 496.08,-35.26 513.71,-25.74"/>
<polygon fill="#63b8ff" stroke="#63b8ff" points="514.98,-29.03 522.11,-21.2 511.65,-22.87 514.98,-29.03"/>
</a>
</g>
</g>
<!-- Node10 -->
<g id="Node000010" class="node">
<title>Node10</title>
<g id="a_Node000010"><a xlink:title=" ">
<polygon fill="#e0e0e0" stroke="#999999" points="625,-20 585,-20 585,0 625,0 625,-20"/>
<text xml:space="preserve" text-anchor="middle" x="605" y="-6.5" font-family="Helvetica,sans-Serif" font-size="10.00">string</text>
</a>
</g>
</g>
<!-- Node3&#45;&gt;Node10 -->
<g id="edge9_Node000003_Node000010" class="edge">
<title>Node3&#45;&gt;Node10</title>
<g id="a_edge9_Node000003_Node000010"><a xlink:title=" ">
<path fill="none" stroke="#63b8ff" d="M469.57,-55.59C498.7,-46 543.77,-31.16 573.81,-21.27"/>
<polygon fill="#63b8ff" stroke="#63b8ff" points="574.69,-24.67 583.09,-18.21 572.5,-18.02 574.69,-24.67"/>
</a>
</g>
</g>
<!-- Node11 -->
<g id="Node000011" class="node">
<title>Node11</title>
<g id="a_Node000011"><a xlink:title=" ">
<polygon fill="#e0e0e0" stroke="#999999" points="697.12,-20 642.88,-20 642.88,0 697.12,0 697.12,-20"/>
<text xml:space="preserve" text-anchor="middle" x="670" y="-6.5" font-family="Helvetica,sans-Serif" font-size="10.00">crtdefs.h</text>
</a>
</g>
</g>
<!-- Node3&#45;&gt;Node11 -->
<g id="edge10_Node000003_Node000011" class="edge">
<title>Node3&#45;&gt;Node11</title>
<g id="a_edge10_Node000003_Node000011"><a xlink:title=" ">
<path fill="none" stroke="#63b8ff" d="M482.46,-55.53C519.2,-47.1 574.61,-34.27 631.48,-20.58"/>
<polygon fill="#63b8ff" stroke="#63b8ff" points="632.12,-24.03 641.02,-18.28 630.48,-17.22 632.12,-24.03"/>
</a>
</g>
</g>
<!-- Node12&#45;&gt;Node3 -->
<g id="edge12_Node000012_Node000003" class="edge">
<title>Node12&#45;&gt;Node3</title>
<g id="a_edge12_Node000012_Node000003"><a xlink:title=" ">
<path fill="none" stroke="#63b8ff" d="M409.66,-284.9C278.2,-272.74 -48.07,-230.1 57,-112 76.96,-89.56 256.71,-76.5 363.06,-70.68"/>
<polygon fill="#63b8ff" stroke="#63b8ff" points="363.07,-74.18 372.87,-70.15 362.7,-67.19 363.07,-74.18"/>
</a>
</g>
</g>
<!-- Node13 -->
<g id="Node000013" class="node">
<title>Node13</title>
<g id="a_Node000013"><a xlink:href="_datum_8h.html" target="_top" xlink:title=" ">
<polygon fill="white" stroke="#666666" points="361.5,-188 270.5,-188 270.5,-168 361.5,-168 361.5,-188"/>
<text xml:space="preserve" text-anchor="middle" x="316" y="-174.5" font-family="Helvetica,sans-Serif" font-size="10.00">Content/Datum.h</text>
</a>
</g>
</g>
<!-- Node12&#45;&gt;Node13 -->
<g id="edge13_Node000012_Node000013" class="edge">
<title>Node12&#45;&gt;Node13</title>
<g id="a_edge13_Node000012_Node000013"><a xlink:title=" ">
<path fill="none" stroke="#63b8ff" d="M442.32,-279.56C425.8,-271.22 401.93,-258.22 383,-244 363.86,-229.63 344.51,-210.21 331.56,-196.35"/>
<polygon fill="#63b8ff" stroke="#63b8ff" points="334.4,-194.27 325.06,-189.27 329.24,-199 334.4,-194.27"/>
</a>
</g>
</g>
<!-- Node17 -->
<g id="Node000017" class="node">
<title>Node17</title>
<g id="a_Node000017"><a xlink:href="_scope_8h.html" target="_top" xlink:title=" ">
<polygon fill="white" stroke="#666666" points="489.75,-244 400.25,-244 400.25,-224 489.75,-224 489.75,-244"/>
<text xml:space="preserve" text-anchor="middle" x="445" y="-230.5" font-family="Helvetica,sans-Serif" font-size="10.00">Content/Scope.h</text>
</a>
</g>
</g>
<!-- Node12&#45;&gt;Node17 -->
<g id="edge19_Node000012_Node000017" class="edge">
<title>Node12&#45;&gt;Node17</title>
<g id="a_edge19_Node000012_Node000017"><a xlink:title=" ">
<path fill="none" stroke="#63b8ff" d="M459.04,-279.59C456.92,-272.86 453.98,-263.53 451.34,-255.15"/>
<polygon fill="#63b8ff" stroke="#63b8ff" points="454.72,-254.23 448.38,-245.74 448.05,-256.33 454.72,-254.23"/>
</a>
</g>
</g>
<!-- Node18 -->
<g id="Node000018" class="node">
<title>Node18</title>
<g id="a_Node000018"><a xlink:href="_r_t_t_i_8h.html" target="_top" xlink:title=" ">
<polygon fill="white" stroke="#666666" points="644.88,-132 517.12,-132 517.12,-112 644.88,-112 644.88,-132"/>
<text xml:space="preserve" text-anchor="middle" x="581" y="-118.5" font-family="Helvetica,sans-Serif" font-size="10.00">FIEAGameEngine/RTTI.h</text>
</a>
</g>
</g>
<!-- Node12&#45;&gt;Node18 -->
<g id="edge36_Node000012_Node000018" class="edge">
<title>Node12&#45;&gt;Node18</title>
<g id="a_edge36_Node000012_Node000018"><a xlink:title=" ">
<path fill="none" stroke="#63b8ff" d="M470.2,-279.55C477.88,-270.58 489.55,-256.64 499,-244 525.22,-208.92 553.35,-166.15 568.9,-142"/>
<polygon fill="#63b8ff" stroke="#63b8ff" points="571.85,-143.89 574.29,-133.58 565.95,-140.12 571.85,-143.89"/>
</a>
</g>
</g>
<!-- Node24 -->
<g id="Node000024" class="node">
<title>Node24</title>
<g id="a_Node000024"><a xlink:title=" ">
<polygon fill="#e0e0e0" stroke="#999999" points="422.5,-188 379.5,-188 379.5,-168 422.5,-168 422.5,-188"/>
<text xml:space="preserve" text-anchor="middle" x="401" y="-174.5" font-family="Helvetica,sans-Serif" font-size="10.00">vector</text>
</a>
</g>
</g>
<!-- Node12&#45;&gt;Node24 -->
<g id="edge37_Node000012_Node000024" class="edge">
<title>Node12&#45;&gt;Node24</title>
<g id="a_edge37_Node000012_Node000024"><a xlink:title=" ">
<path fill="none" stroke="#63b8ff" d="M435.06,-279.6C419.15,-272.49 400.36,-261.01 391,-244 383.42,-230.23 386.89,-212.47 391.71,-199"/>
<polygon fill="#63b8ff" stroke="#63b8ff" points="394.9,-200.44 395.48,-189.87 388.43,-197.78 394.9,-200.44"/>
</a>
</g>
</g>
<!-- Node25 -->
<g id="Node000025" class="node">
<title>Node25</title>
<g id="a_Node000025"><a xlink:title=" ">
<polygon fill="#e0e0e0" stroke="#999999" points="604,-244 546,-244 546,-224 604,-224 604,-244"/>
<text xml:space="preserve" text-anchor="middle" x="575" y="-230.5" font-family="Helvetica,sans-Serif" font-size="10.00">functional</text>
</a>
</g>
</g>
<!-- Node12&#45;&gt;Node25 -->
<g id="edge38_Node000012_Node000025" class="edge">
<title>Node12&#45;&gt;Node25</title>
<g id="a_edge38_Node000012_Node000025"><a xlink:title=" ">
<path fill="none" stroke="#63b8ff" d="M481.68,-279.59C499.16,-271.24 524.95,-258.92 545,-249.34"/>
<polygon fill="#63b8ff" stroke="#63b8ff" points="546.28,-252.6 553.8,-245.13 543.27,-246.29 546.28,-252.6"/>
</a>
</g>
</g>
<!-- Node13&#45;&gt;Node3 -->
<g id="edge14_Node000013_Node000003" class="edge">
<title>Node13&#45;&gt;Node3</title>
<g id="a_edge14_Node000013_Node000003"><a xlink:title=" ">
<path fill="none" stroke="#63b8ff" d="M337.78,-167.52C354.38,-159.6 377.17,-147.18 394,-132 408.83,-118.62 421.8,-99.83 430.33,-85.89"/>
<polygon fill="#63b8ff" stroke="#63b8ff" points="433.13,-88.04 435.19,-77.65 427.09,-84.49 433.13,-88.04"/>
</a>
</g>
</g>
<!-- Node14 -->
<g id="Node000014" class="node">
<title>Node14</title>
<g id="a_Node000014"><a xlink:title=" ">
<polygon fill="#e0e0e0" stroke="#999999" points="384.62,-132 315.38,-132 315.38,-112 384.62,-112 384.62,-132"/>
<text xml:space="preserve" text-anchor="middle" x="350" y="-118.5" font-family="Helvetica,sans-Serif" font-size="10.00">glm/glm.hpp</text>
</a>
</g>
</g>
<!-- Node13&#45;&gt;Node14 -->
<g id="edge15_Node000013_Node000014" class="edge">
<title>Node13&#45;&gt;Node14</title>
<g id="a_edge15_Node000013_Node000014"><a xlink:title=" ">
<path fill="none" stroke="#63b8ff" d="M321.92,-167.59C326.36,-160.55 332.58,-150.67 338.04,-142"/>
<polygon fill="#63b8ff" stroke="#63b8ff" points="340.97,-143.91 343.34,-133.58 335.05,-140.18 340.97,-143.91"/>
</a>
</g>
</g>
<!-- Node15 -->
<g id="Node000015" class="node">
<title>Node15</title>
<g id="a_Node000015"><a xlink:title=" ">
<polygon fill="#e0e0e0" stroke="#999999" points="184,-132 66,-132 66,-112 184,-112 184,-132"/>
<text xml:space="preserve" text-anchor="middle" x="125" y="-118.5" font-family="Helvetica,sans-Serif" font-size="10.00">glm/gtx/string_cast.hpp</text>
</a>
</g>
</g>
<!-- Node13&#45;&gt;Node15 -->
<g id="edge16_Node000013_Node000015" class="edge">
<title>Node13&#45;&gt;Node15</title>
<g id="a_edge16_Node000013_Node000015"><a xlink:title=" ">
<path fill="none" stroke="#63b8ff" d="M282.73,-167.59C251.29,-158.71 203.91,-145.31 169.29,-135.52"/>
<polygon fill="#63b8ff" stroke="#63b8ff" points="170.56,-132.24 159.99,-132.89 168.66,-138.98 170.56,-132.24"/>
</a>
</g>
</g>
<!-- Node16 -->
<g id="Node000016" class="node">
<title>Node16</title>
<g id="a_Node000016"><a xlink:href="_datum_8inl.html" target="_top" xlink:title=" ">
<polygon fill="white" stroke="#666666" points="297.75,-132 202.25,-132 202.25,-112 297.75,-112 297.75,-132"/>
<text xml:space="preserve" text-anchor="middle" x="250" y="-118.5" font-family="Helvetica,sans-Serif" font-size="10.00">Content/Datum.inl</text>
</a>
</g>
</g>
<!-- Node13&#45;&gt;Node16 -->
<g id="edge17_Node000013_Node000016" class="edge">
<title>Node13&#45;&gt;Node16</title>
<g id="a_edge17_Node000013_Node000016"><a xlink:title=" ">
<path fill="none" stroke="#63b8ff" d="M299.24,-167.59C288.44,-160.01 274.8,-149.13 264.48,-140.02"/>
<polygon fill="#63b8ff" stroke="#63b8ff" points="266.95,-137.54 257.23,-133.33 262.2,-142.68 266.95,-137.54"/>
</a>
</g>
</g>
<!-- Node16&#45;&gt;Node13 -->
<g id="edge18_Node000016_Node000013" class="edge">
<title>Node16&#45;&gt;Node13</title>
<g id="a_edge18_Node000016_Node000013"><a xlink:title=" ">
<path fill="none" stroke="#63b8ff" d="M266.87,-132.48C277.61,-140.04 291.15,-150.83 301.43,-159.9"/>
<polygon fill="#63b8ff" stroke="#63b8ff" points="298.93,-162.36 308.66,-166.57 303.68,-157.21 298.93,-162.36"/>
</a>
</g>
</g>
<!-- Node17&#45;&gt;Node3 -->
<g id="edge20_Node000017_Node000003" class="edge">
<title>Node17&#45;&gt;Node3</title>
<g id="a_edge20_Node000017_Node000003"><a xlink:title=" ">
<path fill="none" stroke="#63b8ff" d="M444.77,-223.6C444.14,-197.46 442.36,-123.48 441.49,-87.36"/>
<polygon fill="#63b8ff" stroke="#63b8ff" points="445,-87.72 441.26,-77.81 438,-87.89 445,-87.72"/>
</a>
</g>
</g>
<!-- Node17&#45;&gt;Node13 -->
<g id="edge25_Node000017_Node000013" class="edge">
<title>Node17&#45;&gt;Node13</title>
<g id="a_edge25_Node000017_Node000013"><a xlink:title=" ">
<path fill="none" stroke="#63b8ff" d="M422.53,-223.59C402.21,-215.09 372.05,-202.46 348.99,-192.81"/>
<polygon fill="#63b8ff" stroke="#63b8ff" points="350.62,-189.7 340.04,-189.06 347.91,-196.15 350.62,-189.7"/>
</a>
</g>
</g>
<!-- Node17&#45;&gt;Node18 -->
<g id="edge21_Node000017_Node000018" class="edge">
<title>Node17&#45;&gt;Node18</title>
<g id="a_edge21_Node000017_Node000018"><a xlink:title=" ">
<path fill="none" stroke="#63b8ff" d="M456.6,-223.62C479.68,-204.95 531.65,-162.92 560.58,-139.52"/>
<polygon fill="#63b8ff" stroke="#63b8ff" points="562.68,-142.32 568.26,-133.31 558.28,-136.87 562.68,-142.32"/>
</a>
</g>
</g>
<!-- Node17&#45;&gt;Node20 -->
<g id="edge26_Node000017_Node000020" class="edge">
<title>Node17&#45;&gt;Node20</title>
<g id="a_edge26_Node000017_Node000020"><a xlink:title=" ">
<path fill="none" stroke="#63b8ff" d="M488.66,-223.53C530.57,-214.44 594.03,-200.68 639.3,-190.86"/>
<polygon fill="#63b8ff" stroke="#63b8ff" points="639.88,-194.32 648.91,-188.78 638.4,-187.48 639.88,-194.32"/>
</a>
</g>
</g>
<!-- Node22 -->
<g id="Node000022" class="node">
<title>Node22</title>
<g id="a_Node000022"><a xlink:title=" ">
<polygon fill="#e0e0e0" stroke="#999999" points="998.38,-76 915.62,-76 915.62,-56 998.38,-56 998.38,-76"/>
<text xml:space="preserve" text-anchor="middle" x="957" y="-62.5" font-family="Helvetica,sans-Serif" font-size="10.00">unordered_map</text>
</a>
</g>
</g>
<!-- Node17&#45;&gt;Node22 -->
<g id="edge35_Node000017_Node000022" class="edge">
<title>Node17&#45;&gt;Node22</title>
<g id="a_edge35_Node000017_Node000022"><a xlink:title=" ">
<path fill="none" stroke="#63b8ff" d="M490.05,-228.18C569.89,-219.47 733.08,-200.8 789,-188 866.13,-170.34 911.68,-196.15 958,-132 967.2,-119.26 966.1,-101.15 963.18,-87.29"/>
<polygon fill="#63b8ff" stroke="#63b8ff" points="966.64,-86.69 960.74,-77.9 959.86,-88.45 966.64,-86.69"/>
</a>
</g>
</g>
<!-- Node17&#45;&gt;Node24 -->
<g id="edge34_Node000017_Node000024" class="edge">
<title>Node17&#45;&gt;Node24</title>
<g id="a_edge34_Node000017_Node000024"><a xlink:title=" ">
<path fill="none" stroke="#63b8ff" d="M437.34,-223.59C431.41,-216.32 423.01,-206.02 415.79,-197.15"/>
<polygon fill="#63b8ff" stroke="#63b8ff" points="418.56,-195.01 409.53,-189.47 413.14,-199.43 418.56,-195.01"/>
</a>
</g>
</g>
<!-- Node18&#45;&gt;Node3 -->
<g id="edge22_Node000018_Node000003" class="edge">
<title>Node18&#45;&gt;Node3</title>
<g id="a_edge22_Node000018_Node000003"><a xlink:title=" ">
<path fill="none" stroke="#63b8ff" d="M556.61,-111.59C534.37,-103.01 501.23,-90.23 476.13,-80.55"/>
<polygon fill="#63b8ff" stroke="#63b8ff" points="477.58,-77.36 466.99,-77.02 475.06,-83.89 477.58,-77.36"/>
</a>
</g>
</g>
<!-- Node19 -->
<g id="Node000019" class="node">
<title>Node19</title>
<g id="a_Node000019"><a xlink:href="_r_t_t_i_8inl.html" target="_top" xlink:title=" ">
<polygon fill="white" stroke="#666666" points="657.12,-76 524.88,-76 524.88,-56 657.12,-56 657.12,-76"/>
<text xml:space="preserve" text-anchor="middle" x="591" y="-62.5" font-family="Helvetica,sans-Serif" font-size="10.00">FIEAGameEngine/RTTI.inl</text>
</a>
</g>
</g>
<!-- Node18&#45;&gt;Node19 -->
<g id="edge23_Node000018_Node000019" class="edge">
<title>Node18&#45;&gt;Node19</title>
<g id="a_edge23_Node000018_Node000019"><a xlink:title=" ">
<path fill="none" stroke="#63b8ff" d="M577.48,-111.59C577.37,-104.86 578.67,-95.53 580.72,-87.15"/>
<polygon fill="#63b8ff" stroke="#63b8ff" points="584.01,-88.33 583.59,-77.75 577.32,-86.29 584.01,-88.33"/>
</a>
</g>
</g>
<!-- Node19&#45;&gt;Node18 -->
<g id="edge24_Node000019_Node000018" class="edge">
<title>Node19&#45;&gt;Node18</title>
<g id="a_edge24_Node000019_Node000018"><a xlink:title=" ">
<path fill="none" stroke="#63b8ff" d="M594.52,-76.3C594.64,-83.01 593.35,-92.32 591.32,-100.71"/>
<polygon fill="#63b8ff" stroke="#63b8ff" points="588.01,-99.56 588.45,-110.15 594.71,-101.6 588.01,-99.56"/>
</a>
</g>
</g>
<!-- Node20&#45;&gt;Node3 -->
<g id="edge27_Node000020_Node000003" class="edge">
<title>Node20&#45;&gt;Node3</title>
<g id="a_edge27_Node000020_Node000003"><a xlink:title=" ">
<path fill="none" stroke="#63b8ff" d="M691.02,-167.8C685.88,-153.48 673.93,-126.04 654,-112 632.3,-96.72 570.3,-84.66 518.75,-76.89"/>
<polygon fill="#63b8ff" stroke="#63b8ff" points="519.5,-73.46 509.09,-75.47 518.48,-80.38 519.5,-73.46"/>
</a>
</g>
</g>
<!-- Node20&#45;&gt;Node18 -->
<g id="edge28_Node000020_Node000018" class="edge">
<title>Node20&#45;&gt;Node18</title>
<g id="a_edge28_Node000020_Node000018"><a xlink:title=" ">
<path fill="none" stroke="#63b8ff" d="M674.32,-167.59C656.84,-159.24 631.05,-146.92 611,-137.34"/>
<polygon fill="#63b8ff" stroke="#63b8ff" points="612.73,-134.29 602.2,-133.13 609.72,-140.6 612.73,-134.29"/>
</a>
</g>
</g>
<!-- Node21 -->
<g id="Node000021" class="node">
<title>Node21</title>
<g id="a_Node000021"><a xlink:href="_service_mgr_8h.html" target="_top" xlink:title=" ">
<polygon fill="white" stroke="#666666" points="856.75,-132 701.25,-132 701.25,-112 856.75,-112 856.75,-132"/>
<text xml:space="preserve" text-anchor="middle" x="779" y="-118.5" font-family="Helvetica,sans-Serif" font-size="10.00">FIEAGameEngine/ServiceMgr.h</text>
</a>
</g>
</g>
<!-- Node20&#45;&gt;Node21 -->
<g id="edge29_Node000020_Node000021" class="edge">
<title>Node20&#45;&gt;Node21</title>
<g id="a_edge29_Node000020_Node000021"><a xlink:title=" ">
<path fill="none" stroke="#63b8ff" d="M708.81,-167.59C721.4,-159.59 739.75,-147.93 754.53,-138.54"/>
<polygon fill="#63b8ff" stroke="#63b8ff" points="756.24,-141.61 762.8,-133.29 752.48,-135.7 756.24,-141.61"/>
</a>
</g>
</g>
<!-- Node20&#45;&gt;Node22 -->
<g id="edge33_Node000020_Node000022" class="edge">
<title>Node20&#45;&gt;Node22</title>
<g id="a_edge33_Node000020_Node000022"><a xlink:title=" ">
<path fill="none" stroke="#63b8ff" d="M780.34,-170.6C840.91,-164.38 915.02,-152.75 938,-132 950.42,-120.79 954.9,-101.95 956.43,-87.44"/>
<polygon fill="#63b8ff" stroke="#63b8ff" points="959.92,-87.8 957.05,-77.6 952.93,-87.36 959.92,-87.8"/>
</a>
</g>
</g>
<!-- Node23 -->
<g id="Node000023" class="node">
<title>Node23</title>
<g id="a_Node000023"><a xlink:title=" ">
<polygon fill="#e0e0e0" stroke="#999999" points="928.75,-132 875.25,-132 875.25,-112 928.75,-112 928.75,-132"/>
<text xml:space="preserve" text-anchor="middle" x="902" y="-118.5" font-family="Helvetica,sans-Serif" font-size="10.00">iostream</text>
</a>
</g>
</g>
<!-- Node20&#45;&gt;Node23 -->
<g id="edge32_Node000020_Node000023" class="edge">
<title>Node20&#45;&gt;Node23</title>
<g id="a_edge32_Node000020_Node000023"><a xlink:title=" ">
<path fill="none" stroke="#63b8ff" d="M730.23,-167.59C767.57,-157.9 825.56,-142.85 863.65,-132.96"/>
<polygon fill="#63b8ff" stroke="#63b8ff" points="864.53,-136.34 873.33,-130.44 862.77,-129.57 864.53,-136.34"/>
</a>
</g>
</g>
<!-- Node21&#45;&gt;Node3 -->
<g id="edge30_Node000021_Node000003" class="edge">
<title>Node21&#45;&gt;Node3</title>
<g id="a_edge30_Node000021_Node000003"><a xlink:title=" ">
<path fill="none" stroke="#63b8ff" d="M719.74,-111.53C661.63,-102.25 573.04,-88.09 511.38,-78.24"/>
<polygon fill="#63b8ff" stroke="#63b8ff" points="512.12,-74.82 501.69,-76.7 511.01,-81.73 512.12,-74.82"/>
</a>
</g>
</g>
<!-- Node21&#45;&gt;Node22 -->
<g id="edge31_Node000021_Node000022" class="edge">
<title>Node21&#45;&gt;Node22</title>
<g id="a_edge31_Node000021_Node000022"><a xlink:title=" ">
<path fill="none" stroke="#63b8ff" d="M810.01,-111.59C839.05,-102.78 882.7,-89.54 914.89,-79.78"/>
<polygon fill="#63b8ff" stroke="#63b8ff" points="915.75,-83.17 924.3,-76.92 913.72,-76.47 915.75,-83.17"/>
</a>
</g>
</g>
<!-- Node26&#45;&gt;Node3 -->
<g id="edge41_Node000026_Node000003" class="edge">
<title>Node26&#45;&gt;Node3</title>
<g id="a_edge41_Node000026_Node000003"><a xlink:title=" ">
<path fill="none" stroke="#63b8ff" d="M582.5,-335.61C598.09,-314.89 631.09,-263.91 613,-224 587.38,-167.49 553.61,-174.06 508,-132 490.8,-116.14 471.69,-97.49 458.3,-84.25"/>
<polygon fill="#63b8ff" stroke="#63b8ff" points="461.03,-82.04 451.47,-77.48 456.1,-87.01 461.03,-82.04"/>
</a>
</g>
</g>
<!-- Node26&#45;&gt;Node12 -->
<g id="edge42_Node000026_Node000012" class="edge">
<title>Node26&#45;&gt;Node12</title>
<g id="a_edge42_Node000026_Node000012"><a xlink:title=" ">
<path fill="none" stroke="#63b8ff" d="M555.32,-335.59C537.84,-327.24 512.05,-314.92 492,-305.34"/>
<polygon fill="#63b8ff" stroke="#63b8ff" points="493.73,-302.29 483.2,-301.13 490.72,-308.6 493.73,-302.29"/>
</a>
</g>
</g>
<!-- Node26&#45;&gt;Node20 -->
<g id="edge43_Node000026_Node000020" class="edge">
<title>Node26&#45;&gt;Node20</title>
<g id="a_edge43_Node000026_Node000020"><a xlink:title=" ">
<path fill="none" stroke="#63b8ff" d="M597.16,-335.51C612.67,-327.89 632.87,-315.85 646,-300 671.03,-269.79 684.18,-224.91 690.06,-199.15"/>
<polygon fill="#63b8ff" stroke="#63b8ff" points="693.42,-200.18 692.07,-189.67 686.57,-198.73 693.42,-200.18"/>
</a>
</g>
</g>
<!-- Node26&#45;&gt;Node25 -->
<g id="edge44_Node000026_Node000025" class="edge">
<title>Node26&#45;&gt;Node25</title>
<g id="a_edge44_Node000026_Node000025"><a xlink:title=" ">
<path fill="none" stroke="#63b8ff" d="M575,-335.62C575,-318.01 575,-279.59 575,-255.65"/>
<polygon fill="#63b8ff" stroke="#63b8ff" points="578.5,-255.87 575,-245.87 571.5,-255.87 578.5,-255.87"/>
</a>
</g>
</g>
</g>
</svg>
