<?xml version="1.0" encoding="UTF-8" standalone="no"?>
<!DOCTYPE svg PUBLIC "-//W3C//DTD SVG 1.1//EN"
 "http://www.w3.org/Graphics/SVG/1.1/DTD/svg11.dtd">
<!-- Generated by graphviz version 13.1.0 (20250701.0955)
 -->
<!-- Title: FIEAGameEngine/src/Content/Attributed.cpp Pages: 1 -->
<svg width="1003pt" height="432pt"
 viewBox="0.00 0.00 1003.00 432.00" xmlns="http://www.w3.org/2000/svg" xmlns:xlink="http://www.w3.org/1999/xlink">
<g id="graph0" class="graph" transform="scale(1 1) rotate(0) translate(4 428)">
<title>FIEAGameEngine/src/Content/Attributed.cpp</title>
<!-- Node1 -->
<g id="Node000001" class="node">
<title>Node1</title>
<g id="a_Node000001"><a xlink:title=" ">
<polygon fill="#999999" stroke="#666666" points="430.62,-424 313.38,-424 313.38,-392 430.62,-392 430.62,-424"/>
<text xml:space="preserve" text-anchor="start" x="321.38" y="-410.5" font-family="Helvetica,sans-Serif" font-size="10.00">FIEAGameEngine/src</text>
<text xml:space="preserve" text-anchor="middle" x="372" y="-398.5" font-family="Helvetica,sans-Serif" font-size="10.00">/Content/Attributed.cpp</text>
</a>
</g>
</g>
<!-- Node2 -->
<g id="Node000002" class="node">
<title>Node2</title>
<g id="a_Node000002"><a xlink:href="_attributed_8h.html" target="_top" xlink:title=" ">
<polygon fill="white" stroke="#666666" points="330.88,-300 227.12,-300 227.12,-280 330.88,-280 330.88,-300"/>
<text xml:space="preserve" text-anchor="middle" x="279" y="-286.5" font-family="Helvetica,sans-Serif" font-size="10.00">Content/Attributed.h</text>
</a>
</g>
</g>
<!-- Node1&#45;&gt;Node2 -->
<g id="edge1_Node000001_Node000002" class="edge">
<title>Node1&#45;&gt;Node2</title>
<g id="a_edge1_Node000001_Node000002"><a xlink:title=" ">
<path fill="none" stroke="#63b8ff" d="M359.84,-391.84C342.78,-370.56 311.79,-331.9 293.53,-309.13"/>
<polygon fill="#63b8ff" stroke="#63b8ff" points="296.5,-307.23 287.51,-301.62 291.04,-311.61 296.5,-307.23"/>
</a>
</g>
</g>
<!-- Node25 -->
<g id="Node000025" class="node">
<title>Node25</title>
<g id="a_Node000025"><a xlink:href="_content_service_8h.html" target="_top" xlink:title=" ">
<polygon fill="white" stroke="#666666" points="550.88,-356 381.12,-356 381.12,-336 550.88,-336 550.88,-356"/>
<text xml:space="preserve" text-anchor="middle" x="466" y="-342.5" font-family="Helvetica,sans-Serif" font-size="10.00">FieaGameEngine/ContentService.h</text>
</a>
</g>
</g>
<!-- Node1&#45;&gt;Node25 -->
<g id="edge37_Node000001_Node000025" class="edge">
<title>Node1&#45;&gt;Node25</title>
<g id="a_edge37_Node000001_Node000025"><a xlink:title=" ">
<path fill="none" stroke="#63b8ff" d="M396.21,-391.55C410.21,-382.61 427.79,-371.39 441.79,-362.45"/>
<polygon fill="#63b8ff" stroke="#63b8ff" points="443.44,-365.55 449.99,-357.22 439.67,-359.65 443.44,-365.55"/>
</a>
</g>
</g>
<!-- Node3 -->
<g id="Node000003" class="node">
<title>Node3</title>
<g id="a_Node000003"><a xlink:href="_types_8h.html" target="_top" xlink:title=" ">
<polygon fill="white" stroke="#666666" points="477.25,-76 348.75,-76 348.75,-56 477.25,-56 477.25,-76"/>
<text xml:space="preserve" text-anchor="middle" x="413" y="-62.5" font-family="Helvetica,sans-Serif" font-size="10.00">FieaGameEngine/Types.h</text>
</a>
</g>
</g>
<!-- Node2&#45;&gt;Node3 -->
<g id="edge2_Node000002_Node000003" class="edge">
<title>Node2&#45;&gt;Node3</title>
<g id="a_edge2_Node000002_Node000003"><a xlink:title=" ">
<path fill="none" stroke="#63b8ff" d="M247.57,-279.57C171.84,-255.37 -9.66,-187.62 57,-112 75.2,-91.35 237.98,-77.76 337.01,-71.33"/>
<polygon fill="#63b8ff" stroke="#63b8ff" points="337.19,-74.83 346.95,-70.7 336.75,-67.84 337.19,-74.83"/>
</a>
</g>
</g>
<!-- Node12 -->
<g id="Node000012" class="node">
<title>Node12</title>
<g id="a_Node000012"><a xlink:href="_datum_8h.html" target="_top" xlink:title=" ">
<polygon fill="white" stroke="#666666" points="325.5,-188 234.5,-188 234.5,-168 325.5,-168 325.5,-188"/>
<text xml:space="preserve" text-anchor="middle" x="280" y="-174.5" font-family="Helvetica,sans-Serif" font-size="10.00">Content/Datum.h</text>
</a>
</g>
</g>
<!-- Node2&#45;&gt;Node12 -->
<g id="edge11_Node000002_Node000012" class="edge">
<title>Node2&#45;&gt;Node12</title>
<g id="a_edge11_Node000002_Node000012"><a xlink:title=" ">
<path fill="none" stroke="#63b8ff" d="M279.09,-279.62C279.25,-262.01 279.59,-223.59 279.81,-199.65"/>
<polygon fill="#63b8ff" stroke="#63b8ff" points="283.31,-199.9 279.9,-189.87 276.31,-199.84 283.31,-199.9"/>
</a>
</g>
</g>
<!-- Node16 -->
<g id="Node000016" class="node">
<title>Node16</title>
<g id="a_Node000016"><a xlink:href="_scope_8h.html" target="_top" xlink:title=" ">
<polygon fill="white" stroke="#666666" points="510.75,-244 421.25,-244 421.25,-224 510.75,-224 510.75,-244"/>
<text xml:space="preserve" text-anchor="middle" x="466" y="-230.5" font-family="Helvetica,sans-Serif" font-size="10.00">Content/Scope.h</text>
</a>
</g>
</g>
<!-- Node2&#45;&gt;Node16 -->
<g id="edge17_Node000002_Node000016" class="edge">
<title>Node2&#45;&gt;Node16</title>
<g id="a_edge17_Node000002_Node000016"><a xlink:title=" ">
<path fill="none" stroke="#63b8ff" d="M311.57,-279.59C342.22,-270.74 388.34,-257.43 422.2,-247.65"/>
<polygon fill="#63b8ff" stroke="#63b8ff" points="423.08,-251.04 431.72,-244.9 421.14,-244.31 423.08,-251.04"/>
</a>
</g>
</g>
<!-- Node17 -->
<g id="Node000017" class="node">
<title>Node17</title>
<g id="a_Node000017"><a xlink:href="_r_t_t_i_8h.html" target="_top" xlink:title=" ">
<polygon fill="white" stroke="#666666" points="606.88,-132 479.12,-132 479.12,-112 606.88,-112 606.88,-132"/>
<text xml:space="preserve" text-anchor="middle" x="543" y="-118.5" font-family="Helvetica,sans-Serif" font-size="10.00">FIEAGameEngine/RTTI.h</text>
</a>
</g>
</g>
<!-- Node2&#45;&gt;Node17 -->
<g id="edge34_Node000002_Node000017" class="edge">
<title>Node2&#45;&gt;Node17</title>
<g id="a_edge34_Node000002_Node000017"><a xlink:title=" ">
<path fill="none" stroke="#63b8ff" d="M283.61,-279.77C295.46,-257.03 329.27,-198.02 375,-168 402.54,-149.92 437.12,-139.08 467.74,-132.59"/>
<polygon fill="#63b8ff" stroke="#63b8ff" points="468.2,-136.06 477.33,-130.68 466.84,-129.2 468.2,-136.06"/>
</a>
</g>
</g>
<!-- Node23 -->
<g id="Node000023" class="node">
<title>Node23</title>
<g id="a_Node000023"><a xlink:title=" ">
<polygon fill="#e0e0e0" stroke="#999999" points="426.5,-188 383.5,-188 383.5,-168 426.5,-168 426.5,-188"/>
<text xml:space="preserve" text-anchor="middle" x="405" y="-174.5" font-family="Helvetica,sans-Serif" font-size="10.00">vector</text>
</a>
</g>
</g>
<!-- Node2&#45;&gt;Node23 -->
<g id="edge35_Node000002_Node000023" class="edge">
<title>Node2&#45;&gt;Node23</title>
<g id="a_edge35_Node000002_Node000023"><a xlink:title=" ">
<path fill="none" stroke="#63b8ff" d="M308.06,-279.61C327.16,-272.29 351.72,-260.56 369,-244 382.24,-231.31 391.88,-212.66 397.83,-198.59"/>
<polygon fill="#63b8ff" stroke="#63b8ff" points="401.01,-200.08 401.41,-189.49 394.49,-197.52 401.01,-200.08"/>
</a>
</g>
</g>
<!-- Node24 -->
<g id="Node000024" class="node">
<title>Node24</title>
<g id="a_Node000024"><a xlink:title=" ">
<polygon fill="#e0e0e0" stroke="#999999" points="251,-244 193,-244 193,-224 251,-224 251,-244"/>
<text xml:space="preserve" text-anchor="middle" x="222" y="-230.5" font-family="Helvetica,sans-Serif" font-size="10.00">functional</text>
</a>
</g>
</g>
<!-- Node2&#45;&gt;Node24 -->
<g id="edge36_Node000002_Node000024" class="edge">
<title>Node2&#45;&gt;Node24</title>
<g id="a_edge36_Node000002_Node000024"><a xlink:title=" ">
<path fill="none" stroke="#63b8ff" d="M269.07,-279.59C261.06,-272.01 249.58,-261.13 239.97,-252.02"/>
<polygon fill="#63b8ff" stroke="#63b8ff" points="242.58,-249.68 232.91,-245.34 237.77,-254.76 242.58,-249.68"/>
</a>
</g>
</g>
<!-- Node4 -->
<g id="Node000004" class="node">
<title>Node4</title>
<g id="a_Node000004"><a xlink:title=" ">
<polygon fill="#e0e0e0" stroke="#999999" points="193,-20 33,-20 33,0 193,0 193,-20"/>
<text xml:space="preserve" text-anchor="middle" x="113" y="-6.5" font-family="Helvetica,sans-Serif" font-size="10.00">../src/Memory/SystemAllocator.h</text>
</a>
</g>
</g>
<!-- Node3&#45;&gt;Node4 -->
<g id="edge3_Node000003_Node000004" class="edge">
<title>Node3&#45;&gt;Node4</title>
<g id="a_edge3_Node000003_Node000004"><a xlink:title=" ">
<path fill="none" stroke="#63b8ff" d="M360.4,-55.53C309.26,-46.33 231.5,-32.33 176.83,-22.49"/>
<polygon fill="#63b8ff" stroke="#63b8ff" points="177.49,-19.05 167.03,-20.73 176.25,-25.94 177.49,-19.05"/>
</a>
</g>
</g>
<!-- Node5 -->
<g id="Node000005" class="node">
<title>Node5</title>
<g id="a_Node000005"><a xlink:title=" ">
<polygon fill="#e0e0e0" stroke="#999999" points="273.25,-20 210.75,-20 210.75,0 273.25,0 273.25,-20"/>
<text xml:space="preserve" text-anchor="middle" x="242" y="-6.5" font-family="Helvetica,sans-Serif" font-size="10.00">windows.h</text>
</a>
</g>
</g>
<!-- Node3&#45;&gt;Node5 -->
<g id="edge4_Node000003_Node000005" class="edge">
<title>Node3&#45;&gt;Node5</title>
<g id="a_edge4_Node000003_Node000005"><a xlink:title=" ">
<path fill="none" stroke="#63b8ff" d="M383.21,-55.59C355.43,-46.82 313.75,-33.66 282.86,-23.9"/>
<polygon fill="#63b8ff" stroke="#63b8ff" points="284.05,-20.61 273.46,-20.94 281.94,-27.28 284.05,-20.61"/>
</a>
</g>
</g>
<!-- Node6 -->
<g id="Node000006" class="node">
<title>Node6</title>
<g id="a_Node000006"><a xlink:title=" ">
<polygon fill="#e0e0e0" stroke="#999999" points="339.12,-20 290.88,-20 290.88,0 339.12,0 339.12,-20"/>
<text xml:space="preserve" text-anchor="middle" x="315" y="-6.5" font-family="Helvetica,sans-Serif" font-size="10.00">cassert</text>
</a>
</g>
</g>
<!-- Node3&#45;&gt;Node6 -->
<g id="edge5_Node000003_Node000006" class="edge">
<title>Node3&#45;&gt;Node6</title>
<g id="a_edge5_Node000003_Node000006"><a xlink:title=" ">
<path fill="none" stroke="#63b8ff" d="M395.93,-55.59C381.12,-47.44 359.43,-35.48 342.23,-26"/>
<polygon fill="#63b8ff" stroke="#63b8ff" points="343.98,-22.97 333.53,-21.21 340.6,-29.1 343.98,-22.97"/>
</a>
</g>
</g>
<!-- Node7 -->
<g id="Node000007" class="node">
<title>Node7</title>
<g id="a_Node000007"><a xlink:title=" ">
<polygon fill="#e0e0e0" stroke="#999999" points="405.12,-20 356.88,-20 356.88,0 405.12,0 405.12,-20"/>
<text xml:space="preserve" text-anchor="middle" x="381" y="-6.5" font-family="Helvetica,sans-Serif" font-size="10.00">cstddef</text>
</a>
</g>
</g>
<!-- Node3&#45;&gt;Node7 -->
<g id="edge6_Node000003_Node000007" class="edge">
<title>Node3&#45;&gt;Node7</title>
<g id="a_edge6_Node000003_Node000007"><a xlink:title=" ">
<path fill="none" stroke="#63b8ff" d="M407.43,-55.59C403.25,-48.55 397.4,-38.67 392.26,-30"/>
<polygon fill="#63b8ff" stroke="#63b8ff" points="395.39,-28.42 387.28,-21.6 389.37,-31.99 395.39,-28.42"/>
</a>
</g>
</g>
<!-- Node8 -->
<g id="Node000008" class="node">
<title>Node8</title>
<g id="a_Node000008"><a xlink:title=" ">
<polygon fill="#e0e0e0" stroke="#999999" points="468.62,-20 423.38,-20 423.38,0 468.62,0 468.62,-20"/>
<text xml:space="preserve" text-anchor="middle" x="446" y="-6.5" font-family="Helvetica,sans-Serif" font-size="10.00">cstdint</text>
</a>
</g>
</g>
<!-- Node3&#45;&gt;Node8 -->
<g id="edge7_Node000003_Node000008" class="edge">
<title>Node3&#45;&gt;Node8</title>
<g id="a_edge7_Node000003_Node000008"><a xlink:title=" ">
<path fill="none" stroke="#63b8ff" d="M418.75,-55.59C423.05,-48.55 429.09,-38.67 434.39,-30"/>
<polygon fill="#63b8ff" stroke="#63b8ff" points="437.3,-31.95 439.53,-21.59 431.33,-28.3 437.3,-31.95"/>
</a>
</g>
</g>
<!-- Node9 -->
<g id="Node000009" class="node">
<title>Node9</title>
<g id="a_Node000009"><a xlink:title=" ">
<polygon fill="#e0e0e0" stroke="#999999" points="539.38,-20 486.62,-20 486.62,0 539.38,0 539.38,-20"/>
<text xml:space="preserve" text-anchor="middle" x="513" y="-6.5" font-family="Helvetica,sans-Serif" font-size="10.00">cstdbool</text>
</a>
</g>
</g>
<!-- Node3&#45;&gt;Node9 -->
<g id="edge8_Node000003_Node000009" class="edge">
<title>Node3&#45;&gt;Node9</title>
<g id="a_edge8_Node000003_Node000009"><a xlink:title=" ">
<path fill="none" stroke="#63b8ff" d="M430.42,-55.59C445.67,-47.36 468.08,-35.26 485.71,-25.74"/>
<polygon fill="#63b8ff" stroke="#63b8ff" points="486.98,-29.03 494.11,-21.2 483.65,-22.87 486.98,-29.03"/>
</a>
</g>
</g>
<!-- Node10 -->
<g id="Node000010" class="node">
<title>Node10</title>
<g id="a_Node000010"><a xlink:title=" ">
<polygon fill="#e0e0e0" stroke="#999999" points="597,-20 557,-20 557,0 597,0 597,-20"/>
<text xml:space="preserve" text-anchor="middle" x="577" y="-6.5" font-family="Helvetica,sans-Serif" font-size="10.00">string</text>
</a>
</g>
</g>
<!-- Node3&#45;&gt;Node10 -->
<g id="edge9_Node000003_Node000010" class="edge">
<title>Node3&#45;&gt;Node10</title>
<g id="a_edge9_Node000003_Node000010"><a xlink:title=" ">
<path fill="none" stroke="#63b8ff" d="M441.57,-55.59C470.7,-46 515.77,-31.16 545.81,-21.27"/>
<polygon fill="#63b8ff" stroke="#63b8ff" points="546.69,-24.67 555.09,-18.21 544.5,-18.02 546.69,-24.67"/>
</a>
</g>
</g>
<!-- Node11 -->
<g id="Node000011" class="node">
<title>Node11</title>
<g id="a_Node000011"><a xlink:title=" ">
<polygon fill="#e0e0e0" stroke="#999999" points="669.12,-20 614.88,-20 614.88,0 669.12,0 669.12,-20"/>
<text xml:space="preserve" text-anchor="middle" x="642" y="-6.5" font-family="Helvetica,sans-Serif" font-size="10.00">crtdefs.h</text>
</a>
</g>
</g>
<!-- Node3&#45;&gt;Node11 -->
<g id="edge10_Node000003_Node000011" class="edge">
<title>Node3&#45;&gt;Node11</title>
<g id="a_edge10_Node000003_Node000011"><a xlink:title=" ">
<path fill="none" stroke="#63b8ff" d="M454.46,-55.53C491.2,-47.1 546.61,-34.27 603.48,-20.58"/>
<polygon fill="#63b8ff" stroke="#63b8ff" points="604.12,-24.03 613.02,-18.28 602.48,-17.22 604.12,-24.03"/>
</a>
</g>
</g>
<!-- Node12&#45;&gt;Node3 -->
<g id="edge12_Node000012_Node000003" class="edge">
<title>Node12&#45;&gt;Node3</title>
<g id="a_edge12_Node000012_Node000003"><a xlink:title=" ">
<path fill="none" stroke="#63b8ff" d="M325.77,-168.92C349.13,-162.57 376.29,-151.41 394,-132 405.15,-119.77 409.79,-101.34 411.7,-87.22"/>
<polygon fill="#63b8ff" stroke="#63b8ff" points="415.14,-87.99 412.62,-77.7 408.17,-87.31 415.14,-87.99"/>
</a>
</g>
</g>
<!-- Node13 -->
<g id="Node000013" class="node">
<title>Node13</title>
<g id="a_Node000013"><a xlink:title=" ">
<polygon fill="#e0e0e0" stroke="#999999" points="384.62,-132 315.38,-132 315.38,-112 384.62,-112 384.62,-132"/>
<text xml:space="preserve" text-anchor="middle" x="350" y="-118.5" font-family="Helvetica,sans-Serif" font-size="10.00">glm/glm.hpp</text>
</a>
</g>
</g>
<!-- Node12&#45;&gt;Node13 -->
<g id="edge13_Node000012_Node000013" class="edge">
<title>Node12&#45;&gt;Node13</title>
<g id="a_edge13_Node000012_Node000013"><a xlink:title=" ">
<path fill="none" stroke="#63b8ff" d="M292.19,-167.59C302.33,-159.77 316.99,-148.46 329.01,-139.19"/>
<polygon fill="#63b8ff" stroke="#63b8ff" points="330.97,-142.1 336.75,-133.22 326.69,-136.56 330.97,-142.1"/>
</a>
</g>
</g>
<!-- Node14 -->
<g id="Node000014" class="node">
<title>Node14</title>
<g id="a_Node000014"><a xlink:title=" ">
<polygon fill="#e0e0e0" stroke="#999999" points="184,-132 66,-132 66,-112 184,-112 184,-132"/>
<text xml:space="preserve" text-anchor="middle" x="125" y="-118.5" font-family="Helvetica,sans-Serif" font-size="10.00">glm/gtx/string_cast.hpp</text>
</a>
</g>
</g>
<!-- Node12&#45;&gt;Node14 -->
<g id="edge14_Node000012_Node000014" class="edge">
<title>Node12&#45;&gt;Node14</title>
<g id="a_edge14_Node000012_Node000014"><a xlink:title=" ">
<path fill="none" stroke="#63b8ff" d="M253,-167.59C228.04,-158.9 190.7,-145.89 162.78,-136.16"/>
<polygon fill="#63b8ff" stroke="#63b8ff" points="164.23,-132.96 153.64,-132.98 161.93,-139.57 164.23,-132.96"/>
</a>
</g>
</g>
<!-- Node15 -->
<g id="Node000015" class="node">
<title>Node15</title>
<g id="a_Node000015"><a xlink:href="_datum_8inl.html" target="_top" xlink:title=" ">
<polygon fill="white" stroke="#666666" points="297.75,-132 202.25,-132 202.25,-112 297.75,-112 297.75,-132"/>
<text xml:space="preserve" text-anchor="middle" x="250" y="-118.5" font-family="Helvetica,sans-Serif" font-size="10.00">Content/Datum.inl</text>
</a>
</g>
</g>
<!-- Node12&#45;&gt;Node15 -->
<g id="edge15_Node000012_Node000015" class="edge">
<title>Node12&#45;&gt;Node15</title>
<g id="a_edge15_Node000012_Node000015"><a xlink:title=" ">
<path fill="none" stroke="#63b8ff" d="M269.51,-167.59C264.36,-160.78 258.68,-151.32 254.5,-142.86"/>
<polygon fill="#63b8ff" stroke="#63b8ff" points="257.71,-141.47 250.52,-133.69 251.29,-144.25 257.71,-141.47"/>
</a>
</g>
</g>
<!-- Node15&#45;&gt;Node12 -->
<g id="edge16_Node000015_Node000012" class="edge">
<title>Node15&#45;&gt;Node12</title>
<g id="a_edge16_Node000015_Node000012"><a xlink:title=" ">
<path fill="none" stroke="#63b8ff" d="M260.41,-132.3C265.61,-139.16 271.37,-148.75 275.58,-157.29"/>
<polygon fill="#63b8ff" stroke="#63b8ff" points="272.25,-158.42 279.44,-166.21 278.68,-155.64 272.25,-158.42"/>
</a>
</g>
</g>
<!-- Node16&#45;&gt;Node3 -->
<g id="edge18_Node000016_Node000003" class="edge">
<title>Node16&#45;&gt;Node3</title>
<g id="a_edge18_Node000016_Node000003"><a xlink:title=" ">
<path fill="none" stroke="#63b8ff" d="M463,-223.6C454.62,-197.35 430.83,-122.84 419.35,-86.89"/>
<polygon fill="#63b8ff" stroke="#63b8ff" points="422.8,-86.2 416.43,-77.74 416.14,-88.33 422.8,-86.2"/>
</a>
</g>
</g>
<!-- Node16&#45;&gt;Node12 -->
<g id="edge23_Node000016_Node000012" class="edge">
<title>Node16&#45;&gt;Node12</title>
<g id="a_edge23_Node000016_Node000012"><a xlink:title=" ">
<path fill="none" stroke="#63b8ff" d="M433.6,-223.59C403.12,-214.74 357.24,-201.43 323.57,-191.65"/>
<polygon fill="#63b8ff" stroke="#63b8ff" points="324.68,-188.33 314.11,-188.9 322.73,-195.05 324.68,-188.33"/>
</a>
</g>
</g>
<!-- Node16&#45;&gt;Node17 -->
<g id="edge19_Node000016_Node000017" class="edge">
<title>Node16&#45;&gt;Node17</title>
<g id="a_edge19_Node000016_Node000017"><a xlink:title=" ">
<path fill="none" stroke="#63b8ff" d="M472.56,-223.62C485.24,-205.52 513.28,-165.45 529.91,-141.7"/>
<polygon fill="#63b8ff" stroke="#63b8ff" points="532.72,-143.79 535.58,-133.59 526.98,-139.78 532.72,-143.79"/>
</a>
</g>
</g>
<!-- Node19 -->
<g id="Node000019" class="node">
<title>Node19</title>
<g id="a_Node000019"><a xlink:href="_factory_service_8h.html" target="_top" xlink:title=" ">
<polygon fill="white" stroke="#666666" points="739,-188 567,-188 567,-168 739,-168 739,-188"/>
<text xml:space="preserve" text-anchor="middle" x="653" y="-174.5" font-family="Helvetica,sans-Serif" font-size="10.00">FIEAGameEngine/FactoryService.h</text>
</a>
</g>
</g>
<!-- Node16&#45;&gt;Node19 -->
<g id="edge24_Node000016_Node000019" class="edge">
<title>Node16&#45;&gt;Node19</title>
<g id="a_edge24_Node000016_Node000019"><a xlink:title=" ">
<path fill="none" stroke="#63b8ff" d="M498.57,-223.59C529.22,-214.74 575.34,-201.43 609.2,-191.65"/>
<polygon fill="#63b8ff" stroke="#63b8ff" points="610.08,-195.04 618.72,-188.9 608.14,-188.31 610.08,-195.04"/>
</a>
</g>
</g>
<!-- Node21 -->
<g id="Node000021" class="node">
<title>Node21</title>
<g id="a_Node000021"><a xlink:title=" ">
<polygon fill="#e0e0e0" stroke="#999999" points="979.38,-76 896.62,-76 896.62,-56 979.38,-56 979.38,-76"/>
<text xml:space="preserve" text-anchor="middle" x="938" y="-62.5" font-family="Helvetica,sans-Serif" font-size="10.00">unordered_map</text>
</a>
</g>
</g>
<!-- Node16&#45;&gt;Node21 -->
<g id="edge33_Node000016_Node000021" class="edge">
<title>Node16&#45;&gt;Node21</title>
<g id="a_edge33_Node000016_Node000021"><a xlink:title=" ">
<path fill="none" stroke="#63b8ff" d="M511.01,-229.47C615.02,-220.36 867.42,-192.39 923,-132 934.04,-120 937.47,-101.55 938.33,-87.36"/>
<polygon fill="#63b8ff" stroke="#63b8ff" points="941.82,-87.84 938.51,-77.78 934.82,-87.71 941.82,-87.84"/>
</a>
</g>
</g>
<!-- Node16&#45;&gt;Node23 -->
<g id="edge32_Node000016_Node000023" class="edge">
<title>Node16&#45;&gt;Node23</title>
<g id="a_edge32_Node000016_Node000023"><a xlink:title=" ">
<path fill="none" stroke="#63b8ff" d="M455.37,-223.59C446.72,-215.93 434.27,-204.91 423.92,-195.75"/>
<polygon fill="#63b8ff" stroke="#63b8ff" points="426.44,-193.31 416.64,-189.3 421.8,-198.55 426.44,-193.31"/>
</a>
</g>
</g>
<!-- Node17&#45;&gt;Node3 -->
<g id="edge20_Node000017_Node000003" class="edge">
<title>Node17&#45;&gt;Node3</title>
<g id="a_edge20_Node000017_Node000003"><a xlink:title=" ">
<path fill="none" stroke="#63b8ff" d="M520.36,-111.59C499.88,-103.09 469.48,-90.46 446.25,-80.81"/>
<polygon fill="#63b8ff" stroke="#63b8ff" points="447.8,-77.66 437.22,-77.06 445.11,-84.13 447.8,-77.66"/>
</a>
</g>
</g>
<!-- Node18 -->
<g id="Node000018" class="node">
<title>Node18</title>
<g id="a_Node000018"><a xlink:href="_r_t_t_i_8inl.html" target="_top" xlink:title=" ">
<polygon fill="white" stroke="#666666" points="627.12,-76 494.88,-76 494.88,-56 627.12,-56 627.12,-76"/>
<text xml:space="preserve" text-anchor="middle" x="561" y="-62.5" font-family="Helvetica,sans-Serif" font-size="10.00">FIEAGameEngine/RTTI.inl</text>
</a>
</g>
</g>
<!-- Node17&#45;&gt;Node18 -->
<g id="edge21_Node000017_Node000018" class="edge">
<title>Node17&#45;&gt;Node18</title>
<g id="a_edge21_Node000017_Node000018"><a xlink:title=" ">
<path fill="none" stroke="#63b8ff" d="M540.87,-111.59C541.79,-104.7 544.57,-95.1 547.96,-86.57"/>
<polygon fill="#63b8ff" stroke="#63b8ff" points="551.05,-88.22 552.03,-77.67 544.69,-85.31 551.05,-88.22"/>
</a>
</g>
</g>
<!-- Node18&#45;&gt;Node17 -->
<g id="edge22_Node000018_Node000017" class="edge">
<title>Node18&#45;&gt;Node17</title>
<g id="a_edge22_Node000018_Node000017"><a xlink:title=" ">
<path fill="none" stroke="#63b8ff" d="M563.15,-76.3C562.25,-83.16 559.48,-92.75 556.1,-101.29"/>
<polygon fill="#63b8ff" stroke="#63b8ff" points="552.99,-99.67 552.03,-110.22 559.36,-102.57 552.99,-99.67"/>
</a>
</g>
</g>
<!-- Node19&#45;&gt;Node3 -->
<g id="edge25_Node000019_Node000003" class="edge">
<title>Node19&#45;&gt;Node3</title>
<g id="a_edge25_Node000019_Node000003"><a xlink:title=" ">
<path fill="none" stroke="#63b8ff" d="M650.43,-167.83C645.93,-153.56 635.22,-126.19 616,-112 595.82,-97.11 537.76,-85.13 488.87,-77.28"/>
<polygon fill="#63b8ff" stroke="#63b8ff" points="489.56,-73.85 479.13,-75.76 488.47,-80.76 489.56,-73.85"/>
</a>
</g>
</g>
<!-- Node19&#45;&gt;Node17 -->
<g id="edge26_Node000019_Node000017" class="edge">
<title>Node19&#45;&gt;Node17</title>
<g id="a_edge26_Node000019_Node000017"><a xlink:title=" ">
<path fill="none" stroke="#63b8ff" d="M633.84,-167.59C616.91,-159.28 591.95,-147.03 572.48,-137.47"/>
<polygon fill="#63b8ff" stroke="#63b8ff" points="574.19,-134.41 563.67,-133.15 571.1,-140.7 574.19,-134.41"/>
</a>
</g>
</g>
<!-- Node20 -->
<g id="Node000020" class="node">
<title>Node20</title>
<g id="a_Node000020"><a xlink:href="_service_mgr_8h.html" target="_top" xlink:title=" ">
<polygon fill="white" stroke="#666666" points="890.75,-132 735.25,-132 735.25,-112 890.75,-112 890.75,-132"/>
<text xml:space="preserve" text-anchor="middle" x="813" y="-118.5" font-family="Helvetica,sans-Serif" font-size="10.00">FIEAGameEngine/ServiceMgr.h</text>
</a>
</g>
</g>
<!-- Node19&#45;&gt;Node20 -->
<g id="edge27_Node000019_Node000020" class="edge">
<title>Node19&#45;&gt;Node20</title>
<g id="a_edge27_Node000019_Node000020"><a xlink:title=" ">
<path fill="none" stroke="#63b8ff" d="M680.87,-167.59C706.75,-158.86 745.53,-145.77 774.39,-136.03"/>
<polygon fill="#63b8ff" stroke="#63b8ff" points="775.12,-139.48 783.48,-132.96 772.88,-132.85 775.12,-139.48"/>
</a>
</g>
</g>
<!-- Node19&#45;&gt;Node21 -->
<g id="edge31_Node000019_Node000021" class="edge">
<title>Node19&#45;&gt;Node21</title>
<g id="a_edge31_Node000019_Node000021"><a xlink:title=" ">
<path fill="none" stroke="#63b8ff" d="M739.34,-168.96C799.88,-161.91 874.38,-149.94 900,-132 915.54,-121.11 925.68,-101.67 931.54,-86.87"/>
<polygon fill="#63b8ff" stroke="#63b8ff" points="934.76,-88.28 934.84,-77.68 928.17,-85.91 934.76,-88.28"/>
</a>
</g>
</g>
<!-- Node22 -->
<g id="Node000022" class="node">
<title>Node22</title>
<g id="a_Node000022"><a xlink:title=" ">
<polygon fill="#e0e0e0" stroke="#999999" points="716.75,-132 663.25,-132 663.25,-112 716.75,-112 716.75,-132"/>
<text xml:space="preserve" text-anchor="middle" x="690" y="-118.5" font-family="Helvetica,sans-Serif" font-size="10.00">iostream</text>
</a>
</g>
</g>
<!-- Node19&#45;&gt;Node22 -->
<g id="edge30_Node000019_Node000022" class="edge">
<title>Node19&#45;&gt;Node22</title>
<g id="a_edge30_Node000019_Node000022"><a xlink:title=" ">
<path fill="none" stroke="#63b8ff" d="M659.44,-167.59C664.33,-160.47 671.19,-150.45 677.18,-141.72"/>
<polygon fill="#63b8ff" stroke="#63b8ff" points="680.01,-143.77 682.77,-133.55 674.23,-139.82 680.01,-143.77"/>
</a>
</g>
</g>
<!-- Node20&#45;&gt;Node3 -->
<g id="edge28_Node000020_Node000003" class="edge">
<title>Node20&#45;&gt;Node3</title>
<g id="a_edge28_Node000020_Node000003"><a xlink:title=" ">
<path fill="none" stroke="#63b8ff" d="M742.87,-111.53C671.73,-101.93 561.96,-87.11 488.84,-77.24"/>
<polygon fill="#63b8ff" stroke="#63b8ff" points="489.3,-73.77 478.93,-75.9 488.37,-80.71 489.3,-73.77"/>
</a>
</g>
</g>
<!-- Node20&#45;&gt;Node21 -->
<g id="edge29_Node000020_Node000021" class="edge">
<title>Node20&#45;&gt;Node21</title>
<g id="a_edge29_Node000020_Node000021"><a xlink:title=" ">
<path fill="none" stroke="#63b8ff" d="M834.77,-111.59C854.37,-103.13 883.43,-90.58 905.72,-80.94"/>
<polygon fill="#63b8ff" stroke="#63b8ff" points="906.88,-84.26 914.67,-77.08 904.1,-77.83 906.88,-84.26"/>
</a>
</g>
</g>
<!-- Node25&#45;&gt;Node2 -->
<g id="edge41_Node000025_Node000002" class="edge">
<title>Node25&#45;&gt;Node2</title>
<g id="a_edge41_Node000025_Node000002"><a xlink:title=" ">
<path fill="none" stroke="#63b8ff" d="M433.43,-335.59C402.78,-326.74 356.66,-313.43 322.8,-303.65"/>
<polygon fill="#63b8ff" stroke="#63b8ff" points="323.86,-300.31 313.28,-300.9 321.92,-307.04 323.86,-300.31"/>
</a>
</g>
</g>
<!-- Node25&#45;&gt;Node3 -->
<g id="edge38_Node000025_Node000003" class="edge">
<title>Node25&#45;&gt;Node3</title>
<g id="a_edge38_Node000025_Node000003"><a xlink:title=" ">
<path fill="none" stroke="#63b8ff" d="M380.8,-342.18C246.33,-335.38 0,-312.36 0,-235 0,-235 0,-235 0,-177 0,-142.84 12.14,-130.27 41,-112 88.69,-81.82 242.63,-71.88 336.88,-68.6"/>
<polygon fill="#63b8ff" stroke="#63b8ff" points="336.95,-72.1 346.83,-68.28 336.73,-65.11 336.95,-72.1"/>
</a>
</g>
</g>
<!-- Node25&#45;&gt;Node12 -->
<g id="edge42_Node000025_Node000012" class="edge">
<title>Node25&#45;&gt;Node12</title>
<g id="a_edge42_Node000025_Node000012"><a xlink:title=" ">
<path fill="none" stroke="#63b8ff" d="M455.47,-335.6C425.16,-308.55 337.43,-230.26 298.73,-195.71"/>
<polygon fill="#63b8ff" stroke="#63b8ff" points="301.34,-193.35 291.55,-189.31 296.68,-198.58 301.34,-193.35"/>
</a>
</g>
</g>
<!-- Node25&#45;&gt;Node16 -->
<g id="edge43_Node000025_Node000016" class="edge">
<title>Node25&#45;&gt;Node16</title>
<g id="a_edge43_Node000025_Node000016"><a xlink:title=" ">
<path fill="none" stroke="#63b8ff" d="M466,-335.62C466,-318.01 466,-279.59 466,-255.65"/>
<polygon fill="#63b8ff" stroke="#63b8ff" points="469.5,-255.87 466,-245.87 462.5,-255.87 469.5,-255.87"/>
</a>
</g>
</g>
<!-- Node25&#45;&gt;Node17 -->
<g id="edge40_Node000025_Node000017" class="edge">
<title>Node25&#45;&gt;Node17</title>
<g id="a_edge40_Node000025_Node000017"><a xlink:title=" ">
<path fill="none" stroke="#63b8ff" d="M472.23,-335.7C483.52,-318.41 507.36,-279.81 520,-244 532.01,-209.99 538.18,-168.26 540.99,-143.76"/>
<polygon fill="#63b8ff" stroke="#63b8ff" points="544.46,-144.17 542.03,-133.86 537.5,-143.44 544.46,-144.17"/>
</a>
</g>
</g>
<!-- Node25&#45;&gt;Node20 -->
<g id="edge39_Node000025_Node000020" class="edge">
<title>Node25&#45;&gt;Node20</title>
<g id="a_edge39_Node000025_Node000020"><a xlink:title=" ">
<path fill="none" stroke="#63b8ff" d="M487.37,-335.61C536.14,-313.66 658.34,-255.7 748,-188 766.63,-173.94 785.19,-154.73 797.67,-140.84"/>
<polygon fill="#63b8ff" stroke="#63b8ff" points="800.29,-143.16 804.28,-133.34 795.04,-138.54 800.29,-143.16"/>
</a>
</g>
</g>
<!-- Node25&#45;&gt;Node21 -->
<g id="edge44_Node000025_Node000021" class="edge">
<title>Node25&#45;&gt;Node21</title>
<g id="a_edge44_Node000025_Node000021"><a xlink:title=" ">
<path fill="none" stroke="#63b8ff" d="M551.29,-344.65C700.91,-341.7 995,-324.52 995,-235 995,-235 995,-235 995,-177 995,-141.35 971.11,-105.75 954.26,-85.08"/>
<polygon fill="#63b8ff" stroke="#63b8ff" points="957.03,-82.94 947.89,-77.6 951.7,-87.48 957.03,-82.94"/>
</a>
</g>
</g>
<!-- Node26 -->
<g id="Node000026" class="node">
<title>Node26</title>
<g id="a_Node000026"><a xlink:title=" ">
<polygon fill="#e0e0e0" stroke="#999999" points="858.62,-300 795.38,-300 795.38,-280 858.62,-280 858.62,-300"/>
<text xml:space="preserve" text-anchor="middle" x="827" y="-286.5" font-family="Helvetica,sans-Serif" font-size="10.00">json/json.h</text>
</a>
</g>
</g>
<!-- Node25&#45;&gt;Node26 -->
<g id="edge45_Node000025_Node000026" class="edge">
<title>Node25&#45;&gt;Node26</title>
<g id="a_edge45_Node000025_Node000026"><a xlink:title=" ">
<path fill="none" stroke="#63b8ff" d="M540,-335.52C603.94,-327.07 698.75,-313.91 781,-300 782.02,-299.83 783.05,-299.65 784.09,-299.47"/>
<polygon fill="#63b8ff" stroke="#63b8ff" points="784.67,-302.92 793.88,-297.68 783.41,-296.03 784.67,-302.92"/>
</a>
</g>
</g>
</g>
</svg>
