<?xml version="1.0" encoding="UTF-8" standalone="no"?>
<!DOCTYPE svg PUBLIC "-//W3C//DTD SVG 1.1//EN"
 "http://www.w3.org/Graphics/SVG/1.1/DTD/svg11.dtd">
<!-- Generated by graphviz version 13.1.0 (20250701.0955)
 -->
<!-- Title: Tests/Support/AttributeBoxPlus.cpp Pages: 1 -->
<svg width="1261pt" height="712pt"
 viewBox="0.00 0.00 1261.00 712.00" xmlns="http://www.w3.org/2000/svg" xmlns:xlink="http://www.w3.org/1999/xlink">
<g id="graph0" class="graph" transform="scale(1 1) rotate(0) translate(4 708)">
<title>Tests/Support/AttributeBoxPlus.cpp</title>
<!-- Node1 -->
<g id="Node000001" class="node">
<title>Node1</title>
<g id="a_Node000001"><a xlink:title=" ">
<polygon fill="#999999" stroke="#666666" points="1103.12,-704 969.37,-704 969.37,-672 1103.12,-672 1103.12,-704"/>
<text xml:space="preserve" text-anchor="start" x="977.37" y="-690.5" font-family="Helvetica,sans-Serif" font-size="10.00">Tests/Support/AttributeBox</text>
<text xml:space="preserve" text-anchor="middle" x="1036.25" y="-678.5" font-family="Helvetica,sans-Serif" font-size="10.00">Plus.cpp</text>
</a>
</g>
</g>
<!-- Node2 -->
<g id="Node000002" class="node">
<title>Node2</title>
<g id="a_Node000002"><a xlink:href="_attribute_box_plus_8h.html" target="_top" xlink:title=" ">
<polygon fill="white" stroke="#666666" points="1085.12,-636 987.37,-636 987.37,-616 1085.12,-616 1085.12,-636"/>
<text xml:space="preserve" text-anchor="middle" x="1036.25" y="-622.5" font-family="Helvetica,sans-Serif" font-size="10.00">AttributeBoxPlus.h</text>
</a>
</g>
</g>
<!-- Node1&#45;&gt;Node2 -->
<g id="edge1_Node000001_Node000002" class="edge">
<title>Node1&#45;&gt;Node2</title>
<g id="a_edge1_Node000001_Node000002"><a xlink:title=" ">
<path fill="none" stroke="#63b8ff" d="M1036.25,-671.55C1036.25,-664.34 1036.25,-655.66 1036.25,-647.88"/>
<polygon fill="#63b8ff" stroke="#63b8ff" points="1039.75,-647.92 1036.25,-637.92 1032.75,-647.92 1039.75,-647.92"/>
</a>
</g>
</g>
<!-- Node3 -->
<g id="Node000003" class="node">
<title>Node3</title>
<g id="a_Node000003"><a xlink:href="_types_8h.html" target="_top" xlink:title=" ">
<polygon fill="white" stroke="#666666" points="920.5,-76 792,-76 792,-56 920.5,-56 920.5,-76"/>
<text xml:space="preserve" text-anchor="middle" x="856.25" y="-62.5" font-family="Helvetica,sans-Serif" font-size="10.00">FieaGameEngine/Types.h</text>
</a>
</g>
</g>
<!-- Node2&#45;&gt;Node3 -->
<g id="edge2_Node000002_Node000003" class="edge">
<title>Node2&#45;&gt;Node3</title>
<g id="a_edge2_Node000002_Node000003"><a xlink:title=" ">
<path fill="none" stroke="#63b8ff" d="M1085.18,-615.89C1136.64,-603.14 1210.25,-574.5 1210.25,-515 1210.25,-515 1210.25,-515 1210.25,-457 1210.25,-381.31 1172.25,-366.69 1172.25,-291 1172.25,-291 1172.25,-291 1172.25,-177 1172.25,-143.08 1160.43,-130.88 1132.25,-112 1100.35,-90.62 1002.48,-78.48 932.36,-72.33"/>
<polygon fill="#63b8ff" stroke="#63b8ff" points="932.69,-68.84 922.43,-71.48 932.09,-75.82 932.69,-68.84"/>
</a>
</g>
</g>
<!-- Node7 -->
<g id="Node000007" class="node">
<title>Node7</title>
<g id="a_Node000007"><a xlink:title=" ">
<polygon fill="#e0e0e0" stroke="#999999" points="1253.37,-20 1205.12,-20 1205.12,0 1253.37,0 1253.37,-20"/>
<text xml:space="preserve" text-anchor="middle" x="1229.25" y="-6.5" font-family="Helvetica,sans-Serif" font-size="10.00">cstddef</text>
</a>
</g>
</g>
<!-- Node2&#45;&gt;Node7 -->
<g id="edge72_Node000002_Node000007" class="edge">
<title>Node2&#45;&gt;Node7</title>
<g id="a_edge72_Node000002_Node000007"><a xlink:title=" ">
<path fill="none" stroke="#63b8ff" d="M1085.42,-620.87C1148.04,-612.6 1248.25,-587.98 1248.25,-515 1248.25,-515 1248.25,-515 1248.25,-121 1248.25,-89.26 1240.47,-53.11 1234.87,-31.19"/>
<polygon fill="#63b8ff" stroke="#63b8ff" points="1238.32,-30.54 1232.36,-21.79 1231.56,-32.35 1238.32,-30.54"/>
</a>
</g>
</g>
<!-- Node12 -->
<g id="Node000012" class="node">
<title>Node12</title>
<g id="a_Node000012"><a xlink:href="_scope_8h.html" target="_top" xlink:title=" ">
<polygon fill="white" stroke="#666666" points="610,-244 520.5,-244 520.5,-224 610,-224 610,-244"/>
<text xml:space="preserve" text-anchor="middle" x="565.25" y="-230.5" font-family="Helvetica,sans-Serif" font-size="10.00">Content/Scope.h</text>
</a>
</g>
</g>
<!-- Node2&#45;&gt;Node12 -->
<g id="edge11_Node000002_Node000012" class="edge">
<title>Node2&#45;&gt;Node12</title>
<g id="a_edge11_Node000002_Node000012"><a xlink:title=" ">
<path fill="none" stroke="#63b8ff" d="M986.92,-621.85C839.93,-611.35 409.84,-572.09 326.25,-468 252.37,-376 447.19,-282.96 530.03,-248.72"/>
<polygon fill="#63b8ff" stroke="#63b8ff" points="531.13,-252.05 539.08,-245.04 528.49,-245.57 531.13,-252.05"/>
</a>
</g>
</g>
<!-- Node24 -->
<g id="Node000024" class="node">
<title>Node24</title>
<g id="a_Node000024"><a xlink:href="_tests_8h.html" target="_top" xlink:title=" ">
<polygon fill="white" stroke="#666666" points="855.87,-524 798.62,-524 798.62,-504 855.87,-504 855.87,-524"/>
<text xml:space="preserve" text-anchor="middle" x="827.25" y="-510.5" font-family="Helvetica,sans-Serif" font-size="10.00">../Tests.h</text>
</a>
</g>
</g>
<!-- Node2&#45;&gt;Node24 -->
<g id="edge33_Node000002_Node000024" class="edge">
<title>Node2&#45;&gt;Node24</title>
<g id="a_edge33_Node000002_Node000024"><a xlink:title=" ">
<path fill="none" stroke="#63b8ff" d="M1001.62,-615.54C976.06,-607.83 940.88,-595.66 912.25,-580 887.36,-566.39 861.91,-545.88 845.44,-531.56"/>
<polygon fill="#63b8ff" stroke="#63b8ff" points="848.2,-529.33 838.4,-525.32 843.56,-534.57 848.2,-529.33"/>
</a>
</g>
</g>
<!-- Node26 -->
<g id="Node000026" class="node">
<title>Node26</title>
<g id="a_Node000026"><a xlink:title=" ">
<polygon fill="#e0e0e0" stroke="#999999" points="1067.75,-468 988.75,-468 988.75,-448 1067.75,-448 1067.75,-468"/>
<text xml:space="preserve" text-anchor="middle" x="1028.25" y="-454.5" font-family="Helvetica,sans-Serif" font-size="10.00">CppUnitTest.h</text>
</a>
</g>
</g>
<!-- Node2&#45;&gt;Node26 -->
<g id="edge73_Node000002_Node000026" class="edge">
<title>Node2&#45;&gt;Node26</title>
<g id="a_edge73_Node000002_Node000026"><a xlink:title=" ">
<path fill="none" stroke="#63b8ff" d="M1035.79,-615.6C1034.54,-589.46 1030.97,-515.48 1029.23,-479.36"/>
<polygon fill="#63b8ff" stroke="#63b8ff" points="1032.75,-479.63 1028.77,-469.81 1025.75,-479.97 1032.75,-479.63"/>
</a>
</g>
</g>
<!-- Node32 -->
<g id="Node000032" class="node">
<title>Node32</title>
<g id="a_Node000032"><a xlink:href="_foo_8h.html" target="_top" xlink:title=" ">
<polygon fill="white" stroke="#666666" points="1104.62,-524 1063.87,-524 1063.87,-504 1104.62,-504 1104.62,-524"/>
<text xml:space="preserve" text-anchor="middle" x="1084.25" y="-510.5" font-family="Helvetica,sans-Serif" font-size="10.00">Foo.h</text>
</a>
</g>
</g>
<!-- Node2&#45;&gt;Node32 -->
<g id="edge59_Node000002_Node000032" class="edge">
<title>Node2&#45;&gt;Node32</title>
<g id="a_edge59_Node000002_Node000032"><a xlink:title=" ">
<path fill="none" stroke="#63b8ff" d="M1040.34,-615.62C1048.13,-597.76 1065.25,-558.53 1075.66,-534.67"/>
<polygon fill="#63b8ff" stroke="#63b8ff" points="1078.77,-536.31 1079.56,-525.74 1072.35,-533.51 1078.77,-536.31"/>
</a>
</g>
</g>
<!-- Node33 -->
<g id="Node000033" class="node">
<title>Node33</title>
<g id="a_Node000033"><a xlink:href="_attribute_box_8h.html" target="_top" xlink:title=" ">
<polygon fill="white" stroke="#666666" points="999.37,-580 921.12,-580 921.12,-560 999.37,-560 999.37,-580"/>
<text xml:space="preserve" text-anchor="middle" x="960.25" y="-566.5" font-family="Helvetica,sans-Serif" font-size="10.00">AttributeBox.h</text>
</a>
</g>
</g>
<!-- Node2&#45;&gt;Node33 -->
<g id="edge63_Node000002_Node000033" class="edge">
<title>Node2&#45;&gt;Node33</title>
<g id="a_edge63_Node000002_Node000033"><a xlink:title=" ">
<path fill="none" stroke="#63b8ff" d="M1023.01,-615.59C1011.96,-607.74 995.97,-596.38 982.89,-587.09"/>
<polygon fill="#63b8ff" stroke="#63b8ff" points="985,-584.3 974.82,-581.36 980.95,-590 985,-584.3"/>
</a>
</g>
</g>
<!-- Node4 -->
<g id="Node000004" class="node">
<title>Node4</title>
<g id="a_Node000004"><a xlink:title=" ">
<polygon fill="#e0e0e0" stroke="#999999" points="1041.25,-20 881.25,-20 881.25,0 1041.25,0 1041.25,-20"/>
<text xml:space="preserve" text-anchor="middle" x="961.25" y="-6.5" font-family="Helvetica,sans-Serif" font-size="10.00">../src/Memory/SystemAllocator.h</text>
</a>
</g>
</g>
<!-- Node3&#45;&gt;Node4 -->
<g id="edge3_Node000003_Node000004" class="edge">
<title>Node3&#45;&gt;Node4</title>
<g id="a_edge3_Node000003_Node000004"><a xlink:title=" ">
<path fill="none" stroke="#63b8ff" d="M874.54,-55.59C890.55,-47.36 914.08,-35.26 932.59,-25.74"/>
<polygon fill="#63b8ff" stroke="#63b8ff" points="934.18,-28.86 941.47,-21.17 930.98,-22.63 934.18,-28.86"/>
</a>
</g>
</g>
<!-- Node5 -->
<g id="Node000005" class="node">
<title>Node5</title>
<g id="a_Node000005"><a xlink:title=" ">
<polygon fill="#e0e0e0" stroke="#999999" points="1121.5,-20 1059,-20 1059,0 1121.5,0 1121.5,-20"/>
<text xml:space="preserve" text-anchor="middle" x="1090.25" y="-6.5" font-family="Helvetica,sans-Serif" font-size="10.00">windows.h</text>
</a>
</g>
</g>
<!-- Node3&#45;&gt;Node5 -->
<g id="edge4_Node000003_Node000005" class="edge">
<title>Node3&#45;&gt;Node5</title>
<g id="a_edge4_Node000003_Node000005"><a xlink:title=" ">
<path fill="none" stroke="#63b8ff" d="M897.28,-55.53C939.42,-45.81 1004.73,-30.73 1047.49,-20.87"/>
<polygon fill="#63b8ff" stroke="#63b8ff" points="1048.22,-24.29 1057.18,-18.63 1046.65,-17.47 1048.22,-24.29"/>
</a>
</g>
</g>
<!-- Node6 -->
<g id="Node000006" class="node">
<title>Node6</title>
<g id="a_Node000006"><a xlink:title=" ">
<polygon fill="#e0e0e0" stroke="#999999" points="1187.37,-20 1139.12,-20 1139.12,0 1187.37,0 1187.37,-20"/>
<text xml:space="preserve" text-anchor="middle" x="1163.25" y="-6.5" font-family="Helvetica,sans-Serif" font-size="10.00">cassert</text>
</a>
</g>
</g>
<!-- Node3&#45;&gt;Node6 -->
<g id="edge5_Node000003_Node000006" class="edge">
<title>Node3&#45;&gt;Node6</title>
<g id="a_edge5_Node000003_Node000006"><a xlink:title=" ">
<path fill="none" stroke="#63b8ff" d="M920.82,-56.32C973.96,-48.74 1051.44,-36.69 1127.59,-20.4"/>
<polygon fill="#63b8ff" stroke="#63b8ff" points="1128.3,-23.83 1137.33,-18.29 1126.81,-16.99 1128.3,-23.83"/>
</a>
</g>
</g>
<!-- Node3&#45;&gt;Node7 -->
<g id="edge6_Node000003_Node000007" class="edge">
<title>Node3&#45;&gt;Node7</title>
<g id="a_edge6_Node000003_Node000007"><a xlink:title=" ">
<path fill="none" stroke="#63b8ff" d="M920.91,-59.06C987.14,-52.39 1093.24,-40.08 1193.57,-20.31"/>
<polygon fill="#63b8ff" stroke="#63b8ff" points="1194.23,-23.75 1203.34,-18.35 1192.85,-16.88 1194.23,-23.75"/>
</a>
</g>
</g>
<!-- Node8 -->
<g id="Node000008" class="node">
<title>Node8</title>
<g id="a_Node000008"><a xlink:title=" ">
<polygon fill="#e0e0e0" stroke="#999999" points="662.87,-20 617.62,-20 617.62,0 662.87,0 662.87,-20"/>
<text xml:space="preserve" text-anchor="middle" x="640.25" y="-6.5" font-family="Helvetica,sans-Serif" font-size="10.00">cstdint</text>
</a>
</g>
</g>
<!-- Node3&#45;&gt;Node8 -->
<g id="edge7_Node000003_Node000008" class="edge">
<title>Node3&#45;&gt;Node8</title>
<g id="a_edge7_Node000003_Node000008"><a xlink:title=" ">
<path fill="none" stroke="#63b8ff" d="M815.95,-55.56C780.93,-47.27 728.6,-34.66 674.2,-20.45"/>
<polygon fill="#63b8ff" stroke="#63b8ff" points="675.32,-17.12 664.76,-17.97 673.54,-23.89 675.32,-17.12"/>
</a>
</g>
</g>
<!-- Node9 -->
<g id="Node000009" class="node">
<title>Node9</title>
<g id="a_Node000009"><a xlink:title=" ">
<polygon fill="#e0e0e0" stroke="#999999" points="733.62,-20 680.87,-20 680.87,0 733.62,0 733.62,-20"/>
<text xml:space="preserve" text-anchor="middle" x="707.25" y="-6.5" font-family="Helvetica,sans-Serif" font-size="10.00">cstdbool</text>
</a>
</g>
</g>
<!-- Node3&#45;&gt;Node9 -->
<g id="edge8_Node000003_Node000009" class="edge">
<title>Node3&#45;&gt;Node9</title>
<g id="a_edge8_Node000003_Node000009"><a xlink:title=" ">
<path fill="none" stroke="#63b8ff" d="M830.29,-55.59C806.4,-46.94 770.72,-34 743.92,-24.29"/>
<polygon fill="#63b8ff" stroke="#63b8ff" points="745.42,-21.11 734.83,-21 743.04,-27.69 745.42,-21.11"/>
</a>
</g>
</g>
<!-- Node10 -->
<g id="Node000010" class="node">
<title>Node10</title>
<g id="a_Node000010"><a xlink:title=" ">
<polygon fill="#e0e0e0" stroke="#999999" points="791.25,-20 751.25,-20 751.25,0 791.25,0 791.25,-20"/>
<text xml:space="preserve" text-anchor="middle" x="771.25" y="-6.5" font-family="Helvetica,sans-Serif" font-size="10.00">string</text>
</a>
</g>
</g>
<!-- Node3&#45;&gt;Node10 -->
<g id="edge9_Node000003_Node000010" class="edge">
<title>Node3&#45;&gt;Node10</title>
<g id="a_edge9_Node000003_Node000010"><a xlink:title=" ">
<path fill="none" stroke="#63b8ff" d="M841.44,-55.59C828.84,-47.59 810.49,-35.93 795.72,-26.54"/>
<polygon fill="#63b8ff" stroke="#63b8ff" points="797.76,-23.7 787.45,-21.29 794.01,-29.61 797.76,-23.7"/>
</a>
</g>
</g>
<!-- Node11 -->
<g id="Node000011" class="node">
<title>Node11</title>
<g id="a_Node000011"><a xlink:title=" ">
<polygon fill="#e0e0e0" stroke="#999999" points="863.37,-20 809.12,-20 809.12,0 863.37,0 863.37,-20"/>
<text xml:space="preserve" text-anchor="middle" x="836.25" y="-6.5" font-family="Helvetica,sans-Serif" font-size="10.00">crtdefs.h</text>
</a>
</g>
</g>
<!-- Node3&#45;&gt;Node11 -->
<g id="edge10_Node000003_Node000011" class="edge">
<title>Node3&#45;&gt;Node11</title>
<g id="a_edge10_Node000003_Node000011"><a xlink:title=" ">
<path fill="none" stroke="#63b8ff" d="M852.76,-55.59C850.24,-48.78 846.74,-39.32 843.6,-30.86"/>
<polygon fill="#63b8ff" stroke="#63b8ff" points="846.97,-29.88 840.22,-21.72 840.41,-32.31 846.97,-29.88"/>
</a>
</g>
</g>
<!-- Node12&#45;&gt;Node3 -->
<g id="edge12_Node000012_Node000003" class="edge">
<title>Node12&#45;&gt;Node3</title>
<g id="a_edge12_Node000012_Node000003"><a xlink:title=" ">
<path fill="none" stroke="#63b8ff" d="M610.31,-231.56C678.51,-228.4 803.31,-218.5 834.25,-188 860.89,-161.73 861.37,-114.72 859.02,-87.68"/>
<polygon fill="#63b8ff" stroke="#63b8ff" points="862.52,-87.56 857.94,-78 855.57,-88.33 862.52,-87.56"/>
</a>
</g>
</g>
<!-- Node13 -->
<g id="Node000013" class="node">
<title>Node13</title>
<g id="a_Node000013"><a xlink:href="_r_t_t_i_8h.html" target="_top" xlink:title=" ">
<polygon fill="white" stroke="#666666" points="464.12,-132 336.37,-132 336.37,-112 464.12,-112 464.12,-132"/>
<text xml:space="preserve" text-anchor="middle" x="400.25" y="-118.5" font-family="Helvetica,sans-Serif" font-size="10.00">FIEAGameEngine/RTTI.h</text>
</a>
</g>
</g>
<!-- Node12&#45;&gt;Node13 -->
<g id="edge13_Node000012_Node000013" class="edge">
<title>Node12&#45;&gt;Node13</title>
<g id="a_edge13_Node000012_Node000013"><a xlink:title=" ">
<path fill="none" stroke="#63b8ff" d="M551.13,-223.5C532.26,-210.82 497.78,-187.66 468.25,-168 453.51,-158.18 436.93,-147.21 423.84,-138.56"/>
<polygon fill="#63b8ff" stroke="#63b8ff" points="426.13,-135.88 415.85,-133.29 422.27,-141.72 426.13,-135.88"/>
</a>
</g>
</g>
<!-- Node15 -->
<g id="Node000015" class="node">
<title>Node15</title>
<g id="a_Node000015"><a xlink:href="_datum_8h.html" target="_top" xlink:title=" ">
<polygon fill="white" stroke="#666666" points="824.75,-188 733.75,-188 733.75,-168 824.75,-168 824.75,-188"/>
<text xml:space="preserve" text-anchor="middle" x="779.25" y="-174.5" font-family="Helvetica,sans-Serif" font-size="10.00">Content/Datum.h</text>
</a>
</g>
</g>
<!-- Node12&#45;&gt;Node15 -->
<g id="edge17_Node000012_Node000015" class="edge">
<title>Node12&#45;&gt;Node15</title>
<g id="a_edge17_Node000012_Node000015"><a xlink:title=" ">
<path fill="none" stroke="#63b8ff" d="M602.52,-223.59C638.05,-214.63 691.75,-201.08 730.63,-191.27"/>
<polygon fill="#63b8ff" stroke="#63b8ff" points="731.37,-194.69 740.21,-188.85 729.66,-187.9 731.37,-194.69"/>
</a>
</g>
</g>
<!-- Node19 -->
<g id="Node000019" class="node">
<title>Node19</title>
<g id="a_Node000019"><a xlink:href="_factory_service_8h.html" target="_top" xlink:title=" ">
<polygon fill="white" stroke="#666666" points="312.25,-188 140.25,-188 140.25,-168 312.25,-168 312.25,-188"/>
<text xml:space="preserve" text-anchor="middle" x="226.25" y="-174.5" font-family="Helvetica,sans-Serif" font-size="10.00">FIEAGameEngine/FactoryService.h</text>
</a>
</g>
</g>
<!-- Node12&#45;&gt;Node19 -->
<g id="edge23_Node000012_Node000019" class="edge">
<title>Node12&#45;&gt;Node19</title>
<g id="a_edge23_Node000012_Node000019"><a xlink:title=" ">
<path fill="none" stroke="#63b8ff" d="M520.23,-225.83C463.19,-216.74 364.25,-200.98 297.05,-190.28"/>
<polygon fill="#63b8ff" stroke="#63b8ff" points="297.65,-186.83 287.22,-188.71 296.55,-193.74 297.65,-186.83"/>
</a>
</g>
</g>
<!-- Node21 -->
<g id="Node000021" class="node">
<title>Node21</title>
<g id="a_Node000021"><a xlink:title=" ">
<polygon fill="#e0e0e0" stroke="#999999" points="133.62,-76 50.87,-76 50.87,-56 133.62,-56 133.62,-76"/>
<text xml:space="preserve" text-anchor="middle" x="92.25" y="-62.5" font-family="Helvetica,sans-Serif" font-size="10.00">unordered_map</text>
</a>
</g>
</g>
<!-- Node12&#45;&gt;Node21 -->
<g id="edge32_Node000012_Node000021" class="edge">
<title>Node12&#45;&gt;Node21</title>
<g id="a_edge32_Node000012_Node000021"><a xlink:title=" ">
<path fill="none" stroke="#63b8ff" d="M543.04,-223.63C492.04,-202.29 362.37,-149.05 251.25,-112 214.24,-99.66 171.69,-87.74 139.93,-79.26"/>
<polygon fill="#63b8ff" stroke="#63b8ff" points="141.19,-75.98 130.63,-76.8 139.4,-82.75 141.19,-75.98"/>
</a>
</g>
</g>
<!-- Node23 -->
<g id="Node000023" class="node">
<title>Node23</title>
<g id="a_Node000023"><a xlink:title=" ">
<polygon fill="#e0e0e0" stroke="#999999" points="629.75,-188 586.75,-188 586.75,-168 629.75,-168 629.75,-188"/>
<text xml:space="preserve" text-anchor="middle" x="608.25" y="-174.5" font-family="Helvetica,sans-Serif" font-size="10.00">vector</text>
</a>
</g>
</g>
<!-- Node12&#45;&gt;Node23 -->
<g id="edge31_Node000012_Node000023" class="edge">
<title>Node12&#45;&gt;Node23</title>
<g id="a_edge31_Node000012_Node000023"><a xlink:title=" ">
<path fill="none" stroke="#63b8ff" d="M572.74,-223.59C578.53,-216.32 586.74,-206.02 593.8,-197.15"/>
<polygon fill="#63b8ff" stroke="#63b8ff" points="596.41,-199.49 599.9,-189.48 590.93,-195.12 596.41,-199.49"/>
</a>
</g>
</g>
<!-- Node13&#45;&gt;Node3 -->
<g id="edge14_Node000013_Node000003" class="edge">
<title>Node13&#45;&gt;Node3</title>
<g id="a_edge14_Node000013_Node000003"><a xlink:title=" ">
<path fill="none" stroke="#63b8ff" d="M464.61,-113.38C547.75,-103.53 692.25,-86.42 780.56,-75.96"/>
<polygon fill="#63b8ff" stroke="#63b8ff" points="780.82,-79.46 790.34,-74.81 780,-72.51 780.82,-79.46"/>
</a>
</g>
</g>
<!-- Node14 -->
<g id="Node000014" class="node">
<title>Node14</title>
<g id="a_Node000014"><a xlink:href="_r_t_t_i_8inl.html" target="_top" xlink:title=" ">
<polygon fill="white" stroke="#666666" points="466.37,-76 334.12,-76 334.12,-56 466.37,-56 466.37,-76"/>
<text xml:space="preserve" text-anchor="middle" x="400.25" y="-62.5" font-family="Helvetica,sans-Serif" font-size="10.00">FIEAGameEngine/RTTI.inl</text>
</a>
</g>
</g>
<!-- Node13&#45;&gt;Node14 -->
<g id="edge15_Node000013_Node000014" class="edge">
<title>Node13&#45;&gt;Node14</title>
<g id="a_edge15_Node000013_Node000014"><a xlink:title=" ">
<path fill="none" stroke="#63b8ff" d="M394.98,-111.59C393.66,-105.01 393.22,-95.96 393.66,-87.73"/>
<polygon fill="#63b8ff" stroke="#63b8ff" points="397.14,-88.14 394.83,-77.8 390.19,-87.33 397.14,-88.14"/>
</a>
</g>
</g>
<!-- Node14&#45;&gt;Node13 -->
<g id="edge16_Node000014_Node000013" class="edge">
<title>Node14&#45;&gt;Node13</title>
<g id="a_edge16_Node000014_Node000013"><a xlink:title=" ">
<path fill="none" stroke="#63b8ff" d="M405.49,-76.3C406.84,-82.93 407.28,-92.11 406.82,-100.43"/>
<polygon fill="#63b8ff" stroke="#63b8ff" points="403.38,-99.75 405.69,-110.09 410.33,-100.57 403.38,-99.75"/>
</a>
</g>
</g>
<!-- Node15&#45;&gt;Node3 -->
<g id="edge18_Node000015_Node000003" class="edge">
<title>Node15&#45;&gt;Node3</title>
<g id="a_edge18_Node000015_Node000003"><a xlink:title=" ">
<path fill="none" stroke="#63b8ff" d="M785.81,-167.62C798.48,-149.52 826.53,-109.45 843.16,-85.7"/>
<polygon fill="#63b8ff" stroke="#63b8ff" points="845.96,-87.79 848.83,-77.59 840.23,-83.78 845.96,-87.79"/>
</a>
</g>
</g>
<!-- Node16 -->
<g id="Node000016" class="node">
<title>Node16</title>
<g id="a_Node000016"><a xlink:title=" ">
<polygon fill="#e0e0e0" stroke="#999999" points="953.87,-132 884.62,-132 884.62,-112 953.87,-112 953.87,-132"/>
<text xml:space="preserve" text-anchor="middle" x="919.25" y="-118.5" font-family="Helvetica,sans-Serif" font-size="10.00">glm/glm.hpp</text>
</a>
</g>
</g>
<!-- Node15&#45;&gt;Node16 -->
<g id="edge19_Node000015_Node000016" class="edge">
<title>Node15&#45;&gt;Node16</title>
<g id="a_edge19_Node000015_Node000016"><a xlink:title=" ">
<path fill="none" stroke="#63b8ff" d="M803.63,-167.59C825.88,-159.01 859.02,-146.23 884.12,-136.55"/>
<polygon fill="#63b8ff" stroke="#63b8ff" points="885.19,-139.89 893.26,-133.02 882.67,-133.36 885.19,-139.89"/>
</a>
</g>
</g>
<!-- Node17 -->
<g id="Node000017" class="node">
<title>Node17</title>
<g id="a_Node000017"><a xlink:title=" ">
<polygon fill="#e0e0e0" stroke="#999999" points="676.25,-132 558.25,-132 558.25,-112 676.25,-112 676.25,-132"/>
<text xml:space="preserve" text-anchor="middle" x="617.25" y="-118.5" font-family="Helvetica,sans-Serif" font-size="10.00">glm/gtx/string_cast.hpp</text>
</a>
</g>
</g>
<!-- Node15&#45;&gt;Node17 -->
<g id="edge20_Node000015_Node000017" class="edge">
<title>Node15&#45;&gt;Node17</title>
<g id="a_edge20_Node000015_Node000017"><a xlink:title=" ">
<path fill="none" stroke="#63b8ff" d="M751.03,-167.59C724.82,-158.86 685.57,-145.77 656.35,-136.03"/>
<polygon fill="#63b8ff" stroke="#63b8ff" points="657.72,-132.8 647.12,-132.96 655.5,-139.44 657.72,-132.8"/>
</a>
</g>
</g>
<!-- Node18 -->
<g id="Node000018" class="node">
<title>Node18</title>
<g id="a_Node000018"><a xlink:href="_datum_8inl.html" target="_top" xlink:title=" ">
<polygon fill="white" stroke="#666666" points="790,-132 694.5,-132 694.5,-112 790,-112 790,-132"/>
<text xml:space="preserve" text-anchor="middle" x="742.25" y="-118.5" font-family="Helvetica,sans-Serif" font-size="10.00">Content/Datum.inl</text>
</a>
</g>
</g>
<!-- Node15&#45;&gt;Node18 -->
<g id="edge21_Node000015_Node000018" class="edge">
<title>Node15&#45;&gt;Node18</title>
<g id="a_edge21_Node000015_Node000018"><a xlink:title=" ">
<path fill="none" stroke="#63b8ff" d="M767.54,-167.59C761.37,-160.63 754.28,-150.89 748.96,-142.29"/>
<polygon fill="#63b8ff" stroke="#63b8ff" points="752.05,-140.64 744.11,-133.62 745.94,-144.05 752.05,-140.64"/>
</a>
</g>
</g>
<!-- Node18&#45;&gt;Node15 -->
<g id="edge22_Node000018_Node000015" class="edge">
<title>Node18&#45;&gt;Node15</title>
<g id="a_edge22_Node000018_Node000015"><a xlink:title=" ">
<path fill="none" stroke="#63b8ff" d="M753.86,-132.3C760.02,-139.24 767.11,-148.97 772.45,-157.58"/>
<polygon fill="#63b8ff" stroke="#63b8ff" points="769.38,-159.27 777.33,-166.27 775.49,-155.84 769.38,-159.27"/>
</a>
</g>
</g>
<!-- Node19&#45;&gt;Node3 -->
<g id="edge24_Node000019_Node000003" class="edge">
<title>Node19&#45;&gt;Node3</title>
<g id="a_edge24_Node000019_Node000003"><a xlink:title=" ">
<path fill="none" stroke="#63b8ff" d="M236.82,-167.64C254.25,-152.85 290.73,-124.44 327.25,-112 409,-84.15 654.54,-72.96 780.26,-68.96"/>
<polygon fill="#63b8ff" stroke="#63b8ff" points="780.27,-72.46 790.16,-68.66 780.06,-65.47 780.27,-72.46"/>
</a>
</g>
</g>
<!-- Node19&#45;&gt;Node13 -->
<g id="edge25_Node000019_Node000013" class="edge">
<title>Node19&#45;&gt;Node13</title>
<g id="a_edge25_Node000019_Node000013"><a xlink:title=" ">
<path fill="none" stroke="#63b8ff" d="M256.56,-167.59C284.95,-158.78 327.61,-145.54 359.08,-135.78"/>
<polygon fill="#63b8ff" stroke="#63b8ff" points="359.74,-139.23 368.26,-132.93 357.67,-132.55 359.74,-139.23"/>
</a>
</g>
</g>
<!-- Node20 -->
<g id="Node000020" class="node">
<title>Node20</title>
<g id="a_Node000020"><a xlink:href="_service_mgr_8h.html" target="_top" xlink:title=" ">
<polygon fill="white" stroke="#666666" points="170,-132 14.5,-132 14.5,-112 170,-112 170,-132"/>
<text xml:space="preserve" text-anchor="middle" x="92.25" y="-118.5" font-family="Helvetica,sans-Serif" font-size="10.00">FIEAGameEngine/ServiceMgr.h</text>
</a>
</g>
</g>
<!-- Node19&#45;&gt;Node20 -->
<g id="edge26_Node000019_Node000020" class="edge">
<title>Node19&#45;&gt;Node20</title>
<g id="a_edge26_Node000019_Node000020"><a xlink:title=" ">
<path fill="none" stroke="#63b8ff" d="M202.91,-167.59C181.71,-159.05 150.18,-146.35 126.2,-136.68"/>
<polygon fill="#63b8ff" stroke="#63b8ff" points="127.76,-133.54 117.17,-133.05 125.14,-140.03 127.76,-133.54"/>
</a>
</g>
</g>
<!-- Node19&#45;&gt;Node21 -->
<g id="edge30_Node000019_Node000021" class="edge">
<title>Node19&#45;&gt;Node21</title>
<g id="a_edge30_Node000019_Node000021"><a xlink:title=" ">
<path fill="none" stroke="#63b8ff" d="M139.86,-170.5C85.45,-164.41 22.37,-152.96 5.25,-132 -12.46,-110.32 19.64,-91.92 49.73,-80.29"/>
<polygon fill="#63b8ff" stroke="#63b8ff" points="50.59,-83.7 58.79,-76.98 48.19,-77.13 50.59,-83.7"/>
</a>
</g>
</g>
<!-- Node22 -->
<g id="Node000022" class="node">
<title>Node22</title>
<g id="a_Node000022"><a xlink:title=" ">
<polygon fill="#e0e0e0" stroke="#999999" points="242,-132 188.5,-132 188.5,-112 242,-112 242,-132"/>
<text xml:space="preserve" text-anchor="middle" x="215.25" y="-118.5" font-family="Helvetica,sans-Serif" font-size="10.00">iostream</text>
</a>
</g>
</g>
<!-- Node19&#45;&gt;Node22 -->
<g id="edge29_Node000019_Node000022" class="edge">
<title>Node19&#45;&gt;Node22</title>
<g id="a_edge29_Node000019_Node000022"><a xlink:title=" ">
<path fill="none" stroke="#63b8ff" d="M224.33,-167.59C222.98,-160.93 221.1,-151.75 219.41,-143.44"/>
<polygon fill="#63b8ff" stroke="#63b8ff" points="222.87,-142.88 217.44,-133.78 216.01,-144.28 222.87,-142.88"/>
</a>
</g>
</g>
<!-- Node20&#45;&gt;Node3 -->
<g id="edge27_Node000020_Node000003" class="edge">
<title>Node20&#45;&gt;Node3</title>
<g id="a_edge27_Node000020_Node000003"><a xlink:title=" ">
<path fill="none" stroke="#63b8ff" d="M170.49,-112.77C173.45,-112.5 176.37,-112.24 179.25,-112 397.21,-93.49 655.19,-78.15 780.44,-71.13"/>
<polygon fill="#63b8ff" stroke="#63b8ff" points="780.48,-74.63 790.27,-70.58 780.09,-67.64 780.48,-74.63"/>
</a>
</g>
</g>
<!-- Node20&#45;&gt;Node21 -->
<g id="edge28_Node000020_Node000021" class="edge">
<title>Node20&#45;&gt;Node21</title>
<g id="a_edge28_Node000020_Node000021"><a xlink:title=" ">
<path fill="none" stroke="#63b8ff" d="M92.25,-111.59C92.25,-105.01 92.25,-95.96 92.25,-87.73"/>
<polygon fill="#63b8ff" stroke="#63b8ff" points="95.75,-87.81 92.25,-77.81 88.75,-87.81 95.75,-87.81"/>
</a>
</g>
</g>
<!-- Node24&#45;&gt;Node3 -->
<g id="edge36_Node000024_Node000003" class="edge">
<title>Node24&#45;&gt;Node3</title>
<g id="a_edge36_Node000024_Node000003"><a xlink:title=" ">
<path fill="none" stroke="#63b8ff" d="M841.35,-503.55C891.5,-469.44 1058.25,-351.49 1058.25,-291 1058.25,-291 1058.25,-291 1058.25,-177 1058.25,-117.26 989.26,-89.78 931.92,-77.25"/>
<polygon fill="#63b8ff" stroke="#63b8ff" points="932.98,-73.89 922.48,-75.31 931.57,-80.75 932.98,-73.89"/>
</a>
</g>
</g>
<!-- Node24&#45;&gt;Node12 -->
<g id="edge37_Node000024_Node000012" class="edge">
<title>Node24&#45;&gt;Node12</title>
<g id="a_edge37_Node000024_Node000012"><a xlink:title=" ">
<path fill="none" stroke="#63b8ff" d="M798.33,-511.85C723.92,-507.09 527.19,-482.54 463.25,-356 441.27,-312.52 498.68,-271.22 536.04,-249.94"/>
<polygon fill="#63b8ff" stroke="#63b8ff" points="537.56,-253.1 544.64,-245.21 534.19,-246.96 537.56,-253.1"/>
</a>
</g>
</g>
<!-- Node25 -->
<g id="Node000025" class="node">
<title>Node25</title>
<g id="a_Node000025"><a xlink:title=" ">
<polygon fill="#e0e0e0" stroke="#999999" points="383.37,-468 335.12,-468 335.12,-448 383.37,-448 383.37,-468"/>
<text xml:space="preserve" text-anchor="middle" x="359.25" y="-454.5" font-family="Helvetica,sans-Serif" font-size="10.00">excpt.h</text>
</a>
</g>
</g>
<!-- Node24&#45;&gt;Node25 -->
<g id="edge34_Node000024_Node000025" class="edge">
<title>Node24&#45;&gt;Node25</title>
<g id="a_edge34_Node000024_Node000025"><a xlink:title=" ">
<path fill="none" stroke="#63b8ff" d="M798.13,-511.25C728.48,-506.77 546.91,-493.45 397.25,-468 396.42,-467.86 395.58,-467.71 394.74,-467.56"/>
<polygon fill="#63b8ff" stroke="#63b8ff" points="395.67,-464.17 385.17,-465.58 394.25,-471.03 395.67,-464.17"/>
</a>
</g>
</g>
<!-- Node24&#45;&gt;Node26 -->
<g id="edge35_Node000024_Node000026" class="edge">
<title>Node24&#45;&gt;Node26</title>
<g id="a_edge35_Node000024_Node000026"><a xlink:title=" ">
<path fill="none" stroke="#63b8ff" d="M856.05,-505.26C888.95,-496.42 943.24,-481.84 982.07,-471.41"/>
<polygon fill="#63b8ff" stroke="#63b8ff" points="982.87,-474.82 991.61,-468.84 981.05,-468.06 982.87,-474.82"/>
</a>
</g>
</g>
<!-- Node27 -->
<g id="Node000027" class="node">
<title>Node27</title>
<g id="a_Node000027"><a xlink:href="_game_object_8h.html" target="_top" xlink:title=" ">
<polygon fill="white" stroke="#666666" points="818.62,-468 657.87,-468 657.87,-448 818.62,-448 818.62,-468"/>
<text xml:space="preserve" text-anchor="middle" x="738.25" y="-454.5" font-family="Helvetica,sans-Serif" font-size="10.00">FIEAGameEngine/GameObject.h</text>
</a>
</g>
</g>
<!-- Node24&#45;&gt;Node27 -->
<g id="edge38_Node000024_Node000027" class="edge">
<title>Node24&#45;&gt;Node27</title>
<g id="a_edge38_Node000024_Node000027"><a xlink:title=" ">
<path fill="none" stroke="#63b8ff" d="M811.75,-503.59C798.43,-495.51 778.97,-483.71 763.42,-474.27"/>
<polygon fill="#63b8ff" stroke="#63b8ff" points="765.53,-471.46 755.17,-469.26 761.9,-477.44 765.53,-471.46"/>
</a>
</g>
</g>
<!-- Node27&#45;&gt;Node3 -->
<g id="edge39_Node000027_Node000003" class="edge">
<title>Node27&#45;&gt;Node3</title>
<g id="a_edge39_Node000027_Node000003"><a xlink:title=" ">
<path fill="none" stroke="#63b8ff" d="M765.29,-447.55C835.87,-422.04 1020.25,-349.8 1020.25,-291 1020.25,-291 1020.25,-291 1020.25,-177 1020.25,-143.98 1009.47,-133.31 984.25,-112 966.08,-96.65 942.34,-86.41 920.25,-79.64"/>
<polygon fill="#63b8ff" stroke="#63b8ff" points="921.26,-76.29 910.68,-76.91 919.33,-83.02 921.26,-76.29"/>
</a>
</g>
</g>
<!-- Node27&#45;&gt;Node16 -->
<g id="edge58_Node000027_Node000016" class="edge">
<title>Node27&#45;&gt;Node16</title>
<g id="a_edge58_Node000027_Node000016"><a xlink:title=" ">
<path fill="none" stroke="#63b8ff" d="M743.28,-447.72C767.78,-402.5 874.87,-204.88 908.86,-142.17"/>
<polygon fill="#63b8ff" stroke="#63b8ff" points="911.75,-144.19 913.44,-133.73 905.59,-140.85 911.75,-144.19"/>
</a>
</g>
</g>
<!-- Node27&#45;&gt;Node19 -->
<g id="edge47_Node000027_Node000019" class="edge">
<title>Node27&#45;&gt;Node19</title>
<g id="a_edge47_Node000027_Node000019"><a xlink:title=" ">
<path fill="none" stroke="#63b8ff" d="M679.29,-447.53C639.12,-440.15 585.11,-428.38 539.25,-412 409.68,-365.73 377.32,-340.49 279.25,-244 264.53,-229.51 249.85,-211.13 239.68,-197.61"/>
<polygon fill="#63b8ff" stroke="#63b8ff" points="242.52,-195.55 233.76,-189.58 236.88,-199.71 242.52,-195.55"/>
</a>
</g>
</g>
<!-- Node28 -->
<g id="Node000028" class="node">
<title>Node28</title>
<g id="a_Node000028"><a xlink:href="_attributed_8h.html" target="_top" xlink:title=" ">
<polygon fill="white" stroke="#666666" points="690.12,-300 586.37,-300 586.37,-280 690.12,-280 690.12,-300"/>
<text xml:space="preserve" text-anchor="middle" x="638.25" y="-286.5" font-family="Helvetica,sans-Serif" font-size="10.00">Content/Attributed.h</text>
</a>
</g>
</g>
<!-- Node27&#45;&gt;Node28 -->
<g id="edge40_Node000027_Node000028" class="edge">
<title>Node27&#45;&gt;Node28</title>
<g id="a_edge40_Node000027_Node000028"><a xlink:title=" ">
<path fill="none" stroke="#63b8ff" d="M737.29,-447.72C735.66,-434.68 731.57,-410.47 722.25,-392 705.56,-358.96 676.27,-327.22 657.07,-308.41"/>
<polygon fill="#63b8ff" stroke="#63b8ff" points="659.53,-305.92 649.88,-301.54 654.69,-310.98 659.53,-305.92"/>
</a>
</g>
</g>
<!-- Node30 -->
<g id="Node000030" class="node">
<title>Node30</title>
<g id="a_Node000030"><a xlink:href="_action_8h.html" target="_top" xlink:title=" ">
<polygon fill="white" stroke="#666666" points="606.12,-356 472.37,-356 472.37,-336 606.12,-336 606.12,-356"/>
<text xml:space="preserve" text-anchor="middle" x="539.25" y="-342.5" font-family="Helvetica,sans-Serif" font-size="10.00">FIEAGameEngine/Action.h</text>
</a>
</g>
</g>
<!-- Node27&#45;&gt;Node30 -->
<g id="edge48_Node000027_Node000030" class="edge">
<title>Node27&#45;&gt;Node30</title>
<g id="a_edge48_Node000027_Node000030"><a xlink:title=" ">
<path fill="none" stroke="#63b8ff" d="M667.65,-447.51C622.79,-440.05 570.25,-428.21 554.25,-412 542.8,-400.4 539.4,-381.9 538.67,-367.6"/>
<polygon fill="#63b8ff" stroke="#63b8ff" points="542.17,-367.88 538.58,-357.91 535.17,-367.94 542.17,-367.88"/>
</a>
</g>
</g>
<!-- Node31 -->
<g id="Node000031" class="node">
<title>Node31</title>
<g id="a_Node000031"><a xlink:href="_action_list_8h.html" target="_top" xlink:title=" ">
<polygon fill="white" stroke="#666666" points="713,-412 563.5,-412 563.5,-392 713,-392 713,-412"/>
<text xml:space="preserve" text-anchor="middle" x="638.25" y="-398.5" font-family="Helvetica,sans-Serif" font-size="10.00">FIEAGameEngine/ActionList.h</text>
</a>
</g>
</g>
<!-- Node27&#45;&gt;Node31 -->
<g id="edge53_Node000027_Node000031" class="edge">
<title>Node27&#45;&gt;Node31</title>
<g id="a_edge53_Node000027_Node000031"><a xlink:title=" ">
<path fill="none" stroke="#63b8ff" d="M720.83,-447.59C705.58,-439.36 683.17,-427.26 665.54,-417.74"/>
<polygon fill="#63b8ff" stroke="#63b8ff" points="667.6,-414.87 657.13,-413.2 664.27,-421.03 667.6,-414.87"/>
</a>
</g>
</g>
<!-- Node28&#45;&gt;Node3 -->
<g id="edge41_Node000028_Node000003" class="edge">
<title>Node28&#45;&gt;Node3</title>
<g id="a_edge41_Node000028_Node000003"><a xlink:title=" ">
<path fill="none" stroke="#63b8ff" d="M641.54,-279.81C648.66,-258.16 663.04,-203.14 639.25,-168 612.84,-128.99 518.45,-147.65 549.25,-112 578.55,-78.08 699.5,-69.25 780.55,-67.22"/>
<polygon fill="#63b8ff" stroke="#63b8ff" points="780.28,-70.72 790.2,-67.01 780.12,-63.72 780.28,-70.72"/>
</a>
</g>
</g>
<!-- Node28&#45;&gt;Node12 -->
<g id="edge43_Node000028_Node000012" class="edge">
<title>Node28&#45;&gt;Node12</title>
<g id="a_edge43_Node000028_Node000012"><a xlink:title=" ">
<path fill="none" stroke="#63b8ff" d="M625.53,-279.59C614.85,-271.7 599.37,-260.24 586.77,-250.92"/>
<polygon fill="#63b8ff" stroke="#63b8ff" points="589.16,-248.33 579.03,-245.2 584.99,-253.96 589.16,-248.33"/>
</a>
</g>
</g>
<!-- Node28&#45;&gt;Node13 -->
<g id="edge44_Node000028_Node000013" class="edge">
<title>Node28&#45;&gt;Node13</title>
<g id="a_edge44_Node000028_Node000013"><a xlink:title=" ">
<path fill="none" stroke="#63b8ff" d="M595.85,-279.55C569.96,-272.47 537,-261.04 511.25,-244 468.64,-215.81 431.29,-167.79 412.72,-141.52"/>
<polygon fill="#63b8ff" stroke="#63b8ff" points="415.77,-139.78 407.21,-133.55 410.01,-143.77 415.77,-139.78"/>
</a>
</g>
</g>
<!-- Node28&#45;&gt;Node15 -->
<g id="edge42_Node000028_Node000015" class="edge">
<title>Node28&#45;&gt;Node15</title>
<g id="a_edge42_Node000028_Node000015"><a xlink:title=" ">
<path fill="none" stroke="#63b8ff" d="M650.27,-279.62C674.31,-260.87 728.55,-218.55 758.47,-195.21"/>
<polygon fill="#63b8ff" stroke="#63b8ff" points="760.33,-198.2 766.06,-189.29 756.03,-192.68 760.33,-198.2"/>
</a>
</g>
</g>
<!-- Node28&#45;&gt;Node23 -->
<g id="edge45_Node000028_Node000023" class="edge">
<title>Node28&#45;&gt;Node23</title>
<g id="a_edge45_Node000028_Node000023"><a xlink:title=" ">
<path fill="none" stroke="#63b8ff" d="M635.69,-279.62C630.86,-261.92 620.31,-223.24 613.79,-199.32"/>
<polygon fill="#63b8ff" stroke="#63b8ff" points="617.21,-198.54 611.2,-189.82 610.45,-200.38 617.21,-198.54"/>
</a>
</g>
</g>
<!-- Node29 -->
<g id="Node000029" class="node">
<title>Node29</title>
<g id="a_Node000029"><a xlink:title=" ">
<polygon fill="#e0e0e0" stroke="#999999" points="426.25,-244 368.25,-244 368.25,-224 426.25,-224 426.25,-244"/>
<text xml:space="preserve" text-anchor="middle" x="397.25" y="-230.5" font-family="Helvetica,sans-Serif" font-size="10.00">functional</text>
</a>
</g>
</g>
<!-- Node28&#45;&gt;Node29 -->
<g id="edge46_Node000028_Node000029" class="edge">
<title>Node28&#45;&gt;Node29</title>
<g id="a_edge46_Node000028_Node000029"><a xlink:title=" ">
<path fill="none" stroke="#63b8ff" d="M595.99,-279.53C551.38,-269.54 481.56,-253.89 437.66,-244.05"/>
<polygon fill="#63b8ff" stroke="#63b8ff" points="438.55,-240.67 428.02,-241.9 437.02,-247.5 438.55,-240.67"/>
</a>
</g>
</g>
<!-- Node30&#45;&gt;Node3 -->
<g id="edge49_Node000030_Node000003" class="edge">
<title>Node30&#45;&gt;Node3</title>
<g id="a_edge49_Node000030_Node000003"><a xlink:title=" ">
<path fill="none" stroke="#63b8ff" d="M532.11,-335.58C518.96,-317.25 492.25,-275.08 492.25,-235 492.25,-235 492.25,-235 492.25,-177 492.25,-141.35 508.72,-130.42 539.25,-112 578.68,-88.21 699.88,-76.36 780.47,-70.97"/>
<polygon fill="#63b8ff" stroke="#63b8ff" points="780.3,-74.48 790.05,-70.34 779.85,-67.5 780.3,-74.48"/>
</a>
</g>
</g>
<!-- Node30&#45;&gt;Node19 -->
<g id="edge51_Node000030_Node000019" class="edge">
<title>Node30&#45;&gt;Node19</title>
<g id="a_edge51_Node000030_Node000019"><a xlink:title=" ">
<path fill="none" stroke="#63b8ff" d="M519.78,-335.65C501.44,-326.76 473.28,-312.86 449.25,-300 389.22,-267.88 376.27,-256.12 316.25,-224 296.35,-213.35 273.62,-201.99 255.97,-193.35"/>
<polygon fill="#63b8ff" stroke="#63b8ff" points="257.6,-190.25 247.08,-189.01 254.53,-196.54 257.6,-190.25"/>
</a>
</g>
</g>
<!-- Node30&#45;&gt;Node28 -->
<g id="edge50_Node000030_Node000028" class="edge">
<title>Node30&#45;&gt;Node28</title>
<g id="a_edge50_Node000030_Node000028"><a xlink:title=" ">
<path fill="none" stroke="#63b8ff" d="M556.49,-335.59C571.59,-327.36 593.78,-315.26 611.23,-305.74"/>
<polygon fill="#63b8ff" stroke="#63b8ff" points="612.44,-309.07 619.54,-301.2 609.08,-302.92 612.44,-309.07"/>
</a>
</g>
</g>
<!-- Node30&#45;&gt;Node29 -->
<g id="edge52_Node000030_Node000029" class="edge">
<title>Node30&#45;&gt;Node29</title>
<g id="a_edge52_Node000030_Node000029"><a xlink:title=" ">
<path fill="none" stroke="#63b8ff" d="M526.52,-335.84C514.1,-326.85 494.73,-312.68 478.25,-300 457.22,-283.82 433.61,-264.77 417.33,-251.49"/>
<polygon fill="#63b8ff" stroke="#63b8ff" points="419.79,-248.99 409.84,-245.36 415.36,-254.4 419.79,-248.99"/>
</a>
</g>
</g>
<!-- Node31&#45;&gt;Node3 -->
<g id="edge54_Node000031_Node000003" class="edge">
<title>Node31&#45;&gt;Node3</title>
<g id="a_edge54_Node000031_Node000003"><a xlink:title=" ">
<path fill="none" stroke="#63b8ff" d="M713.31,-397.16C814.53,-387.47 982.25,-353.53 982.25,-235 982.25,-235 982.25,-235 982.25,-177 982.25,-146.9 983.29,-134.46 963.25,-112 949.9,-97.04 930.77,-86.91 912.37,-80.12"/>
<polygon fill="#63b8ff" stroke="#63b8ff" points="913.69,-76.87 903.1,-76.98 911.44,-83.5 913.69,-76.87"/>
</a>
</g>
</g>
<!-- Node31&#45;&gt;Node19 -->
<g id="edge56_Node000031_Node000019" class="edge">
<title>Node31&#45;&gt;Node19</title>
<g id="a_edge56_Node000031_Node000019"><a xlink:title=" ">
<path fill="none" stroke="#63b8ff" d="M577.91,-391.51C543.21,-384.59 499.46,-373.34 463.25,-356 416.23,-333.49 294.74,-235.37 246.46,-195.72"/>
<polygon fill="#63b8ff" stroke="#63b8ff" points="248.69,-193.01 238.74,-189.36 244.24,-198.42 248.69,-193.01"/>
</a>
</g>
</g>
<!-- Node31&#45;&gt;Node28 -->
<g id="edge55_Node000031_Node000028" class="edge">
<title>Node31&#45;&gt;Node28</title>
<g id="a_edge55_Node000031_Node000028"><a xlink:title=" ">
<path fill="none" stroke="#63b8ff" d="M638.25,-391.62C638.25,-374.01 638.25,-335.59 638.25,-311.65"/>
<polygon fill="#63b8ff" stroke="#63b8ff" points="641.75,-311.87 638.25,-301.87 634.75,-311.87 641.75,-311.87"/>
</a>
</g>
</g>
<!-- Node31&#45;&gt;Node30 -->
<g id="edge57_Node000031_Node000030" class="edge">
<title>Node31&#45;&gt;Node30</title>
<g id="a_edge57_Node000031_Node000030"><a xlink:title=" ">
<path fill="none" stroke="#63b8ff" d="M621,-391.59C605.91,-383.36 583.72,-371.26 566.27,-361.74"/>
<polygon fill="#63b8ff" stroke="#63b8ff" points="568.41,-358.92 557.96,-357.2 565.06,-365.07 568.41,-358.92"/>
</a>
</g>
</g>
<!-- Node32&#45;&gt;Node3 -->
<g id="edge60_Node000032_Node000003" class="edge">
<title>Node32&#45;&gt;Node3</title>
<g id="a_edge60_Node000032_Node000003"><a xlink:title=" ">
<path fill="none" stroke="#63b8ff" d="M1091.84,-503.65C1105.83,-485.45 1134.25,-443.49 1134.25,-403 1134.25,-403 1134.25,-403 1134.25,-177 1134.25,-146.2 1133.88,-131.75 1110.25,-112 1083.75,-89.85 996.98,-78.06 932.18,-72.18"/>
<polygon fill="#63b8ff" stroke="#63b8ff" points="932.54,-68.7 922.27,-71.31 931.93,-75.67 932.54,-68.7"/>
</a>
</g>
</g>
<!-- Node32&#45;&gt;Node13 -->
<g id="edge61_Node000032_Node000013" class="edge">
<title>Node32&#45;&gt;Node13</title>
<g id="a_edge61_Node000032_Node000013"><a xlink:title=" ">
<path fill="none" stroke="#63b8ff" d="M1085.61,-503.81C1087.1,-490.45 1088.01,-465.37 1077.25,-448 955.57,-251.59 854.03,-253.15 639.25,-168 586.74,-147.18 523.85,-135.83 475.76,-129.74"/>
<polygon fill="#63b8ff" stroke="#63b8ff" points="476.34,-126.29 465.99,-128.56 475.5,-133.24 476.34,-126.29"/>
</a>
</g>
</g>
<!-- Node32&#45;&gt;Node26 -->
<g id="edge62_Node000032_Node000026" class="edge">
<title>Node32&#45;&gt;Node26</title>
<g id="a_edge62_Node000032_Node000026"><a xlink:title=" ">
<path fill="none" stroke="#63b8ff" d="M1074.49,-503.59C1066.62,-496.01 1055.35,-485.13 1045.9,-476.02"/>
<polygon fill="#63b8ff" stroke="#63b8ff" points="1048.61,-473.77 1038.98,-469.35 1043.75,-478.81 1048.61,-473.77"/>
</a>
</g>
</g>
<!-- Node33&#45;&gt;Node3 -->
<g id="edge64_Node000033_Node000003" class="edge">
<title>Node33&#45;&gt;Node3</title>
<g id="a_edge64_Node000033_Node000003"><a xlink:title=" ">
<path fill="none" stroke="#63b8ff" d="M960.32,-559.79C960.78,-539.01 963.66,-487.22 980.25,-448 1014.04,-368.09 1096.25,-377.76 1096.25,-291 1096.25,-291 1096.25,-291 1096.25,-177 1096.25,-103.58 1002.29,-78.97 931.95,-70.84"/>
<polygon fill="#63b8ff" stroke="#63b8ff" points="932.7,-67.4 922.38,-69.83 931.96,-74.36 932.7,-67.4"/>
</a>
</g>
</g>
<!-- Node33&#45;&gt;Node7 -->
<g id="edge70_Node000033_Node000007" class="edge">
<title>Node33&#45;&gt;Node7</title>
<g id="a_edge70_Node000033_Node000007"><a xlink:title=" ">
<path fill="none" stroke="#63b8ff" d="M999.64,-566.71C1033.54,-562.77 1081.82,-552.19 1113.25,-524 1196.75,-449.1 1210.25,-403.17 1210.25,-291 1210.25,-291 1210.25,-291 1210.25,-121 1210.25,-89.26 1218.02,-53.11 1223.63,-31.19"/>
<polygon fill="#63b8ff" stroke="#63b8ff" points="1226.94,-32.35 1226.14,-21.79 1220.17,-30.54 1226.94,-32.35"/>
</a>
</g>
</g>
<!-- Node33&#45;&gt;Node12 -->
<g id="edge65_Node000033_Node000012" class="edge">
<title>Node33&#45;&gt;Node12</title>
<g id="a_edge65_Node000033_Node000012"><a xlink:title=" ">
<path fill="none" stroke="#63b8ff" d="M954.51,-559.63C929.51,-519.62 825.73,-361.43 699.25,-280 675.61,-264.78 646.3,-254.17 621.12,-247.1"/>
<polygon fill="#63b8ff" stroke="#63b8ff" points="622.27,-243.78 611.71,-244.57 620.46,-250.54 622.27,-243.78"/>
</a>
</g>
</g>
<!-- Node33&#45;&gt;Node19 -->
<g id="edge69_Node000033_Node000019" class="edge">
<title>Node33&#45;&gt;Node19</title>
<g id="a_edge69_Node000033_Node000019"><a xlink:title=" ">
<path fill="none" stroke="#63b8ff" d="M920.73,-567.88C796.59,-563.59 417.31,-544.36 326.25,-468 242.44,-397.72 228.76,-253.4 226.61,-199.71"/>
<polygon fill="#63b8ff" stroke="#63b8ff" points="230.11,-199.78 226.33,-189.89 223.12,-199.99 230.11,-199.78"/>
</a>
</g>
</g>
<!-- Node33&#45;&gt;Node24 -->
<g id="edge66_Node000033_Node000024" class="edge">
<title>Node33&#45;&gt;Node24</title>
<g id="a_edge66_Node000033_Node000024"><a xlink:title=" ">
<path fill="none" stroke="#63b8ff" d="M937.08,-559.59C916.04,-551.05 884.75,-538.35 860.94,-528.68"/>
<polygon fill="#63b8ff" stroke="#63b8ff" points="862.58,-525.57 852,-525.05 859.95,-532.05 862.58,-525.57"/>
</a>
</g>
</g>
<!-- Node33&#45;&gt;Node26 -->
<g id="edge71_Node000033_Node000026" class="edge">
<title>Node33&#45;&gt;Node26</title>
<g id="a_edge71_Node000033_Node000026"><a xlink:title=" ">
<path fill="none" stroke="#63b8ff" d="M966.05,-559.62C977.19,-541.6 1001.78,-501.81 1016.49,-478.02"/>
<polygon fill="#63b8ff" stroke="#63b8ff" points="1019.39,-479.99 1021.67,-469.64 1013.43,-476.31 1019.39,-479.99"/>
</a>
</g>
</g>
<!-- Node33&#45;&gt;Node28 -->
<g id="edge68_Node000033_Node000028" class="edge">
<title>Node33&#45;&gt;Node28</title>
<g id="a_edge68_Node000033_Node000028"><a xlink:title=" ">
<path fill="none" stroke="#63b8ff" d="M949.38,-559.82C938.78,-550.81 922.26,-536.63 908.25,-524 816.9,-441.68 801.86,-412.08 705.25,-336 691.87,-325.47 676.1,-314.79 663.22,-306.49"/>
<polygon fill="#63b8ff" stroke="#63b8ff" points="665.2,-303.6 654.88,-301.19 661.45,-309.51 665.2,-303.6"/>
</a>
</g>
</g>
<!-- Node33&#45;&gt;Node32 -->
<g id="edge67_Node000033_Node000032" class="edge">
<title>Node33&#45;&gt;Node32</title>
<g id="a_edge67_Node000033_Node000032"><a xlink:title=" ">
<path fill="none" stroke="#63b8ff" d="M981.85,-559.59C1001.64,-550.97 1031.18,-538.11 1053.45,-528.41"/>
<polygon fill="#63b8ff" stroke="#63b8ff" points="1054.56,-531.75 1062.33,-524.54 1051.77,-525.33 1054.56,-531.75"/>
</a>
</g>
</g>
</g>
</svg>
