<?xml version="1.0" encoding="UTF-8" standalone="no"?>
<!DOCTYPE svg PUBLIC "-//W3C//DTD SVG 1.1//EN"
 "http://www.w3.org/Graphics/SVG/1.1/DTD/svg11.dtd">
<!-- Generated by graphviz version 13.1.0 (20250701.0955)
 -->
<!-- Title: Tests/Support/AttributeBox.h Pages: 1 -->
<svg width="717pt" height="164pt"
 viewBox="0.00 0.00 717.00 164.00" xmlns="http://www.w3.org/2000/svg" xmlns:xlink="http://www.w3.org/1999/xlink">
<g id="graph0" class="graph" transform="scale(1 1) rotate(0) translate(4 160)">
<title>Tests/Support/AttributeBox.h</title>
<!-- Node1 -->
<g id="Node000001" class="node">
<title>Node1</title>
<g id="a_Node000001"><a xlink:title=" ">
<polygon fill="#999999" stroke="#666666" points="374.66,-156 232.66,-156 232.66,-136 374.66,-136 374.66,-156"/>
<text xml:space="preserve" text-anchor="middle" x="303.66" y="-142.5" font-family="Helvetica,sans-Serif" font-size="10.00">Tests/Support/AttributeBox.h</text>
</a>
</g>
</g>
<!-- Node2 -->
<g id="Node000002" class="node">
<title>Node2</title>
<g id="a_Node000002"><a xlink:href="_attributed_test_8cpp.html" target="_top" xlink:title=" ">
<polygon fill="white" stroke="#666666" points="227.91,-26 105.41,-26 105.41,-6 227.91,-6 227.91,-26"/>
<text xml:space="preserve" text-anchor="middle" x="166.66" y="-12.5" font-family="Helvetica,sans-Serif" font-size="10.00">Tests/AttributedTest.cpp</text>
</a>
</g>
</g>
<!-- Node1&#45;&gt;Node2 -->
<g id="edge1_Node000001_Node000002" class="edge">
<title>Node1&#45;&gt;Node2</title>
<g id="a_edge1_Node000001_Node000002"><a xlink:title=" ">
<path fill="none" stroke="#63b8ff" d="M221.2,-144.01C143.67,-141.11 35.61,-131.37 8.66,-100 -24.5,-61.4 49.93,-38.16 107.54,-26.47"/>
<polygon fill="#63b8ff" stroke="#63b8ff" points="220.78,-147.49 230.89,-144.33 221.02,-140.5 220.78,-147.49"/>
</a>
</g>
</g>
<!-- Node3 -->
<g id="Node000003" class="node">
<title>Node3</title>
<g id="a_Node000003"><a xlink:href="_factory_tests_8cpp.html" target="_top" xlink:title=" ">
<polygon fill="white" stroke="#666666" points="136.04,-94 17.29,-94 17.29,-74 136.04,-74 136.04,-94"/>
<text xml:space="preserve" text-anchor="middle" x="76.66" y="-80.5" font-family="Helvetica,sans-Serif" font-size="10.00">Tests/FactoryTests.cpp</text>
</a>
</g>
</g>
<!-- Node1&#45;&gt;Node3 -->
<g id="edge2_Node000001_Node000003" class="edge">
<title>Node1&#45;&gt;Node3</title>
<g id="a_edge2_Node000001_Node000003"><a xlink:title=" ">
<path fill="none" stroke="#63b8ff" d="M256.96,-132.66C214.13,-121.33 151.58,-104.8 112.55,-94.48"/>
<polygon fill="#63b8ff" stroke="#63b8ff" points="255.92,-136 266.48,-135.17 257.71,-129.23 255.92,-136"/>
</a>
</g>
</g>
<!-- Node4 -->
<g id="Node000004" class="node">
<title>Node4</title>
<g id="a_Node000004"><a xlink:href="_scope_parser_test_8cpp.html" target="_top" xlink:title=" ">
<polygon fill="white" stroke="#666666" points="291.04,-94 154.29,-94 154.29,-74 291.04,-74 291.04,-94"/>
<text xml:space="preserve" text-anchor="middle" x="222.66" y="-80.5" font-family="Helvetica,sans-Serif" font-size="10.00">Tests/ScopeParserTest.cpp</text>
</a>
</g>
</g>
<!-- Node1&#45;&gt;Node4 -->
<g id="edge3_Node000001_Node000004" class="edge">
<title>Node1&#45;&gt;Node4</title>
<g id="a_edge3_Node000001_Node000004"><a xlink:title=" ">
<path fill="none" stroke="#63b8ff" d="M281.94,-128.91C267,-117.84 247.68,-103.53 235.23,-94.31"/>
<polygon fill="#63b8ff" stroke="#63b8ff" points="279.67,-131.58 289.79,-134.72 283.84,-125.96 279.67,-131.58"/>
</a>
</g>
</g>
<!-- Node5 -->
<g id="Node000005" class="node">
<title>Node5</title>
<g id="a_Node000005"><a xlink:href="_attribute_box_8cpp.html" target="_top" xlink:title=" ">
<polygon fill="white" stroke="#666666" points="461.91,-94 309.41,-94 309.41,-74 461.91,-74 461.91,-94"/>
<text xml:space="preserve" text-anchor="middle" x="385.66" y="-80.5" font-family="Helvetica,sans-Serif" font-size="10.00">Tests/Support/AttributeBox.cpp</text>
</a>
</g>
</g>
<!-- Node1&#45;&gt;Node5 -->
<g id="edge4_Node000001_Node000005" class="edge">
<title>Node1&#45;&gt;Node5</title>
<g id="a_edge4_Node000001_Node000005"><a xlink:title=" ">
<path fill="none" stroke="#63b8ff" d="M325.66,-128.91C340.78,-117.84 360.33,-103.53 372.94,-94.31"/>
<polygon fill="#63b8ff" stroke="#63b8ff" points="323.7,-126 317.7,-134.73 327.83,-131.65 323.7,-126"/>
</a>
</g>
</g>
<!-- Node6 -->
<g id="Node000006" class="node">
<title>Node6</title>
<g id="a_Node000006"><a xlink:href="_attribute_box_plus_8h.html" target="_top" xlink:title=" ">
<polygon fill="white" stroke="#666666" points="613.54,-100 479.79,-100 479.79,-68 613.54,-68 613.54,-100"/>
<text xml:space="preserve" text-anchor="start" x="487.79" y="-86.5" font-family="Helvetica,sans-Serif" font-size="10.00">Tests/Support/AttributeBox</text>
<text xml:space="preserve" text-anchor="middle" x="546.66" y="-74.5" font-family="Helvetica,sans-Serif" font-size="10.00">Plus.h</text>
</a>
</g>
</g>
<!-- Node1&#45;&gt;Node6 -->
<g id="edge5_Node000001_Node000006" class="edge">
<title>Node1&#45;&gt;Node6</title>
<g id="a_edge5_Node000001_Node000006"><a xlink:title=" ">
<path fill="none" stroke="#63b8ff" d="M352.65,-132.9C390.5,-123.56 443.16,-110.56 484.06,-100.46"/>
<polygon fill="#63b8ff" stroke="#63b8ff" points="352.24,-129.4 343.37,-135.2 353.91,-136.2 352.24,-129.4"/>
</a>
</g>
</g>
<!-- Node8 -->
<g id="Node000008" class="node">
<title>Node8</title>
<g id="a_Node000008"><a xlink:href="_attribute_box_tests_8cpp.html" target="_top" xlink:title=" ">
<polygon fill="white" stroke="#666666" points="708.54,-32 574.79,-32 574.79,0 708.54,0 708.54,-32"/>
<text xml:space="preserve" text-anchor="start" x="582.79" y="-18.5" font-family="Helvetica,sans-Serif" font-size="10.00">Tests/Support/AttributeBox</text>
<text xml:space="preserve" text-anchor="middle" x="641.66" y="-6.5" font-family="Helvetica,sans-Serif" font-size="10.00">Tests.cpp</text>
</a>
</g>
</g>
<!-- Node1&#45;&gt;Node8 -->
<g id="edge9_Node000001_Node000008" class="edge">
<title>Node1&#45;&gt;Node8</title>
<g id="a_edge9_Node000001_Node000008"><a xlink:title=" ">
<path fill="none" stroke="#63b8ff" d="M386.32,-143.7C469.18,-140.63 589.12,-130.81 622.66,-100 641.39,-82.8 643.53,-51.25 642.92,-32.39"/>
<polygon fill="#63b8ff" stroke="#63b8ff" points="386.28,-140.2 376.4,-144.04 386.52,-147.19 386.28,-140.2"/>
</a>
</g>
</g>
<!-- Node6&#45;&gt;Node2 -->
<g id="edge6_Node000006_Node000002" class="edge">
<title>Node6&#45;&gt;Node2</title>
<g id="a_edge6_Node000006_Node000002"><a xlink:title=" ">
<path fill="none" stroke="#63b8ff" d="M468.28,-67.59C378.08,-51.24 285.06,-35.95 226.17,-26.47"/>
<polygon fill="#63b8ff" stroke="#63b8ff" points="467.59,-71.03 478.06,-69.37 468.84,-64.14 467.59,-71.03"/>
</a>
</g>
</g>
<!-- Node7 -->
<g id="Node000007" class="node">
<title>Node7</title>
<g id="a_Node000007"><a xlink:href="_attribute_box_plus_8cpp.html" target="_top" xlink:title=" ">
<polygon fill="white" stroke="#666666" points="556.54,-32 422.79,-32 422.79,0 556.54,0 556.54,-32"/>
<text xml:space="preserve" text-anchor="start" x="430.79" y="-18.5" font-family="Helvetica,sans-Serif" font-size="10.00">Tests/Support/AttributeBox</text>
<text xml:space="preserve" text-anchor="middle" x="489.66" y="-6.5" font-family="Helvetica,sans-Serif" font-size="10.00">Plus.cpp</text>
</a>
</g>
</g>
<!-- Node6&#45;&gt;Node7 -->
<g id="edge7_Node000006_Node000007" class="edge">
<title>Node6&#45;&gt;Node7</title>
<g id="a_edge7_Node000006_Node000007"><a xlink:title=" ">
<path fill="none" stroke="#63b8ff" d="M526.06,-59.15C518.31,-50.17 509.7,-40.21 502.81,-32.22"/>
<polygon fill="#63b8ff" stroke="#63b8ff" points="523.27,-61.27 532.45,-66.55 528.56,-56.69 523.27,-61.27"/>
</a>
</g>
</g>
<!-- Node6&#45;&gt;Node8 -->
<g id="edge8_Node000006_Node000008" class="edge">
<title>Node6&#45;&gt;Node8</title>
<g id="a_edge8_Node000006_Node000008"><a xlink:title=" ">
<path fill="none" stroke="#63b8ff" d="M578.12,-61.15C591.64,-51.75 607.12,-41 619.42,-32.45"/>
<polygon fill="#63b8ff" stroke="#63b8ff" points="576.15,-58.25 569.94,-66.83 580.15,-64 576.15,-58.25"/>
</a>
</g>
</g>
</g>
</svg>
