<?xml version="1.0" encoding="UTF-8" standalone="no"?>
<!DOCTYPE svg PUBLIC "-//W3C//DTD SVG 1.1//EN"
 "http://www.w3.org/Graphics/SVG/1.1/DTD/svg11.dtd">
<!-- Generated by graphviz version 13.1.0 (20250701.0955)
 -->
<!-- Title: Tests/Support/AttributeBoxPlus.h Pages: 1 -->
<svg width="434pt" height="108pt"
 viewBox="0.00 0.00 434.00 108.00" xmlns="http://www.w3.org/2000/svg" xmlns:xlink="http://www.w3.org/1999/xlink">
<g id="graph0" class="graph" transform="scale(1 1) rotate(0) translate(4 104)">
<title>Tests/Support/AttributeBoxPlus.h</title>
<!-- Node1 -->
<g id="Node000001" class="node">
<title>Node1</title>
<g id="a_Node000001"><a xlink:title=" ">
<polygon fill="#999999" stroke="#666666" points="274.12,-100 140.38,-100 140.38,-68 274.12,-68 274.12,-100"/>
<text xml:space="preserve" text-anchor="start" x="148.38" y="-86.5" font-family="Helvetica,sans-Serif" font-size="10.00">Tests/Support/AttributeBox</text>
<text xml:space="preserve" text-anchor="middle" x="207.25" y="-74.5" font-family="Helvetica,sans-Serif" font-size="10.00">Plus.h</text>
</a>
</g>
</g>
<!-- Node2 -->
<g id="Node000002" class="node">
<title>Node2</title>
<g id="a_Node000002"><a xlink:href="_attributed_test_8cpp.html" target="_top" xlink:title=" ">
<polygon fill="white" stroke="#666666" points="122.5,-26 0,-26 0,-6 122.5,-6 122.5,-26"/>
<text xml:space="preserve" text-anchor="middle" x="61.25" y="-12.5" font-family="Helvetica,sans-Serif" font-size="10.00">Tests/AttributedTest.cpp</text>
</a>
</g>
</g>
<!-- Node1&#45;&gt;Node2 -->
<g id="edge1_Node000001_Node000002" class="edge">
<title>Node1&#45;&gt;Node2</title>
<g id="a_edge1_Node000001_Node000002"><a xlink:title=" ">
<path fill="none" stroke="#63b8ff" d="M162.72,-62.87C135.94,-50.76 103.1,-35.92 82.18,-26.46"/>
<polygon fill="#63b8ff" stroke="#63b8ff" points="161.09,-65.97 171.64,-66.9 163.97,-59.59 161.09,-65.97"/>
</a>
</g>
</g>
<!-- Node3 -->
<g id="Node000003" class="node">
<title>Node3</title>
<g id="a_Node000003"><a xlink:href="_attribute_box_plus_8cpp.html" target="_top" xlink:title=" ">
<polygon fill="white" stroke="#666666" points="274.12,-32 140.38,-32 140.38,0 274.12,0 274.12,-32"/>
<text xml:space="preserve" text-anchor="start" x="148.38" y="-18.5" font-family="Helvetica,sans-Serif" font-size="10.00">Tests/Support/AttributeBox</text>
<text xml:space="preserve" text-anchor="middle" x="207.25" y="-6.5" font-family="Helvetica,sans-Serif" font-size="10.00">Plus.cpp</text>
</a>
</g>
</g>
<!-- Node1&#45;&gt;Node3 -->
<g id="edge2_Node000001_Node000003" class="edge">
<title>Node1&#45;&gt;Node3</title>
<g id="a_edge2_Node000001_Node000003"><a xlink:title=" ">
<path fill="none" stroke="#63b8ff" d="M207.25,-56.31C207.25,-48.12 207.25,-39.38 207.25,-32.22"/>
<polygon fill="#63b8ff" stroke="#63b8ff" points="203.75,-56.18 207.25,-66.18 210.75,-56.18 203.75,-56.18"/>
</a>
</g>
</g>
<!-- Node4 -->
<g id="Node000004" class="node">
<title>Node4</title>
<g id="a_Node000004"><a xlink:href="_attribute_box_tests_8cpp.html" target="_top" xlink:title=" ">
<polygon fill="white" stroke="#666666" points="426.12,-32 292.38,-32 292.38,0 426.12,0 426.12,-32"/>
<text xml:space="preserve" text-anchor="start" x="300.38" y="-18.5" font-family="Helvetica,sans-Serif" font-size="10.00">Tests/Support/AttributeBox</text>
<text xml:space="preserve" text-anchor="middle" x="359.25" y="-6.5" font-family="Helvetica,sans-Serif" font-size="10.00">Tests.cpp</text>
</a>
</g>
</g>
<!-- Node1&#45;&gt;Node4 -->
<g id="edge3_Node000001_Node000004" class="edge">
<title>Node1&#45;&gt;Node4</title>
<g id="a_edge3_Node000001_Node000004"><a xlink:title=" ">
<path fill="none" stroke="#63b8ff" d="M253.25,-63.03C275.82,-53.23 302.58,-41.61 323.57,-32.49"/>
<polygon fill="#63b8ff" stroke="#63b8ff" points="252.05,-59.73 244.28,-66.92 254.84,-66.15 252.05,-59.73"/>
</a>
</g>
</g>
</g>
</svg>
