<?xml version="1.0" encoding="UTF-8" standalone="no"?>
<!DOCTYPE svg PUBLIC "-//W3C//DTD SVG 1.1//EN"
 "http://www.w3.org/Graphics/SVG/1.1/DTD/svg11.dtd">
<!-- Generated by graphviz version 13.1.0 (20250701.0955)
 -->
<!-- Title: Tests/Support/AttributeBox.cpp Pages: 1 -->
<svg width="1204pt" height="644pt"
 viewBox="0.00 0.00 1204.00 644.00" xmlns="http://www.w3.org/2000/svg" xmlns:xlink="http://www.w3.org/1999/xlink">
<g id="graph0" class="graph" transform="scale(1 1) rotate(0) translate(4 640)">
<title>Tests/Support/AttributeBox.cpp</title>
<!-- Node1 -->
<g id="Node000001" class="node">
<title>Node1</title>
<g id="a_Node000001"><a xlink:title=" ">
<polygon fill="#999999" stroke="#666666" points="1027.39,-636 874.89,-636 874.89,-616 1027.39,-616 1027.39,-636"/>
<text xml:space="preserve" text-anchor="middle" x="951.14" y="-622.5" font-family="Helvetica,sans-Serif" font-size="10.00">Tests/Support/AttributeBox.cpp</text>
</a>
</g>
</g>
<!-- Node2 -->
<g id="Node000002" class="node">
<title>Node2</title>
<g id="a_Node000002"><a xlink:href="_attribute_box_8h.html" target="_top" xlink:title=" ">
<polygon fill="white" stroke="#666666" points="990.26,-580 912.01,-580 912.01,-560 990.26,-560 990.26,-580"/>
<text xml:space="preserve" text-anchor="middle" x="951.14" y="-566.5" font-family="Helvetica,sans-Serif" font-size="10.00">AttributeBox.h</text>
</a>
</g>
</g>
<!-- Node1&#45;&gt;Node2 -->
<g id="edge1_Node000001_Node000002" class="edge">
<title>Node1&#45;&gt;Node2</title>
<g id="a_edge1_Node000001_Node000002"><a xlink:title=" ">
<path fill="none" stroke="#63b8ff" d="M951.14,-615.59C951.14,-609.01 951.14,-599.96 951.14,-591.73"/>
<polygon fill="#63b8ff" stroke="#63b8ff" points="954.64,-591.81 951.14,-581.81 947.64,-591.81 954.64,-591.81"/>
</a>
</g>
</g>
<!-- Node3 -->
<g id="Node000003" class="node">
<title>Node3</title>
<g id="a_Node000003"><a xlink:href="_types_8h.html" target="_top" xlink:title=" ">
<polygon fill="white" stroke="#666666" points="925.39,-76 796.89,-76 796.89,-56 925.39,-56 925.39,-76"/>
<text xml:space="preserve" text-anchor="middle" x="861.14" y="-62.5" font-family="Helvetica,sans-Serif" font-size="10.00">FieaGameEngine/Types.h</text>
</a>
</g>
</g>
<!-- Node2&#45;&gt;Node3 -->
<g id="edge2_Node000002_Node000003" class="edge">
<title>Node2&#45;&gt;Node3</title>
<g id="a_edge2_Node000002_Node000003"><a xlink:title=" ">
<path fill="none" stroke="#63b8ff" d="M990.4,-563.23C1044.17,-552.85 1134.14,-525.54 1134.14,-459 1134.14,-459 1134.14,-459 1134.14,-177 1134.14,-140.82 1115.76,-131.26 1085.14,-112 1040.88,-84.16 982.8,-73.06 936.88,-68.84"/>
<polygon fill="#63b8ff" stroke="#63b8ff" points="937.24,-65.36 926.99,-68.03 936.67,-72.33 937.24,-65.36"/>
</a>
</g>
</g>
<!-- Node7 -->
<g id="Node000007" class="node">
<title>Node7</title>
<g id="a_Node000007"><a xlink:title=" ">
<polygon fill="#e0e0e0" stroke="#999999" points="1196.26,-20 1148.01,-20 1148.01,0 1196.26,0 1196.26,-20"/>
<text xml:space="preserve" text-anchor="middle" x="1172.14" y="-6.5" font-family="Helvetica,sans-Serif" font-size="10.00">cstddef</text>
</a>
</g>
</g>
<!-- Node2&#45;&gt;Node7 -->
<g id="edge65_Node000002_Node000007" class="edge">
<title>Node2&#45;&gt;Node7</title>
<g id="a_edge65_Node000002_Node000007"><a xlink:title=" ">
<path fill="none" stroke="#63b8ff" d="M990.65,-566.8C1054.22,-560.9 1172.14,-539.14 1172.14,-459 1172.14,-459 1172.14,-459 1172.14,-121 1172.14,-89.87 1172.14,-53.78 1172.14,-31.68"/>
<polygon fill="#63b8ff" stroke="#63b8ff" points="1175.64,-31.93 1172.14,-21.93 1168.64,-31.93 1175.64,-31.93"/>
</a>
</g>
</g>
<!-- Node12 -->
<g id="Node000012" class="node">
<title>Node12</title>
<g id="a_Node000012"><a xlink:href="_scope_8h.html" target="_top" xlink:title=" ">
<polygon fill="white" stroke="#666666" points="541.89,-244 452.39,-244 452.39,-224 541.89,-224 541.89,-244"/>
<text xml:space="preserve" text-anchor="middle" x="497.14" y="-230.5" font-family="Helvetica,sans-Serif" font-size="10.00">Content/Scope.h</text>
</a>
</g>
</g>
<!-- Node2&#45;&gt;Node12 -->
<g id="edge11_Node000002_Node000012" class="edge">
<title>Node2&#45;&gt;Node12</title>
<g id="a_edge11_Node000002_Node000012"><a xlink:title=" ">
<path fill="none" stroke="#63b8ff" d="M911.92,-568.16C795.87,-564.77 458.06,-548.07 391.14,-468 333.28,-398.77 433.85,-292.81 477.96,-251.92"/>
<polygon fill="#63b8ff" stroke="#63b8ff" points="480.04,-254.76 485.08,-245.44 475.33,-249.58 480.04,-254.76"/>
</a>
</g>
</g>
<!-- Node19 -->
<g id="Node000019" class="node">
<title>Node19</title>
<g id="a_Node000019"><a xlink:href="_factory_service_8h.html" target="_top" xlink:title=" ">
<polygon fill="white" stroke="#666666" points="291.14,-188 119.14,-188 119.14,-168 291.14,-168 291.14,-188"/>
<text xml:space="preserve" text-anchor="middle" x="205.14" y="-174.5" font-family="Helvetica,sans-Serif" font-size="10.00">FIEAGameEngine/FactoryService.h</text>
</a>
</g>
</g>
<!-- Node2&#45;&gt;Node19 -->
<g id="edge64_Node000002_Node000019" class="edge">
<title>Node2&#45;&gt;Node19</title>
<g id="a_edge64_Node000002_Node000019"><a xlink:title=" ">
<path fill="none" stroke="#63b8ff" d="M911.57,-567.14C761.26,-559.58 234.14,-528.11 234.14,-459 234.14,-459 234.14,-459 234.14,-289 234.14,-256.67 222.28,-220.71 213.73,-198.98"/>
<polygon fill="#63b8ff" stroke="#63b8ff" points="217.03,-197.81 209.99,-189.89 210.56,-200.47 217.03,-197.81"/>
</a>
</g>
</g>
<!-- Node24 -->
<g id="Node000024" class="node">
<title>Node24</title>
<g id="a_Node000024"><a xlink:href="_tests_8h.html" target="_top" xlink:title=" ">
<polygon fill="white" stroke="#666666" points="868.76,-524 811.51,-524 811.51,-504 868.76,-504 868.76,-524"/>
<text xml:space="preserve" text-anchor="middle" x="840.14" y="-510.5" font-family="Helvetica,sans-Serif" font-size="10.00">../Tests.h</text>
</a>
</g>
</g>
<!-- Node2&#45;&gt;Node24 -->
<g id="edge33_Node000002_Node000024" class="edge">
<title>Node2&#45;&gt;Node24</title>
<g id="a_edge33_Node000002_Node000024"><a xlink:title=" ">
<path fill="none" stroke="#63b8ff" d="M931.81,-559.59C914.72,-551.28 889.54,-539.03 869.89,-529.47"/>
<polygon fill="#63b8ff" stroke="#63b8ff" points="871.51,-526.37 860.99,-525.14 868.45,-532.66 871.51,-526.37"/>
</a>
</g>
</g>
<!-- Node26 -->
<g id="Node000026" class="node">
<title>Node26</title>
<g id="a_Node000026"><a xlink:title=" ">
<polygon fill="#e0e0e0" stroke="#999999" points="1067.64,-468 988.64,-468 988.64,-448 1067.64,-448 1067.64,-468"/>
<text xml:space="preserve" text-anchor="middle" x="1028.14" y="-454.5" font-family="Helvetica,sans-Serif" font-size="10.00">CppUnitTest.h</text>
</a>
</g>
</g>
<!-- Node2&#45;&gt;Node26 -->
<g id="edge66_Node000002_Node000026" class="edge">
<title>Node2&#45;&gt;Node26</title>
<g id="a_edge66_Node000002_Node000026"><a xlink:title=" ">
<path fill="none" stroke="#63b8ff" d="M964.88,-559.69C976.18,-551.44 991.93,-538.48 1002.14,-524 1011.79,-510.31 1018.59,-492.52 1022.8,-479.02"/>
<polygon fill="#63b8ff" stroke="#63b8ff" points="1026.14,-480.09 1025.54,-469.51 1019.41,-478.15 1026.14,-480.09"/>
</a>
</g>
</g>
<!-- Node28 -->
<g id="Node000028" class="node">
<title>Node28</title>
<g id="a_Node000028"><a xlink:href="_attributed_8h.html" target="_top" xlink:title=" ">
<polygon fill="white" stroke="#666666" points="774.01,-300 670.26,-300 670.26,-280 774.01,-280 774.01,-300"/>
<text xml:space="preserve" text-anchor="middle" x="722.14" y="-286.5" font-family="Helvetica,sans-Serif" font-size="10.00">Content/Attributed.h</text>
</a>
</g>
</g>
<!-- Node2&#45;&gt;Node28 -->
<g id="edge63_Node000002_Node000028" class="edge">
<title>Node2&#45;&gt;Node28</title>
<g id="a_edge63_Node000002_Node000028"><a xlink:title=" ">
<path fill="none" stroke="#63b8ff" d="M948.82,-559.58C943.3,-538.38 927.97,-485.77 903.14,-448 864.47,-389.17 845.8,-380.36 791.14,-336 777.69,-325.09 761.52,-314.43 748.21,-306.22"/>
<polygon fill="#63b8ff" stroke="#63b8ff" points="750.36,-303.43 739.99,-301.25 746.73,-309.42 750.36,-303.43"/>
</a>
</g>
</g>
<!-- Node32 -->
<g id="Node000032" class="node">
<title>Node32</title>
<g id="a_Node000032"><a xlink:href="_foo_8h.html" target="_top" xlink:title=" ">
<polygon fill="white" stroke="#666666" points="993.51,-524 952.76,-524 952.76,-504 993.51,-504 993.51,-524"/>
<text xml:space="preserve" text-anchor="middle" x="973.14" y="-510.5" font-family="Helvetica,sans-Serif" font-size="10.00">Foo.h</text>
</a>
</g>
</g>
<!-- Node2&#45;&gt;Node32 -->
<g id="edge59_Node000002_Node000032" class="edge">
<title>Node2&#45;&gt;Node32</title>
<g id="a_edge59_Node000002_Node000032"><a xlink:title=" ">
<path fill="none" stroke="#63b8ff" d="M954.97,-559.59C957.75,-552.78 961.6,-543.32 965.05,-534.86"/>
<polygon fill="#63b8ff" stroke="#63b8ff" points="968.25,-536.28 968.78,-525.7 961.77,-533.64 968.25,-536.28"/>
</a>
</g>
</g>
<!-- Node4 -->
<g id="Node000004" class="node">
<title>Node4</title>
<g id="a_Node000004"><a xlink:title=" ">
<polygon fill="#e0e0e0" stroke="#999999" points="984.14,-20 824.14,-20 824.14,0 984.14,0 984.14,-20"/>
<text xml:space="preserve" text-anchor="middle" x="904.14" y="-6.5" font-family="Helvetica,sans-Serif" font-size="10.00">../src/Memory/SystemAllocator.h</text>
</a>
</g>
</g>
<!-- Node3&#45;&gt;Node4 -->
<g id="edge3_Node000003_Node000004" class="edge">
<title>Node3&#45;&gt;Node4</title>
<g id="a_edge3_Node000003_Node000004"><a xlink:title=" ">
<path fill="none" stroke="#63b8ff" d="M868.63,-55.59C874.43,-48.32 882.63,-38.02 889.69,-29.15"/>
<polygon fill="#63b8ff" stroke="#63b8ff" points="892.3,-31.49 895.79,-21.48 886.83,-27.12 892.3,-31.49"/>
</a>
</g>
</g>
<!-- Node5 -->
<g id="Node000005" class="node">
<title>Node5</title>
<g id="a_Node000005"><a xlink:title=" ">
<polygon fill="#e0e0e0" stroke="#999999" points="1064.39,-20 1001.89,-20 1001.89,0 1064.39,0 1064.39,-20"/>
<text xml:space="preserve" text-anchor="middle" x="1033.14" y="-6.5" font-family="Helvetica,sans-Serif" font-size="10.00">windows.h</text>
</a>
</g>
</g>
<!-- Node3&#45;&gt;Node5 -->
<g id="edge4_Node000003_Node000005" class="edge">
<title>Node3&#45;&gt;Node5</title>
<g id="a_edge4_Node000003_Node000005"><a xlink:title=" ">
<path fill="none" stroke="#63b8ff" d="M891.1,-55.59C919.04,-46.82 960.97,-33.66 992.04,-23.9"/>
<polygon fill="#63b8ff" stroke="#63b8ff" points="993.01,-27.27 1001.5,-20.93 990.91,-20.59 993.01,-27.27"/>
</a>
</g>
</g>
<!-- Node6 -->
<g id="Node000006" class="node">
<title>Node6</title>
<g id="a_Node000006"><a xlink:title=" ">
<polygon fill="#e0e0e0" stroke="#999999" points="1130.26,-20 1082.01,-20 1082.01,0 1130.26,0 1130.26,-20"/>
<text xml:space="preserve" text-anchor="middle" x="1106.14" y="-6.5" font-family="Helvetica,sans-Serif" font-size="10.00">cassert</text>
</a>
</g>
</g>
<!-- Node3&#45;&gt;Node6 -->
<g id="edge5_Node000003_Node000006" class="edge">
<title>Node3&#45;&gt;Node6</title>
<g id="a_edge5_Node000003_Node000006"><a xlink:title=" ">
<path fill="none" stroke="#63b8ff" d="M909.73,-55.51C950.38,-47.38 1010.13,-35.01 1070.75,-20.48"/>
<polygon fill="#63b8ff" stroke="#63b8ff" points="1071.3,-23.95 1080.2,-18.2 1069.66,-17.14 1071.3,-23.95"/>
</a>
</g>
</g>
<!-- Node3&#45;&gt;Node7 -->
<g id="edge6_Node000003_Node000007" class="edge">
<title>Node3&#45;&gt;Node7</title>
<g id="a_edge6_Node000003_Node000007"><a xlink:title=" ">
<path fill="none" stroke="#63b8ff" d="M925.82,-56.51C979.86,-48.96 1059.12,-36.86 1136.76,-20.34"/>
<polygon fill="#63b8ff" stroke="#63b8ff" points="1137.19,-23.82 1146.22,-18.29 1135.71,-16.98 1137.19,-23.82"/>
</a>
</g>
</g>
<!-- Node8 -->
<g id="Node000008" class="node">
<title>Node8</title>
<g id="a_Node000008"><a xlink:title=" ">
<polygon fill="#e0e0e0" stroke="#999999" points="605.76,-20 560.51,-20 560.51,0 605.76,0 605.76,-20"/>
<text xml:space="preserve" text-anchor="middle" x="583.14" y="-6.5" font-family="Helvetica,sans-Serif" font-size="10.00">cstdint</text>
</a>
</g>
</g>
<!-- Node3&#45;&gt;Node8 -->
<g id="edge7_Node000003_Node000008" class="edge">
<title>Node3&#45;&gt;Node8</title>
<g id="a_edge7_Node000003_Node000008"><a xlink:title=" ">
<path fill="none" stroke="#63b8ff" d="M800.41,-55.51C752.96,-47.73 685.16,-35.81 617.07,-20.27"/>
<polygon fill="#63b8ff" stroke="#63b8ff" points="618.15,-16.93 607.62,-18.09 616.58,-23.75 618.15,-16.93"/>
</a>
</g>
</g>
<!-- Node9 -->
<g id="Node000009" class="node">
<title>Node9</title>
<g id="a_Node000009"><a xlink:title=" ">
<polygon fill="#e0e0e0" stroke="#999999" points="676.51,-20 623.76,-20 623.76,0 676.51,0 676.51,-20"/>
<text xml:space="preserve" text-anchor="middle" x="650.14" y="-6.5" font-family="Helvetica,sans-Serif" font-size="10.00">cstdbool</text>
</a>
</g>
</g>
<!-- Node3&#45;&gt;Node9 -->
<g id="edge8_Node000003_Node000009" class="edge">
<title>Node3&#45;&gt;Node9</title>
<g id="a_edge8_Node000003_Node000009"><a xlink:title=" ">
<path fill="none" stroke="#63b8ff" d="M824.05,-55.53C790.73,-47.02 740.15,-34.1 687.74,-20.67"/>
<polygon fill="#63b8ff" stroke="#63b8ff" points="688.91,-17.35 678.36,-18.26 687.18,-24.13 688.91,-17.35"/>
</a>
</g>
</g>
<!-- Node10 -->
<g id="Node000010" class="node">
<title>Node10</title>
<g id="a_Node000010"><a xlink:title=" ">
<polygon fill="#e0e0e0" stroke="#999999" points="734.14,-20 694.14,-20 694.14,0 734.14,0 734.14,-20"/>
<text xml:space="preserve" text-anchor="middle" x="714.14" y="-6.5" font-family="Helvetica,sans-Serif" font-size="10.00">string</text>
</a>
</g>
</g>
<!-- Node3&#45;&gt;Node10 -->
<g id="edge9_Node000003_Node000010" class="edge">
<title>Node3&#45;&gt;Node10</title>
<g id="a_edge9_Node000003_Node000010"><a xlink:title=" ">
<path fill="none" stroke="#63b8ff" d="M835.53,-55.59C810.34,-46.34 771.86,-32.2 744.99,-22.33"/>
<polygon fill="#63b8ff" stroke="#63b8ff" points="746.28,-19.08 735.68,-18.91 743.86,-25.65 746.28,-19.08"/>
</a>
</g>
</g>
<!-- Node11 -->
<g id="Node000011" class="node">
<title>Node11</title>
<g id="a_Node000011"><a xlink:title=" ">
<polygon fill="#e0e0e0" stroke="#999999" points="806.26,-20 752.01,-20 752.01,0 806.26,0 806.26,-20"/>
<text xml:space="preserve" text-anchor="middle" x="779.14" y="-6.5" font-family="Helvetica,sans-Serif" font-size="10.00">crtdefs.h</text>
</a>
</g>
</g>
<!-- Node3&#45;&gt;Node11 -->
<g id="edge10_Node000003_Node000011" class="edge">
<title>Node3&#45;&gt;Node11</title>
<g id="a_edge10_Node000003_Node000011"><a xlink:title=" ">
<path fill="none" stroke="#63b8ff" d="M846.86,-55.59C834.7,-47.59 817,-35.93 802.74,-26.54"/>
<polygon fill="#63b8ff" stroke="#63b8ff" points="805.08,-23.89 794.8,-21.31 801.23,-29.73 805.08,-23.89"/>
</a>
</g>
</g>
<!-- Node12&#45;&gt;Node3 -->
<g id="edge12_Node000012_Node000003" class="edge">
<title>Node12&#45;&gt;Node3</title>
<g id="a_edge12_Node000012_Node000003"><a xlink:title=" ">
<path fill="none" stroke="#63b8ff" d="M495.33,-223.8C491.45,-201.13 485.07,-142.27 516.14,-112 553.18,-75.91 695.04,-67.97 784.91,-66.66"/>
<polygon fill="#63b8ff" stroke="#63b8ff" points="784.95,-70.16 794.9,-66.55 784.86,-63.16 784.95,-70.16"/>
</a>
</g>
</g>
<!-- Node13 -->
<g id="Node000013" class="node">
<title>Node13</title>
<g id="a_Node000013"><a xlink:href="_r_t_t_i_8h.html" target="_top" xlink:title=" ">
<polygon fill="white" stroke="#666666" points="464.01,-132 336.26,-132 336.26,-112 464.01,-112 464.01,-132"/>
<text xml:space="preserve" text-anchor="middle" x="400.14" y="-118.5" font-family="Helvetica,sans-Serif" font-size="10.00">FIEAGameEngine/RTTI.h</text>
</a>
</g>
</g>
<!-- Node12&#45;&gt;Node13 -->
<g id="edge13_Node000012_Node000013" class="edge">
<title>Node12&#45;&gt;Node13</title>
<g id="a_edge13_Node000012_Node000013"><a xlink:title=" ">
<path fill="none" stroke="#63b8ff" d="M488.87,-223.62C472.69,-205.27 436.62,-164.37 415.8,-140.75"/>
<polygon fill="#63b8ff" stroke="#63b8ff" points="418.63,-138.68 409.39,-133.49 413.38,-143.31 418.63,-138.68"/>
</a>
</g>
</g>
<!-- Node15 -->
<g id="Node000015" class="node">
<title>Node15</title>
<g id="a_Node000015"><a xlink:href="_datum_8h.html" target="_top" xlink:title=" ">
<polygon fill="white" stroke="#666666" points="832.64,-188 741.64,-188 741.64,-168 832.64,-168 832.64,-188"/>
<text xml:space="preserve" text-anchor="middle" x="787.14" y="-174.5" font-family="Helvetica,sans-Serif" font-size="10.00">Content/Datum.h</text>
</a>
</g>
</g>
<!-- Node12&#45;&gt;Node15 -->
<g id="edge17_Node000012_Node000015" class="edge">
<title>Node12&#45;&gt;Node15</title>
<g id="a_edge17_Node000012_Node000015"><a xlink:title=" ">
<path fill="none" stroke="#63b8ff" d="M542.13,-224.62C592.78,-215.19 675.17,-199.85 730.24,-189.59"/>
<polygon fill="#63b8ff" stroke="#63b8ff" points="730.88,-193.04 740.07,-187.76 729.6,-186.15 730.88,-193.04"/>
</a>
</g>
</g>
<!-- Node12&#45;&gt;Node19 -->
<g id="edge23_Node000012_Node000019" class="edge">
<title>Node12&#45;&gt;Node19</title>
<g id="a_edge23_Node000012_Node000019"><a xlink:title=" ">
<path fill="none" stroke="#63b8ff" d="M452.15,-224.68C402.69,-215.53 322.88,-200.77 267.42,-190.52"/>
<polygon fill="#63b8ff" stroke="#63b8ff" points="268.28,-187.12 257.81,-188.74 267.01,-194 268.28,-187.12"/>
</a>
</g>
</g>
<!-- Node21 -->
<g id="Node000021" class="node">
<title>Node21</title>
<g id="a_Node000021"><a xlink:title=" ">
<polygon fill="#e0e0e0" stroke="#999999" points="133.51,-76 50.76,-76 50.76,-56 133.51,-56 133.51,-76"/>
<text xml:space="preserve" text-anchor="middle" x="92.14" y="-62.5" font-family="Helvetica,sans-Serif" font-size="10.00">unordered_map</text>
</a>
</g>
</g>
<!-- Node12&#45;&gt;Node21 -->
<g id="edge32_Node000012_Node000021" class="edge">
<title>Node12&#45;&gt;Node21</title>
<g id="a_edge32_Node000012_Node000021"><a xlink:title=" ">
<path fill="none" stroke="#63b8ff" d="M480.61,-223.56C441.67,-201.6 340.68,-146.36 251.14,-112 216.31,-98.63 175.84,-87.24 144.45,-79.26"/>
<polygon fill="#63b8ff" stroke="#63b8ff" points="145.34,-75.87 134.79,-76.84 143.64,-82.66 145.34,-75.87"/>
</a>
</g>
</g>
<!-- Node23 -->
<g id="Node000023" class="node">
<title>Node23</title>
<g id="a_Node000023"><a xlink:title=" ">
<polygon fill="#e0e0e0" stroke="#999999" points="647.64,-188 604.64,-188 604.64,-168 647.64,-168 647.64,-188"/>
<text xml:space="preserve" text-anchor="middle" x="626.14" y="-174.5" font-family="Helvetica,sans-Serif" font-size="10.00">vector</text>
</a>
</g>
</g>
<!-- Node12&#45;&gt;Node23 -->
<g id="edge31_Node000012_Node000023" class="edge">
<title>Node12&#45;&gt;Node23</title>
<g id="a_edge31_Node000012_Node000023"><a xlink:title=" ">
<path fill="none" stroke="#63b8ff" d="M519.61,-223.59C540.17,-214.99 570.84,-202.15 593.99,-192.46"/>
<polygon fill="#63b8ff" stroke="#63b8ff" points="595.09,-195.79 602.96,-188.7 592.38,-189.34 595.09,-195.79"/>
</a>
</g>
</g>
<!-- Node13&#45;&gt;Node3 -->
<g id="edge14_Node000013_Node000003" class="edge">
<title>Node13&#45;&gt;Node3</title>
<g id="a_edge14_Node000013_Node000003"><a xlink:title=" ">
<path fill="none" stroke="#63b8ff" d="M464.24,-113.49C548.35,-103.64 695.75,-86.37 785.31,-75.88"/>
<polygon fill="#63b8ff" stroke="#63b8ff" points="785.44,-79.39 794.97,-74.75 784.63,-72.44 785.44,-79.39"/>
</a>
</g>
</g>
<!-- Node14 -->
<g id="Node000014" class="node">
<title>Node14</title>
<g id="a_Node000014"><a xlink:href="_r_t_t_i_8inl.html" target="_top" xlink:title=" ">
<polygon fill="white" stroke="#666666" points="466.26,-76 334.01,-76 334.01,-56 466.26,-56 466.26,-76"/>
<text xml:space="preserve" text-anchor="middle" x="400.14" y="-62.5" font-family="Helvetica,sans-Serif" font-size="10.00">FIEAGameEngine/RTTI.inl</text>
</a>
</g>
</g>
<!-- Node13&#45;&gt;Node14 -->
<g id="edge15_Node000013_Node000014" class="edge">
<title>Node13&#45;&gt;Node14</title>
<g id="a_edge15_Node000013_Node000014"><a xlink:title=" ">
<path fill="none" stroke="#63b8ff" d="M394.87,-111.59C393.55,-105.01 393.12,-95.96 393.55,-87.73"/>
<polygon fill="#63b8ff" stroke="#63b8ff" points="397.03,-88.14 394.72,-77.8 390.08,-87.33 397.03,-88.14"/>
</a>
</g>
</g>
<!-- Node14&#45;&gt;Node13 -->
<g id="edge16_Node000014_Node000013" class="edge">
<title>Node14&#45;&gt;Node13</title>
<g id="a_edge16_Node000014_Node000013"><a xlink:title=" ">
<path fill="none" stroke="#63b8ff" d="M405.38,-76.3C406.73,-82.93 407.17,-92.11 406.72,-100.43"/>
<polygon fill="#63b8ff" stroke="#63b8ff" points="403.27,-99.75 405.58,-110.09 410.22,-100.57 403.27,-99.75"/>
</a>
</g>
</g>
<!-- Node15&#45;&gt;Node3 -->
<g id="edge18_Node000015_Node000003" class="edge">
<title>Node15&#45;&gt;Node3</title>
<g id="a_edge18_Node000015_Node000003"><a xlink:title=" ">
<path fill="none" stroke="#63b8ff" d="M793.45,-167.62C805.63,-149.52 832.58,-109.45 848.56,-85.7"/>
<polygon fill="#63b8ff" stroke="#63b8ff" points="851.32,-87.86 854,-77.61 845.52,-83.95 851.32,-87.86"/>
</a>
</g>
</g>
<!-- Node16 -->
<g id="Node000016" class="node">
<title>Node16</title>
<g id="a_Node000016"><a xlink:title=" ">
<polygon fill="#e0e0e0" stroke="#999999" points="915.76,-132 846.51,-132 846.51,-112 915.76,-112 915.76,-132"/>
<text xml:space="preserve" text-anchor="middle" x="881.14" y="-118.5" font-family="Helvetica,sans-Serif" font-size="10.00">glm/glm.hpp</text>
</a>
</g>
</g>
<!-- Node15&#45;&gt;Node16 -->
<g id="edge19_Node000015_Node000016" class="edge">
<title>Node15&#45;&gt;Node16</title>
<g id="a_edge19_Node000015_Node000016"><a xlink:title=" ">
<path fill="none" stroke="#63b8ff" d="M803.51,-167.59C817.71,-159.44 838.52,-147.48 855.02,-138"/>
<polygon fill="#63b8ff" stroke="#63b8ff" points="856.4,-141.25 863.33,-133.23 852.91,-135.18 856.4,-141.25"/>
</a>
</g>
</g>
<!-- Node17 -->
<g id="Node000017" class="node">
<title>Node17</title>
<g id="a_Node000017"><a xlink:title=" ">
<polygon fill="#e0e0e0" stroke="#999999" points="790.14,-132 672.14,-132 672.14,-112 790.14,-112 790.14,-132"/>
<text xml:space="preserve" text-anchor="middle" x="731.14" y="-118.5" font-family="Helvetica,sans-Serif" font-size="10.00">glm/gtx/string_cast.hpp</text>
</a>
</g>
</g>
<!-- Node15&#45;&gt;Node17 -->
<g id="edge20_Node000015_Node000017" class="edge">
<title>Node15&#45;&gt;Node17</title>
<g id="a_edge20_Node000015_Node000017"><a xlink:title=" ">
<path fill="none" stroke="#63b8ff" d="M777.39,-167.59C769.52,-160.01 758.24,-149.13 748.79,-140.02"/>
<polygon fill="#63b8ff" stroke="#63b8ff" points="751.5,-137.77 741.87,-133.35 746.64,-142.81 751.5,-137.77"/>
</a>
</g>
</g>
<!-- Node18 -->
<g id="Node000018" class="node">
<title>Node18</title>
<g id="a_Node000018"><a xlink:href="_datum_8inl.html" target="_top" xlink:title=" ">
<polygon fill="white" stroke="#666666" points="653.89,-132 558.39,-132 558.39,-112 653.89,-112 653.89,-132"/>
<text xml:space="preserve" text-anchor="middle" x="606.14" y="-118.5" font-family="Helvetica,sans-Serif" font-size="10.00">Content/Datum.inl</text>
</a>
</g>
</g>
<!-- Node15&#45;&gt;Node18 -->
<g id="edge21_Node000015_Node000018" class="edge">
<title>Node15&#45;&gt;Node18</title>
<g id="a_edge21_Node000015_Node000018"><a xlink:title=" ">
<path fill="none" stroke="#63b8ff" d="M750.35,-167.59C719.18,-158.82 674.86,-145.66 643.54,-135.9"/>
<polygon fill="#63b8ff" stroke="#63b8ff" points="644.67,-132.59 634.08,-132.93 642.57,-139.27 644.67,-132.59"/>
</a>
</g>
</g>
<!-- Node18&#45;&gt;Node15 -->
<g id="edge22_Node000018_Node000015" class="edge">
<title>Node18&#45;&gt;Node15</title>
<g id="a_edge22_Node000018_Node000015"><a xlink:title=" ">
<path fill="none" stroke="#63b8ff" d="M643.2,-132.48C674.43,-141.28 718.75,-154.44 750,-164.18"/>
<polygon fill="#63b8ff" stroke="#63b8ff" points="748.85,-167.48 759.43,-167.14 750.94,-160.8 748.85,-167.48"/>
</a>
</g>
</g>
<!-- Node19&#45;&gt;Node3 -->
<g id="edge24_Node000019_Node000003" class="edge">
<title>Node19&#45;&gt;Node3</title>
<g id="a_edge24_Node000019_Node000003"><a xlink:title=" ">
<path fill="none" stroke="#63b8ff" d="M218.26,-167.67C239.81,-152.91 284.55,-124.56 327.14,-112 410.86,-87.31 658.75,-74.64 785.16,-69.63"/>
<polygon fill="#63b8ff" stroke="#63b8ff" points="785.26,-73.13 795.12,-69.24 784.99,-66.13 785.26,-73.13"/>
</a>
</g>
</g>
<!-- Node19&#45;&gt;Node13 -->
<g id="edge25_Node000019_Node000013" class="edge">
<title>Node19&#45;&gt;Node13</title>
<g id="a_edge25_Node000019_Node000013"><a xlink:title=" ">
<path fill="none" stroke="#63b8ff" d="M239.11,-167.59C271.2,-158.71 319.58,-145.31 354.93,-135.52"/>
<polygon fill="#63b8ff" stroke="#63b8ff" points="355.75,-138.93 364.45,-132.88 353.88,-132.18 355.75,-138.93"/>
</a>
</g>
</g>
<!-- Node20 -->
<g id="Node000020" class="node">
<title>Node20</title>
<g id="a_Node000020"><a xlink:href="_service_mgr_8h.html" target="_top" xlink:title=" ">
<polygon fill="white" stroke="#666666" points="169.89,-132 14.39,-132 14.39,-112 169.89,-112 169.89,-132"/>
<text xml:space="preserve" text-anchor="middle" x="92.14" y="-118.5" font-family="Helvetica,sans-Serif" font-size="10.00">FIEAGameEngine/ServiceMgr.h</text>
</a>
</g>
</g>
<!-- Node19&#45;&gt;Node20 -->
<g id="edge26_Node000019_Node000020" class="edge">
<title>Node19&#45;&gt;Node20</title>
<g id="a_edge26_Node000019_Node000020"><a xlink:title=" ">
<path fill="none" stroke="#63b8ff" d="M185.46,-167.59C167.98,-159.24 142.19,-146.92 122.14,-137.34"/>
<polygon fill="#63b8ff" stroke="#63b8ff" points="123.87,-134.29 113.34,-133.13 120.86,-140.6 123.87,-134.29"/>
</a>
</g>
</g>
<!-- Node19&#45;&gt;Node21 -->
<g id="edge30_Node000019_Node000021" class="edge">
<title>Node19&#45;&gt;Node21</title>
<g id="a_edge30_Node000019_Node000021"><a xlink:title=" ">
<path fill="none" stroke="#63b8ff" d="M118.8,-168.27C71.53,-161.52 19.67,-150.17 5.14,-132 -12.3,-110.2 19.53,-91.88 49.47,-80.3"/>
<polygon fill="#63b8ff" stroke="#63b8ff" points="50.29,-83.73 58.48,-77.01 47.89,-77.15 50.29,-83.73"/>
</a>
</g>
</g>
<!-- Node22 -->
<g id="Node000022" class="node">
<title>Node22</title>
<g id="a_Node000022"><a xlink:title=" ">
<polygon fill="#e0e0e0" stroke="#999999" points="241.89,-132 188.39,-132 188.39,-112 241.89,-112 241.89,-132"/>
<text xml:space="preserve" text-anchor="middle" x="215.14" y="-118.5" font-family="Helvetica,sans-Serif" font-size="10.00">iostream</text>
</a>
</g>
</g>
<!-- Node19&#45;&gt;Node22 -->
<g id="edge29_Node000019_Node000022" class="edge">
<title>Node19&#45;&gt;Node22</title>
<g id="a_edge29_Node000019_Node000022"><a xlink:title=" ">
<path fill="none" stroke="#63b8ff" d="M206.88,-167.59C208.11,-160.93 209.82,-151.75 211.35,-143.44"/>
<polygon fill="#63b8ff" stroke="#63b8ff" points="214.76,-144.26 213.14,-133.79 207.88,-142.98 214.76,-144.26"/>
</a>
</g>
</g>
<!-- Node20&#45;&gt;Node3 -->
<g id="edge27_Node000020_Node000003" class="edge">
<title>Node20&#45;&gt;Node3</title>
<g id="a_edge27_Node000020_Node000003"><a xlink:title=" ">
<path fill="none" stroke="#63b8ff" d="M170.38,-112.77C173.34,-112.5 176.26,-112.24 179.14,-112 399,-93.38 659.28,-78.07 785.27,-71.08"/>
<polygon fill="#63b8ff" stroke="#63b8ff" points="785.37,-74.58 795.16,-70.54 784.98,-67.59 785.37,-74.58"/>
</a>
</g>
</g>
<!-- Node20&#45;&gt;Node21 -->
<g id="edge28_Node000020_Node000021" class="edge">
<title>Node20&#45;&gt;Node21</title>
<g id="a_edge28_Node000020_Node000021"><a xlink:title=" ">
<path fill="none" stroke="#63b8ff" d="M92.14,-111.59C92.14,-105.01 92.14,-95.96 92.14,-87.73"/>
<polygon fill="#63b8ff" stroke="#63b8ff" points="95.64,-87.81 92.14,-77.81 88.64,-87.81 95.64,-87.81"/>
</a>
</g>
</g>
<!-- Node24&#45;&gt;Node3 -->
<g id="edge36_Node000024_Node000003" class="edge">
<title>Node24&#45;&gt;Node3</title>
<g id="a_edge36_Node000024_Node000003"><a xlink:title=" ">
<path fill="none" stroke="#63b8ff" d="M858.73,-503.69C911.44,-476.65 1058.14,-396.95 1058.14,-347 1058.14,-347 1058.14,-347 1058.14,-177 1058.14,-118.98 992.19,-91.27 936.6,-78.23"/>
<polygon fill="#63b8ff" stroke="#63b8ff" points="937.64,-74.87 927.12,-76.13 936.13,-81.71 937.64,-74.87"/>
</a>
</g>
</g>
<!-- Node24&#45;&gt;Node12 -->
<g id="edge37_Node000024_Node000012" class="edge">
<title>Node24&#45;&gt;Node12</title>
<g id="a_edge37_Node000024_Node000012"><a xlink:title=" ">
<path fill="none" stroke="#63b8ff" d="M811.34,-505.97C752.25,-490.02 617.01,-445.32 547.14,-356 522.95,-325.08 508.64,-280.79 501.89,-255.26"/>
<polygon fill="#63b8ff" stroke="#63b8ff" points="505.36,-254.7 499.54,-245.84 498.56,-256.39 505.36,-254.7"/>
</a>
</g>
</g>
<!-- Node25 -->
<g id="Node000025" class="node">
<title>Node25</title>
<g id="a_Node000025"><a xlink:title=" ">
<polygon fill="#e0e0e0" stroke="#999999" points="448.26,-468 400.01,-468 400.01,-448 448.26,-448 448.26,-468"/>
<text xml:space="preserve" text-anchor="middle" x="424.14" y="-454.5" font-family="Helvetica,sans-Serif" font-size="10.00">excpt.h</text>
</a>
</g>
</g>
<!-- Node24&#45;&gt;Node25 -->
<g id="edge34_Node000024_Node000025" class="edge">
<title>Node24&#45;&gt;Node25</title>
<g id="a_edge34_Node000024_Node000025"><a xlink:title=" ">
<path fill="none" stroke="#63b8ff" d="M811.05,-510.68C747.43,-505.35 591.31,-490.91 462.14,-468 461.31,-467.85 460.48,-467.7 459.64,-467.54"/>
<polygon fill="#63b8ff" stroke="#63b8ff" points="460.57,-464.16 450.07,-465.53 459.13,-471.01 460.57,-464.16"/>
</a>
</g>
</g>
<!-- Node24&#45;&gt;Node26 -->
<g id="edge35_Node000024_Node000026" class="edge">
<title>Node24&#45;&gt;Node26</title>
<g id="a_edge35_Node000024_Node000026"><a xlink:title=" ">
<path fill="none" stroke="#63b8ff" d="M869.1,-504.68C899.87,-495.84 948.86,-481.77 984.34,-471.58"/>
<polygon fill="#63b8ff" stroke="#63b8ff" points="985.25,-474.96 993.89,-468.84 983.32,-468.23 985.25,-474.96"/>
</a>
</g>
</g>
<!-- Node27 -->
<g id="Node000027" class="node">
<title>Node27</title>
<g id="a_Node000027"><a xlink:href="_game_object_8h.html" target="_top" xlink:title=" ">
<polygon fill="white" stroke="#666666" points="894.51,-468 733.76,-468 733.76,-448 894.51,-448 894.51,-468"/>
<text xml:space="preserve" text-anchor="middle" x="814.14" y="-454.5" font-family="Helvetica,sans-Serif" font-size="10.00">FIEAGameEngine/GameObject.h</text>
</a>
</g>
</g>
<!-- Node24&#45;&gt;Node27 -->
<g id="edge38_Node000024_Node000027" class="edge">
<title>Node24&#45;&gt;Node27</title>
<g id="a_edge38_Node000024_Node000027"><a xlink:title=" ">
<path fill="none" stroke="#63b8ff" d="M835.61,-503.59C832.29,-496.7 827.67,-487.1 823.56,-478.57"/>
<polygon fill="#63b8ff" stroke="#63b8ff" points="826.77,-477.15 819.27,-469.66 820.46,-480.19 826.77,-477.15"/>
</a>
</g>
</g>
<!-- Node27&#45;&gt;Node3 -->
<g id="edge39_Node000027_Node000003" class="edge">
<title>Node27&#45;&gt;Node3</title>
<g id="a_edge39_Node000027_Node000003"><a xlink:title=" ">
<path fill="none" stroke="#63b8ff" d="M889.97,-447.5C948.71,-435.4 1020.14,-408.12 1020.14,-347 1020.14,-347 1020.14,-347 1020.14,-177 1020.14,-124.02 959.69,-94.55 913.34,-79.75"/>
<polygon fill="#63b8ff" stroke="#63b8ff" points="914.53,-76.45 903.95,-76.9 912.5,-83.15 914.53,-76.45"/>
</a>
</g>
</g>
<!-- Node27&#45;&gt;Node16 -->
<g id="edge58_Node000027_Node000016" class="edge">
<title>Node27&#45;&gt;Node16</title>
<g id="a_edge58_Node000027_Node000016"><a xlink:title=" ">
<path fill="none" stroke="#63b8ff" d="M829.31,-447.66C863.6,-425.25 944.14,-364.76 944.14,-291 944.14,-291 944.14,-291 944.14,-233 944.14,-196.36 917.49,-160.85 898.86,-140.5"/>
<polygon fill="#63b8ff" stroke="#63b8ff" points="901.47,-138.17 892.03,-133.36 896.41,-143 901.47,-138.17"/>
</a>
</g>
</g>
<!-- Node27&#45;&gt;Node19 -->
<g id="edge47_Node000027_Node000019" class="edge">
<title>Node27&#45;&gt;Node19</title>
<g id="a_edge47_Node000027_Node000019"><a xlink:title=" ">
<path fill="none" stroke="#63b8ff" d="M761.45,-447.57C722.63,-439.91 668.87,-427.79 623.14,-412 460.56,-355.87 287.57,-238.15 227.33,-195.16"/>
<polygon fill="#63b8ff" stroke="#63b8ff" points="229.42,-192.35 219.26,-189.36 225.34,-198.04 229.42,-192.35"/>
</a>
</g>
</g>
<!-- Node27&#45;&gt;Node28 -->
<g id="edge40_Node000027_Node000028" class="edge">
<title>Node27&#45;&gt;Node28</title>
<g id="a_edge40_Node000027_Node000028"><a xlink:title=" ">
<path fill="none" stroke="#63b8ff" d="M814.6,-447.75C814.9,-434.74 814.17,-410.58 806.14,-392 791.38,-357.87 761.35,-326.25 741.49,-307.78"/>
<polygon fill="#63b8ff" stroke="#63b8ff" points="744.06,-305.39 734.29,-301.28 739.36,-310.58 744.06,-305.39"/>
</a>
</g>
</g>
<!-- Node30 -->
<g id="Node000030" class="node">
<title>Node30</title>
<g id="a_Node000030"><a xlink:href="_action_8h.html" target="_top" xlink:title=" ">
<polygon fill="white" stroke="#666666" points="690.01,-356 556.26,-356 556.26,-336 690.01,-336 690.01,-356"/>
<text xml:space="preserve" text-anchor="middle" x="623.14" y="-342.5" font-family="Helvetica,sans-Serif" font-size="10.00">FIEAGameEngine/Action.h</text>
</a>
</g>
</g>
<!-- Node27&#45;&gt;Node30 -->
<g id="edge48_Node000027_Node000030" class="edge">
<title>Node27&#45;&gt;Node30</title>
<g id="a_edge48_Node000027_Node000030"><a xlink:title=" ">
<path fill="none" stroke="#63b8ff" d="M748.91,-447.55C705.49,-439.94 653.68,-427.91 638.14,-412 626.75,-400.34 623.35,-381.85 622.6,-367.57"/>
<polygon fill="#63b8ff" stroke="#63b8ff" points="626.1,-367.85 622.5,-357.89 619.1,-367.92 626.1,-367.85"/>
</a>
</g>
</g>
<!-- Node31 -->
<g id="Node000031" class="node">
<title>Node31</title>
<g id="a_Node000031"><a xlink:href="_action_list_8h.html" target="_top" xlink:title=" ">
<polygon fill="white" stroke="#666666" points="796.89,-412 647.39,-412 647.39,-392 796.89,-392 796.89,-412"/>
<text xml:space="preserve" text-anchor="middle" x="722.14" y="-398.5" font-family="Helvetica,sans-Serif" font-size="10.00">FIEAGameEngine/ActionList.h</text>
</a>
</g>
</g>
<!-- Node27&#45;&gt;Node31 -->
<g id="edge53_Node000027_Node000031" class="edge">
<title>Node27&#45;&gt;Node31</title>
<g id="a_edge53_Node000027_Node000031"><a xlink:title=" ">
<path fill="none" stroke="#63b8ff" d="M798.11,-447.59C784.35,-439.51 764.24,-427.71 748.16,-418.27"/>
<polygon fill="#63b8ff" stroke="#63b8ff" points="749.99,-415.29 739.6,-413.25 746.45,-421.33 749.99,-415.29"/>
</a>
</g>
</g>
<!-- Node28&#45;&gt;Node3 -->
<g id="edge41_Node000028_Node000003" class="edge">
<title>Node28&#45;&gt;Node3</title>
<g id="a_edge41_Node000028_Node000003"><a xlink:title=" ">
<path fill="none" stroke="#63b8ff" d="M745.05,-279.64C789.62,-260 886.96,-209.79 925.14,-132 935.15,-111.6 913.83,-93.64 893.15,-81.8"/>
<polygon fill="#63b8ff" stroke="#63b8ff" points="895,-78.82 884.53,-77.21 891.71,-85 895,-78.82"/>
</a>
</g>
</g>
<!-- Node28&#45;&gt;Node12 -->
<g id="edge43_Node000028_Node000012" class="edge">
<title>Node28&#45;&gt;Node12</title>
<g id="a_edge43_Node000028_Node000012"><a xlink:title=" ">
<path fill="none" stroke="#63b8ff" d="M682.69,-279.53C645.13,-270.52 588.44,-256.91 547.61,-247.11"/>
<polygon fill="#63b8ff" stroke="#63b8ff" points="548.56,-243.74 538.02,-244.81 546.92,-250.55 548.56,-243.74"/>
</a>
</g>
</g>
<!-- Node28&#45;&gt;Node13 -->
<g id="edge44_Node000028_Node000013" class="edge">
<title>Node28&#45;&gt;Node13</title>
<g id="a_edge44_Node000028_Node000013"><a xlink:title=" ">
<path fill="none" stroke="#63b8ff" d="M720.09,-279.55C714.51,-256.31 696.75,-196.24 657.14,-168 628.65,-147.69 540.97,-135.51 475.9,-129.04"/>
<polygon fill="#63b8ff" stroke="#63b8ff" points="476.24,-125.55 465.95,-128.08 475.57,-132.52 476.24,-125.55"/>
</a>
</g>
</g>
<!-- Node28&#45;&gt;Node15 -->
<g id="edge42_Node000028_Node000015" class="edge">
<title>Node28&#45;&gt;Node15</title>
<g id="a_edge42_Node000028_Node000015"><a xlink:title=" ">
<path fill="none" stroke="#63b8ff" d="M727.68,-279.62C738.33,-261.6 761.84,-221.81 775.9,-198.02"/>
<polygon fill="#63b8ff" stroke="#63b8ff" points="778.77,-200.05 780.84,-189.66 772.74,-196.49 778.77,-200.05"/>
</a>
</g>
</g>
<!-- Node28&#45;&gt;Node23 -->
<g id="edge45_Node000028_Node000023" class="edge">
<title>Node28&#45;&gt;Node23</title>
<g id="a_edge45_Node000028_Node000023"><a xlink:title=" ">
<path fill="none" stroke="#63b8ff" d="M713.95,-279.62C697.94,-261.27 662.25,-220.37 641.63,-196.75"/>
<polygon fill="#63b8ff" stroke="#63b8ff" points="644.51,-194.73 635.3,-189.5 639.24,-199.33 644.51,-194.73"/>
</a>
</g>
</g>
<!-- Node29 -->
<g id="Node000029" class="node">
<title>Node29</title>
<g id="a_Node000029"><a xlink:title=" ">
<polygon fill="#e0e0e0" stroke="#999999" points="656.14,-244 598.14,-244 598.14,-224 656.14,-224 656.14,-244"/>
<text xml:space="preserve" text-anchor="middle" x="627.14" y="-230.5" font-family="Helvetica,sans-Serif" font-size="10.00">functional</text>
</a>
</g>
</g>
<!-- Node28&#45;&gt;Node29 -->
<g id="edge46_Node000028_Node000029" class="edge">
<title>Node28&#45;&gt;Node29</title>
<g id="a_edge46_Node000028_Node000029"><a xlink:title=" ">
<path fill="none" stroke="#63b8ff" d="M705.59,-279.59C691.24,-271.44 670.21,-259.48 653.54,-250"/>
<polygon fill="#63b8ff" stroke="#63b8ff" points="655.56,-247.13 645.13,-245.23 652.1,-253.21 655.56,-247.13"/>
</a>
</g>
</g>
<!-- Node30&#45;&gt;Node3 -->
<g id="edge49_Node000030_Node000003" class="edge">
<title>Node30&#45;&gt;Node3</title>
<g id="a_edge49_Node000030_Node000003"><a xlink:title=" ">
<path fill="none" stroke="#63b8ff" d="M617.94,-335.65C596.6,-296.68 518.3,-147.61 549.14,-112 579.08,-77.43 702.92,-68.82 785.28,-67.01"/>
<polygon fill="#63b8ff" stroke="#63b8ff" points="785.17,-70.51 795.1,-66.82 785.04,-63.51 785.17,-70.51"/>
</a>
</g>
</g>
<!-- Node30&#45;&gt;Node19 -->
<g id="edge51_Node000030_Node000019" class="edge">
<title>Node30&#45;&gt;Node19</title>
<g id="a_edge51_Node000030_Node000019"><a xlink:title=" ">
<path fill="none" stroke="#63b8ff" d="M607.08,-335.54C563.42,-309.96 442.98,-240.22 400.14,-224 360.07,-208.83 313.35,-197.83 275.69,-190.51"/>
<polygon fill="#63b8ff" stroke="#63b8ff" points="276.78,-187.15 266.3,-188.73 275.48,-194.03 276.78,-187.15"/>
</a>
</g>
</g>
<!-- Node30&#45;&gt;Node28 -->
<g id="edge50_Node000030_Node000028" class="edge">
<title>Node30&#45;&gt;Node28</title>
<g id="a_edge50_Node000030_Node000028"><a xlink:title=" ">
<path fill="none" stroke="#63b8ff" d="M640.38,-335.59C655.48,-327.36 677.67,-315.26 695.12,-305.74"/>
<polygon fill="#63b8ff" stroke="#63b8ff" points="696.33,-309.07 703.43,-301.2 692.98,-302.92 696.33,-309.07"/>
</a>
</g>
</g>
<!-- Node30&#45;&gt;Node29 -->
<g id="edge52_Node000030_Node000029" class="edge">
<title>Node30&#45;&gt;Node29</title>
<g id="a_edge52_Node000030_Node000029"><a xlink:title=" ">
<path fill="none" stroke="#63b8ff" d="M623.48,-335.62C624.12,-318.01 625.52,-279.59 626.39,-255.65"/>
<polygon fill="#63b8ff" stroke="#63b8ff" points="629.88,-255.99 626.74,-245.87 622.88,-255.73 629.88,-255.99"/>
</a>
</g>
</g>
<!-- Node31&#45;&gt;Node3 -->
<g id="edge54_Node000031_Node000003" class="edge">
<title>Node31&#45;&gt;Node3</title>
<g id="a_edge54_Node000031_Node000003"><a xlink:title=" ">
<path fill="none" stroke="#63b8ff" d="M776.01,-391.56C852.17,-374.78 982.14,-331.93 982.14,-235 982.14,-235 982.14,-235 982.14,-177 982.14,-130.1 931.76,-97.93 896.01,-81"/>
<polygon fill="#63b8ff" stroke="#63b8ff" points="897.85,-77.99 887.3,-77.06 894.97,-84.37 897.85,-77.99"/>
</a>
</g>
</g>
<!-- Node31&#45;&gt;Node19 -->
<g id="edge56_Node000031_Node000019" class="edge">
<title>Node31&#45;&gt;Node19</title>
<g id="a_edge56_Node000031_Node000019"><a xlink:title=" ">
<path fill="none" stroke="#63b8ff" d="M669.59,-391.54C634.17,-384.19 586.84,-372.46 547.14,-356 440.75,-311.89 427.95,-273.89 324.14,-224 298.36,-211.61 268.21,-200.24 244.71,-192.03"/>
<polygon fill="#63b8ff" stroke="#63b8ff" points="246.12,-188.81 235.52,-188.87 243.84,-195.43 246.12,-188.81"/>
</a>
</g>
</g>
<!-- Node31&#45;&gt;Node28 -->
<g id="edge55_Node000031_Node000028" class="edge">
<title>Node31&#45;&gt;Node28</title>
<g id="a_edge55_Node000031_Node000028"><a xlink:title=" ">
<path fill="none" stroke="#63b8ff" d="M722.14,-391.62C722.14,-374.01 722.14,-335.59 722.14,-311.65"/>
<polygon fill="#63b8ff" stroke="#63b8ff" points="725.64,-311.87 722.14,-301.87 718.64,-311.87 725.64,-311.87"/>
</a>
</g>
</g>
<!-- Node31&#45;&gt;Node30 -->
<g id="edge57_Node000031_Node000030" class="edge">
<title>Node31&#45;&gt;Node30</title>
<g id="a_edge57_Node000031_Node000030"><a xlink:title=" ">
<path fill="none" stroke="#63b8ff" d="M704.9,-391.59C689.8,-383.36 667.61,-371.26 650.16,-361.74"/>
<polygon fill="#63b8ff" stroke="#63b8ff" points="652.3,-358.92 641.85,-357.2 648.95,-365.07 652.3,-358.92"/>
</a>
</g>
</g>
<!-- Node32&#45;&gt;Node3 -->
<g id="edge60_Node000032_Node000003" class="edge">
<title>Node32&#45;&gt;Node3</title>
<g id="a_edge60_Node000032_Node000003"><a xlink:title=" ">
<path fill="none" stroke="#63b8ff" d="M993.8,-509.49C1017.31,-504.41 1055.26,-492.77 1077.14,-468 1097.06,-445.44 1096.14,-433.1 1096.14,-403 1096.14,-403 1096.14,-403 1096.14,-177 1096.14,-105.42 1005.6,-80.32 936.91,-71.58"/>
<polygon fill="#63b8ff" stroke="#63b8ff" points="937.51,-68.12 927.17,-70.44 936.7,-75.07 937.51,-68.12"/>
</a>
</g>
</g>
<!-- Node32&#45;&gt;Node13 -->
<g id="edge61_Node000032_Node000013" class="edge">
<title>Node32&#45;&gt;Node13</title>
<g id="a_edge61_Node000032_Node000013"><a xlink:title=" ">
<path fill="none" stroke="#63b8ff" d="M952.39,-511.25C909.17,-507.18 806.69,-495.25 725.14,-468 619.95,-432.85 581.32,-433.66 502.14,-356 439.45,-294.52 412.61,-187.98 403.75,-143.47"/>
<polygon fill="#63b8ff" stroke="#63b8ff" points="407.24,-143.09 401.95,-133.91 400.36,-144.38 407.24,-143.09"/>
</a>
</g>
</g>
<!-- Node32&#45;&gt;Node26 -->
<g id="edge62_Node000032_Node000026" class="edge">
<title>Node32&#45;&gt;Node26</title>
<g id="a_edge62_Node000032_Node000026"><a xlink:title=" ">
<path fill="none" stroke="#63b8ff" d="M982.72,-503.59C990.37,-496.08 1001.3,-485.35 1010.52,-476.3"/>
<polygon fill="#63b8ff" stroke="#63b8ff" points="1012.91,-478.86 1017.59,-469.36 1008,-473.87 1012.91,-478.86"/>
</a>
</g>
</g>
</g>
</svg>
