<?xml version="1.0" encoding="UTF-8" standalone="no"?>
<!DOCTYPE svg PUBLIC "-//W3C//DTD SVG 1.1//EN"
 "http://www.w3.org/Graphics/SVG/1.1/DTD/svg11.dtd">
<!-- Generated by graphviz version 13.1.0 (20250701.0955)
 -->
<!-- Title: FIEAGameEngine/include/Content/Attributed.h Pages: 1 -->
<svg width="962pt" height="320pt"
 viewBox="0.00 0.00 962.00 320.00" xmlns="http://www.w3.org/2000/svg" xmlns:xlink="http://www.w3.org/1999/xlink">
<g id="graph0" class="graph" transform="scale(1 1) rotate(0) translate(4 316)">
<title>FIEAGameEngine/include/Content/Attributed.h</title>
<!-- Node1 -->
<g id="Node000001" class="node">
<title>Node1</title>
<g id="a_Node000001"><a xlink:title=" ">
<polygon fill="#999999" stroke="#666666" points="838.1,-312 709.6,-312 709.6,-280 838.1,-280 838.1,-312"/>
<text xml:space="preserve" text-anchor="start" x="717.6" y="-298.5" font-family="Helvetica,sans-Serif" font-size="10.00">FIEAGameEngine/include</text>
<text xml:space="preserve" text-anchor="middle" x="773.85" y="-286.5" font-family="Helvetica,sans-Serif" font-size="10.00">/Content/Attributed.h</text>
</a>
</g>
</g>
<!-- Node2 -->
<g id="Node000002" class="node">
<title>Node2</title>
<g id="a_Node000002"><a xlink:href="_types_8h.html" target="_top" xlink:title=" ">
<polygon fill="white" stroke="#666666" points="453.1,-76 324.6,-76 324.6,-56 453.1,-56 453.1,-76"/>
<text xml:space="preserve" text-anchor="middle" x="388.85" y="-62.5" font-family="Helvetica,sans-Serif" font-size="10.00">FieaGameEngine/Types.h</text>
</a>
</g>
</g>
<!-- Node1&#45;&gt;Node2 -->
<g id="edge1_Node000001_Node000002" class="edge">
<title>Node1&#45;&gt;Node2</title>
<g id="a_edge1_Node000001_Node000002"><a xlink:title=" ">
<path fill="none" stroke="#63b8ff" d="M709.12,-291.52C540.05,-280.93 92.23,-242.76 4.85,-132 -34.44,-82.2 190.17,-70.48 312.93,-67.78"/>
<polygon fill="#63b8ff" stroke="#63b8ff" points="312.67,-71.28 322.6,-67.58 312.53,-64.28 312.67,-71.28"/>
</a>
</g>
</g>
<!-- Node11 -->
<g id="Node000011" class="node">
<title>Node11</title>
<g id="a_Node000011"><a xlink:href="_datum_8h.html" target="_top" xlink:title=" ">
<polygon fill="white" stroke="#666666" points="339.35,-188 248.35,-188 248.35,-168 339.35,-168 339.35,-188"/>
<text xml:space="preserve" text-anchor="middle" x="293.85" y="-174.5" font-family="Helvetica,sans-Serif" font-size="10.00">Content/Datum.h</text>
</a>
</g>
</g>
<!-- Node1&#45;&gt;Node11 -->
<g id="edge10_Node000001_Node000011" class="edge">
<title>Node1&#45;&gt;Node11</title>
<g id="a_edge10_Node000001_Node000011"><a xlink:title=" ">
<path fill="none" stroke="#63b8ff" d="M710.11,-279.6C613.48,-256.25 431.91,-212.36 344.03,-191.13"/>
<polygon fill="#63b8ff" stroke="#63b8ff" points="345.04,-187.77 334.5,-188.82 343.4,-194.58 345.04,-187.77"/>
</a>
</g>
</g>
<!-- Node15 -->
<g id="Node000015" class="node">
<title>Node15</title>
<g id="a_Node000015"><a xlink:href="_scope_8h.html" target="_top" xlink:title=" ">
<polygon fill="white" stroke="#666666" points="774.6,-244 685.1,-244 685.1,-224 774.6,-224 774.6,-244"/>
<text xml:space="preserve" text-anchor="middle" x="729.85" y="-230.5" font-family="Helvetica,sans-Serif" font-size="10.00">Content/Scope.h</text>
</a>
</g>
</g>
<!-- Node1&#45;&gt;Node15 -->
<g id="edge16_Node000001_Node000015" class="edge">
<title>Node1&#45;&gt;Node15</title>
<g id="a_edge16_Node000001_Node000015"><a xlink:title=" ">
<path fill="none" stroke="#63b8ff" d="M762.52,-279.55C756.72,-271.65 749.63,-261.97 743.53,-253.66"/>
<polygon fill="#63b8ff" stroke="#63b8ff" points="746.38,-251.62 737.64,-245.63 740.73,-255.76 746.38,-251.62"/>
</a>
</g>
</g>
<!-- Node16 -->
<g id="Node000016" class="node">
<title>Node16</title>
<g id="a_Node000016"><a xlink:href="_r_t_t_i_8h.html" target="_top" xlink:title=" ">
<polygon fill="white" stroke="#666666" points="885.72,-132 757.97,-132 757.97,-112 885.72,-112 885.72,-132"/>
<text xml:space="preserve" text-anchor="middle" x="821.85" y="-118.5" font-family="Helvetica,sans-Serif" font-size="10.00">FIEAGameEngine/RTTI.h</text>
</a>
</g>
</g>
<!-- Node1&#45;&gt;Node16 -->
<g id="edge33_Node000001_Node000016" class="edge">
<title>Node1&#45;&gt;Node16</title>
<g id="a_edge33_Node000001_Node000016"><a xlink:title=" ">
<path fill="none" stroke="#63b8ff" d="M789.39,-279.71C807.82,-260.37 837.45,-225.08 848.85,-188 853.77,-171.96 845.65,-154.43 837.06,-141.62"/>
<polygon fill="#63b8ff" stroke="#63b8ff" points="839.96,-139.66 831.2,-133.7 834.33,-143.82 839.96,-139.66"/>
</a>
</g>
</g>
<!-- Node22 -->
<g id="Node000022" class="node">
<title>Node22</title>
<g id="a_Node000022"><a xlink:title=" ">
<polygon fill="#e0e0e0" stroke="#999999" points="839.35,-188 796.35,-188 796.35,-168 839.35,-168 839.35,-188"/>
<text xml:space="preserve" text-anchor="middle" x="817.85" y="-174.5" font-family="Helvetica,sans-Serif" font-size="10.00">vector</text>
</a>
</g>
</g>
<!-- Node1&#45;&gt;Node22 -->
<g id="edge34_Node000001_Node000022" class="edge">
<title>Node1&#45;&gt;Node22</title>
<g id="a_edge34_Node000001_Node000022"><a xlink:title=" ">
<path fill="none" stroke="#63b8ff" d="M779.6,-279.84C787.45,-259.13 801.55,-221.95 810.26,-198.99"/>
<polygon fill="#63b8ff" stroke="#63b8ff" points="813.46,-200.44 813.73,-189.85 806.91,-197.96 813.46,-200.44"/>
</a>
</g>
</g>
<!-- Node23 -->
<g id="Node000023" class="node">
<title>Node23</title>
<g id="a_Node000023"><a xlink:title=" ">
<polygon fill="#e0e0e0" stroke="#999999" points="953.85,-244 895.85,-244 895.85,-224 953.85,-224 953.85,-244"/>
<text xml:space="preserve" text-anchor="middle" x="924.85" y="-230.5" font-family="Helvetica,sans-Serif" font-size="10.00">functional</text>
</a>
</g>
</g>
<!-- Node1&#45;&gt;Node23 -->
<g id="edge35_Node000001_Node000023" class="edge">
<title>Node1&#45;&gt;Node23</title>
<g id="a_edge35_Node000001_Node000023"><a xlink:title=" ">
<path fill="none" stroke="#63b8ff" d="M812.73,-279.55C836.87,-269.96 867.6,-257.75 890.78,-248.54"/>
<polygon fill="#63b8ff" stroke="#63b8ff" points="891.76,-251.91 899.76,-244.97 889.18,-245.41 891.76,-251.91"/>
</a>
</g>
</g>
<!-- Node3 -->
<g id="Node000003" class="node">
<title>Node3</title>
<g id="a_Node000003"><a xlink:title=" ">
<polygon fill="#e0e0e0" stroke="#999999" points="168.85,-20 8.85,-20 8.85,0 168.85,0 168.85,-20"/>
<text xml:space="preserve" text-anchor="middle" x="88.85" y="-6.5" font-family="Helvetica,sans-Serif" font-size="10.00">../src/Memory/SystemAllocator.h</text>
</a>
</g>
</g>
<!-- Node2&#45;&gt;Node3 -->
<g id="edge2_Node000002_Node000003" class="edge">
<title>Node2&#45;&gt;Node3</title>
<g id="a_edge2_Node000002_Node000003"><a xlink:title=" ">
<path fill="none" stroke="#63b8ff" d="M336.25,-55.53C285.1,-46.33 207.34,-32.33 152.68,-22.49"/>
<polygon fill="#63b8ff" stroke="#63b8ff" points="153.34,-19.05 142.88,-20.73 152.1,-25.94 153.34,-19.05"/>
</a>
</g>
</g>
<!-- Node4 -->
<g id="Node000004" class="node">
<title>Node4</title>
<g id="a_Node000004"><a xlink:title=" ">
<polygon fill="#e0e0e0" stroke="#999999" points="249.1,-20 186.6,-20 186.6,0 249.1,0 249.1,-20"/>
<text xml:space="preserve" text-anchor="middle" x="217.85" y="-6.5" font-family="Helvetica,sans-Serif" font-size="10.00">windows.h</text>
</a>
</g>
</g>
<!-- Node2&#45;&gt;Node4 -->
<g id="edge3_Node000002_Node000004" class="edge">
<title>Node2&#45;&gt;Node4</title>
<g id="a_edge3_Node000002_Node000004"><a xlink:title=" ">
<path fill="none" stroke="#63b8ff" d="M359.06,-55.59C331.28,-46.82 289.59,-33.66 258.71,-23.9"/>
<polygon fill="#63b8ff" stroke="#63b8ff" points="259.9,-20.61 249.31,-20.94 257.79,-27.28 259.9,-20.61"/>
</a>
</g>
</g>
<!-- Node5 -->
<g id="Node000005" class="node">
<title>Node5</title>
<g id="a_Node000005"><a xlink:title=" ">
<polygon fill="#e0e0e0" stroke="#999999" points="314.97,-20 266.72,-20 266.72,0 314.97,0 314.97,-20"/>
<text xml:space="preserve" text-anchor="middle" x="290.85" y="-6.5" font-family="Helvetica,sans-Serif" font-size="10.00">cassert</text>
</a>
</g>
</g>
<!-- Node2&#45;&gt;Node5 -->
<g id="edge4_Node000002_Node000005" class="edge">
<title>Node2&#45;&gt;Node5</title>
<g id="a_edge4_Node000002_Node000005"><a xlink:title=" ">
<path fill="none" stroke="#63b8ff" d="M371.78,-55.59C356.97,-47.44 335.28,-35.48 318.08,-26"/>
<polygon fill="#63b8ff" stroke="#63b8ff" points="319.82,-22.97 309.38,-21.21 316.45,-29.1 319.82,-22.97"/>
</a>
</g>
</g>
<!-- Node6 -->
<g id="Node000006" class="node">
<title>Node6</title>
<g id="a_Node000006"><a xlink:title=" ">
<polygon fill="#e0e0e0" stroke="#999999" points="380.97,-20 332.72,-20 332.72,0 380.97,0 380.97,-20"/>
<text xml:space="preserve" text-anchor="middle" x="356.85" y="-6.5" font-family="Helvetica,sans-Serif" font-size="10.00">cstddef</text>
</a>
</g>
</g>
<!-- Node2&#45;&gt;Node6 -->
<g id="edge5_Node000002_Node000006" class="edge">
<title>Node2&#45;&gt;Node6</title>
<g id="a_edge5_Node000002_Node000006"><a xlink:title=" ">
<path fill="none" stroke="#63b8ff" d="M383.27,-55.59C379.1,-48.55 373.24,-38.67 368.11,-30"/>
<polygon fill="#63b8ff" stroke="#63b8ff" points="371.24,-28.42 363.13,-21.6 365.22,-31.99 371.24,-28.42"/>
</a>
</g>
</g>
<!-- Node7 -->
<g id="Node000007" class="node">
<title>Node7</title>
<g id="a_Node000007"><a xlink:title=" ">
<polygon fill="#e0e0e0" stroke="#999999" points="444.47,-20 399.22,-20 399.22,0 444.47,0 444.47,-20"/>
<text xml:space="preserve" text-anchor="middle" x="421.85" y="-6.5" font-family="Helvetica,sans-Serif" font-size="10.00">cstdint</text>
</a>
</g>
</g>
<!-- Node2&#45;&gt;Node7 -->
<g id="edge6_Node000002_Node000007" class="edge">
<title>Node2&#45;&gt;Node7</title>
<g id="a_edge6_Node000002_Node000007"><a xlink:title=" ">
<path fill="none" stroke="#63b8ff" d="M394.6,-55.59C398.9,-48.55 404.94,-38.67 410.24,-30"/>
<polygon fill="#63b8ff" stroke="#63b8ff" points="413.15,-31.95 415.38,-21.59 407.17,-28.3 413.15,-31.95"/>
</a>
</g>
</g>
<!-- Node8 -->
<g id="Node000008" class="node">
<title>Node8</title>
<g id="a_Node000008"><a xlink:title=" ">
<polygon fill="#e0e0e0" stroke="#999999" points="515.22,-20 462.47,-20 462.47,0 515.22,0 515.22,-20"/>
<text xml:space="preserve" text-anchor="middle" x="488.85" y="-6.5" font-family="Helvetica,sans-Serif" font-size="10.00">cstdbool</text>
</a>
</g>
</g>
<!-- Node2&#45;&gt;Node8 -->
<g id="edge7_Node000002_Node000008" class="edge">
<title>Node2&#45;&gt;Node8</title>
<g id="a_edge7_Node000002_Node000008"><a xlink:title=" ">
<path fill="none" stroke="#63b8ff" d="M406.27,-55.59C421.52,-47.36 443.93,-35.26 461.56,-25.74"/>
<polygon fill="#63b8ff" stroke="#63b8ff" points="462.82,-29.03 469.96,-21.2 459.5,-22.87 462.82,-29.03"/>
</a>
</g>
</g>
<!-- Node9 -->
<g id="Node000009" class="node">
<title>Node9</title>
<g id="a_Node000009"><a xlink:title=" ">
<polygon fill="#e0e0e0" stroke="#999999" points="572.85,-20 532.85,-20 532.85,0 572.85,0 572.85,-20"/>
<text xml:space="preserve" text-anchor="middle" x="552.85" y="-6.5" font-family="Helvetica,sans-Serif" font-size="10.00">string</text>
</a>
</g>
</g>
<!-- Node2&#45;&gt;Node9 -->
<g id="edge8_Node000002_Node000009" class="edge">
<title>Node2&#45;&gt;Node9</title>
<g id="a_edge8_Node000002_Node000009"><a xlink:title=" ">
<path fill="none" stroke="#63b8ff" d="M417.41,-55.59C446.55,-46 491.62,-31.16 521.66,-21.27"/>
<polygon fill="#63b8ff" stroke="#63b8ff" points="522.54,-24.67 530.94,-18.21 520.35,-18.02 522.54,-24.67"/>
</a>
</g>
</g>
<!-- Node10 -->
<g id="Node000010" class="node">
<title>Node10</title>
<g id="a_Node000010"><a xlink:title=" ">
<polygon fill="#e0e0e0" stroke="#999999" points="644.97,-20 590.72,-20 590.72,0 644.97,0 644.97,-20"/>
<text xml:space="preserve" text-anchor="middle" x="617.85" y="-6.5" font-family="Helvetica,sans-Serif" font-size="10.00">crtdefs.h</text>
</a>
</g>
</g>
<!-- Node2&#45;&gt;Node10 -->
<g id="edge9_Node000002_Node000010" class="edge">
<title>Node2&#45;&gt;Node10</title>
<g id="a_edge9_Node000002_Node000010"><a xlink:title=" ">
<path fill="none" stroke="#63b8ff" d="M430.31,-55.53C467.05,-47.1 522.46,-34.27 579.33,-20.58"/>
<polygon fill="#63b8ff" stroke="#63b8ff" points="579.97,-24.03 588.87,-18.28 578.33,-17.22 579.97,-24.03"/>
</a>
</g>
</g>
<!-- Node11&#45;&gt;Node2 -->
<g id="edge11_Node000011_Node000002" class="edge">
<title>Node11&#45;&gt;Node2</title>
<g id="a_edge11_Node000011_Node000002"><a xlink:title=" ">
<path fill="none" stroke="#63b8ff" d="M248.13,-176.57C176.4,-174.81 42.54,-166.82 12.85,-132 7.08,-125.24 6.95,-118.65 12.85,-112 32.41,-89.96 208.97,-76.72 313.05,-70.76"/>
<polygon fill="#63b8ff" stroke="#63b8ff" points="313.14,-74.26 322.92,-70.21 312.74,-67.28 313.14,-74.26"/>
</a>
</g>
</g>
<!-- Node12 -->
<g id="Node000012" class="node">
<title>Node12</title>
<g id="a_Node000012"><a xlink:title=" ">
<polygon fill="#e0e0e0" stroke="#999999" points="91.47,-132 22.22,-132 22.22,-112 91.47,-112 91.47,-132"/>
<text xml:space="preserve" text-anchor="middle" x="56.85" y="-118.5" font-family="Helvetica,sans-Serif" font-size="10.00">glm/glm.hpp</text>
</a>
</g>
</g>
<!-- Node11&#45;&gt;Node12 -->
<g id="edge12_Node000011_Node000012" class="edge">
<title>Node11&#45;&gt;Node12</title>
<g id="a_edge12_Node000011_Node000012"><a xlink:title=" ">
<path fill="none" stroke="#63b8ff" d="M252.29,-167.53C210.49,-158.01 146.19,-143.36 102.87,-133.49"/>
<polygon fill="#63b8ff" stroke="#63b8ff" points="103.79,-130.11 93.26,-131.3 102.24,-136.93 103.79,-130.11"/>
</a>
</g>
</g>
<!-- Node13 -->
<g id="Node000013" class="node">
<title>Node13</title>
<g id="a_Node000013"><a xlink:title=" ">
<polygon fill="#e0e0e0" stroke="#999999" points="227.85,-132 109.85,-132 109.85,-112 227.85,-112 227.85,-132"/>
<text xml:space="preserve" text-anchor="middle" x="168.85" y="-118.5" font-family="Helvetica,sans-Serif" font-size="10.00">glm/gtx/string_cast.hpp</text>
</a>
</g>
</g>
<!-- Node11&#45;&gt;Node13 -->
<g id="edge13_Node000011_Node000013" class="edge">
<title>Node11&#45;&gt;Node13</title>
<g id="a_edge13_Node000011_Node000013"><a xlink:title=" ">
<path fill="none" stroke="#63b8ff" d="M272.07,-167.59C252.48,-159.13 223.42,-146.58 201.12,-136.94"/>
<polygon fill="#63b8ff" stroke="#63b8ff" points="202.75,-133.83 192.18,-133.08 199.97,-140.26 202.75,-133.83"/>
</a>
</g>
</g>
<!-- Node14 -->
<g id="Node000014" class="node">
<title>Node14</title>
<g id="a_Node000014"><a xlink:href="_datum_8inl.html" target="_top" xlink:title=" ">
<polygon fill="white" stroke="#666666" points="341.6,-132 246.1,-132 246.1,-112 341.6,-112 341.6,-132"/>
<text xml:space="preserve" text-anchor="middle" x="293.85" y="-118.5" font-family="Helvetica,sans-Serif" font-size="10.00">Content/Datum.inl</text>
</a>
</g>
</g>
<!-- Node11&#45;&gt;Node14 -->
<g id="edge14_Node000011_Node000014" class="edge">
<title>Node11&#45;&gt;Node14</title>
<g id="a_edge14_Node000011_Node000014"><a xlink:title=" ">
<path fill="none" stroke="#63b8ff" d="M288.58,-167.59C287.26,-161.01 286.82,-151.96 287.26,-143.73"/>
<polygon fill="#63b8ff" stroke="#63b8ff" points="290.74,-144.14 288.43,-133.8 283.78,-143.33 290.74,-144.14"/>
</a>
</g>
</g>
<!-- Node14&#45;&gt;Node11 -->
<g id="edge15_Node000014_Node000011" class="edge">
<title>Node14&#45;&gt;Node11</title>
<g id="a_edge15_Node000014_Node000011"><a xlink:title=" ">
<path fill="none" stroke="#63b8ff" d="M299.09,-132.3C300.44,-138.93 300.88,-148.11 300.42,-156.43"/>
<polygon fill="#63b8ff" stroke="#63b8ff" points="296.98,-155.75 299.29,-166.09 303.93,-156.57 296.98,-155.75"/>
</a>
</g>
</g>
<!-- Node15&#45;&gt;Node2 -->
<g id="edge17_Node000015_Node000002" class="edge">
<title>Node15&#45;&gt;Node2</title>
<g id="a_edge17_Node000015_Node000002"><a xlink:title=" ">
<path fill="none" stroke="#63b8ff" d="M684.6,-233.6C612.75,-231.85 473.68,-216.91 404.85,-132 394.76,-119.56 390.9,-101.68 389.48,-87.81"/>
<polygon fill="#63b8ff" stroke="#63b8ff" points="392.98,-87.76 388.85,-78 386,-88.2 392.98,-87.76"/>
</a>
</g>
</g>
<!-- Node15&#45;&gt;Node11 -->
<g id="edge22_Node000015_Node000011" class="edge">
<title>Node15&#45;&gt;Node11</title>
<g id="a_edge22_Node000015_Node000011"><a xlink:title=" ">
<path fill="none" stroke="#63b8ff" d="M684.61,-227.92C614.24,-219.93 474.32,-203.72 355.85,-188 354.2,-187.78 352.52,-187.56 350.83,-187.33"/>
<polygon fill="#63b8ff" stroke="#63b8ff" points="351.42,-183.88 341.04,-185.97 350.46,-190.81 351.42,-183.88"/>
</a>
</g>
</g>
<!-- Node15&#45;&gt;Node16 -->
<g id="edge18_Node000015_Node000016" class="edge">
<title>Node15&#45;&gt;Node16</title>
<g id="a_edge18_Node000015_Node000016"><a xlink:title=" ">
<path fill="none" stroke="#63b8ff" d="M737.69,-223.62C752.97,-205.36 786.94,-164.73 806.74,-141.07"/>
<polygon fill="#63b8ff" stroke="#63b8ff" points="809.32,-143.43 813.05,-133.52 803.95,-138.94 809.32,-143.43"/>
</a>
</g>
</g>
<!-- Node18 -->
<g id="Node000018" class="node">
<title>Node18</title>
<g id="a_Node000018"><a xlink:href="_factory_service_8h.html" target="_top" xlink:title=" ">
<polygon fill="white" stroke="#666666" points="701.85,-188 529.85,-188 529.85,-168 701.85,-168 701.85,-188"/>
<text xml:space="preserve" text-anchor="middle" x="615.85" y="-174.5" font-family="Helvetica,sans-Serif" font-size="10.00">FIEAGameEngine/FactoryService.h</text>
</a>
</g>
</g>
<!-- Node15&#45;&gt;Node18 -->
<g id="edge23_Node000015_Node000018" class="edge">
<title>Node15&#45;&gt;Node18</title>
<g id="a_edge23_Node000015_Node000018"><a xlink:title=" ">
<path fill="none" stroke="#63b8ff" d="M709.99,-223.59C692.36,-215.24 666.34,-202.92 646.12,-193.34"/>
<polygon fill="#63b8ff" stroke="#63b8ff" points="647.76,-190.25 637.23,-189.13 644.77,-196.57 647.76,-190.25"/>
</a>
</g>
</g>
<!-- Node20 -->
<g id="Node000020" class="node">
<title>Node20</title>
<g id="a_Node000020"><a xlink:title=" ">
<polygon fill="#e0e0e0" stroke="#999999" points="733.22,-76 650.47,-76 650.47,-56 733.22,-56 733.22,-76"/>
<text xml:space="preserve" text-anchor="middle" x="691.85" y="-62.5" font-family="Helvetica,sans-Serif" font-size="10.00">unordered_map</text>
</a>
</g>
</g>
<!-- Node15&#45;&gt;Node20 -->
<g id="edge32_Node000015_Node000020" class="edge">
<title>Node15&#45;&gt;Node20</title>
<g id="a_edge32_Node000015_Node000020"><a xlink:title=" ">
<path fill="none" stroke="#63b8ff" d="M727.7,-223.6C721.71,-197.46 704.78,-123.48 696.51,-87.36"/>
<polygon fill="#63b8ff" stroke="#63b8ff" points="699.96,-86.74 694.31,-77.77 693.13,-88.3 699.96,-86.74"/>
</a>
</g>
</g>
<!-- Node15&#45;&gt;Node22 -->
<g id="edge31_Node000015_Node000022" class="edge">
<title>Node15&#45;&gt;Node22</title>
<g id="a_edge31_Node000015_Node000022"><a xlink:title=" ">
<path fill="none" stroke="#63b8ff" d="M745.18,-223.59C758.34,-215.51 777.58,-203.71 792.96,-194.27"/>
<polygon fill="#63b8ff" stroke="#63b8ff" points="794.42,-197.48 801.11,-189.27 790.76,-191.52 794.42,-197.48"/>
</a>
</g>
</g>
<!-- Node16&#45;&gt;Node2 -->
<g id="edge19_Node000016_Node000002" class="edge">
<title>Node16&#45;&gt;Node2</title>
<g id="a_edge19_Node000016_Node000002"><a xlink:title=" ">
<path fill="none" stroke="#63b8ff" d="M757.49,-112.97C679.41,-103.24 547.96,-86.84 464.94,-76.49"/>
<polygon fill="#63b8ff" stroke="#63b8ff" points="465.42,-73.02 455.06,-75.26 464.55,-79.97 465.42,-73.02"/>
</a>
</g>
</g>
<!-- Node17 -->
<g id="Node000017" class="node">
<title>Node17</title>
<g id="a_Node000017"><a xlink:href="_r_t_t_i_8inl.html" target="_top" xlink:title=" ">
<polygon fill="white" stroke="#666666" points="887.97,-76 755.72,-76 755.72,-56 887.97,-56 887.97,-76"/>
<text xml:space="preserve" text-anchor="middle" x="821.85" y="-62.5" font-family="Helvetica,sans-Serif" font-size="10.00">FIEAGameEngine/RTTI.inl</text>
</a>
</g>
</g>
<!-- Node16&#45;&gt;Node17 -->
<g id="edge20_Node000016_Node000017" class="edge">
<title>Node16&#45;&gt;Node17</title>
<g id="a_edge20_Node000016_Node000017"><a xlink:title=" ">
<path fill="none" stroke="#63b8ff" d="M816.58,-111.59C815.26,-105.01 814.82,-95.96 815.26,-87.73"/>
<polygon fill="#63b8ff" stroke="#63b8ff" points="818.74,-88.14 816.43,-77.8 811.78,-87.33 818.74,-88.14"/>
</a>
</g>
</g>
<!-- Node17&#45;&gt;Node16 -->
<g id="edge21_Node000017_Node000016" class="edge">
<title>Node17&#45;&gt;Node16</title>
<g id="a_edge21_Node000017_Node000016"><a xlink:title=" ">
<path fill="none" stroke="#63b8ff" d="M827.09,-76.3C828.44,-82.93 828.88,-92.11 828.42,-100.43"/>
<polygon fill="#63b8ff" stroke="#63b8ff" points="824.98,-99.75 827.29,-110.09 831.93,-100.57 824.98,-99.75"/>
</a>
</g>
</g>
<!-- Node18&#45;&gt;Node2 -->
<g id="edge24_Node000018_Node000002" class="edge">
<title>Node18&#45;&gt;Node2</title>
<g id="a_edge24_Node000018_Node000002"><a xlink:title=" ">
<path fill="none" stroke="#63b8ff" d="M529.68,-171.18C495.03,-165.3 456.39,-153.89 426.85,-132 411.6,-120.7 401.42,-101.31 395.47,-86.64"/>
<polygon fill="#63b8ff" stroke="#63b8ff" points="398.86,-85.72 392.11,-77.55 392.3,-88.15 398.86,-85.72"/>
</a>
</g>
</g>
<!-- Node18&#45;&gt;Node16 -->
<g id="edge25_Node000018_Node000016" class="edge">
<title>Node18&#45;&gt;Node16</title>
<g id="a_edge25_Node000018_Node000016"><a xlink:title=" ">
<path fill="none" stroke="#63b8ff" d="M651.73,-167.59C685.79,-158.67 737.18,-145.19 774.57,-135.39"/>
<polygon fill="#63b8ff" stroke="#63b8ff" points="775.43,-138.78 784.22,-132.86 773.66,-132.01 775.43,-138.78"/>
</a>
</g>
</g>
<!-- Node19 -->
<g id="Node000019" class="node">
<title>Node19</title>
<g id="a_Node000019"><a xlink:href="_service_mgr_8h.html" target="_top" xlink:title=" ">
<polygon fill="white" stroke="#666666" points="591.6,-132 436.1,-132 436.1,-112 591.6,-112 591.6,-132"/>
<text xml:space="preserve" text-anchor="middle" x="513.85" y="-118.5" font-family="Helvetica,sans-Serif" font-size="10.00">FIEAGameEngine/ServiceMgr.h</text>
</a>
</g>
</g>
<!-- Node18&#45;&gt;Node19 -->
<g id="edge26_Node000018_Node000019" class="edge">
<title>Node18&#45;&gt;Node19</title>
<g id="a_edge26_Node000018_Node000019"><a xlink:title=" ">
<path fill="none" stroke="#63b8ff" d="M598.08,-167.59C582.53,-159.36 559.67,-147.26 541.68,-137.74"/>
<polygon fill="#63b8ff" stroke="#63b8ff" points="543.57,-134.77 533.09,-133.19 540.29,-140.96 543.57,-134.77"/>
</a>
</g>
</g>
<!-- Node18&#45;&gt;Node20 -->
<g id="edge30_Node000018_Node000020" class="edge">
<title>Node18&#45;&gt;Node20</title>
<g id="a_edge30_Node000018_Node000020"><a xlink:title=" ">
<path fill="none" stroke="#63b8ff" d="M632.94,-167.5C645.69,-159.58 662.62,-147.16 672.85,-132 681.91,-118.57 686.72,-100.76 689.23,-87.18"/>
<polygon fill="#63b8ff" stroke="#63b8ff" points="692.64,-88.06 690.71,-77.64 685.72,-86.99 692.64,-88.06"/>
</a>
</g>
</g>
<!-- Node21 -->
<g id="Node000021" class="node">
<title>Node21</title>
<g id="a_Node000021"><a xlink:title=" ">
<polygon fill="#e0e0e0" stroke="#999999" points="663.6,-132 610.1,-132 610.1,-112 663.6,-112 663.6,-132"/>
<text xml:space="preserve" text-anchor="middle" x="636.85" y="-118.5" font-family="Helvetica,sans-Serif" font-size="10.00">iostream</text>
</a>
</g>
</g>
<!-- Node18&#45;&gt;Node21 -->
<g id="edge29_Node000018_Node000021" class="edge">
<title>Node18&#45;&gt;Node21</title>
<g id="a_edge29_Node000018_Node000021"><a xlink:title=" ">
<path fill="none" stroke="#63b8ff" d="M619.5,-167.59C622.15,-160.78 625.83,-151.32 629.12,-142.86"/>
<polygon fill="#63b8ff" stroke="#63b8ff" points="632.32,-144.3 632.68,-133.71 625.8,-141.76 632.32,-144.3"/>
</a>
</g>
</g>
<!-- Node19&#45;&gt;Node2 -->
<g id="edge27_Node000019_Node000002" class="edge">
<title>Node19&#45;&gt;Node2</title>
<g id="a_edge27_Node000019_Node000002"><a xlink:title=" ">
<path fill="none" stroke="#63b8ff" d="M492.07,-111.59C472.48,-103.13 443.42,-90.58 421.12,-80.94"/>
<polygon fill="#63b8ff" stroke="#63b8ff" points="422.75,-77.83 412.18,-77.08 419.97,-84.26 422.75,-77.83"/>
</a>
</g>
</g>
<!-- Node19&#45;&gt;Node20 -->
<g id="edge28_Node000019_Node000020" class="edge">
<title>Node19&#45;&gt;Node20</title>
<g id="a_edge28_Node000019_Node000020"><a xlink:title=" ">
<path fill="none" stroke="#63b8ff" d="M544.85,-111.59C573.9,-102.78 617.54,-89.54 649.73,-79.78"/>
<polygon fill="#63b8ff" stroke="#63b8ff" points="650.6,-83.17 659.15,-76.92 648.57,-76.47 650.6,-83.17"/>
</a>
</g>
</g>
</g>
</svg>
