<?xml version="1.0" encoding="UTF-8" standalone="no"?>
<!DOCTYPE svg PUBLIC "-//W3C//DTD SVG 1.1//EN"
 "http://www.w3.org/Graphics/SVG/1.1/DTD/svg11.dtd">
<!-- Generated by graphviz version 13.1.0 (20250701.0955)
 -->
<!-- Title: FIEAGameEngine/src/Clock/ClockService.cpp Pages: 1 -->
<svg width="696pt" height="264pt"
 viewBox="0.00 0.00 696.00 264.00" xmlns="http://www.w3.org/2000/svg" xmlns:xlink="http://www.w3.org/1999/xlink">
<g id="graph0" class="graph" transform="scale(1 1) rotate(0) translate(4 260)">
<title>FIEAGameEngine/src/Clock/ClockService.cpp</title>
<!-- Node1 -->
<g id="Node000001" class="node">
<title>Node1</title>
<g id="a_Node000001"><a xlink:title=" ">
<polygon fill="#999999" stroke="#666666" points="676.38,-256 551.62,-256 551.62,-224 676.38,-224 676.38,-256"/>
<text xml:space="preserve" text-anchor="start" x="559.62" y="-242.5" font-family="Helvetica,sans-Serif" font-size="10.00">FIEAGameEngine/src</text>
<text xml:space="preserve" text-anchor="middle" x="614" y="-230.5" font-family="Helvetica,sans-Serif" font-size="10.00">/Clock/ClockService.cpp</text>
</a>
</g>
</g>
<!-- Node2 -->
<g id="Node000002" class="node">
<title>Node2</title>
<g id="a_Node000002"><a xlink:href="_clock_service_8h.html" target="_top" xlink:title=" ">
<polygon fill="white" stroke="#666666" points="586.25,-188 421.75,-188 421.75,-168 586.25,-168 586.25,-188"/>
<text xml:space="preserve" text-anchor="middle" x="504" y="-174.5" font-family="Helvetica,sans-Serif" font-size="10.00">FIEAGameEngine/ClockService.h</text>
</a>
</g>
</g>
<!-- Node1&#45;&gt;Node2 -->
<g id="edge1_Node000001_Node000002" class="edge">
<title>Node1&#45;&gt;Node2</title>
<g id="a_edge1_Node000001_Node000002"><a xlink:title=" ">
<path fill="none" stroke="#63b8ff" d="M585.67,-223.55C568.8,-214.35 547.52,-202.74 530.91,-193.68"/>
<polygon fill="#63b8ff" stroke="#63b8ff" points="533.03,-190.85 522.58,-189.13 529.68,-196.99 533.03,-190.85"/>
</a>
</g>
</g>
<!-- Node8 -->
<g id="Node000008" class="node">
<title>Node8</title>
<g id="a_Node000008"><a xlink:title=" ">
<polygon fill="#e0e0e0" stroke="#999999" points="636.62,-20 591.38,-20 591.38,0 636.62,0 636.62,-20"/>
<text xml:space="preserve" text-anchor="middle" x="614" y="-6.5" font-family="Helvetica,sans-Serif" font-size="10.00">cstdint</text>
</a>
</g>
</g>
<!-- Node1&#45;&gt;Node8 -->
<g id="edge15_Node000001_Node000008" class="edge">
<title>Node1&#45;&gt;Node8</title>
<g id="a_edge15_Node000001_Node000008"><a xlink:title=" ">
<path fill="none" stroke="#63b8ff" d="M614,-223.69C614,-183.88 614,-77.12 614,-31.81"/>
<polygon fill="#63b8ff" stroke="#63b8ff" points="617.5,-31.82 614,-21.82 610.5,-31.82 617.5,-31.82"/>
</a>
</g>
</g>
<!-- Node14 -->
<g id="Node000014" class="node">
<title>Node14</title>
<g id="a_Node000014"><a xlink:title=" ">
<polygon fill="#e0e0e0" stroke="#999999" points="687.62,-188 642.38,-188 642.38,-168 687.62,-168 687.62,-188"/>
<text xml:space="preserve" text-anchor="middle" x="665" y="-174.5" font-family="Helvetica,sans-Serif" font-size="10.00">chrono</text>
</a>
</g>
</g>
<!-- Node1&#45;&gt;Node14 -->
<g id="edge14_Node000001_Node000014" class="edge">
<title>Node1&#45;&gt;Node14</title>
<g id="a_edge14_Node000001_Node000014"><a xlink:title=" ">
<path fill="none" stroke="#63b8ff" d="M627.13,-223.55C634,-215.48 642.43,-205.55 649.6,-197.12"/>
<polygon fill="#63b8ff" stroke="#63b8ff" points="652.21,-199.45 656.02,-189.56 646.88,-194.91 652.21,-199.45"/>
</a>
</g>
</g>
<!-- Node3 -->
<g id="Node000003" class="node">
<title>Node3</title>
<g id="a_Node000003"><a xlink:href="_types_8h.html" target="_top" xlink:title=" ">
<polygon fill="white" stroke="#666666" points="466.12,-76 333.88,-76 333.88,-56 466.12,-56 466.12,-76"/>
<text xml:space="preserve" text-anchor="middle" x="400" y="-62.5" font-family="Helvetica,sans-Serif" font-size="10.00">FIEAGameEngine/Types.h</text>
</a>
</g>
</g>
<!-- Node2&#45;&gt;Node3 -->
<g id="edge2_Node000002_Node000003" class="edge">
<title>Node2&#45;&gt;Node3</title>
<g id="a_edge2_Node000002_Node000003"><a xlink:title=" ">
<path fill="none" stroke="#63b8ff" d="M473.3,-167.58C455.09,-160.51 432.93,-149.08 419,-132 408.76,-119.44 404.04,-101.57 401.86,-87.74"/>
<polygon fill="#63b8ff" stroke="#63b8ff" points="405.35,-87.46 400.68,-77.95 398.4,-88.3 405.35,-87.46"/>
</a>
</g>
</g>
<!-- Node12 -->
<g id="Node000012" class="node">
<title>Node12</title>
<g id="a_Node000012"><a xlink:href="_service_mgr_8h.html" target="_top" xlink:title=" ">
<polygon fill="white" stroke="#666666" points="583.75,-132 428.25,-132 428.25,-112 583.75,-112 583.75,-132"/>
<text xml:space="preserve" text-anchor="middle" x="506" y="-118.5" font-family="Helvetica,sans-Serif" font-size="10.00">FIEAGameEngine/ServiceMgr.h</text>
</a>
</g>
</g>
<!-- Node2&#45;&gt;Node12 -->
<g id="edge11_Node000002_Node000012" class="edge">
<title>Node2&#45;&gt;Node12</title>
<g id="a_edge11_Node000002_Node000012"><a xlink:title=" ">
<path fill="none" stroke="#63b8ff" d="M504.35,-167.59C504.59,-161.01 504.93,-151.96 505.23,-143.73"/>
<polygon fill="#63b8ff" stroke="#63b8ff" points="508.73,-143.93 505.6,-133.81 501.73,-143.67 508.73,-143.93"/>
</a>
</g>
</g>
<!-- Node4 -->
<g id="Node000004" class="node">
<title>Node4</title>
<g id="a_Node000004"><a xlink:title=" ">
<polygon fill="#e0e0e0" stroke="#999999" points="160,-20 0,-20 0,0 160,0 160,-20"/>
<text xml:space="preserve" text-anchor="middle" x="80" y="-6.5" font-family="Helvetica,sans-Serif" font-size="10.00">../src/Memory/SystemAllocator.h</text>
</a>
</g>
</g>
<!-- Node3&#45;&gt;Node4 -->
<g id="edge3_Node000003_Node000004" class="edge">
<title>Node3&#45;&gt;Node4</title>
<g id="a_edge3_Node000003_Node000004"><a xlink:title=" ">
<path fill="none" stroke="#63b8ff" d="M343.89,-55.53C289.11,-46.29 205.7,-32.21 147.36,-22.37"/>
<polygon fill="#63b8ff" stroke="#63b8ff" points="147.98,-18.92 137.53,-20.71 146.81,-25.82 147.98,-18.92"/>
</a>
</g>
</g>
<!-- Node5 -->
<g id="Node000005" class="node">
<title>Node5</title>
<g id="a_Node000005"><a xlink:title=" ">
<polygon fill="#e0e0e0" stroke="#999999" points="240.25,-20 177.75,-20 177.75,0 240.25,0 240.25,-20"/>
<text xml:space="preserve" text-anchor="middle" x="209" y="-6.5" font-family="Helvetica,sans-Serif" font-size="10.00">windows.h</text>
</a>
</g>
</g>
<!-- Node3&#45;&gt;Node5 -->
<g id="edge4_Node000003_Node000005" class="edge">
<title>Node3&#45;&gt;Node5</title>
<g id="a_edge4_Node000003_Node000005"><a xlink:title=" ">
<path fill="none" stroke="#63b8ff" d="M366.73,-55.59C334.71,-46.54 286.16,-32.82 251.39,-22.98"/>
<polygon fill="#63b8ff" stroke="#63b8ff" points="252.65,-19.7 242.08,-20.35 250.75,-26.44 252.65,-19.7"/>
</a>
</g>
</g>
<!-- Node6 -->
<g id="Node000006" class="node">
<title>Node6</title>
<g id="a_Node000006"><a xlink:title=" ">
<polygon fill="#e0e0e0" stroke="#999999" points="306.12,-20 257.88,-20 257.88,0 306.12,0 306.12,-20"/>
<text xml:space="preserve" text-anchor="middle" x="282" y="-6.5" font-family="Helvetica,sans-Serif" font-size="10.00">cassert</text>
</a>
</g>
</g>
<!-- Node3&#45;&gt;Node6 -->
<g id="edge5_Node000003_Node000006" class="edge">
<title>Node3&#45;&gt;Node6</title>
<g id="a_edge5_Node000003_Node000006"><a xlink:title=" ">
<path fill="none" stroke="#63b8ff" d="M379.45,-55.59C361.12,-47.21 334.01,-34.8 313.04,-25.21"/>
<polygon fill="#63b8ff" stroke="#63b8ff" points="314.64,-22.09 304.09,-21.11 311.73,-28.45 314.64,-22.09"/>
</a>
</g>
</g>
<!-- Node7 -->
<g id="Node000007" class="node">
<title>Node7</title>
<g id="a_Node000007"><a xlink:title=" ">
<polygon fill="#e0e0e0" stroke="#999999" points="372.12,-20 323.88,-20 323.88,0 372.12,0 372.12,-20"/>
<text xml:space="preserve" text-anchor="middle" x="348" y="-6.5" font-family="Helvetica,sans-Serif" font-size="10.00">cstddef</text>
</a>
</g>
</g>
<!-- Node3&#45;&gt;Node7 -->
<g id="edge6_Node000003_Node000007" class="edge">
<title>Node3&#45;&gt;Node7</title>
<g id="a_edge6_Node000003_Node000007"><a xlink:title=" ">
<path fill="none" stroke="#63b8ff" d="M390.94,-55.59C383.78,-48.16 373.59,-37.58 364.93,-28.58"/>
<polygon fill="#63b8ff" stroke="#63b8ff" points="367.46,-26.16 358,-21.39 362.42,-31.02 367.46,-26.16"/>
</a>
</g>
</g>
<!-- Node3&#45;&gt;Node8 -->
<g id="edge7_Node000003_Node000008" class="edge">
<title>Node3&#45;&gt;Node8</title>
<g id="a_edge7_Node000003_Node000008"><a xlink:title=" ">
<path fill="none" stroke="#63b8ff" d="M439.86,-55.53C474.48,-47.22 526.25,-34.59 580.15,-20.43"/>
<polygon fill="#63b8ff" stroke="#63b8ff" points="580.71,-23.9 589.49,-17.96 578.93,-17.13 580.71,-23.9"/>
</a>
</g>
</g>
<!-- Node9 -->
<g id="Node000009" class="node">
<title>Node9</title>
<g id="a_Node000009"><a xlink:title=" ">
<polygon fill="#e0e0e0" stroke="#999999" points="443.38,-20 390.62,-20 390.62,0 443.38,0 443.38,-20"/>
<text xml:space="preserve" text-anchor="middle" x="417" y="-6.5" font-family="Helvetica,sans-Serif" font-size="10.00">cstdbool</text>
</a>
</g>
</g>
<!-- Node3&#45;&gt;Node9 -->
<g id="edge8_Node000003_Node000009" class="edge">
<title>Node3&#45;&gt;Node9</title>
<g id="a_edge8_Node000003_Node000009"><a xlink:title=" ">
<path fill="none" stroke="#63b8ff" d="M402.96,-55.59C405.08,-48.86 408.02,-39.53 410.66,-31.15"/>
<polygon fill="#63b8ff" stroke="#63b8ff" points="413.95,-32.33 413.62,-21.74 407.28,-30.23 413.95,-32.33"/>
</a>
</g>
</g>
<!-- Node10 -->
<g id="Node000010" class="node">
<title>Node10</title>
<g id="a_Node000010"><a xlink:title=" ">
<polygon fill="#e0e0e0" stroke="#999999" points="501,-20 461,-20 461,0 501,0 501,-20"/>
<text xml:space="preserve" text-anchor="middle" x="481" y="-6.5" font-family="Helvetica,sans-Serif" font-size="10.00">string</text>
</a>
</g>
</g>
<!-- Node3&#45;&gt;Node10 -->
<g id="edge9_Node000003_Node000010" class="edge">
<title>Node3&#45;&gt;Node10</title>
<g id="a_edge9_Node000003_Node000010"><a xlink:title=" ">
<path fill="none" stroke="#63b8ff" d="M414.11,-55.59C426,-47.67 443.27,-36.16 457.28,-26.82"/>
<polygon fill="#63b8ff" stroke="#63b8ff" points="459.14,-29.78 465.52,-21.32 455.26,-23.95 459.14,-29.78"/>
</a>
</g>
</g>
<!-- Node11 -->
<g id="Node000011" class="node">
<title>Node11</title>
<g id="a_Node000011"><a xlink:title=" ">
<polygon fill="#e0e0e0" stroke="#999999" points="573.12,-20 518.88,-20 518.88,0 573.12,0 573.12,-20"/>
<text xml:space="preserve" text-anchor="middle" x="546" y="-6.5" font-family="Helvetica,sans-Serif" font-size="10.00">crtdefs.h</text>
</a>
</g>
</g>
<!-- Node3&#45;&gt;Node11 -->
<g id="edge10_Node000003_Node000011" class="edge">
<title>Node3&#45;&gt;Node11</title>
<g id="a_edge10_Node000003_Node000011"><a xlink:title=" ">
<path fill="none" stroke="#63b8ff" d="M425.43,-55.59C448.74,-46.97 483.5,-34.12 509.72,-24.42"/>
<polygon fill="#63b8ff" stroke="#63b8ff" points="510.79,-27.76 518.95,-21 508.36,-21.19 510.79,-27.76"/>
</a>
</g>
</g>
<!-- Node12&#45;&gt;Node3 -->
<g id="edge12_Node000012_Node000003" class="edge">
<title>Node12&#45;&gt;Node3</title>
<g id="a_edge12_Node000012_Node000003"><a xlink:title=" ">
<path fill="none" stroke="#63b8ff" d="M487.54,-111.59C471.3,-103.32 447.39,-91.14 428.67,-81.6"/>
<polygon fill="#63b8ff" stroke="#63b8ff" points="430.46,-78.59 419.96,-77.17 427.28,-84.82 430.46,-78.59"/>
</a>
</g>
</g>
<!-- Node13 -->
<g id="Node000013" class="node">
<title>Node13</title>
<g id="a_Node000013"><a xlink:title=" ">
<polygon fill="#e0e0e0" stroke="#999999" points="567.38,-76 484.62,-76 484.62,-56 567.38,-56 567.38,-76"/>
<text xml:space="preserve" text-anchor="middle" x="526" y="-62.5" font-family="Helvetica,sans-Serif" font-size="10.00">unordered_map</text>
</a>
</g>
</g>
<!-- Node12&#45;&gt;Node13 -->
<g id="edge13_Node000012_Node000013" class="edge">
<title>Node12&#45;&gt;Node13</title>
<g id="a_edge13_Node000012_Node000013"><a xlink:title=" ">
<path fill="none" stroke="#63b8ff" d="M509.48,-111.59C512.01,-104.78 515.51,-95.32 518.64,-86.86"/>
<polygon fill="#63b8ff" stroke="#63b8ff" points="521.84,-88.31 522.03,-77.72 515.28,-85.88 521.84,-88.31"/>
</a>
</g>
</g>
</g>
</svg>
