<?xml version="1.0" encoding="UTF-8" standalone="no"?>
<!DOCTYPE svg PUBLIC "-//W3C//DTD SVG 1.1//EN"
 "http://www.w3.org/Graphics/SVG/1.1/DTD/svg11.dtd">
<!-- Generated by graphviz version 13.1.0 (20250701.0955)
 -->
<!-- Title: FIEAGameEngine/include/FIEAGameEngine/ContentService.h Pages: 1 -->
<svg width="2699pt" height="256pt"
 viewBox="0.00 0.00 2699.00 256.00" xmlns="http://www.w3.org/2000/svg" xmlns:xlink="http://www.w3.org/1999/xlink">
<g id="graph0" class="graph" transform="scale(1 1) rotate(0) translate(4 252)">
<title>FIEAGameEngine/include/FIEAGameEngine/ContentService.h</title>
<!-- Node1 -->
<g id="Node000001" class="node">
<title>Node1</title>
<g id="a_Node000001"><a xlink:title=" ">
<polygon fill="#999999" stroke="#666666" points="1651.62,-248 1475.12,-248 1475.12,-216 1651.62,-216 1651.62,-248"/>
<text xml:space="preserve" text-anchor="start" x="1483.12" y="-234.5" font-family="Helvetica,sans-Serif" font-size="10.00">FIEAGameEngine/include</text>
<text xml:space="preserve" text-anchor="middle" x="1563.38" y="-222.5" font-family="Helvetica,sans-Serif" font-size="10.00">/FIEAGameEngine/ContentService.h</text>
</a>
</g>
</g>
<!-- Node2 -->
<g id="Node000002" class="node">
<title>Node2</title>
<g id="a_Node000002"><a xlink:href="_action_handler_8h.html" target="_top" xlink:title=" ">
<polygon fill="white" stroke="#666666" points="142.5,-174 16.25,-174 16.25,-142 142.5,-142 142.5,-174"/>
<text xml:space="preserve" text-anchor="start" x="24.25" y="-160.5" font-family="Helvetica,sans-Serif" font-size="10.00">FIEAGameEngine/src</text>
<text xml:space="preserve" text-anchor="middle" x="79.38" y="-148.5" font-family="Helvetica,sans-Serif" font-size="10.00">/Content/ActionHandler.h</text>
</a>
</g>
</g>
<!-- Node1&#45;&gt;Node2 -->
<g id="edge1_Node000001_Node000002" class="edge">
<title>Node1&#45;&gt;Node2</title>
<g id="a_edge1_Node000001_Node000002"><a xlink:title=" ">
<path fill="none" stroke="#63b8ff" d="M1463.47,-230.36C1185.81,-228.11 408.71,-218.46 156.38,-180 147.61,-178.66 138.41,-176.68 129.55,-174.46"/>
<polygon fill="#63b8ff" stroke="#63b8ff" points="1463.18,-233.86 1473.21,-230.44 1463.24,-226.86 1463.18,-233.86"/>
</a>
</g>
</g>
<!-- Node4 -->
<g id="Node000004" class="node">
<title>Node4</title>
<g id="a_Node000004"><a xlink:href="_action_list_handler_8h.html" target="_top" xlink:title=" ">
<polygon fill="white" stroke="#666666" points="307.38,-174 165.38,-174 165.38,-142 307.38,-142 307.38,-174"/>
<text xml:space="preserve" text-anchor="start" x="173.38" y="-160.5" font-family="Helvetica,sans-Serif" font-size="10.00">FIEAGameEngine/src</text>
<text xml:space="preserve" text-anchor="middle" x="236.38" y="-148.5" font-family="Helvetica,sans-Serif" font-size="10.00">/Content/ActionListHandler.h</text>
</a>
</g>
</g>
<!-- Node1&#45;&gt;Node4 -->
<g id="edge3_Node000001_Node000004" class="edge">
<title>Node1&#45;&gt;Node4</title>
<g id="a_edge3_Node000001_Node000004"><a xlink:title=" ">
<path fill="none" stroke="#63b8ff" d="M1463.64,-229.2C1210.5,-224.27 547.75,-208.93 329.38,-180 319.04,-178.63 308.16,-176.66 297.62,-174.48"/>
<polygon fill="#63b8ff" stroke="#63b8ff" points="1463.44,-232.7 1473.5,-229.39 1463.57,-225.7 1463.44,-232.7"/>
</a>
</g>
</g>
<!-- Node6 -->
<g id="Node000006" class="node">
<title>Node6</title>
<g id="a_Node000006"><a xlink:href="_action_while_param_handler_8h.html" target="_top" xlink:title=" ">
<polygon fill="white" stroke="#666666" points="518.12,-174 338.62,-174 338.62,-142 518.12,-142 518.12,-174"/>
<text xml:space="preserve" text-anchor="start" x="346.62" y="-160.5" font-family="Helvetica,sans-Serif" font-size="10.00">FIEAGameEngine/src</text>
<text xml:space="preserve" text-anchor="middle" x="428.38" y="-148.5" font-family="Helvetica,sans-Serif" font-size="10.00">/Content/ActionWhileParamHandler.h</text>
</a>
</g>
</g>
<!-- Node1&#45;&gt;Node6 -->
<g id="edge5_Node000001_Node000006" class="edge">
<title>Node1&#45;&gt;Node6</title>
<g id="a_edge5_Node000001_Node000006"><a xlink:title=" ">
<path fill="none" stroke="#63b8ff" d="M1463.63,-230.88C1279.36,-229.6 873.45,-221.76 534.38,-180 522.83,-178.58 510.66,-176.61 498.85,-174.45"/>
<polygon fill="#63b8ff" stroke="#63b8ff" points="1463.37,-234.38 1473.4,-230.95 1463.42,-227.38 1463.37,-234.38"/>
</a>
</g>
</g>
<!-- Node8 -->
<g id="Node000008" class="node">
<title>Node8</title>
<g id="a_Node000008"><a xlink:href="_attributed_8cpp.html" target="_top" xlink:title=" ">
<polygon fill="white" stroke="#666666" points="1622,-174 1504.75,-174 1504.75,-142 1622,-142 1622,-174"/>
<text xml:space="preserve" text-anchor="start" x="1512.75" y="-160.5" font-family="Helvetica,sans-Serif" font-size="10.00">FIEAGameEngine/src</text>
<text xml:space="preserve" text-anchor="middle" x="1563.38" y="-148.5" font-family="Helvetica,sans-Serif" font-size="10.00">/Content/Attributed.cpp</text>
</a>
</g>
</g>
<!-- Node1&#45;&gt;Node8 -->
<g id="edge7_Node000001_Node000008" class="edge">
<title>Node1&#45;&gt;Node8</title>
<g id="a_edge7_Node000001_Node000008"><a xlink:title=" ">
<path fill="none" stroke="#63b8ff" d="M1563.38,-204.49C1563.38,-194.3 1563.38,-183.03 1563.38,-174.25"/>
<polygon fill="#63b8ff" stroke="#63b8ff" points="1559.88,-204.22 1563.38,-214.22 1566.88,-204.22 1559.88,-204.22"/>
</a>
</g>
</g>
<!-- Node9 -->
<g id="Node000009" class="node">
<title>Node9</title>
<g id="a_Node000009"><a xlink:href="_content_service_8cpp.html" target="_top" xlink:title=" ">
<polygon fill="white" stroke="#666666" points="1782.75,-174 1640,-174 1640,-142 1782.75,-142 1782.75,-174"/>
<text xml:space="preserve" text-anchor="start" x="1648" y="-160.5" font-family="Helvetica,sans-Serif" font-size="10.00">FIEAGameEngine/src</text>
<text xml:space="preserve" text-anchor="middle" x="1711.38" y="-148.5" font-family="Helvetica,sans-Serif" font-size="10.00">/Content/ContentService.cpp</text>
</a>
</g>
</g>
<!-- Node1&#45;&gt;Node9 -->
<g id="edge8_Node000001_Node000009" class="edge">
<title>Node1&#45;&gt;Node9</title>
<g id="a_edge8_Node000001_Node000009"><a xlink:title=" ">
<path fill="none" stroke="#63b8ff" d="M1605.22,-210.64C1628.86,-199.14 1657.94,-185 1679.68,-174.42"/>
<polygon fill="#63b8ff" stroke="#63b8ff" points="1603.95,-207.37 1596.49,-214.89 1607.01,-213.66 1603.95,-207.37"/>
</a>
</g>
</g>
<!-- Node10 -->
<g id="Node000010" class="node">
<title>Node10</title>
<g id="a_Node000010"><a xlink:href="_game_object_handler_8h.html" target="_top" xlink:title=" ">
<polygon fill="white" stroke="#666666" points="697,-174 543.75,-174 543.75,-142 697,-142 697,-174"/>
<text xml:space="preserve" text-anchor="start" x="551.75" y="-160.5" font-family="Helvetica,sans-Serif" font-size="10.00">FIEAGameEngine/src</text>
<text xml:space="preserve" text-anchor="middle" x="620.38" y="-148.5" font-family="Helvetica,sans-Serif" font-size="10.00">/Content/GameObjectHandler.h</text>
</a>
</g>
</g>
<!-- Node1&#45;&gt;Node10 -->
<g id="edge9_Node000001_Node000010" class="edge">
<title>Node1&#45;&gt;Node10</title>
<g id="a_edge9_Node000001_Node000010"><a xlink:title=" ">
<path fill="none" stroke="#63b8ff" d="M1463.67,-230.41C1304.03,-228.27 981.53,-218.98 711.38,-180 701.43,-178.56 690.96,-176.59 680.81,-174.43"/>
<polygon fill="#63b8ff" stroke="#63b8ff" points="1463.32,-233.91 1473.37,-230.54 1463.41,-226.91 1463.32,-233.91"/>
</a>
</g>
</g>
<!-- Node12 -->
<g id="Node000012" class="node">
<title>Node12</title>
<g id="a_Node000012"><a xlink:href="_parser_8h.html" target="_top" xlink:title=" ">
<polygon fill="white" stroke="#666666" points="1912,-174 1800.75,-174 1800.75,-142 1912,-142 1912,-174"/>
<text xml:space="preserve" text-anchor="start" x="1808.75" y="-160.5" font-family="Helvetica,sans-Serif" font-size="10.00">FIEAGameEngine/src</text>
<text xml:space="preserve" text-anchor="middle" x="1856.38" y="-148.5" font-family="Helvetica,sans-Serif" font-size="10.00">/Content/Parser.h</text>
</a>
</g>
</g>
<!-- Node1&#45;&gt;Node12 -->
<g id="edge11_Node000001_Node000012" class="edge">
<title>Node1&#45;&gt;Node12</title>
<g id="a_edge11_Node000001_Node000012"><a xlink:title=" ">
<path fill="none" stroke="#63b8ff" d="M1652,-213.17C1694.4,-204.13 1745.75,-192.44 1791.38,-180 1797.55,-178.31 1804.02,-176.41 1810.37,-174.44"/>
<polygon fill="#63b8ff" stroke="#63b8ff" points="1651.39,-209.72 1642.33,-215.21 1652.84,-216.57 1651.39,-209.72"/>
</a>
</g>
</g>
<!-- Node14 -->
<g id="Node000014" class="node">
<title>Node14</title>
<g id="a_Node000014"><a xlink:href="_parser_writer_8cpp.html" target="_top" xlink:title=" ">
<polygon fill="white" stroke="#666666" points="2059,-174 1929.75,-174 1929.75,-142 2059,-142 2059,-174"/>
<text xml:space="preserve" text-anchor="start" x="1937.75" y="-160.5" font-family="Helvetica,sans-Serif" font-size="10.00">FIEAGameEngine/src</text>
<text xml:space="preserve" text-anchor="middle" x="1994.38" y="-148.5" font-family="Helvetica,sans-Serif" font-size="10.00">/Content/ParserWriter.cpp</text>
</a>
</g>
</g>
<!-- Node1&#45;&gt;Node14 -->
<g id="edge13_Node000001_Node000014" class="edge">
<title>Node1&#45;&gt;Node14</title>
<g id="a_edge13_Node000001_Node000014"><a xlink:title=" ">
<path fill="none" stroke="#63b8ff" d="M1663.22,-220.53C1735.4,-212.06 1834.99,-198.49 1921.38,-180 1928.73,-178.43 1936.42,-176.51 1943.95,-174.49"/>
<polygon fill="#63b8ff" stroke="#63b8ff" points="1662.92,-217.05 1653.39,-221.68 1663.72,-224 1662.92,-217.05"/>
</a>
</g>
</g>
<!-- Node15 -->
<g id="Node000015" class="node">
<title>Node15</title>
<g id="a_Node000015"><a xlink:href="_primitive_type_handler_8h.html" target="_top" xlink:title=" ">
<polygon fill="white" stroke="#666666" points="1014.25,-174 856.5,-174 856.5,-142 1014.25,-142 1014.25,-174"/>
<text xml:space="preserve" text-anchor="start" x="864.5" y="-160.5" font-family="Helvetica,sans-Serif" font-size="10.00">FIEAGameEngine/src</text>
<text xml:space="preserve" text-anchor="middle" x="935.38" y="-148.5" font-family="Helvetica,sans-Serif" font-size="10.00">/Content/PrimitiveTypeHandler.h</text>
</a>
</g>
</g>
<!-- Node1&#45;&gt;Node15 -->
<g id="edge14_Node000001_Node000015" class="edge">
<title>Node1&#45;&gt;Node15</title>
<g id="a_edge14_Node000001_Node000015"><a xlink:title=" ">
<path fill="none" stroke="#63b8ff" d="M1463.69,-225.78C1354.91,-219.11 1175.91,-205.28 1023.38,-180 1014.23,-178.49 1004.63,-176.55 995.27,-174.48"/>
<polygon fill="#63b8ff" stroke="#63b8ff" points="1463.26,-229.26 1473.45,-226.37 1463.68,-222.27 1463.26,-229.26"/>
</a>
</g>
</g>
<!-- Node17 -->
<g id="Node000017" class="node">
<title>Node17</title>
<g id="a_Node000017"><a xlink:href="_scope_factory_handler_8h.html" target="_top" xlink:title=" ">
<polygon fill="white" stroke="#666666" points="1192,-174 1032.75,-174 1032.75,-142 1192,-142 1192,-174"/>
<text xml:space="preserve" text-anchor="start" x="1040.75" y="-160.5" font-family="Helvetica,sans-Serif" font-size="10.00">FIEAGameEngine/src</text>
<text xml:space="preserve" text-anchor="middle" x="1112.38" y="-148.5" font-family="Helvetica,sans-Serif" font-size="10.00">/Content/ScopeFactoryHandler.h</text>
</a>
</g>
</g>
<!-- Node1&#45;&gt;Node17 -->
<g id="edge16_Node000001_Node000017" class="edge">
<title>Node1&#45;&gt;Node17</title>
<g id="a_edge16_Node000001_Node000017"><a xlink:title=" ">
<path fill="none" stroke="#63b8ff" d="M1463.85,-219.48C1390.9,-210.42 1289.63,-196.59 1201.38,-180 1192.64,-178.36 1183.46,-176.43 1174.46,-174.42"/>
<polygon fill="#63b8ff" stroke="#63b8ff" points="1463,-222.9 1473.35,-220.65 1463.86,-215.95 1463,-222.9"/>
</a>
</g>
</g>
<!-- Node19 -->
<g id="Node000019" class="node">
<title>Node19</title>
<g id="a_Node000019"><a xlink:href="_scope_handler_8h.html" target="_top" xlink:title=" ">
<polygon fill="white" stroke="#666666" points="1336.5,-174 1210.25,-174 1210.25,-142 1336.5,-142 1336.5,-174"/>
<text xml:space="preserve" text-anchor="start" x="1218.25" y="-160.5" font-family="Helvetica,sans-Serif" font-size="10.00">FIEAGameEngine/src</text>
<text xml:space="preserve" text-anchor="middle" x="1273.38" y="-148.5" font-family="Helvetica,sans-Serif" font-size="10.00">/Content/ScopeHandler.h</text>
</a>
</g>
</g>
<!-- Node1&#45;&gt;Node19 -->
<g id="edge18_Node000001_Node000019" class="edge">
<title>Node1&#45;&gt;Node19</title>
<g id="a_edge18_Node000001_Node000019"><a xlink:title=" ">
<path fill="none" stroke="#63b8ff" d="M1481.89,-213.04C1440.82,-203.7 1390.32,-191.8 1345.38,-180 1338.83,-178.28 1331.97,-176.39 1325.19,-174.48"/>
<polygon fill="#63b8ff" stroke="#63b8ff" points="1480.94,-216.41 1491.46,-215.2 1482.48,-209.58 1480.94,-216.41"/>
</a>
</g>
</g>
<!-- Node21 -->
<g id="Node000021" class="node">
<title>Node21</title>
<g id="a_Node000021"><a xlink:href="_scope_writer_8h.html" target="_top" xlink:title=" ">
<polygon fill="white" stroke="#666666" points="838.38,-174 720.38,-174 720.38,-142 838.38,-142 838.38,-174"/>
<text xml:space="preserve" text-anchor="start" x="728.38" y="-160.5" font-family="Helvetica,sans-Serif" font-size="10.00">FIEAGameEngine/src</text>
<text xml:space="preserve" text-anchor="middle" x="779.38" y="-148.5" font-family="Helvetica,sans-Serif" font-size="10.00">/Content/ScopeWriter.h</text>
</a>
</g>
</g>
<!-- Node1&#45;&gt;Node21 -->
<g id="edge20_Node000001_Node000021" class="edge">
<title>Node1&#45;&gt;Node21</title>
<g id="a_edge20_Node000001_Node000021"><a xlink:title=" ">
<path fill="none" stroke="#63b8ff" d="M1463.18,-231.04C1323.89,-229.48 1064.35,-220.68 847.38,-180 839.85,-178.59 831.97,-176.63 824.37,-174.47"/>
<polygon fill="#63b8ff" stroke="#63b8ff" points="1463.1,-234.54 1473.13,-231.14 1463.17,-227.54 1463.1,-234.54"/>
</a>
</g>
</g>
<!-- Node24 -->
<g id="Node000024" class="node">
<title>Node24</title>
<g id="a_Node000024"><a xlink:href="_special_primitives_handler_8h.html" target="_top" xlink:title=" ">
<polygon fill="white" stroke="#666666" points="1486.5,-180 1354.25,-180 1354.25,-136 1486.5,-136 1486.5,-180"/>
<text xml:space="preserve" text-anchor="start" x="1362.25" y="-166.5" font-family="Helvetica,sans-Serif" font-size="10.00">FIEAGameEngine/src</text>
<text xml:space="preserve" text-anchor="start" x="1362.25" y="-154.5" font-family="Helvetica,sans-Serif" font-size="10.00">/Content/SpecialPrimitives</text>
<text xml:space="preserve" text-anchor="middle" x="1420.38" y="-142.5" font-family="Helvetica,sans-Serif" font-size="10.00">Handler.h</text>
</a>
</g>
</g>
<!-- Node1&#45;&gt;Node24 -->
<g id="edge30_Node000001_Node000024" class="edge">
<title>Node1&#45;&gt;Node24</title>
<g id="a_edge30_Node000001_Node000024"><a xlink:title=" ">
<path fill="none" stroke="#63b8ff" d="M1522.45,-210.4C1503.82,-201.01 1481.77,-189.91 1462.93,-180.43"/>
<polygon fill="#63b8ff" stroke="#63b8ff" points="1520.84,-213.5 1531.35,-214.87 1523.99,-207.25 1520.84,-213.5"/>
</a>
</g>
</g>
<!-- Node25 -->
<g id="Node000025" class="node">
<title>Node25</title>
<g id="a_Node000025"><a xlink:href="_json_parser_tests_8cpp.html" target="_top" xlink:title=" ">
<polygon fill="white" stroke="#666666" points="2343,-20 2207.75,-20 2207.75,0 2343,0 2343,-20"/>
<text xml:space="preserve" text-anchor="middle" x="2275.38" y="-6.5" font-family="Helvetica,sans-Serif" font-size="10.00">Tests/JsonParserTests.cpp</text>
</a>
</g>
</g>
<!-- Node1&#45;&gt;Node25 -->
<g id="edge32_Node000001_Node000025" class="edge">
<title>Node1&#45;&gt;Node25</title>
<g id="a_edge32_Node000001_Node000025"><a xlink:title=" ">
<path fill="none" stroke="#63b8ff" d="M1663.29,-228.89C1842.03,-224.36 2209.41,-211.46 2333.38,-180 2415.88,-159.06 2461.45,-171.66 2507.38,-100 2517.93,-83.54 2519.82,-71.09 2507.38,-56 2486.88,-31.15 2404.27,-19.86 2343.43,-14.84"/>
<polygon fill="#63b8ff" stroke="#63b8ff" points="1663.22,-225.39 1653.31,-229.14 1663.39,-232.39 1663.22,-225.39"/>
</a>
</g>
</g>
<!-- Node26 -->
<g id="Node000026" class="node">
<title>Node26</title>
<g id="a_Node000026"><a xlink:href="_scope_parser_test_8cpp.html" target="_top" xlink:title=" ">
<polygon fill="white" stroke="#666666" points="2690.75,-168 2554,-168 2554,-148 2690.75,-148 2690.75,-168"/>
<text xml:space="preserve" text-anchor="middle" x="2622.38" y="-154.5" font-family="Helvetica,sans-Serif" font-size="10.00">Tests/ScopeParserTest.cpp</text>
</a>
</g>
</g>
<!-- Node1&#45;&gt;Node26 -->
<g id="edge33_Node000001_Node000026" class="edge">
<title>Node1&#45;&gt;Node26</title>
<g id="a_edge33_Node000001_Node000026"><a xlink:title=" ">
<path fill="none" stroke="#63b8ff" d="M1663.25,-228.3C1877.14,-222.12 2373.57,-205.46 2540.38,-180 2557.52,-177.38 2576.28,-172.72 2591.52,-168.45"/>
<polygon fill="#63b8ff" stroke="#63b8ff" points="1663.45,-224.8 1653.56,-228.58 1663.65,-231.79 1663.45,-224.8"/>
</a>
</g>
</g>
<!-- Node27 -->
<g id="Node000027" class="node">
<title>Node27</title>
<g id="a_Node000027"><a xlink:href="_float_handler_8h.html" target="_top" xlink:title=" ">
<polygon fill="white" stroke="#666666" points="2347.12,-88 2203.62,-88 2203.62,-68 2347.12,-68 2347.12,-88"/>
<text xml:space="preserve" text-anchor="middle" x="2275.38" y="-74.5" font-family="Helvetica,sans-Serif" font-size="10.00">Tests/Support/FloatHandler.h</text>
</a>
</g>
</g>
<!-- Node1&#45;&gt;Node27 -->
<g id="edge34_Node000001_Node000027" class="edge">
<title>Node1&#45;&gt;Node27</title>
<g id="a_edge34_Node000001_Node000027"><a xlink:title=" ">
<path fill="none" stroke="#63b8ff" d="M1663.19,-230.27C1844.47,-227.99 2213.16,-218.61 2256.38,-180 2282.85,-156.34 2279.65,-108.44 2276.91,-88.27"/>
<polygon fill="#63b8ff" stroke="#63b8ff" points="1663.26,-226.77 1653.31,-230.39 1663.35,-233.77 1663.26,-226.77"/>
</a>
</g>
</g>
<!-- Node28 -->
<g id="Node000028" class="node">
<title>Node28</title>
<g id="a_Node000028"><a xlink:href="_int_handler_8h.html" target="_top" xlink:title=" ">
<polygon fill="white" stroke="#666666" points="2497.88,-88 2364.88,-88 2364.88,-68 2497.88,-68 2497.88,-88"/>
<text xml:space="preserve" text-anchor="middle" x="2431.38" y="-74.5" font-family="Helvetica,sans-Serif" font-size="10.00">Tests/Support/IntHandler.h</text>
</a>
</g>
</g>
<!-- Node1&#45;&gt;Node28 -->
<g id="edge36_Node000001_Node000028" class="edge">
<title>Node1&#45;&gt;Node28</title>
<g id="a_edge36_Node000001_Node000028"><a xlink:title=" ">
<path fill="none" stroke="#63b8ff" d="M1663.31,-230.19C1832.81,-227.77 2169.09,-218.15 2280.38,-180 2340.04,-159.54 2398.64,-109.4 2421.43,-88.45"/>
<polygon fill="#63b8ff" stroke="#63b8ff" points="1663.36,-226.69 1653.41,-230.32 1663.46,-233.69 1663.36,-226.69"/>
</a>
</g>
</g>
<!-- Node29 -->
<g id="Node000029" class="node">
<title>Node29</title>
<g id="a_Node000029"><a xlink:href="_string_handler_8h.html" target="_top" xlink:title=" ">
<polygon fill="white" stroke="#666666" points="1987,-88 1839.75,-88 1839.75,-68 1987,-68 1987,-88"/>
<text xml:space="preserve" text-anchor="middle" x="1913.38" y="-74.5" font-family="Helvetica,sans-Serif" font-size="10.00">Tests/Support/StringHandler.h</text>
</a>
</g>
</g>
<!-- Node1&#45;&gt;Node29 -->
<g id="edge38_Node000001_Node000029" class="edge">
<title>Node1&#45;&gt;Node29</title>
<g id="a_edge38_Node000001_Node000029"><a xlink:title=" ">
<path fill="none" stroke="#63b8ff" d="M1663.16,-227.97C1802.6,-222.7 2041.76,-209.43 2068.38,-180 2081.49,-165.49 2079.56,-152.04 2068.38,-136 2054.96,-116.78 1995.46,-98.86 1954.21,-88.42"/>
<polygon fill="#63b8ff" stroke="#63b8ff" points="1663.43,-224.46 1653.57,-228.33 1663.69,-231.45 1663.43,-224.46"/>
</a>
</g>
</g>
<!-- Node30 -->
<g id="Node000030" class="node">
<title>Node30</title>
<g id="a_Node000030"><a xlink:href="_test_writer_8h.html" target="_top" xlink:title=" ">
<polygon fill="white" stroke="#666666" points="2247.5,-168 2115.25,-168 2115.25,-148 2247.5,-148 2247.5,-168"/>
<text xml:space="preserve" text-anchor="middle" x="2181.38" y="-154.5" font-family="Helvetica,sans-Serif" font-size="10.00">Tests/Support/TestWriter.h</text>
</a>
</g>
</g>
<!-- Node1&#45;&gt;Node30 -->
<g id="edge40_Node000001_Node000030" class="edge">
<title>Node1&#45;&gt;Node30</title>
<g id="a_edge40_Node000001_Node000030"><a xlink:title=" ">
<path fill="none" stroke="#63b8ff" d="M1663.29,-226.38C1771.8,-220.24 1949.92,-206.87 2101.38,-180 2117.63,-177.11 2135.43,-172.58 2150.1,-168.47"/>
<polygon fill="#63b8ff" stroke="#63b8ff" points="1663.33,-222.88 1653.54,-226.92 1663.72,-229.86 1663.33,-222.88"/>
</a>
</g>
</g>
<!-- Node3 -->
<g id="Node000003" class="node">
<title>Node3</title>
<g id="a_Node000003"><a xlink:href="_action_handler_8cpp.html" target="_top" xlink:title=" ">
<polygon fill="white" stroke="#666666" points="136.75,-94 0,-94 0,-62 136.75,-62 136.75,-94"/>
<text xml:space="preserve" text-anchor="start" x="8" y="-80.5" font-family="Helvetica,sans-Serif" font-size="10.00">FIEAGameEngine/src</text>
<text xml:space="preserve" text-anchor="middle" x="68.38" y="-68.5" font-family="Helvetica,sans-Serif" font-size="10.00">/Content/ActionHandler.cpp</text>
</a>
</g>
</g>
<!-- Node2&#45;&gt;Node3 -->
<g id="edge2_Node000002_Node000003" class="edge">
<title>Node2&#45;&gt;Node3</title>
<g id="a_edge2_Node000002_Node000003"><a xlink:title=" ">
<path fill="none" stroke="#63b8ff" d="M75.62,-130.37C73.93,-118.37 71.99,-104.63 70.54,-94.38"/>
<polygon fill="#63b8ff" stroke="#63b8ff" points="72.13,-130.68 76.99,-140.09 79.06,-129.7 72.13,-130.68"/>
</a>
</g>
</g>
<!-- Node5 -->
<g id="Node000005" class="node">
<title>Node5</title>
<g id="a_Node000005"><a xlink:href="_action_list_handler_8cpp.html" target="_top" xlink:title=" ">
<polygon fill="white" stroke="#666666" points="307.62,-94 155.12,-94 155.12,-62 307.62,-62 307.62,-94"/>
<text xml:space="preserve" text-anchor="start" x="163.12" y="-80.5" font-family="Helvetica,sans-Serif" font-size="10.00">FIEAGameEngine/src</text>
<text xml:space="preserve" text-anchor="middle" x="231.38" y="-68.5" font-family="Helvetica,sans-Serif" font-size="10.00">/Content/ActionListHandler.cpp</text>
</a>
</g>
</g>
<!-- Node4&#45;&gt;Node5 -->
<g id="edge4_Node000004_Node000005" class="edge">
<title>Node4&#45;&gt;Node5</title>
<g id="a_edge4_Node000004_Node000005"><a xlink:title=" ">
<path fill="none" stroke="#63b8ff" d="M234.67,-130.37C233.9,-118.37 233.02,-104.63 232.36,-94.38"/>
<polygon fill="#63b8ff" stroke="#63b8ff" points="231.16,-130.32 235.29,-140.08 238.14,-129.88 231.16,-130.32"/>
</a>
</g>
</g>
<!-- Node7 -->
<g id="Node000007" class="node">
<title>Node7</title>
<g id="a_Node000007"><a xlink:href="_action_while_param_handler_8cpp.html" target="_top" xlink:title=" ">
<polygon fill="white" stroke="#666666" points="515.38,-94 325.38,-94 325.38,-62 515.38,-62 515.38,-94"/>
<text xml:space="preserve" text-anchor="start" x="333.38" y="-80.5" font-family="Helvetica,sans-Serif" font-size="10.00">FIEAGameEngine/src</text>
<text xml:space="preserve" text-anchor="middle" x="420.38" y="-68.5" font-family="Helvetica,sans-Serif" font-size="10.00">/Content/ActionWhileParamHandler.cpp</text>
</a>
</g>
</g>
<!-- Node6&#45;&gt;Node7 -->
<g id="edge6_Node000006_Node000007" class="edge">
<title>Node6&#45;&gt;Node7</title>
<g id="a_edge6_Node000006_Node000007"><a xlink:title=" ">
<path fill="none" stroke="#63b8ff" d="M425.64,-130.37C424.41,-118.37 423,-104.63 421.95,-94.38"/>
<polygon fill="#63b8ff" stroke="#63b8ff" points="422.14,-130.49 426.64,-140.08 429.1,-129.78 422.14,-130.49"/>
</a>
</g>
</g>
<!-- Node11 -->
<g id="Node000011" class="node">
<title>Node11</title>
<g id="a_Node000011"><a xlink:href="_game_object_handler_8cpp.html" target="_top" xlink:title=" ">
<polygon fill="white" stroke="#666666" points="697.25,-94 533.5,-94 533.5,-62 697.25,-62 697.25,-94"/>
<text xml:space="preserve" text-anchor="start" x="541.5" y="-80.5" font-family="Helvetica,sans-Serif" font-size="10.00">FIEAGameEngine/src</text>
<text xml:space="preserve" text-anchor="middle" x="615.38" y="-68.5" font-family="Helvetica,sans-Serif" font-size="10.00">/Content/GameObjectHandler.cpp</text>
</a>
</g>
</g>
<!-- Node10&#45;&gt;Node11 -->
<g id="edge10_Node000010_Node000011" class="edge">
<title>Node10&#45;&gt;Node11</title>
<g id="a_edge10_Node000010_Node000011"><a xlink:title=" ">
<path fill="none" stroke="#63b8ff" d="M618.67,-130.37C617.9,-118.37 617.02,-104.63 616.36,-94.38"/>
<polygon fill="#63b8ff" stroke="#63b8ff" points="615.16,-130.32 619.29,-140.08 622.14,-129.88 615.16,-130.32"/>
</a>
</g>
</g>
<!-- Node13 -->
<g id="Node000013" class="node">
<title>Node13</title>
<g id="a_Node000013"><a xlink:href="_parser_8cpp.html" target="_top" xlink:title=" ">
<polygon fill="white" stroke="#666666" points="1822,-94 1710.75,-94 1710.75,-62 1822,-62 1822,-94"/>
<text xml:space="preserve" text-anchor="start" x="1718.75" y="-80.5" font-family="Helvetica,sans-Serif" font-size="10.00">FIEAGameEngine/src</text>
<text xml:space="preserve" text-anchor="middle" x="1766.38" y="-68.5" font-family="Helvetica,sans-Serif" font-size="10.00">/Content/Parser.cpp</text>
</a>
</g>
</g>
<!-- Node12&#45;&gt;Node13 -->
<g id="edge12_Node000012_Node000013" class="edge">
<title>Node12&#45;&gt;Node13</title>
<g id="a_edge12_Node000012_Node000013"><a xlink:title=" ">
<path fill="none" stroke="#63b8ff" d="M1829.9,-134.05C1815.15,-121.27 1797.18,-105.69 1784.12,-94.38"/>
<polygon fill="#63b8ff" stroke="#63b8ff" points="1827.6,-136.69 1837.45,-140.6 1832.19,-131.4 1827.6,-136.69"/>
</a>
</g>
</g>
<!-- Node16 -->
<g id="Node000016" class="node">
<title>Node16</title>
<g id="a_Node000016"><a xlink:href="_primitive_type_handler_8cpp.html" target="_top" xlink:title=" ">
<polygon fill="white" stroke="#666666" points="1029.5,-94 861.25,-94 861.25,-62 1029.5,-62 1029.5,-94"/>
<text xml:space="preserve" text-anchor="start" x="869.25" y="-80.5" font-family="Helvetica,sans-Serif" font-size="10.00">FIEAGameEngine/src</text>
<text xml:space="preserve" text-anchor="middle" x="945.38" y="-68.5" font-family="Helvetica,sans-Serif" font-size="10.00">/Content/PrimitiveTypeHandler.cpp</text>
</a>
</g>
</g>
<!-- Node15&#45;&gt;Node16 -->
<g id="edge15_Node000015_Node000016" class="edge">
<title>Node15&#45;&gt;Node16</title>
<g id="a_edge15_Node000015_Node000016"><a xlink:title=" ">
<path fill="none" stroke="#63b8ff" d="M938.79,-130.37C940.33,-118.37 942.09,-104.63 943.4,-94.38"/>
<polygon fill="#63b8ff" stroke="#63b8ff" points="935.34,-129.72 937.54,-140.09 942.29,-130.61 935.34,-129.72"/>
</a>
</g>
</g>
<!-- Node18 -->
<g id="Node000018" class="node">
<title>Node18</title>
<g id="a_Node000018"><a xlink:href="_scope_factory_handler_8cpp.html" target="_top" xlink:title=" ">
<polygon fill="white" stroke="#666666" points="1217.25,-94 1047.5,-94 1047.5,-62 1217.25,-62 1217.25,-94"/>
<text xml:space="preserve" text-anchor="start" x="1055.5" y="-80.5" font-family="Helvetica,sans-Serif" font-size="10.00">FIEAGameEngine/src</text>
<text xml:space="preserve" text-anchor="middle" x="1132.38" y="-68.5" font-family="Helvetica,sans-Serif" font-size="10.00">/Content/ScopeFactoryHandler.cpp</text>
</a>
</g>
</g>
<!-- Node17&#45;&gt;Node18 -->
<g id="edge17_Node000017_Node000018" class="edge">
<title>Node17&#45;&gt;Node18</title>
<g id="a_edge17_Node000017_Node000018"><a xlink:title=" ">
<path fill="none" stroke="#63b8ff" d="M1119.11,-130.74C1122.21,-118.65 1125.78,-104.73 1128.43,-94.38"/>
<polygon fill="#63b8ff" stroke="#63b8ff" points="1115.8,-129.57 1116.7,-140.12 1122.58,-131.31 1115.8,-129.57"/>
</a>
</g>
</g>
<!-- Node20 -->
<g id="Node000020" class="node">
<title>Node20</title>
<g id="a_Node000020"><a xlink:href="_scope_handler_8cpp.html" target="_top" xlink:title=" ">
<polygon fill="white" stroke="#666666" points="1371.75,-94 1235,-94 1235,-62 1371.75,-62 1371.75,-94"/>
<text xml:space="preserve" text-anchor="start" x="1243" y="-80.5" font-family="Helvetica,sans-Serif" font-size="10.00">FIEAGameEngine/src</text>
<text xml:space="preserve" text-anchor="middle" x="1303.38" y="-68.5" font-family="Helvetica,sans-Serif" font-size="10.00">/Content/ScopeHandler.cpp</text>
</a>
</g>
</g>
<!-- Node19&#45;&gt;Node20 -->
<g id="edge19_Node000019_Node000020" class="edge">
<title>Node19&#45;&gt;Node20</title>
<g id="a_edge19_Node000019_Node000020"><a xlink:title=" ">
<path fill="none" stroke="#63b8ff" d="M1283.33,-131.11C1288.01,-118.94 1293.44,-104.84 1297.46,-94.38"/>
<polygon fill="#63b8ff" stroke="#63b8ff" points="1280.17,-129.59 1279.85,-140.18 1286.7,-132.1 1280.17,-129.59"/>
</a>
</g>
</g>
<!-- Node21&#45;&gt;Node3 -->
<g id="edge21_Node000021_Node000003" class="edge">
<title>Node21&#45;&gt;Node3</title>
<g id="a_edge21_Node000021_Node000003"><a xlink:title=" ">
<path fill="none" stroke="#63b8ff" d="M720.21,-138.83C715.56,-137.75 710.91,-136.79 706.38,-136 460.66,-93.28 392.45,-140.62 146.38,-100 137.8,-98.58 128.8,-96.62 120.09,-94.46"/>
<polygon fill="#63b8ff" stroke="#63b8ff" points="719.01,-142.13 729.56,-141.15 720.69,-135.34 719.01,-142.13"/>
</a>
</g>
</g>
<!-- Node21&#45;&gt;Node5 -->
<g id="edge22_Node000021_Node000005" class="edge">
<title>Node21&#45;&gt;Node5</title>
<g id="a_edge22_Node000021_Node000005"><a xlink:title=" ">
<path fill="none" stroke="#63b8ff" d="M719.58,-138.82C715.13,-137.77 710.7,-136.81 706.38,-136 535.31,-103.8 488.02,-128.96 316.38,-100 307.38,-98.48 297.93,-96.52 288.74,-94.41"/>
<polygon fill="#63b8ff" stroke="#63b8ff" points="718.58,-142.18 729.13,-141.23 720.29,-135.39 718.58,-142.18"/>
</a>
</g>
</g>
<!-- Node21&#45;&gt;Node7 -->
<g id="edge23_Node000021_Node000007" class="edge">
<title>Node21&#45;&gt;Node7</title>
<g id="a_edge23_Node000021_Node000007"><a xlink:title=" ">
<path fill="none" stroke="#63b8ff" d="M716.61,-138.58C713.16,-137.68 709.73,-136.81 706.38,-136 626.24,-116.58 605.23,-116.16 524.38,-100 515.43,-98.21 506.06,-96.33 496.76,-94.46"/>
<polygon fill="#63b8ff" stroke="#63b8ff" points="715.65,-141.94 726.21,-141.15 717.46,-135.18 715.65,-141.94"/>
</a>
</g>
</g>
<!-- Node21&#45;&gt;Node11 -->
<g id="edge24_Node000021_Node000011" class="edge">
<title>Node21&#45;&gt;Node11</title>
<g id="a_edge24_Node000021_Node000011"><a xlink:title=" ">
<path fill="none" stroke="#63b8ff" d="M736.74,-136.72C708.92,-123.49 673.19,-106.5 647.71,-94.38"/>
<polygon fill="#63b8ff" stroke="#63b8ff" points="735.07,-139.81 745.61,-140.94 738.08,-133.48 735.07,-139.81"/>
</a>
</g>
</g>
<!-- Node21&#45;&gt;Node16 -->
<g id="edge25_Node000021_Node000016" class="edge">
<title>Node21&#45;&gt;Node16</title>
<g id="a_edge25_Node000021_Node000016"><a xlink:title=" ">
<path fill="none" stroke="#63b8ff" d="M822.53,-136.72C850.69,-123.49 886.86,-106.5 912.65,-94.38"/>
<polygon fill="#63b8ff" stroke="#63b8ff" points="821.1,-133.53 813.54,-140.95 824.08,-139.86 821.1,-133.53"/>
</a>
</g>
</g>
<!-- Node21&#45;&gt;Node18 -->
<g id="edge26_Node000021_Node000018" class="edge">
<title>Node21&#45;&gt;Node18</title>
<g id="a_edge26_Node000021_Node000018"><a xlink:title=" ">
<path fill="none" stroke="#63b8ff" d="M837.94,-138.46C841.12,-137.59 844.28,-136.77 847.38,-136 931.22,-115.22 953.77,-117.42 1038.38,-100 1046.81,-98.26 1055.66,-96.38 1064.4,-94.47"/>
<polygon fill="#63b8ff" stroke="#63b8ff" points="837.24,-135.02 828.57,-141.1 839.14,-141.75 837.24,-135.02"/>
</a>
</g>
</g>
<!-- Node21&#45;&gt;Node20 -->
<g id="edge27_Node000021_Node000020" class="edge">
<title>Node21&#45;&gt;Node20</title>
<g id="a_edge27_Node000021_Node000020"><a xlink:title=" ">
<path fill="none" stroke="#63b8ff" d="M835.75,-138.63C839.66,-137.65 843.56,-136.76 847.38,-136 1013.3,-102.86 1059.92,-130.37 1226.38,-100 1234.55,-98.51 1243.13,-96.56 1251.46,-94.46"/>
<polygon fill="#63b8ff" stroke="#63b8ff" points="834.98,-135.21 826.23,-141.19 836.79,-141.97 834.98,-135.21"/>
</a>
</g>
</g>
<!-- Node22 -->
<g id="Node000022" class="node">
<title>Node22</title>
<g id="a_Node000022"><a xlink:href="_scope_writer_8cpp.html" target="_top" xlink:title=" ">
<polygon fill="white" stroke="#666666" points="843.62,-94 715.12,-94 715.12,-62 843.62,-62 843.62,-94"/>
<text xml:space="preserve" text-anchor="start" x="723.12" y="-80.5" font-family="Helvetica,sans-Serif" font-size="10.00">FIEAGameEngine/src</text>
<text xml:space="preserve" text-anchor="middle" x="779.38" y="-68.5" font-family="Helvetica,sans-Serif" font-size="10.00">/Content/ScopeWriter.cpp</text>
</a>
</g>
</g>
<!-- Node21&#45;&gt;Node22 -->
<g id="edge28_Node000021_Node000022" class="edge">
<title>Node21&#45;&gt;Node22</title>
<g id="a_edge28_Node000021_Node000022"><a xlink:title=" ">
<path fill="none" stroke="#63b8ff" d="M779.38,-130.37C779.38,-118.37 779.38,-104.63 779.38,-94.38"/>
<polygon fill="#63b8ff" stroke="#63b8ff" points="775.88,-130.08 779.38,-140.08 782.88,-130.08 775.88,-130.08"/>
</a>
</g>
</g>
<!-- Node23 -->
<g id="Node000023" class="node">
<title>Node23</title>
<g id="a_Node000023"><a xlink:href="_special_primitives_handler_8cpp.html" target="_top" xlink:title=" ">
<polygon fill="white" stroke="#666666" points="1522.5,-100 1390.25,-100 1390.25,-56 1522.5,-56 1522.5,-100"/>
<text xml:space="preserve" text-anchor="start" x="1398.25" y="-86.5" font-family="Helvetica,sans-Serif" font-size="10.00">FIEAGameEngine/src</text>
<text xml:space="preserve" text-anchor="start" x="1398.25" y="-74.5" font-family="Helvetica,sans-Serif" font-size="10.00">/Content/SpecialPrimitives</text>
<text xml:space="preserve" text-anchor="middle" x="1456.38" y="-62.5" font-family="Helvetica,sans-Serif" font-size="10.00">Handler.cpp</text>
</a>
</g>
</g>
<!-- Node21&#45;&gt;Node23 -->
<g id="edge29_Node000021_Node000023" class="edge">
<title>Node21&#45;&gt;Node23</title>
<g id="a_edge29_Node000021_Node000023"><a xlink:title=" ">
<path fill="none" stroke="#63b8ff" d="M835.17,-138.64C839.28,-137.64 843.37,-136.74 847.38,-136 1080.82,-92.68 1146.31,-139.82 1380.38,-100 1383.48,-99.47 1386.64,-98.87 1389.82,-98.21"/>
<polygon fill="#63b8ff" stroke="#63b8ff" points="834.6,-135.18 825.83,-141.12 836.39,-141.94 834.6,-135.18"/>
</a>
</g>
</g>
<!-- Node24&#45;&gt;Node23 -->
<g id="edge31_Node000024_Node000023" class="edge">
<title>Node24&#45;&gt;Node23</title>
<g id="a_edge31_Node000024_Node000023"><a xlink:title=" ">
<path fill="none" stroke="#63b8ff" d="M1434.97,-125.38C1438.86,-116.94 1442.98,-108.02 1446.55,-100.29"/>
<polygon fill="#63b8ff" stroke="#63b8ff" points="1431.86,-123.77 1430.85,-134.31 1438.21,-126.7 1431.86,-123.77"/>
</a>
</g>
</g>
<!-- Node27&#45;&gt;Node25 -->
<g id="edge35_Node000027_Node000025" class="edge">
<title>Node27&#45;&gt;Node25</title>
<g id="a_edge35_Node000027_Node000025"><a xlink:title=" ">
<path fill="none" stroke="#63b8ff" d="M2275.38,-56.28C2275.38,-44.27 2275.38,-29.74 2275.38,-20.44"/>
<polygon fill="#63b8ff" stroke="#63b8ff" points="2271.88,-56.03 2275.38,-66.03 2278.88,-56.03 2271.88,-56.03"/>
</a>
</g>
</g>
<!-- Node28&#45;&gt;Node25 -->
<g id="edge37_Node000028_Node000025" class="edge">
<title>Node28&#45;&gt;Node25</title>
<g id="a_edge37_Node000028_Node000025"><a xlink:title=" ">
<path fill="none" stroke="#63b8ff" d="M2398.55,-63.11C2368.25,-50.29 2324.08,-31.61 2297.68,-20.44"/>
<polygon fill="#63b8ff" stroke="#63b8ff" points="2397.06,-66.28 2407.63,-66.95 2399.78,-59.83 2397.06,-66.28"/>
</a>
</g>
</g>
<!-- Node29&#45;&gt;Node25 -->
<g id="edge39_Node000029_Node000025" class="edge">
<title>Node29&#45;&gt;Node25</title>
<g id="a_edge39_Node000029_Node000025"><a xlink:title=" ">
<path fill="none" stroke="#63b8ff" d="M1961.51,-64.86C1974.42,-61.78 1988.39,-58.61 2001.38,-56 2072.15,-41.76 2153.88,-28.78 2209.53,-20.46"/>
<polygon fill="#63b8ff" stroke="#63b8ff" points="1960.87,-61.41 1951.97,-67.16 1962.51,-68.22 1960.87,-61.41"/>
</a>
</g>
</g>
<!-- Node30&#45;&gt;Node25 -->
<g id="edge41_Node000030_Node000025" class="edge">
<title>Node30&#45;&gt;Node25</title>
<g id="a_edge41_Node000030_Node000025"><a xlink:title=" ">
<path fill="none" stroke="#63b8ff" d="M2132.74,-144.53C2094.56,-133.64 2045.99,-116.96 2034.38,-100 2023.33,-83.87 2021.88,-71.04 2034.38,-56 2056.03,-29.93 2144,-18.88 2207.41,-14.25"/>
<polygon fill="#63b8ff" stroke="#63b8ff" points="2131.66,-147.86 2142.24,-147.17 2133.54,-141.12 2131.66,-147.86"/>
</a>
</g>
</g>
<!-- Node30&#45;&gt;Node27 -->
<g id="edge42_Node000030_Node000027" class="edge">
<title>Node30&#45;&gt;Node27</title>
<g id="a_edge42_Node000030_Node000027"><a xlink:title=" ">
<path fill="none" stroke="#63b8ff" d="M2201.31,-140.46C2220.35,-124.66 2248.4,-101.38 2263.94,-88.49"/>
<polygon fill="#63b8ff" stroke="#63b8ff" points="2199.15,-137.7 2193.69,-146.78 2203.62,-143.09 2199.15,-137.7"/>
</a>
</g>
</g>
<!-- Node30&#45;&gt;Node28 -->
<g id="edge43_Node000030_Node000028" class="edge">
<title>Node30&#45;&gt;Node28</title>
<g id="a_edge43_Node000030_Node000028"><a xlink:title=" ">
<path fill="none" stroke="#63b8ff" d="M2222.31,-144.23C2272.49,-128.57 2356.38,-102.4 2401.11,-88.44"/>
<polygon fill="#63b8ff" stroke="#63b8ff" points="2221.48,-140.82 2212.98,-147.14 2223.56,-147.5 2221.48,-140.82"/>
</a>
</g>
</g>
<!-- Node30&#45;&gt;Node29 -->
<g id="edge44_Node000030_Node000029" class="edge">
<title>Node30&#45;&gt;Node29</title>
<g id="a_edge44_Node000030_Node000029"><a xlink:title=" ">
<path fill="none" stroke="#63b8ff" d="M2137.89,-144.34C2084.11,-128.69 1993.8,-102.41 1945.74,-88.42"/>
<polygon fill="#63b8ff" stroke="#63b8ff" points="2136.75,-147.66 2147.33,-147.09 2138.7,-140.94 2136.75,-147.66"/>
</a>
</g>
</g>
<!-- Node31 -->
<g id="Node000031" class="node">
<title>Node31</title>
<g id="a_Node000031"><a xlink:href="_test_writer_8cpp.html" target="_top" xlink:title=" ">
<polygon fill="white" stroke="#666666" points="2185.75,-88 2043,-88 2043,-68 2185.75,-68 2185.75,-88"/>
<text xml:space="preserve" text-anchor="middle" x="2114.38" y="-74.5" font-family="Helvetica,sans-Serif" font-size="10.00">Tests/Support/TestWriter.cpp</text>
</a>
</g>
</g>
<!-- Node30&#45;&gt;Node31 -->
<g id="edge45_Node000030_Node000031" class="edge">
<title>Node30&#45;&gt;Node31</title>
<g id="a_edge45_Node000030_Node000031"><a xlink:title=" ">
<path fill="none" stroke="#63b8ff" d="M2166.19,-139.32C2152.55,-123.45 2133.09,-100.78 2122.31,-88.24"/>
<polygon fill="#63b8ff" stroke="#63b8ff" points="2163.27,-141.29 2172.44,-146.6 2168.58,-136.73 2163.27,-141.29"/>
</a>
</g>
</g>
</g>
</svg>
