<?xml version="1.0" encoding="UTF-8" standalone="no"?>
<!DOCTYPE svg PUBLIC "-//W3C//DTD SVG 1.1//EN"
 "http://www.w3.org/Graphics/SVG/1.1/DTD/svg11.dtd">
<!-- Generated by graphviz version 13.1.0 (20250701.0955)
 -->
<!-- Title: FIEAGameEngine/src/Content/ContentService.cpp Pages: 1 -->
<svg width="1046pt" height="432pt"
 viewBox="0.00 0.00 1046.00 432.00" xmlns="http://www.w3.org/2000/svg" xmlns:xlink="http://www.w3.org/1999/xlink">
<g id="graph0" class="graph" transform="scale(1 1) rotate(0) translate(4 428)">
<title>FIEAGameEngine/src/Content/ContentService.cpp</title>
<!-- Node1 -->
<g id="Node000001" class="node">
<title>Node1</title>
<g id="a_Node000001"><a xlink:title=" ">
<polygon fill="#999999" stroke="#666666" points="684.38,-424 541.62,-424 541.62,-392 684.38,-392 684.38,-424"/>
<text xml:space="preserve" text-anchor="start" x="549.62" y="-410.5" font-family="Helvetica,sans-Serif" font-size="10.00">FIEAGameEngine/src</text>
<text xml:space="preserve" text-anchor="middle" x="613" y="-398.5" font-family="Helvetica,sans-Serif" font-size="10.00">/Content/ContentService.cpp</text>
</a>
</g>
</g>
<!-- Node2 -->
<g id="Node000002" class="node">
<title>Node2</title>
<g id="a_Node000002"><a xlink:href="_content_service_8h.html" target="_top" xlink:title=" ">
<polygon fill="white" stroke="#666666" points="617.88,-356 448.12,-356 448.12,-336 617.88,-336 617.88,-356"/>
<text xml:space="preserve" text-anchor="middle" x="533" y="-342.5" font-family="Helvetica,sans-Serif" font-size="10.00">FieaGameEngine/ContentService.h</text>
</a>
</g>
</g>
<!-- Node1&#45;&gt;Node2 -->
<g id="edge1_Node000001_Node000002" class="edge">
<title>Node1&#45;&gt;Node2</title>
<g id="a_edge1_Node000001_Node000002"><a xlink:title=" ">
<path fill="none" stroke="#63b8ff" d="M592.4,-391.55C580.82,-382.87 566.39,-372.04 554.65,-363.24"/>
<polygon fill="#63b8ff" stroke="#63b8ff" points="556.85,-360.52 546.75,-357.32 552.65,-366.12 556.85,-360.52"/>
</a>
</g>
</g>
<!-- Node27 -->
<g id="Node000027" class="node">
<title>Node27</title>
<g id="a_Node000027"><a xlink:title=" ">
<polygon fill="#e0e0e0" stroke="#999999" points="751.88,-356 636.12,-356 636.12,-336 751.88,-336 751.88,-356"/>
<text xml:space="preserve" text-anchor="middle" x="694" y="-342.5" font-family="Helvetica,sans-Serif" font-size="10.00">../src/Content/Parser.h</text>
</a>
</g>
</g>
<!-- Node1&#45;&gt;Node27 -->
<g id="edge45_Node000001_Node000027" class="edge">
<title>Node1&#45;&gt;Node27</title>
<g id="a_edge45_Node000001_Node000027"><a xlink:title=" ">
<path fill="none" stroke="#63b8ff" d="M633.86,-391.55C645.58,-382.87 660.19,-372.04 672.08,-363.24"/>
<polygon fill="#63b8ff" stroke="#63b8ff" points="674.13,-366.07 680.08,-357.31 669.96,-360.45 674.13,-366.07"/>
</a>
</g>
</g>
<!-- Node3 -->
<g id="Node000003" class="node">
<title>Node3</title>
<g id="a_Node000003"><a xlink:href="_types_8h.html" target="_top" xlink:title=" ">
<polygon fill="white" stroke="#666666" points="502.12,-76 369.88,-76 369.88,-56 502.12,-56 502.12,-76"/>
<text xml:space="preserve" text-anchor="middle" x="436" y="-62.5" font-family="Helvetica,sans-Serif" font-size="10.00">FIEAGameEngine/Types.h</text>
</a>
</g>
</g>
<!-- Node2&#45;&gt;Node3 -->
<g id="edge2_Node000002_Node000003" class="edge">
<title>Node2&#45;&gt;Node3</title>
<g id="a_edge2_Node000002_Node000003"><a xlink:title=" ">
<path fill="none" stroke="#63b8ff" d="M512.37,-335.52C483.04,-320.73 430.45,-289.14 409,-244 383.83,-191.03 410.42,-120 426.16,-86.3"/>
<polygon fill="#63b8ff" stroke="#63b8ff" points="429.09,-88.26 430.32,-77.74 422.8,-85.2 429.09,-88.26"/>
</a>
</g>
</g>
<!-- Node12 -->
<g id="Node000012" class="node">
<title>Node12</title>
<g id="a_Node000012"><a xlink:href="_service_mgr_8h.html" target="_top" xlink:title=" ">
<polygon fill="white" stroke="#666666" points="221.75,-132 66.25,-132 66.25,-112 221.75,-112 221.75,-132"/>
<text xml:space="preserve" text-anchor="middle" x="144" y="-118.5" font-family="Helvetica,sans-Serif" font-size="10.00">FIEAGameEngine/ServiceMgr.h</text>
</a>
</g>
</g>
<!-- Node2&#45;&gt;Node12 -->
<g id="edge11_Node000002_Node000012" class="edge">
<title>Node2&#45;&gt;Node12</title>
<g id="a_edge11_Node000002_Node000012"><a xlink:title=" ">
<path fill="none" stroke="#63b8ff" d="M488.62,-335.55C456.58,-327.95 412.68,-315.91 376,-300 287.13,-261.44 259.72,-254.21 189,-188 174.77,-174.68 162.48,-156.13 154.35,-142.26"/>
<polygon fill="#63b8ff" stroke="#63b8ff" points="157.46,-140.65 149.52,-133.64 151.36,-144.07 157.46,-140.65"/>
</a>
</g>
</g>
<!-- Node13 -->
<g id="Node000013" class="node">
<title>Node13</title>
<g id="a_Node000013"><a xlink:title=" ">
<polygon fill="#e0e0e0" stroke="#999999" points="132.38,-76 49.62,-76 49.62,-56 132.38,-56 132.38,-76"/>
<text xml:space="preserve" text-anchor="middle" x="91" y="-62.5" font-family="Helvetica,sans-Serif" font-size="10.00">unordered_map</text>
</a>
</g>
</g>
<!-- Node2&#45;&gt;Node13 -->
<g id="edge43_Node000002_Node000013" class="edge">
<title>Node2&#45;&gt;Node13</title>
<g id="a_edge43_Node000002_Node000013"><a xlink:title=" ">
<path fill="none" stroke="#63b8ff" d="M447.66,-344.78C297.09,-342.08 0,-325.29 0,-235 0,-235 0,-235 0,-177 0,-135.5 38.93,-101.23 65.86,-82.49"/>
<polygon fill="#63b8ff" stroke="#63b8ff" points="67.51,-85.59 73.89,-77.14 63.63,-79.77 67.51,-85.59"/>
</a>
</g>
</g>
<!-- Node14 -->
<g id="Node000014" class="node">
<title>Node14</title>
<g id="a_Node000014"><a xlink:href="_r_t_t_i_8h.html" target="_top" xlink:title=" ">
<polygon fill="white" stroke="#666666" points="662.88,-132 535.12,-132 535.12,-112 662.88,-112 662.88,-132"/>
<text xml:space="preserve" text-anchor="middle" x="599" y="-118.5" font-family="Helvetica,sans-Serif" font-size="10.00">FIEAGameEngine/RTTI.h</text>
</a>
</g>
</g>
<!-- Node2&#45;&gt;Node14 -->
<g id="edge14_Node000002_Node000014" class="edge">
<title>Node2&#45;&gt;Node14</title>
<g id="a_edge14_Node000002_Node000014"><a xlink:title=" ">
<path fill="none" stroke="#63b8ff" d="M573.34,-335.53C616.32,-322.93 681.6,-295.93 707,-244 728.93,-199.17 668.72,-158.41 629.6,-137.58"/>
<polygon fill="#63b8ff" stroke="#63b8ff" points="631.29,-134.51 620.8,-133.05 628.09,-140.74 631.29,-134.51"/>
</a>
</g>
</g>
<!-- Node16 -->
<g id="Node000016" class="node">
<title>Node16</title>
<g id="a_Node000016"><a xlink:href="_attributed_8h.html" target="_top" xlink:title=" ">
<polygon fill="white" stroke="#666666" points="625.88,-300 522.12,-300 522.12,-280 625.88,-280 625.88,-300"/>
<text xml:space="preserve" text-anchor="middle" x="574" y="-286.5" font-family="Helvetica,sans-Serif" font-size="10.00">Content/Attributed.h</text>
</a>
</g>
</g>
<!-- Node2&#45;&gt;Node16 -->
<g id="edge18_Node000002_Node000016" class="edge">
<title>Node2&#45;&gt;Node16</title>
<g id="a_edge18_Node000002_Node000016"><a xlink:title=" ">
<path fill="none" stroke="#63b8ff" d="M540.14,-335.59C545.61,-328.39 553.32,-318.23 560.01,-309.43"/>
<polygon fill="#63b8ff" stroke="#63b8ff" points="562.77,-311.58 566.02,-301.5 557.19,-307.35 562.77,-311.58"/>
</a>
</g>
</g>
<!-- Node17 -->
<g id="Node000017" class="node">
<title>Node17</title>
<g id="a_Node000017"><a xlink:href="_datum_8h.html" target="_top" xlink:title=" ">
<polygon fill="white" stroke="#666666" points="883.5,-188 792.5,-188 792.5,-168 883.5,-168 883.5,-188"/>
<text xml:space="preserve" text-anchor="middle" x="838" y="-174.5" font-family="Helvetica,sans-Serif" font-size="10.00">Content/Datum.h</text>
</a>
</g>
</g>
<!-- Node2&#45;&gt;Node17 -->
<g id="edge41_Node000002_Node000017" class="edge">
<title>Node2&#45;&gt;Node17</title>
<g id="a_edge41_Node000002_Node000017"><a xlink:title=" ">
<path fill="none" stroke="#63b8ff" d="M602.18,-335.52C669.62,-325.76 764.02,-310.54 778,-300 811.12,-275.03 827.12,-226.79 833.84,-199.36"/>
<polygon fill="#63b8ff" stroke="#63b8ff" points="837.2,-200.39 835.97,-189.86 830.37,-198.85 837.2,-200.39"/>
</a>
</g>
</g>
<!-- Node21 -->
<g id="Node000021" class="node">
<title>Node21</title>
<g id="a_Node000021"><a xlink:href="_scope_8h.html" target="_top" xlink:title=" ">
<polygon fill="white" stroke="#666666" points="507.75,-244 418.25,-244 418.25,-224 507.75,-224 507.75,-244"/>
<text xml:space="preserve" text-anchor="middle" x="463" y="-230.5" font-family="Helvetica,sans-Serif" font-size="10.00">Content/Scope.h</text>
</a>
</g>
</g>
<!-- Node2&#45;&gt;Node21 -->
<g id="edge42_Node000002_Node000021" class="edge">
<title>Node2&#45;&gt;Node21</title>
<g id="a_edge42_Node000002_Node000021"><a xlink:title=" ">
<path fill="none" stroke="#63b8ff" d="M527.03,-335.62C515.56,-317.6 490.24,-277.81 475.11,-254.02"/>
<polygon fill="#63b8ff" stroke="#63b8ff" points="478.09,-252.19 469.77,-245.63 472.18,-255.95 478.09,-252.19"/>
</a>
</g>
</g>
<!-- Node26 -->
<g id="Node000026" class="node">
<title>Node26</title>
<g id="a_Node000026"><a xlink:title=" ">
<polygon fill="#e0e0e0" stroke="#999999" points="893.62,-300 830.38,-300 830.38,-280 893.62,-280 893.62,-300"/>
<text xml:space="preserve" text-anchor="middle" x="862" y="-286.5" font-family="Helvetica,sans-Serif" font-size="10.00">json/json.h</text>
</a>
</g>
</g>
<!-- Node2&#45;&gt;Node26 -->
<g id="edge44_Node000002_Node000026" class="edge">
<title>Node2&#45;&gt;Node26</title>
<g id="a_edge44_Node000002_Node000026"><a xlink:title=" ">
<path fill="none" stroke="#63b8ff" d="M596.89,-335.5C654.32,-326.81 740.93,-313.31 816,-300 817.02,-299.82 818.05,-299.64 819.08,-299.45"/>
<polygon fill="#63b8ff" stroke="#63b8ff" points="819.68,-302.9 828.87,-297.62 818.39,-296.02 819.68,-302.9"/>
</a>
</g>
</g>
<!-- Node4 -->
<g id="Node000004" class="node">
<title>Node4</title>
<g id="a_Node000004"><a xlink:title=" ">
<polygon fill="#e0e0e0" stroke="#999999" points="216,-20 56,-20 56,0 216,0 216,-20"/>
<text xml:space="preserve" text-anchor="middle" x="136" y="-6.5" font-family="Helvetica,sans-Serif" font-size="10.00">../src/Memory/SystemAllocator.h</text>
</a>
</g>
</g>
<!-- Node3&#45;&gt;Node4 -->
<g id="edge3_Node000003_Node000004" class="edge">
<title>Node3&#45;&gt;Node4</title>
<g id="a_edge3_Node000003_Node000004"><a xlink:title=" ">
<path fill="none" stroke="#63b8ff" d="M383.4,-55.53C332.26,-46.33 254.5,-32.33 199.83,-22.49"/>
<polygon fill="#63b8ff" stroke="#63b8ff" points="200.49,-19.05 190.03,-20.73 199.25,-25.94 200.49,-19.05"/>
</a>
</g>
</g>
<!-- Node5 -->
<g id="Node000005" class="node">
<title>Node5</title>
<g id="a_Node000005"><a xlink:title=" ">
<polygon fill="#e0e0e0" stroke="#999999" points="296.25,-20 233.75,-20 233.75,0 296.25,0 296.25,-20"/>
<text xml:space="preserve" text-anchor="middle" x="265" y="-6.5" font-family="Helvetica,sans-Serif" font-size="10.00">windows.h</text>
</a>
</g>
</g>
<!-- Node3&#45;&gt;Node5 -->
<g id="edge4_Node000003_Node000005" class="edge">
<title>Node3&#45;&gt;Node5</title>
<g id="a_edge4_Node000003_Node000005"><a xlink:title=" ">
<path fill="none" stroke="#63b8ff" d="M406.21,-55.59C378.43,-46.82 336.75,-33.66 305.86,-23.9"/>
<polygon fill="#63b8ff" stroke="#63b8ff" points="307.05,-20.61 296.46,-20.94 304.94,-27.28 307.05,-20.61"/>
</a>
</g>
</g>
<!-- Node6 -->
<g id="Node000006" class="node">
<title>Node6</title>
<g id="a_Node000006"><a xlink:title=" ">
<polygon fill="#e0e0e0" stroke="#999999" points="362.12,-20 313.88,-20 313.88,0 362.12,0 362.12,-20"/>
<text xml:space="preserve" text-anchor="middle" x="338" y="-6.5" font-family="Helvetica,sans-Serif" font-size="10.00">cassert</text>
</a>
</g>
</g>
<!-- Node3&#45;&gt;Node6 -->
<g id="edge5_Node000003_Node000006" class="edge">
<title>Node3&#45;&gt;Node6</title>
<g id="a_edge5_Node000003_Node000006"><a xlink:title=" ">
<path fill="none" stroke="#63b8ff" d="M418.93,-55.59C404.12,-47.44 382.43,-35.48 365.23,-26"/>
<polygon fill="#63b8ff" stroke="#63b8ff" points="366.98,-22.97 356.53,-21.21 363.6,-29.1 366.98,-22.97"/>
</a>
</g>
</g>
<!-- Node7 -->
<g id="Node000007" class="node">
<title>Node7</title>
<g id="a_Node000007"><a xlink:title=" ">
<polygon fill="#e0e0e0" stroke="#999999" points="428.12,-20 379.88,-20 379.88,0 428.12,0 428.12,-20"/>
<text xml:space="preserve" text-anchor="middle" x="404" y="-6.5" font-family="Helvetica,sans-Serif" font-size="10.00">cstddef</text>
</a>
</g>
</g>
<!-- Node3&#45;&gt;Node7 -->
<g id="edge6_Node000003_Node000007" class="edge">
<title>Node3&#45;&gt;Node7</title>
<g id="a_edge6_Node000003_Node000007"><a xlink:title=" ">
<path fill="none" stroke="#63b8ff" d="M430.43,-55.59C426.25,-48.55 420.4,-38.67 415.26,-30"/>
<polygon fill="#63b8ff" stroke="#63b8ff" points="418.39,-28.42 410.28,-21.6 412.37,-31.99 418.39,-28.42"/>
</a>
</g>
</g>
<!-- Node8 -->
<g id="Node000008" class="node">
<title>Node8</title>
<g id="a_Node000008"><a xlink:title=" ">
<polygon fill="#e0e0e0" stroke="#999999" points="491.62,-20 446.38,-20 446.38,0 491.62,0 491.62,-20"/>
<text xml:space="preserve" text-anchor="middle" x="469" y="-6.5" font-family="Helvetica,sans-Serif" font-size="10.00">cstdint</text>
</a>
</g>
</g>
<!-- Node3&#45;&gt;Node8 -->
<g id="edge7_Node000003_Node000008" class="edge">
<title>Node3&#45;&gt;Node8</title>
<g id="a_edge7_Node000003_Node000008"><a xlink:title=" ">
<path fill="none" stroke="#63b8ff" d="M441.75,-55.59C446.05,-48.55 452.09,-38.67 457.39,-30"/>
<polygon fill="#63b8ff" stroke="#63b8ff" points="460.3,-31.95 462.53,-21.59 454.33,-28.3 460.3,-31.95"/>
</a>
</g>
</g>
<!-- Node9 -->
<g id="Node000009" class="node">
<title>Node9</title>
<g id="a_Node000009"><a xlink:title=" ">
<polygon fill="#e0e0e0" stroke="#999999" points="562.38,-20 509.62,-20 509.62,0 562.38,0 562.38,-20"/>
<text xml:space="preserve" text-anchor="middle" x="536" y="-6.5" font-family="Helvetica,sans-Serif" font-size="10.00">cstdbool</text>
</a>
</g>
</g>
<!-- Node3&#45;&gt;Node9 -->
<g id="edge8_Node000003_Node000009" class="edge">
<title>Node3&#45;&gt;Node9</title>
<g id="a_edge8_Node000003_Node000009"><a xlink:title=" ">
<path fill="none" stroke="#63b8ff" d="M453.42,-55.59C468.67,-47.36 491.08,-35.26 508.71,-25.74"/>
<polygon fill="#63b8ff" stroke="#63b8ff" points="509.98,-29.03 517.11,-21.2 506.65,-22.87 509.98,-29.03"/>
</a>
</g>
</g>
<!-- Node10 -->
<g id="Node000010" class="node">
<title>Node10</title>
<g id="a_Node000010"><a xlink:title=" ">
<polygon fill="#e0e0e0" stroke="#999999" points="620,-20 580,-20 580,0 620,0 620,-20"/>
<text xml:space="preserve" text-anchor="middle" x="600" y="-6.5" font-family="Helvetica,sans-Serif" font-size="10.00">string</text>
</a>
</g>
</g>
<!-- Node3&#45;&gt;Node10 -->
<g id="edge9_Node000003_Node000010" class="edge">
<title>Node3&#45;&gt;Node10</title>
<g id="a_edge9_Node000003_Node000010"><a xlink:title=" ">
<path fill="none" stroke="#63b8ff" d="M464.57,-55.59C493.7,-46 538.77,-31.16 568.81,-21.27"/>
<polygon fill="#63b8ff" stroke="#63b8ff" points="569.69,-24.67 578.09,-18.21 567.5,-18.02 569.69,-24.67"/>
</a>
</g>
</g>
<!-- Node11 -->
<g id="Node000011" class="node">
<title>Node11</title>
<g id="a_Node000011"><a xlink:title=" ">
<polygon fill="#e0e0e0" stroke="#999999" points="692.12,-20 637.88,-20 637.88,0 692.12,0 692.12,-20"/>
<text xml:space="preserve" text-anchor="middle" x="665" y="-6.5" font-family="Helvetica,sans-Serif" font-size="10.00">crtdefs.h</text>
</a>
</g>
</g>
<!-- Node3&#45;&gt;Node11 -->
<g id="edge10_Node000003_Node000011" class="edge">
<title>Node3&#45;&gt;Node11</title>
<g id="a_edge10_Node000003_Node000011"><a xlink:title=" ">
<path fill="none" stroke="#63b8ff" d="M477.46,-55.53C514.2,-47.1 569.61,-34.27 626.48,-20.58"/>
<polygon fill="#63b8ff" stroke="#63b8ff" points="627.12,-24.03 636.02,-18.28 625.48,-17.22 627.12,-24.03"/>
</a>
</g>
</g>
<!-- Node12&#45;&gt;Node3 -->
<g id="edge12_Node000012_Node000003" class="edge">
<title>Node12&#45;&gt;Node3</title>
<g id="a_edge12_Node000012_Node000003"><a xlink:title=" ">
<path fill="none" stroke="#63b8ff" d="M195.2,-111.53C244.98,-102.33 320.66,-88.33 373.87,-78.49"/>
<polygon fill="#63b8ff" stroke="#63b8ff" points="374.18,-81.99 383.37,-76.73 372.9,-75.11 374.18,-81.99"/>
</a>
</g>
</g>
<!-- Node12&#45;&gt;Node13 -->
<g id="edge13_Node000012_Node000013" class="edge">
<title>Node12&#45;&gt;Node13</title>
<g id="a_edge13_Node000012_Node000013"><a xlink:title=" ">
<path fill="none" stroke="#63b8ff" d="M134.77,-111.59C127.4,-104.08 116.87,-93.35 107.98,-84.3"/>
<polygon fill="#63b8ff" stroke="#63b8ff" points="110.69,-82.06 101.19,-77.38 105.69,-86.97 110.69,-82.06"/>
</a>
</g>
</g>
<!-- Node14&#45;&gt;Node3 -->
<g id="edge15_Node000014_Node000003" class="edge">
<title>Node14&#45;&gt;Node3</title>
<g id="a_edge15_Node000014_Node000003"><a xlink:title=" ">
<path fill="none" stroke="#63b8ff" d="M570.61,-111.59C544.24,-102.86 504.74,-89.77 475.34,-80.03"/>
<polygon fill="#63b8ff" stroke="#63b8ff" points="476.64,-76.78 466.05,-76.96 474.44,-83.42 476.64,-76.78"/>
</a>
</g>
</g>
<!-- Node15 -->
<g id="Node000015" class="node">
<title>Node15</title>
<g id="a_Node000015"><a xlink:href="_r_t_t_i_8inl.html" target="_top" xlink:title=" ">
<polygon fill="white" stroke="#666666" points="665.12,-76 532.88,-76 532.88,-56 665.12,-56 665.12,-76"/>
<text xml:space="preserve" text-anchor="middle" x="599" y="-62.5" font-family="Helvetica,sans-Serif" font-size="10.00">FIEAGameEngine/RTTI.inl</text>
</a>
</g>
</g>
<!-- Node14&#45;&gt;Node15 -->
<g id="edge16_Node000014_Node000015" class="edge">
<title>Node14&#45;&gt;Node15</title>
<g id="a_edge16_Node000014_Node000015"><a xlink:title=" ">
<path fill="none" stroke="#63b8ff" d="M593.73,-111.59C592.42,-105.01 591.98,-95.96 592.41,-87.73"/>
<polygon fill="#63b8ff" stroke="#63b8ff" points="595.89,-88.14 593.58,-77.8 588.94,-87.33 595.89,-88.14"/>
</a>
</g>
</g>
<!-- Node15&#45;&gt;Node14 -->
<g id="edge17_Node000015_Node000014" class="edge">
<title>Node15&#45;&gt;Node14</title>
<g id="a_edge17_Node000015_Node000014"><a xlink:title=" ">
<path fill="none" stroke="#63b8ff" d="M604.25,-76.3C605.59,-82.93 606.03,-92.11 605.58,-100.43"/>
<polygon fill="#63b8ff" stroke="#63b8ff" points="602.13,-99.75 604.44,-110.09 609.08,-100.57 602.13,-99.75"/>
</a>
</g>
</g>
<!-- Node16&#45;&gt;Node3 -->
<g id="edge19_Node000016_Node000003" class="edge">
<title>Node16&#45;&gt;Node3</title>
<g id="a_edge19_Node000016_Node000003"><a xlink:title=" ">
<path fill="none" stroke="#63b8ff" d="M574.64,-279.81C575.7,-258.61 575.92,-205.27 555,-168 543.09,-146.78 489.34,-105.64 458.31,-82.96"/>
<polygon fill="#63b8ff" stroke="#63b8ff" points="460.49,-80.22 450.33,-77.18 456.38,-85.89 460.49,-80.22"/>
</a>
</g>
</g>
<!-- Node16&#45;&gt;Node14 -->
<g id="edge38_Node000016_Node000014" class="edge">
<title>Node16&#45;&gt;Node14</title>
<g id="a_edge38_Node000016_Node000014"><a xlink:title=" ">
<path fill="none" stroke="#63b8ff" d="M577.48,-279.84C580.74,-270.85 585.48,-256.68 588,-244 594.93,-209.1 597.51,-167.66 598.45,-143.45"/>
<polygon fill="#63b8ff" stroke="#63b8ff" points="601.94,-143.82 598.77,-133.71 594.95,-143.59 601.94,-143.82"/>
</a>
</g>
</g>
<!-- Node16&#45;&gt;Node17 -->
<g id="edge20_Node000016_Node000017" class="edge">
<title>Node16&#45;&gt;Node17</title>
<g id="a_edge20_Node000016_Node000017"><a xlink:title=" ">
<path fill="none" stroke="#63b8ff" d="M605.88,-279.54C633.11,-271.14 673.12,-258.06 707,-244 743.89,-228.69 784.91,-207.65 811.06,-193.7"/>
<polygon fill="#63b8ff" stroke="#63b8ff" points="812.48,-196.91 819.63,-189.09 809.17,-190.74 812.48,-196.91"/>
</a>
</g>
</g>
<!-- Node16&#45;&gt;Node21 -->
<g id="edge26_Node000016_Node000021" class="edge">
<title>Node16&#45;&gt;Node21</title>
<g id="a_edge26_Node000016_Node000021"><a xlink:title=" ">
<path fill="none" stroke="#63b8ff" d="M554.67,-279.59C537.58,-271.28 512.4,-259.03 492.75,-249.47"/>
<polygon fill="#63b8ff" stroke="#63b8ff" points="494.37,-246.37 483.85,-245.14 491.31,-252.66 494.37,-246.37"/>
</a>
</g>
</g>
<!-- Node24 -->
<g id="Node000024" class="node">
<title>Node24</title>
<g id="a_Node000024"><a xlink:title=" ">
<polygon fill="#e0e0e0" stroke="#999999" points="545.5,-188 502.5,-188 502.5,-168 545.5,-168 545.5,-188"/>
<text xml:space="preserve" text-anchor="middle" x="524" y="-174.5" font-family="Helvetica,sans-Serif" font-size="10.00">vector</text>
</a>
</g>
</g>
<!-- Node16&#45;&gt;Node24 -->
<g id="edge39_Node000016_Node000024" class="edge">
<title>Node16&#45;&gt;Node24</title>
<g id="a_edge39_Node000016_Node000024"><a xlink:title=" ">
<path fill="none" stroke="#63b8ff" d="M569.74,-279.62C561.62,-261.76 543.79,-222.53 532.94,-198.67"/>
<polygon fill="#63b8ff" stroke="#63b8ff" points="536.2,-197.39 528.88,-189.73 529.83,-200.28 536.2,-197.39"/>
</a>
</g>
</g>
<!-- Node25 -->
<g id="Node000025" class="node">
<title>Node25</title>
<g id="a_Node000025"><a xlink:title=" ">
<polygon fill="#e0e0e0" stroke="#999999" points="698,-244 640,-244 640,-224 698,-224 698,-244"/>
<text xml:space="preserve" text-anchor="middle" x="669" y="-230.5" font-family="Helvetica,sans-Serif" font-size="10.00">functional</text>
</a>
</g>
</g>
<!-- Node16&#45;&gt;Node25 -->
<g id="edge40_Node000016_Node000025" class="edge">
<title>Node16&#45;&gt;Node25</title>
<g id="a_edge40_Node000016_Node000025"><a xlink:title=" ">
<path fill="none" stroke="#63b8ff" d="M590.55,-279.59C604.9,-271.44 625.93,-259.48 642.6,-250"/>
<polygon fill="#63b8ff" stroke="#63b8ff" points="644.04,-253.21 651.01,-245.23 640.58,-247.13 644.04,-253.21"/>
</a>
</g>
</g>
<!-- Node17&#45;&gt;Node3 -->
<g id="edge21_Node000017_Node000003" class="edge">
<title>Node17&#45;&gt;Node3</title>
<g id="a_edge21_Node000017_Node000003"><a xlink:title=" ">
<path fill="none" stroke="#63b8ff" d="M807,-167.51C780.77,-159.15 742.39,-146.13 710,-132 692.51,-124.37 690.02,-118.3 672,-112 620.71,-94.06 560.52,-82.73 513.76,-75.92"/>
<polygon fill="#63b8ff" stroke="#63b8ff" points="514.37,-72.47 503.98,-74.54 513.39,-79.41 514.37,-72.47"/>
</a>
</g>
</g>
<!-- Node18 -->
<g id="Node000018" class="node">
<title>Node18</title>
<g id="a_Node000018"><a xlink:title=" ">
<polygon fill="#e0e0e0" stroke="#999999" points="1037.62,-132 968.38,-132 968.38,-112 1037.62,-112 1037.62,-132"/>
<text xml:space="preserve" text-anchor="middle" x="1003" y="-118.5" font-family="Helvetica,sans-Serif" font-size="10.00">glm/glm.hpp</text>
</a>
</g>
</g>
<!-- Node17&#45;&gt;Node18 -->
<g id="edge22_Node000017_Node000018" class="edge">
<title>Node17&#45;&gt;Node18</title>
<g id="a_edge22_Node000017_Node000018"><a xlink:title=" ">
<path fill="none" stroke="#63b8ff" d="M866.74,-167.59C893.43,-158.86 933.42,-145.77 963.18,-136.03"/>
<polygon fill="#63b8ff" stroke="#63b8ff" points="964.18,-139.39 972.6,-132.95 962,-132.73 964.18,-139.39"/>
</a>
</g>
</g>
<!-- Node19 -->
<g id="Node000019" class="node">
<title>Node19</title>
<g id="a_Node000019"><a xlink:title=" ">
<polygon fill="#e0e0e0" stroke="#999999" points="837,-132 719,-132 719,-112 837,-112 837,-132"/>
<text xml:space="preserve" text-anchor="middle" x="778" y="-118.5" font-family="Helvetica,sans-Serif" font-size="10.00">glm/gtx/string_cast.hpp</text>
</a>
</g>
</g>
<!-- Node17&#45;&gt;Node19 -->
<g id="edge23_Node000017_Node000019" class="edge">
<title>Node17&#45;&gt;Node19</title>
<g id="a_edge23_Node000017_Node000019"><a xlink:title=" ">
<path fill="none" stroke="#63b8ff" d="M827.55,-167.59C819.03,-159.93 806.79,-148.91 796.61,-139.75"/>
<polygon fill="#63b8ff" stroke="#63b8ff" points="799.23,-137.4 789.46,-133.31 794.55,-142.6 799.23,-137.4"/>
</a>
</g>
</g>
<!-- Node20 -->
<g id="Node000020" class="node">
<title>Node20</title>
<g id="a_Node000020"><a xlink:href="_datum_8inl.html" target="_top" xlink:title=" ">
<polygon fill="white" stroke="#666666" points="950.75,-132 855.25,-132 855.25,-112 950.75,-112 950.75,-132"/>
<text xml:space="preserve" text-anchor="middle" x="903" y="-118.5" font-family="Helvetica,sans-Serif" font-size="10.00">Content/Datum.inl</text>
</a>
</g>
</g>
<!-- Node17&#45;&gt;Node20 -->
<g id="edge24_Node000017_Node000020" class="edge">
<title>Node17&#45;&gt;Node20</title>
<g id="a_edge24_Node000017_Node000020"><a xlink:title=" ">
<path fill="none" stroke="#63b8ff" d="M844.06,-167.59C851.93,-159.74 865.29,-148.38 877.4,-139.09"/>
<polygon fill="#63b8ff" stroke="#63b8ff" points="879.15,-142.15 885.09,-133.38 874.98,-136.53 879.15,-142.15"/>
</a>
</g>
</g>
<!-- Node20&#45;&gt;Node17 -->
<g id="edge25_Node000020_Node000017" class="edge">
<title>Node20&#45;&gt;Node17</title>
<g id="a_edge25_Node000020_Node000017"><a xlink:title=" ">
<path fill="none" stroke="#63b8ff" d="M897.05,-132.3C889.18,-140.16 875.72,-151.61 863.54,-160.95"/>
<polygon fill="#63b8ff" stroke="#63b8ff" points="861.75,-157.93 855.8,-166.69 865.92,-163.55 861.75,-157.93"/>
</a>
</g>
</g>
<!-- Node21&#45;&gt;Node3 -->
<g id="edge27_Node000021_Node000003" class="edge">
<title>Node21&#45;&gt;Node3</title>
<g id="a_edge27_Node000021_Node000003"><a xlink:title=" ">
<path fill="none" stroke="#63b8ff" d="M461.47,-223.6C457.22,-197.46 445.19,-123.48 439.31,-87.36"/>
<polygon fill="#63b8ff" stroke="#63b8ff" points="442.82,-87.1 437.76,-77.79 435.91,-88.22 442.82,-87.1"/>
</a>
</g>
</g>
<!-- Node21&#45;&gt;Node13 -->
<g id="edge37_Node000021_Node000013" class="edge">
<title>Node21&#45;&gt;Node13</title>
<g id="a_edge37_Node000021_Node000013"><a xlink:title=" ">
<path fill="none" stroke="#63b8ff" d="M417.88,-229.21C320.66,-219.94 96.95,-192.34 57,-132 46.73,-116.49 59.24,-97.53 71.88,-84.1"/>
<polygon fill="#63b8ff" stroke="#63b8ff" points="74.2,-86.72 78.89,-77.22 69.3,-81.73 74.2,-86.72"/>
</a>
</g>
</g>
<!-- Node21&#45;&gt;Node14 -->
<g id="edge28_Node000021_Node000014" class="edge">
<title>Node21&#45;&gt;Node14</title>
<g id="a_edge28_Node000021_Node000014"><a xlink:title=" ">
<path fill="none" stroke="#63b8ff" d="M465.16,-223.8C468.84,-209.97 477.59,-183.76 494,-168 509.25,-153.35 530.03,-143.09 549.07,-136.11"/>
<polygon fill="#63b8ff" stroke="#63b8ff" points="549.96,-139.51 558.29,-132.96 547.69,-132.88 549.96,-139.51"/>
</a>
</g>
</g>
<!-- Node21&#45;&gt;Node17 -->
<g id="edge29_Node000021_Node000017" class="edge">
<title>Node21&#45;&gt;Node17</title>
<g id="a_edge29_Node000021_Node000017"><a xlink:title=" ">
<path fill="none" stroke="#63b8ff" d="M508.23,-226.49C576.61,-216.64 706.2,-197.98 780.96,-187.21"/>
<polygon fill="#63b8ff" stroke="#63b8ff" points="781.12,-190.73 790.52,-185.84 780.12,-183.8 781.12,-190.73"/>
</a>
</g>
</g>
<!-- Node22 -->
<g id="Node000022" class="node">
<title>Node22</title>
<g id="a_Node000022"><a xlink:href="_factory_service_8h.html" target="_top" xlink:title=" ">
<polygon fill="white" stroke="#666666" points="370,-188 198,-188 198,-168 370,-168 370,-188"/>
<text xml:space="preserve" text-anchor="middle" x="284" y="-174.5" font-family="Helvetica,sans-Serif" font-size="10.00">FIEAGameEngine/FactoryService.h</text>
</a>
</g>
</g>
<!-- Node21&#45;&gt;Node22 -->
<g id="edge30_Node000021_Node000022" class="edge">
<title>Node21&#45;&gt;Node22</title>
<g id="a_edge30_Node000021_Node000022"><a xlink:title=" ">
<path fill="none" stroke="#63b8ff" d="M431.82,-223.59C402.61,-214.78 358.72,-201.54 326.35,-191.78"/>
<polygon fill="#63b8ff" stroke="#63b8ff" points="327.46,-188.45 316.87,-188.92 325.43,-195.16 327.46,-188.45"/>
</a>
</g>
</g>
<!-- Node21&#45;&gt;Node24 -->
<g id="edge36_Node000021_Node000024" class="edge">
<title>Node21&#45;&gt;Node24</title>
<g id="a_edge36_Node000021_Node000024"><a xlink:title=" ">
<path fill="none" stroke="#63b8ff" d="M473.63,-223.59C482.28,-215.93 494.73,-204.91 505.08,-195.75"/>
<polygon fill="#63b8ff" stroke="#63b8ff" points="507.2,-198.55 512.36,-189.3 502.56,-193.31 507.2,-198.55"/>
</a>
</g>
</g>
<!-- Node22&#45;&gt;Node3 -->
<g id="edge31_Node000022_Node000003" class="edge">
<title>Node22&#45;&gt;Node3</title>
<g id="a_edge31_Node000022_Node000003"><a xlink:title=" ">
<path fill="none" stroke="#63b8ff" d="M284.78,-167.7C286.45,-153.74 291.56,-127.37 307,-112 322.6,-96.47 343.85,-86.28 364.6,-79.61"/>
<polygon fill="#63b8ff" stroke="#63b8ff" points="365.32,-83.05 373.92,-76.86 363.33,-76.33 365.32,-83.05"/>
</a>
</g>
</g>
<!-- Node22&#45;&gt;Node12 -->
<g id="edge33_Node000022_Node000012" class="edge">
<title>Node22&#45;&gt;Node12</title>
<g id="a_edge33_Node000022_Node000012"><a xlink:title=" ">
<path fill="none" stroke="#63b8ff" d="M259.61,-167.59C237.37,-159.01 204.23,-146.23 179.13,-136.55"/>
<polygon fill="#63b8ff" stroke="#63b8ff" points="180.58,-133.36 169.99,-133.02 178.06,-139.89 180.58,-133.36"/>
</a>
</g>
</g>
<!-- Node22&#45;&gt;Node13 -->
<g id="edge35_Node000022_Node000013" class="edge">
<title>Node22&#45;&gt;Node13</title>
<g id="a_edge35_Node000022_Node000013"><a xlink:title=" ">
<path fill="none" stroke="#63b8ff" d="M278.76,-167.59C270.44,-153.49 252.89,-126.94 231,-112 204.96,-94.23 171.47,-83.13 143.77,-76.4"/>
<polygon fill="#63b8ff" stroke="#63b8ff" points="144.69,-73.02 134.16,-74.2 143.13,-79.85 144.69,-73.02"/>
</a>
</g>
</g>
<!-- Node22&#45;&gt;Node14 -->
<g id="edge32_Node000022_Node000014" class="edge">
<title>Node22&#45;&gt;Node14</title>
<g id="a_edge32_Node000022_Node000014"><a xlink:title=" ">
<path fill="none" stroke="#63b8ff" d="M339.23,-167.53C393.16,-158.29 475.26,-144.21 532.69,-134.37"/>
<polygon fill="#63b8ff" stroke="#63b8ff" points="533.08,-137.85 542.34,-132.71 531.89,-130.95 533.08,-137.85"/>
</a>
</g>
</g>
<!-- Node23 -->
<g id="Node000023" class="node">
<title>Node23</title>
<g id="a_Node000023"><a xlink:title=" ">
<polygon fill="#e0e0e0" stroke="#999999" points="369.75,-132 316.25,-132 316.25,-112 369.75,-112 369.75,-132"/>
<text xml:space="preserve" text-anchor="middle" x="343" y="-118.5" font-family="Helvetica,sans-Serif" font-size="10.00">iostream</text>
</a>
</g>
</g>
<!-- Node22&#45;&gt;Node23 -->
<g id="edge34_Node000022_Node000023" class="edge">
<title>Node22&#45;&gt;Node23</title>
<g id="a_edge34_Node000022_Node000023"><a xlink:title=" ">
<path fill="none" stroke="#63b8ff" d="M294.28,-167.59C302.57,-160.01 314.45,-149.13 324.4,-140.02"/>
<polygon fill="#63b8ff" stroke="#63b8ff" points="326.71,-142.65 331.72,-133.32 321.98,-137.49 326.71,-142.65"/>
</a>
</g>
</g>
</g>
</svg>
