<?xml version="1.0" encoding="UTF-8" standalone="no"?>
<!DOCTYPE svg PUBLIC "-//W3C//DTD SVG 1.1//EN"
 "http://www.w3.org/Graphics/SVG/1.1/DTD/svg11.dtd">
<!-- Generated by graphviz version 13.1.0 (20250701.0955)
 -->
<!-- Title: FIEAGameEngine/src/Content/Datum.cpp Pages: 1 -->
<svg width="902pt" height="320pt"
 viewBox="0.00 0.00 902.00 320.00" xmlns="http://www.w3.org/2000/svg" xmlns:xlink="http://www.w3.org/1999/xlink">
<g id="graph0" class="graph" transform="scale(1 1) rotate(0) translate(4 316)">
<title>FIEAGameEngine/src/Content/Datum.cpp</title>
<!-- Node1 -->
<g id="Node000001" class="node">
<title>Node1</title>
<g id="a_Node000001"><a xlink:title=" ">
<polygon fill="#999999" stroke="#666666" points="450.38,-312 339.12,-312 339.12,-280 450.38,-280 450.38,-312"/>
<text xml:space="preserve" text-anchor="start" x="347.12" y="-298.5" font-family="Helvetica,sans-Serif" font-size="10.00">FIEAGameEngine/src</text>
<text xml:space="preserve" text-anchor="middle" x="394.75" y="-286.5" font-family="Helvetica,sans-Serif" font-size="10.00">/Content/Datum.cpp</text>
</a>
</g>
</g>
<!-- Node2 -->
<g id="Node000002" class="node">
<title>Node2</title>
<g id="a_Node000002"><a xlink:href="_datum_8h.html" target="_top" xlink:title=" ">
<polygon fill="white" stroke="#666666" points="305.25,-188 214.25,-188 214.25,-168 305.25,-168 305.25,-188"/>
<text xml:space="preserve" text-anchor="middle" x="259.75" y="-174.5" font-family="Helvetica,sans-Serif" font-size="10.00">Content/Datum.h</text>
</a>
</g>
</g>
<!-- Node1&#45;&gt;Node2 -->
<g id="edge1_Node000001_Node000002" class="edge">
<title>Node1&#45;&gt;Node2</title>
<g id="a_edge1_Node000001_Node000002"><a xlink:title=" ">
<path fill="none" stroke="#63b8ff" d="M376.82,-279.6C351.53,-257.86 305.53,-218.34 279.35,-195.84"/>
<polygon fill="#63b8ff" stroke="#63b8ff" points="281.7,-193.24 271.83,-189.38 277.13,-198.55 281.7,-193.24"/>
</a>
</g>
</g>
<!-- Node15 -->
<g id="Node000015" class="node">
<title>Node15</title>
<g id="a_Node000015"><a xlink:href="_scope_8h.html" target="_top" xlink:title=" ">
<polygon fill="white" stroke="#666666" points="575.5,-244 486,-244 486,-224 575.5,-224 575.5,-244"/>
<text xml:space="preserve" text-anchor="middle" x="530.75" y="-230.5" font-family="Helvetica,sans-Serif" font-size="10.00">Content/Scope.h</text>
</a>
</g>
</g>
<!-- Node1&#45;&gt;Node15 -->
<g id="edge15_Node000001_Node000015" class="edge">
<title>Node1&#45;&gt;Node15</title>
<g id="a_edge15_Node000001_Node000015"><a xlink:title=" ">
<path fill="none" stroke="#63b8ff" d="M429.77,-279.55C451.12,-270.13 478.19,-258.19 498.93,-249.04"/>
<polygon fill="#63b8ff" stroke="#63b8ff" points="500.3,-252.26 508.04,-245.02 497.48,-245.85 500.3,-252.26"/>
</a>
</g>
</g>
<!-- Node3 -->
<g id="Node000003" class="node">
<title>Node3</title>
<g id="a_Node000003"><a xlink:href="_types_8h.html" target="_top" xlink:title=" ">
<polygon fill="white" stroke="#666666" points="654.88,-76 522.62,-76 522.62,-56 654.88,-56 654.88,-76"/>
<text xml:space="preserve" text-anchor="middle" x="588.75" y="-62.5" font-family="Helvetica,sans-Serif" font-size="10.00">FIEAGameEngine/Types.h</text>
</a>
</g>
</g>
<!-- Node2&#45;&gt;Node3 -->
<g id="edge2_Node000002_Node000003" class="edge">
<title>Node2&#45;&gt;Node3</title>
<g id="a_edge2_Node000002_Node000003"><a xlink:title=" ">
<path fill="none" stroke="#63b8ff" d="M273.83,-167.51C298.04,-151.34 346.76,-119.46 365.75,-112 393.13,-101.23 464.17,-87.76 518.78,-78.37"/>
<polygon fill="#63b8ff" stroke="#63b8ff" points="519.05,-81.88 528.32,-76.75 517.87,-74.98 519.05,-81.88"/>
</a>
</g>
</g>
<!-- Node12 -->
<g id="Node000012" class="node">
<title>Node12</title>
<g id="a_Node000012"><a xlink:title=" ">
<polygon fill="#e0e0e0" stroke="#999999" points="182.38,-132 113.12,-132 113.12,-112 182.38,-112 182.38,-132"/>
<text xml:space="preserve" text-anchor="middle" x="147.75" y="-118.5" font-family="Helvetica,sans-Serif" font-size="10.00">glm/glm.hpp</text>
</a>
</g>
</g>
<!-- Node2&#45;&gt;Node12 -->
<g id="edge11_Node000002_Node000012" class="edge">
<title>Node2&#45;&gt;Node12</title>
<g id="a_edge11_Node000002_Node000012"><a xlink:title=" ">
<path fill="none" stroke="#63b8ff" d="M240.24,-167.59C223,-159.28 197.59,-147.03 177.76,-137.47"/>
<polygon fill="#63b8ff" stroke="#63b8ff" points="179.3,-134.33 168.77,-133.14 176.26,-140.63 179.3,-134.33"/>
</a>
</g>
</g>
<!-- Node13 -->
<g id="Node000013" class="node">
<title>Node13</title>
<g id="a_Node000013"><a xlink:title=" ">
<polygon fill="#e0e0e0" stroke="#999999" points="318.75,-132 200.75,-132 200.75,-112 318.75,-112 318.75,-132"/>
<text xml:space="preserve" text-anchor="middle" x="259.75" y="-118.5" font-family="Helvetica,sans-Serif" font-size="10.00">glm/gtx/string_cast.hpp</text>
</a>
</g>
</g>
<!-- Node2&#45;&gt;Node13 -->
<g id="edge12_Node000002_Node000013" class="edge">
<title>Node2&#45;&gt;Node13</title>
<g id="a_edge12_Node000002_Node000013"><a xlink:title=" ">
<path fill="none" stroke="#63b8ff" d="M259.75,-167.59C259.75,-161.01 259.75,-151.96 259.75,-143.73"/>
<polygon fill="#63b8ff" stroke="#63b8ff" points="263.25,-143.81 259.75,-133.81 256.25,-143.81 263.25,-143.81"/>
</a>
</g>
</g>
<!-- Node14 -->
<g id="Node000014" class="node">
<title>Node14</title>
<g id="a_Node000014"><a xlink:href="_datum_8inl.html" target="_top" xlink:title=" ">
<polygon fill="white" stroke="#666666" points="95.5,-132 0,-132 0,-112 95.5,-112 95.5,-132"/>
<text xml:space="preserve" text-anchor="middle" x="47.75" y="-118.5" font-family="Helvetica,sans-Serif" font-size="10.00">Content/Datum.inl</text>
</a>
</g>
</g>
<!-- Node2&#45;&gt;Node14 -->
<g id="edge13_Node000002_Node000014" class="edge">
<title>Node2&#45;&gt;Node14</title>
<g id="a_edge13_Node000002_Node000014"><a xlink:title=" ">
<path fill="none" stroke="#63b8ff" d="M217.3,-167.53C180.44,-158.6 127.47,-145.15 90.52,-135.37"/>
<polygon fill="#63b8ff" stroke="#63b8ff" points="91.63,-132.04 81.06,-132.85 89.83,-138.8 91.63,-132.04"/>
</a>
</g>
</g>
<!-- Node4 -->
<g id="Node000004" class="node">
<title>Node4</title>
<g id="a_Node000004"><a xlink:title=" ">
<polygon fill="#e0e0e0" stroke="#999999" points="368.75,-20 208.75,-20 208.75,0 368.75,0 368.75,-20"/>
<text xml:space="preserve" text-anchor="middle" x="288.75" y="-6.5" font-family="Helvetica,sans-Serif" font-size="10.00">../src/Memory/SystemAllocator.h</text>
</a>
</g>
</g>
<!-- Node3&#45;&gt;Node4 -->
<g id="edge3_Node000003_Node000004" class="edge">
<title>Node3&#45;&gt;Node4</title>
<g id="a_edge3_Node000003_Node000004"><a xlink:title=" ">
<path fill="none" stroke="#63b8ff" d="M536.15,-55.53C485.01,-46.33 407.25,-32.33 352.58,-22.49"/>
<polygon fill="#63b8ff" stroke="#63b8ff" points="353.24,-19.05 342.78,-20.73 352,-25.94 353.24,-19.05"/>
</a>
</g>
</g>
<!-- Node5 -->
<g id="Node000005" class="node">
<title>Node5</title>
<g id="a_Node000005"><a xlink:title=" ">
<polygon fill="#e0e0e0" stroke="#999999" points="449,-20 386.5,-20 386.5,0 449,0 449,-20"/>
<text xml:space="preserve" text-anchor="middle" x="417.75" y="-6.5" font-family="Helvetica,sans-Serif" font-size="10.00">windows.h</text>
</a>
</g>
</g>
<!-- Node3&#45;&gt;Node5 -->
<g id="edge4_Node000003_Node000005" class="edge">
<title>Node3&#45;&gt;Node5</title>
<g id="a_edge4_Node000003_Node000005"><a xlink:title=" ">
<path fill="none" stroke="#63b8ff" d="M558.96,-55.59C531.18,-46.82 489.5,-33.66 458.61,-23.9"/>
<polygon fill="#63b8ff" stroke="#63b8ff" points="459.8,-20.61 449.21,-20.94 457.69,-27.28 459.8,-20.61"/>
</a>
</g>
</g>
<!-- Node6 -->
<g id="Node000006" class="node">
<title>Node6</title>
<g id="a_Node000006"><a xlink:title=" ">
<polygon fill="#e0e0e0" stroke="#999999" points="514.88,-20 466.62,-20 466.62,0 514.88,0 514.88,-20"/>
<text xml:space="preserve" text-anchor="middle" x="490.75" y="-6.5" font-family="Helvetica,sans-Serif" font-size="10.00">cassert</text>
</a>
</g>
</g>
<!-- Node3&#45;&gt;Node6 -->
<g id="edge5_Node000003_Node000006" class="edge">
<title>Node3&#45;&gt;Node6</title>
<g id="a_edge5_Node000003_Node000006"><a xlink:title=" ">
<path fill="none" stroke="#63b8ff" d="M571.68,-55.59C556.87,-47.44 535.18,-35.48 517.98,-26"/>
<polygon fill="#63b8ff" stroke="#63b8ff" points="519.73,-22.97 509.28,-21.21 516.35,-29.1 519.73,-22.97"/>
</a>
</g>
</g>
<!-- Node7 -->
<g id="Node000007" class="node">
<title>Node7</title>
<g id="a_Node000007"><a xlink:title=" ">
<polygon fill="#e0e0e0" stroke="#999999" points="580.88,-20 532.62,-20 532.62,0 580.88,0 580.88,-20"/>
<text xml:space="preserve" text-anchor="middle" x="556.75" y="-6.5" font-family="Helvetica,sans-Serif" font-size="10.00">cstddef</text>
</a>
</g>
</g>
<!-- Node3&#45;&gt;Node7 -->
<g id="edge6_Node000003_Node000007" class="edge">
<title>Node3&#45;&gt;Node7</title>
<g id="a_edge6_Node000003_Node000007"><a xlink:title=" ">
<path fill="none" stroke="#63b8ff" d="M583.18,-55.59C579,-48.55 573.15,-38.67 568.01,-30"/>
<polygon fill="#63b8ff" stroke="#63b8ff" points="571.14,-28.42 563.03,-21.6 565.12,-31.99 571.14,-28.42"/>
</a>
</g>
</g>
<!-- Node8 -->
<g id="Node000008" class="node">
<title>Node8</title>
<g id="a_Node000008"><a xlink:title=" ">
<polygon fill="#e0e0e0" stroke="#999999" points="644.38,-20 599.12,-20 599.12,0 644.38,0 644.38,-20"/>
<text xml:space="preserve" text-anchor="middle" x="621.75" y="-6.5" font-family="Helvetica,sans-Serif" font-size="10.00">cstdint</text>
</a>
</g>
</g>
<!-- Node3&#45;&gt;Node8 -->
<g id="edge7_Node000003_Node000008" class="edge">
<title>Node3&#45;&gt;Node8</title>
<g id="a_edge7_Node000003_Node000008"><a xlink:title=" ">
<path fill="none" stroke="#63b8ff" d="M594.5,-55.59C598.8,-48.55 604.84,-38.67 610.14,-30"/>
<polygon fill="#63b8ff" stroke="#63b8ff" points="613.05,-31.95 615.28,-21.59 607.08,-28.3 613.05,-31.95"/>
</a>
</g>
</g>
<!-- Node9 -->
<g id="Node000009" class="node">
<title>Node9</title>
<g id="a_Node000009"><a xlink:title=" ">
<polygon fill="#e0e0e0" stroke="#999999" points="715.12,-20 662.38,-20 662.38,0 715.12,0 715.12,-20"/>
<text xml:space="preserve" text-anchor="middle" x="688.75" y="-6.5" font-family="Helvetica,sans-Serif" font-size="10.00">cstdbool</text>
</a>
</g>
</g>
<!-- Node3&#45;&gt;Node9 -->
<g id="edge8_Node000003_Node000009" class="edge">
<title>Node3&#45;&gt;Node9</title>
<g id="a_edge8_Node000003_Node000009"><a xlink:title=" ">
<path fill="none" stroke="#63b8ff" d="M606.17,-55.59C621.42,-47.36 643.83,-35.26 661.46,-25.74"/>
<polygon fill="#63b8ff" stroke="#63b8ff" points="662.73,-29.03 669.86,-21.2 659.4,-22.87 662.73,-29.03"/>
</a>
</g>
</g>
<!-- Node10 -->
<g id="Node000010" class="node">
<title>Node10</title>
<g id="a_Node000010"><a xlink:title=" ">
<polygon fill="#e0e0e0" stroke="#999999" points="772.75,-20 732.75,-20 732.75,0 772.75,0 772.75,-20"/>
<text xml:space="preserve" text-anchor="middle" x="752.75" y="-6.5" font-family="Helvetica,sans-Serif" font-size="10.00">string</text>
</a>
</g>
</g>
<!-- Node3&#45;&gt;Node10 -->
<g id="edge9_Node000003_Node000010" class="edge">
<title>Node3&#45;&gt;Node10</title>
<g id="a_edge9_Node000003_Node000010"><a xlink:title=" ">
<path fill="none" stroke="#63b8ff" d="M617.32,-55.59C646.45,-46 691.52,-31.16 721.56,-21.27"/>
<polygon fill="#63b8ff" stroke="#63b8ff" points="722.44,-24.67 730.84,-18.21 720.25,-18.02 722.44,-24.67"/>
</a>
</g>
</g>
<!-- Node11 -->
<g id="Node000011" class="node">
<title>Node11</title>
<g id="a_Node000011"><a xlink:title=" ">
<polygon fill="#e0e0e0" stroke="#999999" points="844.88,-20 790.62,-20 790.62,0 844.88,0 844.88,-20"/>
<text xml:space="preserve" text-anchor="middle" x="817.75" y="-6.5" font-family="Helvetica,sans-Serif" font-size="10.00">crtdefs.h</text>
</a>
</g>
</g>
<!-- Node3&#45;&gt;Node11 -->
<g id="edge10_Node000003_Node000011" class="edge">
<title>Node3&#45;&gt;Node11</title>
<g id="a_edge10_Node000003_Node000011"><a xlink:title=" ">
<path fill="none" stroke="#63b8ff" d="M630.21,-55.53C666.95,-47.1 722.36,-34.27 779.23,-20.58"/>
<polygon fill="#63b8ff" stroke="#63b8ff" points="779.87,-24.03 788.77,-18.28 778.23,-17.22 779.87,-24.03"/>
</a>
</g>
</g>
<!-- Node14&#45;&gt;Node2 -->
<g id="edge14_Node000014_Node000002" class="edge">
<title>Node14&#45;&gt;Node2</title>
<g id="a_edge14_Node000014_Node000002"><a xlink:title=" ">
<path fill="none" stroke="#63b8ff" d="M90.25,-132.48C127.17,-141.43 180.24,-154.91 217.18,-164.69"/>
<polygon fill="#63b8ff" stroke="#63b8ff" points="216.06,-168.01 226.63,-167.2 217.87,-161.25 216.06,-168.01"/>
</a>
</g>
</g>
<!-- Node15&#45;&gt;Node2 -->
<g id="edge21_Node000015_Node000002" class="edge">
<title>Node15&#45;&gt;Node2</title>
<g id="a_edge21_Node000015_Node000002"><a xlink:title=" ">
<path fill="none" stroke="#63b8ff" d="M485.7,-224.02C439.24,-214.77 366.68,-200.31 316.38,-190.28"/>
<polygon fill="#63b8ff" stroke="#63b8ff" points="317.34,-186.91 306.85,-188.39 315.97,-193.77 317.34,-186.91"/>
</a>
</g>
</g>
<!-- Node15&#45;&gt;Node3 -->
<g id="edge16_Node000015_Node000003" class="edge">
<title>Node15&#45;&gt;Node3</title>
<g id="a_edge16_Node000015_Node000003"><a xlink:title=" ">
<path fill="none" stroke="#63b8ff" d="M530.51,-223.7C530.31,-202.73 531.83,-150.57 549.75,-112 554.56,-101.65 562.48,-91.85 569.93,-84.06"/>
<polygon fill="#63b8ff" stroke="#63b8ff" points="572.18,-86.75 576.87,-77.25 567.28,-81.75 572.18,-86.75"/>
</a>
</g>
</g>
<!-- Node16 -->
<g id="Node000016" class="node">
<title>Node16</title>
<g id="a_Node000016"><a xlink:href="_r_t_t_i_8h.html" target="_top" xlink:title=" ">
<polygon fill="white" stroke="#666666" points="502.62,-132 374.88,-132 374.88,-112 502.62,-112 502.62,-132"/>
<text xml:space="preserve" text-anchor="middle" x="438.75" y="-118.5" font-family="Helvetica,sans-Serif" font-size="10.00">FIEAGameEngine/RTTI.h</text>
</a>
</g>
</g>
<!-- Node15&#45;&gt;Node16 -->
<g id="edge17_Node000015_Node000016" class="edge">
<title>Node15&#45;&gt;Node16</title>
<g id="a_edge17_Node000015_Node000016"><a xlink:title=" ">
<path fill="none" stroke="#63b8ff" d="M522.91,-223.62C507.63,-205.36 473.65,-164.73 453.86,-141.07"/>
<polygon fill="#63b8ff" stroke="#63b8ff" points="456.65,-138.94 447.55,-133.52 451.28,-143.43 456.65,-138.94"/>
</a>
</g>
</g>
<!-- Node18 -->
<g id="Node000018" class="node">
<title>Node18</title>
<g id="a_Node000018"><a xlink:href="_factory_service_8h.html" target="_top" xlink:title=" ">
<polygon fill="white" stroke="#666666" points="730.75,-188 558.75,-188 558.75,-168 730.75,-168 730.75,-188"/>
<text xml:space="preserve" text-anchor="middle" x="644.75" y="-174.5" font-family="Helvetica,sans-Serif" font-size="10.00">FIEAGameEngine/FactoryService.h</text>
</a>
</g>
</g>
<!-- Node15&#45;&gt;Node18 -->
<g id="edge22_Node000015_Node000018" class="edge">
<title>Node15&#45;&gt;Node18</title>
<g id="a_edge22_Node000015_Node000018"><a xlink:title=" ">
<path fill="none" stroke="#63b8ff" d="M550.61,-223.59C568.24,-215.24 594.26,-202.92 614.48,-193.34"/>
<polygon fill="#63b8ff" stroke="#63b8ff" points="615.83,-196.57 623.37,-189.13 612.83,-190.25 615.83,-196.57"/>
</a>
</g>
</g>
<!-- Node20 -->
<g id="Node000020" class="node">
<title>Node20</title>
<g id="a_Node000020"><a xlink:title=" ">
<polygon fill="#e0e0e0" stroke="#999999" points="894.12,-76 811.38,-76 811.38,-56 894.12,-56 894.12,-76"/>
<text xml:space="preserve" text-anchor="middle" x="852.75" y="-62.5" font-family="Helvetica,sans-Serif" font-size="10.00">unordered_map</text>
</a>
</g>
</g>
<!-- Node15&#45;&gt;Node20 -->
<g id="edge31_Node000015_Node000020" class="edge">
<title>Node15&#45;&gt;Node20</title>
<g id="a_edge31_Node000015_Node000020"><a xlink:title=" ">
<path fill="none" stroke="#63b8ff" d="M575.74,-229.07C642.35,-222.67 763.48,-208.59 801.75,-188 831.66,-171.91 841.34,-163.61 853.75,-132 859.31,-117.83 858.74,-100.55 856.95,-87.36"/>
<polygon fill="#63b8ff" stroke="#63b8ff" points="860.43,-86.97 855.28,-77.71 853.53,-88.16 860.43,-86.97"/>
</a>
</g>
</g>
<!-- Node22 -->
<g id="Node000022" class="node">
<title>Node22</title>
<g id="a_Node000022"><a xlink:title=" ">
<polygon fill="#e0e0e0" stroke="#999999" points="792.25,-188 749.25,-188 749.25,-168 792.25,-168 792.25,-188"/>
<text xml:space="preserve" text-anchor="middle" x="770.75" y="-174.5" font-family="Helvetica,sans-Serif" font-size="10.00">vector</text>
</a>
</g>
</g>
<!-- Node15&#45;&gt;Node22 -->
<g id="edge30_Node000015_Node000022" class="edge">
<title>Node15&#45;&gt;Node22</title>
<g id="a_edge30_Node000015_Node000022"><a xlink:title=" ">
<path fill="none" stroke="#63b8ff" d="M575.81,-224.25C615.88,-216.26 676.28,-203.7 737.71,-188.37"/>
<polygon fill="#63b8ff" stroke="#63b8ff" points="738.48,-191.79 747.32,-185.95 736.77,-185 738.48,-191.79"/>
</a>
</g>
</g>
<!-- Node16&#45;&gt;Node3 -->
<g id="edge18_Node000016_Node000003" class="edge">
<title>Node16&#45;&gt;Node3</title>
<g id="a_edge18_Node000016_Node000003"><a xlink:title=" ">
<path fill="none" stroke="#63b8ff" d="M464.88,-111.59C488.93,-102.94 524.85,-90 551.83,-80.29"/>
<polygon fill="#63b8ff" stroke="#63b8ff" points="552.77,-83.67 560.99,-76.99 550.4,-77.09 552.77,-83.67"/>
</a>
</g>
</g>
<!-- Node17 -->
<g id="Node000017" class="node">
<title>Node17</title>
<g id="a_Node000017"><a xlink:href="_r_t_t_i_8inl.html" target="_top" xlink:title=" ">
<polygon fill="white" stroke="#666666" points="504.88,-76 372.62,-76 372.62,-56 504.88,-56 504.88,-76"/>
<text xml:space="preserve" text-anchor="middle" x="438.75" y="-62.5" font-family="Helvetica,sans-Serif" font-size="10.00">FIEAGameEngine/RTTI.inl</text>
</a>
</g>
</g>
<!-- Node16&#45;&gt;Node17 -->
<g id="edge19_Node000016_Node000017" class="edge">
<title>Node16&#45;&gt;Node17</title>
<g id="a_edge19_Node000016_Node000017"><a xlink:title=" ">
<path fill="none" stroke="#63b8ff" d="M433.48,-111.59C432.17,-105.01 431.73,-95.96 432.16,-87.73"/>
<polygon fill="#63b8ff" stroke="#63b8ff" points="435.64,-88.14 433.33,-77.8 428.69,-87.33 435.64,-88.14"/>
</a>
</g>
</g>
<!-- Node17&#45;&gt;Node16 -->
<g id="edge20_Node000017_Node000016" class="edge">
<title>Node17&#45;&gt;Node16</title>
<g id="a_edge20_Node000017_Node000016"><a xlink:title=" ">
<path fill="none" stroke="#63b8ff" d="M444,-76.3C445.34,-82.93 445.78,-92.11 445.33,-100.43"/>
<polygon fill="#63b8ff" stroke="#63b8ff" points="441.88,-99.75 444.19,-110.09 448.83,-100.57 441.88,-99.75"/>
</a>
</g>
</g>
<!-- Node18&#45;&gt;Node3 -->
<g id="edge23_Node000018_Node000003" class="edge">
<title>Node18&#45;&gt;Node3</title>
<g id="a_edge23_Node000018_Node000003"><a xlink:title=" ">
<path fill="none" stroke="#63b8ff" d="M642.42,-167.82C638.94,-154.9 631.71,-130.84 621.75,-112 616.85,-102.73 610.19,-93.25 604.13,-85.39"/>
<polygon fill="#63b8ff" stroke="#63b8ff" points="606.9,-83.25 597.92,-77.64 601.44,-87.63 606.9,-83.25"/>
</a>
</g>
</g>
<!-- Node18&#45;&gt;Node16 -->
<g id="edge24_Node000018_Node000016" class="edge">
<title>Node18&#45;&gt;Node16</title>
<g id="a_edge24_Node000018_Node000016"><a xlink:title=" ">
<path fill="none" stroke="#63b8ff" d="M608.87,-167.59C574.81,-158.67 523.42,-145.19 486.03,-135.39"/>
<polygon fill="#63b8ff" stroke="#63b8ff" points="486.94,-132.01 476.38,-132.86 485.16,-138.78 486.94,-132.01"/>
</a>
</g>
</g>
<!-- Node19 -->
<g id="Node000019" class="node">
<title>Node19</title>
<g id="a_Node000019"><a xlink:href="_service_mgr_8h.html" target="_top" xlink:title=" ">
<polygon fill="white" stroke="#666666" points="824.5,-132 669,-132 669,-112 824.5,-112 824.5,-132"/>
<text xml:space="preserve" text-anchor="middle" x="746.75" y="-118.5" font-family="Helvetica,sans-Serif" font-size="10.00">FIEAGameEngine/ServiceMgr.h</text>
</a>
</g>
</g>
<!-- Node18&#45;&gt;Node19 -->
<g id="edge25_Node000018_Node000019" class="edge">
<title>Node18&#45;&gt;Node19</title>
<g id="a_edge25_Node000018_Node000019"><a xlink:title=" ">
<path fill="none" stroke="#63b8ff" d="M662.52,-167.59C678.07,-159.36 700.93,-147.26 718.91,-137.74"/>
<polygon fill="#63b8ff" stroke="#63b8ff" points="720.31,-140.96 727.51,-133.19 717.03,-134.77 720.31,-140.96"/>
</a>
</g>
</g>
<!-- Node18&#45;&gt;Node20 -->
<g id="edge29_Node000018_Node000020" class="edge">
<title>Node18&#45;&gt;Node20</title>
<g id="a_edge29_Node000018_Node000020"><a xlink:title=" ">
<path fill="none" stroke="#63b8ff" d="M716.45,-167.51C762.5,-160.03 816.76,-148.15 833.75,-132 845.74,-120.6 850.29,-102.08 851.96,-87.72"/>
<polygon fill="#63b8ff" stroke="#63b8ff" points="855.43,-88.2 852.68,-77.97 848.45,-87.68 855.43,-88.2"/>
</a>
</g>
</g>
<!-- Node21 -->
<g id="Node000021" class="node">
<title>Node21</title>
<g id="a_Node000021"><a xlink:title=" ">
<polygon fill="#e0e0e0" stroke="#999999" points="612.5,-132 559,-132 559,-112 612.5,-112 612.5,-132"/>
<text xml:space="preserve" text-anchor="middle" x="585.75" y="-118.5" font-family="Helvetica,sans-Serif" font-size="10.00">iostream</text>
</a>
</g>
</g>
<!-- Node18&#45;&gt;Node21 -->
<g id="edge28_Node000018_Node000021" class="edge">
<title>Node18&#45;&gt;Node21</title>
<g id="a_edge28_Node000018_Node000021"><a xlink:title=" ">
<path fill="none" stroke="#63b8ff" d="M634.47,-167.59C626.18,-160.01 614.3,-149.13 604.35,-140.02"/>
<polygon fill="#63b8ff" stroke="#63b8ff" points="606.77,-137.49 597.03,-133.32 602.04,-142.65 606.77,-137.49"/>
</a>
</g>
</g>
<!-- Node19&#45;&gt;Node3 -->
<g id="edge26_Node000019_Node000003" class="edge">
<title>Node19&#45;&gt;Node3</title>
<g id="a_edge26_Node000019_Node000003"><a xlink:title=" ">
<path fill="none" stroke="#63b8ff" d="M719.23,-111.59C693.78,-102.9 655.72,-89.89 627.26,-80.16"/>
<polygon fill="#63b8ff" stroke="#63b8ff" points="628.51,-76.89 617.92,-76.97 626.25,-83.52 628.51,-76.89"/>
</a>
</g>
</g>
<!-- Node19&#45;&gt;Node20 -->
<g id="edge27_Node000019_Node000020" class="edge">
<title>Node19&#45;&gt;Node20</title>
<g id="a_edge27_Node000019_Node000020"><a xlink:title=" ">
<path fill="none" stroke="#63b8ff" d="M765.21,-111.59C781.45,-103.32 805.36,-91.14 824.08,-81.6"/>
<polygon fill="#63b8ff" stroke="#63b8ff" points="825.47,-84.82 832.79,-77.17 822.29,-78.59 825.47,-84.82"/>
</a>
</g>
</g>
</g>
</svg>
