<?xml version="1.0" encoding="UTF-8" standalone="no"?>
<!DOCTYPE svg PUBLIC "-//W3C//DTD SVG 1.1//EN"
 "http://www.w3.org/Graphics/SVG/1.1/DTD/svg11.dtd">
<!-- Generated by graphviz version 13.1.0 (20250701.0955)
 -->
<!-- Title: Tests/Support/Empty.h Pages: 1 -->
<svg width="184pt" height="140pt"
 viewBox="0.00 0.00 184.00 140.00" xmlns="http://www.w3.org/2000/svg" xmlns:xlink="http://www.w3.org/1999/xlink">
<g id="graph0" class="graph" transform="scale(1 1) rotate(0) translate(4 136)">
<title>Tests/Support/Empty.h</title>
<!-- Node1 -->
<g id="Node000001" class="node">
<title>Node1</title>
<g id="a_Node000001"><a xlink:title=" ">
<polygon fill="#999999" stroke="#666666" points="115.75,-132 0,-132 0,-112 115.75,-112 115.75,-132"/>
<text xml:space="preserve" text-anchor="middle" x="57.88" y="-118.5" font-family="Helvetica,sans-Serif" font-size="10.00">Tests/Support/Empty.h</text>
</a>
</g>
</g>
<!-- Node2 -->
<g id="Node000002" class="node">
<title>Node2</title>
<g id="a_Node000002"><a xlink:href="_r_t_t_i_test_8cpp.html" target="_top" xlink:title=" ">
<polygon fill="white" stroke="#666666" points="109,-20 6.75,-20 6.75,0 109,0 109,-20"/>
<text xml:space="preserve" text-anchor="middle" x="57.88" y="-6.5" font-family="Helvetica,sans-Serif" font-size="10.00">Tests/RTTITest.cpp</text>
</a>
</g>
</g>
<!-- Node1&#45;&gt;Node2 -->
<g id="edge1_Node000001_Node000002" class="edge">
<title>Node1&#45;&gt;Node2</title>
<g id="a_edge1_Node000001_Node000002"><a xlink:title=" ">
<path fill="none" stroke="#63b8ff" d="M41.97,-102.5C36.37,-94.82 30.75,-85.5 27.88,-76 21.61,-55.3 37.72,-32.71 48.68,-20.36"/>
<polygon fill="#63b8ff" stroke="#63b8ff" points="39.21,-104.65 48.15,-110.33 44.7,-100.31 39.21,-104.65"/>
</a>
</g>
</g>
<!-- Node3 -->
<g id="Node000003" class="node">
<title>Node3</title>
<g id="a_Node000003"><a xlink:href="_empty_child_8h.html" target="_top" xlink:title=" ">
<polygon fill="white" stroke="#666666" points="176.38,-76 37.38,-76 37.38,-56 176.38,-56 176.38,-76"/>
<text xml:space="preserve" text-anchor="middle" x="106.88" y="-62.5" font-family="Helvetica,sans-Serif" font-size="10.00">Tests/Support/EmptyChild.h</text>
</a>
</g>
</g>
<!-- Node1&#45;&gt;Node3 -->
<g id="edge2_Node000001_Node000003" class="edge">
<title>Node1&#45;&gt;Node3</title>
<g id="a_edge2_Node000001_Node000003"><a xlink:title=" ">
<path fill="none" stroke="#63b8ff" d="M73.95,-103.29C82.12,-94.28 91.72,-83.7 98.44,-76.3"/>
<polygon fill="#63b8ff" stroke="#63b8ff" points="71.56,-100.72 67.43,-110.47 76.74,-105.42 71.56,-100.72"/>
</a>
</g>
</g>
<!-- Node3&#45;&gt;Node2 -->
<g id="edge3_Node000003_Node000002" class="edge">
<title>Node3&#45;&gt;Node2</title>
<g id="a_edge3_Node000003_Node000002"><a xlink:title=" ">
<path fill="none" stroke="#63b8ff" d="M90.8,-47.29C82.63,-38.28 73.03,-27.7 66.31,-20.3"/>
<polygon fill="#63b8ff" stroke="#63b8ff" points="88.01,-49.42 97.32,-54.47 93.19,-44.72 88.01,-49.42"/>
</a>
</g>
</g>
</g>
</svg>
