<?xml version="1.0" encoding="UTF-8" standalone="no"?>
<!DOCTYPE svg PUBLIC "-//W3C//DTD SVG 1.1//EN"
 "http://www.w3.org/Graphics/SVG/1.1/DTD/svg11.dtd">
<!-- Generated by graphviz version 13.1.0 (20250701.0955)
 -->
<!-- Title: Tests/Support/EmptyChild.h Pages: 1 -->
<svg width="644pt" height="252pt"
 viewBox="0.00 0.00 644.00 252.00" xmlns="http://www.w3.org/2000/svg" xmlns:xlink="http://www.w3.org/1999/xlink">
<g id="graph0" class="graph" transform="scale(1 1) rotate(0) translate(4 248)">
<title>Tests/Support/EmptyChild.h</title>
<!-- Node1 -->
<g id="Node000001" class="node">
<title>Node1</title>
<g id="a_Node000001"><a xlink:title=" ">
<polygon fill="#999999" stroke="#666666" points="624.5,-244 485.5,-244 485.5,-224 624.5,-224 624.5,-244"/>
<text xml:space="preserve" text-anchor="middle" x="555" y="-230.5" font-family="Helvetica,sans-Serif" font-size="10.00">Tests/Support/EmptyChild.h</text>
</a>
</g>
</g>
<!-- Node2 -->
<g id="Node000002" class="node">
<title>Node2</title>
<g id="a_Node000002"><a xlink:href="_empty_8h.html" target="_top" xlink:title=" ">
<polygon fill="white" stroke="#666666" points="527,-188 475,-188 475,-168 527,-168 527,-188"/>
<text xml:space="preserve" text-anchor="middle" x="501" y="-174.5" font-family="Helvetica,sans-Serif" font-size="10.00">Empty.h</text>
</a>
</g>
</g>
<!-- Node1&#45;&gt;Node2 -->
<g id="edge1_Node000001_Node000002" class="edge">
<title>Node1&#45;&gt;Node2</title>
<g id="a_edge1_Node000001_Node000002"><a xlink:title=" ">
<path fill="none" stroke="#63b8ff" d="M545.59,-223.59C538.08,-216.08 527.35,-205.35 518.3,-196.3"/>
<polygon fill="#63b8ff" stroke="#63b8ff" points="520.91,-193.96 511.37,-189.37 515.96,-198.91 520.91,-193.96"/>
</a>
</g>
</g>
<!-- Node3 -->
<g id="Node000003" class="node">
<title>Node3</title>
<g id="a_Node000003"><a xlink:href="_r_t_t_i_8h.html" target="_top" xlink:title=" ">
<polygon fill="white" stroke="#666666" points="591.88,-132 464.12,-132 464.12,-112 591.88,-112 591.88,-132"/>
<text xml:space="preserve" text-anchor="middle" x="528" y="-118.5" font-family="Helvetica,sans-Serif" font-size="10.00">FIEAGameEngine/RTTI.h</text>
</a>
</g>
</g>
<!-- Node1&#45;&gt;Node3 -->
<g id="edge14_Node000001_Node000003" class="edge">
<title>Node1&#45;&gt;Node3</title>
<g id="a_edge14_Node000001_Node000003"><a xlink:title=" ">
<path fill="none" stroke="#63b8ff" d="M552.7,-223.62C548.35,-205.92 538.86,-167.24 532.99,-143.32"/>
<polygon fill="#63b8ff" stroke="#63b8ff" points="536.44,-142.7 530.66,-133.82 529.64,-144.37 536.44,-142.7"/>
</a>
</g>
</g>
<!-- Node14 -->
<g id="Node000014" class="node">
<title>Node14</title>
<g id="a_Node000014"><a xlink:title=" ">
<polygon fill="#e0e0e0" stroke="#999999" points="634.62,-188 583.38,-188 583.38,-168 634.62,-168 634.62,-188"/>
<text xml:space="preserve" text-anchor="middle" x="609" y="-174.5" font-family="Helvetica,sans-Serif" font-size="10.00">sstream</text>
</a>
</g>
</g>
<!-- Node1&#45;&gt;Node14 -->
<g id="edge15_Node000001_Node000014" class="edge">
<title>Node1&#45;&gt;Node14</title>
<g id="a_edge15_Node000001_Node000014"><a xlink:title=" ">
<path fill="none" stroke="#63b8ff" d="M564.41,-223.59C571.92,-216.08 582.65,-205.35 591.7,-196.3"/>
<polygon fill="#63b8ff" stroke="#63b8ff" points="594.04,-198.91 598.63,-189.37 589.09,-193.96 594.04,-198.91"/>
</a>
</g>
</g>
<!-- Node2&#45;&gt;Node3 -->
<g id="edge2_Node000002_Node000003" class="edge">
<title>Node2&#45;&gt;Node3</title>
<g id="a_edge2_Node000002_Node000003"><a xlink:title=" ">
<path fill="none" stroke="#63b8ff" d="M505.7,-167.59C509.15,-160.7 513.95,-151.1 518.21,-142.57"/>
<polygon fill="#63b8ff" stroke="#63b8ff" points="521.33,-144.16 522.67,-133.65 515.07,-141.03 521.33,-144.16"/>
</a>
</g>
</g>
<!-- Node4 -->
<g id="Node000004" class="node">
<title>Node4</title>
<g id="a_Node000004"><a xlink:href="_types_8h.html" target="_top" xlink:title=" ">
<polygon fill="white" stroke="#666666" points="444.25,-76 315.75,-76 315.75,-56 444.25,-56 444.25,-76"/>
<text xml:space="preserve" text-anchor="middle" x="380" y="-62.5" font-family="Helvetica,sans-Serif" font-size="10.00">FieaGameEngine/Types.h</text>
</a>
</g>
</g>
<!-- Node3&#45;&gt;Node4 -->
<g id="edge3_Node000003_Node000004" class="edge">
<title>Node3&#45;&gt;Node4</title>
<g id="a_edge3_Node000003_Node000004"><a xlink:title=" ">
<path fill="none" stroke="#63b8ff" d="M502.22,-111.59C478.6,-102.97 443.36,-90.12 416.78,-80.42"/>
<polygon fill="#63b8ff" stroke="#63b8ff" points="418,-77.14 407.4,-77 415.6,-83.71 418,-77.14"/>
</a>
</g>
</g>
<!-- Node13 -->
<g id="Node000013" class="node">
<title>Node13</title>
<g id="a_Node000013"><a xlink:href="_r_t_t_i_8inl.html" target="_top" xlink:title=" ">
<polygon fill="white" stroke="#666666" points="594.12,-76 461.88,-76 461.88,-56 594.12,-56 594.12,-76"/>
<text xml:space="preserve" text-anchor="middle" x="528" y="-62.5" font-family="Helvetica,sans-Serif" font-size="10.00">FIEAGameEngine/RTTI.inl</text>
</a>
</g>
</g>
<!-- Node3&#45;&gt;Node13 -->
<g id="edge12_Node000003_Node000013" class="edge">
<title>Node3&#45;&gt;Node13</title>
<g id="a_edge12_Node000003_Node000013"><a xlink:title=" ">
<path fill="none" stroke="#63b8ff" d="M522.73,-111.59C521.42,-105.01 520.98,-95.96 521.41,-87.73"/>
<polygon fill="#63b8ff" stroke="#63b8ff" points="524.89,-88.14 522.58,-77.8 517.94,-87.33 524.89,-88.14"/>
</a>
</g>
</g>
<!-- Node5 -->
<g id="Node000005" class="node">
<title>Node5</title>
<g id="a_Node000005"><a xlink:title=" ">
<polygon fill="#e0e0e0" stroke="#999999" points="160,-20 0,-20 0,0 160,0 160,-20"/>
<text xml:space="preserve" text-anchor="middle" x="80" y="-6.5" font-family="Helvetica,sans-Serif" font-size="10.00">../src/Memory/SystemAllocator.h</text>
</a>
</g>
</g>
<!-- Node4&#45;&gt;Node5 -->
<g id="edge4_Node000004_Node000005" class="edge">
<title>Node4&#45;&gt;Node5</title>
<g id="a_edge4_Node000004_Node000005"><a xlink:title=" ">
<path fill="none" stroke="#63b8ff" d="M327.4,-55.53C276.26,-46.33 198.5,-32.33 143.83,-22.49"/>
<polygon fill="#63b8ff" stroke="#63b8ff" points="144.49,-19.05 134.03,-20.73 143.25,-25.94 144.49,-19.05"/>
</a>
</g>
</g>
<!-- Node6 -->
<g id="Node000006" class="node">
<title>Node6</title>
<g id="a_Node000006"><a xlink:title=" ">
<polygon fill="#e0e0e0" stroke="#999999" points="240.25,-20 177.75,-20 177.75,0 240.25,0 240.25,-20"/>
<text xml:space="preserve" text-anchor="middle" x="209" y="-6.5" font-family="Helvetica,sans-Serif" font-size="10.00">windows.h</text>
</a>
</g>
</g>
<!-- Node4&#45;&gt;Node6 -->
<g id="edge5_Node000004_Node000006" class="edge">
<title>Node4&#45;&gt;Node6</title>
<g id="a_edge5_Node000004_Node000006"><a xlink:title=" ">
<path fill="none" stroke="#63b8ff" d="M350.21,-55.59C322.43,-46.82 280.75,-33.66 249.86,-23.9"/>
<polygon fill="#63b8ff" stroke="#63b8ff" points="251.05,-20.61 240.46,-20.94 248.94,-27.28 251.05,-20.61"/>
</a>
</g>
</g>
<!-- Node7 -->
<g id="Node000007" class="node">
<title>Node7</title>
<g id="a_Node000007"><a xlink:title=" ">
<polygon fill="#e0e0e0" stroke="#999999" points="306.12,-20 257.88,-20 257.88,0 306.12,0 306.12,-20"/>
<text xml:space="preserve" text-anchor="middle" x="282" y="-6.5" font-family="Helvetica,sans-Serif" font-size="10.00">cassert</text>
</a>
</g>
</g>
<!-- Node4&#45;&gt;Node7 -->
<g id="edge6_Node000004_Node000007" class="edge">
<title>Node4&#45;&gt;Node7</title>
<g id="a_edge6_Node000004_Node000007"><a xlink:title=" ">
<path fill="none" stroke="#63b8ff" d="M362.93,-55.59C348.12,-47.44 326.43,-35.48 309.23,-26"/>
<polygon fill="#63b8ff" stroke="#63b8ff" points="310.98,-22.97 300.53,-21.21 307.6,-29.1 310.98,-22.97"/>
</a>
</g>
</g>
<!-- Node8 -->
<g id="Node000008" class="node">
<title>Node8</title>
<g id="a_Node000008"><a xlink:title=" ">
<polygon fill="#e0e0e0" stroke="#999999" points="372.12,-20 323.88,-20 323.88,0 372.12,0 372.12,-20"/>
<text xml:space="preserve" text-anchor="middle" x="348" y="-6.5" font-family="Helvetica,sans-Serif" font-size="10.00">cstddef</text>
</a>
</g>
</g>
<!-- Node4&#45;&gt;Node8 -->
<g id="edge7_Node000004_Node000008" class="edge">
<title>Node4&#45;&gt;Node8</title>
<g id="a_edge7_Node000004_Node000008"><a xlink:title=" ">
<path fill="none" stroke="#63b8ff" d="M374.43,-55.59C370.25,-48.55 364.4,-38.67 359.26,-30"/>
<polygon fill="#63b8ff" stroke="#63b8ff" points="362.39,-28.42 354.28,-21.6 356.37,-31.99 362.39,-28.42"/>
</a>
</g>
</g>
<!-- Node9 -->
<g id="Node000009" class="node">
<title>Node9</title>
<g id="a_Node000009"><a xlink:title=" ">
<polygon fill="#e0e0e0" stroke="#999999" points="435.62,-20 390.38,-20 390.38,0 435.62,0 435.62,-20"/>
<text xml:space="preserve" text-anchor="middle" x="413" y="-6.5" font-family="Helvetica,sans-Serif" font-size="10.00">cstdint</text>
</a>
</g>
</g>
<!-- Node4&#45;&gt;Node9 -->
<g id="edge8_Node000004_Node000009" class="edge">
<title>Node4&#45;&gt;Node9</title>
<g id="a_edge8_Node000004_Node000009"><a xlink:title=" ">
<path fill="none" stroke="#63b8ff" d="M385.75,-55.59C390.05,-48.55 396.09,-38.67 401.39,-30"/>
<polygon fill="#63b8ff" stroke="#63b8ff" points="404.3,-31.95 406.53,-21.59 398.33,-28.3 404.3,-31.95"/>
</a>
</g>
</g>
<!-- Node10 -->
<g id="Node000010" class="node">
<title>Node10</title>
<g id="a_Node000010"><a xlink:title=" ">
<polygon fill="#e0e0e0" stroke="#999999" points="506.38,-20 453.62,-20 453.62,0 506.38,0 506.38,-20"/>
<text xml:space="preserve" text-anchor="middle" x="480" y="-6.5" font-family="Helvetica,sans-Serif" font-size="10.00">cstdbool</text>
</a>
</g>
</g>
<!-- Node4&#45;&gt;Node10 -->
<g id="edge9_Node000004_Node000010" class="edge">
<title>Node4&#45;&gt;Node10</title>
<g id="a_edge9_Node000004_Node000010"><a xlink:title=" ">
<path fill="none" stroke="#63b8ff" d="M397.42,-55.59C412.67,-47.36 435.08,-35.26 452.71,-25.74"/>
<polygon fill="#63b8ff" stroke="#63b8ff" points="453.98,-29.03 461.11,-21.2 450.65,-22.87 453.98,-29.03"/>
</a>
</g>
</g>
<!-- Node11 -->
<g id="Node000011" class="node">
<title>Node11</title>
<g id="a_Node000011"><a xlink:title=" ">
<polygon fill="#e0e0e0" stroke="#999999" points="564,-20 524,-20 524,0 564,0 564,-20"/>
<text xml:space="preserve" text-anchor="middle" x="544" y="-6.5" font-family="Helvetica,sans-Serif" font-size="10.00">string</text>
</a>
</g>
</g>
<!-- Node4&#45;&gt;Node11 -->
<g id="edge10_Node000004_Node000011" class="edge">
<title>Node4&#45;&gt;Node11</title>
<g id="a_edge10_Node000004_Node000011"><a xlink:title=" ">
<path fill="none" stroke="#63b8ff" d="M408.57,-55.59C437.7,-46 482.77,-31.16 512.81,-21.27"/>
<polygon fill="#63b8ff" stroke="#63b8ff" points="513.69,-24.67 522.09,-18.21 511.5,-18.02 513.69,-24.67"/>
</a>
</g>
</g>
<!-- Node12 -->
<g id="Node000012" class="node">
<title>Node12</title>
<g id="a_Node000012"><a xlink:title=" ">
<polygon fill="#e0e0e0" stroke="#999999" points="636.12,-20 581.88,-20 581.88,0 636.12,0 636.12,-20"/>
<text xml:space="preserve" text-anchor="middle" x="609" y="-6.5" font-family="Helvetica,sans-Serif" font-size="10.00">crtdefs.h</text>
</a>
</g>
</g>
<!-- Node4&#45;&gt;Node12 -->
<g id="edge11_Node000004_Node000012" class="edge">
<title>Node4&#45;&gt;Node12</title>
<g id="a_edge11_Node000004_Node000012"><a xlink:title=" ">
<path fill="none" stroke="#63b8ff" d="M421.46,-55.53C458.2,-47.1 513.61,-34.27 570.48,-20.58"/>
<polygon fill="#63b8ff" stroke="#63b8ff" points="571.12,-24.03 580.02,-18.28 569.48,-17.22 571.12,-24.03"/>
</a>
</g>
</g>
<!-- Node13&#45;&gt;Node3 -->
<g id="edge13_Node000013_Node000003" class="edge">
<title>Node13&#45;&gt;Node3</title>
<g id="a_edge13_Node000013_Node000003"><a xlink:title=" ">
<path fill="none" stroke="#63b8ff" d="M533.25,-76.3C534.59,-82.93 535.03,-92.11 534.58,-100.43"/>
<polygon fill="#63b8ff" stroke="#63b8ff" points="531.13,-99.75 533.44,-110.09 538.08,-100.57 531.13,-99.75"/>
</a>
</g>
</g>
</g>
</svg>
