<?xml version="1.0" encoding="UTF-8" standalone="no"?>
<!DOCTYPE svg PUBLIC "-//W3C//DTD SVG 1.1//EN"
 "http://www.w3.org/Graphics/SVG/1.1/DTD/svg11.dtd">
<!-- Generated by graphviz version 13.1.0 (20250701.0955)
 -->
<!-- Title: FIEAGameEngine/include/FIEAGameEngine/FactoryService.cpp Pages: 1 -->
<svg width="644pt" height="264pt"
 viewBox="0.00 0.00 644.00 264.00" xmlns="http://www.w3.org/2000/svg" xmlns:xlink="http://www.w3.org/1999/xlink">
<g id="graph0" class="graph" transform="scale(1 1) rotate(0) translate(4 260)">
<title>FIEAGameEngine/include/FIEAGameEngine/FactoryService.cpp</title>
<!-- Node1 -->
<g id="Node000001" class="node">
<title>Node1</title>
<g id="a_Node000001"><a xlink:title=" ">
<polygon fill="#999999" stroke="#666666" points="520.75,-256 335.25,-256 335.25,-224 520.75,-224 520.75,-256"/>
<text xml:space="preserve" text-anchor="start" x="343.25" y="-242.5" font-family="Helvetica,sans-Serif" font-size="10.00">FIEAGameEngine/include</text>
<text xml:space="preserve" text-anchor="middle" x="428" y="-230.5" font-family="Helvetica,sans-Serif" font-size="10.00">/FIEAGameEngine/FactoryService.cpp</text>
</a>
</g>
</g>
<!-- Node2 -->
<g id="Node000002" class="node">
<title>Node2</title>
<g id="a_Node000002"><a xlink:href="_factory_service_8h.html" target="_top" xlink:title=" ">
<polygon fill="white" stroke="#666666" points="514,-188 342,-188 342,-168 514,-168 514,-188"/>
<text xml:space="preserve" text-anchor="middle" x="428" y="-174.5" font-family="Helvetica,sans-Serif" font-size="10.00">FIEAGameEngine/FactoryService.h</text>
</a>
</g>
</g>
<!-- Node1&#45;&gt;Node2 -->
<g id="edge1_Node000001_Node000002" class="edge">
<title>Node1&#45;&gt;Node2</title>
<g id="a_edge1_Node000001_Node000002"><a xlink:title=" ">
<path fill="none" stroke="#63b8ff" d="M428,-223.55C428,-216.34 428,-207.66 428,-199.88"/>
<polygon fill="#63b8ff" stroke="#63b8ff" points="431.5,-199.92 428,-189.92 424.5,-199.92 431.5,-199.92"/>
</a>
</g>
</g>
<!-- Node3 -->
<g id="Node000003" class="node">
<title>Node3</title>
<g id="a_Node000003"><a xlink:href="_types_8h.html" target="_top" xlink:title=" ">
<polygon fill="white" stroke="#666666" points="446.12,-76 313.88,-76 313.88,-56 446.12,-56 446.12,-76"/>
<text xml:space="preserve" text-anchor="middle" x="380" y="-62.5" font-family="Helvetica,sans-Serif" font-size="10.00">FIEAGameEngine/Types.h</text>
</a>
</g>
</g>
<!-- Node2&#45;&gt;Node3 -->
<g id="edge2_Node000002_Node000003" class="edge">
<title>Node2&#45;&gt;Node3</title>
<g id="a_edge2_Node000002_Node000003"><a xlink:title=" ">
<path fill="none" stroke="#63b8ff" d="M390.76,-167.65C372.38,-160.95 351.87,-149.87 341,-132 331.08,-115.71 344.89,-97.03 358.74,-83.89"/>
<polygon fill="#63b8ff" stroke="#63b8ff" points="360.82,-86.72 366.02,-77.49 356.2,-81.47 360.82,-86.72"/>
</a>
</g>
</g>
<!-- Node12 -->
<g id="Node000012" class="node">
<title>Node12</title>
<g id="a_Node000012"><a xlink:href="_r_t_t_i_8h.html" target="_top" xlink:title=" ">
<polygon fill="white" stroke="#666666" points="293.88,-132 166.12,-132 166.12,-112 293.88,-112 293.88,-132"/>
<text xml:space="preserve" text-anchor="middle" x="230" y="-118.5" font-family="Helvetica,sans-Serif" font-size="10.00">FIEAGameEngine/RTTI.h</text>
</a>
</g>
</g>
<!-- Node2&#45;&gt;Node12 -->
<g id="edge11_Node000002_Node000012" class="edge">
<title>Node2&#45;&gt;Node12</title>
<g id="a_edge11_Node000002_Node000012"><a xlink:title=" ">
<path fill="none" stroke="#63b8ff" d="M393.51,-167.59C360.78,-158.67 311.38,-145.19 275.44,-135.39"/>
<polygon fill="#63b8ff" stroke="#63b8ff" points="276.79,-132.13 266.22,-132.88 274.95,-138.89 276.79,-132.13"/>
</a>
</g>
</g>
<!-- Node14 -->
<g id="Node000014" class="node">
<title>Node14</title>
<g id="a_Node000014"><a xlink:href="_service_mgr_8h.html" target="_top" xlink:title=" ">
<polygon fill="white" stroke="#666666" points="505.75,-132 350.25,-132 350.25,-112 505.75,-112 505.75,-132"/>
<text xml:space="preserve" text-anchor="middle" x="428" y="-118.5" font-family="Helvetica,sans-Serif" font-size="10.00">FIEAGameEngine/ServiceMgr.h</text>
</a>
</g>
</g>
<!-- Node2&#45;&gt;Node14 -->
<g id="edge15_Node000002_Node000014" class="edge">
<title>Node2&#45;&gt;Node14</title>
<g id="a_edge15_Node000002_Node000014"><a xlink:title=" ">
<path fill="none" stroke="#63b8ff" d="M428,-167.59C428,-161.01 428,-151.96 428,-143.73"/>
<polygon fill="#63b8ff" stroke="#63b8ff" points="431.5,-143.81 428,-133.81 424.5,-143.81 431.5,-143.81"/>
</a>
</g>
</g>
<!-- Node15 -->
<g id="Node000015" class="node">
<title>Node15</title>
<g id="a_Node000015"><a xlink:title=" ">
<polygon fill="#e0e0e0" stroke="#999999" points="561.38,-76 478.62,-76 478.62,-56 561.38,-56 561.38,-76"/>
<text xml:space="preserve" text-anchor="middle" x="520" y="-62.5" font-family="Helvetica,sans-Serif" font-size="10.00">unordered_map</text>
</a>
</g>
</g>
<!-- Node2&#45;&gt;Node15 -->
<g id="edge19_Node000002_Node000015" class="edge">
<title>Node2&#45;&gt;Node15</title>
<g id="a_edge19_Node000002_Node000015"><a xlink:title=" ">
<path fill="none" stroke="#63b8ff" d="M463.81,-167.63C482.24,-160.86 503.26,-149.72 515,-132 523.61,-119 524.4,-101.16 523.3,-87.46"/>
<polygon fill="#63b8ff" stroke="#63b8ff" points="526.8,-87.29 522.1,-77.8 519.85,-88.15 526.8,-87.29"/>
</a>
</g>
</g>
<!-- Node16 -->
<g id="Node000016" class="node">
<title>Node16</title>
<g id="a_Node000016"><a xlink:title=" ">
<polygon fill="#e0e0e0" stroke="#999999" points="615.75,-132 562.25,-132 562.25,-112 615.75,-112 615.75,-132"/>
<text xml:space="preserve" text-anchor="middle" x="589" y="-118.5" font-family="Helvetica,sans-Serif" font-size="10.00">iostream</text>
</a>
</g>
</g>
<!-- Node2&#45;&gt;Node16 -->
<g id="edge18_Node000002_Node000016" class="edge">
<title>Node2&#45;&gt;Node16</title>
<g id="a_edge18_Node000002_Node000016"><a xlink:title=" ">
<path fill="none" stroke="#63b8ff" d="M456.04,-167.59C482.41,-158.75 522.06,-145.45 551.21,-135.68"/>
<polygon fill="#63b8ff" stroke="#63b8ff" points="552.01,-139.1 560.38,-132.6 549.78,-132.46 552.01,-139.1"/>
</a>
</g>
</g>
<!-- Node4 -->
<g id="Node000004" class="node">
<title>Node4</title>
<g id="a_Node000004"><a xlink:title=" ">
<polygon fill="#e0e0e0" stroke="#999999" points="160,-20 0,-20 0,0 160,0 160,-20"/>
<text xml:space="preserve" text-anchor="middle" x="80" y="-6.5" font-family="Helvetica,sans-Serif" font-size="10.00">../src/Memory/SystemAllocator.h</text>
</a>
</g>
</g>
<!-- Node3&#45;&gt;Node4 -->
<g id="edge3_Node000003_Node000004" class="edge">
<title>Node3&#45;&gt;Node4</title>
<g id="a_edge3_Node000003_Node000004"><a xlink:title=" ">
<path fill="none" stroke="#63b8ff" d="M327.4,-55.53C276.26,-46.33 198.5,-32.33 143.83,-22.49"/>
<polygon fill="#63b8ff" stroke="#63b8ff" points="144.49,-19.05 134.03,-20.73 143.25,-25.94 144.49,-19.05"/>
</a>
</g>
</g>
<!-- Node5 -->
<g id="Node000005" class="node">
<title>Node5</title>
<g id="a_Node000005"><a xlink:title=" ">
<polygon fill="#e0e0e0" stroke="#999999" points="240.25,-20 177.75,-20 177.75,0 240.25,0 240.25,-20"/>
<text xml:space="preserve" text-anchor="middle" x="209" y="-6.5" font-family="Helvetica,sans-Serif" font-size="10.00">windows.h</text>
</a>
</g>
</g>
<!-- Node3&#45;&gt;Node5 -->
<g id="edge4_Node000003_Node000005" class="edge">
<title>Node3&#45;&gt;Node5</title>
<g id="a_edge4_Node000003_Node000005"><a xlink:title=" ">
<path fill="none" stroke="#63b8ff" d="M350.21,-55.59C322.43,-46.82 280.75,-33.66 249.86,-23.9"/>
<polygon fill="#63b8ff" stroke="#63b8ff" points="251.05,-20.61 240.46,-20.94 248.94,-27.28 251.05,-20.61"/>
</a>
</g>
</g>
<!-- Node6 -->
<g id="Node000006" class="node">
<title>Node6</title>
<g id="a_Node000006"><a xlink:title=" ">
<polygon fill="#e0e0e0" stroke="#999999" points="306.12,-20 257.88,-20 257.88,0 306.12,0 306.12,-20"/>
<text xml:space="preserve" text-anchor="middle" x="282" y="-6.5" font-family="Helvetica,sans-Serif" font-size="10.00">cassert</text>
</a>
</g>
</g>
<!-- Node3&#45;&gt;Node6 -->
<g id="edge5_Node000003_Node000006" class="edge">
<title>Node3&#45;&gt;Node6</title>
<g id="a_edge5_Node000003_Node000006"><a xlink:title=" ">
<path fill="none" stroke="#63b8ff" d="M362.93,-55.59C348.12,-47.44 326.43,-35.48 309.23,-26"/>
<polygon fill="#63b8ff" stroke="#63b8ff" points="310.98,-22.97 300.53,-21.21 307.6,-29.1 310.98,-22.97"/>
</a>
</g>
</g>
<!-- Node7 -->
<g id="Node000007" class="node">
<title>Node7</title>
<g id="a_Node000007"><a xlink:title=" ">
<polygon fill="#e0e0e0" stroke="#999999" points="372.12,-20 323.88,-20 323.88,0 372.12,0 372.12,-20"/>
<text xml:space="preserve" text-anchor="middle" x="348" y="-6.5" font-family="Helvetica,sans-Serif" font-size="10.00">cstddef</text>
</a>
</g>
</g>
<!-- Node3&#45;&gt;Node7 -->
<g id="edge6_Node000003_Node000007" class="edge">
<title>Node3&#45;&gt;Node7</title>
<g id="a_edge6_Node000003_Node000007"><a xlink:title=" ">
<path fill="none" stroke="#63b8ff" d="M374.43,-55.59C370.25,-48.55 364.4,-38.67 359.26,-30"/>
<polygon fill="#63b8ff" stroke="#63b8ff" points="362.39,-28.42 354.28,-21.6 356.37,-31.99 362.39,-28.42"/>
</a>
</g>
</g>
<!-- Node8 -->
<g id="Node000008" class="node">
<title>Node8</title>
<g id="a_Node000008"><a xlink:title=" ">
<polygon fill="#e0e0e0" stroke="#999999" points="435.62,-20 390.38,-20 390.38,0 435.62,0 435.62,-20"/>
<text xml:space="preserve" text-anchor="middle" x="413" y="-6.5" font-family="Helvetica,sans-Serif" font-size="10.00">cstdint</text>
</a>
</g>
</g>
<!-- Node3&#45;&gt;Node8 -->
<g id="edge7_Node000003_Node000008" class="edge">
<title>Node3&#45;&gt;Node8</title>
<g id="a_edge7_Node000003_Node000008"><a xlink:title=" ">
<path fill="none" stroke="#63b8ff" d="M385.75,-55.59C390.05,-48.55 396.09,-38.67 401.39,-30"/>
<polygon fill="#63b8ff" stroke="#63b8ff" points="404.3,-31.95 406.53,-21.59 398.33,-28.3 404.3,-31.95"/>
</a>
</g>
</g>
<!-- Node9 -->
<g id="Node000009" class="node">
<title>Node9</title>
<g id="a_Node000009"><a xlink:title=" ">
<polygon fill="#e0e0e0" stroke="#999999" points="506.38,-20 453.62,-20 453.62,0 506.38,0 506.38,-20"/>
<text xml:space="preserve" text-anchor="middle" x="480" y="-6.5" font-family="Helvetica,sans-Serif" font-size="10.00">cstdbool</text>
</a>
</g>
</g>
<!-- Node3&#45;&gt;Node9 -->
<g id="edge8_Node000003_Node000009" class="edge">
<title>Node3&#45;&gt;Node9</title>
<g id="a_edge8_Node000003_Node000009"><a xlink:title=" ">
<path fill="none" stroke="#63b8ff" d="M397.42,-55.59C412.67,-47.36 435.08,-35.26 452.71,-25.74"/>
<polygon fill="#63b8ff" stroke="#63b8ff" points="453.98,-29.03 461.11,-21.2 450.65,-22.87 453.98,-29.03"/>
</a>
</g>
</g>
<!-- Node10 -->
<g id="Node000010" class="node">
<title>Node10</title>
<g id="a_Node000010"><a xlink:title=" ">
<polygon fill="#e0e0e0" stroke="#999999" points="564,-20 524,-20 524,0 564,0 564,-20"/>
<text xml:space="preserve" text-anchor="middle" x="544" y="-6.5" font-family="Helvetica,sans-Serif" font-size="10.00">string</text>
</a>
</g>
</g>
<!-- Node3&#45;&gt;Node10 -->
<g id="edge9_Node000003_Node000010" class="edge">
<title>Node3&#45;&gt;Node10</title>
<g id="a_edge9_Node000003_Node000010"><a xlink:title=" ">
<path fill="none" stroke="#63b8ff" d="M408.57,-55.59C437.7,-46 482.77,-31.16 512.81,-21.27"/>
<polygon fill="#63b8ff" stroke="#63b8ff" points="513.69,-24.67 522.09,-18.21 511.5,-18.02 513.69,-24.67"/>
</a>
</g>
</g>
<!-- Node11 -->
<g id="Node000011" class="node">
<title>Node11</title>
<g id="a_Node000011"><a xlink:title=" ">
<polygon fill="#e0e0e0" stroke="#999999" points="636.12,-20 581.88,-20 581.88,0 636.12,0 636.12,-20"/>
<text xml:space="preserve" text-anchor="middle" x="609" y="-6.5" font-family="Helvetica,sans-Serif" font-size="10.00">crtdefs.h</text>
</a>
</g>
</g>
<!-- Node3&#45;&gt;Node11 -->
<g id="edge10_Node000003_Node000011" class="edge">
<title>Node3&#45;&gt;Node11</title>
<g id="a_edge10_Node000003_Node000011"><a xlink:title=" ">
<path fill="none" stroke="#63b8ff" d="M421.46,-55.53C458.2,-47.1 513.61,-34.27 570.48,-20.58"/>
<polygon fill="#63b8ff" stroke="#63b8ff" points="571.12,-24.03 580.02,-18.28 569.48,-17.22 571.12,-24.03"/>
</a>
</g>
</g>
<!-- Node12&#45;&gt;Node3 -->
<g id="edge12_Node000012_Node000003" class="edge">
<title>Node12&#45;&gt;Node3</title>
<g id="a_edge12_Node000012_Node000003"><a xlink:title=" ">
<path fill="none" stroke="#63b8ff" d="M256.13,-111.59C280.18,-102.94 316.1,-90 343.08,-80.29"/>
<polygon fill="#63b8ff" stroke="#63b8ff" points="344.02,-83.67 352.24,-76.99 341.65,-77.09 344.02,-83.67"/>
</a>
</g>
</g>
<!-- Node13 -->
<g id="Node000013" class="node">
<title>Node13</title>
<g id="a_Node000013"><a xlink:href="_r_t_t_i_8inl.html" target="_top" xlink:title=" ">
<polygon fill="white" stroke="#666666" points="296.12,-76 163.88,-76 163.88,-56 296.12,-56 296.12,-76"/>
<text xml:space="preserve" text-anchor="middle" x="230" y="-62.5" font-family="Helvetica,sans-Serif" font-size="10.00">FIEAGameEngine/RTTI.inl</text>
</a>
</g>
</g>
<!-- Node12&#45;&gt;Node13 -->
<g id="edge13_Node000012_Node000013" class="edge">
<title>Node12&#45;&gt;Node13</title>
<g id="a_edge13_Node000012_Node000013"><a xlink:title=" ">
<path fill="none" stroke="#63b8ff" d="M224.73,-111.59C223.42,-105.01 222.98,-95.96 223.41,-87.73"/>
<polygon fill="#63b8ff" stroke="#63b8ff" points="226.89,-88.14 224.58,-77.8 219.94,-87.33 226.89,-88.14"/>
</a>
</g>
</g>
<!-- Node13&#45;&gt;Node12 -->
<g id="edge14_Node000013_Node000012" class="edge">
<title>Node13&#45;&gt;Node12</title>
<g id="a_edge14_Node000013_Node000012"><a xlink:title=" ">
<path fill="none" stroke="#63b8ff" d="M235.25,-76.3C236.59,-82.93 237.03,-92.11 236.58,-100.43"/>
<polygon fill="#63b8ff" stroke="#63b8ff" points="233.13,-99.75 235.44,-110.09 240.08,-100.57 233.13,-99.75"/>
</a>
</g>
</g>
<!-- Node14&#45;&gt;Node3 -->
<g id="edge16_Node000014_Node000003" class="edge">
<title>Node14&#45;&gt;Node3</title>
<g id="a_edge16_Node000014_Node000003"><a xlink:title=" ">
<path fill="none" stroke="#63b8ff" d="M419.64,-111.59C413.1,-104.24 403.82,-93.8 395.88,-84.87"/>
<polygon fill="#63b8ff" stroke="#63b8ff" points="398.53,-82.58 389.27,-77.43 393.3,-87.23 398.53,-82.58"/>
</a>
</g>
</g>
<!-- Node14&#45;&gt;Node15 -->
<g id="edge17_Node000014_Node000015" class="edge">
<title>Node14&#45;&gt;Node15</title>
<g id="a_edge17_Node000014_Node000015"><a xlink:title=" ">
<path fill="none" stroke="#63b8ff" d="M444.03,-111.59C457.79,-103.51 477.9,-91.71 493.98,-82.27"/>
<polygon fill="#63b8ff" stroke="#63b8ff" points="495.69,-85.33 502.54,-77.25 492.15,-79.29 495.69,-85.33"/>
</a>
</g>
</g>
</g>
</svg>
