<?xml version="1.0" encoding="UTF-8" standalone="no"?>
<!DOCTYPE svg PUBLIC "-//W3C//DTD SVG 1.1//EN"
 "http://www.w3.org/Graphics/SVG/1.1/DTD/svg11.dtd">
<!-- Generated by graphviz version 13.1.0 (20250701.0955)
 -->
<!-- Title: Tests/Support/FloatHandler.h Pages: 1 -->
<svg width="1080pt" height="476pt"
 viewBox="0.00 0.00 1080.00 476.00" xmlns="http://www.w3.org/2000/svg" xmlns:xlink="http://www.w3.org/1999/xlink">
<g id="graph0" class="graph" transform="scale(1 1) rotate(0) translate(4 472)">
<title>Tests/Support/FloatHandler.h</title>
<!-- Node1 -->
<g id="Node000001" class="node">
<title>Node1</title>
<g id="a_Node000001"><a xlink:title=" ">
<polygon fill="#999999" stroke="#666666" points="1010.49,-468 866.99,-468 866.99,-448 1010.49,-448 1010.49,-468"/>
<text xml:space="preserve" text-anchor="middle" x="938.74" y="-454.5" font-family="Helvetica,sans-Serif" font-size="10.00">Tests/Support/FloatHandler.h</text>
</a>
</g>
</g>
<!-- Node2 -->
<g id="Node000002" class="node">
<title>Node2</title>
<g id="a_Node000002"><a xlink:href="_types_8h.html" target="_top" xlink:title=" ">
<polygon fill="white" stroke="#666666" points="646.99,-76 518.49,-76 518.49,-56 646.99,-56 646.99,-76"/>
<text xml:space="preserve" text-anchor="middle" x="582.74" y="-62.5" font-family="Helvetica,sans-Serif" font-size="10.00">FieaGameEngine/Types.h</text>
</a>
</g>
</g>
<!-- Node1&#45;&gt;Node2 -->
<g id="edge1_Node000001_Node000002" class="edge">
<title>Node1&#45;&gt;Node2</title>
<g id="a_edge1_Node000001_Node000002"><a xlink:title=" ">
<path fill="none" stroke="#63b8ff" d="M967.93,-447.57C1007.08,-432.86 1071.74,-400.49 1071.74,-347 1071.74,-347 1071.74,-347 1071.74,-177 1071.74,-140.82 1054.25,-129.77 1022.74,-112 962.25,-77.9 767.64,-69.52 658.59,-67.54"/>
<polygon fill="#63b8ff" stroke="#63b8ff" points="658.92,-64.05 648.86,-67.38 658.8,-71.04 658.92,-64.05"/>
</a>
</g>
</g>
<!-- Node11 -->
<g id="Node000011" class="node">
<title>Node11</title>
<g id="a_Node000011"><a xlink:href="_content_service_8h.html" target="_top" xlink:title=" ">
<polygon fill="white" stroke="#666666" points="748.49,-356 574.99,-356 574.99,-336 748.49,-336 748.49,-356"/>
<text xml:space="preserve" text-anchor="middle" x="661.74" y="-342.5" font-family="Helvetica,sans-Serif" font-size="10.00">FIEAGameEngine/ContentService.h</text>
</a>
</g>
</g>
<!-- Node1&#45;&gt;Node11 -->
<g id="edge10_Node000001_Node000011" class="edge">
<title>Node1&#45;&gt;Node11</title>
<g id="a_edge10_Node000001_Node000011"><a xlink:title=" ">
<path fill="none" stroke="#63b8ff" d="M915.12,-447.62C866.06,-428.14 752.94,-383.22 695.92,-360.57"/>
<polygon fill="#63b8ff" stroke="#63b8ff" points="697.29,-357.35 686.7,-356.91 694.7,-363.86 697.29,-357.35"/>
</a>
</g>
</g>
<!-- Node27 -->
<g id="Node000027" class="node">
<title>Node27</title>
<g id="a_Node000027"><a xlink:href="_test_writer_8h.html" target="_top" xlink:title=" ">
<polygon fill="white" stroke="#666666" points="972.99,-412 904.49,-412 904.49,-392 972.99,-392 972.99,-412"/>
<text xml:space="preserve" text-anchor="middle" x="938.74" y="-398.5" font-family="Helvetica,sans-Serif" font-size="10.00">TestWriter.h</text>
</a>
</g>
</g>
<!-- Node1&#45;&gt;Node27 -->
<g id="edge46_Node000001_Node000027" class="edge">
<title>Node1&#45;&gt;Node27</title>
<g id="a_edge46_Node000001_Node000027"><a xlink:title=" ">
<path fill="none" stroke="#63b8ff" d="M938.74,-447.59C938.74,-441.01 938.74,-431.96 938.74,-423.73"/>
<polygon fill="#63b8ff" stroke="#63b8ff" points="942.24,-423.81 938.74,-413.81 935.24,-423.81 942.24,-423.81"/>
</a>
</g>
</g>
<!-- Node3 -->
<g id="Node000003" class="node">
<title>Node3</title>
<g id="a_Node000003"><a xlink:title=" ">
<polygon fill="#e0e0e0" stroke="#999999" points="362.74,-20 202.74,-20 202.74,0 362.74,0 362.74,-20"/>
<text xml:space="preserve" text-anchor="middle" x="282.74" y="-6.5" font-family="Helvetica,sans-Serif" font-size="10.00">../src/Memory/SystemAllocator.h</text>
</a>
</g>
</g>
<!-- Node2&#45;&gt;Node3 -->
<g id="edge2_Node000002_Node000003" class="edge">
<title>Node2&#45;&gt;Node3</title>
<g id="a_edge2_Node000002_Node000003"><a xlink:title=" ">
<path fill="none" stroke="#63b8ff" d="M530.14,-55.53C478.99,-46.33 401.23,-32.33 346.57,-22.49"/>
<polygon fill="#63b8ff" stroke="#63b8ff" points="347.23,-19.05 336.77,-20.73 345.99,-25.94 347.23,-19.05"/>
</a>
</g>
</g>
<!-- Node4 -->
<g id="Node000004" class="node">
<title>Node4</title>
<g id="a_Node000004"><a xlink:title=" ">
<polygon fill="#e0e0e0" stroke="#999999" points="442.99,-20 380.49,-20 380.49,0 442.99,0 442.99,-20"/>
<text xml:space="preserve" text-anchor="middle" x="411.74" y="-6.5" font-family="Helvetica,sans-Serif" font-size="10.00">windows.h</text>
</a>
</g>
</g>
<!-- Node2&#45;&gt;Node4 -->
<g id="edge3_Node000002_Node000004" class="edge">
<title>Node2&#45;&gt;Node4</title>
<g id="a_edge3_Node000002_Node000004"><a xlink:title=" ">
<path fill="none" stroke="#63b8ff" d="M552.95,-55.59C525.17,-46.82 483.49,-33.66 452.6,-23.9"/>
<polygon fill="#63b8ff" stroke="#63b8ff" points="453.79,-20.61 443.2,-20.94 451.68,-27.28 453.79,-20.61"/>
</a>
</g>
</g>
<!-- Node5 -->
<g id="Node000005" class="node">
<title>Node5</title>
<g id="a_Node000005"><a xlink:title=" ">
<polygon fill="#e0e0e0" stroke="#999999" points="508.86,-20 460.61,-20 460.61,0 508.86,0 508.86,-20"/>
<text xml:space="preserve" text-anchor="middle" x="484.74" y="-6.5" font-family="Helvetica,sans-Serif" font-size="10.00">cassert</text>
</a>
</g>
</g>
<!-- Node2&#45;&gt;Node5 -->
<g id="edge4_Node000002_Node000005" class="edge">
<title>Node2&#45;&gt;Node5</title>
<g id="a_edge4_Node000002_Node000005"><a xlink:title=" ">
<path fill="none" stroke="#63b8ff" d="M565.67,-55.59C550.86,-47.44 529.17,-35.48 511.97,-26"/>
<polygon fill="#63b8ff" stroke="#63b8ff" points="513.72,-22.97 503.27,-21.21 510.34,-29.1 513.72,-22.97"/>
</a>
</g>
</g>
<!-- Node6 -->
<g id="Node000006" class="node">
<title>Node6</title>
<g id="a_Node000006"><a xlink:title=" ">
<polygon fill="#e0e0e0" stroke="#999999" points="574.86,-20 526.61,-20 526.61,0 574.86,0 574.86,-20"/>
<text xml:space="preserve" text-anchor="middle" x="550.74" y="-6.5" font-family="Helvetica,sans-Serif" font-size="10.00">cstddef</text>
</a>
</g>
</g>
<!-- Node2&#45;&gt;Node6 -->
<g id="edge5_Node000002_Node000006" class="edge">
<title>Node2&#45;&gt;Node6</title>
<g id="a_edge5_Node000002_Node000006"><a xlink:title=" ">
<path fill="none" stroke="#63b8ff" d="M577.16,-55.59C572.99,-48.55 567.14,-38.67 562,-30"/>
<polygon fill="#63b8ff" stroke="#63b8ff" points="565.13,-28.42 557.02,-21.6 559.11,-31.99 565.13,-28.42"/>
</a>
</g>
</g>
<!-- Node7 -->
<g id="Node000007" class="node">
<title>Node7</title>
<g id="a_Node000007"><a xlink:title=" ">
<polygon fill="#e0e0e0" stroke="#999999" points="638.36,-20 593.11,-20 593.11,0 638.36,0 638.36,-20"/>
<text xml:space="preserve" text-anchor="middle" x="615.74" y="-6.5" font-family="Helvetica,sans-Serif" font-size="10.00">cstdint</text>
</a>
</g>
</g>
<!-- Node2&#45;&gt;Node7 -->
<g id="edge6_Node000002_Node000007" class="edge">
<title>Node2&#45;&gt;Node7</title>
<g id="a_edge6_Node000002_Node000007"><a xlink:title=" ">
<path fill="none" stroke="#63b8ff" d="M588.49,-55.59C592.79,-48.55 598.83,-38.67 604.13,-30"/>
<polygon fill="#63b8ff" stroke="#63b8ff" points="607.04,-31.95 609.27,-21.59 601.07,-28.3 607.04,-31.95"/>
</a>
</g>
</g>
<!-- Node8 -->
<g id="Node000008" class="node">
<title>Node8</title>
<g id="a_Node000008"><a xlink:title=" ">
<polygon fill="#e0e0e0" stroke="#999999" points="709.11,-20 656.36,-20 656.36,0 709.11,0 709.11,-20"/>
<text xml:space="preserve" text-anchor="middle" x="682.74" y="-6.5" font-family="Helvetica,sans-Serif" font-size="10.00">cstdbool</text>
</a>
</g>
</g>
<!-- Node2&#45;&gt;Node8 -->
<g id="edge7_Node000002_Node000008" class="edge">
<title>Node2&#45;&gt;Node8</title>
<g id="a_edge7_Node000002_Node000008"><a xlink:title=" ">
<path fill="none" stroke="#63b8ff" d="M600.16,-55.59C615.41,-47.36 637.82,-35.26 655.45,-25.74"/>
<polygon fill="#63b8ff" stroke="#63b8ff" points="656.72,-29.03 663.85,-21.2 653.39,-22.87 656.72,-29.03"/>
</a>
</g>
</g>
<!-- Node9 -->
<g id="Node000009" class="node">
<title>Node9</title>
<g id="a_Node000009"><a xlink:title=" ">
<polygon fill="#e0e0e0" stroke="#999999" points="766.74,-20 726.74,-20 726.74,0 766.74,0 766.74,-20"/>
<text xml:space="preserve" text-anchor="middle" x="746.74" y="-6.5" font-family="Helvetica,sans-Serif" font-size="10.00">string</text>
</a>
</g>
</g>
<!-- Node2&#45;&gt;Node9 -->
<g id="edge8_Node000002_Node000009" class="edge">
<title>Node2&#45;&gt;Node9</title>
<g id="a_edge8_Node000002_Node000009"><a xlink:title=" ">
<path fill="none" stroke="#63b8ff" d="M611.31,-55.59C640.44,-46 685.51,-31.16 715.55,-21.27"/>
<polygon fill="#63b8ff" stroke="#63b8ff" points="716.43,-24.67 724.83,-18.21 714.24,-18.02 716.43,-24.67"/>
</a>
</g>
</g>
<!-- Node10 -->
<g id="Node000010" class="node">
<title>Node10</title>
<g id="a_Node000010"><a xlink:title=" ">
<polygon fill="#e0e0e0" stroke="#999999" points="838.86,-20 784.61,-20 784.61,0 838.86,0 838.86,-20"/>
<text xml:space="preserve" text-anchor="middle" x="811.74" y="-6.5" font-family="Helvetica,sans-Serif" font-size="10.00">crtdefs.h</text>
</a>
</g>
</g>
<!-- Node2&#45;&gt;Node10 -->
<g id="edge9_Node000002_Node000010" class="edge">
<title>Node2&#45;&gt;Node10</title>
<g id="a_edge9_Node000002_Node000010"><a xlink:title=" ">
<path fill="none" stroke="#63b8ff" d="M624.2,-55.53C660.94,-47.1 716.35,-34.27 773.22,-20.58"/>
<polygon fill="#63b8ff" stroke="#63b8ff" points="773.86,-24.03 782.76,-18.28 772.22,-17.22 773.86,-24.03"/>
</a>
</g>
</g>
<!-- Node11&#45;&gt;Node2 -->
<g id="edge11_Node000011_Node000002" class="edge">
<title>Node11&#45;&gt;Node2</title>
<g id="a_edge11_Node000011_Node000002"><a xlink:title=" ">
<path fill="none" stroke="#63b8ff" d="M697.45,-335.56C798.3,-307.3 1071.96,-218.71 976.74,-112 955.96,-88.71 766.93,-75.84 658.44,-70.31"/>
<polygon fill="#63b8ff" stroke="#63b8ff" points="658.91,-66.83 648.74,-69.82 658.56,-73.82 658.91,-66.83"/>
</a>
</g>
</g>
<!-- Node12 -->
<g id="Node000012" class="node">
<title>Node12</title>
<g id="a_Node000012"><a xlink:href="_service_mgr_8h.html" target="_top" xlink:title=" ">
<polygon fill="white" stroke="#666666" points="516.49,-132 360.99,-132 360.99,-112 516.49,-112 516.49,-132"/>
<text xml:space="preserve" text-anchor="middle" x="438.74" y="-118.5" font-family="Helvetica,sans-Serif" font-size="10.00">FIEAGameEngine/ServiceMgr.h</text>
</a>
</g>
</g>
<!-- Node11&#45;&gt;Node12 -->
<g id="edge12_Node000011_Node000012" class="edge">
<title>Node11&#45;&gt;Node12</title>
<g id="a_edge12_Node000011_Node000012"><a xlink:title=" ">
<path fill="none" stroke="#63b8ff" d="M659.19,-335.8C650.72,-306.83 620.7,-216.5 563.74,-168 545.79,-152.71 522.24,-142.46 500.43,-135.66"/>
<polygon fill="#63b8ff" stroke="#63b8ff" points="501.59,-132.35 491.01,-132.92 499.63,-139.07 501.59,-132.35"/>
</a>
</g>
</g>
<!-- Node13 -->
<g id="Node000013" class="node">
<title>Node13</title>
<g id="a_Node000013"><a xlink:title=" ">
<polygon fill="#e0e0e0" stroke="#999999" points="262.11,-76 179.36,-76 179.36,-56 262.11,-56 262.11,-76"/>
<text xml:space="preserve" text-anchor="middle" x="220.74" y="-62.5" font-family="Helvetica,sans-Serif" font-size="10.00">unordered_map</text>
</a>
</g>
</g>
<!-- Node11&#45;&gt;Node13 -->
<g id="edge44_Node000011_Node000013" class="edge">
<title>Node11&#45;&gt;Node13</title>
<g id="a_edge44_Node000011_Node000013"><a xlink:title=" ">
<path fill="none" stroke="#63b8ff" d="M574.64,-339.44C395.15,-326.81 0.74,-292.51 0.74,-235 0.74,-235 0.74,-235 0.74,-177 0.74,-146.9 -2.22,-132.59 19.74,-112 30.57,-101.84 111.92,-85.93 167.75,-76"/>
<polygon fill="#63b8ff" stroke="#63b8ff" points="168.16,-79.48 177.4,-74.3 166.95,-72.59 168.16,-79.48"/>
</a>
</g>
</g>
<!-- Node14 -->
<g id="Node000014" class="node">
<title>Node14</title>
<g id="a_Node000014"><a xlink:href="_r_t_t_i_8h.html" target="_top" xlink:title=" ">
<polygon fill="white" stroke="#666666" points="156.61,-132 28.86,-132 28.86,-112 156.61,-112 156.61,-132"/>
<text xml:space="preserve" text-anchor="middle" x="92.74" y="-118.5" font-family="Helvetica,sans-Serif" font-size="10.00">FIEAGameEngine/RTTI.h</text>
</a>
</g>
</g>
<!-- Node11&#45;&gt;Node14 -->
<g id="edge15_Node000011_Node000014" class="edge">
<title>Node11&#45;&gt;Node14</title>
<g id="a_edge15_Node000011_Node000014"><a xlink:title=" ">
<path fill="none" stroke="#63b8ff" d="M574.88,-336.47C478.87,-324.72 321.21,-298.5 195.74,-244 155.26,-226.42 140.17,-223.34 113.74,-188 103.95,-174.91 98.62,-157.08 95.78,-143.4"/>
<polygon fill="#63b8ff" stroke="#63b8ff" points="99.26,-143 94.07,-133.76 92.36,-144.21 99.26,-143"/>
</a>
</g>
</g>
<!-- Node16 -->
<g id="Node000016" class="node">
<title>Node16</title>
<g id="a_Node000016"><a xlink:href="_attributed_8h.html" target="_top" xlink:title=" ">
<polygon fill="white" stroke="#666666" points="596.61,-300 492.86,-300 492.86,-280 596.61,-280 596.61,-300"/>
<text xml:space="preserve" text-anchor="middle" x="544.74" y="-286.5" font-family="Helvetica,sans-Serif" font-size="10.00">Content/Attributed.h</text>
</a>
</g>
</g>
<!-- Node11&#45;&gt;Node16 -->
<g id="edge19_Node000011_Node000016" class="edge">
<title>Node11&#45;&gt;Node16</title>
<g id="a_edge19_Node000011_Node000016"><a xlink:title=" ">
<path fill="none" stroke="#63b8ff" d="M641.36,-335.59C623.18,-327.21 596.31,-314.8 575.52,-305.21"/>
<polygon fill="#63b8ff" stroke="#63b8ff" points="577.2,-302.13 566.65,-301.11 574.26,-308.48 577.2,-302.13"/>
</a>
</g>
</g>
<!-- Node17 -->
<g id="Node000017" class="node">
<title>Node17</title>
<g id="a_Node000017"><a xlink:href="_datum_8h.html" target="_top" xlink:title=" ">
<polygon fill="white" stroke="#666666" points="751.24,-188 660.24,-188 660.24,-168 751.24,-168 751.24,-188"/>
<text xml:space="preserve" text-anchor="middle" x="705.74" y="-174.5" font-family="Helvetica,sans-Serif" font-size="10.00">Content/Datum.h</text>
</a>
</g>
</g>
<!-- Node11&#45;&gt;Node17 -->
<g id="edge42_Node000011_Node000017" class="edge">
<title>Node11&#45;&gt;Node17</title>
<g id="a_edge42_Node000011_Node000017"><a xlink:title=" ">
<path fill="none" stroke="#63b8ff" d="M664.23,-335.6C671.16,-309.46 690.77,-235.48 700.34,-199.36"/>
<polygon fill="#63b8ff" stroke="#63b8ff" points="703.71,-200.32 702.89,-189.76 696.94,-198.53 703.71,-200.32"/>
</a>
</g>
</g>
<!-- Node21 -->
<g id="Node000021" class="node">
<title>Node21</title>
<g id="a_Node000021"><a xlink:href="_scope_8h.html" target="_top" xlink:title=" ">
<polygon fill="white" stroke="#666666" points="440.49,-244 350.99,-244 350.99,-224 440.49,-224 440.49,-244"/>
<text xml:space="preserve" text-anchor="middle" x="395.74" y="-230.5" font-family="Helvetica,sans-Serif" font-size="10.00">Content/Scope.h</text>
</a>
</g>
</g>
<!-- Node11&#45;&gt;Node21 -->
<g id="edge43_Node000011_Node000021" class="edge">
<title>Node11&#45;&gt;Node21</title>
<g id="a_edge43_Node000011_Node000021"><a xlink:title=" ">
<path fill="none" stroke="#63b8ff" d="M599.99,-335.51C564.77,-328.61 520.48,-317.38 483.74,-300 457.37,-287.53 430.97,-266.63 414.07,-251.9"/>
<polygon fill="#63b8ff" stroke="#63b8ff" points="416.64,-249.5 406.84,-245.46 411.97,-254.72 416.64,-249.5"/>
</a>
</g>
</g>
<!-- Node26 -->
<g id="Node000026" class="node">
<title>Node26</title>
<g id="a_Node000026"><a xlink:title=" ">
<polygon fill="#e0e0e0" stroke="#999999" points="1005.36,-300 942.11,-300 942.11,-280 1005.36,-280 1005.36,-300"/>
<text xml:space="preserve" text-anchor="middle" x="973.74" y="-286.5" font-family="Helvetica,sans-Serif" font-size="10.00">json/json.h</text>
</a>
</g>
</g>
<!-- Node11&#45;&gt;Node26 -->
<g id="edge45_Node000011_Node000026" class="edge">
<title>Node11&#45;&gt;Node26</title>
<g id="a_edge45_Node000011_Node000026"><a xlink:title=" ">
<path fill="none" stroke="#63b8ff" d="M720.45,-335.51C774.4,-326.69 856.55,-312.98 927.74,-300 928.75,-299.81 929.78,-299.63 930.82,-299.43"/>
<polygon fill="#63b8ff" stroke="#63b8ff" points="931.42,-302.88 940.6,-297.58 930.12,-296 931.42,-302.88"/>
</a>
</g>
</g>
<!-- Node12&#45;&gt;Node2 -->
<g id="edge13_Node000012_Node000002" class="edge">
<title>Node12&#45;&gt;Node2</title>
<g id="a_edge13_Node000012_Node000002"><a xlink:title=" ">
<path fill="none" stroke="#63b8ff" d="M463.82,-111.59C486.81,-102.97 521.09,-90.12 546.95,-80.42"/>
<polygon fill="#63b8ff" stroke="#63b8ff" points="547.91,-83.8 556.04,-77.01 545.45,-77.25 547.91,-83.8"/>
</a>
</g>
</g>
<!-- Node12&#45;&gt;Node13 -->
<g id="edge14_Node000012_Node000013" class="edge">
<title>Node12&#45;&gt;Node13</title>
<g id="a_edge14_Node000012_Node000013"><a xlink:title=" ">
<path fill="none" stroke="#63b8ff" d="M400.52,-111.53C364.21,-102.54 309.44,-88.97 269.89,-79.18"/>
<polygon fill="#63b8ff" stroke="#63b8ff" points="270.93,-75.83 260.39,-76.82 269.25,-82.62 270.93,-75.83"/>
</a>
</g>
</g>
<!-- Node14&#45;&gt;Node2 -->
<g id="edge16_Node000014_Node000002" class="edge">
<title>Node14&#45;&gt;Node2</title>
<g id="a_edge16_Node000014_Node000002"><a xlink:title=" ">
<path fill="none" stroke="#63b8ff" d="M157.05,-113.91C247.24,-103.97 411.01,-85.93 506.99,-75.35"/>
<polygon fill="#63b8ff" stroke="#63b8ff" points="507.29,-78.84 516.84,-74.26 506.52,-71.88 507.29,-78.84"/>
</a>
</g>
</g>
<!-- Node15 -->
<g id="Node000015" class="node">
<title>Node15</title>
<g id="a_Node000015"><a xlink:href="_r_t_t_i_8inl.html" target="_top" xlink:title=" ">
<polygon fill="white" stroke="#666666" points="158.86,-76 26.61,-76 26.61,-56 158.86,-56 158.86,-76"/>
<text xml:space="preserve" text-anchor="middle" x="92.74" y="-62.5" font-family="Helvetica,sans-Serif" font-size="10.00">FIEAGameEngine/RTTI.inl</text>
</a>
</g>
</g>
<!-- Node14&#45;&gt;Node15 -->
<g id="edge17_Node000014_Node000015" class="edge">
<title>Node14&#45;&gt;Node15</title>
<g id="a_edge17_Node000014_Node000015"><a xlink:title=" ">
<path fill="none" stroke="#63b8ff" d="M87.47,-111.59C86.15,-105.01 85.71,-95.96 86.15,-87.73"/>
<polygon fill="#63b8ff" stroke="#63b8ff" points="89.63,-88.14 87.32,-77.8 82.68,-87.33 89.63,-88.14"/>
</a>
</g>
</g>
<!-- Node15&#45;&gt;Node14 -->
<g id="edge18_Node000015_Node000014" class="edge">
<title>Node15&#45;&gt;Node14</title>
<g id="a_edge18_Node000015_Node000014"><a xlink:title=" ">
<path fill="none" stroke="#63b8ff" d="M97.98,-76.3C99.33,-82.93 99.77,-92.11 99.32,-100.43"/>
<polygon fill="#63b8ff" stroke="#63b8ff" points="95.87,-99.75 98.18,-110.09 102.82,-100.57 95.87,-99.75"/>
</a>
</g>
</g>
<!-- Node16&#45;&gt;Node2 -->
<g id="edge20_Node000016_Node000002" class="edge">
<title>Node16&#45;&gt;Node2</title>
<g id="a_edge20_Node000016_Node000002"><a xlink:title=" ">
<path fill="none" stroke="#63b8ff" d="M546.62,-279.55C550.14,-261.69 557.91,-221.76 563.74,-188 569.81,-152.83 576.08,-111.77 579.69,-87.65"/>
<polygon fill="#63b8ff" stroke="#63b8ff" points="583.13,-88.33 581.13,-77.93 576.2,-87.3 583.13,-88.33"/>
</a>
</g>
</g>
<!-- Node16&#45;&gt;Node14 -->
<g id="edge39_Node000016_Node000014" class="edge">
<title>Node16&#45;&gt;Node14</title>
<g id="a_edge39_Node000016_Node000014"><a xlink:title=" ">
<path fill="none" stroke="#63b8ff" d="M492.66,-288.1C409.81,-284.23 246.22,-266.36 136.74,-188 120.49,-176.37 108.42,-156.74 101.07,-142.09"/>
<polygon fill="#63b8ff" stroke="#63b8ff" points="104.43,-141.01 97.03,-133.44 98.09,-143.98 104.43,-141.01"/>
</a>
</g>
</g>
<!-- Node16&#45;&gt;Node17 -->
<g id="edge21_Node000016_Node000017" class="edge">
<title>Node16&#45;&gt;Node17</title>
<g id="a_edge21_Node000016_Node000017"><a xlink:title=" ">
<path fill="none" stroke="#63b8ff" d="M558.47,-279.62C586.15,-260.71 648.93,-217.82 682.89,-194.61"/>
<polygon fill="#63b8ff" stroke="#63b8ff" points="684.51,-197.74 690.8,-189.21 680.57,-191.96 684.51,-197.74"/>
</a>
</g>
</g>
<!-- Node16&#45;&gt;Node21 -->
<g id="edge27_Node000016_Node000021" class="edge">
<title>Node16&#45;&gt;Node21</title>
<g id="a_edge27_Node000016_Node000021"><a xlink:title=" ">
<path fill="none" stroke="#63b8ff" d="M518.78,-279.59C494.89,-270.94 459.21,-258 432.41,-248.29"/>
<polygon fill="#63b8ff" stroke="#63b8ff" points="433.91,-245.11 423.32,-245 431.53,-251.69 433.91,-245.11"/>
</a>
</g>
</g>
<!-- Node24 -->
<g id="Node000024" class="node">
<title>Node24</title>
<g id="a_Node000024"><a xlink:title=" ">
<polygon fill="#e0e0e0" stroke="#999999" points="554.24,-188 511.24,-188 511.24,-168 554.24,-168 554.24,-188"/>
<text xml:space="preserve" text-anchor="middle" x="532.74" y="-174.5" font-family="Helvetica,sans-Serif" font-size="10.00">vector</text>
</a>
</g>
</g>
<!-- Node16&#45;&gt;Node24 -->
<g id="edge40_Node000016_Node000024" class="edge">
<title>Node16&#45;&gt;Node24</title>
<g id="a_edge40_Node000016_Node000024"><a xlink:title=" ">
<path fill="none" stroke="#63b8ff" d="M543.72,-279.62C541.79,-262.01 537.6,-223.59 534.99,-199.65"/>
<polygon fill="#63b8ff" stroke="#63b8ff" points="538.49,-199.42 533.92,-189.86 531.53,-200.18 538.49,-199.42"/>
</a>
</g>
</g>
<!-- Node25 -->
<g id="Node000025" class="node">
<title>Node25</title>
<g id="a_Node000025"><a xlink:title=" ">
<polygon fill="#e0e0e0" stroke="#999999" points="516.74,-244 458.74,-244 458.74,-224 516.74,-224 516.74,-244"/>
<text xml:space="preserve" text-anchor="middle" x="487.74" y="-230.5" font-family="Helvetica,sans-Serif" font-size="10.00">functional</text>
</a>
</g>
</g>
<!-- Node16&#45;&gt;Node25 -->
<g id="edge41_Node000016_Node000025" class="edge">
<title>Node16&#45;&gt;Node25</title>
<g id="a_edge41_Node000016_Node000025"><a xlink:title=" ">
<path fill="none" stroke="#63b8ff" d="M534.81,-279.59C526.8,-272.01 515.32,-261.13 505.71,-252.02"/>
<polygon fill="#63b8ff" stroke="#63b8ff" points="508.32,-249.68 498.65,-245.34 503.5,-254.76 508.32,-249.68"/>
</a>
</g>
</g>
<!-- Node17&#45;&gt;Node2 -->
<g id="edge22_Node000017_Node000002" class="edge">
<title>Node17&#45;&gt;Node2</title>
<g id="a_edge22_Node000017_Node000002"><a xlink:title=" ">
<path fill="none" stroke="#63b8ff" d="M689.45,-167.5C675.56,-159.04 655.42,-145.88 639.74,-132 623.64,-117.75 607.71,-99.1 596.8,-85.43"/>
<polygon fill="#63b8ff" stroke="#63b8ff" points="599.67,-83.41 590.75,-77.69 594.15,-87.72 599.67,-83.41"/>
</a>
</g>
</g>
<!-- Node18 -->
<g id="Node000018" class="node">
<title>Node18</title>
<g id="a_Node000018"><a xlink:title=" ">
<polygon fill="#e0e0e0" stroke="#999999" points="967.36,-132 898.11,-132 898.11,-112 967.36,-112 967.36,-132"/>
<text xml:space="preserve" text-anchor="middle" x="932.74" y="-118.5" font-family="Helvetica,sans-Serif" font-size="10.00">glm/glm.hpp</text>
</a>
</g>
</g>
<!-- Node17&#45;&gt;Node18 -->
<g id="edge23_Node000017_Node000018" class="edge">
<title>Node17&#45;&gt;Node18</title>
<g id="a_edge23_Node000017_Node000018"><a xlink:title=" ">
<path fill="none" stroke="#63b8ff" d="M745.54,-167.53C784.94,-158.16 845.22,-143.82 886.67,-133.96"/>
<polygon fill="#63b8ff" stroke="#63b8ff" points="887.44,-137.37 896.36,-131.66 885.82,-130.56 887.44,-137.37"/>
</a>
</g>
</g>
<!-- Node19 -->
<g id="Node000019" class="node">
<title>Node19</title>
<g id="a_Node000019"><a xlink:title=" ">
<polygon fill="#e0e0e0" stroke="#999999" points="766.74,-132 648.74,-132 648.74,-112 766.74,-112 766.74,-132"/>
<text xml:space="preserve" text-anchor="middle" x="707.74" y="-118.5" font-family="Helvetica,sans-Serif" font-size="10.00">glm/gtx/string_cast.hpp</text>
</a>
</g>
</g>
<!-- Node17&#45;&gt;Node19 -->
<g id="edge24_Node000017_Node000019" class="edge">
<title>Node17&#45;&gt;Node19</title>
<g id="a_edge24_Node000017_Node000019"><a xlink:title=" ">
<path fill="none" stroke="#63b8ff" d="M706.09,-167.59C706.33,-161.01 706.67,-151.96 706.97,-143.73"/>
<polygon fill="#63b8ff" stroke="#63b8ff" points="710.47,-143.93 707.34,-133.81 703.47,-143.67 710.47,-143.93"/>
</a>
</g>
</g>
<!-- Node20 -->
<g id="Node000020" class="node">
<title>Node20</title>
<g id="a_Node000020"><a xlink:href="_datum_8inl.html" target="_top" xlink:title=" ">
<polygon fill="white" stroke="#666666" points="880.49,-132 784.99,-132 784.99,-112 880.49,-112 880.49,-132"/>
<text xml:space="preserve" text-anchor="middle" x="832.74" y="-118.5" font-family="Helvetica,sans-Serif" font-size="10.00">Content/Datum.inl</text>
</a>
</g>
</g>
<!-- Node17&#45;&gt;Node20 -->
<g id="edge25_Node000017_Node000020" class="edge">
<title>Node17&#45;&gt;Node20</title>
<g id="a_edge25_Node000017_Node000020"><a xlink:title=" ">
<path fill="none" stroke="#63b8ff" d="M722.59,-167.59C740.97,-159.05 770.62,-146.35 794.6,-136.68"/>
<polygon fill="#63b8ff" stroke="#63b8ff" points="795.76,-139.99 803.76,-133.04 793.17,-133.48 795.76,-139.99"/>
</a>
</g>
</g>
<!-- Node20&#45;&gt;Node17 -->
<g id="edge26_Node000020_Node000017" class="edge">
<title>Node20&#45;&gt;Node17</title>
<g id="a_edge26_Node000020_Node000017"><a xlink:title=" ">
<path fill="none" stroke="#63b8ff" d="M815.73,-132.48C797.28,-141.05 767.62,-153.75 743.67,-163.4"/>
<polygon fill="#63b8ff" stroke="#63b8ff" points="742.53,-160.09 734.53,-167.03 745.12,-166.59 742.53,-160.09"/>
</a>
</g>
</g>
<!-- Node21&#45;&gt;Node2 -->
<g id="edge28_Node000021_Node000002" class="edge">
<title>Node21&#45;&gt;Node2</title>
<g id="a_edge28_Node000021_Node000002"><a xlink:title=" ">
<path fill="none" stroke="#63b8ff" d="M409.32,-223.75C433.75,-206.84 486.22,-169.24 525.74,-132 541.38,-117.26 557.37,-98.66 568.41,-85.14"/>
<polygon fill="#63b8ff" stroke="#63b8ff" points="571.02,-87.49 574.55,-77.5 565.56,-83.1 571.02,-87.49"/>
</a>
</g>
</g>
<!-- Node21&#45;&gt;Node13 -->
<g id="edge38_Node000021_Node000013" class="edge">
<title>Node21&#45;&gt;Node13</title>
<g id="a_edge38_Node000021_Node000013"><a xlink:title=" ">
<path fill="none" stroke="#63b8ff" d="M350.71,-227.68C304.3,-221.16 236.55,-208.39 220.74,-188 198.29,-159.05 206.43,-113.4 213.89,-87.23"/>
<polygon fill="#63b8ff" stroke="#63b8ff" points="217.18,-88.44 216.82,-77.85 210.5,-86.35 217.18,-88.44"/>
</a>
</g>
</g>
<!-- Node21&#45;&gt;Node14 -->
<g id="edge29_Node000021_Node000014" class="edge">
<title>Node21&#45;&gt;Node14</title>
<g id="a_edge29_Node000021_Node000014"><a xlink:title=" ">
<path fill="none" stroke="#63b8ff" d="M350.56,-230.52C303.6,-226.47 228.96,-215.84 170.74,-188 146.28,-176.3 123.05,-155.2 108.41,-140.21"/>
<polygon fill="#63b8ff" stroke="#63b8ff" points="111.29,-138.17 101.87,-133.31 106.21,-142.98 111.29,-138.17"/>
</a>
</g>
</g>
<!-- Node21&#45;&gt;Node17 -->
<g id="edge30_Node000021_Node000017" class="edge">
<title>Node21&#45;&gt;Node17</title>
<g id="a_edge30_Node000021_Node000017"><a xlink:title=" ">
<path fill="none" stroke="#63b8ff" d="M440.82,-225.15C495.79,-215.57 588.79,-199.37 648.7,-188.94"/>
<polygon fill="#63b8ff" stroke="#63b8ff" points="649.11,-192.42 658.36,-187.25 647.91,-185.52 649.11,-192.42"/>
</a>
</g>
</g>
<!-- Node22 -->
<g id="Node000022" class="node">
<title>Node22</title>
<g id="a_Node000022"><a xlink:href="_factory_service_8h.html" target="_top" xlink:title=" ">
<polygon fill="white" stroke="#666666" points="401.74,-188 229.74,-188 229.74,-168 401.74,-168 401.74,-188"/>
<text xml:space="preserve" text-anchor="middle" x="315.74" y="-174.5" font-family="Helvetica,sans-Serif" font-size="10.00">FIEAGameEngine/FactoryService.h</text>
</a>
</g>
</g>
<!-- Node21&#45;&gt;Node22 -->
<g id="edge31_Node000021_Node000022" class="edge">
<title>Node21&#45;&gt;Node22</title>
<g id="a_edge31_Node000021_Node000022"><a xlink:title=" ">
<path fill="none" stroke="#63b8ff" d="M381.8,-223.59C370.06,-215.67 353.01,-204.16 339.17,-194.82"/>
<polygon fill="#63b8ff" stroke="#63b8ff" points="341.28,-192.02 331.04,-189.33 337.37,-197.82 341.28,-192.02"/>
</a>
</g>
</g>
<!-- Node21&#45;&gt;Node24 -->
<g id="edge37_Node000021_Node000024" class="edge">
<title>Node21&#45;&gt;Node24</title>
<g id="a_edge37_Node000021_Node000024"><a xlink:title=" ">
<path fill="none" stroke="#63b8ff" d="M419.6,-223.59C441.94,-214.79 475.49,-201.56 500.26,-191.8"/>
<polygon fill="#63b8ff" stroke="#63b8ff" points="501.53,-195.06 509.55,-188.14 498.96,-188.55 501.53,-195.06"/>
</a>
</g>
</g>
<!-- Node22&#45;&gt;Node2 -->
<g id="edge32_Node000022_Node000002" class="edge">
<title>Node22&#45;&gt;Node2</title>
<g id="a_edge32_Node000022_Node000002"><a xlink:title=" ">
<path fill="none" stroke="#63b8ff" d="M318.12,-167.78C322.34,-153.43 332.54,-125.96 351.74,-112 376.14,-94.26 449.24,-82.01 506.74,-74.83"/>
<polygon fill="#63b8ff" stroke="#63b8ff" points="507.01,-78.32 516.52,-73.64 506.17,-71.37 507.01,-78.32"/>
</a>
</g>
</g>
<!-- Node22&#45;&gt;Node12 -->
<g id="edge34_Node000022_Node000012" class="edge">
<title>Node22&#45;&gt;Node12</title>
<g id="a_edge34_Node000022_Node000012"><a xlink:title=" ">
<path fill="none" stroke="#63b8ff" d="M337.16,-167.59C356.36,-159.17 384.78,-146.69 406.68,-137.07"/>
<polygon fill="#63b8ff" stroke="#63b8ff" points="408.01,-140.31 415.76,-133.09 405.2,-133.9 408.01,-140.31"/>
</a>
</g>
</g>
<!-- Node22&#45;&gt;Node13 -->
<g id="edge36_Node000022_Node000013" class="edge">
<title>Node22&#45;&gt;Node13</title>
<g id="a_edge36_Node000022_Node000013"><a xlink:title=" ">
<path fill="none" stroke="#63b8ff" d="M291.26,-167.51C275.1,-160.09 254.6,-148.28 241.74,-132 231.61,-119.17 226.3,-101.32 223.56,-87.57"/>
<polygon fill="#63b8ff" stroke="#63b8ff" points="227.03,-87.14 221.94,-77.85 220.13,-88.29 227.03,-87.14"/>
</a>
</g>
</g>
<!-- Node22&#45;&gt;Node14 -->
<g id="edge33_Node000022_Node000014" class="edge">
<title>Node22&#45;&gt;Node14</title>
<g id="a_edge33_Node000022_Node000014"><a xlink:title=" ">
<path fill="none" stroke="#63b8ff" d="M276.64,-167.53C239.42,-158.52 183.23,-144.91 142.76,-135.11"/>
<polygon fill="#63b8ff" stroke="#63b8ff" points="143.81,-131.77 133.26,-132.81 142.16,-138.57 143.81,-131.77"/>
</a>
</g>
</g>
<!-- Node23 -->
<g id="Node000023" class="node">
<title>Node23</title>
<g id="a_Node000023"><a xlink:title=" ">
<polygon fill="#e0e0e0" stroke="#999999" points="304.49,-132 250.99,-132 250.99,-112 304.49,-112 304.49,-132"/>
<text xml:space="preserve" text-anchor="middle" x="277.74" y="-118.5" font-family="Helvetica,sans-Serif" font-size="10.00">iostream</text>
</a>
</g>
</g>
<!-- Node22&#45;&gt;Node23 -->
<g id="edge35_Node000022_Node000023" class="edge">
<title>Node22&#45;&gt;Node23</title>
<g id="a_edge35_Node000022_Node000023"><a xlink:title=" ">
<path fill="none" stroke="#63b8ff" d="M309.12,-167.59C304.05,-160.39 296.9,-150.23 290.71,-141.43"/>
<polygon fill="#63b8ff" stroke="#63b8ff" points="293.77,-139.7 285.15,-133.54 288.05,-143.73 293.77,-139.7"/>
</a>
</g>
</g>
<!-- Node27&#45;&gt;Node2 -->
<g id="edge47_Node000027_Node000002" class="edge">
<title>Node27&#45;&gt;Node2</title>
<g id="a_edge47_Node000027_Node000002"><a xlink:title=" ">
<path fill="none" stroke="#63b8ff" d="M955.72,-391.62C983.05,-375.13 1033.74,-338.19 1033.74,-291 1033.74,-291 1033.74,-291 1033.74,-177 1033.74,-143.76 1024.53,-130.24 996.74,-112 942.78,-76.58 762.68,-68.68 658.66,-67.14"/>
<polygon fill="#63b8ff" stroke="#63b8ff" points="658.85,-63.64 648.81,-67.01 658.76,-70.64 658.85,-63.64"/>
</a>
</g>
</g>
<!-- Node27&#45;&gt;Node11 -->
<g id="edge48_Node000027_Node000011" class="edge">
<title>Node27&#45;&gt;Node11</title>
<g id="a_edge48_Node000027_Node000011"><a xlink:title=" ">
<path fill="none" stroke="#63b8ff" d="M904.22,-394.27C858.49,-385.36 777.14,-369.5 721.37,-358.62"/>
<polygon fill="#63b8ff" stroke="#63b8ff" points="722.2,-355.22 711.71,-356.74 720.86,-362.09 722.2,-355.22"/>
</a>
</g>
</g>
</g>
</svg>
