<?xml version="1.0" encoding="UTF-8" standalone="no"?>
<!DOCTYPE svg PUBLIC "-//W3C//DTD SVG 1.1//EN"
 "http://www.w3.org/Graphics/SVG/1.1/DTD/svg11.dtd">
<!-- Generated by graphviz version 13.1.0 (20250701.0955)
 -->
<!-- Title: Tests/Support/Foo.h Pages: 1 -->
<svg width="683pt" height="196pt"
 viewBox="0.00 0.00 683.00 196.00" xmlns="http://www.w3.org/2000/svg" xmlns:xlink="http://www.w3.org/1999/xlink">
<g id="graph0" class="graph" transform="scale(1 1) rotate(0) translate(4 192)">
<title>Tests/Support/Foo.h</title>
<!-- Node1 -->
<g id="Node000001" class="node">
<title>Node1</title>
<g id="a_Node000001"><a xlink:title=" ">
<polygon fill="#999999" stroke="#666666" points="566.25,-188 461.75,-188 461.75,-168 566.25,-168 566.25,-188"/>
<text xml:space="preserve" text-anchor="middle" x="514" y="-174.5" font-family="Helvetica,sans-Serif" font-size="10.00">Tests/Support/Foo.h</text>
</a>
</g>
</g>
<!-- Node2 -->
<g id="Node000002" class="node">
<title>Node2</title>
<g id="a_Node000002"><a xlink:href="_types_8h.html" target="_top" xlink:title=" ">
<polygon fill="white" stroke="#666666" points="444.25,-76 315.75,-76 315.75,-56 444.25,-56 444.25,-76"/>
<text xml:space="preserve" text-anchor="middle" x="380" y="-62.5" font-family="Helvetica,sans-Serif" font-size="10.00">FieaGameEngine/Types.h</text>
</a>
</g>
</g>
<!-- Node1&#45;&gt;Node2 -->
<g id="edge1_Node000001_Node000002" class="edge">
<title>Node1&#45;&gt;Node2</title>
<g id="a_edge1_Node000001_Node000002"><a xlink:title=" ">
<path fill="none" stroke="#63b8ff" d="M495.71,-167.51C480.39,-159.15 458.3,-146.13 441,-132 423.47,-117.68 406.06,-98.51 394.36,-84.7"/>
<polygon fill="#63b8ff" stroke="#63b8ff" points="397.28,-82.75 388.2,-77.29 391.9,-87.22 397.28,-82.75"/>
</a>
</g>
</g>
<!-- Node11 -->
<g id="Node000011" class="node">
<title>Node11</title>
<g id="a_Node000011"><a xlink:href="_r_t_t_i_8h.html" target="_top" xlink:title=" ">
<polygon fill="white" stroke="#666666" points="577.88,-132 450.12,-132 450.12,-112 577.88,-112 577.88,-132"/>
<text xml:space="preserve" text-anchor="middle" x="514" y="-118.5" font-family="Helvetica,sans-Serif" font-size="10.00">FIEAGameEngine/RTTI.h</text>
</a>
</g>
</g>
<!-- Node1&#45;&gt;Node11 -->
<g id="edge10_Node000001_Node000011" class="edge">
<title>Node1&#45;&gt;Node11</title>
<g id="a_edge10_Node000001_Node000011"><a xlink:title=" ">
<path fill="none" stroke="#63b8ff" d="M514,-167.59C514,-161.01 514,-151.96 514,-143.73"/>
<polygon fill="#63b8ff" stroke="#63b8ff" points="517.5,-143.81 514,-133.81 510.5,-143.81 517.5,-143.81"/>
</a>
</g>
</g>
<!-- Node13 -->
<g id="Node000013" class="node">
<title>Node13</title>
<g id="a_Node000013"><a xlink:title=" ">
<polygon fill="#e0e0e0" stroke="#999999" points="674.5,-132 595.5,-132 595.5,-112 674.5,-112 674.5,-132"/>
<text xml:space="preserve" text-anchor="middle" x="635" y="-118.5" font-family="Helvetica,sans-Serif" font-size="10.00">CppUnitTest.h</text>
</a>
</g>
</g>
<!-- Node1&#45;&gt;Node13 -->
<g id="edge14_Node000001_Node000013" class="edge">
<title>Node1&#45;&gt;Node13</title>
<g id="a_edge14_Node000001_Node000013"><a xlink:title=" ">
<path fill="none" stroke="#63b8ff" d="M535.08,-167.59C553.96,-159.17 581.92,-146.69 603.46,-137.07"/>
<polygon fill="#63b8ff" stroke="#63b8ff" points="604.67,-140.37 612.38,-133.1 601.82,-133.98 604.67,-140.37"/>
</a>
</g>
</g>
<!-- Node3 -->
<g id="Node000003" class="node">
<title>Node3</title>
<g id="a_Node000003"><a xlink:title=" ">
<polygon fill="#e0e0e0" stroke="#999999" points="160,-20 0,-20 0,0 160,0 160,-20"/>
<text xml:space="preserve" text-anchor="middle" x="80" y="-6.5" font-family="Helvetica,sans-Serif" font-size="10.00">../src/Memory/SystemAllocator.h</text>
</a>
</g>
</g>
<!-- Node2&#45;&gt;Node3 -->
<g id="edge2_Node000002_Node000003" class="edge">
<title>Node2&#45;&gt;Node3</title>
<g id="a_edge2_Node000002_Node000003"><a xlink:title=" ">
<path fill="none" stroke="#63b8ff" d="M327.4,-55.53C276.26,-46.33 198.5,-32.33 143.83,-22.49"/>
<polygon fill="#63b8ff" stroke="#63b8ff" points="144.49,-19.05 134.03,-20.73 143.25,-25.94 144.49,-19.05"/>
</a>
</g>
</g>
<!-- Node4 -->
<g id="Node000004" class="node">
<title>Node4</title>
<g id="a_Node000004"><a xlink:title=" ">
<polygon fill="#e0e0e0" stroke="#999999" points="240.25,-20 177.75,-20 177.75,0 240.25,0 240.25,-20"/>
<text xml:space="preserve" text-anchor="middle" x="209" y="-6.5" font-family="Helvetica,sans-Serif" font-size="10.00">windows.h</text>
</a>
</g>
</g>
<!-- Node2&#45;&gt;Node4 -->
<g id="edge3_Node000002_Node000004" class="edge">
<title>Node2&#45;&gt;Node4</title>
<g id="a_edge3_Node000002_Node000004"><a xlink:title=" ">
<path fill="none" stroke="#63b8ff" d="M350.21,-55.59C322.43,-46.82 280.75,-33.66 249.86,-23.9"/>
<polygon fill="#63b8ff" stroke="#63b8ff" points="251.05,-20.61 240.46,-20.94 248.94,-27.28 251.05,-20.61"/>
</a>
</g>
</g>
<!-- Node5 -->
<g id="Node000005" class="node">
<title>Node5</title>
<g id="a_Node000005"><a xlink:title=" ">
<polygon fill="#e0e0e0" stroke="#999999" points="306.12,-20 257.88,-20 257.88,0 306.12,0 306.12,-20"/>
<text xml:space="preserve" text-anchor="middle" x="282" y="-6.5" font-family="Helvetica,sans-Serif" font-size="10.00">cassert</text>
</a>
</g>
</g>
<!-- Node2&#45;&gt;Node5 -->
<g id="edge4_Node000002_Node000005" class="edge">
<title>Node2&#45;&gt;Node5</title>
<g id="a_edge4_Node000002_Node000005"><a xlink:title=" ">
<path fill="none" stroke="#63b8ff" d="M362.93,-55.59C348.12,-47.44 326.43,-35.48 309.23,-26"/>
<polygon fill="#63b8ff" stroke="#63b8ff" points="310.98,-22.97 300.53,-21.21 307.6,-29.1 310.98,-22.97"/>
</a>
</g>
</g>
<!-- Node6 -->
<g id="Node000006" class="node">
<title>Node6</title>
<g id="a_Node000006"><a xlink:title=" ">
<polygon fill="#e0e0e0" stroke="#999999" points="372.12,-20 323.88,-20 323.88,0 372.12,0 372.12,-20"/>
<text xml:space="preserve" text-anchor="middle" x="348" y="-6.5" font-family="Helvetica,sans-Serif" font-size="10.00">cstddef</text>
</a>
</g>
</g>
<!-- Node2&#45;&gt;Node6 -->
<g id="edge5_Node000002_Node000006" class="edge">
<title>Node2&#45;&gt;Node6</title>
<g id="a_edge5_Node000002_Node000006"><a xlink:title=" ">
<path fill="none" stroke="#63b8ff" d="M374.43,-55.59C370.25,-48.55 364.4,-38.67 359.26,-30"/>
<polygon fill="#63b8ff" stroke="#63b8ff" points="362.39,-28.42 354.28,-21.6 356.37,-31.99 362.39,-28.42"/>
</a>
</g>
</g>
<!-- Node7 -->
<g id="Node000007" class="node">
<title>Node7</title>
<g id="a_Node000007"><a xlink:title=" ">
<polygon fill="#e0e0e0" stroke="#999999" points="435.62,-20 390.38,-20 390.38,0 435.62,0 435.62,-20"/>
<text xml:space="preserve" text-anchor="middle" x="413" y="-6.5" font-family="Helvetica,sans-Serif" font-size="10.00">cstdint</text>
</a>
</g>
</g>
<!-- Node2&#45;&gt;Node7 -->
<g id="edge6_Node000002_Node000007" class="edge">
<title>Node2&#45;&gt;Node7</title>
<g id="a_edge6_Node000002_Node000007"><a xlink:title=" ">
<path fill="none" stroke="#63b8ff" d="M385.75,-55.59C390.05,-48.55 396.09,-38.67 401.39,-30"/>
<polygon fill="#63b8ff" stroke="#63b8ff" points="404.3,-31.95 406.53,-21.59 398.33,-28.3 404.3,-31.95"/>
</a>
</g>
</g>
<!-- Node8 -->
<g id="Node000008" class="node">
<title>Node8</title>
<g id="a_Node000008"><a xlink:title=" ">
<polygon fill="#e0e0e0" stroke="#999999" points="506.38,-20 453.62,-20 453.62,0 506.38,0 506.38,-20"/>
<text xml:space="preserve" text-anchor="middle" x="480" y="-6.5" font-family="Helvetica,sans-Serif" font-size="10.00">cstdbool</text>
</a>
</g>
</g>
<!-- Node2&#45;&gt;Node8 -->
<g id="edge7_Node000002_Node000008" class="edge">
<title>Node2&#45;&gt;Node8</title>
<g id="a_edge7_Node000002_Node000008"><a xlink:title=" ">
<path fill="none" stroke="#63b8ff" d="M397.42,-55.59C412.67,-47.36 435.08,-35.26 452.71,-25.74"/>
<polygon fill="#63b8ff" stroke="#63b8ff" points="453.98,-29.03 461.11,-21.2 450.65,-22.87 453.98,-29.03"/>
</a>
</g>
</g>
<!-- Node9 -->
<g id="Node000009" class="node">
<title>Node9</title>
<g id="a_Node000009"><a xlink:title=" ">
<polygon fill="#e0e0e0" stroke="#999999" points="564,-20 524,-20 524,0 564,0 564,-20"/>
<text xml:space="preserve" text-anchor="middle" x="544" y="-6.5" font-family="Helvetica,sans-Serif" font-size="10.00">string</text>
</a>
</g>
</g>
<!-- Node2&#45;&gt;Node9 -->
<g id="edge8_Node000002_Node000009" class="edge">
<title>Node2&#45;&gt;Node9</title>
<g id="a_edge8_Node000002_Node000009"><a xlink:title=" ">
<path fill="none" stroke="#63b8ff" d="M408.57,-55.59C437.7,-46 482.77,-31.16 512.81,-21.27"/>
<polygon fill="#63b8ff" stroke="#63b8ff" points="513.69,-24.67 522.09,-18.21 511.5,-18.02 513.69,-24.67"/>
</a>
</g>
</g>
<!-- Node10 -->
<g id="Node000010" class="node">
<title>Node10</title>
<g id="a_Node000010"><a xlink:title=" ">
<polygon fill="#e0e0e0" stroke="#999999" points="636.12,-20 581.88,-20 581.88,0 636.12,0 636.12,-20"/>
<text xml:space="preserve" text-anchor="middle" x="609" y="-6.5" font-family="Helvetica,sans-Serif" font-size="10.00">crtdefs.h</text>
</a>
</g>
</g>
<!-- Node2&#45;&gt;Node10 -->
<g id="edge9_Node000002_Node000010" class="edge">
<title>Node2&#45;&gt;Node10</title>
<g id="a_edge9_Node000002_Node000010"><a xlink:title=" ">
<path fill="none" stroke="#63b8ff" d="M421.46,-55.53C458.2,-47.1 513.61,-34.27 570.48,-20.58"/>
<polygon fill="#63b8ff" stroke="#63b8ff" points="571.12,-24.03 580.02,-18.28 569.48,-17.22 571.12,-24.03"/>
</a>
</g>
</g>
<!-- Node11&#45;&gt;Node2 -->
<g id="edge11_Node000011_Node000002" class="edge">
<title>Node11&#45;&gt;Node2</title>
<g id="a_edge11_Node000011_Node000002"><a xlink:title=" ">
<path fill="none" stroke="#63b8ff" d="M490.66,-111.59C469.46,-103.05 437.93,-90.35 413.95,-80.68"/>
<polygon fill="#63b8ff" stroke="#63b8ff" points="415.51,-77.54 404.93,-77.05 412.89,-84.03 415.51,-77.54"/>
</a>
</g>
</g>
<!-- Node12 -->
<g id="Node000012" class="node">
<title>Node12</title>
<g id="a_Node000012"><a xlink:href="_r_t_t_i_8inl.html" target="_top" xlink:title=" ">
<polygon fill="white" stroke="#666666" points="594.12,-76 461.88,-76 461.88,-56 594.12,-56 594.12,-76"/>
<text xml:space="preserve" text-anchor="middle" x="528" y="-62.5" font-family="Helvetica,sans-Serif" font-size="10.00">FIEAGameEngine/RTTI.inl</text>
</a>
</g>
</g>
<!-- Node11&#45;&gt;Node12 -->
<g id="edge12_Node000011_Node000012" class="edge">
<title>Node11&#45;&gt;Node12</title>
<g id="a_edge12_Node000011_Node000012"><a xlink:title=" ">
<path fill="none" stroke="#63b8ff" d="M511.17,-111.59C511.57,-104.78 513.6,-95.32 516.31,-86.86"/>
<polygon fill="#63b8ff" stroke="#63b8ff" points="519.51,-88.3 519.8,-77.71 512.97,-85.81 519.51,-88.3"/>
</a>
</g>
</g>
<!-- Node12&#45;&gt;Node11 -->
<g id="edge13_Node000012_Node000011" class="edge">
<title>Node12&#45;&gt;Node11</title>
<g id="a_edge13_Node000012_Node000011"><a xlink:title=" ">
<path fill="none" stroke="#63b8ff" d="M530.83,-76.3C530.45,-83.08 528.43,-92.54 525.73,-101"/>
<polygon fill="#63b8ff" stroke="#63b8ff" points="522.52,-99.59 522.24,-110.18 529.07,-102.07 522.52,-99.59"/>
</a>
</g>
</g>
</g>
</svg>
