<?xml version="1.0" encoding="UTF-8" standalone="no"?>
<!DOCTYPE svg PUBLIC "-//W3C//DTD SVG 1.1//EN"
 "http://www.w3.org/Graphics/SVG/1.1/DTD/svg11.dtd">
<!-- Generated by graphviz version 13.1.0 (20250701.0955)
 -->
<!-- Title: Tests/Support/Foo.h Pages: 1 -->
<svg width="1670pt" height="220pt"
 viewBox="0.00 0.00 1670.00 220.00" xmlns="http://www.w3.org/2000/svg" xmlns:xlink="http://www.w3.org/1999/xlink">
<g id="graph0" class="graph" transform="scale(1 1) rotate(0) translate(4 216)">
<title>Tests/Support/Foo.h</title>
<!-- Node1 -->
<g id="Node000001" class="node">
<title>Node1</title>
<g id="a_Node000001"><a xlink:title=" ">
<polygon fill="#999999" stroke="#666666" points="725.5,-212 621,-212 621,-192 725.5,-192 725.5,-212"/>
<text xml:space="preserve" text-anchor="middle" x="673.25" y="-198.5" font-family="Helvetica,sans-Serif" font-size="10.00">Tests/Support/Foo.h</text>
</a>
</g>
</g>
<!-- Node2 -->
<g id="Node000002" class="node">
<title>Node2</title>
<g id="a_Node000002"><a xlink:href="_container_test_8cpp.html" target="_top" xlink:title=" ">
<polygon fill="white" stroke="#666666" points="122.5,-156 0,-156 0,-136 122.5,-136 122.5,-156"/>
<text xml:space="preserve" text-anchor="middle" x="61.25" y="-142.5" font-family="Helvetica,sans-Serif" font-size="10.00">Tests/ContainerTest.cpp</text>
</a>
</g>
</g>
<!-- Node1&#45;&gt;Node2 -->
<g id="edge1_Node000001_Node000002" class="edge">
<title>Node1&#45;&gt;Node2</title>
<g id="a_edge1_Node000001_Node000002"><a xlink:title=" ">
<path fill="none" stroke="#63b8ff" d="M609.32,-196.58C508.02,-189.37 304.41,-174.06 132.25,-156 129.16,-155.68 126,-155.33 122.8,-154.97"/>
<polygon fill="#63b8ff" stroke="#63b8ff" points="608.84,-200.05 619.06,-197.27 609.34,-193.07 608.84,-200.05"/>
</a>
</g>
</g>
<!-- Node3 -->
<g id="Node000003" class="node">
<title>Node3</title>
<g id="a_Node000003"><a xlink:href="_core_tests_8cpp.html" target="_top" xlink:title=" ">
<polygon fill="white" stroke="#666666" points="247.62,-156 140.88,-156 140.88,-136 247.62,-136 247.62,-156"/>
<text xml:space="preserve" text-anchor="middle" x="194.25" y="-142.5" font-family="Helvetica,sans-Serif" font-size="10.00">Tests/CoreTests.cpp</text>
</a>
</g>
</g>
<!-- Node1&#45;&gt;Node3 -->
<g id="edge2_Node000001_Node000003" class="edge">
<title>Node1&#45;&gt;Node3</title>
<g id="a_edge2_Node000001_Node000003"><a xlink:title=" ">
<path fill="none" stroke="#63b8ff" d="M609.52,-194.53C528.51,-186.2 384.38,-170.99 261.25,-156 256.94,-155.48 252.48,-154.91 247.99,-154.34"/>
<polygon fill="#63b8ff" stroke="#63b8ff" points="608.71,-197.97 619.02,-195.51 609.43,-191 608.71,-197.97"/>
</a>
</g>
</g>
<!-- Node4 -->
<g id="Node000004" class="node">
<title>Node4</title>
<g id="a_Node000004"><a xlink:href="_datum_test_8cpp.html" target="_top" xlink:title=" ">
<polygon fill="white" stroke="#666666" points="280.12,-94 170.38,-94 170.38,-74 280.12,-74 280.12,-94"/>
<text xml:space="preserve" text-anchor="middle" x="225.25" y="-80.5" font-family="Helvetica,sans-Serif" font-size="10.00">Tests/DatumTest.cpp</text>
</a>
</g>
</g>
<!-- Node1&#45;&gt;Node4 -->
<g id="edge3_Node000001_Node000004" class="edge">
<title>Node1&#45;&gt;Node4</title>
<g id="a_edge3_Node000001_Node000004"><a xlink:title=" ">
<path fill="none" stroke="#63b8ff" d="M609.6,-198.57C516.45,-194.15 348.21,-182.66 294.25,-156 265.28,-141.69 241.65,-110.1 231.14,-94.34"/>
<polygon fill="#63b8ff" stroke="#63b8ff" points="609.19,-202.05 619.34,-199.01 609.51,-195.06 609.19,-202.05"/>
</a>
</g>
</g>
<!-- Node5 -->
<g id="Node000005" class="node">
<title>Node5</title>
<g id="a_Node000005"><a xlink:href="_foo_tests_8cpp.html" target="_top" xlink:title=" ">
<polygon fill="white" stroke="#666666" points="603.38,-156 501.12,-156 501.12,-136 603.38,-136 603.38,-156"/>
<text xml:space="preserve" text-anchor="middle" x="552.25" y="-142.5" font-family="Helvetica,sans-Serif" font-size="10.00">Tests/FooTests.cpp</text>
</a>
</g>
</g>
<!-- Node1&#45;&gt;Node5 -->
<g id="edge4_Node000001_Node000005" class="edge">
<title>Node1&#45;&gt;Node5</title>
<g id="a_edge4_Node000001_Node000005"><a xlink:title=" ">
<path fill="none" stroke="#63b8ff" d="M641.9,-187.01C620.39,-177.41 592.43,-164.93 573.49,-156.48"/>
<polygon fill="#63b8ff" stroke="#63b8ff" points="640.23,-190.1 650.79,-190.98 643.09,-183.71 640.23,-190.1"/>
</a>
</g>
</g>
<!-- Node6 -->
<g id="Node000006" class="node">
<title>Node6</title>
<g id="a_Node000006"><a xlink:href="_heap_test_8cpp.html" target="_top" xlink:title=" ">
<polygon fill="white" stroke="#666666" points="725.12,-156 621.38,-156 621.38,-136 725.12,-136 725.12,-156"/>
<text xml:space="preserve" text-anchor="middle" x="673.25" y="-142.5" font-family="Helvetica,sans-Serif" font-size="10.00">Tests/HeapTest.cpp</text>
</a>
</g>
</g>
<!-- Node1&#45;&gt;Node6 -->
<g id="edge5_Node000001_Node000006" class="edge">
<title>Node1&#45;&gt;Node6</title>
<g id="a_edge5_Node000001_Node000006"><a xlink:title=" ">
<path fill="none" stroke="#63b8ff" d="M673.25,-180.13C673.25,-171.9 673.25,-162.85 673.25,-156.3"/>
<polygon fill="#63b8ff" stroke="#63b8ff" points="669.75,-180.08 673.25,-190.08 676.75,-180.08 669.75,-180.08"/>
</a>
</g>
</g>
<!-- Node7 -->
<g id="Node000007" class="node">
<title>Node7</title>
<g id="a_Node000007"><a xlink:href="_list_tests_8cpp.html" target="_top" xlink:title=" ">
<polygon fill="white" stroke="#666666" points="845,-156 743.5,-156 743.5,-136 845,-136 845,-156"/>
<text xml:space="preserve" text-anchor="middle" x="794.25" y="-142.5" font-family="Helvetica,sans-Serif" font-size="10.00">Tests/ListTests.cpp</text>
</a>
</g>
</g>
<!-- Node1&#45;&gt;Node7 -->
<g id="edge6_Node000001_Node000007" class="edge">
<title>Node1&#45;&gt;Node7</title>
<g id="a_edge6_Node000001_Node000007"><a xlink:title=" ">
<path fill="none" stroke="#63b8ff" d="M704.6,-187.01C726.11,-177.41 754.07,-164.93 773.01,-156.48"/>
<polygon fill="#63b8ff" stroke="#63b8ff" points="703.41,-183.71 695.71,-190.98 706.27,-190.1 703.41,-183.71"/>
</a>
</g>
</g>
<!-- Node8 -->
<g id="Node000008" class="node">
<title>Node8</title>
<g id="a_Node000008"><a xlink:href="_memory_service_test_8cpp.html" target="_top" xlink:title=" ">
<polygon fill="white" stroke="#666666" points="1011.62,-156 862.88,-156 862.88,-136 1011.62,-136 1011.62,-156"/>
<text xml:space="preserve" text-anchor="middle" x="937.25" y="-142.5" font-family="Helvetica,sans-Serif" font-size="10.00">Tests/MemoryServiceTest.cpp</text>
</a>
</g>
</g>
<!-- Node1&#45;&gt;Node8 -->
<g id="edge7_Node000001_Node000008" class="edge">
<title>Node1&#45;&gt;Node8</title>
<g id="a_edge7_Node000001_Node000008"><a xlink:title=" ">
<path fill="none" stroke="#63b8ff" d="M730.69,-189.25C778.74,-179.42 846.4,-165.58 891.02,-156.46"/>
<polygon fill="#63b8ff" stroke="#63b8ff" points="730.12,-185.8 721.02,-191.23 731.52,-192.65 730.12,-185.8"/>
</a>
</g>
</g>
<!-- Node9 -->
<g id="Node000009" class="node">
<title>Node9</title>
<g id="a_Node000009"><a xlink:href="_r_t_t_i_test_8cpp.html" target="_top" xlink:title=" ">
<polygon fill="white" stroke="#666666" points="1132.38,-156 1030.12,-156 1030.12,-136 1132.38,-136 1132.38,-156"/>
<text xml:space="preserve" text-anchor="middle" x="1081.25" y="-142.5" font-family="Helvetica,sans-Serif" font-size="10.00">Tests/RTTITest.cpp</text>
</a>
</g>
</g>
<!-- Node1&#45;&gt;Node9 -->
<g id="edge8_Node000001_Node000009" class="edge">
<title>Node1&#45;&gt;Node9</title>
<g id="a_edge8_Node000001_Node000009"><a xlink:title=" ">
<path fill="none" stroke="#63b8ff" d="M737.11,-193.06C806.75,-184.32 921.5,-169.69 1020.25,-156 1023.33,-155.57 1026.49,-155.13 1029.67,-154.67"/>
<polygon fill="#63b8ff" stroke="#63b8ff" points="736.89,-189.56 727.4,-194.28 737.76,-196.5 736.89,-189.56"/>
</a>
</g>
</g>
<!-- Node10 -->
<g id="Node000010" class="node">
<title>Node10</title>
<g id="a_Node000010"><a xlink:href="_service_mgr_test_8cpp.html" target="_top" xlink:title=" ">
<polygon fill="white" stroke="#666666" points="598.25,-94 468.25,-94 468.25,-74 598.25,-74 598.25,-94"/>
<text xml:space="preserve" text-anchor="middle" x="533.25" y="-80.5" font-family="Helvetica,sans-Serif" font-size="10.00">Tests/ServiceMgrTest.cpp</text>
</a>
</g>
</g>
<!-- Node1&#45;&gt;Node10 -->
<g id="edge9_Node000001_Node000010" class="edge">
<title>Node1&#45;&gt;Node10</title>
<g id="a_edge9_Node000001_Node000010"><a xlink:title=" ">
<path fill="none" stroke="#63b8ff" d="M609.74,-193.52C563.61,-186.63 506.81,-174.62 492.25,-156 476.38,-135.7 503.45,-108.62 520.67,-94.49"/>
<polygon fill="#63b8ff" stroke="#63b8ff" points="609.02,-196.96 619.41,-194.91 610.01,-190.03 609.02,-196.96"/>
</a>
</g>
</g>
<!-- Node11 -->
<g id="Node000011" class="node">
<title>Node11</title>
<g id="a_Node000011"><a xlink:href="_attribute_box_8h.html" target="_top" xlink:title=" ">
<polygon fill="white" stroke="#666666" points="1330.25,-156 1188.25,-156 1188.25,-136 1330.25,-136 1330.25,-156"/>
<text xml:space="preserve" text-anchor="middle" x="1259.25" y="-142.5" font-family="Helvetica,sans-Serif" font-size="10.00">Tests/Support/AttributeBox.h</text>
</a>
</g>
</g>
<!-- Node1&#45;&gt;Node11 -->
<g id="edge10_Node000001_Node000011" class="edge">
<title>Node1&#45;&gt;Node11</title>
<g id="a_edge10_Node000001_Node000011"><a xlink:title=" ">
<path fill="none" stroke="#63b8ff" d="M737.38,-195.57C832.71,-187.42 1017.39,-171.35 1174.25,-156 1178.68,-155.57 1183.24,-155.11 1187.84,-154.64"/>
<polygon fill="#63b8ff" stroke="#63b8ff" points="737.11,-192.08 727.44,-196.42 737.7,-199.05 737.11,-192.08"/>
</a>
</g>
</g>
<!-- Node16 -->
<g id="Node000016" class="node">
<title>Node16</title>
<g id="a_Node000016"><a xlink:href="_attribute_box_plus_8h.html" target="_top" xlink:title=" ">
<polygon fill="white" stroke="#666666" points="1144.12,-100 1010.38,-100 1010.38,-68 1144.12,-68 1144.12,-100"/>
<text xml:space="preserve" text-anchor="start" x="1018.38" y="-86.5" font-family="Helvetica,sans-Serif" font-size="10.00">Tests/Support/AttributeBox</text>
<text xml:space="preserve" text-anchor="middle" x="1077.25" y="-74.5" font-family="Helvetica,sans-Serif" font-size="10.00">Plus.h</text>
</a>
</g>
</g>
<!-- Node1&#45;&gt;Node16 -->
<g id="edge20_Node000001_Node000016" class="edge">
<title>Node1&#45;&gt;Node16</title>
<g id="a_edge20_Node000001_Node000016"><a xlink:title=" ">
<path fill="none" stroke="#63b8ff" d="M737.18,-199.53C858.98,-196.06 1114.6,-185.34 1141.25,-156 1158.66,-136.84 1131.08,-114.66 1106.89,-100.27"/>
<polygon fill="#63b8ff" stroke="#63b8ff" points="737.24,-196.03 727.34,-199.8 737.43,-203.02 737.24,-196.03"/>
</a>
</g>
</g>
<!-- Node19 -->
<g id="Node000019" class="node">
<title>Node19</title>
<g id="a_Node000019"><a xlink:href="_foo_8cpp.html" target="_top" xlink:title=" ">
<polygon fill="white" stroke="#666666" points="1463.75,-156 1348.75,-156 1348.75,-136 1463.75,-136 1463.75,-156"/>
<text xml:space="preserve" text-anchor="middle" x="1406.25" y="-142.5" font-family="Helvetica,sans-Serif" font-size="10.00">Tests/Support/Foo.cpp</text>
</a>
</g>
</g>
<!-- Node1&#45;&gt;Node19 -->
<g id="edge21_Node000001_Node000019" class="edge">
<title>Node1&#45;&gt;Node19</title>
<g id="a_edge21_Node000001_Node000019"><a xlink:title=" ">
<path fill="none" stroke="#63b8ff" d="M736.96,-198.1C855.65,-192.38 1118.58,-178.25 1339.25,-156 1342.29,-155.69 1345.4,-155.36 1348.53,-155"/>
<polygon fill="#63b8ff" stroke="#63b8ff" points="736.92,-194.6 727.1,-198.57 737.25,-201.59 736.92,-194.6"/>
</a>
</g>
</g>
<!-- Node20 -->
<g id="Node000020" class="node">
<title>Node20</title>
<g id="a_Node000020"><a xlink:href="_foo_manager_8h.html" target="_top" xlink:title=" ">
<polygon fill="white" stroke="#666666" points="445.25,-156 303.25,-156 303.25,-136 445.25,-136 445.25,-156"/>
<text xml:space="preserve" text-anchor="middle" x="374.25" y="-142.5" font-family="Helvetica,sans-Serif" font-size="10.00">Tests/Support/FooManager.h</text>
</a>
</g>
</g>
<!-- Node1&#45;&gt;Node20 -->
<g id="edge22_Node000001_Node000020" class="edge">
<title>Node1&#45;&gt;Node20</title>
<g id="a_edge22_Node000001_Node000020"><a xlink:title=" ">
<path fill="none" stroke="#63b8ff" d="M609.56,-189.5C555.07,-179.66 477.57,-165.66 426.61,-156.46"/>
<polygon fill="#63b8ff" stroke="#63b8ff" points="608.87,-192.93 619.34,-191.26 610.12,-186.04 608.87,-192.93"/>
</a>
</g>
</g>
<!-- Node12 -->
<g id="Node000012" class="node">
<title>Node12</title>
<g id="a_Node000012"><a xlink:href="_attributed_test_8cpp.html" target="_top" xlink:title=" ">
<polygon fill="white" stroke="#666666" points="1233.5,-26 1111,-26 1111,-6 1233.5,-6 1233.5,-26"/>
<text xml:space="preserve" text-anchor="middle" x="1172.25" y="-12.5" font-family="Helvetica,sans-Serif" font-size="10.00">Tests/AttributedTest.cpp</text>
</a>
</g>
</g>
<!-- Node11&#45;&gt;Node12 -->
<g id="edge11_Node000011_Node000012" class="edge">
<title>Node11&#45;&gt;Node12</title>
<g id="a_edge11_Node000011_Node000012"><a xlink:title=" ">
<path fill="none" stroke="#63b8ff" d="M1226.66,-130.21C1213.84,-122.85 1200.09,-112.77 1191.25,-100 1175.35,-77.03 1172.57,-42.74 1172.2,-26.36"/>
<polygon fill="#63b8ff" stroke="#63b8ff" points="1224.83,-133.2 1235.31,-134.82 1228.13,-127.03 1224.83,-133.2"/>
</a>
</g>
</g>
<!-- Node13 -->
<g id="Node000013" class="node">
<title>Node13</title>
<g id="a_Node000013"><a xlink:href="_factory_tests_8cpp.html" target="_top" xlink:title=" ">
<polygon fill="white" stroke="#666666" points="1318.62,-94 1199.88,-94 1199.88,-74 1318.62,-74 1318.62,-94"/>
<text xml:space="preserve" text-anchor="middle" x="1259.25" y="-80.5" font-family="Helvetica,sans-Serif" font-size="10.00">Tests/FactoryTests.cpp</text>
</a>
</g>
</g>
<!-- Node11&#45;&gt;Node13 -->
<g id="edge12_Node000011_Node000013" class="edge">
<title>Node11&#45;&gt;Node13</title>
<g id="a_edge12_Node000011_Node000013"><a xlink:title=" ">
<path fill="none" stroke="#63b8ff" d="M1259.25,-124.25C1259.25,-113.97 1259.25,-102.09 1259.25,-94.11"/>
<polygon fill="#63b8ff" stroke="#63b8ff" points="1255.75,-124.11 1259.25,-134.11 1262.75,-124.11 1255.75,-124.11"/>
</a>
</g>
</g>
<!-- Node14 -->
<g id="Node000014" class="node">
<title>Node14</title>
<g id="a_Node000014"><a xlink:href="_scope_parser_test_8cpp.html" target="_top" xlink:title=" ">
<polygon fill="white" stroke="#666666" points="1473.62,-94 1336.88,-94 1336.88,-74 1473.62,-74 1473.62,-94"/>
<text xml:space="preserve" text-anchor="middle" x="1405.25" y="-80.5" font-family="Helvetica,sans-Serif" font-size="10.00">Tests/ScopeParserTest.cpp</text>
</a>
</g>
</g>
<!-- Node11&#45;&gt;Node14 -->
<g id="edge13_Node000011_Node000014" class="edge">
<title>Node11&#45;&gt;Node14</title>
<g id="a_edge13_Node000011_Node000014"><a xlink:title=" ">
<path fill="none" stroke="#63b8ff" d="M1292.4,-131.38C1319.96,-120.05 1358.45,-104.23 1382.6,-94.31"/>
<polygon fill="#63b8ff" stroke="#63b8ff" points="1291.38,-128.01 1283.46,-135.05 1294.04,-134.49 1291.38,-128.01"/>
</a>
</g>
</g>
<!-- Node15 -->
<g id="Node000015" class="node">
<title>Node15</title>
<g id="a_Node000015"><a xlink:href="_attribute_box_8cpp.html" target="_top" xlink:title=" ">
<polygon fill="white" stroke="#666666" points="1644.5,-94 1492,-94 1492,-74 1644.5,-74 1644.5,-94"/>
<text xml:space="preserve" text-anchor="middle" x="1568.25" y="-80.5" font-family="Helvetica,sans-Serif" font-size="10.00">Tests/Support/AttributeBox.cpp</text>
</a>
</g>
</g>
<!-- Node11&#45;&gt;Node15 -->
<g id="edge14_Node000011_Node000015" class="edge">
<title>Node11&#45;&gt;Node15</title>
<g id="a_edge14_Node000011_Node000015"><a xlink:title=" ">
<path fill="none" stroke="#63b8ff" d="M1319.13,-133.37C1377.49,-122.04 1465.14,-105.02 1519.4,-94.48"/>
<polygon fill="#63b8ff" stroke="#63b8ff" points="1318.51,-129.93 1309.36,-135.27 1319.84,-136.8 1318.51,-129.93"/>
</a>
</g>
</g>
<!-- Node11&#45;&gt;Node16 -->
<g id="edge15_Node000011_Node000016" class="edge">
<title>Node11&#45;&gt;Node16</title>
<g id="a_edge15_Node000011_Node000016"><a xlink:title=" ">
<path fill="none" stroke="#63b8ff" d="M1220.18,-132.12C1192.07,-122.85 1154.01,-110.31 1124.24,-100.49"/>
<polygon fill="#63b8ff" stroke="#63b8ff" points="1218.78,-135.34 1229.38,-135.15 1220.97,-128.7 1218.78,-135.34"/>
</a>
</g>
</g>
<!-- Node18 -->
<g id="Node000018" class="node">
<title>Node18</title>
<g id="a_Node000018"><a xlink:href="_attribute_box_tests_8cpp.html" target="_top" xlink:title=" ">
<polygon fill="white" stroke="#666666" points="1562.12,-32 1428.38,-32 1428.38,0 1562.12,0 1562.12,-32"/>
<text xml:space="preserve" text-anchor="start" x="1436.38" y="-18.5" font-family="Helvetica,sans-Serif" font-size="10.00">Tests/Support/AttributeBox</text>
<text xml:space="preserve" text-anchor="middle" x="1495.25" y="-6.5" font-family="Helvetica,sans-Serif" font-size="10.00">Tests.cpp</text>
</a>
</g>
</g>
<!-- Node11&#45;&gt;Node18 -->
<g id="edge19_Node000011_Node000018" class="edge">
<title>Node11&#45;&gt;Node18</title>
<g id="a_edge19_Node000011_Node000018"><a xlink:title=" ">
<path fill="none" stroke="#63b8ff" d="M1341.7,-135.75C1457.02,-122.8 1652.6,-100.72 1653.25,-100 1685.64,-63.7 1618.87,-40.71 1562.39,-28.35"/>
<polygon fill="#63b8ff" stroke="#63b8ff" points="1341.5,-132.25 1331.96,-136.85 1342.29,-139.21 1341.5,-132.25"/>
</a>
</g>
</g>
<!-- Node16&#45;&gt;Node12 -->
<g id="edge16_Node000016_Node000012" class="edge">
<title>Node16&#45;&gt;Node12</title>
<g id="a_edge16_Node000016_Node000012"><a xlink:title=" ">
<path fill="none" stroke="#63b8ff" d="M1108.38,-61.37C1125.47,-49.5 1145.79,-35.39 1158.84,-26.32"/>
<polygon fill="#63b8ff" stroke="#63b8ff" points="1106.74,-58.25 1100.53,-66.83 1110.74,-64 1106.74,-58.25"/>
</a>
</g>
</g>
<!-- Node17 -->
<g id="Node000017" class="node">
<title>Node17</title>
<g id="a_Node000017"><a xlink:href="_attribute_box_plus_8cpp.html" target="_top" xlink:title=" ">
<polygon fill="white" stroke="#666666" points="1093.12,-32 959.38,-32 959.38,0 1093.12,0 1093.12,-32"/>
<text xml:space="preserve" text-anchor="start" x="967.38" y="-18.5" font-family="Helvetica,sans-Serif" font-size="10.00">Tests/Support/AttributeBox</text>
<text xml:space="preserve" text-anchor="middle" x="1026.25" y="-6.5" font-family="Helvetica,sans-Serif" font-size="10.00">Plus.cpp</text>
</a>
</g>
</g>
<!-- Node16&#45;&gt;Node17 -->
<g id="edge17_Node000016_Node000017" class="edge">
<title>Node16&#45;&gt;Node17</title>
<g id="a_edge17_Node000016_Node000017"><a xlink:title=" ">
<path fill="none" stroke="#63b8ff" d="M1058.39,-58.59C1051.56,-49.75 1044.05,-40.04 1038.01,-32.22"/>
<polygon fill="#63b8ff" stroke="#63b8ff" points="1055.61,-60.72 1064.5,-66.49 1061.15,-56.44 1055.61,-60.72"/>
</a>
</g>
</g>
<!-- Node16&#45;&gt;Node18 -->
<g id="edge18_Node000016_Node000018" class="edge">
<title>Node16&#45;&gt;Node18</title>
<g id="a_edge18_Node000016_Node000018"><a xlink:title=" ">
<path fill="none" stroke="#63b8ff" d="M1155.68,-70.62C1234.15,-58.23 1353.6,-39.37 1427.91,-27.63"/>
<polygon fill="#63b8ff" stroke="#63b8ff" points="1155.24,-67.14 1145.9,-72.16 1156.33,-74.06 1155.24,-67.14"/>
</a>
</g>
</g>
<!-- Node20&#45;&gt;Node4 -->
<g id="edge23_Node000020_Node000004" class="edge">
<title>Node20&#45;&gt;Node4</title>
<g id="a_edge23_Node000020_Node000004"><a xlink:title=" ">
<path fill="none" stroke="#63b8ff" d="M340.42,-131.38C312.29,-120.05 273.02,-104.23 248.37,-94.31"/>
<polygon fill="#63b8ff" stroke="#63b8ff" points="338.98,-134.57 349.56,-135.06 341.6,-128.08 338.98,-134.57"/>
</a>
</g>
</g>
<!-- Node20&#45;&gt;Node10 -->
<g id="edge24_Node000020_Node000010" class="edge">
<title>Node20&#45;&gt;Node10</title>
<g id="a_edge24_Node000020_Node000010"><a xlink:title=" ">
<path fill="none" stroke="#63b8ff" d="M409.53,-131.69C439.49,-120.38 481.76,-104.43 508.32,-94.41"/>
<polygon fill="#63b8ff" stroke="#63b8ff" points="408.63,-128.29 400.51,-135.09 411.1,-134.83 408.63,-128.29"/>
</a>
</g>
</g>
<!-- Node21 -->
<g id="Node000021" class="node">
<title>Node21</title>
<g id="a_Node000021"><a xlink:href="_foo_manager_8cpp.html" target="_top" xlink:title=" ">
<polygon fill="white" stroke="#666666" points="450.5,-94 298,-94 298,-74 450.5,-74 450.5,-94"/>
<text xml:space="preserve" text-anchor="middle" x="374.25" y="-80.5" font-family="Helvetica,sans-Serif" font-size="10.00">Tests/Support/FooManager.cpp</text>
</a>
</g>
</g>
<!-- Node20&#45;&gt;Node21 -->
<g id="edge25_Node000020_Node000021" class="edge">
<title>Node20&#45;&gt;Node21</title>
<g id="a_edge25_Node000020_Node000021"><a xlink:title=" ">
<path fill="none" stroke="#63b8ff" d="M374.25,-124.25C374.25,-113.97 374.25,-102.09 374.25,-94.11"/>
<polygon fill="#63b8ff" stroke="#63b8ff" points="370.75,-124.11 374.25,-134.11 377.75,-124.11 370.75,-124.11"/>
</a>
</g>
</g>
</g>
</svg>
