<?xml version="1.0" encoding="UTF-8" standalone="no"?>
<!DOCTYPE svg PUBLIC "-//W3C//DTD SVG 1.1//EN"
 "http://www.w3.org/Graphics/SVG/1.1/DTD/svg11.dtd">
<!-- Generated by graphviz version 13.1.0 (20250701.0955)
 -->
<!-- Title: FIEAGameEngine/src/GameObject.cpp Pages: 1 -->
<svg width="1096pt" height="544pt"
 viewBox="0.00 0.00 1096.00 544.00" xmlns="http://www.w3.org/2000/svg" xmlns:xlink="http://www.w3.org/1999/xlink">
<g id="graph0" class="graph" transform="scale(1 1) rotate(0) translate(4 540)">
<title>FIEAGameEngine/src/GameObject.cpp</title>
<!-- Node1 -->
<g id="Node000001" class="node">
<title>Node1</title>
<g id="a_Node000001"><a xlink:title=" ">
<polygon fill="#999999" stroke="#666666" points="869.62,-536 758.38,-536 758.38,-504 869.62,-504 869.62,-536"/>
<text xml:space="preserve" text-anchor="start" x="766.38" y="-522.5" font-family="Helvetica,sans-Serif" font-size="10.00">FIEAGameEngine/src</text>
<text xml:space="preserve" text-anchor="middle" x="814" y="-510.5" font-family="Helvetica,sans-Serif" font-size="10.00">/GameObject.cpp</text>
</a>
</g>
</g>
<!-- Node2 -->
<g id="Node000002" class="node">
<title>Node2</title>
<g id="a_Node000002"><a xlink:href="_game_object_8h.html" target="_top" xlink:title=" ">
<polygon fill="white" stroke="#666666" points="695.38,-468 534.62,-468 534.62,-448 695.38,-448 695.38,-468"/>
<text xml:space="preserve" text-anchor="middle" x="615" y="-454.5" font-family="Helvetica,sans-Serif" font-size="10.00">FIEAGameEngine/GameObject.h</text>
</a>
</g>
</g>
<!-- Node1&#45;&gt;Node2 -->
<g id="edge1_Node000001_Node000002" class="edge">
<title>Node1&#45;&gt;Node2</title>
<g id="a_edge1_Node000001_Node000002"><a xlink:title=" ">
<path fill="none" stroke="#63b8ff" d="M762.75,-503.55C730.03,-493.68 688.13,-481.05 657.31,-471.76"/>
<polygon fill="#63b8ff" stroke="#63b8ff" points="658.53,-468.47 647.95,-468.93 656.51,-475.17 658.53,-468.47"/>
</a>
</g>
</g>
<!-- Node7 -->
<g id="Node000007" class="node">
<title>Node7</title>
<g id="a_Node000007"><a xlink:title=" ">
<polygon fill="#e0e0e0" stroke="#999999" points="1088.12,-20 1039.88,-20 1039.88,0 1088.12,0 1088.12,-20"/>
<text xml:space="preserve" text-anchor="middle" x="1064" y="-6.5" font-family="Helvetica,sans-Serif" font-size="10.00">cstddef</text>
</a>
</g>
</g>
<!-- Node1&#45;&gt;Node7 -->
<g id="edge51_Node000001_Node000007" class="edge">
<title>Node1&#45;&gt;Node7</title>
<g id="a_edge51_Node000001_Node000007"><a xlink:title=" ">
<path fill="none" stroke="#63b8ff" d="M870.08,-517.59C945.7,-512.36 1071,-490.5 1071,-403 1071,-403 1071,-403 1071,-121 1071,-89.81 1068.16,-53.74 1066.1,-31.65"/>
<polygon fill="#63b8ff" stroke="#63b8ff" points="1069.6,-31.52 1065.15,-21.91 1062.64,-32.2 1069.6,-31.52"/>
</a>
</g>
</g>
<!-- Node3 -->
<g id="Node000003" class="node">
<title>Node3</title>
<g id="a_Node000003"><a xlink:href="_types_8h.html" target="_top" xlink:title=" ">
<polygon fill="white" stroke="#666666" points="730.12,-76 597.88,-76 597.88,-56 730.12,-56 730.12,-76"/>
<text xml:space="preserve" text-anchor="middle" x="664" y="-62.5" font-family="Helvetica,sans-Serif" font-size="10.00">FIEAGameEngine/Types.h</text>
</a>
</g>
</g>
<!-- Node2&#45;&gt;Node3 -->
<g id="edge2_Node000002_Node000003" class="edge">
<title>Node2&#45;&gt;Node3</title>
<g id="a_edge2_Node000002_Node000003"><a xlink:title=" ">
<path fill="none" stroke="#63b8ff" d="M534.28,-450.86C367.43,-437.09 0,-400.66 0,-347 0,-347 0,-347 0,-177 0,-143.08 10.96,-129.52 40,-112 91.49,-80.94 520.09,-81.2 580,-76 582.05,-75.82 584.12,-75.64 586.22,-75.45"/>
<polygon fill="#63b8ff" stroke="#63b8ff" points="586.41,-78.94 596.03,-74.51 585.75,-71.97 586.41,-78.94"/>
</a>
</g>
</g>
<!-- Node12 -->
<g id="Node000012" class="node">
<title>Node12</title>
<g id="a_Node000012"><a xlink:href="_attributed_8h.html" target="_top" xlink:title=" ">
<polygon fill="white" stroke="#666666" points="575.88,-300 472.12,-300 472.12,-280 575.88,-280 575.88,-300"/>
<text xml:space="preserve" text-anchor="middle" x="524" y="-286.5" font-family="Helvetica,sans-Serif" font-size="10.00">Content/Attributed.h</text>
</a>
</g>
</g>
<!-- Node2&#45;&gt;Node12 -->
<g id="edge11_Node000002_Node000012" class="edge">
<title>Node2&#45;&gt;Node12</title>
<g id="a_edge11_Node000002_Node000012"><a xlink:title=" ">
<path fill="none" stroke="#63b8ff" d="M609.85,-447.6C595.33,-421.12 553.9,-345.54 534.39,-309.96"/>
<polygon fill="#63b8ff" stroke="#63b8ff" points="537.7,-308.71 529.82,-301.62 531.56,-312.08 537.7,-308.71"/>
</a>
</g>
</g>
<!-- Node14 -->
<g id="Node000014" class="node">
<title>Node14</title>
<g id="a_Node000014"><a xlink:title=" ">
<polygon fill="#e0e0e0" stroke="#999999" points="135.62,-132 66.38,-132 66.38,-112 135.62,-112 135.62,-132"/>
<text xml:space="preserve" text-anchor="middle" x="101" y="-118.5" font-family="Helvetica,sans-Serif" font-size="10.00">glm/glm.hpp</text>
</a>
</g>
</g>
<!-- Node2&#45;&gt;Node14 -->
<g id="edge50_Node000002_Node000014" class="edge">
<title>Node2&#45;&gt;Node14</title>
<g id="a_edge50_Node000002_Node000014"><a xlink:title=" ">
<path fill="none" stroke="#63b8ff" d="M534.15,-453.15C407.6,-444.88 177,-419.82 177,-347 177,-347 177,-347 177,-233 177,-194.24 144.66,-159.24 122.17,-139.59"/>
<polygon fill="#63b8ff" stroke="#63b8ff" points="124.63,-137.08 114.71,-133.34 120.13,-142.44 124.63,-137.08"/>
</a>
</g>
</g>
<!-- Node20 -->
<g id="Node000020" class="node">
<title>Node20</title>
<g id="a_Node000020"><a xlink:href="_factory_service_8h.html" target="_top" xlink:title=" ">
<polygon fill="white" stroke="#666666" points="873,-188 701,-188 701,-168 873,-168 873,-188"/>
<text xml:space="preserve" text-anchor="middle" x="787" y="-174.5" font-family="Helvetica,sans-Serif" font-size="10.00">FIEAGameEngine/FactoryService.h</text>
</a>
</g>
</g>
<!-- Node2&#45;&gt;Node20 -->
<g id="edge39_Node000002_Node000020" class="edge">
<title>Node2&#45;&gt;Node20</title>
<g id="a_edge39_Node000002_Node000020"><a xlink:title=" ">
<path fill="none" stroke="#63b8ff" d="M695.59,-450.02C807.13,-438.08 995,-408.81 995,-347 995,-347 995,-347 995,-289 995,-231.55 932.24,-204.03 875.66,-190.89"/>
<polygon fill="#63b8ff" stroke="#63b8ff" points="876.45,-187.47 865.93,-188.77 874.96,-194.31 876.45,-187.47"/>
</a>
</g>
</g>
<!-- Node26 -->
<g id="Node000026" class="node">
<title>Node26</title>
<g id="a_Node000026"><a xlink:href="_action_8h.html" target="_top" xlink:title=" ">
<polygon fill="white" stroke="#666666" points="731.88,-356 598.12,-356 598.12,-336 731.88,-336 731.88,-356"/>
<text xml:space="preserve" text-anchor="middle" x="665" y="-342.5" font-family="Helvetica,sans-Serif" font-size="10.00">FIEAGameEngine/Action.h</text>
</a>
</g>
</g>
<!-- Node2&#45;&gt;Node26 -->
<g id="edge40_Node000002_Node000026" class="edge">
<title>Node2&#45;&gt;Node26</title>
<g id="a_edge40_Node000002_Node000026"><a xlink:title=" ">
<path fill="none" stroke="#63b8ff" d="M616.71,-447.84C619.34,-434.94 625.01,-410.9 634,-392 638.41,-382.72 644.64,-373.24 650.35,-365.39"/>
<polygon fill="#63b8ff" stroke="#63b8ff" points="652.96,-367.74 656.23,-357.66 647.39,-363.5 652.96,-367.74"/>
</a>
</g>
</g>
<!-- Node27 -->
<g id="Node000027" class="node">
<title>Node27</title>
<g id="a_Node000027"><a xlink:href="_action_list_8h.html" target="_top" xlink:title=" ">
<polygon fill="white" stroke="#666666" points="792.75,-412 643.25,-412 643.25,-392 792.75,-392 792.75,-412"/>
<text xml:space="preserve" text-anchor="middle" x="718" y="-398.5" font-family="Helvetica,sans-Serif" font-size="10.00">FIEAGameEngine/ActionList.h</text>
</a>
</g>
</g>
<!-- Node2&#45;&gt;Node27 -->
<g id="edge45_Node000002_Node000027" class="edge">
<title>Node2&#45;&gt;Node27</title>
<g id="a_edge45_Node000002_Node000027"><a xlink:title=" ">
<path fill="none" stroke="#63b8ff" d="M632.94,-447.59C648.65,-439.36 671.73,-427.26 689.89,-417.74"/>
<polygon fill="#63b8ff" stroke="#63b8ff" points="691.35,-420.93 698.58,-413.18 688.1,-414.73 691.35,-420.93"/>
</a>
</g>
</g>
<!-- Node4 -->
<g id="Node000004" class="node">
<title>Node4</title>
<g id="a_Node000004"><a xlink:title=" ">
<polygon fill="#e0e0e0" stroke="#999999" points="869,-20 709,-20 709,0 869,0 869,-20"/>
<text xml:space="preserve" text-anchor="middle" x="789" y="-6.5" font-family="Helvetica,sans-Serif" font-size="10.00">../src/Memory/SystemAllocator.h</text>
</a>
</g>
</g>
<!-- Node3&#45;&gt;Node4 -->
<g id="edge3_Node000003_Node000004" class="edge">
<title>Node3&#45;&gt;Node4</title>
<g id="a_edge3_Node000003_Node000004"><a xlink:title=" ">
<path fill="none" stroke="#63b8ff" d="M685.77,-55.59C705.37,-47.13 734.43,-34.58 756.72,-24.94"/>
<polygon fill="#63b8ff" stroke="#63b8ff" points="757.88,-28.26 765.67,-21.08 755.1,-21.83 757.88,-28.26"/>
</a>
</g>
</g>
<!-- Node5 -->
<g id="Node000005" class="node">
<title>Node5</title>
<g id="a_Node000005"><a xlink:title=" ">
<polygon fill="#e0e0e0" stroke="#999999" points="949.25,-20 886.75,-20 886.75,0 949.25,0 949.25,-20"/>
<text xml:space="preserve" text-anchor="middle" x="918" y="-6.5" font-family="Helvetica,sans-Serif" font-size="10.00">windows.h</text>
</a>
</g>
</g>
<!-- Node3&#45;&gt;Node5 -->
<g id="edge4_Node000003_Node000005" class="edge">
<title>Node3&#45;&gt;Node5</title>
<g id="a_edge4_Node000003_Node000005"><a xlink:title=" ">
<path fill="none" stroke="#63b8ff" d="M709.96,-55.53C750.95,-47.04 812.89,-34.11 875.67,-20.49"/>
<polygon fill="#63b8ff" stroke="#63b8ff" points="876.06,-23.98 885.09,-18.44 874.57,-17.14 876.06,-23.98"/>
</a>
</g>
</g>
<!-- Node6 -->
<g id="Node000006" class="node">
<title>Node6</title>
<g id="a_Node000006"><a xlink:title=" ">
<polygon fill="#e0e0e0" stroke="#999999" points="1015.12,-20 966.88,-20 966.88,0 1015.12,0 1015.12,-20"/>
<text xml:space="preserve" text-anchor="middle" x="991" y="-6.5" font-family="Helvetica,sans-Serif" font-size="10.00">cassert</text>
</a>
</g>
</g>
<!-- Node3&#45;&gt;Node6 -->
<g id="edge5_Node000003_Node000006" class="edge">
<title>Node3&#45;&gt;Node6</title>
<g id="a_edge5_Node000003_Node000006"><a xlink:title=" ">
<path fill="none" stroke="#63b8ff" d="M730.36,-57.05C787.64,-49.68 872.76,-37.55 955.45,-20.35"/>
<polygon fill="#63b8ff" stroke="#63b8ff" points="956.03,-23.8 965.09,-18.31 954.58,-16.95 956.03,-23.8"/>
</a>
</g>
</g>
<!-- Node3&#45;&gt;Node7 -->
<g id="edge6_Node000003_Node000007" class="edge">
<title>Node3&#45;&gt;Node7</title>
<g id="a_edge6_Node000003_Node000007"><a xlink:title=" ">
<path fill="none" stroke="#63b8ff" d="M730.31,-58.66C802.75,-51.28 922.09,-37.79 1024,-20 1025.42,-19.75 1026.87,-19.49 1028.32,-19.21"/>
<polygon fill="#63b8ff" stroke="#63b8ff" points="1028.97,-22.65 1038.05,-17.2 1027.55,-15.79 1028.97,-22.65"/>
</a>
</g>
</g>
<!-- Node8 -->
<g id="Node000008" class="node">
<title>Node8</title>
<g id="a_Node000008"><a xlink:title=" ">
<polygon fill="#e0e0e0" stroke="#999999" points="490.62,-20 445.38,-20 445.38,0 490.62,0 490.62,-20"/>
<text xml:space="preserve" text-anchor="middle" x="468" y="-6.5" font-family="Helvetica,sans-Serif" font-size="10.00">cstdint</text>
</a>
</g>
</g>
<!-- Node3&#45;&gt;Node8 -->
<g id="edge7_Node000003_Node000008" class="edge">
<title>Node3&#45;&gt;Node8</title>
<g id="a_edge7_Node000003_Node000008"><a xlink:title=" ">
<path fill="none" stroke="#63b8ff" d="M629.43,-55.58C598.5,-47.14 551.63,-34.31 502.02,-20.55"/>
<polygon fill="#63b8ff" stroke="#63b8ff" points="503.1,-17.22 492.53,-17.91 501.22,-23.96 503.1,-17.22"/>
</a>
</g>
</g>
<!-- Node9 -->
<g id="Node000009" class="node">
<title>Node9</title>
<g id="a_Node000009"><a xlink:title=" ">
<polygon fill="#e0e0e0" stroke="#999999" points="561.38,-20 508.62,-20 508.62,0 561.38,0 561.38,-20"/>
<text xml:space="preserve" text-anchor="middle" x="535" y="-6.5" font-family="Helvetica,sans-Serif" font-size="10.00">cstdbool</text>
</a>
</g>
</g>
<!-- Node3&#45;&gt;Node9 -->
<g id="edge8_Node000003_Node000009" class="edge">
<title>Node3&#45;&gt;Node9</title>
<g id="a_edge8_Node000003_Node000009"><a xlink:title=" ">
<path fill="none" stroke="#63b8ff" d="M641.53,-55.59C621.21,-47.09 591.05,-34.46 567.99,-24.81"/>
<polygon fill="#63b8ff" stroke="#63b8ff" points="569.62,-21.7 559.04,-21.06 566.91,-28.15 569.62,-21.7"/>
</a>
</g>
</g>
<!-- Node10 -->
<g id="Node000010" class="node">
<title>Node10</title>
<g id="a_Node000010"><a xlink:title=" ">
<polygon fill="#e0e0e0" stroke="#999999" points="619,-20 579,-20 579,0 619,0 619,-20"/>
<text xml:space="preserve" text-anchor="middle" x="599" y="-6.5" font-family="Helvetica,sans-Serif" font-size="10.00">string</text>
</a>
</g>
</g>
<!-- Node3&#45;&gt;Node10 -->
<g id="edge9_Node000003_Node000010" class="edge">
<title>Node3&#45;&gt;Node10</title>
<g id="a_edge9_Node000003_Node000010"><a xlink:title=" ">
<path fill="none" stroke="#63b8ff" d="M652.68,-55.59C643.36,-47.85 629.92,-36.69 618.82,-27.47"/>
<polygon fill="#63b8ff" stroke="#63b8ff" points="621.29,-24.96 611.36,-21.27 616.81,-30.35 621.29,-24.96"/>
</a>
</g>
</g>
<!-- Node11 -->
<g id="Node000011" class="node">
<title>Node11</title>
<g id="a_Node000011"><a xlink:title=" ">
<polygon fill="#e0e0e0" stroke="#999999" points="691.12,-20 636.88,-20 636.88,0 691.12,0 691.12,-20"/>
<text xml:space="preserve" text-anchor="middle" x="664" y="-6.5" font-family="Helvetica,sans-Serif" font-size="10.00">crtdefs.h</text>
</a>
</g>
</g>
<!-- Node3&#45;&gt;Node11 -->
<g id="edge10_Node000003_Node000011" class="edge">
<title>Node3&#45;&gt;Node11</title>
<g id="a_edge10_Node000003_Node000011"><a xlink:title=" ">
<path fill="none" stroke="#63b8ff" d="M664,-55.59C664,-49.01 664,-39.96 664,-31.73"/>
<polygon fill="#63b8ff" stroke="#63b8ff" points="667.5,-31.81 664,-21.81 660.5,-31.81 667.5,-31.81"/>
</a>
</g>
</g>
<!-- Node12&#45;&gt;Node3 -->
<g id="edge12_Node000012_Node000003" class="edge">
<title>Node12&#45;&gt;Node3</title>
<g id="a_edge12_Node000012_Node000003"><a xlink:title=" ">
<path fill="none" stroke="#63b8ff" d="M471.63,-286.77C325.66,-278.86 -67.1,-244.94 57,-112 96.75,-69.42 521.98,-81.1 580,-76 582.05,-75.82 584.12,-75.63 586.22,-75.44"/>
<polygon fill="#63b8ff" stroke="#63b8ff" points="586.41,-78.94 596.03,-74.5 585.74,-71.97 586.41,-78.94"/>
</a>
</g>
</g>
<!-- Node13 -->
<g id="Node000013" class="node">
<title>Node13</title>
<g id="a_Node000013"><a xlink:href="_datum_8h.html" target="_top" xlink:title=" ">
<polygon fill="white" stroke="#666666" points="371.5,-188 280.5,-188 280.5,-168 371.5,-168 371.5,-188"/>
<text xml:space="preserve" text-anchor="middle" x="326" y="-174.5" font-family="Helvetica,sans-Serif" font-size="10.00">Content/Datum.h</text>
</a>
</g>
</g>
<!-- Node12&#45;&gt;Node13 -->
<g id="edge13_Node000012_Node000013" class="edge">
<title>Node12&#45;&gt;Node13</title>
<g id="a_edge13_Node000012_Node000013"><a xlink:title=" ">
<path fill="none" stroke="#63b8ff" d="M486.25,-279.5C460.54,-272.08 426.36,-260.27 399,-244 377.02,-230.93 355.62,-210.72 341.73,-196.3"/>
<polygon fill="#63b8ff" stroke="#63b8ff" points="344.55,-194.2 335.15,-189.3 339.45,-198.99 344.55,-194.2"/>
</a>
</g>
</g>
<!-- Node17 -->
<g id="Node000017" class="node">
<title>Node17</title>
<g id="a_Node000017"><a xlink:href="_scope_8h.html" target="_top" xlink:title=" ">
<polygon fill="white" stroke="#666666" points="568.75,-244 479.25,-244 479.25,-224 568.75,-224 568.75,-244"/>
<text xml:space="preserve" text-anchor="middle" x="524" y="-230.5" font-family="Helvetica,sans-Serif" font-size="10.00">Content/Scope.h</text>
</a>
</g>
</g>
<!-- Node12&#45;&gt;Node17 -->
<g id="edge19_Node000012_Node000017" class="edge">
<title>Node12&#45;&gt;Node17</title>
<g id="a_edge19_Node000012_Node000017"><a xlink:title=" ">
<path fill="none" stroke="#63b8ff" d="M524,-279.59C524,-273.01 524,-263.96 524,-255.73"/>
<polygon fill="#63b8ff" stroke="#63b8ff" points="527.5,-255.81 524,-245.81 520.5,-255.81 527.5,-255.81"/>
</a>
</g>
</g>
<!-- Node18 -->
<g id="Node000018" class="node">
<title>Node18</title>
<g id="a_Node000018"><a xlink:href="_r_t_t_i_8h.html" target="_top" xlink:title=" ">
<polygon fill="white" stroke="#666666" points="568.88,-132 441.12,-132 441.12,-112 568.88,-112 568.88,-132"/>
<text xml:space="preserve" text-anchor="middle" x="505" y="-118.5" font-family="Helvetica,sans-Serif" font-size="10.00">FIEAGameEngine/RTTI.h</text>
</a>
</g>
</g>
<!-- Node12&#45;&gt;Node18 -->
<g id="edge36_Node000012_Node000018" class="edge">
<title>Node12&#45;&gt;Node18</title>
<g id="a_edge36_Node000012_Node000018"><a xlink:title=" ">
<path fill="none" stroke="#63b8ff" d="M505.4,-279.53C491.39,-271.62 472.52,-259.2 460,-244 442.67,-222.96 440.68,-214.66 435,-188 433.15,-179.31 430.74,-175.8 435,-168 442.32,-154.59 455.53,-144.58 468.53,-137.45"/>
<polygon fill="#63b8ff" stroke="#63b8ff" points="470.04,-140.61 477.43,-133.02 466.91,-134.35 470.04,-140.61"/>
</a>
</g>
</g>
<!-- Node24 -->
<g id="Node000024" class="node">
<title>Node24</title>
<g id="a_Node000024"><a xlink:title=" ">
<polygon fill="#e0e0e0" stroke="#999999" points="487.5,-188 444.5,-188 444.5,-168 487.5,-168 487.5,-188"/>
<text xml:space="preserve" text-anchor="middle" x="466" y="-174.5" font-family="Helvetica,sans-Serif" font-size="10.00">vector</text>
</a>
</g>
</g>
<!-- Node12&#45;&gt;Node24 -->
<g id="edge37_Node000012_Node000024" class="edge">
<title>Node12&#45;&gt;Node24</title>
<g id="a_edge37_Node000012_Node000024"><a xlink:title=" ">
<path fill="none" stroke="#63b8ff" d="M506.33,-279.54C493.81,-271.79 477.88,-259.57 470,-244 463.11,-230.39 462.37,-213.08 463.21,-199.74"/>
<polygon fill="#63b8ff" stroke="#63b8ff" points="466.68,-200.23 464.2,-189.93 459.72,-199.53 466.68,-200.23"/>
</a>
</g>
</g>
<!-- Node25 -->
<g id="Node000025" class="node">
<title>Node25</title>
<g id="a_Node000025"><a xlink:title=" ">
<polygon fill="#e0e0e0" stroke="#999999" points="645,-244 587,-244 587,-224 645,-224 645,-244"/>
<text xml:space="preserve" text-anchor="middle" x="616" y="-230.5" font-family="Helvetica,sans-Serif" font-size="10.00">functional</text>
</a>
</g>
</g>
<!-- Node12&#45;&gt;Node25 -->
<g id="edge38_Node000012_Node000025" class="edge">
<title>Node12&#45;&gt;Node25</title>
<g id="a_edge38_Node000012_Node000025"><a xlink:title=" ">
<path fill="none" stroke="#63b8ff" d="M540.03,-279.59C553.79,-271.51 573.9,-259.71 589.98,-250.27"/>
<polygon fill="#63b8ff" stroke="#63b8ff" points="591.69,-253.33 598.54,-245.25 588.15,-247.29 591.69,-253.33"/>
</a>
</g>
</g>
<!-- Node13&#45;&gt;Node3 -->
<g id="edge14_Node000013_Node000003" class="edge">
<title>Node13&#45;&gt;Node3</title>
<g id="a_edge14_Node000013_Node000003"><a xlink:title=" ">
<path fill="none" stroke="#63b8ff" d="M339.69,-167.75C363.76,-151.64 412.89,-119.43 432,-112 460.41,-100.95 534,-87.57 590.76,-78.28"/>
<polygon fill="#63b8ff" stroke="#63b8ff" points="591.06,-81.78 600.37,-76.72 589.94,-74.87 591.06,-81.78"/>
</a>
</g>
</g>
<!-- Node13&#45;&gt;Node14 -->
<g id="edge15_Node000013_Node000014" class="edge">
<title>Node13&#45;&gt;Node14</title>
<g id="a_edge15_Node000013_Node000014"><a xlink:title=" ">
<path fill="none" stroke="#63b8ff" d="M286.55,-167.53C247.61,-158.19 188.1,-143.9 147.03,-134.05"/>
<polygon fill="#63b8ff" stroke="#63b8ff" points="147.98,-130.68 137.44,-131.74 146.34,-137.48 147.98,-130.68"/>
</a>
</g>
</g>
<!-- Node15 -->
<g id="Node000015" class="node">
<title>Node15</title>
<g id="a_Node000015"><a xlink:title=" ">
<polygon fill="#e0e0e0" stroke="#999999" points="385,-132 267,-132 267,-112 385,-112 385,-132"/>
<text xml:space="preserve" text-anchor="middle" x="326" y="-118.5" font-family="Helvetica,sans-Serif" font-size="10.00">glm/gtx/string_cast.hpp</text>
</a>
</g>
</g>
<!-- Node13&#45;&gt;Node15 -->
<g id="edge16_Node000013_Node000015" class="edge">
<title>Node13&#45;&gt;Node15</title>
<g id="a_edge16_Node000013_Node000015"><a xlink:title=" ">
<path fill="none" stroke="#63b8ff" d="M326,-167.59C326,-161.01 326,-151.96 326,-143.73"/>
<polygon fill="#63b8ff" stroke="#63b8ff" points="329.5,-143.81 326,-133.81 322.5,-143.81 329.5,-143.81"/>
</a>
</g>
</g>
<!-- Node16 -->
<g id="Node000016" class="node">
<title>Node16</title>
<g id="a_Node000016"><a xlink:href="_datum_8inl.html" target="_top" xlink:title=" ">
<polygon fill="white" stroke="#666666" points="248.75,-132 153.25,-132 153.25,-112 248.75,-112 248.75,-132"/>
<text xml:space="preserve" text-anchor="middle" x="201" y="-118.5" font-family="Helvetica,sans-Serif" font-size="10.00">Content/Datum.inl</text>
</a>
</g>
</g>
<!-- Node13&#45;&gt;Node16 -->
<g id="edge17_Node000013_Node000016" class="edge">
<title>Node13&#45;&gt;Node16</title>
<g id="a_edge17_Node000013_Node000016"><a xlink:title=" ">
<path fill="none" stroke="#63b8ff" d="M298.96,-167.59C277.86,-159.21 248.9,-146.8 227.86,-137.21"/>
<polygon fill="#63b8ff" stroke="#63b8ff" points="229.58,-134.15 219.03,-133.12 226.64,-140.5 229.58,-134.15"/>
</a>
</g>
</g>
<!-- Node16&#45;&gt;Node13 -->
<g id="edge18_Node000016_Node000013" class="edge">
<title>Node16&#45;&gt;Node13</title>
<g id="a_edge18_Node000016_Node000013"><a xlink:title=" ">
<path fill="none" stroke="#63b8ff" d="M228.22,-132.48C249.37,-140.89 278.33,-153.3 299.32,-162.88"/>
<polygon fill="#63b8ff" stroke="#63b8ff" points="297.58,-165.92 308.12,-166.96 300.52,-159.57 297.58,-165.92"/>
</a>
</g>
</g>
<!-- Node17&#45;&gt;Node3 -->
<g id="edge20_Node000017_Node000003" class="edge">
<title>Node17&#45;&gt;Node3</title>
<g id="a_edge20_Node000017_Node000003"><a xlink:title=" ">
<path fill="none" stroke="#63b8ff" d="M531.04,-223.67C546.67,-203.07 585.7,-152.31 621,-112 629.16,-102.69 638.62,-92.7 646.6,-84.5"/>
<polygon fill="#63b8ff" stroke="#63b8ff" points="648.95,-87.1 653.47,-77.51 643.96,-82.19 648.95,-87.1"/>
</a>
</g>
</g>
<!-- Node17&#45;&gt;Node13 -->
<g id="edge25_Node000017_Node000013" class="edge">
<title>Node17&#45;&gt;Node13</title>
<g id="a_edge25_Node000017_Node000013"><a xlink:title=" ">
<path fill="none" stroke="#63b8ff" d="M489.51,-223.59C456.78,-214.67 407.38,-201.19 371.44,-191.39"/>
<polygon fill="#63b8ff" stroke="#63b8ff" points="372.79,-188.13 362.22,-188.88 370.95,-194.89 372.79,-188.13"/>
</a>
</g>
</g>
<!-- Node17&#45;&gt;Node18 -->
<g id="edge21_Node000017_Node000018" class="edge">
<title>Node17&#45;&gt;Node18</title>
<g id="a_edge21_Node000017_Node000018"><a xlink:title=" ">
<path fill="none" stroke="#63b8ff" d="M522.38,-223.62C519.34,-206.01 512.7,-167.59 508.57,-143.65"/>
<polygon fill="#63b8ff" stroke="#63b8ff" points="512.02,-143.1 506.87,-133.85 505.13,-144.3 512.02,-143.1"/>
</a>
</g>
</g>
<!-- Node17&#45;&gt;Node20 -->
<g id="edge26_Node000017_Node000020" class="edge">
<title>Node17&#45;&gt;Node20</title>
<g id="a_edge26_Node000017_Node000020"><a xlink:title=" ">
<path fill="none" stroke="#63b8ff" d="M569.21,-223.72C613.67,-214.59 681.7,-200.62 729.87,-190.73"/>
<polygon fill="#63b8ff" stroke="#63b8ff" points="730.48,-194.18 739.57,-188.74 729.07,-187.32 730.48,-194.18"/>
</a>
</g>
</g>
<!-- Node22 -->
<g id="Node000022" class="node">
<title>Node22</title>
<g id="a_Node000022"><a xlink:title=" ">
<polygon fill="#e0e0e0" stroke="#999999" points="930.38,-76 847.62,-76 847.62,-56 930.38,-56 930.38,-76"/>
<text xml:space="preserve" text-anchor="middle" x="889" y="-62.5" font-family="Helvetica,sans-Serif" font-size="10.00">unordered_map</text>
</a>
</g>
</g>
<!-- Node17&#45;&gt;Node22 -->
<g id="edge35_Node000017_Node000022" class="edge">
<title>Node17&#45;&gt;Node22</title>
<g id="a_edge35_Node000017_Node000022"><a xlink:title=" ">
<path fill="none" stroke="#63b8ff" d="M537.34,-223.51C569.23,-201.21 652.94,-144.89 730,-112 764.19,-97.4 804.51,-86.06 835.99,-78.41"/>
<polygon fill="#63b8ff" stroke="#63b8ff" points="836.77,-81.82 845.69,-76.1 835.15,-75.01 836.77,-81.82"/>
</a>
</g>
</g>
<!-- Node17&#45;&gt;Node24 -->
<g id="edge34_Node000017_Node000024" class="edge">
<title>Node17&#45;&gt;Node24</title>
<g id="a_edge34_Node000017_Node000024"><a xlink:title=" ">
<path fill="none" stroke="#63b8ff" d="M513.9,-223.59C505.75,-216.01 494.07,-205.13 484.28,-196.02"/>
<polygon fill="#63b8ff" stroke="#63b8ff" points="486.8,-193.58 477.09,-189.33 482.03,-198.71 486.8,-193.58"/>
</a>
</g>
</g>
<!-- Node18&#45;&gt;Node3 -->
<g id="edge22_Node000018_Node000003" class="edge">
<title>Node18&#45;&gt;Node3</title>
<g id="a_edge22_Node000018_Node000003"><a xlink:title=" ">
<path fill="none" stroke="#63b8ff" d="M532.7,-111.59C558.3,-102.9 596.61,-89.89 625.25,-80.16"/>
<polygon fill="#63b8ff" stroke="#63b8ff" points="626.31,-83.5 634.66,-76.97 624.06,-76.87 626.31,-83.5"/>
</a>
</g>
</g>
<!-- Node19 -->
<g id="Node000019" class="node">
<title>Node19</title>
<g id="a_Node000019"><a xlink:href="_r_t_t_i_8inl.html" target="_top" xlink:title=" ">
<polygon fill="white" stroke="#666666" points="571.12,-76 438.88,-76 438.88,-56 571.12,-56 571.12,-76"/>
<text xml:space="preserve" text-anchor="middle" x="505" y="-62.5" font-family="Helvetica,sans-Serif" font-size="10.00">FIEAGameEngine/RTTI.inl</text>
</a>
</g>
</g>
<!-- Node18&#45;&gt;Node19 -->
<g id="edge23_Node000018_Node000019" class="edge">
<title>Node18&#45;&gt;Node19</title>
<g id="a_edge23_Node000018_Node000019"><a xlink:title=" ">
<path fill="none" stroke="#63b8ff" d="M499.73,-111.59C498.42,-105.01 497.98,-95.96 498.41,-87.73"/>
<polygon fill="#63b8ff" stroke="#63b8ff" points="501.89,-88.14 499.58,-77.8 494.94,-87.33 501.89,-88.14"/>
</a>
</g>
</g>
<!-- Node19&#45;&gt;Node18 -->
<g id="edge24_Node000019_Node000018" class="edge">
<title>Node19&#45;&gt;Node18</title>
<g id="a_edge24_Node000019_Node000018"><a xlink:title=" ">
<path fill="none" stroke="#63b8ff" d="M510.25,-76.3C511.59,-82.93 512.03,-92.11 511.58,-100.43"/>
<polygon fill="#63b8ff" stroke="#63b8ff" points="508.13,-99.75 510.44,-110.09 515.08,-100.57 508.13,-99.75"/>
</a>
</g>
</g>
<!-- Node20&#45;&gt;Node3 -->
<g id="edge27_Node000020_Node000003" class="edge">
<title>Node20&#45;&gt;Node3</title>
<g id="a_edge27_Node000020_Node000003"><a xlink:title=" ">
<path fill="none" stroke="#63b8ff" d="M774.45,-167.72C762.69,-158.88 744.75,-145.01 730,-132 712.39,-116.46 693.4,-97.5 680.33,-84.08"/>
<polygon fill="#63b8ff" stroke="#63b8ff" points="683.19,-82 673.72,-77.24 678.15,-86.86 683.19,-82"/>
</a>
</g>
</g>
<!-- Node20&#45;&gt;Node18 -->
<g id="edge28_Node000020_Node000018" class="edge">
<title>Node20&#45;&gt;Node18</title>
<g id="a_edge28_Node000020_Node000018"><a xlink:title=" ">
<path fill="none" stroke="#63b8ff" d="M737.56,-167.53C689.68,-158.36 617,-144.45 565.65,-134.61"/>
<polygon fill="#63b8ff" stroke="#63b8ff" points="566.35,-131.18 555.87,-132.74 565.04,-138.06 566.35,-131.18"/>
</a>
</g>
</g>
<!-- Node21 -->
<g id="Node000021" class="node">
<title>Node21</title>
<g id="a_Node000021"><a xlink:href="_service_mgr_8h.html" target="_top" xlink:title=" ">
<polygon fill="white" stroke="#666666" points="966.75,-132 811.25,-132 811.25,-112 966.75,-112 966.75,-132"/>
<text xml:space="preserve" text-anchor="middle" x="889" y="-118.5" font-family="Helvetica,sans-Serif" font-size="10.00">FIEAGameEngine/ServiceMgr.h</text>
</a>
</g>
</g>
<!-- Node20&#45;&gt;Node21 -->
<g id="edge29_Node000020_Node000021" class="edge">
<title>Node20&#45;&gt;Node21</title>
<g id="a_edge29_Node000020_Node000021"><a xlink:title=" ">
<path fill="none" stroke="#63b8ff" d="M804.77,-167.59C820.32,-159.36 843.18,-147.26 861.16,-137.74"/>
<polygon fill="#63b8ff" stroke="#63b8ff" points="862.56,-140.96 869.76,-133.19 859.28,-134.77 862.56,-140.96"/>
</a>
</g>
</g>
<!-- Node20&#45;&gt;Node22 -->
<g id="edge33_Node000020_Node000022" class="edge">
<title>Node20&#45;&gt;Node22</title>
<g id="a_edge33_Node000020_Node000022"><a xlink:title=" ">
<path fill="none" stroke="#63b8ff" d="M869.41,-167.53C913.88,-160.54 962.41,-149.2 976,-132 993.23,-110.19 961.77,-91.95 931.99,-80.39"/>
<polygon fill="#63b8ff" stroke="#63b8ff" points="933.2,-77.11 922.6,-76.97 930.79,-83.68 933.2,-77.11"/>
</a>
</g>
</g>
<!-- Node23 -->
<g id="Node000023" class="node">
<title>Node23</title>
<g id="a_Node000023"><a xlink:title=" ">
<polygon fill="#e0e0e0" stroke="#999999" points="792.75,-132 739.25,-132 739.25,-112 792.75,-112 792.75,-132"/>
<text xml:space="preserve" text-anchor="middle" x="766" y="-118.5" font-family="Helvetica,sans-Serif" font-size="10.00">iostream</text>
</a>
</g>
</g>
<!-- Node20&#45;&gt;Node23 -->
<g id="edge32_Node000020_Node000023" class="edge">
<title>Node20&#45;&gt;Node23</title>
<g id="a_edge32_Node000020_Node000023"><a xlink:title=" ">
<path fill="none" stroke="#63b8ff" d="M783.34,-167.59C780.69,-160.78 777.01,-151.32 773.72,-142.86"/>
<polygon fill="#63b8ff" stroke="#63b8ff" points="777.05,-141.76 770.16,-133.71 770.53,-144.3 777.05,-141.76"/>
</a>
</g>
</g>
<!-- Node21&#45;&gt;Node3 -->
<g id="edge30_Node000021_Node000003" class="edge">
<title>Node21&#45;&gt;Node3</title>
<g id="a_edge30_Node000021_Node000003"><a xlink:title=" ">
<path fill="none" stroke="#63b8ff" d="M849.55,-111.53C811.99,-102.52 755.3,-88.91 714.47,-79.11"/>
<polygon fill="#63b8ff" stroke="#63b8ff" points="715.42,-75.74 704.88,-76.81 713.78,-82.55 715.42,-75.74"/>
</a>
</g>
</g>
<!-- Node21&#45;&gt;Node22 -->
<g id="edge31_Node000021_Node000022" class="edge">
<title>Node21&#45;&gt;Node22</title>
<g id="a_edge31_Node000021_Node000022"><a xlink:title=" ">
<path fill="none" stroke="#63b8ff" d="M889,-111.59C889,-105.01 889,-95.96 889,-87.73"/>
<polygon fill="#63b8ff" stroke="#63b8ff" points="892.5,-87.81 889,-77.81 885.5,-87.81 892.5,-87.81"/>
</a>
</g>
</g>
<!-- Node26&#45;&gt;Node3 -->
<g id="edge41_Node000026_Node000003" class="edge">
<title>Node26&#45;&gt;Node3</title>
<g id="a_edge41_Node000026_Node000003"><a xlink:title=" ">
<path fill="none" stroke="#63b8ff" d="M666.15,-335.6C668.36,-316.62 673,-272.34 673,-235 673,-235 673,-235 673,-177 673,-145.77 669.35,-109.71 666.7,-87.63"/>
<polygon fill="#63b8ff" stroke="#63b8ff" points="670.2,-87.38 665.48,-77.9 663.25,-88.26 670.2,-87.38"/>
</a>
</g>
</g>
<!-- Node26&#45;&gt;Node12 -->
<g id="edge42_Node000026_Node000012" class="edge">
<title>Node26&#45;&gt;Node12</title>
<g id="a_edge42_Node000026_Node000012"><a xlink:title=" ">
<path fill="none" stroke="#63b8ff" d="M640.44,-335.59C618.03,-327.01 584.66,-314.23 559.38,-304.55"/>
<polygon fill="#63b8ff" stroke="#63b8ff" points="560.76,-301.33 550.17,-301.02 558.25,-307.87 560.76,-301.33"/>
</a>
</g>
</g>
<!-- Node26&#45;&gt;Node20 -->
<g id="edge43_Node000026_Node000020" class="edge">
<title>Node26&#45;&gt;Node20</title>
<g id="a_edge43_Node000026_Node000020"><a xlink:title=" ">
<path fill="none" stroke="#63b8ff" d="M671.91,-335.6C691.45,-309.01 747.4,-232.89 773.4,-197.5"/>
<polygon fill="#63b8ff" stroke="#63b8ff" points="776.17,-199.65 779.27,-189.52 770.53,-195.5 776.17,-199.65"/>
</a>
</g>
</g>
<!-- Node26&#45;&gt;Node25 -->
<g id="edge44_Node000026_Node000025" class="edge">
<title>Node26&#45;&gt;Node25</title>
<g id="a_edge44_Node000026_Node000025"><a xlink:title=" ">
<path fill="none" stroke="#63b8ff" d="M660.82,-335.62C652.87,-317.76 635.39,-278.53 624.76,-254.67"/>
<polygon fill="#63b8ff" stroke="#63b8ff" points="628.05,-253.45 620.78,-245.74 621.66,-256.3 628.05,-253.45"/>
</a>
</g>
</g>
<!-- Node27&#45;&gt;Node3 -->
<g id="edge46_Node000027_Node000003" class="edge">
<title>Node27&#45;&gt;Node3</title>
<g id="a_edge46_Node000027_Node000003"><a xlink:title=" ">
<path fill="none" stroke="#63b8ff" d="M738.65,-391.61C815.06,-355.68 1072.43,-223.34 976,-112 960.81,-94.46 828.86,-80.42 741.49,-72.93"/>
<polygon fill="#63b8ff" stroke="#63b8ff" points="742.04,-69.46 731.78,-72.11 741.45,-76.44 742.04,-69.46"/>
</a>
</g>
</g>
<!-- Node27&#45;&gt;Node12 -->
<g id="edge47_Node000027_Node000012" class="edge">
<title>Node27&#45;&gt;Node12</title>
<g id="a_edge47_Node000027_Node000012"><a xlink:title=" ">
<path fill="none" stroke="#63b8ff" d="M676.08,-391.51C649.75,-384.35 615.82,-372.83 589,-356 568.82,-343.33 550.07,-323.33 537.95,-308.86"/>
<polygon fill="#63b8ff" stroke="#63b8ff" points="540.96,-307.02 531.94,-301.46 535.52,-311.43 540.96,-307.02"/>
</a>
</g>
</g>
<!-- Node27&#45;&gt;Node20 -->
<g id="edge48_Node000027_Node000020" class="edge">
<title>Node27&#45;&gt;Node20</title>
<g id="a_edge48_Node000027_Node000020"><a xlink:title=" ">
<path fill="none" stroke="#63b8ff" d="M723.56,-391.62C728.66,-382.71 736.14,-368.79 741,-356 761.91,-301 776.65,-232.87 783.2,-199.45"/>
<polygon fill="#63b8ff" stroke="#63b8ff" points="786.58,-200.4 785.02,-189.92 779.71,-199.09 786.58,-200.4"/>
</a>
</g>
</g>
<!-- Node27&#45;&gt;Node26 -->
<g id="edge49_Node000027_Node000026" class="edge">
<title>Node27&#45;&gt;Node26</title>
<g id="a_edge49_Node000027_Node000026"><a xlink:title=" ">
<path fill="none" stroke="#63b8ff" d="M708.77,-391.59C701.4,-384.08 690.87,-373.35 681.98,-364.3"/>
<polygon fill="#63b8ff" stroke="#63b8ff" points="684.69,-362.06 675.19,-357.38 679.69,-366.97 684.69,-362.06"/>
</a>
</g>
</g>
</g>
</svg>
