<?xml version="1.0" encoding="UTF-8" standalone="no"?>
<!DOCTYPE svg PUBLIC "-//W3C//DTD SVG 1.1//EN"
 "http://www.w3.org/Graphics/SVG/1.1/DTD/svg11.dtd">
<!-- Generated by graphviz version 13.1.0 (20250701.0955)
 -->
<!-- Title: Tests/GameClock.h Pages: 1 -->
<svg width="248pt" height="84pt"
 viewBox="0.00 0.00 248.00 84.00" xmlns="http://www.w3.org/2000/svg" xmlns:xlink="http://www.w3.org/1999/xlink">
<g id="graph0" class="graph" transform="scale(1 1) rotate(0) translate(4 80)">
<title>Tests/GameClock.h</title>
<!-- Node1 -->
<g id="Node000001" class="node">
<title>Node1</title>
<g id="a_Node000001"><a xlink:title=" ">
<polygon fill="#999999" stroke="#666666" points="169.62,-76 66.62,-76 66.62,-56 169.62,-56 169.62,-76"/>
<text xml:space="preserve" text-anchor="middle" x="118.12" y="-62.5" font-family="Helvetica,sans-Serif" font-size="10.00">Tests/GameClock.h</text>
</a>
</g>
</g>
<!-- Node2 -->
<g id="Node000002" class="node">
<title>Node2</title>
<g id="a_Node000002"><a xlink:href="_async_test_8cpp.html" target="_top" xlink:title=" ">
<polygon fill="white" stroke="#666666" points="108.25,-20 0,-20 0,0 108.25,0 108.25,-20"/>
<text xml:space="preserve" text-anchor="middle" x="54.12" y="-6.5" font-family="Helvetica,sans-Serif" font-size="10.00">Tests/AsyncTest.cpp</text>
</a>
</g>
</g>
<!-- Node1&#45;&gt;Node2 -->
<g id="edge1_Node000001_Node000002" class="edge">
<title>Node1&#45;&gt;Node2</title>
<g id="a_edge1_Node000001_Node000002"><a xlink:title=" ">
<path fill="none" stroke="#63b8ff" d="M98.45,-48.4C87.51,-39.17 74.28,-28.01 65.15,-20.3"/>
<polygon fill="#63b8ff" stroke="#63b8ff" points="95.92,-50.84 105.82,-54.62 100.43,-45.49 95.92,-50.84"/>
</a>
</g>
</g>
<!-- Node3 -->
<g id="Node000003" class="node">
<title>Node3</title>
<g id="a_Node000003"><a xlink:href="_game_clock_8cpp.html" target="_top" xlink:title=" ">
<polygon fill="white" stroke="#666666" points="239.88,-20 126.38,-20 126.38,0 239.88,0 239.88,-20"/>
<text xml:space="preserve" text-anchor="middle" x="183.12" y="-6.5" font-family="Helvetica,sans-Serif" font-size="10.00">Tests/GameClock.cpp</text>
</a>
</g>
</g>
<!-- Node1&#45;&gt;Node3 -->
<g id="edge2_Node000001_Node000003" class="edge">
<title>Node1&#45;&gt;Node3</title>
<g id="a_edge2_Node000001_Node000003"><a xlink:title=" ">
<path fill="none" stroke="#63b8ff" d="M138.1,-48.4C149.22,-39.17 162.65,-28.01 171.93,-20.3"/>
<polygon fill="#63b8ff" stroke="#63b8ff" points="136.07,-45.54 130.61,-54.63 140.54,-50.93 136.07,-45.54"/>
</a>
</g>
</g>
</g>
</svg>
