<?xml version="1.0" encoding="UTF-8" standalone="no"?>
<!DOCTYPE svg PUBLIC "-//W3C//DTD SVG 1.1//EN"
 "http://www.w3.org/Graphics/SVG/1.1/DTD/svg11.dtd">
<!-- Generated by graphviz version 13.1.0 (20250701.0955)
 -->
<!-- Title: FIEAGameEngine/include/FIEAGameEngine/GameObject.h Pages: 1 -->
<svg width="2850pt" height="300pt"
 viewBox="0.00 0.00 2850.00 300.00" xmlns="http://www.w3.org/2000/svg" xmlns:xlink="http://www.w3.org/1999/xlink">
<g id="graph0" class="graph" transform="scale(1 1) rotate(0) translate(4 296)">
<title>FIEAGameEngine/include/FIEAGameEngine/GameObject.h</title>
<!-- Node1 -->
<g id="Node000001" class="node">
<title>Node1</title>
<g id="a_Node000001"><a xlink:title=" ">
<polygon fill="#999999" stroke="#666666" points="677.12,-292 513.38,-292 513.38,-260 677.12,-260 677.12,-292"/>
<text xml:space="preserve" text-anchor="start" x="521.38" y="-278.5" font-family="Helvetica,sans-Serif" font-size="10.00">FIEAGameEngine/include</text>
<text xml:space="preserve" text-anchor="middle" x="595.25" y="-266.5" font-family="Helvetica,sans-Serif" font-size="10.00">/FIEAGameEngine/GameObject.h</text>
</a>
</g>
</g>
<!-- Node2 -->
<g id="Node000002" class="node">
<title>Node2</title>
<g id="a_Node000002"><a xlink:href="_scope_writer_8cpp.html" target="_top" xlink:title=" ">
<polygon fill="white" stroke="#666666" points="479.5,-224 351,-224 351,-192 479.5,-192 479.5,-224"/>
<text xml:space="preserve" text-anchor="start" x="359" y="-210.5" font-family="Helvetica,sans-Serif" font-size="10.00">FIEAGameEngine/src</text>
<text xml:space="preserve" text-anchor="middle" x="415.25" y="-198.5" font-family="Helvetica,sans-Serif" font-size="10.00">/Content/ScopeWriter.cpp</text>
</a>
</g>
</g>
<!-- Node1&#45;&gt;Node2 -->
<g id="edge1_Node000001_Node000002" class="edge">
<title>Node1&#45;&gt;Node2</title>
<g id="a_edge1_Node000001_Node000002"><a xlink:title=" ">
<path fill="none" stroke="#63b8ff" d="M542.58,-255.69C515.49,-245.76 482.92,-233.81 457.5,-224.49"/>
<polygon fill="#63b8ff" stroke="#63b8ff" points="541.03,-258.85 551.63,-259 543.44,-252.28 541.03,-258.85"/>
</a>
</g>
</g>
<!-- Node3 -->
<g id="Node000003" class="node">
<title>Node3</title>
<g id="a_Node000003"><a xlink:href="_game_object_8cpp.html" target="_top" xlink:title=" ">
<polygon fill="white" stroke="#666666" points="608.88,-224 497.62,-224 497.62,-192 608.88,-192 608.88,-224"/>
<text xml:space="preserve" text-anchor="start" x="505.62" y="-210.5" font-family="Helvetica,sans-Serif" font-size="10.00">FIEAGameEngine/src</text>
<text xml:space="preserve" text-anchor="middle" x="553.25" y="-198.5" font-family="Helvetica,sans-Serif" font-size="10.00">/GameObject.cpp</text>
</a>
</g>
</g>
<!-- Node1&#45;&gt;Node3 -->
<g id="edge2_Node000001_Node000003" class="edge">
<title>Node1&#45;&gt;Node3</title>
<g id="a_edge2_Node000001_Node000003"><a xlink:title=" ">
<path fill="none" stroke="#63b8ff" d="M579.35,-250.02C573.83,-241.34 567.81,-231.88 562.94,-224.22"/>
<polygon fill="#63b8ff" stroke="#63b8ff" points="576.37,-251.86 584.7,-258.42 582.28,-248.1 576.37,-251.86"/>
</a>
</g>
</g>
<!-- Node4 -->
<g id="Node000004" class="node">
<title>Node4</title>
<g id="a_Node000004"><a xlink:href="_game_object_tests_8cpp.html" target="_top" xlink:title=" ">
<polygon fill="white" stroke="#666666" points="140.5,-156 0,-156 0,-136 140.5,-136 140.5,-156"/>
<text xml:space="preserve" text-anchor="middle" x="70.25" y="-142.5" font-family="Helvetica,sans-Serif" font-size="10.00">Tests/GameObjectTests.cpp</text>
</a>
</g>
</g>
<!-- Node1&#45;&gt;Node4 -->
<g id="edge3_Node000001_Node000004" class="edge">
<title>Node1&#45;&gt;Node4</title>
<g id="a_edge3_Node000001_Node000004"><a xlink:title=" ">
<path fill="none" stroke="#63b8ff" d="M613.28,-249.85C623.92,-231.68 632.75,-207.67 618.25,-192 583.13,-154.05 205.74,-160.75 154.25,-156 149.87,-155.6 145.36,-155.16 140.82,-154.71"/>
<polygon fill="#63b8ff" stroke="#63b8ff" points="610.36,-247.91 607.95,-258.23 616.27,-251.67 610.36,-247.91"/>
</a>
</g>
</g>
<!-- Node5 -->
<g id="Node000005" class="node">
<title>Node5</title>
<g id="a_Node000005"><a xlink:href="_tests_8h.html" target="_top" xlink:title=" ">
<polygon fill="white" stroke="#666666" points="1306.88,-218 1231.62,-218 1231.62,-198 1306.88,-198 1306.88,-218"/>
<text xml:space="preserve" text-anchor="middle" x="1269.25" y="-204.5" font-family="Helvetica,sans-Serif" font-size="10.00">Tests/Tests.h</text>
</a>
</g>
</g>
<!-- Node1&#45;&gt;Node5 -->
<g id="edge4_Node000001_Node000005" class="edge">
<title>Node1&#45;&gt;Node5</title>
<g id="a_edge4_Node000001_Node000005"><a xlink:title=" ">
<path fill="none" stroke="#63b8ff" d="M688.57,-265.86C838.75,-251.16 1127.7,-222.86 1231.2,-212.73"/>
<polygon fill="#63b8ff" stroke="#63b8ff" points="688.68,-262.33 679.06,-266.79 689.36,-269.3 688.68,-262.33"/>
</a>
</g>
</g>
<!-- Node5&#45;&gt;Node4 -->
<g id="edge13_Node000005_Node000004" class="edge">
<title>Node5&#45;&gt;Node4</title>
<g id="a_edge13_Node000005_Node000004"><a xlink:title=" ">
<path fill="none" stroke="#63b8ff" d="M1220.11,-205.82C1064.03,-201.85 565.65,-187.42 154.25,-156 149.86,-155.66 145.35,-155.28 140.8,-154.87"/>
<polygon fill="#63b8ff" stroke="#63b8ff" points="1219.58,-209.31 1229.66,-206.06 1219.75,-202.31 1219.58,-209.31"/>
</a>
</g>
</g>
<!-- Node6 -->
<g id="Node000006" class="node">
<title>Node6</title>
<g id="a_Node000006"><a xlink:href="_action_test_8cpp.html" target="_top" xlink:title=" ">
<polygon fill="white" stroke="#666666" points="2702.38,-156 2594.12,-156 2594.12,-136 2702.38,-136 2702.38,-156"/>
<text xml:space="preserve" text-anchor="middle" x="2648.25" y="-142.5" font-family="Helvetica,sans-Serif" font-size="10.00">Tests/ActionTest.cpp</text>
</a>
</g>
</g>
<!-- Node5&#45;&gt;Node6 -->
<g id="edge5_Node000005_Node000006" class="edge">
<title>Node5&#45;&gt;Node6</title>
<g id="a_edge5_Node000005_Node000006"><a xlink:title=" ">
<path fill="none" stroke="#63b8ff" d="M1318.6,-206.92C1492.43,-206.25 2092.48,-200.63 2585.25,-156 2588,-155.75 2590.82,-155.46 2593.65,-155.15"/>
<polygon fill="#63b8ff" stroke="#63b8ff" points="1318.8,-203.42 1308.81,-206.95 1318.82,-210.42 1318.8,-203.42"/>
</a>
</g>
</g>
<!-- Node7 -->
<g id="Node000007" class="node">
<title>Node7</title>
<g id="a_Node000007"><a xlink:href="_async_test_8cpp.html" target="_top" xlink:title=" ">
<polygon fill="white" stroke="#666666" points="2828.38,-156 2720.12,-156 2720.12,-136 2828.38,-136 2828.38,-156"/>
<text xml:space="preserve" text-anchor="middle" x="2774.25" y="-142.5" font-family="Helvetica,sans-Serif" font-size="10.00">Tests/AsyncTest.cpp</text>
</a>
</g>
</g>
<!-- Node5&#45;&gt;Node7 -->
<g id="edge6_Node000005_Node000007" class="edge">
<title>Node5&#45;&gt;Node7</title>
<g id="a_edge6_Node000005_Node000007"><a xlink:title=" ">
<path fill="none" stroke="#63b8ff" d="M1318.65,-207.16C1502.81,-207.34 2166.77,-204.38 2711.25,-156 2714,-155.76 2716.82,-155.47 2719.66,-155.16"/>
<polygon fill="#63b8ff" stroke="#63b8ff" points="1318.74,-203.66 1308.73,-207.14 1318.73,-210.66 1318.74,-203.66"/>
</a>
</g>
</g>
<!-- Node8 -->
<g id="Node000008" class="node">
<title>Node8</title>
<g id="a_Node000008"><a xlink:href="_attributed_test_8cpp.html" target="_top" xlink:title=" ">
<polygon fill="white" stroke="#666666" points="523.5,-26 401,-26 401,-6 523.5,-6 523.5,-26"/>
<text xml:space="preserve" text-anchor="middle" x="462.25" y="-12.5" font-family="Helvetica,sans-Serif" font-size="10.00">Tests/AttributedTest.cpp</text>
</a>
</g>
</g>
<!-- Node5&#45;&gt;Node8 -->
<g id="edge7_Node000005_Node000008" class="edge">
<title>Node5&#45;&gt;Node8</title>
<g id="a_edge7_Node000005_Node000008"><a xlink:title=" ">
<path fill="none" stroke="#63b8ff" d="M1220.14,-205.65C1034.94,-200.38 384.78,-180.33 295.25,-156 243.07,-141.82 215.34,-146.2 187.25,-100 179.86,-87.85 178.16,-78.94 187.25,-68 213.83,-36.03 327.91,-24.01 400.53,-19.56"/>
<polygon fill="#63b8ff" stroke="#63b8ff" points="1219.8,-209.14 1229.89,-205.92 1220,-202.14 1219.8,-209.14"/>
</a>
</g>
</g>
<!-- Node9 -->
<g id="Node000009" class="node">
<title>Node9</title>
<g id="a_Node000009"><a xlink:href="_container_test_8cpp.html" target="_top" xlink:title=" ">
<polygon fill="white" stroke="#666666" points="696.5,-156 574,-156 574,-136 696.5,-136 696.5,-156"/>
<text xml:space="preserve" text-anchor="middle" x="635.25" y="-142.5" font-family="Helvetica,sans-Serif" font-size="10.00">Tests/ContainerTest.cpp</text>
</a>
</g>
</g>
<!-- Node5&#45;&gt;Node9 -->
<g id="edge8_Node000005_Node000009" class="edge">
<title>Node5&#45;&gt;Node9</title>
<g id="a_edge8_Node000005_Node000009"><a xlink:title=" ">
<path fill="none" stroke="#63b8ff" d="M1220.01,-203.14C1122.07,-195.32 895.88,-176.6 706.25,-156 703.16,-155.66 700,-155.31 696.81,-154.94"/>
<polygon fill="#63b8ff" stroke="#63b8ff" points="1219.56,-206.61 1229.8,-203.91 1220.11,-199.63 1219.56,-206.61"/>
</a>
</g>
</g>
<!-- Node10 -->
<g id="Node000010" class="node">
<title>Node10</title>
<g id="a_Node000010"><a xlink:href="_core_tests_8cpp.html" target="_top" xlink:title=" ">
<polygon fill="white" stroke="#666666" points="821.62,-156 714.88,-156 714.88,-136 821.62,-136 821.62,-156"/>
<text xml:space="preserve" text-anchor="middle" x="768.25" y="-142.5" font-family="Helvetica,sans-Serif" font-size="10.00">Tests/CoreTests.cpp</text>
</a>
</g>
</g>
<!-- Node5&#45;&gt;Node10 -->
<g id="edge9_Node000005_Node000010" class="edge">
<title>Node5&#45;&gt;Node10</title>
<g id="a_edge9_Node000005_Node000010"><a xlink:title=" ">
<path fill="none" stroke="#63b8ff" d="M1219.98,-201.74C1138.7,-192.96 971.47,-174.45 830.25,-156 827.55,-155.65 824.79,-155.28 822.01,-154.9"/>
<polygon fill="#63b8ff" stroke="#63b8ff" points="1219.51,-205.21 1229.83,-202.8 1220.26,-198.25 1219.51,-205.21"/>
</a>
</g>
</g>
<!-- Node11 -->
<g id="Node000011" class="node">
<title>Node11</title>
<g id="a_Node000011"><a xlink:href="_datum_test_8cpp.html" target="_top" xlink:title=" ">
<polygon fill="white" stroke="#666666" points="949.12,-156 839.38,-156 839.38,-136 949.12,-136 949.12,-156"/>
<text xml:space="preserve" text-anchor="middle" x="894.25" y="-142.5" font-family="Helvetica,sans-Serif" font-size="10.00">Tests/DatumTest.cpp</text>
</a>
</g>
</g>
<!-- Node5&#45;&gt;Node11 -->
<g id="edge10_Node000005_Node000011" class="edge">
<title>Node5&#45;&gt;Node11</title>
<g id="a_edge10_Node000005_Node000011"><a xlink:title=" ">
<path fill="none" stroke="#63b8ff" d="M1220.12,-199.14C1150.29,-187.97 1022.69,-167.55 949.6,-155.86"/>
<polygon fill="#63b8ff" stroke="#63b8ff" points="1219.31,-202.55 1229.73,-200.68 1220.41,-195.64 1219.31,-202.55"/>
</a>
</g>
</g>
<!-- Node12 -->
<g id="Node000012" class="node">
<title>Node12</title>
<g id="a_Node000012"><a xlink:href="_factory_tests_8cpp.html" target="_top" xlink:title=" ">
<polygon fill="white" stroke="#666666" points="314.62,-94 195.88,-94 195.88,-74 314.62,-74 314.62,-94"/>
<text xml:space="preserve" text-anchor="middle" x="255.25" y="-80.5" font-family="Helvetica,sans-Serif" font-size="10.00">Tests/FactoryTests.cpp</text>
</a>
</g>
</g>
<!-- Node5&#45;&gt;Node12 -->
<g id="edge11_Node000005_Node000012" class="edge">
<title>Node5&#45;&gt;Node12</title>
<g id="a_edge11_Node000005_Node000012"><a xlink:title=" ">
<path fill="none" stroke="#63b8ff" d="M1219.8,-206.32C1037.76,-203.56 411.13,-191.53 329.25,-156 298.38,-142.6 272.76,-110.29 261.46,-94.29"/>
<polygon fill="#63b8ff" stroke="#63b8ff" points="1219.58,-209.82 1229.63,-206.47 1219.68,-202.82 1219.58,-209.82"/>
</a>
</g>
</g>
<!-- Node13 -->
<g id="Node000013" class="node">
<title>Node13</title>
<g id="a_Node000013"><a xlink:href="_foo_tests_8cpp.html" target="_top" xlink:title=" ">
<polygon fill="white" stroke="#666666" points="1069.38,-156 967.12,-156 967.12,-136 1069.38,-136 1069.38,-156"/>
<text xml:space="preserve" text-anchor="middle" x="1018.25" y="-142.5" font-family="Helvetica,sans-Serif" font-size="10.00">Tests/FooTests.cpp</text>
</a>
</g>
</g>
<!-- Node5&#45;&gt;Node13 -->
<g id="edge12_Node000005_Node000013" class="edge">
<title>Node5&#45;&gt;Node13</title>
<g id="a_edge12_Node000005_Node000013"><a xlink:title=" ">
<path fill="none" stroke="#63b8ff" d="M1220.21,-195.28C1172.82,-183.95 1101.94,-167.01 1057.98,-156.5"/>
<polygon fill="#63b8ff" stroke="#63b8ff" points="1219.12,-198.61 1229.66,-197.54 1220.74,-191.81 1219.12,-198.61"/>
</a>
</g>
</g>
<!-- Node14 -->
<g id="Node000014" class="node">
<title>Node14</title>
<g id="a_Node000014"><a xlink:href="_heap_test_8cpp.html" target="_top" xlink:title=" ">
<polygon fill="white" stroke="#666666" points="1191.12,-156 1087.38,-156 1087.38,-136 1191.12,-136 1191.12,-156"/>
<text xml:space="preserve" text-anchor="middle" x="1139.25" y="-142.5" font-family="Helvetica,sans-Serif" font-size="10.00">Tests/HeapTest.cpp</text>
</a>
</g>
</g>
<!-- Node5&#45;&gt;Node14 -->
<g id="edge14_Node000005_Node000014" class="edge">
<title>Node5&#45;&gt;Node14</title>
<g id="a_edge14_Node000005_Node000014"><a xlink:title=" ">
<path fill="none" stroke="#63b8ff" d="M1238.75,-192.92C1214.28,-181.63 1180.64,-166.1 1159.42,-156.31"/>
<polygon fill="#63b8ff" stroke="#63b8ff" points="1237.02,-195.98 1247.56,-196.99 1239.95,-189.62 1237.02,-195.98"/>
</a>
</g>
</g>
<!-- Node15 -->
<g id="Node000015" class="node">
<title>Node15</title>
<g id="a_Node000015"><a xlink:href="_json_cpp_test_8cpp.html" target="_top" xlink:title=" ">
<polygon fill="white" stroke="#666666" points="1329,-156 1209.5,-156 1209.5,-136 1329,-136 1329,-156"/>
<text xml:space="preserve" text-anchor="middle" x="1269.25" y="-142.5" font-family="Helvetica,sans-Serif" font-size="10.00">Tests/JsonCppTest.cpp</text>
</a>
</g>
</g>
<!-- Node5&#45;&gt;Node15 -->
<g id="edge15_Node000005_Node000015" class="edge">
<title>Node5&#45;&gt;Node15</title>
<g id="a_edge15_Node000005_Node000015"><a xlink:title=" ">
<path fill="none" stroke="#63b8ff" d="M1269.25,-186.25C1269.25,-175.97 1269.25,-164.09 1269.25,-156.11"/>
<polygon fill="#63b8ff" stroke="#63b8ff" points="1265.75,-186.11 1269.25,-196.11 1272.75,-186.11 1265.75,-186.11"/>
</a>
</g>
</g>
<!-- Node16 -->
<g id="Node000016" class="node">
<title>Node16</title>
<g id="a_Node000016"><a xlink:href="_json_parser_tests_8cpp.html" target="_top" xlink:title=" ">
<polygon fill="white" stroke="#666666" points="1481.88,-156 1346.62,-156 1346.62,-136 1481.88,-136 1481.88,-156"/>
<text xml:space="preserve" text-anchor="middle" x="1414.25" y="-142.5" font-family="Helvetica,sans-Serif" font-size="10.00">Tests/JsonParserTests.cpp</text>
</a>
</g>
</g>
<!-- Node5&#45;&gt;Node16 -->
<g id="edge16_Node000005_Node000016" class="edge">
<title>Node5&#45;&gt;Node16</title>
<g id="a_edge16_Node000005_Node000016"><a xlink:title=" ">
<path fill="none" stroke="#63b8ff" d="M1302.54,-193.23C1329.88,-181.91 1367.87,-166.19 1391.75,-156.31"/>
<polygon fill="#63b8ff" stroke="#63b8ff" points="1301.21,-189.99 1293.3,-197.05 1303.88,-196.46 1301.21,-189.99"/>
</a>
</g>
</g>
<!-- Node17 -->
<g id="Node000017" class="node">
<title>Node17</title>
<g id="a_Node000017"><a xlink:href="_list_tests_8cpp.html" target="_top" xlink:title=" ">
<polygon fill="white" stroke="#666666" points="1601,-156 1499.5,-156 1499.5,-136 1601,-136 1601,-156"/>
<text xml:space="preserve" text-anchor="middle" x="1550.25" y="-142.5" font-family="Helvetica,sans-Serif" font-size="10.00">Tests/ListTests.cpp</text>
</a>
</g>
</g>
<!-- Node5&#45;&gt;Node17 -->
<g id="edge17_Node000005_Node000017" class="edge">
<title>Node5&#45;&gt;Node17</title>
<g id="a_edge17_Node000005_Node000017"><a xlink:title=" ">
<path fill="none" stroke="#63b8ff" d="M1318.29,-196.53C1371.29,-185.21 1454.99,-167.34 1506.03,-156.44"/>
<polygon fill="#63b8ff" stroke="#63b8ff" points="1317.68,-193.08 1308.63,-198.59 1319.14,-199.93 1317.68,-193.08"/>
</a>
</g>
</g>
<!-- Node18 -->
<g id="Node000018" class="node">
<title>Node18</title>
<g id="a_Node000018"><a xlink:href="_memory_service_test_8cpp.html" target="_top" xlink:title=" ">
<polygon fill="white" stroke="#666666" points="1767.62,-156 1618.88,-156 1618.88,-136 1767.62,-136 1767.62,-156"/>
<text xml:space="preserve" text-anchor="middle" x="1693.25" y="-142.5" font-family="Helvetica,sans-Serif" font-size="10.00">Tests/MemoryServiceTest.cpp</text>
</a>
</g>
</g>
<!-- Node5&#45;&gt;Node18 -->
<g id="edge18_Node000005_Node000018" class="edge">
<title>Node5&#45;&gt;Node18</title>
<g id="a_edge18_Node000005_Node000018"><a xlink:title=" ">
<path fill="none" stroke="#63b8ff" d="M1318.38,-200.05C1394.38,-189.29 1540.58,-168.6 1626.22,-156.49"/>
<polygon fill="#63b8ff" stroke="#63b8ff" points="1318.16,-196.54 1308.75,-201.41 1319.14,-203.47 1318.16,-196.54"/>
</a>
</g>
</g>
<!-- Node19 -->
<g id="Node000019" class="node">
<title>Node19</title>
<g id="a_Node000019"><a xlink:href="_r_t_t_i_test_8cpp.html" target="_top" xlink:title=" ">
<polygon fill="white" stroke="#666666" points="1888.38,-156 1786.12,-156 1786.12,-136 1888.38,-136 1888.38,-156"/>
<text xml:space="preserve" text-anchor="middle" x="1837.25" y="-142.5" font-family="Helvetica,sans-Serif" font-size="10.00">Tests/RTTITest.cpp</text>
</a>
</g>
</g>
<!-- Node5&#45;&gt;Node19 -->
<g id="edge19_Node000005_Node000019" class="edge">
<title>Node5&#45;&gt;Node19</title>
<g id="a_edge19_Node000005_Node000019"><a xlink:title=" ">
<path fill="none" stroke="#63b8ff" d="M1318.44,-202.81C1409.12,-194.93 1608.67,-176.78 1776.25,-156 1779.33,-155.62 1782.5,-155.21 1785.69,-154.78"/>
<polygon fill="#63b8ff" stroke="#63b8ff" points="1318.33,-199.31 1308.67,-203.66 1318.93,-206.28 1318.33,-199.31"/>
</a>
</g>
</g>
<!-- Node20 -->
<g id="Node000020" class="node">
<title>Node20</title>
<g id="a_Node000020"><a xlink:href="_scope_parser_test_8cpp.html" target="_top" xlink:title=" ">
<polygon fill="white" stroke="#666666" points="867.62,-94 730.88,-94 730.88,-74 867.62,-74 867.62,-94"/>
<text xml:space="preserve" text-anchor="middle" x="799.25" y="-80.5" font-family="Helvetica,sans-Serif" font-size="10.00">Tests/ScopeParserTest.cpp</text>
</a>
</g>
</g>
<!-- Node5&#45;&gt;Node20 -->
<g id="edge20_Node000005_Node000020" class="edge">
<title>Node5&#45;&gt;Node20</title>
<g id="a_edge20_Node000005_Node000020"><a xlink:title=" ">
<path fill="none" stroke="#63b8ff" d="M1219.99,-207.21C1067.34,-207.36 609.68,-203.77 565.25,-156 559.2,-149.49 559.67,-142.92 565.25,-136 571.03,-128.83 680.98,-107.14 748.08,-94.47"/>
<polygon fill="#63b8ff" stroke="#63b8ff" points="1219.78,-210.71 1229.78,-207.2 1219.77,-203.71 1219.78,-210.71"/>
</a>
</g>
</g>
<!-- Node21 -->
<g id="Node000021" class="node">
<title>Node21</title>
<g id="a_Node000021"><a xlink:href="_scope_test_8cpp.html" target="_top" xlink:title=" ">
<polygon fill="white" stroke="#666666" points="2014.38,-156 1906.12,-156 1906.12,-136 2014.38,-136 2014.38,-156"/>
<text xml:space="preserve" text-anchor="middle" x="1960.25" y="-142.5" font-family="Helvetica,sans-Serif" font-size="10.00">Tests/ScopeTest.cpp</text>
</a>
</g>
</g>
<!-- Node5&#45;&gt;Node21 -->
<g id="edge21_Node000005_Node000021" class="edge">
<title>Node5&#45;&gt;Node21</title>
<g id="a_edge21_Node000005_Node000021"><a xlink:title=" ">
<path fill="none" stroke="#63b8ff" d="M1318.47,-204.03C1424.48,-197.4 1682.19,-180.07 1897.25,-156 1899.99,-155.69 1902.8,-155.36 1905.64,-155.01"/>
<polygon fill="#63b8ff" stroke="#63b8ff" points="1318.47,-200.52 1308.71,-204.63 1318.91,-207.51 1318.47,-200.52"/>
</a>
</g>
</g>
<!-- Node22 -->
<g id="Node000022" class="node">
<title>Node22</title>
<g id="a_Node000022"><a xlink:href="_service_mgr_test_8cpp.html" target="_top" xlink:title=" ">
<polygon fill="white" stroke="#666666" points="2162.25,-156 2032.25,-156 2032.25,-136 2162.25,-136 2162.25,-156"/>
<text xml:space="preserve" text-anchor="middle" x="2097.25" y="-142.5" font-family="Helvetica,sans-Serif" font-size="10.00">Tests/ServiceMgrTest.cpp</text>
</a>
</g>
</g>
<!-- Node5&#45;&gt;Node22 -->
<g id="edge22_Node000005_Node000022" class="edge">
<title>Node5&#45;&gt;Node22</title>
<g id="a_edge22_Node000005_Node000022"><a xlink:title=" ">
<path fill="none" stroke="#63b8ff" d="M1318.74,-204.57C1439.37,-198.45 1758.11,-181.07 2023.25,-156 2026.08,-155.73 2028.98,-155.44 2031.9,-155.14"/>
<polygon fill="#63b8ff" stroke="#63b8ff" points="1318.68,-201.07 1308.87,-205.07 1319.04,-208.06 1318.68,-201.07"/>
</a>
</g>
</g>
<!-- Node23 -->
<g id="Node000023" class="node">
<title>Node23</title>
<g id="a_Node000023"><a xlink:href="_skeleton_test_8cpp.html" target="_top" xlink:title=" ">
<polygon fill="white" stroke="#666666" points="2298.62,-156 2179.88,-156 2179.88,-136 2298.62,-136 2298.62,-156"/>
<text xml:space="preserve" text-anchor="middle" x="2239.25" y="-142.5" font-family="Helvetica,sans-Serif" font-size="10.00">Tests/SkeletonTest.cpp</text>
</a>
</g>
</g>
<!-- Node5&#45;&gt;Node23 -->
<g id="edge23_Node000005_Node000023" class="edge">
<title>Node5&#45;&gt;Node23</title>
<g id="a_edge23_Node000005_Node000023"><a xlink:title=" ">
<path fill="none" stroke="#63b8ff" d="M1318.35,-205.52C1454.22,-201.15 1846.54,-186.62 2171.25,-156 2173.98,-155.74 2176.76,-155.46 2179.57,-155.16"/>
<polygon fill="#63b8ff" stroke="#63b8ff" points="1318.53,-202.01 1308.65,-205.83 1318.75,-209.01 1318.53,-202.01"/>
</a>
</g>
</g>
<!-- Node24 -->
<g id="Node000024" class="node">
<title>Node24</title>
<g id="a_Node000024"><a xlink:href="_action_output_8cpp.html" target="_top" xlink:title=" ">
<polygon fill="white" stroke="#666666" points="2472,-156 2316.5,-156 2316.5,-136 2472,-136 2472,-156"/>
<text xml:space="preserve" text-anchor="middle" x="2394.25" y="-142.5" font-family="Helvetica,sans-Serif" font-size="10.00">Tests/Support/ActionOutput.cpp</text>
</a>
</g>
</g>
<!-- Node5&#45;&gt;Node24 -->
<g id="edge24_Node000005_Node000024" class="edge">
<title>Node5&#45;&gt;Node24</title>
<g id="a_edge24_Node000005_Node000024"><a xlink:title=" ">
<path fill="none" stroke="#63b8ff" d="M1318.42,-205.53C1467.44,-200.86 1927.15,-184.98 2307.25,-156 2310.13,-155.78 2313.06,-155.54 2316.01,-155.29"/>
<polygon fill="#63b8ff" stroke="#63b8ff" points="1318.4,-202.03 1308.51,-205.83 1318.62,-209.02 1318.4,-202.03"/>
</a>
</g>
</g>
<!-- Node25 -->
<g id="Node000025" class="node">
<title>Node25</title>
<g id="a_Node000025"><a xlink:href="_attribute_box_8h.html" target="_top" xlink:title=" ">
<polygon fill="white" stroke="#666666" points="480.25,-156 338.25,-156 338.25,-136 480.25,-136 480.25,-156"/>
<text xml:space="preserve" text-anchor="middle" x="409.25" y="-142.5" font-family="Helvetica,sans-Serif" font-size="10.00">Tests/Support/AttributeBox.h</text>
</a>
</g>
</g>
<!-- Node5&#45;&gt;Node25 -->
<g id="edge25_Node000005_Node000025" class="edge">
<title>Node5&#45;&gt;Node25</title>
<g id="a_edge25_Node000005_Node000025"><a xlink:title=" ">
<path fill="none" stroke="#63b8ff" d="M1220.09,-204.45C1097.47,-197.93 768.21,-179.51 494.25,-156 489.81,-155.62 485.25,-155.2 480.65,-154.77"/>
<polygon fill="#63b8ff" stroke="#63b8ff" points="1219.62,-207.93 1229.8,-204.96 1219.99,-200.94 1219.62,-207.93"/>
</a>
</g>
</g>
<!-- Node27 -->
<g id="Node000027" class="node">
<title>Node27</title>
<g id="a_Node000027"><a xlink:href="_attribute_box_plus_8h.html" target="_top" xlink:title=" ">
<polygon fill="white" stroke="#666666" points="675.12,-100 541.38,-100 541.38,-68 675.12,-68 675.12,-100"/>
<text xml:space="preserve" text-anchor="start" x="549.38" y="-86.5" font-family="Helvetica,sans-Serif" font-size="10.00">Tests/Support/AttributeBox</text>
<text xml:space="preserve" text-anchor="middle" x="608.25" y="-74.5" font-family="Helvetica,sans-Serif" font-size="10.00">Plus.h</text>
</a>
</g>
</g>
<!-- Node5&#45;&gt;Node27 -->
<g id="edge35_Node000005_Node000027" class="edge">
<title>Node5&#45;&gt;Node27</title>
<g id="a_edge35_Node000005_Node000027"><a xlink:title=" ">
<path fill="none" stroke="#63b8ff" d="M1219.96,-207.25C1066.11,-207.54 602.26,-204.35 557.25,-156 540.81,-138.34 564.46,-115.23 584.75,-100.25"/>
<polygon fill="#63b8ff" stroke="#63b8ff" points="1219.84,-210.75 1229.83,-207.23 1219.82,-203.75 1219.84,-210.75"/>
</a>
</g>
</g>
<!-- Node29 -->
<g id="Node000029" class="node">
<title>Node29</title>
<g id="a_Node000029"><a xlink:href="_attribute_box_tests_8cpp.html" target="_top" xlink:title=" ">
<polygon fill="white" stroke="#666666" points="827.12,-32 693.38,-32 693.38,0 827.12,0 827.12,-32"/>
<text xml:space="preserve" text-anchor="start" x="701.38" y="-18.5" font-family="Helvetica,sans-Serif" font-size="10.00">Tests/Support/AttributeBox</text>
<text xml:space="preserve" text-anchor="middle" x="760.25" y="-6.5" font-family="Helvetica,sans-Serif" font-size="10.00">Tests.cpp</text>
</a>
</g>
</g>
<!-- Node5&#45;&gt;Node29 -->
<g id="edge36_Node000005_Node000029" class="edge">
<title>Node5&#45;&gt;Node29</title>
<g id="a_edge36_Node000005_Node000029"><a xlink:title=" ">
<path fill="none" stroke="#63b8ff" d="M1318.65,-207.3C1579.13,-208.65 2783.2,-211.83 2837.25,-156 2843.43,-149.61 2843.35,-142.46 2837.25,-136 2766.61,-61.2 1176.03,-25.28 827.39,-18.28"/>
<polygon fill="#63b8ff" stroke="#63b8ff" points="1318.85,-203.8 1308.83,-207.25 1318.81,-210.8 1318.85,-203.8"/>
</a>
</g>
</g>
<!-- Node30 -->
<g id="Node000030" class="node">
<title>Node30</title>
<g id="a_Node000030"><a xlink:href="_tests_8cpp.html" target="_top" xlink:title=" ">
<polygon fill="white" stroke="#666666" points="2576.12,-156 2490.38,-156 2490.38,-136 2576.12,-136 2576.12,-156"/>
<text xml:space="preserve" text-anchor="middle" x="2533.25" y="-142.5" font-family="Helvetica,sans-Serif" font-size="10.00">Tests/Tests.cpp</text>
</a>
</g>
</g>
<!-- Node5&#45;&gt;Node30 -->
<g id="edge37_Node000005_Node000030" class="edge">
<title>Node5&#45;&gt;Node30</title>
<g id="a_edge37_Node000005_Node000030"><a xlink:title=" ">
<path fill="none" stroke="#63b8ff" d="M1318.55,-207.21C1483.59,-207.41 2031.61,-204.17 2481.25,-156 2484.07,-155.7 2486.98,-155.34 2489.9,-154.93"/>
<polygon fill="#63b8ff" stroke="#63b8ff" points="1318.86,-203.71 1308.85,-207.19 1318.84,-210.71 1318.86,-203.71"/>
</a>
</g>
</g>
<!-- Node25&#45;&gt;Node8 -->
<g id="edge26_Node000025_Node000008" class="edge">
<title>Node25&#45;&gt;Node8</title>
<g id="a_edge26_Node000025_Node000008"><a xlink:title=" ">
<path fill="none" stroke="#63b8ff" d="M455.54,-131.32C470.56,-124.45 485.57,-114.41 494.25,-100 509.15,-75.26 485.21,-42.38 471.22,-26.45"/>
<polygon fill="#63b8ff" stroke="#63b8ff" points="454.52,-127.96 446.62,-135.01 457.2,-134.43 454.52,-127.96"/>
</a>
</g>
</g>
<!-- Node25&#45;&gt;Node12 -->
<g id="edge27_Node000025_Node000012" class="edge">
<title>Node25&#45;&gt;Node12</title>
<g id="a_edge27_Node000025_Node000012"><a xlink:title=" ">
<path fill="none" stroke="#63b8ff" d="M374.7,-131.54C345.7,-120.24 305.01,-104.39 279.4,-94.41"/>
<polygon fill="#63b8ff" stroke="#63b8ff" points="373.19,-134.71 383.78,-135.08 375.73,-128.18 373.19,-134.71"/>
</a>
</g>
</g>
<!-- Node25&#45;&gt;Node20 -->
<g id="edge28_Node000025_Node000020" class="edge">
<title>Node25&#45;&gt;Node20</title>
<g id="a_edge28_Node000025_Node000020"><a xlink:title=" ">
<path fill="none" stroke="#63b8ff" d="M490.39,-133.95C552.57,-125.29 640.45,-112.63 717.25,-100 727.53,-98.31 738.52,-96.38 749,-94.49"/>
<polygon fill="#63b8ff" stroke="#63b8ff" points="490.01,-130.47 480.58,-135.32 490.97,-137.41 490.01,-130.47"/>
</a>
</g>
</g>
<!-- Node26 -->
<g id="Node000026" class="node">
<title>Node26</title>
<g id="a_Node000026"><a xlink:href="_attribute_box_8cpp.html" target="_top" xlink:title=" ">
<polygon fill="white" stroke="#666666" points="485.5,-94 333,-94 333,-74 485.5,-74 485.5,-94"/>
<text xml:space="preserve" text-anchor="middle" x="409.25" y="-80.5" font-family="Helvetica,sans-Serif" font-size="10.00">Tests/Support/AttributeBox.cpp</text>
</a>
</g>
</g>
<!-- Node25&#45;&gt;Node26 -->
<g id="edge29_Node000025_Node000026" class="edge">
<title>Node25&#45;&gt;Node26</title>
<g id="a_edge29_Node000025_Node000026"><a xlink:title=" ">
<path fill="none" stroke="#63b8ff" d="M409.25,-124.25C409.25,-113.97 409.25,-102.09 409.25,-94.11"/>
<polygon fill="#63b8ff" stroke="#63b8ff" points="405.75,-124.11 409.25,-134.11 412.75,-124.11 405.75,-124.11"/>
</a>
</g>
</g>
<!-- Node25&#45;&gt;Node27 -->
<g id="edge30_Node000025_Node000027" class="edge">
<title>Node25&#45;&gt;Node27</title>
<g id="a_edge30_Node000025_Node000027"><a xlink:title=" ">
<path fill="none" stroke="#63b8ff" d="M451.15,-132.37C481.97,-123.08 524.03,-110.39 556.87,-100.49"/>
<polygon fill="#63b8ff" stroke="#63b8ff" points="450.36,-128.95 441.79,-135.19 452.38,-135.65 450.36,-128.95"/>
</a>
</g>
</g>
<!-- Node25&#45;&gt;Node29 -->
<g id="edge34_Node000025_Node000029" class="edge">
<title>Node25&#45;&gt;Node29</title>
<g id="a_edge34_Node000025_Node000029"><a xlink:title=" ">
<path fill="none" stroke="#63b8ff" d="M491.83,-137.49C560.42,-130.16 651.8,-117.55 684.25,-100 699.72,-91.63 731.01,-54 748.22,-32.39"/>
<polygon fill="#63b8ff" stroke="#63b8ff" points="491.69,-133.98 482.11,-138.51 492.42,-140.95 491.69,-133.98"/>
</a>
</g>
</g>
<!-- Node27&#45;&gt;Node8 -->
<g id="edge31_Node000027_Node000008" class="edge">
<title>Node27&#45;&gt;Node8</title>
<g id="a_edge31_Node000027_Node000008"><a xlink:title=" ">
<path fill="none" stroke="#63b8ff" d="M563.72,-62.87C536.94,-50.76 504.1,-35.92 483.18,-26.46"/>
<polygon fill="#63b8ff" stroke="#63b8ff" points="562.09,-65.97 572.64,-66.9 564.97,-59.59 562.09,-65.97"/>
</a>
</g>
</g>
<!-- Node28 -->
<g id="Node000028" class="node">
<title>Node28</title>
<g id="a_Node000028"><a xlink:href="_attribute_box_plus_8cpp.html" target="_top" xlink:title=" ">
<polygon fill="white" stroke="#666666" points="675.12,-32 541.38,-32 541.38,0 675.12,0 675.12,-32"/>
<text xml:space="preserve" text-anchor="start" x="549.38" y="-18.5" font-family="Helvetica,sans-Serif" font-size="10.00">Tests/Support/AttributeBox</text>
<text xml:space="preserve" text-anchor="middle" x="608.25" y="-6.5" font-family="Helvetica,sans-Serif" font-size="10.00">Plus.cpp</text>
</a>
</g>
</g>
<!-- Node27&#45;&gt;Node28 -->
<g id="edge32_Node000027_Node000028" class="edge">
<title>Node27&#45;&gt;Node28</title>
<g id="a_edge32_Node000027_Node000028"><a xlink:title=" ">
<path fill="none" stroke="#63b8ff" d="M608.25,-56.31C608.25,-48.12 608.25,-39.38 608.25,-32.22"/>
<polygon fill="#63b8ff" stroke="#63b8ff" points="604.75,-56.18 608.25,-66.18 611.75,-56.18 604.75,-56.18"/>
</a>
</g>
</g>
<!-- Node27&#45;&gt;Node29 -->
<g id="edge33_Node000027_Node000029" class="edge">
<title>Node27&#45;&gt;Node29</title>
<g id="a_edge33_Node000027_Node000029"><a xlink:title=" ">
<path fill="none" stroke="#63b8ff" d="M654.25,-63.03C676.82,-53.23 703.58,-41.61 724.57,-32.49"/>
<polygon fill="#63b8ff" stroke="#63b8ff" points="653.05,-59.73 645.28,-66.92 655.84,-66.15 653.05,-59.73"/>
</a>
</g>
</g>
</g>
</svg>
