<?xml version="1.0" encoding="UTF-8" standalone="no"?>
<!DOCTYPE svg PUBLIC "-//W3C//DTD SVG 1.1//EN"
 "http://www.w3.org/Graphics/SVG/1.1/DTD/svg11.dtd">
<!-- Generated by graphviz version 13.1.0 (20250701.0955)
 -->
<!-- Title: FIEAGameEngine/include/FIEAGameEngine/GameObject.h Pages: 1 -->
<svg width="1090pt" height="488pt"
 viewBox="0.00 0.00 1090.00 488.00" xmlns="http://www.w3.org/2000/svg" xmlns:xlink="http://www.w3.org/1999/xlink">
<g id="graph0" class="graph" transform="scale(1 1) rotate(0) translate(4 484)">
<title>FIEAGameEngine/include/FIEAGameEngine/GameObject.h</title>
<!-- Node1 -->
<g id="Node000001" class="node">
<title>Node1</title>
<g id="a_Node000001"><a xlink:title=" ">
<polygon fill="#999999" stroke="#666666" points="959.5,-480 795.75,-480 795.75,-448 959.5,-448 959.5,-480"/>
<text xml:space="preserve" text-anchor="start" x="803.75" y="-466.5" font-family="Helvetica,sans-Serif" font-size="10.00">FIEAGameEngine/include</text>
<text xml:space="preserve" text-anchor="middle" x="877.62" y="-454.5" font-family="Helvetica,sans-Serif" font-size="10.00">/FIEAGameEngine/GameObject.h</text>
</a>
</g>
</g>
<!-- Node2 -->
<g id="Node000002" class="node">
<title>Node2</title>
<g id="a_Node000002"><a xlink:href="_types_8h.html" target="_top" xlink:title=" ">
<polygon fill="white" stroke="#666666" points="885.75,-76 753.5,-76 753.5,-56 885.75,-56 885.75,-76"/>
<text xml:space="preserve" text-anchor="middle" x="819.62" y="-62.5" font-family="Helvetica,sans-Serif" font-size="10.00">FIEAGameEngine/Types.h</text>
</a>
</g>
</g>
<!-- Node1&#45;&gt;Node2 -->
<g id="edge1_Node000001_Node000002" class="edge">
<title>Node1&#45;&gt;Node2</title>
<g id="a_edge1_Node000001_Node000002"><a xlink:title=" ">
<path fill="none" stroke="#63b8ff" d="M959.72,-449.73C1016.4,-435.34 1081.62,-405.97 1081.62,-347 1081.62,-347 1081.62,-347 1081.62,-177 1081.62,-96.24 974.49,-73.79 897.24,-68.09"/>
<polygon fill="#63b8ff" stroke="#63b8ff" points="897.79,-64.62 887.59,-67.47 897.34,-71.61 897.79,-64.62"/>
</a>
</g>
</g>
<!-- Node11 -->
<g id="Node000011" class="node">
<title>Node11</title>
<g id="a_Node000011"><a xlink:href="_attributed_8h.html" target="_top" xlink:title=" ">
<polygon fill="white" stroke="#666666" points="753.5,-300 649.75,-300 649.75,-280 753.5,-280 753.5,-300"/>
<text xml:space="preserve" text-anchor="middle" x="701.62" y="-286.5" font-family="Helvetica,sans-Serif" font-size="10.00">Content/Attributed.h</text>
</a>
</g>
</g>
<!-- Node1&#45;&gt;Node11 -->
<g id="edge10_Node000001_Node000011" class="edge">
<title>Node1&#45;&gt;Node11</title>
<g id="a_edge10_Node000001_Node000011"><a xlink:title=" ">
<path fill="none" stroke="#63b8ff" d="M847.83,-447.56C815.31,-429.43 763.5,-396.6 730.62,-356 719.8,-342.63 712.17,-324.58 707.47,-310.89"/>
<polygon fill="#63b8ff" stroke="#63b8ff" points="710.9,-310.13 704.53,-301.66 704.22,-312.25 710.9,-310.13"/>
</a>
</g>
</g>
<!-- Node13 -->
<g id="Node000013" class="node">
<title>Node13</title>
<g id="a_Node000013"><a xlink:title=" ">
<polygon fill="#e0e0e0" stroke="#999999" points="69.25,-132 0,-132 0,-112 69.25,-112 69.25,-132"/>
<text xml:space="preserve" text-anchor="middle" x="34.62" y="-118.5" font-family="Helvetica,sans-Serif" font-size="10.00">glm/glm.hpp</text>
</a>
</g>
</g>
<!-- Node1&#45;&gt;Node13 -->
<g id="edge49_Node000001_Node000013" class="edge">
<title>Node1&#45;&gt;Node13</title>
<g id="a_edge49_Node000001_Node000013"><a xlink:title=" ">
<path fill="none" stroke="#63b8ff" d="M795.46,-458.98C598.68,-448.27 116.62,-415.07 116.62,-347 116.62,-347 116.62,-347 116.62,-233 116.62,-193.26 81.79,-158.59 57.53,-139.27"/>
<polygon fill="#63b8ff" stroke="#63b8ff" points="59.81,-136.61 49.74,-133.33 55.57,-142.17 59.81,-136.61"/>
</a>
</g>
</g>
<!-- Node19 -->
<g id="Node000019" class="node">
<title>Node19</title>
<g id="a_Node000019"><a xlink:href="_factory_service_8h.html" target="_top" xlink:title=" ">
<polygon fill="white" stroke="#666666" points="901.62,-188 729.62,-188 729.62,-168 901.62,-168 901.62,-188"/>
<text xml:space="preserve" text-anchor="middle" x="815.62" y="-174.5" font-family="Helvetica,sans-Serif" font-size="10.00">FIEAGameEngine/FactoryService.h</text>
</a>
</g>
</g>
<!-- Node1&#45;&gt;Node19 -->
<g id="edge38_Node000001_Node000019" class="edge">
<title>Node1&#45;&gt;Node19</title>
<g id="a_edge38_Node000001_Node000019"><a xlink:title=" ">
<path fill="none" stroke="#63b8ff" d="M949.46,-447.56C972.08,-439.88 995.8,-428.56 1013.62,-412 1036.94,-390.35 1043.62,-378.82 1043.62,-347 1043.62,-347 1043.62,-347 1043.62,-289 1043.62,-227.22 974.89,-200.12 912.9,-188.25"/>
<polygon fill="#63b8ff" stroke="#63b8ff" points="913.77,-184.85 903.31,-186.53 912.54,-191.74 913.77,-184.85"/>
</a>
</g>
</g>
<!-- Node25 -->
<g id="Node000025" class="node">
<title>Node25</title>
<g id="a_Node000025"><a xlink:href="_action_8h.html" target="_top" xlink:title=" ">
<polygon fill="white" stroke="#666666" points="901.5,-356 767.75,-356 767.75,-336 901.5,-336 901.5,-356"/>
<text xml:space="preserve" text-anchor="middle" x="834.62" y="-342.5" font-family="Helvetica,sans-Serif" font-size="10.00">FIEAGameEngine/Action.h</text>
</a>
</g>
</g>
<!-- Node1&#45;&gt;Node25 -->
<g id="edge39_Node000001_Node000025" class="edge">
<title>Node1&#45;&gt;Node25</title>
<g id="a_edge39_Node000001_Node000025"><a xlink:title=" ">
<path fill="none" stroke="#63b8ff" d="M865.83,-447.77C858.89,-438.05 850.54,-424.89 845.62,-412 840.13,-397.57 837.37,-380.3 835.99,-367.19"/>
<polygon fill="#63b8ff" stroke="#63b8ff" points="839.51,-367.3 835.18,-357.63 832.54,-367.89 839.51,-367.3"/>
</a>
</g>
</g>
<!-- Node26 -->
<g id="Node000026" class="node">
<title>Node26</title>
<g id="a_Node000026"><a xlink:href="_action_list_8h.html" target="_top" xlink:title=" ">
<polygon fill="white" stroke="#666666" points="1004.38,-412 854.88,-412 854.88,-392 1004.38,-392 1004.38,-412"/>
<text xml:space="preserve" text-anchor="middle" x="929.62" y="-398.5" font-family="Helvetica,sans-Serif" font-size="10.00">FIEAGameEngine/ActionList.h</text>
</a>
</g>
</g>
<!-- Node1&#45;&gt;Node26 -->
<g id="edge44_Node000001_Node000026" class="edge">
<title>Node1&#45;&gt;Node26</title>
<g id="a_edge44_Node000001_Node000026"><a xlink:title=" ">
<path fill="none" stroke="#63b8ff" d="M891.02,-447.55C898.09,-439.39 906.8,-429.33 914.16,-420.84"/>
<polygon fill="#63b8ff" stroke="#63b8ff" points="916.58,-423.4 920.48,-413.55 911.29,-418.82 916.58,-423.4"/>
</a>
</g>
</g>
<!-- Node3 -->
<g id="Node000003" class="node">
<title>Node3</title>
<g id="a_Node000003"><a xlink:title=" ">
<polygon fill="#e0e0e0" stroke="#999999" points="599.62,-20 439.62,-20 439.62,0 599.62,0 599.62,-20"/>
<text xml:space="preserve" text-anchor="middle" x="519.62" y="-6.5" font-family="Helvetica,sans-Serif" font-size="10.00">../src/Memory/SystemAllocator.h</text>
</a>
</g>
</g>
<!-- Node2&#45;&gt;Node3 -->
<g id="edge2_Node000002_Node000003" class="edge">
<title>Node2&#45;&gt;Node3</title>
<g id="a_edge2_Node000002_Node000003"><a xlink:title=" ">
<path fill="none" stroke="#63b8ff" d="M767.03,-55.53C715.88,-46.33 638.12,-32.33 583.46,-22.49"/>
<polygon fill="#63b8ff" stroke="#63b8ff" points="584.12,-19.05 573.65,-20.73 582.88,-25.94 584.12,-19.05"/>
</a>
</g>
</g>
<!-- Node4 -->
<g id="Node000004" class="node">
<title>Node4</title>
<g id="a_Node000004"><a xlink:title=" ">
<polygon fill="#e0e0e0" stroke="#999999" points="679.88,-20 617.38,-20 617.38,0 679.88,0 679.88,-20"/>
<text xml:space="preserve" text-anchor="middle" x="648.62" y="-6.5" font-family="Helvetica,sans-Serif" font-size="10.00">windows.h</text>
</a>
</g>
</g>
<!-- Node2&#45;&gt;Node4 -->
<g id="edge3_Node000002_Node000004" class="edge">
<title>Node2&#45;&gt;Node4</title>
<g id="a_edge3_Node000002_Node000004"><a xlink:title=" ">
<path fill="none" stroke="#63b8ff" d="M789.84,-55.59C762.06,-46.82 720.37,-33.66 689.49,-23.9"/>
<polygon fill="#63b8ff" stroke="#63b8ff" points="690.68,-20.61 680.09,-20.94 688.57,-27.28 690.68,-20.61"/>
</a>
</g>
</g>
<!-- Node5 -->
<g id="Node000005" class="node">
<title>Node5</title>
<g id="a_Node000005"><a xlink:title=" ">
<polygon fill="#e0e0e0" stroke="#999999" points="745.75,-20 697.5,-20 697.5,0 745.75,0 745.75,-20"/>
<text xml:space="preserve" text-anchor="middle" x="721.62" y="-6.5" font-family="Helvetica,sans-Serif" font-size="10.00">cassert</text>
</a>
</g>
</g>
<!-- Node2&#45;&gt;Node5 -->
<g id="edge4_Node000002_Node000005" class="edge">
<title>Node2&#45;&gt;Node5</title>
<g id="a_edge4_Node000002_Node000005"><a xlink:title=" ">
<path fill="none" stroke="#63b8ff" d="M802.55,-55.59C787.75,-47.44 766.06,-35.48 748.86,-26"/>
<polygon fill="#63b8ff" stroke="#63b8ff" points="750.6,-22.97 740.15,-21.21 747.22,-29.1 750.6,-22.97"/>
</a>
</g>
</g>
<!-- Node6 -->
<g id="Node000006" class="node">
<title>Node6</title>
<g id="a_Node000006"><a xlink:title=" ">
<polygon fill="#e0e0e0" stroke="#999999" points="811.75,-20 763.5,-20 763.5,0 811.75,0 811.75,-20"/>
<text xml:space="preserve" text-anchor="middle" x="787.62" y="-6.5" font-family="Helvetica,sans-Serif" font-size="10.00">cstddef</text>
</a>
</g>
</g>
<!-- Node2&#45;&gt;Node6 -->
<g id="edge5_Node000002_Node000006" class="edge">
<title>Node2&#45;&gt;Node6</title>
<g id="a_edge5_Node000002_Node000006"><a xlink:title=" ">
<path fill="none" stroke="#63b8ff" d="M814.05,-55.59C809.88,-48.55 804.02,-38.67 798.88,-30"/>
<polygon fill="#63b8ff" stroke="#63b8ff" points="802.02,-28.42 793.91,-21.6 795.99,-31.99 802.02,-28.42"/>
</a>
</g>
</g>
<!-- Node7 -->
<g id="Node000007" class="node">
<title>Node7</title>
<g id="a_Node000007"><a xlink:title=" ">
<polygon fill="#e0e0e0" stroke="#999999" points="875.25,-20 830,-20 830,0 875.25,0 875.25,-20"/>
<text xml:space="preserve" text-anchor="middle" x="852.62" y="-6.5" font-family="Helvetica,sans-Serif" font-size="10.00">cstdint</text>
</a>
</g>
</g>
<!-- Node2&#45;&gt;Node7 -->
<g id="edge6_Node000002_Node000007" class="edge">
<title>Node2&#45;&gt;Node7</title>
<g id="a_edge6_Node000002_Node000007"><a xlink:title=" ">
<path fill="none" stroke="#63b8ff" d="M825.37,-55.59C829.68,-48.55 835.72,-38.67 841.01,-30"/>
<polygon fill="#63b8ff" stroke="#63b8ff" points="843.93,-31.95 846.15,-21.59 837.95,-28.3 843.93,-31.95"/>
</a>
</g>
</g>
<!-- Node8 -->
<g id="Node000008" class="node">
<title>Node8</title>
<g id="a_Node000008"><a xlink:title=" ">
<polygon fill="#e0e0e0" stroke="#999999" points="946,-20 893.25,-20 893.25,0 946,0 946,-20"/>
<text xml:space="preserve" text-anchor="middle" x="919.62" y="-6.5" font-family="Helvetica,sans-Serif" font-size="10.00">cstdbool</text>
</a>
</g>
</g>
<!-- Node2&#45;&gt;Node8 -->
<g id="edge7_Node000002_Node000008" class="edge">
<title>Node2&#45;&gt;Node8</title>
<g id="a_edge7_Node000002_Node000008"><a xlink:title=" ">
<path fill="none" stroke="#63b8ff" d="M837.04,-55.59C852.29,-47.36 874.7,-35.26 892.33,-25.74"/>
<polygon fill="#63b8ff" stroke="#63b8ff" points="893.6,-29.03 900.74,-21.2 890.28,-22.87 893.6,-29.03"/>
</a>
</g>
</g>
<!-- Node9 -->
<g id="Node000009" class="node">
<title>Node9</title>
<g id="a_Node000009"><a xlink:title=" ">
<polygon fill="#e0e0e0" stroke="#999999" points="1003.62,-20 963.62,-20 963.62,0 1003.62,0 1003.62,-20"/>
<text xml:space="preserve" text-anchor="middle" x="983.62" y="-6.5" font-family="Helvetica,sans-Serif" font-size="10.00">string</text>
</a>
</g>
</g>
<!-- Node2&#45;&gt;Node9 -->
<g id="edge8_Node000002_Node000009" class="edge">
<title>Node2&#45;&gt;Node9</title>
<g id="a_edge8_Node000002_Node000009"><a xlink:title=" ">
<path fill="none" stroke="#63b8ff" d="M848.19,-55.59C877.32,-46 922.39,-31.16 952.44,-21.27"/>
<polygon fill="#63b8ff" stroke="#63b8ff" points="953.31,-24.67 961.72,-18.21 951.12,-18.02 953.31,-24.67"/>
</a>
</g>
</g>
<!-- Node10 -->
<g id="Node000010" class="node">
<title>Node10</title>
<g id="a_Node000010"><a xlink:title=" ">
<polygon fill="#e0e0e0" stroke="#999999" points="1075.75,-20 1021.5,-20 1021.5,0 1075.75,0 1075.75,-20"/>
<text xml:space="preserve" text-anchor="middle" x="1048.62" y="-6.5" font-family="Helvetica,sans-Serif" font-size="10.00">crtdefs.h</text>
</a>
</g>
</g>
<!-- Node2&#45;&gt;Node10 -->
<g id="edge9_Node000002_Node000010" class="edge">
<title>Node2&#45;&gt;Node10</title>
<g id="a_edge9_Node000002_Node000010"><a xlink:title=" ">
<path fill="none" stroke="#63b8ff" d="M861.08,-55.53C897.83,-47.1 953.23,-34.27 1010.11,-20.58"/>
<polygon fill="#63b8ff" stroke="#63b8ff" points="1010.75,-24.03 1019.65,-18.28 1009.11,-17.22 1010.75,-24.03"/>
</a>
</g>
</g>
<!-- Node11&#45;&gt;Node2 -->
<g id="edge11_Node000011_Node000002" class="edge">
<title>Node11&#45;&gt;Node2</title>
<g id="a_edge11_Node000011_Node000002"><a xlink:title=" ">
<path fill="none" stroke="#63b8ff" d="M712.93,-279.61C730.08,-265.77 764.1,-239.83 796.62,-224 844.4,-200.75 879.22,-230.86 910.62,-188 930.59,-160.76 928.45,-140.69 910.62,-112 901.56,-97.4 886.2,-87.4 870.65,-80.6"/>
<polygon fill="#63b8ff" stroke="#63b8ff" points="871.93,-77.34 861.35,-76.95 869.38,-83.86 871.93,-77.34"/>
</a>
</g>
</g>
<!-- Node12 -->
<g id="Node000012" class="node">
<title>Node12</title>
<g id="a_Node000012"><a xlink:href="_datum_8h.html" target="_top" xlink:title=" ">
<polygon fill="white" stroke="#666666" points="317.12,-188 226.12,-188 226.12,-168 317.12,-168 317.12,-188"/>
<text xml:space="preserve" text-anchor="middle" x="271.62" y="-174.5" font-family="Helvetica,sans-Serif" font-size="10.00">Content/Datum.h</text>
</a>
</g>
</g>
<!-- Node11&#45;&gt;Node12 -->
<g id="edge12_Node000011_Node000012" class="edge">
<title>Node11&#45;&gt;Node12</title>
<g id="a_edge12_Node000011_Node000012"><a xlink:title=" ">
<path fill="none" stroke="#63b8ff" d="M649.27,-283.59C594.71,-277.17 507.09,-264.65 433.62,-244 386.13,-230.65 333.52,-207.99 301.52,-193.26"/>
<polygon fill="#63b8ff" stroke="#63b8ff" points="303.01,-190.1 292.47,-189.05 300.06,-196.45 303.01,-190.1"/>
</a>
</g>
</g>
<!-- Node16 -->
<g id="Node000016" class="node">
<title>Node16</title>
<g id="a_Node000016"><a xlink:href="_scope_8h.html" target="_top" xlink:title=" ">
<polygon fill="white" stroke="#666666" points="614.38,-244 524.88,-244 524.88,-224 614.38,-224 614.38,-244"/>
<text xml:space="preserve" text-anchor="middle" x="569.62" y="-230.5" font-family="Helvetica,sans-Serif" font-size="10.00">Content/Scope.h</text>
</a>
</g>
</g>
<!-- Node11&#45;&gt;Node16 -->
<g id="edge18_Node000011_Node000016" class="edge">
<title>Node11&#45;&gt;Node16</title>
<g id="a_edge18_Node000011_Node000016"><a xlink:title=" ">
<path fill="none" stroke="#63b8ff" d="M678.63,-279.59C657.84,-271.09 626.97,-258.46 603.39,-248.81"/>
<polygon fill="#63b8ff" stroke="#63b8ff" points="604.78,-245.6 594.2,-245.05 602.13,-252.08 604.78,-245.6"/>
</a>
</g>
</g>
<!-- Node17 -->
<g id="Node000017" class="node">
<title>Node17</title>
<g id="a_Node000017"><a xlink:href="_r_t_t_i_8h.html" target="_top" xlink:title=" ">
<polygon fill="white" stroke="#666666" points="503.5,-132 375.75,-132 375.75,-112 503.5,-112 503.5,-132"/>
<text xml:space="preserve" text-anchor="middle" x="439.62" y="-118.5" font-family="Helvetica,sans-Serif" font-size="10.00">FIEAGameEngine/RTTI.h</text>
</a>
</g>
</g>
<!-- Node11&#45;&gt;Node17 -->
<g id="edge35_Node000011_Node000017" class="edge">
<title>Node11&#45;&gt;Node17</title>
<g id="a_edge35_Node000011_Node000017"><a xlink:title=" ">
<path fill="none" stroke="#63b8ff" d="M649.51,-286.87C609.58,-282.91 554.86,-272.23 515.62,-244 479.84,-218.25 457.12,-169.95 446.56,-142.81"/>
<polygon fill="#63b8ff" stroke="#63b8ff" points="449.95,-141.88 443.2,-133.71 443.38,-144.3 449.95,-141.88"/>
</a>
</g>
</g>
<!-- Node23 -->
<g id="Node000023" class="node">
<title>Node23</title>
<g id="a_Node000023"><a xlink:title=" ">
<polygon fill="#e0e0e0" stroke="#999999" points="688.12,-188 645.12,-188 645.12,-168 688.12,-168 688.12,-188"/>
<text xml:space="preserve" text-anchor="middle" x="666.62" y="-174.5" font-family="Helvetica,sans-Serif" font-size="10.00">vector</text>
</a>
</g>
</g>
<!-- Node11&#45;&gt;Node23 -->
<g id="edge36_Node000011_Node000023" class="edge">
<title>Node11&#45;&gt;Node23</title>
<g id="a_edge36_Node000011_Node000023"><a xlink:title=" ">
<path fill="none" stroke="#63b8ff" d="M698.64,-279.62C693.01,-261.92 680.7,-223.24 673.09,-199.32"/>
<polygon fill="#63b8ff" stroke="#63b8ff" points="676.43,-198.27 670.06,-189.8 669.76,-200.39 676.43,-198.27"/>
</a>
</g>
</g>
<!-- Node24 -->
<g id="Node000024" class="node">
<title>Node24</title>
<g id="a_Node000024"><a xlink:title=" ">
<polygon fill="#e0e0e0" stroke="#999999" points="863.62,-244 805.62,-244 805.62,-224 863.62,-224 863.62,-244"/>
<text xml:space="preserve" text-anchor="middle" x="834.62" y="-230.5" font-family="Helvetica,sans-Serif" font-size="10.00">functional</text>
</a>
</g>
</g>
<!-- Node11&#45;&gt;Node24 -->
<g id="edge37_Node000011_Node000024" class="edge">
<title>Node11&#45;&gt;Node24</title>
<g id="a_edge37_Node000011_Node000024"><a xlink:title=" ">
<path fill="none" stroke="#63b8ff" d="M724.79,-279.59C745.83,-271.05 777.12,-258.35 800.93,-248.68"/>
<polygon fill="#63b8ff" stroke="#63b8ff" points="801.93,-252.05 809.88,-245.05 799.29,-245.57 801.93,-252.05"/>
</a>
</g>
</g>
<!-- Node12&#45;&gt;Node2 -->
<g id="edge13_Node000012_Node000002" class="edge">
<title>Node12&#45;&gt;Node2</title>
<g id="a_edge13_Node000012_Node000002"><a xlink:title=" ">
<path fill="none" stroke="#63b8ff" d="M283.76,-167.56C305.1,-151.16 348.79,-118.5 366.62,-112 400.93,-99.5 621.74,-81.6 741.93,-72.61"/>
<polygon fill="#63b8ff" stroke="#63b8ff" points="742.02,-76.11 751.73,-71.88 741.5,-69.13 742.02,-76.11"/>
</a>
</g>
</g>
<!-- Node12&#45;&gt;Node13 -->
<g id="edge14_Node000012_Node000013" class="edge">
<title>Node12&#45;&gt;Node13</title>
<g id="a_edge14_Node000012_Node000013"><a xlink:title=" ">
<path fill="none" stroke="#63b8ff" d="M230.07,-167.53C188.27,-158.01 123.97,-143.36 80.65,-133.49"/>
<polygon fill="#63b8ff" stroke="#63b8ff" points="81.57,-130.11 71.04,-131.3 80.02,-136.93 81.57,-130.11"/>
</a>
</g>
</g>
<!-- Node14 -->
<g id="Node000014" class="node">
<title>Node14</title>
<g id="a_Node000014"><a xlink:title=" ">
<polygon fill="#e0e0e0" stroke="#999999" points="205.62,-132 87.62,-132 87.62,-112 205.62,-112 205.62,-132"/>
<text xml:space="preserve" text-anchor="middle" x="146.62" y="-118.5" font-family="Helvetica,sans-Serif" font-size="10.00">glm/gtx/string_cast.hpp</text>
</a>
</g>
</g>
<!-- Node12&#45;&gt;Node14 -->
<g id="edge15_Node000012_Node000014" class="edge">
<title>Node12&#45;&gt;Node14</title>
<g id="a_edge15_Node000012_Node000014"><a xlink:title=" ">
<path fill="none" stroke="#63b8ff" d="M249.85,-167.59C230.26,-159.13 201.2,-146.58 178.9,-136.94"/>
<polygon fill="#63b8ff" stroke="#63b8ff" points="180.53,-133.83 169.96,-133.08 177.75,-140.26 180.53,-133.83"/>
</a>
</g>
</g>
<!-- Node15 -->
<g id="Node000015" class="node">
<title>Node15</title>
<g id="a_Node000015"><a xlink:href="_datum_8inl.html" target="_top" xlink:title=" ">
<polygon fill="white" stroke="#666666" points="319.38,-132 223.88,-132 223.88,-112 319.38,-112 319.38,-132"/>
<text xml:space="preserve" text-anchor="middle" x="271.62" y="-118.5" font-family="Helvetica,sans-Serif" font-size="10.00">Content/Datum.inl</text>
</a>
</g>
</g>
<!-- Node12&#45;&gt;Node15 -->
<g id="edge16_Node000012_Node000015" class="edge">
<title>Node12&#45;&gt;Node15</title>
<g id="a_edge16_Node000012_Node000015"><a xlink:title=" ">
<path fill="none" stroke="#63b8ff" d="M266.36,-167.59C265.04,-161.01 264.6,-151.96 265.04,-143.73"/>
<polygon fill="#63b8ff" stroke="#63b8ff" points="268.52,-144.14 266.2,-133.8 261.56,-143.33 268.52,-144.14"/>
</a>
</g>
</g>
<!-- Node15&#45;&gt;Node12 -->
<g id="edge17_Node000015_Node000012" class="edge">
<title>Node15&#45;&gt;Node12</title>
<g id="a_edge17_Node000015_Node000012"><a xlink:title=" ">
<path fill="none" stroke="#63b8ff" d="M276.87,-132.3C278.21,-138.93 278.66,-148.11 278.2,-156.43"/>
<polygon fill="#63b8ff" stroke="#63b8ff" points="274.76,-155.75 277.07,-166.09 281.71,-156.57 274.76,-155.75"/>
</a>
</g>
</g>
<!-- Node16&#45;&gt;Node2 -->
<g id="edge19_Node000016_Node000002" class="edge">
<title>Node16&#45;&gt;Node2</title>
<g id="a_edge19_Node000016_Node000002"><a xlink:title=" ">
<path fill="none" stroke="#63b8ff" d="M571.16,-223.74C575.46,-200.93 589.78,-141.78 626.62,-112 659.01,-85.82 703.93,-74.33 742.28,-69.5"/>
<polygon fill="#63b8ff" stroke="#63b8ff" points="742.37,-73.02 751.92,-68.43 741.59,-66.06 742.37,-73.02"/>
</a>
</g>
</g>
<!-- Node16&#45;&gt;Node12 -->
<g id="edge24_Node000016_Node000012" class="edge">
<title>Node16&#45;&gt;Node12</title>
<g id="a_edge24_Node000016_Node000012"><a xlink:title=" ">
<path fill="none" stroke="#63b8ff" d="M524.69,-224.86C472.25,-215.36 385.47,-199.63 328.41,-189.29"/>
<polygon fill="#63b8ff" stroke="#63b8ff" points="329.37,-185.91 318.91,-187.57 328.12,-192.79 329.37,-185.91"/>
</a>
</g>
</g>
<!-- Node16&#45;&gt;Node17 -->
<g id="edge20_Node000016_Node000017" class="edge">
<title>Node16&#45;&gt;Node17</title>
<g id="a_edge20_Node000016_Node000017"><a xlink:title=" ">
<path fill="none" stroke="#63b8ff" d="M558.54,-223.62C536.48,-204.95 486.8,-162.92 459.14,-139.52"/>
<polygon fill="#63b8ff" stroke="#63b8ff" points="461.73,-137.12 451.84,-133.33 457.21,-142.46 461.73,-137.12"/>
</a>
</g>
</g>
<!-- Node16&#45;&gt;Node19 -->
<g id="edge25_Node000016_Node000019" class="edge">
<title>Node16&#45;&gt;Node19</title>
<g id="a_edge25_Node000016_Node000019"><a xlink:title=" ">
<path fill="none" stroke="#63b8ff" d="M612.76,-223.53C654.08,-214.46 716.6,-200.74 761.3,-190.93"/>
<polygon fill="#63b8ff" stroke="#63b8ff" points="762.05,-194.34 771.06,-188.78 760.55,-187.51 762.05,-194.34"/>
</a>
</g>
</g>
<!-- Node21 -->
<g id="Node000021" class="node">
<title>Node21</title>
<g id="a_Node000021"><a xlink:title=" ">
<polygon fill="#e0e0e0" stroke="#999999" points="649,-76 566.25,-76 566.25,-56 649,-56 649,-76"/>
<text xml:space="preserve" text-anchor="middle" x="607.62" y="-62.5" font-family="Helvetica,sans-Serif" font-size="10.00">unordered_map</text>
</a>
</g>
</g>
<!-- Node16&#45;&gt;Node21 -->
<g id="edge34_Node000016_Node000021" class="edge">
<title>Node16&#45;&gt;Node21</title>
<g id="a_edge34_Node000016_Node000021"><a xlink:title=" ">
<path fill="none" stroke="#63b8ff" d="M565.38,-223.69C556.48,-202.68 538.04,-150.47 555.62,-112 561,-100.23 571.15,-90.36 581.06,-82.9"/>
<polygon fill="#63b8ff" stroke="#63b8ff" points="582.84,-85.91 589.08,-77.35 578.86,-80.16 582.84,-85.91"/>
</a>
</g>
</g>
<!-- Node16&#45;&gt;Node23 -->
<g id="edge33_Node000016_Node000023" class="edge">
<title>Node16&#45;&gt;Node23</title>
<g id="a_edge33_Node000016_Node000023"><a xlink:title=" ">
<path fill="none" stroke="#63b8ff" d="M586.52,-223.59C601.17,-215.44 622.65,-203.48 639.67,-194"/>
<polygon fill="#63b8ff" stroke="#63b8ff" points="641.24,-197.14 648.27,-189.22 637.83,-191.02 641.24,-197.14"/>
</a>
</g>
</g>
<!-- Node17&#45;&gt;Node2 -->
<g id="edge21_Node000017_Node000002" class="edge">
<title>Node17&#45;&gt;Node2</title>
<g id="a_edge21_Node000017_Node000002"><a xlink:title=" ">
<path fill="none" stroke="#63b8ff" d="M503.66,-111.9C569.41,-102.56 671.8,-88.01 742.1,-78.02"/>
<polygon fill="#63b8ff" stroke="#63b8ff" points="742.19,-81.54 751.59,-76.67 741.2,-74.61 742.19,-81.54"/>
</a>
</g>
</g>
<!-- Node18 -->
<g id="Node000018" class="node">
<title>Node18</title>
<g id="a_Node000018"><a xlink:href="_r_t_t_i_8inl.html" target="_top" xlink:title=" ">
<polygon fill="white" stroke="#666666" points="505.75,-76 373.5,-76 373.5,-56 505.75,-56 505.75,-76"/>
<text xml:space="preserve" text-anchor="middle" x="439.62" y="-62.5" font-family="Helvetica,sans-Serif" font-size="10.00">FIEAGameEngine/RTTI.inl</text>
</a>
</g>
</g>
<!-- Node17&#45;&gt;Node18 -->
<g id="edge22_Node000017_Node000018" class="edge">
<title>Node17&#45;&gt;Node18</title>
<g id="a_edge22_Node000017_Node000018"><a xlink:title=" ">
<path fill="none" stroke="#63b8ff" d="M434.36,-111.59C433.04,-105.01 432.6,-95.96 433.04,-87.73"/>
<polygon fill="#63b8ff" stroke="#63b8ff" points="436.52,-88.14 434.2,-77.8 429.56,-87.33 436.52,-88.14"/>
</a>
</g>
</g>
<!-- Node18&#45;&gt;Node17 -->
<g id="edge23_Node000018_Node000017" class="edge">
<title>Node18&#45;&gt;Node17</title>
<g id="a_edge23_Node000018_Node000017"><a xlink:title=" ">
<path fill="none" stroke="#63b8ff" d="M444.87,-76.3C446.21,-82.93 446.66,-92.11 446.2,-100.43"/>
<polygon fill="#63b8ff" stroke="#63b8ff" points="442.76,-99.75 445.07,-110.09 449.71,-100.57 442.76,-99.75"/>
</a>
</g>
</g>
<!-- Node19&#45;&gt;Node2 -->
<g id="edge26_Node000019_Node000002" class="edge">
<title>Node19&#45;&gt;Node2</title>
<g id="a_edge26_Node000019_Node000002"><a xlink:title=" ">
<path fill="none" stroke="#63b8ff" d="M815.97,-167.62C816.61,-150.01 818,-111.59 818.87,-87.65"/>
<polygon fill="#63b8ff" stroke="#63b8ff" points="822.36,-87.99 819.23,-77.87 815.37,-87.73 822.36,-87.99"/>
</a>
</g>
</g>
<!-- Node19&#45;&gt;Node17 -->
<g id="edge27_Node000019_Node000017" class="edge">
<title>Node19&#45;&gt;Node17</title>
<g id="a_edge27_Node000019_Node000017"><a xlink:title=" ">
<path fill="none" stroke="#63b8ff" d="M749.7,-167.53C684.16,-158.12 583.75,-143.7 515.07,-133.83"/>
<polygon fill="#63b8ff" stroke="#63b8ff" points="515.8,-130.4 505.4,-132.45 514.8,-137.33 515.8,-130.4"/>
</a>
</g>
</g>
<!-- Node20 -->
<g id="Node000020" class="node">
<title>Node20</title>
<g id="a_Node000020"><a xlink:href="_service_mgr_8h.html" target="_top" xlink:title=" ">
<polygon fill="white" stroke="#666666" points="791.38,-132 635.88,-132 635.88,-112 791.38,-112 791.38,-132"/>
<text xml:space="preserve" text-anchor="middle" x="713.62" y="-118.5" font-family="Helvetica,sans-Serif" font-size="10.00">FIEAGameEngine/ServiceMgr.h</text>
</a>
</g>
</g>
<!-- Node19&#45;&gt;Node20 -->
<g id="edge28_Node000019_Node000020" class="edge">
<title>Node19&#45;&gt;Node20</title>
<g id="a_edge28_Node000019_Node000020"><a xlink:title=" ">
<path fill="none" stroke="#63b8ff" d="M797.86,-167.59C782.3,-159.36 759.44,-147.26 741.46,-137.74"/>
<polygon fill="#63b8ff" stroke="#63b8ff" points="743.34,-134.77 732.87,-133.19 740.07,-140.96 743.34,-134.77"/>
</a>
</g>
</g>
<!-- Node19&#45;&gt;Node21 -->
<g id="edge32_Node000019_Node000021" class="edge">
<title>Node19&#45;&gt;Node21</title>
<g id="a_edge32_Node000019_Node000021"><a xlink:title=" ">
<path fill="none" stroke="#63b8ff" d="M743.92,-167.51C697.88,-160.03 643.62,-148.15 626.62,-132 614.63,-120.6 610.08,-102.08 608.42,-87.72"/>
<polygon fill="#63b8ff" stroke="#63b8ff" points="611.92,-87.68 607.69,-77.97 604.94,-88.2 611.92,-87.68"/>
</a>
</g>
</g>
<!-- Node22 -->
<g id="Node000022" class="node">
<title>Node22</title>
<g id="a_Node000022"><a xlink:title=" ">
<polygon fill="#e0e0e0" stroke="#999999" points="901.38,-132 847.88,-132 847.88,-112 901.38,-112 901.38,-132"/>
<text xml:space="preserve" text-anchor="middle" x="874.62" y="-118.5" font-family="Helvetica,sans-Serif" font-size="10.00">iostream</text>
</a>
</g>
</g>
<!-- Node19&#45;&gt;Node22 -->
<g id="edge31_Node000019_Node000022" class="edge">
<title>Node19&#45;&gt;Node22</title>
<g id="a_edge31_Node000019_Node000022"><a xlink:title=" ">
<path fill="none" stroke="#63b8ff" d="M825.9,-167.59C834.19,-160.01 846.07,-149.13 856.03,-140.02"/>
<polygon fill="#63b8ff" stroke="#63b8ff" points="858.34,-142.65 863.35,-133.32 853.61,-137.49 858.34,-142.65"/>
</a>
</g>
</g>
<!-- Node20&#45;&gt;Node2 -->
<g id="edge29_Node000020_Node000002" class="edge">
<title>Node20&#45;&gt;Node2</title>
<g id="a_edge29_Node000020_Node000002"><a xlink:title=" ">
<path fill="none" stroke="#63b8ff" d="M732.09,-111.59C748.33,-103.32 772.23,-91.14 790.96,-81.6"/>
<polygon fill="#63b8ff" stroke="#63b8ff" points="792.35,-84.82 799.67,-77.17 789.17,-78.59 792.35,-84.82"/>
</a>
</g>
</g>
<!-- Node20&#45;&gt;Node21 -->
<g id="edge30_Node000020_Node000021" class="edge">
<title>Node20&#45;&gt;Node21</title>
<g id="a_edge30_Node000020_Node000021"><a xlink:title=" ">
<path fill="none" stroke="#63b8ff" d="M695.16,-111.59C678.92,-103.32 655.02,-91.14 636.29,-81.6"/>
<polygon fill="#63b8ff" stroke="#63b8ff" points="638.08,-78.59 627.58,-77.17 634.9,-84.82 638.08,-78.59"/>
</a>
</g>
</g>
<!-- Node25&#45;&gt;Node2 -->
<g id="edge40_Node000025_Node000002" class="edge">
<title>Node25&#45;&gt;Node2</title>
<g id="a_edge40_Node000025_Node000002"><a xlink:title=" ">
<path fill="none" stroke="#63b8ff" d="M863.81,-335.57C902.96,-320.86 967.62,-288.49 967.62,-235 967.62,-235 967.62,-235 967.62,-177 967.62,-143.54 954.89,-133.94 929.62,-112 912.73,-97.33 890.42,-87.02 870.3,-80"/>
<polygon fill="#63b8ff" stroke="#63b8ff" points="871.44,-76.69 860.84,-76.9 869.26,-83.34 871.44,-76.69"/>
</a>
</g>
</g>
<!-- Node25&#45;&gt;Node11 -->
<g id="edge41_Node000025_Node000011" class="edge">
<title>Node25&#45;&gt;Node11</title>
<g id="a_edge41_Node000025_Node000011"><a xlink:title=" ">
<path fill="none" stroke="#63b8ff" d="M811.46,-335.59C790.42,-327.05 759.13,-314.35 735.32,-304.68"/>
<polygon fill="#63b8ff" stroke="#63b8ff" points="736.96,-301.57 726.37,-301.05 734.32,-308.05 736.96,-301.57"/>
</a>
</g>
</g>
<!-- Node25&#45;&gt;Node19 -->
<g id="edge42_Node000025_Node000019" class="edge">
<title>Node25&#45;&gt;Node19</title>
<g id="a_edge42_Node000025_Node000019"><a xlink:title=" ">
<path fill="none" stroke="#63b8ff" d="M842.28,-335.54C858.17,-314.67 891.73,-263.43 872.62,-224 866.69,-211.75 855.62,-201.83 844.81,-194.45"/>
<polygon fill="#63b8ff" stroke="#63b8ff" points="846.73,-191.52 836.39,-189.2 843.02,-197.46 846.73,-191.52"/>
</a>
</g>
</g>
<!-- Node25&#45;&gt;Node24 -->
<g id="edge43_Node000025_Node000024" class="edge">
<title>Node25&#45;&gt;Node24</title>
<g id="a_edge43_Node000025_Node000024"><a xlink:title=" ">
<path fill="none" stroke="#63b8ff" d="M834.62,-335.62C834.62,-318.01 834.62,-279.59 834.62,-255.65"/>
<polygon fill="#63b8ff" stroke="#63b8ff" points="838.13,-255.87 834.63,-245.87 831.13,-255.87 838.13,-255.87"/>
</a>
</g>
</g>
<!-- Node26&#45;&gt;Node2 -->
<g id="edge45_Node000026_Node000002" class="edge">
<title>Node26&#45;&gt;Node2</title>
<g id="a_edge45_Node000026_Node000002"><a xlink:title=" ">
<path fill="none" stroke="#63b8ff" d="M942.17,-391.63C963.76,-374.33 1005.62,-335.1 1005.62,-291 1005.62,-291 1005.62,-291 1005.62,-177 1005.62,-120.96 942.3,-92.87 889.55,-79.19"/>
<polygon fill="#63b8ff" stroke="#63b8ff" points="890.49,-75.81 879.95,-76.84 888.83,-82.61 890.49,-75.81"/>
</a>
</g>
</g>
<!-- Node26&#45;&gt;Node11 -->
<g id="edge46_Node000026_Node000011" class="edge">
<title>Node26&#45;&gt;Node11</title>
<g id="a_edge46_Node000026_Node000011"><a xlink:title=" ">
<path fill="none" stroke="#63b8ff" d="M856.35,-391.56C824.57,-385.06 787.99,-374.17 758.62,-356 739.54,-344.19 723.31,-324.01 713.1,-309.26"/>
<polygon fill="#63b8ff" stroke="#63b8ff" points="716.31,-307.76 707.88,-301.35 710.47,-311.62 716.31,-307.76"/>
</a>
</g>
</g>
<!-- Node26&#45;&gt;Node19 -->
<g id="edge47_Node000026_Node000019" class="edge">
<title>Node26&#45;&gt;Node19</title>
<g id="a_edge47_Node000026_Node000019"><a xlink:title=" ">
<path fill="none" stroke="#63b8ff" d="M929.95,-391.52C930.44,-363.22 928.43,-277.97 889.62,-224 880.11,-210.77 865.39,-200.68 851.58,-193.43"/>
<polygon fill="#63b8ff" stroke="#63b8ff" points="853.18,-190.32 842.65,-189.11 850.13,-196.62 853.18,-190.32"/>
</a>
</g>
</g>
<!-- Node26&#45;&gt;Node25 -->
<g id="edge48_Node000026_Node000025" class="edge">
<title>Node26&#45;&gt;Node25</title>
<g id="a_edge48_Node000026_Node000025"><a xlink:title=" ">
<path fill="none" stroke="#63b8ff" d="M913.08,-391.59C898.73,-383.44 877.7,-371.48 861.02,-362"/>
<polygon fill="#63b8ff" stroke="#63b8ff" points="863.04,-359.13 852.62,-357.23 859.58,-365.21 863.04,-359.13"/>
</a>
</g>
</g>
</g>
</svg>
