<?xml version="1.0" encoding="UTF-8" standalone="no"?>
<!DOCTYPE svg PUBLIC "-//W3C//DTD SVG 1.1//EN"
 "http://www.w3.org/Graphics/SVG/1.1/DTD/svg11.dtd">
<!-- Generated by graphviz version 13.1.0 (20250701.0955)
 -->
<!-- Title: FIEAGameEngine/src/Memory/Heap.h Pages: 1 -->
<svg width="700pt" height="108pt"
 viewBox="0.00 0.00 700.00 108.00" xmlns="http://www.w3.org/2000/svg" xmlns:xlink="http://www.w3.org/1999/xlink">
<g id="graph0" class="graph" transform="scale(1 1) rotate(0) translate(4 104)">
<title>FIEAGameEngine/src/Memory/Heap.h</title>
<!-- Node1 -->
<g id="Node000001" class="node">
<title>Node1</title>
<g id="a_Node000001"><a xlink:title=" ">
<polygon fill="#999999" stroke="#666666" points="403.25,-100 292,-100 292,-68 403.25,-68 403.25,-100"/>
<text xml:space="preserve" text-anchor="start" x="300" y="-86.5" font-family="Helvetica,sans-Serif" font-size="10.00">FIEAGameEngine/src</text>
<text xml:space="preserve" text-anchor="middle" x="347.62" y="-74.5" font-family="Helvetica,sans-Serif" font-size="10.00">/Memory/Heap.h</text>
</a>
</g>
</g>
<!-- Node2 -->
<g id="Node000002" class="node">
<title>Node2</title>
<g id="a_Node000002"><a xlink:href="_heap_8cpp.html" target="_top" xlink:title=" ">
<polygon fill="white" stroke="#666666" points="111.25,-32 0,-32 0,0 111.25,0 111.25,-32"/>
<text xml:space="preserve" text-anchor="start" x="8" y="-18.5" font-family="Helvetica,sans-Serif" font-size="10.00">FIEAGameEngine/src</text>
<text xml:space="preserve" text-anchor="middle" x="55.62" y="-6.5" font-family="Helvetica,sans-Serif" font-size="10.00">/Memory/Heap.cpp</text>
</a>
</g>
</g>
<!-- Node1&#45;&gt;Node2 -->
<g id="edge1_Node000001_Node000002" class="edge">
<title>Node1&#45;&gt;Node2</title>
<g id="a_edge1_Node000001_Node000002"><a xlink:title=" ">
<path fill="none" stroke="#63b8ff" d="M280.49,-68.02C235.3,-57.92 174.36,-44.24 120.62,-32 117.69,-31.33 114.68,-30.64 111.64,-29.95"/>
<polygon fill="#63b8ff" stroke="#63b8ff" points="279.63,-71.42 290.16,-70.18 281.16,-64.59 279.63,-71.42"/>
</a>
</g>
</g>
<!-- Node3 -->
<g id="Node000003" class="node">
<title>Node3</title>
<g id="a_Node000003"><a xlink:href="_memory_service_8cpp.html" target="_top" xlink:title=" ">
<polygon fill="white" stroke="#666666" points="273.75,-32 129.5,-32 129.5,0 273.75,0 273.75,-32"/>
<text xml:space="preserve" text-anchor="start" x="137.5" y="-18.5" font-family="Helvetica,sans-Serif" font-size="10.00">FIEAGameEngine/src</text>
<text xml:space="preserve" text-anchor="middle" x="201.62" y="-6.5" font-family="Helvetica,sans-Serif" font-size="10.00">/Memory/MemoryService.cpp</text>
</a>
</g>
</g>
<!-- Node1&#45;&gt;Node3 -->
<g id="edge2_Node000001_Node000003" class="edge">
<title>Node1&#45;&gt;Node3</title>
<g id="a_edge2_Node000001_Node000003"><a xlink:title=" ">
<path fill="none" stroke="#63b8ff" d="M303.14,-62.89C281.53,-53.12 255.96,-41.56 235.89,-32.49"/>
<polygon fill="#63b8ff" stroke="#63b8ff" points="301.46,-65.97 312.02,-66.9 304.34,-59.59 301.46,-65.97"/>
</a>
</g>
</g>
<!-- Node4 -->
<g id="Node000004" class="node">
<title>Node4</title>
<g id="a_Node000004"><a xlink:href="_tracker_8cpp.html" target="_top" xlink:title=" ">
<polygon fill="white" stroke="#666666" points="403.25,-32 292,-32 292,0 403.25,0 403.25,-32"/>
<text xml:space="preserve" text-anchor="start" x="300" y="-18.5" font-family="Helvetica,sans-Serif" font-size="10.00">FIEAGameEngine/src</text>
<text xml:space="preserve" text-anchor="middle" x="347.62" y="-6.5" font-family="Helvetica,sans-Serif" font-size="10.00">/Memory/Tracker.cpp</text>
</a>
</g>
</g>
<!-- Node1&#45;&gt;Node4 -->
<g id="edge3_Node000001_Node000004" class="edge">
<title>Node1&#45;&gt;Node4</title>
<g id="a_edge3_Node000001_Node000004"><a xlink:title=" ">
<path fill="none" stroke="#63b8ff" d="M347.62,-56.31C347.62,-48.12 347.62,-39.38 347.62,-32.22"/>
<polygon fill="#63b8ff" stroke="#63b8ff" points="344.13,-56.18 347.63,-66.18 351.13,-56.18 344.13,-56.18"/>
</a>
</g>
</g>
<!-- Node5 -->
<g id="Node000005" class="node">
<title>Node5</title>
<g id="a_Node000005"><a xlink:href="_heap_test_8cpp.html" target="_top" xlink:title=" ">
<polygon fill="white" stroke="#666666" points="525.5,-26 421.75,-26 421.75,-6 525.5,-6 525.5,-26"/>
<text xml:space="preserve" text-anchor="middle" x="473.62" y="-12.5" font-family="Helvetica,sans-Serif" font-size="10.00">Tests/HeapTest.cpp</text>
</a>
</g>
</g>
<!-- Node1&#45;&gt;Node5 -->
<g id="edge4_Node000001_Node000005" class="edge">
<title>Node1&#45;&gt;Node5</title>
<g id="a_edge4_Node000001_Node000005"><a xlink:title=" ">
<path fill="none" stroke="#63b8ff" d="M387.29,-62.22C410.17,-50.24 437.82,-35.75 455.56,-26.46"/>
<polygon fill="#63b8ff" stroke="#63b8ff" points="385.74,-59.08 378.51,-66.82 388.99,-65.28 385.74,-59.08"/>
</a>
</g>
</g>
<!-- Node6 -->
<g id="Node000006" class="node">
<title>Node6</title>
<g id="a_Node000006"><a xlink:href="_memory_service_test_8cpp.html" target="_top" xlink:title=" ">
<polygon fill="white" stroke="#666666" points="692,-26 543.25,-26 543.25,-6 692,-6 692,-26"/>
<text xml:space="preserve" text-anchor="middle" x="617.62" y="-12.5" font-family="Helvetica,sans-Serif" font-size="10.00">Tests/MemoryServiceTest.cpp</text>
</a>
</g>
</g>
<!-- Node1&#45;&gt;Node6 -->
<g id="edge5_Node000001_Node000006" class="edge">
<title>Node1&#45;&gt;Node6</title>
<g id="a_edge5_Node000001_Node000006"><a xlink:title=" ">
<path fill="none" stroke="#63b8ff" d="M414.67,-66.61C466.49,-53.94 536.39,-36.86 579.16,-26.4"/>
<polygon fill="#63b8ff" stroke="#63b8ff" points="413.92,-63.19 405.04,-68.97 415.58,-69.99 413.92,-63.19"/>
</a>
</g>
</g>
</g>
</svg>
