<?xml version="1.0" encoding="UTF-8" standalone="no"?>
<!DOCTYPE svg PUBLIC "-//W3C//DTD SVG 1.1//EN"
 "http://www.w3.org/Graphics/SVG/1.1/DTD/svg11.dtd">
<!-- Generated by graphviz version 13.1.0 (20250701.0955)
 -->
<!-- Title: FIEAGameEngine/src/Memory/Heap.cpp Pages: 1 -->
<svg width="645pt" height="152pt"
 viewBox="0.00 0.00 645.00 152.00" xmlns="http://www.w3.org/2000/svg" xmlns:xlink="http://www.w3.org/1999/xlink">
<g id="graph0" class="graph" transform="scale(1 1) rotate(0) translate(4 148)">
<title>FIEAGameEngine/src/Memory/Heap.cpp</title>
<!-- Node1 -->
<g id="Node000001" class="node">
<title>Node1</title>
<g id="a_Node000001"><a xlink:title=" ">
<polygon fill="#999999" stroke="#666666" points="235.62,-144 124.38,-144 124.38,-112 235.62,-112 235.62,-144"/>
<text xml:space="preserve" text-anchor="start" x="132.38" y="-130.5" font-family="Helvetica,sans-Serif" font-size="10.00">FIEAGameEngine/src</text>
<text xml:space="preserve" text-anchor="middle" x="180" y="-118.5" font-family="Helvetica,sans-Serif" font-size="10.00">/Memory/Heap.cpp</text>
</a>
</g>
</g>
<!-- Node2 -->
<g id="Node000002" class="node">
<title>Node2</title>
<g id="a_Node000002"><a xlink:href="_heap_8h.html" target="_top" xlink:title=" ">
<polygon fill="white" stroke="#666666" points="149.75,-76 102.25,-76 102.25,-56 149.75,-56 149.75,-76"/>
<text xml:space="preserve" text-anchor="middle" x="126" y="-62.5" font-family="Helvetica,sans-Serif" font-size="10.00">Heap.h</text>
</a>
</g>
</g>
<!-- Node1&#45;&gt;Node2 -->
<g id="edge1_Node000001_Node000002" class="edge">
<title>Node1&#45;&gt;Node2</title>
<g id="a_edge1_Node000001_Node000002"><a xlink:title=" ">
<path fill="none" stroke="#63b8ff" d="M166.09,-111.55C158.75,-103.39 149.7,-93.33 142.06,-84.84"/>
<polygon fill="#63b8ff" stroke="#63b8ff" points="144.77,-82.62 135.48,-77.53 139.57,-87.31 144.77,-82.62"/>
</a>
</g>
</g>
<!-- Node4 -->
<g id="Node000004" class="node">
<title>Node4</title>
<g id="a_Node000004"><a xlink:href="_types_8h.html" target="_top" xlink:title=" ">
<polygon fill="white" stroke="#666666" points="406.12,-76 273.88,-76 273.88,-56 406.12,-56 406.12,-76"/>
<text xml:space="preserve" text-anchor="middle" x="340" y="-62.5" font-family="Helvetica,sans-Serif" font-size="10.00">FIEAGameEngine/Types.h</text>
</a>
</g>
</g>
<!-- Node1&#45;&gt;Node4 -->
<g id="edge3_Node000001_Node000004" class="edge">
<title>Node1&#45;&gt;Node4</title>
<g id="a_edge3_Node000001_Node000004"><a xlink:title=" ">
<path fill="none" stroke="#63b8ff" d="M221.2,-111.55C246.9,-101.91 279.64,-89.64 304.24,-80.41"/>
<polygon fill="#63b8ff" stroke="#63b8ff" points="305.36,-83.73 313.49,-76.94 302.9,-77.17 305.36,-83.73"/>
</a>
</g>
</g>
<!-- Node3 -->
<g id="Node000003" class="node">
<title>Node3</title>
<g id="a_Node000003"><a xlink:title=" ">
<polygon fill="#e0e0e0" stroke="#999999" points="40,-20 0,-20 0,0 40,0 40,-20"/>
<text xml:space="preserve" text-anchor="middle" x="20" y="-6.5" font-family="Helvetica,sans-Serif" font-size="10.00">string</text>
</a>
</g>
</g>
<!-- Node2&#45;&gt;Node3 -->
<g id="edge2_Node000002_Node000003" class="edge">
<title>Node2&#45;&gt;Node3</title>
<g id="a_edge2_Node000002_Node000003"><a xlink:title=" ">
<path fill="none" stroke="#63b8ff" d="M107.54,-55.59C91.3,-47.32 67.39,-35.14 48.67,-25.6"/>
<polygon fill="#63b8ff" stroke="#63b8ff" points="50.46,-22.59 39.96,-21.17 47.28,-28.82 50.46,-22.59"/>
</a>
</g>
</g>
<!-- Node4&#45;&gt;Node3 -->
<g id="edge10_Node000004_Node000003" class="edge">
<title>Node4&#45;&gt;Node3</title>
<g id="a_edge10_Node000004_Node000003"><a xlink:title=" ">
<path fill="none" stroke="#63b8ff" d="M273.59,-57.56C216.81,-50.56 132.8,-38.69 51.43,-20.29"/>
<polygon fill="#63b8ff" stroke="#63b8ff" points="52.5,-16.94 41.97,-18.11 50.93,-23.76 52.5,-16.94"/>
</a>
</g>
</g>
<!-- Node5 -->
<g id="Node000005" class="node">
<title>Node5</title>
<g id="a_Node000005"><a xlink:title=" ">
<polygon fill="#e0e0e0" stroke="#999999" points="218,-20 58,-20 58,0 218,0 218,-20"/>
<text xml:space="preserve" text-anchor="middle" x="138" y="-6.5" font-family="Helvetica,sans-Serif" font-size="10.00">../src/Memory/SystemAllocator.h</text>
</a>
</g>
</g>
<!-- Node4&#45;&gt;Node5 -->
<g id="edge4_Node000004_Node000005" class="edge">
<title>Node4&#45;&gt;Node5</title>
<g id="a_edge4_Node000004_Node000005"><a xlink:title=" ">
<path fill="none" stroke="#63b8ff" d="M304.81,-55.59C271.42,-46.67 221.02,-33.19 184.36,-23.39"/>
<polygon fill="#63b8ff" stroke="#63b8ff" points="185.49,-20.07 174.92,-20.87 183.68,-26.83 185.49,-20.07"/>
</a>
</g>
</g>
<!-- Node6 -->
<g id="Node000006" class="node">
<title>Node6</title>
<g id="a_Node000006"><a xlink:title=" ">
<polygon fill="#e0e0e0" stroke="#999999" points="298.25,-20 235.75,-20 235.75,0 298.25,0 298.25,-20"/>
<text xml:space="preserve" text-anchor="middle" x="267" y="-6.5" font-family="Helvetica,sans-Serif" font-size="10.00">windows.h</text>
</a>
</g>
</g>
<!-- Node4&#45;&gt;Node6 -->
<g id="edge5_Node000004_Node000006" class="edge">
<title>Node4&#45;&gt;Node6</title>
<g id="a_edge5_Node000004_Node000006"><a xlink:title=" ">
<path fill="none" stroke="#63b8ff" d="M327.28,-55.59C316.61,-47.7 301.12,-36.24 288.52,-26.92"/>
<polygon fill="#63b8ff" stroke="#63b8ff" points="290.91,-24.33 280.79,-21.2 286.74,-29.96 290.91,-24.33"/>
</a>
</g>
</g>
<!-- Node7 -->
<g id="Node000007" class="node">
<title>Node7</title>
<g id="a_Node000007"><a xlink:title=" ">
<polygon fill="#e0e0e0" stroke="#999999" points="364.12,-20 315.88,-20 315.88,0 364.12,0 364.12,-20"/>
<text xml:space="preserve" text-anchor="middle" x="340" y="-6.5" font-family="Helvetica,sans-Serif" font-size="10.00">cassert</text>
</a>
</g>
</g>
<!-- Node4&#45;&gt;Node7 -->
<g id="edge6_Node000004_Node000007" class="edge">
<title>Node4&#45;&gt;Node7</title>
<g id="a_edge6_Node000004_Node000007"><a xlink:title=" ">
<path fill="none" stroke="#63b8ff" d="M340,-55.59C340,-49.01 340,-39.96 340,-31.73"/>
<polygon fill="#63b8ff" stroke="#63b8ff" points="343.5,-31.81 340,-21.81 336.5,-31.81 343.5,-31.81"/>
</a>
</g>
</g>
<!-- Node8 -->
<g id="Node000008" class="node">
<title>Node8</title>
<g id="a_Node000008"><a xlink:title=" ">
<polygon fill="#e0e0e0" stroke="#999999" points="430.12,-20 381.88,-20 381.88,0 430.12,0 430.12,-20"/>
<text xml:space="preserve" text-anchor="middle" x="406" y="-6.5" font-family="Helvetica,sans-Serif" font-size="10.00">cstddef</text>
</a>
</g>
</g>
<!-- Node4&#45;&gt;Node8 -->
<g id="edge7_Node000004_Node000008" class="edge">
<title>Node4&#45;&gt;Node8</title>
<g id="a_edge7_Node000004_Node000008"><a xlink:title=" ">
<path fill="none" stroke="#63b8ff" d="M351.5,-55.59C360.96,-47.85 374.6,-36.69 385.87,-27.47"/>
<polygon fill="#63b8ff" stroke="#63b8ff" points="387.94,-30.3 393.46,-21.26 383.51,-24.88 387.94,-30.3"/>
</a>
</g>
</g>
<!-- Node9 -->
<g id="Node000009" class="node">
<title>Node9</title>
<g id="a_Node000009"><a xlink:title=" ">
<polygon fill="#e0e0e0" stroke="#999999" points="493.62,-20 448.38,-20 448.38,0 493.62,0 493.62,-20"/>
<text xml:space="preserve" text-anchor="middle" x="471" y="-6.5" font-family="Helvetica,sans-Serif" font-size="10.00">cstdint</text>
</a>
</g>
</g>
<!-- Node4&#45;&gt;Node9 -->
<g id="edge8_Node000004_Node000009" class="edge">
<title>Node4&#45;&gt;Node9</title>
<g id="a_edge8_Node000004_Node000009"><a xlink:title=" ">
<path fill="none" stroke="#63b8ff" d="M362.82,-55.59C383.45,-47.09 414.08,-34.46 437.49,-24.81"/>
<polygon fill="#63b8ff" stroke="#63b8ff" points="438.69,-28.1 446.6,-21.06 436.02,-21.63 438.69,-28.1"/>
</a>
</g>
</g>
<!-- Node10 -->
<g id="Node000010" class="node">
<title>Node10</title>
<g id="a_Node000010"><a xlink:title=" ">
<polygon fill="#e0e0e0" stroke="#999999" points="564.38,-20 511.62,-20 511.62,0 564.38,0 564.38,-20"/>
<text xml:space="preserve" text-anchor="middle" x="538" y="-6.5" font-family="Helvetica,sans-Serif" font-size="10.00">cstdbool</text>
</a>
</g>
</g>
<!-- Node4&#45;&gt;Node10 -->
<g id="edge9_Node000004_Node000010" class="edge">
<title>Node4&#45;&gt;Node10</title>
<g id="a_edge9_Node000004_Node000010"><a xlink:title=" ">
<path fill="none" stroke="#63b8ff" d="M374.49,-55.59C409.58,-46.02 463.83,-31.23 500.1,-21.34"/>
<polygon fill="#63b8ff" stroke="#63b8ff" points="501.01,-24.72 509.74,-18.71 499.17,-17.96 501.01,-24.72"/>
</a>
</g>
</g>
<!-- Node11 -->
<g id="Node000011" class="node">
<title>Node11</title>
<g id="a_Node000011"><a xlink:title=" ">
<polygon fill="#e0e0e0" stroke="#999999" points="637.12,-20 582.88,-20 582.88,0 637.12,0 637.12,-20"/>
<text xml:space="preserve" text-anchor="middle" x="610" y="-6.5" font-family="Helvetica,sans-Serif" font-size="10.00">crtdefs.h</text>
</a>
</g>
</g>
<!-- Node4&#45;&gt;Node11 -->
<g id="edge11_Node000004_Node000011" class="edge">
<title>Node4&#45;&gt;Node11</title>
<g id="a_edge11_Node000004_Node000011"><a xlink:title=" ">
<path fill="none" stroke="#63b8ff" d="M392.89,-55.53C437.81,-47.32 504.24,-34.78 571.72,-20.19"/>
<polygon fill="#63b8ff" stroke="#63b8ff" points="572.05,-23.7 581.08,-18.15 570.56,-16.86 572.05,-23.7"/>
</a>
</g>
</g>
</g>
</svg>
