<?xml version="1.0" encoding="UTF-8" standalone="no"?>
<!DOCTYPE svg PUBLIC "-//W3C//DTD SVG 1.1//EN"
 "http://www.w3.org/Graphics/SVG/1.1/DTD/svg11.dtd">
<!-- Generated by graphviz version 13.1.0 (20250701.0955)
 -->
<!-- Title: FIEAGameEngine/include/FIEAGameEngine/List.inl Pages: 1 -->
<svg width="137pt" height="164pt"
 viewBox="0.00 0.00 137.00 164.00" xmlns="http://www.w3.org/2000/svg" xmlns:xlink="http://www.w3.org/1999/xlink">
<g id="graph0" class="graph" transform="scale(1 1) rotate(0) translate(4 160)">
<title>FIEAGameEngine/include/FIEAGameEngine/List.inl</title>
<!-- Node1 -->
<g id="Node000001" class="node">
<title>Node1</title>
<g id="a_Node000001"><a xlink:title=" ">
<polygon fill="#999999" stroke="#666666" points="129.25,-156 0,-156 0,-124 129.25,-124 129.25,-156"/>
<text xml:space="preserve" text-anchor="start" x="8" y="-142.5" font-family="Helvetica,sans-Serif" font-size="10.00">FIEAGameEngine/include</text>
<text xml:space="preserve" text-anchor="middle" x="64.62" y="-130.5" font-family="Helvetica,sans-Serif" font-size="10.00">/FIEAGameEngine/List.inl</text>
</a>
</g>
</g>
<!-- Node2 -->
<g id="Node000002" class="node">
<title>Node2</title>
<g id="a_Node000002"><a xlink:href="_list_8h.html" target="_top" xlink:title=" ">
<polygon fill="white" stroke="#666666" points="128.88,-88 0.38,-88 0.38,-56 128.88,-56 128.88,-88"/>
<text xml:space="preserve" text-anchor="start" x="8.38" y="-74.5" font-family="Helvetica,sans-Serif" font-size="10.00">FIEAGameEngine/include</text>
<text xml:space="preserve" text-anchor="middle" x="64.62" y="-62.5" font-family="Helvetica,sans-Serif" font-size="10.00">/FIEAGameEngine/List.h</text>
</a>
</g>
</g>
<!-- Node1&#45;&gt;Node2 -->
<g id="edge1_Node000001_Node000002" class="edge">
<title>Node1&#45;&gt;Node2</title>
<g id="a_edge1_Node000001_Node000002"><a xlink:title=" ">
<path fill="none" stroke="#63b8ff" d="M57.99,-112.31C57.69,-104.12 57.98,-95.38 58.83,-88.22"/>
<polygon fill="#63b8ff" stroke="#63b8ff" points="54.49,-112.47 58.71,-122.18 61.47,-111.95 54.49,-112.47"/>
</a>
</g>
</g>
<!-- Node2&#45;&gt;Node1 -->
<g id="edge2_Node000002_Node000001" class="edge">
<title>Node2&#45;&gt;Node1</title>
<g id="a_edge2_Node000002_Node000001"><a xlink:title=" ">
<path fill="none" stroke="#63b8ff" d="M71.26,-99.59C71.56,-107.79 71.28,-116.53 70.43,-123.69"/>
<polygon fill="#63b8ff" stroke="#63b8ff" points="74.76,-99.45 70.53,-89.73 67.78,-99.97 74.76,-99.45"/>
</a>
</g>
</g>
<!-- Node3 -->
<g id="Node000003" class="node">
<title>Node3</title>
<g id="a_Node000003"><a xlink:href="_list_tests_8cpp.html" target="_top" xlink:title=" ">
<polygon fill="white" stroke="#666666" points="115.38,-20 13.88,-20 13.88,0 115.38,0 115.38,-20"/>
<text xml:space="preserve" text-anchor="middle" x="64.62" y="-6.5" font-family="Helvetica,sans-Serif" font-size="10.00">Tests/ListTests.cpp</text>
</a>
</g>
</g>
<!-- Node2&#45;&gt;Node3 -->
<g id="edge3_Node000002_Node000003" class="edge">
<title>Node2&#45;&gt;Node3</title>
<g id="a_edge3_Node000002_Node000003"><a xlink:title=" ">
<path fill="none" stroke="#63b8ff" d="M64.62,-44.08C64.62,-35.6 64.62,-26.8 64.62,-20.41"/>
<polygon fill="#63b8ff" stroke="#63b8ff" points="61.13,-44.03 64.63,-54.03 68.13,-44.03 61.13,-44.03"/>
</a>
</g>
</g>
</g>
</svg>
