<?xml version="1.0" encoding="UTF-8" standalone="no"?>
<!DOCTYPE svg PUBLIC "-//W3C//DTD SVG 1.1//EN"
 "http://www.w3.org/Graphics/SVG/1.1/DTD/svg11.dtd">
<!-- Generated by graphviz version 13.1.0 (20250701.0955)
 -->
<!-- Title: FIEAGameEngine/include/FIEAGameEngine/List.h Pages: 1 -->
<svg width="137pt" height="96pt"
 viewBox="0.00 0.00 137.00 96.00" xmlns="http://www.w3.org/2000/svg" xmlns:xlink="http://www.w3.org/1999/xlink">
<g id="graph0" class="graph" transform="scale(1 1) rotate(0) translate(4 92)">
<title>FIEAGameEngine/include/FIEAGameEngine/List.h</title>
<!-- Node1 -->
<g id="Node000001" class="node">
<title>Node1</title>
<g id="a_Node000001"><a xlink:title=" ">
<polygon fill="#999999" stroke="#666666" points="128.5,-88 0,-88 0,-56 128.5,-56 128.5,-88"/>
<text xml:space="preserve" text-anchor="start" x="8" y="-74.5" font-family="Helvetica,sans-Serif" font-size="10.00">FIEAGameEngine/include</text>
<text xml:space="preserve" text-anchor="middle" x="64.25" y="-62.5" font-family="Helvetica,sans-Serif" font-size="10.00">/FIEAGameEngine/List.h</text>
</a>
</g>
</g>
<!-- Node2 -->
<g id="Node000002" class="node">
<title>Node2</title>
<g id="a_Node000002"><a xlink:href="_list_8inl.html" target="_top" xlink:title=" ">
<polygon fill="white" stroke="#666666" points="127.38,-20 1.12,-20 1.12,0 127.38,0 127.38,-20"/>
<text xml:space="preserve" text-anchor="middle" x="64.25" y="-6.5" font-family="Helvetica,sans-Serif" font-size="10.00">FIEAGameEngine/List.inl</text>
</a>
</g>
</g>
<!-- Node1&#45;&gt;Node2 -->
<g id="edge1_Node000001_Node000002" class="edge">
<title>Node1&#45;&gt;Node2</title>
<g id="a_edge1_Node000001_Node000002"><a xlink:title=" ">
<path fill="none" stroke="#63b8ff" d="M58.26,-55.55C57.43,-48.26 57.28,-39.45 57.8,-31.6"/>
<polygon fill="#63b8ff" stroke="#63b8ff" points="61.25,-32.26 59,-21.91 54.3,-31.41 61.25,-32.26"/>
</a>
</g>
</g>
<!-- Node2&#45;&gt;Node1 -->
<g id="edge2_Node000002_Node000001" class="edge">
<title>Node2&#45;&gt;Node1</title>
<g id="a_edge2_Node000002_Node000001"><a xlink:title=" ">
<path fill="none" stroke="#63b8ff" d="M69.32,-20.41C70.59,-26.8 71.14,-35.6 70.97,-44.08"/>
<polygon fill="#63b8ff" stroke="#63b8ff" points="67.48,-43.84 70.33,-54.04 74.46,-44.28 67.48,-43.84"/>
</a>
</g>
</g>
</g>
</svg>
