<?xml version="1.0" encoding="UTF-8" standalone="no"?>
<!DOCTYPE svg PUBLIC "-//W3C//DTD SVG 1.1//EN"
 "http://www.w3.org/Graphics/SVG/1.1/DTD/svg11.dtd">
<!-- Generated by graphviz version 13.1.0 (20250701.0955)
 -->
<!-- Title: FIEAGameEngine/src/Memory/MemoryService.cpp Pages: 1 -->
<svg width="777pt" height="264pt"
 viewBox="0.00 0.00 777.00 264.00" xmlns="http://www.w3.org/2000/svg" xmlns:xlink="http://www.w3.org/1999/xlink">
<g id="graph0" class="graph" transform="scale(1 1) rotate(0) translate(4 260)">
<title>FIEAGameEngine/src/Memory/MemoryService.cpp</title>
<!-- Node1 -->
<g id="Node000001" class="node">
<title>Node1</title>
<g id="a_Node000001"><a xlink:title=" ">
<polygon fill="#999999" stroke="#666666" points="615.12,-256 470.88,-256 470.88,-224 615.12,-224 615.12,-256"/>
<text xml:space="preserve" text-anchor="start" x="478.88" y="-242.5" font-family="Helvetica,sans-Serif" font-size="10.00">FIEAGameEngine/src</text>
<text xml:space="preserve" text-anchor="middle" x="543" y="-230.5" font-family="Helvetica,sans-Serif" font-size="10.00">/Memory/MemoryService.cpp</text>
</a>
</g>
</g>
<!-- Node2 -->
<g id="Node000002" class="node">
<title>Node2</title>
<g id="a_Node000002"><a xlink:href="_types_8h.html" target="_top" xlink:title=" ">
<polygon fill="white" stroke="#666666" points="422.12,-76 289.88,-76 289.88,-56 422.12,-56 422.12,-76"/>
<text xml:space="preserve" text-anchor="middle" x="356" y="-62.5" font-family="Helvetica,sans-Serif" font-size="10.00">FIEAGameEngine/Types.h</text>
</a>
</g>
</g>
<!-- Node1&#45;&gt;Node2 -->
<g id="edge1_Node000001_Node000002" class="edge">
<title>Node1&#45;&gt;Node2</title>
<g id="a_edge1_Node000001_Node000002"><a xlink:title=" ">
<path fill="none" stroke="#63b8ff" d="M503.5,-223.65C465.18,-206.79 408.12,-176.11 375,-132 365.27,-119.04 360.51,-101.2 358.19,-87.49"/>
<polygon fill="#63b8ff" stroke="#63b8ff" points="361.69,-87.25 356.87,-77.81 354.75,-88.19 361.69,-87.25"/>
</a>
</g>
</g>
<!-- Node11 -->
<g id="Node000011" class="node">
<title>Node11</title>
<g id="a_Node000011"><a xlink:href="_memory_service_8h.html" target="_top" xlink:title=" ">
<polygon fill="white" stroke="#666666" points="328.12,-188 153.88,-188 153.88,-168 328.12,-168 328.12,-188"/>
<text xml:space="preserve" text-anchor="middle" x="241" y="-174.5" font-family="Helvetica,sans-Serif" font-size="10.00">FIEAGameEngine/MemoryService.h</text>
</a>
</g>
</g>
<!-- Node1&#45;&gt;Node11 -->
<g id="edge10_Node000001_Node000011" class="edge">
<title>Node1&#45;&gt;Node11</title>
<g id="a_edge10_Node000001_Node000011"><a xlink:title=" ">
<path fill="none" stroke="#63b8ff" d="M470.66,-224.63C418.37,-214.24 348.62,-200.38 299.76,-190.67"/>
<polygon fill="#63b8ff" stroke="#63b8ff" points="300.71,-187.3 290.22,-188.78 299.35,-194.16 300.71,-187.3"/>
</a>
</g>
</g>
<!-- Node13 -->
<g id="Node000013" class="node">
<title>Node13</title>
<g id="a_Node000013"><a xlink:title=" ">
<polygon fill="#e0e0e0" stroke="#999999" points="523.38,-76 440.62,-76 440.62,-56 523.38,-56 523.38,-76"/>
<text xml:space="preserve" text-anchor="middle" x="482" y="-62.5" font-family="Helvetica,sans-Serif" font-size="10.00">unordered_map</text>
</a>
</g>
</g>
<!-- Node1&#45;&gt;Node13 -->
<g id="edge24_Node000001_Node000013" class="edge">
<title>Node1&#45;&gt;Node13</title>
<g id="a_edge24_Node000001_Node000013"><a xlink:title=" ">
<path fill="none" stroke="#63b8ff" d="M537.58,-223.76C530.21,-203.01 516.59,-164.7 505,-132 499.67,-116.95 493.65,-99.94 489.1,-87.1"/>
<polygon fill="#63b8ff" stroke="#63b8ff" points="492.41,-85.95 485.78,-77.69 485.81,-88.28 492.41,-85.95"/>
</a>
</g>
</g>
<!-- Node14 -->
<g id="Node000014" class="node">
<title>Node14</title>
<g id="a_Node000014"><a xlink:href="_heap_8h.html" target="_top" xlink:title=" ">
<polygon fill="white" stroke="#666666" points="636.75,-132 589.25,-132 589.25,-112 636.75,-112 636.75,-132"/>
<text xml:space="preserve" text-anchor="middle" x="613" y="-118.5" font-family="Helvetica,sans-Serif" font-size="10.00">Heap.h</text>
</a>
</g>
</g>
<!-- Node1&#45;&gt;Node14 -->
<g id="edge16_Node000001_Node000014" class="edge">
<title>Node1&#45;&gt;Node14</title>
<g id="a_edge16_Node000001_Node000014"><a xlink:title=" ">
<path fill="none" stroke="#63b8ff" d="M550.47,-223.73C557.76,-209.13 569.44,-186.66 581,-168 586.54,-159.06 593.21,-149.52 599.02,-141.54"/>
<polygon fill="#63b8ff" stroke="#63b8ff" points="601.73,-143.75 604.87,-133.63 596.11,-139.59 601.73,-143.75"/>
</a>
</g>
</g>
<!-- Node15 -->
<g id="Node000015" class="node">
<title>Node15</title>
<g id="a_Node000015"><a xlink:href="_tracker_8h.html" target="_top" xlink:title=" ">
<polygon fill="white" stroke="#666666" points="571.62,-132 514.38,-132 514.38,-112 571.62,-112 571.62,-132"/>
<text xml:space="preserve" text-anchor="middle" x="543" y="-118.5" font-family="Helvetica,sans-Serif" font-size="10.00">Tracker.h</text>
</a>
</g>
</g>
<!-- Node1&#45;&gt;Node15 -->
<g id="edge18_Node000001_Node000015" class="edge">
<title>Node1&#45;&gt;Node15</title>
<g id="a_edge18_Node000001_Node000015"><a xlink:title=" ">
<path fill="none" stroke="#63b8ff" d="M543,-223.84C543,-203.41 543,-166.97 543,-143.95"/>
<polygon fill="#63b8ff" stroke="#63b8ff" points="546.5,-143.95 543,-133.95 539.5,-143.95 546.5,-143.95"/>
</a>
</g>
</g>
<!-- Node19 -->
<g id="Node000019" class="node">
<title>Node19</title>
<g id="a_Node000019"><a xlink:title=" ">
<polygon fill="#e0e0e0" stroke="#999999" points="643.75,-188 590.25,-188 590.25,-168 643.75,-168 643.75,-188"/>
<text xml:space="preserve" text-anchor="middle" x="617" y="-174.5" font-family="Helvetica,sans-Serif" font-size="10.00">iostream</text>
</a>
</g>
</g>
<!-- Node1&#45;&gt;Node19 -->
<g id="edge25_Node000001_Node000019" class="edge">
<title>Node1&#45;&gt;Node19</title>
<g id="a_edge25_Node000001_Node000019"><a xlink:title=" ">
<path fill="none" stroke="#63b8ff" d="M562.06,-223.55C572.66,-214.95 585.85,-204.26 596.65,-195.5"/>
<polygon fill="#63b8ff" stroke="#63b8ff" points="598.66,-198.38 604.22,-189.36 594.25,-192.94 598.66,-198.38"/>
</a>
</g>
</g>
<!-- Node20 -->
<g id="Node000020" class="node">
<title>Node20</title>
<g id="a_Node000020"><a xlink:title=" ">
<polygon fill="#e0e0e0" stroke="#999999" points="710.5,-188 661.5,-188 661.5,-168 710.5,-168 710.5,-188"/>
<text xml:space="preserve" text-anchor="middle" x="686" y="-174.5" font-family="Helvetica,sans-Serif" font-size="10.00">fstream</text>
</a>
</g>
</g>
<!-- Node1&#45;&gt;Node20 -->
<g id="edge26_Node000001_Node000020" class="edge">
<title>Node1&#45;&gt;Node20</title>
<g id="a_edge26_Node000001_Node000020"><a xlink:title=" ">
<path fill="none" stroke="#63b8ff" d="M579.83,-223.55C602.48,-214.04 631.26,-201.97 653.14,-192.79"/>
<polygon fill="#63b8ff" stroke="#63b8ff" points="654.31,-196.09 662.18,-188.99 651.61,-189.64 654.31,-196.09"/>
</a>
</g>
</g>
<!-- Node21 -->
<g id="Node000021" class="node">
<title>Node21</title>
<g id="a_Node000021"><a xlink:title=" ">
<polygon fill="#e0e0e0" stroke="#999999" points="769,-188 729,-188 729,-168 769,-168 769,-188"/>
<text xml:space="preserve" text-anchor="middle" x="749" y="-174.5" font-family="Helvetica,sans-Serif" font-size="10.00">stack</text>
</a>
</g>
</g>
<!-- Node1&#45;&gt;Node21 -->
<g id="edge27_Node000001_Node000021" class="edge">
<title>Node1&#45;&gt;Node21</title>
<g id="a_edge27_Node000001_Node000021"><a xlink:title=" ">
<path fill="none" stroke="#63b8ff" d="M597.7,-223.55C630.12,-214.32 672.28,-202.2 717.74,-188.64"/>
<polygon fill="#63b8ff" stroke="#63b8ff" points="718.71,-192 727.28,-185.78 716.7,-185.29 718.71,-192"/>
</a>
</g>
</g>
<!-- Node3 -->
<g id="Node000003" class="node">
<title>Node3</title>
<g id="a_Node000003"><a xlink:title=" ">
<polygon fill="#e0e0e0" stroke="#999999" points="160,-20 0,-20 0,0 160,0 160,-20"/>
<text xml:space="preserve" text-anchor="middle" x="80" y="-6.5" font-family="Helvetica,sans-Serif" font-size="10.00">../src/Memory/SystemAllocator.h</text>
</a>
</g>
</g>
<!-- Node2&#45;&gt;Node3 -->
<g id="edge2_Node000002_Node000003" class="edge">
<title>Node2&#45;&gt;Node3</title>
<g id="a_edge2_Node000002_Node000003"><a xlink:title=" ">
<path fill="none" stroke="#63b8ff" d="M307.61,-55.53C260.75,-46.36 189.61,-32.45 139.36,-22.61"/>
<polygon fill="#63b8ff" stroke="#63b8ff" points="140.31,-19.23 129.82,-20.75 138.96,-26.1 140.31,-19.23"/>
</a>
</g>
</g>
<!-- Node4 -->
<g id="Node000004" class="node">
<title>Node4</title>
<g id="a_Node000004"><a xlink:title=" ">
<polygon fill="#e0e0e0" stroke="#999999" points="383.25,-20 320.75,-20 320.75,0 383.25,0 383.25,-20"/>
<text xml:space="preserve" text-anchor="middle" x="352" y="-6.5" font-family="Helvetica,sans-Serif" font-size="10.00">windows.h</text>
</a>
</g>
</g>
<!-- Node2&#45;&gt;Node4 -->
<g id="edge3_Node000002_Node000004" class="edge">
<title>Node2&#45;&gt;Node4</title>
<g id="a_edge3_Node000002_Node000004"><a xlink:title=" ">
<path fill="none" stroke="#63b8ff" d="M355.3,-55.59C354.82,-49.01 354.15,-39.96 353.54,-31.73"/>
<polygon fill="#63b8ff" stroke="#63b8ff" points="357.03,-31.52 352.8,-21.81 350.05,-32.04 357.03,-31.52"/>
</a>
</g>
</g>
<!-- Node5 -->
<g id="Node000005" class="node">
<title>Node5</title>
<g id="a_Node000005"><a xlink:title=" ">
<polygon fill="#e0e0e0" stroke="#999999" points="449.12,-20 400.88,-20 400.88,0 449.12,0 449.12,-20"/>
<text xml:space="preserve" text-anchor="middle" x="425" y="-6.5" font-family="Helvetica,sans-Serif" font-size="10.00">cassert</text>
</a>
</g>
</g>
<!-- Node2&#45;&gt;Node5 -->
<g id="edge4_Node000002_Node000005" class="edge">
<title>Node2&#45;&gt;Node5</title>
<g id="a_edge4_Node000002_Node000005"><a xlink:title=" ">
<path fill="none" stroke="#63b8ff" d="M368.02,-55.59C378.01,-47.77 392.46,-36.46 404.31,-27.19"/>
<polygon fill="#63b8ff" stroke="#63b8ff" points="406.21,-30.15 411.93,-21.23 401.89,-24.64 406.21,-30.15"/>
</a>
</g>
</g>
<!-- Node6 -->
<g id="Node000006" class="node">
<title>Node6</title>
<g id="a_Node000006"><a xlink:title=" ">
<polygon fill="#e0e0e0" stroke="#999999" points="515.12,-20 466.88,-20 466.88,0 515.12,0 515.12,-20"/>
<text xml:space="preserve" text-anchor="middle" x="491" y="-6.5" font-family="Helvetica,sans-Serif" font-size="10.00">cstddef</text>
</a>
</g>
</g>
<!-- Node2&#45;&gt;Node6 -->
<g id="edge5_Node000002_Node000006" class="edge">
<title>Node2&#45;&gt;Node6</title>
<g id="a_edge5_Node000002_Node000006"><a xlink:title=" ">
<path fill="none" stroke="#63b8ff" d="M379.52,-55.59C400.87,-47.05 432.63,-34.35 456.8,-24.68"/>
<polygon fill="#63b8ff" stroke="#63b8ff" points="457.91,-28.01 465.9,-21.04 455.31,-21.51 457.91,-28.01"/>
</a>
</g>
</g>
<!-- Node7 -->
<g id="Node000007" class="node">
<title>Node7</title>
<g id="a_Node000007"><a xlink:title=" ">
<polygon fill="#e0e0e0" stroke="#999999" points="578.62,-20 533.38,-20 533.38,0 578.62,0 578.62,-20"/>
<text xml:space="preserve" text-anchor="middle" x="556" y="-6.5" font-family="Helvetica,sans-Serif" font-size="10.00">cstdint</text>
</a>
</g>
</g>
<!-- Node2&#45;&gt;Node7 -->
<g id="edge6_Node000002_Node000007" class="edge">
<title>Node2&#45;&gt;Node7</title>
<g id="a_edge6_Node000002_Node000007"><a xlink:title=" ">
<path fill="none" stroke="#63b8ff" d="M391.76,-55.56C423.53,-47.14 471.52,-34.35 522.11,-20.5"/>
<polygon fill="#63b8ff" stroke="#63b8ff" points="522.76,-23.95 531.48,-17.92 520.91,-17.2 522.76,-23.95"/>
</a>
</g>
</g>
<!-- Node8 -->
<g id="Node000008" class="node">
<title>Node8</title>
<g id="a_Node000008"><a xlink:title=" ">
<polygon fill="#e0e0e0" stroke="#999999" points="230.38,-20 177.62,-20 177.62,0 230.38,0 230.38,-20"/>
<text xml:space="preserve" text-anchor="middle" x="204" y="-6.5" font-family="Helvetica,sans-Serif" font-size="10.00">cstdbool</text>
</a>
</g>
</g>
<!-- Node2&#45;&gt;Node8 -->
<g id="edge7_Node000002_Node000008" class="edge">
<title>Node2&#45;&gt;Node8</title>
<g id="a_edge7_Node000002_Node000008"><a xlink:title=" ">
<path fill="none" stroke="#63b8ff" d="M329.52,-55.59C305.15,-46.94 268.75,-34 241.41,-24.29"/>
<polygon fill="#63b8ff" stroke="#63b8ff" points="242.7,-21.04 232.11,-20.99 240.36,-27.63 242.7,-21.04"/>
</a>
</g>
</g>
<!-- Node9 -->
<g id="Node000009" class="node">
<title>Node9</title>
<g id="a_Node000009"><a xlink:title=" ">
<polygon fill="#e0e0e0" stroke="#999999" points="637,-20 597,-20 597,0 637,0 637,-20"/>
<text xml:space="preserve" text-anchor="middle" x="617" y="-6.5" font-family="Helvetica,sans-Serif" font-size="10.00">string</text>
</a>
</g>
</g>
<!-- Node2&#45;&gt;Node9 -->
<g id="edge8_Node000002_Node000009" class="edge">
<title>Node2&#45;&gt;Node9</title>
<g id="a_edge8_Node000002_Node000009"><a xlink:title=" ">
<path fill="none" stroke="#63b8ff" d="M414.07,-55.55C458.65,-47.89 521.93,-36.13 585.72,-20.36"/>
<polygon fill="#63b8ff" stroke="#63b8ff" points="586.48,-23.77 595.33,-17.95 584.78,-16.98 586.48,-23.77"/>
</a>
</g>
</g>
<!-- Node10 -->
<g id="Node000010" class="node">
<title>Node10</title>
<g id="a_Node000010"><a xlink:title=" ">
<polygon fill="#e0e0e0" stroke="#999999" points="303.12,-20 248.88,-20 248.88,0 303.12,0 303.12,-20"/>
<text xml:space="preserve" text-anchor="middle" x="276" y="-6.5" font-family="Helvetica,sans-Serif" font-size="10.00">crtdefs.h</text>
</a>
</g>
</g>
<!-- Node2&#45;&gt;Node10 -->
<g id="edge9_Node000002_Node000010" class="edge">
<title>Node2&#45;&gt;Node10</title>
<g id="a_edge9_Node000002_Node000010"><a xlink:title=" ">
<path fill="none" stroke="#63b8ff" d="M342.07,-55.59C330.32,-47.67 313.27,-36.16 299.43,-26.82"/>
<polygon fill="#63b8ff" stroke="#63b8ff" points="301.54,-24.02 291.3,-21.33 297.63,-29.82 301.54,-24.02"/>
</a>
</g>
</g>
<!-- Node11&#45;&gt;Node2 -->
<g id="edge11_Node000011_Node000002" class="edge">
<title>Node11&#45;&gt;Node2</title>
<g id="a_edge11_Node000011_Node000002"><a xlink:title=" ">
<path fill="none" stroke="#63b8ff" d="M250.8,-167.62C270.16,-149.11 313.51,-107.65 338.09,-84.13"/>
<polygon fill="#63b8ff" stroke="#63b8ff" points="340.32,-86.84 345.13,-77.4 335.48,-81.78 340.32,-86.84"/>
</a>
</g>
</g>
<!-- Node11&#45;&gt;Node3 -->
<g id="edge15_Node000011_Node000003" class="edge">
<title>Node11&#45;&gt;Node3</title>
<g id="a_edge15_Node000011_Node000003"><a xlink:title=" ">
<path fill="none" stroke="#63b8ff" d="M231.88,-167.6C205.76,-140.66 130.35,-62.92 96.64,-28.15"/>
<polygon fill="#63b8ff" stroke="#63b8ff" points="99.55,-26.13 90.07,-21.38 94.52,-31 99.55,-26.13"/>
</a>
</g>
</g>
<!-- Node12 -->
<g id="Node000012" class="node">
<title>Node12</title>
<g id="a_Node000012"><a xlink:href="_service_mgr_8h.html" target="_top" xlink:title=" ">
<polygon fill="white" stroke="#666666" points="457.88,-132 384.12,-132 384.12,-112 457.88,-112 457.88,-132"/>
<text xml:space="preserve" text-anchor="middle" x="421" y="-118.5" font-family="Helvetica,sans-Serif" font-size="10.00">ServiceMgr.h</text>
</a>
</g>
</g>
<!-- Node11&#45;&gt;Node12 -->
<g id="edge12_Node000011_Node000012" class="edge">
<title>Node11&#45;&gt;Node12</title>
<g id="a_edge12_Node000011_Node000012"><a xlink:title=" ">
<path fill="none" stroke="#63b8ff" d="M272.35,-167.59C301.73,-158.78 345.86,-145.54 378.41,-135.78"/>
<polygon fill="#63b8ff" stroke="#63b8ff" points="379.38,-139.14 387.95,-132.91 377.37,-132.44 379.38,-139.14"/>
</a>
</g>
</g>
<!-- Node12&#45;&gt;Node2 -->
<g id="edge13_Node000012_Node000002" class="edge">
<title>Node12&#45;&gt;Node2</title>
<g id="a_edge13_Node000012_Node000002"><a xlink:title=" ">
<path fill="none" stroke="#63b8ff" d="M409.68,-111.59C400.36,-103.85 386.92,-92.69 375.82,-83.47"/>
<polygon fill="#63b8ff" stroke="#63b8ff" points="378.29,-80.96 368.36,-77.27 373.81,-86.35 378.29,-80.96"/>
</a>
</g>
</g>
<!-- Node12&#45;&gt;Node13 -->
<g id="edge14_Node000012_Node000013" class="edge">
<title>Node12&#45;&gt;Node13</title>
<g id="a_edge14_Node000012_Node000013"><a xlink:title=" ">
<path fill="none" stroke="#63b8ff" d="M431.63,-111.59C440.28,-103.93 452.73,-92.91 463.08,-83.75"/>
<polygon fill="#63b8ff" stroke="#63b8ff" points="465.2,-86.55 470.36,-77.3 460.56,-81.31 465.2,-86.55"/>
</a>
</g>
</g>
<!-- Node14&#45;&gt;Node9 -->
<g id="edge17_Node000014_Node000009" class="edge">
<title>Node14&#45;&gt;Node9</title>
<g id="a_edge17_Node000014_Node000009"><a xlink:title=" ">
<path fill="none" stroke="#63b8ff" d="M613.34,-111.62C613.98,-94.01 615.38,-55.59 616.25,-31.65"/>
<polygon fill="#63b8ff" stroke="#63b8ff" points="619.74,-31.99 616.6,-21.87 612.74,-31.73 619.74,-31.99"/>
</a>
</g>
</g>
<!-- Node15&#45;&gt;Node2 -->
<g id="edge19_Node000015_Node000002" class="edge">
<title>Node15&#45;&gt;Node2</title>
<g id="a_edge19_Node000015_Node000002"><a xlink:title=" ">
<path fill="none" stroke="#63b8ff" d="M514.19,-112.68C483.59,-103.84 434.86,-89.77 399.56,-79.58"/>
<polygon fill="#63b8ff" stroke="#63b8ff" points="400.65,-76.25 390.07,-76.84 398.71,-82.98 400.65,-76.25"/>
</a>
</g>
</g>
<!-- Node15&#45;&gt;Node13 -->
<g id="edge22_Node000015_Node000013" class="edge">
<title>Node15&#45;&gt;Node13</title>
<g id="a_edge22_Node000015_Node000013"><a xlink:title=" ">
<path fill="none" stroke="#63b8ff" d="M532.37,-111.59C523.72,-103.93 511.27,-92.91 500.92,-83.75"/>
<polygon fill="#63b8ff" stroke="#63b8ff" points="503.44,-81.31 493.64,-77.3 498.8,-86.55 503.44,-81.31"/>
</a>
</g>
</g>
<!-- Node16 -->
<g id="Node000016" class="node">
<title>Node16</title>
<g id="a_Node000016"><a xlink:href="_system_allocator_8h.html" target="_top" xlink:title=" ">
<polygon fill="white" stroke="#666666" points="737.12,-76 640.88,-76 640.88,-56 737.12,-56 737.12,-76"/>
<text xml:space="preserve" text-anchor="middle" x="689" y="-62.5" font-family="Helvetica,sans-Serif" font-size="10.00">SystemAllocator.h</text>
</a>
</g>
</g>
<!-- Node15&#45;&gt;Node16 -->
<g id="edge20_Node000015_Node000016" class="edge">
<title>Node15&#45;&gt;Node16</title>
<g id="a_edge20_Node000015_Node000016"><a xlink:title=" ">
<path fill="none" stroke="#63b8ff" d="M568.43,-111.59C591.74,-102.97 626.5,-90.12 652.72,-80.42"/>
<polygon fill="#63b8ff" stroke="#63b8ff" points="653.79,-83.76 661.95,-77 651.36,-77.19 653.79,-83.76"/>
</a>
</g>
</g>
<!-- Node18 -->
<g id="Node000018" class="node">
<title>Node18</title>
<g id="a_Node000018"><a xlink:title=" ">
<polygon fill="#e0e0e0" stroke="#999999" points="584.5,-76 541.5,-76 541.5,-56 584.5,-56 584.5,-76"/>
<text xml:space="preserve" text-anchor="middle" x="563" y="-62.5" font-family="Helvetica,sans-Serif" font-size="10.00">vector</text>
</a>
</g>
</g>
<!-- Node15&#45;&gt;Node18 -->
<g id="edge23_Node000015_Node000018" class="edge">
<title>Node15&#45;&gt;Node18</title>
<g id="a_edge23_Node000015_Node000018"><a xlink:title=" ">
<path fill="none" stroke="#63b8ff" d="M546.48,-111.59C549.01,-104.78 552.51,-95.32 555.64,-86.86"/>
<polygon fill="#63b8ff" stroke="#63b8ff" points="558.84,-88.31 559.03,-77.72 552.28,-85.88 558.84,-88.31"/>
</a>
</g>
</g>
<!-- Node17 -->
<g id="Node000017" class="node">
<title>Node17</title>
<g id="a_Node000017"><a xlink:title=" ">
<polygon fill="#e0e0e0" stroke="#999999" points="711.25,-20 666.75,-20 666.75,0 711.25,0 711.25,-20"/>
<text xml:space="preserve" text-anchor="middle" x="689" y="-6.5" font-family="Helvetica,sans-Serif" font-size="10.00">cstdlib</text>
</a>
</g>
</g>
<!-- Node16&#45;&gt;Node17 -->
<g id="edge21_Node000016_Node000017" class="edge">
<title>Node16&#45;&gt;Node17</title>
<g id="a_edge21_Node000016_Node000017"><a xlink:title=" ">
<path fill="none" stroke="#63b8ff" d="M689,-55.59C689,-49.01 689,-39.96 689,-31.73"/>
<polygon fill="#63b8ff" stroke="#63b8ff" points="692.5,-31.81 689,-21.81 685.5,-31.81 692.5,-31.81"/>
</a>
</g>
</g>
</g>
</svg>
