<?xml version="1.0" encoding="UTF-8" standalone="no"?>
<!DOCTYPE svg PUBLIC "-//W3C//DTD SVG 1.1//EN"
 "http://www.w3.org/Graphics/SVG/1.1/DTD/svg11.dtd">
<!-- Generated by graphviz version 13.1.0 (20250701.0955)
 -->
<!-- Title: Tests/Support/NumberAdder.cpp Pages: 1 -->
<svg width="644pt" height="252pt"
 viewBox="0.00 0.00 644.00 252.00" xmlns="http://www.w3.org/2000/svg" xmlns:xlink="http://www.w3.org/1999/xlink">
<g id="graph0" class="graph" transform="scale(1 1) rotate(0) translate(4 248)">
<title>Tests/Support/NumberAdder.cpp</title>
<!-- Node1 -->
<g id="Node000001" class="node">
<title>Node1</title>
<g id="a_Node000001"><a xlink:title=" ">
<polygon fill="#999999" stroke="#666666" points="512.25,-244 353.75,-244 353.75,-224 512.25,-224 512.25,-244"/>
<text xml:space="preserve" text-anchor="middle" x="433" y="-230.5" font-family="Helvetica,sans-Serif" font-size="10.00">Tests/Support/NumberAdder.cpp</text>
</a>
</g>
</g>
<!-- Node2 -->
<g id="Node000002" class="node">
<title>Node2</title>
<g id="a_Node000002"><a xlink:href="_number_adder_8h.html" target="_top" xlink:title=" ">
<polygon fill="white" stroke="#666666" points="475.12,-188 390.88,-188 390.88,-168 475.12,-168 475.12,-188"/>
<text xml:space="preserve" text-anchor="middle" x="433" y="-174.5" font-family="Helvetica,sans-Serif" font-size="10.00">NumberAdder.h</text>
</a>
</g>
</g>
<!-- Node1&#45;&gt;Node2 -->
<g id="edge1_Node000001_Node000002" class="edge">
<title>Node1&#45;&gt;Node2</title>
<g id="a_edge1_Node000001_Node000002"><a xlink:title=" ">
<path fill="none" stroke="#63b8ff" d="M433,-223.59C433,-217.01 433,-207.96 433,-199.73"/>
<polygon fill="#63b8ff" stroke="#63b8ff" points="436.5,-199.81 433,-189.81 429.5,-199.81 436.5,-199.81"/>
</a>
</g>
</g>
<!-- Node3 -->
<g id="Node000003" class="node">
<title>Node3</title>
<g id="a_Node000003"><a xlink:href="_types_8h.html" target="_top" xlink:title=" ">
<polygon fill="white" stroke="#666666" points="446.12,-76 313.88,-76 313.88,-56 446.12,-56 446.12,-76"/>
<text xml:space="preserve" text-anchor="middle" x="380" y="-62.5" font-family="Helvetica,sans-Serif" font-size="10.00">FIEAGameEngine/Types.h</text>
</a>
</g>
</g>
<!-- Node2&#45;&gt;Node3 -->
<g id="edge2_Node000002_Node000003" class="edge">
<title>Node2&#45;&gt;Node3</title>
<g id="a_edge2_Node000002_Node000003"><a xlink:title=" ">
<path fill="none" stroke="#63b8ff" d="M424.33,-167.68C416.7,-159.02 405.77,-145.47 399,-132 391.88,-117.83 386.99,-100.55 383.95,-87.36"/>
<polygon fill="#63b8ff" stroke="#63b8ff" points="387.4,-86.76 381.91,-77.7 380.55,-88.21 387.4,-86.76"/>
</a>
</g>
</g>
<!-- Node12 -->
<g id="Node000012" class="node">
<title>Node12</title>
<g id="a_Node000012"><a xlink:href="_service_mgr_8h.html" target="_top" xlink:title=" ">
<polygon fill="white" stroke="#666666" points="563.75,-132 408.25,-132 408.25,-112 563.75,-112 563.75,-132"/>
<text xml:space="preserve" text-anchor="middle" x="486" y="-118.5" font-family="Helvetica,sans-Serif" font-size="10.00">FIEAGameEngine/ServiceMgr.h</text>
</a>
</g>
</g>
<!-- Node2&#45;&gt;Node12 -->
<g id="edge11_Node000002_Node000012" class="edge">
<title>Node2&#45;&gt;Node12</title>
<g id="a_edge11_Node000002_Node000012"><a xlink:title=" ">
<path fill="none" stroke="#63b8ff" d="M442.23,-167.59C449.6,-160.08 460.13,-149.35 469.02,-140.3"/>
<polygon fill="#63b8ff" stroke="#63b8ff" points="471.31,-142.97 475.81,-133.38 466.31,-138.06 471.31,-142.97"/>
</a>
</g>
</g>
<!-- Node4 -->
<g id="Node000004" class="node">
<title>Node4</title>
<g id="a_Node000004"><a xlink:title=" ">
<polygon fill="#e0e0e0" stroke="#999999" points="160,-20 0,-20 0,0 160,0 160,-20"/>
<text xml:space="preserve" text-anchor="middle" x="80" y="-6.5" font-family="Helvetica,sans-Serif" font-size="10.00">../src/Memory/SystemAllocator.h</text>
</a>
</g>
</g>
<!-- Node3&#45;&gt;Node4 -->
<g id="edge3_Node000003_Node000004" class="edge">
<title>Node3&#45;&gt;Node4</title>
<g id="a_edge3_Node000003_Node000004"><a xlink:title=" ">
<path fill="none" stroke="#63b8ff" d="M327.4,-55.53C276.26,-46.33 198.5,-32.33 143.83,-22.49"/>
<polygon fill="#63b8ff" stroke="#63b8ff" points="144.49,-19.05 134.03,-20.73 143.25,-25.94 144.49,-19.05"/>
</a>
</g>
</g>
<!-- Node5 -->
<g id="Node000005" class="node">
<title>Node5</title>
<g id="a_Node000005"><a xlink:title=" ">
<polygon fill="#e0e0e0" stroke="#999999" points="240.25,-20 177.75,-20 177.75,0 240.25,0 240.25,-20"/>
<text xml:space="preserve" text-anchor="middle" x="209" y="-6.5" font-family="Helvetica,sans-Serif" font-size="10.00">windows.h</text>
</a>
</g>
</g>
<!-- Node3&#45;&gt;Node5 -->
<g id="edge4_Node000003_Node000005" class="edge">
<title>Node3&#45;&gt;Node5</title>
<g id="a_edge4_Node000003_Node000005"><a xlink:title=" ">
<path fill="none" stroke="#63b8ff" d="M350.21,-55.59C322.43,-46.82 280.75,-33.66 249.86,-23.9"/>
<polygon fill="#63b8ff" stroke="#63b8ff" points="251.05,-20.61 240.46,-20.94 248.94,-27.28 251.05,-20.61"/>
</a>
</g>
</g>
<!-- Node6 -->
<g id="Node000006" class="node">
<title>Node6</title>
<g id="a_Node000006"><a xlink:title=" ">
<polygon fill="#e0e0e0" stroke="#999999" points="306.12,-20 257.88,-20 257.88,0 306.12,0 306.12,-20"/>
<text xml:space="preserve" text-anchor="middle" x="282" y="-6.5" font-family="Helvetica,sans-Serif" font-size="10.00">cassert</text>
</a>
</g>
</g>
<!-- Node3&#45;&gt;Node6 -->
<g id="edge5_Node000003_Node000006" class="edge">
<title>Node3&#45;&gt;Node6</title>
<g id="a_edge5_Node000003_Node000006"><a xlink:title=" ">
<path fill="none" stroke="#63b8ff" d="M362.93,-55.59C348.12,-47.44 326.43,-35.48 309.23,-26"/>
<polygon fill="#63b8ff" stroke="#63b8ff" points="310.98,-22.97 300.53,-21.21 307.6,-29.1 310.98,-22.97"/>
</a>
</g>
</g>
<!-- Node7 -->
<g id="Node000007" class="node">
<title>Node7</title>
<g id="a_Node000007"><a xlink:title=" ">
<polygon fill="#e0e0e0" stroke="#999999" points="372.12,-20 323.88,-20 323.88,0 372.12,0 372.12,-20"/>
<text xml:space="preserve" text-anchor="middle" x="348" y="-6.5" font-family="Helvetica,sans-Serif" font-size="10.00">cstddef</text>
</a>
</g>
</g>
<!-- Node3&#45;&gt;Node7 -->
<g id="edge6_Node000003_Node000007" class="edge">
<title>Node3&#45;&gt;Node7</title>
<g id="a_edge6_Node000003_Node000007"><a xlink:title=" ">
<path fill="none" stroke="#63b8ff" d="M374.43,-55.59C370.25,-48.55 364.4,-38.67 359.26,-30"/>
<polygon fill="#63b8ff" stroke="#63b8ff" points="362.39,-28.42 354.28,-21.6 356.37,-31.99 362.39,-28.42"/>
</a>
</g>
</g>
<!-- Node8 -->
<g id="Node000008" class="node">
<title>Node8</title>
<g id="a_Node000008"><a xlink:title=" ">
<polygon fill="#e0e0e0" stroke="#999999" points="435.62,-20 390.38,-20 390.38,0 435.62,0 435.62,-20"/>
<text xml:space="preserve" text-anchor="middle" x="413" y="-6.5" font-family="Helvetica,sans-Serif" font-size="10.00">cstdint</text>
</a>
</g>
</g>
<!-- Node3&#45;&gt;Node8 -->
<g id="edge7_Node000003_Node000008" class="edge">
<title>Node3&#45;&gt;Node8</title>
<g id="a_edge7_Node000003_Node000008"><a xlink:title=" ">
<path fill="none" stroke="#63b8ff" d="M385.75,-55.59C390.05,-48.55 396.09,-38.67 401.39,-30"/>
<polygon fill="#63b8ff" stroke="#63b8ff" points="404.3,-31.95 406.53,-21.59 398.33,-28.3 404.3,-31.95"/>
</a>
</g>
</g>
<!-- Node9 -->
<g id="Node000009" class="node">
<title>Node9</title>
<g id="a_Node000009"><a xlink:title=" ">
<polygon fill="#e0e0e0" stroke="#999999" points="506.38,-20 453.62,-20 453.62,0 506.38,0 506.38,-20"/>
<text xml:space="preserve" text-anchor="middle" x="480" y="-6.5" font-family="Helvetica,sans-Serif" font-size="10.00">cstdbool</text>
</a>
</g>
</g>
<!-- Node3&#45;&gt;Node9 -->
<g id="edge8_Node000003_Node000009" class="edge">
<title>Node3&#45;&gt;Node9</title>
<g id="a_edge8_Node000003_Node000009"><a xlink:title=" ">
<path fill="none" stroke="#63b8ff" d="M397.42,-55.59C412.67,-47.36 435.08,-35.26 452.71,-25.74"/>
<polygon fill="#63b8ff" stroke="#63b8ff" points="453.98,-29.03 461.11,-21.2 450.65,-22.87 453.98,-29.03"/>
</a>
</g>
</g>
<!-- Node10 -->
<g id="Node000010" class="node">
<title>Node10</title>
<g id="a_Node000010"><a xlink:title=" ">
<polygon fill="#e0e0e0" stroke="#999999" points="564,-20 524,-20 524,0 564,0 564,-20"/>
<text xml:space="preserve" text-anchor="middle" x="544" y="-6.5" font-family="Helvetica,sans-Serif" font-size="10.00">string</text>
</a>
</g>
</g>
<!-- Node3&#45;&gt;Node10 -->
<g id="edge9_Node000003_Node000010" class="edge">
<title>Node3&#45;&gt;Node10</title>
<g id="a_edge9_Node000003_Node000010"><a xlink:title=" ">
<path fill="none" stroke="#63b8ff" d="M408.57,-55.59C437.7,-46 482.77,-31.16 512.81,-21.27"/>
<polygon fill="#63b8ff" stroke="#63b8ff" points="513.69,-24.67 522.09,-18.21 511.5,-18.02 513.69,-24.67"/>
</a>
</g>
</g>
<!-- Node11 -->
<g id="Node000011" class="node">
<title>Node11</title>
<g id="a_Node000011"><a xlink:title=" ">
<polygon fill="#e0e0e0" stroke="#999999" points="636.12,-20 581.88,-20 581.88,0 636.12,0 636.12,-20"/>
<text xml:space="preserve" text-anchor="middle" x="609" y="-6.5" font-family="Helvetica,sans-Serif" font-size="10.00">crtdefs.h</text>
</a>
</g>
</g>
<!-- Node3&#45;&gt;Node11 -->
<g id="edge10_Node000003_Node000011" class="edge">
<title>Node3&#45;&gt;Node11</title>
<g id="a_edge10_Node000003_Node000011"><a xlink:title=" ">
<path fill="none" stroke="#63b8ff" d="M421.46,-55.53C458.2,-47.1 513.61,-34.27 570.48,-20.58"/>
<polygon fill="#63b8ff" stroke="#63b8ff" points="571.12,-24.03 580.02,-18.28 569.48,-17.22 571.12,-24.03"/>
</a>
</g>
</g>
<!-- Node12&#45;&gt;Node3 -->
<g id="edge12_Node000012_Node000003" class="edge">
<title>Node12&#45;&gt;Node3</title>
<g id="a_edge12_Node000012_Node000003"><a xlink:title=" ">
<path fill="none" stroke="#63b8ff" d="M467.54,-111.59C451.3,-103.32 427.39,-91.14 408.67,-81.6"/>
<polygon fill="#63b8ff" stroke="#63b8ff" points="410.46,-78.59 399.96,-77.17 407.28,-84.82 410.46,-78.59"/>
</a>
</g>
</g>
<!-- Node13 -->
<g id="Node000013" class="node">
<title>Node13</title>
<g id="a_Node000013"><a xlink:title=" ">
<polygon fill="#e0e0e0" stroke="#999999" points="547.38,-76 464.62,-76 464.62,-56 547.38,-56 547.38,-76"/>
<text xml:space="preserve" text-anchor="middle" x="506" y="-62.5" font-family="Helvetica,sans-Serif" font-size="10.00">unordered_map</text>
</a>
</g>
</g>
<!-- Node12&#45;&gt;Node13 -->
<g id="edge13_Node000012_Node000013" class="edge">
<title>Node12&#45;&gt;Node13</title>
<g id="a_edge13_Node000012_Node000013"><a xlink:title=" ">
<path fill="none" stroke="#63b8ff" d="M489.48,-111.59C492.01,-104.78 495.51,-95.32 498.64,-86.86"/>
<polygon fill="#63b8ff" stroke="#63b8ff" points="501.84,-88.31 502.03,-77.72 495.28,-85.88 501.84,-88.31"/>
</a>
</g>
</g>
</g>
</svg>
