<?xml version="1.0" encoding="UTF-8" standalone="no"?>
<!DOCTYPE svg PUBLIC "-//W3C//DTD SVG 1.1//EN"
 "http://www.w3.org/Graphics/SVG/1.1/DTD/svg11.dtd">
<!-- Generated by graphviz version 13.1.0 (20250701.0955)
 -->
<!-- Title: FIEAGameEngine/src/Content/Parser.cpp Pages: 1 -->
<svg width="1046pt" height="488pt"
 viewBox="0.00 0.00 1046.00 488.00" xmlns="http://www.w3.org/2000/svg" xmlns:xlink="http://www.w3.org/1999/xlink">
<g id="graph0" class="graph" transform="scale(1 1) rotate(0) translate(4 484)">
<title>FIEAGameEngine/src/Content/Parser.cpp</title>
<!-- Node1 -->
<g id="Node000001" class="node">
<title>Node1</title>
<g id="a_Node000001"><a xlink:title=" ">
<polygon fill="#999999" stroke="#666666" points="908.62,-480 797.38,-480 797.38,-448 908.62,-448 908.62,-480"/>
<text xml:space="preserve" text-anchor="start" x="805.38" y="-466.5" font-family="Helvetica,sans-Serif" font-size="10.00">FIEAGameEngine/src</text>
<text xml:space="preserve" text-anchor="middle" x="853" y="-454.5" font-family="Helvetica,sans-Serif" font-size="10.00">/Content/Parser.cpp</text>
</a>
</g>
</g>
<!-- Node2 -->
<g id="Node000002" class="node">
<title>Node2</title>
<g id="a_Node000002"><a xlink:href="_parser_8h.html" target="_top" xlink:title=" ">
<polygon fill="white" stroke="#666666" points="845.38,-412 792.62,-412 792.62,-392 845.38,-392 845.38,-412"/>
<text xml:space="preserve" text-anchor="middle" x="819" y="-398.5" font-family="Helvetica,sans-Serif" font-size="10.00">Parser.h</text>
</a>
</g>
</g>
<!-- Node1&#45;&gt;Node2 -->
<g id="edge1_Node000001_Node000002" class="edge">
<title>Node1&#45;&gt;Node2</title>
<g id="a_edge1_Node000001_Node000002"><a xlink:title=" ">
<path fill="none" stroke="#63b8ff" d="M844.24,-447.55C839.87,-439.82 834.53,-430.4 829.89,-422.21"/>
<polygon fill="#63b8ff" stroke="#63b8ff" points="833.05,-420.7 825.08,-413.72 826.96,-424.15 833.05,-420.7"/>
</a>
</g>
</g>
<!-- Node28 -->
<g id="Node000028" class="node">
<title>Node28</title>
<g id="a_Node000028"><a xlink:title=" ">
<polygon fill="#e0e0e0" stroke="#999999" points="912.5,-412 863.5,-412 863.5,-392 912.5,-392 912.5,-412"/>
<text xml:space="preserve" text-anchor="middle" x="888" y="-398.5" font-family="Helvetica,sans-Serif" font-size="10.00">fstream</text>
</a>
</g>
</g>
<!-- Node1&#45;&gt;Node28 -->
<g id="edge49_Node000001_Node000028" class="edge">
<title>Node1&#45;&gt;Node28</title>
<g id="a_edge49_Node000001_Node000028"><a xlink:title=" ">
<path fill="none" stroke="#63b8ff" d="M862.01,-447.55C866.52,-439.82 872.02,-430.4 876.79,-422.21"/>
<polygon fill="#63b8ff" stroke="#63b8ff" points="879.73,-424.12 881.75,-413.72 873.69,-420.59 879.73,-424.12"/>
</a>
</g>
</g>
<!-- Node3 -->
<g id="Node000003" class="node">
<title>Node3</title>
<g id="a_Node000003"><a xlink:href="_types_8h.html" target="_top" xlink:title=" ">
<polygon fill="white" stroke="#666666" points="508.12,-76 375.88,-76 375.88,-56 508.12,-56 508.12,-76"/>
<text xml:space="preserve" text-anchor="middle" x="442" y="-62.5" font-family="Helvetica,sans-Serif" font-size="10.00">FIEAGameEngine/Types.h</text>
</a>
</g>
</g>
<!-- Node2&#45;&gt;Node3 -->
<g id="edge2_Node000002_Node000003" class="edge">
<title>Node2&#45;&gt;Node3</title>
<g id="a_edge2_Node000002_Node000003"><a xlink:title=" ">
<path fill="none" stroke="#63b8ff" d="M792.22,-400.29C651.07,-396.19 0,-372.86 0,-291 0,-291 0,-291 0,-177 0,-139.72 20.31,-129.9 53,-112 104.98,-83.54 266.59,-72.97 364.39,-69.13"/>
<polygon fill="#63b8ff" stroke="#63b8ff" points="364.32,-72.63 374.18,-68.76 364.06,-65.64 364.32,-72.63"/>
</a>
</g>
</g>
<!-- Node12 -->
<g id="Node000012" class="node">
<title>Node12</title>
<g id="a_Node000012"><a xlink:href="_content_service_8h.html" target="_top" xlink:title=" ">
<polygon fill="white" stroke="#666666" points="725.75,-356 552.25,-356 552.25,-336 725.75,-336 725.75,-356"/>
<text xml:space="preserve" text-anchor="middle" x="639" y="-342.5" font-family="Helvetica,sans-Serif" font-size="10.00">FIEAGameEngine/ContentService.h</text>
</a>
</g>
</g>
<!-- Node2&#45;&gt;Node12 -->
<g id="edge11_Node000002_Node000012" class="edge">
<title>Node2&#45;&gt;Node12</title>
<g id="a_edge11_Node000002_Node000012"><a xlink:title=" ">
<path fill="none" stroke="#63b8ff" d="M792.44,-393.03C763.14,-384.24 715.6,-369.98 681.19,-359.66"/>
<polygon fill="#63b8ff" stroke="#63b8ff" points="682.55,-356.41 671.97,-356.89 680.54,-363.12 682.55,-356.41"/>
</a>
</g>
</g>
<!-- Node24 -->
<g id="Node000024" class="node">
<title>Node24</title>
<g id="a_Node000024"><a xlink:title=" ">
<polygon fill="#e0e0e0" stroke="#999999" points="1005.75,-132 952.25,-132 952.25,-112 1005.75,-112 1005.75,-132"/>
<text xml:space="preserve" text-anchor="middle" x="979" y="-118.5" font-family="Helvetica,sans-Serif" font-size="10.00">iostream</text>
</a>
</g>
</g>
<!-- Node2&#45;&gt;Node24 -->
<g id="edge47_Node000002_Node000024" class="edge">
<title>Node2&#45;&gt;Node24</title>
<g id="a_edge47_Node000002_Node000024"><a xlink:title=" ">
<path fill="none" stroke="#63b8ff" d="M845.85,-393.62C904.33,-376.75 1038,-333.55 1038,-291 1038,-291 1038,-291 1038,-233 1038,-197.08 1013.27,-161.56 995.83,-140.98"/>
<polygon fill="#63b8ff" stroke="#63b8ff" points="998.47,-138.69 989.22,-133.52 993.23,-143.33 998.47,-138.69"/>
</a>
</g>
</g>
<!-- Node25 -->
<g id="Node000025" class="node">
<title>Node25</title>
<g id="a_Node000025"><a xlink:title=" ">
<polygon fill="#e0e0e0" stroke="#999999" points="660.5,-188 617.5,-188 617.5,-168 660.5,-168 660.5,-188"/>
<text xml:space="preserve" text-anchor="middle" x="639" y="-174.5" font-family="Helvetica,sans-Serif" font-size="10.00">vector</text>
</a>
</g>
</g>
<!-- Node2&#45;&gt;Node25 -->
<g id="edge48_Node000002_Node000025" class="edge">
<title>Node2&#45;&gt;Node25</title>
<g id="a_edge48_Node000002_Node000025"><a xlink:title=" ">
<path fill="none" stroke="#63b8ff" d="M813.47,-391.54C797.14,-363.99 746.84,-282.1 693,-224 683.22,-213.45 670.99,-203.07 660.65,-194.94"/>
<polygon fill="#63b8ff" stroke="#63b8ff" points="663.07,-192.39 653,-189.09 658.82,-197.95 663.07,-192.39"/>
</a>
</g>
</g>
<!-- Node4 -->
<g id="Node000004" class="node">
<title>Node4</title>
<g id="a_Node000004"><a xlink:title=" ">
<polygon fill="#e0e0e0" stroke="#999999" points="222,-20 62,-20 62,0 222,0 222,-20"/>
<text xml:space="preserve" text-anchor="middle" x="142" y="-6.5" font-family="Helvetica,sans-Serif" font-size="10.00">../src/Memory/SystemAllocator.h</text>
</a>
</g>
</g>
<!-- Node3&#45;&gt;Node4 -->
<g id="edge3_Node000003_Node000004" class="edge">
<title>Node3&#45;&gt;Node4</title>
<g id="a_edge3_Node000003_Node000004"><a xlink:title=" ">
<path fill="none" stroke="#63b8ff" d="M389.4,-55.53C338.26,-46.33 260.5,-32.33 205.83,-22.49"/>
<polygon fill="#63b8ff" stroke="#63b8ff" points="206.49,-19.05 196.03,-20.73 205.25,-25.94 206.49,-19.05"/>
</a>
</g>
</g>
<!-- Node5 -->
<g id="Node000005" class="node">
<title>Node5</title>
<g id="a_Node000005"><a xlink:title=" ">
<polygon fill="#e0e0e0" stroke="#999999" points="302.25,-20 239.75,-20 239.75,0 302.25,0 302.25,-20"/>
<text xml:space="preserve" text-anchor="middle" x="271" y="-6.5" font-family="Helvetica,sans-Serif" font-size="10.00">windows.h</text>
</a>
</g>
</g>
<!-- Node3&#45;&gt;Node5 -->
<g id="edge4_Node000003_Node000005" class="edge">
<title>Node3&#45;&gt;Node5</title>
<g id="a_edge4_Node000003_Node000005"><a xlink:title=" ">
<path fill="none" stroke="#63b8ff" d="M412.21,-55.59C384.43,-46.82 342.75,-33.66 311.86,-23.9"/>
<polygon fill="#63b8ff" stroke="#63b8ff" points="313.05,-20.61 302.46,-20.94 310.94,-27.28 313.05,-20.61"/>
</a>
</g>
</g>
<!-- Node6 -->
<g id="Node000006" class="node">
<title>Node6</title>
<g id="a_Node000006"><a xlink:title=" ">
<polygon fill="#e0e0e0" stroke="#999999" points="368.12,-20 319.88,-20 319.88,0 368.12,0 368.12,-20"/>
<text xml:space="preserve" text-anchor="middle" x="344" y="-6.5" font-family="Helvetica,sans-Serif" font-size="10.00">cassert</text>
</a>
</g>
</g>
<!-- Node3&#45;&gt;Node6 -->
<g id="edge5_Node000003_Node000006" class="edge">
<title>Node3&#45;&gt;Node6</title>
<g id="a_edge5_Node000003_Node000006"><a xlink:title=" ">
<path fill="none" stroke="#63b8ff" d="M424.93,-55.59C410.12,-47.44 388.43,-35.48 371.23,-26"/>
<polygon fill="#63b8ff" stroke="#63b8ff" points="372.98,-22.97 362.53,-21.21 369.6,-29.1 372.98,-22.97"/>
</a>
</g>
</g>
<!-- Node7 -->
<g id="Node000007" class="node">
<title>Node7</title>
<g id="a_Node000007"><a xlink:title=" ">
<polygon fill="#e0e0e0" stroke="#999999" points="434.12,-20 385.88,-20 385.88,0 434.12,0 434.12,-20"/>
<text xml:space="preserve" text-anchor="middle" x="410" y="-6.5" font-family="Helvetica,sans-Serif" font-size="10.00">cstddef</text>
</a>
</g>
</g>
<!-- Node3&#45;&gt;Node7 -->
<g id="edge6_Node000003_Node000007" class="edge">
<title>Node3&#45;&gt;Node7</title>
<g id="a_edge6_Node000003_Node000007"><a xlink:title=" ">
<path fill="none" stroke="#63b8ff" d="M436.43,-55.59C432.25,-48.55 426.4,-38.67 421.26,-30"/>
<polygon fill="#63b8ff" stroke="#63b8ff" points="424.39,-28.42 416.28,-21.6 418.37,-31.99 424.39,-28.42"/>
</a>
</g>
</g>
<!-- Node8 -->
<g id="Node000008" class="node">
<title>Node8</title>
<g id="a_Node000008"><a xlink:title=" ">
<polygon fill="#e0e0e0" stroke="#999999" points="497.62,-20 452.38,-20 452.38,0 497.62,0 497.62,-20"/>
<text xml:space="preserve" text-anchor="middle" x="475" y="-6.5" font-family="Helvetica,sans-Serif" font-size="10.00">cstdint</text>
</a>
</g>
</g>
<!-- Node3&#45;&gt;Node8 -->
<g id="edge7_Node000003_Node000008" class="edge">
<title>Node3&#45;&gt;Node8</title>
<g id="a_edge7_Node000003_Node000008"><a xlink:title=" ">
<path fill="none" stroke="#63b8ff" d="M447.75,-55.59C452.05,-48.55 458.09,-38.67 463.39,-30"/>
<polygon fill="#63b8ff" stroke="#63b8ff" points="466.3,-31.95 468.53,-21.59 460.33,-28.3 466.3,-31.95"/>
</a>
</g>
</g>
<!-- Node9 -->
<g id="Node000009" class="node">
<title>Node9</title>
<g id="a_Node000009"><a xlink:title=" ">
<polygon fill="#e0e0e0" stroke="#999999" points="568.38,-20 515.62,-20 515.62,0 568.38,0 568.38,-20"/>
<text xml:space="preserve" text-anchor="middle" x="542" y="-6.5" font-family="Helvetica,sans-Serif" font-size="10.00">cstdbool</text>
</a>
</g>
</g>
<!-- Node3&#45;&gt;Node9 -->
<g id="edge8_Node000003_Node000009" class="edge">
<title>Node3&#45;&gt;Node9</title>
<g id="a_edge8_Node000003_Node000009"><a xlink:title=" ">
<path fill="none" stroke="#63b8ff" d="M459.42,-55.59C474.67,-47.36 497.08,-35.26 514.71,-25.74"/>
<polygon fill="#63b8ff" stroke="#63b8ff" points="515.98,-29.03 523.11,-21.2 512.65,-22.87 515.98,-29.03"/>
</a>
</g>
</g>
<!-- Node10 -->
<g id="Node000010" class="node">
<title>Node10</title>
<g id="a_Node000010"><a xlink:title=" ">
<polygon fill="#e0e0e0" stroke="#999999" points="626,-20 586,-20 586,0 626,0 626,-20"/>
<text xml:space="preserve" text-anchor="middle" x="606" y="-6.5" font-family="Helvetica,sans-Serif" font-size="10.00">string</text>
</a>
</g>
</g>
<!-- Node3&#45;&gt;Node10 -->
<g id="edge9_Node000003_Node000010" class="edge">
<title>Node3&#45;&gt;Node10</title>
<g id="a_edge9_Node000003_Node000010"><a xlink:title=" ">
<path fill="none" stroke="#63b8ff" d="M470.57,-55.59C499.7,-46 544.77,-31.16 574.81,-21.27"/>
<polygon fill="#63b8ff" stroke="#63b8ff" points="575.69,-24.67 584.09,-18.21 573.5,-18.02 575.69,-24.67"/>
</a>
</g>
</g>
<!-- Node11 -->
<g id="Node000011" class="node">
<title>Node11</title>
<g id="a_Node000011"><a xlink:title=" ">
<polygon fill="#e0e0e0" stroke="#999999" points="698.12,-20 643.88,-20 643.88,0 698.12,0 698.12,-20"/>
<text xml:space="preserve" text-anchor="middle" x="671" y="-6.5" font-family="Helvetica,sans-Serif" font-size="10.00">crtdefs.h</text>
</a>
</g>
</g>
<!-- Node3&#45;&gt;Node11 -->
<g id="edge10_Node000003_Node000011" class="edge">
<title>Node3&#45;&gt;Node11</title>
<g id="a_edge10_Node000003_Node000011"><a xlink:title=" ">
<path fill="none" stroke="#63b8ff" d="M483.46,-55.53C520.2,-47.1 575.61,-34.27 632.48,-20.58"/>
<polygon fill="#63b8ff" stroke="#63b8ff" points="633.12,-24.03 642.02,-18.28 631.48,-17.22 633.12,-24.03"/>
</a>
</g>
</g>
<!-- Node12&#45;&gt;Node3 -->
<g id="edge12_Node000012_Node000003" class="edge">
<title>Node12&#45;&gt;Node3</title>
<g id="a_edge12_Node000012_Node000003"><a xlink:title=" ">
<path fill="none" stroke="#63b8ff" d="M551.93,-337.96C385.37,-323.33 38,-286.61 38,-235 38,-235 38,-235 38,-177 38,-140.82 55.7,-130.15 87,-112 132.68,-85.51 274.21,-74.36 364.16,-69.86"/>
<polygon fill="#63b8ff" stroke="#63b8ff" points="364.08,-73.37 373.9,-69.39 363.74,-66.37 364.08,-73.37"/>
</a>
</g>
</g>
<!-- Node13 -->
<g id="Node000013" class="node">
<title>Node13</title>
<g id="a_Node000013"><a xlink:href="_service_mgr_8h.html" target="_top" xlink:title=" ">
<polygon fill="white" stroke="#666666" points="857.75,-132 702.25,-132 702.25,-112 857.75,-112 857.75,-132"/>
<text xml:space="preserve" text-anchor="middle" x="780" y="-118.5" font-family="Helvetica,sans-Serif" font-size="10.00">FIEAGameEngine/ServiceMgr.h</text>
</a>
</g>
</g>
<!-- Node12&#45;&gt;Node13 -->
<g id="edge13_Node000012_Node000013" class="edge">
<title>Node12&#45;&gt;Node13</title>
<g id="a_edge13_Node000012_Node000013"><a xlink:title=" ">
<path fill="none" stroke="#63b8ff" d="M676.7,-335.63C737.53,-318.25 855.54,-274.62 905,-188 920.5,-160.86 889.38,-144.62 854.32,-135.16"/>
<polygon fill="#63b8ff" stroke="#63b8ff" points="855.38,-131.81 844.83,-132.8 853.69,-138.61 855.38,-131.81"/>
</a>
</g>
</g>
<!-- Node14 -->
<g id="Node000014" class="node">
<title>Node14</title>
<g id="a_Node000014"><a xlink:title=" ">
<polygon fill="#e0e0e0" stroke="#999999" points="946.38,-76 863.62,-76 863.62,-56 946.38,-56 946.38,-76"/>
<text xml:space="preserve" text-anchor="middle" x="905" y="-62.5" font-family="Helvetica,sans-Serif" font-size="10.00">unordered_map</text>
</a>
</g>
</g>
<!-- Node12&#45;&gt;Node14 -->
<g id="edge45_Node000012_Node000014" class="edge">
<title>Node12&#45;&gt;Node14</title>
<g id="a_edge45_Node000012_Node000014"><a xlink:title=" ">
<path fill="none" stroke="#63b8ff" d="M689.54,-335.57C777.6,-315.94 955.43,-261.3 1015,-132 1028.32,-103.09 992.16,-86.17 957.79,-76.88"/>
<polygon fill="#63b8ff" stroke="#63b8ff" points="958.79,-73.52 948.23,-74.49 957.09,-80.31 958.79,-73.52"/>
</a>
</g>
</g>
<!-- Node15 -->
<g id="Node000015" class="node">
<title>Node15</title>
<g id="a_Node000015"><a xlink:href="_r_t_t_i_8h.html" target="_top" xlink:title=" ">
<polygon fill="white" stroke="#666666" points="645.88,-132 518.12,-132 518.12,-112 645.88,-112 645.88,-132"/>
<text xml:space="preserve" text-anchor="middle" x="582" y="-118.5" font-family="Helvetica,sans-Serif" font-size="10.00">FIEAGameEngine/RTTI.h</text>
</a>
</g>
</g>
<!-- Node12&#45;&gt;Node15 -->
<g id="edge16_Node000012_Node000015" class="edge">
<title>Node12&#45;&gt;Node15</title>
<g id="a_edge16_Node000012_Node000015"><a xlink:title=" ">
<path fill="none" stroke="#63b8ff" d="M647.68,-335.77C665.07,-316.15 701.77,-268.46 693,-224 687.79,-197.6 688.22,-187.8 670,-168 657.23,-154.12 639.2,-143.86 622.78,-136.68"/>
<polygon fill="#63b8ff" stroke="#63b8ff" points="624.28,-133.51 613.7,-132.96 621.63,-139.99 624.28,-133.51"/>
</a>
</g>
</g>
<!-- Node17 -->
<g id="Node000017" class="node">
<title>Node17</title>
<g id="a_Node000017"><a xlink:href="_attributed_8h.html" target="_top" xlink:title=" ">
<polygon fill="white" stroke="#666666" points="600.88,-300 497.12,-300 497.12,-280 600.88,-280 600.88,-300"/>
<text xml:space="preserve" text-anchor="middle" x="549" y="-286.5" font-family="Helvetica,sans-Serif" font-size="10.00">Content/Attributed.h</text>
</a>
</g>
</g>
<!-- Node12&#45;&gt;Node17 -->
<g id="edge20_Node000012_Node000017" class="edge">
<title>Node12&#45;&gt;Node17</title>
<g id="a_edge20_Node000012_Node000017"><a xlink:title=" ">
<path fill="none" stroke="#63b8ff" d="M623.32,-335.59C609.86,-327.51 590.18,-315.71 574.46,-306.27"/>
<polygon fill="#63b8ff" stroke="#63b8ff" points="576.47,-303.4 566.1,-301.26 572.87,-309.4 576.47,-303.4"/>
</a>
</g>
</g>
<!-- Node18 -->
<g id="Node000018" class="node">
<title>Node18</title>
<g id="a_Node000018"><a xlink:href="_datum_8h.html" target="_top" xlink:title=" ">
<polygon fill="white" stroke="#666666" points="421.5,-188 330.5,-188 330.5,-168 421.5,-168 421.5,-188"/>
<text xml:space="preserve" text-anchor="middle" x="376" y="-174.5" font-family="Helvetica,sans-Serif" font-size="10.00">Content/Datum.h</text>
</a>
</g>
</g>
<!-- Node12&#45;&gt;Node18 -->
<g id="edge43_Node000012_Node000018" class="edge">
<title>Node12&#45;&gt;Node18</title>
<g id="a_edge43_Node000012_Node000018"><a xlink:title=" ">
<path fill="none" stroke="#63b8ff" d="M552.03,-337.92C494.88,-331.49 426.96,-319.89 406,-300 378.35,-273.76 374.55,-226.36 374.86,-199.33"/>
<polygon fill="#63b8ff" stroke="#63b8ff" points="378.35,-199.81 375.19,-189.7 371.35,-199.57 378.35,-199.81"/>
</a>
</g>
</g>
<!-- Node22 -->
<g id="Node000022" class="node">
<title>Node22</title>
<g id="a_Node000022"><a xlink:href="_scope_8h.html" target="_top" xlink:title=" ">
<polygon fill="white" stroke="#666666" points="683.75,-244 594.25,-244 594.25,-224 683.75,-224 683.75,-244"/>
<text xml:space="preserve" text-anchor="middle" x="639" y="-230.5" font-family="Helvetica,sans-Serif" font-size="10.00">Content/Scope.h</text>
</a>
</g>
</g>
<!-- Node12&#45;&gt;Node22 -->
<g id="edge44_Node000012_Node000022" class="edge">
<title>Node12&#45;&gt;Node22</title>
<g id="a_edge44_Node000012_Node000022"><a xlink:title=" ">
<path fill="none" stroke="#63b8ff" d="M639,-335.62C639,-318.01 639,-279.59 639,-255.65"/>
<polygon fill="#63b8ff" stroke="#63b8ff" points="642.5,-255.87 639,-245.87 635.5,-255.87 642.5,-255.87"/>
</a>
</g>
</g>
<!-- Node27 -->
<g id="Node000027" class="node">
<title>Node27</title>
<g id="a_Node000027"><a xlink:title=" ">
<polygon fill="#e0e0e0" stroke="#999999" points="478.62,-300 415.38,-300 415.38,-280 478.62,-280 478.62,-300"/>
<text xml:space="preserve" text-anchor="middle" x="447" y="-286.5" font-family="Helvetica,sans-Serif" font-size="10.00">json/json.h</text>
</a>
</g>
</g>
<!-- Node12&#45;&gt;Node27 -->
<g id="edge46_Node000012_Node000027" class="edge">
<title>Node12&#45;&gt;Node27</title>
<g id="a_edge46_Node000012_Node000027"><a xlink:title=" ">
<path fill="none" stroke="#63b8ff" d="M605.56,-335.59C573.47,-326.57 524.86,-312.9 489.93,-303.07"/>
<polygon fill="#63b8ff" stroke="#63b8ff" points="491.13,-299.78 480.56,-300.44 489.24,-306.52 491.13,-299.78"/>
</a>
</g>
</g>
<!-- Node13&#45;&gt;Node3 -->
<g id="edge14_Node000013_Node000003" class="edge">
<title>Node13&#45;&gt;Node3</title>
<g id="a_edge14_Node000013_Node000003"><a xlink:title=" ">
<path fill="none" stroke="#63b8ff" d="M720.74,-111.53C662.63,-102.25 574.04,-88.09 512.38,-78.24"/>
<polygon fill="#63b8ff" stroke="#63b8ff" points="513.12,-74.82 502.69,-76.7 512.01,-81.73 513.12,-74.82"/>
</a>
</g>
</g>
<!-- Node13&#45;&gt;Node14 -->
<g id="edge15_Node000013_Node000014" class="edge">
<title>Node13&#45;&gt;Node14</title>
<g id="a_edge15_Node000013_Node000014"><a xlink:title=" ">
<path fill="none" stroke="#63b8ff" d="M801.77,-111.59C821.37,-103.13 850.43,-90.58 872.72,-80.94"/>
<polygon fill="#63b8ff" stroke="#63b8ff" points="873.88,-84.26 881.67,-77.08 871.1,-77.83 873.88,-84.26"/>
</a>
</g>
</g>
<!-- Node15&#45;&gt;Node3 -->
<g id="edge17_Node000015_Node000003" class="edge">
<title>Node15&#45;&gt;Node3</title>
<g id="a_edge17_Node000015_Node000003"><a xlink:title=" ">
<path fill="none" stroke="#63b8ff" d="M557.61,-111.59C535.37,-103.01 502.23,-90.23 477.13,-80.55"/>
<polygon fill="#63b8ff" stroke="#63b8ff" points="478.58,-77.36 467.99,-77.02 476.06,-83.89 478.58,-77.36"/>
</a>
</g>
</g>
<!-- Node16 -->
<g id="Node000016" class="node">
<title>Node16</title>
<g id="a_Node000016"><a xlink:href="_r_t_t_i_8inl.html" target="_top" xlink:title=" ">
<polygon fill="white" stroke="#666666" points="658.12,-76 525.88,-76 525.88,-56 658.12,-56 658.12,-76"/>
<text xml:space="preserve" text-anchor="middle" x="592" y="-62.5" font-family="Helvetica,sans-Serif" font-size="10.00">FIEAGameEngine/RTTI.inl</text>
</a>
</g>
</g>
<!-- Node15&#45;&gt;Node16 -->
<g id="edge18_Node000015_Node000016" class="edge">
<title>Node15&#45;&gt;Node16</title>
<g id="a_edge18_Node000015_Node000016"><a xlink:title=" ">
<path fill="none" stroke="#63b8ff" d="M578.48,-111.59C578.37,-104.86 579.67,-95.53 581.72,-87.15"/>
<polygon fill="#63b8ff" stroke="#63b8ff" points="585.01,-88.33 584.59,-77.75 578.32,-86.29 585.01,-88.33"/>
</a>
</g>
</g>
<!-- Node16&#45;&gt;Node15 -->
<g id="edge19_Node000016_Node000015" class="edge">
<title>Node16&#45;&gt;Node15</title>
<g id="a_edge19_Node000016_Node000015"><a xlink:title=" ">
<path fill="none" stroke="#63b8ff" d="M595.52,-76.3C595.64,-83.01 594.35,-92.32 592.32,-100.71"/>
<polygon fill="#63b8ff" stroke="#63b8ff" points="589.01,-99.56 589.45,-110.15 595.71,-101.6 589.01,-99.56"/>
</a>
</g>
</g>
<!-- Node17&#45;&gt;Node3 -->
<g id="edge21_Node000017_Node000003" class="edge">
<title>Node17&#45;&gt;Node3</title>
<g id="a_edge21_Node000017_Node000003"><a xlink:title=" ">
<path fill="none" stroke="#63b8ff" d="M500.24,-279.53C393.15,-257.63 143.12,-200.11 95,-132 89.87,-124.74 89.13,-118.68 95,-112 112.5,-92.08 267.52,-78.4 364.35,-71.72"/>
<polygon fill="#63b8ff" stroke="#63b8ff" points="364.31,-75.23 374.05,-71.06 363.84,-68.24 364.31,-75.23"/>
</a>
</g>
</g>
<!-- Node17&#45;&gt;Node15 -->
<g id="edge40_Node000017_Node000015" class="edge">
<title>Node17&#45;&gt;Node15</title>
<g id="a_edge40_Node000017_Node000015"><a xlink:title=" ">
<path fill="none" stroke="#63b8ff" d="M520.01,-279.51C493.33,-268.97 459.52,-249.96 471,-224 488.1,-185.33 528.12,-155.1 555.13,-138.15"/>
<polygon fill="#63b8ff" stroke="#63b8ff" points="556.74,-141.27 563.48,-133.1 553.11,-135.28 556.74,-141.27"/>
</a>
</g>
</g>
<!-- Node17&#45;&gt;Node18 -->
<g id="edge22_Node000017_Node000018" class="edge">
<title>Node17&#45;&gt;Node18</title>
<g id="a_edge22_Node000017_Node000018"><a xlink:title=" ">
<path fill="none" stroke="#63b8ff" d="M515.62,-279.58C492.57,-272.12 461.9,-260.25 438,-244 418.93,-231.03 401.2,-211.36 389.63,-197.05"/>
<polygon fill="#63b8ff" stroke="#63b8ff" points="392.52,-195.06 383.6,-189.35 387.01,-199.38 392.52,-195.06"/>
</a>
</g>
</g>
<!-- Node17&#45;&gt;Node22 -->
<g id="edge28_Node000017_Node000022" class="edge">
<title>Node17&#45;&gt;Node22</title>
<g id="a_edge28_Node000017_Node000022"><a xlink:title=" ">
<path fill="none" stroke="#63b8ff" d="M564.68,-279.59C578.14,-271.51 597.82,-259.71 613.54,-250.27"/>
<polygon fill="#63b8ff" stroke="#63b8ff" points="615.13,-253.4 621.9,-245.26 611.53,-247.4 615.13,-253.4"/>
</a>
</g>
</g>
<!-- Node17&#45;&gt;Node25 -->
<g id="edge41_Node000017_Node000025" class="edge">
<title>Node17&#45;&gt;Node25</title>
<g id="a_edge41_Node000017_Node000025"><a xlink:title=" ">
<path fill="none" stroke="#63b8ff" d="M552.91,-279.5C558.68,-266.21 570.37,-241.7 585,-224 594.05,-213.06 606.03,-202.76 616.41,-194.79"/>
<polygon fill="#63b8ff" stroke="#63b8ff" points="618.18,-197.83 624.14,-189.07 614.02,-192.2 618.18,-197.83"/>
</a>
</g>
</g>
<!-- Node26 -->
<g id="Node000026" class="node">
<title>Node26</title>
<g id="a_Node000026"><a xlink:title=" ">
<polygon fill="#e0e0e0" stroke="#999999" points="538,-244 480,-244 480,-224 538,-224 538,-244"/>
<text xml:space="preserve" text-anchor="middle" x="509" y="-230.5" font-family="Helvetica,sans-Serif" font-size="10.00">functional</text>
</a>
</g>
</g>
<!-- Node17&#45;&gt;Node26 -->
<g id="edge42_Node000017_Node000026" class="edge">
<title>Node17&#45;&gt;Node26</title>
<g id="a_edge42_Node000017_Node000026"><a xlink:title=" ">
<path fill="none" stroke="#63b8ff" d="M542.03,-279.59C536.7,-272.39 529.17,-262.23 522.65,-253.43"/>
<polygon fill="#63b8ff" stroke="#63b8ff" points="525.55,-251.47 516.79,-245.51 519.93,-255.63 525.55,-251.47"/>
</a>
</g>
</g>
<!-- Node18&#45;&gt;Node3 -->
<g id="edge23_Node000018_Node000003" class="edge">
<title>Node18&#45;&gt;Node3</title>
<g id="a_edge23_Node000018_Node000003"><a xlink:title=" ">
<path fill="none" stroke="#63b8ff" d="M394.28,-167.58C407.31,-159.85 424.04,-147.65 433,-132 440.72,-118.51 442.77,-100.95 443,-87.47"/>
<polygon fill="#63b8ff" stroke="#63b8ff" points="446.5,-87.53 442.81,-77.59 439.5,-87.66 446.5,-87.53"/>
</a>
</g>
</g>
<!-- Node19 -->
<g id="Node000019" class="node">
<title>Node19</title>
<g id="a_Node000019"><a xlink:title=" ">
<polygon fill="#e0e0e0" stroke="#999999" points="173.62,-132 104.38,-132 104.38,-112 173.62,-112 173.62,-132"/>
<text xml:space="preserve" text-anchor="middle" x="139" y="-118.5" font-family="Helvetica,sans-Serif" font-size="10.00">glm/glm.hpp</text>
</a>
</g>
</g>
<!-- Node18&#45;&gt;Node19 -->
<g id="edge24_Node000018_Node000019" class="edge">
<title>Node18&#45;&gt;Node19</title>
<g id="a_edge24_Node000018_Node000019"><a xlink:title=" ">
<path fill="none" stroke="#63b8ff" d="M334.45,-167.53C292.65,-158.01 228.34,-143.36 185.02,-133.49"/>
<polygon fill="#63b8ff" stroke="#63b8ff" points="185.95,-130.11 175.42,-131.3 184.39,-136.93 185.95,-130.11"/>
</a>
</g>
</g>
<!-- Node20 -->
<g id="Node000020" class="node">
<title>Node20</title>
<g id="a_Node000020"><a xlink:title=" ">
<polygon fill="#e0e0e0" stroke="#999999" points="310,-132 192,-132 192,-112 310,-112 310,-132"/>
<text xml:space="preserve" text-anchor="middle" x="251" y="-118.5" font-family="Helvetica,sans-Serif" font-size="10.00">glm/gtx/string_cast.hpp</text>
</a>
</g>
</g>
<!-- Node18&#45;&gt;Node20 -->
<g id="edge25_Node000018_Node000020" class="edge">
<title>Node18&#45;&gt;Node20</title>
<g id="a_edge25_Node000018_Node000020"><a xlink:title=" ">
<path fill="none" stroke="#63b8ff" d="M354.23,-167.59C334.63,-159.13 305.57,-146.58 283.28,-136.94"/>
<polygon fill="#63b8ff" stroke="#63b8ff" points="284.9,-133.83 274.33,-133.08 282.12,-140.26 284.9,-133.83"/>
</a>
</g>
</g>
<!-- Node21 -->
<g id="Node000021" class="node">
<title>Node21</title>
<g id="a_Node000021"><a xlink:href="_datum_8inl.html" target="_top" xlink:title=" ">
<polygon fill="white" stroke="#666666" points="423.75,-132 328.25,-132 328.25,-112 423.75,-112 423.75,-132"/>
<text xml:space="preserve" text-anchor="middle" x="376" y="-118.5" font-family="Helvetica,sans-Serif" font-size="10.00">Content/Datum.inl</text>
</a>
</g>
</g>
<!-- Node18&#45;&gt;Node21 -->
<g id="edge26_Node000018_Node000021" class="edge">
<title>Node18&#45;&gt;Node21</title>
<g id="a_edge26_Node000018_Node000021"><a xlink:title=" ">
<path fill="none" stroke="#63b8ff" d="M370.73,-167.59C369.42,-161.01 368.98,-151.96 369.41,-143.73"/>
<polygon fill="#63b8ff" stroke="#63b8ff" points="372.89,-144.14 370.58,-133.8 365.94,-143.33 372.89,-144.14"/>
</a>
</g>
</g>
<!-- Node21&#45;&gt;Node18 -->
<g id="edge27_Node000021_Node000018" class="edge">
<title>Node21&#45;&gt;Node18</title>
<g id="a_edge27_Node000021_Node000018"><a xlink:title=" ">
<path fill="none" stroke="#63b8ff" d="M381.25,-132.3C382.59,-138.93 383.03,-148.11 382.58,-156.43"/>
<polygon fill="#63b8ff" stroke="#63b8ff" points="379.13,-155.75 381.44,-166.09 386.08,-156.57 379.13,-155.75"/>
</a>
</g>
</g>
<!-- Node22&#45;&gt;Node3 -->
<g id="edge29_Node000022_Node000003" class="edge">
<title>Node22&#45;&gt;Node3</title>
<g id="a_edge29_Node000022_Node000003"><a xlink:title=" ">
<path fill="none" stroke="#63b8ff" d="M626.08,-223.7C602.29,-206.4 550.21,-167.8 509,-132 491.14,-116.48 471.85,-97.52 458.58,-84.09"/>
<polygon fill="#63b8ff" stroke="#63b8ff" points="461.36,-81.93 451.86,-77.24 456.37,-86.83 461.36,-81.93"/>
</a>
</g>
</g>
<!-- Node22&#45;&gt;Node14 -->
<g id="edge39_Node000022_Node000014" class="edge">
<title>Node22&#45;&gt;Node14</title>
<g id="a_edge39_Node000022_Node000014"><a xlink:title=" ">
<path fill="none" stroke="#63b8ff" d="M684.25,-232.11C752.62,-229.71 877.26,-220.82 905,-188 928.76,-159.88 919.99,-113.56 912.09,-87.13"/>
<polygon fill="#63b8ff" stroke="#63b8ff" points="915.43,-86.09 909.01,-77.66 908.78,-88.25 915.43,-86.09"/>
</a>
</g>
</g>
<!-- Node22&#45;&gt;Node15 -->
<g id="edge30_Node000022_Node000015" class="edge">
<title>Node22&#45;&gt;Node15</title>
<g id="a_edge30_Node000022_Node000015"><a xlink:title=" ">
<path fill="none" stroke="#63b8ff" d="M632,-223.68C625.53,-214.8 615.9,-200.92 609,-188 601.15,-173.31 594.01,-155.84 589.04,-142.71"/>
<polygon fill="#63b8ff" stroke="#63b8ff" points="592.39,-141.68 585.66,-133.5 585.82,-144.1 592.39,-141.68"/>
</a>
</g>
</g>
<!-- Node22&#45;&gt;Node18 -->
<g id="edge31_Node000022_Node000018" class="edge">
<title>Node22&#45;&gt;Node18</title>
<g id="a_edge31_Node000022_Node000018"><a xlink:title=" ">
<path fill="none" stroke="#63b8ff" d="M593.79,-223.72C549.33,-214.59 481.3,-200.62 433.13,-190.73"/>
<polygon fill="#63b8ff" stroke="#63b8ff" points="433.93,-187.32 423.43,-188.74 432.52,-194.18 433.93,-187.32"/>
</a>
</g>
</g>
<!-- Node23 -->
<g id="Node000023" class="node">
<title>Node23</title>
<g id="a_Node000023"><a xlink:href="_factory_service_8h.html" target="_top" xlink:title=" ">
<polygon fill="white" stroke="#666666" points="896,-188 724,-188 724,-168 896,-168 896,-188"/>
<text xml:space="preserve" text-anchor="middle" x="810" y="-174.5" font-family="Helvetica,sans-Serif" font-size="10.00">FIEAGameEngine/FactoryService.h</text>
</a>
</g>
</g>
<!-- Node22&#45;&gt;Node23 -->
<g id="edge32_Node000022_Node000023" class="edge">
<title>Node22&#45;&gt;Node23</title>
<g id="a_edge32_Node000022_Node000023"><a xlink:title=" ">
<path fill="none" stroke="#63b8ff" d="M668.79,-223.59C696.57,-214.82 738.25,-201.66 769.14,-191.9"/>
<polygon fill="#63b8ff" stroke="#63b8ff" points="770.06,-195.28 778.54,-188.94 767.95,-188.61 770.06,-195.28"/>
</a>
</g>
</g>
<!-- Node22&#45;&gt;Node25 -->
<g id="edge38_Node000022_Node000025" class="edge">
<title>Node22&#45;&gt;Node25</title>
<g id="a_edge38_Node000022_Node000025"><a xlink:title=" ">
<path fill="none" stroke="#63b8ff" d="M639,-223.59C639,-217.01 639,-207.96 639,-199.73"/>
<polygon fill="#63b8ff" stroke="#63b8ff" points="642.5,-199.81 639,-189.81 635.5,-199.81 642.5,-199.81"/>
</a>
</g>
</g>
<!-- Node23&#45;&gt;Node3 -->
<g id="edge33_Node000023_Node000003" class="edge">
<title>Node23&#45;&gt;Node3</title>
<g id="a_edge33_Node000023_Node000003"><a xlink:title=" ">
<path fill="none" stroke="#63b8ff" d="M782.68,-167.52C758.72,-158.97 723.13,-145.66 693,-132 675.62,-124.12 672.95,-118.48 655,-112 611.46,-96.29 560.82,-85.31 519.85,-78.13"/>
<polygon fill="#63b8ff" stroke="#63b8ff" points="520.5,-74.69 510.05,-76.46 519.32,-81.59 520.5,-74.69"/>
</a>
</g>
</g>
<!-- Node23&#45;&gt;Node13 -->
<g id="edge35_Node000023_Node000013" class="edge">
<title>Node23&#45;&gt;Node13</title>
<g id="a_edge35_Node000023_Node000013"><a xlink:title=" ">
<path fill="none" stroke="#63b8ff" d="M804.77,-167.59C800.9,-160.63 795.49,-150.89 790.72,-142.29"/>
<polygon fill="#63b8ff" stroke="#63b8ff" points="793.82,-140.66 785.9,-133.62 787.7,-144.06 793.82,-140.66"/>
</a>
</g>
</g>
<!-- Node23&#45;&gt;Node14 -->
<g id="edge37_Node000023_Node000014" class="edge">
<title>Node23&#45;&gt;Node14</title>
<g id="a_edge37_Node000023_Node000014"><a xlink:title=" ">
<path fill="none" stroke="#63b8ff" d="M824.84,-167.58C837.15,-159.27 854.59,-146.27 867,-132 879.06,-118.13 889.34,-99.88 896.15,-86.26"/>
<polygon fill="#63b8ff" stroke="#63b8ff" points="899.2,-87.99 900.37,-77.46 892.89,-84.96 899.2,-87.99"/>
</a>
</g>
</g>
<!-- Node23&#45;&gt;Node15 -->
<g id="edge34_Node000023_Node000015" class="edge">
<title>Node23&#45;&gt;Node15</title>
<g id="a_edge34_Node000023_Node000015"><a xlink:title=" ">
<path fill="none" stroke="#63b8ff" d="M770.02,-167.53C731.89,-158.5 674.28,-144.85 632.88,-135.05"/>
<polygon fill="#63b8ff" stroke="#63b8ff" points="633.94,-131.7 623.4,-132.81 632.33,-138.52 633.94,-131.7"/>
</a>
</g>
</g>
<!-- Node23&#45;&gt;Node24 -->
<g id="edge36_Node000023_Node000024" class="edge">
<title>Node23&#45;&gt;Node24</title>
<g id="a_edge36_Node000023_Node000024"><a xlink:title=" ">
<path fill="none" stroke="#63b8ff" d="M839.44,-167.59C867.65,-158.58 910.38,-144.93 941.12,-135.1"/>
<polygon fill="#63b8ff" stroke="#63b8ff" points="941.95,-138.51 950.41,-132.13 939.82,-131.84 941.95,-138.51"/>
</a>
</g>
</g>
</g>
</svg>
