<?xml version="1.0" encoding="UTF-8" standalone="no"?>
<!DOCTYPE svg PUBLIC "-//W3C//DTD SVG 1.1//EN"
 "http://www.w3.org/Graphics/SVG/1.1/DTD/svg11.dtd">
<!-- Generated by graphviz version 13.1.0 (20250701.0955)
 -->
<!-- Title: FIEAGameEngine/include/Content/Scope.h Pages: 1 -->
<svg width="971pt" height="264pt"
 viewBox="0.00 0.00 971.00 264.00" xmlns="http://www.w3.org/2000/svg" xmlns:xlink="http://www.w3.org/1999/xlink">
<g id="graph0" class="graph" transform="scale(1 1) rotate(0) translate(4 260)">
<title>FIEAGameEngine/include/Content/Scope.h</title>
<!-- Node1 -->
<g id="Node000001" class="node">
<title>Node1</title>
<g id="a_Node000001"><a xlink:title=" ">
<polygon fill="#999999" stroke="#666666" points="667.88,-256 539.38,-256 539.38,-224 667.88,-224 667.88,-256"/>
<text xml:space="preserve" text-anchor="start" x="547.38" y="-242.5" font-family="Helvetica,sans-Serif" font-size="10.00">FIEAGameEngine/include</text>
<text xml:space="preserve" text-anchor="middle" x="603.62" y="-230.5" font-family="Helvetica,sans-Serif" font-size="10.00">/Content/Scope.h</text>
</a>
</g>
</g>
<!-- Node2 -->
<g id="Node000002" class="node">
<title>Node2</title>
<g id="a_Node000002"><a xlink:href="_types_8h.html" target="_top" xlink:title=" ">
<polygon fill="white" stroke="#666666" points="635.75,-76 503.5,-76 503.5,-56 635.75,-56 635.75,-76"/>
<text xml:space="preserve" text-anchor="middle" x="569.62" y="-62.5" font-family="Helvetica,sans-Serif" font-size="10.00">FIEAGameEngine/Types.h</text>
</a>
</g>
</g>
<!-- Node1&#45;&gt;Node2 -->
<g id="edge1_Node000001_Node000002" class="edge">
<title>Node1&#45;&gt;Node2</title>
<g id="a_edge1_Node000001_Node000002"><a xlink:title=" ">
<path fill="none" stroke="#63b8ff" d="M587.96,-223.56C579.57,-214.17 570.07,-201.42 565.62,-188 554.41,-154.19 559.8,-112.12 564.72,-87.54"/>
<polygon fill="#63b8ff" stroke="#63b8ff" points="568.11,-88.42 566.84,-77.9 561.27,-86.92 568.11,-88.42"/>
</a>
</g>
</g>
<!-- Node11 -->
<g id="Node000011" class="node">
<title>Node11</title>
<g id="a_Node000011"><a xlink:href="_r_t_t_i_8h.html" target="_top" xlink:title=" ">
<polygon fill="white" stroke="#666666" points="503.5,-132 375.75,-132 375.75,-112 503.5,-112 503.5,-132"/>
<text xml:space="preserve" text-anchor="middle" x="439.62" y="-118.5" font-family="Helvetica,sans-Serif" font-size="10.00">FIEAGameEngine/RTTI.h</text>
</a>
</g>
</g>
<!-- Node1&#45;&gt;Node11 -->
<g id="edge10_Node000001_Node000011" class="edge">
<title>Node1&#45;&gt;Node11</title>
<g id="a_edge10_Node000001_Node000011"><a xlink:title=" ">
<path fill="none" stroke="#63b8ff" d="M575.03,-223.56C557.95,-213.97 536.06,-201.02 517.62,-188 496.4,-173.01 473.76,-153.73 458.37,-140.07"/>
<polygon fill="#63b8ff" stroke="#63b8ff" points="460.71,-137.47 450.92,-133.39 456.03,-142.68 460.71,-137.47"/>
</a>
</g>
</g>
<!-- Node13 -->
<g id="Node000013" class="node">
<title>Node13</title>
<g id="a_Node000013"><a xlink:href="_datum_8h.html" target="_top" xlink:title=" ">
<polygon fill="white" stroke="#666666" points="317.12,-188 226.12,-188 226.12,-168 317.12,-168 317.12,-188"/>
<text xml:space="preserve" text-anchor="middle" x="271.62" y="-174.5" font-family="Helvetica,sans-Serif" font-size="10.00">Content/Datum.h</text>
</a>
</g>
</g>
<!-- Node1&#45;&gt;Node13 -->
<g id="edge14_Node000001_Node000013" class="edge">
<title>Node1&#45;&gt;Node13</title>
<g id="a_edge14_Node000001_Node000013"><a xlink:title=" ">
<path fill="none" stroke="#63b8ff" d="M539.22,-227.36C478.05,-216.31 386.98,-199.85 328.45,-189.27"/>
<polygon fill="#63b8ff" stroke="#63b8ff" points="329.15,-185.84 318.69,-187.5 327.9,-192.73 329.15,-185.84"/>
</a>
</g>
</g>
<!-- Node17 -->
<g id="Node000017" class="node">
<title>Node17</title>
<g id="a_Node000017"><a xlink:href="_factory_service_8h.html" target="_top" xlink:title=" ">
<polygon fill="white" stroke="#666666" points="746.62,-188 574.62,-188 574.62,-168 746.62,-168 746.62,-188"/>
<text xml:space="preserve" text-anchor="middle" x="660.62" y="-174.5" font-family="Helvetica,sans-Serif" font-size="10.00">FIEAGameEngine/FactoryService.h</text>
</a>
</g>
</g>
<!-- Node1&#45;&gt;Node17 -->
<g id="edge20_Node000001_Node000017" class="edge">
<title>Node1&#45;&gt;Node17</title>
<g id="a_edge20_Node000001_Node000017"><a xlink:title=" ">
<path fill="none" stroke="#63b8ff" d="M618.3,-223.55C626.14,-215.3 635.81,-205.12 643.93,-196.57"/>
<polygon fill="#63b8ff" stroke="#63b8ff" points="646.29,-199.17 650.64,-189.51 641.22,-194.34 646.29,-199.17"/>
</a>
</g>
</g>
<!-- Node19 -->
<g id="Node000019" class="node">
<title>Node19</title>
<g id="a_Node000019"><a xlink:title=" ">
<polygon fill="#e0e0e0" stroke="#999999" points="895,-76 812.25,-76 812.25,-56 895,-56 895,-76"/>
<text xml:space="preserve" text-anchor="middle" x="853.62" y="-62.5" font-family="Helvetica,sans-Serif" font-size="10.00">unordered_map</text>
</a>
</g>
</g>
<!-- Node1&#45;&gt;Node19 -->
<g id="edge29_Node000001_Node000019" class="edge">
<title>Node1&#45;&gt;Node19</title>
<g id="a_edge29_Node000001_Node000019"><a xlink:title=" ">
<path fill="none" stroke="#63b8ff" d="M668.37,-232.53C729.32,-222.5 816.74,-196.96 854.62,-132 862.46,-118.56 861.57,-100.76 859.08,-87.18"/>
<polygon fill="#63b8ff" stroke="#63b8ff" points="862.53,-86.58 856.88,-77.62 855.71,-88.15 862.53,-86.58"/>
</a>
</g>
</g>
<!-- Node21 -->
<g id="Node000021" class="node">
<title>Node21</title>
<g id="a_Node000021"><a xlink:title=" ">
<polygon fill="#e0e0e0" stroke="#999999" points="963.12,-188 920.12,-188 920.12,-168 963.12,-168 963.12,-188"/>
<text xml:space="preserve" text-anchor="middle" x="941.62" y="-174.5" font-family="Helvetica,sans-Serif" font-size="10.00">vector</text>
</a>
</g>
</g>
<!-- Node1&#45;&gt;Node21 -->
<g id="edge28_Node000001_Node000021" class="edge">
<title>Node1&#45;&gt;Node21</title>
<g id="a_edge28_Node000001_Node000021"><a xlink:title=" ">
<path fill="none" stroke="#63b8ff" d="M668.11,-229.59C729.44,-220.3 824.17,-205.03 905.62,-188 906.79,-187.76 907.98,-187.5 909.17,-187.24"/>
<polygon fill="#63b8ff" stroke="#63b8ff" points="909.58,-190.74 918.51,-185.04 907.98,-183.92 909.58,-190.74"/>
</a>
</g>
</g>
<!-- Node3 -->
<g id="Node000003" class="node">
<title>Node3</title>
<g id="a_Node000003"><a xlink:title=" ">
<polygon fill="#e0e0e0" stroke="#999999" points="349.62,-20 189.62,-20 189.62,0 349.62,0 349.62,-20"/>
<text xml:space="preserve" text-anchor="middle" x="269.62" y="-6.5" font-family="Helvetica,sans-Serif" font-size="10.00">../src/Memory/SystemAllocator.h</text>
</a>
</g>
</g>
<!-- Node2&#45;&gt;Node3 -->
<g id="edge2_Node000002_Node000003" class="edge">
<title>Node2&#45;&gt;Node3</title>
<g id="a_edge2_Node000002_Node000003"><a xlink:title=" ">
<path fill="none" stroke="#63b8ff" d="M517.03,-55.53C465.88,-46.33 388.12,-32.33 333.46,-22.49"/>
<polygon fill="#63b8ff" stroke="#63b8ff" points="334.12,-19.05 323.65,-20.73 332.88,-25.94 334.12,-19.05"/>
</a>
</g>
</g>
<!-- Node4 -->
<g id="Node000004" class="node">
<title>Node4</title>
<g id="a_Node000004"><a xlink:title=" ">
<polygon fill="#e0e0e0" stroke="#999999" points="429.88,-20 367.38,-20 367.38,0 429.88,0 429.88,-20"/>
<text xml:space="preserve" text-anchor="middle" x="398.62" y="-6.5" font-family="Helvetica,sans-Serif" font-size="10.00">windows.h</text>
</a>
</g>
</g>
<!-- Node2&#45;&gt;Node4 -->
<g id="edge3_Node000002_Node000004" class="edge">
<title>Node2&#45;&gt;Node4</title>
<g id="a_edge3_Node000002_Node000004"><a xlink:title=" ">
<path fill="none" stroke="#63b8ff" d="M539.84,-55.59C512.06,-46.82 470.37,-33.66 439.49,-23.9"/>
<polygon fill="#63b8ff" stroke="#63b8ff" points="440.68,-20.61 430.09,-20.94 438.57,-27.28 440.68,-20.61"/>
</a>
</g>
</g>
<!-- Node5 -->
<g id="Node000005" class="node">
<title>Node5</title>
<g id="a_Node000005"><a xlink:title=" ">
<polygon fill="#e0e0e0" stroke="#999999" points="495.75,-20 447.5,-20 447.5,0 495.75,0 495.75,-20"/>
<text xml:space="preserve" text-anchor="middle" x="471.62" y="-6.5" font-family="Helvetica,sans-Serif" font-size="10.00">cassert</text>
</a>
</g>
</g>
<!-- Node2&#45;&gt;Node5 -->
<g id="edge4_Node000002_Node000005" class="edge">
<title>Node2&#45;&gt;Node5</title>
<g id="a_edge4_Node000002_Node000005"><a xlink:title=" ">
<path fill="none" stroke="#63b8ff" d="M552.55,-55.59C537.75,-47.44 516.06,-35.48 498.86,-26"/>
<polygon fill="#63b8ff" stroke="#63b8ff" points="500.6,-22.97 490.15,-21.21 497.22,-29.1 500.6,-22.97"/>
</a>
</g>
</g>
<!-- Node6 -->
<g id="Node000006" class="node">
<title>Node6</title>
<g id="a_Node000006"><a xlink:title=" ">
<polygon fill="#e0e0e0" stroke="#999999" points="561.75,-20 513.5,-20 513.5,0 561.75,0 561.75,-20"/>
<text xml:space="preserve" text-anchor="middle" x="537.62" y="-6.5" font-family="Helvetica,sans-Serif" font-size="10.00">cstddef</text>
</a>
</g>
</g>
<!-- Node2&#45;&gt;Node6 -->
<g id="edge5_Node000002_Node000006" class="edge">
<title>Node2&#45;&gt;Node6</title>
<g id="a_edge5_Node000002_Node000006"><a xlink:title=" ">
<path fill="none" stroke="#63b8ff" d="M564.05,-55.59C559.88,-48.55 554.02,-38.67 548.88,-30"/>
<polygon fill="#63b8ff" stroke="#63b8ff" points="552.02,-28.42 543.91,-21.6 545.99,-31.99 552.02,-28.42"/>
</a>
</g>
</g>
<!-- Node7 -->
<g id="Node000007" class="node">
<title>Node7</title>
<g id="a_Node000007"><a xlink:title=" ">
<polygon fill="#e0e0e0" stroke="#999999" points="625.25,-20 580,-20 580,0 625.25,0 625.25,-20"/>
<text xml:space="preserve" text-anchor="middle" x="602.62" y="-6.5" font-family="Helvetica,sans-Serif" font-size="10.00">cstdint</text>
</a>
</g>
</g>
<!-- Node2&#45;&gt;Node7 -->
<g id="edge6_Node000002_Node000007" class="edge">
<title>Node2&#45;&gt;Node7</title>
<g id="a_edge6_Node000002_Node000007"><a xlink:title=" ">
<path fill="none" stroke="#63b8ff" d="M575.37,-55.59C579.68,-48.55 585.72,-38.67 591.01,-30"/>
<polygon fill="#63b8ff" stroke="#63b8ff" points="593.93,-31.95 596.15,-21.59 587.95,-28.3 593.93,-31.95"/>
</a>
</g>
</g>
<!-- Node8 -->
<g id="Node000008" class="node">
<title>Node8</title>
<g id="a_Node000008"><a xlink:title=" ">
<polygon fill="#e0e0e0" stroke="#999999" points="696,-20 643.25,-20 643.25,0 696,0 696,-20"/>
<text xml:space="preserve" text-anchor="middle" x="669.62" y="-6.5" font-family="Helvetica,sans-Serif" font-size="10.00">cstdbool</text>
</a>
</g>
</g>
<!-- Node2&#45;&gt;Node8 -->
<g id="edge7_Node000002_Node000008" class="edge">
<title>Node2&#45;&gt;Node8</title>
<g id="a_edge7_Node000002_Node000008"><a xlink:title=" ">
<path fill="none" stroke="#63b8ff" d="M587.04,-55.59C602.29,-47.36 624.7,-35.26 642.33,-25.74"/>
<polygon fill="#63b8ff" stroke="#63b8ff" points="643.6,-29.03 650.74,-21.2 640.28,-22.87 643.6,-29.03"/>
</a>
</g>
</g>
<!-- Node9 -->
<g id="Node000009" class="node">
<title>Node9</title>
<g id="a_Node000009"><a xlink:title=" ">
<polygon fill="#e0e0e0" stroke="#999999" points="753.62,-20 713.62,-20 713.62,0 753.62,0 753.62,-20"/>
<text xml:space="preserve" text-anchor="middle" x="733.62" y="-6.5" font-family="Helvetica,sans-Serif" font-size="10.00">string</text>
</a>
</g>
</g>
<!-- Node2&#45;&gt;Node9 -->
<g id="edge8_Node000002_Node000009" class="edge">
<title>Node2&#45;&gt;Node9</title>
<g id="a_edge8_Node000002_Node000009"><a xlink:title=" ">
<path fill="none" stroke="#63b8ff" d="M598.19,-55.59C627.32,-46 672.39,-31.16 702.44,-21.27"/>
<polygon fill="#63b8ff" stroke="#63b8ff" points="703.31,-24.67 711.72,-18.21 701.12,-18.02 703.31,-24.67"/>
</a>
</g>
</g>
<!-- Node10 -->
<g id="Node000010" class="node">
<title>Node10</title>
<g id="a_Node000010"><a xlink:title=" ">
<polygon fill="#e0e0e0" stroke="#999999" points="825.75,-20 771.5,-20 771.5,0 825.75,0 825.75,-20"/>
<text xml:space="preserve" text-anchor="middle" x="798.62" y="-6.5" font-family="Helvetica,sans-Serif" font-size="10.00">crtdefs.h</text>
</a>
</g>
</g>
<!-- Node2&#45;&gt;Node10 -->
<g id="edge9_Node000002_Node000010" class="edge">
<title>Node2&#45;&gt;Node10</title>
<g id="a_edge9_Node000002_Node000010"><a xlink:title=" ">
<path fill="none" stroke="#63b8ff" d="M611.08,-55.53C647.83,-47.1 703.23,-34.27 760.11,-20.58"/>
<polygon fill="#63b8ff" stroke="#63b8ff" points="760.75,-24.03 769.65,-18.28 759.11,-17.22 760.75,-24.03"/>
</a>
</g>
</g>
<!-- Node11&#45;&gt;Node2 -->
<g id="edge11_Node000011_Node000002" class="edge">
<title>Node11&#45;&gt;Node2</title>
<g id="a_edge11_Node000011_Node000002"><a xlink:title=" ">
<path fill="none" stroke="#63b8ff" d="M462.27,-111.59C482.74,-103.09 513.14,-90.46 536.37,-80.81"/>
<polygon fill="#63b8ff" stroke="#63b8ff" points="537.51,-84.13 545.41,-77.06 534.83,-77.66 537.51,-84.13"/>
</a>
</g>
</g>
<!-- Node12 -->
<g id="Node000012" class="node">
<title>Node12</title>
<g id="a_Node000012"><a xlink:href="_r_t_t_i_8inl.html" target="_top" xlink:title=" ">
<polygon fill="white" stroke="#666666" points="485.75,-76 353.5,-76 353.5,-56 485.75,-56 485.75,-76"/>
<text xml:space="preserve" text-anchor="middle" x="419.62" y="-62.5" font-family="Helvetica,sans-Serif" font-size="10.00">FIEAGameEngine/RTTI.inl</text>
</a>
</g>
</g>
<!-- Node11&#45;&gt;Node12 -->
<g id="edge12_Node000011_Node000012" class="edge">
<title>Node11&#45;&gt;Node12</title>
<g id="a_edge12_Node000011_Node000012"><a xlink:title=" ">
<path fill="none" stroke="#63b8ff" d="M430.87,-111.59C427.07,-104.93 423.24,-95.75 420.63,-87.44"/>
<polygon fill="#63b8ff" stroke="#63b8ff" points="424.03,-86.61 418.19,-77.77 417.24,-88.32 424.03,-86.61"/>
</a>
</g>
</g>
<!-- Node12&#45;&gt;Node11 -->
<g id="edge13_Node000012_Node000011" class="edge">
<title>Node12&#45;&gt;Node11</title>
<g id="a_edge13_Node000012_Node000011"><a xlink:title=" ">
<path fill="none" stroke="#63b8ff" d="M428.31,-76.3C432.16,-83.01 436.05,-92.32 438.67,-100.71"/>
<polygon fill="#63b8ff" stroke="#63b8ff" points="435.21,-101.28 441.04,-110.13 442,-99.57 435.21,-101.28"/>
</a>
</g>
</g>
<!-- Node13&#45;&gt;Node2 -->
<g id="edge15_Node000013_Node000002" class="edge">
<title>Node13&#45;&gt;Node2</title>
<g id="a_edge15_Node000013_Node000002"><a xlink:title=" ">
<path fill="none" stroke="#63b8ff" d="M282.21,-167.71C298.94,-153.51 333.07,-126.55 366.62,-112 406.26,-94.81 453.21,-83.86 491.97,-77.07"/>
<polygon fill="#63b8ff" stroke="#63b8ff" points="492.42,-80.54 501.7,-75.43 491.25,-73.64 492.42,-80.54"/>
</a>
</g>
</g>
<!-- Node14 -->
<g id="Node000014" class="node">
<title>Node14</title>
<g id="a_Node000014"><a xlink:title=" ">
<polygon fill="#e0e0e0" stroke="#999999" points="69.25,-132 0,-132 0,-112 69.25,-112 69.25,-132"/>
<text xml:space="preserve" text-anchor="middle" x="34.62" y="-118.5" font-family="Helvetica,sans-Serif" font-size="10.00">glm/glm.hpp</text>
</a>
</g>
</g>
<!-- Node13&#45;&gt;Node14 -->
<g id="edge16_Node000013_Node000014" class="edge">
<title>Node13&#45;&gt;Node14</title>
<g id="a_edge16_Node000013_Node000014"><a xlink:title=" ">
<path fill="none" stroke="#63b8ff" d="M230.07,-167.53C188.27,-158.01 123.97,-143.36 80.65,-133.49"/>
<polygon fill="#63b8ff" stroke="#63b8ff" points="81.57,-130.11 71.04,-131.3 80.02,-136.93 81.57,-130.11"/>
</a>
</g>
</g>
<!-- Node15 -->
<g id="Node000015" class="node">
<title>Node15</title>
<g id="a_Node000015"><a xlink:title=" ">
<polygon fill="#e0e0e0" stroke="#999999" points="205.62,-132 87.62,-132 87.62,-112 205.62,-112 205.62,-132"/>
<text xml:space="preserve" text-anchor="middle" x="146.62" y="-118.5" font-family="Helvetica,sans-Serif" font-size="10.00">glm/gtx/string_cast.hpp</text>
</a>
</g>
</g>
<!-- Node13&#45;&gt;Node15 -->
<g id="edge17_Node000013_Node000015" class="edge">
<title>Node13&#45;&gt;Node15</title>
<g id="a_edge17_Node000013_Node000015"><a xlink:title=" ">
<path fill="none" stroke="#63b8ff" d="M249.85,-167.59C230.26,-159.13 201.2,-146.58 178.9,-136.94"/>
<polygon fill="#63b8ff" stroke="#63b8ff" points="180.53,-133.83 169.96,-133.08 177.75,-140.26 180.53,-133.83"/>
</a>
</g>
</g>
<!-- Node16 -->
<g id="Node000016" class="node">
<title>Node16</title>
<g id="a_Node000016"><a xlink:href="_datum_8inl.html" target="_top" xlink:title=" ">
<polygon fill="white" stroke="#666666" points="319.38,-132 223.88,-132 223.88,-112 319.38,-112 319.38,-132"/>
<text xml:space="preserve" text-anchor="middle" x="271.62" y="-118.5" font-family="Helvetica,sans-Serif" font-size="10.00">Content/Datum.inl</text>
</a>
</g>
</g>
<!-- Node13&#45;&gt;Node16 -->
<g id="edge18_Node000013_Node000016" class="edge">
<title>Node13&#45;&gt;Node16</title>
<g id="a_edge18_Node000013_Node000016"><a xlink:title=" ">
<path fill="none" stroke="#63b8ff" d="M266.36,-167.59C265.04,-161.01 264.6,-151.96 265.04,-143.73"/>
<polygon fill="#63b8ff" stroke="#63b8ff" points="268.52,-144.14 266.2,-133.8 261.56,-143.33 268.52,-144.14"/>
</a>
</g>
</g>
<!-- Node16&#45;&gt;Node13 -->
<g id="edge19_Node000016_Node000013" class="edge">
<title>Node16&#45;&gt;Node13</title>
<g id="a_edge19_Node000016_Node000013"><a xlink:title=" ">
<path fill="none" stroke="#63b8ff" d="M276.87,-132.3C278.21,-138.93 278.66,-148.11 278.2,-156.43"/>
<polygon fill="#63b8ff" stroke="#63b8ff" points="274.76,-155.75 277.07,-166.09 281.71,-156.57 274.76,-155.75"/>
</a>
</g>
</g>
<!-- Node17&#45;&gt;Node2 -->
<g id="edge21_Node000017_Node000002" class="edge">
<title>Node17&#45;&gt;Node2</title>
<g id="a_edge21_Node000017_Node000002"><a xlink:title=" ">
<path fill="none" stroke="#63b8ff" d="M637.01,-167.63C621.16,-160.2 601,-148.33 588.62,-132 578.84,-119.08 574.09,-101.24 571.78,-87.51"/>
<polygon fill="#63b8ff" stroke="#63b8ff" points="575.28,-87.27 570.48,-77.82 568.34,-88.2 575.28,-87.27"/>
</a>
</g>
</g>
<!-- Node17&#45;&gt;Node11 -->
<g id="edge22_Node000017_Node000011" class="edge">
<title>Node17&#45;&gt;Node11</title>
<g id="a_edge22_Node000017_Node000011"><a xlink:title=" ">
<path fill="none" stroke="#63b8ff" d="M621.88,-167.53C585.07,-158.54 529.54,-144.97 489.46,-135.18"/>
<polygon fill="#63b8ff" stroke="#63b8ff" points="490.34,-131.79 479.8,-132.82 488.68,-138.59 490.34,-131.79"/>
</a>
</g>
</g>
<!-- Node18 -->
<g id="Node000018" class="node">
<title>Node18</title>
<g id="a_Node000018"><a xlink:href="_service_mgr_8h.html" target="_top" xlink:title=" ">
<polygon fill="white" stroke="#666666" points="753.38,-132 597.88,-132 597.88,-112 753.38,-112 753.38,-132"/>
<text xml:space="preserve" text-anchor="middle" x="675.62" y="-118.5" font-family="Helvetica,sans-Serif" font-size="10.00">FIEAGameEngine/ServiceMgr.h</text>
</a>
</g>
</g>
<!-- Node17&#45;&gt;Node18 -->
<g id="edge23_Node000017_Node000018" class="edge">
<title>Node17&#45;&gt;Node18</title>
<g id="a_edge23_Node000017_Node000018"><a xlink:title=" ">
<path fill="none" stroke="#63b8ff" d="M663.24,-167.59C665.11,-160.86 667.7,-151.53 670.03,-143.15"/>
<polygon fill="#63b8ff" stroke="#63b8ff" points="673.33,-144.33 672.64,-133.76 666.59,-142.46 673.33,-144.33"/>
</a>
</g>
</g>
<!-- Node17&#45;&gt;Node19 -->
<g id="edge27_Node000017_Node000019" class="edge">
<title>Node17&#45;&gt;Node19</title>
<g id="a_edge27_Node000017_Node000019"><a xlink:title=" ">
<path fill="none" stroke="#63b8ff" d="M746.71,-172.22C777.92,-166.36 811.21,-154.69 834.62,-132 846.51,-120.48 851.07,-101.98 852.77,-87.65"/>
<polygon fill="#63b8ff" stroke="#63b8ff" points="856.24,-88.17 853.52,-77.93 849.26,-87.63 856.24,-88.17"/>
</a>
</g>
</g>
<!-- Node20 -->
<g id="Node000020" class="node">
<title>Node20</title>
<g id="a_Node000020"><a xlink:title=" ">
<polygon fill="#e0e0e0" stroke="#999999" points="825.38,-132 771.88,-132 771.88,-112 825.38,-112 825.38,-132"/>
<text xml:space="preserve" text-anchor="middle" x="798.62" y="-118.5" font-family="Helvetica,sans-Serif" font-size="10.00">iostream</text>
</a>
</g>
</g>
<!-- Node17&#45;&gt;Node20 -->
<g id="edge26_Node000017_Node000020" class="edge">
<title>Node17&#45;&gt;Node20</title>
<g id="a_edge26_Node000017_Node000020"><a xlink:title=" ">
<path fill="none" stroke="#63b8ff" d="M684.66,-167.59C706.59,-159.01 739.25,-146.23 764,-136.55"/>
<polygon fill="#63b8ff" stroke="#63b8ff" points="764.95,-139.93 772.99,-133.03 762.4,-133.42 764.95,-139.93"/>
</a>
</g>
</g>
<!-- Node18&#45;&gt;Node2 -->
<g id="edge24_Node000018_Node000002" class="edge">
<title>Node18&#45;&gt;Node2</title>
<g id="a_edge24_Node000018_Node000002"><a xlink:title=" ">
<path fill="none" stroke="#63b8ff" d="M657.16,-111.59C640.92,-103.32 617.02,-91.14 598.29,-81.6"/>
<polygon fill="#63b8ff" stroke="#63b8ff" points="600.08,-78.59 589.58,-77.17 596.9,-84.82 600.08,-78.59"/>
</a>
</g>
</g>
<!-- Node18&#45;&gt;Node19 -->
<g id="edge25_Node000018_Node000019" class="edge">
<title>Node18&#45;&gt;Node19</title>
<g id="a_edge25_Node000018_Node000019"><a xlink:title=" ">
<path fill="none" stroke="#63b8ff" d="M706.63,-111.59C735.68,-102.78 779.32,-89.54 811.51,-79.78"/>
<polygon fill="#63b8ff" stroke="#63b8ff" points="812.38,-83.17 820.93,-76.92 810.34,-76.47 812.38,-83.17"/>
</a>
</g>
</g>
</g>
</svg>
