<?xml version="1.0" encoding="UTF-8" standalone="no"?>
<!DOCTYPE svg PUBLIC "-//W3C//DTD SVG 1.1//EN"
 "http://www.w3.org/Graphics/SVG/1.1/DTD/svg11.dtd">
<!-- Generated by graphviz version 13.1.0 (20250701.0955)
 -->
<!-- Title: FIEAGameEngine/src/Content/ScopeHandler.h Pages: 1 -->
<svg width="1041pt" height="432pt"
 viewBox="0.00 0.00 1041.00 432.00" xmlns="http://www.w3.org/2000/svg" xmlns:xlink="http://www.w3.org/1999/xlink">
<g id="graph0" class="graph" transform="scale(1 1) rotate(0) translate(4 428)">
<title>FIEAGameEngine/src/Content/ScopeHandler.h</title>
<!-- Node1 -->
<g id="Node000001" class="node">
<title>Node1</title>
<g id="a_Node000001"><a xlink:title=" ">
<polygon fill="#999999" stroke="#666666" points="865.12,-424 738.88,-424 738.88,-392 865.12,-392 865.12,-424"/>
<text xml:space="preserve" text-anchor="start" x="746.88" y="-410.5" font-family="Helvetica,sans-Serif" font-size="10.00">FIEAGameEngine/src</text>
<text xml:space="preserve" text-anchor="middle" x="802" y="-398.5" font-family="Helvetica,sans-Serif" font-size="10.00">/Content/ScopeHandler.h</text>
</a>
</g>
</g>
<!-- Node2 -->
<g id="Node000002" class="node">
<title>Node2</title>
<g id="a_Node000002"><a xlink:href="_types_8h.html" target="_top" xlink:title=" ">
<polygon fill="white" stroke="#666666" points="655.25,-76 526.75,-76 526.75,-56 655.25,-56 655.25,-76"/>
<text xml:space="preserve" text-anchor="middle" x="591" y="-62.5" font-family="Helvetica,sans-Serif" font-size="10.00">FieaGameEngine/Types.h</text>
</a>
</g>
</g>
<!-- Node1&#45;&gt;Node2 -->
<g id="edge1_Node000001_Node000002" class="edge">
<title>Node1&#45;&gt;Node2</title>
<g id="a_edge1_Node000001_Node000002"><a xlink:title=" ">
<path fill="none" stroke="#63b8ff" d="M865.43,-401.99C933.81,-392.71 1033,-366.28 1033,-291 1033,-291 1033,-291 1033,-177 1033,-140.82 1015.41,-129.96 984,-112 931.6,-82.04 765.85,-72.01 667.13,-68.66"/>
<polygon fill="#63b8ff" stroke="#63b8ff" points="667.35,-65.17 657.25,-68.34 667.13,-72.16 667.35,-65.17"/>
</a>
</g>
</g>
<!-- Node11 -->
<g id="Node000011" class="node">
<title>Node11</title>
<g id="a_Node000011"><a xlink:href="_content_service_8h.html" target="_top" xlink:title=" ">
<polygon fill="white" stroke="#666666" points="658.75,-356 485.25,-356 485.25,-336 658.75,-336 658.75,-356"/>
<text xml:space="preserve" text-anchor="middle" x="572" y="-342.5" font-family="Helvetica,sans-Serif" font-size="10.00">FIEAGameEngine/ContentService.h</text>
</a>
</g>
</g>
<!-- Node1&#45;&gt;Node11 -->
<g id="edge10_Node000001_Node000011" class="edge">
<title>Node1&#45;&gt;Node11</title>
<g id="a_edge10_Node000001_Node000011"><a xlink:title=" ">
<path fill="none" stroke="#63b8ff" d="M742.77,-391.55C704.46,-381.55 655.25,-368.72 619.5,-359.39"/>
<polygon fill="#63b8ff" stroke="#63b8ff" points="620.43,-356.02 609.87,-356.88 618.66,-362.79 620.43,-356.02"/>
</a>
</g>
</g>
<!-- Node3 -->
<g id="Node000003" class="node">
<title>Node3</title>
<g id="a_Node000003"><a xlink:title=" ">
<polygon fill="#e0e0e0" stroke="#999999" points="371,-20 211,-20 211,0 371,0 371,-20"/>
<text xml:space="preserve" text-anchor="middle" x="291" y="-6.5" font-family="Helvetica,sans-Serif" font-size="10.00">../src/Memory/SystemAllocator.h</text>
</a>
</g>
</g>
<!-- Node2&#45;&gt;Node3 -->
<g id="edge2_Node000002_Node000003" class="edge">
<title>Node2&#45;&gt;Node3</title>
<g id="a_edge2_Node000002_Node000003"><a xlink:title=" ">
<path fill="none" stroke="#63b8ff" d="M538.4,-55.53C487.26,-46.33 409.5,-32.33 354.83,-22.49"/>
<polygon fill="#63b8ff" stroke="#63b8ff" points="355.49,-19.05 345.03,-20.73 354.25,-25.94 355.49,-19.05"/>
</a>
</g>
</g>
<!-- Node4 -->
<g id="Node000004" class="node">
<title>Node4</title>
<g id="a_Node000004"><a xlink:title=" ">
<polygon fill="#e0e0e0" stroke="#999999" points="451.25,-20 388.75,-20 388.75,0 451.25,0 451.25,-20"/>
<text xml:space="preserve" text-anchor="middle" x="420" y="-6.5" font-family="Helvetica,sans-Serif" font-size="10.00">windows.h</text>
</a>
</g>
</g>
<!-- Node2&#45;&gt;Node4 -->
<g id="edge3_Node000002_Node000004" class="edge">
<title>Node2&#45;&gt;Node4</title>
<g id="a_edge3_Node000002_Node000004"><a xlink:title=" ">
<path fill="none" stroke="#63b8ff" d="M561.21,-55.59C533.43,-46.82 491.75,-33.66 460.86,-23.9"/>
<polygon fill="#63b8ff" stroke="#63b8ff" points="462.05,-20.61 451.46,-20.94 459.94,-27.28 462.05,-20.61"/>
</a>
</g>
</g>
<!-- Node5 -->
<g id="Node000005" class="node">
<title>Node5</title>
<g id="a_Node000005"><a xlink:title=" ">
<polygon fill="#e0e0e0" stroke="#999999" points="517.12,-20 468.88,-20 468.88,0 517.12,0 517.12,-20"/>
<text xml:space="preserve" text-anchor="middle" x="493" y="-6.5" font-family="Helvetica,sans-Serif" font-size="10.00">cassert</text>
</a>
</g>
</g>
<!-- Node2&#45;&gt;Node5 -->
<g id="edge4_Node000002_Node000005" class="edge">
<title>Node2&#45;&gt;Node5</title>
<g id="a_edge4_Node000002_Node000005"><a xlink:title=" ">
<path fill="none" stroke="#63b8ff" d="M573.93,-55.59C559.12,-47.44 537.43,-35.48 520.23,-26"/>
<polygon fill="#63b8ff" stroke="#63b8ff" points="521.98,-22.97 511.53,-21.21 518.6,-29.1 521.98,-22.97"/>
</a>
</g>
</g>
<!-- Node6 -->
<g id="Node000006" class="node">
<title>Node6</title>
<g id="a_Node000006"><a xlink:title=" ">
<polygon fill="#e0e0e0" stroke="#999999" points="583.12,-20 534.88,-20 534.88,0 583.12,0 583.12,-20"/>
<text xml:space="preserve" text-anchor="middle" x="559" y="-6.5" font-family="Helvetica,sans-Serif" font-size="10.00">cstddef</text>
</a>
</g>
</g>
<!-- Node2&#45;&gt;Node6 -->
<g id="edge5_Node000002_Node000006" class="edge">
<title>Node2&#45;&gt;Node6</title>
<g id="a_edge5_Node000002_Node000006"><a xlink:title=" ">
<path fill="none" stroke="#63b8ff" d="M585.43,-55.59C581.25,-48.55 575.4,-38.67 570.26,-30"/>
<polygon fill="#63b8ff" stroke="#63b8ff" points="573.39,-28.42 565.28,-21.6 567.37,-31.99 573.39,-28.42"/>
</a>
</g>
</g>
<!-- Node7 -->
<g id="Node000007" class="node">
<title>Node7</title>
<g id="a_Node000007"><a xlink:title=" ">
<polygon fill="#e0e0e0" stroke="#999999" points="646.62,-20 601.38,-20 601.38,0 646.62,0 646.62,-20"/>
<text xml:space="preserve" text-anchor="middle" x="624" y="-6.5" font-family="Helvetica,sans-Serif" font-size="10.00">cstdint</text>
</a>
</g>
</g>
<!-- Node2&#45;&gt;Node7 -->
<g id="edge6_Node000002_Node000007" class="edge">
<title>Node2&#45;&gt;Node7</title>
<g id="a_edge6_Node000002_Node000007"><a xlink:title=" ">
<path fill="none" stroke="#63b8ff" d="M596.75,-55.59C601.05,-48.55 607.09,-38.67 612.39,-30"/>
<polygon fill="#63b8ff" stroke="#63b8ff" points="615.3,-31.95 617.53,-21.59 609.33,-28.3 615.3,-31.95"/>
</a>
</g>
</g>
<!-- Node8 -->
<g id="Node000008" class="node">
<title>Node8</title>
<g id="a_Node000008"><a xlink:title=" ">
<polygon fill="#e0e0e0" stroke="#999999" points="717.38,-20 664.62,-20 664.62,0 717.38,0 717.38,-20"/>
<text xml:space="preserve" text-anchor="middle" x="691" y="-6.5" font-family="Helvetica,sans-Serif" font-size="10.00">cstdbool</text>
</a>
</g>
</g>
<!-- Node2&#45;&gt;Node8 -->
<g id="edge7_Node000002_Node000008" class="edge">
<title>Node2&#45;&gt;Node8</title>
<g id="a_edge7_Node000002_Node000008"><a xlink:title=" ">
<path fill="none" stroke="#63b8ff" d="M608.42,-55.59C623.67,-47.36 646.08,-35.26 663.71,-25.74"/>
<polygon fill="#63b8ff" stroke="#63b8ff" points="664.98,-29.03 672.11,-21.2 661.65,-22.87 664.98,-29.03"/>
</a>
</g>
</g>
<!-- Node9 -->
<g id="Node000009" class="node">
<title>Node9</title>
<g id="a_Node000009"><a xlink:title=" ">
<polygon fill="#e0e0e0" stroke="#999999" points="775,-20 735,-20 735,0 775,0 775,-20"/>
<text xml:space="preserve" text-anchor="middle" x="755" y="-6.5" font-family="Helvetica,sans-Serif" font-size="10.00">string</text>
</a>
</g>
</g>
<!-- Node2&#45;&gt;Node9 -->
<g id="edge8_Node000002_Node000009" class="edge">
<title>Node2&#45;&gt;Node9</title>
<g id="a_edge8_Node000002_Node000009"><a xlink:title=" ">
<path fill="none" stroke="#63b8ff" d="M619.57,-55.59C648.7,-46 693.77,-31.16 723.81,-21.27"/>
<polygon fill="#63b8ff" stroke="#63b8ff" points="724.69,-24.67 733.09,-18.21 722.5,-18.02 724.69,-24.67"/>
</a>
</g>
</g>
<!-- Node10 -->
<g id="Node000010" class="node">
<title>Node10</title>
<g id="a_Node000010"><a xlink:title=" ">
<polygon fill="#e0e0e0" stroke="#999999" points="847.12,-20 792.88,-20 792.88,0 847.12,0 847.12,-20"/>
<text xml:space="preserve" text-anchor="middle" x="820" y="-6.5" font-family="Helvetica,sans-Serif" font-size="10.00">crtdefs.h</text>
</a>
</g>
</g>
<!-- Node2&#45;&gt;Node10 -->
<g id="edge9_Node000002_Node000010" class="edge">
<title>Node2&#45;&gt;Node10</title>
<g id="a_edge9_Node000002_Node000010"><a xlink:title=" ">
<path fill="none" stroke="#63b8ff" d="M632.46,-55.53C669.2,-47.1 724.61,-34.27 781.48,-20.58"/>
<polygon fill="#63b8ff" stroke="#63b8ff" points="782.12,-24.03 791.02,-18.28 780.48,-17.22 782.12,-24.03"/>
</a>
</g>
</g>
<!-- Node11&#45;&gt;Node2 -->
<g id="edge11_Node000011_Node000002" class="edge">
<title>Node11&#45;&gt;Node2</title>
<g id="a_edge11_Node000011_Node000002"><a xlink:title=" ">
<path fill="none" stroke="#63b8ff" d="M659.13,-339.93C782.96,-330.3 995,-303.77 995,-235 995,-235 995,-235 995,-177 995,-143.76 985.66,-130.43 958,-112 911.78,-81.21 760.38,-71.48 667.09,-68.41"/>
<polygon fill="#63b8ff" stroke="#63b8ff" points="667.35,-64.92 657.25,-68.11 667.14,-71.92 667.35,-64.92"/>
</a>
</g>
</g>
<!-- Node12 -->
<g id="Node000012" class="node">
<title>Node12</title>
<g id="a_Node000012"><a xlink:href="_service_mgr_8h.html" target="_top" xlink:title=" ">
<polygon fill="white" stroke="#666666" points="259.75,-132 104.25,-132 104.25,-112 259.75,-112 259.75,-132"/>
<text xml:space="preserve" text-anchor="middle" x="182" y="-118.5" font-family="Helvetica,sans-Serif" font-size="10.00">FIEAGameEngine/ServiceMgr.h</text>
</a>
</g>
</g>
<!-- Node11&#45;&gt;Node12 -->
<g id="edge12_Node000011_Node000012" class="edge">
<title>Node11&#45;&gt;Node12</title>
<g id="a_edge12_Node000011_Node000012"><a xlink:title=" ">
<path fill="none" stroke="#63b8ff" d="M534.01,-335.52C465.79,-316.95 320.81,-270.23 226,-188 211.22,-175.18 199.17,-156.29 191.45,-142.17"/>
<polygon fill="#63b8ff" stroke="#63b8ff" points="194.62,-140.69 186.9,-133.42 188.41,-143.91 194.62,-140.69"/>
</a>
</g>
</g>
<!-- Node13 -->
<g id="Node000013" class="node">
<title>Node13</title>
<g id="a_Node000013"><a xlink:title=" ">
<polygon fill="#e0e0e0" stroke="#999999" points="98.38,-76 15.62,-76 15.62,-56 98.38,-56 98.38,-76"/>
<text xml:space="preserve" text-anchor="middle" x="57" y="-62.5" font-family="Helvetica,sans-Serif" font-size="10.00">unordered_map</text>
</a>
</g>
</g>
<!-- Node11&#45;&gt;Node13 -->
<g id="edge44_Node000011_Node000013" class="edge">
<title>Node11&#45;&gt;Node13</title>
<g id="a_edge44_Node000011_Node000013"><a xlink:title=" ">
<path fill="none" stroke="#63b8ff" d="M484.81,-337.13C324.69,-321.49 0,-283.76 0,-235 0,-235 0,-235 0,-177 0,-141.35 23.89,-105.75 40.74,-85.08"/>
<polygon fill="#63b8ff" stroke="#63b8ff" points="43.3,-87.48 47.11,-77.6 37.97,-82.94 43.3,-87.48"/>
</a>
</g>
</g>
<!-- Node14 -->
<g id="Node000014" class="node">
<title>Node14</title>
<g id="a_Node000014"><a xlink:href="_r_t_t_i_8h.html" target="_top" xlink:title=" ">
<polygon fill="white" stroke="#666666" points="515.88,-132 388.12,-132 388.12,-112 515.88,-112 515.88,-132"/>
<text xml:space="preserve" text-anchor="middle" x="452" y="-118.5" font-family="Helvetica,sans-Serif" font-size="10.00">FIEAGameEngine/RTTI.h</text>
</a>
</g>
</g>
<!-- Node11&#45;&gt;Node14 -->
<g id="edge15_Node000011_Node000014" class="edge">
<title>Node11&#45;&gt;Node14</title>
<g id="a_edge15_Node000011_Node000014"><a xlink:title=" ">
<path fill="none" stroke="#63b8ff" d="M526.44,-335.58C506.26,-329.02 484.16,-318.08 471,-300 436.65,-252.82 442.64,-178.95 448.14,-143.43"/>
<polygon fill="#63b8ff" stroke="#63b8ff" points="451.57,-144.13 449.82,-133.69 444.67,-142.95 451.57,-144.13"/>
</a>
</g>
</g>
<!-- Node16 -->
<g id="Node000016" class="node">
<title>Node16</title>
<g id="a_Node000016"><a xlink:href="_attributed_8h.html" target="_top" xlink:title=" ">
<polygon fill="white" stroke="#666666" points="703.88,-300 600.12,-300 600.12,-280 703.88,-280 703.88,-300"/>
<text xml:space="preserve" text-anchor="middle" x="652" y="-286.5" font-family="Helvetica,sans-Serif" font-size="10.00">Content/Attributed.h</text>
</a>
</g>
</g>
<!-- Node11&#45;&gt;Node16 -->
<g id="edge19_Node000011_Node000016" class="edge">
<title>Node11&#45;&gt;Node16</title>
<g id="a_edge19_Node000011_Node000016"><a xlink:title=" ">
<path fill="none" stroke="#63b8ff" d="M585.93,-335.59C597.68,-327.67 614.73,-316.16 628.57,-306.82"/>
<polygon fill="#63b8ff" stroke="#63b8ff" points="630.37,-309.82 636.7,-301.33 626.46,-304.02 630.37,-309.82"/>
</a>
</g>
</g>
<!-- Node17 -->
<g id="Node000017" class="node">
<title>Node17</title>
<g id="a_Node000017"><a xlink:href="_datum_8h.html" target="_top" xlink:title=" ">
<polygon fill="white" stroke="#666666" points="783.5,-188 692.5,-188 692.5,-168 783.5,-168 783.5,-188"/>
<text xml:space="preserve" text-anchor="middle" x="738" y="-174.5" font-family="Helvetica,sans-Serif" font-size="10.00">Content/Datum.h</text>
</a>
</g>
</g>
<!-- Node11&#45;&gt;Node17 -->
<g id="edge42_Node000011_Node000017" class="edge">
<title>Node11&#45;&gt;Node17</title>
<g id="a_edge42_Node000011_Node000017"><a xlink:title=" ">
<path fill="none" stroke="#63b8ff" d="M627.05,-335.57C654.67,-328.9 687.56,-317.87 713,-300 738.68,-281.96 745.91,-273.71 756,-244 761.13,-228.91 755.71,-211.49 749.52,-198.48"/>
<polygon fill="#63b8ff" stroke="#63b8ff" points="752.62,-196.87 744.83,-189.69 746.45,-200.16 752.62,-196.87"/>
</a>
</g>
</g>
<!-- Node21 -->
<g id="Node000021" class="node">
<title>Node21</title>
<g id="a_Node000021"><a xlink:href="_scope_8h.html" target="_top" xlink:title=" ">
<polygon fill="white" stroke="#666666" points="577.75,-244 488.25,-244 488.25,-224 577.75,-224 577.75,-244"/>
<text xml:space="preserve" text-anchor="middle" x="533" y="-230.5" font-family="Helvetica,sans-Serif" font-size="10.00">Content/Scope.h</text>
</a>
</g>
</g>
<!-- Node11&#45;&gt;Node21 -->
<g id="edge43_Node000011_Node000021" class="edge">
<title>Node11&#45;&gt;Node21</title>
<g id="a_edge43_Node000011_Node000021"><a xlink:title=" ">
<path fill="none" stroke="#63b8ff" d="M569.68,-335.62C566.43,-322.87 560.12,-299.43 553,-280 549.88,-271.48 545.9,-262.29 542.32,-254.45"/>
<polygon fill="#63b8ff" stroke="#63b8ff" points="545.56,-253.1 538.15,-245.53 539.22,-256.07 545.56,-253.1"/>
</a>
</g>
</g>
<!-- Node26 -->
<g id="Node000026" class="node">
<title>Node26</title>
<g id="a_Node000026"><a xlink:title=" ">
<polygon fill="#e0e0e0" stroke="#999999" points="543.62,-300 480.38,-300 480.38,-280 543.62,-280 543.62,-300"/>
<text xml:space="preserve" text-anchor="middle" x="512" y="-286.5" font-family="Helvetica,sans-Serif" font-size="10.00">json/json.h</text>
</a>
</g>
</g>
<!-- Node11&#45;&gt;Node26 -->
<g id="edge45_Node000011_Node000026" class="edge">
<title>Node11&#45;&gt;Node26</title>
<g id="a_edge45_Node000011_Node000026"><a xlink:title=" ">
<path fill="none" stroke="#63b8ff" d="M561.55,-335.59C553.03,-327.93 540.79,-316.91 530.61,-307.75"/>
<polygon fill="#63b8ff" stroke="#63b8ff" points="533.23,-305.4 523.46,-301.31 528.55,-310.6 533.23,-305.4"/>
</a>
</g>
</g>
<!-- Node12&#45;&gt;Node2 -->
<g id="edge13_Node000012_Node000002" class="edge">
<title>Node12&#45;&gt;Node2</title>
<g id="a_edge13_Node000012_Node000002"><a xlink:title=" ">
<path fill="none" stroke="#63b8ff" d="M253.71,-111.53C327.04,-101.85 440.5,-86.87 515.26,-77"/>
<polygon fill="#63b8ff" stroke="#63b8ff" points="515.5,-80.5 524.95,-75.72 514.58,-73.56 515.5,-80.5"/>
</a>
</g>
</g>
<!-- Node12&#45;&gt;Node13 -->
<g id="edge14_Node000012_Node000013" class="edge">
<title>Node12&#45;&gt;Node13</title>
<g id="a_edge14_Node000012_Node000013"><a xlink:title=" ">
<path fill="none" stroke="#63b8ff" d="M160.23,-111.59C140.63,-103.13 111.57,-90.58 89.28,-80.94"/>
<polygon fill="#63b8ff" stroke="#63b8ff" points="90.9,-77.83 80.33,-77.08 88.12,-84.26 90.9,-77.83"/>
</a>
</g>
</g>
<!-- Node14&#45;&gt;Node2 -->
<g id="edge16_Node000014_Node000002" class="edge">
<title>Node14&#45;&gt;Node2</title>
<g id="a_edge16_Node000014_Node000002"><a xlink:title=" ">
<path fill="none" stroke="#63b8ff" d="M476.21,-111.59C498.3,-103.01 531.2,-90.23 556.12,-80.55"/>
<polygon fill="#63b8ff" stroke="#63b8ff" points="557.13,-83.91 565.19,-77.03 554.6,-77.39 557.13,-83.91"/>
</a>
</g>
</g>
<!-- Node15 -->
<g id="Node000015" class="node">
<title>Node15</title>
<g id="a_Node000015"><a xlink:href="_r_t_t_i_8inl.html" target="_top" xlink:title=" ">
<polygon fill="white" stroke="#666666" points="509.12,-76 376.88,-76 376.88,-56 509.12,-56 509.12,-76"/>
<text xml:space="preserve" text-anchor="middle" x="443" y="-62.5" font-family="Helvetica,sans-Serif" font-size="10.00">FIEAGameEngine/RTTI.inl</text>
</a>
</g>
</g>
<!-- Node14&#45;&gt;Node15 -->
<g id="edge17_Node000014_Node000015" class="edge">
<title>Node14&#45;&gt;Node15</title>
<g id="a_edge17_Node000014_Node000015"><a xlink:title=" ">
<path fill="none" stroke="#63b8ff" d="M445.17,-111.59C442.75,-105.01 440.8,-95.96 439.87,-87.73"/>
<polygon fill="#63b8ff" stroke="#63b8ff" points="443.37,-87.63 439.38,-77.81 436.38,-87.97 443.37,-87.63"/>
</a>
</g>
</g>
<!-- Node15&#45;&gt;Node14 -->
<g id="edge18_Node000015_Node000014" class="edge">
<title>Node15&#45;&gt;Node14</title>
<g id="a_edge18_Node000015_Node000014"><a xlink:title=" ">
<path fill="none" stroke="#63b8ff" d="M449.79,-76.3C452.21,-82.85 454.17,-91.9 455.12,-100.13"/>
<polygon fill="#63b8ff" stroke="#63b8ff" points="451.62,-100.27 455.62,-110.08 458.61,-99.92 451.62,-100.27"/>
</a>
</g>
</g>
<!-- Node16&#45;&gt;Node2 -->
<g id="edge20_Node000016_Node000002" class="edge">
<title>Node16&#45;&gt;Node2</title>
<g id="a_edge20_Node000016_Node000002"><a xlink:title=" ">
<path fill="none" stroke="#63b8ff" d="M699.63,-279.57C799.34,-257.83 1014.7,-199.29 938,-112 920.4,-91.97 763.66,-78.24 666.95,-71.6"/>
<polygon fill="#63b8ff" stroke="#63b8ff" points="667.19,-68.11 656.98,-70.93 666.72,-75.09 667.19,-68.11"/>
</a>
</g>
</g>
<!-- Node16&#45;&gt;Node14 -->
<g id="edge39_Node000016_Node000014" class="edge">
<title>Node16&#45;&gt;Node14</title>
<g id="a_edge39_Node000016_Node000014"><a xlink:title=" ">
<path fill="none" stroke="#63b8ff" d="M652.91,-279.63C654.54,-257.1 655.35,-199.43 625,-168 611.06,-153.56 567.04,-142.23 526.9,-134.54"/>
<polygon fill="#63b8ff" stroke="#63b8ff" points="527.67,-131.13 517.2,-132.75 526.4,-138.01 527.67,-131.13"/>
</a>
</g>
</g>
<!-- Node16&#45;&gt;Node17 -->
<g id="edge21_Node000016_Node000017" class="edge">
<title>Node16&#45;&gt;Node17</title>
<g id="a_edge21_Node000016_Node000017"><a xlink:title=" ">
<path fill="none" stroke="#63b8ff" d="M689.24,-279.65C707.62,-272.95 728.13,-261.87 739,-244 747.09,-230.71 746.18,-212.9 743.61,-199.27"/>
<polygon fill="#63b8ff" stroke="#63b8ff" points="747.05,-198.6 741.35,-189.67 740.24,-200.21 747.05,-198.6"/>
</a>
</g>
</g>
<!-- Node16&#45;&gt;Node21 -->
<g id="edge27_Node000016_Node000021" class="edge">
<title>Node16&#45;&gt;Node21</title>
<g id="a_edge27_Node000016_Node000021"><a xlink:title=" ">
<path fill="none" stroke="#63b8ff" d="M631.27,-279.59C612.79,-271.21 585.46,-258.8 564.31,-249.21"/>
<polygon fill="#63b8ff" stroke="#63b8ff" points="565.82,-246.05 555.27,-245.1 562.93,-252.42 565.82,-246.05"/>
</a>
</g>
</g>
<!-- Node24 -->
<g id="Node000024" class="node">
<title>Node24</title>
<g id="a_Node000024"><a xlink:title=" ">
<polygon fill="#e0e0e0" stroke="#999999" points="615.5,-188 572.5,-188 572.5,-168 615.5,-168 615.5,-188"/>
<text xml:space="preserve" text-anchor="middle" x="594" y="-174.5" font-family="Helvetica,sans-Serif" font-size="10.00">vector</text>
</a>
</g>
</g>
<!-- Node16&#45;&gt;Node24 -->
<g id="edge40_Node000016_Node000024" class="edge">
<title>Node16&#45;&gt;Node24</title>
<g id="a_edge40_Node000016_Node000024"><a xlink:title=" ">
<path fill="none" stroke="#63b8ff" d="M647.05,-279.62C637.6,-261.68 616.76,-222.17 604.2,-198.35"/>
<polygon fill="#63b8ff" stroke="#63b8ff" points="607.4,-196.91 599.64,-189.69 601.21,-200.17 607.4,-196.91"/>
</a>
</g>
</g>
<!-- Node25 -->
<g id="Node000025" class="node">
<title>Node25</title>
<g id="a_Node000025"><a xlink:title=" ">
<polygon fill="#e0e0e0" stroke="#999999" points="730,-244 672,-244 672,-224 730,-224 730,-244"/>
<text xml:space="preserve" text-anchor="middle" x="701" y="-230.5" font-family="Helvetica,sans-Serif" font-size="10.00">functional</text>
</a>
</g>
</g>
<!-- Node16&#45;&gt;Node25 -->
<g id="edge41_Node000016_Node000025" class="edge">
<title>Node16&#45;&gt;Node25</title>
<g id="a_edge41_Node000016_Node000025"><a xlink:title=" ">
<path fill="none" stroke="#63b8ff" d="M660.54,-279.59C667.28,-272.16 676.89,-261.58 685.04,-252.58"/>
<polygon fill="#63b8ff" stroke="#63b8ff" points="687.42,-255.18 691.55,-245.42 682.23,-250.47 687.42,-255.18"/>
</a>
</g>
</g>
<!-- Node17&#45;&gt;Node2 -->
<g id="edge22_Node000017_Node000002" class="edge">
<title>Node17&#45;&gt;Node2</title>
<g id="a_edge22_Node000017_Node000002"><a xlink:title=" ">
<path fill="none" stroke="#63b8ff" d="M692.08,-173.98C661.68,-169.45 623.42,-158.45 601,-132 590.71,-119.86 588.66,-101.68 588.93,-87.63"/>
<polygon fill="#63b8ff" stroke="#63b8ff" points="592.42,-87.89 589.56,-77.69 585.43,-87.45 592.42,-87.89"/>
</a>
</g>
</g>
<!-- Node18 -->
<g id="Node000018" class="node">
<title>Node18</title>
<g id="a_Node000018"><a xlink:title=" ">
<polygon fill="#e0e0e0" stroke="#999999" points="792.62,-132 723.38,-132 723.38,-112 792.62,-112 792.62,-132"/>
<text xml:space="preserve" text-anchor="middle" x="758" y="-118.5" font-family="Helvetica,sans-Serif" font-size="10.00">glm/glm.hpp</text>
</a>
</g>
</g>
<!-- Node17&#45;&gt;Node18 -->
<g id="edge23_Node000017_Node000018" class="edge">
<title>Node17&#45;&gt;Node18</title>
<g id="a_edge23_Node000017_Node000018"><a xlink:title=" ">
<path fill="none" stroke="#63b8ff" d="M741.48,-167.59C744.01,-160.78 747.51,-151.32 750.64,-142.86"/>
<polygon fill="#63b8ff" stroke="#63b8ff" points="753.84,-144.31 754.03,-133.72 747.28,-141.88 753.84,-144.31"/>
</a>
</g>
</g>
<!-- Node19 -->
<g id="Node000019" class="node">
<title>Node19</title>
<g id="a_Node000019"><a xlink:title=" ">
<polygon fill="#e0e0e0" stroke="#999999" points="929,-132 811,-132 811,-112 929,-112 929,-132"/>
<text xml:space="preserve" text-anchor="middle" x="870" y="-118.5" font-family="Helvetica,sans-Serif" font-size="10.00">glm/gtx/string_cast.hpp</text>
</a>
</g>
</g>
<!-- Node17&#45;&gt;Node19 -->
<g id="edge24_Node000017_Node000019" class="edge">
<title>Node17&#45;&gt;Node19</title>
<g id="a_edge24_Node000017_Node000019"><a xlink:title=" ">
<path fill="none" stroke="#63b8ff" d="M760.99,-167.59C781.78,-159.09 812.65,-146.46 836.24,-136.81"/>
<polygon fill="#63b8ff" stroke="#63b8ff" points="837.5,-140.08 845.43,-133.05 834.85,-133.6 837.5,-140.08"/>
</a>
</g>
</g>
<!-- Node20 -->
<g id="Node000020" class="node">
<title>Node20</title>
<g id="a_Node000020"><a xlink:href="_datum_8inl.html" target="_top" xlink:title=" ">
<polygon fill="white" stroke="#666666" points="705.75,-132 610.25,-132 610.25,-112 705.75,-112 705.75,-132"/>
<text xml:space="preserve" text-anchor="middle" x="658" y="-118.5" font-family="Helvetica,sans-Serif" font-size="10.00">Content/Datum.inl</text>
</a>
</g>
</g>
<!-- Node17&#45;&gt;Node20 -->
<g id="edge25_Node000017_Node000020" class="edge">
<title>Node17&#45;&gt;Node20</title>
<g id="a_edge25_Node000017_Node000020"><a xlink:title=" ">
<path fill="none" stroke="#63b8ff" d="M718.8,-167.59C705.65,-159.77 688.57,-148.46 675.74,-139.19"/>
<polygon fill="#63b8ff" stroke="#63b8ff" points="677.85,-136.39 667.74,-133.21 673.65,-142 677.85,-136.39"/>
</a>
</g>
</g>
<!-- Node20&#45;&gt;Node17 -->
<g id="edge26_Node000020_Node000017" class="edge">
<title>Node20&#45;&gt;Node17</title>
<g id="a_edge26_Node000020_Node000017"><a xlink:title=" ">
<path fill="none" stroke="#63b8ff" d="M677.33,-132.48C690.42,-140.27 707.37,-151.5 720.14,-160.73"/>
<polygon fill="#63b8ff" stroke="#63b8ff" points="718.01,-163.5 728.12,-166.69 722.2,-157.9 718.01,-163.5"/>
</a>
</g>
</g>
<!-- Node21&#45;&gt;Node2 -->
<g id="edge28_Node000021_Node000002" class="edge">
<title>Node21&#45;&gt;Node2</title>
<g id="a_edge28_Node000021_Node000002"><a xlink:title=" ">
<path fill="none" stroke="#63b8ff" d="M536.28,-223.6C545.46,-197.35 571.49,-122.84 584.05,-86.89"/>
<polygon fill="#63b8ff" stroke="#63b8ff" points="587.26,-88.32 587.25,-77.73 580.65,-86.01 587.26,-88.32"/>
</a>
</g>
</g>
<!-- Node21&#45;&gt;Node13 -->
<g id="edge38_Node000021_Node000013" class="edge">
<title>Node21&#45;&gt;Node13</title>
<g id="a_edge38_Node000021_Node000013"><a xlink:title=" ">
<path fill="none" stroke="#63b8ff" d="M487.95,-229.32C427.6,-223.72 317.51,-211.19 226,-188 155.81,-170.21 121.32,-185.93 73,-132 62.19,-119.94 58.41,-101.75 57.21,-87.68"/>
<polygon fill="#63b8ff" stroke="#63b8ff" points="60.71,-87.55 56.77,-77.72 53.71,-87.86 60.71,-87.55"/>
</a>
</g>
</g>
<!-- Node21&#45;&gt;Node14 -->
<g id="edge29_Node000021_Node000014" class="edge">
<title>Node21&#45;&gt;Node14</title>
<g id="a_edge29_Node000021_Node000014"><a xlink:title=" ">
<path fill="none" stroke="#63b8ff" d="M526.09,-223.62C512.7,-205.44 483,-165.09 465.54,-141.38"/>
<polygon fill="#63b8ff" stroke="#63b8ff" points="468.53,-139.55 459.79,-133.57 462.9,-143.7 468.53,-139.55"/>
</a>
</g>
</g>
<!-- Node21&#45;&gt;Node17 -->
<g id="edge30_Node000021_Node000017" class="edge">
<title>Node21&#45;&gt;Node17</title>
<g id="a_edge30_Node000021_Node000017"><a xlink:title=" ">
<path fill="none" stroke="#63b8ff" d="M568.71,-223.59C602.6,-214.67 653.75,-201.19 690.95,-191.39"/>
<polygon fill="#63b8ff" stroke="#63b8ff" points="691.77,-194.8 700.55,-188.87 689.99,-188.03 691.77,-194.8"/>
</a>
</g>
</g>
<!-- Node22 -->
<g id="Node000022" class="node">
<title>Node22</title>
<g id="a_Node000022"><a xlink:href="_factory_service_8h.html" target="_top" xlink:title=" ">
<polygon fill="white" stroke="#666666" points="407,-188 235,-188 235,-168 407,-168 407,-188"/>
<text xml:space="preserve" text-anchor="middle" x="321" y="-174.5" font-family="Helvetica,sans-Serif" font-size="10.00">FIEAGameEngine/FactoryService.h</text>
</a>
</g>
</g>
<!-- Node21&#45;&gt;Node22 -->
<g id="edge31_Node000021_Node000022" class="edge">
<title>Node21&#45;&gt;Node22</title>
<g id="a_edge31_Node000021_Node000022"><a xlink:title=" ">
<path fill="none" stroke="#63b8ff" d="M496.07,-223.59C460.87,-214.63 407.68,-201.08 369.16,-191.27"/>
<polygon fill="#63b8ff" stroke="#63b8ff" points="370.24,-187.93 359.68,-188.85 368.51,-194.71 370.24,-187.93"/>
</a>
</g>
</g>
<!-- Node21&#45;&gt;Node24 -->
<g id="edge37_Node000021_Node000024" class="edge">
<title>Node21&#45;&gt;Node24</title>
<g id="a_edge37_Node000021_Node000024"><a xlink:title=" ">
<path fill="none" stroke="#63b8ff" d="M543.63,-223.59C552.28,-215.93 564.73,-204.91 575.08,-195.75"/>
<polygon fill="#63b8ff" stroke="#63b8ff" points="577.2,-198.55 582.36,-189.3 572.56,-193.31 577.2,-198.55"/>
</a>
</g>
</g>
<!-- Node22&#45;&gt;Node2 -->
<g id="edge32_Node000022_Node000002" class="edge">
<title>Node22&#45;&gt;Node2</title>
<g id="a_edge32_Node000022_Node000002"><a xlink:title=" ">
<path fill="none" stroke="#63b8ff" d="M326.47,-167.78C335.5,-153.43 354.93,-125.96 379,-112 402.01,-98.65 464.26,-86.32 515.39,-77.96"/>
<polygon fill="#63b8ff" stroke="#63b8ff" points="515.64,-81.46 524.95,-76.42 514.53,-74.55 515.64,-81.46"/>
</a>
</g>
</g>
<!-- Node22&#45;&gt;Node12 -->
<g id="edge34_Node000022_Node000012" class="edge">
<title>Node22&#45;&gt;Node12</title>
<g id="a_edge34_Node000022_Node000012"><a xlink:title=" ">
<path fill="none" stroke="#63b8ff" d="M296.79,-167.59C274.7,-159.01 241.8,-146.23 216.88,-136.55"/>
<polygon fill="#63b8ff" stroke="#63b8ff" points="218.4,-133.39 207.81,-133.03 215.87,-139.91 218.4,-133.39"/>
</a>
</g>
</g>
<!-- Node22&#45;&gt;Node13 -->
<g id="edge36_Node000022_Node000013" class="edge">
<title>Node22&#45;&gt;Node13</title>
<g id="a_edge36_Node000022_Node000013"><a xlink:title=" ">
<path fill="none" stroke="#63b8ff" d="M236.72,-167.5C182.33,-160.02 117.64,-148.14 95,-132 79.54,-120.99 69.4,-101.56 63.51,-86.8"/>
<polygon fill="#63b8ff" stroke="#63b8ff" points="66.89,-85.86 60.19,-77.64 60.31,-88.24 66.89,-85.86"/>
</a>
</g>
</g>
<!-- Node22&#45;&gt;Node14 -->
<g id="edge33_Node000022_Node000014" class="edge">
<title>Node22&#45;&gt;Node14</title>
<g id="a_edge33_Node000022_Node000014"><a xlink:title=" ">
<path fill="none" stroke="#63b8ff" d="M343.82,-167.59C364.45,-159.09 395.08,-146.46 418.49,-136.81"/>
<polygon fill="#63b8ff" stroke="#63b8ff" points="419.69,-140.1 427.6,-133.06 417.02,-133.63 419.69,-140.1"/>
</a>
</g>
</g>
<!-- Node23 -->
<g id="Node000023" class="node">
<title>Node23</title>
<g id="a_Node000023"><a xlink:title=" ">
<polygon fill="#e0e0e0" stroke="#999999" points="331.75,-132 278.25,-132 278.25,-112 331.75,-112 331.75,-132"/>
<text xml:space="preserve" text-anchor="middle" x="305" y="-118.5" font-family="Helvetica,sans-Serif" font-size="10.00">iostream</text>
</a>
</g>
</g>
<!-- Node22&#45;&gt;Node23 -->
<g id="edge35_Node000022_Node000023" class="edge">
<title>Node22&#45;&gt;Node23</title>
<g id="a_edge35_Node000022_Node000023"><a xlink:title=" ">
<path fill="none" stroke="#63b8ff" d="M318.21,-167.59C316.22,-160.86 313.45,-151.53 310.97,-143.15"/>
<polygon fill="#63b8ff" stroke="#63b8ff" points="314.38,-142.34 308.19,-133.75 307.67,-144.33 314.38,-142.34"/>
</a>
</g>
</g>
</g>
</svg>
