<?xml version="1.0" encoding="UTF-8" standalone="no"?>
<!DOCTYPE svg PUBLIC "-//W3C//DTD SVG 1.1//EN"
 "http://www.w3.org/Graphics/SVG/1.1/DTD/svg11.dtd">
<!-- Generated by graphviz version 13.1.0 (20250701.0955)
 -->
<!-- Title: FIEAGameEngine/src/Content/ScopeWriter.h Pages: 1 -->
<svg width="1531pt" height="120pt"
 viewBox="0.00 0.00 1531.00 120.00" xmlns="http://www.w3.org/2000/svg" xmlns:xlink="http://www.w3.org/1999/xlink">
<g id="graph0" class="graph" transform="scale(1 1) rotate(0) translate(4 116)">
<title>FIEAGameEngine/src/Content/ScopeWriter.h</title>
<!-- Node1 -->
<g id="Node000001" class="node">
<title>Node1</title>
<g id="a_Node000001"><a xlink:title=" ">
<polygon fill="#999999" stroke="#666666" points="858.38,-112 740.38,-112 740.38,-80 858.38,-80 858.38,-112"/>
<text xml:space="preserve" text-anchor="start" x="748.38" y="-98.5" font-family="Helvetica,sans-Serif" font-size="10.00">FIEAGameEngine/src</text>
<text xml:space="preserve" text-anchor="middle" x="799.38" y="-86.5" font-family="Helvetica,sans-Serif" font-size="10.00">/Content/ScopeWriter.h</text>
</a>
</g>
</g>
<!-- Node2 -->
<g id="Node000002" class="node">
<title>Node2</title>
<g id="a_Node000002"><a xlink:href="_action_handler_8cpp.html" target="_top" xlink:title=" ">
<polygon fill="white" stroke="#666666" points="136.75,-38 0,-38 0,-6 136.75,-6 136.75,-38"/>
<text xml:space="preserve" text-anchor="start" x="8" y="-24.5" font-family="Helvetica,sans-Serif" font-size="10.00">FIEAGameEngine/src</text>
<text xml:space="preserve" text-anchor="middle" x="68.38" y="-12.5" font-family="Helvetica,sans-Serif" font-size="10.00">/Content/ActionHandler.cpp</text>
</a>
</g>
</g>
<!-- Node1&#45;&gt;Node2 -->
<g id="edge1_Node000001_Node000002" class="edge">
<title>Node1&#45;&gt;Node2</title>
<g id="a_edge1_Node000001_Node000002"><a xlink:title=" ">
<path fill="none" stroke="#63b8ff" d="M728.71,-93.75C608.34,-90.68 356.17,-80.11 146.38,-44 137.94,-42.55 129.1,-40.6 120.52,-38.47"/>
<polygon fill="#63b8ff" stroke="#63b8ff" points="728.35,-97.25 738.43,-93.99 728.52,-90.25 728.35,-97.25"/>
</a>
</g>
</g>
<!-- Node3 -->
<g id="Node000003" class="node">
<title>Node3</title>
<g id="a_Node000003"><a xlink:href="_action_list_handler_8cpp.html" target="_top" xlink:title=" ">
<polygon fill="white" stroke="#666666" points="307.62,-38 155.12,-38 155.12,-6 307.62,-6 307.62,-38"/>
<text xml:space="preserve" text-anchor="start" x="163.12" y="-24.5" font-family="Helvetica,sans-Serif" font-size="10.00">FIEAGameEngine/src</text>
<text xml:space="preserve" text-anchor="middle" x="231.38" y="-12.5" font-family="Helvetica,sans-Serif" font-size="10.00">/Content/ActionListHandler.cpp</text>
</a>
</g>
</g>
<!-- Node1&#45;&gt;Node3 -->
<g id="edge2_Node000001_Node000003" class="edge">
<title>Node1&#45;&gt;Node3</title>
<g id="a_edge2_Node000001_Node000003"><a xlink:title=" ">
<path fill="none" stroke="#63b8ff" d="M728.49,-90.57C633.96,-83.96 461.68,-69.5 316.38,-44 307.54,-42.45 298.26,-40.5 289.22,-38.41"/>
<polygon fill="#63b8ff" stroke="#63b8ff" points="728.17,-94.05 738.39,-91.25 728.65,-87.07 728.17,-94.05"/>
</a>
</g>
</g>
<!-- Node4 -->
<g id="Node000004" class="node">
<title>Node4</title>
<g id="a_Node000004"><a xlink:href="_action_while_param_handler_8cpp.html" target="_top" xlink:title=" ">
<polygon fill="white" stroke="#666666" points="515.38,-38 325.38,-38 325.38,-6 515.38,-6 515.38,-38"/>
<text xml:space="preserve" text-anchor="start" x="333.38" y="-24.5" font-family="Helvetica,sans-Serif" font-size="10.00">FIEAGameEngine/src</text>
<text xml:space="preserve" text-anchor="middle" x="420.38" y="-12.5" font-family="Helvetica,sans-Serif" font-size="10.00">/Content/ActionWhileParamHandler.cpp</text>
</a>
</g>
</g>
<!-- Node1&#45;&gt;Node4 -->
<g id="edge3_Node000001_Node000004" class="edge">
<title>Node1&#45;&gt;Node4</title>
<g id="a_edge3_Node000001_Node000004"><a xlink:title=" ">
<path fill="none" stroke="#63b8ff" d="M728.91,-82.25C673.32,-72.11 593.84,-57.45 524.38,-44 515.24,-42.23 505.67,-40.34 496.18,-38.45"/>
<polygon fill="#63b8ff" stroke="#63b8ff" points="728.09,-85.66 738.56,-84.01 729.35,-78.77 728.09,-85.66"/>
</a>
</g>
</g>
<!-- Node5 -->
<g id="Node000005" class="node">
<title>Node5</title>
<g id="a_Node000005"><a xlink:href="_game_object_handler_8cpp.html" target="_top" xlink:title=" ">
<polygon fill="white" stroke="#666666" points="697.25,-38 533.5,-38 533.5,-6 697.25,-6 697.25,-38"/>
<text xml:space="preserve" text-anchor="start" x="541.5" y="-24.5" font-family="Helvetica,sans-Serif" font-size="10.00">FIEAGameEngine/src</text>
<text xml:space="preserve" text-anchor="middle" x="615.38" y="-12.5" font-family="Helvetica,sans-Serif" font-size="10.00">/Content/GameObjectHandler.cpp</text>
</a>
</g>
</g>
<!-- Node1&#45;&gt;Node5 -->
<g id="edge4_Node000001_Node000005" class="edge">
<title>Node1&#45;&gt;Node5</title>
<g id="a_edge4_Node000001_Node000005"><a xlink:title=" ">
<path fill="none" stroke="#63b8ff" d="M749.32,-75.41C719.58,-63.78 682.42,-49.23 654.78,-38.42"/>
<polygon fill="#63b8ff" stroke="#63b8ff" points="747.91,-78.62 758.49,-79 750.46,-72.1 747.91,-78.62"/>
</a>
</g>
</g>
<!-- Node6 -->
<g id="Node000006" class="node">
<title>Node6</title>
<g id="a_Node000006"><a xlink:href="_primitive_type_handler_8cpp.html" target="_top" xlink:title=" ">
<polygon fill="white" stroke="#666666" points="883.5,-38 715.25,-38 715.25,-6 883.5,-6 883.5,-38"/>
<text xml:space="preserve" text-anchor="start" x="723.25" y="-24.5" font-family="Helvetica,sans-Serif" font-size="10.00">FIEAGameEngine/src</text>
<text xml:space="preserve" text-anchor="middle" x="799.38" y="-12.5" font-family="Helvetica,sans-Serif" font-size="10.00">/Content/PrimitiveTypeHandler.cpp</text>
</a>
</g>
</g>
<!-- Node1&#45;&gt;Node6 -->
<g id="edge5_Node000001_Node000006" class="edge">
<title>Node1&#45;&gt;Node6</title>
<g id="a_edge5_Node000001_Node000006"><a xlink:title=" ">
<path fill="none" stroke="#63b8ff" d="M799.38,-68.49C799.38,-58.3 799.38,-47.03 799.38,-38.25"/>
<polygon fill="#63b8ff" stroke="#63b8ff" points="795.88,-68.22 799.38,-78.22 802.88,-68.22 795.88,-68.22"/>
</a>
</g>
</g>
<!-- Node7 -->
<g id="Node000007" class="node">
<title>Node7</title>
<g id="a_Node000007"><a xlink:href="_scope_factory_handler_8cpp.html" target="_top" xlink:title=" ">
<polygon fill="white" stroke="#666666" points="1071.25,-38 901.5,-38 901.5,-6 1071.25,-6 1071.25,-38"/>
<text xml:space="preserve" text-anchor="start" x="909.5" y="-24.5" font-family="Helvetica,sans-Serif" font-size="10.00">FIEAGameEngine/src</text>
<text xml:space="preserve" text-anchor="middle" x="986.38" y="-12.5" font-family="Helvetica,sans-Serif" font-size="10.00">/Content/ScopeFactoryHandler.cpp</text>
</a>
</g>
</g>
<!-- Node1&#45;&gt;Node7 -->
<g id="edge6_Node000001_Node000007" class="edge">
<title>Node1&#45;&gt;Node7</title>
<g id="a_edge6_Node000001_Node000007"><a xlink:title=" ">
<path fill="none" stroke="#63b8ff" d="M849.85,-75.56C880.13,-63.91 918.12,-49.28 946.33,-38.42"/>
<polygon fill="#63b8ff" stroke="#63b8ff" points="848.98,-72.15 840.9,-79.01 851.49,-78.68 848.98,-72.15"/>
</a>
</g>
</g>
<!-- Node8 -->
<g id="Node000008" class="node">
<title>Node8</title>
<g id="a_Node000008"><a xlink:href="_scope_handler_8cpp.html" target="_top" xlink:title=" ">
<polygon fill="white" stroke="#666666" points="1225.75,-38 1089,-38 1089,-6 1225.75,-6 1225.75,-38"/>
<text xml:space="preserve" text-anchor="start" x="1097" y="-24.5" font-family="Helvetica,sans-Serif" font-size="10.00">FIEAGameEngine/src</text>
<text xml:space="preserve" text-anchor="middle" x="1157.38" y="-12.5" font-family="Helvetica,sans-Serif" font-size="10.00">/Content/ScopeHandler.cpp</text>
</a>
</g>
</g>
<!-- Node1&#45;&gt;Node8 -->
<g id="edge7_Node000001_Node000008" class="edge">
<title>Node1&#45;&gt;Node8</title>
<g id="a_edge7_Node000001_Node000008"><a xlink:title=" ">
<path fill="none" stroke="#63b8ff" d="M869.67,-83.98C926.72,-74.62 1009.09,-60.16 1080.38,-44 1087.81,-42.32 1095.6,-40.39 1103.26,-38.39"/>
<polygon fill="#63b8ff" stroke="#63b8ff" points="869.41,-80.48 860.1,-85.54 870.54,-87.38 869.41,-80.48"/>
</a>
</g>
</g>
<!-- Node9 -->
<g id="Node000009" class="node">
<title>Node9</title>
<g id="a_Node000009"><a xlink:href="_scope_writer_8cpp.html" target="_top" xlink:title=" ">
<polygon fill="white" stroke="#666666" points="1372.62,-38 1244.12,-38 1244.12,-6 1372.62,-6 1372.62,-38"/>
<text xml:space="preserve" text-anchor="start" x="1252.12" y="-24.5" font-family="Helvetica,sans-Serif" font-size="10.00">FIEAGameEngine/src</text>
<text xml:space="preserve" text-anchor="middle" x="1308.38" y="-12.5" font-family="Helvetica,sans-Serif" font-size="10.00">/Content/ScopeWriter.cpp</text>
</a>
</g>
</g>
<!-- Node1&#45;&gt;Node9 -->
<g id="edge8_Node000001_Node000009" class="edge">
<title>Node1&#45;&gt;Node9</title>
<g id="a_edge8_Node000001_Node000009"><a xlink:title=" ">
<path fill="none" stroke="#63b8ff" d="M869.84,-90.22C956.33,-83.55 1107.16,-69.34 1234.38,-44 1242.1,-42.46 1250.2,-40.52 1258.08,-38.43"/>
<polygon fill="#63b8ff" stroke="#63b8ff" points="869.81,-86.71 860.1,-90.96 870.34,-93.69 869.81,-86.71"/>
</a>
</g>
</g>
<!-- Node10 -->
<g id="Node000010" class="node">
<title>Node10</title>
<g id="a_Node000010"><a xlink:href="_special_primitives_handler_8cpp.html" target="_top" xlink:title=" ">
<polygon fill="white" stroke="#666666" points="1522.5,-44 1390.25,-44 1390.25,0 1522.5,0 1522.5,-44"/>
<text xml:space="preserve" text-anchor="start" x="1398.25" y="-30.5" font-family="Helvetica,sans-Serif" font-size="10.00">FIEAGameEngine/src</text>
<text xml:space="preserve" text-anchor="start" x="1398.25" y="-18.5" font-family="Helvetica,sans-Serif" font-size="10.00">/Content/SpecialPrimitives</text>
<text xml:space="preserve" text-anchor="middle" x="1456.38" y="-6.5" font-family="Helvetica,sans-Serif" font-size="10.00">Handler.cpp</text>
</a>
</g>
</g>
<!-- Node1&#45;&gt;Node10 -->
<g id="edge9_Node000001_Node000010" class="edge">
<title>Node1&#45;&gt;Node10</title>
<g id="a_edge9_Node000001_Node000010"><a xlink:title=" ">
<path fill="none" stroke="#63b8ff" d="M869.77,-93.04C979.77,-89.04 1198.74,-77.27 1381.38,-44 1384.17,-43.49 1387.01,-42.92 1389.87,-42.31"/>
<polygon fill="#63b8ff" stroke="#63b8ff" points="869.89,-89.53 860.02,-93.38 870.14,-96.53 869.89,-89.53"/>
</a>
</g>
</g>
</g>
</svg>
