<?xml version="1.0" encoding="UTF-8" standalone="no"?>
<!DOCTYPE svg PUBLIC "-//W3C//DTD SVG 1.1//EN"
 "http://www.w3.org/Graphics/SVG/1.1/DTD/svg11.dtd">
<!-- Generated by graphviz version 13.1.0 (20250701.0955)
 -->
<!-- Title: FIEAGameEngine/src/Content/ScopeWriter.cpp Pages: 1 -->
<svg width="1184pt" height="544pt"
 viewBox="0.00 0.00 1184.00 544.00" xmlns="http://www.w3.org/2000/svg" xmlns:xlink="http://www.w3.org/1999/xlink">
<g id="graph0" class="graph" transform="scale(1 1) rotate(0) translate(4 540)">
<title>FIEAGameEngine/src/Content/ScopeWriter.cpp</title>
<!-- Node1 -->
<g id="Node000001" class="node">
<title>Node1</title>
<g id="a_Node000001"><a xlink:title=" ">
<polygon fill="#999999" stroke="#666666" points="671.25,-536 542.75,-536 542.75,-504 671.25,-504 671.25,-536"/>
<text xml:space="preserve" text-anchor="start" x="550.75" y="-522.5" font-family="Helvetica,sans-Serif" font-size="10.00">FIEAGameEngine/src</text>
<text xml:space="preserve" text-anchor="middle" x="607" y="-510.5" font-family="Helvetica,sans-Serif" font-size="10.00">/Content/ScopeWriter.cpp</text>
</a>
</g>
</g>
<!-- Node2 -->
<g id="Node000002" class="node">
<title>Node2</title>
<g id="a_Node000002"><a xlink:href="_scope_writer_8h.html" target="_top" xlink:title=" ">
<polygon fill="white" stroke="#666666" points="407.75,-412 330.25,-412 330.25,-392 407.75,-392 407.75,-412"/>
<text xml:space="preserve" text-anchor="middle" x="369" y="-398.5" font-family="Helvetica,sans-Serif" font-size="10.00">ScopeWriter.h</text>
</a>
</g>
</g>
<!-- Node1&#45;&gt;Node2 -->
<g id="edge1_Node000001_Node000002" class="edge">
<title>Node1&#45;&gt;Node2</title>
<g id="a_edge1_Node000001_Node000002"><a xlink:title=" ">
<path fill="none" stroke="#63b8ff" d="M575.4,-503.6C529.14,-481.05 443.61,-439.36 398.55,-417.4"/>
<polygon fill="#63b8ff" stroke="#63b8ff" points="400.15,-414.29 389.63,-413.06 397.09,-420.58 400.15,-414.29"/>
</a>
</g>
</g>
<!-- Node23 -->
<g id="Node000023" class="node">
<title>Node23</title>
<g id="a_Node000023"><a xlink:href="_factory_service_8h.html" target="_top" xlink:title=" ">
<polygon fill="white" stroke="#666666" points="498,-188 326,-188 326,-168 498,-168 498,-188"/>
<text xml:space="preserve" text-anchor="middle" x="412" y="-174.5" font-family="Helvetica,sans-Serif" font-size="10.00">FIEAGameEngine/FactoryService.h</text>
</a>
</g>
</g>
<!-- Node1&#45;&gt;Node23 -->
<g id="edge48_Node000001_Node000023" class="edge">
<title>Node1&#45;&gt;Node23</title>
<g id="a_edge48_Node000001_Node000023"><a xlink:title=" ">
<path fill="none" stroke="#63b8ff" d="M542.33,-513.39C385.92,-498.94 0,-457.75 0,-403 0,-403 0,-403 0,-289 0,-224.21 192.61,-196.59 314.44,-185.61"/>
<polygon fill="#63b8ff" stroke="#63b8ff" points="314.47,-189.12 324.12,-184.76 313.86,-182.14 314.47,-189.12"/>
</a>
</g>
</g>
<!-- Node29 -->
<g id="Node000029" class="node">
<title>Node29</title>
<g id="a_Node000029"><a xlink:href="_game_object_8h.html" target="_top" xlink:title=" ">
<polygon fill="white" stroke="#666666" points="935.38,-468 774.62,-468 774.62,-448 935.38,-448 935.38,-468"/>
<text xml:space="preserve" text-anchor="middle" x="855" y="-454.5" font-family="Helvetica,sans-Serif" font-size="10.00">FIEAGameEngine/GameObject.h</text>
</a>
</g>
</g>
<!-- Node1&#45;&gt;Node29 -->
<g id="edge49_Node000001_Node000029" class="edge">
<title>Node1&#45;&gt;Node29</title>
<g id="a_edge49_Node000001_Node000029"><a xlink:title=" ">
<path fill="none" stroke="#63b8ff" d="M670.87,-503.55C712.53,-493.47 766.16,-480.49 804.78,-471.15"/>
<polygon fill="#63b8ff" stroke="#63b8ff" points="805.38,-474.61 814.28,-468.85 803.73,-467.8 805.38,-474.61"/>
</a>
</g>
</g>
<!-- Node31 -->
<g id="Node000031" class="node">
<title>Node31</title>
<g id="a_Node000031"><a xlink:href="_action_list_8h.html" target="_top" xlink:title=" ">
<polygon fill="white" stroke="#666666" points="929.75,-412 780.25,-412 780.25,-392 929.75,-392 929.75,-412"/>
<text xml:space="preserve" text-anchor="middle" x="855" y="-398.5" font-family="Helvetica,sans-Serif" font-size="10.00">FIEAGameEngine/ActionList.h</text>
</a>
</g>
</g>
<!-- Node1&#45;&gt;Node31 -->
<g id="edge64_Node000001_Node000031" class="edge">
<title>Node1&#45;&gt;Node31</title>
<g id="a_edge64_Node000001_Node000031"><a xlink:title=" ">
<path fill="none" stroke="#63b8ff" d="M639.93,-503.6C688.24,-481 777.63,-439.19 824.51,-417.26"/>
<polygon fill="#63b8ff" stroke="#63b8ff" points="825.97,-420.44 833.55,-413.03 823.01,-414.1 825.97,-420.44"/>
</a>
</g>
</g>
<!-- Node3 -->
<g id="Node000003" class="node">
<title>Node3</title>
<g id="a_Node000003"><a xlink:href="_types_8h.html" target="_top" xlink:title=" ">
<polygon fill="white" stroke="#666666" points="984.25,-76 855.75,-76 855.75,-56 984.25,-56 984.25,-76"/>
<text xml:space="preserve" text-anchor="middle" x="920" y="-62.5" font-family="Helvetica,sans-Serif" font-size="10.00">FieaGameEngine/Types.h</text>
</a>
</g>
</g>
<!-- Node2&#45;&gt;Node3 -->
<g id="edge2_Node000002_Node000003" class="edge">
<title>Node2&#45;&gt;Node3</title>
<g id="a_edge2_Node000002_Node000003"><a xlink:title=" ">
<path fill="none" stroke="#63b8ff" d="M408.22,-399.87C499.44,-395.93 731.28,-378.34 905,-300 941.96,-283.33 959.19,-280.42 977,-244 991.54,-214.27 1006.93,-225.98 955,-112 950.57,-102.27 943.64,-92.73 937.11,-84.96"/>
<polygon fill="#63b8ff" stroke="#63b8ff" points="939.82,-82.74 930.55,-77.6 934.59,-87.39 939.82,-82.74"/>
</a>
</g>
</g>
<!-- Node12 -->
<g id="Node000012" class="node">
<title>Node12</title>
<g id="a_Node000012"><a xlink:href="_content_service_8h.html" target="_top" xlink:title=" ">
<polygon fill="white" stroke="#666666" points="430.88,-356 261.12,-356 261.12,-336 430.88,-336 430.88,-356"/>
<text xml:space="preserve" text-anchor="middle" x="346" y="-342.5" font-family="Helvetica,sans-Serif" font-size="10.00">FieaGameEngine/ContentService.h</text>
</a>
</g>
</g>
<!-- Node2&#45;&gt;Node12 -->
<g id="edge11_Node000002_Node000012" class="edge">
<title>Node2&#45;&gt;Node12</title>
<g id="a_edge11_Node000002_Node000012"><a xlink:title=" ">
<path fill="none" stroke="#63b8ff" d="M364.99,-391.59C362.09,-384.78 358.06,-375.32 354.46,-366.86"/>
<polygon fill="#63b8ff" stroke="#63b8ff" points="357.69,-365.52 350.55,-357.69 351.25,-368.26 357.69,-365.52"/>
</a>
</g>
</g>
<!-- Node28 -->
<g id="Node000028" class="node">
<title>Node28</title>
<g id="a_Node000028"><a xlink:title=" ">
<polygon fill="#e0e0e0" stroke="#999999" points="243,-356 203,-356 203,-336 243,-336 243,-356"/>
<text xml:space="preserve" text-anchor="middle" x="223" y="-342.5" font-family="Helvetica,sans-Serif" font-size="10.00">stack</text>
</a>
</g>
</g>
<!-- Node2&#45;&gt;Node28 -->
<g id="edge47_Node000002_Node000028" class="edge">
<title>Node2&#45;&gt;Node28</title>
<g id="a_edge47_Node000002_Node000028"><a xlink:title=" ">
<path fill="none" stroke="#63b8ff" d="M343.57,-391.59C318.69,-382.39 280.76,-368.36 254.1,-358.5"/>
<polygon fill="#63b8ff" stroke="#63b8ff" points="255.45,-355.27 244.85,-355.08 253.02,-361.83 255.45,-355.27"/>
</a>
</g>
</g>
<!-- Node4 -->
<g id="Node000004" class="node">
<title>Node4</title>
<g id="a_Node000004"><a xlink:title=" ">
<polygon fill="#e0e0e0" stroke="#999999" points="700,-20 540,-20 540,0 700,0 700,-20"/>
<text xml:space="preserve" text-anchor="middle" x="620" y="-6.5" font-family="Helvetica,sans-Serif" font-size="10.00">../src/Memory/SystemAllocator.h</text>
</a>
</g>
</g>
<!-- Node3&#45;&gt;Node4 -->
<g id="edge3_Node000003_Node000004" class="edge">
<title>Node3&#45;&gt;Node4</title>
<g id="a_edge3_Node000003_Node000004"><a xlink:title=" ">
<path fill="none" stroke="#63b8ff" d="M867.4,-55.53C816.26,-46.33 738.5,-32.33 683.83,-22.49"/>
<polygon fill="#63b8ff" stroke="#63b8ff" points="684.49,-19.05 674.03,-20.73 683.25,-25.94 684.49,-19.05"/>
</a>
</g>
</g>
<!-- Node5 -->
<g id="Node000005" class="node">
<title>Node5</title>
<g id="a_Node000005"><a xlink:title=" ">
<polygon fill="#e0e0e0" stroke="#999999" points="780.25,-20 717.75,-20 717.75,0 780.25,0 780.25,-20"/>
<text xml:space="preserve" text-anchor="middle" x="749" y="-6.5" font-family="Helvetica,sans-Serif" font-size="10.00">windows.h</text>
</a>
</g>
</g>
<!-- Node3&#45;&gt;Node5 -->
<g id="edge4_Node000003_Node000005" class="edge">
<title>Node3&#45;&gt;Node5</title>
<g id="a_edge4_Node000003_Node000005"><a xlink:title=" ">
<path fill="none" stroke="#63b8ff" d="M890.21,-55.59C862.43,-46.82 820.75,-33.66 789.86,-23.9"/>
<polygon fill="#63b8ff" stroke="#63b8ff" points="791.05,-20.61 780.46,-20.94 788.94,-27.28 791.05,-20.61"/>
</a>
</g>
</g>
<!-- Node6 -->
<g id="Node000006" class="node">
<title>Node6</title>
<g id="a_Node000006"><a xlink:title=" ">
<polygon fill="#e0e0e0" stroke="#999999" points="846.12,-20 797.88,-20 797.88,0 846.12,0 846.12,-20"/>
<text xml:space="preserve" text-anchor="middle" x="822" y="-6.5" font-family="Helvetica,sans-Serif" font-size="10.00">cassert</text>
</a>
</g>
</g>
<!-- Node3&#45;&gt;Node6 -->
<g id="edge5_Node000003_Node000006" class="edge">
<title>Node3&#45;&gt;Node6</title>
<g id="a_edge5_Node000003_Node000006"><a xlink:title=" ">
<path fill="none" stroke="#63b8ff" d="M902.93,-55.59C888.12,-47.44 866.43,-35.48 849.23,-26"/>
<polygon fill="#63b8ff" stroke="#63b8ff" points="850.98,-22.97 840.53,-21.21 847.6,-29.1 850.98,-22.97"/>
</a>
</g>
</g>
<!-- Node7 -->
<g id="Node000007" class="node">
<title>Node7</title>
<g id="a_Node000007"><a xlink:title=" ">
<polygon fill="#e0e0e0" stroke="#999999" points="912.12,-20 863.88,-20 863.88,0 912.12,0 912.12,-20"/>
<text xml:space="preserve" text-anchor="middle" x="888" y="-6.5" font-family="Helvetica,sans-Serif" font-size="10.00">cstddef</text>
</a>
</g>
</g>
<!-- Node3&#45;&gt;Node7 -->
<g id="edge6_Node000003_Node000007" class="edge">
<title>Node3&#45;&gt;Node7</title>
<g id="a_edge6_Node000003_Node000007"><a xlink:title=" ">
<path fill="none" stroke="#63b8ff" d="M914.43,-55.59C910.25,-48.55 904.4,-38.67 899.26,-30"/>
<polygon fill="#63b8ff" stroke="#63b8ff" points="902.39,-28.42 894.28,-21.6 896.37,-31.99 902.39,-28.42"/>
</a>
</g>
</g>
<!-- Node8 -->
<g id="Node000008" class="node">
<title>Node8</title>
<g id="a_Node000008"><a xlink:title=" ">
<polygon fill="#e0e0e0" stroke="#999999" points="975.62,-20 930.38,-20 930.38,0 975.62,0 975.62,-20"/>
<text xml:space="preserve" text-anchor="middle" x="953" y="-6.5" font-family="Helvetica,sans-Serif" font-size="10.00">cstdint</text>
</a>
</g>
</g>
<!-- Node3&#45;&gt;Node8 -->
<g id="edge7_Node000003_Node000008" class="edge">
<title>Node3&#45;&gt;Node8</title>
<g id="a_edge7_Node000003_Node000008"><a xlink:title=" ">
<path fill="none" stroke="#63b8ff" d="M925.75,-55.59C930.05,-48.55 936.09,-38.67 941.39,-30"/>
<polygon fill="#63b8ff" stroke="#63b8ff" points="944.3,-31.95 946.53,-21.59 938.33,-28.3 944.3,-31.95"/>
</a>
</g>
</g>
<!-- Node9 -->
<g id="Node000009" class="node">
<title>Node9</title>
<g id="a_Node000009"><a xlink:title=" ">
<polygon fill="#e0e0e0" stroke="#999999" points="1046.38,-20 993.62,-20 993.62,0 1046.38,0 1046.38,-20"/>
<text xml:space="preserve" text-anchor="middle" x="1020" y="-6.5" font-family="Helvetica,sans-Serif" font-size="10.00">cstdbool</text>
</a>
</g>
</g>
<!-- Node3&#45;&gt;Node9 -->
<g id="edge8_Node000003_Node000009" class="edge">
<title>Node3&#45;&gt;Node9</title>
<g id="a_edge8_Node000003_Node000009"><a xlink:title=" ">
<path fill="none" stroke="#63b8ff" d="M937.42,-55.59C952.67,-47.36 975.08,-35.26 992.71,-25.74"/>
<polygon fill="#63b8ff" stroke="#63b8ff" points="993.98,-29.03 1001.11,-21.2 990.65,-22.87 993.98,-29.03"/>
</a>
</g>
</g>
<!-- Node10 -->
<g id="Node000010" class="node">
<title>Node10</title>
<g id="a_Node000010"><a xlink:title=" ">
<polygon fill="#e0e0e0" stroke="#999999" points="1104,-20 1064,-20 1064,0 1104,0 1104,-20"/>
<text xml:space="preserve" text-anchor="middle" x="1084" y="-6.5" font-family="Helvetica,sans-Serif" font-size="10.00">string</text>
</a>
</g>
</g>
<!-- Node3&#45;&gt;Node10 -->
<g id="edge9_Node000003_Node000010" class="edge">
<title>Node3&#45;&gt;Node10</title>
<g id="a_edge9_Node000003_Node000010"><a xlink:title=" ">
<path fill="none" stroke="#63b8ff" d="M948.57,-55.59C977.7,-46 1022.77,-31.16 1052.81,-21.27"/>
<polygon fill="#63b8ff" stroke="#63b8ff" points="1053.69,-24.67 1062.09,-18.21 1051.5,-18.02 1053.69,-24.67"/>
</a>
</g>
</g>
<!-- Node11 -->
<g id="Node000011" class="node">
<title>Node11</title>
<g id="a_Node000011"><a xlink:title=" ">
<polygon fill="#e0e0e0" stroke="#999999" points="1176.12,-20 1121.88,-20 1121.88,0 1176.12,0 1176.12,-20"/>
<text xml:space="preserve" text-anchor="middle" x="1149" y="-6.5" font-family="Helvetica,sans-Serif" font-size="10.00">crtdefs.h</text>
</a>
</g>
</g>
<!-- Node3&#45;&gt;Node11 -->
<g id="edge10_Node000003_Node000011" class="edge">
<title>Node3&#45;&gt;Node11</title>
<g id="a_edge10_Node000003_Node000011"><a xlink:title=" ">
<path fill="none" stroke="#63b8ff" d="M961.46,-55.53C998.2,-47.1 1053.61,-34.27 1110.48,-20.58"/>
<polygon fill="#63b8ff" stroke="#63b8ff" points="1111.12,-24.03 1120.02,-18.28 1109.48,-17.22 1111.12,-24.03"/>
</a>
</g>
</g>
<!-- Node12&#45;&gt;Node3 -->
<g id="edge12_Node000012_Node000003" class="edge">
<title>Node12&#45;&gt;Node3</title>
<g id="a_edge12_Node000012_Node000003"><a xlink:title=" ">
<path fill="none" stroke="#63b8ff" d="M431.32,-339.1C486.89,-333.33 560.27,-322.02 622,-300 753.35,-253.15 794.68,-236.52 887,-132 898.66,-118.79 907.4,-100.73 912.95,-86.99"/>
<polygon fill="#63b8ff" stroke="#63b8ff" points="916.2,-88.28 916.46,-77.69 909.65,-85.81 916.2,-88.28"/>
</a>
</g>
</g>
<!-- Node13 -->
<g id="Node000013" class="node">
<title>Node13</title>
<g id="a_Node000013"><a xlink:href="_service_mgr_8h.html" target="_top" xlink:title=" ">
<polygon fill="white" stroke="#666666" points="183.75,-132 28.25,-132 28.25,-112 183.75,-112 183.75,-132"/>
<text xml:space="preserve" text-anchor="middle" x="106" y="-118.5" font-family="Helvetica,sans-Serif" font-size="10.00">FIEAGameEngine/ServiceMgr.h</text>
</a>
</g>
</g>
<!-- Node12&#45;&gt;Node13 -->
<g id="edge13_Node000012_Node000013" class="edge">
<title>Node12&#45;&gt;Node13</title>
<g id="a_edge13_Node000012_Node000013"><a xlink:title=" ">
<path fill="none" stroke="#63b8ff" d="M335.99,-335.74C299.32,-301.82 171.95,-184.01 124.24,-139.87"/>
<polygon fill="#63b8ff" stroke="#63b8ff" points="126.88,-137.54 117.16,-133.32 122.13,-142.68 126.88,-137.54"/>
</a>
</g>
</g>
<!-- Node14 -->
<g id="Node000014" class="node">
<title>Node14</title>
<g id="a_Node000014"><a xlink:title=" ">
<polygon fill="#e0e0e0" stroke="#999999" points="94.38,-76 11.62,-76 11.62,-56 94.38,-56 94.38,-76"/>
<text xml:space="preserve" text-anchor="middle" x="53" y="-62.5" font-family="Helvetica,sans-Serif" font-size="10.00">unordered_map</text>
</a>
</g>
</g>
<!-- Node12&#45;&gt;Node14 -->
<g id="edge45_Node000012_Node000014" class="edge">
<title>Node12&#45;&gt;Node14</title>
<g id="a_edge45_Node000012_Node000014"><a xlink:title=" ">
<path fill="none" stroke="#63b8ff" d="M261.7,-335.54C186.37,-326.39 85.66,-312.16 71,-300 9.85,-249.29 23.76,-210.23 10,-132 8.46,-123.25 6.69,-120.25 10,-112 14.37,-101.1 22.78,-91.34 31.01,-83.72"/>
<polygon fill="#63b8ff" stroke="#63b8ff" points="33.18,-86.47 38.52,-77.33 28.64,-81.15 33.18,-86.47"/>
</a>
</g>
</g>
<!-- Node15 -->
<g id="Node000015" class="node">
<title>Node15</title>
<g id="a_Node000015"><a xlink:href="_r_t_t_i_8h.html" target="_top" xlink:title=" ">
<polygon fill="white" stroke="#666666" points="439.88,-132 312.12,-132 312.12,-112 439.88,-112 439.88,-132"/>
<text xml:space="preserve" text-anchor="middle" x="376" y="-118.5" font-family="Helvetica,sans-Serif" font-size="10.00">FIEAGameEngine/RTTI.h</text>
</a>
</g>
</g>
<!-- Node12&#45;&gt;Node15 -->
<g id="edge16_Node000012_Node000015" class="edge">
<title>Node12&#45;&gt;Node15</title>
<g id="a_edge16_Node000012_Node000015"><a xlink:title=" ">
<path fill="none" stroke="#63b8ff" d="M340.72,-335.59C326.09,-308.17 287.99,-226.61 317,-168 323.19,-155.5 334.7,-145.52 345.92,-138.17"/>
<polygon fill="#63b8ff" stroke="#63b8ff" points="347.49,-141.31 354.27,-133.17 343.89,-135.31 347.49,-141.31"/>
</a>
</g>
</g>
<!-- Node17 -->
<g id="Node000017" class="node">
<title>Node17</title>
<g id="a_Node000017"><a xlink:href="_attributed_8h.html" target="_top" xlink:title=" ">
<polygon fill="white" stroke="#666666" points="895.88,-300 792.12,-300 792.12,-280 895.88,-280 895.88,-300"/>
<text xml:space="preserve" text-anchor="middle" x="844" y="-286.5" font-family="Helvetica,sans-Serif" font-size="10.00">Content/Attributed.h</text>
</a>
</g>
</g>
<!-- Node12&#45;&gt;Node17 -->
<g id="edge20_Node000012_Node000017" class="edge">
<title>Node12&#45;&gt;Node17</title>
<g id="a_edge20_Node000012_Node000017"><a xlink:title=" ">
<path fill="none" stroke="#63b8ff" d="M431.34,-336.92C518.54,-328.47 657.84,-314.45 778,-300 778.84,-299.9 779.69,-299.8 780.54,-299.69"/>
<polygon fill="#63b8ff" stroke="#63b8ff" points="780.79,-303.19 790.28,-298.47 779.92,-296.24 780.79,-303.19"/>
</a>
</g>
</g>
<!-- Node18 -->
<g id="Node000018" class="node">
<title>Node18</title>
<g id="a_Node000018"><a xlink:href="_datum_8h.html" target="_top" xlink:title=" ">
<polygon fill="white" stroke="#666666" points="755.5,-188 664.5,-188 664.5,-168 755.5,-168 755.5,-188"/>
<text xml:space="preserve" text-anchor="middle" x="710" y="-174.5" font-family="Helvetica,sans-Serif" font-size="10.00">Content/Datum.h</text>
</a>
</g>
</g>
<!-- Node12&#45;&gt;Node18 -->
<g id="edge43_Node000012_Node000018" class="edge">
<title>Node12&#45;&gt;Node18</title>
<g id="a_edge43_Node000012_Node000018"><a xlink:title=" ">
<path fill="none" stroke="#63b8ff" d="M408.04,-335.54C498.95,-320.36 661.72,-287.78 700,-244 710.58,-231.9 712.55,-213.45 712.18,-199.3"/>
<polygon fill="#63b8ff" stroke="#63b8ff" points="715.7,-199.47 711.51,-189.74 708.71,-199.96 715.7,-199.47"/>
</a>
</g>
</g>
<!-- Node22 -->
<g id="Node000022" class="node">
<title>Node22</title>
<g id="a_Node000022"><a xlink:href="_scope_8h.html" target="_top" xlink:title=" ">
<polygon fill="white" stroke="#666666" points="690.75,-244 601.25,-244 601.25,-224 690.75,-224 690.75,-244"/>
<text xml:space="preserve" text-anchor="middle" x="646" y="-230.5" font-family="Helvetica,sans-Serif" font-size="10.00">Content/Scope.h</text>
</a>
</g>
</g>
<!-- Node12&#45;&gt;Node22 -->
<g id="edge44_Node000012_Node000022" class="edge">
<title>Node12&#45;&gt;Node22</title>
<g id="a_edge44_Node000012_Node000022"><a xlink:title=" ">
<path fill="none" stroke="#63b8ff" d="M371.84,-335.53C425.22,-315.95 547.84,-270.99 609.37,-248.43"/>
<polygon fill="#63b8ff" stroke="#63b8ff" points="610.51,-251.74 618.7,-245.01 608.1,-245.17 610.51,-251.74"/>
</a>
</g>
</g>
<!-- Node27 -->
<g id="Node000027" class="node">
<title>Node27</title>
<g id="a_Node000027"><a xlink:title=" ">
<polygon fill="#e0e0e0" stroke="#999999" points="143.62,-300 80.38,-300 80.38,-280 143.62,-280 143.62,-300"/>
<text xml:space="preserve" text-anchor="middle" x="112" y="-286.5" font-family="Helvetica,sans-Serif" font-size="10.00">json/json.h</text>
</a>
</g>
</g>
<!-- Node12&#45;&gt;Node27 -->
<g id="edge46_Node000012_Node000027" class="edge">
<title>Node12&#45;&gt;Node27</title>
<g id="a_edge46_Node000012_Node000027"><a xlink:title=" ">
<path fill="none" stroke="#63b8ff" d="M304.97,-335.53C262.95,-325.83 197.89,-310.82 155.12,-300.95"/>
<polygon fill="#63b8ff" stroke="#63b8ff" points="155.96,-297.55 145.43,-298.71 154.39,-304.37 155.96,-297.55"/>
</a>
</g>
</g>
<!-- Node13&#45;&gt;Node3 -->
<g id="edge14_Node000013_Node000003" class="edge">
<title>Node13&#45;&gt;Node3</title>
<g id="a_edge14_Node000013_Node000003"><a xlink:title=" ">
<path fill="none" stroke="#63b8ff" d="M184.01,-115.3C199.57,-114.19 215.81,-113.04 231,-112 453.89,-96.7 717.43,-79.83 844.29,-71.78"/>
<polygon fill="#63b8ff" stroke="#63b8ff" points="844.13,-75.3 853.89,-71.17 843.68,-68.31 844.13,-75.3"/>
</a>
</g>
</g>
<!-- Node13&#45;&gt;Node14 -->
<g id="edge15_Node000013_Node000014" class="edge">
<title>Node13&#45;&gt;Node14</title>
<g id="a_edge15_Node000013_Node000014"><a xlink:title=" ">
<path fill="none" stroke="#63b8ff" d="M96.77,-111.59C89.4,-104.08 78.87,-93.35 69.98,-84.3"/>
<polygon fill="#63b8ff" stroke="#63b8ff" points="72.69,-82.06 63.19,-77.38 67.69,-86.97 72.69,-82.06"/>
</a>
</g>
</g>
<!-- Node15&#45;&gt;Node3 -->
<g id="edge17_Node000015_Node000003" class="edge">
<title>Node15&#45;&gt;Node3</title>
<g id="a_edge17_Node000015_Node000003"><a xlink:title=" ">
<path fill="none" stroke="#63b8ff" d="M440.26,-113.49C444.91,-112.98 449.53,-112.47 454,-112 591.39,-97.44 751.78,-82.38 844.05,-73.9"/>
<polygon fill="#63b8ff" stroke="#63b8ff" points="844.36,-77.38 854,-72.98 843.73,-70.41 844.36,-77.38"/>
</a>
</g>
</g>
<!-- Node16 -->
<g id="Node000016" class="node">
<title>Node16</title>
<g id="a_Node000016"><a xlink:href="_r_t_t_i_8inl.html" target="_top" xlink:title=" ">
<polygon fill="white" stroke="#666666" points="442.12,-76 309.88,-76 309.88,-56 442.12,-56 442.12,-76"/>
<text xml:space="preserve" text-anchor="middle" x="376" y="-62.5" font-family="Helvetica,sans-Serif" font-size="10.00">FIEAGameEngine/RTTI.inl</text>
</a>
</g>
</g>
<!-- Node15&#45;&gt;Node16 -->
<g id="edge18_Node000015_Node000016" class="edge">
<title>Node15&#45;&gt;Node16</title>
<g id="a_edge18_Node000015_Node000016"><a xlink:title=" ">
<path fill="none" stroke="#63b8ff" d="M370.73,-111.59C369.42,-105.01 368.98,-95.96 369.41,-87.73"/>
<polygon fill="#63b8ff" stroke="#63b8ff" points="372.89,-88.14 370.58,-77.8 365.94,-87.33 372.89,-88.14"/>
</a>
</g>
</g>
<!-- Node16&#45;&gt;Node15 -->
<g id="edge19_Node000016_Node000015" class="edge">
<title>Node16&#45;&gt;Node15</title>
<g id="a_edge19_Node000016_Node000015"><a xlink:title=" ">
<path fill="none" stroke="#63b8ff" d="M381.25,-76.3C382.59,-82.93 383.03,-92.11 382.58,-100.43"/>
<polygon fill="#63b8ff" stroke="#63b8ff" points="379.13,-99.75 381.44,-110.09 386.08,-100.57 379.13,-99.75"/>
</a>
</g>
</g>
<!-- Node17&#45;&gt;Node3 -->
<g id="edge21_Node000017_Node000003" class="edge">
<title>Node17&#45;&gt;Node3</title>
<g id="a_edge21_Node000017_Node000003"><a xlink:title=" ">
<path fill="none" stroke="#63b8ff" d="M851.85,-279.5C862.61,-266.62 882.68,-243.03 901,-224 917.13,-207.24 929.81,-209.37 939,-188 953.51,-154.27 939.8,-111 929.34,-86.4"/>
<polygon fill="#63b8ff" stroke="#63b8ff" points="932.68,-85.28 925.37,-77.61 926.3,-88.16 932.68,-85.28"/>
</a>
</g>
</g>
<!-- Node17&#45;&gt;Node15 -->
<g id="edge40_Node000017_Node000015" class="edge">
<title>Node17&#45;&gt;Node15</title>
<g id="a_edge40_Node000017_Node000015"><a xlink:title=" ">
<path fill="none" stroke="#63b8ff" d="M791.78,-283.08C728.6,-275.34 626.41,-260.76 592,-244 546.44,-221.81 550.72,-193.63 507,-168 482.42,-153.59 452.54,-142.88 427.52,-135.53"/>
<polygon fill="#63b8ff" stroke="#63b8ff" points="428.8,-132.26 418.23,-132.9 426.89,-138.99 428.8,-132.26"/>
</a>
</g>
</g>
<!-- Node17&#45;&gt;Node18 -->
<g id="edge22_Node000017_Node000018" class="edge">
<title>Node17&#45;&gt;Node18</title>
<g id="a_edge22_Node000017_Node000018"><a xlink:title=" ">
<path fill="none" stroke="#63b8ff" d="M832.58,-279.62C809.83,-260.95 758.63,-218.92 730.12,-195.52"/>
<polygon fill="#63b8ff" stroke="#63b8ff" points="732.52,-192.95 722.57,-189.32 728.07,-198.37 732.52,-192.95"/>
</a>
</g>
</g>
<!-- Node17&#45;&gt;Node22 -->
<g id="edge28_Node000017_Node000022" class="edge">
<title>Node17&#45;&gt;Node22</title>
<g id="a_edge28_Node000017_Node000022"><a xlink:title=" ">
<path fill="none" stroke="#63b8ff" d="M809.51,-279.59C776.78,-270.67 727.38,-257.19 691.44,-247.39"/>
<polygon fill="#63b8ff" stroke="#63b8ff" points="692.79,-244.13 682.22,-244.88 690.95,-250.89 692.79,-244.13"/>
</a>
</g>
</g>
<!-- Node25 -->
<g id="Node000025" class="node">
<title>Node25</title>
<g id="a_Node000025"><a xlink:title=" ">
<polygon fill="#e0e0e0" stroke="#999999" points="929.5,-188 886.5,-188 886.5,-168 929.5,-168 929.5,-188"/>
<text xml:space="preserve" text-anchor="middle" x="908" y="-174.5" font-family="Helvetica,sans-Serif" font-size="10.00">vector</text>
</a>
</g>
</g>
<!-- Node17&#45;&gt;Node25 -->
<g id="edge41_Node000017_Node000025" class="edge">
<title>Node17&#45;&gt;Node25</title>
<g id="a_edge41_Node000017_Node000025"><a xlink:title=" ">
<path fill="none" stroke="#63b8ff" d="M846.26,-279.69C849.69,-266.62 856.99,-242.36 868,-224 873.94,-214.1 882.2,-204.37 889.67,-196.5"/>
<polygon fill="#63b8ff" stroke="#63b8ff" points="891.98,-199.14 896.54,-189.57 887.01,-194.21 891.98,-199.14"/>
</a>
</g>
</g>
<!-- Node26 -->
<g id="Node000026" class="node">
<title>Node26</title>
<g id="a_Node000026"><a xlink:title=" ">
<polygon fill="#e0e0e0" stroke="#999999" points="968,-244 910,-244 910,-224 968,-224 968,-244"/>
<text xml:space="preserve" text-anchor="middle" x="939" y="-230.5" font-family="Helvetica,sans-Serif" font-size="10.00">functional</text>
</a>
</g>
</g>
<!-- Node17&#45;&gt;Node26 -->
<g id="edge42_Node000017_Node000026" class="edge">
<title>Node17&#45;&gt;Node26</title>
<g id="a_edge42_Node000017_Node000026"><a xlink:title=" ">
<path fill="none" stroke="#63b8ff" d="M860.55,-279.59C874.9,-271.44 895.93,-259.48 912.6,-250"/>
<polygon fill="#63b8ff" stroke="#63b8ff" points="914.04,-253.21 921.01,-245.23 910.58,-247.13 914.04,-253.21"/>
</a>
</g>
</g>
<!-- Node18&#45;&gt;Node3 -->
<g id="edge23_Node000018_Node000003" class="edge">
<title>Node18&#45;&gt;Node3</title>
<g id="a_edge23_Node000018_Node000003"><a xlink:title=" ">
<path fill="none" stroke="#63b8ff" d="M716.92,-167.61C727.77,-153.53 750.13,-127.01 775,-112 800.39,-96.67 831.46,-86.13 858.32,-79.12"/>
<polygon fill="#63b8ff" stroke="#63b8ff" points="858.84,-82.6 867.69,-76.79 857.14,-75.81 858.84,-82.6"/>
</a>
</g>
</g>
<!-- Node19 -->
<g id="Node000019" class="node">
<title>Node19</title>
<g id="a_Node000019"><a xlink:title=" ">
<polygon fill="#e0e0e0" stroke="#999999" points="853.62,-132 784.38,-132 784.38,-112 853.62,-112 853.62,-132"/>
<text xml:space="preserve" text-anchor="middle" x="819" y="-118.5" font-family="Helvetica,sans-Serif" font-size="10.00">glm/glm.hpp</text>
</a>
</g>
</g>
<!-- Node18&#45;&gt;Node19 -->
<g id="edge24_Node000018_Node000019" class="edge">
<title>Node18&#45;&gt;Node19</title>
<g id="a_edge24_Node000018_Node000019"><a xlink:title=" ">
<path fill="none" stroke="#63b8ff" d="M728.99,-167.59C745.76,-159.28 770.49,-147.03 789.79,-137.47"/>
<polygon fill="#63b8ff" stroke="#63b8ff" points="791.1,-140.73 798.51,-133.15 787.99,-134.45 791.1,-140.73"/>
</a>
</g>
</g>
<!-- Node20 -->
<g id="Node000020" class="node">
<title>Node20</title>
<g id="a_Node000020"><a xlink:title=" ">
<polygon fill="#e0e0e0" stroke="#999999" points="728,-132 610,-132 610,-112 728,-112 728,-132"/>
<text xml:space="preserve" text-anchor="middle" x="669" y="-118.5" font-family="Helvetica,sans-Serif" font-size="10.00">glm/gtx/string_cast.hpp</text>
</a>
</g>
</g>
<!-- Node18&#45;&gt;Node20 -->
<g id="edge25_Node000018_Node000020" class="edge">
<title>Node18&#45;&gt;Node20</title>
<g id="a_edge25_Node000018_Node000020"><a xlink:title=" ">
<path fill="none" stroke="#63b8ff" d="M702.86,-167.59C697.39,-160.39 689.68,-150.23 682.99,-141.43"/>
<polygon fill="#63b8ff" stroke="#63b8ff" points="685.81,-139.35 676.98,-133.5 680.23,-143.58 685.81,-139.35"/>
</a>
</g>
</g>
<!-- Node21 -->
<g id="Node000021" class="node">
<title>Node21</title>
<g id="a_Node000021"><a xlink:href="_datum_8inl.html" target="_top" xlink:title=" ">
<polygon fill="white" stroke="#666666" points="591.75,-132 496.25,-132 496.25,-112 591.75,-112 591.75,-132"/>
<text xml:space="preserve" text-anchor="middle" x="544" y="-118.5" font-family="Helvetica,sans-Serif" font-size="10.00">Content/Datum.inl</text>
</a>
</g>
</g>
<!-- Node18&#45;&gt;Node21 -->
<g id="edge26_Node000018_Node000021" class="edge">
<title>Node18&#45;&gt;Node21</title>
<g id="a_edge26_Node000018_Node000021"><a xlink:title=" ">
<path fill="none" stroke="#63b8ff" d="M675.82,-167.59C647.34,-158.9 607.14,-145.89 578.57,-136.16"/>
<polygon fill="#63b8ff" stroke="#63b8ff" points="579.89,-132.91 569.29,-132.97 577.61,-139.53 579.89,-132.91"/>
</a>
</g>
</g>
<!-- Node21&#45;&gt;Node18 -->
<g id="edge27_Node000021_Node000018" class="edge">
<title>Node21&#45;&gt;Node18</title>
<g id="a_edge27_Node000021_Node000018"><a xlink:title=" ">
<path fill="none" stroke="#63b8ff" d="M578.42,-132.48C606.96,-141.2 647.16,-154.21 675.67,-163.92"/>
<polygon fill="#63b8ff" stroke="#63b8ff" points="674.33,-167.16 684.92,-167.1 676.6,-160.54 674.33,-167.16"/>
</a>
</g>
</g>
<!-- Node22&#45;&gt;Node3 -->
<g id="edge29_Node000022_Node000003" class="edge">
<title>Node22&#45;&gt;Node3</title>
<g id="a_edge29_Node000022_Node000003"><a xlink:title=" ">
<path fill="none" stroke="#63b8ff" d="M678.21,-223.62C723.18,-209.35 805.72,-178.8 863,-132 879.84,-118.25 895.87,-99.25 906.62,-85.34"/>
<polygon fill="#63b8ff" stroke="#63b8ff" points="909.32,-87.57 912.53,-77.47 903.73,-83.36 909.32,-87.57"/>
</a>
</g>
</g>
<!-- Node22&#45;&gt;Node14 -->
<g id="edge39_Node000022_Node000014" class="edge">
<title>Node22&#45;&gt;Node14</title>
<g id="a_edge39_Node000022_Node000014"><a xlink:title=" ">
<path fill="none" stroke="#63b8ff" d="M601.11,-233.03C470.16,-232.06 93.18,-221.42 19,-132 6.88,-117.39 20.4,-97.76 33.81,-83.9"/>
<polygon fill="#63b8ff" stroke="#63b8ff" points="36.04,-86.62 40.83,-77.17 31.19,-81.57 36.04,-86.62"/>
</a>
</g>
</g>
<!-- Node22&#45;&gt;Node15 -->
<g id="edge30_Node000022_Node000015" class="edge">
<title>Node22&#45;&gt;Node15</title>
<g id="a_edge30_Node000022_Node000015"><a xlink:title=" ">
<path fill="none" stroke="#63b8ff" d="M640.39,-223.79C631.15,-209.44 611.31,-181.98 587,-168 545.81,-144.31 493.62,-133.05 451.46,-127.71"/>
<polygon fill="#63b8ff" stroke="#63b8ff" points="451.97,-124.25 441.63,-126.57 451.16,-131.2 451.97,-124.25"/>
</a>
</g>
</g>
<!-- Node22&#45;&gt;Node18 -->
<g id="edge31_Node000022_Node000018" class="edge">
<title>Node22&#45;&gt;Node18</title>
<g id="a_edge31_Node000022_Node000018"><a xlink:title=" ">
<path fill="none" stroke="#63b8ff" d="M657.15,-223.59C666.33,-215.85 679.55,-204.69 690.48,-195.47"/>
<polygon fill="#63b8ff" stroke="#63b8ff" points="692.44,-198.4 697.82,-189.27 687.92,-193.05 692.44,-198.4"/>
</a>
</g>
</g>
<!-- Node22&#45;&gt;Node23 -->
<g id="edge32_Node000022_Node000023" class="edge">
<title>Node22&#45;&gt;Node23</title>
<g id="a_edge32_Node000022_Node000023"><a xlink:title=" ">
<path fill="none" stroke="#63b8ff" d="M604.97,-223.53C565.75,-214.48 506.45,-200.8 463.95,-190.99"/>
<polygon fill="#63b8ff" stroke="#63b8ff" points="464.99,-187.64 454.46,-188.8 463.41,-194.46 464.99,-187.64"/>
</a>
</g>
</g>
<!-- Node22&#45;&gt;Node25 -->
<g id="edge38_Node000022_Node000025" class="edge">
<title>Node22&#45;&gt;Node25</title>
<g id="a_edge38_Node000022_Node000025"><a xlink:title=" ">
<path fill="none" stroke="#63b8ff" d="M691.04,-223.72C743.4,-212.93 828.55,-195.38 875.08,-185.79"/>
<polygon fill="#63b8ff" stroke="#63b8ff" points="875.74,-189.22 884.82,-183.78 874.32,-182.37 875.74,-189.22"/>
</a>
</g>
</g>
<!-- Node23&#45;&gt;Node3 -->
<g id="edge33_Node000023_Node000003" class="edge">
<title>Node23&#45;&gt;Node3</title>
<g id="a_edge33_Node000023_Node000003"><a xlink:title=" ">
<path fill="none" stroke="#63b8ff" d="M419.16,-167.94C431.33,-153.28 457.59,-124.74 487,-112 549.31,-85 737.5,-73.73 844.15,-69.42"/>
<polygon fill="#63b8ff" stroke="#63b8ff" points="844.1,-72.92 853.96,-69.03 843.83,-65.93 844.1,-72.92"/>
</a>
</g>
</g>
<!-- Node23&#45;&gt;Node13 -->
<g id="edge35_Node000023_Node000013" class="edge">
<title>Node23&#45;&gt;Node13</title>
<g id="a_edge35_Node000023_Node000013"><a xlink:title=" ">
<path fill="none" stroke="#63b8ff" d="M358.35,-167.53C306.07,-158.31 226.53,-144.27 170.76,-134.43"/>
<polygon fill="#63b8ff" stroke="#63b8ff" points="171.54,-131.01 161.08,-132.72 170.32,-137.9 171.54,-131.01"/>
</a>
</g>
</g>
<!-- Node23&#45;&gt;Node14 -->
<g id="edge37_Node000023_Node000014" class="edge">
<title>Node23&#45;&gt;Node14</title>
<g id="a_edge37_Node000023_Node000014"><a xlink:title=" ">
<path fill="none" stroke="#63b8ff" d="M359.89,-167.52C323.16,-160 273.21,-148.08 231,-132 213.17,-125.2 210.6,-119.39 193,-112 162.38,-99.14 126.73,-87.73 99.07,-79.62"/>
<polygon fill="#63b8ff" stroke="#63b8ff" points="100.16,-76.29 89.58,-76.88 98.22,-83.01 100.16,-76.29"/>
</a>
</g>
</g>
<!-- Node23&#45;&gt;Node15 -->
<g id="edge34_Node000023_Node000015" class="edge">
<title>Node23&#45;&gt;Node15</title>
<g id="a_edge34_Node000023_Node000015"><a xlink:title=" ">
<path fill="none" stroke="#63b8ff" d="M405.73,-167.59C400.98,-160.47 394.3,-150.45 388.48,-141.72"/>
<polygon fill="#63b8ff" stroke="#63b8ff" points="391.5,-139.94 383.04,-133.56 385.67,-143.82 391.5,-139.94"/>
</a>
</g>
</g>
<!-- Node24 -->
<g id="Node000024" class="node">
<title>Node24</title>
<g id="a_Node000024"><a xlink:title=" ">
<polygon fill="#e0e0e0" stroke="#999999" points="293.75,-132 240.25,-132 240.25,-112 293.75,-112 293.75,-132"/>
<text xml:space="preserve" text-anchor="middle" x="267" y="-118.5" font-family="Helvetica,sans-Serif" font-size="10.00">iostream</text>
</a>
</g>
</g>
<!-- Node23&#45;&gt;Node24 -->
<g id="edge36_Node000023_Node000024" class="edge">
<title>Node23&#45;&gt;Node24</title>
<g id="a_edge36_Node000023_Node000024"><a xlink:title=" ">
<path fill="none" stroke="#63b8ff" d="M386.74,-167.59C363.6,-158.97 329.08,-146.12 303.04,-136.42"/>
<polygon fill="#63b8ff" stroke="#63b8ff" points="304.47,-133.22 293.87,-133.01 302.02,-139.78 304.47,-133.22"/>
</a>
</g>
</g>
<!-- Node29&#45;&gt;Node3 -->
<g id="edge50_Node000029_Node000003" class="edge">
<title>Node29&#45;&gt;Node3</title>
<g id="a_edge50_Node000029_Node000003"><a xlink:title=" ">
<path fill="none" stroke="#63b8ff" d="M912.19,-447.52C997.46,-431.75 1148,-396.85 1148,-347 1148,-347 1148,-347 1148,-177 1148,-108.03 1062.33,-82.29 996.02,-72.69"/>
<polygon fill="#63b8ff" stroke="#63b8ff" points="996.6,-69.23 986.23,-71.38 995.67,-76.17 996.6,-69.23"/>
</a>
</g>
</g>
<!-- Node29&#45;&gt;Node17 -->
<g id="edge51_Node000029_Node000017" class="edge">
<title>Node29&#45;&gt;Node17</title>
<g id="a_edge51_Node000029_Node000017"><a xlink:title=" ">
<path fill="none" stroke="#63b8ff" d="M819.87,-447.65C801.9,-440.89 781.62,-429.74 771,-412 748.48,-374.39 792.95,-330.34 821.87,-307.16"/>
<polygon fill="#63b8ff" stroke="#63b8ff" points="823.65,-310.21 829.42,-301.33 819.36,-304.68 823.65,-310.21"/>
</a>
</g>
</g>
<!-- Node29&#45;&gt;Node19 -->
<g id="edge63_Node000029_Node000019" class="edge">
<title>Node29&#45;&gt;Node19</title>
<g id="a_edge63_Node000029_Node000019"><a xlink:title=" ">
<path fill="none" stroke="#63b8ff" d="M880.74,-447.6C902.06,-439.39 932.82,-426.53 958,-412 994.34,-391.03 1015.08,-393.45 1034,-356 1038.01,-348.07 1034.55,-344.87 1034,-336 1032.44,-310.97 1036.66,-303.15 1027,-280 1002.63,-221.57 990.08,-205.39 939,-168 916.99,-151.89 888.54,-140.89 864.87,-133.8"/>
<polygon fill="#63b8ff" stroke="#63b8ff" points="866.06,-130.5 855.48,-131.14 864.15,-137.23 866.06,-130.5"/>
</a>
</g>
</g>
<!-- Node29&#45;&gt;Node23 -->
<g id="edge52_Node000029_Node000023" class="edge">
<title>Node29&#45;&gt;Node23</title>
<g id="a_edge52_Node000029_Node000023"><a xlink:title=" ">
<path fill="none" stroke="#63b8ff" d="M774.39,-450.97C658.6,-440.06 459,-411.84 459,-347 459,-347 459,-347 459,-289 459,-254.71 439.45,-218.9 425.57,-197.79"/>
<polygon fill="#63b8ff" stroke="#63b8ff" points="428.54,-195.93 420,-189.67 422.77,-199.9 428.54,-195.93"/>
</a>
</g>
</g>
<!-- Node30 -->
<g id="Node000030" class="node">
<title>Node30</title>
<g id="a_Node000030"><a xlink:href="_action_8h.html" target="_top" xlink:title=" ">
<polygon fill="white" stroke="#666666" points="1024.88,-356 891.12,-356 891.12,-336 1024.88,-336 1024.88,-356"/>
<text xml:space="preserve" text-anchor="middle" x="958" y="-342.5" font-family="Helvetica,sans-Serif" font-size="10.00">FIEAGameEngine/Action.h</text>
</a>
</g>
</g>
<!-- Node29&#45;&gt;Node30 -->
<g id="edge53_Node000029_Node000030" class="edge">
<title>Node29&#45;&gt;Node30</title>
<g id="a_edge53_Node000029_Node000030"><a xlink:title=" ">
<path fill="none" stroke="#63b8ff" d="M884.94,-447.65C903,-440.56 925.14,-429.09 939,-412 949.21,-399.42 953.93,-381.55 956.12,-367.73"/>
<polygon fill="#63b8ff" stroke="#63b8ff" points="959.57,-368.29 957.31,-357.94 952.63,-367.44 959.57,-368.29"/>
</a>
</g>
</g>
<!-- Node29&#45;&gt;Node31 -->
<g id="edge58_Node000029_Node000031" class="edge">
<title>Node29&#45;&gt;Node31</title>
<g id="a_edge58_Node000029_Node000031"><a xlink:title=" ">
<path fill="none" stroke="#63b8ff" d="M855,-447.59C855,-441.01 855,-431.96 855,-423.73"/>
<polygon fill="#63b8ff" stroke="#63b8ff" points="858.5,-423.81 855,-413.81 851.5,-423.81 858.5,-423.81"/>
</a>
</g>
</g>
<!-- Node30&#45;&gt;Node3 -->
<g id="edge54_Node000030_Node000003" class="edge">
<title>Node30&#45;&gt;Node3</title>
<g id="a_edge54_Node000030_Node000003"><a xlink:title=" ">
<path fill="none" stroke="#63b8ff" d="M970.55,-335.63C992.14,-318.33 1034,-279.1 1034,-235 1034,-235 1034,-235 1034,-177 1034,-146.2 1030.55,-134.94 1010,-112 997.38,-97.91 979.33,-87.69 962.71,-80.58"/>
<polygon fill="#63b8ff" stroke="#63b8ff" points="964.05,-77.35 953.47,-76.91 961.47,-83.86 964.05,-77.35"/>
</a>
</g>
</g>
<!-- Node30&#45;&gt;Node17 -->
<g id="edge55_Node000030_Node000017" class="edge">
<title>Node30&#45;&gt;Node17</title>
<g id="a_edge55_Node000030_Node000017"><a xlink:title=" ">
<path fill="none" stroke="#63b8ff" d="M938.14,-335.59C920.51,-327.24 894.49,-314.92 874.27,-305.34"/>
<polygon fill="#63b8ff" stroke="#63b8ff" points="875.92,-302.25 865.38,-301.13 872.92,-308.57 875.92,-302.25"/>
</a>
</g>
</g>
<!-- Node30&#45;&gt;Node23 -->
<g id="edge56_Node000030_Node000023" class="edge">
<title>Node30&#45;&gt;Node23</title>
<g id="a_edge56_Node000030_Node000023"><a xlink:title=" ">
<path fill="none" stroke="#63b8ff" d="M910.08,-335.52C834.56,-319.99 683.7,-286.53 560,-244 537.23,-236.17 478.51,-209.64 442.25,-192.99"/>
<polygon fill="#63b8ff" stroke="#63b8ff" points="444.15,-190.01 433.6,-189.01 441.22,-196.37 444.15,-190.01"/>
</a>
</g>
</g>
<!-- Node30&#45;&gt;Node26 -->
<g id="edge57_Node000030_Node000026" class="edge">
<title>Node30&#45;&gt;Node26</title>
<g id="a_edge57_Node000030_Node000026"><a xlink:title=" ">
<path fill="none" stroke="#63b8ff" d="M956.38,-335.62C953.34,-318.01 946.7,-279.59 942.57,-255.65"/>
<polygon fill="#63b8ff" stroke="#63b8ff" points="946.02,-255.1 940.87,-245.85 939.13,-256.3 946.02,-255.1"/>
</a>
</g>
</g>
<!-- Node31&#45;&gt;Node3 -->
<g id="edge59_Node000031_Node000003" class="edge">
<title>Node31&#45;&gt;Node3</title>
<g id="a_edge59_Node000031_Node000003"><a xlink:title=" ">
<path fill="none" stroke="#63b8ff" d="M930.06,-394.94C964.35,-389.13 1003.92,-377.84 1034,-356 1085.38,-318.68 1110,-298.51 1110,-235 1110,-235 1110,-235 1110,-177 1110,-120.57 1046.45,-92.62 992.86,-79.08"/>
<polygon fill="#63b8ff" stroke="#63b8ff" points="993.96,-75.74 983.42,-76.83 992.34,-82.55 993.96,-75.74"/>
</a>
</g>
</g>
<!-- Node31&#45;&gt;Node17 -->
<g id="edge60_Node000031_Node000017" class="edge">
<title>Node31&#45;&gt;Node17</title>
<g id="a_edge60_Node000031_Node000017"><a xlink:title=" ">
<path fill="none" stroke="#63b8ff" d="M854.06,-391.62C852.3,-374.01 848.46,-335.59 846.07,-311.65"/>
<polygon fill="#63b8ff" stroke="#63b8ff" points="849.56,-311.46 845.09,-301.86 842.6,-312.16 849.56,-311.46"/>
</a>
</g>
</g>
<!-- Node31&#45;&gt;Node23 -->
<g id="edge61_Node000031_Node000023" class="edge">
<title>Node31&#45;&gt;Node23</title>
<g id="a_edge61_Node000031_Node000023"><a xlink:title=" ">
<path fill="none" stroke="#63b8ff" d="M831.03,-391.55C774.15,-368.8 627.08,-308.11 511,-244 483.72,-228.93 454.04,-208.92 434.36,-195.1"/>
<polygon fill="#63b8ff" stroke="#63b8ff" points="436.46,-192.3 426.28,-189.37 432.42,-198.01 436.46,-192.3"/>
</a>
</g>
</g>
<!-- Node31&#45;&gt;Node30 -->
<g id="edge62_Node000031_Node000030" class="edge">
<title>Node31&#45;&gt;Node30</title>
<g id="a_edge62_Node000031_Node000030"><a xlink:title=" ">
<path fill="none" stroke="#63b8ff" d="M872.94,-391.59C888.65,-383.36 911.73,-371.26 929.89,-361.74"/>
<polygon fill="#63b8ff" stroke="#63b8ff" points="931.35,-364.93 938.58,-357.18 928.1,-358.73 931.35,-364.93"/>
</a>
</g>
</g>
</g>
</svg>
