<?xml version="1.0" encoding="UTF-8" standalone="no"?>
<!DOCTYPE svg PUBLIC "-//W3C//DTD SVG 1.1//EN"
 "http://www.w3.org/Graphics/SVG/1.1/DTD/svg11.dtd">
<!-- Generated by graphviz version 13.1.0 (20250701.0955)
 -->
<!-- Title: FIEAGameEngine/src/Memory/SystemAllocator.h Pages: 1 -->
<svg width="282pt" height="176pt"
 viewBox="0.00 0.00 282.00 176.00" xmlns="http://www.w3.org/2000/svg" xmlns:xlink="http://www.w3.org/1999/xlink">
<g id="graph0" class="graph" transform="scale(1 1) rotate(0) translate(4 172)">
<title>FIEAGameEngine/src/Memory/SystemAllocator.h</title>
<!-- Node1 -->
<g id="Node000001" class="node">
<title>Node1</title>
<g id="a_Node000001"><a xlink:title=" ">
<polygon fill="#999999" stroke="#666666" points="213.88,-168 76.38,-168 76.38,-136 213.88,-136 213.88,-168"/>
<text xml:space="preserve" text-anchor="start" x="84.38" y="-154.5" font-family="Helvetica,sans-Serif" font-size="10.00">FIEAGameEngine/src</text>
<text xml:space="preserve" text-anchor="middle" x="145.12" y="-142.5" font-family="Helvetica,sans-Serif" font-size="10.00">/Memory/SystemAllocator.h</text>
</a>
</g>
</g>
<!-- Node2 -->
<g id="Node000002" class="node">
<title>Node2</title>
<g id="a_Node000002"><a xlink:href="_tracker_8h.html" target="_top" xlink:title=" ">
<polygon fill="white" stroke="#666666" points="200.75,-100 89.5,-100 89.5,-68 200.75,-68 200.75,-100"/>
<text xml:space="preserve" text-anchor="start" x="97.5" y="-86.5" font-family="Helvetica,sans-Serif" font-size="10.00">FIEAGameEngine/src</text>
<text xml:space="preserve" text-anchor="middle" x="145.12" y="-74.5" font-family="Helvetica,sans-Serif" font-size="10.00">/Memory/Tracker.h</text>
</a>
</g>
</g>
<!-- Node1&#45;&gt;Node2 -->
<g id="edge1_Node000001_Node000002" class="edge">
<title>Node1&#45;&gt;Node2</title>
<g id="a_edge1_Node000001_Node000002"><a xlink:title=" ">
<path fill="none" stroke="#63b8ff" d="M145.12,-124.31C145.12,-116.12 145.12,-107.38 145.12,-100.22"/>
<polygon fill="#63b8ff" stroke="#63b8ff" points="141.63,-124.18 145.13,-134.18 148.63,-124.18 141.63,-124.18"/>
</a>
</g>
</g>
<!-- Node3 -->
<g id="Node000003" class="node">
<title>Node3</title>
<g id="a_Node000003"><a xlink:href="_memory_service_8cpp.html" target="_top" xlink:title=" ">
<polygon fill="white" stroke="#666666" points="144.25,-32 0,-32 0,0 144.25,0 144.25,-32"/>
<text xml:space="preserve" text-anchor="start" x="8" y="-18.5" font-family="Helvetica,sans-Serif" font-size="10.00">FIEAGameEngine/src</text>
<text xml:space="preserve" text-anchor="middle" x="72.12" y="-6.5" font-family="Helvetica,sans-Serif" font-size="10.00">/Memory/MemoryService.cpp</text>
</a>
</g>
</g>
<!-- Node2&#45;&gt;Node3 -->
<g id="edge2_Node000002_Node000003" class="edge">
<title>Node2&#45;&gt;Node3</title>
<g id="a_edge2_Node000002_Node000003"><a xlink:title=" ">
<path fill="none" stroke="#63b8ff" d="M119.74,-60.05C109.64,-50.92 98.3,-40.67 89.22,-32.45"/>
<polygon fill="#63b8ff" stroke="#63b8ff" points="117.31,-62.57 127.07,-66.68 122,-57.37 117.31,-62.57"/>
</a>
</g>
</g>
<!-- Node4 -->
<g id="Node000004" class="node">
<title>Node4</title>
<g id="a_Node000004"><a xlink:href="_tracker_8cpp.html" target="_top" xlink:title=" ">
<polygon fill="white" stroke="#666666" points="273.75,-32 162.5,-32 162.5,0 273.75,0 273.75,-32"/>
<text xml:space="preserve" text-anchor="start" x="170.5" y="-18.5" font-family="Helvetica,sans-Serif" font-size="10.00">FIEAGameEngine/src</text>
<text xml:space="preserve" text-anchor="middle" x="218.12" y="-6.5" font-family="Helvetica,sans-Serif" font-size="10.00">/Memory/Tracker.cpp</text>
</a>
</g>
</g>
<!-- Node2&#45;&gt;Node4 -->
<g id="edge3_Node000002_Node000004" class="edge">
<title>Node2&#45;&gt;Node4</title>
<g id="a_edge3_Node000002_Node000004"><a xlink:title=" ">
<path fill="none" stroke="#63b8ff" d="M170.51,-60.05C180.61,-50.92 191.95,-40.67 201.03,-32.45"/>
<polygon fill="#63b8ff" stroke="#63b8ff" points="168.25,-57.37 163.18,-66.68 172.94,-62.57 168.25,-57.37"/>
</a>
</g>
</g>
</g>
</svg>
