<?xml version="1.0" encoding="UTF-8" standalone="no"?>
<!DOCTYPE svg PUBLIC "-//W3C//DTD SVG 1.1//EN"
 "http://www.w3.org/Graphics/SVG/1.1/DTD/svg11.dtd">
<!-- Generated by graphviz version 13.1.0 (20250701.0955)
 -->
<!-- Title: FIEAGameEngine/src/Memory/Tracker.h Pages: 1 -->
<svg width="829pt" height="152pt"
 viewBox="0.00 0.00 829.00 152.00" xmlns="http://www.w3.org/2000/svg" xmlns:xlink="http://www.w3.org/1999/xlink">
<g id="graph0" class="graph" transform="scale(1 1) rotate(0) translate(4 148)">
<title>FIEAGameEngine/src/Memory/Tracker.h</title>
<!-- Node1 -->
<g id="Node000001" class="node">
<title>Node1</title>
<g id="a_Node000001"><a xlink:title=" ">
<polygon fill="#999999" stroke="#666666" points="719.62,-144 608.38,-144 608.38,-112 719.62,-112 719.62,-144"/>
<text xml:space="preserve" text-anchor="start" x="616.38" y="-130.5" font-family="Helvetica,sans-Serif" font-size="10.00">FIEAGameEngine/src</text>
<text xml:space="preserve" text-anchor="middle" x="664" y="-118.5" font-family="Helvetica,sans-Serif" font-size="10.00">/Memory/Tracker.h</text>
</a>
</g>
</g>
<!-- Node2 -->
<g id="Node000002" class="node">
<title>Node2</title>
<g id="a_Node000002"><a xlink:href="_types_8h.html" target="_top" xlink:title=" ">
<polygon fill="white" stroke="#666666" points="479.12,-76 346.88,-76 346.88,-56 479.12,-56 479.12,-76"/>
<text xml:space="preserve" text-anchor="middle" x="413" y="-62.5" font-family="Helvetica,sans-Serif" font-size="10.00">FIEAGameEngine/Types.h</text>
</a>
</g>
</g>
<!-- Node1&#45;&gt;Node2 -->
<g id="edge1_Node000001_Node000002" class="edge">
<title>Node1&#45;&gt;Node2</title>
<g id="a_edge1_Node000001_Node000002"><a xlink:title=" ">
<path fill="none" stroke="#63b8ff" d="M607.98,-113.61C564.71,-103.26 505.33,-89.07 463.5,-79.07"/>
<polygon fill="#63b8ff" stroke="#63b8ff" points="464.48,-75.71 453.94,-76.79 462.85,-82.52 464.48,-75.71"/>
</a>
</g>
</g>
<!-- Node11 -->
<g id="Node000011" class="node">
<title>Node11</title>
<g id="a_Node000011"><a xlink:href="_system_allocator_8h.html" target="_top" xlink:title=" ">
<polygon fill="white" stroke="#666666" points="658.12,-76 561.88,-76 561.88,-56 658.12,-56 658.12,-76"/>
<text xml:space="preserve" text-anchor="middle" x="610" y="-62.5" font-family="Helvetica,sans-Serif" font-size="10.00">SystemAllocator.h</text>
</a>
</g>
</g>
<!-- Node1&#45;&gt;Node11 -->
<g id="edge10_Node000001_Node000011" class="edge">
<title>Node1&#45;&gt;Node11</title>
<g id="a_edge10_Node000001_Node000011"><a xlink:title=" ">
<path fill="none" stroke="#63b8ff" d="M650.09,-111.55C642.75,-103.39 633.7,-93.33 626.06,-84.84"/>
<polygon fill="#63b8ff" stroke="#63b8ff" points="628.77,-82.62 619.48,-77.53 623.57,-87.31 628.77,-82.62"/>
</a>
</g>
</g>
<!-- Node13 -->
<g id="Node000013" class="node">
<title>Node13</title>
<g id="a_Node000013"><a xlink:title=" ">
<polygon fill="#e0e0e0" stroke="#999999" points="759.38,-76 676.62,-76 676.62,-56 759.38,-56 759.38,-76"/>
<text xml:space="preserve" text-anchor="middle" x="718" y="-62.5" font-family="Helvetica,sans-Serif" font-size="10.00">unordered_map</text>
</a>
</g>
</g>
<!-- Node1&#45;&gt;Node13 -->
<g id="edge12_Node000001_Node000013" class="edge">
<title>Node1&#45;&gt;Node13</title>
<g id="a_edge12_Node000001_Node000013"><a xlink:title=" ">
<path fill="none" stroke="#63b8ff" d="M677.91,-111.55C685.25,-103.39 694.3,-93.33 701.94,-84.84"/>
<polygon fill="#63b8ff" stroke="#63b8ff" points="704.43,-87.31 708.52,-77.53 699.23,-82.62 704.43,-87.31"/>
</a>
</g>
</g>
<!-- Node14 -->
<g id="Node000014" class="node">
<title>Node14</title>
<g id="a_Node000014"><a xlink:title=" ">
<polygon fill="#e0e0e0" stroke="#999999" points="820.5,-76 777.5,-76 777.5,-56 820.5,-56 820.5,-76"/>
<text xml:space="preserve" text-anchor="middle" x="799" y="-62.5" font-family="Helvetica,sans-Serif" font-size="10.00">vector</text>
</a>
</g>
</g>
<!-- Node1&#45;&gt;Node14 -->
<g id="edge13_Node000001_Node000014" class="edge">
<title>Node1&#45;&gt;Node14</title>
<g id="a_edge13_Node000001_Node000014"><a xlink:title=" ">
<path fill="none" stroke="#63b8ff" d="M698.77,-111.55C719.96,-102.13 746.83,-90.19 767.41,-81.04"/>
<polygon fill="#63b8ff" stroke="#63b8ff" points="768.73,-84.28 776.45,-77.02 765.89,-77.89 768.73,-84.28"/>
</a>
</g>
</g>
<!-- Node3 -->
<g id="Node000003" class="node">
<title>Node3</title>
<g id="a_Node000003"><a xlink:title=" ">
<polygon fill="#e0e0e0" stroke="#999999" points="160,-20 0,-20 0,0 160,0 160,-20"/>
<text xml:space="preserve" text-anchor="middle" x="80" y="-6.5" font-family="Helvetica,sans-Serif" font-size="10.00">../src/Memory/SystemAllocator.h</text>
</a>
</g>
</g>
<!-- Node2&#45;&gt;Node3 -->
<g id="edge2_Node000002_Node000003" class="edge">
<title>Node2&#45;&gt;Node3</title>
<g id="a_edge2_Node000002_Node000003"><a xlink:title=" ">
<path fill="none" stroke="#63b8ff" d="M354.61,-55.53C297.37,-46.25 210.08,-32.09 149.34,-22.24"/>
<polygon fill="#63b8ff" stroke="#63b8ff" points="150.24,-18.85 139.81,-20.7 149.12,-25.75 150.24,-18.85"/>
</a>
</g>
</g>
<!-- Node4 -->
<g id="Node000004" class="node">
<title>Node4</title>
<g id="a_Node000004"><a xlink:title=" ">
<polygon fill="#e0e0e0" stroke="#999999" points="240.25,-20 177.75,-20 177.75,0 240.25,0 240.25,-20"/>
<text xml:space="preserve" text-anchor="middle" x="209" y="-6.5" font-family="Helvetica,sans-Serif" font-size="10.00">windows.h</text>
</a>
</g>
</g>
<!-- Node2&#45;&gt;Node4 -->
<g id="edge3_Node000002_Node000004" class="edge">
<title>Node2&#45;&gt;Node4</title>
<g id="a_edge3_Node000002_Node000004"><a xlink:title=" ">
<path fill="none" stroke="#63b8ff" d="M377.47,-55.59C342.4,-46.31 288.76,-32.11 251.46,-22.24"/>
<polygon fill="#63b8ff" stroke="#63b8ff" points="252.47,-18.89 241.91,-19.71 250.68,-25.65 252.47,-18.89"/>
</a>
</g>
</g>
<!-- Node5 -->
<g id="Node000005" class="node">
<title>Node5</title>
<g id="a_Node000005"><a xlink:title=" ">
<polygon fill="#e0e0e0" stroke="#999999" points="306.12,-20 257.88,-20 257.88,0 306.12,0 306.12,-20"/>
<text xml:space="preserve" text-anchor="middle" x="282" y="-6.5" font-family="Helvetica,sans-Serif" font-size="10.00">cassert</text>
</a>
</g>
</g>
<!-- Node2&#45;&gt;Node5 -->
<g id="edge4_Node000002_Node000005" class="edge">
<title>Node2&#45;&gt;Node5</title>
<g id="a_edge4_Node000002_Node000005"><a xlink:title=" ">
<path fill="none" stroke="#63b8ff" d="M390.18,-55.59C369.55,-47.09 338.92,-34.46 315.51,-24.81"/>
<polygon fill="#63b8ff" stroke="#63b8ff" points="316.98,-21.63 306.4,-21.06 314.31,-28.1 316.98,-21.63"/>
</a>
</g>
</g>
<!-- Node6 -->
<g id="Node000006" class="node">
<title>Node6</title>
<g id="a_Node000006"><a xlink:title=" ">
<polygon fill="#e0e0e0" stroke="#999999" points="372.12,-20 323.88,-20 323.88,0 372.12,0 372.12,-20"/>
<text xml:space="preserve" text-anchor="middle" x="348" y="-6.5" font-family="Helvetica,sans-Serif" font-size="10.00">cstddef</text>
</a>
</g>
</g>
<!-- Node2&#45;&gt;Node6 -->
<g id="edge5_Node000002_Node000006" class="edge">
<title>Node2&#45;&gt;Node6</title>
<g id="a_edge5_Node000002_Node000006"><a xlink:title=" ">
<path fill="none" stroke="#63b8ff" d="M401.68,-55.59C392.36,-47.85 378.92,-36.69 367.82,-27.47"/>
<polygon fill="#63b8ff" stroke="#63b8ff" points="370.29,-24.96 360.36,-21.27 365.81,-30.35 370.29,-24.96"/>
</a>
</g>
</g>
<!-- Node7 -->
<g id="Node000007" class="node">
<title>Node7</title>
<g id="a_Node000007"><a xlink:title=" ">
<polygon fill="#e0e0e0" stroke="#999999" points="435.62,-20 390.38,-20 390.38,0 435.62,0 435.62,-20"/>
<text xml:space="preserve" text-anchor="middle" x="413" y="-6.5" font-family="Helvetica,sans-Serif" font-size="10.00">cstdint</text>
</a>
</g>
</g>
<!-- Node2&#45;&gt;Node7 -->
<g id="edge6_Node000002_Node000007" class="edge">
<title>Node2&#45;&gt;Node7</title>
<g id="a_edge6_Node000002_Node000007"><a xlink:title=" ">
<path fill="none" stroke="#63b8ff" d="M413,-55.59C413,-49.01 413,-39.96 413,-31.73"/>
<polygon fill="#63b8ff" stroke="#63b8ff" points="416.5,-31.81 413,-21.81 409.5,-31.81 416.5,-31.81"/>
</a>
</g>
</g>
<!-- Node8 -->
<g id="Node000008" class="node">
<title>Node8</title>
<g id="a_Node000008"><a xlink:title=" ">
<polygon fill="#e0e0e0" stroke="#999999" points="506.38,-20 453.62,-20 453.62,0 506.38,0 506.38,-20"/>
<text xml:space="preserve" text-anchor="middle" x="480" y="-6.5" font-family="Helvetica,sans-Serif" font-size="10.00">cstdbool</text>
</a>
</g>
</g>
<!-- Node2&#45;&gt;Node8 -->
<g id="edge7_Node000002_Node000008" class="edge">
<title>Node2&#45;&gt;Node8</title>
<g id="a_edge7_Node000002_Node000008"><a xlink:title=" ">
<path fill="none" stroke="#63b8ff" d="M424.67,-55.59C434.28,-47.85 448.13,-36.69 459.57,-27.47"/>
<polygon fill="#63b8ff" stroke="#63b8ff" points="461.7,-30.25 467.28,-21.25 457.3,-24.8 461.7,-30.25"/>
</a>
</g>
</g>
<!-- Node9 -->
<g id="Node000009" class="node">
<title>Node9</title>
<g id="a_Node000009"><a xlink:title=" ">
<polygon fill="#e0e0e0" stroke="#999999" points="564,-20 524,-20 524,0 564,0 564,-20"/>
<text xml:space="preserve" text-anchor="middle" x="544" y="-6.5" font-family="Helvetica,sans-Serif" font-size="10.00">string</text>
</a>
</g>
</g>
<!-- Node2&#45;&gt;Node9 -->
<g id="edge8_Node000002_Node000009" class="edge">
<title>Node2&#45;&gt;Node9</title>
<g id="a_edge8_Node000002_Node000009"><a xlink:title=" ">
<path fill="none" stroke="#63b8ff" d="M435.82,-55.59C457.21,-46.78 489.35,-33.53 513.05,-23.76"/>
<polygon fill="#63b8ff" stroke="#63b8ff" points="514.28,-27.04 522.19,-19.99 511.62,-20.56 514.28,-27.04"/>
</a>
</g>
</g>
<!-- Node10 -->
<g id="Node000010" class="node">
<title>Node10</title>
<g id="a_Node000010"><a xlink:title=" ">
<polygon fill="#e0e0e0" stroke="#999999" points="636.12,-20 581.88,-20 581.88,0 636.12,0 636.12,-20"/>
<text xml:space="preserve" text-anchor="middle" x="609" y="-6.5" font-family="Helvetica,sans-Serif" font-size="10.00">crtdefs.h</text>
</a>
</g>
</g>
<!-- Node2&#45;&gt;Node10 -->
<g id="edge9_Node000002_Node000010" class="edge">
<title>Node2&#45;&gt;Node10</title>
<g id="a_edge9_Node000002_Node000010"><a xlink:title=" ">
<path fill="none" stroke="#63b8ff" d="M447.14,-55.59C481.58,-46.11 534.66,-31.48 570.56,-21.59"/>
<polygon fill="#63b8ff" stroke="#63b8ff" points="571.4,-24.99 580.11,-18.96 569.54,-18.24 571.4,-24.99"/>
</a>
</g>
</g>
<!-- Node12 -->
<g id="Node000012" class="node">
<title>Node12</title>
<g id="a_Node000012"><a xlink:title=" ">
<polygon fill="#e0e0e0" stroke="#999999" points="698.25,-20 653.75,-20 653.75,0 698.25,0 698.25,-20"/>
<text xml:space="preserve" text-anchor="middle" x="676" y="-6.5" font-family="Helvetica,sans-Serif" font-size="10.00">cstdlib</text>
</a>
</g>
</g>
<!-- Node11&#45;&gt;Node12 -->
<g id="edge11_Node000011_Node000012" class="edge">
<title>Node11&#45;&gt;Node12</title>
<g id="a_edge11_Node000011_Node000012"><a xlink:title=" ">
<path fill="none" stroke="#63b8ff" d="M621.5,-55.59C630.96,-47.85 644.6,-36.69 655.87,-27.47"/>
<polygon fill="#63b8ff" stroke="#63b8ff" points="657.94,-30.3 663.46,-21.26 653.51,-24.88 657.94,-30.3"/>
</a>
</g>
</g>
</g>
</svg>
