<?xml version="1.0" encoding="UTF-8" standalone="no"?>
<!DOCTYPE svg PUBLIC "-//W3C//DTD SVG 1.1//EN"
 "http://www.w3.org/Graphics/SVG/1.1/DTD/svg11.dtd">
<!-- Generated by graphviz version 13.1.0 (20250701.0955)
 -->
<!-- Title: FIEAGameEngine/src/Memory/Tracker.cpp Pages: 1 -->
<svg width="714pt" height="208pt"
 viewBox="0.00 0.00 714.00 208.00" xmlns="http://www.w3.org/2000/svg" xmlns:xlink="http://www.w3.org/1999/xlink">
<g id="graph0" class="graph" transform="scale(1 1) rotate(0) translate(4 204)">
<title>FIEAGameEngine/src/Memory/Tracker.cpp</title>
<!-- Node1 -->
<g id="Node000001" class="node">
<title>Node1</title>
<g id="a_Node000001"><a xlink:title=" ">
<polygon fill="#999999" stroke="#666666" points="437.75,-200 326.5,-200 326.5,-168 437.75,-168 437.75,-200"/>
<text xml:space="preserve" text-anchor="start" x="334.5" y="-186.5" font-family="Helvetica,sans-Serif" font-size="10.00">FIEAGameEngine/src</text>
<text xml:space="preserve" text-anchor="middle" x="382.12" y="-174.5" font-family="Helvetica,sans-Serif" font-size="10.00">/Memory/Tracker.cpp</text>
</a>
</g>
</g>
<!-- Node2 -->
<g id="Node000002" class="node">
<title>Node2</title>
<g id="a_Node000002"><a xlink:href="_tracker_8h.html" target="_top" xlink:title=" ">
<polygon fill="white" stroke="#666666" points="275.75,-132 218.5,-132 218.5,-112 275.75,-112 275.75,-132"/>
<text xml:space="preserve" text-anchor="middle" x="247.12" y="-118.5" font-family="Helvetica,sans-Serif" font-size="10.00">Tracker.h</text>
</a>
</g>
</g>
<!-- Node1&#45;&gt;Node2 -->
<g id="edge1_Node000001_Node000002" class="edge">
<title>Node1&#45;&gt;Node2</title>
<g id="a_edge1_Node000001_Node000002"><a xlink:title=" ">
<path fill="none" stroke="#63b8ff" d="M347.36,-167.55C326.17,-158.13 299.3,-146.19 278.71,-137.04"/>
<polygon fill="#63b8ff" stroke="#63b8ff" points="280.24,-133.89 269.68,-133.02 277.39,-140.28 280.24,-133.89"/>
</a>
</g>
</g>
<!-- Node16 -->
<g id="Node000016" class="node">
<title>Node16</title>
<g id="a_Node000016"><a xlink:href="_heap_8h.html" target="_top" xlink:title=" ">
<polygon fill="white" stroke="#666666" points="405.88,-132 358.38,-132 358.38,-112 405.88,-112 405.88,-132"/>
<text xml:space="preserve" text-anchor="middle" x="382.12" y="-118.5" font-family="Helvetica,sans-Serif" font-size="10.00">Heap.h</text>
</a>
</g>
</g>
<!-- Node1&#45;&gt;Node16 -->
<g id="edge15_Node000001_Node000016" class="edge">
<title>Node1&#45;&gt;Node16</title>
<g id="a_edge15_Node000001_Node000016"><a xlink:title=" ">
<path fill="none" stroke="#63b8ff" d="M382.12,-167.55C382.12,-160.34 382.12,-151.66 382.12,-143.88"/>
<polygon fill="#63b8ff" stroke="#63b8ff" points="385.63,-143.92 382.13,-133.92 378.63,-143.92 385.63,-143.92"/>
</a>
</g>
</g>
<!-- Node17 -->
<g id="Node000017" class="node">
<title>Node17</title>
<g id="a_Node000017"><a xlink:title=" ">
<polygon fill="#e0e0e0" stroke="#999999" points="477.88,-132 424.38,-132 424.38,-112 477.88,-112 477.88,-132"/>
<text xml:space="preserve" text-anchor="middle" x="451.12" y="-118.5" font-family="Helvetica,sans-Serif" font-size="10.00">iostream</text>
</a>
</g>
</g>
<!-- Node1&#45;&gt;Node17 -->
<g id="edge17_Node000001_Node000017" class="edge">
<title>Node1&#45;&gt;Node17</title>
<g id="a_edge17_Node000001_Node000017"><a xlink:title=" ">
<path fill="none" stroke="#63b8ff" d="M399.89,-167.55C409.68,-159.04 421.83,-148.48 431.84,-139.77"/>
<polygon fill="#63b8ff" stroke="#63b8ff" points="433.91,-142.6 439.16,-133.4 429.32,-137.32 433.91,-142.6"/>
</a>
</g>
</g>
<!-- Node3 -->
<g id="Node000003" class="node">
<title>Node3</title>
<g id="a_Node000003"><a xlink:href="_types_8h.html" target="_top" xlink:title=" ">
<polygon fill="white" stroke="#666666" points="419.25,-76 287,-76 287,-56 419.25,-56 419.25,-76"/>
<text xml:space="preserve" text-anchor="middle" x="353.12" y="-62.5" font-family="Helvetica,sans-Serif" font-size="10.00">FIEAGameEngine/Types.h</text>
</a>
</g>
</g>
<!-- Node2&#45;&gt;Node3 -->
<g id="edge2_Node000002_Node000003" class="edge">
<title>Node2&#45;&gt;Node3</title>
<g id="a_edge2_Node000002_Node000003"><a xlink:title=" ">
<path fill="none" stroke="#63b8ff" d="M265.59,-111.59C281.83,-103.32 305.73,-91.14 324.46,-81.6"/>
<polygon fill="#63b8ff" stroke="#63b8ff" points="325.85,-84.82 333.17,-77.17 322.67,-78.59 325.85,-84.82"/>
</a>
</g>
</g>
<!-- Node12 -->
<g id="Node000012" class="node">
<title>Node12</title>
<g id="a_Node000012"><a xlink:href="_system_allocator_8h.html" target="_top" xlink:title=" ">
<polygon fill="white" stroke="#666666" points="96.25,-76 0,-76 0,-56 96.25,-56 96.25,-76"/>
<text xml:space="preserve" text-anchor="middle" x="48.12" y="-62.5" font-family="Helvetica,sans-Serif" font-size="10.00">SystemAllocator.h</text>
</a>
</g>
</g>
<!-- Node2&#45;&gt;Node12 -->
<g id="edge11_Node000002_Node000012" class="edge">
<title>Node2&#45;&gt;Node12</title>
<g id="a_edge11_Node000002_Node000012"><a xlink:title=" ">
<path fill="none" stroke="#63b8ff" d="M218.19,-113.15C185.62,-104.31 132.26,-89.83 93.99,-79.45"/>
<polygon fill="#63b8ff" stroke="#63b8ff" points="95.16,-76.14 84.59,-76.9 93.33,-82.89 95.16,-76.14"/>
</a>
</g>
</g>
<!-- Node14 -->
<g id="Node000014" class="node">
<title>Node14</title>
<g id="a_Node000014"><a xlink:title=" ">
<polygon fill="#e0e0e0" stroke="#999999" points="207.5,-76 124.75,-76 124.75,-56 207.5,-56 207.5,-76"/>
<text xml:space="preserve" text-anchor="middle" x="166.12" y="-62.5" font-family="Helvetica,sans-Serif" font-size="10.00">unordered_map</text>
</a>
</g>
</g>
<!-- Node2&#45;&gt;Node14 -->
<g id="edge13_Node000002_Node000014" class="edge">
<title>Node2&#45;&gt;Node14</title>
<g id="a_edge13_Node000002_Node000014"><a xlink:title=" ">
<path fill="none" stroke="#63b8ff" d="M233.02,-111.59C221.13,-103.67 203.86,-92.16 189.85,-82.82"/>
<polygon fill="#63b8ff" stroke="#63b8ff" points="191.87,-79.95 181.6,-77.32 187.98,-85.78 191.87,-79.95"/>
</a>
</g>
</g>
<!-- Node15 -->
<g id="Node000015" class="node">
<title>Node15</title>
<g id="a_Node000015"><a xlink:title=" ">
<polygon fill="#e0e0e0" stroke="#999999" points="268.62,-76 225.62,-76 225.62,-56 268.62,-56 268.62,-76"/>
<text xml:space="preserve" text-anchor="middle" x="247.12" y="-62.5" font-family="Helvetica,sans-Serif" font-size="10.00">vector</text>
</a>
</g>
</g>
<!-- Node2&#45;&gt;Node15 -->
<g id="edge14_Node000002_Node000015" class="edge">
<title>Node2&#45;&gt;Node15</title>
<g id="a_edge14_Node000002_Node000015"><a xlink:title=" ">
<path fill="none" stroke="#63b8ff" d="M247.12,-111.59C247.12,-105.01 247.12,-95.96 247.12,-87.73"/>
<polygon fill="#63b8ff" stroke="#63b8ff" points="250.63,-87.81 247.13,-77.81 243.63,-87.81 250.63,-87.81"/>
</a>
</g>
</g>
<!-- Node4 -->
<g id="Node000004" class="node">
<title>Node4</title>
<g id="a_Node000004"><a xlink:title=" ">
<polygon fill="#e0e0e0" stroke="#999999" points="568.12,-20 408.12,-20 408.12,0 568.12,0 568.12,-20"/>
<text xml:space="preserve" text-anchor="middle" x="488.12" y="-6.5" font-family="Helvetica,sans-Serif" font-size="10.00">../src/Memory/SystemAllocator.h</text>
</a>
</g>
</g>
<!-- Node3&#45;&gt;Node4 -->
<g id="edge3_Node000003_Node000004" class="edge">
<title>Node3&#45;&gt;Node4</title>
<g id="a_edge3_Node000003_Node000004"><a xlink:title=" ">
<path fill="none" stroke="#63b8ff" d="M376.64,-55.59C398,-47.05 429.76,-34.35 453.92,-24.68"/>
<polygon fill="#63b8ff" stroke="#63b8ff" points="455.04,-28.01 463.02,-21.04 452.44,-21.51 455.04,-28.01"/>
</a>
</g>
</g>
<!-- Node5 -->
<g id="Node000005" class="node">
<title>Node5</title>
<g id="a_Node000005"><a xlink:title=" ">
<polygon fill="#e0e0e0" stroke="#999999" points="648.38,-20 585.88,-20 585.88,0 648.38,0 648.38,-20"/>
<text xml:space="preserve" text-anchor="middle" x="617.12" y="-6.5" font-family="Helvetica,sans-Serif" font-size="10.00">windows.h</text>
</a>
</g>
</g>
<!-- Node3&#45;&gt;Node5 -->
<g id="edge4_Node000003_Node000005" class="edge">
<title>Node3&#45;&gt;Node5</title>
<g id="a_edge4_Node000003_Node000005"><a xlink:title=" ">
<path fill="none" stroke="#63b8ff" d="M401.69,-55.58C444.72,-47.16 509.51,-34.29 574.79,-20.46"/>
<polygon fill="#63b8ff" stroke="#63b8ff" points="575.16,-23.96 584.22,-18.46 573.71,-17.11 575.16,-23.96"/>
</a>
</g>
</g>
<!-- Node6 -->
<g id="Node000006" class="node">
<title>Node6</title>
<g id="a_Node000006"><a xlink:title=" ">
<polygon fill="#e0e0e0" stroke="#999999" points="117.25,-20 69,-20 69,0 117.25,0 117.25,-20"/>
<text xml:space="preserve" text-anchor="middle" x="93.12" y="-6.5" font-family="Helvetica,sans-Serif" font-size="10.00">cassert</text>
</a>
</g>
</g>
<!-- Node3&#45;&gt;Node6 -->
<g id="edge5_Node000003_Node000006" class="edge">
<title>Node3&#45;&gt;Node6</title>
<g id="a_edge5_Node000003_Node000006"><a xlink:title=" ">
<path fill="none" stroke="#63b8ff" d="M299.69,-55.51C256.07,-47.51 192.59,-35.31 128.68,-20.48"/>
<polygon fill="#63b8ff" stroke="#63b8ff" points="129.59,-17.1 119.06,-18.22 127.99,-23.91 129.59,-17.1"/>
</a>
</g>
</g>
<!-- Node7 -->
<g id="Node000007" class="node">
<title>Node7</title>
<g id="a_Node000007"><a xlink:title=" ">
<polygon fill="#e0e0e0" stroke="#999999" points="183.25,-20 135,-20 135,0 183.25,0 183.25,-20"/>
<text xml:space="preserve" text-anchor="middle" x="159.12" y="-6.5" font-family="Helvetica,sans-Serif" font-size="10.00">cstddef</text>
</a>
</g>
</g>
<!-- Node3&#45;&gt;Node7 -->
<g id="edge6_Node000003_Node000007" class="edge">
<title>Node3&#45;&gt;Node7</title>
<g id="a_edge6_Node000003_Node000007"><a xlink:title=" ">
<path fill="none" stroke="#63b8ff" d="M319.33,-55.59C284.36,-45.86 229.98,-30.72 194.45,-20.83"/>
<polygon fill="#63b8ff" stroke="#63b8ff" points="195.66,-17.54 185.09,-18.23 193.78,-24.28 195.66,-17.54"/>
</a>
</g>
</g>
<!-- Node8 -->
<g id="Node000008" class="node">
<title>Node8</title>
<g id="a_Node000008"><a xlink:title=" ">
<polygon fill="#e0e0e0" stroke="#999999" points="246.75,-20 201.5,-20 201.5,0 246.75,0 246.75,-20"/>
<text xml:space="preserve" text-anchor="middle" x="224.12" y="-6.5" font-family="Helvetica,sans-Serif" font-size="10.00">cstdint</text>
</a>
</g>
</g>
<!-- Node3&#45;&gt;Node8 -->
<g id="edge7_Node000003_Node000008" class="edge">
<title>Node3&#45;&gt;Node8</title>
<g id="a_edge7_Node000003_Node000008"><a xlink:title=" ">
<path fill="none" stroke="#63b8ff" d="M330.65,-55.59C310.34,-47.09 280.17,-34.46 257.12,-24.81"/>
<polygon fill="#63b8ff" stroke="#63b8ff" points="258.74,-21.7 248.17,-21.06 256.04,-28.15 258.74,-21.7"/>
</a>
</g>
</g>
<!-- Node9 -->
<g id="Node000009" class="node">
<title>Node9</title>
<g id="a_Node000009"><a xlink:title=" ">
<polygon fill="#e0e0e0" stroke="#999999" points="317.5,-20 264.75,-20 264.75,0 317.5,0 317.5,-20"/>
<text xml:space="preserve" text-anchor="middle" x="291.12" y="-6.5" font-family="Helvetica,sans-Serif" font-size="10.00">cstdbool</text>
</a>
</g>
</g>
<!-- Node3&#45;&gt;Node9 -->
<g id="edge8_Node000003_Node000009" class="edge">
<title>Node3&#45;&gt;Node9</title>
<g id="a_edge8_Node000003_Node000009"><a xlink:title=" ">
<path fill="none" stroke="#63b8ff" d="M342.33,-55.59C333.52,-47.93 320.87,-36.91 310.35,-27.75"/>
<polygon fill="#63b8ff" stroke="#63b8ff" points="312.78,-25.22 302.94,-21.29 308.18,-30.5 312.78,-25.22"/>
</a>
</g>
</g>
<!-- Node10 -->
<g id="Node000010" class="node">
<title>Node10</title>
<g id="a_Node000010"><a xlink:title=" ">
<polygon fill="#e0e0e0" stroke="#999999" points="706.12,-20 666.12,-20 666.12,0 706.12,0 706.12,-20"/>
<text xml:space="preserve" text-anchor="middle" x="686.12" y="-6.5" font-family="Helvetica,sans-Serif" font-size="10.00">string</text>
</a>
</g>
</g>
<!-- Node3&#45;&gt;Node10 -->
<g id="edge9_Node000003_Node000010" class="edge">
<title>Node3&#45;&gt;Node10</title>
<g id="a_edge9_Node000003_Node000010"><a xlink:title=" ">
<path fill="none" stroke="#63b8ff" d="M419.49,-58.16C478.91,-51.36 568.51,-39.45 654.61,-20.29"/>
<polygon fill="#63b8ff" stroke="#63b8ff" points="655.18,-23.75 664.16,-18.12 653.63,-16.92 655.18,-23.75"/>
</a>
</g>
</g>
<!-- Node11 -->
<g id="Node000011" class="node">
<title>Node11</title>
<g id="a_Node000011"><a xlink:title=" ">
<polygon fill="#e0e0e0" stroke="#999999" points="390.25,-20 336,-20 336,0 390.25,0 390.25,-20"/>
<text xml:space="preserve" text-anchor="middle" x="363.12" y="-6.5" font-family="Helvetica,sans-Serif" font-size="10.00">crtdefs.h</text>
</a>
</g>
</g>
<!-- Node3&#45;&gt;Node11 -->
<g id="edge10_Node000003_Node000011" class="edge">
<title>Node3&#45;&gt;Node11</title>
<g id="a_edge10_Node000003_Node000011"><a xlink:title=" ">
<path fill="none" stroke="#63b8ff" d="M354.87,-55.59C356.1,-48.93 357.8,-39.75 359.34,-31.44"/>
<polygon fill="#63b8ff" stroke="#63b8ff" points="362.75,-32.26 361.13,-21.79 355.87,-30.98 362.75,-32.26"/>
</a>
</g>
</g>
<!-- Node13 -->
<g id="Node000013" class="node">
<title>Node13</title>
<g id="a_Node000013"><a xlink:title=" ">
<polygon fill="#e0e0e0" stroke="#999999" points="51.38,-20 6.88,-20 6.88,0 51.38,0 51.38,-20"/>
<text xml:space="preserve" text-anchor="middle" x="29.12" y="-6.5" font-family="Helvetica,sans-Serif" font-size="10.00">cstdlib</text>
</a>
</g>
</g>
<!-- Node12&#45;&gt;Node13 -->
<g id="edge12_Node000012_Node000013" class="edge">
<title>Node12&#45;&gt;Node13</title>
<g id="a_edge12_Node000012_Node000013"><a xlink:title=" ">
<path fill="none" stroke="#63b8ff" d="M44.82,-55.59C42.45,-48.86 39.16,-39.53 36.22,-31.15"/>
<polygon fill="#63b8ff" stroke="#63b8ff" points="39.52,-30 32.9,-21.73 32.92,-32.32 39.52,-30"/>
</a>
</g>
</g>
<!-- Node16&#45;&gt;Node10 -->
<g id="edge16_Node000016_Node000010" class="edge">
<title>Node16&#45;&gt;Node10</title>
<g id="a_edge16_Node000016_Node000010"><a xlink:title=" ">
<path fill="none" stroke="#63b8ff" d="M406.23,-112.28C460.85,-92.51 594,-44.33 654.85,-22.32"/>
<polygon fill="#63b8ff" stroke="#63b8ff" points="656.04,-25.61 664.25,-18.91 653.66,-19.03 656.04,-25.61"/>
</a>
</g>
</g>
</g>
</svg>
