<?xml version="1.0" encoding="UTF-8" standalone="no"?>
<!DOCTYPE svg PUBLIC "-//W3C//DTD SVG 1.1//EN"
 "http://www.w3.org/Graphics/SVG/1.1/DTD/svg11.dtd">
<!-- Generated by graphviz version 13.1.0 (20250701.0955)
 -->
<!-- Title: Fiea::Engine::Content::Scope::GetOrderedDatums Pages: 1 -->
<svg width="471pt" height="90pt"
 viewBox="0.00 0.00 471.00 90.00" xmlns="http://www.w3.org/2000/svg" xmlns:xlink="http://www.w3.org/1999/xlink">
<g id="graph0" class="graph" transform="scale(1 1) rotate(0) translate(4 86)">
<title>Fiea::Engine::Content::Scope::GetOrderedDatums</title>
<!-- Node1 -->
<g id="Node000001" class="node">
<title>Node1</title>
<g id="a_Node000001"><a xlink:title=" ">
<polygon fill="#999999" stroke="#666666" points="462.75,-57 322.25,-57 322.25,-25 462.75,-25 462.75,-57"/>
<text xml:space="preserve" text-anchor="start" x="330.25" y="-43.5" font-family="Helvetica,sans-Serif" font-size="10.00">Fiea::Engine::Content</text>
<text xml:space="preserve" text-anchor="middle" x="392.5" y="-31.5" font-family="Helvetica,sans-Serif" font-size="10.00">::Scope::GetOrderedDatums</text>
</a>
</g>
</g>
<!-- Node2 -->
<g id="Node000002" class="node">
<title>Node2</title>
<g id="a_Node000002"><a xlink:href="class_fiea_1_1_engine_1_1_content_1_1_attributed.html#aded1b9bd135c50376071d3462cf83b75" target="_top" xlink:title="Retrieves all attribute names.">
<polygon fill="white" stroke="#666666" points="267.5,-82 155.5,-82 155.5,-50 267.5,-50 267.5,-82"/>
<text xml:space="preserve" text-anchor="start" x="163.5" y="-68.5" font-family="Helvetica,sans-Serif" font-size="10.00">Fiea::Engine::Content</text>
<text xml:space="preserve" text-anchor="middle" x="211.5" y="-56.5" font-family="Helvetica,sans-Serif" font-size="10.00">::Attributed::Attributes</text>
</a>
</g>
</g>
<!-- Node1&#45;&gt;Node2 -->
<g id="edge1_Node000001_Node000002" class="edge">
<title>Node1&#45;&gt;Node2</title>
<g id="a_edge1_Node000001_Node000002"><a xlink:title=" ">
<path fill="none" stroke="#63b8ff" d="M310.78,-52.27C296.29,-54.3 281.48,-56.37 267.91,-58.26"/>
<polygon fill="#63b8ff" stroke="#63b8ff" points="310.86,-55.8 320.28,-50.95 309.89,-48.86 310.86,-55.8"/>
</a>
</g>
</g>
<!-- Node5 -->
<g id="Node000005" class="node">
<title>Node5</title>
<g id="a_Node000005"><a xlink:href="class_fiea_1_1_engine_1_1_content_1_1_attributed.html#afb5756182b73d6326b8021f88ee51877" target="_top" xlink:title="Retrieves all instance attribute names.">
<polygon fill="white" stroke="#666666" points="286.25,-32 136.75,-32 136.75,0 286.25,0 286.25,-32"/>
<text xml:space="preserve" text-anchor="start" x="144.75" y="-18.5" font-family="Helvetica,sans-Serif" font-size="10.00">Fiea::Engine::Content</text>
<text xml:space="preserve" text-anchor="middle" x="211.5" y="-6.5" font-family="Helvetica,sans-Serif" font-size="10.00">::Attributed::InstanceAttributes</text>
</a>
</g>
</g>
<!-- Node1&#45;&gt;Node5 -->
<g id="edge4_Node000001_Node000005" class="edge">
<title>Node1&#45;&gt;Node5</title>
<g id="a_edge4_Node000001_Node000005"><a xlink:title=" ">
<path fill="none" stroke="#63b8ff" d="M310.53,-29.69C302.52,-28.57 294.41,-27.44 286.46,-26.33"/>
<polygon fill="#63b8ff" stroke="#63b8ff" points="309.89,-33.14 320.28,-31.05 310.86,-26.2 309.89,-33.14"/>
</a>
</g>
</g>
<!-- Node3 -->
<g id="Node000003" class="node">
<title>Node3</title>
<g id="a_Node000003"><a xlink:href="namespace_fiea_1_1_engine_1_1_tests.html#ad7d06bf277bf903f5dbc3982540b1563" target="_top" xlink:title=" ">
<polygon fill="white" stroke="#666666" points="100.75,-82 0,-82 0,-50 100.75,-50 100.75,-82"/>
<text xml:space="preserve" text-anchor="start" x="8" y="-68.5" font-family="Helvetica,sans-Serif" font-size="10.00">Fiea::Engine::Tests</text>
<text xml:space="preserve" text-anchor="middle" x="50.38" y="-56.5" font-family="Helvetica,sans-Serif" font-size="10.00">::TEST_CLASS</text>
</a>
</g>
</g>
<!-- Node2&#45;&gt;Node3 -->
<g id="edge2_Node000002_Node000003" class="edge">
<title>Node2&#45;&gt;Node3</title>
<g id="a_edge2_Node000002_Node000003"><a xlink:title=" ">
<path fill="none" stroke="#63b8ff" d="M143.96,-66C129.63,-66 114.72,-66 101.16,-66"/>
<polygon fill="#63b8ff" stroke="#63b8ff" points="143.78,-69.5 153.78,-66 143.78,-62.5 143.78,-69.5"/>
</a>
</g>
</g>
<!-- Node4 -->
<g id="Node000004" class="node">
<title>Node4</title>
<g id="a_Node000004"><a xlink:href="namespace_fiea_1_1_engine_1_1_tests.html#a3cdcf27a81b8b07fd7e0f633fb413ca8" target="_top" xlink:title=" ">
<polygon fill="white" stroke="#666666" points="100.75,-32 0,-32 0,0 100.75,0 100.75,-32"/>
<text xml:space="preserve" text-anchor="start" x="8" y="-18.5" font-family="Helvetica,sans-Serif" font-size="10.00">Fiea::Engine::Tests</text>
<text xml:space="preserve" text-anchor="middle" x="50.38" y="-6.5" font-family="Helvetica,sans-Serif" font-size="10.00">::TEST_CLASS</text>
</a>
</g>
</g>
<!-- Node2&#45;&gt;Node4 -->
<g id="edge3_Node000002_Node000004" class="edge">
<title>Node2&#45;&gt;Node4</title>
<g id="a_edge3_Node000002_Node000004"><a xlink:title=" ">
<path fill="none" stroke="#63b8ff" d="M147.84,-46.31C132.34,-41.44 115.95,-36.29 101.16,-31.64"/>
<polygon fill="#63b8ff" stroke="#63b8ff" points="146.36,-49.52 156.95,-49.17 148.46,-42.84 146.36,-49.52"/>
</a>
</g>
</g>
<!-- Node5&#45;&gt;Node3 -->
<g id="edge5_Node000005_Node000003" class="edge">
<title>Node5&#45;&gt;Node3</title>
<g id="a_edge5_Node000005_Node000003"><a xlink:title=" ">
<path fill="none" stroke="#63b8ff" d="M147.84,-35.69C132.34,-40.56 115.95,-45.71 101.16,-50.36"/>
<polygon fill="#63b8ff" stroke="#63b8ff" points="148.46,-39.16 156.95,-32.83 146.36,-32.48 148.46,-39.16"/>
</a>
</g>
</g>
<!-- Node5&#45;&gt;Node4 -->
<g id="edge6_Node000005_Node000004" class="edge">
<title>Node5&#45;&gt;Node4</title>
<g id="a_edge6_Node000005_Node000004"><a xlink:title=" ">
<path fill="none" stroke="#63b8ff" d="M125.25,-16C116.99,-16 108.82,-16 101.08,-16"/>
<polygon fill="#63b8ff" stroke="#63b8ff" points="125.01,-19.5 135.01,-16 125.01,-12.5 125.01,-19.5"/>
</a>
</g>
</g>
</g>
</svg>
