<?xml version="1.0" encoding="UTF-8" standalone="no"?>
<!DOCTYPE svg PUBLIC "-//W3C//DTD SVG 1.1//EN"
 "http://www.w3.org/Graphics/SVG/1.1/DTD/svg11.dtd">
<!-- Generated by graphviz version 13.1.0 (20250701.0955)
 -->
<!-- Title: Fiea::Engine::Content::IntHandler::EnterKey Pages: 1 -->
<svg width="457pt" height="150pt"
 viewBox="0.00 0.00 457.00 150.00" xmlns="http://www.w3.org/2000/svg" xmlns:xlink="http://www.w3.org/1999/xlink">
<g id="graph0" class="graph" transform="scale(1 1) rotate(0) translate(4 146)">
<title>Fiea::Engine::Content::IntHandler::EnterKey</title>
<!-- Node1 -->
<g id="Node000001" class="node">
<title>Node1</title>
<g id="a_Node000001"><a xlink:title=" ">
<polygon fill="#999999" stroke="#666666" points="113.5,-82 0,-82 0,-50 113.5,-50 113.5,-82"/>
<text xml:space="preserve" text-anchor="start" x="8" y="-68.5" font-family="Helvetica,sans-Serif" font-size="10.00">Fiea::Engine::Content</text>
<text xml:space="preserve" text-anchor="middle" x="56.75" y="-56.5" font-family="Helvetica,sans-Serif" font-size="10.00">::IntHandler::EnterKey</text>
</a>
</g>
</g>
<!-- Node2 -->
<g id="Node000002" class="node">
<title>Node2</title>
<g id="a_Node000002"><a xlink:href="class_fiea_1_1_engine_1_1_r_t_t_i.html#a15bd5993c8ad04da47af440298ebbb30" target="_top" xlink:title=" ">
<polygon fill="white" stroke="#666666" points="283.25,-120 166.75,-120 166.75,-100 283.25,-100 283.25,-120"/>
<text xml:space="preserve" text-anchor="middle" x="225" y="-106.5" font-family="Helvetica,sans-Serif" font-size="10.00">Fiea::Engine::RTTI::As</text>
</a>
</g>
</g>
<!-- Node1&#45;&gt;Node2 -->
<g id="edge1_Node000001_Node000002" class="edge">
<title>Node1&#45;&gt;Node2</title>
<g id="a_edge1_Node000001_Node000002"><a xlink:title=" ">
<path fill="none" stroke="#63b8ff" d="M114,-81.48C125.72,-84.66 138.01,-87.97 149.5,-91 156.61,-92.88 164.12,-94.83 171.51,-96.73"/>
<polygon fill="#63b8ff" stroke="#63b8ff" points="170.57,-100.1 181.13,-99.19 172.31,-93.32 170.57,-100.1"/>
</a>
</g>
</g>
<!-- Node5 -->
<g id="Node000005" class="node">
<title>Node5</title>
<g id="a_Node000005"><a xlink:href="class_fiea_1_1_engine_1_1_content_1_1_test_writer.html#aab4e478fe3946e8305fb66445654dd94" target="_top" xlink:title=" ">
<polygon fill="white" stroke="#666666" points="300.5,-82 149.5,-82 149.5,-50 300.5,-50 300.5,-82"/>
<text xml:space="preserve" text-anchor="start" x="157.5" y="-68.5" font-family="Helvetica,sans-Serif" font-size="10.00">Fiea::Engine::Content</text>
<text xml:space="preserve" text-anchor="middle" x="225" y="-56.5" font-family="Helvetica,sans-Serif" font-size="10.00">::TestWriter::CheckIfValidArray</text>
</a>
</g>
</g>
<!-- Node1&#45;&gt;Node5 -->
<g id="edge4_Node000001_Node000005" class="edge">
<title>Node1&#45;&gt;Node5</title>
<g id="a_edge4_Node000001_Node000005"><a xlink:title=" ">
<path fill="none" stroke="#63b8ff" d="M113.57,-66C121.42,-66 129.63,-66 137.88,-66"/>
<polygon fill="#63b8ff" stroke="#63b8ff" points="137.62,-69.5 147.62,-66 137.62,-62.5 137.62,-69.5"/>
</a>
</g>
</g>
<!-- Node6 -->
<g id="Node000006" class="node">
<title>Node6</title>
<g id="a_Node000006"><a xlink:href="class_fiea_1_1_engine_1_1_content_1_1_test_writer.html#ab7a4c64374bc489a3184203eb2e5d770" target="_top" xlink:title=" ">
<polygon fill="white" stroke="#666666" points="282.5,-32 167.5,-32 167.5,0 282.5,0 282.5,-32"/>
<text xml:space="preserve" text-anchor="start" x="175.5" y="-18.5" font-family="Helvetica,sans-Serif" font-size="10.00">Fiea::Engine::Content</text>
<text xml:space="preserve" text-anchor="middle" x="225" y="-6.5" font-family="Helvetica,sans-Serif" font-size="10.00">::TestWriter::RecordInt</text>
</a>
</g>
</g>
<!-- Node1&#45;&gt;Node6 -->
<g id="edge5_Node000001_Node000006" class="edge">
<title>Node1&#45;&gt;Node6</title>
<g id="a_edge5_Node000001_Node000006"><a xlink:title=" ">
<path fill="none" stroke="#63b8ff" d="M112.19,-49.63C126.89,-45.2 142.97,-40.37 158.22,-35.78"/>
<polygon fill="#63b8ff" stroke="#63b8ff" points="159.14,-39.16 167.71,-32.93 157.12,-32.46 159.14,-39.16"/>
</a>
</g>
</g>
<!-- Node3 -->
<g id="Node000003" class="node">
<title>Node3</title>
<g id="a_Node000003"><a xlink:href="class_fiea_1_1_engine_1_1_r_t_t_i.html#ac0a7d875e4513b2aca7594abcd4418ef" target="_top" xlink:title=" ">
<polygon fill="white" stroke="#666666" points="449.25,-142 336.5,-142 336.5,-122 449.25,-122 449.25,-142"/>
<text xml:space="preserve" text-anchor="middle" x="392.88" y="-128.5" font-family="Helvetica,sans-Serif" font-size="10.00">Fiea::Engine::RTTI::Is</text>
</a>
</g>
</g>
<!-- Node2&#45;&gt;Node3 -->
<g id="edge2_Node000002_Node000003" class="edge">
<title>Node2&#45;&gt;Node3</title>
<g id="a_edge2_Node000002_Node000003"><a xlink:title=" ">
<path fill="none" stroke="#63b8ff" d="M283.55,-117.63C296.85,-119.4 311.12,-121.29 324.8,-123.1"/>
<polygon fill="#63b8ff" stroke="#63b8ff" points="324.23,-126.56 334.61,-124.4 325.15,-119.62 324.23,-126.56"/>
</a>
</g>
</g>
<!-- Node4 -->
<g id="Node000004" class="node">
<title>Node4</title>
<g id="a_Node000004"><a xlink:href="class_fiea_1_1_engine_1_1_r_t_t_i.html#a13000029a2e6cced30b831e466e07cae" target="_top" xlink:title=" ">
<polygon fill="white" stroke="#666666" points="442.12,-104 343.62,-104 343.62,-72 442.12,-72 442.12,-104"/>
<text xml:space="preserve" text-anchor="start" x="351.62" y="-90.5" font-family="Helvetica,sans-Serif" font-size="10.00">Fiea::Engine::RTTI</text>
<text xml:space="preserve" text-anchor="middle" x="392.88" y="-78.5" font-family="Helvetica,sans-Serif" font-size="10.00">::RTTI</text>
</a>
</g>
</g>
<!-- Node2&#45;&gt;Node4 -->
<g id="edge3_Node000002_Node000004" class="edge">
<title>Node2&#45;&gt;Node4</title>
<g id="a_edge3_Node000002_Node000004"><a xlink:title=" ">
<path fill="none" stroke="#63b8ff" d="M283.55,-102.37C299.21,-100.29 316.21,-98.04 332,-95.94"/>
<polygon fill="#63b8ff" stroke="#63b8ff" points="332.29,-99.43 341.74,-94.65 331.37,-92.49 332.29,-99.43"/>
</a>
</g>
</g>
<!-- Node7 -->
<g id="Node000007" class="node">
<title>Node7</title>
<g id="a_Node000007"><a xlink:href="class_fiea_1_1_engine_1_1_content_1_1_parse_writer.html#aa155c5b78668071847272e16c2ec28cb" target="_top" xlink:title=" ">
<polygon fill="white" stroke="#666666" points="448.5,-32 337.25,-32 337.25,0 448.5,0 448.5,-32"/>
<text xml:space="preserve" text-anchor="start" x="345.25" y="-18.5" font-family="Helvetica,sans-Serif" font-size="10.00">Fiea::Engine::Content</text>
<text xml:space="preserve" text-anchor="middle" x="392.88" y="-6.5" font-family="Helvetica,sans-Serif" font-size="10.00">::ParseWriter::Depth</text>
</a>
</g>
</g>
<!-- Node6&#45;&gt;Node7 -->
<g id="edge6_Node000006_Node000007" class="edge">
<title>Node6&#45;&gt;Node7</title>
<g id="a_edge6_Node000006_Node000007"><a xlink:title=" ">
<path fill="none" stroke="#63b8ff" d="M282.62,-16C296.47,-16 311.41,-16 325.66,-16"/>
<polygon fill="#63b8ff" stroke="#63b8ff" points="325.4,-19.5 335.4,-16 325.4,-12.5 325.4,-19.5"/>
</a>
</g>
</g>
</g>
</svg>
