<?xml version="1.0" encoding="UTF-8" standalone="no"?>
<!DOCTYPE svg PUBLIC "-//W3C//DTD SVG 1.1//EN"
 "http://www.w3.org/Graphics/SVG/1.1/DTD/svg11.dtd">
<!-- Generated by graphviz version 13.1.0 (20250701.0955)
 -->
<!-- Title: Fiea::Engine::Actions::ActionPreamble::ActionPreamble Pages: 1 -->
<svg width="971pt" height="220pt"
 viewBox="0.00 0.00 971.00 220.00" xmlns="http://www.w3.org/2000/svg" xmlns:xlink="http://www.w3.org/1999/xlink">
<g id="graph0" class="graph" transform="scale(1 1) rotate(0) translate(4 216)">
<title>Fiea::Engine::Actions::ActionPreamble::ActionPreamble</title>
<!-- Node1 -->
<g id="Node000001" class="node">
<title>Node1</title>
<g id="a_Node000001"><a xlink:title=" ">
<polygon fill="#999999" stroke="#666666" points="166,-148 0,-148 0,-116 166,-116 166,-148"/>
<text xml:space="preserve" text-anchor="start" x="8" y="-134.5" font-family="Helvetica,sans-Serif" font-size="10.00">Fiea::Engine::Actions</text>
<text xml:space="preserve" text-anchor="middle" x="83" y="-122.5" font-family="Helvetica,sans-Serif" font-size="10.00">::ActionPreamble::ActionPreamble</text>
</a>
</g>
</g>
<!-- Node2 -->
<g id="Node000002" class="node">
<title>Node2</title>
<g id="a_Node000002"><a xlink:href="class_fiea_1_1_engine_1_1_actions_1_1_action_preamble.html#a02969f8cad405cff403d11cb1d950b3b" target="_top" xlink:title=" ">
<polygon fill="white" stroke="#666666" points="368,-148 202,-148 202,-116 368,-116 368,-148"/>
<text xml:space="preserve" text-anchor="start" x="210" y="-134.5" font-family="Helvetica,sans-Serif" font-size="10.00">Fiea::Engine::Actions</text>
<text xml:space="preserve" text-anchor="middle" x="285" y="-122.5" font-family="Helvetica,sans-Serif" font-size="10.00">::ActionPreamble::ActionPreamble</text>
</a>
</g>
</g>
<!-- Node1&#45;&gt;Node2 -->
<g id="edge1_Node000001_Node000002" class="edge">
<title>Node1&#45;&gt;Node2</title>
<g id="a_edge1_Node000001_Node000002"><a xlink:title=" ">
<path fill="none" stroke="#63b8ff" d="M166.21,-132C174.2,-132 182.33,-132 190.42,-132"/>
<polygon fill="#63b8ff" stroke="#63b8ff" points="190.27,-135.5 200.27,-132 190.27,-128.5 190.27,-135.5"/>
</a>
</g>
</g>
<!-- Node3 -->
<g id="Node000003" class="node">
<title>Node3</title>
<g id="a_Node000003"><a xlink:href="class_fiea_1_1_engine_1_1_actions_1_1_action.html#ae2af386f7122152003b00da79393e19e" target="_top" xlink:title=" ">
<polygon fill="white" stroke="#666666" points="513.75,-170 404,-170 404,-138 513.75,-138 513.75,-170"/>
<text xml:space="preserve" text-anchor="start" x="412" y="-156.5" font-family="Helvetica,sans-Serif" font-size="10.00">Fiea::Engine::Actions</text>
<text xml:space="preserve" text-anchor="middle" x="458.88" y="-144.5" font-family="Helvetica,sans-Serif" font-size="10.00">::Action::Action</text>
</a>
</g>
</g>
<!-- Node2&#45;&gt;Node3 -->
<g id="edge2_Node000002_Node000003" class="edge">
<title>Node2&#45;&gt;Node3</title>
<g id="a_edge2_Node000002_Node000003"><a xlink:title=" ">
<path fill="none" stroke="#63b8ff" d="M368.41,-142.55C376.52,-143.59 384.66,-144.63 392.56,-145.64"/>
<polygon fill="#63b8ff" stroke="#63b8ff" points="392.06,-149.1 402.42,-146.9 392.95,-142.16 392.06,-149.1"/>
</a>
</g>
</g>
<!-- Node5 -->
<g id="Node000005" class="node">
<title>Node5</title>
<g id="a_Node000005"><a xlink:href="class_fiea_1_1_engine_1_1_r_t_t_i.html#a876bebbe7b3149483c43a87f55f4ea99" target="_top" xlink:title=" ">
<polygon fill="white" stroke="#666666" points="655,-126 556.5,-126 556.5,-94 655,-94 655,-126"/>
<text xml:space="preserve" text-anchor="start" x="564.5" y="-112.5" font-family="Helvetica,sans-Serif" font-size="10.00">Fiea::Engine::RTTI</text>
<text xml:space="preserve" text-anchor="middle" x="605.75" y="-100.5" font-family="Helvetica,sans-Serif" font-size="10.00">::TypeIdInstance</text>
</a>
</g>
</g>
<!-- Node2&#45;&gt;Node5 -->
<g id="edge15_Node000002_Node000005" class="edge">
<title>Node2&#45;&gt;Node5</title>
<g id="a_edge15_Node000002_Node000005"><a xlink:title=" ">
<path fill="none" stroke="#63b8ff" d="M368.09,-126.33C423.36,-122.52 495,-117.57 544.92,-114.13"/>
<polygon fill="#63b8ff" stroke="#63b8ff" points="544.92,-117.64 554.66,-113.46 544.44,-110.65 544.92,-117.64"/>
</a>
</g>
</g>
<!-- Node4 -->
<g id="Node000004" class="node">
<title>Node4</title>
<g id="a_Node000004"><a xlink:href="class_fiea_1_1_engine_1_1_content_1_1_attributed.html#ad1ae014235d9d8b62b36066c94164148" target="_top" xlink:title=" ">
<polygon fill="white" stroke="#666666" points="661.75,-194 549.75,-194 549.75,-162 661.75,-162 661.75,-194"/>
<text xml:space="preserve" text-anchor="start" x="557.75" y="-180.5" font-family="Helvetica,sans-Serif" font-size="10.00">Fiea::Engine::Content</text>
<text xml:space="preserve" text-anchor="middle" x="605.75" y="-168.5" font-family="Helvetica,sans-Serif" font-size="10.00">::Attributed::Attributed</text>
</a>
</g>
</g>
<!-- Node3&#45;&gt;Node4 -->
<g id="edge3_Node000003_Node000004" class="edge">
<title>Node3&#45;&gt;Node4</title>
<g id="a_edge3_Node000003_Node000004"><a xlink:title=" ">
<path fill="none" stroke="#63b8ff" d="M514.23,-163C522.09,-164.31 530.25,-165.66 538.32,-166.99"/>
<polygon fill="#63b8ff" stroke="#63b8ff" points="537.67,-170.44 548.11,-168.62 538.82,-163.53 537.67,-170.44"/>
</a>
</g>
</g>
<!-- Node3&#45;&gt;Node5 -->
<g id="edge5_Node000003_Node000005" class="edge">
<title>Node3&#45;&gt;Node5</title>
<g id="a_edge5_Node000003_Node000005"><a xlink:title=" ">
<path fill="none" stroke="#63b8ff" d="M513.82,-137.62C524.09,-134.5 534.89,-131.22 545.32,-128.05"/>
<polygon fill="#63b8ff" stroke="#63b8ff" points="546.02,-131.5 554.57,-125.24 543.98,-124.8 546.02,-131.5"/>
</a>
</g>
</g>
<!-- Node4&#45;&gt;Node4 -->
<g id="edge4_Node000004_Node000004" class="edge">
<title>Node4&#45;&gt;Node4</title>
<g id="a_edge4_Node000004_Node000004"><a xlink:title=" ">
<path fill="none" stroke="#63b8ff" d="M579.53,-194.44C574.63,-203.58 583.37,-212 605.75,-212 617.99,-212 626.15,-209.48 630.23,-205.71"/>
<polygon fill="#63b8ff" stroke="#63b8ff" points="633.67,-206.36 631.74,-195.94 626.75,-205.28 633.67,-206.36"/>
</a>
</g>
</g>
<!-- Node5&#45;&gt;Node5 -->
<g id="edge14_Node000005_Node000005" class="edge">
<title>Node5&#45;&gt;Node5</title>
<g id="a_edge14_Node000005_Node000005"><a xlink:title=" ">
<path fill="none" stroke="#63b8ff" d="M579.53,-126.44C574.63,-135.58 583.37,-144 605.75,-144 617.99,-144 626.15,-141.48 630.23,-137.71"/>
<polygon fill="#63b8ff" stroke="#63b8ff" points="633.67,-138.36 631.74,-127.94 626.75,-137.28 633.67,-138.36"/>
</a>
</g>
</g>
<!-- Node6 -->
<g id="Node000006" class="node">
<title>Node6</title>
<g id="a_Node000006"><a xlink:href="class_fiea_1_1_engine_1_1_r_t_t_i.html#a15bd5993c8ad04da47af440298ebbb30" target="_top" xlink:title=" ">
<polygon fill="white" stroke="#666666" points="814.25,-158 697.75,-158 697.75,-138 814.25,-138 814.25,-158"/>
<text xml:space="preserve" text-anchor="middle" x="756" y="-144.5" font-family="Helvetica,sans-Serif" font-size="10.00">Fiea::Engine::RTTI::As</text>
</a>
</g>
</g>
<!-- Node5&#45;&gt;Node6 -->
<g id="edge6_Node000005_Node000006" class="edge">
<title>Node5&#45;&gt;Node6</title>
<g id="a_edge6_Node000005_Node000006"><a xlink:title=" ">
<path fill="none" stroke="#63b8ff" d="M655.29,-122.44C670.65,-126.38 687.68,-130.74 703.25,-134.74"/>
<polygon fill="#63b8ff" stroke="#63b8ff" points="702.27,-138.1 712.82,-137.19 704,-131.32 702.27,-138.1"/>
</a>
</g>
</g>
<!-- Node7 -->
<g id="Node000007" class="node">
<title>Node7</title>
<g id="a_Node000007"><a xlink:href="class_fiea_1_1_engine_1_1_r_t_t_i.html#ac0a7d875e4513b2aca7594abcd4418ef" target="_top" xlink:title=" ">
<polygon fill="white" stroke="#666666" points="963,-180 850.25,-180 850.25,-160 963,-160 963,-180"/>
<text xml:space="preserve" text-anchor="middle" x="906.62" y="-166.5" font-family="Helvetica,sans-Serif" font-size="10.00">Fiea::Engine::RTTI::Is</text>
</a>
</g>
</g>
<!-- Node5&#45;&gt;Node7 -->
<g id="edge11_Node000005_Node000007" class="edge">
<title>Node5&#45;&gt;Node7</title>
<g id="a_edge11_Node000005_Node000007"><a xlink:title=" ">
<path fill="none" stroke="#63b8ff" d="M625.8,-126.34C643.23,-140.14 670.39,-158.93 697.75,-167 743.47,-180.5 797.35,-180.86 838.8,-178.06"/>
<polygon fill="#63b8ff" stroke="#63b8ff" points="838.93,-181.56 848.63,-177.31 838.39,-174.58 838.93,-181.56"/>
</a>
</g>
</g>
<!-- Node8 -->
<g id="Node000008" class="node">
<title>Node8</title>
<g id="a_Node000008"><a xlink:href="class_fiea_1_1_engine_1_1_r_t_t_i.html#a13000029a2e6cced30b831e466e07cae" target="_top" xlink:title=" ">
<polygon fill="white" stroke="#666666" points="955.88,-126 857.38,-126 857.38,-94 955.88,-94 955.88,-126"/>
<text xml:space="preserve" text-anchor="start" x="865.38" y="-112.5" font-family="Helvetica,sans-Serif" font-size="10.00">Fiea::Engine::RTTI</text>
<text xml:space="preserve" text-anchor="middle" x="906.62" y="-100.5" font-family="Helvetica,sans-Serif" font-size="10.00">::RTTI</text>
</a>
</g>
</g>
<!-- Node5&#45;&gt;Node8 -->
<g id="edge12_Node000005_Node000008" class="edge">
<title>Node5&#45;&gt;Node8</title>
<g id="a_edge12_Node000005_Node000008"><a xlink:title=" ">
<path fill="none" stroke="#63b8ff" d="M655.43,-110C707.32,-110 789.54,-110 845.45,-110"/>
<polygon fill="#63b8ff" stroke="#63b8ff" points="845.45,-113.5 855.45,-110 845.45,-106.5 845.45,-113.5"/>
</a>
</g>
</g>
<!-- Node9 -->
<g id="Node000009" class="node">
<title>Node9</title>
<g id="a_Node000009"><a xlink:href="class_fiea_1_1_engine_1_1_r_t_t_i.html#a7f70ad5ba0f8a3388543d63d72892575" target="_top" xlink:title=" ">
<polygon fill="white" stroke="#666666" points="805.25,-82 706.75,-82 706.75,-50 805.25,-50 805.25,-82"/>
<text xml:space="preserve" text-anchor="start" x="714.75" y="-68.5" font-family="Helvetica,sans-Serif" font-size="10.00">Fiea::Engine::RTTI</text>
<text xml:space="preserve" text-anchor="middle" x="756" y="-56.5" font-family="Helvetica,sans-Serif" font-size="10.00">::Equals</text>
</a>
</g>
</g>
<!-- Node5&#45;&gt;Node9 -->
<g id="edge9_Node000005_Node000009" class="edge">
<title>Node5&#45;&gt;Node9</title>
<g id="a_edge9_Node000005_Node000009"><a xlink:title=" ">
<path fill="none" stroke="#63b8ff" d="M655.29,-95.59C668.09,-91.79 682.05,-87.65 695.36,-83.7"/>
<polygon fill="#63b8ff" stroke="#63b8ff" points="696.31,-87.07 704.9,-80.87 694.31,-80.36 696.31,-87.07"/>
</a>
</g>
</g>
<!-- Node10 -->
<g id="Node000010" class="node">
<title>Node10</title>
<g id="a_Node000010"><a xlink:href="class_fiea_1_1_engine_1_1_r_t_t_i.html#a43a7d187e332a17d2c699bc2c8136a30" target="_top" xlink:title=" ">
<polygon fill="white" stroke="#666666" points="805.25,-32 706.75,-32 706.75,0 805.25,0 805.25,-32"/>
<text xml:space="preserve" text-anchor="start" x="714.75" y="-18.5" font-family="Helvetica,sans-Serif" font-size="10.00">Fiea::Engine::RTTI</text>
<text xml:space="preserve" text-anchor="middle" x="756" y="-6.5" font-family="Helvetica,sans-Serif" font-size="10.00">::ToString</text>
</a>
</g>
</g>
<!-- Node5&#45;&gt;Node10 -->
<g id="edge13_Node000005_Node000010" class="edge">
<title>Node5&#45;&gt;Node10</title>
<g id="a_edge13_Node000005_Node000010"><a xlink:title=" ">
<path fill="none" stroke="#63b8ff" d="M625.69,-93.51C643.47,-78.56 671.24,-56.54 697.75,-41 699.76,-39.82 701.84,-38.66 703.95,-37.53"/>
<polygon fill="#63b8ff" stroke="#63b8ff" points="705.34,-40.75 712.71,-33.13 702.2,-34.5 705.34,-40.75"/>
</a>
</g>
</g>
<!-- Node6&#45;&gt;Node7 -->
<g id="edge7_Node000006_Node000007" class="edge">
<title>Node6&#45;&gt;Node7</title>
<g id="a_edge7_Node000006_Node000007"><a xlink:title=" ">
<path fill="none" stroke="#63b8ff" d="M814.46,-156.51C822.35,-157.67 830.5,-158.88 838.53,-160.07"/>
<polygon fill="#63b8ff" stroke="#63b8ff" points="837.88,-163.51 848.28,-161.51 838.91,-156.59 837.88,-163.51"/>
</a>
</g>
</g>
<!-- Node6&#45;&gt;Node8 -->
<g id="edge8_Node000006_Node000008" class="edge">
<title>Node6&#45;&gt;Node8</title>
<g id="a_edge8_Node000006_Node000008"><a xlink:title=" ">
<path fill="none" stroke="#63b8ff" d="M798.01,-137.52C812.88,-133.71 829.99,-129.34 846.13,-125.21"/>
<polygon fill="#63b8ff" stroke="#63b8ff" points="846.82,-128.65 855.64,-122.78 845.09,-121.87 846.82,-128.65"/>
</a>
</g>
</g>
<!-- Node9&#45;&gt;Node8 -->
<g id="edge10_Node000009_Node000008" class="edge">
<title>Node9&#45;&gt;Node8</title>
<g id="a_edge10_Node000009_Node000008"><a xlink:title=" ">
<path fill="none" stroke="#63b8ff" d="M805.67,-80.41C818.69,-84.26 832.92,-88.47 846.44,-92.48"/>
<polygon fill="#63b8ff" stroke="#63b8ff" points="845.07,-95.72 855.65,-95.21 847.06,-89.01 845.07,-95.72"/>
</a>
</g>
</g>
</g>
</svg>
