<?xml version="1.0" encoding="UTF-8" standalone="no"?>
<!DOCTYPE svg PUBLIC "-//W3C//DTD SVG 1.1//EN"
 "http://www.w3.org/Graphics/SVG/1.1/DTD/svg11.dtd">
<!-- Generated by graphviz version 13.1.0 (20250701.0955)
 -->
<!-- Title: Fiea::Engine::Content::PrimitiveTypeHandler::EnterKey Pages: 1 -->
<svg width="788pt" height="366pt"
 viewBox="0.00 0.00 788.00 366.00" xmlns="http://www.w3.org/2000/svg" xmlns:xlink="http://www.w3.org/1999/xlink">
<g id="graph0" class="graph" transform="scale(1 1) rotate(0) translate(4 362)">
<title>Fiea::Engine::Content::PrimitiveTypeHandler::EnterKey</title>
<!-- Node1 -->
<g id="Node000001" class="node">
<title>Node1</title>
<g id="a_Node000001"><a xlink:title=" ">
<polygon fill="#999999" stroke="#666666" points="115,-151 0,-151 0,-107 115,-107 115,-151"/>
<text xml:space="preserve" text-anchor="start" x="8" y="-137.5" font-family="Helvetica,sans-Serif" font-size="10.00">Fiea::Engine::Content</text>
<text xml:space="preserve" text-anchor="start" x="8" y="-125.5" font-family="Helvetica,sans-Serif" font-size="10.00">::PrimitiveTypeHandler</text>
<text xml:space="preserve" text-anchor="middle" x="57.5" y="-113.5" font-family="Helvetica,sans-Serif" font-size="10.00">::EnterKey</text>
</a>
</g>
</g>
<!-- Node2 -->
<g id="Node000002" class="node">
<title>Node2</title>
<g id="a_Node000002"><a xlink:href="class_fiea_1_1_engine_1_1_content_1_1_scope_writer.html#a028f763e7b7c95ba5d53fb121a832583" target="_top" xlink:title=" ">
<polygon fill="white" stroke="#666666" points="308.75,-214 151,-214 151,-182 308.75,-182 308.75,-214"/>
<text xml:space="preserve" text-anchor="start" x="159" y="-200.5" font-family="Helvetica,sans-Serif" font-size="10.00">Fiea::Engine::Content</text>
<text xml:space="preserve" text-anchor="middle" x="229.88" y="-188.5" font-family="Helvetica,sans-Serif" font-size="10.00">::ScopeWriter::AddPrimitiveType</text>
</a>
</g>
</g>
<!-- Node1&#45;&gt;Node2 -->
<g id="edge1_Node000001_Node000002" class="edge">
<title>Node1&#45;&gt;Node2</title>
<g id="a_edge1_Node000001_Node000002"><a xlink:title=" ">
<path fill="none" stroke="#63b8ff" d="M113.82,-151.4C134.32,-159.71 157.48,-169.08 177.61,-177.24"/>
<polygon fill="#63b8ff" stroke="#63b8ff" points="176.15,-180.42 186.73,-180.93 178.78,-173.94 176.15,-180.42"/>
</a>
</g>
</g>
<!-- Node11 -->
<g id="Node000011" class="node">
<title>Node11</title>
<g id="a_Node000011"><a xlink:href="class_fiea_1_1_engine_1_1_r_t_t_i.html#a15bd5993c8ad04da47af440298ebbb30" target="_top" xlink:title=" ">
<polygon fill="white" stroke="#666666" points="288.12,-70 171.62,-70 171.62,-50 288.12,-50 288.12,-70"/>
<text xml:space="preserve" text-anchor="middle" x="229.88" y="-56.5" font-family="Helvetica,sans-Serif" font-size="10.00">Fiea::Engine::RTTI::As</text>
</a>
</g>
</g>
<!-- Node1&#45;&gt;Node11 -->
<g id="edge13_Node000001_Node000011" class="edge">
<title>Node1&#45;&gt;Node11</title>
<g id="a_edge13_Node000001_Node000011"><a xlink:title=" ">
<path fill="none" stroke="#63b8ff" d="M113.82,-106.6C139.7,-96.11 169.8,-83.92 192.72,-74.64"/>
<polygon fill="#63b8ff" stroke="#63b8ff" points="193.99,-77.91 201.94,-70.91 191.36,-71.42 193.99,-77.91"/>
</a>
</g>
</g>
<!-- Node3 -->
<g id="Node000003" class="node">
<title>Node3</title>
<g id="a_Node000003"><a xlink:href="class_fiea_1_1_engine_1_1_content_1_1_scope.html#aa91d6470fd3d3f402bbb2e765be54455" target="_top" xlink:title="Appends a new Datum with the given key.">
<polygon fill="white" stroke="#666666" points="470.62,-358 359.38,-358 359.38,-326 470.62,-326 470.62,-358"/>
<text xml:space="preserve" text-anchor="start" x="367.38" y="-344.5" font-family="Helvetica,sans-Serif" font-size="10.00">Fiea::Engine::Content</text>
<text xml:space="preserve" text-anchor="middle" x="415" y="-332.5" font-family="Helvetica,sans-Serif" font-size="10.00">::Scope::Append</text>
</a>
</g>
</g>
<!-- Node2&#45;&gt;Node3 -->
<g id="edge2_Node000002_Node000003" class="edge">
<title>Node2&#45;&gt;Node3</title>
<g id="a_edge2_Node000002_Node000003"><a xlink:title=" ">
<path fill="none" stroke="#63b8ff" d="M242.37,-214.13C261.12,-239.38 300.65,-288.3 344.75,-317 346.6,-318.2 348.51,-319.36 350.47,-320.46"/>
<polygon fill="#63b8ff" stroke="#63b8ff" points="348.75,-323.51 359.25,-324.92 351.92,-317.27 348.75,-323.51"/>
</a>
</g>
</g>
<!-- Node4 -->
<g id="Node000004" class="node">
<title>Node4</title>
<g id="a_Node000004"><a xlink:href="class_fiea_1_1_engine_1_1_content_1_1_scope_writer.html#afcb6b54b66a06b4d43edbeb27a191cfa" target="_top" xlink:title=" ">
<polygon fill="white" stroke="#666666" points="485.25,-308 344.75,-308 344.75,-276 485.25,-276 485.25,-308"/>
<text xml:space="preserve" text-anchor="start" x="352.75" y="-294.5" font-family="Helvetica,sans-Serif" font-size="10.00">Fiea::Engine::Content</text>
<text xml:space="preserve" text-anchor="middle" x="415" y="-282.5" font-family="Helvetica,sans-Serif" font-size="10.00">::ScopeWriter::GetTopScope</text>
</a>
</g>
</g>
<!-- Node2&#45;&gt;Node4 -->
<g id="edge3_Node000002_Node000004" class="edge">
<title>Node2&#45;&gt;Node4</title>
<g id="a_edge3_Node000002_Node000004"><a xlink:title=" ">
<path fill="none" stroke="#63b8ff" d="M254.53,-214.25C277.04,-229.24 312.21,-251.46 344.75,-267 347.82,-268.47 351.01,-269.9 354.24,-271.29"/>
<polygon fill="#63b8ff" stroke="#63b8ff" points="352.72,-274.45 363.3,-275 355.37,-267.97 352.72,-274.45"/>
</a>
</g>
</g>
<!-- Node5 -->
<g id="Node000005" class="node">
<title>Node5</title>
<g id="a_Node000005"><a xlink:href="class_fiea_1_1_engine_1_1_content_1_1_datum.html#acb3ba55fc9b39b876cf3334d0305f4fc" target="_top" xlink:title=" ">
<polygon fill="white" stroke="#666666" points="470.62,-258 359.38,-258 359.38,-226 470.62,-226 470.62,-258"/>
<text xml:space="preserve" text-anchor="start" x="367.38" y="-244.5" font-family="Helvetica,sans-Serif" font-size="10.00">Fiea::Engine::Content</text>
<text xml:space="preserve" text-anchor="middle" x="415" y="-232.5" font-family="Helvetica,sans-Serif" font-size="10.00">::Datum::Push</text>
</a>
</g>
</g>
<!-- Node2&#45;&gt;Node5 -->
<g id="edge4_Node000002_Node000005" class="edge">
<title>Node2&#45;&gt;Node5</title>
<g id="a_edge4_Node000002_Node000005"><a xlink:title=" ">
<path fill="none" stroke="#63b8ff" d="M299.32,-214.45C315.34,-218.29 332.36,-222.38 348.25,-226.2"/>
<polygon fill="#63b8ff" stroke="#63b8ff" points="347.04,-229.51 357.58,-228.44 348.67,-222.7 347.04,-229.51"/>
</a>
</g>
</g>
<!-- Node8 -->
<g id="Node000008" class="node">
<title>Node8</title>
<g id="a_Node000008"><a xlink:href="class_fiea_1_1_engine_1_1_content_1_1_datum.html#af8ca5539cfa1034703824207a4368a04" target="_top" xlink:title=" ">
<polygon fill="white" stroke="#666666" points="632.5,-214 521.25,-214 521.25,-182 632.5,-182 632.5,-214"/>
<text xml:space="preserve" text-anchor="start" x="529.25" y="-200.5" font-family="Helvetica,sans-Serif" font-size="10.00">Fiea::Engine::Content</text>
<text xml:space="preserve" text-anchor="middle" x="576.88" y="-188.5" font-family="Helvetica,sans-Serif" font-size="10.00">::Datum::Set</text>
</a>
</g>
</g>
<!-- Node2&#45;&gt;Node8 -->
<g id="edge9_Node000002_Node000008" class="edge">
<title>Node2&#45;&gt;Node8</title>
<g id="a_edge9_Node000002_Node000008"><a xlink:title=" ">
<path fill="none" stroke="#63b8ff" d="M309.16,-198C369.61,-198 452.32,-198 509.54,-198"/>
<polygon fill="#63b8ff" stroke="#63b8ff" points="509.47,-201.5 519.47,-198 509.47,-194.5 509.47,-201.5"/>
</a>
</g>
</g>
<!-- Node9 -->
<g id="Node000009" class="node">
<title>Node9</title>
<g id="a_Node000009"><a xlink:href="class_fiea_1_1_engine_1_1_content_1_1_datum.html#a23d1f16d9646f024a5dee1f05dbd5a5e" target="_top" xlink:title=" ">
<polygon fill="white" stroke="#666666" points="470.62,-170 359.38,-170 359.38,-138 470.62,-138 470.62,-170"/>
<text xml:space="preserve" text-anchor="start" x="367.38" y="-156.5" font-family="Helvetica,sans-Serif" font-size="10.00">Fiea::Engine::Content</text>
<text xml:space="preserve" text-anchor="middle" x="415" y="-144.5" font-family="Helvetica,sans-Serif" font-size="10.00">::Datum::SetType</text>
</a>
</g>
</g>
<!-- Node2&#45;&gt;Node9 -->
<g id="edge11_Node000002_Node000009" class="edge">
<title>Node2&#45;&gt;Node9</title>
<g id="a_edge11_Node000002_Node000009"><a xlink:title=" ">
<path fill="none" stroke="#63b8ff" d="M299.32,-181.55C315.34,-177.71 332.36,-173.62 348.25,-169.8"/>
<polygon fill="#63b8ff" stroke="#63b8ff" points="348.67,-173.3 357.58,-167.56 347.04,-166.49 348.67,-173.3"/>
</a>
</g>
</g>
<!-- Node10 -->
<g id="Node000010" class="node">
<title>Node10</title>
<g id="a_Node000010"><a xlink:href="class_fiea_1_1_engine_1_1_content_1_1_datum.html#acae68c3bc8b20345e4c3790fa37bd8d5" target="_top" xlink:title=" ">
<polygon fill="white" stroke="#666666" points="470.62,-120 359.38,-120 359.38,-88 470.62,-88 470.62,-120"/>
<text xml:space="preserve" text-anchor="start" x="367.38" y="-106.5" font-family="Helvetica,sans-Serif" font-size="10.00">Fiea::Engine::Content</text>
<text xml:space="preserve" text-anchor="middle" x="415" y="-94.5" font-family="Helvetica,sans-Serif" font-size="10.00">::Datum::Size</text>
</a>
</g>
</g>
<!-- Node2&#45;&gt;Node10 -->
<g id="edge12_Node000002_Node000010" class="edge">
<title>Node2&#45;&gt;Node10</title>
<g id="a_edge12_Node000002_Node000010"><a xlink:title=" ">
<path fill="none" stroke="#63b8ff" d="M254.53,-181.75C277.04,-166.76 312.21,-144.54 344.75,-129 347.82,-127.53 351.01,-126.1 354.24,-124.71"/>
<polygon fill="#63b8ff" stroke="#63b8ff" points="355.37,-128.03 363.3,-121 352.72,-121.55 355.37,-128.03"/>
</a>
</g>
</g>
<!-- Node6 -->
<g id="Node000006" class="node">
<title>Node6</title>
<g id="a_Node000006"><a xlink:href="class_fiea_1_1_engine_1_1_content_1_1_datum.html#a818f812e4489e57885c88951bc0601b3" target="_top" xlink:title=" ">
<polygon fill="white" stroke="#666666" points="632.5,-302 521.25,-302 521.25,-270 632.5,-270 632.5,-302"/>
<text xml:space="preserve" text-anchor="start" x="529.25" y="-288.5" font-family="Helvetica,sans-Serif" font-size="10.00">Fiea::Engine::Content</text>
<text xml:space="preserve" text-anchor="middle" x="576.88" y="-276.5" font-family="Helvetica,sans-Serif" font-size="10.00">::Datum::ResizeArray</text>
</a>
</g>
</g>
<!-- Node5&#45;&gt;Node6 -->
<g id="edge5_Node000005_Node000006" class="edge">
<title>Node5&#45;&gt;Node6</title>
<g id="a_edge5_Node000005_Node000006"><a xlink:title=" ">
<path fill="none" stroke="#63b8ff" d="M471.02,-257.14C483.58,-260.6 497.05,-264.31 510.02,-267.87"/>
<polygon fill="#63b8ff" stroke="#63b8ff" points="508.72,-271.15 519.29,-270.43 510.58,-264.4 508.72,-271.15"/>
</a>
</g>
</g>
<!-- Node7 -->
<g id="Node000007" class="node">
<title>Node7</title>
<g id="a_Node000007"><a xlink:href="class_fiea_1_1_engine_1_1_content_1_1_datum.html#a921193447f6e42f596ac0a7694b02830" target="_top" xlink:title=" ">
<polygon fill="white" stroke="#666666" points="779.75,-258 668.5,-258 668.5,-226 779.75,-226 779.75,-258"/>
<text xml:space="preserve" text-anchor="start" x="676.5" y="-244.5" font-family="Helvetica,sans-Serif" font-size="10.00">Fiea::Engine::Content</text>
<text xml:space="preserve" text-anchor="middle" x="724.12" y="-232.5" font-family="Helvetica,sans-Serif" font-size="10.00">::Datum::Scope</text>
</a>
</g>
</g>
<!-- Node5&#45;&gt;Node7 -->
<g id="edge8_Node000005_Node000007" class="edge">
<title>Node5&#45;&gt;Node7</title>
<g id="a_edge8_Node000005_Node000007"><a xlink:title=" ">
<path fill="none" stroke="#63b8ff" d="M470.91,-242C522.94,-242 601.17,-242 656.69,-242"/>
<polygon fill="#63b8ff" stroke="#63b8ff" points="656.66,-245.5 666.66,-242 656.66,-238.5 656.66,-245.5"/>
</a>
</g>
</g>
<!-- Node6&#45;&gt;Node7 -->
<g id="edge6_Node000006_Node000007" class="edge">
<title>Node6&#45;&gt;Node7</title>
<g id="a_edge6_Node000006_Node000007"><a xlink:title=" ">
<path fill="none" stroke="#63b8ff" d="M631.96,-269.62C640.47,-267.04 649.34,-264.35 658.06,-261.71"/>
<polygon fill="#63b8ff" stroke="#63b8ff" points="658.99,-265.09 667.55,-258.84 656.96,-258.39 658.99,-265.09"/>
</a>
</g>
</g>
<!-- Node7&#45;&gt;Node7 -->
<g id="edge7_Node000007_Node000007" class="edge">
<title>Node7&#45;&gt;Node7</title>
<g id="a_edge7_Node000007_Node000007"><a xlink:title=" ">
<path fill="none" stroke="#63b8ff" d="M697.84,-258.44C692.93,-267.58 701.69,-276 724.12,-276 736.39,-276 744.57,-273.48 748.66,-269.71"/>
<polygon fill="#63b8ff" stroke="#63b8ff" points="752.1,-270.36 750.18,-259.94 745.19,-269.28 752.1,-270.36"/>
</a>
</g>
</g>
<!-- Node8&#45;&gt;Node7 -->
<g id="edge10_Node000008_Node000007" class="edge">
<title>Node8&#45;&gt;Node7</title>
<g id="a_edge10_Node000008_Node000007"><a xlink:title=" ">
<path fill="none" stroke="#63b8ff" d="M631.96,-214.38C640.47,-216.96 649.34,-219.65 658.06,-222.29"/>
<polygon fill="#63b8ff" stroke="#63b8ff" points="656.96,-225.61 667.55,-225.16 658.99,-218.91 656.96,-225.61"/>
</a>
</g>
</g>
<!-- Node12 -->
<g id="Node000012" class="node">
<title>Node12</title>
<g id="a_Node000012"><a xlink:href="class_fiea_1_1_engine_1_1_r_t_t_i.html#ac0a7d875e4513b2aca7594abcd4418ef" target="_top" xlink:title=" ">
<polygon fill="white" stroke="#666666" points="471.38,-70 358.62,-70 358.62,-50 471.38,-50 471.38,-70"/>
<text xml:space="preserve" text-anchor="middle" x="415" y="-56.5" font-family="Helvetica,sans-Serif" font-size="10.00">Fiea::Engine::RTTI::Is</text>
</a>
</g>
</g>
<!-- Node11&#45;&gt;Node12 -->
<g id="edge14_Node000011_Node000012" class="edge">
<title>Node11&#45;&gt;Node12</title>
<g id="a_edge14_Node000011_Node000012"><a xlink:title=" ">
<path fill="none" stroke="#63b8ff" d="M288.57,-60C307.06,-60 327.7,-60 346.81,-60"/>
<polygon fill="#63b8ff" stroke="#63b8ff" points="346.65,-63.5 356.65,-60 346.65,-56.5 346.65,-63.5"/>
</a>
</g>
</g>
<!-- Node13 -->
<g id="Node000013" class="node">
<title>Node13</title>
<g id="a_Node000013"><a xlink:href="class_fiea_1_1_engine_1_1_r_t_t_i.html#a13000029a2e6cced30b831e466e07cae" target="_top" xlink:title=" ">
<polygon fill="white" stroke="#666666" points="464.25,-32 365.75,-32 365.75,0 464.25,0 464.25,-32"/>
<text xml:space="preserve" text-anchor="start" x="373.75" y="-18.5" font-family="Helvetica,sans-Serif" font-size="10.00">Fiea::Engine::RTTI</text>
<text xml:space="preserve" text-anchor="middle" x="415" y="-6.5" font-family="Helvetica,sans-Serif" font-size="10.00">::RTTI</text>
</a>
</g>
</g>
<!-- Node11&#45;&gt;Node13 -->
<g id="edge15_Node000011_Node000013" class="edge">
<title>Node11&#45;&gt;Node13</title>
<g id="a_edge15_Node000011_Node000013"><a xlink:title=" ">
<path fill="none" stroke="#63b8ff" d="M274.27,-49.57C298.24,-43.81 328.37,-36.58 354.5,-30.3"/>
<polygon fill="#63b8ff" stroke="#63b8ff" points="355.05,-33.76 363.96,-28.02 353.42,-26.96 355.05,-33.76"/>
</a>
</g>
</g>
</g>
</svg>
