<?xml version="1.0" encoding="UTF-8" standalone="no"?>
<!DOCTYPE svg PUBLIC "-//W3C//DTD SVG 1.1//EN"
 "http://www.w3.org/Graphics/SVG/1.1/DTD/svg11.dtd">
<!-- Generated by graphviz version 13.1.0 (20250701.0955)
 -->
<!-- Title: Fiea::Engine::Actions::ActionConditionalIncrement::RunAction Pages: 1 -->
<svg width="605pt" height="534pt"
 viewBox="0.00 0.00 605.00 534.00" xmlns="http://www.w3.org/2000/svg" xmlns:xlink="http://www.w3.org/1999/xlink">
<g id="graph0" class="graph" transform="scale(1 1) rotate(0) translate(4 530)">
<title>Fiea::Engine::Actions::ActionConditionalIncrement::RunAction</title>
<!-- Node1 -->
<g id="Node000001" class="node">
<title>Node1</title>
<g id="a_Node000001"><a xlink:title=" ">
<polygon fill="#999999" stroke="#666666" points="142,-339 0,-339 0,-295 142,-295 142,-339"/>
<text xml:space="preserve" text-anchor="start" x="8" y="-325.5" font-family="Helvetica,sans-Serif" font-size="10.00">Fiea::Engine::Actions</text>
<text xml:space="preserve" text-anchor="start" x="8" y="-313.5" font-family="Helvetica,sans-Serif" font-size="10.00">::ActionConditionalIncrement</text>
<text xml:space="preserve" text-anchor="middle" x="71" y="-301.5" font-family="Helvetica,sans-Serif" font-size="10.00">::RunAction</text>
</a>
</g>
</g>
<!-- Node2 -->
<g id="Node000002" class="node">
<title>Node2</title>
<g id="a_Node000002"><a xlink:href="class_fiea_1_1_engine_1_1_r_t_t_i.html#a15bd5993c8ad04da47af440298ebbb30" target="_top" xlink:title=" ">
<polygon fill="white" stroke="#666666" points="294.5,-496 178,-496 178,-476 294.5,-476 294.5,-496"/>
<text xml:space="preserve" text-anchor="middle" x="236.25" y="-482.5" font-family="Helvetica,sans-Serif" font-size="10.00">Fiea::Engine::RTTI::As</text>
</a>
</g>
</g>
<!-- Node1&#45;&gt;Node2 -->
<g id="edge1_Node000001_Node000002" class="edge">
<title>Node1&#45;&gt;Node2</title>
<g id="a_edge1_Node000001_Node000002"><a xlink:title=" ">
<path fill="none" stroke="#63b8ff" d="M82.16,-339.5C98.03,-372.21 131.77,-432.72 178,-467 179.74,-468.29 181.56,-469.49 183.46,-470.61"/>
<polygon fill="#63b8ff" stroke="#63b8ff" points="181.49,-473.54 192,-474.92 184.64,-467.29 181.49,-473.54"/>
</a>
</g>
</g>
<!-- Node5 -->
<g id="Node000005" class="node">
<title>Node5</title>
<g id="a_Node000005"><a xlink:href="class_fiea_1_1_engine_1_1_content_1_1_scope.html#ad924c01785b239991fc0e56a63295612" target="_top" xlink:title="Finds a Datum by key.">
<polygon fill="white" stroke="#666666" points="445.88,-270 334.62,-270 334.62,-238 445.88,-238 445.88,-270"/>
<text xml:space="preserve" text-anchor="start" x="342.62" y="-256.5" font-family="Helvetica,sans-Serif" font-size="10.00">Fiea::Engine::Content</text>
<text xml:space="preserve" text-anchor="middle" x="390.25" y="-244.5" font-family="Helvetica,sans-Serif" font-size="10.00">::Scope::Find</text>
</a>
</g>
</g>
<!-- Node1&#45;&gt;Node5 -->
<g id="edge4_Node000001_Node000005" class="edge">
<title>Node1&#45;&gt;Node5</title>
<g id="a_edge4_Node000001_Node000005"><a xlink:title=" ">
<path fill="none" stroke="#63b8ff" d="M110.43,-294.54C129.99,-284.24 154.55,-273.02 178,-267 225.6,-254.79 281.12,-251.79 323.29,-251.71"/>
<polygon fill="#63b8ff" stroke="#63b8ff" points="323.01,-255.21 333.03,-251.75 323.04,-248.21 323.01,-255.21"/>
</a>
</g>
</g>
<!-- Node6 -->
<g id="Node000006" class="node">
<title>Node6</title>
<g id="a_Node000006"><a xlink:href="class_fiea_1_1_engine_1_1_content_1_1_datum.html#afe5c48ad15802ef84b150d79ed476898" target="_top" xlink:title=" ">
<polygon fill="white" stroke="#666666" points="291.88,-408 180.62,-408 180.62,-376 291.88,-376 291.88,-408"/>
<text xml:space="preserve" text-anchor="start" x="188.62" y="-394.5" font-family="Helvetica,sans-Serif" font-size="10.00">Fiea::Engine::Content</text>
<text xml:space="preserve" text-anchor="middle" x="236.25" y="-382.5" font-family="Helvetica,sans-Serif" font-size="10.00">::Datum::GetAsFloat</text>
</a>
</g>
</g>
<!-- Node1&#45;&gt;Node6 -->
<g id="edge5_Node000001_Node000006" class="edge">
<title>Node1&#45;&gt;Node6</title>
<g id="a_edge5_Node000001_Node000006"><a xlink:title=" ">
<path fill="none" stroke="#63b8ff" d="M118.83,-339.45C137.22,-348.17 158.55,-358.17 178,-367 180.92,-368.32 183.92,-369.68 186.96,-371.03"/>
<polygon fill="#63b8ff" stroke="#63b8ff" points="185.36,-374.15 195.92,-375 188.19,-367.75 185.36,-374.15"/>
</a>
</g>
</g>
<!-- Node7 -->
<g id="Node000007" class="node">
<title>Node7</title>
<g id="a_Node000007"><a xlink:href="class_fiea_1_1_engine_1_1_content_1_1_datum.html#a7f92976f27f407987cf287a2f7017e04" target="_top" xlink:title=" ">
<polygon fill="white" stroke="#666666" points="291.88,-458 180.62,-458 180.62,-426 291.88,-426 291.88,-458"/>
<text xml:space="preserve" text-anchor="start" x="188.62" y="-444.5" font-family="Helvetica,sans-Serif" font-size="10.00">Fiea::Engine::Content</text>
<text xml:space="preserve" text-anchor="middle" x="236.25" y="-432.5" font-family="Helvetica,sans-Serif" font-size="10.00">::Datum::GetAsTable</text>
</a>
</g>
</g>
<!-- Node1&#45;&gt;Node7 -->
<g id="edge6_Node000001_Node000007" class="edge">
<title>Node1&#45;&gt;Node7</title>
<g id="a_edge6_Node000001_Node000007"><a xlink:title=" ">
<path fill="none" stroke="#63b8ff" d="M91.29,-339.22C111.27,-361.2 144.23,-394.68 178,-417 179.62,-418.07 181.29,-419.11 183,-420.12"/>
<polygon fill="#63b8ff" stroke="#63b8ff" points="181.3,-423.19 191.76,-424.88 184.64,-417.03 181.3,-423.19"/>
</a>
</g>
</g>
<!-- Node9 -->
<g id="Node000009" class="node">
<title>Node9</title>
<g id="a_Node000009"><a xlink:href="class_fiea_1_1_engine_1_1_content_1_1_datum.html#a6e9dfba6e16fddc4efc39b8182dad89f" target="_top" xlink:title=" ">
<polygon fill="white" stroke="#666666" points="291.88,-308 180.62,-308 180.62,-276 291.88,-276 291.88,-308"/>
<text xml:space="preserve" text-anchor="start" x="188.62" y="-294.5" font-family="Helvetica,sans-Serif" font-size="10.00">Fiea::Engine::Content</text>
<text xml:space="preserve" text-anchor="middle" x="236.25" y="-282.5" font-family="Helvetica,sans-Serif" font-size="10.00">::Datum::IsType</text>
</a>
</g>
</g>
<!-- Node1&#45;&gt;Node9 -->
<g id="edge9_Node000001_Node000009" class="edge">
<title>Node1&#45;&gt;Node9</title>
<g id="a_edge9_Node000001_Node000009"><a xlink:title=" ">
<path fill="none" stroke="#63b8ff" d="M142.18,-306.25C151.17,-304.88 160.36,-303.47 169.28,-302.1"/>
<polygon fill="#63b8ff" stroke="#63b8ff" points="169.56,-305.6 178.91,-300.63 168.5,-298.68 169.56,-305.6"/>
</a>
</g>
</g>
<!-- Node10 -->
<g id="Node000010" class="node">
<title>Node10</title>
<g id="a_Node000010"><a xlink:href="class_fiea_1_1_engine_1_1_content_1_1_scope.html#ae21ea7cc60b24915a0aac3b0d0f6005c" target="_top" xlink:title=" ">
<polygon fill="white" stroke="#666666" points="291.88,-220 180.62,-220 180.62,-188 291.88,-188 291.88,-220"/>
<text xml:space="preserve" text-anchor="start" x="188.62" y="-206.5" font-family="Helvetica,sans-Serif" font-size="10.00">Fiea::Engine::Content</text>
<text xml:space="preserve" text-anchor="middle" x="236.25" y="-194.5" font-family="Helvetica,sans-Serif" font-size="10.00">::Scope::Search</text>
</a>
</g>
</g>
<!-- Node1&#45;&gt;Node10 -->
<g id="edge10_Node000001_Node000010" class="edge">
<title>Node1&#45;&gt;Node10</title>
<g id="a_edge10_Node000001_Node000010"><a xlink:title=" ">
<path fill="none" stroke="#63b8ff" d="M97.59,-294.81C118.47,-277.24 149.14,-252.64 178,-234 182.25,-231.25 186.78,-228.55 191.36,-225.95"/>
<polygon fill="#63b8ff" stroke="#63b8ff" points="192.96,-229.06 200.04,-221.18 189.59,-222.92 192.96,-229.06"/>
</a>
</g>
</g>
<!-- Node13 -->
<g id="Node000013" class="node">
<title>Node13</title>
<g id="a_Node000013"><a xlink:href="class_fiea_1_1_engine_1_1_content_1_1_datum.html#af8ca5539cfa1034703824207a4368a04" target="_top" xlink:title=" ">
<polygon fill="white" stroke="#666666" points="291.88,-358 180.62,-358 180.62,-326 291.88,-326 291.88,-358"/>
<text xml:space="preserve" text-anchor="start" x="188.62" y="-344.5" font-family="Helvetica,sans-Serif" font-size="10.00">Fiea::Engine::Content</text>
<text xml:space="preserve" text-anchor="middle" x="236.25" y="-332.5" font-family="Helvetica,sans-Serif" font-size="10.00">::Datum::Set</text>
</a>
</g>
</g>
<!-- Node1&#45;&gt;Node13 -->
<g id="edge16_Node000001_Node000013" class="edge">
<title>Node1&#45;&gt;Node13</title>
<g id="a_edge16_Node000001_Node000013"><a xlink:title=" ">
<path fill="none" stroke="#63b8ff" d="M142.18,-327.75C151.17,-329.12 160.36,-330.53 169.28,-331.9"/>
<polygon fill="#63b8ff" stroke="#63b8ff" points="168.5,-335.32 178.91,-333.37 169.56,-328.4 168.5,-335.32"/>
</a>
</g>
</g>
<!-- Node14 -->
<g id="Node000014" class="node">
<title>Node14</title>
<g id="a_Node000014"><a xlink:href="class_fiea_1_1_engine_1_1_actions_1_1_action.html#abea83b3796a80d29394f644634477d7b" target="_top" xlink:title=" ">
<polygon fill="white" stroke="#666666" points="291.12,-107 181.38,-107 181.38,-75 291.12,-75 291.12,-107"/>
<text xml:space="preserve" text-anchor="start" x="189.38" y="-93.5" font-family="Helvetica,sans-Serif" font-size="10.00">Fiea::Engine::Actions</text>
<text xml:space="preserve" text-anchor="middle" x="236.25" y="-81.5" font-family="Helvetica,sans-Serif" font-size="10.00">::Action::Update</text>
</a>
</g>
</g>
<!-- Node1&#45;&gt;Node14 -->
<g id="edge18_Node000001_Node000014" class="edge">
<title>Node1&#45;&gt;Node14</title>
<g id="a_edge18_Node000001_Node000014"><a xlink:title=" ">
<path fill="none" stroke="#63b8ff" d="M88.25,-294.5C118.77,-252.26 184.46,-161.31 216.68,-116.71"/>
<polygon fill="#63b8ff" stroke="#63b8ff" points="219.48,-118.82 222.49,-108.66 213.8,-114.72 219.48,-118.82"/>
</a>
</g>
</g>
<!-- Node3 -->
<g id="Node000003" class="node">
<title>Node3</title>
<g id="a_Node000003"><a xlink:href="class_fiea_1_1_engine_1_1_r_t_t_i.html#ac0a7d875e4513b2aca7594abcd4418ef" target="_top" xlink:title=" ">
<polygon fill="white" stroke="#666666" points="446.62,-476 333.88,-476 333.88,-456 446.62,-456 446.62,-476"/>
<text xml:space="preserve" text-anchor="middle" x="390.25" y="-462.5" font-family="Helvetica,sans-Serif" font-size="10.00">Fiea::Engine::RTTI::Is</text>
</a>
</g>
</g>
<!-- Node2&#45;&gt;Node3 -->
<g id="edge2_Node000002_Node000003" class="edge">
<title>Node2&#45;&gt;Node3</title>
<g id="a_edge2_Node000002_Node000003"><a xlink:title=" ">
<path fill="none" stroke="#63b8ff" d="M294.71,-478.44C303.74,-477.25 313.14,-476.01 322.35,-474.8"/>
<polygon fill="#63b8ff" stroke="#63b8ff" points="322.51,-478.31 331.96,-473.54 321.59,-471.37 322.51,-478.31"/>
</a>
</g>
</g>
<!-- Node4 -->
<g id="Node000004" class="node">
<title>Node4</title>
<g id="a_Node000004"><a xlink:href="class_fiea_1_1_engine_1_1_r_t_t_i.html#a13000029a2e6cced30b831e466e07cae" target="_top" xlink:title=" ">
<polygon fill="white" stroke="#666666" points="439.5,-526 341,-526 341,-494 439.5,-494 439.5,-526"/>
<text xml:space="preserve" text-anchor="start" x="349" y="-512.5" font-family="Helvetica,sans-Serif" font-size="10.00">Fiea::Engine::RTTI</text>
<text xml:space="preserve" text-anchor="middle" x="390.25" y="-500.5" font-family="Helvetica,sans-Serif" font-size="10.00">::RTTI</text>
</a>
</g>
</g>
<!-- Node2&#45;&gt;Node4 -->
<g id="edge3_Node000002_Node000004" class="edge">
<title>Node2&#45;&gt;Node4</title>
<g id="a_edge3_Node000002_Node000004"><a xlink:title=" ">
<path fill="none" stroke="#63b8ff" d="M294.71,-495.07C306.06,-496.87 318,-498.75 329.43,-500.55"/>
<polygon fill="#63b8ff" stroke="#63b8ff" points="328.72,-503.99 339.15,-502.09 329.81,-497.07 328.72,-503.99"/>
</a>
</g>
</g>
<!-- Node8 -->
<g id="Node000008" class="node">
<title>Node8</title>
<g id="a_Node000008"><a xlink:href="class_fiea_1_1_engine_1_1_content_1_1_datum.html#a921193447f6e42f596ac0a7694b02830" target="_top" xlink:title=" ">
<polygon fill="white" stroke="#666666" points="445.88,-379 334.62,-379 334.62,-347 445.88,-347 445.88,-379"/>
<text xml:space="preserve" text-anchor="start" x="342.62" y="-365.5" font-family="Helvetica,sans-Serif" font-size="10.00">Fiea::Engine::Content</text>
<text xml:space="preserve" text-anchor="middle" x="390.25" y="-353.5" font-family="Helvetica,sans-Serif" font-size="10.00">::Datum::Scope</text>
</a>
</g>
</g>
<!-- Node7&#45;&gt;Node8 -->
<g id="edge7_Node000007_Node000008" class="edge">
<title>Node7&#45;&gt;Node8</title>
<g id="a_edge7_Node000007_Node000008"><a xlink:title=" ">
<path fill="none" stroke="#63b8ff" d="M276.31,-425.61C282.45,-422.84 288.68,-419.92 294.5,-417 314.02,-407.21 335.19,-395.28 352.56,-385.12"/>
<polygon fill="#63b8ff" stroke="#63b8ff" points="354.16,-388.24 361,-380.14 350.61,-382.21 354.16,-388.24"/>
</a>
</g>
</g>
<!-- Node8&#45;&gt;Node8 -->
<g id="edge8_Node000008_Node000008" class="edge">
<title>Node8&#45;&gt;Node8</title>
<g id="a_edge8_Node000008_Node000008"><a xlink:title=" ">
<path fill="none" stroke="#63b8ff" d="M363.23,-379.44C358.18,-388.58 367.19,-397 390.25,-397 402.86,-397 411.27,-394.48 415.48,-390.71"/>
<polygon fill="#63b8ff" stroke="#63b8ff" points="418.92,-391.36 417.04,-380.94 412,-390.26 418.92,-391.36"/>
</a>
</g>
</g>
<!-- Node10&#45;&gt;Node5 -->
<g id="edge11_Node000010_Node000005" class="edge">
<title>Node10&#45;&gt;Node5</title>
<g id="a_edge11_Node000010_Node000005"><a xlink:title=" ">
<path fill="none" stroke="#63b8ff" d="M287.02,-220.37C300.21,-224.71 314.59,-229.44 328.3,-233.95"/>
<polygon fill="#63b8ff" stroke="#63b8ff" points="327.08,-237.23 337.67,-237.03 329.26,-230.58 327.08,-237.23"/>
</a>
</g>
</g>
<!-- Node11 -->
<g id="Node000011" class="node">
<title>Node11</title>
<g id="a_Node000011"><a xlink:href="class_fiea_1_1_engine_1_1_content_1_1_scope.html#ac4627f740867a929957ce0647f436e02" target="_top" xlink:title=" ">
<polygon fill="white" stroke="#666666" points="445.88,-220 334.62,-220 334.62,-188 445.88,-188 445.88,-220"/>
<text xml:space="preserve" text-anchor="start" x="342.62" y="-206.5" font-family="Helvetica,sans-Serif" font-size="10.00">Fiea::Engine::Content</text>
<text xml:space="preserve" text-anchor="middle" x="390.25" y="-194.5" font-family="Helvetica,sans-Serif" font-size="10.00">::Scope::GetParent</text>
</a>
</g>
</g>
<!-- Node10&#45;&gt;Node11 -->
<g id="edge12_Node000010_Node000011" class="edge">
<title>Node10&#45;&gt;Node11</title>
<g id="a_edge12_Node000010_Node000011"><a xlink:title=" ">
<path fill="none" stroke="#63b8ff" d="M292.13,-204C302.07,-204 312.54,-204 322.78,-204"/>
<polygon fill="#63b8ff" stroke="#63b8ff" points="322.69,-207.5 332.69,-204 322.69,-200.5 322.69,-207.5"/>
</a>
</g>
</g>
<!-- Node12 -->
<g id="Node000012" class="node">
<title>Node12</title>
<g id="a_Node000012"><a xlink:href="class_fiea_1_1_engine_1_1_content_1_1_scope.html#a6631343c968c233ab1d9c3e05c3f4fe9" target="_top" xlink:title=" ">
<polygon fill="white" stroke="#666666" points="597.25,-198 486,-198 486,-166 597.25,-166 597.25,-198"/>
<text xml:space="preserve" text-anchor="start" x="494" y="-184.5" font-family="Helvetica,sans-Serif" font-size="10.00">Fiea::Engine::Content</text>
<text xml:space="preserve" text-anchor="middle" x="541.62" y="-172.5" font-family="Helvetica,sans-Serif" font-size="10.00">::Scope::Scope</text>
</a>
</g>
</g>
<!-- Node10&#45;&gt;Node12 -->
<g id="edge15_Node000010_Node000012" class="edge">
<title>Node10&#45;&gt;Node12</title>
<g id="a_edge15_Node000010_Node000012"><a xlink:title=" ">
<path fill="none" stroke="#63b8ff" d="M289.04,-187.54C302.41,-184 316.87,-180.79 330.5,-179 378.28,-172.71 432.69,-173.71 474.17,-176.15"/>
<polygon fill="#63b8ff" stroke="#63b8ff" points="473.8,-179.63 484,-176.77 474.24,-172.65 473.8,-179.63"/>
</a>
</g>
</g>
<!-- Node11&#45;&gt;Node12 -->
<g id="edge13_Node000011_Node000012" class="edge">
<title>Node11&#45;&gt;Node12</title>
<g id="a_edge13_Node000011_Node000012"><a xlink:title=" ">
<path fill="none" stroke="#63b8ff" d="M446.02,-195.93C455.2,-194.58 464.81,-193.17 474.24,-191.78"/>
<polygon fill="#63b8ff" stroke="#63b8ff" points="474.73,-195.24 484.11,-190.32 473.71,-188.32 474.73,-195.24"/>
</a>
</g>
</g>
<!-- Node12&#45;&gt;Node12 -->
<g id="edge14_Node000012_Node000012" class="edge">
<title>Node12&#45;&gt;Node12</title>
<g id="a_edge14_Node000012_Node000012"><a xlink:title=" ">
<path fill="none" stroke="#63b8ff" d="M514.6,-198.44C509.56,-207.58 518.56,-216 541.62,-216 554.24,-216 562.65,-213.48 566.85,-209.71"/>
<polygon fill="#63b8ff" stroke="#63b8ff" points="570.29,-210.36 568.41,-199.94 563.38,-209.26 570.29,-210.36"/>
</a>
</g>
</g>
<!-- Node13&#45;&gt;Node8 -->
<g id="edge17_Node000013_Node000008" class="edge">
<title>Node13&#45;&gt;Node8</title>
<g id="a_edge17_Node000013_Node000008"><a xlink:title=" ">
<path fill="none" stroke="#63b8ff" d="M292.13,-349.58C302.18,-350.97 312.77,-352.43 323.11,-353.86"/>
<polygon fill="#63b8ff" stroke="#63b8ff" points="322.32,-357.29 332.7,-355.19 323.27,-350.35 322.32,-357.29"/>
</a>
</g>
</g>
<!-- Node15 -->
<g id="Node000015" class="node">
<title>Node15</title>
<g id="a_Node000015"><a xlink:href="class_fiea_1_1_engine_1_1_actions_1_1_action.html#aca4c38723b265f3c4e6013bb8916b376" target="_top" xlink:title=" ">
<polygon fill="white" stroke="#666666" points="450,-132 330.5,-132 330.5,-100 450,-100 450,-132"/>
<text xml:space="preserve" text-anchor="start" x="338.5" y="-118.5" font-family="Helvetica,sans-Serif" font-size="10.00">Fiea::Engine::Actions</text>
<text xml:space="preserve" text-anchor="middle" x="390.25" y="-106.5" font-family="Helvetica,sans-Serif" font-size="10.00">::Action::CleanupAction</text>
</a>
</g>
</g>
<!-- Node14&#45;&gt;Node15 -->
<g id="edge19_Node000014_Node000015" class="edge">
<title>Node14&#45;&gt;Node15</title>
<g id="a_edge19_Node000014_Node000015"><a xlink:title=" ">
<path fill="none" stroke="#63b8ff" d="M291.27,-99.88C300.25,-101.36 309.67,-102.91 318.98,-104.44"/>
<polygon fill="#63b8ff" stroke="#63b8ff" points="318.32,-107.88 328.75,-106.05 319.45,-100.97 318.32,-107.88"/>
</a>
</g>
</g>
<!-- Node16 -->
<g id="Node000016" class="node">
<title>Node16</title>
<g id="a_Node000016"><a xlink:href="class_fiea_1_1_engine_1_1_actions_1_1_action.html#a81c0a0c2e60d1d97b21ca306f673b7e7" target="_top" xlink:title=" ">
<polygon fill="white" stroke="#666666" points="445.12,-82 335.38,-82 335.38,-50 445.12,-50 445.12,-82"/>
<text xml:space="preserve" text-anchor="start" x="343.38" y="-68.5" font-family="Helvetica,sans-Serif" font-size="10.00">Fiea::Engine::Actions</text>
<text xml:space="preserve" text-anchor="middle" x="390.25" y="-56.5" font-family="Helvetica,sans-Serif" font-size="10.00">::Action::InitAction</text>
</a>
</g>
</g>
<!-- Node14&#45;&gt;Node16 -->
<g id="edge20_Node000014_Node000016" class="edge">
<title>Node14&#45;&gt;Node16</title>
<g id="a_edge20_Node000014_Node000016"><a xlink:title=" ">
<path fill="none" stroke="#63b8ff" d="M291.27,-82.12C301.78,-80.39 312.91,-78.56 323.74,-76.77"/>
<polygon fill="#63b8ff" stroke="#63b8ff" points="324.1,-80.26 333.4,-75.19 322.97,-73.36 324.1,-80.26"/>
</a>
</g>
</g>
<!-- Node17 -->
<g id="Node000017" class="node">
<title>Node17</title>
<g id="a_Node000017"><a xlink:href="class_fiea_1_1_engine_1_1_actions_1_1_action.html#a75aad9a760f6deb44caed1be2611afad" target="_top" xlink:title=" ">
<polygon fill="white" stroke="#666666" points="445.12,-32 335.38,-32 335.38,0 445.12,0 445.12,-32"/>
<text xml:space="preserve" text-anchor="start" x="343.38" y="-18.5" font-family="Helvetica,sans-Serif" font-size="10.00">Fiea::Engine::Actions</text>
<text xml:space="preserve" text-anchor="middle" x="390.25" y="-6.5" font-family="Helvetica,sans-Serif" font-size="10.00">::Action::RunAction</text>
</a>
</g>
</g>
<!-- Node14&#45;&gt;Node17 -->
<g id="edge21_Node000014_Node000017" class="edge">
<title>Node14&#45;&gt;Node17</title>
<g id="a_edge21_Node000014_Node000017"><a xlink:title=" ">
<path fill="none" stroke="#63b8ff" d="M266.3,-74.55C284.53,-64.45 308.64,-51.49 330.5,-41 333.22,-39.7 336.02,-38.39 338.86,-37.09"/>
<polygon fill="#63b8ff" stroke="#63b8ff" points="340.13,-40.36 347.83,-33.08 337.27,-33.97 340.13,-40.36"/>
</a>
</g>
</g>
</g>
</svg>
