<?xml version="1.0" encoding="UTF-8" standalone="no"?>
<!DOCTYPE svg PUBLIC "-//W3C//DTD SVG 1.1//EN"
 "http://www.w3.org/Graphics/SVG/1.1/DTD/svg11.dtd">
<!-- Generated by graphviz version 13.1.0 (20250701.0955)
 -->
<!-- Title: Fiea::Engine::Content::Datum::RemoveAt Pages: 1 -->
<svg width="596pt" height="254pt"
 viewBox="0.00 0.00 596.00 254.00" xmlns="http://www.w3.org/2000/svg" xmlns:xlink="http://www.w3.org/1999/xlink">
<g id="graph0" class="graph" transform="scale(1 1) rotate(0) translate(4 250)">
<title>Fiea::Engine::Content::Datum::RemoveAt</title>
<!-- Node1 -->
<g id="Node000001" class="node">
<title>Node1</title>
<g id="a_Node000001"><a xlink:title=" ">
<polygon fill="#999999" stroke="#666666" points="587.5,-120 476.25,-120 476.25,-88 587.5,-88 587.5,-120"/>
<text xml:space="preserve" text-anchor="start" x="484.25" y="-106.5" font-family="Helvetica,sans-Serif" font-size="10.00">Fiea::Engine::Content</text>
<text xml:space="preserve" text-anchor="middle" x="531.88" y="-94.5" font-family="Helvetica,sans-Serif" font-size="10.00">::Datum::RemoveAt</text>
</a>
</g>
</g>
<!-- Node2 -->
<g id="Node000002" class="node">
<title>Node2</title>
<g id="a_Node000002"><a xlink:href="class_fiea_1_1_engine_1_1_content_1_1_scope.html#a769b8bf0382518e075fb90f62940624c" target="_top" xlink:title="Removes this Scope from its parent.">
<polygon fill="white" stroke="#666666" points="427.88,-220 316.62,-220 316.62,-188 427.88,-188 427.88,-220"/>
<text xml:space="preserve" text-anchor="start" x="324.62" y="-206.5" font-family="Helvetica,sans-Serif" font-size="10.00">Fiea::Engine::Content</text>
<text xml:space="preserve" text-anchor="middle" x="372.25" y="-194.5" font-family="Helvetica,sans-Serif" font-size="10.00">::Scope::Orphan</text>
</a>
</g>
</g>
<!-- Node1&#45;&gt;Node2 -->
<g id="edge1_Node000001_Node000002" class="edge">
<title>Node1&#45;&gt;Node2</title>
<g id="a_edge1_Node000001_Node000002"><a xlink:title=" ">
<path fill="none" stroke="#63b8ff" d="M506.87,-127.7C489.51,-143.83 464.86,-164.77 440.25,-179 434.88,-182.11 429.05,-184.95 423.14,-187.52"/>
<polygon fill="#63b8ff" stroke="#63b8ff" points="508.82,-130.67 513.68,-121.25 504.01,-125.59 508.82,-130.67"/>
</a>
</g>
</g>
<!-- Node5 -->
<g id="Node000005" class="node">
<title>Node5</title>
<g id="a_Node000005"><a xlink:href="class_fiea_1_1_engine_1_1_actions_1_1_action_list.html#a4d1536d33dd42d194860a728a0a32df1" target="_top" xlink:title=" ">
<polygon fill="white" stroke="#666666" points="440.25,-170 304.25,-170 304.25,-138 440.25,-138 440.25,-170"/>
<text xml:space="preserve" text-anchor="start" x="312.25" y="-156.5" font-family="Helvetica,sans-Serif" font-size="10.00">Fiea::Engine::Actions</text>
<text xml:space="preserve" text-anchor="middle" x="372.25" y="-144.5" font-family="Helvetica,sans-Serif" font-size="10.00">::ActionList::RemoveAction</text>
</a>
</g>
</g>
<!-- Node1&#45;&gt;Node5 -->
<g id="edge5_Node000001_Node000005" class="edge">
<title>Node1&#45;&gt;Node5</title>
<g id="a_edge5_Node000001_Node000005"><a xlink:title=" ">
<path fill="none" stroke="#63b8ff" d="M468.49,-123.79C454.16,-128.33 439.08,-133.12 425.25,-137.51"/>
<polygon fill="#63b8ff" stroke="#63b8ff" points="469.35,-127.19 477.82,-120.83 467.23,-120.52 469.35,-127.19"/>
</a>
</g>
</g>
<!-- Node6 -->
<g id="Node000006" class="node">
<title>Node6</title>
<g id="a_Node000006"><a xlink:href="class_fiea_1_1_engine_1_1_game_object.html#aff873c5557228f0ab9bb948949a8e58f" target="_top" xlink:title=" ">
<polygon fill="white" stroke="#666666" points="438,-120 306.5,-120 306.5,-88 438,-88 438,-120"/>
<text xml:space="preserve" text-anchor="start" x="314.5" y="-106.5" font-family="Helvetica,sans-Serif" font-size="10.00">Fiea::Engine::GameObject</text>
<text xml:space="preserve" text-anchor="middle" x="372.25" y="-94.5" font-family="Helvetica,sans-Serif" font-size="10.00">::RemoveAction</text>
</a>
</g>
</g>
<!-- Node1&#45;&gt;Node6 -->
<g id="edge6_Node000001_Node000006" class="edge">
<title>Node1&#45;&gt;Node6</title>
<g id="a_edge6_Node000001_Node000006"><a xlink:title=" ">
<path fill="none" stroke="#63b8ff" d="M464.85,-104C456.11,-104 447.15,-104 438.42,-104"/>
<polygon fill="#63b8ff" stroke="#63b8ff" points="464.67,-107.5 474.67,-104 464.67,-100.5 464.67,-107.5"/>
</a>
</g>
</g>
<!-- Node10 -->
<g id="Node000010" class="node">
<title>Node10</title>
<g id="a_Node000010"><a xlink:href="class_fiea_1_1_engine_1_1_game_object.html#afb652b102eac13f7e03e86c64513517e" target="_top" xlink:title=" ">
<polygon fill="white" stroke="#666666" points="268.25,-73 136.75,-73 136.75,-41 268.25,-41 268.25,-73"/>
<text xml:space="preserve" text-anchor="start" x="144.75" y="-59.5" font-family="Helvetica,sans-Serif" font-size="10.00">Fiea::Engine::GameObject</text>
<text xml:space="preserve" text-anchor="middle" x="202.5" y="-47.5" font-family="Helvetica,sans-Serif" font-size="10.00">::RemoveChild</text>
</a>
</g>
</g>
<!-- Node1&#45;&gt;Node10 -->
<g id="edge11_Node000001_Node000010" class="edge">
<title>Node1&#45;&gt;Node10</title>
<g id="a_edge11_Node000001_Node000010"><a xlink:title=" ">
<path fill="none" stroke="#63b8ff" d="M466.56,-84.76C457.78,-82.57 448.83,-80.57 440.25,-79 382.79,-68.49 316.52,-62.88 268.73,-59.96"/>
<polygon fill="#63b8ff" stroke="#63b8ff" points="465.54,-88.11 476.1,-87.23 467.3,-81.34 465.54,-88.11"/>
</a>
</g>
</g>
<!-- Node11 -->
<g id="Node000011" class="node">
<title>Node11</title>
<g id="a_Node000011"><a xlink:href="class_fiea_1_1_engine_1_1_actions_1_1_action_timed.html#a1a83c312108a0d9f3ac4f84a5042db38" target="_top" xlink:title=" ">
<polygon fill="white" stroke="#666666" points="436.5,-32 308,-32 308,0 436.5,0 436.5,-32"/>
<text xml:space="preserve" text-anchor="start" x="316" y="-18.5" font-family="Helvetica,sans-Serif" font-size="10.00">Fiea::Engine::Actions</text>
<text xml:space="preserve" text-anchor="middle" x="372.25" y="-6.5" font-family="Helvetica,sans-Serif" font-size="10.00">::ActionTimed::RunAction</text>
</a>
</g>
</g>
<!-- Node1&#45;&gt;Node11 -->
<g id="edge13_Node000001_Node000011" class="edge">
<title>Node1&#45;&gt;Node11</title>
<g id="a_edge13_Node000001_Node000011"><a xlink:title=" ">
<path fill="none" stroke="#63b8ff" d="M498.18,-81.41C481.25,-70.14 460.04,-56.68 440.25,-46 431.5,-41.28 421.87,-36.65 412.69,-32.49"/>
<polygon fill="#63b8ff" stroke="#63b8ff" points="496.1,-84.23 506.35,-86.9 500,-78.42 496.1,-84.23"/>
</a>
</g>
</g>
<!-- Node3 -->
<g id="Node000003" class="node">
<title>Node3</title>
<g id="a_Node000003"><a xlink:href="class_fiea_1_1_engine_1_1_content_1_1_scope.html#abf39accc1ce38b12bcbc6884ba0165e3" target="_top" xlink:title="Adopts an existing Scope as a child under the specified key.">
<polygon fill="white" stroke="#666666" points="258.12,-246 146.88,-246 146.88,-214 258.12,-214 258.12,-246"/>
<text xml:space="preserve" text-anchor="start" x="154.88" y="-232.5" font-family="Helvetica,sans-Serif" font-size="10.00">Fiea::Engine::Content</text>
<text xml:space="preserve" text-anchor="middle" x="202.5" y="-220.5" font-family="Helvetica,sans-Serif" font-size="10.00">::Scope::Adopt</text>
</a>
</g>
</g>
<!-- Node2&#45;&gt;Node3 -->
<g id="edge2_Node000002_Node000003" class="edge">
<title>Node2&#45;&gt;Node3</title>
<g id="a_edge2_Node000002_Node000003"><a xlink:title=" ">
<path fill="none" stroke="#63b8ff" d="M305.25,-214.23C289.79,-216.63 273.48,-219.15 258.55,-221.47"/>
<polygon fill="#63b8ff" stroke="#63b8ff" points="305.48,-217.74 314.83,-212.75 304.41,-210.82 305.48,-217.74"/>
</a>
</g>
</g>
<!-- Node4 -->
<g id="Node000004" class="node">
<title>Node4</title>
<g id="a_Node000004"><a xlink:href="namespace_fiea_1_1_engine_1_1_tests.html#ad3e53e7e3f072321bc7199970c619c1d" target="_top" xlink:title=" ">
<polygon fill="white" stroke="#666666" points="100.75,-224 0,-224 0,-192 100.75,-192 100.75,-224"/>
<text xml:space="preserve" text-anchor="start" x="8" y="-210.5" font-family="Helvetica,sans-Serif" font-size="10.00">Fiea::Engine::Tests</text>
<text xml:space="preserve" text-anchor="middle" x="50.38" y="-198.5" font-family="Helvetica,sans-Serif" font-size="10.00">::TEST_CLASS</text>
</a>
</g>
</g>
<!-- Node2&#45;&gt;Node4 -->
<g id="edge4_Node000002_Node000004" class="edge">
<title>Node2&#45;&gt;Node4</title>
<g id="a_edge4_Node000002_Node000004"><a xlink:title=" ">
<path fill="none" stroke="#63b8ff" d="M305.04,-203.74C258.06,-203.69 193.53,-203.88 136.75,-205 125.18,-205.23 112.74,-205.6 101.03,-206"/>
<polygon fill="#63b8ff" stroke="#63b8ff" points="304.76,-207.24 314.77,-203.75 304.77,-200.24 304.76,-207.24"/>
</a>
</g>
</g>
<!-- Node3&#45;&gt;Node4 -->
<g id="edge3_Node000003_Node000004" class="edge">
<title>Node3&#45;&gt;Node4</title>
<g id="a_edge3_Node000003_Node000004"><a xlink:title=" ">
<path fill="none" stroke="#63b8ff" d="M135.11,-220.27C123.63,-218.59 111.88,-216.87 100.95,-215.27"/>
<polygon fill="#63b8ff" stroke="#63b8ff" points="134.55,-223.73 144.95,-221.71 135.57,-216.8 134.55,-223.73"/>
</a>
</g>
</g>
<!-- Node7 -->
<g id="Node000007" class="node">
<title>Node7</title>
<g id="a_Node000007"><a xlink:href="class_fiea_1_1_engine_1_1_game_object.html#a98e7dc26718acd4dba6f1b5bbe0483b8" target="_top" xlink:title=" ">
<polygon fill="white" stroke="#666666" points="268.25,-123 136.75,-123 136.75,-91 268.25,-91 268.25,-123"/>
<text xml:space="preserve" text-anchor="start" x="144.75" y="-109.5" font-family="Helvetica,sans-Serif" font-size="10.00">Fiea::Engine::GameObject</text>
<text xml:space="preserve" text-anchor="middle" x="202.5" y="-97.5" font-family="Helvetica,sans-Serif" font-size="10.00">::Update</text>
</a>
</g>
</g>
<!-- Node6&#45;&gt;Node7 -->
<g id="edge7_Node000006_Node000007" class="edge">
<title>Node6&#45;&gt;Node7</title>
<g id="a_edge7_Node000006_Node000007"><a xlink:title=" ">
<path fill="none" stroke="#63b8ff" d="M294.97,-105.36C286.21,-105.52 277.34,-105.68 268.74,-105.83"/>
<polygon fill="#63b8ff" stroke="#63b8ff" points="294.94,-108.87 304.88,-105.19 294.82,-101.87 294.94,-108.87"/>
</a>
</g>
</g>
<!-- Node7&#45;&gt;Node7 -->
<g id="edge10_Node000007_Node000007" class="edge">
<title>Node7&#45;&gt;Node7</title>
<g id="a_edge10_Node000007_Node000007"><a xlink:title=" ">
<path fill="none" stroke="#63b8ff" d="M227.85,-134.71C223.62,-138.48 215.17,-141 202.5,-141 179.32,-141 170.27,-132.58 175.34,-123.44"/>
<polygon fill="#63b8ff" stroke="#63b8ff" points="231.29,-135.37 229.42,-124.94 224.38,-134.26 231.29,-135.37"/>
</a>
</g>
</g>
<!-- Node8 -->
<g id="Node000008" class="node">
<title>Node8</title>
<g id="a_Node000008"><a xlink:href="namespace_fiea_1_1_engine_1_1_tests.html#a34b2b8dfbe4f7aa6a3ea0a5f24db384f" target="_top" xlink:title=" ">
<polygon fill="white" stroke="#666666" points="100.75,-73 0,-73 0,-41 100.75,-41 100.75,-73"/>
<text xml:space="preserve" text-anchor="start" x="8" y="-59.5" font-family="Helvetica,sans-Serif" font-size="10.00">Fiea::Engine::Tests</text>
<text xml:space="preserve" text-anchor="middle" x="50.38" y="-47.5" font-family="Helvetica,sans-Serif" font-size="10.00">::TEST_CLASS</text>
</a>
</g>
</g>
<!-- Node7&#45;&gt;Node8 -->
<g id="edge8_Node000007_Node000008" class="edge">
<title>Node7&#45;&gt;Node8</title>
<g id="a_edge8_Node000007_Node000008"><a xlink:title=" ">
<path fill="none" stroke="#63b8ff" d="M141.68,-87.08C128.16,-82.57 113.94,-77.84 100.9,-73.49"/>
<polygon fill="#63b8ff" stroke="#63b8ff" points="140.31,-90.31 150.91,-90.15 142.53,-83.67 140.31,-90.31"/>
</a>
</g>
</g>
<!-- Node9 -->
<g id="Node000009" class="node">
<title>Node9</title>
<g id="a_Node000009"><a xlink:href="namespace_fiea_1_1_engine_1_1_tests.html#a89b054e30b186f60d7f23c17503265da" target="_top" xlink:title=" ">
<polygon fill="white" stroke="#666666" points="100.75,-123 0,-123 0,-91 100.75,-91 100.75,-123"/>
<text xml:space="preserve" text-anchor="start" x="8" y="-109.5" font-family="Helvetica,sans-Serif" font-size="10.00">Fiea::Engine::Tests</text>
<text xml:space="preserve" text-anchor="middle" x="50.38" y="-97.5" font-family="Helvetica,sans-Serif" font-size="10.00">::TEST_CLASS</text>
</a>
</g>
</g>
<!-- Node7&#45;&gt;Node9 -->
<g id="edge9_Node000007_Node000009" class="edge">
<title>Node7&#45;&gt;Node9</title>
<g id="a_edge9_Node000007_Node000009"><a xlink:title=" ">
<path fill="none" stroke="#63b8ff" d="M125.04,-107C116.89,-107 108.77,-107 101.06,-107"/>
<polygon fill="#63b8ff" stroke="#63b8ff" points="125.01,-110.5 135.01,-107 125.01,-103.5 125.01,-110.5"/>
</a>
</g>
</g>
<!-- Node10&#45;&gt;Node8 -->
<g id="edge12_Node000010_Node000008" class="edge">
<title>Node10&#45;&gt;Node8</title>
<g id="a_edge12_Node000010_Node000008"><a xlink:title=" ">
<path fill="none" stroke="#63b8ff" d="M125.04,-57C116.89,-57 108.77,-57 101.06,-57"/>
<polygon fill="#63b8ff" stroke="#63b8ff" points="125.01,-60.5 135.01,-57 125.01,-53.5 125.01,-60.5"/>
</a>
</g>
</g>
</g>
</svg>
