<?xml version="1.0" encoding="UTF-8" standalone="no"?>
<!DOCTYPE svg PUBLIC "-//W3C//DTD SVG 1.1//EN"
 "http://www.w3.org/Graphics/SVG/1.1/DTD/svg11.dtd">
<!-- Generated by graphviz version 13.1.0 (20250701.0955)
 -->
<!-- Title: Fiea::Engine::Content::ScopeWriter::AddActionObject Pages: 1 -->
<svg width="1051pt" height="454pt"
 viewBox="0.00 0.00 1051.00 454.00" xmlns="http://www.w3.org/2000/svg" xmlns:xlink="http://www.w3.org/1999/xlink">
<g id="graph0" class="graph" transform="scale(1 1) rotate(0) translate(4 450)">
<title>Fiea::Engine::Content::ScopeWriter::AddActionObject</title>
<!-- Node1 -->
<g id="Node000001" class="node">
<title>Node1</title>
<g id="a_Node000001"><a xlink:title=" ">
<polygon fill="#999999" stroke="#666666" points="154.75,-164 0,-164 0,-132 154.75,-132 154.75,-164"/>
<text xml:space="preserve" text-anchor="start" x="8" y="-150.5" font-family="Helvetica,sans-Serif" font-size="10.00">Fiea::Engine::Content</text>
<text xml:space="preserve" text-anchor="middle" x="77.38" y="-138.5" font-family="Helvetica,sans-Serif" font-size="10.00">::ScopeWriter::AddActionObject</text>
</a>
</g>
</g>
<!-- Node2 -->
<g id="Node000002" class="node">
<title>Node2</title>
<g id="a_Node000002"><a xlink:href="class_fiea_1_1_engine_1_1_game_object.html#a2d9e0734194c82c1f1d319e49c845c0f" target="_top" xlink:title=" ">
<polygon fill="white" stroke="#666666" points="557.62,-346 426.12,-346 426.12,-314 557.62,-314 557.62,-346"/>
<text xml:space="preserve" text-anchor="start" x="434.12" y="-332.5" font-family="Helvetica,sans-Serif" font-size="10.00">Fiea::Engine::GameObject</text>
<text xml:space="preserve" text-anchor="middle" x="491.88" y="-320.5" font-family="Helvetica,sans-Serif" font-size="10.00">::AddAction</text>
</a>
</g>
</g>
<!-- Node1&#45;&gt;Node2 -->
<g id="edge1_Node000001_Node000002" class="edge">
<title>Node1&#45;&gt;Node2</title>
<g id="a_edge1_Node000001_Node000002"><a xlink:title=" ">
<path fill="none" stroke="#63b8ff" d="M88.51,-164.49C105.89,-191.25 144.05,-243.76 190.75,-270 260.13,-308.98 351.04,-322.88 414.55,-327.72"/>
<polygon fill="#63b8ff" stroke="#63b8ff" points="413.96,-331.18 424.18,-328.39 414.44,-324.2 413.96,-331.18"/>
</a>
</g>
</g>
<!-- Node8 -->
<g id="Node000008" class="node">
<title>Node8</title>
<g id="a_Node000008"><a xlink:href="class_fiea_1_1_engine_1_1_content_1_1_scope_writer.html#aa73231d29c0a0b0bcfbb910e2f913404" target="_top" xlink:title=" ">
<polygon fill="white" stroke="#666666" points="357.5,-226 215.5,-226 215.5,-182 357.5,-182 357.5,-226"/>
<text xml:space="preserve" text-anchor="start" x="223.5" y="-212.5" font-family="Helvetica,sans-Serif" font-size="10.00">Fiea::Engine::Content</text>
<text xml:space="preserve" text-anchor="start" x="223.5" y="-200.5" font-family="Helvetica,sans-Serif" font-size="10.00">::ScopeWriter::AddActionList</text>
<text xml:space="preserve" text-anchor="middle" x="286.5" y="-188.5" font-family="Helvetica,sans-Serif" font-size="10.00">Object</text>
</a>
</g>
</g>
<!-- Node1&#45;&gt;Node8 -->
<g id="edge9_Node000001_Node000008" class="edge">
<title>Node1&#45;&gt;Node8</title>
<g id="a_edge9_Node000001_Node000008"><a xlink:title=" ">
<path fill="none" stroke="#63b8ff" d="M139.4,-164.5C159.62,-169.97 182.46,-176.14 203.97,-181.96"/>
<polygon fill="#63b8ff" stroke="#63b8ff" points="203.05,-185.33 213.62,-184.57 204.88,-178.58 203.05,-185.33"/>
</a>
</g>
</g>
<!-- Node9 -->
<g id="Node000009" class="node">
<title>Node9</title>
<g id="a_Node000009"><a xlink:href="class_fiea_1_1_engine_1_1_content_1_1_scope.html#a002f54731a8996f37c4f725d8175ffee" target="_top" xlink:title="Appends a new Scope as a child under the specified key.">
<polygon fill="white" stroke="#666666" points="550.12,-296 433.62,-296 433.62,-264 550.12,-264 550.12,-296"/>
<text xml:space="preserve" text-anchor="start" x="441.62" y="-282.5" font-family="Helvetica,sans-Serif" font-size="10.00">Fiea::Engine::Content</text>
<text xml:space="preserve" text-anchor="middle" x="491.88" y="-270.5" font-family="Helvetica,sans-Serif" font-size="10.00">::Scope::AppendScope</text>
</a>
</g>
</g>
<!-- Node1&#45;&gt;Node9 -->
<g id="edge35_Node000001_Node000009" class="edge">
<title>Node1&#45;&gt;Node9</title>
<g id="a_edge35_Node000001_Node000009"><a xlink:title=" ">
<path fill="none" stroke="#63b8ff" d="M93.78,-164.22C113.98,-184.39 151.5,-218.23 190.75,-235 265.55,-266.96 359.29,-276.74 421.92,-279.47"/>
<polygon fill="#63b8ff" stroke="#63b8ff" points="421.6,-282.96 431.72,-279.84 421.86,-275.96 421.6,-282.96"/>
</a>
</g>
</g>
<!-- Node14 -->
<g id="Node000014" class="node">
<title>Node14</title>
<g id="a_Node000014"><a xlink:href="class_fiea_1_1_engine_1_1_r_t_t_i.html#a15bd5993c8ad04da47af440298ebbb30" target="_top" xlink:title=" ">
<polygon fill="white" stroke="#666666" points="732.62,-70 616.12,-70 616.12,-50 732.62,-50 732.62,-70"/>
<text xml:space="preserve" text-anchor="middle" x="674.38" y="-56.5" font-family="Helvetica,sans-Serif" font-size="10.00">Fiea::Engine::RTTI::As</text>
</a>
</g>
</g>
<!-- Node1&#45;&gt;Node14 -->
<g id="edge36_Node000001_Node000014" class="edge">
<title>Node1&#45;&gt;Node14</title>
<g id="a_edge36_Node000001_Node000014"><a xlink:title=" ">
<path fill="none" stroke="#63b8ff" d="M111.99,-131.7C133.91,-121.79 163.42,-109.78 190.75,-103 334.97,-67.25 509.93,-60.36 604.56,-59.53"/>
<polygon fill="#63b8ff" stroke="#63b8ff" points="604.48,-63.03 614.46,-59.46 604.44,-56.03 604.48,-63.03"/>
</a>
</g>
</g>
<!-- Node17 -->
<g id="Node000017" class="node">
<title>Node17</title>
<g id="a_Node000017"><a xlink:href="class_fiea_1_1_engine_1_1_service_manager.html#a8aac9b15b7e5483c2b1cd5febe590a0c" target="_top" xlink:title=" ">
<polygon fill="white" stroke="#666666" points="565.5,-120 418.25,-120 418.25,-88 565.5,-88 565.5,-120"/>
<text xml:space="preserve" text-anchor="start" x="426.25" y="-106.5" font-family="Helvetica,sans-Serif" font-size="10.00">Fiea::Engine::ServiceManager</text>
<text xml:space="preserve" text-anchor="middle" x="491.88" y="-94.5" font-family="Helvetica,sans-Serif" font-size="10.00">::ProvideInterface</text>
</a>
</g>
</g>
<!-- Node1&#45;&gt;Node17 -->
<g id="edge38_Node000001_Node000017" class="edge">
<title>Node1&#45;&gt;Node17</title>
<g id="a_edge38_Node000001_Node000017"><a xlink:title=" ">
<path fill="none" stroke="#63b8ff" d="M144.32,-131.53C159.49,-128.25 175.61,-125.15 190.75,-123 263.11,-112.72 346.07,-108.01 406.4,-105.84"/>
<polygon fill="#63b8ff" stroke="#63b8ff" points="406.39,-109.34 416.26,-105.5 406.15,-102.35 406.39,-109.34"/>
</a>
</g>
</g>
<!-- Node18 -->
<g id="Node000018" class="node">
<title>Node18</title>
<g id="a_Node000018"><a xlink:href="class_fiea_1_1_engine_1_1_content_1_1_scope_writer.html#a8baf6cd60c0807e9e91054132db5183f" target="_top" xlink:title=" ">
<polygon fill="white" stroke="#666666" points="382.25,-164 190.75,-164 190.75,-132 382.25,-132 382.25,-164"/>
<text xml:space="preserve" text-anchor="start" x="198.75" y="-150.5" font-family="Helvetica,sans-Serif" font-size="10.00">Fiea::Engine::Content</text>
<text xml:space="preserve" text-anchor="middle" x="286.5" y="-138.5" font-family="Helvetica,sans-Serif" font-size="10.00">::ScopeWriter::AddActionToPredecessor</text>
</a>
</g>
</g>
<!-- Node1&#45;&gt;Node18 -->
<g id="edge25_Node000001_Node000018" class="edge">
<title>Node1&#45;&gt;Node18</title>
<g id="a_edge25_Node000001_Node000018"><a xlink:title=" ">
<path fill="none" stroke="#63b8ff" d="M155.21,-148C163.03,-148 171.08,-148 179.14,-148"/>
<polygon fill="#63b8ff" stroke="#63b8ff" points="179.03,-151.5 189.03,-148 179.03,-144.5 179.03,-151.5"/>
</a>
</g>
</g>
<!-- Node19 -->
<g id="Node000019" class="node">
<title>Node19</title>
<g id="a_Node000019"><a xlink:href="struct_fiea_1_1_engine_1_1_content_1_1_i_factory_service.html#a06ed01632b58a4faeb159d3e9a0ef51f" target="_top" xlink:title=" ">
<polygon fill="white" stroke="#666666" points="555,-32 428.75,-32 428.75,0 555,0 555,-32"/>
<text xml:space="preserve" text-anchor="start" x="436.75" y="-18.5" font-family="Helvetica,sans-Serif" font-size="10.00">Fiea::Engine::Content</text>
<text xml:space="preserve" text-anchor="middle" x="491.88" y="-6.5" font-family="Helvetica,sans-Serif" font-size="10.00">::IFactoryService::Create</text>
</a>
</g>
</g>
<!-- Node1&#45;&gt;Node19 -->
<g id="edge37_Node000001_Node000019" class="edge">
<title>Node1&#45;&gt;Node19</title>
<g id="a_edge37_Node000001_Node000019"><a xlink:title=" ">
<path fill="none" stroke="#63b8ff" d="M90.44,-131.85C109.04,-108.34 147.17,-65.37 190.75,-46 262.94,-13.91 354.27,-9.22 417.11,-10.78"/>
<polygon fill="#63b8ff" stroke="#63b8ff" points="416.89,-14.28 426.99,-11.1 417.11,-7.28 416.89,-14.28"/>
</a>
</g>
</g>
<!-- Node3 -->
<g id="Node000003" class="node">
<title>Node3</title>
<g id="a_Node000003"><a xlink:href="class_fiea_1_1_engine_1_1_content_1_1_scope.html#aa91d6470fd3d3f402bbb2e765be54455" target="_top" xlink:title="Appends a new Datum with the given key.">
<polygon fill="white" stroke="#666666" points="730,-446 618.75,-446 618.75,-414 730,-414 730,-446"/>
<text xml:space="preserve" text-anchor="start" x="626.75" y="-432.5" font-family="Helvetica,sans-Serif" font-size="10.00">Fiea::Engine::Content</text>
<text xml:space="preserve" text-anchor="middle" x="674.38" y="-420.5" font-family="Helvetica,sans-Serif" font-size="10.00">::Scope::Append</text>
</a>
</g>
</g>
<!-- Node2&#45;&gt;Node3 -->
<g id="edge2_Node000002_Node000003" class="edge">
<title>Node2&#45;&gt;Node3</title>
<g id="a_edge2_Node000002_Node000003"><a xlink:title=" ">
<path fill="none" stroke="#63b8ff" d="M513.06,-346.42C534.12,-362.95 568.6,-388.31 601.5,-405 604.37,-406.46 607.35,-407.86 610.38,-409.22"/>
<polygon fill="#63b8ff" stroke="#63b8ff" points="608.89,-412.38 619.47,-413.01 611.59,-405.93 608.89,-412.38"/>
</a>
</g>
</g>
<!-- Node4 -->
<g id="Node000004" class="node">
<title>Node4</title>
<g id="a_Node000004"><a xlink:href="class_fiea_1_1_engine_1_1_content_1_1_scope.html#ad924c01785b239991fc0e56a63295612" target="_top" xlink:title="Finds a Datum by key.">
<polygon fill="white" stroke="#666666" points="730,-396 618.75,-396 618.75,-364 730,-364 730,-396"/>
<text xml:space="preserve" text-anchor="start" x="626.75" y="-382.5" font-family="Helvetica,sans-Serif" font-size="10.00">Fiea::Engine::Content</text>
<text xml:space="preserve" text-anchor="middle" x="674.38" y="-370.5" font-family="Helvetica,sans-Serif" font-size="10.00">::Scope::Find</text>
</a>
</g>
</g>
<!-- Node2&#45;&gt;Node4 -->
<g id="edge3_Node000002_Node000004" class="edge">
<title>Node2&#45;&gt;Node4</title>
<g id="a_edge3_Node000002_Node000004"><a xlink:title=" ">
<path fill="none" stroke="#63b8ff" d="M552.23,-346.44C569.84,-351.32 589.24,-356.69 607.26,-361.68"/>
<polygon fill="#63b8ff" stroke="#63b8ff" points="606.24,-365.03 616.81,-364.33 608.1,-358.29 606.24,-365.03"/>
</a>
</g>
</g>
<!-- Node5 -->
<g id="Node000005" class="node">
<title>Node5</title>
<g id="a_Node000005"><a xlink:href="class_fiea_1_1_engine_1_1_content_1_1_datum.html#acb3ba55fc9b39b876cf3334d0305f4fc" target="_top" xlink:title=" ">
<polygon fill="white" stroke="#666666" points="730,-346 618.75,-346 618.75,-314 730,-314 730,-346"/>
<text xml:space="preserve" text-anchor="start" x="626.75" y="-332.5" font-family="Helvetica,sans-Serif" font-size="10.00">Fiea::Engine::Content</text>
<text xml:space="preserve" text-anchor="middle" x="674.38" y="-320.5" font-family="Helvetica,sans-Serif" font-size="10.00">::Datum::Push</text>
</a>
</g>
</g>
<!-- Node2&#45;&gt;Node5 -->
<g id="edge4_Node000002_Node000005" class="edge">
<title>Node2&#45;&gt;Node5</title>
<g id="a_edge4_Node000002_Node000005"><a xlink:title=" ">
<path fill="none" stroke="#63b8ff" d="M558.04,-330C573.97,-330 591.02,-330 607.01,-330"/>
<polygon fill="#63b8ff" stroke="#63b8ff" points="606.91,-333.5 616.91,-330 606.91,-326.5 606.91,-333.5"/>
</a>
</g>
</g>
<!-- Node6 -->
<g id="Node000006" class="node">
<title>Node6</title>
<g id="a_Node000006"><a xlink:href="class_fiea_1_1_engine_1_1_content_1_1_datum.html#a818f812e4489e57885c88951bc0601b3" target="_top" xlink:title=" ">
<polygon fill="white" stroke="#666666" points="895.25,-324 784,-324 784,-292 895.25,-292 895.25,-324"/>
<text xml:space="preserve" text-anchor="start" x="792" y="-310.5" font-family="Helvetica,sans-Serif" font-size="10.00">Fiea::Engine::Content</text>
<text xml:space="preserve" text-anchor="middle" x="839.62" y="-298.5" font-family="Helvetica,sans-Serif" font-size="10.00">::Datum::ResizeArray</text>
</a>
</g>
</g>
<!-- Node5&#45;&gt;Node6 -->
<g id="edge5_Node000005_Node000006" class="edge">
<title>Node5&#45;&gt;Node6</title>
<g id="a_edge5_Node000005_Node000006"><a xlink:title=" ">
<path fill="none" stroke="#63b8ff" d="M730.19,-322.61C743.78,-320.78 758.49,-318.8 772.56,-316.9"/>
<polygon fill="#63b8ff" stroke="#63b8ff" points="772.73,-320.41 782.18,-315.61 771.8,-313.47 772.73,-320.41"/>
</a>
</g>
</g>
<!-- Node7 -->
<g id="Node000007" class="node">
<title>Node7</title>
<g id="a_Node000007"><a xlink:href="class_fiea_1_1_engine_1_1_content_1_1_datum.html#a921193447f6e42f596ac0a7694b02830" target="_top" xlink:title=" ">
<polygon fill="white" stroke="#666666" points="1043.25,-346 932,-346 932,-314 1043.25,-314 1043.25,-346"/>
<text xml:space="preserve" text-anchor="start" x="940" y="-332.5" font-family="Helvetica,sans-Serif" font-size="10.00">Fiea::Engine::Content</text>
<text xml:space="preserve" text-anchor="middle" x="987.62" y="-320.5" font-family="Helvetica,sans-Serif" font-size="10.00">::Datum::Scope</text>
</a>
</g>
</g>
<!-- Node5&#45;&gt;Node7 -->
<g id="edge8_Node000005_Node000007" class="edge">
<title>Node5&#45;&gt;Node7</title>
<g id="a_edge8_Node000005_Node000007"><a xlink:title=" ">
<path fill="none" stroke="#63b8ff" d="M730.25,-331.82C747.24,-332.31 766.01,-332.76 783.25,-333 833.36,-333.7 845.9,-333.83 896,-333 903.81,-332.87 912,-332.68 920.12,-332.45"/>
<polygon fill="#63b8ff" stroke="#63b8ff" points="920.11,-335.96 930.01,-332.16 919.91,-328.96 920.11,-335.96"/>
</a>
</g>
</g>
<!-- Node6&#45;&gt;Node7 -->
<g id="edge6_Node000006_Node000007" class="edge">
<title>Node6&#45;&gt;Node7</title>
<g id="a_edge6_Node000006_Node000007"><a xlink:title=" ">
<path fill="none" stroke="#63b8ff" d="M895.41,-316.25C903.53,-317.48 911.97,-318.75 920.3,-320.01"/>
<polygon fill="#63b8ff" stroke="#63b8ff" points="919.63,-323.44 930.04,-321.47 920.67,-316.52 919.63,-323.44"/>
</a>
</g>
</g>
<!-- Node7&#45;&gt;Node7 -->
<g id="edge7_Node000007_Node000007" class="edge">
<title>Node7&#45;&gt;Node7</title>
<g id="a_edge7_Node000007_Node000007"><a xlink:title=" ">
<path fill="none" stroke="#63b8ff" d="M961.2,-346.44C956.27,-355.58 965.08,-364 987.62,-364 999.96,-364 1008.18,-361.48 1012.29,-357.71"/>
<polygon fill="#63b8ff" stroke="#63b8ff" points="1015.73,-358.36 1013.81,-347.94 1008.81,-357.28 1015.73,-358.36"/>
</a>
</g>
</g>
<!-- Node8&#45;&gt;Node2 -->
<g id="edge10_Node000008_Node000002" class="edge">
<title>Node8&#45;&gt;Node2</title>
<g id="a_edge10_Node000008_Node000002"><a xlink:title=" ">
<path fill="none" stroke="#63b8ff" d="M311.36,-226.35C336.37,-248.78 377.6,-283.08 418.25,-305 420.91,-306.43 423.67,-307.81 426.48,-309.13"/>
<polygon fill="#63b8ff" stroke="#63b8ff" points="424.92,-312.27 435.49,-313.03 427.71,-305.84 424.92,-312.27"/>
</a>
</g>
</g>
<!-- Node8&#45;&gt;Node9 -->
<g id="edge11_Node000008_Node000009" class="edge">
<title>Node8&#45;&gt;Node9</title>
<g id="a_edge11_Node000008_Node000009"><a xlink:title=" ">
<path fill="none" stroke="#63b8ff" d="M343.62,-226.46C366.67,-235.54 393.66,-245.98 418.25,-255 422.62,-256.6 427.14,-258.23 431.7,-259.85"/>
<polygon fill="#63b8ff" stroke="#63b8ff" points="430.32,-263.08 440.91,-263.09 432.64,-256.47 430.32,-263.08"/>
</a>
</g>
</g>
<!-- Node8&#45;&gt;Node14 -->
<g id="edge21_Node000008_Node000014" class="edge">
<title>Node8&#45;&gt;Node14</title>
<g id="a_edge21_Node000008_Node000014"><a xlink:title=" ">
<path fill="none" stroke="#63b8ff" d="M357.74,-199.41C428.92,-193.54 533.02,-181.23 565.5,-158 593,-138.33 576.59,-113.86 601.5,-91 608.62,-84.46 617.34,-79.16 626.22,-74.92"/>
<polygon fill="#63b8ff" stroke="#63b8ff" points="627.44,-78.2 635.23,-71.02 624.66,-71.78 627.44,-78.2"/>
</a>
</g>
</g>
<!-- Node8&#45;&gt;Node17 -->
<g id="edge24_Node000008_Node000017" class="edge">
<title>Node8&#45;&gt;Node17</title>
<g id="a_edge24_Node000008_Node000017"><a xlink:title=" ">
<path fill="none" stroke="#63b8ff" d="M357.87,-183.17C366.21,-180.06 374.5,-176.66 382.25,-173 409.63,-160.07 438.47,-141.49 459.54,-126.87"/>
<polygon fill="#63b8ff" stroke="#63b8ff" points="461.54,-129.75 467.7,-121.13 457.51,-124.02 461.54,-129.75"/>
</a>
</g>
</g>
<!-- Node9&#45;&gt;Node3 -->
<g id="edge12_Node000009_Node000003" class="edge">
<title>Node9&#45;&gt;Node3</title>
<g id="a_edge12_Node000009_Node000003"><a xlink:title=" ">
<path fill="none" stroke="#63b8ff" d="M550.49,-294.17C555.99,-297.13 561.13,-300.69 565.5,-305 599.13,-338.17 567.92,-371.78 601.5,-405 603.71,-407.19 606.13,-409.19 608.69,-411.01"/>
<polygon fill="#63b8ff" stroke="#63b8ff" points="606.82,-413.97 617.2,-416.1 610.41,-407.96 606.82,-413.97"/>
</a>
</g>
</g>
<!-- Node9&#45;&gt;Node4 -->
<g id="edge13_Node000009_Node000004" class="edge">
<title>Node9&#45;&gt;Node4</title>
<g id="a_edge13_Node000009_Node000004"><a xlink:title=" ">
<path fill="none" stroke="#63b8ff" d="M550.48,-296.02C555.79,-298.6 560.9,-301.58 565.5,-305 587.48,-321.33 579.55,-338.63 601.5,-355 603.77,-356.69 606.16,-358.28 608.65,-359.76"/>
<polygon fill="#63b8ff" stroke="#63b8ff" points="606.75,-362.72 617.23,-364.28 610.01,-356.53 606.75,-362.72"/>
</a>
</g>
</g>
<!-- Node9&#45;&gt;Node5 -->
<g id="edge15_Node000009_Node000005" class="edge">
<title>Node9&#45;&gt;Node5</title>
<g id="a_edge15_Node000009_Node000005"><a xlink:title=" ">
<path fill="none" stroke="#63b8ff" d="M550.48,-295.96C568.6,-300.98 588.74,-306.55 607.38,-311.72"/>
<polygon fill="#63b8ff" stroke="#63b8ff" points="606.44,-315.09 617.01,-314.39 608.3,-308.34 606.44,-315.09"/>
</a>
</g>
</g>
<!-- Node10 -->
<g id="Node000010" class="node">
<title>Node10</title>
<g id="a_Node000010"><a xlink:href="class_fiea_1_1_engine_1_1_content_1_1_datum.html#a6e9dfba6e16fddc4efc39b8182dad89f" target="_top" xlink:title=" ">
<polygon fill="white" stroke="#666666" points="730,-296 618.75,-296 618.75,-264 730,-264 730,-296"/>
<text xml:space="preserve" text-anchor="start" x="626.75" y="-282.5" font-family="Helvetica,sans-Serif" font-size="10.00">Fiea::Engine::Content</text>
<text xml:space="preserve" text-anchor="middle" x="674.38" y="-270.5" font-family="Helvetica,sans-Serif" font-size="10.00">::Datum::IsType</text>
</a>
</g>
</g>
<!-- Node9&#45;&gt;Node10 -->
<g id="edge14_Node000009_Node000010" class="edge">
<title>Node9&#45;&gt;Node10</title>
<g id="a_edge14_Node000009_Node000010"><a xlink:title=" ">
<path fill="none" stroke="#63b8ff" d="M550.48,-280C568.51,-280 588.55,-280 607.12,-280"/>
<polygon fill="#63b8ff" stroke="#63b8ff" points="606.95,-283.5 616.95,-280 606.95,-276.5 606.95,-283.5"/>
</a>
</g>
</g>
<!-- Node11 -->
<g id="Node000011" class="node">
<title>Node11</title>
<g id="a_Node000011"><a xlink:href="class_fiea_1_1_engine_1_1_content_1_1_scope.html#a6631343c968c233ab1d9c3e05c3f4fe9" target="_top" xlink:title=" ">
<polygon fill="white" stroke="#666666" points="895.25,-208 784,-208 784,-176 895.25,-176 895.25,-208"/>
<text xml:space="preserve" text-anchor="start" x="792" y="-194.5" font-family="Helvetica,sans-Serif" font-size="10.00">Fiea::Engine::Content</text>
<text xml:space="preserve" text-anchor="middle" x="839.62" y="-182.5" font-family="Helvetica,sans-Serif" font-size="10.00">::Scope::Scope</text>
</a>
</g>
</g>
<!-- Node9&#45;&gt;Node11 -->
<g id="edge16_Node000009_Node000011" class="edge">
<title>Node9&#45;&gt;Node11</title>
<g id="a_edge16_Node000009_Node000011"><a xlink:title=" ">
<path fill="none" stroke="#63b8ff" d="M550.56,-266.14C602.19,-253.63 679.89,-234.55 747.25,-217 755.44,-214.87 764.03,-212.58 772.52,-210.29"/>
<polygon fill="#63b8ff" stroke="#63b8ff" points="773.4,-213.68 782.14,-207.68 771.57,-206.92 773.4,-213.68"/>
</a>
</g>
</g>
<!-- Node12 -->
<g id="Node000012" class="node">
<title>Node12</title>
<g id="a_Node000012"><a xlink:href="class_fiea_1_1_engine_1_1_content_1_1_scope.html#af6a94922a8fa123c3b22b7b4485963de" target="_top" xlink:title=" ">
<polygon fill="white" stroke="#666666" points="730,-208 618.75,-208 618.75,-176 730,-176 730,-208"/>
<text xml:space="preserve" text-anchor="start" x="626.75" y="-194.5" font-family="Helvetica,sans-Serif" font-size="10.00">Fiea::Engine::Content</text>
<text xml:space="preserve" text-anchor="middle" x="674.38" y="-182.5" font-family="Helvetica,sans-Serif" font-size="10.00">::Scope::SetParent</text>
</a>
</g>
</g>
<!-- Node9&#45;&gt;Node12 -->
<g id="edge18_Node000009_Node000012" class="edge">
<title>Node9&#45;&gt;Node12</title>
<g id="a_edge18_Node000009_Node000012"><a xlink:title=" ">
<path fill="none" stroke="#63b8ff" d="M548.29,-263.63C554.26,-261.08 560.11,-258.2 565.5,-255 584.15,-243.9 583.21,-233.69 601.5,-222 606.36,-218.89 611.6,-215.99 616.95,-213.31"/>
<polygon fill="#63b8ff" stroke="#63b8ff" points="618.39,-216.5 625.94,-209.07 615.41,-210.16 618.39,-216.5"/>
</a>
</g>
</g>
<!-- Node13 -->
<g id="Node000013" class="node">
<title>Node13</title>
<g id="a_Node000013"><a xlink:href="class_fiea_1_1_engine_1_1_content_1_1_datum.html#a23d1f16d9646f024a5dee1f05dbd5a5e" target="_top" xlink:title=" ">
<polygon fill="white" stroke="#666666" points="730,-158 618.75,-158 618.75,-126 730,-126 730,-158"/>
<text xml:space="preserve" text-anchor="start" x="626.75" y="-144.5" font-family="Helvetica,sans-Serif" font-size="10.00">Fiea::Engine::Content</text>
<text xml:space="preserve" text-anchor="middle" x="674.38" y="-132.5" font-family="Helvetica,sans-Serif" font-size="10.00">::Datum::SetType</text>
</a>
</g>
</g>
<!-- Node9&#45;&gt;Node13 -->
<g id="edge20_Node000009_Node000013" class="edge">
<title>Node9&#45;&gt;Node13</title>
<g id="a_edge20_Node000009_Node000013"><a xlink:title=" ">
<path fill="none" stroke="#63b8ff" d="M550.31,-265.64C555.84,-262.72 561.04,-259.21 565.5,-255 596.22,-225.98 570.83,-196.07 601.5,-167 603.72,-164.9 606.12,-162.97 608.65,-161.21"/>
<polygon fill="#63b8ff" stroke="#63b8ff" points="610.19,-164.37 617.03,-156.27 606.63,-158.34 610.19,-164.37"/>
</a>
</g>
</g>
<!-- Node11&#45;&gt;Node11 -->
<g id="edge17_Node000011_Node000011" class="edge">
<title>Node11&#45;&gt;Node11</title>
<g id="a_edge17_Node000011_Node000011"><a xlink:title=" ">
<path fill="none" stroke="#63b8ff" d="M813.2,-208.44C808.27,-217.58 817.08,-226 839.62,-226 851.96,-226 860.18,-223.48 864.29,-219.71"/>
<polygon fill="#63b8ff" stroke="#63b8ff" points="867.73,-220.36 865.81,-209.94 860.81,-219.28 867.73,-220.36"/>
</a>
</g>
</g>
<!-- Node12&#45;&gt;Node11 -->
<g id="edge19_Node000012_Node000011" class="edge">
<title>Node12&#45;&gt;Node11</title>
<g id="a_edge19_Node000012_Node000011"><a xlink:title=" ">
<path fill="none" stroke="#63b8ff" d="M730.19,-192C743.78,-192 758.49,-192 772.56,-192"/>
<polygon fill="#63b8ff" stroke="#63b8ff" points="772.16,-195.5 782.16,-192 772.16,-188.5 772.16,-195.5"/>
</a>
</g>
</g>
<!-- Node15 -->
<g id="Node000015" class="node">
<title>Node15</title>
<g id="a_Node000015"><a xlink:href="class_fiea_1_1_engine_1_1_r_t_t_i.html#ac0a7d875e4513b2aca7594abcd4418ef" target="_top" xlink:title=" ">
<polygon fill="white" stroke="#666666" points="896,-92 783.25,-92 783.25,-72 896,-72 896,-92"/>
<text xml:space="preserve" text-anchor="middle" x="839.62" y="-78.5" font-family="Helvetica,sans-Serif" font-size="10.00">Fiea::Engine::RTTI::Is</text>
</a>
</g>
</g>
<!-- Node14&#45;&gt;Node15 -->
<g id="edge22_Node000014_Node000015" class="edge">
<title>Node14&#45;&gt;Node15</title>
<g id="a_edge22_Node000014_Node000015"><a xlink:title=" ">
<path fill="none" stroke="#63b8ff" d="M732.93,-67.76C745.5,-69.45 758.9,-71.26 771.79,-72.99"/>
<polygon fill="#63b8ff" stroke="#63b8ff" points="771.08,-76.43 781.46,-74.3 772.02,-69.49 771.08,-76.43"/>
</a>
</g>
</g>
<!-- Node16 -->
<g id="Node000016" class="node">
<title>Node16</title>
<g id="a_Node000016"><a xlink:href="class_fiea_1_1_engine_1_1_r_t_t_i.html#a13000029a2e6cced30b831e466e07cae" target="_top" xlink:title=" ">
<polygon fill="white" stroke="#666666" points="888.88,-54 790.38,-54 790.38,-22 888.88,-22 888.88,-54"/>
<text xml:space="preserve" text-anchor="start" x="798.38" y="-40.5" font-family="Helvetica,sans-Serif" font-size="10.00">Fiea::Engine::RTTI</text>
<text xml:space="preserve" text-anchor="middle" x="839.62" y="-28.5" font-family="Helvetica,sans-Serif" font-size="10.00">::RTTI</text>
</a>
</g>
</g>
<!-- Node14&#45;&gt;Node16 -->
<g id="edge23_Node000014_Node000016" class="edge">
<title>Node14&#45;&gt;Node16</title>
<g id="a_edge23_Node000014_Node000016"><a xlink:title=" ">
<path fill="none" stroke="#63b8ff" d="M732.93,-52.24C747.78,-50.24 763.8,-48.08 778.76,-46.07"/>
<polygon fill="#63b8ff" stroke="#63b8ff" points="779.02,-49.56 788.46,-44.76 778.09,-42.63 779.02,-49.56"/>
</a>
</g>
</g>
<!-- Node18&#45;&gt;Node2 -->
<g id="edge26_Node000018_Node000002" class="edge">
<title>Node18&#45;&gt;Node2</title>
<g id="a_edge26_Node000018_Node000002"><a xlink:title=" ">
<path fill="none" stroke="#63b8ff" d="M371.48,-164.46C375.36,-166.94 378.99,-169.77 382.25,-173 425.43,-215.82 376.68,-260.62 418.25,-305 418.73,-305.52 419.23,-306.02 419.74,-306.52"/>
<polygon fill="#63b8ff" stroke="#63b8ff" points="417.55,-309.25 427.56,-312.73 421.9,-303.77 417.55,-309.25"/>
</a>
</g>
</g>
<!-- Node18&#45;&gt;Node9 -->
<g id="edge27_Node000018_Node000009" class="edge">
<title>Node18&#45;&gt;Node9</title>
<g id="a_edge27_Node000018_Node000009"><a xlink:title=" ">
<path fill="none" stroke="#63b8ff" d="M369.58,-164.29C374.1,-166.8 378.37,-169.68 382.25,-173 412.5,-198.87 388.97,-228.04 418.25,-255 419.91,-256.52 421.66,-257.96 423.49,-259.3"/>
<polygon fill="#63b8ff" stroke="#63b8ff" points="421.56,-262.23 431.9,-264.53 425.26,-256.28 421.56,-262.23"/>
</a>
</g>
</g>
<!-- Node18&#45;&gt;Node14 -->
<g id="edge28_Node000018_Node000014" class="edge">
<title>Node18&#45;&gt;Node14</title>
<g id="a_edge28_Node000018_Node000014"><a xlink:title=" ">
<path fill="none" stroke="#63b8ff" d="M382.54,-158.23C438.35,-160.25 508.83,-155.7 565.5,-129 586.55,-119.08 582.43,-104.32 601.5,-91 610.59,-84.65 621.2,-79.19 631.42,-74.71"/>
<polygon fill="#63b8ff" stroke="#63b8ff" points="632.56,-78.03 640.47,-70.97 629.89,-71.56 632.56,-78.03"/>
</a>
</g>
</g>
<!-- Node18&#45;&gt;Node17 -->
<g id="edge34_Node000018_Node000017" class="edge">
<title>Node18&#45;&gt;Node17</title>
<g id="a_edge34_Node000018_Node000017"><a xlink:title=" ">
<path fill="none" stroke="#63b8ff" d="M363.52,-131.55C377.72,-128.48 392.64,-125.25 407.07,-122.13"/>
<polygon fill="#63b8ff" stroke="#63b8ff" points="407.47,-125.63 416.5,-120.09 405.99,-118.78 407.47,-125.63"/>
</a>
</g>
</g>
<!-- Node18&#45;&gt;Node19 -->
<g id="edge29_Node000018_Node000019" class="edge">
<title>Node18&#45;&gt;Node19</title>
<g id="a_edge29_Node000018_Node000019"><a xlink:title=" ">
<path fill="none" stroke="#63b8ff" d="M312.85,-131.55C348.95,-108.12 415.3,-65.05 456.01,-38.63"/>
<polygon fill="#63b8ff" stroke="#63b8ff" points="457.78,-41.65 464.26,-33.27 453.97,-35.78 457.78,-41.65"/>
</a>
</g>
</g>
<!-- Node21 -->
<g id="Node000021" class="node">
<title>Node21</title>
<g id="a_Node000021"><a xlink:href="class_fiea_1_1_engine_1_1_content_1_1_scope.html#ac4627f740867a929957ce0647f436e02" target="_top" xlink:title=" ">
<polygon fill="white" stroke="#666666" points="547.5,-246 436.25,-246 436.25,-214 547.5,-214 547.5,-246"/>
<text xml:space="preserve" text-anchor="start" x="444.25" y="-232.5" font-family="Helvetica,sans-Serif" font-size="10.00">Fiea::Engine::Content</text>
<text xml:space="preserve" text-anchor="middle" x="491.88" y="-220.5" font-family="Helvetica,sans-Serif" font-size="10.00">::Scope::GetParent</text>
</a>
</g>
</g>
<!-- Node18&#45;&gt;Node21 -->
<g id="edge32_Node000018_Node000021" class="edge">
<title>Node18&#45;&gt;Node21</title>
<g id="a_edge32_Node000018_Node000021"><a xlink:title=" ">
<path fill="none" stroke="#63b8ff" d="M357.16,-164.45C365.71,-167.03 374.24,-169.89 382.25,-173 407.04,-182.63 433.5,-196.44 454.1,-208.04"/>
<polygon fill="#63b8ff" stroke="#63b8ff" points="452.27,-211.03 462.68,-212.96 455.74,-204.95 452.27,-211.03"/>
</a>
</g>
</g>
<!-- Node19&#45;&gt;Node14 -->
<g id="edge30_Node000019_Node000014" class="edge">
<title>Node19&#45;&gt;Node14</title>
<g id="a_edge30_Node000019_Node000014"><a xlink:title=" ">
<path fill="none" stroke="#63b8ff" d="M555.5,-31.27C576.28,-36.33 599.22,-41.92 619.3,-46.82"/>
<polygon fill="#63b8ff" stroke="#63b8ff" points="618.43,-50.21 628.97,-49.18 620.08,-43.41 618.43,-50.21"/>
</a>
</g>
</g>
<!-- Node20 -->
<g id="Node000020" class="node">
<title>Node20</title>
<g id="a_Node000020"><a xlink:href="struct_fiea_1_1_engine_1_1_content_1_1_i_factory_service.html#a287380a07bd649e87bba6b3762554c20" target="_top" xlink:title=" ">
<polygon fill="white" stroke="#666666" points="747.25,-32 601.5,-32 601.5,0 747.25,0 747.25,-32"/>
<text xml:space="preserve" text-anchor="start" x="609.5" y="-18.5" font-family="Helvetica,sans-Serif" font-size="10.00">Fiea::Engine::Content</text>
<text xml:space="preserve" text-anchor="middle" x="674.38" y="-6.5" font-family="Helvetica,sans-Serif" font-size="10.00">::IFactoryService::GetFactory</text>
</a>
</g>
</g>
<!-- Node19&#45;&gt;Node20 -->
<g id="edge31_Node000019_Node000020" class="edge">
<title>Node19&#45;&gt;Node20</title>
<g id="a_edge31_Node000019_Node000020"><a xlink:title=" ">
<path fill="none" stroke="#63b8ff" d="M555.5,-16C566.57,-16 578.26,-16 589.8,-16"/>
<polygon fill="#63b8ff" stroke="#63b8ff" points="589.75,-19.5 599.75,-16 589.75,-12.5 589.75,-19.5"/>
</a>
</g>
</g>
<!-- Node21&#45;&gt;Node11 -->
<g id="edge33_Node000021_Node000011" class="edge">
<title>Node21&#45;&gt;Node11</title>
<g id="a_edge33_Node000021_Node000011"><a xlink:title=" ">
<path fill="none" stroke="#63b8ff" d="M546.25,-213.68C553.28,-209.96 559.95,-205.45 565.5,-200 594.18,-171.82 567.88,-139.06 601.5,-117 655.66,-81.46 686.26,-95.17 747.25,-117 775.15,-126.98 800.64,-149.56 817.57,-167.35"/>
<polygon fill="#63b8ff" stroke="#63b8ff" points="814.8,-169.51 824.14,-174.51 819.96,-164.78 814.8,-169.51"/>
</a>
</g>
</g>
</g>
</svg>
