<?xml version="1.0" encoding="UTF-8" standalone="no"?>
<!DOCTYPE svg PUBLIC "-//W3C//DTD SVG 1.1//EN"
 "http://www.w3.org/Graphics/SVG/1.1/DTD/svg11.dtd">
<!-- Generated by graphviz version 13.1.0 (20250701.0955)
 -->
<!-- Title: Fiea::Engine::Actions::ActionConditionalIncrement::ActionConditionalIncrement Pages: 1 -->
<svg width="328pt" height="238pt"
 viewBox="0.00 0.00 328.00 238.00" xmlns="http://www.w3.org/2000/svg" xmlns:xlink="http://www.w3.org/1999/xlink">
<g id="graph0" class="graph" transform="scale(1 1) rotate(0) translate(4 234)">
<title>Fiea::Engine::Actions::ActionConditionalIncrement::ActionConditionalIncrement</title>
<!-- Node1 -->
<g id="Node000001" class="node">
<title>Node1</title>
<g id="a_Node000001"><a xlink:title=" ">
<polygon fill="#999999" stroke="#666666" points="320,-137 178,-137 178,-93 320,-93 320,-137"/>
<text xml:space="preserve" text-anchor="start" x="186" y="-123.5" font-family="Helvetica,sans-Serif" font-size="10.00">Fiea::Engine::Actions</text>
<text xml:space="preserve" text-anchor="start" x="186" y="-111.5" font-family="Helvetica,sans-Serif" font-size="10.00">::ActionConditionalIncrement</text>
<text xml:space="preserve" text-anchor="middle" x="249" y="-99.5" font-family="Helvetica,sans-Serif" font-size="10.00">::ActionConditionalIncrement</text>
</a>
</g>
</g>
<!-- Node2 -->
<g id="Node000002" class="node">
<title>Node2</title>
<g id="a_Node000002"><a xlink:href="class_fiea_1_1_engine_1_1_actions_1_1_action_conditional_increment.html#a76b2ae8bdb6e74e5a004cbc85143ae47" target="_top" xlink:title=" ">
<polygon fill="white" stroke="#666666" points="142,-230 0,-230 0,-186 142,-186 142,-230"/>
<text xml:space="preserve" text-anchor="start" x="8" y="-216.5" font-family="Helvetica,sans-Serif" font-size="10.00">Fiea::Engine::Actions</text>
<text xml:space="preserve" text-anchor="start" x="8" y="-204.5" font-family="Helvetica,sans-Serif" font-size="10.00">::ActionConditionalIncrement</text>
<text xml:space="preserve" text-anchor="middle" x="71" y="-192.5" font-family="Helvetica,sans-Serif" font-size="10.00">::ActionConditionalIncrement</text>
</a>
</g>
</g>
<!-- Node1&#45;&gt;Node2 -->
<g id="edge1_Node000001_Node000002" class="edge">
<title>Node1&#45;&gt;Node2</title>
<g id="a_edge1_Node000001_Node000002"><a xlink:title=" ">
<path fill="none" stroke="#63b8ff" d="M202.61,-143.06C184.08,-154.12 162.27,-166.63 142,-177 136.32,-179.91 130.31,-182.81 124.29,-185.62"/>
<polygon fill="#63b8ff" stroke="#63b8ff" points="204.19,-146.19 210.96,-138.04 200.59,-140.19 204.19,-146.19"/>
</a>
</g>
</g>
<!-- Node3 -->
<g id="Node000003" class="node">
<title>Node3</title>
<g id="a_Node000003"><a xlink:href="class_fiea_1_1_engine_1_1_actions_1_1_action_conditional_increment.html#a07240e1ab7713d972e7e7431e4fa6e1e" target="_top" xlink:title=" ">
<polygon fill="white" stroke="#666666" points="142,-168 0,-168 0,-124 142,-124 142,-168"/>
<text xml:space="preserve" text-anchor="start" x="8" y="-154.5" font-family="Helvetica,sans-Serif" font-size="10.00">Fiea::Engine::Actions</text>
<text xml:space="preserve" text-anchor="start" x="8" y="-142.5" font-family="Helvetica,sans-Serif" font-size="10.00">::ActionConditionalIncrement</text>
<text xml:space="preserve" text-anchor="middle" x="71" y="-130.5" font-family="Helvetica,sans-Serif" font-size="10.00">::ActionConditionalIncrement</text>
</a>
</g>
</g>
<!-- Node1&#45;&gt;Node3 -->
<g id="edge2_Node000001_Node000003" class="edge">
<title>Node1&#45;&gt;Node3</title>
<g id="a_edge2_Node000001_Node000003"><a xlink:title=" ">
<path fill="none" stroke="#63b8ff" d="M166.45,-129.36C158.44,-130.77 150.37,-132.2 142.49,-133.58"/>
<polygon fill="#63b8ff" stroke="#63b8ff" points="166.95,-132.83 176.19,-127.65 165.74,-125.94 166.95,-132.83"/>
</a>
</g>
</g>
<!-- Node4 -->
<g id="Node000004" class="node">
<title>Node4</title>
<g id="a_Node000004"><a xlink:href="class_fiea_1_1_engine_1_1_actions_1_1_action_conditional_increment.html#ae2f238baa3780e0cc4904327deea7db1" target="_top" xlink:title=" ">
<polygon fill="white" stroke="#666666" points="142,-106 0,-106 0,-62 142,-62 142,-106"/>
<text xml:space="preserve" text-anchor="start" x="8" y="-92.5" font-family="Helvetica,sans-Serif" font-size="10.00">Fiea::Engine::Actions</text>
<text xml:space="preserve" text-anchor="start" x="8" y="-80.5" font-family="Helvetica,sans-Serif" font-size="10.00">::ActionConditionalIncrement</text>
<text xml:space="preserve" text-anchor="middle" x="71" y="-68.5" font-family="Helvetica,sans-Serif" font-size="10.00">::operator=</text>
</a>
</g>
</g>
<!-- Node1&#45;&gt;Node4 -->
<g id="edge3_Node000001_Node000004" class="edge">
<title>Node1&#45;&gt;Node4</title>
<g id="a_edge3_Node000001_Node000004"><a xlink:title=" ">
<path fill="none" stroke="#63b8ff" d="M166.45,-100.64C158.44,-99.23 150.37,-97.8 142.49,-96.42"/>
<polygon fill="#63b8ff" stroke="#63b8ff" points="165.74,-104.06 176.19,-102.35 166.95,-97.17 165.74,-104.06"/>
</a>
</g>
</g>
<!-- Node5 -->
<g id="Node000005" class="node">
<title>Node5</title>
<g id="a_Node000005"><a xlink:href="class_fiea_1_1_engine_1_1_actions_1_1_action_conditional_increment.html#a1aa9d77a7d7c92f8a3920edb5377ab1a" target="_top" xlink:title=" ">
<polygon fill="white" stroke="#666666" points="142,-44 0,-44 0,0 142,0 142,-44"/>
<text xml:space="preserve" text-anchor="start" x="8" y="-30.5" font-family="Helvetica,sans-Serif" font-size="10.00">Fiea::Engine::Actions</text>
<text xml:space="preserve" text-anchor="start" x="8" y="-18.5" font-family="Helvetica,sans-Serif" font-size="10.00">::ActionConditionalIncrement</text>
<text xml:space="preserve" text-anchor="middle" x="71" y="-6.5" font-family="Helvetica,sans-Serif" font-size="10.00">::operator=</text>
</a>
</g>
</g>
<!-- Node1&#45;&gt;Node5 -->
<g id="edge4_Node000001_Node000005" class="edge">
<title>Node1&#45;&gt;Node5</title>
<g id="a_edge4_Node000001_Node000005"><a xlink:title=" ">
<path fill="none" stroke="#63b8ff" d="M202.61,-86.94C184.08,-75.88 162.27,-63.37 142,-53 136.32,-50.09 130.31,-47.19 124.29,-44.38"/>
<polygon fill="#63b8ff" stroke="#63b8ff" points="200.59,-89.81 210.96,-91.96 204.19,-83.81 200.59,-89.81"/>
</a>
</g>
</g>
</g>
</svg>
