<?xml version="1.0" encoding="UTF-8" standalone="no"?>
<!DOCTYPE svg PUBLIC "-//W3C//DTD SVG 1.1//EN"
 "http://www.w3.org/Graphics/SVG/1.1/DTD/svg11.dtd">
<!-- Generated by graphviz version 13.1.0 (20250701.0955)
 -->
<!-- Title: Fiea::Engine::Actions::ActionAddDatum::ActionAddDatum Pages: 1 -->
<svg width="750pt" height="220pt"
 viewBox="0.00 0.00 750.00 220.00" xmlns="http://www.w3.org/2000/svg" xmlns:xlink="http://www.w3.org/1999/xlink">
<g id="graph0" class="graph" transform="scale(1 1) rotate(0) translate(4 216)">
<title>Fiea::Engine::Actions::ActionAddDatum::ActionAddDatum</title>
<!-- Node1 -->
<g id="Node000001" class="node">
<title>Node1</title>
<g id="a_Node000001"><a xlink:title=" ">
<polygon fill="#999999" stroke="#666666" points="147.25,-154 0,-154 0,-110 147.25,-110 147.25,-154"/>
<text xml:space="preserve" text-anchor="start" x="8" y="-140.5" font-family="Helvetica,sans-Serif" font-size="10.00">Fiea::Engine::Actions</text>
<text xml:space="preserve" text-anchor="start" x="8" y="-128.5" font-family="Helvetica,sans-Serif" font-size="10.00">::ActionAddDatum::ActionAdd</text>
<text xml:space="preserve" text-anchor="middle" x="73.62" y="-116.5" font-family="Helvetica,sans-Serif" font-size="10.00">Datum</text>
</a>
</g>
</g>
<!-- Node2 -->
<g id="Node000002" class="node">
<title>Node2</title>
<g id="a_Node000002"><a xlink:href="class_fiea_1_1_engine_1_1_actions_1_1_action.html#ae2af386f7122152003b00da79393e19e" target="_top" xlink:title=" ">
<polygon fill="white" stroke="#666666" points="293,-170 183.25,-170 183.25,-138 293,-138 293,-170"/>
<text xml:space="preserve" text-anchor="start" x="191.25" y="-156.5" font-family="Helvetica,sans-Serif" font-size="10.00">Fiea::Engine::Actions</text>
<text xml:space="preserve" text-anchor="middle" x="238.12" y="-144.5" font-family="Helvetica,sans-Serif" font-size="10.00">::Action::Action</text>
</a>
</g>
</g>
<!-- Node1&#45;&gt;Node2 -->
<g id="edge1_Node000001_Node000002" class="edge">
<title>Node1&#45;&gt;Node2</title>
<g id="a_edge1_Node000001_Node000002"><a xlink:title=" ">
<path fill="none" stroke="#63b8ff" d="M147.32,-141.84C155.48,-142.95 163.75,-144.07 171.8,-145.16"/>
<polygon fill="#63b8ff" stroke="#63b8ff" points="171.13,-148.6 181.51,-146.47 172.07,-141.66 171.13,-148.6"/>
</a>
</g>
</g>
<!-- Node4 -->
<g id="Node000004" class="node">
<title>Node4</title>
<g id="a_Node000004"><a xlink:href="class_fiea_1_1_engine_1_1_r_t_t_i.html#a876bebbe7b3149483c43a87f55f4ea99" target="_top" xlink:title=" ">
<polygon fill="white" stroke="#666666" points="434.25,-126 335.75,-126 335.75,-94 434.25,-94 434.25,-126"/>
<text xml:space="preserve" text-anchor="start" x="343.75" y="-112.5" font-family="Helvetica,sans-Serif" font-size="10.00">Fiea::Engine::RTTI</text>
<text xml:space="preserve" text-anchor="middle" x="385" y="-100.5" font-family="Helvetica,sans-Serif" font-size="10.00">::TypeIdInstance</text>
</a>
</g>
</g>
<!-- Node1&#45;&gt;Node4 -->
<g id="edge14_Node000001_Node000004" class="edge">
<title>Node1&#45;&gt;Node4</title>
<g id="a_edge14_Node000001_Node000004"><a xlink:title=" ">
<path fill="none" stroke="#63b8ff" d="M147.55,-126.81C201.41,-122.98 273.84,-117.83 324.28,-114.25"/>
<polygon fill="#63b8ff" stroke="#63b8ff" points="324.41,-117.75 334.14,-113.55 323.92,-110.76 324.41,-117.75"/>
</a>
</g>
</g>
<!-- Node3 -->
<g id="Node000003" class="node">
<title>Node3</title>
<g id="a_Node000003"><a xlink:href="class_fiea_1_1_engine_1_1_content_1_1_attributed.html#ad1ae014235d9d8b62b36066c94164148" target="_top" xlink:title=" ">
<polygon fill="white" stroke="#666666" points="441,-194 329,-194 329,-162 441,-162 441,-194"/>
<text xml:space="preserve" text-anchor="start" x="337" y="-180.5" font-family="Helvetica,sans-Serif" font-size="10.00">Fiea::Engine::Content</text>
<text xml:space="preserve" text-anchor="middle" x="385" y="-168.5" font-family="Helvetica,sans-Serif" font-size="10.00">::Attributed::Attributed</text>
</a>
</g>
</g>
<!-- Node2&#45;&gt;Node3 -->
<g id="edge2_Node000002_Node000003" class="edge">
<title>Node2&#45;&gt;Node3</title>
<g id="a_edge2_Node000002_Node000003"><a xlink:title=" ">
<path fill="none" stroke="#63b8ff" d="M293.48,-163C301.34,-164.31 309.5,-165.66 317.57,-166.99"/>
<polygon fill="#63b8ff" stroke="#63b8ff" points="316.92,-170.44 327.36,-168.62 318.07,-163.53 316.92,-170.44"/>
</a>
</g>
</g>
<!-- Node2&#45;&gt;Node4 -->
<g id="edge4_Node000002_Node000004" class="edge">
<title>Node2&#45;&gt;Node4</title>
<g id="a_edge4_Node000002_Node000004"><a xlink:title=" ">
<path fill="none" stroke="#63b8ff" d="M293.07,-137.62C303.34,-134.5 314.14,-131.22 324.57,-128.05"/>
<polygon fill="#63b8ff" stroke="#63b8ff" points="325.27,-131.5 333.82,-125.24 323.23,-124.8 325.27,-131.5"/>
</a>
</g>
</g>
<!-- Node3&#45;&gt;Node3 -->
<g id="edge3_Node000003_Node000003" class="edge">
<title>Node3&#45;&gt;Node3</title>
<g id="a_edge3_Node000003_Node000003"><a xlink:title=" ">
<path fill="none" stroke="#63b8ff" d="M358.78,-194.44C353.88,-203.58 362.62,-212 385,-212 397.24,-212 405.4,-209.48 409.48,-205.71"/>
<polygon fill="#63b8ff" stroke="#63b8ff" points="412.92,-206.36 410.99,-195.94 406,-205.28 412.92,-206.36"/>
</a>
</g>
</g>
<!-- Node4&#45;&gt;Node4 -->
<g id="edge13_Node000004_Node000004" class="edge">
<title>Node4&#45;&gt;Node4</title>
<g id="a_edge13_Node000004_Node000004"><a xlink:title=" ">
<path fill="none" stroke="#63b8ff" d="M358.78,-126.44C353.88,-135.58 362.62,-144 385,-144 397.24,-144 405.4,-141.48 409.48,-137.71"/>
<polygon fill="#63b8ff" stroke="#63b8ff" points="412.92,-138.36 410.99,-127.94 406,-137.28 412.92,-138.36"/>
</a>
</g>
</g>
<!-- Node5 -->
<g id="Node000005" class="node">
<title>Node5</title>
<g id="a_Node000005"><a xlink:href="class_fiea_1_1_engine_1_1_r_t_t_i.html#a15bd5993c8ad04da47af440298ebbb30" target="_top" xlink:title=" ">
<polygon fill="white" stroke="#666666" points="593.5,-158 477,-158 477,-138 593.5,-138 593.5,-158"/>
<text xml:space="preserve" text-anchor="middle" x="535.25" y="-144.5" font-family="Helvetica,sans-Serif" font-size="10.00">Fiea::Engine::RTTI::As</text>
</a>
</g>
</g>
<!-- Node4&#45;&gt;Node5 -->
<g id="edge5_Node000004_Node000005" class="edge">
<title>Node4&#45;&gt;Node5</title>
<g id="a_edge5_Node000004_Node000005"><a xlink:title=" ">
<path fill="none" stroke="#63b8ff" d="M434.54,-122.44C449.9,-126.38 466.93,-130.74 482.5,-134.74"/>
<polygon fill="#63b8ff" stroke="#63b8ff" points="481.52,-138.1 492.07,-137.19 483.25,-131.32 481.52,-138.1"/>
</a>
</g>
</g>
<!-- Node6 -->
<g id="Node000006" class="node">
<title>Node6</title>
<g id="a_Node000006"><a xlink:href="class_fiea_1_1_engine_1_1_r_t_t_i.html#ac0a7d875e4513b2aca7594abcd4418ef" target="_top" xlink:title=" ">
<polygon fill="white" stroke="#666666" points="742.25,-180 629.5,-180 629.5,-160 742.25,-160 742.25,-180"/>
<text xml:space="preserve" text-anchor="middle" x="685.88" y="-166.5" font-family="Helvetica,sans-Serif" font-size="10.00">Fiea::Engine::RTTI::Is</text>
</a>
</g>
</g>
<!-- Node4&#45;&gt;Node6 -->
<g id="edge10_Node000004_Node000006" class="edge">
<title>Node4&#45;&gt;Node6</title>
<g id="a_edge10_Node000004_Node000006"><a xlink:title=" ">
<path fill="none" stroke="#63b8ff" d="M405.05,-126.34C422.48,-140.14 449.64,-158.93 477,-167 522.72,-180.5 576.6,-180.86 618.05,-178.06"/>
<polygon fill="#63b8ff" stroke="#63b8ff" points="618.18,-181.56 627.88,-177.31 617.64,-174.58 618.18,-181.56"/>
</a>
</g>
</g>
<!-- Node7 -->
<g id="Node000007" class="node">
<title>Node7</title>
<g id="a_Node000007"><a xlink:href="class_fiea_1_1_engine_1_1_r_t_t_i.html#a13000029a2e6cced30b831e466e07cae" target="_top" xlink:title=" ">
<polygon fill="white" stroke="#666666" points="735.12,-126 636.62,-126 636.62,-94 735.12,-94 735.12,-126"/>
<text xml:space="preserve" text-anchor="start" x="644.62" y="-112.5" font-family="Helvetica,sans-Serif" font-size="10.00">Fiea::Engine::RTTI</text>
<text xml:space="preserve" text-anchor="middle" x="685.88" y="-100.5" font-family="Helvetica,sans-Serif" font-size="10.00">::RTTI</text>
</a>
</g>
</g>
<!-- Node4&#45;&gt;Node7 -->
<g id="edge11_Node000004_Node000007" class="edge">
<title>Node4&#45;&gt;Node7</title>
<g id="a_edge11_Node000004_Node000007"><a xlink:title=" ">
<path fill="none" stroke="#63b8ff" d="M434.68,-110C486.57,-110 568.79,-110 624.7,-110"/>
<polygon fill="#63b8ff" stroke="#63b8ff" points="624.7,-113.5 634.7,-110 624.7,-106.5 624.7,-113.5"/>
</a>
</g>
</g>
<!-- Node8 -->
<g id="Node000008" class="node">
<title>Node8</title>
<g id="a_Node000008"><a xlink:href="class_fiea_1_1_engine_1_1_r_t_t_i.html#a7f70ad5ba0f8a3388543d63d72892575" target="_top" xlink:title=" ">
<polygon fill="white" stroke="#666666" points="584.5,-82 486,-82 486,-50 584.5,-50 584.5,-82"/>
<text xml:space="preserve" text-anchor="start" x="494" y="-68.5" font-family="Helvetica,sans-Serif" font-size="10.00">Fiea::Engine::RTTI</text>
<text xml:space="preserve" text-anchor="middle" x="535.25" y="-56.5" font-family="Helvetica,sans-Serif" font-size="10.00">::Equals</text>
</a>
</g>
</g>
<!-- Node4&#45;&gt;Node8 -->
<g id="edge8_Node000004_Node000008" class="edge">
<title>Node4&#45;&gt;Node8</title>
<g id="a_edge8_Node000004_Node000008"><a xlink:title=" ">
<path fill="none" stroke="#63b8ff" d="M434.54,-95.59C447.34,-91.79 461.3,-87.65 474.61,-83.7"/>
<polygon fill="#63b8ff" stroke="#63b8ff" points="475.56,-87.07 484.15,-80.87 473.56,-80.36 475.56,-87.07"/>
</a>
</g>
</g>
<!-- Node9 -->
<g id="Node000009" class="node">
<title>Node9</title>
<g id="a_Node000009"><a xlink:href="class_fiea_1_1_engine_1_1_r_t_t_i.html#a43a7d187e332a17d2c699bc2c8136a30" target="_top" xlink:title=" ">
<polygon fill="white" stroke="#666666" points="584.5,-32 486,-32 486,0 584.5,0 584.5,-32"/>
<text xml:space="preserve" text-anchor="start" x="494" y="-18.5" font-family="Helvetica,sans-Serif" font-size="10.00">Fiea::Engine::RTTI</text>
<text xml:space="preserve" text-anchor="middle" x="535.25" y="-6.5" font-family="Helvetica,sans-Serif" font-size="10.00">::ToString</text>
</a>
</g>
</g>
<!-- Node4&#45;&gt;Node9 -->
<g id="edge12_Node000004_Node000009" class="edge">
<title>Node4&#45;&gt;Node9</title>
<g id="a_edge12_Node000004_Node000009"><a xlink:title=" ">
<path fill="none" stroke="#63b8ff" d="M404.94,-93.51C422.72,-78.56 450.49,-56.54 477,-41 479.01,-39.82 481.09,-38.66 483.2,-37.53"/>
<polygon fill="#63b8ff" stroke="#63b8ff" points="484.59,-40.75 491.96,-33.13 481.45,-34.5 484.59,-40.75"/>
</a>
</g>
</g>
<!-- Node5&#45;&gt;Node6 -->
<g id="edge6_Node000005_Node000006" class="edge">
<title>Node5&#45;&gt;Node6</title>
<g id="a_edge6_Node000005_Node000006"><a xlink:title=" ">
<path fill="none" stroke="#63b8ff" d="M593.71,-156.51C601.6,-157.67 609.75,-158.88 617.78,-160.07"/>
<polygon fill="#63b8ff" stroke="#63b8ff" points="617.13,-163.51 627.53,-161.51 618.16,-156.59 617.13,-163.51"/>
</a>
</g>
</g>
<!-- Node5&#45;&gt;Node7 -->
<g id="edge7_Node000005_Node000007" class="edge">
<title>Node5&#45;&gt;Node7</title>
<g id="a_edge7_Node000005_Node000007"><a xlink:title=" ">
<path fill="none" stroke="#63b8ff" d="M577.26,-137.52C592.13,-133.71 609.24,-129.34 625.38,-125.21"/>
<polygon fill="#63b8ff" stroke="#63b8ff" points="626.07,-128.65 634.89,-122.78 624.34,-121.87 626.07,-128.65"/>
</a>
</g>
</g>
<!-- Node8&#45;&gt;Node7 -->
<g id="edge9_Node000008_Node000007" class="edge">
<title>Node8&#45;&gt;Node7</title>
<g id="a_edge9_Node000008_Node000007"><a xlink:title=" ">
<path fill="none" stroke="#63b8ff" d="M584.92,-80.41C597.94,-84.26 612.17,-88.47 625.69,-92.48"/>
<polygon fill="#63b8ff" stroke="#63b8ff" points="624.32,-95.72 634.9,-95.21 626.31,-89.01 624.32,-95.72"/>
</a>
</g>
</g>
</g>
</svg>
