<?xml version="1.0" encoding="UTF-8" standalone="no"?>
<!DOCTYPE svg PUBLIC "-//W3C//DTD SVG 1.1//EN"
 "http://www.w3.org/Graphics/SVG/1.1/DTD/svg11.dtd">
<!-- Generated by graphviz version 13.1.0 (20250701.0955)
 -->
<!-- Title: Fiea::Engine::Actions::Action::CleanupAction Pages: 1 -->
<svg width="634pt" height="532pt"
 viewBox="0.00 0.00 634.00 532.00" xmlns="http://www.w3.org/2000/svg" xmlns:xlink="http://www.w3.org/1999/xlink">
<g id="graph0" class="graph" transform="scale(1 1) rotate(0) translate(4 528)">
<title>Fiea::Engine::Actions::Action::CleanupAction</title>
<!-- Node1 -->
<g id="Node000001" class="node">
<title>Node1</title>
<g id="a_Node000001"><a xlink:title=" ">
<polygon fill="#999999" stroke="#666666" points="625.75,-372 506.25,-372 506.25,-340 625.75,-340 625.75,-372"/>
<text xml:space="preserve" text-anchor="start" x="514.25" y="-358.5" font-family="Helvetica,sans-Serif" font-size="10.00">Fiea::Engine::Actions</text>
<text xml:space="preserve" text-anchor="middle" x="566" y="-346.5" font-family="Helvetica,sans-Serif" font-size="10.00">::Action::CleanupAction</text>
</a>
</g>
</g>
<!-- Node2 -->
<g id="Node000002" class="node">
<title>Node2</title>
<g id="a_Node000002"><a xlink:href="class_fiea_1_1_engine_1_1_actions_1_1_action_delayed.html#a83565992cd6fe62828ba89cb8f572513" target="_top" xlink:title=" ">
<polygon fill="white" stroke="#666666" points="470.25,-478 314.75,-478 314.75,-446 470.25,-446 470.25,-478"/>
<text xml:space="preserve" text-anchor="start" x="322.75" y="-464.5" font-family="Helvetica,sans-Serif" font-size="10.00">Fiea::Engine::Actions</text>
<text xml:space="preserve" text-anchor="middle" x="392.5" y="-452.5" font-family="Helvetica,sans-Serif" font-size="10.00">::ActionDelayed::CleanupAction</text>
</a>
</g>
</g>
<!-- Node1&#45;&gt;Node2 -->
<g id="edge1_Node000001_Node000002" class="edge">
<title>Node1&#45;&gt;Node2</title>
<g id="a_edge1_Node000001_Node000002"><a xlink:title=" ">
<path fill="none" stroke="#63b8ff" d="M542.05,-380.21C524,-398.05 497.42,-421.76 470.25,-437 464.51,-440.22 458.28,-443.1 451.95,-445.66"/>
<polygon fill="#63b8ff" stroke="#63b8ff" points="544.1,-383.12 548.65,-373.55 539.13,-378.19 544.1,-383.12"/>
</a>
</g>
</g>
<!-- Node3 -->
<g id="Node000003" class="node">
<title>Node3</title>
<g id="a_Node000003"><a xlink:href="class_fiea_1_1_engine_1_1_actions_1_1_action_list.html#a7e02ca4299cca5d542f6e140a7cadc55" target="_top" xlink:title=" ">
<polygon fill="white" stroke="#666666" points="460.12,-428 324.88,-428 324.88,-396 460.12,-396 460.12,-428"/>
<text xml:space="preserve" text-anchor="start" x="332.88" y="-414.5" font-family="Helvetica,sans-Serif" font-size="10.00">Fiea::Engine::Actions</text>
<text xml:space="preserve" text-anchor="middle" x="392.5" y="-402.5" font-family="Helvetica,sans-Serif" font-size="10.00">::ActionList::CleanupAction</text>
</a>
</g>
</g>
<!-- Node1&#45;&gt;Node3 -->
<g id="edge2_Node000001_Node000003" class="edge">
<title>Node1&#45;&gt;Node3</title>
<g id="a_edge2_Node000001_Node000003"><a xlink:title=" ">
<path fill="none" stroke="#63b8ff" d="M504.19,-375.91C492.91,-379.6 481.22,-383.42 470.25,-387 461.72,-389.78 452.66,-392.74 443.87,-395.6"/>
<polygon fill="#63b8ff" stroke="#63b8ff" points="504.99,-379.33 513.41,-372.89 502.82,-372.68 504.99,-379.33"/>
</a>
</g>
</g>
<!-- Node4 -->
<g id="Node000004" class="node">
<title>Node4</title>
<g id="a_Node000004"><a xlink:href="class_fiea_1_1_engine_1_1_actions_1_1_action_list_while_loop.html#ae017bdc5b560cb6fb9f84a50c545c2ed" target="_top" xlink:title=" ">
<polygon fill="white" stroke="#666666" points="448.12,-378 336.88,-378 336.88,-334 448.12,-334 448.12,-378"/>
<text xml:space="preserve" text-anchor="start" x="344.88" y="-364.5" font-family="Helvetica,sans-Serif" font-size="10.00">Fiea::Engine::Actions</text>
<text xml:space="preserve" text-anchor="start" x="344.88" y="-352.5" font-family="Helvetica,sans-Serif" font-size="10.00">::ActionListWhileLoop</text>
<text xml:space="preserve" text-anchor="middle" x="392.5" y="-340.5" font-family="Helvetica,sans-Serif" font-size="10.00">::CleanupAction</text>
</a>
</g>
</g>
<!-- Node1&#45;&gt;Node4 -->
<g id="edge3_Node000001_Node000004" class="edge">
<title>Node1&#45;&gt;Node4</title>
<g id="a_edge3_Node000001_Node000004"><a xlink:title=" ">
<path fill="none" stroke="#63b8ff" d="M494.9,-356C479.46,-356 463.33,-356 448.59,-356"/>
<polygon fill="#63b8ff" stroke="#63b8ff" points="494.47,-359.5 504.47,-356 494.47,-352.5 494.47,-359.5"/>
</a>
</g>
</g>
<!-- Node5 -->
<g id="Node000005" class="node">
<title>Node5</title>
<g id="a_Node000005"><a xlink:href="class_fiea_1_1_engine_1_1_actions_1_1_action_timed.html#a6ba5b5e467a4772e9f3a598b3065a9f4" target="_top" xlink:title=" ">
<polygon fill="white" stroke="#666666" points="465.75,-316 319.25,-316 319.25,-284 465.75,-284 465.75,-316"/>
<text xml:space="preserve" text-anchor="start" x="327.25" y="-302.5" font-family="Helvetica,sans-Serif" font-size="10.00">Fiea::Engine::Actions</text>
<text xml:space="preserve" text-anchor="middle" x="392.5" y="-290.5" font-family="Helvetica,sans-Serif" font-size="10.00">::ActionTimed::CleanupAction</text>
</a>
</g>
</g>
<!-- Node1&#45;&gt;Node5 -->
<g id="edge4_Node000001_Node000005" class="edge">
<title>Node1&#45;&gt;Node5</title>
<g id="a_edge4_Node000001_Node000005"><a xlink:title=" ">
<path fill="none" stroke="#63b8ff" d="M504.19,-336.09C492.91,-332.4 481.22,-328.58 470.25,-325 461.72,-322.22 452.66,-319.26 443.87,-316.4"/>
<polygon fill="#63b8ff" stroke="#63b8ff" points="502.82,-339.32 513.41,-339.11 504.99,-332.67 502.82,-339.32"/>
</a>
</g>
</g>
<!-- Node6 -->
<g id="Node000006" class="node">
<title>Node6</title>
<g id="a_Node000006"><a xlink:href="class_fiea_1_1_engine_1_1_actions_1_1_action.html#abea83b3796a80d29394f644634477d7b" target="_top" xlink:title=" ">
<polygon fill="white" stroke="#666666" points="447.38,-266 337.62,-266 337.62,-234 447.38,-234 447.38,-266"/>
<text xml:space="preserve" text-anchor="start" x="345.62" y="-252.5" font-family="Helvetica,sans-Serif" font-size="10.00">Fiea::Engine::Actions</text>
<text xml:space="preserve" text-anchor="middle" x="392.5" y="-240.5" font-family="Helvetica,sans-Serif" font-size="10.00">::Action::Update</text>
</a>
</g>
</g>
<!-- Node1&#45;&gt;Node6 -->
<g id="edge5_Node000001_Node000006" class="edge">
<title>Node1&#45;&gt;Node6</title>
<g id="a_edge5_Node000001_Node000006"><a xlink:title=" ">
<path fill="none" stroke="#63b8ff" d="M542.05,-331.79C524,-313.95 497.42,-290.24 470.25,-275 463.16,-271.02 455.34,-267.57 447.49,-264.6"/>
<polygon fill="#63b8ff" stroke="#63b8ff" points="539.13,-333.81 548.65,-338.45 544.1,-328.88 539.13,-333.81"/>
</a>
</g>
</g>
<!-- Node7 -->
<g id="Node000007" class="node">
<title>Node7</title>
<g id="a_Node000007"><a xlink:href="class_fiea_1_1_engine_1_1_actions_1_1_action_list_while_loop.html#ac52e5fce78944ac5a9aa9325d1c32bf7" target="_top" xlink:title=" ">
<polygon fill="white" stroke="#666666" points="263.38,-524 152.12,-524 152.12,-480 263.38,-480 263.38,-524"/>
<text xml:space="preserve" text-anchor="start" x="160.12" y="-510.5" font-family="Helvetica,sans-Serif" font-size="10.00">Fiea::Engine::Actions</text>
<text xml:space="preserve" text-anchor="start" x="160.12" y="-498.5" font-family="Helvetica,sans-Serif" font-size="10.00">::ActionListWhileLoop</text>
<text xml:space="preserve" text-anchor="middle" x="207.75" y="-486.5" font-family="Helvetica,sans-Serif" font-size="10.00">::InitAction</text>
</a>
</g>
</g>
<!-- Node6&#45;&gt;Node7 -->
<g id="edge6_Node000006_Node000007" class="edge">
<title>Node6&#45;&gt;Node7</title>
<g id="a_edge6_Node000006_Node000007"><a xlink:title=" ">
<path fill="none" stroke="#63b8ff" d="M327.38,-264.53C322.67,-267.41 318.37,-270.87 314.75,-275 256.43,-341.66 333.59,-401.46 278.75,-471 274.63,-476.22 269.46,-480.58 263.79,-484.22"/>
<polygon fill="#63b8ff" stroke="#63b8ff" points="328.82,-267.72 336.14,-260.06 325.64,-261.48 328.82,-267.72"/>
</a>
</g>
</g>
<!-- Node8 -->
<g id="Node000008" class="node">
<title>Node8</title>
<g id="a_Node000008"><a xlink:href="class_fiea_1_1_engine_1_1_actions_1_1_action_conditional_increment.html#a4cb7636a1237acda5ef08f94cb41ae48" target="_top" xlink:title=" ">
<polygon fill="white" stroke="#666666" points="278.75,-462 136.75,-462 136.75,-418 278.75,-418 278.75,-462"/>
<text xml:space="preserve" text-anchor="start" x="144.75" y="-448.5" font-family="Helvetica,sans-Serif" font-size="10.00">Fiea::Engine::Actions</text>
<text xml:space="preserve" text-anchor="start" x="144.75" y="-436.5" font-family="Helvetica,sans-Serif" font-size="10.00">::ActionConditionalIncrement</text>
<text xml:space="preserve" text-anchor="middle" x="207.75" y="-424.5" font-family="Helvetica,sans-Serif" font-size="10.00">::RunAction</text>
</a>
</g>
</g>
<!-- Node6&#45;&gt;Node8 -->
<g id="edge7_Node000006_Node000008" class="edge">
<title>Node6&#45;&gt;Node8</title>
<g id="a_edge7_Node000006_Node000008"><a xlink:title=" ">
<path fill="none" stroke="#63b8ff" d="M326.93,-265.33C322.46,-268.04 318.32,-271.24 314.75,-275 272.3,-319.73 318.86,-362.16 278.75,-409 276.07,-412.13 273.01,-414.96 269.71,-417.51"/>
<polygon fill="#63b8ff" stroke="#63b8ff" points="328.49,-268.46 335.81,-260.8 325.31,-262.22 328.49,-268.46"/>
</a>
</g>
</g>
<!-- Node9 -->
<g id="Node000009" class="node">
<title>Node9</title>
<g id="a_Node000009"><a xlink:href="class_fiea_1_1_engine_1_1_actions_1_1_action_delayed.html#a709534fdda2c17d92f4324f84e29d977" target="_top" xlink:title=" ">
<polygon fill="white" stroke="#666666" points="276.5,-400 139,-400 139,-368 276.5,-368 276.5,-400"/>
<text xml:space="preserve" text-anchor="start" x="147" y="-386.5" font-family="Helvetica,sans-Serif" font-size="10.00">Fiea::Engine::Actions</text>
<text xml:space="preserve" text-anchor="middle" x="207.75" y="-374.5" font-family="Helvetica,sans-Serif" font-size="10.00">::ActionDelayed::RunAction</text>
</a>
</g>
</g>
<!-- Node6&#45;&gt;Node9 -->
<g id="edge8_Node000006_Node000009" class="edge">
<title>Node6&#45;&gt;Node9</title>
<g id="a_edge8_Node000006_Node000009"><a xlink:title=" ">
<path fill="none" stroke="#63b8ff" d="M327.28,-266.03C322.77,-268.59 318.52,-271.56 314.75,-275 284.77,-302.4 308.35,-331.18 278.75,-359 275.27,-362.27 271.34,-365.12 267.15,-367.6"/>
<polygon fill="#63b8ff" stroke="#63b8ff" points="328.7,-269.23 336.16,-261.71 325.63,-262.94 328.7,-269.23"/>
</a>
</g>
</g>
<!-- Node10 -->
<g id="Node000010" class="node">
<title>Node10</title>
<g id="a_Node000010"><a xlink:href="class_fiea_1_1_engine_1_1_actions_1_1_action_list.html#a492054b1164d5e86602f968527ac0b9d" target="_top" xlink:title=" ">
<polygon fill="white" stroke="#666666" points="266.38,-350 149.12,-350 149.12,-318 266.38,-318 266.38,-350"/>
<text xml:space="preserve" text-anchor="start" x="157.12" y="-336.5" font-family="Helvetica,sans-Serif" font-size="10.00">Fiea::Engine::Actions</text>
<text xml:space="preserve" text-anchor="middle" x="207.75" y="-324.5" font-family="Helvetica,sans-Serif" font-size="10.00">::ActionList::RunAction</text>
</a>
</g>
</g>
<!-- Node6&#45;&gt;Node10 -->
<g id="edge9_Node000006_Node000010" class="edge">
<title>Node6&#45;&gt;Node10</title>
<g id="a_edge9_Node000006_Node000010"><a xlink:title=" ">
<path fill="none" stroke="#63b8ff" d="M326.79,-268.72C322.62,-270.64 318.57,-272.73 314.75,-275 295.83,-286.24 297.51,-297.5 278.75,-309 273.58,-312.17 267.95,-315.02 262.2,-317.56"/>
<polygon fill="#63b8ff" stroke="#63b8ff" points="328.07,-271.98 335.93,-264.87 325.36,-265.53 328.07,-271.98"/>
</a>
</g>
</g>
<!-- Node11 -->
<g id="Node000011" class="node">
<title>Node11</title>
<g id="a_Node000011"><a xlink:href="class_fiea_1_1_engine_1_1_actions_1_1_action_list_while_loop.html#a7290de0f669f9591885d994906b2736f" target="_top" xlink:title=" ">
<polygon fill="white" stroke="#666666" points="263.38,-300 152.12,-300 152.12,-256 263.38,-256 263.38,-300"/>
<text xml:space="preserve" text-anchor="start" x="160.12" y="-286.5" font-family="Helvetica,sans-Serif" font-size="10.00">Fiea::Engine::Actions</text>
<text xml:space="preserve" text-anchor="start" x="160.12" y="-274.5" font-family="Helvetica,sans-Serif" font-size="10.00">::ActionListWhileLoop</text>
<text xml:space="preserve" text-anchor="middle" x="207.75" y="-262.5" font-family="Helvetica,sans-Serif" font-size="10.00">::RunAction</text>
</a>
</g>
</g>
<!-- Node6&#45;&gt;Node11 -->
<g id="edge10_Node000006_Node000011" class="edge">
<title>Node6&#45;&gt;Node11</title>
<g id="a_edge10_Node000006_Node000011"><a xlink:title=" ">
<path fill="none" stroke="#63b8ff" d="M326.06,-260.03C305.68,-263.15 283.42,-266.56 263.82,-269.56"/>
<polygon fill="#63b8ff" stroke="#63b8ff" points="326.31,-263.53 335.67,-258.55 325.25,-256.61 326.31,-263.53"/>
</a>
</g>
</g>
<!-- Node12 -->
<g id="Node000012" class="node">
<title>Node12</title>
<g id="a_Node000012"><a xlink:href="class_fiea_1_1_engine_1_1_actions_1_1_action_timed.html#a1a83c312108a0d9f3ac4f84a5042db38" target="_top" xlink:title=" ">
<polygon fill="white" stroke="#666666" points="272,-238 143.5,-238 143.5,-206 272,-206 272,-238"/>
<text xml:space="preserve" text-anchor="start" x="151.5" y="-224.5" font-family="Helvetica,sans-Serif" font-size="10.00">Fiea::Engine::Actions</text>
<text xml:space="preserve" text-anchor="middle" x="207.75" y="-212.5" font-family="Helvetica,sans-Serif" font-size="10.00">::ActionTimed::RunAction</text>
</a>
</g>
</g>
<!-- Node6&#45;&gt;Node12 -->
<g id="edge11_Node000006_Node000012" class="edge">
<title>Node6&#45;&gt;Node12</title>
<g id="a_edge11_Node000006_Node000012"><a xlink:title=" ">
<path fill="none" stroke="#63b8ff" d="M325.9,-239.95C308.42,-237.27 289.57,-234.38 272.2,-231.72"/>
<polygon fill="#63b8ff" stroke="#63b8ff" points="325.25,-243.39 335.67,-241.45 326.31,-236.47 325.25,-243.39"/>
</a>
</g>
</g>
<!-- Node13 -->
<g id="Node000013" class="node">
<title>Node13</title>
<g id="a_Node000013"><a xlink:href="namespace_fiea_1_1_engine_1_1_tests.html#a6fef2096c3071aeedc84a735d125856c" target="_top" xlink:title=" ">
<polygon fill="white" stroke="#666666" points="258.12,-188 157.38,-188 157.38,-156 258.12,-156 258.12,-188"/>
<text xml:space="preserve" text-anchor="start" x="165.38" y="-174.5" font-family="Helvetica,sans-Serif" font-size="10.00">Fiea::Engine::Tests</text>
<text xml:space="preserve" text-anchor="middle" x="207.75" y="-162.5" font-family="Helvetica,sans-Serif" font-size="10.00">::TEST_CLASS</text>
</a>
</g>
</g>
<!-- Node6&#45;&gt;Node13 -->
<g id="edge12_Node000006_Node000013" class="edge">
<title>Node6&#45;&gt;Node13</title>
<g id="a_edge12_Node000006_Node000013"><a xlink:title=" ">
<path fill="none" stroke="#63b8ff" d="M348.67,-228.68C327.79,-218.59 302.18,-206.67 278.75,-197 271.71,-194.1 264.2,-191.2 256.81,-188.47"/>
<polygon fill="#63b8ff" stroke="#63b8ff" points="346.93,-231.72 357.46,-232.95 350,-225.43 346.93,-231.72"/>
</a>
</g>
</g>
<!-- Node14 -->
<g id="Node000014" class="node">
<title>Node14</title>
<g id="a_Node000014"><a xlink:href="namespace_fiea_1_1_engine_1_1_tests.html#a376f9ed8237603ebeb822c9076f2f630" target="_top" xlink:title=" ">
<polygon fill="white" stroke="#666666" points="258.12,-138 157.38,-138 157.38,-106 258.12,-106 258.12,-138"/>
<text xml:space="preserve" text-anchor="start" x="165.38" y="-124.5" font-family="Helvetica,sans-Serif" font-size="10.00">Fiea::Engine::Tests</text>
<text xml:space="preserve" text-anchor="middle" x="207.75" y="-112.5" font-family="Helvetica,sans-Serif" font-size="10.00">::TEST_CLASS</text>
</a>
</g>
</g>
<!-- Node6&#45;&gt;Node14 -->
<g id="edge13_Node000006_Node000014" class="edge">
<title>Node6&#45;&gt;Node14</title>
<g id="a_edge13_Node000006_Node000014"><a xlink:title=" ">
<path fill="none" stroke="#63b8ff" d="M369.94,-225.31C348.72,-202.32 314.41,-168.45 278.75,-147 272.45,-143.21 265.48,-139.87 258.46,-136.96"/>
<polygon fill="#63b8ff" stroke="#63b8ff" points="367.08,-227.36 376.39,-232.42 372.26,-222.66 367.08,-227.36"/>
</a>
</g>
</g>
<!-- Node15 -->
<g id="Node000015" class="node">
<title>Node15</title>
<g id="a_Node000015"><a xlink:href="namespace_fiea_1_1_engine_1_1_tests.html#a89b054e30b186f60d7f23c17503265da" target="_top" xlink:title=" ">
<polygon fill="white" stroke="#666666" points="100.75,-88 0,-88 0,-56 100.75,-56 100.75,-88"/>
<text xml:space="preserve" text-anchor="start" x="8" y="-74.5" font-family="Helvetica,sans-Serif" font-size="10.00">Fiea::Engine::Tests</text>
<text xml:space="preserve" text-anchor="middle" x="50.38" y="-62.5" font-family="Helvetica,sans-Serif" font-size="10.00">::TEST_CLASS</text>
</a>
</g>
</g>
<!-- Node6&#45;&gt;Node15 -->
<g id="edge14_Node000006_Node000015" class="edge">
<title>Node6&#45;&gt;Node15</title>
<g id="a_edge14_Node000006_Node000015"><a xlink:title=" ">
<path fill="none" stroke="#63b8ff" d="M380.29,-223.44C363.77,-187.94 329.28,-126.11 278.75,-97 224.04,-65.48 149.57,-63.47 101,-66.47"/>
<polygon fill="#63b8ff" stroke="#63b8ff" points="376.93,-224.49 384.22,-232.17 383.31,-221.61 376.93,-224.49"/>
</a>
</g>
</g>
<!-- Node16 -->
<g id="Node000016" class="node">
<title>Node16</title>
<g id="a_Node000016"><a xlink:href="class_fiea_1_1_engine_1_1_game_object.html#a98e7dc26718acd4dba6f1b5bbe0483b8" target="_top" xlink:title=" ">
<polygon fill="white" stroke="#666666" points="273.5,-32 142,-32 142,0 273.5,0 273.5,-32"/>
<text xml:space="preserve" text-anchor="start" x="150" y="-18.5" font-family="Helvetica,sans-Serif" font-size="10.00">Fiea::Engine::GameObject</text>
<text xml:space="preserve" text-anchor="middle" x="207.75" y="-6.5" font-family="Helvetica,sans-Serif" font-size="10.00">::Update</text>
</a>
</g>
</g>
<!-- Node6&#45;&gt;Node16 -->
<g id="edge15_Node000006_Node000016" class="edge">
<title>Node6&#45;&gt;Node16</title>
<g id="a_edge15_Node000006_Node000016"><a xlink:title=" ">
<path fill="none" stroke="#63b8ff" d="M379.73,-223.17C361.93,-184.72 325.26,-113.2 278.75,-64 267.11,-51.69 251.8,-40.75 238.47,-32.44"/>
<polygon fill="#63b8ff" stroke="#63b8ff" points="376.49,-224.5 383.81,-232.15 382.86,-221.6 376.49,-224.5"/>
</a>
</g>
</g>
<!-- Node16&#45;&gt;Node15 -->
<g id="edge17_Node000016_Node000015" class="edge">
<title>Node16&#45;&gt;Node15</title>
<g id="a_edge17_Node000016_Node000015"><a xlink:title=" ">
<path fill="none" stroke="#63b8ff" d="M150.32,-36.34C132.82,-42.65 113.77,-49.51 97.09,-55.52"/>
<polygon fill="#63b8ff" stroke="#63b8ff" points="151.33,-39.7 159.55,-33.01 148.95,-33.11 151.33,-39.7"/>
</a>
</g>
</g>
<!-- Node16&#45;&gt;Node16 -->
<g id="edge18_Node000016_Node000016" class="edge">
<title>Node16&#45;&gt;Node16</title>
<g id="a_edge18_Node000016_Node000016"><a xlink:title=" ">
<path fill="none" stroke="#63b8ff" d="M233.98,-43.71C229.6,-47.48 220.86,-50 207.75,-50 183.77,-50 174.41,-41.58 179.65,-32.44"/>
<polygon fill="#63b8ff" stroke="#63b8ff" points="237.41,-44.37 235.6,-33.94 230.51,-43.23 237.41,-44.37"/>
</a>
</g>
</g>
<!-- Node17 -->
<g id="Node000017" class="node">
<title>Node17</title>
<g id="a_Node000017"><a xlink:href="namespace_fiea_1_1_engine_1_1_tests.html#a34b2b8dfbe4f7aa6a3ea0a5f24db384f" target="_top" xlink:title=" ">
<polygon fill="white" stroke="#666666" points="100.75,-32 0,-32 0,0 100.75,0 100.75,-32"/>
<text xml:space="preserve" text-anchor="start" x="8" y="-18.5" font-family="Helvetica,sans-Serif" font-size="10.00">Fiea::Engine::Tests</text>
<text xml:space="preserve" text-anchor="middle" x="50.38" y="-6.5" font-family="Helvetica,sans-Serif" font-size="10.00">::TEST_CLASS</text>
</a>
</g>
</g>
<!-- Node16&#45;&gt;Node17 -->
<g id="edge16_Node000016_Node000017" class="edge">
<title>Node16&#45;&gt;Node17</title>
<g id="a_edge16_Node000016_Node000017"><a xlink:title=" ">
<path fill="none" stroke="#63b8ff" d="M130.49,-16C120.46,-16 110.4,-16 100.98,-16"/>
<polygon fill="#63b8ff" stroke="#63b8ff" points="130.24,-19.5 140.24,-16 130.24,-12.5 130.24,-19.5"/>
</a>
</g>
</g>
</g>
</svg>
