<?xml version="1.0" encoding="UTF-8" standalone="no"?>
<!DOCTYPE svg PUBLIC "-//W3C//DTD SVG 1.1//EN"
 "http://www.w3.org/Graphics/SVG/1.1/DTD/svg11.dtd">
<!-- Generated by graphviz version 13.1.0 (20250701.0955)
 -->
<!-- Title: Fiea::Engine::Actions::ActionLoopIncrement::ActionLoopIncrement Pages: 1 -->
<svg width="717pt" height="220pt"
 viewBox="0.00 0.00 717.00 220.00" xmlns="http://www.w3.org/2000/svg" xmlns:xlink="http://www.w3.org/1999/xlink">
<g id="graph0" class="graph" transform="scale(1 1) rotate(0) translate(4 216)">
<title>Fiea::Engine::Actions::ActionLoopIncrement::ActionLoopIncrement</title>
<!-- Node1 -->
<g id="Node000001" class="node">
<title>Node1</title>
<g id="a_Node000001"><a xlink:title=" ">
<polygon fill="#999999" stroke="#666666" points="114.25,-154 0,-154 0,-110 114.25,-110 114.25,-154"/>
<text xml:space="preserve" text-anchor="start" x="8" y="-140.5" font-family="Helvetica,sans-Serif" font-size="10.00">Fiea::Engine::Actions</text>
<text xml:space="preserve" text-anchor="start" x="8" y="-128.5" font-family="Helvetica,sans-Serif" font-size="10.00">::ActionLoopIncrement</text>
<text xml:space="preserve" text-anchor="middle" x="57.12" y="-116.5" font-family="Helvetica,sans-Serif" font-size="10.00">::ActionLoopIncrement</text>
</a>
</g>
</g>
<!-- Node2 -->
<g id="Node000002" class="node">
<title>Node2</title>
<g id="a_Node000002"><a xlink:href="class_fiea_1_1_engine_1_1_actions_1_1_action.html#ae2af386f7122152003b00da79393e19e" target="_top" xlink:title=" ">
<polygon fill="white" stroke="#666666" points="260,-170 150.25,-170 150.25,-138 260,-138 260,-170"/>
<text xml:space="preserve" text-anchor="start" x="158.25" y="-156.5" font-family="Helvetica,sans-Serif" font-size="10.00">Fiea::Engine::Actions</text>
<text xml:space="preserve" text-anchor="middle" x="205.12" y="-144.5" font-family="Helvetica,sans-Serif" font-size="10.00">::Action::Action</text>
</a>
</g>
</g>
<!-- Node1&#45;&gt;Node2 -->
<g id="edge1_Node000001_Node000002" class="edge">
<title>Node1&#45;&gt;Node2</title>
<g id="a_edge1_Node000001_Node000002"><a xlink:title=" ">
<path fill="none" stroke="#63b8ff" d="M114.57,-140.51C122.54,-141.71 130.78,-142.95 138.89,-144.17"/>
<polygon fill="#63b8ff" stroke="#63b8ff" points="138.32,-147.62 148.73,-145.65 139.36,-140.7 138.32,-147.62"/>
</a>
</g>
</g>
<!-- Node4 -->
<g id="Node000004" class="node">
<title>Node4</title>
<g id="a_Node000004"><a xlink:href="class_fiea_1_1_engine_1_1_r_t_t_i.html#a876bebbe7b3149483c43a87f55f4ea99" target="_top" xlink:title=" ">
<polygon fill="white" stroke="#666666" points="401.25,-126 302.75,-126 302.75,-94 401.25,-94 401.25,-126"/>
<text xml:space="preserve" text-anchor="start" x="310.75" y="-112.5" font-family="Helvetica,sans-Serif" font-size="10.00">Fiea::Engine::RTTI</text>
<text xml:space="preserve" text-anchor="middle" x="352" y="-100.5" font-family="Helvetica,sans-Serif" font-size="10.00">::TypeIdInstance</text>
</a>
</g>
</g>
<!-- Node1&#45;&gt;Node4 -->
<g id="edge14_Node000001_Node000004" class="edge">
<title>Node1&#45;&gt;Node4</title>
<g id="a_edge14_Node000001_Node000004"><a xlink:title=" ">
<path fill="none" stroke="#63b8ff" d="M114.59,-127.76C165.28,-123.95 239.45,-118.38 291.15,-114.5"/>
<polygon fill="#63b8ff" stroke="#63b8ff" points="291.25,-118 300.96,-113.76 290.73,-111.02 291.25,-118"/>
</a>
</g>
</g>
<!-- Node3 -->
<g id="Node000003" class="node">
<title>Node3</title>
<g id="a_Node000003"><a xlink:href="class_fiea_1_1_engine_1_1_content_1_1_attributed.html#ad1ae014235d9d8b62b36066c94164148" target="_top" xlink:title=" ">
<polygon fill="white" stroke="#666666" points="408,-194 296,-194 296,-162 408,-162 408,-194"/>
<text xml:space="preserve" text-anchor="start" x="304" y="-180.5" font-family="Helvetica,sans-Serif" font-size="10.00">Fiea::Engine::Content</text>
<text xml:space="preserve" text-anchor="middle" x="352" y="-168.5" font-family="Helvetica,sans-Serif" font-size="10.00">::Attributed::Attributed</text>
</a>
</g>
</g>
<!-- Node2&#45;&gt;Node3 -->
<g id="edge2_Node000002_Node000003" class="edge">
<title>Node2&#45;&gt;Node3</title>
<g id="a_edge2_Node000002_Node000003"><a xlink:title=" ">
<path fill="none" stroke="#63b8ff" d="M260.48,-163C268.34,-164.31 276.5,-165.66 284.57,-166.99"/>
<polygon fill="#63b8ff" stroke="#63b8ff" points="283.92,-170.44 294.36,-168.62 285.07,-163.53 283.92,-170.44"/>
</a>
</g>
</g>
<!-- Node2&#45;&gt;Node4 -->
<g id="edge4_Node000002_Node000004" class="edge">
<title>Node2&#45;&gt;Node4</title>
<g id="a_edge4_Node000002_Node000004"><a xlink:title=" ">
<path fill="none" stroke="#63b8ff" d="M260.07,-137.62C270.34,-134.5 281.14,-131.22 291.57,-128.05"/>
<polygon fill="#63b8ff" stroke="#63b8ff" points="292.27,-131.5 300.82,-125.24 290.23,-124.8 292.27,-131.5"/>
</a>
</g>
</g>
<!-- Node3&#45;&gt;Node3 -->
<g id="edge3_Node000003_Node000003" class="edge">
<title>Node3&#45;&gt;Node3</title>
<g id="a_edge3_Node000003_Node000003"><a xlink:title=" ">
<path fill="none" stroke="#63b8ff" d="M325.78,-194.44C320.88,-203.58 329.62,-212 352,-212 364.24,-212 372.4,-209.48 376.48,-205.71"/>
<polygon fill="#63b8ff" stroke="#63b8ff" points="379.92,-206.36 377.99,-195.94 373,-205.28 379.92,-206.36"/>
</a>
</g>
</g>
<!-- Node4&#45;&gt;Node4 -->
<g id="edge13_Node000004_Node000004" class="edge">
<title>Node4&#45;&gt;Node4</title>
<g id="a_edge13_Node000004_Node000004"><a xlink:title=" ">
<path fill="none" stroke="#63b8ff" d="M325.78,-126.44C320.88,-135.58 329.62,-144 352,-144 364.24,-144 372.4,-141.48 376.48,-137.71"/>
<polygon fill="#63b8ff" stroke="#63b8ff" points="379.92,-138.36 377.99,-127.94 373,-137.28 379.92,-138.36"/>
</a>
</g>
</g>
<!-- Node5 -->
<g id="Node000005" class="node">
<title>Node5</title>
<g id="a_Node000005"><a xlink:href="class_fiea_1_1_engine_1_1_r_t_t_i.html#a15bd5993c8ad04da47af440298ebbb30" target="_top" xlink:title=" ">
<polygon fill="white" stroke="#666666" points="560.5,-158 444,-158 444,-138 560.5,-138 560.5,-158"/>
<text xml:space="preserve" text-anchor="middle" x="502.25" y="-144.5" font-family="Helvetica,sans-Serif" font-size="10.00">Fiea::Engine::RTTI::As</text>
</a>
</g>
</g>
<!-- Node4&#45;&gt;Node5 -->
<g id="edge5_Node000004_Node000005" class="edge">
<title>Node4&#45;&gt;Node5</title>
<g id="a_edge5_Node000004_Node000005"><a xlink:title=" ">
<path fill="none" stroke="#63b8ff" d="M401.54,-122.44C416.9,-126.38 433.93,-130.74 449.5,-134.74"/>
<polygon fill="#63b8ff" stroke="#63b8ff" points="448.52,-138.1 459.07,-137.19 450.25,-131.32 448.52,-138.1"/>
</a>
</g>
</g>
<!-- Node6 -->
<g id="Node000006" class="node">
<title>Node6</title>
<g id="a_Node000006"><a xlink:href="class_fiea_1_1_engine_1_1_r_t_t_i.html#ac0a7d875e4513b2aca7594abcd4418ef" target="_top" xlink:title=" ">
<polygon fill="white" stroke="#666666" points="709.25,-180 596.5,-180 596.5,-160 709.25,-160 709.25,-180"/>
<text xml:space="preserve" text-anchor="middle" x="652.88" y="-166.5" font-family="Helvetica,sans-Serif" font-size="10.00">Fiea::Engine::RTTI::Is</text>
</a>
</g>
</g>
<!-- Node4&#45;&gt;Node6 -->
<g id="edge10_Node000004_Node000006" class="edge">
<title>Node4&#45;&gt;Node6</title>
<g id="a_edge10_Node000004_Node000006"><a xlink:title=" ">
<path fill="none" stroke="#63b8ff" d="M372.05,-126.34C389.48,-140.14 416.64,-158.93 444,-167 489.72,-180.5 543.6,-180.86 585.05,-178.06"/>
<polygon fill="#63b8ff" stroke="#63b8ff" points="585.18,-181.56 594.88,-177.31 584.64,-174.58 585.18,-181.56"/>
</a>
</g>
</g>
<!-- Node7 -->
<g id="Node000007" class="node">
<title>Node7</title>
<g id="a_Node000007"><a xlink:href="class_fiea_1_1_engine_1_1_r_t_t_i.html#a13000029a2e6cced30b831e466e07cae" target="_top" xlink:title=" ">
<polygon fill="white" stroke="#666666" points="702.12,-126 603.62,-126 603.62,-94 702.12,-94 702.12,-126"/>
<text xml:space="preserve" text-anchor="start" x="611.62" y="-112.5" font-family="Helvetica,sans-Serif" font-size="10.00">Fiea::Engine::RTTI</text>
<text xml:space="preserve" text-anchor="middle" x="652.88" y="-100.5" font-family="Helvetica,sans-Serif" font-size="10.00">::RTTI</text>
</a>
</g>
</g>
<!-- Node4&#45;&gt;Node7 -->
<g id="edge11_Node000004_Node000007" class="edge">
<title>Node4&#45;&gt;Node7</title>
<g id="a_edge11_Node000004_Node000007"><a xlink:title=" ">
<path fill="none" stroke="#63b8ff" d="M401.68,-110C453.57,-110 535.79,-110 591.7,-110"/>
<polygon fill="#63b8ff" stroke="#63b8ff" points="591.7,-113.5 601.7,-110 591.7,-106.5 591.7,-113.5"/>
</a>
</g>
</g>
<!-- Node8 -->
<g id="Node000008" class="node">
<title>Node8</title>
<g id="a_Node000008"><a xlink:href="class_fiea_1_1_engine_1_1_r_t_t_i.html#a7f70ad5ba0f8a3388543d63d72892575" target="_top" xlink:title=" ">
<polygon fill="white" stroke="#666666" points="551.5,-82 453,-82 453,-50 551.5,-50 551.5,-82"/>
<text xml:space="preserve" text-anchor="start" x="461" y="-68.5" font-family="Helvetica,sans-Serif" font-size="10.00">Fiea::Engine::RTTI</text>
<text xml:space="preserve" text-anchor="middle" x="502.25" y="-56.5" font-family="Helvetica,sans-Serif" font-size="10.00">::Equals</text>
</a>
</g>
</g>
<!-- Node4&#45;&gt;Node8 -->
<g id="edge8_Node000004_Node000008" class="edge">
<title>Node4&#45;&gt;Node8</title>
<g id="a_edge8_Node000004_Node000008"><a xlink:title=" ">
<path fill="none" stroke="#63b8ff" d="M401.54,-95.59C414.34,-91.79 428.3,-87.65 441.61,-83.7"/>
<polygon fill="#63b8ff" stroke="#63b8ff" points="442.56,-87.07 451.15,-80.87 440.56,-80.36 442.56,-87.07"/>
</a>
</g>
</g>
<!-- Node9 -->
<g id="Node000009" class="node">
<title>Node9</title>
<g id="a_Node000009"><a xlink:href="class_fiea_1_1_engine_1_1_r_t_t_i.html#a43a7d187e332a17d2c699bc2c8136a30" target="_top" xlink:title=" ">
<polygon fill="white" stroke="#666666" points="551.5,-32 453,-32 453,0 551.5,0 551.5,-32"/>
<text xml:space="preserve" text-anchor="start" x="461" y="-18.5" font-family="Helvetica,sans-Serif" font-size="10.00">Fiea::Engine::RTTI</text>
<text xml:space="preserve" text-anchor="middle" x="502.25" y="-6.5" font-family="Helvetica,sans-Serif" font-size="10.00">::ToString</text>
</a>
</g>
</g>
<!-- Node4&#45;&gt;Node9 -->
<g id="edge12_Node000004_Node000009" class="edge">
<title>Node4&#45;&gt;Node9</title>
<g id="a_edge12_Node000004_Node000009"><a xlink:title=" ">
<path fill="none" stroke="#63b8ff" d="M371.94,-93.51C389.72,-78.56 417.49,-56.54 444,-41 446.01,-39.82 448.09,-38.66 450.2,-37.53"/>
<polygon fill="#63b8ff" stroke="#63b8ff" points="451.59,-40.75 458.96,-33.13 448.45,-34.5 451.59,-40.75"/>
</a>
</g>
</g>
<!-- Node5&#45;&gt;Node6 -->
<g id="edge6_Node000005_Node000006" class="edge">
<title>Node5&#45;&gt;Node6</title>
<g id="a_edge6_Node000005_Node000006"><a xlink:title=" ">
<path fill="none" stroke="#63b8ff" d="M560.71,-156.51C568.6,-157.67 576.75,-158.88 584.78,-160.07"/>
<polygon fill="#63b8ff" stroke="#63b8ff" points="584.13,-163.51 594.53,-161.51 585.16,-156.59 584.13,-163.51"/>
</a>
</g>
</g>
<!-- Node5&#45;&gt;Node7 -->
<g id="edge7_Node000005_Node000007" class="edge">
<title>Node5&#45;&gt;Node7</title>
<g id="a_edge7_Node000005_Node000007"><a xlink:title=" ">
<path fill="none" stroke="#63b8ff" d="M544.26,-137.52C559.13,-133.71 576.24,-129.34 592.38,-125.21"/>
<polygon fill="#63b8ff" stroke="#63b8ff" points="593.07,-128.65 601.89,-122.78 591.34,-121.87 593.07,-128.65"/>
</a>
</g>
</g>
<!-- Node8&#45;&gt;Node7 -->
<g id="edge9_Node000008_Node000007" class="edge">
<title>Node8&#45;&gt;Node7</title>
<g id="a_edge9_Node000008_Node000007"><a xlink:title=" ">
<path fill="none" stroke="#63b8ff" d="M551.92,-80.41C564.94,-84.26 579.17,-88.47 592.69,-92.48"/>
<polygon fill="#63b8ff" stroke="#63b8ff" points="591.32,-95.72 601.9,-95.21 593.31,-89.01 591.32,-95.72"/>
</a>
</g>
</g>
</g>
</svg>
