<?xml version="1.0" encoding="UTF-8" standalone="no"?>
<!DOCTYPE svg PUBLIC "-//W3C//DTD SVG 1.1//EN"
 "http://www.w3.org/Graphics/SVG/1.1/DTD/svg11.dtd">
<!-- Generated by graphviz version 13.1.0 (20250701.0955)
 -->
<!-- Title: Fiea::Engine::List::List Pages: 1 -->
<svg width="371pt" height="340pt"
 viewBox="0.00 0.00 371.00 340.00" xmlns="http://www.w3.org/2000/svg" xmlns:xlink="http://www.w3.org/1999/xlink">
<g id="graph0" class="graph" transform="scale(1 1) rotate(0) translate(4 336)">
<title>Fiea::Engine::List::List</title>
<!-- Node1 -->
<g id="Node000001" class="node">
<title>Node1</title>
<g id="a_Node000001"><a xlink:title="Default constructor for the List class.">
<polygon fill="#999999" stroke="#666666" points="363,-132 270.5,-132 270.5,-100 363,-100 363,-132"/>
<text xml:space="preserve" text-anchor="start" x="278.5" y="-118.5" font-family="Helvetica,sans-Serif" font-size="10.00">Fiea::Engine::List</text>
<text xml:space="preserve" text-anchor="middle" x="316.75" y="-106.5" font-family="Helvetica,sans-Serif" font-size="10.00">::List</text>
</a>
</g>
</g>
<!-- Node2 -->
<g id="Node000002" class="node">
<title>Node2</title>
<g id="a_Node000002"><a xlink:href="class_fiea_1_1_engine_1_1_list_1_1_iterator.html#ae0840248dd2b9245d84aa8109fd06f00" target="_top" xlink:title="Constructs an iterator for the list.">
<polygon fill="white" stroke="#666666" points="234.5,-232 142,-232 142,-200 234.5,-200 234.5,-232"/>
<text xml:space="preserve" text-anchor="start" x="150" y="-218.5" font-family="Helvetica,sans-Serif" font-size="10.00">Fiea::Engine::List</text>
<text xml:space="preserve" text-anchor="middle" x="188.25" y="-206.5" font-family="Helvetica,sans-Serif" font-size="10.00">::Iterator::Iterator</text>
</a>
</g>
</g>
<!-- Node1&#45;&gt;Node2 -->
<g id="edge1_Node000001_Node000002" class="edge">
<title>Node1&#45;&gt;Node2</title>
<g id="a_edge1_Node000001_Node000002"><a xlink:title=" ">
<path fill="none" stroke="#63b8ff" d="M292.25,-140.56C276.69,-156.06 255.38,-175.93 234.5,-191 230.28,-194.05 225.65,-197 221.01,-199.73"/>
<polygon fill="#63b8ff" stroke="#63b8ff" points="294.65,-143.1 299.19,-133.53 289.67,-138.18 294.65,-143.1"/>
</a>
</g>
</g>
<!-- Node8 -->
<g id="Node000008" class="node">
<title>Node8</title>
<g id="a_Node000008"><a xlink:href="class_fiea_1_1_engine_1_1_list.html#ae523bb33d2f4de636aa97cbd45608ed6" target="_top" xlink:title="Copy constructor for the List class.">
<polygon fill="white" stroke="#666666" points="234.5,-182 142,-182 142,-150 234.5,-150 234.5,-182"/>
<text xml:space="preserve" text-anchor="start" x="150" y="-168.5" font-family="Helvetica,sans-Serif" font-size="10.00">Fiea::Engine::List</text>
<text xml:space="preserve" text-anchor="middle" x="188.25" y="-156.5" font-family="Helvetica,sans-Serif" font-size="10.00">::List</text>
</a>
</g>
</g>
<!-- Node1&#45;&gt;Node8 -->
<g id="edge7_Node000001_Node000008" class="edge">
<title>Node1&#45;&gt;Node8</title>
<g id="a_edge7_Node000001_Node000008"><a xlink:title=" ">
<path fill="none" stroke="#63b8ff" d="M263.93,-136.48C252.89,-140.85 241.36,-145.4 230.76,-149.59"/>
<polygon fill="#63b8ff" stroke="#63b8ff" points="264.91,-139.86 272.92,-132.93 262.34,-133.35 264.91,-139.86"/>
</a>
</g>
</g>
<!-- Node9 -->
<g id="Node000009" class="node">
<title>Node9</title>
<g id="a_Node000009"><a xlink:href="class_fiea_1_1_engine_1_1_list.html#a12b45c6c0af92ad39c100b52272b3355" target="_top" xlink:title="Inequality operator for comparing two lists.">
<polygon fill="white" stroke="#666666" points="234.5,-132 142,-132 142,-100 234.5,-100 234.5,-132"/>
<text xml:space="preserve" text-anchor="start" x="150" y="-118.5" font-family="Helvetica,sans-Serif" font-size="10.00">Fiea::Engine::List</text>
<text xml:space="preserve" text-anchor="middle" x="188.25" y="-106.5" font-family="Helvetica,sans-Serif" font-size="10.00">::operator!=</text>
</a>
</g>
</g>
<!-- Node1&#45;&gt;Node9 -->
<g id="edge8_Node000001_Node000009" class="edge">
<title>Node1&#45;&gt;Node9</title>
<g id="a_edge8_Node000001_Node000009"><a xlink:title=" ">
<path fill="none" stroke="#63b8ff" d="M258.58,-116C250.63,-116 242.55,-116 234.85,-116"/>
<polygon fill="#63b8ff" stroke="#63b8ff" points="258.57,-119.5 268.57,-116 258.57,-112.5 258.57,-119.5"/>
</a>
</g>
</g>
<!-- Node10 -->
<g id="Node000010" class="node">
<title>Node10</title>
<g id="a_Node000010"><a xlink:href="class_fiea_1_1_engine_1_1_list.html#a29b93ccd14796adec2bd892334e548cc" target="_top" xlink:title="Overloaded assignment operator to copy the contents of another list.">
<polygon fill="white" stroke="#666666" points="234.5,-82 142,-82 142,-50 234.5,-50 234.5,-82"/>
<text xml:space="preserve" text-anchor="start" x="150" y="-68.5" font-family="Helvetica,sans-Serif" font-size="10.00">Fiea::Engine::List</text>
<text xml:space="preserve" text-anchor="middle" x="188.25" y="-56.5" font-family="Helvetica,sans-Serif" font-size="10.00">::operator=</text>
</a>
</g>
</g>
<!-- Node1&#45;&gt;Node10 -->
<g id="edge9_Node000001_Node000010" class="edge">
<title>Node1&#45;&gt;Node10</title>
<g id="a_edge9_Node000001_Node000010"><a xlink:title=" ">
<path fill="none" stroke="#63b8ff" d="M263.93,-95.52C252.89,-91.15 241.36,-86.6 230.76,-82.41"/>
<polygon fill="#63b8ff" stroke="#63b8ff" points="262.34,-98.65 272.92,-99.07 264.91,-92.14 262.34,-98.65"/>
</a>
</g>
</g>
<!-- Node11 -->
<g id="Node000011" class="node">
<title>Node11</title>
<g id="a_Node000011"><a xlink:href="class_fiea_1_1_engine_1_1_list.html#a8661ff9204d40c977fd3496f68fb3c10" target="_top" xlink:title="Equality operator for comparing two lists.">
<polygon fill="white" stroke="#666666" points="234.5,-32 142,-32 142,0 234.5,0 234.5,-32"/>
<text xml:space="preserve" text-anchor="start" x="150" y="-18.5" font-family="Helvetica,sans-Serif" font-size="10.00">Fiea::Engine::List</text>
<text xml:space="preserve" text-anchor="middle" x="188.25" y="-6.5" font-family="Helvetica,sans-Serif" font-size="10.00">::operator==</text>
</a>
</g>
</g>
<!-- Node1&#45;&gt;Node11 -->
<g id="edge10_Node000001_Node000011" class="edge">
<title>Node1&#45;&gt;Node11</title>
<g id="a_edge10_Node000001_Node000011"><a xlink:title=" ">
<path fill="none" stroke="#63b8ff" d="M292.25,-91.44C276.69,-75.94 255.38,-56.07 234.5,-41 230.28,-37.95 225.65,-35 221.01,-32.27"/>
<polygon fill="#63b8ff" stroke="#63b8ff" points="289.67,-93.82 299.19,-98.47 294.65,-88.9 289.67,-93.82"/>
</a>
</g>
</g>
<!-- Node3 -->
<g id="Node000003" class="node">
<title>Node3</title>
<g id="a_Node000003"><a xlink:href="class_fiea_1_1_engine_1_1_list_1_1_iterator.html#a26b7b2a8ade709adde409e88af3edcd2" target="_top" xlink:title=" ">
<polygon fill="white" stroke="#666666" points="104.5,-332 1.5,-332 1.5,-300 104.5,-300 104.5,-332"/>
<text xml:space="preserve" text-anchor="start" x="9.5" y="-318.5" font-family="Helvetica,sans-Serif" font-size="10.00">Fiea::Engine::List</text>
<text xml:space="preserve" text-anchor="middle" x="53" y="-306.5" font-family="Helvetica,sans-Serif" font-size="10.00">::Iterator::operator!=</text>
</a>
</g>
</g>
<!-- Node2&#45;&gt;Node3 -->
<g id="edge2_Node000002_Node000003" class="edge">
<title>Node2&#45;&gt;Node3</title>
<g id="a_edge2_Node000002_Node000003"><a xlink:title=" ">
<path fill="none" stroke="#63b8ff" d="M164.32,-240.67C148.86,-256.38 127.44,-276.44 106,-291 101.53,-294.04 96.63,-296.91 91.68,-299.55"/>
<polygon fill="#63b8ff" stroke="#63b8ff" points="166.78,-243.16 171.21,-233.54 161.74,-238.3 166.78,-243.16"/>
</a>
</g>
</g>
<!-- Node4 -->
<g id="Node000004" class="node">
<title>Node4</title>
<g id="a_Node000004"><a xlink:href="class_fiea_1_1_engine_1_1_list_1_1_iterator.html#ab3ea994114c26d070c9ed20ee294fa69" target="_top" xlink:title="Postfix increment operator to move to the next node.">
<polygon fill="white" stroke="#666666" points="106,-282 0,-282 0,-250 106,-250 106,-282"/>
<text xml:space="preserve" text-anchor="start" x="8" y="-268.5" font-family="Helvetica,sans-Serif" font-size="10.00">Fiea::Engine::List</text>
<text xml:space="preserve" text-anchor="middle" x="53" y="-256.5" font-family="Helvetica,sans-Serif" font-size="10.00">::Iterator::operator++</text>
</a>
</g>
</g>
<!-- Node2&#45;&gt;Node4 -->
<g id="edge3_Node000002_Node000004" class="edge">
<title>Node2&#45;&gt;Node4</title>
<g id="a_edge3_Node000002_Node000004"><a xlink:title=" ">
<path fill="none" stroke="#63b8ff" d="M133.03,-236.35C121.28,-240.75 109.01,-245.36 97.73,-249.59"/>
<polygon fill="#63b8ff" stroke="#63b8ff" points="134.07,-239.69 142.2,-232.9 131.61,-233.14 134.07,-239.69"/>
</a>
</g>
</g>
<!-- Node5 -->
<g id="Node000005" class="node">
<title>Node5</title>
<g id="a_Node000005"><a xlink:href="class_fiea_1_1_engine_1_1_list_1_1_iterator.html#a5b31d08a945afb306a7ba43713ac15aa" target="_top" xlink:title="Postfix decrement operator to move to the previous node.">
<polygon fill="white" stroke="#666666" points="103,-232 3,-232 3,-200 103,-200 103,-232"/>
<text xml:space="preserve" text-anchor="start" x="11" y="-218.5" font-family="Helvetica,sans-Serif" font-size="10.00">Fiea::Engine::List</text>
<text xml:space="preserve" text-anchor="middle" x="53" y="-206.5" font-family="Helvetica,sans-Serif" font-size="10.00">::Iterator::operator&#45;&#45;</text>
</a>
</g>
</g>
<!-- Node2&#45;&gt;Node5 -->
<g id="edge4_Node000002_Node000005" class="edge">
<title>Node2&#45;&gt;Node5</title>
<g id="a_edge4_Node000002_Node000005"><a xlink:title=" ">
<path fill="none" stroke="#63b8ff" d="M130.52,-216C121.49,-216 112.22,-216 103.38,-216"/>
<polygon fill="#63b8ff" stroke="#63b8ff" points="130.25,-219.5 140.25,-216 130.25,-212.5 130.25,-219.5"/>
</a>
</g>
</g>
<!-- Node6 -->
<g id="Node000006" class="node">
<title>Node6</title>
<g id="a_Node000006"><a xlink:href="class_fiea_1_1_engine_1_1_list_1_1_iterator.html#ab73342db87a6aff2604f4b69dcf71f21" target="_top" xlink:title="Assignment operator to copy another iterator.">
<polygon fill="white" stroke="#666666" points="103,-182 3,-182 3,-150 103,-150 103,-182"/>
<text xml:space="preserve" text-anchor="start" x="11" y="-168.5" font-family="Helvetica,sans-Serif" font-size="10.00">Fiea::Engine::List</text>
<text xml:space="preserve" text-anchor="middle" x="53" y="-156.5" font-family="Helvetica,sans-Serif" font-size="10.00">::Iterator::operator=</text>
</a>
</g>
</g>
<!-- Node2&#45;&gt;Node6 -->
<g id="edge5_Node000002_Node000006" class="edge">
<title>Node2&#45;&gt;Node6</title>
<g id="a_edge5_Node000002_Node000006"><a xlink:title=" ">
<path fill="none" stroke="#63b8ff" d="M133.03,-195.65C121.28,-191.25 109.01,-186.64 97.73,-182.41"/>
<polygon fill="#63b8ff" stroke="#63b8ff" points="131.61,-198.86 142.2,-199.1 134.07,-192.31 131.61,-198.86"/>
</a>
</g>
</g>
<!-- Node7 -->
<g id="Node000007" class="node">
<title>Node7</title>
<g id="a_Node000007"><a xlink:href="class_fiea_1_1_engine_1_1_list_1_1_iterator.html#a4d0b9f366cb1965016706c999fddfbc4" target="_top" xlink:title=" ">
<polygon fill="white" stroke="#666666" points="106,-132 0,-132 0,-100 106,-100 106,-132"/>
<text xml:space="preserve" text-anchor="start" x="8" y="-118.5" font-family="Helvetica,sans-Serif" font-size="10.00">Fiea::Engine::List</text>
<text xml:space="preserve" text-anchor="middle" x="53" y="-106.5" font-family="Helvetica,sans-Serif" font-size="10.00">::Iterator::operator==</text>
</a>
</g>
</g>
<!-- Node2&#45;&gt;Node7 -->
<g id="edge6_Node000002_Node000007" class="edge">
<title>Node2&#45;&gt;Node7</title>
<g id="a_edge6_Node000002_Node000007"><a xlink:title=" ">
<path fill="none" stroke="#63b8ff" d="M144.35,-193C143.55,-192.34 142.76,-191.68 142,-191 121.52,-172.83 126.99,-158.59 106,-141 102.24,-137.85 98.01,-134.99 93.63,-132.42"/>
<polygon fill="#63b8ff" stroke="#63b8ff" points="142.1,-195.69 152.26,-198.69 146.19,-190.01 142.1,-195.69"/>
</a>
</g>
</g>
</g>
</svg>
