<?xml version="1.0" encoding="UTF-8" standalone="no"?>
<!DOCTYPE svg PUBLIC "-//W3C//DTD SVG 1.1//EN"
 "http://www.w3.org/Graphics/SVG/1.1/DTD/svg11.dtd">
<!-- Generated by graphviz version 13.1.0 (20250701.0955)
 -->
<!-- Title: Fiea::Engine::Actions::ActionList::operator= Pages: 1 -->
<svg width="867pt" height="220pt"
 viewBox="0.00 0.00 867.00 220.00" xmlns="http://www.w3.org/2000/svg" xmlns:xlink="http://www.w3.org/1999/xlink">
<g id="graph0" class="graph" transform="scale(1 1) rotate(0) translate(4 216)">
<title>Fiea::Engine::Actions::ActionList::operator=</title>
<!-- Node1 -->
<g id="Node000001" class="node">
<title>Node1</title>
<g id="a_Node000001"><a xlink:title=" ">
<polygon fill="#999999" stroke="#666666" points="112.75,-148 0,-148 0,-116 112.75,-116 112.75,-148"/>
<text xml:space="preserve" text-anchor="start" x="8" y="-134.5" font-family="Helvetica,sans-Serif" font-size="10.00">Fiea::Engine::Actions</text>
<text xml:space="preserve" text-anchor="middle" x="56.38" y="-122.5" font-family="Helvetica,sans-Serif" font-size="10.00">::ActionList::operator=</text>
</a>
</g>
</g>
<!-- Node2 -->
<g id="Node000002" class="node">
<title>Node2</title>
<g id="a_Node000002"><a xlink:href="class_fiea_1_1_engine_1_1_actions_1_1_action_list.html#a77dc15425d13d1d10482ec9e97d923fb" target="_top" xlink:title=" ">
<polygon fill="white" stroke="#666666" points="263.75,-148 148.75,-148 148.75,-116 263.75,-116 263.75,-148"/>
<text xml:space="preserve" text-anchor="start" x="156.75" y="-134.5" font-family="Helvetica,sans-Serif" font-size="10.00">Fiea::Engine::Actions</text>
<text xml:space="preserve" text-anchor="middle" x="206.25" y="-122.5" font-family="Helvetica,sans-Serif" font-size="10.00">::ActionList::ActionList</text>
</a>
</g>
</g>
<!-- Node1&#45;&gt;Node2 -->
<g id="edge1_Node000001_Node000002" class="edge">
<title>Node1&#45;&gt;Node2</title>
<g id="a_edge1_Node000001_Node000002"><a xlink:title=" ">
<path fill="none" stroke="#63b8ff" d="M112.86,-132C120.77,-132 128.98,-132 137.1,-132"/>
<polygon fill="#63b8ff" stroke="#63b8ff" points="136.96,-135.5 146.96,-132 136.96,-128.5 136.96,-135.5"/>
</a>
</g>
</g>
<!-- Node3 -->
<g id="Node000003" class="node">
<title>Node3</title>
<g id="a_Node000003"><a xlink:href="class_fiea_1_1_engine_1_1_actions_1_1_action.html#ae2af386f7122152003b00da79393e19e" target="_top" xlink:title=" ">
<polygon fill="white" stroke="#666666" points="409.5,-170 299.75,-170 299.75,-138 409.5,-138 409.5,-170"/>
<text xml:space="preserve" text-anchor="start" x="307.75" y="-156.5" font-family="Helvetica,sans-Serif" font-size="10.00">Fiea::Engine::Actions</text>
<text xml:space="preserve" text-anchor="middle" x="354.62" y="-144.5" font-family="Helvetica,sans-Serif" font-size="10.00">::Action::Action</text>
</a>
</g>
</g>
<!-- Node2&#45;&gt;Node3 -->
<g id="edge2_Node000002_Node000003" class="edge">
<title>Node2&#45;&gt;Node3</title>
<g id="a_edge2_Node000002_Node000003"><a xlink:title=" ">
<path fill="none" stroke="#63b8ff" d="M263.84,-140.51C271.83,-141.71 280.09,-142.95 288.22,-144.17"/>
<polygon fill="#63b8ff" stroke="#63b8ff" points="287.68,-147.63 298.09,-145.65 288.72,-140.71 287.68,-147.63"/>
</a>
</g>
</g>
<!-- Node5 -->
<g id="Node000005" class="node">
<title>Node5</title>
<g id="a_Node000005"><a xlink:href="class_fiea_1_1_engine_1_1_r_t_t_i.html#a876bebbe7b3149483c43a87f55f4ea99" target="_top" xlink:title=" ">
<polygon fill="white" stroke="#666666" points="550.75,-126 452.25,-126 452.25,-94 550.75,-94 550.75,-126"/>
<text xml:space="preserve" text-anchor="start" x="460.25" y="-112.5" font-family="Helvetica,sans-Serif" font-size="10.00">Fiea::Engine::RTTI</text>
<text xml:space="preserve" text-anchor="middle" x="501.5" y="-100.5" font-family="Helvetica,sans-Serif" font-size="10.00">::TypeIdInstance</text>
</a>
</g>
</g>
<!-- Node2&#45;&gt;Node5 -->
<g id="edge15_Node000002_Node000005" class="edge">
<title>Node2&#45;&gt;Node5</title>
<g id="a_edge15_Node000002_Node000005"><a xlink:title=" ">
<path fill="none" stroke="#63b8ff" d="M264.14,-127.73C314.93,-123.92 389.06,-118.36 440.72,-114.49"/>
<polygon fill="#63b8ff" stroke="#63b8ff" points="440.81,-117.99 450.52,-113.75 440.29,-111.01 440.81,-117.99"/>
</a>
</g>
</g>
<!-- Node4 -->
<g id="Node000004" class="node">
<title>Node4</title>
<g id="a_Node000004"><a xlink:href="class_fiea_1_1_engine_1_1_content_1_1_attributed.html#ad1ae014235d9d8b62b36066c94164148" target="_top" xlink:title=" ">
<polygon fill="white" stroke="#666666" points="557.5,-194 445.5,-194 445.5,-162 557.5,-162 557.5,-194"/>
<text xml:space="preserve" text-anchor="start" x="453.5" y="-180.5" font-family="Helvetica,sans-Serif" font-size="10.00">Fiea::Engine::Content</text>
<text xml:space="preserve" text-anchor="middle" x="501.5" y="-168.5" font-family="Helvetica,sans-Serif" font-size="10.00">::Attributed::Attributed</text>
</a>
</g>
</g>
<!-- Node3&#45;&gt;Node4 -->
<g id="edge3_Node000003_Node000004" class="edge">
<title>Node3&#45;&gt;Node4</title>
<g id="a_edge3_Node000003_Node000004"><a xlink:title=" ">
<path fill="none" stroke="#63b8ff" d="M409.98,-163C417.84,-164.31 426,-165.66 434.07,-166.99"/>
<polygon fill="#63b8ff" stroke="#63b8ff" points="433.42,-170.44 443.86,-168.62 434.57,-163.53 433.42,-170.44"/>
</a>
</g>
</g>
<!-- Node3&#45;&gt;Node5 -->
<g id="edge5_Node000003_Node000005" class="edge">
<title>Node3&#45;&gt;Node5</title>
<g id="a_edge5_Node000003_Node000005"><a xlink:title=" ">
<path fill="none" stroke="#63b8ff" d="M409.57,-137.62C419.84,-134.5 430.64,-131.22 441.07,-128.05"/>
<polygon fill="#63b8ff" stroke="#63b8ff" points="441.77,-131.5 450.32,-125.24 439.73,-124.8 441.77,-131.5"/>
</a>
</g>
</g>
<!-- Node4&#45;&gt;Node4 -->
<g id="edge4_Node000004_Node000004" class="edge">
<title>Node4&#45;&gt;Node4</title>
<g id="a_edge4_Node000004_Node000004"><a xlink:title=" ">
<path fill="none" stroke="#63b8ff" d="M475.28,-194.44C470.38,-203.58 479.12,-212 501.5,-212 513.74,-212 521.9,-209.48 525.98,-205.71"/>
<polygon fill="#63b8ff" stroke="#63b8ff" points="529.42,-206.36 527.49,-195.94 522.5,-205.28 529.42,-206.36"/>
</a>
</g>
</g>
<!-- Node5&#45;&gt;Node5 -->
<g id="edge14_Node000005_Node000005" class="edge">
<title>Node5&#45;&gt;Node5</title>
<g id="a_edge14_Node000005_Node000005"><a xlink:title=" ">
<path fill="none" stroke="#63b8ff" d="M475.28,-126.44C470.38,-135.58 479.12,-144 501.5,-144 513.74,-144 521.9,-141.48 525.98,-137.71"/>
<polygon fill="#63b8ff" stroke="#63b8ff" points="529.42,-138.36 527.49,-127.94 522.5,-137.28 529.42,-138.36"/>
</a>
</g>
</g>
<!-- Node6 -->
<g id="Node000006" class="node">
<title>Node6</title>
<g id="a_Node000006"><a xlink:href="class_fiea_1_1_engine_1_1_r_t_t_i.html#a15bd5993c8ad04da47af440298ebbb30" target="_top" xlink:title=" ">
<polygon fill="white" stroke="#666666" points="710,-158 593.5,-158 593.5,-138 710,-138 710,-158"/>
<text xml:space="preserve" text-anchor="middle" x="651.75" y="-144.5" font-family="Helvetica,sans-Serif" font-size="10.00">Fiea::Engine::RTTI::As</text>
</a>
</g>
</g>
<!-- Node5&#45;&gt;Node6 -->
<g id="edge6_Node000005_Node000006" class="edge">
<title>Node5&#45;&gt;Node6</title>
<g id="a_edge6_Node000005_Node000006"><a xlink:title=" ">
<path fill="none" stroke="#63b8ff" d="M551.04,-122.44C566.4,-126.38 583.43,-130.74 599,-134.74"/>
<polygon fill="#63b8ff" stroke="#63b8ff" points="598.02,-138.1 608.57,-137.19 599.75,-131.32 598.02,-138.1"/>
</a>
</g>
</g>
<!-- Node7 -->
<g id="Node000007" class="node">
<title>Node7</title>
<g id="a_Node000007"><a xlink:href="class_fiea_1_1_engine_1_1_r_t_t_i.html#ac0a7d875e4513b2aca7594abcd4418ef" target="_top" xlink:title=" ">
<polygon fill="white" stroke="#666666" points="858.75,-180 746,-180 746,-160 858.75,-160 858.75,-180"/>
<text xml:space="preserve" text-anchor="middle" x="802.38" y="-166.5" font-family="Helvetica,sans-Serif" font-size="10.00">Fiea::Engine::RTTI::Is</text>
</a>
</g>
</g>
<!-- Node5&#45;&gt;Node7 -->
<g id="edge11_Node000005_Node000007" class="edge">
<title>Node5&#45;&gt;Node7</title>
<g id="a_edge11_Node000005_Node000007"><a xlink:title=" ">
<path fill="none" stroke="#63b8ff" d="M521.55,-126.34C538.98,-140.14 566.14,-158.93 593.5,-167 639.22,-180.5 693.1,-180.86 734.55,-178.06"/>
<polygon fill="#63b8ff" stroke="#63b8ff" points="734.68,-181.56 744.38,-177.31 734.14,-174.58 734.68,-181.56"/>
</a>
</g>
</g>
<!-- Node8 -->
<g id="Node000008" class="node">
<title>Node8</title>
<g id="a_Node000008"><a xlink:href="class_fiea_1_1_engine_1_1_r_t_t_i.html#a13000029a2e6cced30b831e466e07cae" target="_top" xlink:title=" ">
<polygon fill="white" stroke="#666666" points="851.62,-126 753.12,-126 753.12,-94 851.62,-94 851.62,-126"/>
<text xml:space="preserve" text-anchor="start" x="761.12" y="-112.5" font-family="Helvetica,sans-Serif" font-size="10.00">Fiea::Engine::RTTI</text>
<text xml:space="preserve" text-anchor="middle" x="802.38" y="-100.5" font-family="Helvetica,sans-Serif" font-size="10.00">::RTTI</text>
</a>
</g>
</g>
<!-- Node5&#45;&gt;Node8 -->
<g id="edge12_Node000005_Node000008" class="edge">
<title>Node5&#45;&gt;Node8</title>
<g id="a_edge12_Node000005_Node000008"><a xlink:title=" ">
<path fill="none" stroke="#63b8ff" d="M551.18,-110C603.07,-110 685.29,-110 741.2,-110"/>
<polygon fill="#63b8ff" stroke="#63b8ff" points="741.2,-113.5 751.2,-110 741.2,-106.5 741.2,-113.5"/>
</a>
</g>
</g>
<!-- Node9 -->
<g id="Node000009" class="node">
<title>Node9</title>
<g id="a_Node000009"><a xlink:href="class_fiea_1_1_engine_1_1_r_t_t_i.html#a7f70ad5ba0f8a3388543d63d72892575" target="_top" xlink:title=" ">
<polygon fill="white" stroke="#666666" points="701,-82 602.5,-82 602.5,-50 701,-50 701,-82"/>
<text xml:space="preserve" text-anchor="start" x="610.5" y="-68.5" font-family="Helvetica,sans-Serif" font-size="10.00">Fiea::Engine::RTTI</text>
<text xml:space="preserve" text-anchor="middle" x="651.75" y="-56.5" font-family="Helvetica,sans-Serif" font-size="10.00">::Equals</text>
</a>
</g>
</g>
<!-- Node5&#45;&gt;Node9 -->
<g id="edge9_Node000005_Node000009" class="edge">
<title>Node5&#45;&gt;Node9</title>
<g id="a_edge9_Node000005_Node000009"><a xlink:title=" ">
<path fill="none" stroke="#63b8ff" d="M551.04,-95.59C563.84,-91.79 577.8,-87.65 591.11,-83.7"/>
<polygon fill="#63b8ff" stroke="#63b8ff" points="592.06,-87.07 600.65,-80.87 590.06,-80.36 592.06,-87.07"/>
</a>
</g>
</g>
<!-- Node10 -->
<g id="Node000010" class="node">
<title>Node10</title>
<g id="a_Node000010"><a xlink:href="class_fiea_1_1_engine_1_1_r_t_t_i.html#a43a7d187e332a17d2c699bc2c8136a30" target="_top" xlink:title=" ">
<polygon fill="white" stroke="#666666" points="701,-32 602.5,-32 602.5,0 701,0 701,-32"/>
<text xml:space="preserve" text-anchor="start" x="610.5" y="-18.5" font-family="Helvetica,sans-Serif" font-size="10.00">Fiea::Engine::RTTI</text>
<text xml:space="preserve" text-anchor="middle" x="651.75" y="-6.5" font-family="Helvetica,sans-Serif" font-size="10.00">::ToString</text>
</a>
</g>
</g>
<!-- Node5&#45;&gt;Node10 -->
<g id="edge13_Node000005_Node000010" class="edge">
<title>Node5&#45;&gt;Node10</title>
<g id="a_edge13_Node000005_Node000010"><a xlink:title=" ">
<path fill="none" stroke="#63b8ff" d="M521.44,-93.51C539.22,-78.56 566.99,-56.54 593.5,-41 595.51,-39.82 597.59,-38.66 599.7,-37.53"/>
<polygon fill="#63b8ff" stroke="#63b8ff" points="601.09,-40.75 608.46,-33.13 597.95,-34.5 601.09,-40.75"/>
</a>
</g>
</g>
<!-- Node6&#45;&gt;Node7 -->
<g id="edge7_Node000006_Node000007" class="edge">
<title>Node6&#45;&gt;Node7</title>
<g id="a_edge7_Node000006_Node000007"><a xlink:title=" ">
<path fill="none" stroke="#63b8ff" d="M710.21,-156.51C718.1,-157.67 726.25,-158.88 734.28,-160.07"/>
<polygon fill="#63b8ff" stroke="#63b8ff" points="733.63,-163.51 744.03,-161.51 734.66,-156.59 733.63,-163.51"/>
</a>
</g>
</g>
<!-- Node6&#45;&gt;Node8 -->
<g id="edge8_Node000006_Node000008" class="edge">
<title>Node6&#45;&gt;Node8</title>
<g id="a_edge8_Node000006_Node000008"><a xlink:title=" ">
<path fill="none" stroke="#63b8ff" d="M693.76,-137.52C708.63,-133.71 725.74,-129.34 741.88,-125.21"/>
<polygon fill="#63b8ff" stroke="#63b8ff" points="742.57,-128.65 751.39,-122.78 740.84,-121.87 742.57,-128.65"/>
</a>
</g>
</g>
<!-- Node9&#45;&gt;Node8 -->
<g id="edge10_Node000009_Node000008" class="edge">
<title>Node9&#45;&gt;Node8</title>
<g id="a_edge10_Node000009_Node000008"><a xlink:title=" ">
<path fill="none" stroke="#63b8ff" d="M701.42,-80.41C714.44,-84.26 728.67,-88.47 742.19,-92.48"/>
<polygon fill="#63b8ff" stroke="#63b8ff" points="740.82,-95.72 751.4,-95.21 742.81,-89.01 740.82,-95.72"/>
</a>
</g>
</g>
</g>
</svg>
