<?xml version="1.0" encoding="UTF-8" standalone="no"?>
<!DOCTYPE svg PUBLIC "-//W3C//DTD SVG 1.1//EN"
 "http://www.w3.org/Graphics/SVG/1.1/DTD/svg11.dtd">
<!-- Generated by graphviz version 13.1.0 (20250701.0955)
 -->
<!-- Title: Fiea::Engine::Content::Attributed::IsClassAttribute Pages: 1 -->
<svg width="656pt" height="303pt"
 viewBox="0.00 0.00 656.00 303.00" xmlns="http://www.w3.org/2000/svg" xmlns:xlink="http://www.w3.org/1999/xlink">
<g id="graph0" class="graph" transform="scale(1 1) rotate(0) translate(4 299)">
<title>Fiea::Engine::Content::Attributed::IsClassAttribute</title>
<!-- Node1 -->
<g id="Node000001" class="node">
<title>Node1</title>
<g id="a_Node000001"><a xlink:title="Checks if a given key is a class attribute.">
<polygon fill="#999999" stroke="#666666" points="140.5,-220 0,-220 0,-188 140.5,-188 140.5,-220"/>
<text xml:space="preserve" text-anchor="start" x="8" y="-206.5" font-family="Helvetica,sans-Serif" font-size="10.00">Fiea::Engine::Content</text>
<text xml:space="preserve" text-anchor="middle" x="70.25" y="-194.5" font-family="Helvetica,sans-Serif" font-size="10.00">::Attributed::IsClassAttribute</text>
</a>
</g>
</g>
<!-- Node2 -->
<g id="Node000002" class="node">
<title>Node2</title>
<g id="a_Node000002"><a xlink:href="struct_fiea_1_1_engine_1_1_content_1_1_i_type_provider.html#a98897793b1bb048c7ca5f163351a239b" target="_top" xlink:title=" ">
<polygon fill="white" stroke="#666666" points="347,-295 176.5,-295 176.5,-263 347,-263 347,-295"/>
<text xml:space="preserve" text-anchor="start" x="184.5" y="-281.5" font-family="Helvetica,sans-Serif" font-size="10.00">Fiea::Engine::Content</text>
<text xml:space="preserve" text-anchor="middle" x="261.75" y="-269.5" font-family="Helvetica,sans-Serif" font-size="10.00">::ITypeProvider::GetClassDefinition</text>
</a>
</g>
</g>
<!-- Node1&#45;&gt;Node2 -->
<g id="edge1_Node000001_Node000002" class="edge">
<title>Node1&#45;&gt;Node2</title>
<g id="a_edge1_Node000001_Node000002"><a xlink:title=" ">
<path fill="none" stroke="#63b8ff" d="M102.47,-220.4C123.12,-230.86 151,-244.23 176.5,-254 180.91,-255.69 185.48,-257.34 190.11,-258.92"/>
<polygon fill="#63b8ff" stroke="#63b8ff" points="188.96,-262.23 199.55,-262.04 191.15,-255.58 188.96,-262.23"/>
</a>
</g>
</g>
<!-- Node3 -->
<g id="Node000003" class="node">
<title>Node3</title>
<g id="a_Node000003"><a xlink:href="class_fiea_1_1_engine_1_1_content_1_1_attributed.html#a2b6b6b36292afc12d93e046373d9a0f1" target="_top" xlink:title="Checks if a given key is an attribute.">
<polygon fill="white" stroke="#666666" points="319.25,-245 204.25,-245 204.25,-213 319.25,-213 319.25,-245"/>
<text xml:space="preserve" text-anchor="start" x="212.25" y="-231.5" font-family="Helvetica,sans-Serif" font-size="10.00">Fiea::Engine::Content</text>
<text xml:space="preserve" text-anchor="middle" x="261.75" y="-219.5" font-family="Helvetica,sans-Serif" font-size="10.00">::Attributed::IsAttribute</text>
</a>
</g>
</g>
<!-- Node1&#45;&gt;Node3 -->
<g id="edge2_Node000001_Node000003" class="edge">
<title>Node1&#45;&gt;Node3</title>
<g id="a_edge2_Node000001_Node000003"><a xlink:title=" ">
<path fill="none" stroke="#63b8ff" d="M140.74,-213.17C157.81,-215.42 176.06,-217.83 193.04,-220.07"/>
<polygon fill="#63b8ff" stroke="#63b8ff" points="192.12,-223.48 202.5,-221.31 193.04,-216.54 192.12,-223.48"/>
</a>
</g>
</g>
<!-- Node5 -->
<g id="Node000005" class="node">
<title>Node5</title>
<g id="a_Node000005"><a xlink:href="class_fiea_1_1_engine_1_1_service_manager.html#a8aac9b15b7e5483c2b1cd5febe590a0c" target="_top" xlink:title=" ">
<polygon fill="white" stroke="#666666" points="335.38,-195 188.12,-195 188.12,-163 335.38,-163 335.38,-195"/>
<text xml:space="preserve" text-anchor="start" x="196.12" y="-181.5" font-family="Helvetica,sans-Serif" font-size="10.00">Fiea::Engine::ServiceManager</text>
<text xml:space="preserve" text-anchor="middle" x="261.75" y="-169.5" font-family="Helvetica,sans-Serif" font-size="10.00">::ProvideInterface</text>
</a>
</g>
</g>
<!-- Node1&#45;&gt;Node5 -->
<g id="edge4_Node000001_Node000005" class="edge">
<title>Node1&#45;&gt;Node5</title>
<g id="a_edge4_Node000001_Node000005"><a xlink:title=" ">
<path fill="none" stroke="#63b8ff" d="M140.74,-194.83C152.34,-193.3 164.5,-191.7 176.43,-190.12"/>
<polygon fill="#63b8ff" stroke="#63b8ff" points="176.81,-193.6 186.27,-188.83 175.9,-186.66 176.81,-193.6"/>
</a>
</g>
</g>
<!-- Node6 -->
<g id="Node000006" class="node">
<title>Node6</title>
<g id="a_Node000006"><a xlink:href="class_fiea_1_1_engine_1_1_r_t_t_i.html#a876bebbe7b3149483c43a87f55f4ea99" target="_top" xlink:title=" ">
<polygon fill="white" stroke="#666666" points="311,-127 212.5,-127 212.5,-95 311,-95 311,-127"/>
<text xml:space="preserve" text-anchor="start" x="220.5" y="-113.5" font-family="Helvetica,sans-Serif" font-size="10.00">Fiea::Engine::RTTI</text>
<text xml:space="preserve" text-anchor="middle" x="261.75" y="-101.5" font-family="Helvetica,sans-Serif" font-size="10.00">::TypeIdInstance</text>
</a>
</g>
</g>
<!-- Node1&#45;&gt;Node6 -->
<g id="edge5_Node000001_Node000006" class="edge">
<title>Node1&#45;&gt;Node6</title>
<g id="a_edge5_Node000001_Node000006"><a xlink:title=" ">
<path fill="none" stroke="#63b8ff" d="M104.69,-187.59C135.99,-172.23 182.92,-149.2 217.14,-132.4"/>
<polygon fill="#63b8ff" stroke="#63b8ff" points="218.53,-135.62 225.96,-128.07 215.45,-129.34 218.53,-135.62"/>
</a>
</g>
</g>
<!-- Node4 -->
<g id="Node000004" class="node">
<title>Node4</title>
<g id="a_Node000004"><a xlink:href="class_fiea_1_1_engine_1_1_content_1_1_scope.html#ad924c01785b239991fc0e56a63295612" target="_top" xlink:title="Finds a Datum by key.">
<polygon fill="white" stroke="#666666" points="496.88,-246 385.62,-246 385.62,-214 496.88,-214 496.88,-246"/>
<text xml:space="preserve" text-anchor="start" x="393.62" y="-232.5" font-family="Helvetica,sans-Serif" font-size="10.00">Fiea::Engine::Content</text>
<text xml:space="preserve" text-anchor="middle" x="441.25" y="-220.5" font-family="Helvetica,sans-Serif" font-size="10.00">::Scope::Find</text>
</a>
</g>
</g>
<!-- Node3&#45;&gt;Node4 -->
<g id="edge3_Node000003_Node000004" class="edge">
<title>Node3&#45;&gt;Node4</title>
<g id="a_edge3_Node000003_Node000004"><a xlink:title=" ">
<path fill="none" stroke="#63b8ff" d="M319.4,-229.32C336.79,-229.42 356.09,-229.53 374.06,-229.63"/>
<polygon fill="#63b8ff" stroke="#63b8ff" points="373.82,-233.13 383.84,-229.68 373.86,-226.13 373.82,-233.13"/>
</a>
</g>
</g>
<!-- Node6&#45;&gt;Node6 -->
<g id="edge14_Node000006_Node000006" class="edge">
<title>Node6&#45;&gt;Node6</title>
<g id="a_edge14_Node000006_Node000006"><a xlink:title=" ">
<path fill="none" stroke="#63b8ff" d="M229.7,-127.44C223.72,-136.58 234.4,-145 261.75,-145 276.7,-145 286.68,-142.48 291.66,-138.71"/>
<polygon fill="#63b8ff" stroke="#63b8ff" points="295.09,-139.41 293.51,-128.93 288.21,-138.1 295.09,-139.41"/>
</a>
</g>
</g>
<!-- Node7 -->
<g id="Node000007" class="node">
<title>Node7</title>
<g id="a_Node000007"><a xlink:href="class_fiea_1_1_engine_1_1_r_t_t_i.html#a15bd5993c8ad04da47af440298ebbb30" target="_top" xlink:title=" ">
<polygon fill="white" stroke="#666666" points="499.5,-158 383,-158 383,-138 499.5,-138 499.5,-158"/>
<text xml:space="preserve" text-anchor="middle" x="441.25" y="-144.5" font-family="Helvetica,sans-Serif" font-size="10.00">Fiea::Engine::RTTI::As</text>
</a>
</g>
</g>
<!-- Node6&#45;&gt;Node7 -->
<g id="edge6_Node000006_Node000007" class="edge">
<title>Node6&#45;&gt;Node7</title>
<g id="a_edge6_Node000006_Node000007"><a xlink:title=" ">
<path fill="none" stroke="#63b8ff" d="M311.25,-121.11C332.15,-125.47 356.83,-130.61 378.97,-135.23"/>
<polygon fill="#63b8ff" stroke="#63b8ff" points="377.96,-138.59 388.47,-137.21 379.39,-131.74 377.96,-138.59"/>
</a>
</g>
</g>
<!-- Node8 -->
<g id="Node000008" class="node">
<title>Node8</title>
<g id="a_Node000008"><a xlink:href="class_fiea_1_1_engine_1_1_r_t_t_i.html#ac0a7d875e4513b2aca7594abcd4418ef" target="_top" xlink:title=" ">
<polygon fill="white" stroke="#666666" points="648.25,-180 535.5,-180 535.5,-160 648.25,-160 648.25,-180"/>
<text xml:space="preserve" text-anchor="middle" x="591.88" y="-166.5" font-family="Helvetica,sans-Serif" font-size="10.00">Fiea::Engine::RTTI::Is</text>
</a>
</g>
</g>
<!-- Node6&#45;&gt;Node8 -->
<g id="edge11_Node000006_Node000008" class="edge">
<title>Node6&#45;&gt;Node8</title>
<g id="a_edge11_Node000006_Node000008"><a xlink:title=" ">
<path fill="none" stroke="#63b8ff" d="M294.05,-127.41C323.35,-142.43 365.21,-162.93 383,-167 429.31,-177.61 482.95,-178.1 524.14,-176.07"/>
<polygon fill="#63b8ff" stroke="#63b8ff" points="524.12,-179.58 533.9,-175.53 523.72,-172.59 524.12,-179.58"/>
</a>
</g>
</g>
<!-- Node9 -->
<g id="Node000009" class="node">
<title>Node9</title>
<g id="a_Node000009"><a xlink:href="class_fiea_1_1_engine_1_1_r_t_t_i.html#a13000029a2e6cced30b831e466e07cae" target="_top" xlink:title=" ">
<polygon fill="white" stroke="#666666" points="641.12,-126 542.62,-126 542.62,-94 641.12,-94 641.12,-126"/>
<text xml:space="preserve" text-anchor="start" x="550.62" y="-112.5" font-family="Helvetica,sans-Serif" font-size="10.00">Fiea::Engine::RTTI</text>
<text xml:space="preserve" text-anchor="middle" x="591.88" y="-100.5" font-family="Helvetica,sans-Serif" font-size="10.00">::RTTI</text>
</a>
</g>
</g>
<!-- Node6&#45;&gt;Node9 -->
<g id="edge12_Node000006_Node000009" class="edge">
<title>Node6&#45;&gt;Node9</title>
<g id="a_edge12_Node000006_Node000009"><a xlink:title=" ">
<path fill="none" stroke="#63b8ff" d="M311.17,-110.85C369.57,-110.67 467.75,-110.38 530.9,-110.18"/>
<polygon fill="#63b8ff" stroke="#63b8ff" points="530.76,-113.68 540.75,-110.15 530.74,-106.68 530.76,-113.68"/>
</a>
</g>
</g>
<!-- Node10 -->
<g id="Node000010" class="node">
<title>Node10</title>
<g id="a_Node000010"><a xlink:href="class_fiea_1_1_engine_1_1_r_t_t_i.html#a7f70ad5ba0f8a3388543d63d72892575" target="_top" xlink:title=" ">
<polygon fill="white" stroke="#666666" points="490.5,-82 392,-82 392,-50 490.5,-50 490.5,-82"/>
<text xml:space="preserve" text-anchor="start" x="400" y="-68.5" font-family="Helvetica,sans-Serif" font-size="10.00">Fiea::Engine::RTTI</text>
<text xml:space="preserve" text-anchor="middle" x="441.25" y="-56.5" font-family="Helvetica,sans-Serif" font-size="10.00">::Equals</text>
</a>
</g>
</g>
<!-- Node6&#45;&gt;Node10 -->
<g id="edge9_Node000006_Node000010" class="edge">
<title>Node6&#45;&gt;Node10</title>
<g id="a_edge9_Node000006_Node000010"><a xlink:title=" ">
<path fill="none" stroke="#63b8ff" d="M311.25,-98.7C332.78,-93.25 358.31,-86.77 380.95,-81.03"/>
<polygon fill="#63b8ff" stroke="#63b8ff" points="381.51,-84.5 390.34,-78.65 379.79,-77.72 381.51,-84.5"/>
</a>
</g>
</g>
<!-- Node11 -->
<g id="Node000011" class="node">
<title>Node11</title>
<g id="a_Node000011"><a xlink:href="class_fiea_1_1_engine_1_1_r_t_t_i.html#a43a7d187e332a17d2c699bc2c8136a30" target="_top" xlink:title=" ">
<polygon fill="white" stroke="#666666" points="490.5,-32 392,-32 392,0 490.5,0 490.5,-32"/>
<text xml:space="preserve" text-anchor="start" x="400" y="-18.5" font-family="Helvetica,sans-Serif" font-size="10.00">Fiea::Engine::RTTI</text>
<text xml:space="preserve" text-anchor="middle" x="441.25" y="-6.5" font-family="Helvetica,sans-Serif" font-size="10.00">::ToString</text>
</a>
</g>
</g>
<!-- Node6&#45;&gt;Node11 -->
<g id="edge13_Node000006_Node000011" class="edge">
<title>Node6&#45;&gt;Node11</title>
<g id="a_edge13_Node000006_Node000011"><a xlink:title=" ">
<path fill="none" stroke="#63b8ff" d="M289.01,-94.53C313.05,-79.74 349.82,-57.83 383,-41 385.5,-39.73 388.07,-38.47 390.68,-37.22"/>
<polygon fill="#63b8ff" stroke="#63b8ff" points="391.89,-40.51 399.49,-33.12 388.94,-34.17 391.89,-40.51"/>
</a>
</g>
</g>
<!-- Node7&#45;&gt;Node8 -->
<g id="edge7_Node000007_Node000008" class="edge">
<title>Node7&#45;&gt;Node8</title>
<g id="a_edge7_Node000007_Node000008"><a xlink:title=" ">
<path fill="none" stroke="#63b8ff" d="M499.71,-156.51C507.6,-157.67 515.75,-158.88 523.78,-160.07"/>
<polygon fill="#63b8ff" stroke="#63b8ff" points="523.13,-163.51 533.53,-161.51 524.16,-156.59 523.13,-163.51"/>
</a>
</g>
</g>
<!-- Node7&#45;&gt;Node9 -->
<g id="edge8_Node000007_Node000009" class="edge">
<title>Node7&#45;&gt;Node9</title>
<g id="a_edge8_Node000007_Node000009"><a xlink:title=" ">
<path fill="none" stroke="#63b8ff" d="M483.26,-137.52C498.13,-133.71 515.24,-129.34 531.38,-125.21"/>
<polygon fill="#63b8ff" stroke="#63b8ff" points="532.07,-128.65 540.89,-122.78 530.34,-121.87 532.07,-128.65"/>
</a>
</g>
</g>
<!-- Node10&#45;&gt;Node9 -->
<g id="edge10_Node000010_Node000009" class="edge">
<title>Node10&#45;&gt;Node9</title>
<g id="a_edge10_Node000010_Node000009"><a xlink:title=" ">
<path fill="none" stroke="#63b8ff" d="M490.92,-80.41C503.94,-84.26 518.17,-88.47 531.69,-92.48"/>
<polygon fill="#63b8ff" stroke="#63b8ff" points="530.32,-95.72 540.9,-95.21 532.31,-89.01 530.32,-95.72"/>
</a>
</g>
</g>
</g>
</svg>
