<?xml version="1.0" encoding="UTF-8" standalone="no"?>
<!DOCTYPE svg PUBLIC "-//W3C//DTD SVG 1.1//EN"
 "http://www.w3.org/Graphics/SVG/1.1/DTD/svg11.dtd">
<!-- Generated by graphviz version 13.1.0 (20250701.0955)
 -->
<!-- Title: Fiea::Engine::Actions::Action::RunAction Pages: 1 -->
<svg width="578pt" height="532pt"
 viewBox="0.00 0.00 578.00 532.00" xmlns="http://www.w3.org/2000/svg" xmlns:xlink="http://www.w3.org/1999/xlink">
<g id="graph0" class="graph" transform="scale(1 1) rotate(0) translate(4 528)">
<title>Fiea::Engine::Actions::Action::RunAction</title>
<!-- Node1 -->
<g id="Node000001" class="node">
<title>Node1</title>
<g id="a_Node000001"><a xlink:title=" ">
<polygon fill="#999999" stroke="#666666" points="570.25,-266 460.5,-266 460.5,-234 570.25,-234 570.25,-266"/>
<text xml:space="preserve" text-anchor="start" x="468.5" y="-252.5" font-family="Helvetica,sans-Serif" font-size="10.00">Fiea::Engine::Actions</text>
<text xml:space="preserve" text-anchor="middle" x="515.38" y="-240.5" font-family="Helvetica,sans-Serif" font-size="10.00">::Action::RunAction</text>
</a>
</g>
</g>
<!-- Node2 -->
<g id="Node000002" class="node">
<title>Node2</title>
<g id="a_Node000002"><a xlink:href="class_fiea_1_1_engine_1_1_actions_1_1_action.html#abea83b3796a80d29394f644634477d7b" target="_top" xlink:title=" ">
<polygon fill="white" stroke="#666666" points="424.5,-266 314.75,-266 314.75,-234 424.5,-234 424.5,-266"/>
<text xml:space="preserve" text-anchor="start" x="322.75" y="-252.5" font-family="Helvetica,sans-Serif" font-size="10.00">Fiea::Engine::Actions</text>
<text xml:space="preserve" text-anchor="middle" x="369.62" y="-240.5" font-family="Helvetica,sans-Serif" font-size="10.00">::Action::Update</text>
</a>
</g>
</g>
<!-- Node1&#45;&gt;Node2 -->
<g id="edge1_Node000001_Node000002" class="edge">
<title>Node1&#45;&gt;Node2</title>
<g id="a_edge1_Node000001_Node000002"><a xlink:title=" ">
<path fill="none" stroke="#63b8ff" d="M448.72,-250C440.64,-250 432.45,-250 424.57,-250"/>
<polygon fill="#63b8ff" stroke="#63b8ff" points="448.52,-253.5 458.52,-250 448.52,-246.5 448.52,-253.5"/>
</a>
</g>
</g>
<!-- Node3 -->
<g id="Node000003" class="node">
<title>Node3</title>
<g id="a_Node000003"><a xlink:href="class_fiea_1_1_engine_1_1_actions_1_1_action_list_while_loop.html#ac52e5fce78944ac5a9aa9325d1c32bf7" target="_top" xlink:title=" ">
<polygon fill="white" stroke="#666666" points="263.38,-524 152.12,-524 152.12,-480 263.38,-480 263.38,-524"/>
<text xml:space="preserve" text-anchor="start" x="160.12" y="-510.5" font-family="Helvetica,sans-Serif" font-size="10.00">Fiea::Engine::Actions</text>
<text xml:space="preserve" text-anchor="start" x="160.12" y="-498.5" font-family="Helvetica,sans-Serif" font-size="10.00">::ActionListWhileLoop</text>
<text xml:space="preserve" text-anchor="middle" x="207.75" y="-486.5" font-family="Helvetica,sans-Serif" font-size="10.00">::InitAction</text>
</a>
</g>
</g>
<!-- Node2&#45;&gt;Node3 -->
<g id="edge2_Node000002_Node000003" class="edge">
<title>Node2&#45;&gt;Node3</title>
<g id="a_edge2_Node000002_Node000003"><a xlink:title=" ">
<path fill="none" stroke="#63b8ff" d="M364.28,-277.53C355.73,-323.3 332.62,-415.46 278.75,-471 274.4,-475.48 269.29,-479.37 263.84,-482.72"/>
<polygon fill="#63b8ff" stroke="#63b8ff" points="367.69,-278.38 365.98,-267.93 360.79,-277.17 367.69,-278.38"/>
</a>
</g>
</g>
<!-- Node4 -->
<g id="Node000004" class="node">
<title>Node4</title>
<g id="a_Node000004"><a xlink:href="class_fiea_1_1_engine_1_1_actions_1_1_action_conditional_increment.html#a4cb7636a1237acda5ef08f94cb41ae48" target="_top" xlink:title=" ">
<polygon fill="white" stroke="#666666" points="278.75,-462 136.75,-462 136.75,-418 278.75,-418 278.75,-462"/>
<text xml:space="preserve" text-anchor="start" x="144.75" y="-448.5" font-family="Helvetica,sans-Serif" font-size="10.00">Fiea::Engine::Actions</text>
<text xml:space="preserve" text-anchor="start" x="144.75" y="-436.5" font-family="Helvetica,sans-Serif" font-size="10.00">::ActionConditionalIncrement</text>
<text xml:space="preserve" text-anchor="middle" x="207.75" y="-424.5" font-family="Helvetica,sans-Serif" font-size="10.00">::RunAction</text>
</a>
</g>
</g>
<!-- Node2&#45;&gt;Node4 -->
<g id="edge3_Node000002_Node000004" class="edge">
<title>Node2&#45;&gt;Node4</title>
<g id="a_edge3_Node000002_Node000004"><a xlink:title=" ">
<path fill="none" stroke="#63b8ff" d="M359.51,-276.9C346.54,-311.6 319.69,-371.87 278.75,-409 275.3,-412.13 271.49,-414.98 267.48,-417.57"/>
<polygon fill="#63b8ff" stroke="#63b8ff" points="362.77,-278.21 362.87,-267.61 356.18,-275.83 362.77,-278.21"/>
</a>
</g>
</g>
<!-- Node5 -->
<g id="Node000005" class="node">
<title>Node5</title>
<g id="a_Node000005"><a xlink:href="class_fiea_1_1_engine_1_1_actions_1_1_action_delayed.html#a709534fdda2c17d92f4324f84e29d977" target="_top" xlink:title=" ">
<polygon fill="white" stroke="#666666" points="276.5,-400 139,-400 139,-368 276.5,-368 276.5,-400"/>
<text xml:space="preserve" text-anchor="start" x="147" y="-386.5" font-family="Helvetica,sans-Serif" font-size="10.00">Fiea::Engine::Actions</text>
<text xml:space="preserve" text-anchor="middle" x="207.75" y="-374.5" font-family="Helvetica,sans-Serif" font-size="10.00">::ActionDelayed::RunAction</text>
</a>
</g>
</g>
<!-- Node2&#45;&gt;Node5 -->
<g id="edge4_Node000002_Node000005" class="edge">
<title>Node2&#45;&gt;Node5</title>
<g id="a_edge4_Node000002_Node000005"><a xlink:title=" ">
<path fill="none" stroke="#63b8ff" d="M352.99,-276.13C337.1,-300.66 310.37,-336.8 278.75,-359 274.21,-362.19 269.22,-365.01 264.06,-367.5"/>
<polygon fill="#63b8ff" stroke="#63b8ff" points="355.94,-278.02 358.31,-267.69 350.02,-274.28 355.94,-278.02"/>
</a>
</g>
</g>
<!-- Node6 -->
<g id="Node000006" class="node">
<title>Node6</title>
<g id="a_Node000006"><a xlink:href="class_fiea_1_1_engine_1_1_actions_1_1_action_list.html#a492054b1164d5e86602f968527ac0b9d" target="_top" xlink:title=" ">
<polygon fill="white" stroke="#666666" points="266.38,-350 149.12,-350 149.12,-318 266.38,-318 266.38,-350"/>
<text xml:space="preserve" text-anchor="start" x="157.12" y="-336.5" font-family="Helvetica,sans-Serif" font-size="10.00">Fiea::Engine::Actions</text>
<text xml:space="preserve" text-anchor="middle" x="207.75" y="-324.5" font-family="Helvetica,sans-Serif" font-size="10.00">::ActionList::RunAction</text>
</a>
</g>
</g>
<!-- Node2&#45;&gt;Node6 -->
<g id="edge5_Node000002_Node000006" class="edge">
<title>Node2&#45;&gt;Node6</title>
<g id="a_edge5_Node000002_Node000006"><a xlink:title=" ">
<path fill="none" stroke="#63b8ff" d="M337.65,-272.98C320.81,-284.77 299.28,-298.78 278.75,-309 272.63,-312.05 266.04,-314.91 259.44,-317.52"/>
<polygon fill="#63b8ff" stroke="#63b8ff" points="339.63,-275.86 345.75,-267.21 335.57,-270.16 339.63,-275.86"/>
</a>
</g>
</g>
<!-- Node7 -->
<g id="Node000007" class="node">
<title>Node7</title>
<g id="a_Node000007"><a xlink:href="class_fiea_1_1_engine_1_1_actions_1_1_action_list_while_loop.html#a7290de0f669f9591885d994906b2736f" target="_top" xlink:title=" ">
<polygon fill="white" stroke="#666666" points="263.38,-300 152.12,-300 152.12,-256 263.38,-256 263.38,-300"/>
<text xml:space="preserve" text-anchor="start" x="160.12" y="-286.5" font-family="Helvetica,sans-Serif" font-size="10.00">Fiea::Engine::Actions</text>
<text xml:space="preserve" text-anchor="start" x="160.12" y="-274.5" font-family="Helvetica,sans-Serif" font-size="10.00">::ActionListWhileLoop</text>
<text xml:space="preserve" text-anchor="middle" x="207.75" y="-262.5" font-family="Helvetica,sans-Serif" font-size="10.00">::RunAction</text>
</a>
</g>
</g>
<!-- Node2&#45;&gt;Node7 -->
<g id="edge6_Node000002_Node000007" class="edge">
<title>Node2&#45;&gt;Node7</title>
<g id="a_edge6_Node000002_Node000007"><a xlink:title=" ">
<path fill="none" stroke="#63b8ff" d="M303.54,-261.4C290.29,-263.72 276.49,-266.14 263.64,-268.39"/>
<polygon fill="#63b8ff" stroke="#63b8ff" points="303.76,-264.91 313.01,-259.74 302.55,-258.02 303.76,-264.91"/>
</a>
</g>
</g>
<!-- Node8 -->
<g id="Node000008" class="node">
<title>Node8</title>
<g id="a_Node000008"><a xlink:href="class_fiea_1_1_engine_1_1_actions_1_1_action_timed.html#a1a83c312108a0d9f3ac4f84a5042db38" target="_top" xlink:title=" ">
<polygon fill="white" stroke="#666666" points="272,-238 143.5,-238 143.5,-206 272,-206 272,-238"/>
<text xml:space="preserve" text-anchor="start" x="151.5" y="-224.5" font-family="Helvetica,sans-Serif" font-size="10.00">Fiea::Engine::Actions</text>
<text xml:space="preserve" text-anchor="middle" x="207.75" y="-212.5" font-family="Helvetica,sans-Serif" font-size="10.00">::ActionTimed::RunAction</text>
</a>
</g>
</g>
<!-- Node2&#45;&gt;Node8 -->
<g id="edge7_Node000002_Node000008" class="edge">
<title>Node2&#45;&gt;Node8</title>
<g id="a_edge7_Node000002_Node000008"><a xlink:title=" ">
<path fill="none" stroke="#63b8ff" d="M303.22,-238.54C293.07,-236.77 282.6,-234.93 272.49,-233.16"/>
<polygon fill="#63b8ff" stroke="#63b8ff" points="302.55,-241.98 313.01,-240.26 303.76,-235.09 302.55,-241.98"/>
</a>
</g>
</g>
<!-- Node9 -->
<g id="Node000009" class="node">
<title>Node9</title>
<g id="a_Node000009"><a xlink:href="namespace_fiea_1_1_engine_1_1_tests.html#a6fef2096c3071aeedc84a735d125856c" target="_top" xlink:title=" ">
<polygon fill="white" stroke="#666666" points="258.12,-188 157.38,-188 157.38,-156 258.12,-156 258.12,-188"/>
<text xml:space="preserve" text-anchor="start" x="165.38" y="-174.5" font-family="Helvetica,sans-Serif" font-size="10.00">Fiea::Engine::Tests</text>
<text xml:space="preserve" text-anchor="middle" x="207.75" y="-162.5" font-family="Helvetica,sans-Serif" font-size="10.00">::TEST_CLASS</text>
</a>
</g>
</g>
<!-- Node2&#45;&gt;Node9 -->
<g id="edge8_Node000002_Node000009" class="edge">
<title>Node2&#45;&gt;Node9</title>
<g id="a_edge8_Node000002_Node000009"><a xlink:title=" ">
<path fill="none" stroke="#63b8ff" d="M334.08,-227.54C317.71,-217.45 297.63,-205.84 278.75,-197 272.32,-193.99 265.43,-191.12 258.56,-188.47"/>
<polygon fill="#63b8ff" stroke="#63b8ff" points="332.14,-230.46 342.47,-232.8 335.85,-224.52 332.14,-230.46"/>
</a>
</g>
</g>
<!-- Node10 -->
<g id="Node000010" class="node">
<title>Node10</title>
<g id="a_Node000010"><a xlink:href="namespace_fiea_1_1_engine_1_1_tests.html#a376f9ed8237603ebeb822c9076f2f630" target="_top" xlink:title=" ">
<polygon fill="white" stroke="#666666" points="258.12,-138 157.38,-138 157.38,-106 258.12,-106 258.12,-138"/>
<text xml:space="preserve" text-anchor="start" x="165.38" y="-124.5" font-family="Helvetica,sans-Serif" font-size="10.00">Fiea::Engine::Tests</text>
<text xml:space="preserve" text-anchor="middle" x="207.75" y="-112.5" font-family="Helvetica,sans-Serif" font-size="10.00">::TEST_CLASS</text>
</a>
</g>
</g>
<!-- Node2&#45;&gt;Node10 -->
<g id="edge9_Node000002_Node000010" class="edge">
<title>Node2&#45;&gt;Node10</title>
<g id="a_edge9_Node000002_Node000010"><a xlink:title=" ">
<path fill="none" stroke="#63b8ff" d="M352.12,-224.56C335.94,-201.43 309.29,-167.82 278.75,-147 272.56,-142.79 265.59,-139.2 258.5,-136.17"/>
<polygon fill="#63b8ff" stroke="#63b8ff" points="349.02,-226.23 357.55,-232.52 354.81,-222.28 349.02,-226.23"/>
</a>
</g>
</g>
<!-- Node11 -->
<g id="Node000011" class="node">
<title>Node11</title>
<g id="a_Node000011"><a xlink:href="namespace_fiea_1_1_engine_1_1_tests.html#a89b054e30b186f60d7f23c17503265da" target="_top" xlink:title=" ">
<polygon fill="white" stroke="#666666" points="100.75,-88 0,-88 0,-56 100.75,-56 100.75,-88"/>
<text xml:space="preserve" text-anchor="start" x="8" y="-74.5" font-family="Helvetica,sans-Serif" font-size="10.00">Fiea::Engine::Tests</text>
<text xml:space="preserve" text-anchor="middle" x="50.38" y="-62.5" font-family="Helvetica,sans-Serif" font-size="10.00">::TEST_CLASS</text>
</a>
</g>
</g>
<!-- Node2&#45;&gt;Node11 -->
<g id="edge10_Node000002_Node000011" class="edge">
<title>Node2&#45;&gt;Node11</title>
<g id="a_edge10_Node000002_Node000011"><a xlink:title=" ">
<path fill="none" stroke="#63b8ff" d="M360.96,-222.66C349.44,-187.17 324.05,-126.33 278.75,-97 225.41,-62.47 149.93,-61.33 100.82,-65.34"/>
<polygon fill="#63b8ff" stroke="#63b8ff" points="357.6,-223.67 363.89,-232.19 364.29,-221.61 357.6,-223.67"/>
</a>
</g>
</g>
<!-- Node12 -->
<g id="Node000012" class="node">
<title>Node12</title>
<g id="a_Node000012"><a xlink:href="class_fiea_1_1_engine_1_1_game_object.html#a98e7dc26718acd4dba6f1b5bbe0483b8" target="_top" xlink:title=" ">
<polygon fill="white" stroke="#666666" points="273.5,-32 142,-32 142,0 273.5,0 273.5,-32"/>
<text xml:space="preserve" text-anchor="start" x="150" y="-18.5" font-family="Helvetica,sans-Serif" font-size="10.00">Fiea::Engine::GameObject</text>
<text xml:space="preserve" text-anchor="middle" x="207.75" y="-6.5" font-family="Helvetica,sans-Serif" font-size="10.00">::Update</text>
</a>
</g>
</g>
<!-- Node2&#45;&gt;Node12 -->
<g id="edge11_Node000002_Node000012" class="edge">
<title>Node2&#45;&gt;Node12</title>
<g id="a_edge11_Node000002_Node000012"><a xlink:title=" ">
<path fill="none" stroke="#63b8ff" d="M360.48,-222.84C347.86,-184.21 320.59,-112.68 278.75,-64 267.9,-51.37 252.99,-40.54 239.72,-32.38"/>
<polygon fill="#63b8ff" stroke="#63b8ff" points="357.11,-223.8 363.47,-232.27 363.78,-221.68 357.11,-223.8"/>
</a>
</g>
</g>
<!-- Node12&#45;&gt;Node11 -->
<g id="edge13_Node000012_Node000011" class="edge">
<title>Node12&#45;&gt;Node11</title>
<g id="a_edge13_Node000012_Node000011"><a xlink:title=" ">
<path fill="none" stroke="#63b8ff" d="M150.32,-36.34C132.82,-42.65 113.77,-49.51 97.09,-55.52"/>
<polygon fill="#63b8ff" stroke="#63b8ff" points="151.33,-39.7 159.55,-33.01 148.95,-33.11 151.33,-39.7"/>
</a>
</g>
</g>
<!-- Node12&#45;&gt;Node12 -->
<g id="edge14_Node000012_Node000012" class="edge">
<title>Node12&#45;&gt;Node12</title>
<g id="a_edge14_Node000012_Node000012"><a xlink:title=" ">
<path fill="none" stroke="#63b8ff" d="M233.98,-43.71C229.6,-47.48 220.86,-50 207.75,-50 183.77,-50 174.41,-41.58 179.65,-32.44"/>
<polygon fill="#63b8ff" stroke="#63b8ff" points="237.41,-44.37 235.6,-33.94 230.51,-43.23 237.41,-44.37"/>
</a>
</g>
</g>
<!-- Node13 -->
<g id="Node000013" class="node">
<title>Node13</title>
<g id="a_Node000013"><a xlink:href="namespace_fiea_1_1_engine_1_1_tests.html#a34b2b8dfbe4f7aa6a3ea0a5f24db384f" target="_top" xlink:title=" ">
<polygon fill="white" stroke="#666666" points="100.75,-32 0,-32 0,0 100.75,0 100.75,-32"/>
<text xml:space="preserve" text-anchor="start" x="8" y="-18.5" font-family="Helvetica,sans-Serif" font-size="10.00">Fiea::Engine::Tests</text>
<text xml:space="preserve" text-anchor="middle" x="50.38" y="-6.5" font-family="Helvetica,sans-Serif" font-size="10.00">::TEST_CLASS</text>
</a>
</g>
</g>
<!-- Node12&#45;&gt;Node13 -->
<g id="edge12_Node000012_Node000013" class="edge">
<title>Node12&#45;&gt;Node13</title>
<g id="a_edge12_Node000012_Node000013"><a xlink:title=" ">
<path fill="none" stroke="#63b8ff" d="M130.49,-16C120.46,-16 110.4,-16 100.98,-16"/>
<polygon fill="#63b8ff" stroke="#63b8ff" points="130.24,-19.5 140.24,-16 130.24,-12.5 130.24,-19.5"/>
</a>
</g>
</g>
</g>
</svg>
