<?xml version="1.0" encoding="UTF-8" standalone="no"?>
<!DOCTYPE svg PUBLIC "-//W3C//DTD SVG 1.1//EN"
 "http://www.w3.org/Graphics/SVG/1.1/DTD/svg11.dtd">
<!-- Generated by graphviz version 13.1.0 (20250701.0955)
 -->
<!-- Title: Fiea::Engine::Content::ScopeWriter::AddWhileActionParamObject Pages: 1 -->
<svg width="820pt" height="422pt"
 viewBox="0.00 0.00 820.00 422.00" xmlns="http://www.w3.org/2000/svg" xmlns:xlink="http://www.w3.org/1999/xlink">
<g id="graph0" class="graph" transform="scale(1 1) rotate(0) translate(4 418)">
<title>Fiea::Engine::Content::ScopeWriter::AddWhileActionParamObject</title>
<!-- Node1 -->
<g id="Node000001" class="node">
<title>Node1</title>
<g id="a_Node000001"><a xlink:title=" ">
<polygon fill="#999999" stroke="#666666" points="151,-88 0,-88 0,-44 151,-44 151,-88"/>
<text xml:space="preserve" text-anchor="start" x="8" y="-74.5" font-family="Helvetica,sans-Serif" font-size="10.00">Fiea::Engine::Content</text>
<text xml:space="preserve" text-anchor="start" x="8" y="-62.5" font-family="Helvetica,sans-Serif" font-size="10.00">::ScopeWriter::AddWhileAction</text>
<text xml:space="preserve" text-anchor="middle" x="75.5" y="-50.5" font-family="Helvetica,sans-Serif" font-size="10.00">ParamObject</text>
</a>
</g>
</g>
<!-- Node2 -->
<g id="Node000002" class="node">
<title>Node2</title>
<g id="a_Node000002"><a xlink:href="class_fiea_1_1_engine_1_1_content_1_1_scope.html#a002f54731a8996f37c4f725d8175ffee" target="_top" xlink:title="Appends a new Scope as a child under the specified key.">
<polygon fill="white" stroke="#666666" points="318.88,-242 202.38,-242 202.38,-210 318.88,-210 318.88,-242"/>
<text xml:space="preserve" text-anchor="start" x="210.38" y="-228.5" font-family="Helvetica,sans-Serif" font-size="10.00">Fiea::Engine::Content</text>
<text xml:space="preserve" text-anchor="middle" x="260.62" y="-216.5" font-family="Helvetica,sans-Serif" font-size="10.00">::Scope::AppendScope</text>
</a>
</g>
</g>
<!-- Node1&#45;&gt;Node2 -->
<g id="edge1_Node000001_Node000002" class="edge">
<title>Node1&#45;&gt;Node2</title>
<g id="a_edge1_Node000001_Node000002"><a xlink:title=" ">
<path fill="none" stroke="#63b8ff" d="M101.96,-88.25C136.3,-118.25 197.19,-171.45 232.41,-202.22"/>
<polygon fill="#63b8ff" stroke="#63b8ff" points="229.8,-204.59 239.64,-208.54 234.41,-199.32 229.8,-204.59"/>
</a>
</g>
</g>
<!-- Node12 -->
<g id="Node000012" class="node">
<title>Node12</title>
<g id="a_Node000012"><a xlink:href="struct_fiea_1_1_engine_1_1_content_1_1_i_factory_service.html#a06ed01632b58a4faeb159d3e9a0ef51f" target="_top" xlink:title=" ">
<polygon fill="white" stroke="#666666" points="323.75,-82 197.5,-82 197.5,-50 323.75,-50 323.75,-82"/>
<text xml:space="preserve" text-anchor="start" x="205.5" y="-68.5" font-family="Helvetica,sans-Serif" font-size="10.00">Fiea::Engine::Content</text>
<text xml:space="preserve" text-anchor="middle" x="260.62" y="-56.5" font-family="Helvetica,sans-Serif" font-size="10.00">::IFactoryService::Create</text>
</a>
</g>
</g>
<!-- Node1&#45;&gt;Node12 -->
<g id="edge15_Node000001_Node000012" class="edge">
<title>Node1&#45;&gt;Node12</title>
<g id="a_edge15_Node000001_Node000012"><a xlink:title=" ">
<path fill="none" stroke="#63b8ff" d="M151.25,-66C162.67,-66 174.46,-66 185.86,-66"/>
<polygon fill="#63b8ff" stroke="#63b8ff" points="185.59,-69.5 195.59,-66 185.59,-62.5 185.59,-69.5"/>
</a>
</g>
</g>
<!-- Node17 -->
<g id="Node000017" class="node">
<title>Node17</title>
<g id="a_Node000017"><a xlink:href="class_fiea_1_1_engine_1_1_service_manager.html#a8aac9b15b7e5483c2b1cd5febe590a0c" target="_top" xlink:title=" ">
<polygon fill="white" stroke="#666666" points="334.25,-32 187,-32 187,0 334.25,0 334.25,-32"/>
<text xml:space="preserve" text-anchor="start" x="195" y="-18.5" font-family="Helvetica,sans-Serif" font-size="10.00">Fiea::Engine::ServiceManager</text>
<text xml:space="preserve" text-anchor="middle" x="260.62" y="-6.5" font-family="Helvetica,sans-Serif" font-size="10.00">::ProvideInterface</text>
</a>
</g>
</g>
<!-- Node1&#45;&gt;Node17 -->
<g id="edge20_Node000001_Node000017" class="edge">
<title>Node1&#45;&gt;Node17</title>
<g id="a_edge20_Node000001_Node000017"><a xlink:title=" ">
<path fill="none" stroke="#63b8ff" d="M151.25,-45.59C163.51,-42.24 176.2,-38.78 188.38,-35.45"/>
<polygon fill="#63b8ff" stroke="#63b8ff" points="189.21,-38.85 197.93,-32.84 187.36,-32.1 189.21,-38.85"/>
</a>
</g>
</g>
<!-- Node3 -->
<g id="Node000003" class="node">
<title>Node3</title>
<g id="a_Node000003"><a xlink:href="class_fiea_1_1_engine_1_1_content_1_1_scope.html#aa91d6470fd3d3f402bbb2e765be54455" target="_top" xlink:title="Appends a new Datum with the given key.">
<polygon fill="white" stroke="#666666" points="498.75,-414 387.5,-414 387.5,-382 498.75,-382 498.75,-414"/>
<text xml:space="preserve" text-anchor="start" x="395.5" y="-400.5" font-family="Helvetica,sans-Serif" font-size="10.00">Fiea::Engine::Content</text>
<text xml:space="preserve" text-anchor="middle" x="443.12" y="-388.5" font-family="Helvetica,sans-Serif" font-size="10.00">::Scope::Append</text>
</a>
</g>
</g>
<!-- Node2&#45;&gt;Node3 -->
<g id="edge2_Node000002_Node000003" class="edge">
<title>Node2&#45;&gt;Node3</title>
<g id="a_edge2_Node000002_Node000003"><a xlink:title=" ">
<path fill="none" stroke="#63b8ff" d="M269.4,-242.2C284.62,-272.25 321.18,-336.88 370.25,-373 372.53,-374.68 374.93,-376.25 377.42,-377.73"/>
<polygon fill="#63b8ff" stroke="#63b8ff" points="375.54,-380.69 386.03,-382.22 378.79,-374.49 375.54,-380.69"/>
</a>
</g>
</g>
<!-- Node4 -->
<g id="Node000004" class="node">
<title>Node4</title>
<g id="a_Node000004"><a xlink:href="class_fiea_1_1_engine_1_1_content_1_1_scope.html#ad924c01785b239991fc0e56a63295612" target="_top" xlink:title="Finds a Datum by key.">
<polygon fill="white" stroke="#666666" points="498.75,-364 387.5,-364 387.5,-332 498.75,-332 498.75,-364"/>
<text xml:space="preserve" text-anchor="start" x="395.5" y="-350.5" font-family="Helvetica,sans-Serif" font-size="10.00">Fiea::Engine::Content</text>
<text xml:space="preserve" text-anchor="middle" x="443.12" y="-338.5" font-family="Helvetica,sans-Serif" font-size="10.00">::Scope::Find</text>
</a>
</g>
</g>
<!-- Node2&#45;&gt;Node4 -->
<g id="edge3_Node000002_Node000004" class="edge">
<title>Node2&#45;&gt;Node4</title>
<g id="a_edge3_Node000002_Node000004"><a xlink:title=" ">
<path fill="none" stroke="#63b8ff" d="M275.91,-242.25C295.36,-263.47 332.12,-300.56 370.25,-323 372.42,-324.28 374.67,-325.51 376.98,-326.68"/>
<polygon fill="#63b8ff" stroke="#63b8ff" points="375.42,-329.82 385.96,-330.87 378.38,-323.47 375.42,-329.82"/>
</a>
</g>
</g>
<!-- Node5 -->
<g id="Node000005" class="node">
<title>Node5</title>
<g id="a_Node000005"><a xlink:href="class_fiea_1_1_engine_1_1_content_1_1_datum.html#a6e9dfba6e16fddc4efc39b8182dad89f" target="_top" xlink:title=" ">
<polygon fill="white" stroke="#666666" points="498.75,-314 387.5,-314 387.5,-282 498.75,-282 498.75,-314"/>
<text xml:space="preserve" text-anchor="start" x="395.5" y="-300.5" font-family="Helvetica,sans-Serif" font-size="10.00">Fiea::Engine::Content</text>
<text xml:space="preserve" text-anchor="middle" x="443.12" y="-288.5" font-family="Helvetica,sans-Serif" font-size="10.00">::Datum::IsType</text>
</a>
</g>
</g>
<!-- Node2&#45;&gt;Node5 -->
<g id="edge4_Node000002_Node000005" class="edge">
<title>Node2&#45;&gt;Node5</title>
<g id="a_edge4_Node000002_Node000005"><a xlink:title=" ">
<path fill="none" stroke="#63b8ff" d="M297.56,-242.34C318.59,-251.7 345.74,-263.45 370.25,-273 374.29,-274.57 378.47,-276.16 382.7,-277.72"/>
<polygon fill="#63b8ff" stroke="#63b8ff" points="381.22,-280.9 391.81,-281.02 383.6,-274.32 381.22,-280.9"/>
</a>
</g>
</g>
<!-- Node6 -->
<g id="Node000006" class="node">
<title>Node6</title>
<g id="a_Node000006"><a xlink:href="class_fiea_1_1_engine_1_1_content_1_1_datum.html#acb3ba55fc9b39b876cf3334d0305f4fc" target="_top" xlink:title=" ">
<polygon fill="white" stroke="#666666" points="498.75,-264 387.5,-264 387.5,-232 498.75,-232 498.75,-264"/>
<text xml:space="preserve" text-anchor="start" x="395.5" y="-250.5" font-family="Helvetica,sans-Serif" font-size="10.00">Fiea::Engine::Content</text>
<text xml:space="preserve" text-anchor="middle" x="443.12" y="-238.5" font-family="Helvetica,sans-Serif" font-size="10.00">::Datum::Push</text>
</a>
</g>
</g>
<!-- Node2&#45;&gt;Node6 -->
<g id="edge5_Node000002_Node000006" class="edge">
<title>Node2&#45;&gt;Node6</title>
<g id="a_edge5_Node000002_Node000006"><a xlink:title=" ">
<path fill="none" stroke="#63b8ff" d="M319.23,-233.02C337.26,-235.22 357.3,-237.66 375.87,-239.92"/>
<polygon fill="#63b8ff" stroke="#63b8ff" points="375.36,-243.39 385.71,-241.12 376.21,-236.44 375.36,-243.39"/>
</a>
</g>
</g>
<!-- Node9 -->
<g id="Node000009" class="node">
<title>Node9</title>
<g id="a_Node000009"><a xlink:href="class_fiea_1_1_engine_1_1_content_1_1_scope.html#a6631343c968c233ab1d9c3e05c3f4fe9" target="_top" xlink:title=" ">
<polygon fill="white" stroke="#666666" points="664,-189 552.75,-189 552.75,-157 664,-157 664,-189"/>
<text xml:space="preserve" text-anchor="start" x="560.75" y="-175.5" font-family="Helvetica,sans-Serif" font-size="10.00">Fiea::Engine::Content</text>
<text xml:space="preserve" text-anchor="middle" x="608.38" y="-163.5" font-family="Helvetica,sans-Serif" font-size="10.00">::Scope::Scope</text>
</a>
</g>
</g>
<!-- Node2&#45;&gt;Node9 -->
<g id="edge10_Node000002_Node000009" class="edge">
<title>Node2&#45;&gt;Node9</title>
<g id="a_edge10_Node000002_Node000009"><a xlink:title=" ">
<path fill="none" stroke="#63b8ff" d="M319.11,-217.19C380.24,-207.82 476.82,-193.01 541.11,-183.16"/>
<polygon fill="#63b8ff" stroke="#63b8ff" points="541.48,-186.64 550.83,-181.67 540.42,-179.72 541.48,-186.64"/>
</a>
</g>
</g>
<!-- Node10 -->
<g id="Node000010" class="node">
<title>Node10</title>
<g id="a_Node000010"><a xlink:href="class_fiea_1_1_engine_1_1_content_1_1_scope.html#af6a94922a8fa123c3b22b7b4485963de" target="_top" xlink:title=" ">
<polygon fill="white" stroke="#666666" points="498.75,-176 387.5,-176 387.5,-144 498.75,-144 498.75,-176"/>
<text xml:space="preserve" text-anchor="start" x="395.5" y="-162.5" font-family="Helvetica,sans-Serif" font-size="10.00">Fiea::Engine::Content</text>
<text xml:space="preserve" text-anchor="middle" x="443.12" y="-150.5" font-family="Helvetica,sans-Serif" font-size="10.00">::Scope::SetParent</text>
</a>
</g>
</g>
<!-- Node2&#45;&gt;Node10 -->
<g id="edge12_Node000002_Node000010" class="edge">
<title>Node2&#45;&gt;Node10</title>
<g id="a_edge12_Node000002_Node000010"><a xlink:title=" ">
<path fill="none" stroke="#63b8ff" d="M306.71,-209.52C330.92,-200.66 360.98,-189.67 386.62,-180.3"/>
<polygon fill="#63b8ff" stroke="#63b8ff" points="387.69,-183.63 395.88,-176.91 385.29,-177.06 387.69,-183.63"/>
</a>
</g>
</g>
<!-- Node11 -->
<g id="Node000011" class="node">
<title>Node11</title>
<g id="a_Node000011"><a xlink:href="class_fiea_1_1_engine_1_1_content_1_1_datum.html#a23d1f16d9646f024a5dee1f05dbd5a5e" target="_top" xlink:title=" ">
<polygon fill="white" stroke="#666666" points="498.75,-126 387.5,-126 387.5,-94 498.75,-94 498.75,-126"/>
<text xml:space="preserve" text-anchor="start" x="395.5" y="-112.5" font-family="Helvetica,sans-Serif" font-size="10.00">Fiea::Engine::Content</text>
<text xml:space="preserve" text-anchor="middle" x="443.12" y="-100.5" font-family="Helvetica,sans-Serif" font-size="10.00">::Datum::SetType</text>
</a>
</g>
</g>
<!-- Node2&#45;&gt;Node11 -->
<g id="edge14_Node000002_Node000011" class="edge">
<title>Node2&#45;&gt;Node11</title>
<g id="a_edge14_Node000002_Node000011"><a xlink:title=" ">
<path fill="none" stroke="#63b8ff" d="M277.15,-209.78C297.06,-189.78 333.45,-155.88 370.25,-135 372.58,-133.68 374.99,-132.41 377.45,-131.2"/>
<polygon fill="#63b8ff" stroke="#63b8ff" points="378.77,-134.44 386.43,-127.12 375.88,-128.07 378.77,-134.44"/>
</a>
</g>
</g>
<!-- Node7 -->
<g id="Node000007" class="node">
<title>Node7</title>
<g id="a_Node000007"><a xlink:href="class_fiea_1_1_engine_1_1_content_1_1_datum.html#a818f812e4489e57885c88951bc0601b3" target="_top" xlink:title=" ">
<polygon fill="white" stroke="#666666" points="664,-301 552.75,-301 552.75,-269 664,-269 664,-301"/>
<text xml:space="preserve" text-anchor="start" x="560.75" y="-287.5" font-family="Helvetica,sans-Serif" font-size="10.00">Fiea::Engine::Content</text>
<text xml:space="preserve" text-anchor="middle" x="608.38" y="-275.5" font-family="Helvetica,sans-Serif" font-size="10.00">::Datum::ResizeArray</text>
</a>
</g>
</g>
<!-- Node6&#45;&gt;Node7 -->
<g id="edge6_Node000006_Node000007" class="edge">
<title>Node6&#45;&gt;Node7</title>
<g id="a_edge6_Node000006_Node000007"><a xlink:title=" ">
<path fill="none" stroke="#63b8ff" d="M498.94,-260.42C512.53,-263.5 527.24,-266.84 541.31,-270.03"/>
<polygon fill="#63b8ff" stroke="#63b8ff" points="540.43,-273.41 550.95,-272.21 541.97,-266.59 540.43,-273.41"/>
</a>
</g>
</g>
<!-- Node8 -->
<g id="Node000008" class="node">
<title>Node8</title>
<g id="a_Node000008"><a xlink:href="class_fiea_1_1_engine_1_1_content_1_1_datum.html#a921193447f6e42f596ac0a7694b02830" target="_top" xlink:title=" ">
<polygon fill="white" stroke="#666666" points="812,-279 700.75,-279 700.75,-247 812,-247 812,-279"/>
<text xml:space="preserve" text-anchor="start" x="708.75" y="-265.5" font-family="Helvetica,sans-Serif" font-size="10.00">Fiea::Engine::Content</text>
<text xml:space="preserve" text-anchor="middle" x="756.38" y="-253.5" font-family="Helvetica,sans-Serif" font-size="10.00">::Datum::Scope</text>
</a>
</g>
</g>
<!-- Node6&#45;&gt;Node8 -->
<g id="edge9_Node000006_Node000008" class="edge">
<title>Node6&#45;&gt;Node8</title>
<g id="a_edge9_Node000006_Node000008"><a xlink:title=" ">
<path fill="none" stroke="#63b8ff" d="M499.05,-250.65C552.12,-253.2 632.55,-257.08 689.13,-259.81"/>
<polygon fill="#63b8ff" stroke="#63b8ff" points="688.8,-263.3 698.96,-260.28 689.14,-256.3 688.8,-263.3"/>
</a>
</g>
</g>
<!-- Node7&#45;&gt;Node8 -->
<g id="edge7_Node000007_Node000008" class="edge">
<title>Node7&#45;&gt;Node8</title>
<g id="a_edge7_Node000007_Node000008"><a xlink:title=" ">
<path fill="none" stroke="#63b8ff" d="M664.16,-276.75C672.28,-275.52 680.72,-274.25 689.05,-272.99"/>
<polygon fill="#63b8ff" stroke="#63b8ff" points="689.42,-276.48 698.79,-271.53 688.38,-269.56 689.42,-276.48"/>
</a>
</g>
</g>
<!-- Node8&#45;&gt;Node8 -->
<g id="edge8_Node000008_Node000008" class="edge">
<title>Node8&#45;&gt;Node8</title>
<g id="a_edge8_Node000008_Node000008"><a xlink:title=" ">
<path fill="none" stroke="#63b8ff" d="M729.95,-279.44C725.02,-288.58 733.83,-297 756.38,-297 768.71,-297 776.93,-294.48 781.04,-290.71"/>
<polygon fill="#63b8ff" stroke="#63b8ff" points="784.48,-291.36 782.56,-280.94 777.56,-290.28 784.48,-291.36"/>
</a>
</g>
</g>
<!-- Node9&#45;&gt;Node9 -->
<g id="edge11_Node000009_Node000009" class="edge">
<title>Node9&#45;&gt;Node9</title>
<g id="a_edge11_Node000009_Node000009"><a xlink:title=" ">
<path fill="none" stroke="#63b8ff" d="M581.95,-189.44C577.02,-198.58 585.83,-207 608.38,-207 620.71,-207 628.93,-204.48 633.04,-200.71"/>
<polygon fill="#63b8ff" stroke="#63b8ff" points="636.48,-201.36 634.56,-190.94 629.56,-200.28 636.48,-201.36"/>
</a>
</g>
</g>
<!-- Node10&#45;&gt;Node9 -->
<g id="edge13_Node000010_Node000009" class="edge">
<title>Node10&#45;&gt;Node9</title>
<g id="a_edge13_Node000010_Node000009"><a xlink:title=" ">
<path fill="none" stroke="#63b8ff" d="M498.94,-164.36C512.53,-165.45 527.24,-166.62 541.31,-167.74"/>
<polygon fill="#63b8ff" stroke="#63b8ff" points="540.67,-171.2 550.92,-168.5 541.23,-164.22 540.67,-171.2"/>
</a>
</g>
</g>
<!-- Node13 -->
<g id="Node000013" class="node">
<title>Node13</title>
<g id="a_Node000013"><a xlink:href="class_fiea_1_1_engine_1_1_r_t_t_i.html#a15bd5993c8ad04da47af440298ebbb30" target="_top" xlink:title=" ">
<polygon fill="white" stroke="#666666" points="501.38,-76 384.88,-76 384.88,-56 501.38,-56 501.38,-76"/>
<text xml:space="preserve" text-anchor="middle" x="443.12" y="-62.5" font-family="Helvetica,sans-Serif" font-size="10.00">Fiea::Engine::RTTI::As</text>
</a>
</g>
</g>
<!-- Node12&#45;&gt;Node13 -->
<g id="edge16_Node000012_Node000013" class="edge">
<title>Node12&#45;&gt;Node13</title>
<g id="a_edge16_Node000012_Node000013"><a xlink:title=" ">
<path fill="none" stroke="#63b8ff" d="M324.25,-66C339.98,-66 356.95,-66 372.98,-66"/>
<polygon fill="#63b8ff" stroke="#63b8ff" points="372.94,-69.5 382.94,-66 372.94,-62.5 372.94,-69.5"/>
</a>
</g>
</g>
<!-- Node16 -->
<g id="Node000016" class="node">
<title>Node16</title>
<g id="a_Node000016"><a xlink:href="struct_fiea_1_1_engine_1_1_content_1_1_i_factory_service.html#a287380a07bd649e87bba6b3762554c20" target="_top" xlink:title=" ">
<polygon fill="white" stroke="#666666" points="516,-38 370.25,-38 370.25,-6 516,-6 516,-38"/>
<text xml:space="preserve" text-anchor="start" x="378.25" y="-24.5" font-family="Helvetica,sans-Serif" font-size="10.00">Fiea::Engine::Content</text>
<text xml:space="preserve" text-anchor="middle" x="443.12" y="-12.5" font-family="Helvetica,sans-Serif" font-size="10.00">::IFactoryService::GetFactory</text>
</a>
</g>
</g>
<!-- Node12&#45;&gt;Node16 -->
<g id="edge19_Node000012_Node000016" class="edge">
<title>Node12&#45;&gt;Node16</title>
<g id="a_edge19_Node000012_Node000016"><a xlink:title=" ">
<path fill="none" stroke="#63b8ff" d="M324.25,-50.73C336.98,-47.63 350.52,-44.33 363.71,-41.11"/>
<polygon fill="#63b8ff" stroke="#63b8ff" points="364.33,-44.57 373.22,-38.8 362.67,-37.77 364.33,-44.57"/>
</a>
</g>
</g>
<!-- Node14 -->
<g id="Node000014" class="node">
<title>Node14</title>
<g id="a_Node000014"><a xlink:href="class_fiea_1_1_engine_1_1_r_t_t_i.html#ac0a7d875e4513b2aca7594abcd4418ef" target="_top" xlink:title=" ">
<polygon fill="white" stroke="#666666" points="664.75,-98 552,-98 552,-78 664.75,-78 664.75,-98"/>
<text xml:space="preserve" text-anchor="middle" x="608.38" y="-84.5" font-family="Helvetica,sans-Serif" font-size="10.00">Fiea::Engine::RTTI::Is</text>
</a>
</g>
</g>
<!-- Node13&#45;&gt;Node14 -->
<g id="edge17_Node000013_Node000014" class="edge">
<title>Node13&#45;&gt;Node14</title>
<g id="a_edge17_Node000013_Node000014"><a xlink:title=" ">
<path fill="none" stroke="#63b8ff" d="M501.68,-73.76C514.25,-75.45 527.65,-77.26 540.54,-78.99"/>
<polygon fill="#63b8ff" stroke="#63b8ff" points="539.83,-82.43 550.21,-80.3 540.77,-75.49 539.83,-82.43"/>
</a>
</g>
</g>
<!-- Node15 -->
<g id="Node000015" class="node">
<title>Node15</title>
<g id="a_Node000015"><a xlink:href="class_fiea_1_1_engine_1_1_r_t_t_i.html#a13000029a2e6cced30b831e466e07cae" target="_top" xlink:title=" ">
<polygon fill="white" stroke="#666666" points="657.62,-60 559.12,-60 559.12,-28 657.62,-28 657.62,-60"/>
<text xml:space="preserve" text-anchor="start" x="567.12" y="-46.5" font-family="Helvetica,sans-Serif" font-size="10.00">Fiea::Engine::RTTI</text>
<text xml:space="preserve" text-anchor="middle" x="608.38" y="-34.5" font-family="Helvetica,sans-Serif" font-size="10.00">::RTTI</text>
</a>
</g>
</g>
<!-- Node13&#45;&gt;Node15 -->
<g id="edge18_Node000013_Node000015" class="edge">
<title>Node13&#45;&gt;Node15</title>
<g id="a_edge18_Node000013_Node000015"><a xlink:title=" ">
<path fill="none" stroke="#63b8ff" d="M501.68,-58.24C516.53,-56.24 532.55,-54.08 547.51,-52.07"/>
<polygon fill="#63b8ff" stroke="#63b8ff" points="547.77,-55.56 557.21,-50.76 546.84,-48.63 547.77,-55.56"/>
</a>
</g>
</g>
</g>
</svg>
