<?xml version="1.0" encoding="UTF-8" standalone="no"?>
<!DOCTYPE svg PUBLIC "-//W3C//DTD SVG 1.1//EN"
 "http://www.w3.org/Graphics/SVG/1.1/DTD/svg11.dtd">
<!-- Generated by graphviz version 13.1.0 (20250701.0955)
 -->
<!-- Title: Fiea::Engine::Content::ScopeFactoryHandler::EnterKey Pages: 1 -->
<svg width="1290pt" height="532pt"
 viewBox="0.00 0.00 1290.00 532.00" xmlns="http://www.w3.org/2000/svg" xmlns:xlink="http://www.w3.org/1999/xlink">
<g id="graph0" class="graph" transform="scale(1 1) rotate(0) translate(4 528)">
<title>Fiea::Engine::Content::ScopeFactoryHandler::EnterKey</title>
<!-- Node1 -->
<g id="Node000001" class="node">
<title>Node1</title>
<g id="a_Node000001"><a xlink:title=" ">
<polygon fill="#999999" stroke="#666666" points="116.5,-132 0,-132 0,-88 116.5,-88 116.5,-132"/>
<text xml:space="preserve" text-anchor="start" x="8" y="-118.5" font-family="Helvetica,sans-Serif" font-size="10.00">Fiea::Engine::Content</text>
<text xml:space="preserve" text-anchor="start" x="8" y="-106.5" font-family="Helvetica,sans-Serif" font-size="10.00">::ScopeFactoryHandler</text>
<text xml:space="preserve" text-anchor="middle" x="58.25" y="-94.5" font-family="Helvetica,sans-Serif" font-size="10.00">::EnterKey</text>
</a>
</g>
</g>
<!-- Node2 -->
<g id="Node000002" class="node">
<title>Node2</title>
<g id="a_Node000002"><a xlink:href="class_fiea_1_1_engine_1_1_content_1_1_scope_writer.html#a77fe1b124acb1dd1bd3f2d7f104035cf" target="_top" xlink:title=" ">
<polygon fill="white" stroke="#666666" points="278.75,-236 152.5,-236 152.5,-204 278.75,-204 278.75,-236"/>
<text xml:space="preserve" text-anchor="start" x="160.5" y="-222.5" font-family="Helvetica,sans-Serif" font-size="10.00">Fiea::Engine::Content</text>
<text xml:space="preserve" text-anchor="middle" x="215.62" y="-210.5" font-family="Helvetica,sans-Serif" font-size="10.00">::ScopeWriter::AddScope</text>
</a>
</g>
</g>
<!-- Node1&#45;&gt;Node2 -->
<g id="edge1_Node000001_Node000002" class="edge">
<title>Node1&#45;&gt;Node2</title>
<g id="a_edge1_Node000001_Node000002"><a xlink:title=" ">
<path fill="none" stroke="#63b8ff" d="M90.69,-132.26C117.23,-151.05 155.08,-177.85 181.96,-196.87"/>
<polygon fill="#63b8ff" stroke="#63b8ff" points="179.9,-199.71 190.09,-202.63 183.95,-193.99 179.9,-199.71"/>
</a>
</g>
</g>
<!-- Node9 -->
<g id="Node000009" class="node">
<title>Node9</title>
<g id="a_Node000009"><a xlink:href="class_fiea_1_1_engine_1_1_r_t_t_i.html#a15bd5993c8ad04da47af440298ebbb30" target="_top" xlink:title=" ">
<polygon fill="white" stroke="#666666" points="1133.5,-101 1017,-101 1017,-81 1133.5,-81 1133.5,-101"/>
<text xml:space="preserve" text-anchor="middle" x="1075.25" y="-87.5" font-family="Helvetica,sans-Serif" font-size="10.00">Fiea::Engine::RTTI::As</text>
</a>
</g>
</g>
<!-- Node1&#45;&gt;Node9 -->
<g id="edge41_Node000001_Node000009" class="edge">
<title>Node1&#45;&gt;Node9</title>
<g id="a_edge41_Node000001_Node000009"><a xlink:title=" ">
<path fill="none" stroke="#63b8ff" d="M98.87,-87.61C159.61,-55.44 280.28,0 390.38,0 390.38,0 390.38,0 761.12,0 868.33,0 988.28,-49.8 1043.45,-75.72"/>
<polygon fill="#63b8ff" stroke="#63b8ff" points="1041.7,-78.76 1052.23,-79.91 1044.71,-72.44 1041.7,-78.76"/>
</a>
</g>
</g>
<!-- Node3 -->
<g id="Node000003" class="node">
<title>Node3</title>
<g id="a_Node000003"><a xlink:href="class_fiea_1_1_engine_1_1_content_1_1_scope_writer.html#a707086401a09fd8b2f07d65a1f95fd72" target="_top" xlink:title=" ">
<polygon fill="white" stroke="#666666" points="468,-236 314.75,-236 314.75,-204 468,-204 468,-236"/>
<text xml:space="preserve" text-anchor="start" x="322.75" y="-222.5" font-family="Helvetica,sans-Serif" font-size="10.00">Fiea::Engine::Content</text>
<text xml:space="preserve" text-anchor="middle" x="391.38" y="-210.5" font-family="Helvetica,sans-Serif" font-size="10.00">::ScopeWriter::AddGameObject</text>
</a>
</g>
</g>
<!-- Node2&#45;&gt;Node3 -->
<g id="edge2_Node000002_Node000003" class="edge">
<title>Node2&#45;&gt;Node3</title>
<g id="a_edge2_Node000002_Node000003"><a xlink:title=" ">
<path fill="none" stroke="#63b8ff" d="M278.86,-220C286.67,-220 294.77,-220 302.88,-220"/>
<polygon fill="#63b8ff" stroke="#63b8ff" points="302.8,-223.5 312.8,-220 302.8,-216.5 302.8,-223.5"/>
</a>
</g>
</g>
<!-- Node17 -->
<g id="Node000017" class="node">
<title>Node17</title>
<g id="a_Node000017"><a xlink:href="class_fiea_1_1_engine_1_1_content_1_1_scope.html#a002f54731a8996f37c4f725d8175ffee" target="_top" xlink:title="Appends a new Scope as a child under the specified key.">
<polygon fill="white" stroke="#666666" points="635.88,-286 519.38,-286 519.38,-254 635.88,-254 635.88,-286"/>
<text xml:space="preserve" text-anchor="start" x="527.38" y="-272.5" font-family="Helvetica,sans-Serif" font-size="10.00">Fiea::Engine::Content</text>
<text xml:space="preserve" text-anchor="middle" x="577.62" y="-260.5" font-family="Helvetica,sans-Serif" font-size="10.00">::Scope::AppendScope</text>
</a>
</g>
</g>
<!-- Node2&#45;&gt;Node17 -->
<g id="edge38_Node000002_Node000017" class="edge">
<title>Node2&#45;&gt;Node17</title>
<g id="a_edge38_Node000002_Node000017"><a xlink:title=" ">
<path fill="none" stroke="#63b8ff" d="M275.2,-236.49C288.14,-239.7 301.85,-242.75 314.75,-245 379.72,-256.31 454.72,-262.81 507.76,-266.34"/>
<polygon fill="#63b8ff" stroke="#63b8ff" points="507.35,-269.82 517.56,-266.97 507.8,-262.83 507.35,-269.82"/>
</a>
</g>
</g>
<!-- Node23 -->
<g id="Node000023" class="node">
<title>Node23</title>
<g id="a_Node000023"><a xlink:href="struct_fiea_1_1_engine_1_1_content_1_1_i_factory_service.html#a06ed01632b58a4faeb159d3e9a0ef51f" target="_top" xlink:title=" ">
<polygon fill="white" stroke="#666666" points="640.75,-98 514.5,-98 514.5,-66 640.75,-66 640.75,-98"/>
<text xml:space="preserve" text-anchor="start" x="522.5" y="-84.5" font-family="Helvetica,sans-Serif" font-size="10.00">Fiea::Engine::Content</text>
<text xml:space="preserve" text-anchor="middle" x="577.62" y="-72.5" font-family="Helvetica,sans-Serif" font-size="10.00">::IFactoryService::Create</text>
</a>
</g>
</g>
<!-- Node2&#45;&gt;Node23 -->
<g id="edge39_Node000002_Node000023" class="edge">
<title>Node2&#45;&gt;Node23</title>
<g id="a_edge39_Node000002_Node000023"><a xlink:title=" ">
<path fill="none" stroke="#63b8ff" d="M259.34,-203.63C325.15,-178.4 451.25,-130.06 523.07,-102.53"/>
<polygon fill="#63b8ff" stroke="#63b8ff" points="524.19,-105.85 532.28,-99 521.69,-99.31 524.19,-105.85"/>
</a>
</g>
</g>
<!-- Node25 -->
<g id="Node000025" class="node">
<title>Node25</title>
<g id="a_Node000025"><a xlink:href="class_fiea_1_1_engine_1_1_service_manager.html#a8aac9b15b7e5483c2b1cd5febe590a0c" target="_top" xlink:title=" ">
<polygon fill="white" stroke="#666666" points="651.25,-336 504,-336 504,-304 651.25,-304 651.25,-336"/>
<text xml:space="preserve" text-anchor="start" x="512" y="-322.5" font-family="Helvetica,sans-Serif" font-size="10.00">Fiea::Engine::ServiceManager</text>
<text xml:space="preserve" text-anchor="middle" x="577.62" y="-310.5" font-family="Helvetica,sans-Serif" font-size="10.00">::ProvideInterface</text>
</a>
</g>
</g>
<!-- Node2&#45;&gt;Node25 -->
<g id="edge40_Node000002_Node000025" class="edge">
<title>Node2&#45;&gt;Node25</title>
<g id="a_edge40_Node000002_Node000025"><a xlink:title=" ">
<path fill="none" stroke="#63b8ff" d="M244.99,-236.32C264.15,-246.72 290.31,-259.75 314.75,-268 372.65,-287.54 440.36,-300.74 492.42,-308.96"/>
<polygon fill="#63b8ff" stroke="#63b8ff" points="491.71,-312.39 502.12,-310.45 492.78,-305.47 491.71,-312.39"/>
</a>
</g>
</g>
<!-- Node4 -->
<g id="Node000004" class="node">
<title>Node4</title>
<g id="a_Node000004"><a xlink:href="class_fiea_1_1_engine_1_1_game_object.html#a4d89e3a21dd6381eac8a1f1189ea029e" target="_top" xlink:title=" ">
<polygon fill="white" stroke="#666666" points="643.38,-236 511.88,-236 511.88,-204 643.38,-204 643.38,-236"/>
<text xml:space="preserve" text-anchor="start" x="519.88" y="-222.5" font-family="Helvetica,sans-Serif" font-size="10.00">Fiea::Engine::GameObject</text>
<text xml:space="preserve" text-anchor="middle" x="577.62" y="-210.5" font-family="Helvetica,sans-Serif" font-size="10.00">::AddChild</text>
</a>
</g>
</g>
<!-- Node3&#45;&gt;Node4 -->
<g id="edge3_Node000003_Node000004" class="edge">
<title>Node3&#45;&gt;Node4</title>
<g id="a_edge3_Node000003_Node000004"><a xlink:title=" ">
<path fill="none" stroke="#63b8ff" d="M468.38,-220C478.94,-220 489.78,-220 500.34,-220"/>
<polygon fill="#63b8ff" stroke="#63b8ff" points="500.15,-223.5 510.15,-220 500.15,-216.5 500.15,-223.5"/>
</a>
</g>
</g>
<!-- Node3&#45;&gt;Node9 -->
<g id="edge33_Node000003_Node000009" class="edge">
<title>Node3&#45;&gt;Node9</title>
<g id="a_edge33_Node000003_Node000009"><a xlink:title=" ">
<path fill="none" stroke="#63b8ff" d="M449.31,-203.53C508.39,-186.9 603.67,-161.41 687.25,-145 746.66,-133.34 911.36,-111.69 1005.65,-99.64"/>
<polygon fill="#63b8ff" stroke="#63b8ff" points="1005.81,-103.15 1015.28,-98.42 1004.92,-96.21 1005.81,-103.15"/>
</a>
</g>
</g>
<!-- Node3&#45;&gt;Node17 -->
<g id="edge23_Node000003_Node000017" class="edge">
<title>Node3&#45;&gt;Node17</title>
<g id="a_edge23_Node000003_Node000017"><a xlink:title=" ">
<path fill="none" stroke="#63b8ff" d="M452.96,-236.44C470.59,-241.23 489.98,-246.49 508.06,-251.39"/>
<polygon fill="#63b8ff" stroke="#63b8ff" points="507.1,-254.76 517.67,-254 508.94,-248 507.1,-254.76"/>
</a>
</g>
</g>
<!-- Node3&#45;&gt;Node23 -->
<g id="edge34_Node000003_Node000023" class="edge">
<title>Node3&#45;&gt;Node23</title>
<g id="a_edge34_Node000003_Node000023"><a xlink:title=" ">
<path fill="none" stroke="#63b8ff" d="M408.67,-203.57C436.99,-175.11 493.29,-119.02 504,-112 508.8,-108.86 513.98,-105.93 519.29,-103.25"/>
<polygon fill="#63b8ff" stroke="#63b8ff" points="520.67,-106.46 528.22,-99.02 517.68,-100.14 520.67,-106.46"/>
</a>
</g>
</g>
<!-- Node3&#45;&gt;Node25 -->
<g id="edge37_Node000003_Node000025" class="edge">
<title>Node3&#45;&gt;Node25</title>
<g id="a_edge37_Node000003_Node000025"><a xlink:title=" ">
<path fill="none" stroke="#63b8ff" d="M413.18,-236.4C434.87,-252.91 470.34,-278.26 504,-295 506.91,-296.45 509.92,-297.85 513,-299.19"/>
<polygon fill="#63b8ff" stroke="#63b8ff" points="511.62,-302.41 522.2,-302.98 514.29,-295.94 511.62,-302.41"/>
</a>
</g>
</g>
<!-- Node5 -->
<g id="Node000005" class="node">
<title>Node5</title>
<g id="a_Node000005"><a xlink:href="class_fiea_1_1_engine_1_1_content_1_1_scope.html#aa91d6470fd3d3f402bbb2e765be54455" target="_top" xlink:title="Appends a new Datum with the given key.">
<polygon fill="white" stroke="#666666" points="815.75,-286 704.5,-286 704.5,-254 815.75,-254 815.75,-286"/>
<text xml:space="preserve" text-anchor="start" x="712.5" y="-272.5" font-family="Helvetica,sans-Serif" font-size="10.00">Fiea::Engine::Content</text>
<text xml:space="preserve" text-anchor="middle" x="760.12" y="-260.5" font-family="Helvetica,sans-Serif" font-size="10.00">::Scope::Append</text>
</a>
</g>
</g>
<!-- Node4&#45;&gt;Node5 -->
<g id="edge4_Node000004_Node000005" class="edge">
<title>Node4&#45;&gt;Node5</title>
<g id="a_edge4_Node000004_Node000005"><a xlink:title=" ">
<path fill="none" stroke="#63b8ff" d="M637.98,-236.44C655.59,-241.32 674.99,-246.69 693.01,-251.68"/>
<polygon fill="#63b8ff" stroke="#63b8ff" points="691.99,-255.03 702.56,-254.33 693.85,-248.29 691.99,-255.03"/>
</a>
</g>
</g>
<!-- Node6 -->
<g id="Node000006" class="node">
<title>Node6</title>
<g id="a_Node000006"><a xlink:href="class_fiea_1_1_engine_1_1_game_object.html#ad3a296dd56ec43cc9f81eef0b1d14db6" target="_top" xlink:title=" ">
<polygon fill="white" stroke="#666666" points="825.88,-186 694.38,-186 694.38,-154 825.88,-154 825.88,-186"/>
<text xml:space="preserve" text-anchor="start" x="702.38" y="-172.5" font-family="Helvetica,sans-Serif" font-size="10.00">Fiea::Engine::GameObject</text>
<text xml:space="preserve" text-anchor="middle" x="760.12" y="-160.5" font-family="Helvetica,sans-Serif" font-size="10.00">::GameObject</text>
</a>
</g>
</g>
<!-- Node4&#45;&gt;Node6 -->
<g id="edge5_Node000004_Node000006" class="edge">
<title>Node4&#45;&gt;Node6</title>
<g id="a_edge5_Node000004_Node000006"><a xlink:title=" ">
<path fill="none" stroke="#63b8ff" d="M637.98,-203.56C654.25,-199.05 672.04,-194.12 688.85,-189.47"/>
<polygon fill="#63b8ff" stroke="#63b8ff" points="689.58,-192.9 698.28,-186.86 687.71,-186.15 689.58,-192.9"/>
</a>
</g>
</g>
<!-- Node14 -->
<g id="Node000014" class="node">
<title>Node14</title>
<g id="a_Node000014"><a xlink:href="class_fiea_1_1_engine_1_1_content_1_1_datum.html#acb3ba55fc9b39b876cf3334d0305f4fc" target="_top" xlink:title=" ">
<polygon fill="white" stroke="#666666" points="815.75,-236 704.5,-236 704.5,-204 815.75,-204 815.75,-236"/>
<text xml:space="preserve" text-anchor="start" x="712.5" y="-222.5" font-family="Helvetica,sans-Serif" font-size="10.00">Fiea::Engine::Content</text>
<text xml:space="preserve" text-anchor="middle" x="760.12" y="-210.5" font-family="Helvetica,sans-Serif" font-size="10.00">::Datum::Push</text>
</a>
</g>
</g>
<!-- Node4&#45;&gt;Node14 -->
<g id="edge18_Node000004_Node000014" class="edge">
<title>Node4&#45;&gt;Node14</title>
<g id="a_edge18_Node000004_Node000014"><a xlink:title=" ">
<path fill="none" stroke="#63b8ff" d="M643.79,-220C659.72,-220 676.77,-220 692.76,-220"/>
<polygon fill="#63b8ff" stroke="#63b8ff" points="692.66,-223.5 702.66,-220 692.66,-216.5 692.66,-223.5"/>
</a>
</g>
</g>
<!-- Node7 -->
<g id="Node000007" class="node">
<title>Node7</title>
<g id="a_Node000007"><a xlink:href="class_fiea_1_1_engine_1_1_content_1_1_attributed.html#ad1ae014235d9d8b62b36066c94164148" target="_top" xlink:title=" ">
<polygon fill="white" stroke="#666666" points="981,-254 869,-254 869,-222 981,-222 981,-254"/>
<text xml:space="preserve" text-anchor="start" x="877" y="-240.5" font-family="Helvetica,sans-Serif" font-size="10.00">Fiea::Engine::Content</text>
<text xml:space="preserve" text-anchor="middle" x="925" y="-228.5" font-family="Helvetica,sans-Serif" font-size="10.00">::Attributed::Attributed</text>
</a>
</g>
</g>
<!-- Node6&#45;&gt;Node7 -->
<g id="edge6_Node000006_Node000007" class="edge">
<title>Node6&#45;&gt;Node7</title>
<g id="a_edge6_Node000006_Node000007"><a xlink:title=" ">
<path fill="none" stroke="#63b8ff" d="M810.93,-186.39C818.39,-189.11 825.94,-192.02 833,-195 849.48,-201.95 852.85,-205.3 869,-213 871.57,-214.23 874.21,-215.47 876.88,-216.72"/>
<polygon fill="#63b8ff" stroke="#63b8ff" points="875.31,-219.85 885.85,-220.88 878.25,-213.5 875.31,-219.85"/>
</a>
</g>
</g>
<!-- Node8 -->
<g id="Node000008" class="node">
<title>Node8</title>
<g id="a_Node000008"><a xlink:href="class_fiea_1_1_engine_1_1_r_t_t_i.html#a876bebbe7b3149483c43a87f55f4ea99" target="_top" xlink:title=" ">
<polygon fill="white" stroke="#666666" points="974.25,-186 875.75,-186 875.75,-154 974.25,-154 974.25,-186"/>
<text xml:space="preserve" text-anchor="start" x="883.75" y="-172.5" font-family="Helvetica,sans-Serif" font-size="10.00">Fiea::Engine::RTTI</text>
<text xml:space="preserve" text-anchor="middle" x="925" y="-160.5" font-family="Helvetica,sans-Serif" font-size="10.00">::TypeIdInstance</text>
</a>
</g>
</g>
<!-- Node6&#45;&gt;Node8 -->
<g id="edge8_Node000006_Node000008" class="edge">
<title>Node6&#45;&gt;Node8</title>
<g id="a_edge8_Node000006_Node000008"><a xlink:title=" ">
<path fill="none" stroke="#63b8ff" d="M825.97,-170C838.6,-170 851.79,-170 864.25,-170"/>
<polygon fill="#63b8ff" stroke="#63b8ff" points="863.93,-173.5 873.93,-170 863.93,-166.5 863.93,-173.5"/>
</a>
</g>
</g>
<!-- Node7&#45;&gt;Node7 -->
<g id="edge7_Node000007_Node000007" class="edge">
<title>Node7&#45;&gt;Node7</title>
<g id="a_edge7_Node000007_Node000007"><a xlink:title=" ">
<path fill="none" stroke="#63b8ff" d="M898.18,-254.44C893.17,-263.58 902.11,-272 925,-272 937.52,-272 945.86,-269.48 950.04,-265.71"/>
<polygon fill="#63b8ff" stroke="#63b8ff" points="953.48,-266.36 951.59,-255.94 946.56,-265.27 953.48,-266.36"/>
</a>
</g>
</g>
<!-- Node8&#45;&gt;Node8 -->
<g id="edge17_Node000008_Node000008" class="edge">
<title>Node8&#45;&gt;Node8</title>
<g id="a_edge17_Node000008_Node000008"><a xlink:title=" ">
<path fill="none" stroke="#63b8ff" d="M898.18,-186.44C893.17,-195.58 902.11,-204 925,-204 937.52,-204 945.86,-201.48 950.04,-197.71"/>
<polygon fill="#63b8ff" stroke="#63b8ff" points="953.48,-198.36 951.59,-187.94 946.56,-197.27 953.48,-198.36"/>
</a>
</g>
</g>
<!-- Node8&#45;&gt;Node9 -->
<g id="edge9_Node000008_Node000009" class="edge">
<title>Node8&#45;&gt;Node9</title>
<g id="a_edge9_Node000008_Node000009"><a xlink:title=" ">
<path fill="none" stroke="#63b8ff" d="M957.46,-153.6C965.25,-149.33 973.5,-144.63 981,-140 997.57,-129.77 999.92,-124.37 1017,-115 1022.87,-111.78 1029.26,-108.71 1035.58,-105.9"/>
<polygon fill="#63b8ff" stroke="#63b8ff" points="1036.81,-109.18 1044.64,-102.05 1034.07,-102.74 1036.81,-109.18"/>
</a>
</g>
</g>
<!-- Node10 -->
<g id="Node000010" class="node">
<title>Node10</title>
<g id="a_Node000010"><a xlink:href="class_fiea_1_1_engine_1_1_r_t_t_i.html#ac0a7d875e4513b2aca7594abcd4418ef" target="_top" xlink:title=" ">
<polygon fill="white" stroke="#666666" points="1282.25,-117 1169.5,-117 1169.5,-97 1282.25,-97 1282.25,-117"/>
<text xml:space="preserve" text-anchor="middle" x="1225.88" y="-103.5" font-family="Helvetica,sans-Serif" font-size="10.00">Fiea::Engine::RTTI::Is</text>
</a>
</g>
</g>
<!-- Node8&#45;&gt;Node10 -->
<g id="edge14_Node000008_Node000010" class="edge">
<title>Node8&#45;&gt;Node10</title>
<g id="a_edge14_Node000008_Node000010"><a xlink:title=" ">
<path fill="none" stroke="#63b8ff" d="M974.68,-159.74C1026.37,-148.84 1108.16,-131.6 1164.05,-119.82"/>
<polygon fill="#63b8ff" stroke="#63b8ff" points="1164.67,-123.27 1173.73,-117.78 1163.23,-116.42 1164.67,-123.27"/>
</a>
</g>
</g>
<!-- Node11 -->
<g id="Node000011" class="node">
<title>Node11</title>
<g id="a_Node000011"><a xlink:href="class_fiea_1_1_engine_1_1_r_t_t_i.html#a13000029a2e6cced30b831e466e07cae" target="_top" xlink:title=" ">
<polygon fill="white" stroke="#666666" points="1275.12,-183 1176.62,-183 1176.62,-151 1275.12,-151 1275.12,-183"/>
<text xml:space="preserve" text-anchor="start" x="1184.62" y="-169.5" font-family="Helvetica,sans-Serif" font-size="10.00">Fiea::Engine::RTTI</text>
<text xml:space="preserve" text-anchor="middle" x="1225.88" y="-157.5" font-family="Helvetica,sans-Serif" font-size="10.00">::RTTI</text>
</a>
</g>
</g>
<!-- Node8&#45;&gt;Node11 -->
<g id="edge15_Node000008_Node000011" class="edge">
<title>Node8&#45;&gt;Node11</title>
<g id="a_edge15_Node000008_Node000011"><a xlink:title=" ">
<path fill="none" stroke="#63b8ff" d="M974.68,-169.51C1026.57,-168.99 1108.79,-168.17 1164.7,-167.6"/>
<polygon fill="#63b8ff" stroke="#63b8ff" points="1164.73,-171.1 1174.7,-167.5 1164.66,-164.1 1164.73,-171.1"/>
</a>
</g>
</g>
<!-- Node12 -->
<g id="Node000012" class="node">
<title>Node12</title>
<g id="a_Node000012"><a xlink:href="class_fiea_1_1_engine_1_1_r_t_t_i.html#a7f70ad5ba0f8a3388543d63d72892575" target="_top" xlink:title=" ">
<polygon fill="white" stroke="#666666" points="1124.5,-277 1026,-277 1026,-245 1124.5,-245 1124.5,-277"/>
<text xml:space="preserve" text-anchor="start" x="1034" y="-263.5" font-family="Helvetica,sans-Serif" font-size="10.00">Fiea::Engine::RTTI</text>
<text xml:space="preserve" text-anchor="middle" x="1075.25" y="-251.5" font-family="Helvetica,sans-Serif" font-size="10.00">::Equals</text>
</a>
</g>
</g>
<!-- Node8&#45;&gt;Node12 -->
<g id="edge12_Node000008_Node000012" class="edge">
<title>Node8&#45;&gt;Node12</title>
<g id="a_edge12_Node000008_Node000012"><a xlink:title=" ">
<path fill="none" stroke="#63b8ff" d="M945.75,-186.25C963.64,-200.49 991.08,-221.17 1017,-236 1019.14,-237.23 1021.35,-238.43 1023.61,-239.61"/>
<polygon fill="#63b8ff" stroke="#63b8ff" points="1021.8,-242.62 1032.32,-243.92 1024.91,-236.34 1021.8,-242.62"/>
</a>
</g>
</g>
<!-- Node13 -->
<g id="Node000013" class="node">
<title>Node13</title>
<g id="a_Node000013"><a xlink:href="class_fiea_1_1_engine_1_1_r_t_t_i.html#a43a7d187e332a17d2c699bc2c8136a30" target="_top" xlink:title=" ">
<polygon fill="white" stroke="#666666" points="1124.5,-227 1026,-227 1026,-195 1124.5,-195 1124.5,-227"/>
<text xml:space="preserve" text-anchor="start" x="1034" y="-213.5" font-family="Helvetica,sans-Serif" font-size="10.00">Fiea::Engine::RTTI</text>
<text xml:space="preserve" text-anchor="middle" x="1075.25" y="-201.5" font-family="Helvetica,sans-Serif" font-size="10.00">::ToString</text>
</a>
</g>
</g>
<!-- Node8&#45;&gt;Node13 -->
<g id="edge16_Node000008_Node000013" class="edge">
<title>Node8&#45;&gt;Node13</title>
<g id="a_edge16_Node000008_Node000013"><a xlink:title=" ">
<path fill="none" stroke="#63b8ff" d="M974.54,-183.42C987.34,-186.96 1001.3,-190.82 1014.61,-194.51"/>
<polygon fill="#63b8ff" stroke="#63b8ff" points="1013.57,-197.85 1024.14,-197.14 1015.43,-191.1 1013.57,-197.85"/>
</a>
</g>
</g>
<!-- Node9&#45;&gt;Node10 -->
<g id="edge10_Node000009_Node000010" class="edge">
<title>Node9&#45;&gt;Node10</title>
<g id="a_edge10_Node000009_Node000010"><a xlink:title=" ">
<path fill="none" stroke="#63b8ff" d="M1133.71,-97.19C1141.6,-98.03 1149.75,-98.91 1157.78,-99.78"/>
<polygon fill="#63b8ff" stroke="#63b8ff" points="1157.21,-103.24 1167.53,-100.83 1157.96,-96.28 1157.21,-103.24"/>
</a>
</g>
</g>
<!-- Node9&#45;&gt;Node11 -->
<g id="edge11_Node000009_Node000011" class="edge">
<title>Node9&#45;&gt;Node11</title>
<g id="a_edge11_Node000009_Node000011"><a xlink:title=" ">
<path fill="none" stroke="#63b8ff" d="M1096.6,-101.41C1118.7,-112.7 1154.59,-131.06 1182.8,-145.48"/>
<polygon fill="#63b8ff" stroke="#63b8ff" points="1180.96,-148.47 1191.46,-149.91 1184.15,-142.24 1180.96,-148.47"/>
</a>
</g>
</g>
<!-- Node12&#45;&gt;Node11 -->
<g id="edge13_Node000012_Node000011" class="edge">
<title>Node12&#45;&gt;Node11</title>
<g id="a_edge13_Node000012_Node000011"><a xlink:title=" ">
<path fill="none" stroke="#63b8ff" d="M1117.19,-244.54C1122.77,-241.88 1128.35,-239.01 1133.5,-236 1156.15,-222.75 1179.73,-204.82 1197.27,-190.56"/>
<polygon fill="#63b8ff" stroke="#63b8ff" points="1199.19,-193.51 1204.68,-184.44 1194.74,-188.11 1199.19,-193.51"/>
</a>
</g>
</g>
<!-- Node15 -->
<g id="Node000015" class="node">
<title>Node15</title>
<g id="a_Node000015"><a xlink:href="class_fiea_1_1_engine_1_1_content_1_1_datum.html#a818f812e4489e57885c88951bc0601b3" target="_top" xlink:title=" ">
<polygon fill="white" stroke="#666666" points="980.62,-360 869.38,-360 869.38,-328 980.62,-328 980.62,-360"/>
<text xml:space="preserve" text-anchor="start" x="877.38" y="-346.5" font-family="Helvetica,sans-Serif" font-size="10.00">Fiea::Engine::Content</text>
<text xml:space="preserve" text-anchor="middle" x="925" y="-334.5" font-family="Helvetica,sans-Serif" font-size="10.00">::Datum::ResizeArray</text>
</a>
</g>
</g>
<!-- Node14&#45;&gt;Node15 -->
<g id="edge19_Node000014_Node000015" class="edge">
<title>Node14&#45;&gt;Node15</title>
<g id="a_edge19_Node000014_Node000015"><a xlink:title=" ">
<path fill="none" stroke="#63b8ff" d="M816.13,-234.12C822.21,-237.1 828,-240.68 833,-245 859.18,-267.61 844.77,-289.32 869,-314 871.55,-316.6 874.38,-319.03 877.36,-321.3"/>
<polygon fill="#63b8ff" stroke="#63b8ff" points="875.18,-324.05 885.42,-326.75 879.1,-318.25 875.18,-324.05"/>
</a>
</g>
</g>
<!-- Node16 -->
<g id="Node000016" class="node">
<title>Node16</title>
<g id="a_Node000016"><a xlink:href="class_fiea_1_1_engine_1_1_content_1_1_datum.html#a921193447f6e42f596ac0a7694b02830" target="_top" xlink:title=" ">
<polygon fill="white" stroke="#666666" points="1130.88,-343 1019.62,-343 1019.62,-311 1130.88,-311 1130.88,-343"/>
<text xml:space="preserve" text-anchor="start" x="1027.62" y="-329.5" font-family="Helvetica,sans-Serif" font-size="10.00">Fiea::Engine::Content</text>
<text xml:space="preserve" text-anchor="middle" x="1075.25" y="-317.5" font-family="Helvetica,sans-Serif" font-size="10.00">::Datum::Scope</text>
</a>
</g>
</g>
<!-- Node14&#45;&gt;Node16 -->
<g id="edge22_Node000014_Node000016" class="edge">
<title>Node14&#45;&gt;Node16</title>
<g id="a_edge22_Node000014_Node000016"><a xlink:title=" ">
<path fill="none" stroke="#63b8ff" d="M816.1,-236.19C821.99,-238.77 827.74,-241.7 833,-245 852.17,-257.02 849.17,-270.09 869,-281 911.94,-304.62 966.26,-316.12 1008.23,-321.71"/>
<polygon fill="#63b8ff" stroke="#63b8ff" points="1007.59,-325.16 1017.94,-322.92 1008.45,-318.21 1007.59,-325.16"/>
</a>
</g>
</g>
<!-- Node15&#45;&gt;Node16 -->
<g id="edge20_Node000015_Node000016" class="edge">
<title>Node15&#45;&gt;Node16</title>
<g id="a_edge20_Node000015_Node000016"><a xlink:title=" ">
<path fill="none" stroke="#63b8ff" d="M980.78,-337.72C989.6,-336.71 998.8,-335.65 1007.86,-334.61"/>
<polygon fill="#63b8ff" stroke="#63b8ff" points="1008.16,-338.1 1017.69,-333.49 1007.36,-331.15 1008.16,-338.1"/>
</a>
</g>
</g>
<!-- Node16&#45;&gt;Node16 -->
<g id="edge21_Node000016_Node000016" class="edge">
<title>Node16&#45;&gt;Node16</title>
<g id="a_edge21_Node000016_Node000016"><a xlink:title=" ">
<path fill="none" stroke="#63b8ff" d="M1048.43,-343.44C1043.42,-352.58 1052.36,-361 1075.25,-361 1087.77,-361 1096.11,-358.48 1100.29,-354.71"/>
<polygon fill="#63b8ff" stroke="#63b8ff" points="1103.73,-355.36 1101.84,-344.94 1096.81,-354.27 1103.73,-355.36"/>
</a>
</g>
</g>
<!-- Node17&#45;&gt;Node5 -->
<g id="edge24_Node000017_Node000005" class="edge">
<title>Node17&#45;&gt;Node5</title>
<g id="a_edge24_Node000017_Node000005"><a xlink:title=" ">
<path fill="none" stroke="#63b8ff" d="M636.23,-270C654.26,-270 674.3,-270 692.87,-270"/>
<polygon fill="#63b8ff" stroke="#63b8ff" points="692.7,-273.5 702.7,-270 692.7,-266.5 692.7,-273.5"/>
</a>
</g>
</g>
<!-- Node17&#45;&gt;Node14 -->
<g id="edge27_Node000017_Node000014" class="edge">
<title>Node17&#45;&gt;Node14</title>
<g id="a_edge27_Node000017_Node000014"><a xlink:title=" ">
<path fill="none" stroke="#63b8ff" d="M636.23,-254.04C654.35,-249.02 674.49,-243.45 693.13,-238.28"/>
<polygon fill="#63b8ff" stroke="#63b8ff" points="694.05,-241.66 702.76,-235.61 692.19,-234.91 694.05,-241.66"/>
</a>
</g>
</g>
<!-- Node18 -->
<g id="Node000018" class="node">
<title>Node18</title>
<g id="a_Node000018"><a xlink:href="class_fiea_1_1_engine_1_1_content_1_1_scope.html#ad924c01785b239991fc0e56a63295612" target="_top" xlink:title="Finds a Datum by key.">
<polygon fill="white" stroke="#666666" points="815.75,-424 704.5,-424 704.5,-392 815.75,-392 815.75,-424"/>
<text xml:space="preserve" text-anchor="start" x="712.5" y="-410.5" font-family="Helvetica,sans-Serif" font-size="10.00">Fiea::Engine::Content</text>
<text xml:space="preserve" text-anchor="middle" x="760.12" y="-398.5" font-family="Helvetica,sans-Serif" font-size="10.00">::Scope::Find</text>
</a>
</g>
</g>
<!-- Node17&#45;&gt;Node18 -->
<g id="edge25_Node000017_Node000018" class="edge">
<title>Node17&#45;&gt;Node18</title>
<g id="a_edge25_Node000017_Node000018"><a xlink:title=" ">
<path fill="none" stroke="#63b8ff" d="M636.06,-284.36C641.59,-287.28 646.79,-290.79 651.25,-295 681.97,-324.02 656.58,-353.93 687.25,-383 689.47,-385.1 691.87,-387.03 694.4,-388.79"/>
<polygon fill="#63b8ff" stroke="#63b8ff" points="692.38,-391.66 702.78,-393.73 695.94,-385.63 692.38,-391.66"/>
</a>
</g>
</g>
<!-- Node19 -->
<g id="Node000019" class="node">
<title>Node19</title>
<g id="a_Node000019"><a xlink:href="class_fiea_1_1_engine_1_1_content_1_1_datum.html#a6e9dfba6e16fddc4efc39b8182dad89f" target="_top" xlink:title=" ">
<polygon fill="white" stroke="#666666" points="815.75,-374 704.5,-374 704.5,-342 815.75,-342 815.75,-374"/>
<text xml:space="preserve" text-anchor="start" x="712.5" y="-360.5" font-family="Helvetica,sans-Serif" font-size="10.00">Fiea::Engine::Content</text>
<text xml:space="preserve" text-anchor="middle" x="760.12" y="-348.5" font-family="Helvetica,sans-Serif" font-size="10.00">::Datum::IsType</text>
</a>
</g>
</g>
<!-- Node17&#45;&gt;Node19 -->
<g id="edge26_Node000017_Node000019" class="edge">
<title>Node17&#45;&gt;Node19</title>
<g id="a_edge26_Node000017_Node000019"><a xlink:title=" ">
<path fill="none" stroke="#63b8ff" d="M634.04,-286.37C640.01,-288.92 645.86,-291.8 651.25,-295 669.9,-306.1 668.96,-316.31 687.25,-328 692.11,-331.11 697.35,-334.01 702.7,-336.69"/>
<polygon fill="#63b8ff" stroke="#63b8ff" points="701.16,-339.84 711.69,-340.93 704.14,-333.5 701.16,-339.84"/>
</a>
</g>
</g>
<!-- Node20 -->
<g id="Node000020" class="node">
<title>Node20</title>
<g id="a_Node000020"><a xlink:href="class_fiea_1_1_engine_1_1_content_1_1_scope.html#a6631343c968c233ab1d9c3e05c3f4fe9" target="_top" xlink:title=" ">
<polygon fill="white" stroke="#666666" points="980.62,-467 869.38,-467 869.38,-435 980.62,-435 980.62,-467"/>
<text xml:space="preserve" text-anchor="start" x="877.38" y="-453.5" font-family="Helvetica,sans-Serif" font-size="10.00">Fiea::Engine::Content</text>
<text xml:space="preserve" text-anchor="middle" x="925" y="-441.5" font-family="Helvetica,sans-Serif" font-size="10.00">::Scope::Scope</text>
</a>
</g>
</g>
<!-- Node17&#45;&gt;Node20 -->
<g id="edge28_Node000017_Node000020" class="edge">
<title>Node17&#45;&gt;Node20</title>
<g id="a_edge28_Node000017_Node000020"><a xlink:title=" ">
<path fill="none" stroke="#63b8ff" d="M636.1,-283.22C708.53,-300.04 824.65,-327.55 833,-333 851.67,-345.19 886.45,-394.45 907.18,-425.34"/>
<polygon fill="#63b8ff" stroke="#63b8ff" points="904.09,-427.01 912.54,-433.39 909.91,-423.13 904.09,-427.01"/>
</a>
</g>
</g>
<!-- Node21 -->
<g id="Node000021" class="node">
<title>Node21</title>
<g id="a_Node000021"><a xlink:href="class_fiea_1_1_engine_1_1_content_1_1_scope.html#af6a94922a8fa123c3b22b7b4485963de" target="_top" xlink:title=" ">
<polygon fill="white" stroke="#666666" points="815.75,-524 704.5,-524 704.5,-492 815.75,-492 815.75,-524"/>
<text xml:space="preserve" text-anchor="start" x="712.5" y="-510.5" font-family="Helvetica,sans-Serif" font-size="10.00">Fiea::Engine::Content</text>
<text xml:space="preserve" text-anchor="middle" x="760.12" y="-498.5" font-family="Helvetica,sans-Serif" font-size="10.00">::Scope::SetParent</text>
</a>
</g>
</g>
<!-- Node17&#45;&gt;Node21 -->
<g id="edge30_Node000017_Node000021" class="edge">
<title>Node17&#45;&gt;Node21</title>
<g id="a_edge30_Node000017_Node000021"><a xlink:title=" ">
<path fill="none" stroke="#63b8ff" d="M636.24,-283.11C641.88,-286.26 647.06,-290.16 651.25,-295 706.98,-359.28 631.63,-418.63 687.25,-483 689.44,-485.53 691.89,-487.8 694.55,-489.85"/>
<polygon fill="#63b8ff" stroke="#63b8ff" points="692.6,-492.76 702.93,-495.14 696.34,-486.84 692.6,-492.76"/>
</a>
</g>
</g>
<!-- Node22 -->
<g id="Node000022" class="node">
<title>Node22</title>
<g id="a_Node000022"><a xlink:href="class_fiea_1_1_engine_1_1_content_1_1_datum.html#a23d1f16d9646f024a5dee1f05dbd5a5e" target="_top" xlink:title=" ">
<polygon fill="white" stroke="#666666" points="815.75,-474 704.5,-474 704.5,-442 815.75,-442 815.75,-474"/>
<text xml:space="preserve" text-anchor="start" x="712.5" y="-460.5" font-family="Helvetica,sans-Serif" font-size="10.00">Fiea::Engine::Content</text>
<text xml:space="preserve" text-anchor="middle" x="760.12" y="-448.5" font-family="Helvetica,sans-Serif" font-size="10.00">::Datum::SetType</text>
</a>
</g>
</g>
<!-- Node17&#45;&gt;Node22 -->
<g id="edge32_Node000017_Node000022" class="edge">
<title>Node17&#45;&gt;Node22</title>
<g id="a_edge32_Node000017_Node000022"><a xlink:title=" ">
<path fill="none" stroke="#63b8ff" d="M636.29,-283.59C641.85,-286.65 646.99,-290.4 651.25,-295 694.33,-341.5 644.25,-386.43 687.25,-433 689.48,-435.41 691.95,-437.59 694.6,-439.56"/>
<polygon fill="#63b8ff" stroke="#63b8ff" points="692.54,-442.4 702.89,-444.68 696.22,-436.45 692.54,-442.4"/>
</a>
</g>
</g>
<!-- Node20&#45;&gt;Node20 -->
<g id="edge29_Node000020_Node000020" class="edge">
<title>Node20&#45;&gt;Node20</title>
<g id="a_edge29_Node000020_Node000020"><a xlink:title=" ">
<path fill="none" stroke="#63b8ff" d="M898.18,-467.44C893.17,-476.58 902.11,-485 925,-485 937.52,-485 945.86,-482.48 950.04,-478.71"/>
<polygon fill="#63b8ff" stroke="#63b8ff" points="953.48,-479.36 951.59,-468.94 946.56,-478.27 953.48,-479.36"/>
</a>
</g>
</g>
<!-- Node21&#45;&gt;Node20 -->
<g id="edge31_Node000021_Node000020" class="edge">
<title>Node21&#45;&gt;Node20</title>
<g id="a_edge31_Node000021_Node000020"><a xlink:title=" ">
<path fill="none" stroke="#63b8ff" d="M808.3,-491.62C816.54,-488.75 825.02,-485.79 833,-483 843.9,-479.19 855.53,-475.11 866.71,-471.18"/>
<polygon fill="#63b8ff" stroke="#63b8ff" points="867.55,-474.59 875.82,-467.98 865.23,-467.99 867.55,-474.59"/>
</a>
</g>
</g>
<!-- Node23&#45;&gt;Node9 -->
<g id="edge35_Node000023_Node000009" class="edge">
<title>Node23&#45;&gt;Node9</title>
<g id="a_edge35_Node000023_Node000009"><a xlink:title=" ">
<path fill="none" stroke="#63b8ff" d="M641.15,-83.14C734.17,-84.82 908.42,-87.99 1005.13,-89.74"/>
<polygon fill="#63b8ff" stroke="#63b8ff" points="1004.95,-93.24 1015.01,-89.92 1005.08,-86.24 1004.95,-93.24"/>
</a>
</g>
</g>
<!-- Node24 -->
<g id="Node000024" class="node">
<title>Node24</title>
<g id="a_Node000024"><a xlink:href="struct_fiea_1_1_engine_1_1_content_1_1_i_factory_service.html#a287380a07bd649e87bba6b3762554c20" target="_top" xlink:title=" ">
<polygon fill="white" stroke="#666666" points="833,-60 687.25,-60 687.25,-28 833,-28 833,-60"/>
<text xml:space="preserve" text-anchor="start" x="695.25" y="-46.5" font-family="Helvetica,sans-Serif" font-size="10.00">Fiea::Engine::Content</text>
<text xml:space="preserve" text-anchor="middle" x="760.12" y="-34.5" font-family="Helvetica,sans-Serif" font-size="10.00">::IFactoryService::GetFactory</text>
</a>
</g>
</g>
<!-- Node23&#45;&gt;Node24 -->
<g id="edge36_Node000023_Node000024" class="edge">
<title>Node23&#45;&gt;Node24</title>
<g id="a_edge36_Node000023_Node000024"><a xlink:title=" ">
<path fill="none" stroke="#63b8ff" d="M641.25,-68.82C652.44,-66.46 664.25,-63.97 675.91,-61.52"/>
<polygon fill="#63b8ff" stroke="#63b8ff" points="676.47,-64.98 685.53,-59.49 675.03,-58.13 676.47,-64.98"/>
</a>
</g>
</g>
</g>
</svg>
