<?xml version="1.0" encoding="UTF-8" standalone="no"?>
<!DOCTYPE svg PUBLIC "-//W3C//DTD SVG 1.1//EN"
 "http://www.w3.org/Graphics/SVG/1.1/DTD/svg11.dtd">
<!-- Generated by graphviz version 13.1.0 (20250701.0955)
 -->
<!-- Title: Fiea::Engine::Content::Scope::Search Pages: 1 -->
<svg width="414pt" height="112pt"
 viewBox="0.00 0.00 414.00 112.00" xmlns="http://www.w3.org/2000/svg" xmlns:xlink="http://www.w3.org/1999/xlink">
<g id="graph0" class="graph" transform="scale(1 1) rotate(0) translate(4 108)">
<title>Fiea::Engine::Content::Scope::Search</title>
<!-- Node1 -->
<g id="Node000001" class="node">
<title>Node1</title>
<g id="a_Node000001"><a xlink:title=" ">
<polygon fill="#999999" stroke="#666666" points="111.25,-54 0,-54 0,-22 111.25,-22 111.25,-54"/>
<text xml:space="preserve" text-anchor="start" x="8" y="-40.5" font-family="Helvetica,sans-Serif" font-size="10.00">Fiea::Engine::Content</text>
<text xml:space="preserve" text-anchor="middle" x="55.62" y="-28.5" font-family="Helvetica,sans-Serif" font-size="10.00">::Scope::Search</text>
</a>
</g>
</g>
<!-- Node2 -->
<g id="Node000002" class="node">
<title>Node2</title>
<g id="a_Node000002"><a xlink:href="class_fiea_1_1_engine_1_1_content_1_1_scope.html#ad924c01785b239991fc0e56a63295612" target="_top" xlink:title="Finds a Datum by key.">
<polygon fill="white" stroke="#666666" points="258.5,-104 147.25,-104 147.25,-72 258.5,-72 258.5,-104"/>
<text xml:space="preserve" text-anchor="start" x="155.25" y="-90.5" font-family="Helvetica,sans-Serif" font-size="10.00">Fiea::Engine::Content</text>
<text xml:space="preserve" text-anchor="middle" x="202.88" y="-78.5" font-family="Helvetica,sans-Serif" font-size="10.00">::Scope::Find</text>
</a>
</g>
</g>
<!-- Node1&#45;&gt;Node2 -->
<g id="edge1_Node000001_Node000002" class="edge">
<title>Node1&#45;&gt;Node2</title>
<g id="a_edge1_Node000001_Node000002"><a xlink:title=" ">
<path fill="none" stroke="#63b8ff" d="M104.19,-54.37C116.73,-58.69 130.4,-63.4 143.44,-67.89"/>
<polygon fill="#63b8ff" stroke="#63b8ff" points="142.18,-71.15 152.78,-71.1 144.46,-64.53 142.18,-71.15"/>
</a>
</g>
</g>
<!-- Node3 -->
<g id="Node000003" class="node">
<title>Node3</title>
<g id="a_Node000003"><a xlink:href="class_fiea_1_1_engine_1_1_content_1_1_scope.html#ac4627f740867a929957ce0647f436e02" target="_top" xlink:title=" ">
<polygon fill="white" stroke="#666666" points="258.5,-54 147.25,-54 147.25,-22 258.5,-22 258.5,-54"/>
<text xml:space="preserve" text-anchor="start" x="155.25" y="-40.5" font-family="Helvetica,sans-Serif" font-size="10.00">Fiea::Engine::Content</text>
<text xml:space="preserve" text-anchor="middle" x="202.88" y="-28.5" font-family="Helvetica,sans-Serif" font-size="10.00">::Scope::GetParent</text>
</a>
</g>
</g>
<!-- Node1&#45;&gt;Node3 -->
<g id="edge2_Node000001_Node000003" class="edge">
<title>Node1&#45;&gt;Node3</title>
<g id="a_edge2_Node000001_Node000003"><a xlink:title=" ">
<path fill="none" stroke="#63b8ff" d="M111.54,-38C119.4,-38 127.56,-38 135.61,-38"/>
<polygon fill="#63b8ff" stroke="#63b8ff" points="135.37,-41.5 145.37,-38 135.37,-34.5 135.37,-41.5"/>
</a>
</g>
</g>
<!-- Node4 -->
<g id="Node000004" class="node">
<title>Node4</title>
<g id="a_Node000004"><a xlink:href="class_fiea_1_1_engine_1_1_content_1_1_scope.html#a6631343c968c233ab1d9c3e05c3f4fe9" target="_top" xlink:title=" ">
<polygon fill="white" stroke="#666666" points="405.75,-32 294.5,-32 294.5,0 405.75,0 405.75,-32"/>
<text xml:space="preserve" text-anchor="start" x="302.5" y="-18.5" font-family="Helvetica,sans-Serif" font-size="10.00">Fiea::Engine::Content</text>
<text xml:space="preserve" text-anchor="middle" x="350.12" y="-6.5" font-family="Helvetica,sans-Serif" font-size="10.00">::Scope::Scope</text>
</a>
</g>
</g>
<!-- Node1&#45;&gt;Node4 -->
<g id="edge5_Node000001_Node000004" class="edge">
<title>Node1&#45;&gt;Node4</title>
<g id="a_edge5_Node000001_Node000004"><a xlink:title=" ">
<path fill="none" stroke="#63b8ff" d="M106.93,-21.54C119.92,-18.01 133.99,-14.8 147.25,-13 192.14,-6.92 243.16,-7.75 282.68,-10.05"/>
<polygon fill="#63b8ff" stroke="#63b8ff" points="282.31,-13.53 292.51,-10.68 282.76,-6.55 282.31,-13.53"/>
</a>
</g>
</g>
<!-- Node3&#45;&gt;Node4 -->
<g id="edge3_Node000003_Node000004" class="edge">
<title>Node3&#45;&gt;Node4</title>
<g id="a_edge3_Node000003_Node000004"><a xlink:title=" ">
<path fill="none" stroke="#63b8ff" d="M258.79,-29.68C266.65,-28.49 274.81,-27.26 282.86,-26.04"/>
<polygon fill="#63b8ff" stroke="#63b8ff" points="283.28,-29.51 292.64,-24.56 282.23,-22.59 283.28,-29.51"/>
</a>
</g>
</g>
<!-- Node4&#45;&gt;Node4 -->
<g id="edge4_Node000004_Node000004" class="edge">
<title>Node4&#45;&gt;Node4</title>
<g id="a_edge4_Node000004_Node000004"><a xlink:title=" ">
<path fill="none" stroke="#63b8ff" d="M323.84,-32.44C318.93,-41.58 327.69,-50 350.12,-50 362.39,-50 370.57,-47.48 374.66,-43.71"/>
<polygon fill="#63b8ff" stroke="#63b8ff" points="378.1,-44.36 376.18,-33.94 371.19,-43.28 378.1,-44.36"/>
</a>
</g>
</g>
</g>
</svg>
