<?xml version="1.0" encoding="UTF-8" standalone="no"?>
<!DOCTYPE svg PUBLIC "-//W3C//DTD SVG 1.1//EN"
 "http://www.w3.org/Graphics/SVG/1.1/DTD/svg11.dtd">
<!-- Generated by graphviz version 13.1.0 (20250701.0955)
 -->
<!-- Title: Fiea::Engine::Content::Scope::Append Pages: 1 -->
<svg width="897pt" height="855pt"
 viewBox="0.00 0.00 897.00 855.00" xmlns="http://www.w3.org/2000/svg" xmlns:xlink="http://www.w3.org/1999/xlink">
<g id="graph0" class="graph" transform="scale(1 1) rotate(0) translate(4 851.3)">
<title>Fiea::Engine::Content::Scope::Append</title>
<!-- Node1 -->
<g id="Node000001" class="node">
<title>Node1</title>
<g id="a_Node000001"><a xlink:title="Appends a new Datum with the given key.">
<polygon fill="#999999" stroke="#666666" points="889.25,-366 778,-366 778,-334 889.25,-334 889.25,-366"/>
<text xml:space="preserve" text-anchor="start" x="786" y="-352.5" font-family="Helvetica,sans-Serif" font-size="10.00">Fiea::Engine::Content</text>
<text xml:space="preserve" text-anchor="middle" x="833.62" y="-340.5" font-family="Helvetica,sans-Serif" font-size="10.00">::Scope::Append</text>
</a>
</g>
</g>
<!-- Node2 -->
<g id="Node000002" class="node">
<title>Node2</title>
<g id="a_Node000002"><a xlink:href="class_fiea_1_1_engine_1_1_actions_1_1_action_list.html#a0c04eb0d37827c07bb6745b3a0cac817" target="_top" xlink:title=" ">
<polygon fill="white" stroke="#666666" points="721.38,-756 604.88,-756 604.88,-724 721.38,-724 721.38,-756"/>
<text xml:space="preserve" text-anchor="start" x="612.88" y="-742.5" font-family="Helvetica,sans-Serif" font-size="10.00">Fiea::Engine::Actions</text>
<text xml:space="preserve" text-anchor="middle" x="663.12" y="-730.5" font-family="Helvetica,sans-Serif" font-size="10.00">::ActionList::AddAction</text>
</a>
</g>
</g>
<!-- Node1&#45;&gt;Node2 -->
<g id="edge1_Node000001_Node000002" class="edge">
<title>Node1&#45;&gt;Node2</title>
<g id="a_edge1_Node000001_Node000002"><a xlink:title=" ">
<path fill="none" stroke="#63b8ff" d="M829.28,-377.49C819.48,-453.68 788.57,-665.19 742,-715 736.38,-721.02 729.3,-725.59 721.73,-729.06"/>
<polygon fill="#63b8ff" stroke="#63b8ff" points="832.75,-377.94 830.53,-367.58 825.8,-377.06 832.75,-377.94"/>
</a>
</g>
</g>
<!-- Node3 -->
<g id="Node000003" class="node">
<title>Node3</title>
<g id="a_Node000003"><a xlink:href="class_fiea_1_1_engine_1_1_game_object.html#a2d9e0734194c82c1f1d319e49c845c0f" target="_top" xlink:title=" ">
<polygon fill="white" stroke="#666666" points="728.88,-706 597.38,-706 597.38,-674 728.88,-674 728.88,-706"/>
<text xml:space="preserve" text-anchor="start" x="605.38" y="-692.5" font-family="Helvetica,sans-Serif" font-size="10.00">Fiea::Engine::GameObject</text>
<text xml:space="preserve" text-anchor="middle" x="663.12" y="-680.5" font-family="Helvetica,sans-Serif" font-size="10.00">::AddAction</text>
</a>
</g>
</g>
<!-- Node1&#45;&gt;Node3 -->
<g id="edge2_Node000001_Node000003" class="edge">
<title>Node1&#45;&gt;Node3</title>
<g id="a_edge2_Node000001_Node000003"><a xlink:title=" ">
<path fill="none" stroke="#63b8ff" d="M828.33,-377.37C819.27,-428.72 794.56,-541.51 742,-621 727.95,-642.25 705.75,-661.02 688.65,-673.6"/>
<polygon fill="#63b8ff" stroke="#63b8ff" points="831.74,-378.19 829.96,-367.74 824.84,-377.02 831.74,-378.19"/>
</a>
</g>
</g>
<!-- Node9 -->
<g id="Node000009" class="node">
<title>Node9</title>
<g id="a_Node000009"><a xlink:href="class_fiea_1_1_engine_1_1_game_object.html#a4d89e3a21dd6381eac8a1f1189ea029e" target="_top" xlink:title=" ">
<polygon fill="white" stroke="#666666" points="728.88,-612 597.38,-612 597.38,-580 728.88,-580 728.88,-612"/>
<text xml:space="preserve" text-anchor="start" x="605.38" y="-598.5" font-family="Helvetica,sans-Serif" font-size="10.00">Fiea::Engine::GameObject</text>
<text xml:space="preserve" text-anchor="middle" x="663.12" y="-586.5" font-family="Helvetica,sans-Serif" font-size="10.00">::AddChild</text>
</a>
</g>
</g>
<!-- Node1&#45;&gt;Node9 -->
<g id="edge10_Node000001_Node000009" class="edge">
<title>Node1&#45;&gt;Node9</title>
<g id="a_edge10_Node000001_Node000009"><a xlink:title=" ">
<path fill="none" stroke="#63b8ff" d="M825.91,-377.51C814.6,-419.03 788.34,-498.35 742,-550 730.99,-562.27 715.91,-572.21 701.95,-579.68"/>
<polygon fill="#63b8ff" stroke="#63b8ff" points="829.29,-378.4 828.44,-367.84 822.52,-376.63 829.29,-378.4"/>
</a>
</g>
</g>
<!-- Node16 -->
<g id="Node000016" class="node">
<title>Node16</title>
<g id="a_Node000016"><a xlink:href="class_fiea_1_1_engine_1_1_content_1_1_scope_writer.html#a138420169c6f0541ec537c660bd4ac67" target="_top" xlink:title=" ">
<polygon fill="white" stroke="#666666" points="736.38,-344 589.88,-344 589.88,-312 736.38,-312 736.38,-344"/>
<text xml:space="preserve" text-anchor="start" x="597.88" y="-330.5" font-family="Helvetica,sans-Serif" font-size="10.00">Fiea::Engine::Content</text>
<text xml:space="preserve" text-anchor="middle" x="663.12" y="-318.5" font-family="Helvetica,sans-Serif" font-size="10.00">::ScopeWriter::AddMatrixType</text>
</a>
</g>
</g>
<!-- Node1&#45;&gt;Node16 -->
<g id="edge17_Node000001_Node000016" class="edge">
<title>Node1&#45;&gt;Node16</title>
<g id="a_edge17_Node000001_Node000016"><a xlink:title=" ">
<path fill="none" stroke="#63b8ff" d="M766.58,-341.38C756.76,-340.09 746.59,-338.77 736.65,-337.47"/>
<polygon fill="#63b8ff" stroke="#63b8ff" points="766.05,-344.84 776.42,-342.66 766.95,-337.9 766.05,-344.84"/>
</a>
</g>
</g>
<!-- Node18 -->
<g id="Node000018" class="node">
<title>Node18</title>
<g id="a_Node000018"><a xlink:href="class_fiea_1_1_engine_1_1_content_1_1_scope_writer.html#a028f763e7b7c95ba5d53fb121a832583" target="_top" xlink:title=" ">
<polygon fill="white" stroke="#666666" points="742,-244 584.25,-244 584.25,-212 742,-212 742,-244"/>
<text xml:space="preserve" text-anchor="start" x="592.25" y="-230.5" font-family="Helvetica,sans-Serif" font-size="10.00">Fiea::Engine::Content</text>
<text xml:space="preserve" text-anchor="middle" x="663.12" y="-218.5" font-family="Helvetica,sans-Serif" font-size="10.00">::ScopeWriter::AddPrimitiveType</text>
</a>
</g>
</g>
<!-- Node1&#45;&gt;Node18 -->
<g id="edge19_Node000001_Node000018" class="edge">
<title>Node1&#45;&gt;Node18</title>
<g id="a_edge19_Node000001_Node000018"><a xlink:title=" ">
<path fill="none" stroke="#63b8ff" d="M814.98,-324.83C798.44,-302.97 771.84,-271.92 742,-253 736.84,-249.73 731.22,-246.85 725.44,-244.33"/>
<polygon fill="#63b8ff" stroke="#63b8ff" points="811.99,-326.67 820.74,-332.65 817.63,-322.52 811.99,-326.67"/>
</a>
</g>
</g>
<!-- Node20 -->
<g id="Node000020" class="node">
<title>Node20</title>
<g id="a_Node000020"><a xlink:href="class_fiea_1_1_engine_1_1_content_1_1_scope_writer.html#ab193d237036951e2e814316bbfe9b87b" target="_top" xlink:title=" ">
<polygon fill="white" stroke="#666666" points="736.75,-294 589.5,-294 589.5,-262 736.75,-262 736.75,-294"/>
<text xml:space="preserve" text-anchor="start" x="597.5" y="-280.5" font-family="Helvetica,sans-Serif" font-size="10.00">Fiea::Engine::Content</text>
<text xml:space="preserve" text-anchor="middle" x="663.12" y="-268.5" font-family="Helvetica,sans-Serif" font-size="10.00">::ScopeWriter::AddVectorType</text>
</a>
</g>
</g>
<!-- Node1&#45;&gt;Node20 -->
<g id="edge21_Node000001_Node000020" class="edge">
<title>Node1&#45;&gt;Node20</title>
<g id="a_edge21_Node000001_Node000020"><a xlink:title=" ">
<path fill="none" stroke="#63b8ff" d="M794.26,-328.29C778.37,-319.78 759.58,-310.32 742,-303 734.79,-300 727.08,-297.13 719.43,-294.48"/>
<polygon fill="#63b8ff" stroke="#63b8ff" points="792.45,-331.29 802.91,-332.99 795.79,-325.14 792.45,-331.29"/>
</a>
</g>
</g>
<!-- Node21 -->
<g id="Node000021" class="node">
<title>Node21</title>
<g id="a_Node000021"><a xlink:href="class_fiea_1_1_engine_1_1_content_1_1_scope.html#abf39accc1ce38b12bcbc6884ba0165e3" target="_top" xlink:title="Adopts an existing Scope as a child under the specified key.">
<polygon fill="white" stroke="#666666" points="718.75,-432 607.5,-432 607.5,-400 718.75,-400 718.75,-432"/>
<text xml:space="preserve" text-anchor="start" x="615.5" y="-418.5" font-family="Helvetica,sans-Serif" font-size="10.00">Fiea::Engine::Content</text>
<text xml:space="preserve" text-anchor="middle" x="663.12" y="-406.5" font-family="Helvetica,sans-Serif" font-size="10.00">::Scope::Adopt</text>
</a>
</g>
</g>
<!-- Node1&#45;&gt;Node21 -->
<g id="edge23_Node000001_Node000021" class="edge">
<title>Node1&#45;&gt;Node21</title>
<g id="a_edge23_Node000001_Node000021"><a xlink:title=" ">
<path fill="none" stroke="#63b8ff" d="M781.13,-370.56C768.35,-375.64 754.69,-381.04 742,-386 730.67,-390.43 718.39,-395.19 707,-399.58"/>
<polygon fill="#63b8ff" stroke="#63b8ff" points="782.2,-373.9 790.2,-366.96 779.62,-367.4 782.2,-373.9"/>
</a>
</g>
</g>
<!-- Node22 -->
<g id="Node000022" class="node">
<title>Node22</title>
<g id="a_Node000022"><a xlink:href="namespace_fiea_1_1_engine_1_1_tests.html#ad3e53e7e3f072321bc7199970c619c1d" target="_top" xlink:title=" ">
<polygon fill="white" stroke="#666666" points="502.88,-412 402.12,-412 402.12,-380 502.88,-380 502.88,-412"/>
<text xml:space="preserve" text-anchor="start" x="410.12" y="-398.5" font-family="Helvetica,sans-Serif" font-size="10.00">Fiea::Engine::Tests</text>
<text xml:space="preserve" text-anchor="middle" x="452.5" y="-386.5" font-family="Helvetica,sans-Serif" font-size="10.00">::TEST_CLASS</text>
</a>
</g>
</g>
<!-- Node1&#45;&gt;Node22 -->
<g id="edge43_Node000001_Node000022" class="edge">
<title>Node1&#45;&gt;Node22</title>
<g id="a_edge43_Node000001_Node000022"><a xlink:title=" ">
<path fill="none" stroke="#63b8ff" d="M816.09,-375.47C800.13,-397.5 773.75,-427.81 742,-441 677.25,-467.9 652.12,-458.59 584.25,-441 566.53,-436.41 565.23,-427.83 548.25,-421 533.89,-415.22 517.76,-410.39 502.94,-406.57"/>
<polygon fill="#63b8ff" stroke="#63b8ff" points="818.75,-377.77 821.61,-367.57 813.01,-373.76 818.75,-377.77"/>
</a>
</g>
</g>
<!-- Node23 -->
<g id="Node000023" class="node">
<title>Node23</title>
<g id="a_Node000023"><a xlink:href="class_fiea_1_1_engine_1_1_content_1_1_attributed.html#a7fc54279fcfc7c8bd925e6b47e396446" target="_top" xlink:title="Appends a new instance attribute.">
<polygon fill="white" stroke="#666666" points="733.38,-194 592.88,-194 592.88,-150 733.38,-150 733.38,-194"/>
<text xml:space="preserve" text-anchor="start" x="600.88" y="-180.5" font-family="Helvetica,sans-Serif" font-size="10.00">Fiea::Engine::Content</text>
<text xml:space="preserve" text-anchor="start" x="600.88" y="-168.5" font-family="Helvetica,sans-Serif" font-size="10.00">::Attributed::AppendInstance</text>
<text xml:space="preserve" text-anchor="middle" x="663.12" y="-156.5" font-family="Helvetica,sans-Serif" font-size="10.00">Attribute</text>
</a>
</g>
</g>
<!-- Node1&#45;&gt;Node23 -->
<g id="edge25_Node000001_Node000023" class="edge">
<title>Node1&#45;&gt;Node23</title>
<g id="a_edge25_Node000001_Node000023"><a xlink:title=" ">
<path fill="none" stroke="#63b8ff" d="M822.24,-322.97C808.46,-290.39 781.22,-235.94 742,-203 738.21,-199.82 734.06,-196.93 729.7,-194.33"/>
<polygon fill="#63b8ff" stroke="#63b8ff" points="818.95,-324.17 825.97,-332.1 825.43,-321.52 818.95,-324.17"/>
</a>
</g>
</g>
<!-- Node26 -->
<g id="Node000026" class="node">
<title>Node26</title>
<g id="a_Node000026"><a xlink:href="class_fiea_1_1_engine_1_1_content_1_1_scope.html#a002f54731a8996f37c4f725d8175ffee" target="_top" xlink:title="Appends a new Scope as a child under the specified key.">
<polygon fill="white" stroke="#666666" points="721.38,-541 604.88,-541 604.88,-509 721.38,-509 721.38,-541"/>
<text xml:space="preserve" text-anchor="start" x="612.88" y="-527.5" font-family="Helvetica,sans-Serif" font-size="10.00">Fiea::Engine::Content</text>
<text xml:space="preserve" text-anchor="middle" x="663.12" y="-515.5" font-family="Helvetica,sans-Serif" font-size="10.00">::Scope::AppendScope</text>
</a>
</g>
</g>
<!-- Node1&#45;&gt;Node26 -->
<g id="edge28_Node000001_Node000026" class="edge">
<title>Node1&#45;&gt;Node26</title>
<g id="a_edge28_Node000001_Node000026"><a xlink:title=" ">
<path fill="none" stroke="#63b8ff" d="M817.47,-376.06C801.14,-402.73 773.23,-444.33 742,-474 727.82,-487.47 709.65,-499.6 694.43,-508.65"/>
<polygon fill="#63b8ff" stroke="#63b8ff" points="820.41,-377.97 822.57,-367.6 814.42,-374.36 820.41,-377.97"/>
</a>
</g>
</g>
<!-- Node30 -->
<g id="Node000030" class="node">
<title>Node30</title>
<g id="a_Node000030"><a xlink:href="namespace_fiea_1_1_engine_1_1_tests.html#a376f9ed8237603ebeb822c9076f2f630" target="_top" xlink:title=" ">
<polygon fill="white" stroke="#666666" points="502.88,-362 402.12,-362 402.12,-330 502.88,-330 502.88,-362"/>
<text xml:space="preserve" text-anchor="start" x="410.12" y="-348.5" font-family="Helvetica,sans-Serif" font-size="10.00">Fiea::Engine::Tests</text>
<text xml:space="preserve" text-anchor="middle" x="452.5" y="-336.5" font-family="Helvetica,sans-Serif" font-size="10.00">::TEST_CLASS</text>
</a>
</g>
</g>
<!-- Node1&#45;&gt;Node30 -->
<g id="edge41_Node000001_Node000030" class="edge">
<title>Node1&#45;&gt;Node30</title>
<g id="a_edge41_Node000001_Node000030"><a xlink:title=" ">
<path fill="none" stroke="#63b8ff" d="M766.12,-352.45C758,-352.68 749.81,-352.87 742,-353 671.9,-354.16 654.34,-354.87 584.25,-353 557.44,-352.28 527.56,-350.74 503.14,-349.28"/>
<polygon fill="#63b8ff" stroke="#63b8ff" points="766.11,-355.96 776.01,-352.16 765.91,-348.96 766.11,-355.96"/>
</a>
</g>
</g>
<!-- Node31 -->
<g id="Node000031" class="node">
<title>Node31</title>
<g id="a_Node000031"><a xlink:href="class_fiea_1_1_engine_1_1_actions_1_1_action_add_datum.html#a5f4cbb307e5114e6df91fe55e09ba3b1" target="_top" xlink:title=" ">
<polygon fill="white" stroke="#666666" points="734.88,-132 591.38,-132 591.38,-100 734.88,-100 734.88,-132"/>
<text xml:space="preserve" text-anchor="start" x="599.38" y="-118.5" font-family="Helvetica,sans-Serif" font-size="10.00">Fiea::Engine::Actions</text>
<text xml:space="preserve" text-anchor="middle" x="663.12" y="-106.5" font-family="Helvetica,sans-Serif" font-size="10.00">::ActionAddDatum::InitAction</text>
</a>
</g>
</g>
<!-- Node1&#45;&gt;Node31 -->
<g id="edge39_Node000001_Node000031" class="edge">
<title>Node1&#45;&gt;Node31</title>
<g id="a_edge39_Node000001_Node000031"><a xlink:title=" ">
<path fill="none" stroke="#63b8ff" d="M828.22,-322.71C819.64,-278.29 796.5,-190.38 742,-141 738.42,-137.76 734.42,-134.94 730.17,-132.48"/>
<polygon fill="#63b8ff" stroke="#63b8ff" points="824.73,-323.06 829.96,-332.28 831.62,-321.81 824.73,-323.06"/>
</a>
</g>
</g>
<!-- Node32 -->
<g id="Node000032" class="node">
<title>Node32</title>
<g id="a_Node000032"><a xlink:href="class_fiea_1_1_engine_1_1_content_1_1_scope.html#a6a471c05f99de3bd969e99c23704d39b" target="_top" xlink:title="Overloads operator[] for accessing a Datum by key. If the key does not exist in the Scope,...">
<polygon fill="white" stroke="#666666" points="718.75,-82 607.5,-82 607.5,-50 718.75,-50 718.75,-82"/>
<text xml:space="preserve" text-anchor="start" x="615.5" y="-68.5" font-family="Helvetica,sans-Serif" font-size="10.00">Fiea::Engine::Content</text>
<text xml:space="preserve" text-anchor="middle" x="663.12" y="-56.5" font-family="Helvetica,sans-Serif" font-size="10.00">::Scope::operator[]</text>
</a>
</g>
</g>
<!-- Node1&#45;&gt;Node32 -->
<g id="edge40_Node000001_Node000032" class="edge">
<title>Node1&#45;&gt;Node32</title>
<g id="a_edge40_Node000001_Node000032"><a xlink:title=" ">
<path fill="none" stroke="#63b8ff" d="M830.83,-322.34C825.92,-269.82 807.86,-155.17 742,-91 735.59,-84.76 727.62,-80.07 719.25,-76.56"/>
<polygon fill="#63b8ff" stroke="#63b8ff" points="827.33,-322.53 831.65,-332.21 834.31,-321.95 827.33,-322.53"/>
</a>
</g>
</g>
<!-- Node33 -->
<g id="Node000033" class="node">
<title>Node33</title>
<g id="a_Node000033"><a xlink:href="namespace_fiea_1_1_engine_1_1_tests.html#a68f566c6aeab43c3e521cc48e0c08362" target="_top" xlink:title=" ">
<polygon fill="white" stroke="#666666" points="713.5,-32 612.75,-32 612.75,0 713.5,0 713.5,-32"/>
<text xml:space="preserve" text-anchor="start" x="620.75" y="-18.5" font-family="Helvetica,sans-Serif" font-size="10.00">Fiea::Engine::Tests</text>
<text xml:space="preserve" text-anchor="middle" x="663.12" y="-6.5" font-family="Helvetica,sans-Serif" font-size="10.00">::TEST_CLASS</text>
</a>
</g>
</g>
<!-- Node1&#45;&gt;Node33 -->
<g id="edge42_Node000001_Node000033" class="edge">
<title>Node1&#45;&gt;Node33</title>
<g id="a_edge42_Node000001_Node000033"><a xlink:title=" ">
<path fill="none" stroke="#63b8ff" d="M832.69,-322.16C831.27,-262.31 819.42,-120.41 742,-41 734.37,-33.17 724.28,-27.79 713.91,-24.09"/>
<polygon fill="#63b8ff" stroke="#63b8ff" points="829.18,-322.17 832.83,-332.12 836.18,-322.07 829.18,-322.17"/>
</a>
</g>
</g>
<!-- Node4 -->
<g id="Node000004" class="node">
<title>Node4</title>
<g id="a_Node000004"><a xlink:href="class_fiea_1_1_engine_1_1_content_1_1_scope_writer.html#aa73231d29c0a0b0bcfbb910e2f913404" target="_top" xlink:title=" ">
<polygon fill="white" stroke="#666666" points="523.5,-712 381.5,-712 381.5,-668 523.5,-668 523.5,-712"/>
<text xml:space="preserve" text-anchor="start" x="389.5" y="-698.5" font-family="Helvetica,sans-Serif" font-size="10.00">Fiea::Engine::Content</text>
<text xml:space="preserve" text-anchor="start" x="389.5" y="-686.5" font-family="Helvetica,sans-Serif" font-size="10.00">::ScopeWriter::AddActionList</text>
<text xml:space="preserve" text-anchor="middle" x="452.5" y="-674.5" font-family="Helvetica,sans-Serif" font-size="10.00">Object</text>
</a>
</g>
</g>
<!-- Node3&#45;&gt;Node4 -->
<g id="edge3_Node000003_Node000004" class="edge">
<title>Node3&#45;&gt;Node4</title>
<g id="a_edge3_Node000003_Node000004"><a xlink:title=" ">
<path fill="none" stroke="#63b8ff" d="M585.62,-690C565.45,-690 543.78,-690 523.95,-690"/>
<polygon fill="#63b8ff" stroke="#63b8ff" points="585.46,-693.5 595.46,-690 585.46,-686.5 585.46,-693.5"/>
</a>
</g>
</g>
<!-- Node5 -->
<g id="Node000005" class="node">
<title>Node5</title>
<g id="a_Node000005"><a xlink:href="class_fiea_1_1_engine_1_1_content_1_1_scope_writer.html#a0a79e65b8a84d1a7275153c32e4d499a" target="_top" xlink:title=" ">
<polygon fill="white" stroke="#666666" points="320.75,-787 166,-787 166,-755 320.75,-755 320.75,-787"/>
<text xml:space="preserve" text-anchor="start" x="174" y="-773.5" font-family="Helvetica,sans-Serif" font-size="10.00">Fiea::Engine::Content</text>
<text xml:space="preserve" text-anchor="middle" x="243.38" y="-761.5" font-family="Helvetica,sans-Serif" font-size="10.00">::ScopeWriter::AddActionObject</text>
</a>
</g>
</g>
<!-- Node3&#45;&gt;Node5 -->
<g id="edge7_Node000003_Node000005" class="edge">
<title>Node3&#45;&gt;Node5</title>
<g id="a_edge7_Node000003_Node000005"><a xlink:title=" ">
<path fill="none" stroke="#63b8ff" d="M587.53,-712.02C586.4,-712.97 585.3,-713.96 584.25,-715 548.77,-749.89 588.69,-792.02 548.25,-821 462.41,-882.5 328.16,-819.35 271.28,-787.27"/>
<polygon fill="#63b8ff" stroke="#63b8ff" points="589.44,-714.95 595.64,-706.36 585.44,-709.21 589.44,-714.95"/>
</a>
</g>
</g>
<!-- Node8 -->
<g id="Node000008" class="node">
<title>Node8</title>
<g id="a_Node000008"><a xlink:href="class_fiea_1_1_engine_1_1_content_1_1_scope_writer.html#a8baf6cd60c0807e9e91054132db5183f" target="_top" xlink:title=" ">
<polygon fill="white" stroke="#666666" points="548.25,-812 356.75,-812 356.75,-780 548.25,-780 548.25,-812"/>
<text xml:space="preserve" text-anchor="start" x="364.75" y="-798.5" font-family="Helvetica,sans-Serif" font-size="10.00">Fiea::Engine::Content</text>
<text xml:space="preserve" text-anchor="middle" x="452.5" y="-786.5" font-family="Helvetica,sans-Serif" font-size="10.00">::ScopeWriter::AddActionToPredecessor</text>
</a>
</g>
</g>
<!-- Node3&#45;&gt;Node8 -->
<g id="edge8_Node000003_Node000008" class="edge">
<title>Node3&#45;&gt;Node8</title>
<g id="a_edge8_Node000003_Node000008"><a xlink:title=" ">
<path fill="none" stroke="#63b8ff" d="M588.39,-712.04C586.97,-712.99 585.59,-713.97 584.25,-715 560.79,-733.02 572.18,-753.6 548.25,-771 543.71,-774.3 538.76,-777.17 533.6,-779.66"/>
<polygon fill="#63b8ff" stroke="#63b8ff" points="589.99,-715.16 596.89,-707.12 586.48,-709.1 589.99,-715.16"/>
</a>
</g>
</g>
<!-- Node4&#45;&gt;Node5 -->
<g id="edge4_Node000004_Node000005" class="edge">
<title>Node4&#45;&gt;Node5</title>
<g id="a_edge4_Node000004_Node000005"><a xlink:title=" ">
<path fill="none" stroke="#63b8ff" d="M370.3,-715.96C365.7,-717.62 361.16,-719.3 356.75,-721 330.25,-731.2 300.95,-744.3 278.92,-754.53"/>
<polygon fill="#63b8ff" stroke="#63b8ff" points="371.41,-719.28 379.68,-712.64 369.08,-712.68 371.41,-719.28"/>
</a>
</g>
</g>
<!-- Node7 -->
<g id="Node000007" class="node">
<title>Node7</title>
<g id="a_Node000007"><a xlink:href="class_fiea_1_1_engine_1_1_content_1_1_action_list_handler.html#ae0f8b6534bcf602df112f39202c79ecc" target="_top" xlink:title=" ">
<polygon fill="white" stroke="#666666" points="299,-712 187.75,-712 187.75,-668 299,-668 299,-712"/>
<text xml:space="preserve" text-anchor="start" x="195.75" y="-698.5" font-family="Helvetica,sans-Serif" font-size="10.00">Fiea::Engine::Content</text>
<text xml:space="preserve" text-anchor="start" x="195.75" y="-686.5" font-family="Helvetica,sans-Serif" font-size="10.00">::ActionListHandler::</text>
<text xml:space="preserve" text-anchor="middle" x="243.38" y="-674.5" font-family="Helvetica,sans-Serif" font-size="10.00">EnterKey</text>
</a>
</g>
</g>
<!-- Node4&#45;&gt;Node7 -->
<g id="edge6_Node000004_Node000007" class="edge">
<title>Node4&#45;&gt;Node7</title>
<g id="a_edge6_Node000004_Node000007"><a xlink:title=" ">
<path fill="none" stroke="#63b8ff" d="M369.63,-690C346,-690 320.78,-690 299.22,-690"/>
<polygon fill="#63b8ff" stroke="#63b8ff" points="369.57,-693.5 379.57,-690 369.57,-686.5 369.57,-693.5"/>
</a>
</g>
</g>
<!-- Node6 -->
<g id="Node000006" class="node">
<title>Node6</title>
<g id="a_Node000006"><a xlink:href="class_fiea_1_1_engine_1_1_content_1_1_action_handler.html#a392af20cfeb37d539b88183bc9672f7a" target="_top" xlink:title=" ">
<polygon fill="white" stroke="#666666" points="130,-787 0,-787 0,-755 130,-755 130,-787"/>
<text xml:space="preserve" text-anchor="start" x="8" y="-773.5" font-family="Helvetica,sans-Serif" font-size="10.00">Fiea::Engine::Content</text>
<text xml:space="preserve" text-anchor="middle" x="65" y="-761.5" font-family="Helvetica,sans-Serif" font-size="10.00">::ActionHandler::EnterKey</text>
</a>
</g>
</g>
<!-- Node5&#45;&gt;Node6 -->
<g id="edge5_Node000005_Node000006" class="edge">
<title>Node5&#45;&gt;Node6</title>
<g id="a_edge5_Node000005_Node000006"><a xlink:title=" ">
<path fill="none" stroke="#63b8ff" d="M154.23,-771C146.22,-771 138.21,-771 130.47,-771"/>
<polygon fill="#63b8ff" stroke="#63b8ff" points="154.01,-774.5 164.01,-771 154.01,-767.5 154.01,-774.5"/>
</a>
</g>
</g>
<!-- Node8&#45;&gt;Node5 -->
<g id="edge9_Node000008_Node000005" class="edge">
<title>Node8&#45;&gt;Node5</title>
<g id="a_edge9_Node000008_Node000005"><a xlink:title=" ">
<path fill="none" stroke="#63b8ff" d="M345.06,-783.15C337.01,-782.18 328.99,-781.21 321.19,-780.27"/>
<polygon fill="#63b8ff" stroke="#63b8ff" points="344.57,-786.62 354.92,-784.34 345.41,-779.67 344.57,-786.62"/>
</a>
</g>
</g>
<!-- Node10 -->
<g id="Node000010" class="node">
<title>Node10</title>
<g id="a_Node000010"><a xlink:href="class_fiea_1_1_engine_1_1_content_1_1_scope_writer.html#a707086401a09fd8b2f07d65a1f95fd72" target="_top" xlink:title=" ">
<polygon fill="white" stroke="#666666" points="529.12,-612 375.88,-612 375.88,-580 529.12,-580 529.12,-612"/>
<text xml:space="preserve" text-anchor="start" x="383.88" y="-598.5" font-family="Helvetica,sans-Serif" font-size="10.00">Fiea::Engine::Content</text>
<text xml:space="preserve" text-anchor="middle" x="452.5" y="-586.5" font-family="Helvetica,sans-Serif" font-size="10.00">::ScopeWriter::AddGameObject</text>
</a>
</g>
</g>
<!-- Node9&#45;&gt;Node10 -->
<g id="edge11_Node000009_Node000010" class="edge">
<title>Node9&#45;&gt;Node10</title>
<g id="a_edge11_Node000009_Node000010"><a xlink:title=" ">
<path fill="none" stroke="#63b8ff" d="M585.47,-596C567.2,-596 547.71,-596 529.47,-596"/>
<polygon fill="#63b8ff" stroke="#63b8ff" points="585.46,-599.5 595.46,-596 585.46,-592.5 585.46,-599.5"/>
</a>
</g>
</g>
<!-- Node15 -->
<g id="Node000015" class="node">
<title>Node15</title>
<g id="a_Node000015"><a xlink:href="namespace_fiea_1_1_engine_1_1_tests.html#a34b2b8dfbe4f7aa6a3ea0a5f24db384f" target="_top" xlink:title=" ">
<polygon fill="white" stroke="#666666" points="502.88,-762 402.12,-762 402.12,-730 502.88,-730 502.88,-762"/>
<text xml:space="preserve" text-anchor="start" x="410.12" y="-748.5" font-family="Helvetica,sans-Serif" font-size="10.00">Fiea::Engine::Tests</text>
<text xml:space="preserve" text-anchor="middle" x="452.5" y="-736.5" font-family="Helvetica,sans-Serif" font-size="10.00">::TEST_CLASS</text>
</a>
</g>
</g>
<!-- Node9&#45;&gt;Node15 -->
<g id="edge16_Node000009_Node000015" class="edge">
<title>Node9&#45;&gt;Node15</title>
<g id="a_edge16_Node000009_Node000015"><a xlink:title=" ">
<path fill="none" stroke="#63b8ff" d="M631.94,-619.42C616.71,-632.02 598.5,-648.37 584.25,-665 565,-687.47 572.18,-703.6 548.25,-721 535.18,-730.5 518.76,-736.4 503.28,-740.05"/>
<polygon fill="#63b8ff" stroke="#63b8ff" points="633.78,-622.43 639.34,-613.4 629.37,-617 633.78,-622.43"/>
</a>
</g>
</g>
<!-- Node11 -->
<g id="Node000011" class="node">
<title>Node11</title>
<g id="a_Node000011"><a xlink:href="class_fiea_1_1_engine_1_1_content_1_1_scope_writer.html#a77fe1b124acb1dd1bd3f2d7f104035cf" target="_top" xlink:title=" ">
<polygon fill="white" stroke="#666666" points="306.5,-593 180.25,-593 180.25,-561 306.5,-561 306.5,-593"/>
<text xml:space="preserve" text-anchor="start" x="188.25" y="-579.5" font-family="Helvetica,sans-Serif" font-size="10.00">Fiea::Engine::Content</text>
<text xml:space="preserve" text-anchor="middle" x="243.38" y="-567.5" font-family="Helvetica,sans-Serif" font-size="10.00">::ScopeWriter::AddScope</text>
</a>
</g>
</g>
<!-- Node10&#45;&gt;Node11 -->
<g id="edge12_Node000010_Node000011" class="edge">
<title>Node10&#45;&gt;Node11</title>
<g id="a_edge12_Node000010_Node000011"><a xlink:title=" ">
<path fill="none" stroke="#63b8ff" d="M364.28,-588C344.95,-586.23 324.84,-584.38 306.74,-582.72"/>
<polygon fill="#63b8ff" stroke="#63b8ff" points="363.77,-591.47 374.04,-588.89 364.4,-584.5 363.77,-591.47"/>
</a>
</g>
</g>
<!-- Node12 -->
<g id="Node000012" class="node">
<title>Node12</title>
<g id="a_Node000012"><a xlink:href="class_fiea_1_1_engine_1_1_content_1_1_game_object_handler.html#a626573aebcd7beceb84dbd69bc15105b" target="_top" xlink:title=" ">
<polygon fill="white" stroke="#666666" points="123.25,-661 6.75,-661 6.75,-617 123.25,-617 123.25,-661"/>
<text xml:space="preserve" text-anchor="start" x="14.75" y="-647.5" font-family="Helvetica,sans-Serif" font-size="10.00">Fiea::Engine::Content</text>
<text xml:space="preserve" text-anchor="start" x="14.75" y="-635.5" font-family="Helvetica,sans-Serif" font-size="10.00">::GameObjectHandler::</text>
<text xml:space="preserve" text-anchor="middle" x="65" y="-623.5" font-family="Helvetica,sans-Serif" font-size="10.00">EnterKey</text>
</a>
</g>
</g>
<!-- Node11&#45;&gt;Node12 -->
<g id="edge13_Node000011_Node000012" class="edge">
<title>Node11&#45;&gt;Node12</title>
<g id="a_edge13_Node000011_Node000012"><a xlink:title=" ">
<path fill="none" stroke="#63b8ff" d="M184.94,-597.19C165.32,-604.08 143.39,-611.8 123.74,-618.7"/>
<polygon fill="#63b8ff" stroke="#63b8ff" points="185.87,-600.57 194.14,-593.95 183.55,-593.97 185.87,-600.57"/>
</a>
</g>
</g>
<!-- Node13 -->
<g id="Node000013" class="node">
<title>Node13</title>
<g id="a_Node000013"><a xlink:href="class_fiea_1_1_engine_1_1_content_1_1_scope_factory_handler.html#ae5e7d2b134d20238fa9be43f936bf80b" target="_top" xlink:title=" ">
<polygon fill="white" stroke="#666666" points="123.25,-599 6.75,-599 6.75,-555 123.25,-555 123.25,-599"/>
<text xml:space="preserve" text-anchor="start" x="14.75" y="-585.5" font-family="Helvetica,sans-Serif" font-size="10.00">Fiea::Engine::Content</text>
<text xml:space="preserve" text-anchor="start" x="14.75" y="-573.5" font-family="Helvetica,sans-Serif" font-size="10.00">::ScopeFactoryHandler</text>
<text xml:space="preserve" text-anchor="middle" x="65" y="-561.5" font-family="Helvetica,sans-Serif" font-size="10.00">::EnterKey</text>
</a>
</g>
</g>
<!-- Node11&#45;&gt;Node13 -->
<g id="edge14_Node000011_Node000013" class="edge">
<title>Node11&#45;&gt;Node13</title>
<g id="a_edge14_Node000011_Node000013"><a xlink:title=" ">
<path fill="none" stroke="#63b8ff" d="M168.77,-577C153.65,-577 137.95,-577 123.49,-577"/>
<polygon fill="#63b8ff" stroke="#63b8ff" points="168.68,-580.5 178.68,-577 168.68,-573.5 168.68,-580.5"/>
</a>
</g>
</g>
<!-- Node14 -->
<g id="Node000014" class="node">
<title>Node14</title>
<g id="a_Node000014"><a xlink:href="class_fiea_1_1_engine_1_1_content_1_1_scope_handler.html#a593999f6a2df6002af8db4629d8a0176" target="_top" xlink:title=" ">
<polygon fill="white" stroke="#666666" points="130,-537 0,-537 0,-505 130,-505 130,-537"/>
<text xml:space="preserve" text-anchor="start" x="8" y="-523.5" font-family="Helvetica,sans-Serif" font-size="10.00">Fiea::Engine::Content</text>
<text xml:space="preserve" text-anchor="middle" x="65" y="-511.5" font-family="Helvetica,sans-Serif" font-size="10.00">::ScopeHandler::EnterKey</text>
</a>
</g>
</g>
<!-- Node11&#45;&gt;Node14 -->
<g id="edge15_Node000011_Node000014" class="edge">
<title>Node11&#45;&gt;Node14</title>
<g id="a_edge15_Node000011_Node000014"><a xlink:title=" ">
<path fill="none" stroke="#63b8ff" d="M179.72,-557.11C159.47,-550.68 137.27,-543.63 117.9,-537.48"/>
<polygon fill="#63b8ff" stroke="#63b8ff" points="178.38,-560.35 188.97,-560.04 180.5,-553.68 178.38,-560.35"/>
</a>
</g>
</g>
<!-- Node17 -->
<g id="Node000017" class="node">
<title>Node17</title>
<g id="a_Node000017"><a xlink:href="class_fiea_1_1_engine_1_1_content_1_1_special_primitives_handler.html#a5ff6f656b92d166947bbd3a7c73f9610" target="_top" xlink:title=" ">
<polygon fill="white" stroke="#666666" points="518.25,-312 386.75,-312 386.75,-268 518.25,-268 518.25,-312"/>
<text xml:space="preserve" text-anchor="start" x="394.75" y="-298.5" font-family="Helvetica,sans-Serif" font-size="10.00">Fiea::Engine::Content</text>
<text xml:space="preserve" text-anchor="start" x="394.75" y="-286.5" font-family="Helvetica,sans-Serif" font-size="10.00">::SpecialPrimitivesHandler</text>
<text xml:space="preserve" text-anchor="middle" x="452.5" y="-274.5" font-family="Helvetica,sans-Serif" font-size="10.00">::EnterKey</text>
</a>
</g>
</g>
<!-- Node16&#45;&gt;Node17 -->
<g id="edge18_Node000016_Node000017" class="edge">
<title>Node16&#45;&gt;Node17</title>
<g id="a_edge18_Node000016_Node000017"><a xlink:title=" ">
<path fill="none" stroke="#63b8ff" d="M578.22,-312.72C558.36,-309.1 537.48,-305.3 518.6,-301.86"/>
<polygon fill="#63b8ff" stroke="#63b8ff" points="577.5,-316.14 587.96,-314.49 578.75,-309.26 577.5,-316.14"/>
</a>
</g>
</g>
<!-- Node19 -->
<g id="Node000019" class="node">
<title>Node19</title>
<g id="a_Node000019"><a xlink:href="class_fiea_1_1_engine_1_1_content_1_1_primitive_type_handler.html#a841c5fd5708419c73da86de56d887a2b" target="_top" xlink:title=" ">
<polygon fill="white" stroke="#666666" points="510,-250 395,-250 395,-206 510,-206 510,-250"/>
<text xml:space="preserve" text-anchor="start" x="403" y="-236.5" font-family="Helvetica,sans-Serif" font-size="10.00">Fiea::Engine::Content</text>
<text xml:space="preserve" text-anchor="start" x="403" y="-224.5" font-family="Helvetica,sans-Serif" font-size="10.00">::PrimitiveTypeHandler</text>
<text xml:space="preserve" text-anchor="middle" x="452.5" y="-212.5" font-family="Helvetica,sans-Serif" font-size="10.00">::EnterKey</text>
</a>
</g>
</g>
<!-- Node18&#45;&gt;Node19 -->
<g id="edge20_Node000018_Node000019" class="edge">
<title>Node18&#45;&gt;Node19</title>
<g id="a_edge20_Node000018_Node000019"><a xlink:title=" ">
<path fill="none" stroke="#63b8ff" d="M572.58,-228C551.49,-228 529.58,-228 510.39,-228"/>
<polygon fill="#63b8ff" stroke="#63b8ff" points="572.33,-231.5 582.33,-228 572.33,-224.5 572.33,-231.5"/>
</a>
</g>
</g>
<!-- Node20&#45;&gt;Node17 -->
<g id="edge22_Node000020_Node000017" class="edge">
<title>Node20&#45;&gt;Node17</title>
<g id="a_edge22_Node000020_Node000017"><a xlink:title=" ">
<path fill="none" stroke="#63b8ff" d="M577.66,-282.86C557.91,-283.99 537.17,-285.19 518.42,-286.27"/>
<polygon fill="#63b8ff" stroke="#63b8ff" points="577.86,-286.35 587.65,-282.28 577.46,-279.36 577.86,-286.35"/>
</a>
</g>
</g>
<!-- Node21&#45;&gt;Node22 -->
<g id="edge24_Node000021_Node000022" class="edge">
<title>Node21&#45;&gt;Node22</title>
<g id="a_edge24_Node000021_Node000022"><a xlink:title=" ">
<path fill="none" stroke="#63b8ff" d="M595.8,-409.64C565.78,-406.76 530.9,-403.42 503.18,-400.76"/>
<polygon fill="#63b8ff" stroke="#63b8ff" points="595.24,-413.1 605.53,-410.57 595.91,-406.14 595.24,-413.1"/>
</a>
</g>
</g>
<!-- Node24 -->
<g id="Node000024" class="node">
<title>Node24</title>
<g id="a_Node000024"><a xlink:href="namespace_fiea_1_1_engine_1_1_tests.html#ad7d06bf277bf903f5dbc3982540b1563" target="_top" xlink:title=" ">
<polygon fill="white" stroke="#666666" points="502.88,-138 402.12,-138 402.12,-106 502.88,-106 502.88,-138"/>
<text xml:space="preserve" text-anchor="start" x="410.12" y="-124.5" font-family="Helvetica,sans-Serif" font-size="10.00">Fiea::Engine::Tests</text>
<text xml:space="preserve" text-anchor="middle" x="452.5" y="-112.5" font-family="Helvetica,sans-Serif" font-size="10.00">::TEST_CLASS</text>
</a>
</g>
</g>
<!-- Node23&#45;&gt;Node24 -->
<g id="edge26_Node000023_Node000024" class="edge">
<title>Node23&#45;&gt;Node24</title>
<g id="a_edge26_Node000023_Node000024"><a xlink:title=" ">
<path fill="none" stroke="#63b8ff" d="M581.5,-152.68C555.13,-146.36 526.62,-139.52 503.22,-133.92"/>
<polygon fill="#63b8ff" stroke="#63b8ff" points="580.64,-156.07 591.18,-155 582.28,-149.26 580.64,-156.07"/>
</a>
</g>
</g>
<!-- Node25 -->
<g id="Node000025" class="node">
<title>Node25</title>
<g id="a_Node000025"><a xlink:href="namespace_fiea_1_1_engine_1_1_tests.html#a3cdcf27a81b8b07fd7e0f633fb413ca8" target="_top" xlink:title=" ">
<polygon fill="white" stroke="#666666" points="502.88,-188 402.12,-188 402.12,-156 502.88,-156 502.88,-188"/>
<text xml:space="preserve" text-anchor="start" x="410.12" y="-174.5" font-family="Helvetica,sans-Serif" font-size="10.00">Fiea::Engine::Tests</text>
<text xml:space="preserve" text-anchor="middle" x="452.5" y="-162.5" font-family="Helvetica,sans-Serif" font-size="10.00">::TEST_CLASS</text>
</a>
</g>
</g>
<!-- Node23&#45;&gt;Node25 -->
<g id="edge27_Node000023_Node000025" class="edge">
<title>Node23&#45;&gt;Node25</title>
<g id="a_edge27_Node000023_Node000025"><a xlink:title=" ">
<path fill="none" stroke="#63b8ff" d="M581.15,-172C554.87,-172 526.52,-172 503.22,-172"/>
<polygon fill="#63b8ff" stroke="#63b8ff" points="581.14,-175.5 591.14,-172 581.14,-168.5 581.14,-175.5"/>
</a>
</g>
</g>
<!-- Node26&#45;&gt;Node4 -->
<g id="edge29_Node000026_Node000004" class="edge">
<title>Node26&#45;&gt;Node4</title>
<g id="a_edge29_Node000026_Node000004"><a xlink:title=" ">
<path fill="none" stroke="#63b8ff" d="M613.95,-547.07C603.19,-553.63 592.52,-561.63 584.25,-571 557.64,-601.14 577.33,-626.23 548.25,-654 541.12,-660.81 532.58,-666.36 523.58,-670.88"/>
<polygon fill="#63b8ff" stroke="#63b8ff" points="615.53,-550.2 622.48,-542.2 612.06,-544.12 615.53,-550.2"/>
</a>
</g>
</g>
<!-- Node26&#45;&gt;Node5 -->
<g id="edge30_Node000026_Node000005" class="edge">
<title>Node26&#45;&gt;Node5</title>
<g id="a_edge30_Node000026_Node000005"><a xlink:title=" ">
<path fill="none" stroke="#63b8ff" d="M617.53,-547.09C606.02,-553.89 594.11,-561.99 584.25,-571 564.03,-589.47 571.28,-606.19 548.25,-621 475.26,-667.92 427.36,-608.56 356.75,-659 330.82,-677.52 342.67,-697.87 320.75,-721 307.99,-734.46 290.95,-746.06 276.19,-754.69"/>
<polygon fill="#63b8ff" stroke="#63b8ff" points="619.18,-550.17 626.16,-542.2 615.73,-544.08 619.18,-550.17"/>
</a>
</g>
</g>
<!-- Node26&#45;&gt;Node8 -->
<g id="edge31_Node000026_Node000008" class="edge">
<title>Node26&#45;&gt;Node8</title>
<g id="a_edge31_Node000026_Node000008"><a xlink:title=" ">
<path fill="none" stroke="#63b8ff" d="M610.48,-546.96C600.45,-553.37 590.98,-561.33 584.25,-571 532.68,-645.15 609.51,-704.64 548.25,-771 545.25,-774.25 541.88,-777.1 538.25,-779.59"/>
<polygon fill="#63b8ff" stroke="#63b8ff" points="612.02,-550.11 618.89,-542.05 608.49,-544.07 612.02,-550.11"/>
</a>
</g>
</g>
<!-- Node26&#45;&gt;Node10 -->
<g id="edge32_Node000026_Node000010" class="edge">
<title>Node26&#45;&gt;Node10</title>
<g id="a_edge32_Node000026_Node000010"><a xlink:title=" ">
<path fill="none" stroke="#63b8ff" d="M606.99,-545.34C588.39,-552.07 567.47,-559.5 548.25,-566 534.85,-570.53 520.31,-575.24 506.74,-579.54"/>
<polygon fill="#63b8ff" stroke="#63b8ff" points="608.02,-548.69 616.23,-541.98 605.63,-542.11 608.02,-548.69"/>
</a>
</g>
</g>
<!-- Node26&#45;&gt;Node11 -->
<g id="edge33_Node000026_Node000011" class="edge">
<title>Node26&#45;&gt;Node11</title>
<g id="a_edge33_Node000026_Node000011"><a xlink:title=" ">
<path fill="none" stroke="#63b8ff" d="M593.1,-533.59C513.46,-543.5 383.65,-559.66 306.88,-569.22"/>
<polygon fill="#63b8ff" stroke="#63b8ff" points="593.48,-537.07 602.98,-532.36 592.62,-530.12 593.48,-537.07"/>
</a>
</g>
</g>
<!-- Node26&#45;&gt;Node22 -->
<g id="edge38_Node000026_Node000022" class="edge">
<title>Node26&#45;&gt;Node22</title>
<g id="a_edge38_Node000026_Node000022"><a xlink:title=" ">
<path fill="none" stroke="#63b8ff" d="M621.7,-502.79C608.92,-494.69 595.27,-484.84 584.25,-474 563.95,-454.04 571.49,-437.45 548.25,-421 535.06,-411.66 518.61,-405.81 503.14,-402.15"/>
<polygon fill="#63b8ff" stroke="#63b8ff" points="619.6,-505.61 629.96,-507.84 623.25,-499.63 619.6,-505.61"/>
</a>
</g>
</g>
<!-- Node27 -->
<g id="Node000027" class="node">
<title>Node27</title>
<g id="a_Node000027"><a xlink:href="class_fiea_1_1_engine_1_1_content_1_1_scope_writer.html#a542b6ab60fcbb7b17a9e203df367ca01" target="_top" xlink:title=" ">
<polygon fill="white" stroke="#666666" points="528,-524 377,-524 377,-480 528,-480 528,-524"/>
<text xml:space="preserve" text-anchor="start" x="385" y="-510.5" font-family="Helvetica,sans-Serif" font-size="10.00">Fiea::Engine::Content</text>
<text xml:space="preserve" text-anchor="start" x="385" y="-498.5" font-family="Helvetica,sans-Serif" font-size="10.00">::ScopeWriter::AddWhileAction</text>
<text xml:space="preserve" text-anchor="middle" x="452.5" y="-486.5" font-family="Helvetica,sans-Serif" font-size="10.00">ParamObject</text>
</a>
</g>
</g>
<!-- Node26&#45;&gt;Node27 -->
<g id="edge34_Node000026_Node000027" class="edge">
<title>Node26&#45;&gt;Node27</title>
<g id="a_edge34_Node000026_Node000027"><a xlink:title=" ">
<path fill="none" stroke="#63b8ff" d="M593.27,-517.41C572.51,-515.12 549.61,-512.6 528.47,-510.27"/>
<polygon fill="#63b8ff" stroke="#63b8ff" points="592.74,-520.87 603.06,-518.49 593.5,-513.91 592.74,-520.87"/>
</a>
</g>
</g>
<!-- Node29 -->
<g id="Node000029" class="node">
<title>Node29</title>
<g id="a_Node000029"><a xlink:href="namespace_fiea_1_1_engine_1_1_tests.html#a6fef2096c3071aeedc84a735d125856c" target="_top" xlink:title=" ">
<polygon fill="white" stroke="#666666" points="502.88,-462 402.12,-462 402.12,-430 502.88,-430 502.88,-462"/>
<text xml:space="preserve" text-anchor="start" x="410.12" y="-448.5" font-family="Helvetica,sans-Serif" font-size="10.00">Fiea::Engine::Tests</text>
<text xml:space="preserve" text-anchor="middle" x="452.5" y="-436.5" font-family="Helvetica,sans-Serif" font-size="10.00">::TEST_CLASS</text>
</a>
</g>
</g>
<!-- Node26&#45;&gt;Node29 -->
<g id="edge36_Node000026_Node000029" class="edge">
<title>Node26&#45;&gt;Node29</title>
<g id="a_edge36_Node000026_Node000029"><a xlink:title=" ">
<path fill="none" stroke="#63b8ff" d="M621.36,-503.41C599.99,-492.68 573.15,-480.1 548.25,-471 533.87,-465.74 517.89,-461.09 503.21,-457.27"/>
<polygon fill="#63b8ff" stroke="#63b8ff" points="619.52,-506.41 630.02,-507.82 622.7,-500.17 619.52,-506.41"/>
</a>
</g>
</g>
<!-- Node26&#45;&gt;Node30 -->
<g id="edge37_Node000026_Node000030" class="edge">
<title>Node26&#45;&gt;Node30</title>
<g id="a_edge37_Node000026_Node000030"><a xlink:title=" ">
<path fill="none" stroke="#63b8ff" d="M636.23,-500.71C620.07,-484.71 599.51,-462.77 584.25,-441 564.17,-412.35 575.52,-392.91 548.25,-371 535.52,-360.77 519.01,-354.7 503.35,-351.1"/>
<polygon fill="#63b8ff" stroke="#63b8ff" points="633.54,-502.98 643.15,-507.44 638.43,-497.96 633.54,-502.98"/>
</a>
</g>
</g>
<!-- Node28 -->
<g id="Node000028" class="node">
<title>Node28</title>
<g id="a_Node000028"><a xlink:href="class_fiea_1_1_engine_1_1_content_1_1_action_while_param_handler.html#a0d3cab60b559a3be182c4534883d4614" target="_top" xlink:title=" ">
<polygon fill="white" stroke="#666666" points="311.75,-524 175,-524 175,-480 311.75,-480 311.75,-524"/>
<text xml:space="preserve" text-anchor="start" x="183" y="-510.5" font-family="Helvetica,sans-Serif" font-size="10.00">Fiea::Engine::Content</text>
<text xml:space="preserve" text-anchor="start" x="183" y="-498.5" font-family="Helvetica,sans-Serif" font-size="10.00">::ActionWhileParamHandler</text>
<text xml:space="preserve" text-anchor="middle" x="243.38" y="-486.5" font-family="Helvetica,sans-Serif" font-size="10.00">::EnterKey</text>
</a>
</g>
</g>
<!-- Node27&#45;&gt;Node28 -->
<g id="edge35_Node000027_Node000028" class="edge">
<title>Node27&#45;&gt;Node28</title>
<g id="a_edge35_Node000027_Node000028"><a xlink:title=" ">
<path fill="none" stroke="#63b8ff" d="M365.21,-502C347.5,-502 329.1,-502 312.16,-502"/>
<polygon fill="#63b8ff" stroke="#63b8ff" points="365.21,-505.5 375.21,-502 365.21,-498.5 365.21,-505.5"/>
</a>
</g>
</g>
</g>
</svg>
