<?xml version="1.0" encoding="UTF-8" standalone="no"?>
<!DOCTYPE svg PUBLIC "-//W3C//DTD SVG 1.1//EN"
 "http://www.w3.org/Graphics/SVG/1.1/DTD/svg11.dtd">
<!-- Generated by graphviz version 13.1.0 (20250701.0955)
 -->
<!-- Title: Fiea::Engine::Actions::ActionTimed::ActionTimed Pages: 1 -->
<svg width="319pt" height="190pt"
 viewBox="0.00 0.00 319.00 190.00" xmlns="http://www.w3.org/2000/svg" xmlns:xlink="http://www.w3.org/1999/xlink">
<g id="graph0" class="graph" transform="scale(1 1) rotate(0) translate(4 186)">
<title>Fiea::Engine::Actions::ActionTimed::ActionTimed</title>
<!-- Node1 -->
<g id="Node000001" class="node">
<title>Node1</title>
<g id="a_Node000001"><a xlink:title=" ">
<polygon fill="#999999" stroke="#666666" points="311,-107 173.5,-107 173.5,-75 311,-75 311,-107"/>
<text xml:space="preserve" text-anchor="start" x="181.5" y="-93.5" font-family="Helvetica,sans-Serif" font-size="10.00">Fiea::Engine::Actions</text>
<text xml:space="preserve" text-anchor="middle" x="242.25" y="-81.5" font-family="Helvetica,sans-Serif" font-size="10.00">::ActionTimed::ActionTimed</text>
</a>
</g>
</g>
<!-- Node2 -->
<g id="Node000002" class="node">
<title>Node2</title>
<g id="a_Node000002"><a xlink:href="class_fiea_1_1_engine_1_1_actions_1_1_action_timed.html#af9fb8e9ef5b37c0efd4717335ca1aad7" target="_top" xlink:title=" ">
<polygon fill="white" stroke="#666666" points="137.5,-182 0,-182 0,-150 137.5,-150 137.5,-182"/>
<text xml:space="preserve" text-anchor="start" x="8" y="-168.5" font-family="Helvetica,sans-Serif" font-size="10.00">Fiea::Engine::Actions</text>
<text xml:space="preserve" text-anchor="middle" x="68.75" y="-156.5" font-family="Helvetica,sans-Serif" font-size="10.00">::ActionTimed::ActionTimed</text>
</a>
</g>
</g>
<!-- Node1&#45;&gt;Node2 -->
<g id="edge1_Node000001_Node000002" class="edge">
<title>Node1&#45;&gt;Node2</title>
<g id="a_edge1_Node000001_Node000002"><a xlink:title=" ">
<path fill="none" stroke="#63b8ff" d="M199.12,-112.43C180.43,-121.65 158.06,-132.28 137.5,-141 130.69,-143.89 123.42,-146.77 116.27,-149.5"/>
<polygon fill="#63b8ff" stroke="#63b8ff" points="200.61,-115.6 208.01,-108.02 197.5,-109.33 200.61,-115.6"/>
</a>
</g>
</g>
<!-- Node3 -->
<g id="Node000003" class="node">
<title>Node3</title>
<g id="a_Node000003"><a xlink:href="class_fiea_1_1_engine_1_1_actions_1_1_action_timed.html#abb37fac551acd67202845016d71feb11" target="_top" xlink:title=" ">
<polygon fill="white" stroke="#666666" points="137.5,-132 0,-132 0,-100 137.5,-100 137.5,-132"/>
<text xml:space="preserve" text-anchor="start" x="8" y="-118.5" font-family="Helvetica,sans-Serif" font-size="10.00">Fiea::Engine::Actions</text>
<text xml:space="preserve" text-anchor="middle" x="68.75" y="-106.5" font-family="Helvetica,sans-Serif" font-size="10.00">::ActionTimed::ActionTimed</text>
</a>
</g>
</g>
<!-- Node1&#45;&gt;Node3 -->
<g id="edge2_Node000001_Node000003" class="edge">
<title>Node1&#45;&gt;Node3</title>
<g id="a_edge2_Node000001_Node000003"><a xlink:title=" ">
<path fill="none" stroke="#63b8ff" d="M162.11,-102.54C154.02,-103.72 145.84,-104.91 137.88,-106.07"/>
<polygon fill="#63b8ff" stroke="#63b8ff" points="162.58,-106 171.97,-101.1 161.57,-99.08 162.58,-106"/>
</a>
</g>
</g>
<!-- Node4 -->
<g id="Node000004" class="node">
<title>Node4</title>
<g id="a_Node000004"><a xlink:href="class_fiea_1_1_engine_1_1_actions_1_1_action_timed.html#a3f278f32e1c60e2a6901e022ccad5c06" target="_top" xlink:title=" ">
<polygon fill="white" stroke="#666666" points="130.75,-82 6.75,-82 6.75,-50 130.75,-50 130.75,-82"/>
<text xml:space="preserve" text-anchor="start" x="14.75" y="-68.5" font-family="Helvetica,sans-Serif" font-size="10.00">Fiea::Engine::Actions</text>
<text xml:space="preserve" text-anchor="middle" x="68.75" y="-56.5" font-family="Helvetica,sans-Serif" font-size="10.00">::ActionTimed::operator=</text>
</a>
</g>
</g>
<!-- Node1&#45;&gt;Node4 -->
<g id="edge3_Node000001_Node000004" class="edge">
<title>Node1&#45;&gt;Node4</title>
<g id="a_edge3_Node000001_Node000004"><a xlink:title=" ">
<path fill="none" stroke="#63b8ff" d="M162.24,-79.48C151.82,-77.96 141.26,-76.42 131.19,-74.96"/>
<polygon fill="#63b8ff" stroke="#63b8ff" points="161.57,-82.92 171.97,-80.9 162.58,-76 161.57,-82.92"/>
</a>
</g>
</g>
<!-- Node5 -->
<g id="Node000005" class="node">
<title>Node5</title>
<g id="a_Node000005"><a xlink:href="class_fiea_1_1_engine_1_1_actions_1_1_action_timed.html#a4006c68412b3523165bd0af5041a39f3" target="_top" xlink:title=" ">
<polygon fill="white" stroke="#666666" points="130.75,-32 6.75,-32 6.75,0 130.75,0 130.75,-32"/>
<text xml:space="preserve" text-anchor="start" x="14.75" y="-18.5" font-family="Helvetica,sans-Serif" font-size="10.00">Fiea::Engine::Actions</text>
<text xml:space="preserve" text-anchor="middle" x="68.75" y="-6.5" font-family="Helvetica,sans-Serif" font-size="10.00">::ActionTimed::operator=</text>
</a>
</g>
</g>
<!-- Node1&#45;&gt;Node5 -->
<g id="edge4_Node000001_Node000005" class="edge">
<title>Node1&#45;&gt;Node5</title>
<g id="a_edge4_Node000001_Node000005"><a xlink:title=" ">
<path fill="none" stroke="#63b8ff" d="M199.12,-69.57C180.43,-60.35 158.06,-49.72 137.5,-41 130.69,-38.11 123.42,-35.23 116.27,-32.5"/>
<polygon fill="#63b8ff" stroke="#63b8ff" points="197.5,-72.67 208.01,-73.98 200.61,-66.4 197.5,-72.67"/>
</a>
</g>
</g>
</g>
</svg>
