<?xml version="1.0" encoding="UTF-8" standalone="no"?>
<!DOCTYPE svg PUBLIC "-//W3C//DTD SVG 1.1//EN"
 "http://www.w3.org/Graphics/SVG/1.1/DTD/svg11.dtd">
<!-- Generated by graphviz version 13.1.0 (20250701.0955)
 -->
<!-- Title: Fiea::Engine::Actions::ActionListWhileLoop::operator= Pages: 1 -->
<svg width="1013pt" height="220pt"
 viewBox="0.00 0.00 1013.00 220.00" xmlns="http://www.w3.org/2000/svg" xmlns:xlink="http://www.w3.org/1999/xlink">
<g id="graph0" class="graph" transform="scale(1 1) rotate(0) translate(4 216)">
<title>Fiea::Engine::Actions::ActionListWhileLoop::operator=</title>
<!-- Node1 -->
<g id="Node000001" class="node">
<title>Node1</title>
<g id="a_Node000001"><a xlink:title=" ">
<polygon fill="#999999" stroke="#666666" points="111.25,-128 0,-128 0,-84 111.25,-84 111.25,-128"/>
<text xml:space="preserve" text-anchor="start" x="8" y="-114.5" font-family="Helvetica,sans-Serif" font-size="10.00">Fiea::Engine::Actions</text>
<text xml:space="preserve" text-anchor="start" x="8" y="-102.5" font-family="Helvetica,sans-Serif" font-size="10.00">::ActionListWhileLoop</text>
<text xml:space="preserve" text-anchor="middle" x="55.62" y="-90.5" font-family="Helvetica,sans-Serif" font-size="10.00">::operator=</text>
</a>
</g>
</g>
<!-- Node2 -->
<g id="Node000002" class="node">
<title>Node2</title>
<g id="a_Node000002"><a xlink:href="class_fiea_1_1_engine_1_1_actions_1_1_action_list_while_loop.html#ac028ded1d05dc70a0fbc9c8c7345085f" target="_top" xlink:title=" ">
<polygon fill="white" stroke="#666666" points="258.5,-128 147.25,-128 147.25,-84 258.5,-84 258.5,-128"/>
<text xml:space="preserve" text-anchor="start" x="155.25" y="-114.5" font-family="Helvetica,sans-Serif" font-size="10.00">Fiea::Engine::Actions</text>
<text xml:space="preserve" text-anchor="start" x="155.25" y="-102.5" font-family="Helvetica,sans-Serif" font-size="10.00">::ActionListWhileLoop</text>
<text xml:space="preserve" text-anchor="middle" x="202.88" y="-90.5" font-family="Helvetica,sans-Serif" font-size="10.00">::ActionListWhileLoop</text>
</a>
</g>
</g>
<!-- Node1&#45;&gt;Node2 -->
<g id="edge1_Node000001_Node000002" class="edge">
<title>Node1&#45;&gt;Node2</title>
<g id="a_edge1_Node000001_Node000002"><a xlink:title=" ">
<path fill="none" stroke="#63b8ff" d="M111.54,-106C119.4,-106 127.56,-106 135.61,-106"/>
<polygon fill="#63b8ff" stroke="#63b8ff" points="135.37,-109.5 145.37,-106 135.37,-102.5 135.37,-109.5"/>
</a>
</g>
</g>
<!-- Node3 -->
<g id="Node000003" class="node">
<title>Node3</title>
<g id="a_Node000003"><a xlink:href="class_fiea_1_1_engine_1_1_actions_1_1_action_list.html#a77dc15425d13d1d10482ec9e97d923fb" target="_top" xlink:title=" ">
<polygon fill="white" stroke="#666666" points="409.5,-144 294.5,-144 294.5,-112 409.5,-112 409.5,-144"/>
<text xml:space="preserve" text-anchor="start" x="302.5" y="-130.5" font-family="Helvetica,sans-Serif" font-size="10.00">Fiea::Engine::Actions</text>
<text xml:space="preserve" text-anchor="middle" x="352" y="-118.5" font-family="Helvetica,sans-Serif" font-size="10.00">::ActionList::ActionList</text>
</a>
</g>
</g>
<!-- Node2&#45;&gt;Node3 -->
<g id="edge2_Node000002_Node000003" class="edge">
<title>Node2&#45;&gt;Node3</title>
<g id="a_edge2_Node000002_Node000003"><a xlink:title=" ">
<path fill="none" stroke="#63b8ff" d="M258.66,-114.19C266.54,-115.37 274.74,-116.6 282.84,-117.81"/>
<polygon fill="#63b8ff" stroke="#63b8ff" points="282.3,-121.27 292.71,-119.28 283.33,-114.34 282.3,-121.27"/>
</a>
</g>
</g>
<!-- Node6 -->
<g id="Node000006" class="node">
<title>Node6</title>
<g id="a_Node000006"><a xlink:href="class_fiea_1_1_engine_1_1_r_t_t_i.html#a876bebbe7b3149483c43a87f55f4ea99" target="_top" xlink:title=" ">
<polygon fill="white" stroke="#666666" points="696.5,-126 598,-126 598,-94 696.5,-94 696.5,-126"/>
<text xml:space="preserve" text-anchor="start" x="606" y="-112.5" font-family="Helvetica,sans-Serif" font-size="10.00">Fiea::Engine::RTTI</text>
<text xml:space="preserve" text-anchor="middle" x="647.25" y="-100.5" font-family="Helvetica,sans-Serif" font-size="10.00">::TypeIdInstance</text>
</a>
</g>
</g>
<!-- Node2&#45;&gt;Node6 -->
<g id="edge17_Node000002_Node000006" class="edge">
<title>Node2&#45;&gt;Node6</title>
<g id="a_edge17_Node000002_Node000006"><a xlink:title=" ">
<path fill="none" stroke="#63b8ff" d="M258.98,-103.88C270.7,-103.52 283.01,-103.19 294.5,-103 397.04,-101.3 516.39,-104.84 586.38,-107.48"/>
<polygon fill="#63b8ff" stroke="#63b8ff" points="585.96,-110.97 596.09,-107.85 586.23,-103.97 585.96,-110.97"/>
</a>
</g>
</g>
<!-- Node4 -->
<g id="Node000004" class="node">
<title>Node4</title>
<g id="a_Node000004"><a xlink:href="class_fiea_1_1_engine_1_1_actions_1_1_action.html#ae2af386f7122152003b00da79393e19e" target="_top" xlink:title=" ">
<polygon fill="white" stroke="#666666" points="555.25,-182 445.5,-182 445.5,-150 555.25,-150 555.25,-182"/>
<text xml:space="preserve" text-anchor="start" x="453.5" y="-168.5" font-family="Helvetica,sans-Serif" font-size="10.00">Fiea::Engine::Actions</text>
<text xml:space="preserve" text-anchor="middle" x="500.38" y="-156.5" font-family="Helvetica,sans-Serif" font-size="10.00">::Action::Action</text>
</a>
</g>
</g>
<!-- Node3&#45;&gt;Node4 -->
<g id="edge3_Node000003_Node000004" class="edge">
<title>Node3&#45;&gt;Node4</title>
<g id="a_edge3_Node000003_Node000004"><a xlink:title=" ">
<path fill="none" stroke="#63b8ff" d="M409.59,-142.69C417.67,-144.79 426.03,-146.96 434.25,-149.09"/>
<polygon fill="#63b8ff" stroke="#63b8ff" points="433.31,-152.47 443.87,-151.59 435.07,-145.69 433.31,-152.47"/>
</a>
</g>
</g>
<!-- Node3&#45;&gt;Node6 -->
<g id="edge16_Node000003_Node000006" class="edge">
<title>Node3&#45;&gt;Node6</title>
<g id="a_edge16_Node000003_Node000006"><a xlink:title=" ">
<path fill="none" stroke="#63b8ff" d="M409.89,-124.51C460.68,-121.39 534.81,-116.84 586.47,-113.67"/>
<polygon fill="#63b8ff" stroke="#63b8ff" points="586.5,-117.17 596.27,-113.07 586.07,-110.19 586.5,-117.17"/>
</a>
</g>
</g>
<!-- Node5 -->
<g id="Node000005" class="node">
<title>Node5</title>
<g id="a_Node000005"><a xlink:href="class_fiea_1_1_engine_1_1_content_1_1_attributed.html#ad1ae014235d9d8b62b36066c94164148" target="_top" xlink:title=" ">
<polygon fill="white" stroke="#666666" points="703.25,-194 591.25,-194 591.25,-162 703.25,-162 703.25,-194"/>
<text xml:space="preserve" text-anchor="start" x="599.25" y="-180.5" font-family="Helvetica,sans-Serif" font-size="10.00">Fiea::Engine::Content</text>
<text xml:space="preserve" text-anchor="middle" x="647.25" y="-168.5" font-family="Helvetica,sans-Serif" font-size="10.00">::Attributed::Attributed</text>
</a>
</g>
</g>
<!-- Node4&#45;&gt;Node5 -->
<g id="edge4_Node000004_Node000005" class="edge">
<title>Node4&#45;&gt;Node5</title>
<g id="a_edge4_Node000004_Node000005"><a xlink:title=" ">
<path fill="none" stroke="#63b8ff" d="M555.73,-170.5C563.59,-171.15 571.75,-171.83 579.82,-172.5"/>
<polygon fill="#63b8ff" stroke="#63b8ff" points="579.34,-175.97 589.6,-173.31 579.92,-168.99 579.34,-175.97"/>
</a>
</g>
</g>
<!-- Node4&#45;&gt;Node6 -->
<g id="edge6_Node000004_Node000006" class="edge">
<title>Node4&#45;&gt;Node6</title>
<g id="a_edge6_Node000004_Node000006"><a xlink:title=" ">
<path fill="none" stroke="#63b8ff" d="M544.06,-149.5C559.53,-143.52 577.2,-136.69 593.44,-130.41"/>
<polygon fill="#63b8ff" stroke="#63b8ff" points="594.39,-133.8 602.46,-126.93 591.87,-127.27 594.39,-133.8"/>
</a>
</g>
</g>
<!-- Node5&#45;&gt;Node5 -->
<g id="edge5_Node000005_Node000005" class="edge">
<title>Node5&#45;&gt;Node5</title>
<g id="a_edge5_Node000005_Node000005"><a xlink:title=" ">
<path fill="none" stroke="#63b8ff" d="M621.03,-194.44C616.13,-203.58 624.87,-212 647.25,-212 659.49,-212 667.65,-209.48 671.73,-205.71"/>
<polygon fill="#63b8ff" stroke="#63b8ff" points="675.17,-206.36 673.24,-195.94 668.25,-205.28 675.17,-206.36"/>
</a>
</g>
</g>
<!-- Node6&#45;&gt;Node6 -->
<g id="edge15_Node000006_Node000006" class="edge">
<title>Node6&#45;&gt;Node6</title>
<g id="a_edge15_Node000006_Node000006"><a xlink:title=" ">
<path fill="none" stroke="#63b8ff" d="M621.03,-126.44C616.13,-135.58 624.87,-144 647.25,-144 659.49,-144 667.65,-141.48 671.73,-137.71"/>
<polygon fill="#63b8ff" stroke="#63b8ff" points="675.17,-138.36 673.24,-127.94 668.25,-137.28 675.17,-138.36"/>
</a>
</g>
</g>
<!-- Node7 -->
<g id="Node000007" class="node">
<title>Node7</title>
<g id="a_Node000007"><a xlink:href="class_fiea_1_1_engine_1_1_r_t_t_i.html#a15bd5993c8ad04da47af440298ebbb30" target="_top" xlink:title=" ">
<polygon fill="white" stroke="#666666" points="855.75,-158 739.25,-158 739.25,-138 855.75,-138 855.75,-158"/>
<text xml:space="preserve" text-anchor="middle" x="797.5" y="-144.5" font-family="Helvetica,sans-Serif" font-size="10.00">Fiea::Engine::RTTI::As</text>
</a>
</g>
</g>
<!-- Node6&#45;&gt;Node7 -->
<g id="edge7_Node000006_Node000007" class="edge">
<title>Node6&#45;&gt;Node7</title>
<g id="a_edge7_Node000006_Node000007"><a xlink:title=" ">
<path fill="none" stroke="#63b8ff" d="M696.79,-122.44C712.15,-126.38 729.18,-130.74 744.75,-134.74"/>
<polygon fill="#63b8ff" stroke="#63b8ff" points="743.77,-138.1 754.32,-137.19 745.5,-131.32 743.77,-138.1"/>
</a>
</g>
</g>
<!-- Node8 -->
<g id="Node000008" class="node">
<title>Node8</title>
<g id="a_Node000008"><a xlink:href="class_fiea_1_1_engine_1_1_r_t_t_i.html#ac0a7d875e4513b2aca7594abcd4418ef" target="_top" xlink:title=" ">
<polygon fill="white" stroke="#666666" points="1004.5,-180 891.75,-180 891.75,-160 1004.5,-160 1004.5,-180"/>
<text xml:space="preserve" text-anchor="middle" x="948.12" y="-166.5" font-family="Helvetica,sans-Serif" font-size="10.00">Fiea::Engine::RTTI::Is</text>
</a>
</g>
</g>
<!-- Node6&#45;&gt;Node8 -->
<g id="edge12_Node000006_Node000008" class="edge">
<title>Node6&#45;&gt;Node8</title>
<g id="a_edge12_Node000006_Node000008"><a xlink:title=" ">
<path fill="none" stroke="#63b8ff" d="M667.3,-126.34C684.73,-140.14 711.89,-158.93 739.25,-167 784.97,-180.5 838.85,-180.86 880.3,-178.06"/>
<polygon fill="#63b8ff" stroke="#63b8ff" points="880.43,-181.56 890.13,-177.31 879.89,-174.58 880.43,-181.56"/>
</a>
</g>
</g>
<!-- Node9 -->
<g id="Node000009" class="node">
<title>Node9</title>
<g id="a_Node000009"><a xlink:href="class_fiea_1_1_engine_1_1_r_t_t_i.html#a13000029a2e6cced30b831e466e07cae" target="_top" xlink:title=" ">
<polygon fill="white" stroke="#666666" points="997.38,-126 898.88,-126 898.88,-94 997.38,-94 997.38,-126"/>
<text xml:space="preserve" text-anchor="start" x="906.88" y="-112.5" font-family="Helvetica,sans-Serif" font-size="10.00">Fiea::Engine::RTTI</text>
<text xml:space="preserve" text-anchor="middle" x="948.12" y="-100.5" font-family="Helvetica,sans-Serif" font-size="10.00">::RTTI</text>
</a>
</g>
</g>
<!-- Node6&#45;&gt;Node9 -->
<g id="edge13_Node000006_Node000009" class="edge">
<title>Node6&#45;&gt;Node9</title>
<g id="a_edge13_Node000006_Node000009"><a xlink:title=" ">
<path fill="none" stroke="#63b8ff" d="M696.93,-110C748.82,-110 831.04,-110 886.95,-110"/>
<polygon fill="#63b8ff" stroke="#63b8ff" points="886.95,-113.5 896.95,-110 886.95,-106.5 886.95,-113.5"/>
</a>
</g>
</g>
<!-- Node10 -->
<g id="Node000010" class="node">
<title>Node10</title>
<g id="a_Node000010"><a xlink:href="class_fiea_1_1_engine_1_1_r_t_t_i.html#a7f70ad5ba0f8a3388543d63d72892575" target="_top" xlink:title=" ">
<polygon fill="white" stroke="#666666" points="846.75,-82 748.25,-82 748.25,-50 846.75,-50 846.75,-82"/>
<text xml:space="preserve" text-anchor="start" x="756.25" y="-68.5" font-family="Helvetica,sans-Serif" font-size="10.00">Fiea::Engine::RTTI</text>
<text xml:space="preserve" text-anchor="middle" x="797.5" y="-56.5" font-family="Helvetica,sans-Serif" font-size="10.00">::Equals</text>
</a>
</g>
</g>
<!-- Node6&#45;&gt;Node10 -->
<g id="edge10_Node000006_Node000010" class="edge">
<title>Node6&#45;&gt;Node10</title>
<g id="a_edge10_Node000006_Node000010"><a xlink:title=" ">
<path fill="none" stroke="#63b8ff" d="M696.79,-95.59C709.59,-91.79 723.55,-87.65 736.86,-83.7"/>
<polygon fill="#63b8ff" stroke="#63b8ff" points="737.81,-87.07 746.4,-80.87 735.81,-80.36 737.81,-87.07"/>
</a>
</g>
</g>
<!-- Node11 -->
<g id="Node000011" class="node">
<title>Node11</title>
<g id="a_Node000011"><a xlink:href="class_fiea_1_1_engine_1_1_r_t_t_i.html#a43a7d187e332a17d2c699bc2c8136a30" target="_top" xlink:title=" ">
<polygon fill="white" stroke="#666666" points="846.75,-32 748.25,-32 748.25,0 846.75,0 846.75,-32"/>
<text xml:space="preserve" text-anchor="start" x="756.25" y="-18.5" font-family="Helvetica,sans-Serif" font-size="10.00">Fiea::Engine::RTTI</text>
<text xml:space="preserve" text-anchor="middle" x="797.5" y="-6.5" font-family="Helvetica,sans-Serif" font-size="10.00">::ToString</text>
</a>
</g>
</g>
<!-- Node6&#45;&gt;Node11 -->
<g id="edge14_Node000006_Node000011" class="edge">
<title>Node6&#45;&gt;Node11</title>
<g id="a_edge14_Node000006_Node000011"><a xlink:title=" ">
<path fill="none" stroke="#63b8ff" d="M667.19,-93.51C684.97,-78.56 712.74,-56.54 739.25,-41 741.26,-39.82 743.34,-38.66 745.45,-37.53"/>
<polygon fill="#63b8ff" stroke="#63b8ff" points="746.84,-40.75 754.21,-33.13 743.7,-34.5 746.84,-40.75"/>
</a>
</g>
</g>
<!-- Node7&#45;&gt;Node8 -->
<g id="edge8_Node000007_Node000008" class="edge">
<title>Node7&#45;&gt;Node8</title>
<g id="a_edge8_Node000007_Node000008"><a xlink:title=" ">
<path fill="none" stroke="#63b8ff" d="M855.96,-156.51C863.85,-157.67 872,-158.88 880.03,-160.07"/>
<polygon fill="#63b8ff" stroke="#63b8ff" points="879.38,-163.51 889.78,-161.51 880.41,-156.59 879.38,-163.51"/>
</a>
</g>
</g>
<!-- Node7&#45;&gt;Node9 -->
<g id="edge9_Node000007_Node000009" class="edge">
<title>Node7&#45;&gt;Node9</title>
<g id="a_edge9_Node000007_Node000009"><a xlink:title=" ">
<path fill="none" stroke="#63b8ff" d="M839.51,-137.52C854.38,-133.71 871.49,-129.34 887.63,-125.21"/>
<polygon fill="#63b8ff" stroke="#63b8ff" points="888.32,-128.65 897.14,-122.78 886.59,-121.87 888.32,-128.65"/>
</a>
</g>
</g>
<!-- Node10&#45;&gt;Node9 -->
<g id="edge11_Node000010_Node000009" class="edge">
<title>Node10&#45;&gt;Node9</title>
<g id="a_edge11_Node000010_Node000009"><a xlink:title=" ">
<path fill="none" stroke="#63b8ff" d="M847.17,-80.41C860.19,-84.26 874.42,-88.47 887.94,-92.48"/>
<polygon fill="#63b8ff" stroke="#63b8ff" points="886.57,-95.72 897.15,-95.21 888.56,-89.01 886.57,-95.72"/>
</a>
</g>
</g>
</g>
</svg>
