<?xml version="1.0" encoding="UTF-8" standalone="no"?>
<!DOCTYPE svg PUBLIC "-//W3C//DTD SVG 1.1//EN"
 "http://www.w3.org/Graphics/SVG/1.1/DTD/svg11.dtd">
<!-- Generated by graphviz version 13.1.0 (20250701.0955)
 -->
<!-- Title: Fiea::Engine::Actions::ActionOutput::RunAction Pages: 1 -->
<svg width="581pt" height="112pt"
 viewBox="0.00 0.00 581.00 112.00" xmlns="http://www.w3.org/2000/svg" xmlns:xlink="http://www.w3.org/1999/xlink">
<g id="graph0" class="graph" transform="scale(1 1) rotate(0) translate(4 108)">
<title>Fiea::Engine::Actions::ActionOutput::RunAction</title>
<!-- Node1 -->
<g id="Node000001" class="node">
<title>Node1</title>
<g id="a_Node000001"><a xlink:title=" ">
<polygon fill="#999999" stroke="#666666" points="130.75,-79 0,-79 0,-47 130.75,-47 130.75,-79"/>
<text xml:space="preserve" text-anchor="start" x="8" y="-65.5" font-family="Helvetica,sans-Serif" font-size="10.00">Fiea::Engine::Actions</text>
<text xml:space="preserve" text-anchor="middle" x="65.38" y="-53.5" font-family="Helvetica,sans-Serif" font-size="10.00">::ActionOutput::RunAction</text>
</a>
</g>
</g>
<!-- Node2 -->
<g id="Node000002" class="node">
<title>Node2</title>
<g id="a_Node000002"><a xlink:href="class_fiea_1_1_engine_1_1_content_1_1_datum.html#a1c4d3dca8d0803873a622afc5c68ec40" target="_top" xlink:title=" ">
<polygon fill="white" stroke="#666666" points="278,-104 166.75,-104 166.75,-72 278,-72 278,-104"/>
<text xml:space="preserve" text-anchor="start" x="174.75" y="-90.5" font-family="Helvetica,sans-Serif" font-size="10.00">Fiea::Engine::Content</text>
<text xml:space="preserve" text-anchor="middle" x="222.38" y="-78.5" font-family="Helvetica,sans-Serif" font-size="10.00">::Datum::GetToString</text>
</a>
</g>
</g>
<!-- Node1&#45;&gt;Node2 -->
<g id="edge1_Node000001_Node000002" class="edge">
<title>Node1&#45;&gt;Node2</title>
<g id="a_edge1_Node000001_Node000002"><a xlink:title=" ">
<path fill="none" stroke="#63b8ff" d="M131.21,-73.46C139.22,-74.75 147.41,-76.07 155.43,-77.36"/>
<polygon fill="#63b8ff" stroke="#63b8ff" points="154.7,-80.79 165.13,-78.93 155.82,-73.88 154.7,-80.79"/>
</a>
</g>
</g>
<!-- Node3 -->
<g id="Node000003" class="node">
<title>Node3</title>
<g id="a_Node000003"><a xlink:href="class_fiea_1_1_engine_1_1_content_1_1_scope.html#ae21ea7cc60b24915a0aac3b0d0f6005c" target="_top" xlink:title=" ">
<polygon fill="white" stroke="#666666" points="278,-54 166.75,-54 166.75,-22 278,-22 278,-54"/>
<text xml:space="preserve" text-anchor="start" x="174.75" y="-40.5" font-family="Helvetica,sans-Serif" font-size="10.00">Fiea::Engine::Content</text>
<text xml:space="preserve" text-anchor="middle" x="222.38" y="-28.5" font-family="Helvetica,sans-Serif" font-size="10.00">::Scope::Search</text>
</a>
</g>
</g>
<!-- Node1&#45;&gt;Node3 -->
<g id="edge2_Node000001_Node000003" class="edge">
<title>Node1&#45;&gt;Node3</title>
<g id="a_edge2_Node000001_Node000003"><a xlink:title=" ">
<path fill="none" stroke="#63b8ff" d="M131.21,-52.54C139.22,-51.25 147.41,-49.93 155.43,-48.64"/>
<polygon fill="#63b8ff" stroke="#63b8ff" points="155.82,-52.12 165.13,-47.07 154.7,-45.21 155.82,-52.12"/>
</a>
</g>
</g>
<!-- Node4 -->
<g id="Node000004" class="node">
<title>Node4</title>
<g id="a_Node000004"><a xlink:href="class_fiea_1_1_engine_1_1_content_1_1_scope.html#ad924c01785b239991fc0e56a63295612" target="_top" xlink:title="Finds a Datum by key.">
<polygon fill="white" stroke="#666666" points="425.25,-104 314,-104 314,-72 425.25,-72 425.25,-104"/>
<text xml:space="preserve" text-anchor="start" x="322" y="-90.5" font-family="Helvetica,sans-Serif" font-size="10.00">Fiea::Engine::Content</text>
<text xml:space="preserve" text-anchor="middle" x="369.62" y="-78.5" font-family="Helvetica,sans-Serif" font-size="10.00">::Scope::Find</text>
</a>
</g>
</g>
<!-- Node3&#45;&gt;Node4 -->
<g id="edge3_Node000003_Node000004" class="edge">
<title>Node3&#45;&gt;Node4</title>
<g id="a_edge3_Node000003_Node000004"><a xlink:title=" ">
<path fill="none" stroke="#63b8ff" d="M270.94,-54.37C283.48,-58.69 297.15,-63.4 310.19,-67.89"/>
<polygon fill="#63b8ff" stroke="#63b8ff" points="308.93,-71.15 319.53,-71.1 311.21,-64.53 308.93,-71.15"/>
</a>
</g>
</g>
<!-- Node5 -->
<g id="Node000005" class="node">
<title>Node5</title>
<g id="a_Node000005"><a xlink:href="class_fiea_1_1_engine_1_1_content_1_1_scope.html#ac4627f740867a929957ce0647f436e02" target="_top" xlink:title=" ">
<polygon fill="white" stroke="#666666" points="425.25,-54 314,-54 314,-22 425.25,-22 425.25,-54"/>
<text xml:space="preserve" text-anchor="start" x="322" y="-40.5" font-family="Helvetica,sans-Serif" font-size="10.00">Fiea::Engine::Content</text>
<text xml:space="preserve" text-anchor="middle" x="369.62" y="-28.5" font-family="Helvetica,sans-Serif" font-size="10.00">::Scope::GetParent</text>
</a>
</g>
</g>
<!-- Node3&#45;&gt;Node5 -->
<g id="edge4_Node000003_Node000005" class="edge">
<title>Node3&#45;&gt;Node5</title>
<g id="a_edge4_Node000003_Node000005"><a xlink:title=" ">
<path fill="none" stroke="#63b8ff" d="M278.29,-38C286.15,-38 294.31,-38 302.36,-38"/>
<polygon fill="#63b8ff" stroke="#63b8ff" points="302.12,-41.5 312.12,-38 302.12,-34.5 302.12,-41.5"/>
</a>
</g>
</g>
<!-- Node6 -->
<g id="Node000006" class="node">
<title>Node6</title>
<g id="a_Node000006"><a xlink:href="class_fiea_1_1_engine_1_1_content_1_1_scope.html#a6631343c968c233ab1d9c3e05c3f4fe9" target="_top" xlink:title=" ">
<polygon fill="white" stroke="#666666" points="572.5,-32 461.25,-32 461.25,0 572.5,0 572.5,-32"/>
<text xml:space="preserve" text-anchor="start" x="469.25" y="-18.5" font-family="Helvetica,sans-Serif" font-size="10.00">Fiea::Engine::Content</text>
<text xml:space="preserve" text-anchor="middle" x="516.88" y="-6.5" font-family="Helvetica,sans-Serif" font-size="10.00">::Scope::Scope</text>
</a>
</g>
</g>
<!-- Node3&#45;&gt;Node6 -->
<g id="edge7_Node000003_Node000006" class="edge">
<title>Node3&#45;&gt;Node6</title>
<g id="a_edge7_Node000003_Node000006"><a xlink:title=" ">
<path fill="none" stroke="#63b8ff" d="M273.68,-21.54C286.67,-18.01 300.74,-14.8 314,-13 358.89,-6.92 409.91,-7.75 449.43,-10.05"/>
<polygon fill="#63b8ff" stroke="#63b8ff" points="449.06,-13.53 459.26,-10.68 449.51,-6.55 449.06,-13.53"/>
</a>
</g>
</g>
<!-- Node5&#45;&gt;Node6 -->
<g id="edge5_Node000005_Node000006" class="edge">
<title>Node5&#45;&gt;Node6</title>
<g id="a_edge5_Node000005_Node000006"><a xlink:title=" ">
<path fill="none" stroke="#63b8ff" d="M425.54,-29.68C433.4,-28.49 441.56,-27.26 449.61,-26.04"/>
<polygon fill="#63b8ff" stroke="#63b8ff" points="450.03,-29.51 459.39,-24.56 448.98,-22.59 450.03,-29.51"/>
</a>
</g>
</g>
<!-- Node6&#45;&gt;Node6 -->
<g id="edge6_Node000006_Node000006" class="edge">
<title>Node6&#45;&gt;Node6</title>
<g id="a_edge6_Node000006_Node000006"><a xlink:title=" ">
<path fill="none" stroke="#63b8ff" d="M490.59,-32.44C485.68,-41.58 494.44,-50 516.88,-50 529.14,-50 537.32,-47.48 541.41,-43.71"/>
<polygon fill="#63b8ff" stroke="#63b8ff" points="544.85,-44.36 542.93,-33.94 537.94,-43.28 544.85,-44.36"/>
</a>
</g>
</g>
</g>
</svg>
