<?xml version="1.0" encoding="UTF-8" standalone="no"?>
<!DOCTYPE svg PUBLIC "-//W3C//DTD SVG 1.1//EN"
 "http://www.w3.org/Graphics/SVG/1.1/DTD/svg11.dtd">
<!-- Generated by graphviz version 13.1.0 (20250701.0955)
 -->
<!-- Title: Fiea::Engine::List::size Pages: 1 -->
<svg width="262pt" height="226pt"
 viewBox="0.00 0.00 262.00 226.00" xmlns="http://www.w3.org/2000/svg" xmlns:xlink="http://www.w3.org/1999/xlink">
<g id="graph0" class="graph" transform="scale(1 1) rotate(0) translate(4 222)">
<title>Fiea::Engine::List::size</title>
<!-- Node1 -->
<g id="Node000001" class="node">
<title>Node1</title>
<g id="a_Node000001"><a xlink:title="Gets the number of elements in the list.">
<polygon fill="#999999" stroke="#666666" points="254,-131 161.5,-131 161.5,-99 254,-99 254,-131"/>
<text xml:space="preserve" text-anchor="start" x="169.5" y="-117.5" font-family="Helvetica,sans-Serif" font-size="10.00">Fiea::Engine::List</text>
<text xml:space="preserve" text-anchor="middle" x="207.75" y="-105.5" font-family="Helvetica,sans-Serif" font-size="10.00">::size</text>
</a>
</g>
</g>
<!-- Node2 -->
<g id="Node000002" class="node">
<title>Node2</title>
<g id="a_Node000002"><a xlink:href="namespace_fiea_1_1_engine_1_1_tests.html#ac63be5690bc560610e9dba936e1a1049" target="_top" xlink:title=" ">
<polygon fill="white" stroke="#666666" points="113.12,-218 12.38,-218 12.38,-186 113.12,-186 113.12,-218"/>
<text xml:space="preserve" text-anchor="start" x="20.38" y="-204.5" font-family="Helvetica,sans-Serif" font-size="10.00">Fiea::Engine::Tests</text>
<text xml:space="preserve" text-anchor="middle" x="62.75" y="-192.5" font-family="Helvetica,sans-Serif" font-size="10.00">::TEST_CLASS</text>
</a>
</g>
</g>
<!-- Node1&#45;&gt;Node2 -->
<g id="edge1_Node000001_Node000002" class="edge">
<title>Node1&#45;&gt;Node2</title>
<g id="a_edge1_Node000001_Node000002"><a xlink:title=" ">
<path fill="none" stroke="#63b8ff" d="M179.98,-138.34C164.71,-150.88 144.83,-165.98 125.5,-177 120.07,-180.09 114.19,-182.99 108.28,-185.65"/>
<polygon fill="#63b8ff" stroke="#63b8ff" points="181.8,-141.38 187.23,-132.28 177.31,-136.01 181.8,-141.38"/>
</a>
</g>
</g>
<!-- Node3 -->
<g id="Node000003" class="node">
<title>Node3</title>
<g id="a_Node000003"><a xlink:href="namespace_microsoft_1_1_visual_studio_1_1_cpp_unit_test_framework.html#a11e3cac06583c6c83c3e65df30e23324" target="_top" xlink:title=" ">
<polygon fill="white" stroke="#666666" points="125.5,-168 0,-168 0,-124 125.5,-124 125.5,-168"/>
<text xml:space="preserve" text-anchor="start" x="8" y="-154.5" font-family="Helvetica,sans-Serif" font-size="10.00">Microsoft::VisualStudio</text>
<text xml:space="preserve" text-anchor="start" x="8" y="-142.5" font-family="Helvetica,sans-Serif" font-size="10.00">::CppUnitTestFramework</text>
<text xml:space="preserve" text-anchor="middle" x="62.75" y="-130.5" font-family="Helvetica,sans-Serif" font-size="10.00">::ToString&lt; StringList &gt;</text>
</a>
</g>
</g>
<!-- Node1&#45;&gt;Node3 -->
<g id="edge2_Node000001_Node000003" class="edge">
<title>Node1&#45;&gt;Node3</title>
<g id="a_edge2_Node000001_Node000003"><a xlink:title=" ">
<path fill="none" stroke="#63b8ff" d="M150.09,-127.28C142.15,-129 133.95,-130.78 125.91,-132.53"/>
<polygon fill="#63b8ff" stroke="#63b8ff" points="150.6,-130.75 159.63,-125.21 149.12,-123.91 150.6,-130.75"/>
</a>
</g>
</g>
<!-- Node4 -->
<g id="Node000004" class="node">
<title>Node4</title>
<g id="a_Node000004"><a xlink:href="namespace_microsoft_1_1_visual_studio_1_1_cpp_unit_test_framework.html#afb1567f04ba489fa0e48d7bfebd29600" target="_top" xlink:title=" ">
<polygon fill="white" stroke="#666666" points="125.5,-106 0,-106 0,-62 125.5,-62 125.5,-106"/>
<text xml:space="preserve" text-anchor="start" x="8" y="-92.5" font-family="Helvetica,sans-Serif" font-size="10.00">Microsoft::VisualStudio</text>
<text xml:space="preserve" text-anchor="start" x="8" y="-80.5" font-family="Helvetica,sans-Serif" font-size="10.00">::CppUnitTestFramework</text>
<text xml:space="preserve" text-anchor="middle" x="62.75" y="-68.5" font-family="Helvetica,sans-Serif" font-size="10.00">::ToString&lt; StringList &gt;</text>
</a>
</g>
</g>
<!-- Node1&#45;&gt;Node4 -->
<g id="edge3_Node000001_Node000004" class="edge">
<title>Node1&#45;&gt;Node4</title>
<g id="a_edge3_Node000001_Node000004"><a xlink:title=" ">
<path fill="none" stroke="#63b8ff" d="M150.09,-102.72C142.15,-101 133.95,-99.22 125.91,-97.47"/>
<polygon fill="#63b8ff" stroke="#63b8ff" points="149.12,-106.09 159.63,-104.79 150.6,-99.25 149.12,-106.09"/>
</a>
</g>
</g>
<!-- Node5 -->
<g id="Node000005" class="node">
<title>Node5</title>
<g id="a_Node000005"><a xlink:href="namespace_microsoft_1_1_visual_studio_1_1_cpp_unit_test_framework.html#aabd6721f465a928b5948868f4dbbbef5" target="_top" xlink:title=" ">
<polygon fill="white" stroke="#666666" points="125.5,-44 0,-44 0,0 125.5,0 125.5,-44"/>
<text xml:space="preserve" text-anchor="start" x="8" y="-30.5" font-family="Helvetica,sans-Serif" font-size="10.00">Microsoft::VisualStudio</text>
<text xml:space="preserve" text-anchor="start" x="8" y="-18.5" font-family="Helvetica,sans-Serif" font-size="10.00">::CppUnitTestFramework</text>
<text xml:space="preserve" text-anchor="middle" x="62.75" y="-6.5" font-family="Helvetica,sans-Serif" font-size="10.00">::ToString&lt; StringList &gt;</text>
</a>
</g>
</g>
<!-- Node1&#45;&gt;Node5 -->
<g id="edge4_Node000001_Node000005" class="edge">
<title>Node1&#45;&gt;Node5</title>
<g id="a_edge4_Node000001_Node000005"><a xlink:title=" ">
<path fill="none" stroke="#63b8ff" d="M178.57,-91.42C163.35,-79.23 143.94,-64.52 125.5,-53 120.82,-50.08 115.83,-47.2 110.79,-44.45"/>
<polygon fill="#63b8ff" stroke="#63b8ff" points="176.32,-94.1 186.28,-97.68 180.73,-88.66 176.32,-94.1"/>
</a>
</g>
</g>
</g>
</svg>
