<?xml version="1.0" encoding="UTF-8" standalone="no"?>
<!DOCTYPE svg PUBLIC "-//W3C//DTD SVG 1.1//EN"
 "http://www.w3.org/Graphics/SVG/1.1/DTD/svg11.dtd">
<!-- Generated by graphviz version 13.1.0 (20250701.0955)
 -->
<!-- Title: Fiea::Engine::Content::ActionHandler::ExitKey Pages: 1 -->
<svg width="463pt" height="100pt"
 viewBox="0.00 0.00 463.00 100.00" xmlns="http://www.w3.org/2000/svg" xmlns:xlink="http://www.w3.org/1999/xlink">
<g id="graph0" class="graph" transform="scale(1 1) rotate(0) translate(4 96)">
<title>Fiea::Engine::Content::ActionHandler::ExitKey</title>
<!-- Node1 -->
<g id="Node000001" class="node">
<title>Node1</title>
<g id="a_Node000001"><a xlink:title=" ">
<polygon fill="#999999" stroke="#666666" points="124,-54 0,-54 0,-22 124,-22 124,-54"/>
<text xml:space="preserve" text-anchor="start" x="8" y="-40.5" font-family="Helvetica,sans-Serif" font-size="10.00">Fiea::Engine::Content</text>
<text xml:space="preserve" text-anchor="middle" x="62" y="-28.5" font-family="Helvetica,sans-Serif" font-size="10.00">::ActionHandler::ExitKey</text>
</a>
</g>
</g>
<!-- Node2 -->
<g id="Node000002" class="node">
<title>Node2</title>
<g id="a_Node000002"><a xlink:href="class_fiea_1_1_engine_1_1_r_t_t_i.html#a15bd5993c8ad04da47af440298ebbb30" target="_top" xlink:title=" ">
<polygon fill="white" stroke="#666666" points="291.5,-70 175,-70 175,-50 291.5,-50 291.5,-70"/>
<text xml:space="preserve" text-anchor="middle" x="233.25" y="-56.5" font-family="Helvetica,sans-Serif" font-size="10.00">Fiea::Engine::RTTI::As</text>
</a>
</g>
</g>
<!-- Node1&#45;&gt;Node2 -->
<g id="edge1_Node000001_Node000002" class="edge">
<title>Node1&#45;&gt;Node2</title>
<g id="a_edge1_Node000001_Node000002"><a xlink:title=" ">
<path fill="none" stroke="#63b8ff" d="M124.1,-45.94C136.85,-47.6 150.36,-49.36 163.36,-51.05"/>
<polygon fill="#63b8ff" stroke="#63b8ff" points="162.76,-54.5 173.12,-52.31 163.66,-47.55 162.76,-54.5"/>
</a>
</g>
</g>
<!-- Node5 -->
<g id="Node000005" class="node">
<title>Node5</title>
<g id="a_Node000005"><a xlink:href="class_fiea_1_1_engine_1_1_content_1_1_scope_writer.html#a1b77c29e0778185d215c657d4ce8db9c" target="_top" xlink:title=" ">
<polygon fill="white" stroke="#666666" points="306.5,-32 160,-32 160,0 306.5,0 306.5,-32"/>
<text xml:space="preserve" text-anchor="start" x="168" y="-18.5" font-family="Helvetica,sans-Serif" font-size="10.00">Fiea::Engine::Content</text>
<text xml:space="preserve" text-anchor="middle" x="233.25" y="-6.5" font-family="Helvetica,sans-Serif" font-size="10.00">::ScopeWriter::RemoveObject</text>
</a>
</g>
</g>
<!-- Node1&#45;&gt;Node5 -->
<g id="edge4_Node000001_Node000005" class="edge">
<title>Node1&#45;&gt;Node5</title>
<g id="a_edge4_Node000001_Node000005"><a xlink:title=" ">
<path fill="none" stroke="#63b8ff" d="M124.1,-30.06C132.04,-29.03 140.29,-27.95 148.52,-26.88"/>
<polygon fill="#63b8ff" stroke="#63b8ff" points="148.74,-30.38 158.2,-25.62 147.84,-23.44 148.74,-30.38"/>
</a>
</g>
</g>
<!-- Node3 -->
<g id="Node000003" class="node">
<title>Node3</title>
<g id="a_Node000003"><a xlink:href="class_fiea_1_1_engine_1_1_r_t_t_i.html#ac0a7d875e4513b2aca7594abcd4418ef" target="_top" xlink:title=" ">
<polygon fill="white" stroke="#666666" points="455.25,-92 342.5,-92 342.5,-72 455.25,-72 455.25,-92"/>
<text xml:space="preserve" text-anchor="middle" x="398.88" y="-78.5" font-family="Helvetica,sans-Serif" font-size="10.00">Fiea::Engine::RTTI::Is</text>
</a>
</g>
</g>
<!-- Node2&#45;&gt;Node3 -->
<g id="edge2_Node000002_Node000003" class="edge">
<title>Node2&#45;&gt;Node3</title>
<g id="a_edge2_Node000002_Node000003"><a xlink:title=" ">
<path fill="none" stroke="#63b8ff" d="M291.94,-67.76C304.53,-69.45 317.97,-71.26 330.89,-72.99"/>
<polygon fill="#63b8ff" stroke="#63b8ff" points="330.2,-76.43 340.58,-74.3 331.14,-69.5 330.2,-76.43"/>
</a>
</g>
</g>
<!-- Node4 -->
<g id="Node000004" class="node">
<title>Node4</title>
<g id="a_Node000004"><a xlink:href="class_fiea_1_1_engine_1_1_r_t_t_i.html#a13000029a2e6cced30b831e466e07cae" target="_top" xlink:title=" ">
<polygon fill="white" stroke="#666666" points="448.12,-54 349.62,-54 349.62,-22 448.12,-22 448.12,-54"/>
<text xml:space="preserve" text-anchor="start" x="357.62" y="-40.5" font-family="Helvetica,sans-Serif" font-size="10.00">Fiea::Engine::RTTI</text>
<text xml:space="preserve" text-anchor="middle" x="398.88" y="-28.5" font-family="Helvetica,sans-Serif" font-size="10.00">::RTTI</text>
</a>
</g>
</g>
<!-- Node2&#45;&gt;Node4 -->
<g id="edge3_Node000002_Node000004" class="edge">
<title>Node2&#45;&gt;Node4</title>
<g id="a_edge3_Node000002_Node000004"><a xlink:title=" ">
<path fill="none" stroke="#63b8ff" d="M291.94,-52.24C306.9,-50.23 323.03,-48.06 338.1,-46.04"/>
<polygon fill="#63b8ff" stroke="#63b8ff" points="338.42,-49.53 347.87,-44.72 337.49,-42.59 338.42,-49.53"/>
</a>
</g>
</g>
</g>
</svg>
