<?xml version="1.0" encoding="UTF-8" standalone="no"?>
<!DOCTYPE svg PUBLIC "-//W3C//DTD SVG 1.1//EN"
 "http://www.w3.org/Graphics/SVG/1.1/DTD/svg11.dtd">
<!-- Generated by graphviz version 13.1.0 (20250701.0955)
 -->
<!-- Title: Fiea::Engine::Actions::ActionPreamble::ActionPreamble Pages: 1 -->
<svg width="376pt" height="190pt"
 viewBox="0.00 0.00 376.00 190.00" xmlns="http://www.w3.org/2000/svg" xmlns:xlink="http://www.w3.org/1999/xlink">
<g id="graph0" class="graph" transform="scale(1 1) rotate(0) translate(4 186)">
<title>Fiea::Engine::Actions::ActionPreamble::ActionPreamble</title>
<!-- Node1 -->
<g id="Node000001" class="node">
<title>Node1</title>
<g id="a_Node000001"><a xlink:title=" ">
<polygon fill="#999999" stroke="#666666" points="368,-107 202,-107 202,-75 368,-75 368,-107"/>
<text xml:space="preserve" text-anchor="start" x="210" y="-93.5" font-family="Helvetica,sans-Serif" font-size="10.00">Fiea::Engine::Actions</text>
<text xml:space="preserve" text-anchor="middle" x="285" y="-81.5" font-family="Helvetica,sans-Serif" font-size="10.00">::ActionPreamble::ActionPreamble</text>
</a>
</g>
</g>
<!-- Node2 -->
<g id="Node000002" class="node">
<title>Node2</title>
<g id="a_Node000002"><a xlink:href="class_fiea_1_1_engine_1_1_actions_1_1_action_preamble.html#ab7e36cdfb69d2036dd7fed7864741fc1" target="_top" xlink:title=" ">
<polygon fill="white" stroke="#666666" points="166,-182 0,-182 0,-150 166,-150 166,-182"/>
<text xml:space="preserve" text-anchor="start" x="8" y="-168.5" font-family="Helvetica,sans-Serif" font-size="10.00">Fiea::Engine::Actions</text>
<text xml:space="preserve" text-anchor="middle" x="83" y="-156.5" font-family="Helvetica,sans-Serif" font-size="10.00">::ActionPreamble::ActionPreamble</text>
</a>
</g>
</g>
<!-- Node1&#45;&gt;Node2 -->
<g id="edge1_Node000001_Node000002" class="edge">
<title>Node1&#45;&gt;Node2</title>
<g id="a_edge1_Node000001_Node000002"><a xlink:title=" ">
<path fill="none" stroke="#63b8ff" d="M237.48,-112.04C215.94,-121.44 189.88,-132.33 166,-141 157.89,-143.95 149.24,-146.84 140.72,-149.56"/>
<polygon fill="#63b8ff" stroke="#63b8ff" points="238.85,-115.26 246.59,-108.03 236.03,-108.86 238.85,-115.26"/>
</a>
</g>
</g>
<!-- Node3 -->
<g id="Node000003" class="node">
<title>Node3</title>
<g id="a_Node000003"><a xlink:href="class_fiea_1_1_engine_1_1_actions_1_1_action_preamble.html#ab200af1424ff03a2299ef652ddc20942" target="_top" xlink:title=" ">
<polygon fill="white" stroke="#666666" points="166,-132 0,-132 0,-100 166,-100 166,-132"/>
<text xml:space="preserve" text-anchor="start" x="8" y="-118.5" font-family="Helvetica,sans-Serif" font-size="10.00">Fiea::Engine::Actions</text>
<text xml:space="preserve" text-anchor="middle" x="83" y="-106.5" font-family="Helvetica,sans-Serif" font-size="10.00">::ActionPreamble::ActionPreamble</text>
</a>
</g>
</g>
<!-- Node1&#45;&gt;Node3 -->
<g id="edge2_Node000001_Node000003" class="edge">
<title>Node1&#45;&gt;Node3</title>
<g id="a_edge2_Node000001_Node000003"><a xlink:title=" ">
<path fill="none" stroke="#63b8ff" d="M190.42,-102.7C182.34,-103.71 174.2,-104.73 166.22,-105.72"/>
<polygon fill="#63b8ff" stroke="#63b8ff" points="190.8,-106.18 200.28,-101.46 189.93,-99.23 190.8,-106.18"/>
</a>
</g>
</g>
<!-- Node4 -->
<g id="Node000004" class="node">
<title>Node4</title>
<g id="a_Node000004"><a xlink:href="class_fiea_1_1_engine_1_1_actions_1_1_action_preamble.html#ab04e4e81afb5e191ade74066511f6344" target="_top" xlink:title=" ">
<polygon fill="white" stroke="#666666" points="152.12,-82 13.88,-82 13.88,-50 152.12,-50 152.12,-82"/>
<text xml:space="preserve" text-anchor="start" x="21.88" y="-68.5" font-family="Helvetica,sans-Serif" font-size="10.00">Fiea::Engine::Actions</text>
<text xml:space="preserve" text-anchor="middle" x="83" y="-56.5" font-family="Helvetica,sans-Serif" font-size="10.00">::ActionPreamble::operator=</text>
</a>
</g>
</g>
<!-- Node1&#45;&gt;Node4 -->
<g id="edge3_Node000001_Node000004" class="edge">
<title>Node1&#45;&gt;Node4</title>
<g id="a_edge3_Node000001_Node000004"><a xlink:title=" ">
<path fill="none" stroke="#63b8ff" d="M190.58,-79.32C177.75,-77.72 164.78,-76.1 152.52,-74.56"/>
<polygon fill="#63b8ff" stroke="#63b8ff" points="189.93,-82.77 200.28,-80.54 190.8,-75.82 189.93,-82.77"/>
</a>
</g>
</g>
<!-- Node5 -->
<g id="Node000005" class="node">
<title>Node5</title>
<g id="a_Node000005"><a xlink:href="class_fiea_1_1_engine_1_1_actions_1_1_action_preamble.html#a51c0b178009daad43501e0f821d539e5" target="_top" xlink:title=" ">
<polygon fill="white" stroke="#666666" points="152.12,-32 13.88,-32 13.88,0 152.12,0 152.12,-32"/>
<text xml:space="preserve" text-anchor="start" x="21.88" y="-18.5" font-family="Helvetica,sans-Serif" font-size="10.00">Fiea::Engine::Actions</text>
<text xml:space="preserve" text-anchor="middle" x="83" y="-6.5" font-family="Helvetica,sans-Serif" font-size="10.00">::ActionPreamble::operator=</text>
</a>
</g>
</g>
<!-- Node1&#45;&gt;Node5 -->
<g id="edge4_Node000001_Node000005" class="edge">
<title>Node1&#45;&gt;Node5</title>
<g id="a_edge4_Node000001_Node000005"><a xlink:title=" ">
<path fill="none" stroke="#63b8ff" d="M237.48,-69.96C215.94,-60.56 189.88,-49.67 166,-41 157.89,-38.05 149.24,-35.16 140.72,-32.44"/>
<polygon fill="#63b8ff" stroke="#63b8ff" points="236.03,-73.14 246.59,-73.97 238.85,-66.74 236.03,-73.14"/>
</a>
</g>
</g>
</g>
</svg>
