<?xml version="1.0" encoding="UTF-8" standalone="no"?>
<!DOCTYPE svg PUBLIC "-//W3C//DTD SVG 1.1//EN"
 "http://www.w3.org/Graphics/SVG/1.1/DTD/svg11.dtd">
<!-- Generated by graphviz version 13.1.0 (20250701.0955)
 -->
<!-- Title: Fiea::Engine::Actions::ActionCondition::InitAction Pages: 1 -->
<svg width="588pt" height="212pt"
 viewBox="0.00 0.00 588.00 212.00" xmlns="http://www.w3.org/2000/svg" xmlns:xlink="http://www.w3.org/1999/xlink">
<g id="graph0" class="graph" transform="scale(1 1) rotate(0) translate(4 208)">
<title>Fiea::Engine::Actions::ActionCondition::InitAction</title>
<!-- Node1 -->
<g id="Node000001" class="node">
<title>Node1</title>
<g id="a_Node000001"><a xlink:title=" ">
<polygon fill="#999999" stroke="#666666" points="138.25,-129 0,-129 0,-97 138.25,-97 138.25,-129"/>
<text xml:space="preserve" text-anchor="start" x="8" y="-115.5" font-family="Helvetica,sans-Serif" font-size="10.00">Fiea::Engine::Actions</text>
<text xml:space="preserve" text-anchor="middle" x="69.12" y="-103.5" font-family="Helvetica,sans-Serif" font-size="10.00">::ActionCondition::InitAction</text>
</a>
</g>
</g>
<!-- Node2 -->
<g id="Node000002" class="node">
<title>Node2</title>
<g id="a_Node000002"><a xlink:href="class_fiea_1_1_engine_1_1_content_1_1_datum.html#afe5c48ad15802ef84b150d79ed476898" target="_top" xlink:title=" ">
<polygon fill="white" stroke="#666666" points="285.5,-204 174.25,-204 174.25,-172 285.5,-172 285.5,-204"/>
<text xml:space="preserve" text-anchor="start" x="182.25" y="-190.5" font-family="Helvetica,sans-Serif" font-size="10.00">Fiea::Engine::Content</text>
<text xml:space="preserve" text-anchor="middle" x="229.88" y="-178.5" font-family="Helvetica,sans-Serif" font-size="10.00">::Datum::GetAsFloat</text>
</a>
</g>
</g>
<!-- Node1&#45;&gt;Node2 -->
<g id="edge1_Node000001_Node000002" class="edge">
<title>Node1&#45;&gt;Node2</title>
<g id="a_edge1_Node000001_Node000002"><a xlink:title=" ">
<path fill="none" stroke="#63b8ff" d="M103.81,-129.37C124.16,-139.21 150.65,-151.93 174.25,-163 176.95,-164.26 179.72,-165.56 182.52,-166.86"/>
<polygon fill="#63b8ff" stroke="#63b8ff" points="180.77,-169.9 191.32,-170.92 183.71,-163.55 180.77,-169.9"/>
</a>
</g>
</g>
<!-- Node3 -->
<g id="Node000003" class="node">
<title>Node3</title>
<g id="a_Node000003"><a xlink:href="class_fiea_1_1_engine_1_1_content_1_1_datum.html#a695ee2c8a3941869b96581c81f416d1b" target="_top" xlink:title=" ">
<polygon fill="white" stroke="#666666" points="285.5,-154 174.25,-154 174.25,-122 285.5,-122 285.5,-154"/>
<text xml:space="preserve" text-anchor="start" x="182.25" y="-140.5" font-family="Helvetica,sans-Serif" font-size="10.00">Fiea::Engine::Content</text>
<text xml:space="preserve" text-anchor="middle" x="229.88" y="-128.5" font-family="Helvetica,sans-Serif" font-size="10.00">::Datum::GetAsInt</text>
</a>
</g>
</g>
<!-- Node1&#45;&gt;Node3 -->
<g id="edge2_Node000001_Node000003" class="edge">
<title>Node1&#45;&gt;Node3</title>
<g id="a_edge2_Node000001_Node000003"><a xlink:title=" ">
<path fill="none" stroke="#63b8ff" d="M138.37,-123.75C146.48,-125.02 154.75,-126.33 162.83,-127.6"/>
<polygon fill="#63b8ff" stroke="#63b8ff" points="162.17,-131.04 172.59,-129.14 163.26,-124.12 162.17,-131.04"/>
</a>
</g>
</g>
<!-- Node4 -->
<g id="Node000004" class="node">
<title>Node4</title>
<g id="a_Node000004"><a xlink:href="class_fiea_1_1_engine_1_1_content_1_1_datum.html#a6e9dfba6e16fddc4efc39b8182dad89f" target="_top" xlink:title=" ">
<polygon fill="white" stroke="#666666" points="285.5,-104 174.25,-104 174.25,-72 285.5,-72 285.5,-104"/>
<text xml:space="preserve" text-anchor="start" x="182.25" y="-90.5" font-family="Helvetica,sans-Serif" font-size="10.00">Fiea::Engine::Content</text>
<text xml:space="preserve" text-anchor="middle" x="229.88" y="-78.5" font-family="Helvetica,sans-Serif" font-size="10.00">::Datum::IsType</text>
</a>
</g>
</g>
<!-- Node1&#45;&gt;Node4 -->
<g id="edge3_Node000001_Node000004" class="edge">
<title>Node1&#45;&gt;Node4</title>
<g id="a_edge3_Node000001_Node000004"><a xlink:title=" ">
<path fill="none" stroke="#63b8ff" d="M138.37,-102.25C146.48,-100.98 154.75,-99.67 162.83,-98.4"/>
<polygon fill="#63b8ff" stroke="#63b8ff" points="163.26,-101.88 172.59,-96.86 162.17,-94.96 163.26,-101.88"/>
</a>
</g>
</g>
<!-- Node5 -->
<g id="Node000005" class="node">
<title>Node5</title>
<g id="a_Node000005"><a xlink:href="class_fiea_1_1_engine_1_1_content_1_1_scope.html#ae21ea7cc60b24915a0aac3b0d0f6005c" target="_top" xlink:title=" ">
<polygon fill="white" stroke="#666666" points="285.5,-54 174.25,-54 174.25,-22 285.5,-22 285.5,-54"/>
<text xml:space="preserve" text-anchor="start" x="182.25" y="-40.5" font-family="Helvetica,sans-Serif" font-size="10.00">Fiea::Engine::Content</text>
<text xml:space="preserve" text-anchor="middle" x="229.88" y="-28.5" font-family="Helvetica,sans-Serif" font-size="10.00">::Scope::Search</text>
</a>
</g>
</g>
<!-- Node1&#45;&gt;Node5 -->
<g id="edge4_Node000001_Node000005" class="edge">
<title>Node1&#45;&gt;Node5</title>
<g id="a_edge4_Node000001_Node000005"><a xlink:title=" ">
<path fill="none" stroke="#63b8ff" d="M103.81,-96.63C124.16,-86.79 150.65,-74.07 174.25,-63 176.95,-61.74 179.72,-60.44 182.52,-59.14"/>
<polygon fill="#63b8ff" stroke="#63b8ff" points="183.71,-62.45 191.32,-55.08 180.77,-56.1 183.71,-62.45"/>
</a>
</g>
</g>
<!-- Node6 -->
<g id="Node000006" class="node">
<title>Node6</title>
<g id="a_Node000006"><a xlink:href="class_fiea_1_1_engine_1_1_content_1_1_scope.html#ad924c01785b239991fc0e56a63295612" target="_top" xlink:title="Finds a Datum by key.">
<polygon fill="white" stroke="#666666" points="432.75,-104 321.5,-104 321.5,-72 432.75,-72 432.75,-104"/>
<text xml:space="preserve" text-anchor="start" x="329.5" y="-90.5" font-family="Helvetica,sans-Serif" font-size="10.00">Fiea::Engine::Content</text>
<text xml:space="preserve" text-anchor="middle" x="377.12" y="-78.5" font-family="Helvetica,sans-Serif" font-size="10.00">::Scope::Find</text>
</a>
</g>
</g>
<!-- Node5&#45;&gt;Node6 -->
<g id="edge5_Node000005_Node000006" class="edge">
<title>Node5&#45;&gt;Node6</title>
<g id="a_edge5_Node000005_Node000006"><a xlink:title=" ">
<path fill="none" stroke="#63b8ff" d="M278.44,-54.37C290.98,-58.69 304.65,-63.4 317.69,-67.89"/>
<polygon fill="#63b8ff" stroke="#63b8ff" points="316.43,-71.15 327.03,-71.1 318.71,-64.53 316.43,-71.15"/>
</a>
</g>
</g>
<!-- Node7 -->
<g id="Node000007" class="node">
<title>Node7</title>
<g id="a_Node000007"><a xlink:href="class_fiea_1_1_engine_1_1_content_1_1_scope.html#ac4627f740867a929957ce0647f436e02" target="_top" xlink:title=" ">
<polygon fill="white" stroke="#666666" points="432.75,-54 321.5,-54 321.5,-22 432.75,-22 432.75,-54"/>
<text xml:space="preserve" text-anchor="start" x="329.5" y="-40.5" font-family="Helvetica,sans-Serif" font-size="10.00">Fiea::Engine::Content</text>
<text xml:space="preserve" text-anchor="middle" x="377.12" y="-28.5" font-family="Helvetica,sans-Serif" font-size="10.00">::Scope::GetParent</text>
</a>
</g>
</g>
<!-- Node5&#45;&gt;Node7 -->
<g id="edge6_Node000005_Node000007" class="edge">
<title>Node5&#45;&gt;Node7</title>
<g id="a_edge6_Node000005_Node000007"><a xlink:title=" ">
<path fill="none" stroke="#63b8ff" d="M285.79,-38C293.65,-38 301.81,-38 309.86,-38"/>
<polygon fill="#63b8ff" stroke="#63b8ff" points="309.62,-41.5 319.62,-38 309.62,-34.5 309.62,-41.5"/>
</a>
</g>
</g>
<!-- Node8 -->
<g id="Node000008" class="node">
<title>Node8</title>
<g id="a_Node000008"><a xlink:href="class_fiea_1_1_engine_1_1_content_1_1_scope.html#a6631343c968c233ab1d9c3e05c3f4fe9" target="_top" xlink:title=" ">
<polygon fill="white" stroke="#666666" points="580,-32 468.75,-32 468.75,0 580,0 580,-32"/>
<text xml:space="preserve" text-anchor="start" x="476.75" y="-18.5" font-family="Helvetica,sans-Serif" font-size="10.00">Fiea::Engine::Content</text>
<text xml:space="preserve" text-anchor="middle" x="524.38" y="-6.5" font-family="Helvetica,sans-Serif" font-size="10.00">::Scope::Scope</text>
</a>
</g>
</g>
<!-- Node5&#45;&gt;Node8 -->
<g id="edge9_Node000005_Node000008" class="edge">
<title>Node5&#45;&gt;Node8</title>
<g id="a_edge9_Node000005_Node000008"><a xlink:title=" ">
<path fill="none" stroke="#63b8ff" d="M281.18,-21.54C294.17,-18.01 308.24,-14.8 321.5,-13 366.39,-6.92 417.41,-7.75 456.93,-10.05"/>
<polygon fill="#63b8ff" stroke="#63b8ff" points="456.56,-13.53 466.76,-10.68 457.01,-6.55 456.56,-13.53"/>
</a>
</g>
</g>
<!-- Node7&#45;&gt;Node8 -->
<g id="edge7_Node000007_Node000008" class="edge">
<title>Node7&#45;&gt;Node8</title>
<g id="a_edge7_Node000007_Node000008"><a xlink:title=" ">
<path fill="none" stroke="#63b8ff" d="M433.04,-29.68C440.9,-28.49 449.06,-27.26 457.11,-26.04"/>
<polygon fill="#63b8ff" stroke="#63b8ff" points="457.53,-29.51 466.89,-24.56 456.48,-22.59 457.53,-29.51"/>
</a>
</g>
</g>
<!-- Node8&#45;&gt;Node8 -->
<g id="edge8_Node000008_Node000008" class="edge">
<title>Node8&#45;&gt;Node8</title>
<g id="a_edge8_Node000008_Node000008"><a xlink:title=" ">
<path fill="none" stroke="#63b8ff" d="M498.09,-32.44C493.18,-41.58 501.94,-50 524.38,-50 536.64,-50 544.82,-47.48 548.91,-43.71"/>
<polygon fill="#63b8ff" stroke="#63b8ff" points="552.35,-44.36 550.43,-33.94 545.44,-43.28 552.35,-44.36"/>
</a>
</g>
</g>
</g>
</svg>
