<?xml version="1.0" encoding="UTF-8" standalone="no"?>
<!DOCTYPE svg PUBLIC "-//W3C//DTD SVG 1.1//EN"
 "http://www.w3.org/Graphics/SVG/1.1/DTD/svg11.dtd">
<!-- Generated by graphviz version 13.1.0 (20250701.0955)
 -->
<!-- Title: Fiea::Engine::Content::Scope::Clear Pages: 1 -->
<svg width="581pt" height="240pt"
 viewBox="0.00 0.00 581.00 240.00" xmlns="http://www.w3.org/2000/svg" xmlns:xlink="http://www.w3.org/1999/xlink">
<g id="graph0" class="graph" transform="scale(1 1) rotate(0) translate(4 236)">
<title>Fiea::Engine::Content::Scope::Clear</title>
<!-- Node1 -->
<g id="Node000001" class="node">
<title>Node1</title>
<g id="a_Node000001"><a xlink:title="Clears all data in the Scope.">
<polygon fill="#999999" stroke="#666666" points="573.25,-107 462,-107 462,-75 573.25,-75 573.25,-107"/>
<text xml:space="preserve" text-anchor="start" x="470" y="-93.5" font-family="Helvetica,sans-Serif" font-size="10.00">Fiea::Engine::Content</text>
<text xml:space="preserve" text-anchor="middle" x="517.62" y="-81.5" font-family="Helvetica,sans-Serif" font-size="10.00">::Scope::Clear</text>
</a>
</g>
</g>
<!-- Node2 -->
<g id="Node000002" class="node">
<title>Node2</title>
<g id="a_Node000002"><a xlink:href="class_fiea_1_1_engine_1_1_content_1_1_scope.html#abb1ebfa662badfce689226c18a8bf02c" target="_top" xlink:title="Copy assignment operator.">
<polygon fill="white" stroke="#666666" points="426,-182 314.75,-182 314.75,-150 426,-150 426,-182"/>
<text xml:space="preserve" text-anchor="start" x="322.75" y="-168.5" font-family="Helvetica,sans-Serif" font-size="10.00">Fiea::Engine::Content</text>
<text xml:space="preserve" text-anchor="middle" x="370.38" y="-156.5" font-family="Helvetica,sans-Serif" font-size="10.00">::Scope::operator=</text>
</a>
</g>
</g>
<!-- Node1&#45;&gt;Node2 -->
<g id="edge1_Node000001_Node000002" class="edge">
<title>Node1&#45;&gt;Node2</title>
<g id="a_edge1_Node000001_Node000002"><a xlink:title=" ">
<path fill="none" stroke="#63b8ff" d="M478.74,-112.73C462.63,-121.76 443.54,-132.16 426,-141 420.32,-143.86 414.24,-146.78 408.28,-149.56"/>
<polygon fill="#63b8ff" stroke="#63b8ff" points="480.03,-116.02 487.03,-108.06 476.6,-109.92 480.03,-116.02"/>
</a>
</g>
</g>
<!-- Node9 -->
<g id="Node000009" class="node">
<title>Node9</title>
<g id="a_Node000009"><a xlink:href="class_fiea_1_1_engine_1_1_content_1_1_scope.html#af8a79b26cb0104b5def2814917edcdf2" target="_top" xlink:title="Move assignment operator.">
<polygon fill="white" stroke="#666666" points="426,-132 314.75,-132 314.75,-100 426,-100 426,-132"/>
<text xml:space="preserve" text-anchor="start" x="322.75" y="-118.5" font-family="Helvetica,sans-Serif" font-size="10.00">Fiea::Engine::Content</text>
<text xml:space="preserve" text-anchor="middle" x="370.38" y="-106.5" font-family="Helvetica,sans-Serif" font-size="10.00">::Scope::operator=</text>
</a>
</g>
</g>
<!-- Node1&#45;&gt;Node9 -->
<g id="edge8_Node000001_Node000009" class="edge">
<title>Node1&#45;&gt;Node9</title>
<g id="a_edge8_Node000001_Node000009"><a xlink:title=" ">
<path fill="none" stroke="#63b8ff" d="M450.44,-102.39C442.39,-103.78 434.23,-105.18 426.37,-106.54"/>
<polygon fill="#63b8ff" stroke="#63b8ff" points="450.96,-105.85 460.22,-100.71 449.77,-98.96 450.96,-105.85"/>
</a>
</g>
</g>
<!-- Node10 -->
<g id="Node000010" class="node">
<title>Node10</title>
<g id="a_Node000010"><a xlink:href="namespace_fiea_1_1_engine_1_1_tests.html#ad3e53e7e3f072321bc7199970c619c1d" target="_top" xlink:title=" ">
<polygon fill="white" stroke="#666666" points="420.75,-82 320,-82 320,-50 420.75,-50 420.75,-82"/>
<text xml:space="preserve" text-anchor="start" x="328" y="-68.5" font-family="Helvetica,sans-Serif" font-size="10.00">Fiea::Engine::Tests</text>
<text xml:space="preserve" text-anchor="middle" x="370.38" y="-56.5" font-family="Helvetica,sans-Serif" font-size="10.00">::TEST_CLASS</text>
</a>
</g>
</g>
<!-- Node1&#45;&gt;Node10 -->
<g id="edge9_Node000001_Node000010" class="edge">
<title>Node1&#45;&gt;Node10</title>
<g id="a_edge9_Node000001_Node000010"><a xlink:title=" ">
<path fill="none" stroke="#63b8ff" d="M450.62,-79.64C440.7,-77.93 430.62,-76.2 421.11,-74.56"/>
<polygon fill="#63b8ff" stroke="#63b8ff" points="449.77,-83.04 460.22,-81.29 450.96,-76.15 449.77,-83.04"/>
</a>
</g>
</g>
<!-- Node11 -->
<g id="Node000011" class="node">
<title>Node11</title>
<g id="a_Node000011"><a xlink:href="class_fiea_1_1_engine_1_1_content_1_1_scope.html#aa5eadd2f68d579fd4ba66f1d086be3e9" target="_top" xlink:title="Destructor. Clears the Scope.">
<polygon fill="white" stroke="#666666" points="426,-32 314.75,-32 314.75,0 426,0 426,-32"/>
<text xml:space="preserve" text-anchor="start" x="322.75" y="-18.5" font-family="Helvetica,sans-Serif" font-size="10.00">Fiea::Engine::Content</text>
<text xml:space="preserve" text-anchor="middle" x="370.38" y="-6.5" font-family="Helvetica,sans-Serif" font-size="10.00">::Scope::~Scope</text>
</a>
</g>
</g>
<!-- Node1&#45;&gt;Node11 -->
<g id="edge10_Node000001_Node000011" class="edge">
<title>Node1&#45;&gt;Node11</title>
<g id="a_edge10_Node000001_Node000011"><a xlink:title=" ">
<path fill="none" stroke="#63b8ff" d="M478.74,-69.27C462.63,-60.24 443.54,-49.84 426,-41 420.32,-38.14 414.24,-35.22 408.28,-32.44"/>
<polygon fill="#63b8ff" stroke="#63b8ff" points="476.6,-72.08 487.03,-73.94 480.03,-65.98 476.6,-72.08"/>
</a>
</g>
</g>
<!-- Node3 -->
<g id="Node000003" class="node">
<title>Node3</title>
<g id="a_Node000003"><a xlink:href="class_fiea_1_1_engine_1_1_content_1_1_attributed.html#a210ac6177723b6ef8dd257ae52268305" target="_top" xlink:title="Move assignment operator.">
<polygon fill="white" stroke="#666666" points="278.75,-207 167.5,-207 167.5,-175 278.75,-175 278.75,-207"/>
<text xml:space="preserve" text-anchor="start" x="175.5" y="-193.5" font-family="Helvetica,sans-Serif" font-size="10.00">Fiea::Engine::Content</text>
<text xml:space="preserve" text-anchor="middle" x="223.12" y="-181.5" font-family="Helvetica,sans-Serif" font-size="10.00">::Attributed::operator=</text>
</a>
</g>
</g>
<!-- Node2&#45;&gt;Node3 -->
<g id="edge2_Node000002_Node000003" class="edge">
<title>Node2&#45;&gt;Node3</title>
<g id="a_edge2_Node000002_Node000003"><a xlink:title=" ">
<path fill="none" stroke="#63b8ff" d="M303.19,-177.39C295.14,-178.78 286.98,-180.18 279.12,-181.54"/>
<polygon fill="#63b8ff" stroke="#63b8ff" points="303.71,-180.85 312.97,-175.71 302.52,-173.96 303.71,-180.85"/>
</a>
</g>
</g>
<!-- Node4 -->
<g id="Node000004" class="node">
<title>Node4</title>
<g id="a_Node000004"><a xlink:href="class_fiea_1_1_engine_1_1_content_1_1_attributed.html#ad00b7ac2fa53d92d617e235da1f83055" target="_top" xlink:title="Copy assignment operator.">
<polygon fill="white" stroke="#666666" points="278.75,-157 167.5,-157 167.5,-125 278.75,-125 278.75,-157"/>
<text xml:space="preserve" text-anchor="start" x="175.5" y="-143.5" font-family="Helvetica,sans-Serif" font-size="10.00">Fiea::Engine::Content</text>
<text xml:space="preserve" text-anchor="middle" x="223.12" y="-131.5" font-family="Helvetica,sans-Serif" font-size="10.00">::Attributed::operator=</text>
</a>
</g>
</g>
<!-- Node2&#45;&gt;Node4 -->
<g id="edge3_Node000002_Node000004" class="edge">
<title>Node2&#45;&gt;Node4</title>
<g id="a_edge3_Node000002_Node000004"><a xlink:title=" ">
<path fill="none" stroke="#63b8ff" d="M303.19,-154.61C295.14,-153.22 286.98,-151.82 279.12,-150.46"/>
<polygon fill="#63b8ff" stroke="#63b8ff" points="302.52,-158.04 312.97,-156.29 303.71,-151.15 302.52,-158.04"/>
</a>
</g>
</g>
<!-- Node5 -->
<g id="Node000005" class="node">
<title>Node5</title>
<g id="a_Node000005"><a xlink:href="class_fiea_1_1_engine_1_1_actions_1_1_action.html#ad7a0a26c4f04657e19ae73eb11cbdd14" target="_top" xlink:title=" ">
<polygon fill="white" stroke="#666666" points="120.62,-232 10.88,-232 10.88,-200 120.62,-200 120.62,-232"/>
<text xml:space="preserve" text-anchor="start" x="18.88" y="-218.5" font-family="Helvetica,sans-Serif" font-size="10.00">Fiea::Engine::Actions</text>
<text xml:space="preserve" text-anchor="middle" x="65.75" y="-206.5" font-family="Helvetica,sans-Serif" font-size="10.00">::Action::operator=</text>
</a>
</g>
</g>
<!-- Node4&#45;&gt;Node5 -->
<g id="edge4_Node000004_Node000005" class="edge">
<title>Node4&#45;&gt;Node5</title>
<g id="a_edge4_Node000004_Node000005"><a xlink:title=" ">
<path fill="none" stroke="#63b8ff" d="M173.71,-162.59C171.6,-163.71 169.52,-164.85 167.5,-166 150.58,-175.65 148.71,-181.87 131.5,-191 125.75,-194.05 119.55,-196.92 113.34,-199.56"/>
<polygon fill="#63b8ff" stroke="#63b8ff" points="175.09,-165.82 182.43,-158.18 171.93,-159.57 175.09,-165.82"/>
</a>
</g>
</g>
<!-- Node6 -->
<g id="Node000006" class="node">
<title>Node6</title>
<g id="a_Node000006"><a xlink:href="class_fiea_1_1_engine_1_1_actions_1_1_action.html#a213b522a45471ddf0f7540c927bb1c5d" target="_top" xlink:title=" ">
<polygon fill="white" stroke="#666666" points="120.62,-182 10.88,-182 10.88,-150 120.62,-150 120.62,-182"/>
<text xml:space="preserve" text-anchor="start" x="18.88" y="-168.5" font-family="Helvetica,sans-Serif" font-size="10.00">Fiea::Engine::Actions</text>
<text xml:space="preserve" text-anchor="middle" x="65.75" y="-156.5" font-family="Helvetica,sans-Serif" font-size="10.00">::Action::operator=</text>
</a>
</g>
</g>
<!-- Node4&#45;&gt;Node6 -->
<g id="edge5_Node000004_Node000006" class="edge">
<title>Node4&#45;&gt;Node6</title>
<g id="a_edge5_Node000004_Node000006"><a xlink:title=" ">
<path fill="none" stroke="#63b8ff" d="M156.24,-151.6C144.51,-153.49 132.4,-155.44 121.03,-157.27"/>
<polygon fill="#63b8ff" stroke="#63b8ff" points="156.53,-155.1 165.85,-150.05 155.42,-148.19 156.53,-155.1"/>
</a>
</g>
</g>
<!-- Node7 -->
<g id="Node000007" class="node">
<title>Node7</title>
<g id="a_Node000007"><a xlink:href="class_fiea_1_1_engine_1_1_game_object.html#a71dfc1fae65a0519cd631b680e40b1b9" target="_top" xlink:title=" ">
<polygon fill="white" stroke="#666666" points="131.5,-132 0,-132 0,-100 131.5,-100 131.5,-132"/>
<text xml:space="preserve" text-anchor="start" x="8" y="-118.5" font-family="Helvetica,sans-Serif" font-size="10.00">Fiea::Engine::GameObject</text>
<text xml:space="preserve" text-anchor="middle" x="65.75" y="-106.5" font-family="Helvetica,sans-Serif" font-size="10.00">::operator=</text>
</a>
</g>
</g>
<!-- Node4&#45;&gt;Node7 -->
<g id="edge6_Node000004_Node000007" class="edge">
<title>Node4&#45;&gt;Node7</title>
<g id="a_edge6_Node000004_Node000007"><a xlink:title=" ">
<path fill="none" stroke="#63b8ff" d="M156.16,-130.39C148.14,-129.1 139.95,-127.78 131.95,-126.49"/>
<polygon fill="#63b8ff" stroke="#63b8ff" points="155.42,-133.81 165.85,-131.95 156.53,-126.9 155.42,-133.81"/>
</a>
</g>
</g>
<!-- Node8 -->
<g id="Node000008" class="node">
<title>Node8</title>
<g id="a_Node000008"><a xlink:href="class_fiea_1_1_engine_1_1_game_object.html#aeba25685ae5ae7ca60c620e14b7efc10" target="_top" xlink:title=" ">
<polygon fill="white" stroke="#666666" points="131.5,-82 0,-82 0,-50 131.5,-50 131.5,-82"/>
<text xml:space="preserve" text-anchor="start" x="8" y="-68.5" font-family="Helvetica,sans-Serif" font-size="10.00">Fiea::Engine::GameObject</text>
<text xml:space="preserve" text-anchor="middle" x="65.75" y="-56.5" font-family="Helvetica,sans-Serif" font-size="10.00">::operator=</text>
</a>
</g>
</g>
<!-- Node4&#45;&gt;Node8 -->
<g id="edge7_Node000004_Node000008" class="edge">
<title>Node4&#45;&gt;Node8</title>
<g id="a_edge7_Node000004_Node000008"><a xlink:title=" ">
<path fill="none" stroke="#63b8ff" d="M185.22,-119.15C169.01,-109.94 149.57,-99.43 131.5,-91 125.17,-88.05 118.38,-85.15 111.67,-82.43"/>
<polygon fill="#63b8ff" stroke="#63b8ff" points="183.14,-121.99 193.55,-123.94 186.62,-115.92 183.14,-121.99"/>
</a>
</g>
</g>
</g>
</svg>
