<?xml version="1.0" encoding="UTF-8" standalone="no"?>
<!DOCTYPE svg PUBLIC "-//W3C//DTD SVG 1.1//EN"
 "http://www.w3.org/Graphics/SVG/1.1/DTD/svg11.dtd">
<!-- Generated by graphviz version 13.1.0 (20250701.0955)
 -->
<!-- Title: Fiea::Engine::Content::ActionHandler::EnterKey Pages: 1 -->
<svg width="1217pt" height="492pt"
 viewBox="0.00 0.00 1217.00 492.00" xmlns="http://www.w3.org/2000/svg" xmlns:xlink="http://www.w3.org/1999/xlink">
<g id="graph0" class="graph" transform="scale(1 1) rotate(0) translate(4 488)">
<title>Fiea::Engine::Content::ActionHandler::EnterKey</title>
<!-- Node1 -->
<g id="Node000001" class="node">
<title>Node1</title>
<g id="a_Node000001"><a xlink:title=" ">
<polygon fill="#999999" stroke="#666666" points="130,-136 0,-136 0,-104 130,-104 130,-136"/>
<text xml:space="preserve" text-anchor="start" x="8" y="-122.5" font-family="Helvetica,sans-Serif" font-size="10.00">Fiea::Engine::Content</text>
<text xml:space="preserve" text-anchor="middle" x="65" y="-110.5" font-family="Helvetica,sans-Serif" font-size="10.00">::ActionHandler::EnterKey</text>
</a>
</g>
</g>
<!-- Node2 -->
<g id="Node000002" class="node">
<title>Node2</title>
<g id="a_Node000002"><a xlink:href="class_fiea_1_1_engine_1_1_content_1_1_scope_writer.html#a0a79e65b8a84d1a7275153c32e4d499a" target="_top" xlink:title=" ">
<polygon fill="white" stroke="#666666" points="320.75,-158 166,-158 166,-126 320.75,-126 320.75,-158"/>
<text xml:space="preserve" text-anchor="start" x="174" y="-144.5" font-family="Helvetica,sans-Serif" font-size="10.00">Fiea::Engine::Content</text>
<text xml:space="preserve" text-anchor="middle" x="243.38" y="-132.5" font-family="Helvetica,sans-Serif" font-size="10.00">::ScopeWriter::AddActionObject</text>
</a>
</g>
</g>
<!-- Node1&#45;&gt;Node2 -->
<g id="edge1_Node000001_Node000002" class="edge">
<title>Node1&#45;&gt;Node2</title>
<g id="a_edge1_Node000001_Node000002"><a xlink:title=" ">
<path fill="none" stroke="#63b8ff" d="M130.17,-128C138.1,-128.99 146.3,-130.02 154.5,-131.04"/>
<polygon fill="#63b8ff" stroke="#63b8ff" points="153.79,-134.48 164.15,-132.24 154.66,-127.53 153.79,-134.48"/>
</a>
</g>
</g>
<!-- Node15 -->
<g id="Node000015" class="node">
<title>Node15</title>
<g id="a_Node000015"><a xlink:href="class_fiea_1_1_engine_1_1_r_t_t_i.html#a15bd5993c8ad04da47af440298ebbb30" target="_top" xlink:title=" ">
<polygon fill="white" stroke="#666666" points="898.62,-108 782.12,-108 782.12,-88 898.62,-88 898.62,-108"/>
<text xml:space="preserve" text-anchor="middle" x="840.38" y="-94.5" font-family="Helvetica,sans-Serif" font-size="10.00">Fiea::Engine::RTTI::As</text>
</a>
</g>
</g>
<!-- Node1&#45;&gt;Node15 -->
<g id="edge40_Node000001_Node000015" class="edge">
<title>Node1&#45;&gt;Node15</title>
<g id="a_edge40_Node000001_Node000015"><a xlink:title=" ">
<path fill="none" stroke="#63b8ff" d="M130.28,-118.05C142.16,-117.7 154.45,-117.34 166,-117 386.84,-110.57 648.42,-103.28 770.37,-99.91"/>
<polygon fill="#63b8ff" stroke="#63b8ff" points="770.31,-103.41 780.21,-99.63 770.12,-96.41 770.31,-103.41"/>
</a>
</g>
</g>
<!-- Node3 -->
<g id="Node000003" class="node">
<title>Node3</title>
<g id="a_Node000003"><a xlink:href="class_fiea_1_1_engine_1_1_game_object.html#a2d9e0734194c82c1f1d319e49c845c0f" target="_top" xlink:title=" ">
<polygon fill="white" stroke="#666666" points="723.62,-384 592.12,-384 592.12,-352 723.62,-352 723.62,-384"/>
<text xml:space="preserve" text-anchor="start" x="600.12" y="-370.5" font-family="Helvetica,sans-Serif" font-size="10.00">Fiea::Engine::GameObject</text>
<text xml:space="preserve" text-anchor="middle" x="657.88" y="-358.5" font-family="Helvetica,sans-Serif" font-size="10.00">::AddAction</text>
</a>
</g>
</g>
<!-- Node2&#45;&gt;Node3 -->
<g id="edge2_Node000002_Node000003" class="edge">
<title>Node2&#45;&gt;Node3</title>
<g id="a_edge2_Node000002_Node000003"><a xlink:title=" ">
<path fill="none" stroke="#63b8ff" d="M250.25,-158.3C263.48,-192.49 299.01,-271.67 356.75,-310 423.48,-354.3 515.86,-366.53 580.44,-369.1"/>
<polygon fill="#63b8ff" stroke="#63b8ff" points="580.14,-372.59 590.24,-369.41 580.36,-365.59 580.14,-372.59"/>
</a>
</g>
</g>
<!-- Node9 -->
<g id="Node000009" class="node">
<title>Node9</title>
<g id="a_Node000009"><a xlink:href="class_fiea_1_1_engine_1_1_content_1_1_scope_writer.html#aa73231d29c0a0b0bcfbb910e2f913404" target="_top" xlink:title=" ">
<polygon fill="white" stroke="#666666" points="523.5,-264 381.5,-264 381.5,-220 523.5,-220 523.5,-264"/>
<text xml:space="preserve" text-anchor="start" x="389.5" y="-250.5" font-family="Helvetica,sans-Serif" font-size="10.00">Fiea::Engine::Content</text>
<text xml:space="preserve" text-anchor="start" x="389.5" y="-238.5" font-family="Helvetica,sans-Serif" font-size="10.00">::ScopeWriter::AddActionList</text>
<text xml:space="preserve" text-anchor="middle" x="452.5" y="-226.5" font-family="Helvetica,sans-Serif" font-size="10.00">Object</text>
</a>
</g>
</g>
<!-- Node2&#45;&gt;Node9 -->
<g id="edge10_Node000002_Node000009" class="edge">
<title>Node2&#45;&gt;Node9</title>
<g id="a_edge10_Node000002_Node000009"><a xlink:title=" ">
<path fill="none" stroke="#63b8ff" d="M267.58,-158.49C289.7,-173.66 324.34,-196 356.75,-211 361.24,-213.08 365.92,-215.08 370.68,-217"/>
<polygon fill="#63b8ff" stroke="#63b8ff" points="369.18,-220.17 379.77,-220.51 371.7,-213.64 369.18,-220.17"/>
</a>
</g>
</g>
<!-- Node10 -->
<g id="Node000010" class="node">
<title>Node10</title>
<g id="a_Node000010"><a xlink:href="class_fiea_1_1_engine_1_1_content_1_1_scope.html#a002f54731a8996f37c4f725d8175ffee" target="_top" xlink:title="Appends a new Scope as a child under the specified key.">
<polygon fill="white" stroke="#666666" points="716.12,-334 599.62,-334 599.62,-302 716.12,-302 716.12,-334"/>
<text xml:space="preserve" text-anchor="start" x="607.62" y="-320.5" font-family="Helvetica,sans-Serif" font-size="10.00">Fiea::Engine::Content</text>
<text xml:space="preserve" text-anchor="middle" x="657.88" y="-308.5" font-family="Helvetica,sans-Serif" font-size="10.00">::Scope::AppendScope</text>
</a>
</g>
</g>
<!-- Node2&#45;&gt;Node10 -->
<g id="edge36_Node000002_Node000010" class="edge">
<title>Node2&#45;&gt;Node10</title>
<g id="a_edge36_Node000002_Node000010"><a xlink:title=" ">
<path fill="none" stroke="#63b8ff" d="M253,-158.14C269.16,-186.63 306.93,-245.44 356.75,-273 428.62,-312.76 524.25,-320.78 588.05,-320.98"/>
<polygon fill="#63b8ff" stroke="#63b8ff" points="587.69,-324.48 597.68,-320.94 587.66,-317.48 587.69,-324.48"/>
</a>
</g>
</g>
<!-- Node2&#45;&gt;Node15 -->
<g id="edge37_Node000002_Node000015" class="edge">
<title>Node2&#45;&gt;Node15</title>
<g id="a_edge37_Node000002_Node000015"><a xlink:title=" ">
<path fill="none" stroke="#63b8ff" d="M321.25,-136.32C438.06,-127.68 658.48,-111.38 770.41,-103.1"/>
<polygon fill="#63b8ff" stroke="#63b8ff" points="770.65,-106.59 780.37,-102.36 770.14,-99.61 770.65,-106.59"/>
</a>
</g>
</g>
<!-- Node18 -->
<g id="Node000018" class="node">
<title>Node18</title>
<g id="a_Node000018"><a xlink:href="class_fiea_1_1_engine_1_1_service_manager.html#a8aac9b15b7e5483c2b1cd5febe590a0c" target="_top" xlink:title=" ">
<polygon fill="white" stroke="#666666" points="731.5,-158 584.25,-158 584.25,-126 731.5,-126 731.5,-158"/>
<text xml:space="preserve" text-anchor="start" x="592.25" y="-144.5" font-family="Helvetica,sans-Serif" font-size="10.00">Fiea::Engine::ServiceManager</text>
<text xml:space="preserve" text-anchor="middle" x="657.88" y="-132.5" font-family="Helvetica,sans-Serif" font-size="10.00">::ProvideInterface</text>
</a>
</g>
</g>
<!-- Node2&#45;&gt;Node18 -->
<g id="edge39_Node000002_Node000018" class="edge">
<title>Node2&#45;&gt;Node18</title>
<g id="a_edge39_Node000002_Node000018"><a xlink:title=" ">
<path fill="none" stroke="#63b8ff" d="M321,-142C392.47,-142 498.86,-142 572.68,-142"/>
<polygon fill="#63b8ff" stroke="#63b8ff" points="572.27,-145.5 582.27,-142 572.27,-138.5 572.27,-145.5"/>
</a>
</g>
</g>
<!-- Node19 -->
<g id="Node000019" class="node">
<title>Node19</title>
<g id="a_Node000019"><a xlink:href="class_fiea_1_1_engine_1_1_content_1_1_scope_writer.html#a8baf6cd60c0807e9e91054132db5183f" target="_top" xlink:title=" ">
<polygon fill="white" stroke="#666666" points="548.25,-202 356.75,-202 356.75,-170 548.25,-170 548.25,-202"/>
<text xml:space="preserve" text-anchor="start" x="364.75" y="-188.5" font-family="Helvetica,sans-Serif" font-size="10.00">Fiea::Engine::Content</text>
<text xml:space="preserve" text-anchor="middle" x="452.5" y="-176.5" font-family="Helvetica,sans-Serif" font-size="10.00">::ScopeWriter::AddActionToPredecessor</text>
</a>
</g>
</g>
<!-- Node2&#45;&gt;Node19 -->
<g id="edge26_Node000002_Node000019" class="edge">
<title>Node2&#45;&gt;Node19</title>
<g id="a_edge26_Node000002_Node000019"><a xlink:title=" ">
<path fill="none" stroke="#63b8ff" d="M321.21,-158.32C334.83,-161.22 349.12,-164.25 363.04,-167.21"/>
<polygon fill="#63b8ff" stroke="#63b8ff" points="362.11,-170.59 372.62,-169.24 363.57,-163.74 362.11,-170.59"/>
</a>
</g>
</g>
<!-- Node20 -->
<g id="Node000020" class="node">
<title>Node20</title>
<g id="a_Node000020"><a xlink:href="struct_fiea_1_1_engine_1_1_content_1_1_i_factory_service.html#a06ed01632b58a4faeb159d3e9a0ef51f" target="_top" xlink:title=" ">
<polygon fill="white" stroke="#666666" points="721,-32 594.75,-32 594.75,0 721,0 721,-32"/>
<text xml:space="preserve" text-anchor="start" x="602.75" y="-18.5" font-family="Helvetica,sans-Serif" font-size="10.00">Fiea::Engine::Content</text>
<text xml:space="preserve" text-anchor="middle" x="657.88" y="-6.5" font-family="Helvetica,sans-Serif" font-size="10.00">::IFactoryService::Create</text>
</a>
</g>
</g>
<!-- Node2&#45;&gt;Node20 -->
<g id="edge38_Node000002_Node000020" class="edge">
<title>Node2&#45;&gt;Node20</title>
<g id="a_edge38_Node000002_Node000020"><a xlink:title=" ">
<path fill="none" stroke="#63b8ff" d="M257.61,-125.69C276.82,-103.34 314.74,-63.92 356.75,-46 429.3,-15.05 520.37,-10.13 583.06,-11.33"/>
<polygon fill="#63b8ff" stroke="#63b8ff" points="582.82,-14.83 592.91,-11.58 583,-7.83 582.82,-14.83"/>
</a>
</g>
</g>
<!-- Node4 -->
<g id="Node000004" class="node">
<title>Node4</title>
<g id="a_Node000004"><a xlink:href="class_fiea_1_1_engine_1_1_content_1_1_scope.html#aa91d6470fd3d3f402bbb2e765be54455" target="_top" xlink:title="Appends a new Datum with the given key.">
<polygon fill="white" stroke="#666666" points="896,-484 784.75,-484 784.75,-452 896,-452 896,-484"/>
<text xml:space="preserve" text-anchor="start" x="792.75" y="-470.5" font-family="Helvetica,sans-Serif" font-size="10.00">Fiea::Engine::Content</text>
<text xml:space="preserve" text-anchor="middle" x="840.38" y="-458.5" font-family="Helvetica,sans-Serif" font-size="10.00">::Scope::Append</text>
</a>
</g>
</g>
<!-- Node3&#45;&gt;Node4 -->
<g id="edge3_Node000003_Node000004" class="edge">
<title>Node3&#45;&gt;Node4</title>
<g id="a_edge3_Node000003_Node000004"><a xlink:title=" ">
<path fill="none" stroke="#63b8ff" d="M679.06,-384.42C700.12,-400.95 734.6,-426.31 767.5,-443 770.37,-444.46 773.35,-445.86 776.38,-447.22"/>
<polygon fill="#63b8ff" stroke="#63b8ff" points="774.89,-450.38 785.47,-451.01 777.59,-443.93 774.89,-450.38"/>
</a>
</g>
</g>
<!-- Node5 -->
<g id="Node000005" class="node">
<title>Node5</title>
<g id="a_Node000005"><a xlink:href="class_fiea_1_1_engine_1_1_content_1_1_scope.html#ad924c01785b239991fc0e56a63295612" target="_top" xlink:title="Finds a Datum by key.">
<polygon fill="white" stroke="#666666" points="896,-434 784.75,-434 784.75,-402 896,-402 896,-434"/>
<text xml:space="preserve" text-anchor="start" x="792.75" y="-420.5" font-family="Helvetica,sans-Serif" font-size="10.00">Fiea::Engine::Content</text>
<text xml:space="preserve" text-anchor="middle" x="840.38" y="-408.5" font-family="Helvetica,sans-Serif" font-size="10.00">::Scope::Find</text>
</a>
</g>
</g>
<!-- Node3&#45;&gt;Node5 -->
<g id="edge4_Node000003_Node000005" class="edge">
<title>Node3&#45;&gt;Node5</title>
<g id="a_edge4_Node000003_Node000005"><a xlink:title=" ">
<path fill="none" stroke="#63b8ff" d="M718.23,-384.44C735.84,-389.32 755.24,-394.69 773.26,-399.68"/>
<polygon fill="#63b8ff" stroke="#63b8ff" points="772.24,-403.03 782.81,-402.33 774.1,-396.29 772.24,-403.03"/>
</a>
</g>
</g>
<!-- Node6 -->
<g id="Node000006" class="node">
<title>Node6</title>
<g id="a_Node000006"><a xlink:href="class_fiea_1_1_engine_1_1_content_1_1_datum.html#acb3ba55fc9b39b876cf3334d0305f4fc" target="_top" xlink:title=" ">
<polygon fill="white" stroke="#666666" points="896,-384 784.75,-384 784.75,-352 896,-352 896,-384"/>
<text xml:space="preserve" text-anchor="start" x="792.75" y="-370.5" font-family="Helvetica,sans-Serif" font-size="10.00">Fiea::Engine::Content</text>
<text xml:space="preserve" text-anchor="middle" x="840.38" y="-358.5" font-family="Helvetica,sans-Serif" font-size="10.00">::Datum::Push</text>
</a>
</g>
</g>
<!-- Node3&#45;&gt;Node6 -->
<g id="edge5_Node000003_Node000006" class="edge">
<title>Node3&#45;&gt;Node6</title>
<g id="a_edge5_Node000003_Node000006"><a xlink:title=" ">
<path fill="none" stroke="#63b8ff" d="M724.04,-368C739.97,-368 757.02,-368 773.01,-368"/>
<polygon fill="#63b8ff" stroke="#63b8ff" points="772.91,-371.5 782.91,-368 772.91,-364.5 772.91,-371.5"/>
</a>
</g>
</g>
<!-- Node7 -->
<g id="Node000007" class="node">
<title>Node7</title>
<g id="a_Node000007"><a xlink:href="class_fiea_1_1_engine_1_1_content_1_1_datum.html#a818f812e4489e57885c88951bc0601b3" target="_top" xlink:title=" ">
<polygon fill="white" stroke="#666666" points="1061.25,-362 950,-362 950,-330 1061.25,-330 1061.25,-362"/>
<text xml:space="preserve" text-anchor="start" x="958" y="-348.5" font-family="Helvetica,sans-Serif" font-size="10.00">Fiea::Engine::Content</text>
<text xml:space="preserve" text-anchor="middle" x="1005.62" y="-336.5" font-family="Helvetica,sans-Serif" font-size="10.00">::Datum::ResizeArray</text>
</a>
</g>
</g>
<!-- Node6&#45;&gt;Node7 -->
<g id="edge6_Node000006_Node000007" class="edge">
<title>Node6&#45;&gt;Node7</title>
<g id="a_edge6_Node000006_Node000007"><a xlink:title=" ">
<path fill="none" stroke="#63b8ff" d="M896.19,-360.61C909.78,-358.78 924.49,-356.8 938.56,-354.9"/>
<polygon fill="#63b8ff" stroke="#63b8ff" points="938.73,-358.41 948.18,-353.61 937.8,-351.47 938.73,-358.41"/>
</a>
</g>
</g>
<!-- Node8 -->
<g id="Node000008" class="node">
<title>Node8</title>
<g id="a_Node000008"><a xlink:href="class_fiea_1_1_engine_1_1_content_1_1_datum.html#a921193447f6e42f596ac0a7694b02830" target="_top" xlink:title=" ">
<polygon fill="white" stroke="#666666" points="1209.25,-384 1098,-384 1098,-352 1209.25,-352 1209.25,-384"/>
<text xml:space="preserve" text-anchor="start" x="1106" y="-370.5" font-family="Helvetica,sans-Serif" font-size="10.00">Fiea::Engine::Content</text>
<text xml:space="preserve" text-anchor="middle" x="1153.62" y="-358.5" font-family="Helvetica,sans-Serif" font-size="10.00">::Datum::Scope</text>
</a>
</g>
</g>
<!-- Node6&#45;&gt;Node8 -->
<g id="edge9_Node000006_Node000008" class="edge">
<title>Node6&#45;&gt;Node8</title>
<g id="a_edge9_Node000006_Node000008"><a xlink:title=" ">
<path fill="none" stroke="#63b8ff" d="M896.25,-369.82C913.24,-370.31 932.01,-370.76 949.25,-371 999.36,-371.7 1011.9,-371.83 1062,-371 1069.81,-370.87 1078,-370.68 1086.12,-370.45"/>
<polygon fill="#63b8ff" stroke="#63b8ff" points="1086.11,-373.96 1096.01,-370.16 1085.91,-366.96 1086.11,-373.96"/>
</a>
</g>
</g>
<!-- Node7&#45;&gt;Node8 -->
<g id="edge7_Node000007_Node000008" class="edge">
<title>Node7&#45;&gt;Node8</title>
<g id="a_edge7_Node000007_Node000008"><a xlink:title=" ">
<path fill="none" stroke="#63b8ff" d="M1061.41,-354.25C1069.53,-355.48 1077.97,-356.75 1086.3,-358.01"/>
<polygon fill="#63b8ff" stroke="#63b8ff" points="1085.63,-361.44 1096.04,-359.47 1086.67,-354.52 1085.63,-361.44"/>
</a>
</g>
</g>
<!-- Node8&#45;&gt;Node8 -->
<g id="edge8_Node000008_Node000008" class="edge">
<title>Node8&#45;&gt;Node8</title>
<g id="a_edge8_Node000008_Node000008"><a xlink:title=" ">
<path fill="none" stroke="#63b8ff" d="M1127.2,-384.44C1122.27,-393.58 1131.08,-402 1153.62,-402 1165.96,-402 1174.18,-399.48 1178.29,-395.71"/>
<polygon fill="#63b8ff" stroke="#63b8ff" points="1181.73,-396.36 1179.81,-385.94 1174.81,-395.28 1181.73,-396.36"/>
</a>
</g>
</g>
<!-- Node9&#45;&gt;Node3 -->
<g id="edge11_Node000009_Node000003" class="edge">
<title>Node9&#45;&gt;Node3</title>
<g id="a_edge11_Node000009_Node000003"><a xlink:title=" ">
<path fill="none" stroke="#63b8ff" d="M477.36,-264.35C502.37,-286.78 543.6,-321.08 584.25,-343 586.91,-344.43 589.67,-345.81 592.48,-347.13"/>
<polygon fill="#63b8ff" stroke="#63b8ff" points="590.92,-350.27 601.49,-351.03 593.71,-343.84 590.92,-350.27"/>
</a>
</g>
</g>
<!-- Node9&#45;&gt;Node10 -->
<g id="edge12_Node000009_Node000010" class="edge">
<title>Node9&#45;&gt;Node10</title>
<g id="a_edge12_Node000009_Node000010"><a xlink:title=" ">
<path fill="none" stroke="#63b8ff" d="M509.62,-264.46C532.67,-273.54 559.66,-283.98 584.25,-293 588.62,-294.6 593.14,-296.23 597.7,-297.85"/>
<polygon fill="#63b8ff" stroke="#63b8ff" points="596.32,-301.08 606.91,-301.09 598.64,-294.47 596.32,-301.08"/>
</a>
</g>
</g>
<!-- Node9&#45;&gt;Node15 -->
<g id="edge22_Node000009_Node000015" class="edge">
<title>Node9&#45;&gt;Node15</title>
<g id="a_edge22_Node000009_Node000015"><a xlink:title=" ">
<path fill="none" stroke="#63b8ff" d="M523.74,-237.41C594.92,-231.54 699.02,-219.23 731.5,-196 759,-176.33 742.59,-151.86 767.5,-129 774.62,-122.46 783.34,-117.16 792.22,-112.92"/>
<polygon fill="#63b8ff" stroke="#63b8ff" points="793.44,-116.2 801.23,-109.02 790.66,-109.78 793.44,-116.2"/>
</a>
</g>
</g>
<!-- Node9&#45;&gt;Node18 -->
<g id="edge25_Node000009_Node000018" class="edge">
<title>Node9&#45;&gt;Node18</title>
<g id="a_edge25_Node000009_Node000018"><a xlink:title=" ">
<path fill="none" stroke="#63b8ff" d="M523.87,-221.17C532.21,-218.06 540.5,-214.66 548.25,-211 575.63,-198.07 604.47,-179.49 625.54,-164.87"/>
<polygon fill="#63b8ff" stroke="#63b8ff" points="627.54,-167.75 633.7,-159.13 623.51,-162.02 627.54,-167.75"/>
</a>
</g>
</g>
<!-- Node10&#45;&gt;Node4 -->
<g id="edge13_Node000010_Node000004" class="edge">
<title>Node10&#45;&gt;Node4</title>
<g id="a_edge13_Node000010_Node000004"><a xlink:title=" ">
<path fill="none" stroke="#63b8ff" d="M716.49,-332.17C721.99,-335.13 727.13,-338.69 731.5,-343 765.13,-376.17 733.92,-409.78 767.5,-443 769.71,-445.19 772.13,-447.19 774.69,-449.01"/>
<polygon fill="#63b8ff" stroke="#63b8ff" points="772.82,-451.97 783.2,-454.1 776.41,-445.96 772.82,-451.97"/>
</a>
</g>
</g>
<!-- Node10&#45;&gt;Node5 -->
<g id="edge14_Node000010_Node000005" class="edge">
<title>Node10&#45;&gt;Node5</title>
<g id="a_edge14_Node000010_Node000005"><a xlink:title=" ">
<path fill="none" stroke="#63b8ff" d="M716.48,-334.02C721.79,-336.6 726.9,-339.58 731.5,-343 753.48,-359.33 745.55,-376.63 767.5,-393 769.77,-394.69 772.16,-396.28 774.65,-397.76"/>
<polygon fill="#63b8ff" stroke="#63b8ff" points="772.75,-400.72 783.23,-402.28 776.01,-394.53 772.75,-400.72"/>
</a>
</g>
</g>
<!-- Node10&#45;&gt;Node6 -->
<g id="edge16_Node000010_Node000006" class="edge">
<title>Node10&#45;&gt;Node6</title>
<g id="a_edge16_Node000010_Node000006"><a xlink:title=" ">
<path fill="none" stroke="#63b8ff" d="M716.48,-333.96C734.6,-338.98 754.74,-344.55 773.38,-349.72"/>
<polygon fill="#63b8ff" stroke="#63b8ff" points="772.44,-353.09 783.01,-352.39 774.3,-346.34 772.44,-353.09"/>
</a>
</g>
</g>
<!-- Node11 -->
<g id="Node000011" class="node">
<title>Node11</title>
<g id="a_Node000011"><a xlink:href="class_fiea_1_1_engine_1_1_content_1_1_datum.html#a6e9dfba6e16fddc4efc39b8182dad89f" target="_top" xlink:title=" ">
<polygon fill="white" stroke="#666666" points="896,-334 784.75,-334 784.75,-302 896,-302 896,-334"/>
<text xml:space="preserve" text-anchor="start" x="792.75" y="-320.5" font-family="Helvetica,sans-Serif" font-size="10.00">Fiea::Engine::Content</text>
<text xml:space="preserve" text-anchor="middle" x="840.38" y="-308.5" font-family="Helvetica,sans-Serif" font-size="10.00">::Datum::IsType</text>
</a>
</g>
</g>
<!-- Node10&#45;&gt;Node11 -->
<g id="edge15_Node000010_Node000011" class="edge">
<title>Node10&#45;&gt;Node11</title>
<g id="a_edge15_Node000010_Node000011"><a xlink:title=" ">
<path fill="none" stroke="#63b8ff" d="M716.48,-318C734.51,-318 754.55,-318 773.12,-318"/>
<polygon fill="#63b8ff" stroke="#63b8ff" points="772.95,-321.5 782.95,-318 772.95,-314.5 772.95,-321.5"/>
</a>
</g>
</g>
<!-- Node12 -->
<g id="Node000012" class="node">
<title>Node12</title>
<g id="a_Node000012"><a xlink:href="class_fiea_1_1_engine_1_1_content_1_1_scope.html#a6631343c968c233ab1d9c3e05c3f4fe9" target="_top" xlink:title=" ">
<polygon fill="white" stroke="#666666" points="1061.25,-246 950,-246 950,-214 1061.25,-214 1061.25,-246"/>
<text xml:space="preserve" text-anchor="start" x="958" y="-232.5" font-family="Helvetica,sans-Serif" font-size="10.00">Fiea::Engine::Content</text>
<text xml:space="preserve" text-anchor="middle" x="1005.62" y="-220.5" font-family="Helvetica,sans-Serif" font-size="10.00">::Scope::Scope</text>
</a>
</g>
</g>
<!-- Node10&#45;&gt;Node12 -->
<g id="edge17_Node000010_Node000012" class="edge">
<title>Node10&#45;&gt;Node12</title>
<g id="a_edge17_Node000010_Node000012"><a xlink:title=" ">
<path fill="none" stroke="#63b8ff" d="M716.56,-304.14C768.19,-291.63 845.89,-272.55 913.25,-255 921.44,-252.87 930.03,-250.58 938.52,-248.29"/>
<polygon fill="#63b8ff" stroke="#63b8ff" points="939.4,-251.68 948.14,-245.68 937.57,-244.92 939.4,-251.68"/>
</a>
</g>
</g>
<!-- Node13 -->
<g id="Node000013" class="node">
<title>Node13</title>
<g id="a_Node000013"><a xlink:href="class_fiea_1_1_engine_1_1_content_1_1_scope.html#af6a94922a8fa123c3b22b7b4485963de" target="_top" xlink:title=" ">
<polygon fill="white" stroke="#666666" points="896,-246 784.75,-246 784.75,-214 896,-214 896,-246"/>
<text xml:space="preserve" text-anchor="start" x="792.75" y="-232.5" font-family="Helvetica,sans-Serif" font-size="10.00">Fiea::Engine::Content</text>
<text xml:space="preserve" text-anchor="middle" x="840.38" y="-220.5" font-family="Helvetica,sans-Serif" font-size="10.00">::Scope::SetParent</text>
</a>
</g>
</g>
<!-- Node10&#45;&gt;Node13 -->
<g id="edge19_Node000010_Node000013" class="edge">
<title>Node10&#45;&gt;Node13</title>
<g id="a_edge19_Node000010_Node000013"><a xlink:title=" ">
<path fill="none" stroke="#63b8ff" d="M714.29,-301.63C720.26,-299.08 726.11,-296.2 731.5,-293 750.15,-281.9 749.21,-271.69 767.5,-260 772.36,-256.89 777.6,-253.99 782.95,-251.31"/>
<polygon fill="#63b8ff" stroke="#63b8ff" points="784.39,-254.5 791.94,-247.07 781.41,-248.16 784.39,-254.5"/>
</a>
</g>
</g>
<!-- Node14 -->
<g id="Node000014" class="node">
<title>Node14</title>
<g id="a_Node000014"><a xlink:href="class_fiea_1_1_engine_1_1_content_1_1_datum.html#a23d1f16d9646f024a5dee1f05dbd5a5e" target="_top" xlink:title=" ">
<polygon fill="white" stroke="#666666" points="896,-196 784.75,-196 784.75,-164 896,-164 896,-196"/>
<text xml:space="preserve" text-anchor="start" x="792.75" y="-182.5" font-family="Helvetica,sans-Serif" font-size="10.00">Fiea::Engine::Content</text>
<text xml:space="preserve" text-anchor="middle" x="840.38" y="-170.5" font-family="Helvetica,sans-Serif" font-size="10.00">::Datum::SetType</text>
</a>
</g>
</g>
<!-- Node10&#45;&gt;Node14 -->
<g id="edge21_Node000010_Node000014" class="edge">
<title>Node10&#45;&gt;Node14</title>
<g id="a_edge21_Node000010_Node000014"><a xlink:title=" ">
<path fill="none" stroke="#63b8ff" d="M716.31,-303.64C721.84,-300.72 727.04,-297.21 731.5,-293 762.22,-263.98 736.83,-234.07 767.5,-205 769.72,-202.9 772.12,-200.97 774.65,-199.21"/>
<polygon fill="#63b8ff" stroke="#63b8ff" points="776.19,-202.37 783.03,-194.27 772.63,-196.34 776.19,-202.37"/>
</a>
</g>
</g>
<!-- Node12&#45;&gt;Node12 -->
<g id="edge18_Node000012_Node000012" class="edge">
<title>Node12&#45;&gt;Node12</title>
<g id="a_edge18_Node000012_Node000012"><a xlink:title=" ">
<path fill="none" stroke="#63b8ff" d="M979.2,-246.44C974.27,-255.58 983.08,-264 1005.62,-264 1017.96,-264 1026.18,-261.48 1030.29,-257.71"/>
<polygon fill="#63b8ff" stroke="#63b8ff" points="1033.73,-258.36 1031.81,-247.94 1026.81,-257.28 1033.73,-258.36"/>
</a>
</g>
</g>
<!-- Node13&#45;&gt;Node12 -->
<g id="edge20_Node000013_Node000012" class="edge">
<title>Node13&#45;&gt;Node12</title>
<g id="a_edge20_Node000013_Node000012"><a xlink:title=" ">
<path fill="none" stroke="#63b8ff" d="M896.19,-230C909.78,-230 924.49,-230 938.56,-230"/>
<polygon fill="#63b8ff" stroke="#63b8ff" points="938.16,-233.5 948.16,-230 938.16,-226.5 938.16,-233.5"/>
</a>
</g>
</g>
<!-- Node16 -->
<g id="Node000016" class="node">
<title>Node16</title>
<g id="a_Node000016"><a xlink:href="class_fiea_1_1_engine_1_1_r_t_t_i.html#ac0a7d875e4513b2aca7594abcd4418ef" target="_top" xlink:title=" ">
<polygon fill="white" stroke="#666666" points="1062,-130 949.25,-130 949.25,-110 1062,-110 1062,-130"/>
<text xml:space="preserve" text-anchor="middle" x="1005.62" y="-116.5" font-family="Helvetica,sans-Serif" font-size="10.00">Fiea::Engine::RTTI::Is</text>
</a>
</g>
</g>
<!-- Node15&#45;&gt;Node16 -->
<g id="edge23_Node000015_Node000016" class="edge">
<title>Node15&#45;&gt;Node16</title>
<g id="a_edge23_Node000015_Node000016"><a xlink:title=" ">
<path fill="none" stroke="#63b8ff" d="M898.93,-105.76C911.5,-107.45 924.9,-109.26 937.79,-110.99"/>
<polygon fill="#63b8ff" stroke="#63b8ff" points="937.08,-114.43 947.46,-112.3 938.02,-107.49 937.08,-114.43"/>
</a>
</g>
</g>
<!-- Node17 -->
<g id="Node000017" class="node">
<title>Node17</title>
<g id="a_Node000017"><a xlink:href="class_fiea_1_1_engine_1_1_r_t_t_i.html#a13000029a2e6cced30b831e466e07cae" target="_top" xlink:title=" ">
<polygon fill="white" stroke="#666666" points="1054.88,-92 956.38,-92 956.38,-60 1054.88,-60 1054.88,-92"/>
<text xml:space="preserve" text-anchor="start" x="964.38" y="-78.5" font-family="Helvetica,sans-Serif" font-size="10.00">Fiea::Engine::RTTI</text>
<text xml:space="preserve" text-anchor="middle" x="1005.62" y="-66.5" font-family="Helvetica,sans-Serif" font-size="10.00">::RTTI</text>
</a>
</g>
</g>
<!-- Node15&#45;&gt;Node17 -->
<g id="edge24_Node000015_Node000017" class="edge">
<title>Node15&#45;&gt;Node17</title>
<g id="a_edge24_Node000015_Node000017"><a xlink:title=" ">
<path fill="none" stroke="#63b8ff" d="M898.93,-90.24C913.78,-88.24 929.8,-86.08 944.76,-84.07"/>
<polygon fill="#63b8ff" stroke="#63b8ff" points="945.02,-87.56 954.46,-82.76 944.09,-80.63 945.02,-87.56"/>
</a>
</g>
</g>
<!-- Node19&#45;&gt;Node3 -->
<g id="edge27_Node000019_Node000003" class="edge">
<title>Node19&#45;&gt;Node3</title>
<g id="a_edge27_Node000019_Node000003"><a xlink:title=" ">
<path fill="none" stroke="#63b8ff" d="M537.48,-202.46C541.36,-204.94 544.99,-207.77 548.25,-211 591.43,-253.82 542.68,-298.62 584.25,-343 584.73,-343.52 585.23,-344.02 585.74,-344.52"/>
<polygon fill="#63b8ff" stroke="#63b8ff" points="583.55,-347.25 593.56,-350.73 587.9,-341.77 583.55,-347.25"/>
</a>
</g>
</g>
<!-- Node19&#45;&gt;Node10 -->
<g id="edge28_Node000019_Node000010" class="edge">
<title>Node19&#45;&gt;Node10</title>
<g id="a_edge28_Node000019_Node000010"><a xlink:title=" ">
<path fill="none" stroke="#63b8ff" d="M535.58,-202.29C540.1,-204.8 544.37,-207.68 548.25,-211 578.5,-236.87 554.97,-266.04 584.25,-293 585.91,-294.52 587.66,-295.96 589.49,-297.3"/>
<polygon fill="#63b8ff" stroke="#63b8ff" points="587.56,-300.23 597.9,-302.53 591.26,-294.28 587.56,-300.23"/>
</a>
</g>
</g>
<!-- Node19&#45;&gt;Node15 -->
<g id="edge29_Node000019_Node000015" class="edge">
<title>Node19&#45;&gt;Node15</title>
<g id="a_edge29_Node000019_Node000015"><a xlink:title=" ">
<path fill="none" stroke="#63b8ff" d="M548.54,-196.23C604.35,-198.25 674.83,-193.7 731.5,-167 752.55,-157.08 748.43,-142.32 767.5,-129 776.59,-122.65 787.2,-117.19 797.42,-112.71"/>
<polygon fill="#63b8ff" stroke="#63b8ff" points="798.56,-116.03 806.47,-108.97 795.89,-109.56 798.56,-116.03"/>
</a>
</g>
</g>
<!-- Node19&#45;&gt;Node18 -->
<g id="edge35_Node000019_Node000018" class="edge">
<title>Node19&#45;&gt;Node18</title>
<g id="a_edge35_Node000019_Node000018"><a xlink:title=" ">
<path fill="none" stroke="#63b8ff" d="M529.52,-169.55C543.72,-166.48 558.64,-163.25 573.07,-160.13"/>
<polygon fill="#63b8ff" stroke="#63b8ff" points="573.47,-163.63 582.5,-158.09 571.99,-156.78 573.47,-163.63"/>
</a>
</g>
</g>
<!-- Node19&#45;&gt;Node20 -->
<g id="edge30_Node000019_Node000020" class="edge">
<title>Node19&#45;&gt;Node20</title>
<g id="a_edge30_Node000019_Node000020"><a xlink:title=" ">
<path fill="none" stroke="#63b8ff" d="M473,-169.7C509.22,-139.43 586.97,-74.43 628.83,-39.44"/>
<polygon fill="#63b8ff" stroke="#63b8ff" points="630.84,-42.32 636.27,-33.22 626.36,-36.95 630.84,-42.32"/>
</a>
</g>
</g>
<!-- Node22 -->
<g id="Node000022" class="node">
<title>Node22</title>
<g id="a_Node000022"><a xlink:href="class_fiea_1_1_engine_1_1_content_1_1_scope.html#ac4627f740867a929957ce0647f436e02" target="_top" xlink:title=" ">
<polygon fill="white" stroke="#666666" points="713.5,-284 602.25,-284 602.25,-252 713.5,-252 713.5,-284"/>
<text xml:space="preserve" text-anchor="start" x="610.25" y="-270.5" font-family="Helvetica,sans-Serif" font-size="10.00">Fiea::Engine::Content</text>
<text xml:space="preserve" text-anchor="middle" x="657.88" y="-258.5" font-family="Helvetica,sans-Serif" font-size="10.00">::Scope::GetParent</text>
</a>
</g>
</g>
<!-- Node19&#45;&gt;Node22 -->
<g id="edge33_Node000019_Node000022" class="edge">
<title>Node19&#45;&gt;Node22</title>
<g id="a_edge33_Node000019_Node000022"><a xlink:title=" ">
<path fill="none" stroke="#63b8ff" d="M523.16,-202.45C531.71,-205.03 540.24,-207.89 548.25,-211 573.04,-220.63 599.5,-234.44 620.1,-246.04"/>
<polygon fill="#63b8ff" stroke="#63b8ff" points="618.27,-249.03 628.68,-250.96 621.74,-242.95 618.27,-249.03"/>
</a>
</g>
</g>
<!-- Node20&#45;&gt;Node15 -->
<g id="edge31_Node000020_Node000015" class="edge">
<title>Node20&#45;&gt;Node15</title>
<g id="a_edge31_Node000020_Node000015"><a xlink:title=" ">
<path fill="none" stroke="#63b8ff" d="M699.77,-32.41C710.17,-36.72 721.29,-41.43 731.5,-46 757.8,-57.76 787.24,-72.03 808.71,-82.64"/>
<polygon fill="#63b8ff" stroke="#63b8ff" points="806.99,-85.69 817.5,-87 810.1,-79.42 806.99,-85.69"/>
</a>
</g>
</g>
<!-- Node21 -->
<g id="Node000021" class="node">
<title>Node21</title>
<g id="a_Node000021"><a xlink:href="struct_fiea_1_1_engine_1_1_content_1_1_i_factory_service.html#a287380a07bd649e87bba6b3762554c20" target="_top" xlink:title=" ">
<polygon fill="white" stroke="#666666" points="913.25,-32 767.5,-32 767.5,0 913.25,0 913.25,-32"/>
<text xml:space="preserve" text-anchor="start" x="775.5" y="-18.5" font-family="Helvetica,sans-Serif" font-size="10.00">Fiea::Engine::Content</text>
<text xml:space="preserve" text-anchor="middle" x="840.38" y="-6.5" font-family="Helvetica,sans-Serif" font-size="10.00">::IFactoryService::GetFactory</text>
</a>
</g>
</g>
<!-- Node20&#45;&gt;Node21 -->
<g id="edge32_Node000020_Node000021" class="edge">
<title>Node20&#45;&gt;Node21</title>
<g id="a_edge32_Node000020_Node000021"><a xlink:title=" ">
<path fill="none" stroke="#63b8ff" d="M721.5,-16C732.57,-16 744.26,-16 755.8,-16"/>
<polygon fill="#63b8ff" stroke="#63b8ff" points="755.75,-19.5 765.75,-16 755.75,-12.5 755.75,-19.5"/>
</a>
</g>
</g>
<!-- Node22&#45;&gt;Node12 -->
<g id="edge34_Node000022_Node000012" class="edge">
<title>Node22&#45;&gt;Node12</title>
<g id="a_edge34_Node000022_Node000012"><a xlink:title=" ">
<path fill="none" stroke="#63b8ff" d="M712.25,-251.68C719.28,-247.96 725.95,-243.45 731.5,-238 760.18,-209.82 733.88,-177.06 767.5,-155 821.66,-119.46 852.26,-133.17 913.25,-155 941.15,-164.98 966.64,-187.56 983.57,-205.35"/>
<polygon fill="#63b8ff" stroke="#63b8ff" points="980.8,-207.51 990.14,-212.51 985.96,-202.78 980.8,-207.51"/>
</a>
</g>
</g>
</g>
</svg>
