<?xml version="1.0" encoding="UTF-8" standalone="no"?>
<!DOCTYPE svg PUBLIC "-//W3C//DTD SVG 1.1//EN"
 "http://www.w3.org/Graphics/SVG/1.1/DTD/svg11.dtd">
<!-- Generated by graphviz version 13.1.0 (20250701.0955)
 -->
<!-- Title: Fiea::Engine::Actions::ActionIncrement::ActionIncrement Pages: 1 -->
<svg width="980pt" height="220pt"
 viewBox="0.00 0.00 980.00 220.00" xmlns="http://www.w3.org/2000/svg" xmlns:xlink="http://www.w3.org/1999/xlink">
<g id="graph0" class="graph" transform="scale(1 1) rotate(0) translate(4 216)">
<title>Fiea::Engine::Actions::ActionIncrement::ActionIncrement</title>
<!-- Node1 -->
<g id="Node000001" class="node">
<title>Node1</title>
<g id="a_Node000001"><a xlink:title=" ">
<polygon fill="#999999" stroke="#666666" points="170.5,-148 0,-148 0,-116 170.5,-116 170.5,-148"/>
<text xml:space="preserve" text-anchor="start" x="8" y="-134.5" font-family="Helvetica,sans-Serif" font-size="10.00">Fiea::Engine::Actions</text>
<text xml:space="preserve" text-anchor="middle" x="85.25" y="-122.5" font-family="Helvetica,sans-Serif" font-size="10.00">::ActionIncrement::ActionIncrement</text>
</a>
</g>
</g>
<!-- Node2 -->
<g id="Node000002" class="node">
<title>Node2</title>
<g id="a_Node000002"><a xlink:href="class_fiea_1_1_engine_1_1_actions_1_1_action_increment.html#a6044ebac8f599c1922c5acb34d7babfa" target="_top" xlink:title=" ">
<polygon fill="white" stroke="#666666" points="377,-148 206.5,-148 206.5,-116 377,-116 377,-148"/>
<text xml:space="preserve" text-anchor="start" x="214.5" y="-134.5" font-family="Helvetica,sans-Serif" font-size="10.00">Fiea::Engine::Actions</text>
<text xml:space="preserve" text-anchor="middle" x="291.75" y="-122.5" font-family="Helvetica,sans-Serif" font-size="10.00">::ActionIncrement::ActionIncrement</text>
</a>
</g>
</g>
<!-- Node1&#45;&gt;Node2 -->
<g id="edge1_Node000001_Node000002" class="edge">
<title>Node1&#45;&gt;Node2</title>
<g id="a_edge1_Node000001_Node000002"><a xlink:title=" ">
<path fill="none" stroke="#63b8ff" d="M170.9,-132C178.82,-132 186.88,-132 194.89,-132"/>
<polygon fill="#63b8ff" stroke="#63b8ff" points="194.65,-135.5 204.65,-132 194.65,-128.5 194.65,-135.5"/>
</a>
</g>
</g>
<!-- Node3 -->
<g id="Node000003" class="node">
<title>Node3</title>
<g id="a_Node000003"><a xlink:href="class_fiea_1_1_engine_1_1_actions_1_1_action.html#ae2af386f7122152003b00da79393e19e" target="_top" xlink:title=" ">
<polygon fill="white" stroke="#666666" points="522.75,-170 413,-170 413,-138 522.75,-138 522.75,-170"/>
<text xml:space="preserve" text-anchor="start" x="421" y="-156.5" font-family="Helvetica,sans-Serif" font-size="10.00">Fiea::Engine::Actions</text>
<text xml:space="preserve" text-anchor="middle" x="467.88" y="-144.5" font-family="Helvetica,sans-Serif" font-size="10.00">::Action::Action</text>
</a>
</g>
</g>
<!-- Node2&#45;&gt;Node3 -->
<g id="edge2_Node000002_Node000003" class="edge">
<title>Node2&#45;&gt;Node3</title>
<g id="a_edge2_Node000002_Node000003"><a xlink:title=" ">
<path fill="none" stroke="#63b8ff" d="M377.26,-142.68C385.41,-143.71 393.59,-144.74 401.52,-145.74"/>
<polygon fill="#63b8ff" stroke="#63b8ff" points="401.05,-149.21 411.41,-146.99 401.93,-142.27 401.05,-149.21"/>
</a>
</g>
</g>
<!-- Node5 -->
<g id="Node000005" class="node">
<title>Node5</title>
<g id="a_Node000005"><a xlink:href="class_fiea_1_1_engine_1_1_r_t_t_i.html#a876bebbe7b3149483c43a87f55f4ea99" target="_top" xlink:title=" ">
<polygon fill="white" stroke="#666666" points="664,-126 565.5,-126 565.5,-94 664,-94 664,-126"/>
<text xml:space="preserve" text-anchor="start" x="573.5" y="-112.5" font-family="Helvetica,sans-Serif" font-size="10.00">Fiea::Engine::RTTI</text>
<text xml:space="preserve" text-anchor="middle" x="614.75" y="-100.5" font-family="Helvetica,sans-Serif" font-size="10.00">::TypeIdInstance</text>
</a>
</g>
</g>
<!-- Node2&#45;&gt;Node5 -->
<g id="edge15_Node000002_Node000005" class="edge">
<title>Node2&#45;&gt;Node5</title>
<g id="a_edge15_Node000002_Node000005"><a xlink:title=" ">
<path fill="none" stroke="#63b8ff" d="M377.09,-126.22C432.75,-122.4 504.33,-117.5 554.12,-114.09"/>
<polygon fill="#63b8ff" stroke="#63b8ff" points="554.09,-117.6 563.83,-113.42 553.61,-110.61 554.09,-117.6"/>
</a>
</g>
</g>
<!-- Node4 -->
<g id="Node000004" class="node">
<title>Node4</title>
<g id="a_Node000004"><a xlink:href="class_fiea_1_1_engine_1_1_content_1_1_attributed.html#ad1ae014235d9d8b62b36066c94164148" target="_top" xlink:title=" ">
<polygon fill="white" stroke="#666666" points="670.75,-194 558.75,-194 558.75,-162 670.75,-162 670.75,-194"/>
<text xml:space="preserve" text-anchor="start" x="566.75" y="-180.5" font-family="Helvetica,sans-Serif" font-size="10.00">Fiea::Engine::Content</text>
<text xml:space="preserve" text-anchor="middle" x="614.75" y="-168.5" font-family="Helvetica,sans-Serif" font-size="10.00">::Attributed::Attributed</text>
</a>
</g>
</g>
<!-- Node3&#45;&gt;Node4 -->
<g id="edge3_Node000003_Node000004" class="edge">
<title>Node3&#45;&gt;Node4</title>
<g id="a_edge3_Node000003_Node000004"><a xlink:title=" ">
<path fill="none" stroke="#63b8ff" d="M523.23,-163C531.09,-164.31 539.25,-165.66 547.32,-166.99"/>
<polygon fill="#63b8ff" stroke="#63b8ff" points="546.67,-170.44 557.11,-168.62 547.82,-163.53 546.67,-170.44"/>
</a>
</g>
</g>
<!-- Node3&#45;&gt;Node5 -->
<g id="edge5_Node000003_Node000005" class="edge">
<title>Node3&#45;&gt;Node5</title>
<g id="a_edge5_Node000003_Node000005"><a xlink:title=" ">
<path fill="none" stroke="#63b8ff" d="M522.82,-137.62C533.09,-134.5 543.89,-131.22 554.32,-128.05"/>
<polygon fill="#63b8ff" stroke="#63b8ff" points="555.02,-131.5 563.57,-125.24 552.98,-124.8 555.02,-131.5"/>
</a>
</g>
</g>
<!-- Node4&#45;&gt;Node4 -->
<g id="edge4_Node000004_Node000004" class="edge">
<title>Node4&#45;&gt;Node4</title>
<g id="a_edge4_Node000004_Node000004"><a xlink:title=" ">
<path fill="none" stroke="#63b8ff" d="M588.53,-194.44C583.63,-203.58 592.37,-212 614.75,-212 626.99,-212 635.15,-209.48 639.23,-205.71"/>
<polygon fill="#63b8ff" stroke="#63b8ff" points="642.67,-206.36 640.74,-195.94 635.75,-205.28 642.67,-206.36"/>
</a>
</g>
</g>
<!-- Node5&#45;&gt;Node5 -->
<g id="edge14_Node000005_Node000005" class="edge">
<title>Node5&#45;&gt;Node5</title>
<g id="a_edge14_Node000005_Node000005"><a xlink:title=" ">
<path fill="none" stroke="#63b8ff" d="M588.53,-126.44C583.63,-135.58 592.37,-144 614.75,-144 626.99,-144 635.15,-141.48 639.23,-137.71"/>
<polygon fill="#63b8ff" stroke="#63b8ff" points="642.67,-138.36 640.74,-127.94 635.75,-137.28 642.67,-138.36"/>
</a>
</g>
</g>
<!-- Node6 -->
<g id="Node000006" class="node">
<title>Node6</title>
<g id="a_Node000006"><a xlink:href="class_fiea_1_1_engine_1_1_r_t_t_i.html#a15bd5993c8ad04da47af440298ebbb30" target="_top" xlink:title=" ">
<polygon fill="white" stroke="#666666" points="823.25,-158 706.75,-158 706.75,-138 823.25,-138 823.25,-158"/>
<text xml:space="preserve" text-anchor="middle" x="765" y="-144.5" font-family="Helvetica,sans-Serif" font-size="10.00">Fiea::Engine::RTTI::As</text>
</a>
</g>
</g>
<!-- Node5&#45;&gt;Node6 -->
<g id="edge6_Node000005_Node000006" class="edge">
<title>Node5&#45;&gt;Node6</title>
<g id="a_edge6_Node000005_Node000006"><a xlink:title=" ">
<path fill="none" stroke="#63b8ff" d="M664.29,-122.44C679.65,-126.38 696.68,-130.74 712.25,-134.74"/>
<polygon fill="#63b8ff" stroke="#63b8ff" points="711.27,-138.1 721.82,-137.19 713,-131.32 711.27,-138.1"/>
</a>
</g>
</g>
<!-- Node7 -->
<g id="Node000007" class="node">
<title>Node7</title>
<g id="a_Node000007"><a xlink:href="class_fiea_1_1_engine_1_1_r_t_t_i.html#ac0a7d875e4513b2aca7594abcd4418ef" target="_top" xlink:title=" ">
<polygon fill="white" stroke="#666666" points="972,-180 859.25,-180 859.25,-160 972,-160 972,-180"/>
<text xml:space="preserve" text-anchor="middle" x="915.62" y="-166.5" font-family="Helvetica,sans-Serif" font-size="10.00">Fiea::Engine::RTTI::Is</text>
</a>
</g>
</g>
<!-- Node5&#45;&gt;Node7 -->
<g id="edge11_Node000005_Node000007" class="edge">
<title>Node5&#45;&gt;Node7</title>
<g id="a_edge11_Node000005_Node000007"><a xlink:title=" ">
<path fill="none" stroke="#63b8ff" d="M634.8,-126.34C652.23,-140.14 679.39,-158.93 706.75,-167 752.47,-180.5 806.35,-180.86 847.8,-178.06"/>
<polygon fill="#63b8ff" stroke="#63b8ff" points="847.93,-181.56 857.63,-177.31 847.39,-174.58 847.93,-181.56"/>
</a>
</g>
</g>
<!-- Node8 -->
<g id="Node000008" class="node">
<title>Node8</title>
<g id="a_Node000008"><a xlink:href="class_fiea_1_1_engine_1_1_r_t_t_i.html#a13000029a2e6cced30b831e466e07cae" target="_top" xlink:title=" ">
<polygon fill="white" stroke="#666666" points="964.88,-126 866.38,-126 866.38,-94 964.88,-94 964.88,-126"/>
<text xml:space="preserve" text-anchor="start" x="874.38" y="-112.5" font-family="Helvetica,sans-Serif" font-size="10.00">Fiea::Engine::RTTI</text>
<text xml:space="preserve" text-anchor="middle" x="915.62" y="-100.5" font-family="Helvetica,sans-Serif" font-size="10.00">::RTTI</text>
</a>
</g>
</g>
<!-- Node5&#45;&gt;Node8 -->
<g id="edge12_Node000005_Node000008" class="edge">
<title>Node5&#45;&gt;Node8</title>
<g id="a_edge12_Node000005_Node000008"><a xlink:title=" ">
<path fill="none" stroke="#63b8ff" d="M664.43,-110C716.32,-110 798.54,-110 854.45,-110"/>
<polygon fill="#63b8ff" stroke="#63b8ff" points="854.45,-113.5 864.45,-110 854.45,-106.5 854.45,-113.5"/>
</a>
</g>
</g>
<!-- Node9 -->
<g id="Node000009" class="node">
<title>Node9</title>
<g id="a_Node000009"><a xlink:href="class_fiea_1_1_engine_1_1_r_t_t_i.html#a7f70ad5ba0f8a3388543d63d72892575" target="_top" xlink:title=" ">
<polygon fill="white" stroke="#666666" points="814.25,-82 715.75,-82 715.75,-50 814.25,-50 814.25,-82"/>
<text xml:space="preserve" text-anchor="start" x="723.75" y="-68.5" font-family="Helvetica,sans-Serif" font-size="10.00">Fiea::Engine::RTTI</text>
<text xml:space="preserve" text-anchor="middle" x="765" y="-56.5" font-family="Helvetica,sans-Serif" font-size="10.00">::Equals</text>
</a>
</g>
</g>
<!-- Node5&#45;&gt;Node9 -->
<g id="edge9_Node000005_Node000009" class="edge">
<title>Node5&#45;&gt;Node9</title>
<g id="a_edge9_Node000005_Node000009"><a xlink:title=" ">
<path fill="none" stroke="#63b8ff" d="M664.29,-95.59C677.09,-91.79 691.05,-87.65 704.36,-83.7"/>
<polygon fill="#63b8ff" stroke="#63b8ff" points="705.31,-87.07 713.9,-80.87 703.31,-80.36 705.31,-87.07"/>
</a>
</g>
</g>
<!-- Node10 -->
<g id="Node000010" class="node">
<title>Node10</title>
<g id="a_Node000010"><a xlink:href="class_fiea_1_1_engine_1_1_r_t_t_i.html#a43a7d187e332a17d2c699bc2c8136a30" target="_top" xlink:title=" ">
<polygon fill="white" stroke="#666666" points="814.25,-32 715.75,-32 715.75,0 814.25,0 814.25,-32"/>
<text xml:space="preserve" text-anchor="start" x="723.75" y="-18.5" font-family="Helvetica,sans-Serif" font-size="10.00">Fiea::Engine::RTTI</text>
<text xml:space="preserve" text-anchor="middle" x="765" y="-6.5" font-family="Helvetica,sans-Serif" font-size="10.00">::ToString</text>
</a>
</g>
</g>
<!-- Node5&#45;&gt;Node10 -->
<g id="edge13_Node000005_Node000010" class="edge">
<title>Node5&#45;&gt;Node10</title>
<g id="a_edge13_Node000005_Node000010"><a xlink:title=" ">
<path fill="none" stroke="#63b8ff" d="M634.69,-93.51C652.47,-78.56 680.24,-56.54 706.75,-41 708.76,-39.82 710.84,-38.66 712.95,-37.53"/>
<polygon fill="#63b8ff" stroke="#63b8ff" points="714.34,-40.75 721.71,-33.13 711.2,-34.5 714.34,-40.75"/>
</a>
</g>
</g>
<!-- Node6&#45;&gt;Node7 -->
<g id="edge7_Node000006_Node000007" class="edge">
<title>Node6&#45;&gt;Node7</title>
<g id="a_edge7_Node000006_Node000007"><a xlink:title=" ">
<path fill="none" stroke="#63b8ff" d="M823.46,-156.51C831.35,-157.67 839.5,-158.88 847.53,-160.07"/>
<polygon fill="#63b8ff" stroke="#63b8ff" points="846.88,-163.51 857.28,-161.51 847.91,-156.59 846.88,-163.51"/>
</a>
</g>
</g>
<!-- Node6&#45;&gt;Node8 -->
<g id="edge8_Node000006_Node000008" class="edge">
<title>Node6&#45;&gt;Node8</title>
<g id="a_edge8_Node000006_Node000008"><a xlink:title=" ">
<path fill="none" stroke="#63b8ff" d="M807.01,-137.52C821.88,-133.71 838.99,-129.34 855.13,-125.21"/>
<polygon fill="#63b8ff" stroke="#63b8ff" points="855.82,-128.65 864.64,-122.78 854.09,-121.87 855.82,-128.65"/>
</a>
</g>
</g>
<!-- Node9&#45;&gt;Node8 -->
<g id="edge10_Node000009_Node000008" class="edge">
<title>Node9&#45;&gt;Node8</title>
<g id="a_edge10_Node000009_Node000008"><a xlink:title=" ">
<path fill="none" stroke="#63b8ff" d="M814.67,-80.41C827.69,-84.26 841.92,-88.47 855.44,-92.48"/>
<polygon fill="#63b8ff" stroke="#63b8ff" points="854.07,-95.72 864.65,-95.21 856.06,-89.01 854.07,-95.72"/>
</a>
</g>
</g>
</g>
</svg>
