<?xml version="1.0" encoding="UTF-8" standalone="no"?>
<!DOCTYPE svg PUBLIC "-//W3C//DTD SVG 1.1//EN"
 "http://www.w3.org/Graphics/SVG/1.1/DTD/svg11.dtd">
<!-- Generated by graphviz version 13.1.0 (20250701.0955)
 -->
<!-- Title: Fiea::Engine::Content::Datum::Set Pages: 1 -->
<svg width="464pt" height="570pt"
 viewBox="0.00 0.00 464.00 570.00" xmlns="http://www.w3.org/2000/svg" xmlns:xlink="http://www.w3.org/1999/xlink">
<g id="graph0" class="graph" transform="scale(1 1) rotate(0) translate(4 566)">
<title>Fiea::Engine::Content::Datum::Set</title>
<!-- Node1 -->
<g id="Node000001" class="node">
<title>Node1</title>
<g id="a_Node000001"><a xlink:title=" ">
<polygon fill="#999999" stroke="#666666" points="456,-288 344.75,-288 344.75,-256 456,-256 456,-288"/>
<text xml:space="preserve" text-anchor="start" x="352.75" y="-274.5" font-family="Helvetica,sans-Serif" font-size="10.00">Fiea::Engine::Content</text>
<text xml:space="preserve" text-anchor="middle" x="400.38" y="-262.5" font-family="Helvetica,sans-Serif" font-size="10.00">::Datum::Set</text>
</a>
</g>
</g>
<!-- Node2 -->
<g id="Node000002" class="node">
<title>Node2</title>
<g id="a_Node000002"><a xlink:href="class_fiea_1_1_engine_1_1_content_1_1_scope_writer.html#a028f763e7b7c95ba5d53fb121a832583" target="_top" xlink:title=" ">
<polygon fill="white" stroke="#666666" points="308.75,-556 151,-556 151,-524 308.75,-524 308.75,-556"/>
<text xml:space="preserve" text-anchor="start" x="159" y="-542.5" font-family="Helvetica,sans-Serif" font-size="10.00">Fiea::Engine::Content</text>
<text xml:space="preserve" text-anchor="middle" x="229.88" y="-530.5" font-family="Helvetica,sans-Serif" font-size="10.00">::ScopeWriter::AddPrimitiveType</text>
</a>
</g>
</g>
<!-- Node1&#45;&gt;Node2 -->
<g id="edge1_Node000001_Node000002" class="edge">
<title>Node1&#45;&gt;Node2</title>
<g id="a_edge1_Node000001_Node000002"><a xlink:title=" ">
<path fill="none" stroke="#63b8ff" d="M396.87,-299.37C390.83,-349.32 371.03,-455.54 308.75,-515 305.36,-518.24 301.55,-521.05 297.49,-523.51"/>
<polygon fill="#63b8ff" stroke="#63b8ff" points="400.31,-300.05 397.93,-289.73 393.36,-299.29 400.31,-300.05"/>
</a>
</g>
</g>
<!-- Node4 -->
<g id="Node000004" class="node">
<title>Node4</title>
<g id="a_Node000004"><a xlink:href="class_fiea_1_1_engine_1_1_actions_1_1_action_preamble.html#a25e78fc4fc7a8d53091a8330b02759e0" target="_top" xlink:title=" ">
<polygon fill="white" stroke="#666666" points="299,-506 160.75,-506 160.75,-474 299,-474 299,-506"/>
<text xml:space="preserve" text-anchor="start" x="168.75" y="-492.5" font-family="Helvetica,sans-Serif" font-size="10.00">Fiea::Engine::Actions</text>
<text xml:space="preserve" text-anchor="middle" x="229.88" y="-480.5" font-family="Helvetica,sans-Serif" font-size="10.00">::ActionPreamble::InitAction</text>
</a>
</g>
</g>
<!-- Node1&#45;&gt;Node4 -->
<g id="edge3_Node000001_Node000004" class="edge">
<title>Node1&#45;&gt;Node4</title>
<g id="a_edge3_Node000001_Node000004"><a xlink:title=" ">
<path fill="none" stroke="#63b8ff" d="M393.8,-299.57C383.94,-341.31 359.48,-420.4 308.75,-465 305.02,-468.28 300.85,-471.13 296.44,-473.61"/>
<polygon fill="#63b8ff" stroke="#63b8ff" points="397.21,-300.37 395.97,-289.85 390.37,-298.84 397.21,-300.37"/>
</a>
</g>
</g>
<!-- Node5 -->
<g id="Node000005" class="node">
<title>Node5</title>
<g id="a_Node000005"><a xlink:href="class_fiea_1_1_engine_1_1_actions_1_1_action_conditional_increment.html#a4cb7636a1237acda5ef08f94cb41ae48" target="_top" xlink:title=" ">
<polygon fill="white" stroke="#666666" points="300.88,-456 158.88,-456 158.88,-412 300.88,-412 300.88,-456"/>
<text xml:space="preserve" text-anchor="start" x="166.88" y="-442.5" font-family="Helvetica,sans-Serif" font-size="10.00">Fiea::Engine::Actions</text>
<text xml:space="preserve" text-anchor="start" x="166.88" y="-430.5" font-family="Helvetica,sans-Serif" font-size="10.00">::ActionConditionalIncrement</text>
<text xml:space="preserve" text-anchor="middle" x="229.88" y="-418.5" font-family="Helvetica,sans-Serif" font-size="10.00">::RunAction</text>
</a>
</g>
</g>
<!-- Node1&#45;&gt;Node5 -->
<g id="edge4_Node000001_Node000005" class="edge">
<title>Node1&#45;&gt;Node5</title>
<g id="a_edge4_Node000001_Node000005"><a xlink:title=" ">
<path fill="none" stroke="#63b8ff" d="M386.92,-298.69C372.05,-327.92 344.63,-374.44 308.75,-403 304.76,-406.17 300.41,-409.06 295.87,-411.67"/>
<polygon fill="#63b8ff" stroke="#63b8ff" points="390.04,-300.28 391.32,-289.76 383.76,-297.18 390.04,-300.28"/>
</a>
</g>
</g>
<!-- Node6 -->
<g id="Node000006" class="node">
<title>Node6</title>
<g id="a_Node000006"><a xlink:href="class_fiea_1_1_engine_1_1_actions_1_1_action_decrement.html#a1ec17d56aee3e3172c0b983a839a60ee" target="_top" xlink:title=" ">
<polygon fill="white" stroke="#666666" points="304.62,-394 155.12,-394 155.12,-362 304.62,-362 304.62,-394"/>
<text xml:space="preserve" text-anchor="start" x="163.12" y="-380.5" font-family="Helvetica,sans-Serif" font-size="10.00">Fiea::Engine::Actions</text>
<text xml:space="preserve" text-anchor="middle" x="229.88" y="-368.5" font-family="Helvetica,sans-Serif" font-size="10.00">::ActionDecrement::RunAction</text>
</a>
</g>
</g>
<!-- Node1&#45;&gt;Node6 -->
<g id="edge5_Node000001_Node000006" class="edge">
<title>Node1&#45;&gt;Node6</title>
<g id="a_edge5_Node000001_Node000006"><a xlink:title=" ">
<path fill="none" stroke="#63b8ff" d="M377.48,-296.46C360.33,-314.32 335.03,-337.95 308.75,-353 303.2,-356.17 297.2,-359.01 291.08,-361.52"/>
<polygon fill="#63b8ff" stroke="#63b8ff" points="379.89,-299 384.18,-289.32 374.79,-294.21 379.89,-299"/>
</a>
</g>
</g>
<!-- Node7 -->
<g id="Node000007" class="node">
<title>Node7</title>
<g id="a_Node000007"><a xlink:href="class_fiea_1_1_engine_1_1_actions_1_1_action_increment.html#a21f75108814dbcf084c7bebd98c84468" target="_top" xlink:title=" ">
<polygon fill="white" stroke="#666666" points="302.38,-344 157.38,-344 157.38,-312 302.38,-312 302.38,-344"/>
<text xml:space="preserve" text-anchor="start" x="165.38" y="-330.5" font-family="Helvetica,sans-Serif" font-size="10.00">Fiea::Engine::Actions</text>
<text xml:space="preserve" text-anchor="middle" x="229.88" y="-318.5" font-family="Helvetica,sans-Serif" font-size="10.00">::ActionIncrement::RunAction</text>
</a>
</g>
</g>
<!-- Node1&#45;&gt;Node7 -->
<g id="edge6_Node000001_Node000007" class="edge">
<title>Node1&#45;&gt;Node7</title>
<g id="a_edge6_Node000001_Node000007"><a xlink:title=" ">
<path fill="none" stroke="#63b8ff" d="M341.29,-292.05C330.49,-295.73 319.29,-299.51 308.75,-303 300.26,-305.81 291.23,-308.76 282.44,-311.6"/>
<polygon fill="#63b8ff" stroke="#63b8ff" points="342.16,-295.45 350.5,-288.91 339.9,-288.83 342.16,-295.45"/>
</a>
</g>
</g>
<!-- Node8 -->
<g id="Node000008" class="node">
<title>Node8</title>
<g id="a_Node000008"><a xlink:href="class_fiea_1_1_engine_1_1_actions_1_1_action_loop_increment.html#afa069fcd75025f4734e7d1eb9f136a0f" target="_top" xlink:title=" ">
<polygon fill="white" stroke="#666666" points="287,-294 172.75,-294 172.75,-250 287,-250 287,-294"/>
<text xml:space="preserve" text-anchor="start" x="180.75" y="-280.5" font-family="Helvetica,sans-Serif" font-size="10.00">Fiea::Engine::Actions</text>
<text xml:space="preserve" text-anchor="start" x="180.75" y="-268.5" font-family="Helvetica,sans-Serif" font-size="10.00">::ActionLoopIncrement</text>
<text xml:space="preserve" text-anchor="middle" x="229.88" y="-256.5" font-family="Helvetica,sans-Serif" font-size="10.00">::RunAction</text>
</a>
</g>
</g>
<!-- Node1&#45;&gt;Node8 -->
<g id="edge7_Node000001_Node000008" class="edge">
<title>Node1&#45;&gt;Node8</title>
<g id="a_edge7_Node000001_Node000008"><a xlink:title=" ">
<path fill="none" stroke="#63b8ff" d="M333.25,-272C318.07,-272 302.06,-272 287.33,-272"/>
<polygon fill="#63b8ff" stroke="#63b8ff" points="333.15,-275.5 343.15,-272 333.15,-268.5 333.15,-275.5"/>
</a>
</g>
</g>
<!-- Node9 -->
<g id="Node000009" class="node">
<title>Node9</title>
<g id="a_Node000009"><a xlink:href="class_fiea_1_1_engine_1_1_actions_1_1_action_preamble.html#a0ef97b0c1c472e965f51af89fa9030a5" target="_top" xlink:title=" ">
<polygon fill="white" stroke="#666666" points="301.25,-232 158.5,-232 158.5,-200 301.25,-200 301.25,-232"/>
<text xml:space="preserve" text-anchor="start" x="166.5" y="-218.5" font-family="Helvetica,sans-Serif" font-size="10.00">Fiea::Engine::Actions</text>
<text xml:space="preserve" text-anchor="middle" x="229.88" y="-206.5" font-family="Helvetica,sans-Serif" font-size="10.00">::ActionPreamble::RunAction</text>
</a>
</g>
</g>
<!-- Node1&#45;&gt;Node9 -->
<g id="edge8_Node000001_Node000009" class="edge">
<title>Node1&#45;&gt;Node9</title>
<g id="a_edge8_Node000001_Node000009"><a xlink:title=" ">
<path fill="none" stroke="#63b8ff" d="M341.29,-251.95C330.49,-248.27 319.29,-244.49 308.75,-241 300.26,-238.19 291.23,-235.24 282.44,-232.4"/>
<polygon fill="#63b8ff" stroke="#63b8ff" points="339.9,-255.17 350.5,-255.09 342.16,-248.55 339.9,-255.17"/>
</a>
</g>
</g>
<!-- Node10 -->
<g id="Node000010" class="node">
<title>Node10</title>
<g id="a_Node000010"><a xlink:href="namespace_fiea_1_1_engine_1_1_tests.html#a7f5c7835a1ebaa98c6d49380ec86f0ba" target="_top" xlink:title=" ">
<polygon fill="white" stroke="#666666" points="280.25,-182 179.5,-182 179.5,-150 280.25,-150 280.25,-182"/>
<text xml:space="preserve" text-anchor="start" x="187.5" y="-168.5" font-family="Helvetica,sans-Serif" font-size="10.00">Fiea::Engine::Tests</text>
<text xml:space="preserve" text-anchor="middle" x="229.88" y="-156.5" font-family="Helvetica,sans-Serif" font-size="10.00">::TEST_CLASS</text>
</a>
</g>
</g>
<!-- Node1&#45;&gt;Node10 -->
<g id="edge9_Node000001_Node000010" class="edge">
<title>Node1&#45;&gt;Node10</title>
<g id="a_edge9_Node000001_Node000010"><a xlink:title=" ">
<path fill="none" stroke="#63b8ff" d="M377.48,-247.54C360.33,-229.68 335.03,-206.05 308.75,-191 300,-185.99 290.11,-181.84 280.4,-178.45"/>
<polygon fill="#63b8ff" stroke="#63b8ff" points="374.79,-249.79 384.18,-254.68 379.89,-245 374.79,-249.79"/>
</a>
</g>
</g>
<!-- Node11 -->
<g id="Node000011" class="node">
<title>Node11</title>
<g id="a_Node000011"><a xlink:href="namespace_fiea_1_1_engine_1_1_tests.html#aaa7584a8b305871c6cc1d1144266a08f" target="_top" xlink:title=" ">
<polygon fill="white" stroke="#666666" points="280.25,-132 179.5,-132 179.5,-100 280.25,-100 280.25,-132"/>
<text xml:space="preserve" text-anchor="start" x="187.5" y="-118.5" font-family="Helvetica,sans-Serif" font-size="10.00">Fiea::Engine::Tests</text>
<text xml:space="preserve" text-anchor="middle" x="229.88" y="-106.5" font-family="Helvetica,sans-Serif" font-size="10.00">::TEST_CLASS</text>
</a>
</g>
</g>
<!-- Node1&#45;&gt;Node11 -->
<g id="edge10_Node000001_Node000011" class="edge">
<title>Node1&#45;&gt;Node11</title>
<g id="a_edge10_Node000001_Node000011"><a xlink:title=" ">
<path fill="none" stroke="#63b8ff" d="M387.7,-245.72C373.25,-216.12 345.94,-168.58 308.75,-141 300.42,-134.83 290.51,-130.14 280.6,-126.6"/>
<polygon fill="#63b8ff" stroke="#63b8ff" points="384.35,-246.82 391.78,-254.37 390.68,-243.83 384.35,-246.82"/>
</a>
</g>
</g>
<!-- Node12 -->
<g id="Node000012" class="node">
<title>Node12</title>
<g id="a_Node000012"><a xlink:href="namespace_fiea_1_1_engine_1_1_tests.html#ad7d06bf277bf903f5dbc3982540b1563" target="_top" xlink:title=" ">
<polygon fill="white" stroke="#666666" points="280.25,-82 179.5,-82 179.5,-50 280.25,-50 280.25,-82"/>
<text xml:space="preserve" text-anchor="start" x="187.5" y="-68.5" font-family="Helvetica,sans-Serif" font-size="10.00">Fiea::Engine::Tests</text>
<text xml:space="preserve" text-anchor="middle" x="229.88" y="-56.5" font-family="Helvetica,sans-Serif" font-size="10.00">::TEST_CLASS</text>
</a>
</g>
</g>
<!-- Node1&#45;&gt;Node12 -->
<g id="edge11_Node000001_Node000012" class="edge">
<title>Node1&#45;&gt;Node12</title>
<g id="a_edge11_Node000001_Node000012"><a xlink:title=" ">
<path fill="none" stroke="#63b8ff" d="M392.9,-244.68C382.15,-205.15 356.85,-132.23 308.75,-91 300.66,-84.07 290.63,-79.05 280.49,-75.43"/>
<polygon fill="#63b8ff" stroke="#63b8ff" points="389.45,-245.31 395.35,-254.11 396.23,-243.56 389.45,-245.31"/>
</a>
</g>
</g>
<!-- Node13 -->
<g id="Node000013" class="node">
<title>Node13</title>
<g id="a_Node000013"><a xlink:href="namespace_fiea_1_1_engine_1_1_tests.html#a3cdcf27a81b8b07fd7e0f633fb413ca8" target="_top" xlink:title=" ">
<polygon fill="white" stroke="#666666" points="280.25,-32 179.5,-32 179.5,0 280.25,0 280.25,-32"/>
<text xml:space="preserve" text-anchor="start" x="187.5" y="-18.5" font-family="Helvetica,sans-Serif" font-size="10.00">Fiea::Engine::Tests</text>
<text xml:space="preserve" text-anchor="middle" x="229.88" y="-6.5" font-family="Helvetica,sans-Serif" font-size="10.00">::TEST_CLASS</text>
</a>
</g>
</g>
<!-- Node1&#45;&gt;Node13 -->
<g id="edge12_Node000001_Node000013" class="edge">
<title>Node1&#45;&gt;Node13</title>
<g id="a_edge12_Node000001_Node000013"><a xlink:title=" ">
<path fill="none" stroke="#63b8ff" d="M396.21,-244.3C389.23,-196.12 368.13,-96.74 308.75,-41 300.88,-33.61 290.82,-28.41 280.56,-24.74"/>
<polygon fill="#63b8ff" stroke="#63b8ff" points="392.73,-244.7 397.52,-254.15 399.67,-243.78 392.73,-244.7"/>
</a>
</g>
</g>
<!-- Node3 -->
<g id="Node000003" class="node">
<title>Node3</title>
<g id="a_Node000003"><a xlink:href="class_fiea_1_1_engine_1_1_content_1_1_primitive_type_handler.html#a841c5fd5708419c73da86de56d887a2b" target="_top" xlink:title=" ">
<polygon fill="white" stroke="#666666" points="115,-562 0,-562 0,-518 115,-518 115,-562"/>
<text xml:space="preserve" text-anchor="start" x="8" y="-548.5" font-family="Helvetica,sans-Serif" font-size="10.00">Fiea::Engine::Content</text>
<text xml:space="preserve" text-anchor="start" x="8" y="-536.5" font-family="Helvetica,sans-Serif" font-size="10.00">::PrimitiveTypeHandler</text>
<text xml:space="preserve" text-anchor="middle" x="57.5" y="-524.5" font-family="Helvetica,sans-Serif" font-size="10.00">::EnterKey</text>
</a>
</g>
</g>
<!-- Node2&#45;&gt;Node3 -->
<g id="edge2_Node000002_Node000003" class="edge">
<title>Node2&#45;&gt;Node3</title>
<g id="a_edge2_Node000002_Node000003"><a xlink:title=" ">
<path fill="none" stroke="#63b8ff" d="M139.21,-540C131.11,-540 123.06,-540 115.37,-540"/>
<polygon fill="#63b8ff" stroke="#63b8ff" points="139.16,-543.5 149.16,-540 139.15,-536.5 139.16,-543.5"/>
</a>
</g>
</g>
</g>
</svg>
