<?xml version="1.0" encoding="UTF-8" standalone="no"?>
<!DOCTYPE svg PUBLIC "-//W3C//DTD SVG 1.1//EN"
 "http://www.w3.org/Graphics/SVG/1.1/DTD/svg11.dtd">
<!-- Generated by graphviz version 13.1.0 (20250701.0955)
 -->
<!-- Title: Fiea::Engine::Content::ScopeWriter::AddVectorType Pages: 1 -->
<svg width="774pt" height="290pt"
 viewBox="0.00 0.00 774.00 290.00" xmlns="http://www.w3.org/2000/svg" xmlns:xlink="http://www.w3.org/1999/xlink">
<g id="graph0" class="graph" transform="scale(1 1) rotate(0) translate(4 286)">
<title>Fiea::Engine::Content::ScopeWriter::AddVectorType</title>
<!-- Node1 -->
<g id="Node000001" class="node">
<title>Node1</title>
<g id="a_Node000001"><a xlink:title=" ">
<polygon fill="#999999" stroke="#666666" points="147.25,-157 0,-157 0,-125 147.25,-125 147.25,-157"/>
<text xml:space="preserve" text-anchor="start" x="8" y="-143.5" font-family="Helvetica,sans-Serif" font-size="10.00">Fiea::Engine::Content</text>
<text xml:space="preserve" text-anchor="middle" x="73.62" y="-131.5" font-family="Helvetica,sans-Serif" font-size="10.00">::ScopeWriter::AddVectorType</text>
</a>
</g>
</g>
<!-- Node2 -->
<g id="Node000002" class="node">
<title>Node2</title>
<g id="a_Node000002"><a xlink:href="class_fiea_1_1_engine_1_1_content_1_1_scope.html#aa91d6470fd3d3f402bbb2e765be54455" target="_top" xlink:title="Appends a new Datum with the given key.">
<polygon fill="white" stroke="#666666" points="309.12,-282 197.88,-282 197.88,-250 309.12,-250 309.12,-282"/>
<text xml:space="preserve" text-anchor="start" x="205.88" y="-268.5" font-family="Helvetica,sans-Serif" font-size="10.00">Fiea::Engine::Content</text>
<text xml:space="preserve" text-anchor="middle" x="253.5" y="-256.5" font-family="Helvetica,sans-Serif" font-size="10.00">::Scope::Append</text>
</a>
</g>
</g>
<!-- Node1&#45;&gt;Node2 -->
<g id="edge1_Node000001_Node000002" class="edge">
<title>Node1&#45;&gt;Node2</title>
<g id="a_edge1_Node000001_Node000002"><a xlink:title=" ">
<path fill="none" stroke="#63b8ff" d="M88.52,-157.34C107.8,-179.11 144.68,-217.6 183.25,-241 185.38,-242.29 187.59,-243.53 189.85,-244.72"/>
<polygon fill="#63b8ff" stroke="#63b8ff" points="188.14,-247.78 198.67,-248.95 191.16,-241.47 188.14,-247.78"/>
</a>
</g>
</g>
<!-- Node3 -->
<g id="Node000003" class="node">
<title>Node3</title>
<g id="a_Node000003"><a xlink:href="class_fiea_1_1_engine_1_1_content_1_1_scope_writer.html#afcb6b54b66a06b4d43edbeb27a191cfa" target="_top" xlink:title=" ">
<polygon fill="white" stroke="#666666" points="323.75,-232 183.25,-232 183.25,-200 323.75,-200 323.75,-232"/>
<text xml:space="preserve" text-anchor="start" x="191.25" y="-218.5" font-family="Helvetica,sans-Serif" font-size="10.00">Fiea::Engine::Content</text>
<text xml:space="preserve" text-anchor="middle" x="253.5" y="-206.5" font-family="Helvetica,sans-Serif" font-size="10.00">::ScopeWriter::GetTopScope</text>
</a>
</g>
</g>
<!-- Node1&#45;&gt;Node3 -->
<g id="edge2_Node000001_Node000003" class="edge">
<title>Node1&#45;&gt;Node3</title>
<g id="a_edge2_Node000001_Node000003"><a xlink:title=" ">
<path fill="none" stroke="#63b8ff" d="M108.06,-157.28C129.38,-167.44 157.7,-180.53 183.25,-191 187.02,-192.54 190.92,-194.09 194.87,-195.62"/>
<polygon fill="#63b8ff" stroke="#63b8ff" points="193.35,-198.79 203.94,-199.05 195.83,-192.24 193.35,-198.79"/>
</a>
</g>
</g>
<!-- Node4 -->
<g id="Node000004" class="node">
<title>Node4</title>
<g id="a_Node000004"><a xlink:href="class_fiea_1_1_engine_1_1_content_1_1_datum.html#a2bb6d02e4d11e947717b9fce2da3ca5f" target="_top" xlink:title=" ">
<polygon fill="white" stroke="#666666" points="317.38,-182 189.62,-182 189.62,-150 317.38,-150 317.38,-182"/>
<text xml:space="preserve" text-anchor="start" x="197.62" y="-168.5" font-family="Helvetica,sans-Serif" font-size="10.00">Fiea::Engine::Content</text>
<text xml:space="preserve" text-anchor="middle" x="253.5" y="-156.5" font-family="Helvetica,sans-Serif" font-size="10.00">::Datum::PushFromString</text>
</a>
</g>
</g>
<!-- Node1&#45;&gt;Node4 -->
<g id="edge3_Node000001_Node000004" class="edge">
<title>Node1&#45;&gt;Node4</title>
<g id="a_edge3_Node000001_Node000004"><a xlink:title=" ">
<path fill="none" stroke="#63b8ff" d="M147.74,-151.28C157.77,-152.69 168.07,-154.13 178.12,-155.55"/>
<polygon fill="#63b8ff" stroke="#63b8ff" points="177.44,-158.98 187.83,-156.91 178.41,-152.05 177.44,-158.98"/>
</a>
</g>
</g>
<!-- Node8 -->
<g id="Node000008" class="node">
<title>Node8</title>
<g id="a_Node000008"><a xlink:href="class_fiea_1_1_engine_1_1_content_1_1_datum.html#a7e3945c2e80b5c6a0b85729b4063ded8" target="_top" xlink:title=" ">
<polygon fill="white" stroke="#666666" points="313.62,-132 193.38,-132 193.38,-100 313.62,-100 313.62,-132"/>
<text xml:space="preserve" text-anchor="start" x="201.38" y="-118.5" font-family="Helvetica,sans-Serif" font-size="10.00">Fiea::Engine::Content</text>
<text xml:space="preserve" text-anchor="middle" x="253.5" y="-106.5" font-family="Helvetica,sans-Serif" font-size="10.00">::Datum::SetFromString</text>
</a>
</g>
</g>
<!-- Node1&#45;&gt;Node8 -->
<g id="edge9_Node000001_Node000008" class="edge">
<title>Node1&#45;&gt;Node8</title>
<g id="a_edge9_Node000001_Node000008"><a xlink:title=" ">
<path fill="none" stroke="#63b8ff" d="M147.74,-130.72C159.03,-129.14 170.66,-127.5 181.89,-125.92"/>
<polygon fill="#63b8ff" stroke="#63b8ff" points="182.04,-129.44 191.45,-124.58 181.06,-122.51 182.04,-129.44"/>
</a>
</g>
</g>
<!-- Node9 -->
<g id="Node000009" class="node">
<title>Node9</title>
<g id="a_Node000009"><a xlink:href="class_fiea_1_1_engine_1_1_content_1_1_datum.html#a23d1f16d9646f024a5dee1f05dbd5a5e" target="_top" xlink:title=" ">
<polygon fill="white" stroke="#666666" points="309.12,-82 197.88,-82 197.88,-50 309.12,-50 309.12,-82"/>
<text xml:space="preserve" text-anchor="start" x="205.88" y="-68.5" font-family="Helvetica,sans-Serif" font-size="10.00">Fiea::Engine::Content</text>
<text xml:space="preserve" text-anchor="middle" x="253.5" y="-56.5" font-family="Helvetica,sans-Serif" font-size="10.00">::Datum::SetType</text>
</a>
</g>
</g>
<!-- Node1&#45;&gt;Node9 -->
<g id="edge10_Node000001_Node000009" class="edge">
<title>Node1&#45;&gt;Node9</title>
<g id="a_edge10_Node000001_Node000009"><a xlink:title=" ">
<path fill="none" stroke="#63b8ff" d="M108.06,-124.72C129.38,-114.56 157.7,-101.47 183.25,-91 187.02,-89.46 190.92,-87.91 194.87,-86.38"/>
<polygon fill="#63b8ff" stroke="#63b8ff" points="195.83,-89.76 203.94,-82.95 193.35,-83.21 195.83,-89.76"/>
</a>
</g>
</g>
<!-- Node10 -->
<g id="Node000010" class="node">
<title>Node10</title>
<g id="a_Node000010"><a xlink:href="class_fiea_1_1_engine_1_1_content_1_1_datum.html#acae68c3bc8b20345e4c3790fa37bd8d5" target="_top" xlink:title=" ">
<polygon fill="white" stroke="#666666" points="309.12,-32 197.88,-32 197.88,0 309.12,0 309.12,-32"/>
<text xml:space="preserve" text-anchor="start" x="205.88" y="-18.5" font-family="Helvetica,sans-Serif" font-size="10.00">Fiea::Engine::Content</text>
<text xml:space="preserve" text-anchor="middle" x="253.5" y="-6.5" font-family="Helvetica,sans-Serif" font-size="10.00">::Datum::Size</text>
</a>
</g>
</g>
<!-- Node1&#45;&gt;Node10 -->
<g id="edge11_Node000001_Node000010" class="edge">
<title>Node1&#45;&gt;Node10</title>
<g id="a_edge11_Node000001_Node000010"><a xlink:title=" ">
<path fill="none" stroke="#63b8ff" d="M88.52,-124.66C107.8,-102.89 144.68,-64.4 183.25,-41 185.38,-39.71 187.59,-38.47 189.85,-37.28"/>
<polygon fill="#63b8ff" stroke="#63b8ff" points="191.16,-40.53 198.67,-33.05 188.14,-34.22 191.16,-40.53"/>
</a>
</g>
</g>
<!-- Node5 -->
<g id="Node000005" class="node">
<title>Node5</title>
<g id="a_Node000005"><a xlink:href="class_fiea_1_1_engine_1_1_content_1_1_datum.html#acb3ba55fc9b39b876cf3334d0305f4fc" target="_top" xlink:title=" ">
<polygon fill="white" stroke="#666666" points="471,-182 359.75,-182 359.75,-150 471,-150 471,-182"/>
<text xml:space="preserve" text-anchor="start" x="367.75" y="-168.5" font-family="Helvetica,sans-Serif" font-size="10.00">Fiea::Engine::Content</text>
<text xml:space="preserve" text-anchor="middle" x="415.38" y="-156.5" font-family="Helvetica,sans-Serif" font-size="10.00">::Datum::Push</text>
</a>
</g>
</g>
<!-- Node4&#45;&gt;Node5 -->
<g id="edge4_Node000004_Node000005" class="edge">
<title>Node4&#45;&gt;Node5</title>
<g id="a_edge4_Node000004_Node000005"><a xlink:title=" ">
<path fill="none" stroke="#63b8ff" d="M317.69,-166C327.71,-166 338.09,-166 348.18,-166"/>
<polygon fill="#63b8ff" stroke="#63b8ff" points="347.89,-169.5 357.89,-166 347.89,-162.5 347.89,-169.5"/>
</a>
</g>
</g>
<!-- Node6 -->
<g id="Node000006" class="node">
<title>Node6</title>
<g id="a_Node000006"><a xlink:href="class_fiea_1_1_engine_1_1_content_1_1_datum.html#a818f812e4489e57885c88951bc0601b3" target="_top" xlink:title=" ">
<polygon fill="white" stroke="#666666" points="618.25,-204 507,-204 507,-172 618.25,-172 618.25,-204"/>
<text xml:space="preserve" text-anchor="start" x="515" y="-190.5" font-family="Helvetica,sans-Serif" font-size="10.00">Fiea::Engine::Content</text>
<text xml:space="preserve" text-anchor="middle" x="562.62" y="-178.5" font-family="Helvetica,sans-Serif" font-size="10.00">::Datum::ResizeArray</text>
</a>
</g>
</g>
<!-- Node5&#45;&gt;Node6 -->
<g id="edge5_Node000005_Node000006" class="edge">
<title>Node5&#45;&gt;Node6</title>
<g id="a_edge5_Node000005_Node000006"><a xlink:title=" ">
<path fill="none" stroke="#63b8ff" d="M471.29,-174.32C479.15,-175.51 487.31,-176.74 495.36,-177.96"/>
<polygon fill="#63b8ff" stroke="#63b8ff" points="494.73,-181.41 505.14,-179.44 495.78,-174.49 494.73,-181.41"/>
</a>
</g>
</g>
<!-- Node7 -->
<g id="Node000007" class="node">
<title>Node7</title>
<g id="a_Node000007"><a xlink:href="class_fiea_1_1_engine_1_1_content_1_1_datum.html#a921193447f6e42f596ac0a7694b02830" target="_top" xlink:title=" ">
<polygon fill="white" stroke="#666666" points="765.5,-182 654.25,-182 654.25,-150 765.5,-150 765.5,-182"/>
<text xml:space="preserve" text-anchor="start" x="662.25" y="-168.5" font-family="Helvetica,sans-Serif" font-size="10.00">Fiea::Engine::Content</text>
<text xml:space="preserve" text-anchor="middle" x="709.88" y="-156.5" font-family="Helvetica,sans-Serif" font-size="10.00">::Datum::Scope</text>
</a>
</g>
</g>
<!-- Node5&#45;&gt;Node7 -->
<g id="edge8_Node000005_Node000007" class="edge">
<title>Node5&#45;&gt;Node7</title>
<g id="a_edge8_Node000005_Node000007"><a xlink:title=" ">
<path fill="none" stroke="#63b8ff" d="M471.48,-163.88C483.2,-163.52 495.51,-163.19 507,-163 556.44,-162.18 568.81,-162.18 618.25,-163 626.06,-163.13 634.25,-163.32 642.37,-163.55"/>
<polygon fill="#63b8ff" stroke="#63b8ff" points="642.16,-167.04 652.26,-163.84 642.36,-160.04 642.16,-167.04"/>
</a>
</g>
</g>
<!-- Node6&#45;&gt;Node7 -->
<g id="edge6_Node000006_Node000007" class="edge">
<title>Node6&#45;&gt;Node7</title>
<g id="a_edge6_Node000006_Node000007"><a xlink:title=" ">
<path fill="none" stroke="#63b8ff" d="M618.54,-179.68C626.4,-178.49 634.56,-177.26 642.61,-176.04"/>
<polygon fill="#63b8ff" stroke="#63b8ff" points="643.03,-179.51 652.39,-174.56 641.98,-172.59 643.03,-179.51"/>
</a>
</g>
</g>
<!-- Node7&#45;&gt;Node7 -->
<g id="edge7_Node000007_Node000007" class="edge">
<title>Node7&#45;&gt;Node7</title>
<g id="a_edge7_Node000007_Node000007"><a xlink:title=" ">
<path fill="none" stroke="#63b8ff" d="M683.59,-182.44C678.68,-191.58 687.44,-200 709.88,-200 722.14,-200 730.32,-197.48 734.41,-193.71"/>
<polygon fill="#63b8ff" stroke="#63b8ff" points="737.85,-194.36 735.93,-183.94 730.94,-193.28 737.85,-194.36"/>
</a>
</g>
</g>
</g>
</svg>
