<?xml version="1.0" encoding="UTF-8" standalone="no"?>
<!DOCTYPE svg PUBLIC "-//W3C//DTD SVG 1.1//EN"
 "http://www.w3.org/Graphics/SVG/1.1/DTD/svg11.dtd">
<!-- Generated by graphviz version 13.1.0 (20250701.0955)
 -->
<!-- Title: Fiea::Engine::Actions::ActionListWhileLoop::CleanupAction Pages: 1 -->
<svg width="424pt" height="300pt"
 viewBox="0.00 0.00 424.00 300.00" xmlns="http://www.w3.org/2000/svg" xmlns:xlink="http://www.w3.org/1999/xlink">
<g id="graph0" class="graph" transform="scale(1 1) rotate(0) translate(4 296)">
<title>Fiea::Engine::Actions::ActionListWhileLoop::CleanupAction</title>
<!-- Node1 -->
<g id="Node000001" class="node">
<title>Node1</title>
<g id="a_Node000001"><a xlink:title=" ">
<polygon fill="#999999" stroke="#666666" points="111.25,-163 0,-163 0,-119 111.25,-119 111.25,-163"/>
<text xml:space="preserve" text-anchor="start" x="8" y="-149.5" font-family="Helvetica,sans-Serif" font-size="10.00">Fiea::Engine::Actions</text>
<text xml:space="preserve" text-anchor="start" x="8" y="-137.5" font-family="Helvetica,sans-Serif" font-size="10.00">::ActionListWhileLoop</text>
<text xml:space="preserve" text-anchor="middle" x="55.62" y="-125.5" font-family="Helvetica,sans-Serif" font-size="10.00">::CleanupAction</text>
</a>
</g>
</g>
<!-- Node2 -->
<g id="Node000002" class="node">
<title>Node2</title>
<g id="a_Node000002"><a xlink:href="class_fiea_1_1_engine_1_1_r_t_t_i.html#a15bd5993c8ad04da47af440298ebbb30" target="_top" xlink:title=" ">
<polygon fill="white" stroke="#666666" points="265.25,-270 148.75,-270 148.75,-250 265.25,-250 265.25,-270"/>
<text xml:space="preserve" text-anchor="middle" x="207" y="-256.5" font-family="Helvetica,sans-Serif" font-size="10.00">Fiea::Engine::RTTI::As</text>
</a>
</g>
</g>
<!-- Node1&#45;&gt;Node2 -->
<g id="edge1_Node000001_Node000002" class="edge">
<title>Node1&#45;&gt;Node2</title>
<g id="a_edge1_Node000001_Node000002"><a xlink:title=" ">
<path fill="none" stroke="#63b8ff" d="M71.41,-163.21C87.55,-185.83 115.37,-220.4 147.25,-241 149.37,-242.37 151.6,-243.65 153.9,-244.84"/>
<polygon fill="#63b8ff" stroke="#63b8ff" points="152.37,-247.99 162.92,-248.92 155.25,-241.61 152.37,-247.99"/>
</a>
</g>
</g>
<!-- Node5 -->
<g id="Node000005" class="node">
<title>Node5</title>
<g id="a_Node000005"><a xlink:href="class_fiea_1_1_engine_1_1_actions_1_1_action.html#aca4c38723b265f3c4e6013bb8916b376" target="_top" xlink:title=" ">
<polygon fill="white" stroke="#666666" points="266.75,-232 147.25,-232 147.25,-200 266.75,-200 266.75,-232"/>
<text xml:space="preserve" text-anchor="start" x="155.25" y="-218.5" font-family="Helvetica,sans-Serif" font-size="10.00">Fiea::Engine::Actions</text>
<text xml:space="preserve" text-anchor="middle" x="207" y="-206.5" font-family="Helvetica,sans-Serif" font-size="10.00">::Action::CleanupAction</text>
</a>
</g>
</g>
<!-- Node1&#45;&gt;Node5 -->
<g id="edge4_Node000001_Node000005" class="edge">
<title>Node1&#45;&gt;Node5</title>
<g id="a_edge4_Node000001_Node000005"><a xlink:title=" ">
<path fill="none" stroke="#63b8ff" d="M94.98,-163.29C110.95,-172.28 129.8,-182.5 147.25,-191 149.96,-192.32 152.76,-193.64 155.59,-194.95"/>
<polygon fill="#63b8ff" stroke="#63b8ff" points="154,-198.07 164.55,-198.98 156.87,-191.69 154,-198.07"/>
</a>
</g>
</g>
<!-- Node6 -->
<g id="Node000006" class="node">
<title>Node6</title>
<g id="a_Node000006"><a xlink:href="class_fiea_1_1_engine_1_1_content_1_1_datum.html#ab217ba22f80e6d680e6660cb9b21abdc" target="_top" xlink:title=" ">
<polygon fill="white" stroke="#666666" points="262.62,-182 151.38,-182 151.38,-150 262.62,-150 262.62,-182"/>
<text xml:space="preserve" text-anchor="start" x="159.38" y="-168.5" font-family="Helvetica,sans-Serif" font-size="10.00">Fiea::Engine::Content</text>
<text xml:space="preserve" text-anchor="middle" x="207" y="-156.5" font-family="Helvetica,sans-Serif" font-size="10.00">::Datum::Clear</text>
</a>
</g>
</g>
<!-- Node1&#45;&gt;Node6 -->
<g id="edge5_Node000001_Node000006" class="edge">
<title>Node1&#45;&gt;Node6</title>
<g id="a_edge5_Node000001_Node000006"><a xlink:title=" ">
<path fill="none" stroke="#63b8ff" d="M111.4,-150.17C120.67,-151.72 130.39,-153.35 139.92,-154.94"/>
<polygon fill="#63b8ff" stroke="#63b8ff" points="139.05,-158.34 149.49,-156.54 140.21,-151.44 139.05,-158.34"/>
</a>
</g>
</g>
<!-- Node7 -->
<g id="Node000007" class="node">
<title>Node7</title>
<g id="a_Node000007"><a xlink:href="class_fiea_1_1_engine_1_1_content_1_1_scope.html#ad924c01785b239991fc0e56a63295612" target="_top" xlink:title="Finds a Datum by key.">
<polygon fill="white" stroke="#666666" points="262.62,-132 151.38,-132 151.38,-100 262.62,-100 262.62,-132"/>
<text xml:space="preserve" text-anchor="start" x="159.38" y="-118.5" font-family="Helvetica,sans-Serif" font-size="10.00">Fiea::Engine::Content</text>
<text xml:space="preserve" text-anchor="middle" x="207" y="-106.5" font-family="Helvetica,sans-Serif" font-size="10.00">::Scope::Find</text>
</a>
</g>
</g>
<!-- Node1&#45;&gt;Node7 -->
<g id="edge6_Node000001_Node000007" class="edge">
<title>Node1&#45;&gt;Node7</title>
<g id="a_edge6_Node000001_Node000007"><a xlink:title=" ">
<path fill="none" stroke="#63b8ff" d="M111.4,-131.83C120.67,-130.28 130.39,-128.65 139.92,-127.06"/>
<polygon fill="#63b8ff" stroke="#63b8ff" points="140.21,-130.56 149.49,-125.46 139.05,-123.66 140.21,-130.56"/>
</a>
</g>
</g>
<!-- Node8 -->
<g id="Node000008" class="node">
<title>Node8</title>
<g id="a_Node000008"><a xlink:href="class_fiea_1_1_engine_1_1_content_1_1_datum.html#a7f92976f27f407987cf287a2f7017e04" target="_top" xlink:title=" ">
<polygon fill="white" stroke="#666666" points="262.62,-82 151.38,-82 151.38,-50 262.62,-50 262.62,-82"/>
<text xml:space="preserve" text-anchor="start" x="159.38" y="-68.5" font-family="Helvetica,sans-Serif" font-size="10.00">Fiea::Engine::Content</text>
<text xml:space="preserve" text-anchor="middle" x="207" y="-56.5" font-family="Helvetica,sans-Serif" font-size="10.00">::Datum::GetAsTable</text>
</a>
</g>
</g>
<!-- Node1&#45;&gt;Node8 -->
<g id="edge7_Node000001_Node000008" class="edge">
<title>Node1&#45;&gt;Node8</title>
<g id="a_edge7_Node000001_Node000008"><a xlink:title=" ">
<path fill="none" stroke="#63b8ff" d="M94.98,-118.71C110.95,-109.72 129.8,-99.5 147.25,-91 149.96,-89.68 152.76,-88.36 155.59,-87.05"/>
<polygon fill="#63b8ff" stroke="#63b8ff" points="156.87,-90.31 164.55,-83.02 154,-83.93 156.87,-90.31"/>
</a>
</g>
</g>
<!-- Node10 -->
<g id="Node000010" class="node">
<title>Node10</title>
<g id="a_Node000010"><a xlink:href="class_fiea_1_1_engine_1_1_content_1_1_datum.html#acae68c3bc8b20345e4c3790fa37bd8d5" target="_top" xlink:title=" ">
<polygon fill="white" stroke="#666666" points="262.62,-32 151.38,-32 151.38,0 262.62,0 262.62,-32"/>
<text xml:space="preserve" text-anchor="start" x="159.38" y="-18.5" font-family="Helvetica,sans-Serif" font-size="10.00">Fiea::Engine::Content</text>
<text xml:space="preserve" text-anchor="middle" x="207" y="-6.5" font-family="Helvetica,sans-Serif" font-size="10.00">::Datum::Size</text>
</a>
</g>
</g>
<!-- Node1&#45;&gt;Node10 -->
<g id="edge10_Node000001_Node000010" class="edge">
<title>Node1&#45;&gt;Node10</title>
<g id="a_edge10_Node000001_Node000010"><a xlink:title=" ">
<path fill="none" stroke="#63b8ff" d="M72.41,-118.53C88.94,-96.36 116.71,-62.73 147.25,-41 148.77,-39.92 150.35,-38.87 151.96,-37.86"/>
<polygon fill="#63b8ff" stroke="#63b8ff" points="153.26,-41.14 160.25,-33.17 149.82,-35.05 153.26,-41.14"/>
</a>
</g>
</g>
<!-- Node3 -->
<g id="Node000003" class="node">
<title>Node3</title>
<g id="a_Node000003"><a xlink:href="class_fiea_1_1_engine_1_1_r_t_t_i.html#ac0a7d875e4513b2aca7594abcd4418ef" target="_top" xlink:title=" ">
<polygon fill="white" stroke="#666666" points="415.5,-292 302.75,-292 302.75,-272 415.5,-272 415.5,-292"/>
<text xml:space="preserve" text-anchor="middle" x="359.12" y="-278.5" font-family="Helvetica,sans-Serif" font-size="10.00">Fiea::Engine::RTTI::Is</text>
</a>
</g>
</g>
<!-- Node2&#45;&gt;Node3 -->
<g id="edge2_Node000002_Node000003" class="edge">
<title>Node2&#45;&gt;Node3</title>
<g id="a_edge2_Node000002_Node000003"><a xlink:title=" ">
<path fill="none" stroke="#63b8ff" d="M265.61,-268.44C274.01,-269.67 282.71,-270.95 291.27,-272.2"/>
<polygon fill="#63b8ff" stroke="#63b8ff" points="290.5,-275.63 300.9,-273.61 291.51,-268.7 290.5,-275.63"/>
</a>
</g>
</g>
<!-- Node4 -->
<g id="Node000004" class="node">
<title>Node4</title>
<g id="a_Node000004"><a xlink:href="class_fiea_1_1_engine_1_1_r_t_t_i.html#a13000029a2e6cced30b831e466e07cae" target="_top" xlink:title=" ">
<polygon fill="white" stroke="#666666" points="408.38,-254 309.88,-254 309.88,-222 408.38,-222 408.38,-254"/>
<text xml:space="preserve" text-anchor="start" x="317.88" y="-240.5" font-family="Helvetica,sans-Serif" font-size="10.00">Fiea::Engine::RTTI</text>
<text xml:space="preserve" text-anchor="middle" x="359.12" y="-228.5" font-family="Helvetica,sans-Serif" font-size="10.00">::RTTI</text>
</a>
</g>
</g>
<!-- Node2&#45;&gt;Node4 -->
<g id="edge3_Node000002_Node000004" class="edge">
<title>Node2&#45;&gt;Node4</title>
<g id="a_edge3_Node000002_Node000004"><a xlink:title=" ">
<path fill="none" stroke="#63b8ff" d="M265.61,-251.56C276.41,-249.97 287.73,-248.32 298.58,-246.73"/>
<polygon fill="#63b8ff" stroke="#63b8ff" points="298.81,-250.23 308.2,-245.32 297.8,-243.3 298.81,-250.23"/>
</a>
</g>
</g>
<!-- Node9 -->
<g id="Node000009" class="node">
<title>Node9</title>
<g id="a_Node000009"><a xlink:href="class_fiea_1_1_engine_1_1_content_1_1_datum.html#a921193447f6e42f596ac0a7694b02830" target="_top" xlink:title=" ">
<polygon fill="white" stroke="#666666" points="414.75,-82 303.5,-82 303.5,-50 414.75,-50 414.75,-82"/>
<text xml:space="preserve" text-anchor="start" x="311.5" y="-68.5" font-family="Helvetica,sans-Serif" font-size="10.00">Fiea::Engine::Content</text>
<text xml:space="preserve" text-anchor="middle" x="359.12" y="-56.5" font-family="Helvetica,sans-Serif" font-size="10.00">::Datum::Scope</text>
</a>
</g>
</g>
<!-- Node8&#45;&gt;Node9 -->
<g id="edge8_Node000008_Node000009" class="edge">
<title>Node8&#45;&gt;Node9</title>
<g id="a_edge8_Node000008_Node000009"><a xlink:title=" ">
<path fill="none" stroke="#63b8ff" d="M263.05,-66C272.33,-66 282.05,-66 291.59,-66"/>
<polygon fill="#63b8ff" stroke="#63b8ff" points="291.57,-69.5 301.57,-66 291.57,-62.5 291.57,-69.5"/>
</a>
</g>
</g>
<!-- Node9&#45;&gt;Node9 -->
<g id="edge9_Node000009_Node000009" class="edge">
<title>Node9&#45;&gt;Node9</title>
<g id="a_edge9_Node000009_Node000009"><a xlink:title=" ">
<path fill="none" stroke="#63b8ff" d="M331.97,-82.44C326.9,-91.58 335.95,-100 359.12,-100 371.8,-100 380.25,-97.48 384.48,-93.71"/>
<polygon fill="#63b8ff" stroke="#63b8ff" points="387.92,-94.37 386.04,-83.94 381,-93.26 387.92,-94.37"/>
</a>
</g>
</g>
</g>
</svg>
