<?xml version="1.0" encoding="UTF-8" standalone="no"?>
<!DOCTYPE svg PUBLIC "-//W3C//DTD SVG 1.1//EN"
 "http://www.w3.org/Graphics/SVG/1.1/DTD/svg11.dtd">
<!-- Generated by graphviz version 13.1.0 (20250701.0955)
 -->
<!-- Title: Fiea::Engine::Actions::ActionDelayed::operator= Pages: 1 -->
<svg width="1079pt" height="220pt"
 viewBox="0.00 0.00 1079.00 220.00" xmlns="http://www.w3.org/2000/svg" xmlns:xlink="http://www.w3.org/1999/xlink">
<g id="graph0" class="graph" transform="scale(1 1) rotate(0) translate(4 216)">
<title>Fiea::Engine::Actions::ActionDelayed::operator=</title>
<!-- Node1 -->
<g id="Node000001" class="node">
<title>Node1</title>
<g id="a_Node000001"><a xlink:title=" ">
<polygon fill="#999999" stroke="#666666" points="133,-122 0,-122 0,-90 133,-90 133,-122"/>
<text xml:space="preserve" text-anchor="start" x="8" y="-108.5" font-family="Helvetica,sans-Serif" font-size="10.00">Fiea::Engine::Actions</text>
<text xml:space="preserve" text-anchor="middle" x="66.5" y="-96.5" font-family="Helvetica,sans-Serif" font-size="10.00">::ActionDelayed::operator=</text>
</a>
</g>
</g>
<!-- Node2 -->
<g id="Node000002" class="node">
<title>Node2</title>
<g id="a_Node000002"><a xlink:href="class_fiea_1_1_engine_1_1_actions_1_1_action_delayed.html#a95679c42e92441cf43d0f5373757beb0" target="_top" xlink:title=" ">
<polygon fill="white" stroke="#666666" points="324.5,-122 169,-122 169,-90 324.5,-90 324.5,-122"/>
<text xml:space="preserve" text-anchor="start" x="177" y="-108.5" font-family="Helvetica,sans-Serif" font-size="10.00">Fiea::Engine::Actions</text>
<text xml:space="preserve" text-anchor="middle" x="246.75" y="-96.5" font-family="Helvetica,sans-Serif" font-size="10.00">::ActionDelayed::ActionDelayed</text>
</a>
</g>
</g>
<!-- Node1&#45;&gt;Node2 -->
<g id="edge1_Node000001_Node000002" class="edge">
<title>Node1&#45;&gt;Node2</title>
<g id="a_edge1_Node000001_Node000002"><a xlink:title=" ">
<path fill="none" stroke="#63b8ff" d="M133.37,-106C141.19,-106 149.26,-106 157.33,-106"/>
<polygon fill="#63b8ff" stroke="#63b8ff" points="157.19,-109.5 167.19,-106 157.19,-102.5 157.19,-109.5"/>
</a>
</g>
</g>
<!-- Node3 -->
<g id="Node000003" class="node">
<title>Node3</title>
<g id="a_Node000003"><a xlink:href="class_fiea_1_1_engine_1_1_actions_1_1_action_list.html#a77dc15425d13d1d10482ec9e97d923fb" target="_top" xlink:title=" ">
<polygon fill="white" stroke="#666666" points="475.5,-144 360.5,-144 360.5,-112 475.5,-112 475.5,-144"/>
<text xml:space="preserve" text-anchor="start" x="368.5" y="-130.5" font-family="Helvetica,sans-Serif" font-size="10.00">Fiea::Engine::Actions</text>
<text xml:space="preserve" text-anchor="middle" x="418" y="-118.5" font-family="Helvetica,sans-Serif" font-size="10.00">::ActionList::ActionList</text>
</a>
</g>
</g>
<!-- Node2&#45;&gt;Node3 -->
<g id="edge2_Node000002_Node000003" class="edge">
<title>Node2&#45;&gt;Node3</title>
<g id="a_edge2_Node000002_Node000003"><a xlink:title=" ">
<path fill="none" stroke="#63b8ff" d="M324.95,-116.03C332.91,-117.07 340.97,-118.12 348.83,-119.14"/>
<polygon fill="#63b8ff" stroke="#63b8ff" points="348.3,-122.6 358.66,-120.42 349.2,-115.66 348.3,-122.6"/>
</a>
</g>
</g>
<!-- Node6 -->
<g id="Node000006" class="node">
<title>Node6</title>
<g id="a_Node000006"><a xlink:href="class_fiea_1_1_engine_1_1_r_t_t_i.html#a876bebbe7b3149483c43a87f55f4ea99" target="_top" xlink:title=" ">
<polygon fill="white" stroke="#666666" points="762.5,-126 664,-126 664,-94 762.5,-94 762.5,-126"/>
<text xml:space="preserve" text-anchor="start" x="672" y="-112.5" font-family="Helvetica,sans-Serif" font-size="10.00">Fiea::Engine::RTTI</text>
<text xml:space="preserve" text-anchor="middle" x="713.25" y="-100.5" font-family="Helvetica,sans-Serif" font-size="10.00">::TypeIdInstance</text>
</a>
</g>
</g>
<!-- Node2&#45;&gt;Node6 -->
<g id="edge17_Node000002_Node000006" class="edge">
<title>Node2&#45;&gt;Node6</title>
<g id="a_edge17_Node000002_Node000006"><a xlink:title=" ">
<path fill="none" stroke="#63b8ff" d="M324.77,-103.68C336.73,-103.4 348.95,-103.15 360.5,-103 411.61,-102.32 424.39,-102.24 475.5,-103 535.7,-103.89 604.49,-106.05 652.35,-107.74"/>
<polygon fill="#63b8ff" stroke="#63b8ff" points="652.11,-111.23 662.23,-108.09 652.36,-104.24 652.11,-111.23"/>
</a>
</g>
</g>
<!-- Node4 -->
<g id="Node000004" class="node">
<title>Node4</title>
<g id="a_Node000004"><a xlink:href="class_fiea_1_1_engine_1_1_actions_1_1_action.html#ae2af386f7122152003b00da79393e19e" target="_top" xlink:title=" ">
<polygon fill="white" stroke="#666666" points="621.25,-182 511.5,-182 511.5,-150 621.25,-150 621.25,-182"/>
<text xml:space="preserve" text-anchor="start" x="519.5" y="-168.5" font-family="Helvetica,sans-Serif" font-size="10.00">Fiea::Engine::Actions</text>
<text xml:space="preserve" text-anchor="middle" x="566.38" y="-156.5" font-family="Helvetica,sans-Serif" font-size="10.00">::Action::Action</text>
</a>
</g>
</g>
<!-- Node3&#45;&gt;Node4 -->
<g id="edge3_Node000003_Node000004" class="edge">
<title>Node3&#45;&gt;Node4</title>
<g id="a_edge3_Node000003_Node000004"><a xlink:title=" ">
<path fill="none" stroke="#63b8ff" d="M475.59,-142.69C483.67,-144.79 492.03,-146.96 500.25,-149.09"/>
<polygon fill="#63b8ff" stroke="#63b8ff" points="499.31,-152.47 509.87,-151.59 501.07,-145.69 499.31,-152.47"/>
</a>
</g>
</g>
<!-- Node3&#45;&gt;Node6 -->
<g id="edge16_Node000003_Node000006" class="edge">
<title>Node3&#45;&gt;Node6</title>
<g id="a_edge16_Node000003_Node000006"><a xlink:title=" ">
<path fill="none" stroke="#63b8ff" d="M475.89,-124.51C526.68,-121.39 600.81,-116.84 652.47,-113.67"/>
<polygon fill="#63b8ff" stroke="#63b8ff" points="652.5,-117.17 662.27,-113.07 652.07,-110.19 652.5,-117.17"/>
</a>
</g>
</g>
<!-- Node5 -->
<g id="Node000005" class="node">
<title>Node5</title>
<g id="a_Node000005"><a xlink:href="class_fiea_1_1_engine_1_1_content_1_1_attributed.html#ad1ae014235d9d8b62b36066c94164148" target="_top" xlink:title=" ">
<polygon fill="white" stroke="#666666" points="769.25,-194 657.25,-194 657.25,-162 769.25,-162 769.25,-194"/>
<text xml:space="preserve" text-anchor="start" x="665.25" y="-180.5" font-family="Helvetica,sans-Serif" font-size="10.00">Fiea::Engine::Content</text>
<text xml:space="preserve" text-anchor="middle" x="713.25" y="-168.5" font-family="Helvetica,sans-Serif" font-size="10.00">::Attributed::Attributed</text>
</a>
</g>
</g>
<!-- Node4&#45;&gt;Node5 -->
<g id="edge4_Node000004_Node000005" class="edge">
<title>Node4&#45;&gt;Node5</title>
<g id="a_edge4_Node000004_Node000005"><a xlink:title=" ">
<path fill="none" stroke="#63b8ff" d="M621.73,-170.5C629.59,-171.15 637.75,-171.83 645.82,-172.5"/>
<polygon fill="#63b8ff" stroke="#63b8ff" points="645.34,-175.97 655.6,-173.31 645.92,-168.99 645.34,-175.97"/>
</a>
</g>
</g>
<!-- Node4&#45;&gt;Node6 -->
<g id="edge6_Node000004_Node000006" class="edge">
<title>Node4&#45;&gt;Node6</title>
<g id="a_edge6_Node000004_Node000006"><a xlink:title=" ">
<path fill="none" stroke="#63b8ff" d="M610.06,-149.5C625.53,-143.52 643.2,-136.69 659.44,-130.41"/>
<polygon fill="#63b8ff" stroke="#63b8ff" points="660.39,-133.8 668.46,-126.93 657.87,-127.27 660.39,-133.8"/>
</a>
</g>
</g>
<!-- Node5&#45;&gt;Node5 -->
<g id="edge5_Node000005_Node000005" class="edge">
<title>Node5&#45;&gt;Node5</title>
<g id="a_edge5_Node000005_Node000005"><a xlink:title=" ">
<path fill="none" stroke="#63b8ff" d="M687.03,-194.44C682.13,-203.58 690.87,-212 713.25,-212 725.49,-212 733.65,-209.48 737.73,-205.71"/>
<polygon fill="#63b8ff" stroke="#63b8ff" points="741.17,-206.36 739.24,-195.94 734.25,-205.28 741.17,-206.36"/>
</a>
</g>
</g>
<!-- Node6&#45;&gt;Node6 -->
<g id="edge15_Node000006_Node000006" class="edge">
<title>Node6&#45;&gt;Node6</title>
<g id="a_edge15_Node000006_Node000006"><a xlink:title=" ">
<path fill="none" stroke="#63b8ff" d="M687.03,-126.44C682.13,-135.58 690.87,-144 713.25,-144 725.49,-144 733.65,-141.48 737.73,-137.71"/>
<polygon fill="#63b8ff" stroke="#63b8ff" points="741.17,-138.36 739.24,-127.94 734.25,-137.28 741.17,-138.36"/>
</a>
</g>
</g>
<!-- Node7 -->
<g id="Node000007" class="node">
<title>Node7</title>
<g id="a_Node000007"><a xlink:href="class_fiea_1_1_engine_1_1_r_t_t_i.html#a15bd5993c8ad04da47af440298ebbb30" target="_top" xlink:title=" ">
<polygon fill="white" stroke="#666666" points="921.75,-158 805.25,-158 805.25,-138 921.75,-138 921.75,-158"/>
<text xml:space="preserve" text-anchor="middle" x="863.5" y="-144.5" font-family="Helvetica,sans-Serif" font-size="10.00">Fiea::Engine::RTTI::As</text>
</a>
</g>
</g>
<!-- Node6&#45;&gt;Node7 -->
<g id="edge7_Node000006_Node000007" class="edge">
<title>Node6&#45;&gt;Node7</title>
<g id="a_edge7_Node000006_Node000007"><a xlink:title=" ">
<path fill="none" stroke="#63b8ff" d="M762.79,-122.44C778.15,-126.38 795.18,-130.74 810.75,-134.74"/>
<polygon fill="#63b8ff" stroke="#63b8ff" points="809.77,-138.1 820.32,-137.19 811.5,-131.32 809.77,-138.1"/>
</a>
</g>
</g>
<!-- Node8 -->
<g id="Node000008" class="node">
<title>Node8</title>
<g id="a_Node000008"><a xlink:href="class_fiea_1_1_engine_1_1_r_t_t_i.html#ac0a7d875e4513b2aca7594abcd4418ef" target="_top" xlink:title=" ">
<polygon fill="white" stroke="#666666" points="1070.5,-180 957.75,-180 957.75,-160 1070.5,-160 1070.5,-180"/>
<text xml:space="preserve" text-anchor="middle" x="1014.12" y="-166.5" font-family="Helvetica,sans-Serif" font-size="10.00">Fiea::Engine::RTTI::Is</text>
</a>
</g>
</g>
<!-- Node6&#45;&gt;Node8 -->
<g id="edge12_Node000006_Node000008" class="edge">
<title>Node6&#45;&gt;Node8</title>
<g id="a_edge12_Node000006_Node000008"><a xlink:title=" ">
<path fill="none" stroke="#63b8ff" d="M733.3,-126.34C750.73,-140.14 777.89,-158.93 805.25,-167 850.97,-180.5 904.85,-180.86 946.3,-178.06"/>
<polygon fill="#63b8ff" stroke="#63b8ff" points="946.43,-181.56 956.13,-177.31 945.89,-174.58 946.43,-181.56"/>
</a>
</g>
</g>
<!-- Node9 -->
<g id="Node000009" class="node">
<title>Node9</title>
<g id="a_Node000009"><a xlink:href="class_fiea_1_1_engine_1_1_r_t_t_i.html#a13000029a2e6cced30b831e466e07cae" target="_top" xlink:title=" ">
<polygon fill="white" stroke="#666666" points="1063.38,-126 964.88,-126 964.88,-94 1063.38,-94 1063.38,-126"/>
<text xml:space="preserve" text-anchor="start" x="972.88" y="-112.5" font-family="Helvetica,sans-Serif" font-size="10.00">Fiea::Engine::RTTI</text>
<text xml:space="preserve" text-anchor="middle" x="1014.12" y="-100.5" font-family="Helvetica,sans-Serif" font-size="10.00">::RTTI</text>
</a>
</g>
</g>
<!-- Node6&#45;&gt;Node9 -->
<g id="edge13_Node000006_Node000009" class="edge">
<title>Node6&#45;&gt;Node9</title>
<g id="a_edge13_Node000006_Node000009"><a xlink:title=" ">
<path fill="none" stroke="#63b8ff" d="M762.93,-110C814.82,-110 897.04,-110 952.95,-110"/>
<polygon fill="#63b8ff" stroke="#63b8ff" points="952.95,-113.5 962.95,-110 952.95,-106.5 952.95,-113.5"/>
</a>
</g>
</g>
<!-- Node10 -->
<g id="Node000010" class="node">
<title>Node10</title>
<g id="a_Node000010"><a xlink:href="class_fiea_1_1_engine_1_1_r_t_t_i.html#a7f70ad5ba0f8a3388543d63d72892575" target="_top" xlink:title=" ">
<polygon fill="white" stroke="#666666" points="912.75,-82 814.25,-82 814.25,-50 912.75,-50 912.75,-82"/>
<text xml:space="preserve" text-anchor="start" x="822.25" y="-68.5" font-family="Helvetica,sans-Serif" font-size="10.00">Fiea::Engine::RTTI</text>
<text xml:space="preserve" text-anchor="middle" x="863.5" y="-56.5" font-family="Helvetica,sans-Serif" font-size="10.00">::Equals</text>
</a>
</g>
</g>
<!-- Node6&#45;&gt;Node10 -->
<g id="edge10_Node000006_Node000010" class="edge">
<title>Node6&#45;&gt;Node10</title>
<g id="a_edge10_Node000006_Node000010"><a xlink:title=" ">
<path fill="none" stroke="#63b8ff" d="M762.79,-95.59C775.59,-91.79 789.55,-87.65 802.86,-83.7"/>
<polygon fill="#63b8ff" stroke="#63b8ff" points="803.81,-87.07 812.4,-80.87 801.81,-80.36 803.81,-87.07"/>
</a>
</g>
</g>
<!-- Node11 -->
<g id="Node000011" class="node">
<title>Node11</title>
<g id="a_Node000011"><a xlink:href="class_fiea_1_1_engine_1_1_r_t_t_i.html#a43a7d187e332a17d2c699bc2c8136a30" target="_top" xlink:title=" ">
<polygon fill="white" stroke="#666666" points="912.75,-32 814.25,-32 814.25,0 912.75,0 912.75,-32"/>
<text xml:space="preserve" text-anchor="start" x="822.25" y="-18.5" font-family="Helvetica,sans-Serif" font-size="10.00">Fiea::Engine::RTTI</text>
<text xml:space="preserve" text-anchor="middle" x="863.5" y="-6.5" font-family="Helvetica,sans-Serif" font-size="10.00">::ToString</text>
</a>
</g>
</g>
<!-- Node6&#45;&gt;Node11 -->
<g id="edge14_Node000006_Node000011" class="edge">
<title>Node6&#45;&gt;Node11</title>
<g id="a_edge14_Node000006_Node000011"><a xlink:title=" ">
<path fill="none" stroke="#63b8ff" d="M733.19,-93.51C750.97,-78.56 778.74,-56.54 805.25,-41 807.26,-39.82 809.34,-38.66 811.45,-37.53"/>
<polygon fill="#63b8ff" stroke="#63b8ff" points="812.84,-40.75 820.21,-33.13 809.7,-34.5 812.84,-40.75"/>
</a>
</g>
</g>
<!-- Node7&#45;&gt;Node8 -->
<g id="edge8_Node000007_Node000008" class="edge">
<title>Node7&#45;&gt;Node8</title>
<g id="a_edge8_Node000007_Node000008"><a xlink:title=" ">
<path fill="none" stroke="#63b8ff" d="M921.96,-156.51C929.85,-157.67 938,-158.88 946.03,-160.07"/>
<polygon fill="#63b8ff" stroke="#63b8ff" points="945.38,-163.51 955.78,-161.51 946.41,-156.59 945.38,-163.51"/>
</a>
</g>
</g>
<!-- Node7&#45;&gt;Node9 -->
<g id="edge9_Node000007_Node000009" class="edge">
<title>Node7&#45;&gt;Node9</title>
<g id="a_edge9_Node000007_Node000009"><a xlink:title=" ">
<path fill="none" stroke="#63b8ff" d="M905.51,-137.52C920.38,-133.71 937.49,-129.34 953.63,-125.21"/>
<polygon fill="#63b8ff" stroke="#63b8ff" points="954.32,-128.65 963.14,-122.78 952.59,-121.87 954.32,-128.65"/>
</a>
</g>
</g>
<!-- Node10&#45;&gt;Node9 -->
<g id="edge11_Node000010_Node000009" class="edge">
<title>Node10&#45;&gt;Node9</title>
<g id="a_edge11_Node000010_Node000009"><a xlink:title=" ">
<path fill="none" stroke="#63b8ff" d="M913.17,-80.41C926.19,-84.26 940.42,-88.47 953.94,-92.48"/>
<polygon fill="#63b8ff" stroke="#63b8ff" points="952.57,-95.72 963.15,-95.21 954.56,-89.01 952.57,-95.72"/>
</a>
</g>
</g>
</g>
</svg>
