<?xml version="1.0" encoding="UTF-8" standalone="no"?>
<!DOCTYPE svg PUBLIC "-//W3C//DTD SVG 1.1//EN"
 "http://www.w3.org/Graphics/SVG/1.1/DTD/svg11.dtd">
<!-- Generated by graphviz version 13.1.0 (20250701.0955)
 -->
<!-- Title: Fiea::Engine::Actions::ActionIncrement::ActionIncrement Pages: 1 -->
<svg width="774pt" height="220pt"
 viewBox="0.00 0.00 774.00 220.00" xmlns="http://www.w3.org/2000/svg" xmlns:xlink="http://www.w3.org/1999/xlink">
<g id="graph0" class="graph" transform="scale(1 1) rotate(0) translate(4 216)">
<title>Fiea::Engine::Actions::ActionIncrement::ActionIncrement</title>
<!-- Node1 -->
<g id="Node000001" class="node">
<title>Node1</title>
<g id="a_Node000001"><a xlink:title=" ">
<polygon fill="#999999" stroke="#666666" points="170.5,-148 0,-148 0,-116 170.5,-116 170.5,-148"/>
<text xml:space="preserve" text-anchor="start" x="8" y="-134.5" font-family="Helvetica,sans-Serif" font-size="10.00">Fiea::Engine::Actions</text>
<text xml:space="preserve" text-anchor="middle" x="85.25" y="-122.5" font-family="Helvetica,sans-Serif" font-size="10.00">::ActionIncrement::ActionIncrement</text>
</a>
</g>
</g>
<!-- Node2 -->
<g id="Node000002" class="node">
<title>Node2</title>
<g id="a_Node000002"><a xlink:href="class_fiea_1_1_engine_1_1_actions_1_1_action.html#ae2af386f7122152003b00da79393e19e" target="_top" xlink:title=" ">
<polygon fill="white" stroke="#666666" points="316.25,-170 206.5,-170 206.5,-138 316.25,-138 316.25,-170"/>
<text xml:space="preserve" text-anchor="start" x="214.5" y="-156.5" font-family="Helvetica,sans-Serif" font-size="10.00">Fiea::Engine::Actions</text>
<text xml:space="preserve" text-anchor="middle" x="261.38" y="-144.5" font-family="Helvetica,sans-Serif" font-size="10.00">::Action::Action</text>
</a>
</g>
</g>
<!-- Node1&#45;&gt;Node2 -->
<g id="edge1_Node000001_Node000002" class="edge">
<title>Node1&#45;&gt;Node2</title>
<g id="a_edge1_Node000001_Node000002"><a xlink:title=" ">
<path fill="none" stroke="#63b8ff" d="M170.76,-142.68C178.91,-143.71 187.09,-144.74 195.02,-145.74"/>
<polygon fill="#63b8ff" stroke="#63b8ff" points="194.55,-149.21 204.91,-146.99 195.43,-142.27 194.55,-149.21"/>
</a>
</g>
</g>
<!-- Node4 -->
<g id="Node000004" class="node">
<title>Node4</title>
<g id="a_Node000004"><a xlink:href="class_fiea_1_1_engine_1_1_r_t_t_i.html#a876bebbe7b3149483c43a87f55f4ea99" target="_top" xlink:title=" ">
<polygon fill="white" stroke="#666666" points="457.5,-126 359,-126 359,-94 457.5,-94 457.5,-126"/>
<text xml:space="preserve" text-anchor="start" x="367" y="-112.5" font-family="Helvetica,sans-Serif" font-size="10.00">Fiea::Engine::RTTI</text>
<text xml:space="preserve" text-anchor="middle" x="408.25" y="-100.5" font-family="Helvetica,sans-Serif" font-size="10.00">::TypeIdInstance</text>
</a>
</g>
</g>
<!-- Node1&#45;&gt;Node4 -->
<g id="edge14_Node000001_Node000004" class="edge">
<title>Node1&#45;&gt;Node4</title>
<g id="a_edge14_Node000001_Node000004"><a xlink:title=" ">
<path fill="none" stroke="#63b8ff" d="M170.59,-126.22C226.25,-122.4 297.83,-117.5 347.62,-114.09"/>
<polygon fill="#63b8ff" stroke="#63b8ff" points="347.59,-117.6 357.33,-113.42 347.11,-110.61 347.59,-117.6"/>
</a>
</g>
</g>
<!-- Node3 -->
<g id="Node000003" class="node">
<title>Node3</title>
<g id="a_Node000003"><a xlink:href="class_fiea_1_1_engine_1_1_content_1_1_attributed.html#ad1ae014235d9d8b62b36066c94164148" target="_top" xlink:title=" ">
<polygon fill="white" stroke="#666666" points="464.25,-194 352.25,-194 352.25,-162 464.25,-162 464.25,-194"/>
<text xml:space="preserve" text-anchor="start" x="360.25" y="-180.5" font-family="Helvetica,sans-Serif" font-size="10.00">Fiea::Engine::Content</text>
<text xml:space="preserve" text-anchor="middle" x="408.25" y="-168.5" font-family="Helvetica,sans-Serif" font-size="10.00">::Attributed::Attributed</text>
</a>
</g>
</g>
<!-- Node2&#45;&gt;Node3 -->
<g id="edge2_Node000002_Node000003" class="edge">
<title>Node2&#45;&gt;Node3</title>
<g id="a_edge2_Node000002_Node000003"><a xlink:title=" ">
<path fill="none" stroke="#63b8ff" d="M316.73,-163C324.59,-164.31 332.75,-165.66 340.82,-166.99"/>
<polygon fill="#63b8ff" stroke="#63b8ff" points="340.17,-170.44 350.61,-168.62 341.32,-163.53 340.17,-170.44"/>
</a>
</g>
</g>
<!-- Node2&#45;&gt;Node4 -->
<g id="edge4_Node000002_Node000004" class="edge">
<title>Node2&#45;&gt;Node4</title>
<g id="a_edge4_Node000002_Node000004"><a xlink:title=" ">
<path fill="none" stroke="#63b8ff" d="M316.32,-137.62C326.59,-134.5 337.39,-131.22 347.82,-128.05"/>
<polygon fill="#63b8ff" stroke="#63b8ff" points="348.52,-131.5 357.07,-125.24 346.48,-124.8 348.52,-131.5"/>
</a>
</g>
</g>
<!-- Node3&#45;&gt;Node3 -->
<g id="edge3_Node000003_Node000003" class="edge">
<title>Node3&#45;&gt;Node3</title>
<g id="a_edge3_Node000003_Node000003"><a xlink:title=" ">
<path fill="none" stroke="#63b8ff" d="M382.03,-194.44C377.13,-203.58 385.87,-212 408.25,-212 420.49,-212 428.65,-209.48 432.73,-205.71"/>
<polygon fill="#63b8ff" stroke="#63b8ff" points="436.17,-206.36 434.24,-195.94 429.25,-205.28 436.17,-206.36"/>
</a>
</g>
</g>
<!-- Node4&#45;&gt;Node4 -->
<g id="edge13_Node000004_Node000004" class="edge">
<title>Node4&#45;&gt;Node4</title>
<g id="a_edge13_Node000004_Node000004"><a xlink:title=" ">
<path fill="none" stroke="#63b8ff" d="M382.03,-126.44C377.13,-135.58 385.87,-144 408.25,-144 420.49,-144 428.65,-141.48 432.73,-137.71"/>
<polygon fill="#63b8ff" stroke="#63b8ff" points="436.17,-138.36 434.24,-127.94 429.25,-137.28 436.17,-138.36"/>
</a>
</g>
</g>
<!-- Node5 -->
<g id="Node000005" class="node">
<title>Node5</title>
<g id="a_Node000005"><a xlink:href="class_fiea_1_1_engine_1_1_r_t_t_i.html#a15bd5993c8ad04da47af440298ebbb30" target="_top" xlink:title=" ">
<polygon fill="white" stroke="#666666" points="616.75,-158 500.25,-158 500.25,-138 616.75,-138 616.75,-158"/>
<text xml:space="preserve" text-anchor="middle" x="558.5" y="-144.5" font-family="Helvetica,sans-Serif" font-size="10.00">Fiea::Engine::RTTI::As</text>
</a>
</g>
</g>
<!-- Node4&#45;&gt;Node5 -->
<g id="edge5_Node000004_Node000005" class="edge">
<title>Node4&#45;&gt;Node5</title>
<g id="a_edge5_Node000004_Node000005"><a xlink:title=" ">
<path fill="none" stroke="#63b8ff" d="M457.79,-122.44C473.15,-126.38 490.18,-130.74 505.75,-134.74"/>
<polygon fill="#63b8ff" stroke="#63b8ff" points="504.77,-138.1 515.32,-137.19 506.5,-131.32 504.77,-138.1"/>
</a>
</g>
</g>
<!-- Node6 -->
<g id="Node000006" class="node">
<title>Node6</title>
<g id="a_Node000006"><a xlink:href="class_fiea_1_1_engine_1_1_r_t_t_i.html#ac0a7d875e4513b2aca7594abcd4418ef" target="_top" xlink:title=" ">
<polygon fill="white" stroke="#666666" points="765.5,-180 652.75,-180 652.75,-160 765.5,-160 765.5,-180"/>
<text xml:space="preserve" text-anchor="middle" x="709.12" y="-166.5" font-family="Helvetica,sans-Serif" font-size="10.00">Fiea::Engine::RTTI::Is</text>
</a>
</g>
</g>
<!-- Node4&#45;&gt;Node6 -->
<g id="edge10_Node000004_Node000006" class="edge">
<title>Node4&#45;&gt;Node6</title>
<g id="a_edge10_Node000004_Node000006"><a xlink:title=" ">
<path fill="none" stroke="#63b8ff" d="M428.3,-126.34C445.73,-140.14 472.89,-158.93 500.25,-167 545.97,-180.5 599.85,-180.86 641.3,-178.06"/>
<polygon fill="#63b8ff" stroke="#63b8ff" points="641.43,-181.56 651.13,-177.31 640.89,-174.58 641.43,-181.56"/>
</a>
</g>
</g>
<!-- Node7 -->
<g id="Node000007" class="node">
<title>Node7</title>
<g id="a_Node000007"><a xlink:href="class_fiea_1_1_engine_1_1_r_t_t_i.html#a13000029a2e6cced30b831e466e07cae" target="_top" xlink:title=" ">
<polygon fill="white" stroke="#666666" points="758.38,-126 659.88,-126 659.88,-94 758.38,-94 758.38,-126"/>
<text xml:space="preserve" text-anchor="start" x="667.88" y="-112.5" font-family="Helvetica,sans-Serif" font-size="10.00">Fiea::Engine::RTTI</text>
<text xml:space="preserve" text-anchor="middle" x="709.12" y="-100.5" font-family="Helvetica,sans-Serif" font-size="10.00">::RTTI</text>
</a>
</g>
</g>
<!-- Node4&#45;&gt;Node7 -->
<g id="edge11_Node000004_Node000007" class="edge">
<title>Node4&#45;&gt;Node7</title>
<g id="a_edge11_Node000004_Node000007"><a xlink:title=" ">
<path fill="none" stroke="#63b8ff" d="M457.93,-110C509.82,-110 592.04,-110 647.95,-110"/>
<polygon fill="#63b8ff" stroke="#63b8ff" points="647.95,-113.5 657.95,-110 647.95,-106.5 647.95,-113.5"/>
</a>
</g>
</g>
<!-- Node8 -->
<g id="Node000008" class="node">
<title>Node8</title>
<g id="a_Node000008"><a xlink:href="class_fiea_1_1_engine_1_1_r_t_t_i.html#a7f70ad5ba0f8a3388543d63d72892575" target="_top" xlink:title=" ">
<polygon fill="white" stroke="#666666" points="607.75,-82 509.25,-82 509.25,-50 607.75,-50 607.75,-82"/>
<text xml:space="preserve" text-anchor="start" x="517.25" y="-68.5" font-family="Helvetica,sans-Serif" font-size="10.00">Fiea::Engine::RTTI</text>
<text xml:space="preserve" text-anchor="middle" x="558.5" y="-56.5" font-family="Helvetica,sans-Serif" font-size="10.00">::Equals</text>
</a>
</g>
</g>
<!-- Node4&#45;&gt;Node8 -->
<g id="edge8_Node000004_Node000008" class="edge">
<title>Node4&#45;&gt;Node8</title>
<g id="a_edge8_Node000004_Node000008"><a xlink:title=" ">
<path fill="none" stroke="#63b8ff" d="M457.79,-95.59C470.59,-91.79 484.55,-87.65 497.86,-83.7"/>
<polygon fill="#63b8ff" stroke="#63b8ff" points="498.81,-87.07 507.4,-80.87 496.81,-80.36 498.81,-87.07"/>
</a>
</g>
</g>
<!-- Node9 -->
<g id="Node000009" class="node">
<title>Node9</title>
<g id="a_Node000009"><a xlink:href="class_fiea_1_1_engine_1_1_r_t_t_i.html#a43a7d187e332a17d2c699bc2c8136a30" target="_top" xlink:title=" ">
<polygon fill="white" stroke="#666666" points="607.75,-32 509.25,-32 509.25,0 607.75,0 607.75,-32"/>
<text xml:space="preserve" text-anchor="start" x="517.25" y="-18.5" font-family="Helvetica,sans-Serif" font-size="10.00">Fiea::Engine::RTTI</text>
<text xml:space="preserve" text-anchor="middle" x="558.5" y="-6.5" font-family="Helvetica,sans-Serif" font-size="10.00">::ToString</text>
</a>
</g>
</g>
<!-- Node4&#45;&gt;Node9 -->
<g id="edge12_Node000004_Node000009" class="edge">
<title>Node4&#45;&gt;Node9</title>
<g id="a_edge12_Node000004_Node000009"><a xlink:title=" ">
<path fill="none" stroke="#63b8ff" d="M428.19,-93.51C445.97,-78.56 473.74,-56.54 500.25,-41 502.26,-39.82 504.34,-38.66 506.45,-37.53"/>
<polygon fill="#63b8ff" stroke="#63b8ff" points="507.84,-40.75 515.21,-33.13 504.7,-34.5 507.84,-40.75"/>
</a>
</g>
</g>
<!-- Node5&#45;&gt;Node6 -->
<g id="edge6_Node000005_Node000006" class="edge">
<title>Node5&#45;&gt;Node6</title>
<g id="a_edge6_Node000005_Node000006"><a xlink:title=" ">
<path fill="none" stroke="#63b8ff" d="M616.96,-156.51C624.85,-157.67 633,-158.88 641.03,-160.07"/>
<polygon fill="#63b8ff" stroke="#63b8ff" points="640.38,-163.51 650.78,-161.51 641.41,-156.59 640.38,-163.51"/>
</a>
</g>
</g>
<!-- Node5&#45;&gt;Node7 -->
<g id="edge7_Node000005_Node000007" class="edge">
<title>Node5&#45;&gt;Node7</title>
<g id="a_edge7_Node000005_Node000007"><a xlink:title=" ">
<path fill="none" stroke="#63b8ff" d="M600.51,-137.52C615.38,-133.71 632.49,-129.34 648.63,-125.21"/>
<polygon fill="#63b8ff" stroke="#63b8ff" points="649.32,-128.65 658.14,-122.78 647.59,-121.87 649.32,-128.65"/>
</a>
</g>
</g>
<!-- Node8&#45;&gt;Node7 -->
<g id="edge9_Node000008_Node000007" class="edge">
<title>Node8&#45;&gt;Node7</title>
<g id="a_edge9_Node000008_Node000007"><a xlink:title=" ">
<path fill="none" stroke="#63b8ff" d="M608.17,-80.41C621.19,-84.26 635.42,-88.47 648.94,-92.48"/>
<polygon fill="#63b8ff" stroke="#63b8ff" points="647.57,-95.72 658.15,-95.21 649.56,-89.01 647.57,-95.72"/>
</a>
</g>
</g>
</g>
</svg>
