<?xml version="1.0" encoding="UTF-8" standalone="no"?>
<!DOCTYPE svg PUBLIC "-//W3C//DTD SVG 1.1//EN"
 "http://www.w3.org/Graphics/SVG/1.1/DTD/svg11.dtd">
<!-- Generated by graphviz version 13.1.0 (20250701.0955)
 -->
<!-- Title: Fiea::Engine::Content::ScopeWriter::AddActionToPredecessor Pages: 1 -->
<svg width="861pt" height="504pt"
 viewBox="0.00 0.00 861.00 504.00" xmlns="http://www.w3.org/2000/svg" xmlns:xlink="http://www.w3.org/1999/xlink">
<g id="graph0" class="graph" transform="scale(1 1) rotate(0) translate(4 500)">
<title>Fiea::Engine::Content::ScopeWriter::AddActionToPredecessor</title>
<!-- Node1 -->
<g id="Node000001" class="node">
<title>Node1</title>
<g id="a_Node000001"><a xlink:title=" ">
<polygon fill="#999999" stroke="#666666" points="191.5,-148 0,-148 0,-116 191.5,-116 191.5,-148"/>
<text xml:space="preserve" text-anchor="start" x="8" y="-134.5" font-family="Helvetica,sans-Serif" font-size="10.00">Fiea::Engine::Content</text>
<text xml:space="preserve" text-anchor="middle" x="95.75" y="-122.5" font-family="Helvetica,sans-Serif" font-size="10.00">::ScopeWriter::AddActionToPredecessor</text>
</a>
</g>
</g>
<!-- Node2 -->
<g id="Node000002" class="node">
<title>Node2</title>
<g id="a_Node000002"><a xlink:href="class_fiea_1_1_engine_1_1_game_object.html#a2d9e0734194c82c1f1d319e49c845c0f" target="_top" xlink:title=" ">
<polygon fill="white" stroke="#666666" points="366.88,-386 235.38,-386 235.38,-354 366.88,-354 366.88,-386"/>
<text xml:space="preserve" text-anchor="start" x="243.38" y="-372.5" font-family="Helvetica,sans-Serif" font-size="10.00">Fiea::Engine::GameObject</text>
<text xml:space="preserve" text-anchor="middle" x="301.12" y="-360.5" font-family="Helvetica,sans-Serif" font-size="10.00">::AddAction</text>
</a>
</g>
</g>
<!-- Node1&#45;&gt;Node2 -->
<g id="edge1_Node000001_Node000002" class="edge">
<title>Node1&#45;&gt;Node2</title>
<g id="a_edge1_Node000001_Node000002"><a xlink:title=" ">
<path fill="none" stroke="#63b8ff" d="M105.39,-148.29C124.24,-182.79 171.85,-264.61 227.5,-320 237.67,-330.12 250.13,-339.54 261.84,-347.4"/>
<polygon fill="#63b8ff" stroke="#63b8ff" points="259.87,-350.3 270.17,-352.81 263.68,-344.43 259.87,-350.3"/>
</a>
</g>
</g>
<!-- Node8 -->
<g id="Node000008" class="node">
<title>Node8</title>
<g id="a_Node000008"><a xlink:href="class_fiea_1_1_engine_1_1_content_1_1_scope.html#a002f54731a8996f37c4f725d8175ffee" target="_top" xlink:title="Appends a new Scope as a child under the specified key.">
<polygon fill="white" stroke="#666666" points="359.38,-311 242.88,-311 242.88,-279 359.38,-279 359.38,-311"/>
<text xml:space="preserve" text-anchor="start" x="250.88" y="-297.5" font-family="Helvetica,sans-Serif" font-size="10.00">Fiea::Engine::Content</text>
<text xml:space="preserve" text-anchor="middle" x="301.12" y="-285.5" font-family="Helvetica,sans-Serif" font-size="10.00">::Scope::AppendScope</text>
</a>
</g>
</g>
<!-- Node1&#45;&gt;Node8 -->
<g id="edge9_Node000001_Node000008" class="edge">
<title>Node1&#45;&gt;Node8</title>
<g id="a_edge9_Node000001_Node000008"><a xlink:title=" ">
<path fill="none" stroke="#63b8ff" d="M116.99,-148.22C153.14,-177.2 228.92,-237.93 270.78,-271.48"/>
<polygon fill="#63b8ff" stroke="#63b8ff" points="268.49,-274.13 278.48,-277.65 272.87,-268.67 268.49,-274.13"/>
</a>
</g>
</g>
<!-- Node13 -->
<g id="Node000013" class="node">
<title>Node13</title>
<g id="a_Node000013"><a xlink:href="class_fiea_1_1_engine_1_1_r_t_t_i.html#a15bd5993c8ad04da47af440298ebbb30" target="_top" xlink:title=" ">
<polygon fill="white" stroke="#666666" points="541.88,-98 425.38,-98 425.38,-78 541.88,-78 541.88,-98"/>
<text xml:space="preserve" text-anchor="middle" x="483.62" y="-84.5" font-family="Helvetica,sans-Serif" font-size="10.00">Fiea::Engine::RTTI::As</text>
</a>
</g>
</g>
<!-- Node1&#45;&gt;Node13 -->
<g id="edge19_Node000001_Node000013" class="edge">
<title>Node1&#45;&gt;Node13</title>
<g id="a_edge19_Node000001_Node000013"><a xlink:title=" ">
<path fill="none" stroke="#63b8ff" d="M191.64,-121.18C260.44,-113.33 351.89,-102.91 413.77,-95.85"/>
<polygon fill="#63b8ff" stroke="#63b8ff" points="413.93,-99.36 423.47,-94.75 413.13,-92.4 413.93,-99.36"/>
</a>
</g>
</g>
<!-- Node16 -->
<g id="Node000016" class="node">
<title>Node16</title>
<g id="a_Node000016"><a xlink:href="struct_fiea_1_1_engine_1_1_content_1_1_i_factory_service.html#a06ed01632b58a4faeb159d3e9a0ef51f" target="_top" xlink:title=" ">
<polygon fill="white" stroke="#666666" points="364.25,-82 238,-82 238,-50 364.25,-50 364.25,-82"/>
<text xml:space="preserve" text-anchor="start" x="246" y="-68.5" font-family="Helvetica,sans-Serif" font-size="10.00">Fiea::Engine::Content</text>
<text xml:space="preserve" text-anchor="middle" x="301.12" y="-56.5" font-family="Helvetica,sans-Serif" font-size="10.00">::IFactoryService::Create</text>
</a>
</g>
</g>
<!-- Node1&#45;&gt;Node16 -->
<g id="edge22_Node000001_Node000016" class="edge">
<title>Node1&#45;&gt;Node16</title>
<g id="a_edge22_Node000001_Node000016"><a xlink:title=" ">
<path fill="none" stroke="#63b8ff" d="M147.55,-115.52C175.19,-106.54 209.6,-95.38 238.74,-85.92"/>
<polygon fill="#63b8ff" stroke="#63b8ff" points="239.75,-89.27 248.19,-82.86 237.59,-82.61 239.75,-89.27"/>
</a>
</g>
</g>
<!-- Node18 -->
<g id="Node000018" class="node">
<title>Node18</title>
<g id="a_Node000018"><a xlink:href="class_fiea_1_1_engine_1_1_content_1_1_scope.html#ac4627f740867a929957ce0647f436e02" target="_top" xlink:title=" ">
<polygon fill="white" stroke="#666666" points="356.75,-170 245.5,-170 245.5,-138 356.75,-138 356.75,-170"/>
<text xml:space="preserve" text-anchor="start" x="253.5" y="-156.5" font-family="Helvetica,sans-Serif" font-size="10.00">Fiea::Engine::Content</text>
<text xml:space="preserve" text-anchor="middle" x="301.12" y="-144.5" font-family="Helvetica,sans-Serif" font-size="10.00">::Scope::GetParent</text>
</a>
</g>
</g>
<!-- Node1&#45;&gt;Node18 -->
<g id="edge25_Node000001_Node000018" class="edge">
<title>Node1&#45;&gt;Node18</title>
<g id="a_edge25_Node000001_Node000018"><a xlink:title=" ">
<path fill="none" stroke="#63b8ff" d="M191.89,-142.29C206.18,-143.84 220.65,-145.4 234.16,-146.86"/>
<polygon fill="#63b8ff" stroke="#63b8ff" points="233.43,-150.31 243.75,-147.9 234.18,-143.35 233.43,-150.31"/>
</a>
</g>
</g>
<!-- Node19 -->
<g id="Node000019" class="node">
<title>Node19</title>
<g id="a_Node000019"><a xlink:href="class_fiea_1_1_engine_1_1_service_manager.html#a8aac9b15b7e5483c2b1cd5febe590a0c" target="_top" xlink:title=" ">
<polygon fill="white" stroke="#666666" points="374.75,-32 227.5,-32 227.5,0 374.75,0 374.75,-32"/>
<text xml:space="preserve" text-anchor="start" x="235.5" y="-18.5" font-family="Helvetica,sans-Serif" font-size="10.00">Fiea::Engine::ServiceManager</text>
<text xml:space="preserve" text-anchor="middle" x="301.12" y="-6.5" font-family="Helvetica,sans-Serif" font-size="10.00">::ProvideInterface</text>
</a>
</g>
</g>
<!-- Node1&#45;&gt;Node19 -->
<g id="edge27_Node000001_Node000019" class="edge">
<title>Node1&#45;&gt;Node19</title>
<g id="a_edge27_Node000001_Node000019"><a xlink:title=" ">
<path fill="none" stroke="#63b8ff" d="M116.47,-115.65C141.16,-95.82 185.33,-62.41 227.5,-41 230.34,-39.56 233.29,-38.17 236.29,-36.83"/>
<polygon fill="#63b8ff" stroke="#63b8ff" points="237.39,-40.16 245.27,-33.08 234.69,-33.7 237.39,-40.16"/>
</a>
</g>
</g>
<!-- Node3 -->
<g id="Node000003" class="node">
<title>Node3</title>
<g id="a_Node000003"><a xlink:href="class_fiea_1_1_engine_1_1_content_1_1_scope.html#aa91d6470fd3d3f402bbb2e765be54455" target="_top" xlink:title="Appends a new Datum with the given key.">
<polygon fill="white" stroke="#666666" points="539.25,-424 428,-424 428,-392 539.25,-392 539.25,-424"/>
<text xml:space="preserve" text-anchor="start" x="436" y="-410.5" font-family="Helvetica,sans-Serif" font-size="10.00">Fiea::Engine::Content</text>
<text xml:space="preserve" text-anchor="middle" x="483.62" y="-398.5" font-family="Helvetica,sans-Serif" font-size="10.00">::Scope::Append</text>
</a>
</g>
</g>
<!-- Node2&#45;&gt;Node3 -->
<g id="edge2_Node000002_Node000003" class="edge">
<title>Node2&#45;&gt;Node3</title>
<g id="a_edge2_Node000002_Node000003"><a xlink:title=" ">
<path fill="none" stroke="#63b8ff" d="M367.29,-383.72C383.37,-387.1 400.61,-390.73 416.72,-394.13"/>
<polygon fill="#63b8ff" stroke="#63b8ff" points="415.68,-397.48 426.19,-396.12 417.13,-390.63 415.68,-397.48"/>
</a>
</g>
</g>
<!-- Node4 -->
<g id="Node000004" class="node">
<title>Node4</title>
<g id="a_Node000004"><a xlink:href="class_fiea_1_1_engine_1_1_content_1_1_scope.html#ad924c01785b239991fc0e56a63295612" target="_top" xlink:title="Finds a Datum by key.">
<polygon fill="white" stroke="#666666" points="539.25,-374 428,-374 428,-342 539.25,-342 539.25,-374"/>
<text xml:space="preserve" text-anchor="start" x="436" y="-360.5" font-family="Helvetica,sans-Serif" font-size="10.00">Fiea::Engine::Content</text>
<text xml:space="preserve" text-anchor="middle" x="483.62" y="-348.5" font-family="Helvetica,sans-Serif" font-size="10.00">::Scope::Find</text>
</a>
</g>
</g>
<!-- Node2&#45;&gt;Node4 -->
<g id="edge3_Node000002_Node000004" class="edge">
<title>Node2&#45;&gt;Node4</title>
<g id="a_edge3_Node000002_Node000004"><a xlink:title=" ">
<path fill="none" stroke="#63b8ff" d="M367.29,-365.67C383.22,-364.61 400.27,-363.47 416.26,-362.41"/>
<polygon fill="#63b8ff" stroke="#63b8ff" points="416.42,-365.91 426.16,-361.75 415.95,-358.92 416.42,-365.91"/>
</a>
</g>
</g>
<!-- Node5 -->
<g id="Node000005" class="node">
<title>Node5</title>
<g id="a_Node000005"><a xlink:href="class_fiea_1_1_engine_1_1_content_1_1_datum.html#acb3ba55fc9b39b876cf3334d0305f4fc" target="_top" xlink:title=" ">
<polygon fill="white" stroke="#666666" points="539.25,-474 428,-474 428,-442 539.25,-442 539.25,-474"/>
<text xml:space="preserve" text-anchor="start" x="436" y="-460.5" font-family="Helvetica,sans-Serif" font-size="10.00">Fiea::Engine::Content</text>
<text xml:space="preserve" text-anchor="middle" x="483.62" y="-448.5" font-family="Helvetica,sans-Serif" font-size="10.00">::Datum::Push</text>
</a>
</g>
</g>
<!-- Node2&#45;&gt;Node5 -->
<g id="edge4_Node000002_Node000005" class="edge">
<title>Node2&#45;&gt;Node5</title>
<g id="a_edge4_Node000002_Node000005"><a xlink:title=" ">
<path fill="none" stroke="#63b8ff" d="M327.29,-386.44C348.84,-400.08 381.03,-419.36 410.75,-433 414.05,-434.52 417.47,-435.99 420.95,-437.42"/>
<polygon fill="#63b8ff" stroke="#63b8ff" points="419.5,-440.61 430.08,-441.02 422.06,-434.1 419.5,-440.61"/>
</a>
</g>
</g>
<!-- Node6 -->
<g id="Node000006" class="node">
<title>Node6</title>
<g id="a_Node000006"><a xlink:href="class_fiea_1_1_engine_1_1_content_1_1_datum.html#a818f812e4489e57885c88951bc0601b3" target="_top" xlink:title=" ">
<polygon fill="white" stroke="#666666" points="704.5,-496 593.25,-496 593.25,-464 704.5,-464 704.5,-496"/>
<text xml:space="preserve" text-anchor="start" x="601.25" y="-482.5" font-family="Helvetica,sans-Serif" font-size="10.00">Fiea::Engine::Content</text>
<text xml:space="preserve" text-anchor="middle" x="648.88" y="-470.5" font-family="Helvetica,sans-Serif" font-size="10.00">::Datum::ResizeArray</text>
</a>
</g>
</g>
<!-- Node5&#45;&gt;Node6 -->
<g id="edge5_Node000005_Node000006" class="edge">
<title>Node5&#45;&gt;Node6</title>
<g id="a_edge5_Node000005_Node000006"><a xlink:title=" ">
<path fill="none" stroke="#63b8ff" d="M539.44,-465.39C553.03,-467.22 567.74,-469.2 581.81,-471.1"/>
<polygon fill="#63b8ff" stroke="#63b8ff" points="581.05,-474.53 591.43,-472.39 581.98,-467.59 581.05,-474.53"/>
</a>
</g>
</g>
<!-- Node7 -->
<g id="Node000007" class="node">
<title>Node7</title>
<g id="a_Node000007"><a xlink:href="class_fiea_1_1_engine_1_1_content_1_1_datum.html#a921193447f6e42f596ac0a7694b02830" target="_top" xlink:title=" ">
<polygon fill="white" stroke="#666666" points="852.5,-474 741.25,-474 741.25,-442 852.5,-442 852.5,-474"/>
<text xml:space="preserve" text-anchor="start" x="749.25" y="-460.5" font-family="Helvetica,sans-Serif" font-size="10.00">Fiea::Engine::Content</text>
<text xml:space="preserve" text-anchor="middle" x="796.88" y="-448.5" font-family="Helvetica,sans-Serif" font-size="10.00">::Datum::Scope</text>
</a>
</g>
</g>
<!-- Node5&#45;&gt;Node7 -->
<g id="edge8_Node000005_Node000007" class="edge">
<title>Node5&#45;&gt;Node7</title>
<g id="a_edge8_Node000005_Node000007"><a xlink:title=" ">
<path fill="none" stroke="#63b8ff" d="M539.5,-456.18C556.49,-455.69 575.26,-455.24 592.5,-455 642.61,-454.3 655.15,-454.17 705.25,-455 713.06,-455.13 721.25,-455.32 729.37,-455.55"/>
<polygon fill="#63b8ff" stroke="#63b8ff" points="729.16,-459.04 739.26,-455.84 729.36,-452.04 729.16,-459.04"/>
</a>
</g>
</g>
<!-- Node6&#45;&gt;Node7 -->
<g id="edge6_Node000006_Node000007" class="edge">
<title>Node6&#45;&gt;Node7</title>
<g id="a_edge6_Node000006_Node000007"><a xlink:title=" ">
<path fill="none" stroke="#63b8ff" d="M704.66,-471.75C712.78,-470.52 721.22,-469.25 729.55,-467.99"/>
<polygon fill="#63b8ff" stroke="#63b8ff" points="729.92,-471.48 739.29,-466.53 728.88,-464.56 729.92,-471.48"/>
</a>
</g>
</g>
<!-- Node7&#45;&gt;Node7 -->
<g id="edge7_Node000007_Node000007" class="edge">
<title>Node7&#45;&gt;Node7</title>
<g id="a_edge7_Node000007_Node000007"><a xlink:title=" ">
<path fill="none" stroke="#63b8ff" d="M770.45,-474.44C765.52,-483.58 774.33,-492 796.88,-492 809.21,-492 817.43,-489.48 821.54,-485.71"/>
<polygon fill="#63b8ff" stroke="#63b8ff" points="824.98,-486.36 823.06,-475.94 818.06,-485.28 824.98,-486.36"/>
</a>
</g>
</g>
<!-- Node8&#45;&gt;Node3 -->
<g id="edge10_Node000008_Node000003" class="edge">
<title>Node8&#45;&gt;Node3</title>
<g id="a_edge10_Node000008_Node000003"><a xlink:title=" ">
<path fill="none" stroke="#63b8ff" d="M328.63,-311.33C342.84,-320.54 360.33,-332.66 374.75,-345 392.43,-360.12 391.21,-370.38 410.75,-383 412.87,-384.37 415.07,-385.67 417.33,-386.91"/>
<polygon fill="#63b8ff" stroke="#63b8ff" points="415.68,-390 426.2,-391.29 418.78,-383.72 415.68,-390"/>
</a>
</g>
</g>
<!-- Node8&#45;&gt;Node4 -->
<g id="edge11_Node000008_Node000004" class="edge">
<title>Node8&#45;&gt;Node4</title>
<g id="a_edge11_Node000008_Node000004"><a xlink:title=" ">
<path fill="none" stroke="#63b8ff" d="M349.17,-311.48C368.28,-318.17 390.57,-325.96 410.75,-333 415.37,-334.61 420.15,-336.28 424.95,-337.95"/>
<polygon fill="#63b8ff" stroke="#63b8ff" points="423.43,-341.13 434.02,-341.11 425.73,-334.51 423.43,-341.13"/>
</a>
</g>
</g>
<!-- Node8&#45;&gt;Node5 -->
<g id="edge13_Node000008_Node000005" class="edge">
<title>Node8&#45;&gt;Node5</title>
<g id="a_edge13_Node000008_Node000005"><a xlink:title=" ">
<path fill="none" stroke="#63b8ff" d="M333.9,-311.32C347.93,-319.81 363.71,-331.29 374.75,-345 401.26,-377.91 380.08,-403.93 410.75,-433 412.97,-435.1 415.37,-437.03 417.9,-438.79"/>
<polygon fill="#63b8ff" stroke="#63b8ff" points="415.88,-441.66 426.28,-443.73 419.44,-435.63 415.88,-441.66"/>
</a>
</g>
</g>
<!-- Node9 -->
<g id="Node000009" class="node">
<title>Node9</title>
<g id="a_Node000009"><a xlink:href="class_fiea_1_1_engine_1_1_content_1_1_datum.html#a6e9dfba6e16fddc4efc39b8182dad89f" target="_top" xlink:title=" ">
<polygon fill="white" stroke="#666666" points="539.25,-274 428,-274 428,-242 539.25,-242 539.25,-274"/>
<text xml:space="preserve" text-anchor="start" x="436" y="-260.5" font-family="Helvetica,sans-Serif" font-size="10.00">Fiea::Engine::Content</text>
<text xml:space="preserve" text-anchor="middle" x="483.62" y="-248.5" font-family="Helvetica,sans-Serif" font-size="10.00">::Datum::IsType</text>
</a>
</g>
</g>
<!-- Node8&#45;&gt;Node9 -->
<g id="edge12_Node000008_Node000009" class="edge">
<title>Node8&#45;&gt;Node9</title>
<g id="a_edge12_Node000008_Node000009"><a xlink:title=" ">
<path fill="none" stroke="#63b8ff" d="M359.73,-283.19C377.85,-279.48 397.99,-275.35 416.63,-271.53"/>
<polygon fill="#63b8ff" stroke="#63b8ff" points="417.14,-275 426.23,-269.56 415.73,-268.14 417.14,-275"/>
</a>
</g>
</g>
<!-- Node10 -->
<g id="Node000010" class="node">
<title>Node10</title>
<g id="a_Node000010"><a xlink:href="class_fiea_1_1_engine_1_1_content_1_1_scope.html#a6631343c968c233ab1d9c3e05c3f4fe9" target="_top" xlink:title=" ">
<polygon fill="white" stroke="#666666" points="704.5,-180 593.25,-180 593.25,-148 704.5,-148 704.5,-180"/>
<text xml:space="preserve" text-anchor="start" x="601.25" y="-166.5" font-family="Helvetica,sans-Serif" font-size="10.00">Fiea::Engine::Content</text>
<text xml:space="preserve" text-anchor="middle" x="648.88" y="-154.5" font-family="Helvetica,sans-Serif" font-size="10.00">::Scope::Scope</text>
</a>
</g>
</g>
<!-- Node8&#45;&gt;Node10 -->
<g id="edge14_Node000008_Node000010" class="edge">
<title>Node8&#45;&gt;Node10</title>
<g id="a_edge14_Node000008_Node000010"><a xlink:title=" ">
<path fill="none" stroke="#63b8ff" d="M312.1,-278.86C328.88,-253.34 365.42,-204.36 410.75,-183 464.3,-157.77 532.22,-154.83 581.63,-157.14"/>
<polygon fill="#63b8ff" stroke="#63b8ff" points="581.14,-160.62 591.32,-157.68 581.53,-153.63 581.14,-160.62"/>
</a>
</g>
</g>
<!-- Node11 -->
<g id="Node000011" class="node">
<title>Node11</title>
<g id="a_Node000011"><a xlink:href="class_fiea_1_1_engine_1_1_content_1_1_scope.html#af6a94922a8fa123c3b22b7b4485963de" target="_top" xlink:title=" ">
<polygon fill="white" stroke="#666666" points="539.25,-224 428,-224 428,-192 539.25,-192 539.25,-224"/>
<text xml:space="preserve" text-anchor="start" x="436" y="-210.5" font-family="Helvetica,sans-Serif" font-size="10.00">Fiea::Engine::Content</text>
<text xml:space="preserve" text-anchor="middle" x="483.62" y="-198.5" font-family="Helvetica,sans-Serif" font-size="10.00">::Scope::SetParent</text>
</a>
</g>
</g>
<!-- Node8&#45;&gt;Node11 -->
<g id="edge16_Node000008_Node000011" class="edge">
<title>Node8&#45;&gt;Node11</title>
<g id="a_edge16_Node000008_Node000011"><a xlink:title=" ">
<path fill="none" stroke="#63b8ff" d="M327.76,-278.58C349.33,-265.2 381.3,-246.39 410.75,-233 414.06,-231.5 417.48,-230.03 420.97,-228.6"/>
<polygon fill="#63b8ff" stroke="#63b8ff" points="422.07,-231.93 430.1,-225.02 419.51,-225.41 422.07,-231.93"/>
</a>
</g>
</g>
<!-- Node12 -->
<g id="Node000012" class="node">
<title>Node12</title>
<g id="a_Node000012"><a xlink:href="class_fiea_1_1_engine_1_1_content_1_1_datum.html#a23d1f16d9646f024a5dee1f05dbd5a5e" target="_top" xlink:title=" ">
<polygon fill="white" stroke="#666666" points="539.25,-324 428,-324 428,-292 539.25,-292 539.25,-324"/>
<text xml:space="preserve" text-anchor="start" x="436" y="-310.5" font-family="Helvetica,sans-Serif" font-size="10.00">Fiea::Engine::Content</text>
<text xml:space="preserve" text-anchor="middle" x="483.62" y="-298.5" font-family="Helvetica,sans-Serif" font-size="10.00">::Datum::SetType</text>
</a>
</g>
</g>
<!-- Node8&#45;&gt;Node12 -->
<g id="edge18_Node000008_Node000012" class="edge">
<title>Node8&#45;&gt;Node12</title>
<g id="a_edge18_Node000008_Node000012"><a xlink:title=" ">
<path fill="none" stroke="#63b8ff" d="M359.73,-299.15C377.76,-300.45 397.8,-301.89 416.37,-303.23"/>
<polygon fill="#63b8ff" stroke="#63b8ff" points="415.98,-306.71 426.21,-303.94 416.48,-299.73 415.98,-306.71"/>
</a>
</g>
</g>
<!-- Node10&#45;&gt;Node10 -->
<g id="edge15_Node000010_Node000010" class="edge">
<title>Node10&#45;&gt;Node10</title>
<g id="a_edge15_Node000010_Node000010"><a xlink:title=" ">
<path fill="none" stroke="#63b8ff" d="M622.45,-180.44C617.52,-189.58 626.33,-198 648.88,-198 661.21,-198 669.43,-195.48 673.54,-191.71"/>
<polygon fill="#63b8ff" stroke="#63b8ff" points="676.98,-192.36 675.06,-181.94 670.06,-191.28 676.98,-192.36"/>
</a>
</g>
</g>
<!-- Node11&#45;&gt;Node10 -->
<g id="edge17_Node000011_Node000010" class="edge">
<title>Node11&#45;&gt;Node10</title>
<g id="a_edge17_Node000011_Node000010"><a xlink:title=" ">
<path fill="none" stroke="#63b8ff" d="M539.44,-193.23C553.03,-189.56 567.74,-185.6 581.81,-181.8"/>
<polygon fill="#63b8ff" stroke="#63b8ff" points="582.72,-185.19 591.47,-179.2 580.9,-178.43 582.72,-185.19"/>
</a>
</g>
</g>
<!-- Node14 -->
<g id="Node000014" class="node">
<title>Node14</title>
<g id="a_Node000014"><a xlink:href="class_fiea_1_1_engine_1_1_r_t_t_i.html#ac0a7d875e4513b2aca7594abcd4418ef" target="_top" xlink:title=" ">
<polygon fill="white" stroke="#666666" points="705.25,-67 592.5,-67 592.5,-47 705.25,-47 705.25,-67"/>
<text xml:space="preserve" text-anchor="middle" x="648.88" y="-53.5" font-family="Helvetica,sans-Serif" font-size="10.00">Fiea::Engine::RTTI::Is</text>
</a>
</g>
</g>
<!-- Node13&#45;&gt;Node14 -->
<g id="edge20_Node000013_Node000014" class="edge">
<title>Node13&#45;&gt;Node14</title>
<g id="a_edge20_Node000013_Node000014"><a xlink:title=" ">
<path fill="none" stroke="#63b8ff" d="M539.89,-77.5C553.32,-74.95 567.82,-72.2 581.7,-69.57"/>
<polygon fill="#63b8ff" stroke="#63b8ff" points="582,-73.07 591.18,-67.77 580.7,-66.19 582,-73.07"/>
</a>
</g>
</g>
<!-- Node15 -->
<g id="Node000015" class="node">
<title>Node15</title>
<g id="a_Node000015"><a xlink:href="class_fiea_1_1_engine_1_1_r_t_t_i.html#a13000029a2e6cced30b831e466e07cae" target="_top" xlink:title=" ">
<polygon fill="white" stroke="#666666" points="698.12,-117 599.62,-117 599.62,-85 698.12,-85 698.12,-117"/>
<text xml:space="preserve" text-anchor="start" x="607.62" y="-103.5" font-family="Helvetica,sans-Serif" font-size="10.00">Fiea::Engine::RTTI</text>
<text xml:space="preserve" text-anchor="middle" x="648.88" y="-91.5" font-family="Helvetica,sans-Serif" font-size="10.00">::RTTI</text>
</a>
</g>
</g>
<!-- Node13&#45;&gt;Node15 -->
<g id="edge21_Node000013_Node000015" class="edge">
<title>Node13&#45;&gt;Node15</title>
<g id="a_edge21_Node000013_Node000015"><a xlink:title=" ">
<path fill="none" stroke="#63b8ff" d="M542.18,-92.58C557.03,-93.77 573.05,-95.04 588.01,-96.23"/>
<polygon fill="#63b8ff" stroke="#63b8ff" points="587.46,-99.7 597.7,-97 588.01,-92.72 587.46,-99.7"/>
</a>
</g>
</g>
<!-- Node16&#45;&gt;Node13 -->
<g id="edge23_Node000016_Node000013" class="edge">
<title>Node16&#45;&gt;Node13</title>
<g id="a_edge23_Node000016_Node000013"><a xlink:title=" ">
<path fill="none" stroke="#63b8ff" d="M364.75,-73.63C380.63,-75.57 397.78,-77.66 413.95,-79.63"/>
<polygon fill="#63b8ff" stroke="#63b8ff" points="413.1,-83.05 423.45,-80.79 413.95,-76.1 413.1,-83.05"/>
</a>
</g>
</g>
<!-- Node17 -->
<g id="Node000017" class="node">
<title>Node17</title>
<g id="a_Node000017"><a xlink:href="struct_fiea_1_1_engine_1_1_content_1_1_i_factory_service.html#a287380a07bd649e87bba6b3762554c20" target="_top" xlink:title=" ">
<polygon fill="white" stroke="#666666" points="556.5,-60 410.75,-60 410.75,-28 556.5,-28 556.5,-60"/>
<text xml:space="preserve" text-anchor="start" x="418.75" y="-46.5" font-family="Helvetica,sans-Serif" font-size="10.00">Fiea::Engine::Content</text>
<text xml:space="preserve" text-anchor="middle" x="483.62" y="-34.5" font-family="Helvetica,sans-Serif" font-size="10.00">::IFactoryService::GetFactory</text>
</a>
</g>
</g>
<!-- Node16&#45;&gt;Node17 -->
<g id="edge24_Node000016_Node000017" class="edge">
<title>Node16&#45;&gt;Node17</title>
<g id="a_edge24_Node000016_Node000017"><a xlink:title=" ">
<path fill="none" stroke="#63b8ff" d="M364.75,-58.37C375.94,-57 387.75,-55.56 399.41,-54.14"/>
<polygon fill="#63b8ff" stroke="#63b8ff" points="399.51,-57.66 409.01,-52.97 398.66,-50.71 399.51,-57.66"/>
</a>
</g>
</g>
<!-- Node18&#45;&gt;Node10 -->
<g id="edge26_Node000018_Node000010" class="edge">
<title>Node18&#45;&gt;Node10</title>
<g id="a_edge26_Node000018_Node000010"><a xlink:title=" ">
<path fill="none" stroke="#63b8ff" d="M356.8,-150.25C408.37,-147.4 487.8,-144.77 556.5,-150 564.64,-150.62 573.16,-151.55 581.57,-152.63"/>
<polygon fill="#63b8ff" stroke="#63b8ff" points="581.06,-156.1 591.45,-153.99 582.02,-149.16 581.06,-156.1"/>
</a>
</g>
</g>
</g>
</svg>
