<?xml version="1.0" encoding="UTF-8" standalone="no"?>
<!DOCTYPE svg PUBLIC "-//W3C//DTD SVG 1.1//EN"
 "http://www.w3.org/Graphics/SVG/1.1/DTD/svg11.dtd">
<!-- Generated by graphviz version 13.1.0 (20250701.0955)
 -->
<!-- Title: Fiea::Engine::Actions::ActionDelayed::ActionDelayed Pages: 1 -->
<svg width="1101pt" height="220pt"
 viewBox="0.00 0.00 1101.00 220.00" xmlns="http://www.w3.org/2000/svg" xmlns:xlink="http://www.w3.org/1999/xlink">
<g id="graph0" class="graph" transform="scale(1 1) rotate(0) translate(4 216)">
<title>Fiea::Engine::Actions::ActionDelayed::ActionDelayed</title>
<!-- Node1 -->
<g id="Node000001" class="node">
<title>Node1</title>
<g id="a_Node000001"><a xlink:title=" ">
<polygon fill="#999999" stroke="#666666" points="155.5,-122 0,-122 0,-90 155.5,-90 155.5,-122"/>
<text xml:space="preserve" text-anchor="start" x="8" y="-108.5" font-family="Helvetica,sans-Serif" font-size="10.00">Fiea::Engine::Actions</text>
<text xml:space="preserve" text-anchor="middle" x="77.75" y="-96.5" font-family="Helvetica,sans-Serif" font-size="10.00">::ActionDelayed::ActionDelayed</text>
</a>
</g>
</g>
<!-- Node2 -->
<g id="Node000002" class="node">
<title>Node2</title>
<g id="a_Node000002"><a xlink:href="class_fiea_1_1_engine_1_1_actions_1_1_action_delayed.html#a95679c42e92441cf43d0f5373757beb0" target="_top" xlink:title=" ">
<polygon fill="white" stroke="#666666" points="347,-122 191.5,-122 191.5,-90 347,-90 347,-122"/>
<text xml:space="preserve" text-anchor="start" x="199.5" y="-108.5" font-family="Helvetica,sans-Serif" font-size="10.00">Fiea::Engine::Actions</text>
<text xml:space="preserve" text-anchor="middle" x="269.25" y="-96.5" font-family="Helvetica,sans-Serif" font-size="10.00">::ActionDelayed::ActionDelayed</text>
</a>
</g>
</g>
<!-- Node1&#45;&gt;Node2 -->
<g id="edge1_Node000001_Node000002" class="edge">
<title>Node1&#45;&gt;Node2</title>
<g id="a_edge1_Node000001_Node000002"><a xlink:title=" ">
<path fill="none" stroke="#63b8ff" d="M155.83,-106C163.77,-106 171.88,-106 179.93,-106"/>
<polygon fill="#63b8ff" stroke="#63b8ff" points="179.73,-109.5 189.73,-106 179.73,-102.5 179.73,-109.5"/>
</a>
</g>
</g>
<!-- Node3 -->
<g id="Node000003" class="node">
<title>Node3</title>
<g id="a_Node000003"><a xlink:href="class_fiea_1_1_engine_1_1_actions_1_1_action_list.html#a77dc15425d13d1d10482ec9e97d923fb" target="_top" xlink:title=" ">
<polygon fill="white" stroke="#666666" points="498,-144 383,-144 383,-112 498,-112 498,-144"/>
<text xml:space="preserve" text-anchor="start" x="391" y="-130.5" font-family="Helvetica,sans-Serif" font-size="10.00">Fiea::Engine::Actions</text>
<text xml:space="preserve" text-anchor="middle" x="440.5" y="-118.5" font-family="Helvetica,sans-Serif" font-size="10.00">::ActionList::ActionList</text>
</a>
</g>
</g>
<!-- Node2&#45;&gt;Node3 -->
<g id="edge2_Node000002_Node000003" class="edge">
<title>Node2&#45;&gt;Node3</title>
<g id="a_edge2_Node000002_Node000003"><a xlink:title=" ">
<path fill="none" stroke="#63b8ff" d="M347.45,-116.03C355.41,-117.07 363.47,-118.12 371.33,-119.14"/>
<polygon fill="#63b8ff" stroke="#63b8ff" points="370.8,-122.6 381.16,-120.42 371.7,-115.66 370.8,-122.6"/>
</a>
</g>
</g>
<!-- Node6 -->
<g id="Node000006" class="node">
<title>Node6</title>
<g id="a_Node000006"><a xlink:href="class_fiea_1_1_engine_1_1_r_t_t_i.html#a876bebbe7b3149483c43a87f55f4ea99" target="_top" xlink:title=" ">
<polygon fill="white" stroke="#666666" points="785,-126 686.5,-126 686.5,-94 785,-94 785,-126"/>
<text xml:space="preserve" text-anchor="start" x="694.5" y="-112.5" font-family="Helvetica,sans-Serif" font-size="10.00">Fiea::Engine::RTTI</text>
<text xml:space="preserve" text-anchor="middle" x="735.75" y="-100.5" font-family="Helvetica,sans-Serif" font-size="10.00">::TypeIdInstance</text>
</a>
</g>
</g>
<!-- Node2&#45;&gt;Node6 -->
<g id="edge17_Node000002_Node000006" class="edge">
<title>Node2&#45;&gt;Node6</title>
<g id="a_edge17_Node000002_Node000006"><a xlink:title=" ">
<path fill="none" stroke="#63b8ff" d="M347.27,-103.68C359.23,-103.4 371.45,-103.15 383,-103 434.11,-102.32 446.89,-102.24 498,-103 558.2,-103.89 626.99,-106.05 674.85,-107.74"/>
<polygon fill="#63b8ff" stroke="#63b8ff" points="674.61,-111.23 684.73,-108.09 674.86,-104.24 674.61,-111.23"/>
</a>
</g>
</g>
<!-- Node4 -->
<g id="Node000004" class="node">
<title>Node4</title>
<g id="a_Node000004"><a xlink:href="class_fiea_1_1_engine_1_1_actions_1_1_action.html#ae2af386f7122152003b00da79393e19e" target="_top" xlink:title=" ">
<polygon fill="white" stroke="#666666" points="643.75,-182 534,-182 534,-150 643.75,-150 643.75,-182"/>
<text xml:space="preserve" text-anchor="start" x="542" y="-168.5" font-family="Helvetica,sans-Serif" font-size="10.00">Fiea::Engine::Actions</text>
<text xml:space="preserve" text-anchor="middle" x="588.88" y="-156.5" font-family="Helvetica,sans-Serif" font-size="10.00">::Action::Action</text>
</a>
</g>
</g>
<!-- Node3&#45;&gt;Node4 -->
<g id="edge3_Node000003_Node000004" class="edge">
<title>Node3&#45;&gt;Node4</title>
<g id="a_edge3_Node000003_Node000004"><a xlink:title=" ">
<path fill="none" stroke="#63b8ff" d="M498.09,-142.69C506.17,-144.79 514.53,-146.96 522.75,-149.09"/>
<polygon fill="#63b8ff" stroke="#63b8ff" points="521.81,-152.47 532.37,-151.59 523.57,-145.69 521.81,-152.47"/>
</a>
</g>
</g>
<!-- Node3&#45;&gt;Node6 -->
<g id="edge16_Node000003_Node000006" class="edge">
<title>Node3&#45;&gt;Node6</title>
<g id="a_edge16_Node000003_Node000006"><a xlink:title=" ">
<path fill="none" stroke="#63b8ff" d="M498.39,-124.51C549.18,-121.39 623.31,-116.84 674.97,-113.67"/>
<polygon fill="#63b8ff" stroke="#63b8ff" points="675,-117.17 684.77,-113.07 674.57,-110.19 675,-117.17"/>
</a>
</g>
</g>
<!-- Node5 -->
<g id="Node000005" class="node">
<title>Node5</title>
<g id="a_Node000005"><a xlink:href="class_fiea_1_1_engine_1_1_content_1_1_attributed.html#ad1ae014235d9d8b62b36066c94164148" target="_top" xlink:title=" ">
<polygon fill="white" stroke="#666666" points="791.75,-194 679.75,-194 679.75,-162 791.75,-162 791.75,-194"/>
<text xml:space="preserve" text-anchor="start" x="687.75" y="-180.5" font-family="Helvetica,sans-Serif" font-size="10.00">Fiea::Engine::Content</text>
<text xml:space="preserve" text-anchor="middle" x="735.75" y="-168.5" font-family="Helvetica,sans-Serif" font-size="10.00">::Attributed::Attributed</text>
</a>
</g>
</g>
<!-- Node4&#45;&gt;Node5 -->
<g id="edge4_Node000004_Node000005" class="edge">
<title>Node4&#45;&gt;Node5</title>
<g id="a_edge4_Node000004_Node000005"><a xlink:title=" ">
<path fill="none" stroke="#63b8ff" d="M644.23,-170.5C652.09,-171.15 660.25,-171.83 668.32,-172.5"/>
<polygon fill="#63b8ff" stroke="#63b8ff" points="667.84,-175.97 678.1,-173.31 668.42,-168.99 667.84,-175.97"/>
</a>
</g>
</g>
<!-- Node4&#45;&gt;Node6 -->
<g id="edge6_Node000004_Node000006" class="edge">
<title>Node4&#45;&gt;Node6</title>
<g id="a_edge6_Node000004_Node000006"><a xlink:title=" ">
<path fill="none" stroke="#63b8ff" d="M632.56,-149.5C648.03,-143.52 665.7,-136.69 681.94,-130.41"/>
<polygon fill="#63b8ff" stroke="#63b8ff" points="682.89,-133.8 690.96,-126.93 680.37,-127.27 682.89,-133.8"/>
</a>
</g>
</g>
<!-- Node5&#45;&gt;Node5 -->
<g id="edge5_Node000005_Node000005" class="edge">
<title>Node5&#45;&gt;Node5</title>
<g id="a_edge5_Node000005_Node000005"><a xlink:title=" ">
<path fill="none" stroke="#63b8ff" d="M709.53,-194.44C704.63,-203.58 713.37,-212 735.75,-212 747.99,-212 756.15,-209.48 760.23,-205.71"/>
<polygon fill="#63b8ff" stroke="#63b8ff" points="763.67,-206.36 761.74,-195.94 756.75,-205.28 763.67,-206.36"/>
</a>
</g>
</g>
<!-- Node6&#45;&gt;Node6 -->
<g id="edge15_Node000006_Node000006" class="edge">
<title>Node6&#45;&gt;Node6</title>
<g id="a_edge15_Node000006_Node000006"><a xlink:title=" ">
<path fill="none" stroke="#63b8ff" d="M709.53,-126.44C704.63,-135.58 713.37,-144 735.75,-144 747.99,-144 756.15,-141.48 760.23,-137.71"/>
<polygon fill="#63b8ff" stroke="#63b8ff" points="763.67,-138.36 761.74,-127.94 756.75,-137.28 763.67,-138.36"/>
</a>
</g>
</g>
<!-- Node7 -->
<g id="Node000007" class="node">
<title>Node7</title>
<g id="a_Node000007"><a xlink:href="class_fiea_1_1_engine_1_1_r_t_t_i.html#a15bd5993c8ad04da47af440298ebbb30" target="_top" xlink:title=" ">
<polygon fill="white" stroke="#666666" points="944.25,-158 827.75,-158 827.75,-138 944.25,-138 944.25,-158"/>
<text xml:space="preserve" text-anchor="middle" x="886" y="-144.5" font-family="Helvetica,sans-Serif" font-size="10.00">Fiea::Engine::RTTI::As</text>
</a>
</g>
</g>
<!-- Node6&#45;&gt;Node7 -->
<g id="edge7_Node000006_Node000007" class="edge">
<title>Node6&#45;&gt;Node7</title>
<g id="a_edge7_Node000006_Node000007"><a xlink:title=" ">
<path fill="none" stroke="#63b8ff" d="M785.29,-122.44C800.65,-126.38 817.68,-130.74 833.25,-134.74"/>
<polygon fill="#63b8ff" stroke="#63b8ff" points="832.27,-138.1 842.82,-137.19 834,-131.32 832.27,-138.1"/>
</a>
</g>
</g>
<!-- Node8 -->
<g id="Node000008" class="node">
<title>Node8</title>
<g id="a_Node000008"><a xlink:href="class_fiea_1_1_engine_1_1_r_t_t_i.html#ac0a7d875e4513b2aca7594abcd4418ef" target="_top" xlink:title=" ">
<polygon fill="white" stroke="#666666" points="1093,-180 980.25,-180 980.25,-160 1093,-160 1093,-180"/>
<text xml:space="preserve" text-anchor="middle" x="1036.62" y="-166.5" font-family="Helvetica,sans-Serif" font-size="10.00">Fiea::Engine::RTTI::Is</text>
</a>
</g>
</g>
<!-- Node6&#45;&gt;Node8 -->
<g id="edge12_Node000006_Node000008" class="edge">
<title>Node6&#45;&gt;Node8</title>
<g id="a_edge12_Node000006_Node000008"><a xlink:title=" ">
<path fill="none" stroke="#63b8ff" d="M755.8,-126.34C773.23,-140.14 800.39,-158.93 827.75,-167 873.47,-180.5 927.35,-180.86 968.8,-178.06"/>
<polygon fill="#63b8ff" stroke="#63b8ff" points="968.93,-181.56 978.63,-177.31 968.39,-174.58 968.93,-181.56"/>
</a>
</g>
</g>
<!-- Node9 -->
<g id="Node000009" class="node">
<title>Node9</title>
<g id="a_Node000009"><a xlink:href="class_fiea_1_1_engine_1_1_r_t_t_i.html#a13000029a2e6cced30b831e466e07cae" target="_top" xlink:title=" ">
<polygon fill="white" stroke="#666666" points="1085.88,-126 987.38,-126 987.38,-94 1085.88,-94 1085.88,-126"/>
<text xml:space="preserve" text-anchor="start" x="995.38" y="-112.5" font-family="Helvetica,sans-Serif" font-size="10.00">Fiea::Engine::RTTI</text>
<text xml:space="preserve" text-anchor="middle" x="1036.62" y="-100.5" font-family="Helvetica,sans-Serif" font-size="10.00">::RTTI</text>
</a>
</g>
</g>
<!-- Node6&#45;&gt;Node9 -->
<g id="edge13_Node000006_Node000009" class="edge">
<title>Node6&#45;&gt;Node9</title>
<g id="a_edge13_Node000006_Node000009"><a xlink:title=" ">
<path fill="none" stroke="#63b8ff" d="M785.43,-110C837.32,-110 919.54,-110 975.45,-110"/>
<polygon fill="#63b8ff" stroke="#63b8ff" points="975.45,-113.5 985.45,-110 975.45,-106.5 975.45,-113.5"/>
</a>
</g>
</g>
<!-- Node10 -->
<g id="Node000010" class="node">
<title>Node10</title>
<g id="a_Node000010"><a xlink:href="class_fiea_1_1_engine_1_1_r_t_t_i.html#a7f70ad5ba0f8a3388543d63d72892575" target="_top" xlink:title=" ">
<polygon fill="white" stroke="#666666" points="935.25,-82 836.75,-82 836.75,-50 935.25,-50 935.25,-82"/>
<text xml:space="preserve" text-anchor="start" x="844.75" y="-68.5" font-family="Helvetica,sans-Serif" font-size="10.00">Fiea::Engine::RTTI</text>
<text xml:space="preserve" text-anchor="middle" x="886" y="-56.5" font-family="Helvetica,sans-Serif" font-size="10.00">::Equals</text>
</a>
</g>
</g>
<!-- Node6&#45;&gt;Node10 -->
<g id="edge10_Node000006_Node000010" class="edge">
<title>Node6&#45;&gt;Node10</title>
<g id="a_edge10_Node000006_Node000010"><a xlink:title=" ">
<path fill="none" stroke="#63b8ff" d="M785.29,-95.59C798.09,-91.79 812.05,-87.65 825.36,-83.7"/>
<polygon fill="#63b8ff" stroke="#63b8ff" points="826.31,-87.07 834.9,-80.87 824.31,-80.36 826.31,-87.07"/>
</a>
</g>
</g>
<!-- Node11 -->
<g id="Node000011" class="node">
<title>Node11</title>
<g id="a_Node000011"><a xlink:href="class_fiea_1_1_engine_1_1_r_t_t_i.html#a43a7d187e332a17d2c699bc2c8136a30" target="_top" xlink:title=" ">
<polygon fill="white" stroke="#666666" points="935.25,-32 836.75,-32 836.75,0 935.25,0 935.25,-32"/>
<text xml:space="preserve" text-anchor="start" x="844.75" y="-18.5" font-family="Helvetica,sans-Serif" font-size="10.00">Fiea::Engine::RTTI</text>
<text xml:space="preserve" text-anchor="middle" x="886" y="-6.5" font-family="Helvetica,sans-Serif" font-size="10.00">::ToString</text>
</a>
</g>
</g>
<!-- Node6&#45;&gt;Node11 -->
<g id="edge14_Node000006_Node000011" class="edge">
<title>Node6&#45;&gt;Node11</title>
<g id="a_edge14_Node000006_Node000011"><a xlink:title=" ">
<path fill="none" stroke="#63b8ff" d="M755.69,-93.51C773.47,-78.56 801.24,-56.54 827.75,-41 829.76,-39.82 831.84,-38.66 833.95,-37.53"/>
<polygon fill="#63b8ff" stroke="#63b8ff" points="835.34,-40.75 842.71,-33.13 832.2,-34.5 835.34,-40.75"/>
</a>
</g>
</g>
<!-- Node7&#45;&gt;Node8 -->
<g id="edge8_Node000007_Node000008" class="edge">
<title>Node7&#45;&gt;Node8</title>
<g id="a_edge8_Node000007_Node000008"><a xlink:title=" ">
<path fill="none" stroke="#63b8ff" d="M944.46,-156.51C952.35,-157.67 960.5,-158.88 968.53,-160.07"/>
<polygon fill="#63b8ff" stroke="#63b8ff" points="967.88,-163.51 978.28,-161.51 968.91,-156.59 967.88,-163.51"/>
</a>
</g>
</g>
<!-- Node7&#45;&gt;Node9 -->
<g id="edge9_Node000007_Node000009" class="edge">
<title>Node7&#45;&gt;Node9</title>
<g id="a_edge9_Node000007_Node000009"><a xlink:title=" ">
<path fill="none" stroke="#63b8ff" d="M928.01,-137.52C942.88,-133.71 959.99,-129.34 976.13,-125.21"/>
<polygon fill="#63b8ff" stroke="#63b8ff" points="976.82,-128.65 985.64,-122.78 975.09,-121.87 976.82,-128.65"/>
</a>
</g>
</g>
<!-- Node10&#45;&gt;Node9 -->
<g id="edge11_Node000010_Node000009" class="edge">
<title>Node10&#45;&gt;Node9</title>
<g id="a_edge11_Node000010_Node000009"><a xlink:title=" ">
<path fill="none" stroke="#63b8ff" d="M935.67,-80.41C948.69,-84.26 962.92,-88.47 976.44,-92.48"/>
<polygon fill="#63b8ff" stroke="#63b8ff" points="975.07,-95.72 985.65,-95.21 977.06,-89.01 975.07,-95.72"/>
</a>
</g>
</g>
</g>
</svg>
