<?xml version="1.0" encoding="UTF-8" standalone="no"?>
<!DOCTYPE svg PUBLIC "-//W3C//DTD SVG 1.1//EN"
 "http://www.w3.org/Graphics/SVG/1.1/DTD/svg11.dtd">
<!-- Generated by graphviz version 13.1.0 (20250701.0955)
 -->
<!-- Title: Fiea::Engine::Content::Attributed::InstanceAttributes Pages: 1 -->
<svg width="1030pt" height="279pt"
 viewBox="0.00 0.00 1030.00 279.00" xmlns="http://www.w3.org/2000/svg" xmlns:xlink="http://www.w3.org/1999/xlink">
<g id="graph0" class="graph" transform="scale(1 1) rotate(0) translate(4 274.94)">
<title>Fiea::Engine::Content::Attributed::InstanceAttributes</title>
<!-- Node1 -->
<g id="Node000001" class="node">
<title>Node1</title>
<g id="a_Node000001"><a xlink:title="Retrieves all instance attribute names.">
<polygon fill="#999999" stroke="#666666" points="149.5,-142.94 0,-142.94 0,-110.94 149.5,-110.94 149.5,-142.94"/>
<text xml:space="preserve" text-anchor="start" x="8" y="-129.44" font-family="Helvetica,sans-Serif" font-size="10.00">Fiea::Engine::Content</text>
<text xml:space="preserve" text-anchor="middle" x="74.75" y="-117.44" font-family="Helvetica,sans-Serif" font-size="10.00">::Attributed::InstanceAttributes</text>
</a>
</g>
</g>
<!-- Node2 -->
<g id="Node000002" class="node">
<title>Node2</title>
<g id="a_Node000002"><a xlink:href="struct_fiea_1_1_engine_1_1_content_1_1_i_type_provider.html#a98897793b1bb048c7ca5f163351a239b" target="_top" xlink:title=" ">
<polygon fill="white" stroke="#666666" points="721,-270.94 550.5,-270.94 550.5,-238.94 721,-238.94 721,-270.94"/>
<text xml:space="preserve" text-anchor="start" x="558.5" y="-257.44" font-family="Helvetica,sans-Serif" font-size="10.00">Fiea::Engine::Content</text>
<text xml:space="preserve" text-anchor="middle" x="635.75" y="-245.44" font-family="Helvetica,sans-Serif" font-size="10.00">::ITypeProvider::GetClassDefinition</text>
</a>
</g>
</g>
<!-- Node1&#45;&gt;Node2 -->
<g id="edge1_Node000001_Node000002" class="edge">
<title>Node1&#45;&gt;Node2</title>
<g id="a_edge1_Node000001_Node000002"><a xlink:title=" ">
<path fill="none" stroke="#63b8ff" d="M95.79,-143.32C116.79,-159.53 151.41,-183.66 185.5,-195.94 302.36,-238.06 445.99,-250.67 538.9,-254.15"/>
<polygon fill="#63b8ff" stroke="#63b8ff" points="538.63,-257.64 548.74,-254.48 538.87,-250.64 538.63,-257.64"/>
</a>
</g>
</g>
<!-- Node3 -->
<g id="Node000003" class="node">
<title>Node3</title>
<g id="a_Node000003"><a xlink:href="class_fiea_1_1_engine_1_1_content_1_1_scope.html#acbe1fde63ab0aa0bb152109e13ee736f" target="_top" xlink:title=" ">
<polygon fill="white" stroke="#666666" points="332,-60.94 191.5,-60.94 191.5,-28.94 332,-28.94 332,-60.94"/>
<text xml:space="preserve" text-anchor="start" x="199.5" y="-47.44" font-family="Helvetica,sans-Serif" font-size="10.00">Fiea::Engine::Content</text>
<text xml:space="preserve" text-anchor="middle" x="261.75" y="-35.44" font-family="Helvetica,sans-Serif" font-size="10.00">::Scope::GetOrderedDatums</text>
</a>
</g>
</g>
<!-- Node1&#45;&gt;Node3 -->
<g id="edge2_Node000001_Node000003" class="edge">
<title>Node1&#45;&gt;Node3</title>
<g id="a_edge2_Node000001_Node000003"><a xlink:title=" ">
<path fill="none" stroke="#63b8ff" d="M109.12,-110.46C130.74,-99.95 159.6,-86.23 185.5,-74.94 192.69,-71.81 200.31,-68.62 207.84,-65.55"/>
<polygon fill="#63b8ff" stroke="#63b8ff" points="209,-68.85 216.97,-61.86 206.38,-62.36 209,-68.85"/>
</a>
</g>
</g>
<!-- Node4 -->
<g id="Node000004" class="node">
<title>Node4</title>
<g id="a_Node000004"><a xlink:href="class_fiea_1_1_engine_1_1_content_1_1_attributed.html#a2bf121c3108ae47b421b831a88b19a49" target="_top" xlink:title="Checks if a given key is an instance attribute.">
<polygon fill="white" stroke="#666666" points="338,-186.94 185.5,-186.94 185.5,-154.94 338,-154.94 338,-186.94"/>
<text xml:space="preserve" text-anchor="start" x="193.5" y="-173.44" font-family="Helvetica,sans-Serif" font-size="10.00">Fiea::Engine::Content</text>
<text xml:space="preserve" text-anchor="middle" x="261.75" y="-161.44" font-family="Helvetica,sans-Serif" font-size="10.00">::Attributed::IsInstanceAttribute</text>
</a>
</g>
</g>
<!-- Node1&#45;&gt;Node4 -->
<g id="edge3_Node000001_Node000004" class="edge">
<title>Node1&#45;&gt;Node4</title>
<g id="a_edge3_Node000001_Node000004"><a xlink:title=" ">
<path fill="none" stroke="#63b8ff" d="M144.9,-143.39C156.41,-146.13 168.44,-148.99 180.2,-151.79"/>
<polygon fill="#63b8ff" stroke="#63b8ff" points="179.36,-155.19 189.9,-154.09 180.98,-148.38 179.36,-155.19"/>
</a>
</g>
</g>
<!-- Node8 -->
<g id="Node000008" class="node">
<title>Node8</title>
<g id="a_Node000008"><a xlink:href="class_fiea_1_1_engine_1_1_service_manager.html#a8aac9b15b7e5483c2b1cd5febe590a0c" target="_top" xlink:title=" ">
<polygon fill="white" stroke="#666666" points="709.38,-170.94 562.12,-170.94 562.12,-138.94 709.38,-138.94 709.38,-170.94"/>
<text xml:space="preserve" text-anchor="start" x="570.12" y="-157.44" font-family="Helvetica,sans-Serif" font-size="10.00">Fiea::Engine::ServiceManager</text>
<text xml:space="preserve" text-anchor="middle" x="635.75" y="-145.44" font-family="Helvetica,sans-Serif" font-size="10.00">::ProvideInterface</text>
</a>
</g>
</g>
<!-- Node1&#45;&gt;Node8 -->
<g id="edge20_Node000001_Node000008" class="edge">
<title>Node1&#45;&gt;Node8</title>
<g id="a_edge20_Node000001_Node000008"><a xlink:title=" ">
<path fill="none" stroke="#63b8ff" d="M149.92,-129.45C237.19,-132.55 386.44,-138.38 514.5,-145.94 526.06,-146.63 538.24,-147.44 550.23,-148.28"/>
<polygon fill="#63b8ff" stroke="#63b8ff" points="549.91,-151.77 560.14,-149 550.41,-144.79 549.91,-151.77"/>
</a>
</g>
</g>
<!-- Node9 -->
<g id="Node000009" class="node">
<title>Node9</title>
<g id="a_Node000009"><a xlink:href="class_fiea_1_1_engine_1_1_r_t_t_i.html#a876bebbe7b3149483c43a87f55f4ea99" target="_top" xlink:title=" ">
<polygon fill="white" stroke="#666666" points="685,-102.94 586.5,-102.94 586.5,-70.94 685,-70.94 685,-102.94"/>
<text xml:space="preserve" text-anchor="start" x="594.5" y="-89.44" font-family="Helvetica,sans-Serif" font-size="10.00">Fiea::Engine::RTTI</text>
<text xml:space="preserve" text-anchor="middle" x="635.75" y="-77.44" font-family="Helvetica,sans-Serif" font-size="10.00">::TypeIdInstance</text>
</a>
</g>
</g>
<!-- Node1&#45;&gt;Node9 -->
<g id="edge21_Node000001_Node000009" class="edge">
<title>Node1&#45;&gt;Node9</title>
<g id="a_edge21_Node000001_Node000009"><a xlink:title=" ">
<path fill="none" stroke="#63b8ff" d="M149.98,-121.63C261.94,-113.62 471.83,-98.6 574.74,-91.24"/>
<polygon fill="#63b8ff" stroke="#63b8ff" points="574.92,-94.73 584.65,-90.53 574.42,-87.75 574.92,-94.73"/>
</a>
</g>
</g>
<!-- Node5 -->
<g id="Node000005" class="node">
<title>Node5</title>
<g id="a_Node000005"><a xlink:href="class_fiea_1_1_engine_1_1_content_1_1_attributed.html#a2b6b6b36292afc12d93e046373d9a0f1" target="_top" xlink:title="Checks if a given key is an attribute.">
<polygon fill="white" stroke="#666666" points="693.25,-220.94 578.25,-220.94 578.25,-188.94 693.25,-188.94 693.25,-220.94"/>
<text xml:space="preserve" text-anchor="start" x="586.25" y="-207.44" font-family="Helvetica,sans-Serif" font-size="10.00">Fiea::Engine::Content</text>
<text xml:space="preserve" text-anchor="middle" x="635.75" y="-195.44" font-family="Helvetica,sans-Serif" font-size="10.00">::Attributed::IsAttribute</text>
</a>
</g>
</g>
<!-- Node4&#45;&gt;Node5 -->
<g id="edge4_Node000004_Node000005" class="edge">
<title>Node4&#45;&gt;Node5</title>
<g id="a_edge4_Node000004_Node000005"><a xlink:title=" ">
<path fill="none" stroke="#63b8ff" d="M326.51,-187.41C341.96,-190.81 358.49,-193.95 374,-195.94 438.98,-204.29 513.77,-206.08 566.54,-206.06"/>
<polygon fill="#63b8ff" stroke="#63b8ff" points="566.29,-209.56 576.28,-206.03 566.26,-202.56 566.29,-209.56"/>
</a>
</g>
</g>
<!-- Node7 -->
<g id="Node000007" class="node">
<title>Node7</title>
<g id="a_Node000007"><a xlink:href="class_fiea_1_1_engine_1_1_content_1_1_attributed.html#af9a419e6aa1b52eed4c923a89931771e" target="_top" xlink:title="Checks if a given key is a class attribute.">
<polygon fill="white" stroke="#666666" points="514.5,-186.94 374,-186.94 374,-154.94 514.5,-154.94 514.5,-186.94"/>
<text xml:space="preserve" text-anchor="start" x="382" y="-173.44" font-family="Helvetica,sans-Serif" font-size="10.00">Fiea::Engine::Content</text>
<text xml:space="preserve" text-anchor="middle" x="444.25" y="-161.44" font-family="Helvetica,sans-Serif" font-size="10.00">::Attributed::IsClassAttribute</text>
</a>
</g>
</g>
<!-- Node4&#45;&gt;Node7 -->
<g id="edge6_Node000004_Node000007" class="edge">
<title>Node4&#45;&gt;Node7</title>
<g id="a_edge6_Node000004_Node000007"><a xlink:title=" ">
<path fill="none" stroke="#63b8ff" d="M338.25,-170.94C346.11,-170.94 354.11,-170.94 362.03,-170.94"/>
<polygon fill="#63b8ff" stroke="#63b8ff" points="362.01,-174.44 372.01,-170.94 362.01,-167.44 362.01,-174.44"/>
</a>
</g>
</g>
<!-- Node6 -->
<g id="Node000006" class="node">
<title>Node6</title>
<g id="a_Node000006"><a xlink:href="class_fiea_1_1_engine_1_1_content_1_1_scope.html#ad924c01785b239991fc0e56a63295612" target="_top" xlink:title="Finds a Datum by key.">
<polygon fill="white" stroke="#666666" points="870.88,-224.94 759.62,-224.94 759.62,-192.94 870.88,-192.94 870.88,-224.94"/>
<text xml:space="preserve" text-anchor="start" x="767.62" y="-211.44" font-family="Helvetica,sans-Serif" font-size="10.00">Fiea::Engine::Content</text>
<text xml:space="preserve" text-anchor="middle" x="815.25" y="-199.44" font-family="Helvetica,sans-Serif" font-size="10.00">::Scope::Find</text>
</a>
</g>
</g>
<!-- Node5&#45;&gt;Node6 -->
<g id="edge5_Node000005_Node000006" class="edge">
<title>Node5&#45;&gt;Node6</title>
<g id="a_edge5_Node000005_Node000006"><a xlink:title=" ">
<path fill="none" stroke="#63b8ff" d="M693.4,-206.22C710.79,-206.61 730.09,-207.05 748.06,-207.45"/>
<polygon fill="#63b8ff" stroke="#63b8ff" points="747.76,-210.95 757.84,-207.67 747.92,-203.95 747.76,-210.95"/>
</a>
</g>
</g>
<!-- Node7&#45;&gt;Node2 -->
<g id="edge7_Node000007_Node000002" class="edge">
<title>Node7&#45;&gt;Node2</title>
<g id="a_edge7_Node000007_Node000002"><a xlink:title=" ">
<path fill="none" stroke="#63b8ff" d="M470.82,-187.41C491.64,-200.29 522.13,-217.96 550.5,-229.94 554.5,-231.63 558.65,-233.25 562.86,-234.8"/>
<polygon fill="#63b8ff" stroke="#63b8ff" points="561.42,-238.01 572.01,-238 563.73,-231.4 561.42,-238.01"/>
</a>
</g>
</g>
<!-- Node7&#45;&gt;Node5 -->
<g id="edge8_Node000007_Node000005" class="edge">
<title>Node7&#45;&gt;Node5</title>
<g id="a_edge8_Node000007_Node000005"><a xlink:title=" ">
<path fill="none" stroke="#63b8ff" d="M514.74,-183.41C531.81,-186.47 550.06,-189.75 567.04,-192.8"/>
<polygon fill="#63b8ff" stroke="#63b8ff" points="566.05,-196.17 576.51,-194.49 567.28,-189.28 566.05,-196.17"/>
</a>
</g>
</g>
<!-- Node7&#45;&gt;Node8 -->
<g id="edge9_Node000007_Node000008" class="edge">
<title>Node7&#45;&gt;Node8</title>
<g id="a_edge9_Node000007_Node000008"><a xlink:title=" ">
<path fill="none" stroke="#63b8ff" d="M514.74,-165.08C526.34,-164.1 538.5,-163.07 550.43,-162.06"/>
<polygon fill="#63b8ff" stroke="#63b8ff" points="550.59,-165.56 560.26,-161.23 550,-158.59 550.59,-165.56"/>
</a>
</g>
</g>
<!-- Node7&#45;&gt;Node9 -->
<g id="edge10_Node000007_Node000009" class="edge">
<title>Node7&#45;&gt;Node9</title>
<g id="a_edge10_Node000007_Node000009"><a xlink:title=" ">
<path fill="none" stroke="#63b8ff" d="M482.24,-154.55C512.27,-141.24 554.82,-122.37 587.35,-107.95"/>
<polygon fill="#63b8ff" stroke="#63b8ff" points="588.43,-111.31 596.15,-104.06 585.59,-104.91 588.43,-111.31"/>
</a>
</g>
</g>
<!-- Node9&#45;&gt;Node9 -->
<g id="edge19_Node000009_Node000009" class="edge">
<title>Node9&#45;&gt;Node9</title>
<g id="a_edge19_Node000009_Node000009"><a xlink:title=" ">
<path fill="none" stroke="#63b8ff" d="M603.7,-103.39C597.72,-112.53 608.4,-120.94 635.75,-120.94 650.7,-120.94 660.68,-118.43 665.66,-114.65"/>
<polygon fill="#63b8ff" stroke="#63b8ff" points="669.09,-115.35 667.51,-104.87 662.21,-114.05 669.09,-115.35"/>
</a>
</g>
</g>
<!-- Node10 -->
<g id="Node000010" class="node">
<title>Node10</title>
<g id="a_Node000010"><a xlink:href="class_fiea_1_1_engine_1_1_r_t_t_i.html#a15bd5993c8ad04da47af440298ebbb30" target="_top" xlink:title=" ">
<polygon fill="white" stroke="#666666" points="873.5,-136.94 757,-136.94 757,-116.94 873.5,-116.94 873.5,-136.94"/>
<text xml:space="preserve" text-anchor="middle" x="815.25" y="-123.44" font-family="Helvetica,sans-Serif" font-size="10.00">Fiea::Engine::RTTI::As</text>
</a>
</g>
</g>
<!-- Node9&#45;&gt;Node10 -->
<g id="edge11_Node000009_Node000010" class="edge">
<title>Node9&#45;&gt;Node10</title>
<g id="a_edge11_Node000009_Node000010"><a xlink:title=" ">
<path fill="none" stroke="#63b8ff" d="M685.25,-97.87C707.39,-102.86 733.77,-108.81 756.89,-114.02"/>
<polygon fill="#63b8ff" stroke="#63b8ff" points="755.95,-117.39 766.47,-116.18 757.48,-110.56 755.95,-117.39"/>
</a>
</g>
</g>
<!-- Node11 -->
<g id="Node000011" class="node">
<title>Node11</title>
<g id="a_Node000011"><a xlink:href="class_fiea_1_1_engine_1_1_r_t_t_i.html#ac0a7d875e4513b2aca7594abcd4418ef" target="_top" xlink:title=" ">
<polygon fill="white" stroke="#666666" points="1022.25,-155.94 909.5,-155.94 909.5,-135.94 1022.25,-135.94 1022.25,-155.94"/>
<text xml:space="preserve" text-anchor="middle" x="965.88" y="-142.44" font-family="Helvetica,sans-Serif" font-size="10.00">Fiea::Engine::RTTI::Is</text>
</a>
</g>
</g>
<!-- Node9&#45;&gt;Node11 -->
<g id="edge16_Node000009_Node000011" class="edge">
<title>Node9&#45;&gt;Node11</title>
<g id="a_edge16_Node000009_Node000011"><a xlink:title=" ">
<path fill="none" stroke="#63b8ff" d="M668.28,-103.34C700.69,-120.04 747.68,-143.78 757,-145.94 803.27,-156.68 856.92,-156.38 898.12,-153.55"/>
<polygon fill="#63b8ff" stroke="#63b8ff" points="898.18,-157.06 907.88,-152.81 897.65,-150.08 898.18,-157.06"/>
</a>
</g>
</g>
<!-- Node12 -->
<g id="Node000012" class="node">
<title>Node12</title>
<g id="a_Node000012"><a xlink:href="class_fiea_1_1_engine_1_1_r_t_t_i.html#a13000029a2e6cced30b831e466e07cae" target="_top" xlink:title=" ">
<polygon fill="white" stroke="#666666" points="1015.12,-48.94 916.62,-48.94 916.62,-16.94 1015.12,-16.94 1015.12,-48.94"/>
<text xml:space="preserve" text-anchor="start" x="924.62" y="-35.44" font-family="Helvetica,sans-Serif" font-size="10.00">Fiea::Engine::RTTI</text>
<text xml:space="preserve" text-anchor="middle" x="965.88" y="-23.44" font-family="Helvetica,sans-Serif" font-size="10.00">::RTTI</text>
</a>
</g>
</g>
<!-- Node9&#45;&gt;Node12 -->
<g id="edge17_Node000009_Node000012" class="edge">
<title>Node9&#45;&gt;Node12</title>
<g id="a_edge17_Node000009_Node000012"><a xlink:title=" ">
<path fill="none" stroke="#63b8ff" d="M654.18,-70.65C676.17,-51.32 716.08,-20.18 757,-7.94 806.23,6.78 864.48,-2.38 906.77,-13.54"/>
<polygon fill="#63b8ff" stroke="#63b8ff" points="905.68,-16.87 916.25,-16.16 907.55,-10.12 905.68,-16.87"/>
</a>
</g>
</g>
<!-- Node13 -->
<g id="Node000013" class="node">
<title>Node13</title>
<g id="a_Node000013"><a xlink:href="class_fiea_1_1_engine_1_1_r_t_t_i.html#a7f70ad5ba0f8a3388543d63d72892575" target="_top" xlink:title=" ">
<polygon fill="white" stroke="#666666" points="864.5,-48.94 766,-48.94 766,-16.94 864.5,-16.94 864.5,-48.94"/>
<text xml:space="preserve" text-anchor="start" x="774" y="-35.44" font-family="Helvetica,sans-Serif" font-size="10.00">Fiea::Engine::RTTI</text>
<text xml:space="preserve" text-anchor="middle" x="815.25" y="-23.44" font-family="Helvetica,sans-Serif" font-size="10.00">::Equals</text>
</a>
</g>
</g>
<!-- Node9&#45;&gt;Node13 -->
<g id="edge14_Node000009_Node000013" class="edge">
<title>Node9&#45;&gt;Node13</title>
<g id="a_edge14_Node000009_Node000013"><a xlink:title=" ">
<path fill="none" stroke="#63b8ff" d="M685.25,-72.19C706.78,-65.64 732.31,-57.87 754.95,-50.98"/>
<polygon fill="#63b8ff" stroke="#63b8ff" points="755.81,-54.38 764.36,-48.12 753.77,-47.69 755.81,-54.38"/>
</a>
</g>
</g>
<!-- Node14 -->
<g id="Node000014" class="node">
<title>Node14</title>
<g id="a_Node000014"><a xlink:href="class_fiea_1_1_engine_1_1_r_t_t_i.html#a43a7d187e332a17d2c699bc2c8136a30" target="_top" xlink:title=" ">
<polygon fill="white" stroke="#666666" points="864.5,-98.94 766,-98.94 766,-66.94 864.5,-66.94 864.5,-98.94"/>
<text xml:space="preserve" text-anchor="start" x="774" y="-85.44" font-family="Helvetica,sans-Serif" font-size="10.00">Fiea::Engine::RTTI</text>
<text xml:space="preserve" text-anchor="middle" x="815.25" y="-73.44" font-family="Helvetica,sans-Serif" font-size="10.00">::ToString</text>
</a>
</g>
</g>
<!-- Node9&#45;&gt;Node14 -->
<g id="edge18_Node000009_Node000014" class="edge">
<title>Node9&#45;&gt;Node14</title>
<g id="a_edge18_Node000009_Node000014"><a xlink:title=" ">
<path fill="none" stroke="#63b8ff" d="M685.25,-85.85C706.58,-85.37 731.84,-84.8 754.33,-84.29"/>
<polygon fill="#63b8ff" stroke="#63b8ff" points="754.37,-87.79 764.29,-84.07 754.22,-80.8 754.37,-87.79"/>
</a>
</g>
</g>
<!-- Node10&#45;&gt;Node11 -->
<g id="edge12_Node000010_Node000011" class="edge">
<title>Node10&#45;&gt;Node11</title>
<g id="a_edge12_Node000010_Node000011"><a xlink:title=" ">
<path fill="none" stroke="#63b8ff" d="M873.71,-134.29C881.6,-135.3 889.75,-136.34 897.78,-137.37"/>
<polygon fill="#63b8ff" stroke="#63b8ff" points="897.17,-140.82 907.53,-138.61 898.06,-133.87 897.17,-140.82"/>
</a>
</g>
</g>
<!-- Node10&#45;&gt;Node12 -->
<g id="edge13_Node000010_Node000012" class="edge">
<title>Node10&#45;&gt;Node12</title>
<g id="a_edge13_Node000010_Node000012"><a xlink:title=" ">
<path fill="none" stroke="#63b8ff" d="M854.35,-116.49C860.91,-114.07 867.54,-111.23 873.5,-107.94 898.52,-94.15 923.35,-73.18 940.8,-56.91"/>
<polygon fill="#63b8ff" stroke="#63b8ff" points="942.81,-59.83 947.64,-50.4 937.99,-54.76 942.81,-59.83"/>
</a>
</g>
</g>
<!-- Node13&#45;&gt;Node12 -->
<g id="edge15_Node000013_Node000012" class="edge">
<title>Node13&#45;&gt;Node12</title>
<g id="a_edge15_Node000013_Node000012"><a xlink:title=" ">
<path fill="none" stroke="#63b8ff" d="M864.92,-32.94C877.68,-32.94 891.6,-32.94 904.89,-32.94"/>
<polygon fill="#63b8ff" stroke="#63b8ff" points="904.84,-36.44 914.84,-32.94 904.84,-29.44 904.84,-36.44"/>
</a>
</g>
</g>
</g>
</svg>
