<?xml version="1.0" encoding="UTF-8" standalone="no"?>
<!DOCTYPE svg PUBLIC "-//W3C//DTD SVG 1.1//EN"
 "http://www.w3.org/Graphics/SVG/1.1/DTD/svg11.dtd">
<!-- Generated by graphviz version 13.1.0 (20250701.0955)
 -->
<!-- Title: Fiea::Engine::Actions::Action::Action Pages: 1 -->
<svg width="567pt" height="220pt"
 viewBox="0.00 0.00 567.00 220.00" xmlns="http://www.w3.org/2000/svg" xmlns:xlink="http://www.w3.org/1999/xlink">
<g id="graph0" class="graph" transform="scale(1 1) rotate(0) translate(4 216)">
<title>Fiea::Engine::Actions::Action::Action</title>
<!-- Node1 -->
<g id="Node000001" class="node">
<title>Node1</title>
<g id="a_Node000001"><a xlink:title=" ">
<polygon fill="#999999" stroke="#666666" points="109.75,-160 0,-160 0,-128 109.75,-128 109.75,-160"/>
<text xml:space="preserve" text-anchor="start" x="8" y="-146.5" font-family="Helvetica,sans-Serif" font-size="10.00">Fiea::Engine::Actions</text>
<text xml:space="preserve" text-anchor="middle" x="54.88" y="-134.5" font-family="Helvetica,sans-Serif" font-size="10.00">::Action::Action</text>
</a>
</g>
</g>
<!-- Node2 -->
<g id="Node000002" class="node">
<title>Node2</title>
<g id="a_Node000002"><a xlink:href="class_fiea_1_1_engine_1_1_content_1_1_attributed.html#ad1ae014235d9d8b62b36066c94164148" target="_top" xlink:title=" ">
<polygon fill="white" stroke="#666666" points="257.75,-194 145.75,-194 145.75,-162 257.75,-162 257.75,-194"/>
<text xml:space="preserve" text-anchor="start" x="153.75" y="-180.5" font-family="Helvetica,sans-Serif" font-size="10.00">Fiea::Engine::Content</text>
<text xml:space="preserve" text-anchor="middle" x="201.75" y="-168.5" font-family="Helvetica,sans-Serif" font-size="10.00">::Attributed::Attributed</text>
</a>
</g>
</g>
<!-- Node1&#45;&gt;Node2 -->
<g id="edge1_Node000001_Node000002" class="edge">
<title>Node1&#45;&gt;Node2</title>
<g id="a_edge1_Node000001_Node000002"><a xlink:title=" ">
<path fill="none" stroke="#63b8ff" d="M110.23,-156.76C118.18,-158.62 126.44,-160.56 134.59,-162.47"/>
<polygon fill="#63b8ff" stroke="#63b8ff" points="133.6,-165.83 144.13,-164.71 135.2,-159.02 133.6,-165.83"/>
</a>
</g>
</g>
<!-- Node3 -->
<g id="Node000003" class="node">
<title>Node3</title>
<g id="a_Node000003"><a xlink:href="class_fiea_1_1_engine_1_1_r_t_t_i.html#a876bebbe7b3149483c43a87f55f4ea99" target="_top" xlink:title=" ">
<polygon fill="white" stroke="#666666" points="251,-126 152.5,-126 152.5,-94 251,-94 251,-126"/>
<text xml:space="preserve" text-anchor="start" x="160.5" y="-112.5" font-family="Helvetica,sans-Serif" font-size="10.00">Fiea::Engine::RTTI</text>
<text xml:space="preserve" text-anchor="middle" x="201.75" y="-100.5" font-family="Helvetica,sans-Serif" font-size="10.00">::TypeIdInstance</text>
</a>
</g>
</g>
<!-- Node1&#45;&gt;Node3 -->
<g id="edge3_Node000001_Node000003" class="edge">
<title>Node1&#45;&gt;Node3</title>
<g id="a_edge3_Node000001_Node000003"><a xlink:title=" ">
<path fill="none" stroke="#63b8ff" d="M110.23,-131.24C120.38,-128.86 131.02,-126.36 141.31,-123.95"/>
<polygon fill="#63b8ff" stroke="#63b8ff" points="141.88,-127.41 150.81,-121.72 140.28,-120.6 141.88,-127.41"/>
</a>
</g>
</g>
<!-- Node2&#45;&gt;Node2 -->
<g id="edge2_Node000002_Node000002" class="edge">
<title>Node2&#45;&gt;Node2</title>
<g id="a_edge2_Node000002_Node000002"><a xlink:title=" ">
<path fill="none" stroke="#63b8ff" d="M175.53,-194.44C170.63,-203.58 179.37,-212 201.75,-212 213.99,-212 222.15,-209.48 226.23,-205.71"/>
<polygon fill="#63b8ff" stroke="#63b8ff" points="229.67,-206.36 227.74,-195.94 222.75,-205.28 229.67,-206.36"/>
</a>
</g>
</g>
<!-- Node3&#45;&gt;Node3 -->
<g id="edge12_Node000003_Node000003" class="edge">
<title>Node3&#45;&gt;Node3</title>
<g id="a_edge12_Node000003_Node000003"><a xlink:title=" ">
<path fill="none" stroke="#63b8ff" d="M175.53,-126.44C170.63,-135.58 179.37,-144 201.75,-144 213.99,-144 222.15,-141.48 226.23,-137.71"/>
<polygon fill="#63b8ff" stroke="#63b8ff" points="229.67,-138.36 227.74,-127.94 222.75,-137.28 229.67,-138.36"/>
</a>
</g>
</g>
<!-- Node4 -->
<g id="Node000004" class="node">
<title>Node4</title>
<g id="a_Node000004"><a xlink:href="class_fiea_1_1_engine_1_1_r_t_t_i.html#a15bd5993c8ad04da47af440298ebbb30" target="_top" xlink:title=" ">
<polygon fill="white" stroke="#666666" points="410.25,-158 293.75,-158 293.75,-138 410.25,-138 410.25,-158"/>
<text xml:space="preserve" text-anchor="middle" x="352" y="-144.5" font-family="Helvetica,sans-Serif" font-size="10.00">Fiea::Engine::RTTI::As</text>
</a>
</g>
</g>
<!-- Node3&#45;&gt;Node4 -->
<g id="edge4_Node000003_Node000004" class="edge">
<title>Node3&#45;&gt;Node4</title>
<g id="a_edge4_Node000003_Node000004"><a xlink:title=" ">
<path fill="none" stroke="#63b8ff" d="M251.29,-122.44C266.65,-126.38 283.68,-130.74 299.25,-134.74"/>
<polygon fill="#63b8ff" stroke="#63b8ff" points="298.27,-138.1 308.82,-137.19 300,-131.32 298.27,-138.1"/>
</a>
</g>
</g>
<!-- Node5 -->
<g id="Node000005" class="node">
<title>Node5</title>
<g id="a_Node000005"><a xlink:href="class_fiea_1_1_engine_1_1_r_t_t_i.html#ac0a7d875e4513b2aca7594abcd4418ef" target="_top" xlink:title=" ">
<polygon fill="white" stroke="#666666" points="559,-180 446.25,-180 446.25,-160 559,-160 559,-180"/>
<text xml:space="preserve" text-anchor="middle" x="502.62" y="-166.5" font-family="Helvetica,sans-Serif" font-size="10.00">Fiea::Engine::RTTI::Is</text>
</a>
</g>
</g>
<!-- Node3&#45;&gt;Node5 -->
<g id="edge9_Node000003_Node000005" class="edge">
<title>Node3&#45;&gt;Node5</title>
<g id="a_edge9_Node000003_Node000005"><a xlink:title=" ">
<path fill="none" stroke="#63b8ff" d="M221.8,-126.34C239.23,-140.14 266.39,-158.93 293.75,-167 339.47,-180.5 393.35,-180.86 434.8,-178.06"/>
<polygon fill="#63b8ff" stroke="#63b8ff" points="434.93,-181.56 444.63,-177.31 434.39,-174.58 434.93,-181.56"/>
</a>
</g>
</g>
<!-- Node6 -->
<g id="Node000006" class="node">
<title>Node6</title>
<g id="a_Node000006"><a xlink:href="class_fiea_1_1_engine_1_1_r_t_t_i.html#a13000029a2e6cced30b831e466e07cae" target="_top" xlink:title=" ">
<polygon fill="white" stroke="#666666" points="551.88,-126 453.38,-126 453.38,-94 551.88,-94 551.88,-126"/>
<text xml:space="preserve" text-anchor="start" x="461.38" y="-112.5" font-family="Helvetica,sans-Serif" font-size="10.00">Fiea::Engine::RTTI</text>
<text xml:space="preserve" text-anchor="middle" x="502.62" y="-100.5" font-family="Helvetica,sans-Serif" font-size="10.00">::RTTI</text>
</a>
</g>
</g>
<!-- Node3&#45;&gt;Node6 -->
<g id="edge10_Node000003_Node000006" class="edge">
<title>Node3&#45;&gt;Node6</title>
<g id="a_edge10_Node000003_Node000006"><a xlink:title=" ">
<path fill="none" stroke="#63b8ff" d="M251.43,-110C303.32,-110 385.54,-110 441.45,-110"/>
<polygon fill="#63b8ff" stroke="#63b8ff" points="441.45,-113.5 451.45,-110 441.45,-106.5 441.45,-113.5"/>
</a>
</g>
</g>
<!-- Node7 -->
<g id="Node000007" class="node">
<title>Node7</title>
<g id="a_Node000007"><a xlink:href="class_fiea_1_1_engine_1_1_r_t_t_i.html#a7f70ad5ba0f8a3388543d63d72892575" target="_top" xlink:title=" ">
<polygon fill="white" stroke="#666666" points="401.25,-82 302.75,-82 302.75,-50 401.25,-50 401.25,-82"/>
<text xml:space="preserve" text-anchor="start" x="310.75" y="-68.5" font-family="Helvetica,sans-Serif" font-size="10.00">Fiea::Engine::RTTI</text>
<text xml:space="preserve" text-anchor="middle" x="352" y="-56.5" font-family="Helvetica,sans-Serif" font-size="10.00">::Equals</text>
</a>
</g>
</g>
<!-- Node3&#45;&gt;Node7 -->
<g id="edge7_Node000003_Node000007" class="edge">
<title>Node3&#45;&gt;Node7</title>
<g id="a_edge7_Node000003_Node000007"><a xlink:title=" ">
<path fill="none" stroke="#63b8ff" d="M251.29,-95.59C264.09,-91.79 278.05,-87.65 291.36,-83.7"/>
<polygon fill="#63b8ff" stroke="#63b8ff" points="292.31,-87.07 300.9,-80.87 290.31,-80.36 292.31,-87.07"/>
</a>
</g>
</g>
<!-- Node8 -->
<g id="Node000008" class="node">
<title>Node8</title>
<g id="a_Node000008"><a xlink:href="class_fiea_1_1_engine_1_1_r_t_t_i.html#a43a7d187e332a17d2c699bc2c8136a30" target="_top" xlink:title=" ">
<polygon fill="white" stroke="#666666" points="401.25,-32 302.75,-32 302.75,0 401.25,0 401.25,-32"/>
<text xml:space="preserve" text-anchor="start" x="310.75" y="-18.5" font-family="Helvetica,sans-Serif" font-size="10.00">Fiea::Engine::RTTI</text>
<text xml:space="preserve" text-anchor="middle" x="352" y="-6.5" font-family="Helvetica,sans-Serif" font-size="10.00">::ToString</text>
</a>
</g>
</g>
<!-- Node3&#45;&gt;Node8 -->
<g id="edge11_Node000003_Node000008" class="edge">
<title>Node3&#45;&gt;Node8</title>
<g id="a_edge11_Node000003_Node000008"><a xlink:title=" ">
<path fill="none" stroke="#63b8ff" d="M221.69,-93.51C239.47,-78.56 267.24,-56.54 293.75,-41 295.76,-39.82 297.84,-38.66 299.95,-37.53"/>
<polygon fill="#63b8ff" stroke="#63b8ff" points="301.34,-40.75 308.71,-33.13 298.2,-34.5 301.34,-40.75"/>
</a>
</g>
</g>
<!-- Node4&#45;&gt;Node5 -->
<g id="edge5_Node000004_Node000005" class="edge">
<title>Node4&#45;&gt;Node5</title>
<g id="a_edge5_Node000004_Node000005"><a xlink:title=" ">
<path fill="none" stroke="#63b8ff" d="M410.46,-156.51C418.35,-157.67 426.5,-158.88 434.53,-160.07"/>
<polygon fill="#63b8ff" stroke="#63b8ff" points="433.88,-163.51 444.28,-161.51 434.91,-156.59 433.88,-163.51"/>
</a>
</g>
</g>
<!-- Node4&#45;&gt;Node6 -->
<g id="edge6_Node000004_Node000006" class="edge">
<title>Node4&#45;&gt;Node6</title>
<g id="a_edge6_Node000004_Node000006"><a xlink:title=" ">
<path fill="none" stroke="#63b8ff" d="M394.01,-137.52C408.88,-133.71 425.99,-129.34 442.13,-125.21"/>
<polygon fill="#63b8ff" stroke="#63b8ff" points="442.82,-128.65 451.64,-122.78 441.09,-121.87 442.82,-128.65"/>
</a>
</g>
</g>
<!-- Node7&#45;&gt;Node6 -->
<g id="edge8_Node000007_Node000006" class="edge">
<title>Node7&#45;&gt;Node6</title>
<g id="a_edge8_Node000007_Node000006"><a xlink:title=" ">
<path fill="none" stroke="#63b8ff" d="M401.67,-80.41C414.69,-84.26 428.92,-88.47 442.44,-92.48"/>
<polygon fill="#63b8ff" stroke="#63b8ff" points="441.07,-95.72 451.65,-95.21 443.06,-89.01 441.07,-95.72"/>
</a>
</g>
</g>
</g>
</svg>
