<?xml version="1.0" encoding="UTF-8" standalone="no"?>
<!DOCTYPE svg PUBLIC "-//W3C//DTD SVG 1.1//EN"
 "http://www.w3.org/Graphics/SVG/1.1/DTD/svg11.dtd">
<!-- Generated by graphviz version 13.1.0 (20250701.0955)
 -->
<!-- Title: Fiea::Engine::ServiceManager::ResetServiceMgr Pages: 1 -->
<svg width="292pt" height="640pt"
 viewBox="0.00 0.00 292.00 640.00" xmlns="http://www.w3.org/2000/svg" xmlns:xlink="http://www.w3.org/1999/xlink">
<g id="graph0" class="graph" transform="scale(1 1) rotate(0) translate(4 636)">
<title>Fiea::Engine::ServiceManager::ResetServiceMgr</title>
<!-- Node1 -->
<g id="Node000001" class="node">
<title>Node1</title>
<g id="a_Node000001"><a xlink:title=" ">
<polygon fill="#999999" stroke="#666666" points="284,-332 136.75,-332 136.75,-300 284,-300 284,-332"/>
<text xml:space="preserve" text-anchor="start" x="144.75" y="-318.5" font-family="Helvetica,sans-Serif" font-size="10.00">Fiea::Engine::ServiceManager</text>
<text xml:space="preserve" text-anchor="middle" x="210.38" y="-306.5" font-family="Helvetica,sans-Serif" font-size="10.00">::ResetServiceMgr</text>
</a>
</g>
</g>
<!-- Node2 -->
<g id="Node000002" class="node">
<title>Node2</title>
<g id="a_Node000002"><a xlink:href="namespace_fiea_1_1_engine_1_1_tests.html#a6fef2096c3071aeedc84a735d125856c" target="_top" xlink:title=" ">
<polygon fill="white" stroke="#666666" points="100.75,-632 0,-632 0,-600 100.75,-600 100.75,-632"/>
<text xml:space="preserve" text-anchor="start" x="8" y="-618.5" font-family="Helvetica,sans-Serif" font-size="10.00">Fiea::Engine::Tests</text>
<text xml:space="preserve" text-anchor="middle" x="50.38" y="-606.5" font-family="Helvetica,sans-Serif" font-size="10.00">::TEST_CLASS</text>
</a>
</g>
</g>
<!-- Node1&#45;&gt;Node2 -->
<g id="edge1_Node000001_Node000002" class="edge">
<title>Node1&#45;&gt;Node2</title>
<g id="a_edge1_Node000001_Node000002"><a xlink:title=" ">
<path fill="none" stroke="#63b8ff" d="M205.14,-343.71C195.6,-397.55 167.8,-517.44 100.75,-591 97.77,-594.27 94.27,-597.17 90.53,-599.73"/>
<polygon fill="#63b8ff" stroke="#63b8ff" points="208.58,-344.32 206.79,-333.88 201.68,-343.16 208.58,-344.32"/>
</a>
</g>
</g>
<!-- Node3 -->
<g id="Node000003" class="node">
<title>Node3</title>
<g id="a_Node000003"><a xlink:href="namespace_fiea_1_1_engine_1_1_tests.html#a376f9ed8237603ebeb822c9076f2f630" target="_top" xlink:title=" ">
<polygon fill="white" stroke="#666666" points="100.75,-582 0,-582 0,-550 100.75,-550 100.75,-582"/>
<text xml:space="preserve" text-anchor="start" x="8" y="-568.5" font-family="Helvetica,sans-Serif" font-size="10.00">Fiea::Engine::Tests</text>
<text xml:space="preserve" text-anchor="middle" x="50.38" y="-556.5" font-family="Helvetica,sans-Serif" font-size="10.00">::TEST_CLASS</text>
</a>
</g>
</g>
<!-- Node1&#45;&gt;Node3 -->
<g id="edge2_Node000001_Node000003" class="edge">
<title>Node1&#45;&gt;Node3</title>
<g id="a_edge2_Node000001_Node000003"><a xlink:title=" ">
<path fill="none" stroke="#63b8ff" d="M202.47,-343.12C189.56,-389.07 157.76,-482.9 100.75,-541 97.52,-544.29 93.77,-547.23 89.8,-549.83"/>
<polygon fill="#63b8ff" stroke="#63b8ff" points="205.78,-344.29 205.03,-333.72 199.03,-342.46 205.78,-344.29"/>
</a>
</g>
</g>
<!-- Node4 -->
<g id="Node000004" class="node">
<title>Node4</title>
<g id="a_Node000004"><a xlink:href="namespace_fiea_1_1_engine_1_1_tests.html#a7f5c7835a1ebaa98c6d49380ec86f0ba" target="_top" xlink:title=" ">
<polygon fill="white" stroke="#666666" points="100.75,-532 0,-532 0,-500 100.75,-500 100.75,-532"/>
<text xml:space="preserve" text-anchor="start" x="8" y="-518.5" font-family="Helvetica,sans-Serif" font-size="10.00">Fiea::Engine::Tests</text>
<text xml:space="preserve" text-anchor="middle" x="50.38" y="-506.5" font-family="Helvetica,sans-Serif" font-size="10.00">::TEST_CLASS</text>
</a>
</g>
</g>
<!-- Node1&#45;&gt;Node4 -->
<g id="edge3_Node000001_Node000004" class="edge">
<title>Node1&#45;&gt;Node4</title>
<g id="a_edge3_Node000001_Node000004"><a xlink:title=" ">
<path fill="none" stroke="#63b8ff" d="M198.36,-342.81C181.89,-380.12 147.69,-447.97 100.75,-491 97.28,-494.18 93.33,-497.06 89.21,-499.64"/>
<polygon fill="#63b8ff" stroke="#63b8ff" points="201.56,-344.23 202.29,-333.66 195.13,-341.46 201.56,-344.23"/>
</a>
</g>
</g>
<!-- Node5 -->
<g id="Node000005" class="node">
<title>Node5</title>
<g id="a_Node000005"><a xlink:href="namespace_fiea_1_1_engine_1_1_tests.html#aaa7584a8b305871c6cc1d1144266a08f" target="_top" xlink:title=" ">
<polygon fill="white" stroke="#666666" points="100.75,-482 0,-482 0,-450 100.75,-450 100.75,-482"/>
<text xml:space="preserve" text-anchor="start" x="8" y="-468.5" font-family="Helvetica,sans-Serif" font-size="10.00">Fiea::Engine::Tests</text>
<text xml:space="preserve" text-anchor="middle" x="50.38" y="-456.5" font-family="Helvetica,sans-Serif" font-size="10.00">::TEST_CLASS</text>
</a>
</g>
</g>
<!-- Node1&#45;&gt;Node5 -->
<g id="edge4_Node000001_Node000005" class="edge">
<title>Node1&#45;&gt;Node5</title>
<g id="a_edge4_Node000001_Node000005"><a xlink:title=" ">
<path fill="none" stroke="#63b8ff" d="M191.74,-341.66C172.01,-368.93 137.91,-412.04 100.75,-441 96.81,-444.07 92.43,-446.93 87.96,-449.53"/>
<polygon fill="#63b8ff" stroke="#63b8ff" points="194.51,-343.8 197.46,-333.62 188.81,-339.74 194.51,-343.8"/>
</a>
</g>
</g>
<!-- Node6 -->
<g id="Node000006" class="node">
<title>Node6</title>
<g id="a_Node000006"><a xlink:href="namespace_fiea_1_1_engine_1_1_tests.html#ad7d06bf277bf903f5dbc3982540b1563" target="_top" xlink:title=" ">
<polygon fill="white" stroke="#666666" points="100.75,-432 0,-432 0,-400 100.75,-400 100.75,-432"/>
<text xml:space="preserve" text-anchor="start" x="8" y="-418.5" font-family="Helvetica,sans-Serif" font-size="10.00">Fiea::Engine::Tests</text>
<text xml:space="preserve" text-anchor="middle" x="50.38" y="-406.5" font-family="Helvetica,sans-Serif" font-size="10.00">::TEST_CLASS</text>
</a>
</g>
</g>
<!-- Node1&#45;&gt;Node6 -->
<g id="edge5_Node000001_Node000006" class="edge">
<title>Node1&#45;&gt;Node6</title>
<g id="a_edge5_Node000001_Node000006"><a xlink:title=" ">
<path fill="none" stroke="#63b8ff" d="M178.28,-339.14C156.95,-354.6 127.74,-374.95 100.75,-391 95.88,-393.9 90.63,-396.79 85.44,-399.52"/>
<polygon fill="#63b8ff" stroke="#63b8ff" points="180.25,-342.04 186.27,-333.31 176.13,-336.38 180.25,-342.04"/>
</a>
</g>
</g>
<!-- Node7 -->
<g id="Node000007" class="node">
<title>Node7</title>
<g id="a_Node000007"><a xlink:href="namespace_fiea_1_1_engine_1_1_tests.html#a3cdcf27a81b8b07fd7e0f633fb413ca8" target="_top" xlink:title=" ">
<polygon fill="white" stroke="#666666" points="100.75,-382 0,-382 0,-350 100.75,-350 100.75,-382"/>
<text xml:space="preserve" text-anchor="start" x="8" y="-368.5" font-family="Helvetica,sans-Serif" font-size="10.00">Fiea::Engine::Tests</text>
<text xml:space="preserve" text-anchor="middle" x="50.38" y="-356.5" font-family="Helvetica,sans-Serif" font-size="10.00">::TEST_CLASS</text>
</a>
</g>
</g>
<!-- Node1&#45;&gt;Node7 -->
<g id="edge6_Node000001_Node000007" class="edge">
<title>Node1&#45;&gt;Node7</title>
<g id="a_edge6_Node000001_Node000007"><a xlink:title=" ">
<path fill="none" stroke="#63b8ff" d="M146.77,-335.81C131.59,-340.62 115.57,-345.69 101.08,-350.27"/>
<polygon fill="#63b8ff" stroke="#63b8ff" points="147.72,-339.18 156.2,-332.83 145.61,-332.51 147.72,-339.18"/>
</a>
</g>
</g>
<!-- Node8 -->
<g id="Node000008" class="node">
<title>Node8</title>
<g id="a_Node000008"><a xlink:href="namespace_fiea_1_1_engine_1_1_tests.html#a68f566c6aeab43c3e521cc48e0c08362" target="_top" xlink:title=" ">
<polygon fill="white" stroke="#666666" points="100.75,-332 0,-332 0,-300 100.75,-300 100.75,-332"/>
<text xml:space="preserve" text-anchor="start" x="8" y="-318.5" font-family="Helvetica,sans-Serif" font-size="10.00">Fiea::Engine::Tests</text>
<text xml:space="preserve" text-anchor="middle" x="50.38" y="-306.5" font-family="Helvetica,sans-Serif" font-size="10.00">::TEST_CLASS</text>
</a>
</g>
</g>
<!-- Node1&#45;&gt;Node8 -->
<g id="edge7_Node000001_Node000008" class="edge">
<title>Node1&#45;&gt;Node8</title>
<g id="a_edge7_Node000001_Node000008"><a xlink:title=" ">
<path fill="none" stroke="#63b8ff" d="M125.15,-316C116.92,-316 108.76,-316 101.04,-316"/>
<polygon fill="#63b8ff" stroke="#63b8ff" points="124.87,-319.5 134.87,-316 124.87,-312.5 124.87,-319.5"/>
</a>
</g>
</g>
<!-- Node9 -->
<g id="Node000009" class="node">
<title>Node9</title>
<g id="a_Node000009"><a xlink:href="namespace_fiea_1_1_engine_1_1_tests.html#a34b2b8dfbe4f7aa6a3ea0a5f24db384f" target="_top" xlink:title=" ">
<polygon fill="white" stroke="#666666" points="100.75,-282 0,-282 0,-250 100.75,-250 100.75,-282"/>
<text xml:space="preserve" text-anchor="start" x="8" y="-268.5" font-family="Helvetica,sans-Serif" font-size="10.00">Fiea::Engine::Tests</text>
<text xml:space="preserve" text-anchor="middle" x="50.38" y="-256.5" font-family="Helvetica,sans-Serif" font-size="10.00">::TEST_CLASS</text>
</a>
</g>
</g>
<!-- Node1&#45;&gt;Node9 -->
<g id="edge8_Node000001_Node000009" class="edge">
<title>Node1&#45;&gt;Node9</title>
<g id="a_edge8_Node000001_Node000009"><a xlink:title=" ">
<path fill="none" stroke="#63b8ff" d="M146.77,-296.19C131.59,-291.38 115.57,-286.31 101.08,-281.73"/>
<polygon fill="#63b8ff" stroke="#63b8ff" points="145.61,-299.49 156.2,-299.17 147.72,-292.82 145.61,-299.49"/>
</a>
</g>
</g>
<!-- Node10 -->
<g id="Node000010" class="node">
<title>Node10</title>
<g id="a_Node000010"><a xlink:href="namespace_fiea_1_1_engine_1_1_tests.html#a16fc13573dc263e0c19766314b40d399" target="_top" xlink:title=" ">
<polygon fill="white" stroke="#666666" points="100.75,-232 0,-232 0,-200 100.75,-200 100.75,-232"/>
<text xml:space="preserve" text-anchor="start" x="8" y="-218.5" font-family="Helvetica,sans-Serif" font-size="10.00">Fiea::Engine::Tests</text>
<text xml:space="preserve" text-anchor="middle" x="50.38" y="-206.5" font-family="Helvetica,sans-Serif" font-size="10.00">::TEST_CLASS</text>
</a>
</g>
</g>
<!-- Node1&#45;&gt;Node10 -->
<g id="edge9_Node000001_Node000010" class="edge">
<title>Node1&#45;&gt;Node10</title>
<g id="a_edge9_Node000001_Node000010"><a xlink:title=" ">
<path fill="none" stroke="#63b8ff" d="M178.28,-292.86C156.95,-277.4 127.74,-257.05 100.75,-241 95.88,-238.1 90.63,-235.21 85.44,-232.48"/>
<polygon fill="#63b8ff" stroke="#63b8ff" points="176.13,-295.62 186.27,-298.69 180.25,-289.96 176.13,-295.62"/>
</a>
</g>
</g>
<!-- Node11 -->
<g id="Node000011" class="node">
<title>Node11</title>
<g id="a_Node000011"><a xlink:href="namespace_fiea_1_1_engine_1_1_tests.html#a217e9c28b23b0ee07f93392651454c83" target="_top" xlink:title=" ">
<polygon fill="white" stroke="#666666" points="100.75,-182 0,-182 0,-150 100.75,-150 100.75,-182"/>
<text xml:space="preserve" text-anchor="start" x="8" y="-168.5" font-family="Helvetica,sans-Serif" font-size="10.00">Fiea::Engine::Tests</text>
<text xml:space="preserve" text-anchor="middle" x="50.38" y="-156.5" font-family="Helvetica,sans-Serif" font-size="10.00">::TEST_CLASS</text>
</a>
</g>
</g>
<!-- Node1&#45;&gt;Node11 -->
<g id="edge10_Node000001_Node000011" class="edge">
<title>Node1&#45;&gt;Node11</title>
<g id="a_edge10_Node000001_Node000011"><a xlink:title=" ">
<path fill="none" stroke="#63b8ff" d="M191.74,-290.34C172.01,-263.07 137.91,-219.96 100.75,-191 96.81,-187.93 92.43,-185.07 87.96,-182.47"/>
<polygon fill="#63b8ff" stroke="#63b8ff" points="188.81,-292.26 197.46,-298.38 194.51,-288.2 188.81,-292.26"/>
</a>
</g>
</g>
<!-- Node12 -->
<g id="Node000012" class="node">
<title>Node12</title>
<g id="a_Node000012"><a xlink:href="namespace_fiea_1_1_engine_1_1_tests.html#aceedc88e68490f2629fe8c4dcced8ff3" target="_top" xlink:title=" ">
<polygon fill="white" stroke="#666666" points="100.75,-132 0,-132 0,-100 100.75,-100 100.75,-132"/>
<text xml:space="preserve" text-anchor="start" x="8" y="-118.5" font-family="Helvetica,sans-Serif" font-size="10.00">Fiea::Engine::Tests</text>
<text xml:space="preserve" text-anchor="middle" x="50.38" y="-106.5" font-family="Helvetica,sans-Serif" font-size="10.00">::TEST_CLASS</text>
</a>
</g>
</g>
<!-- Node1&#45;&gt;Node12 -->
<g id="edge11_Node000001_Node000012" class="edge">
<title>Node1&#45;&gt;Node12</title>
<g id="a_edge11_Node000001_Node000012"><a xlink:title=" ">
<path fill="none" stroke="#63b8ff" d="M198.36,-289.19C181.89,-251.88 147.69,-184.03 100.75,-141 97.28,-137.82 93.33,-134.94 89.21,-132.36"/>
<polygon fill="#63b8ff" stroke="#63b8ff" points="195.13,-290.54 202.29,-298.34 201.56,-287.77 195.13,-290.54"/>
</a>
</g>
</g>
<!-- Node13 -->
<g id="Node000013" class="node">
<title>Node13</title>
<g id="a_Node000013"><a xlink:href="namespace_fiea_1_1_engine_1_1_tests.html#a89b054e30b186f60d7f23c17503265da" target="_top" xlink:title=" ">
<polygon fill="white" stroke="#666666" points="100.75,-82 0,-82 0,-50 100.75,-50 100.75,-82"/>
<text xml:space="preserve" text-anchor="start" x="8" y="-68.5" font-family="Helvetica,sans-Serif" font-size="10.00">Fiea::Engine::Tests</text>
<text xml:space="preserve" text-anchor="middle" x="50.38" y="-56.5" font-family="Helvetica,sans-Serif" font-size="10.00">::TEST_CLASS</text>
</a>
</g>
</g>
<!-- Node1&#45;&gt;Node13 -->
<g id="edge12_Node000001_Node000013" class="edge">
<title>Node1&#45;&gt;Node13</title>
<g id="a_edge12_Node000001_Node000013"><a xlink:title=" ">
<path fill="none" stroke="#63b8ff" d="M202.47,-288.88C189.56,-242.93 157.76,-149.1 100.75,-91 97.52,-87.71 93.77,-84.77 89.8,-82.17"/>
<polygon fill="#63b8ff" stroke="#63b8ff" points="199.03,-289.54 205.03,-298.28 205.78,-287.71 199.03,-289.54"/>
</a>
</g>
</g>
<!-- Node14 -->
<g id="Node000014" class="node">
<title>Node14</title>
<g id="a_Node000014"><a xlink:href="namespace_fiea_1_1_engine_1_1_tests.html#ac5649971ac3bf0ed64a9afba695697bf" target="_top" xlink:title=" ">
<polygon fill="white" stroke="#666666" points="100.75,-32 0,-32 0,0 100.75,0 100.75,-32"/>
<text xml:space="preserve" text-anchor="start" x="8" y="-18.5" font-family="Helvetica,sans-Serif" font-size="10.00">Fiea::Engine::Tests</text>
<text xml:space="preserve" text-anchor="middle" x="50.38" y="-6.5" font-family="Helvetica,sans-Serif" font-size="10.00">::TEST_CLASS</text>
</a>
</g>
</g>
<!-- Node1&#45;&gt;Node14 -->
<g id="edge13_Node000001_Node000014" class="edge">
<title>Node1&#45;&gt;Node14</title>
<g id="a_edge13_Node000001_Node000014"><a xlink:title=" ">
<path fill="none" stroke="#63b8ff" d="M205.14,-288.29C195.6,-234.45 167.8,-114.56 100.75,-41 97.77,-37.73 94.27,-34.83 90.53,-32.27"/>
<polygon fill="#63b8ff" stroke="#63b8ff" points="201.68,-288.84 206.79,-298.12 208.58,-287.68 201.68,-288.84"/>
</a>
</g>
</g>
</g>
</svg>
