<?xml version="1.0" encoding="UTF-8" standalone="no"?>
<!DOCTYPE svg PUBLIC "-//W3C//DTD SVG 1.1//EN"
 "http://www.w3.org/Graphics/SVG/1.1/DTD/svg11.dtd">
<!-- Generated by graphviz version 13.1.0 (20250701.0955)
 -->
<!-- Title: Fiea::Engine::Content::Attributed::IsAttribute Pages: 1 -->
<svg width="810pt" height="264pt"
 viewBox="0.00 0.00 810.00 264.00" xmlns="http://www.w3.org/2000/svg" xmlns:xlink="http://www.w3.org/1999/xlink">
<g id="graph0" class="graph" transform="scale(1 1) rotate(0) translate(4 260.32)">
<title>Fiea::Engine::Content::Attributed::IsAttribute</title>
<!-- Node1 -->
<g id="Node000001" class="node">
<title>Node1</title>
<g id="a_Node000001"><a xlink:title="Checks if a given key is an attribute.">
<polygon fill="#999999" stroke="#666666" points="802.25,-191.15 687.25,-191.15 687.25,-159.15 802.25,-159.15 802.25,-191.15"/>
<text xml:space="preserve" text-anchor="start" x="695.25" y="-177.65" font-family="Helvetica,sans-Serif" font-size="10.00">Fiea::Engine::Content</text>
<text xml:space="preserve" text-anchor="middle" x="744.75" y="-165.65" font-family="Helvetica,sans-Serif" font-size="10.00">::Attributed::IsAttribute</text>
</a>
</g>
</g>
<!-- Node2 -->
<g id="Node000002" class="node">
<title>Node2</title>
<g id="a_Node000002"><a xlink:href="class_fiea_1_1_engine_1_1_content_1_1_attributed.html#af9a419e6aa1b52eed4c923a89931771e" target="_top" xlink:title="Checks if a given key is a class attribute.">
<polygon fill="white" stroke="#666666" points="651.25,-169.15 510.75,-169.15 510.75,-137.15 651.25,-137.15 651.25,-169.15"/>
<text xml:space="preserve" text-anchor="start" x="518.75" y="-155.65" font-family="Helvetica,sans-Serif" font-size="10.00">Fiea::Engine::Content</text>
<text xml:space="preserve" text-anchor="middle" x="581" y="-143.65" font-family="Helvetica,sans-Serif" font-size="10.00">::Attributed::IsClassAttribute</text>
</a>
</g>
</g>
<!-- Node1&#45;&gt;Node2 -->
<g id="edge1_Node000001_Node000002" class="edge">
<title>Node1&#45;&gt;Node2</title>
<g id="a_edge1_Node000001_Node000002"><a xlink:title=" ">
<path fill="none" stroke="#63b8ff" d="M675.96,-165.93C667.92,-164.83 659.7,-163.72 651.63,-162.62"/>
<polygon fill="#63b8ff" stroke="#63b8ff" points="675.3,-169.37 685.68,-167.25 676.24,-162.43 675.3,-169.37"/>
</a>
</g>
</g>
<!-- Node4 -->
<g id="Node000004" class="node">
<title>Node4</title>
<g id="a_Node000004"><a xlink:href="namespace_fiea_1_1_engine_1_1_tests.html#ad7d06bf277bf903f5dbc3982540b1563" target="_top" xlink:title=" ">
<polygon fill="white" stroke="#666666" points="100.75,-213.15 0,-213.15 0,-181.15 100.75,-181.15 100.75,-213.15"/>
<text xml:space="preserve" text-anchor="start" x="8" y="-199.65" font-family="Helvetica,sans-Serif" font-size="10.00">Fiea::Engine::Tests</text>
<text xml:space="preserve" text-anchor="middle" x="50.38" y="-187.65" font-family="Helvetica,sans-Serif" font-size="10.00">::TEST_CLASS</text>
</a>
</g>
</g>
<!-- Node1&#45;&gt;Node4 -->
<g id="edge14_Node000001_Node000004" class="edge">
<title>Node1&#45;&gt;Node4</title>
<g id="a_edge14_Node000001_Node000004"><a xlink:title=" ">
<path fill="none" stroke="#63b8ff" d="M682.58,-194.83C572.16,-227.43 332.82,-284.77 136.75,-239.15 115.35,-234.17 93.14,-223.03 76.74,-213.47"/>
<polygon fill="#63b8ff" stroke="#63b8ff" points="683.46,-198.21 692.04,-191.99 681.46,-191.51 683.46,-198.21"/>
</a>
</g>
</g>
<!-- Node5 -->
<g id="Node000005" class="node">
<title>Node5</title>
<g id="a_Node000005"><a xlink:href="namespace_fiea_1_1_engine_1_1_tests.html#a3cdcf27a81b8b07fd7e0f633fb413ca8" target="_top" xlink:title=" ">
<polygon fill="white" stroke="#666666" points="100.75,-81.15 0,-81.15 0,-49.15 100.75,-49.15 100.75,-81.15"/>
<text xml:space="preserve" text-anchor="start" x="8" y="-67.65" font-family="Helvetica,sans-Serif" font-size="10.00">Fiea::Engine::Tests</text>
<text xml:space="preserve" text-anchor="middle" x="50.38" y="-55.65" font-family="Helvetica,sans-Serif" font-size="10.00">::TEST_CLASS</text>
</a>
</g>
</g>
<!-- Node1&#45;&gt;Node5 -->
<g id="edge15_Node000001_Node000005" class="edge">
<title>Node1&#45;&gt;Node5</title>
<g id="a_edge15_Node000001_Node000005"><a xlink:title=" ">
<path fill="none" stroke="#63b8ff" d="M710.85,-152.53C661.9,-120.21 565.85,-61.9 474.75,-36.15 330.07,4.76 283.03,12.61 136.75,-22.15 115.11,-27.29 92.74,-38.83 76.32,-48.66"/>
<polygon fill="#63b8ff" stroke="#63b8ff" points="708.76,-155.34 719.02,-157.98 712.65,-149.52 708.76,-155.34"/>
</a>
</g>
</g>
<!-- Node6 -->
<g id="Node000006" class="node">
<title>Node6</title>
<g id="a_Node000006"><a xlink:href="class_fiea_1_1_engine_1_1_content_1_1_attributed.html#a2bf121c3108ae47b421b831a88b19a49" target="_top" xlink:title="Checks if a given key is an instance attribute.">
<polygon fill="white" stroke="#666666" points="474.75,-213.15 322.25,-213.15 322.25,-181.15 474.75,-181.15 474.75,-213.15"/>
<text xml:space="preserve" text-anchor="start" x="330.25" y="-199.65" font-family="Helvetica,sans-Serif" font-size="10.00">Fiea::Engine::Content</text>
<text xml:space="preserve" text-anchor="middle" x="398.5" y="-187.65" font-family="Helvetica,sans-Serif" font-size="10.00">::Attributed::IsInstanceAttribute</text>
</a>
</g>
</g>
<!-- Node1&#45;&gt;Node6 -->
<g id="edge13_Node000001_Node000006" class="edge">
<title>Node1&#45;&gt;Node6</title>
<g id="a_edge13_Node000001_Node000006"><a xlink:title=" ">
<path fill="none" stroke="#63b8ff" d="M675.69,-179.5C617.89,-183.19 535.02,-188.49 475.15,-192.31"/>
<polygon fill="#63b8ff" stroke="#63b8ff" points="675.64,-183.01 685.39,-178.88 675.19,-176.02 675.64,-183.01"/>
</a>
</g>
</g>
<!-- Node3 -->
<g id="Node000003" class="node">
<title>Node3</title>
<g id="a_Node000003"><a xlink:href="class_fiea_1_1_engine_1_1_content_1_1_attributed.html#a7fc54279fcfc7c8bd925e6b47e396446" target="_top" xlink:title="Appends a new instance attribute.">
<polygon fill="white" stroke="#666666" points="281.75,-87.15 141.25,-87.15 141.25,-43.15 281.75,-43.15 281.75,-87.15"/>
<text xml:space="preserve" text-anchor="start" x="149.25" y="-73.65" font-family="Helvetica,sans-Serif" font-size="10.00">Fiea::Engine::Content</text>
<text xml:space="preserve" text-anchor="start" x="149.25" y="-61.65" font-family="Helvetica,sans-Serif" font-size="10.00">::Attributed::AppendInstance</text>
<text xml:space="preserve" text-anchor="middle" x="211.5" y="-49.65" font-family="Helvetica,sans-Serif" font-size="10.00">Attribute</text>
</a>
</g>
</g>
<!-- Node2&#45;&gt;Node3 -->
<g id="edge2_Node000002_Node000003" class="edge">
<title>Node2&#45;&gt;Node3</title>
<g id="a_edge2_Node000002_Node000003"><a xlink:title=" ">
<path fill="none" stroke="#63b8ff" d="M500.29,-134.06C435.24,-118.48 344.25,-96.7 282.1,-81.82"/>
<polygon fill="#63b8ff" stroke="#63b8ff" points="499.3,-137.42 509.84,-136.35 500.93,-130.61 499.3,-137.42"/>
</a>
</g>
</g>
<!-- Node2&#45;&gt;Node4 -->
<g id="edge11_Node000002_Node000004" class="edge">
<title>Node2&#45;&gt;Node4</title>
<g id="a_edge11_Node000002_Node000004"><a xlink:title=" ">
<path fill="none" stroke="#63b8ff" d="M498.96,-150.78C409.63,-149.52 261.97,-151.45 136.75,-172.15 124.71,-174.14 111.97,-177.28 100.11,-180.68"/>
<polygon fill="#63b8ff" stroke="#63b8ff" points="498.8,-154.28 508.85,-150.94 498.91,-147.28 498.8,-154.28"/>
</a>
</g>
</g>
<!-- Node2&#45;&gt;Node5 -->
<g id="edge12_Node000002_Node000005" class="edge">
<title>Node2&#45;&gt;Node5</title>
<g id="a_edge12_Node000002_Node000005"><a xlink:title=" ">
<path fill="none" stroke="#63b8ff" d="M547.78,-130.5C527.54,-117.06 500.48,-100.49 474.75,-89.15 394.89,-53.95 372.64,-46.49 286.25,-34.15 220.47,-24.75 202.19,-22.64 136.75,-34.15 120.29,-37.04 102.82,-42.86 88,-48.67"/>
<polygon fill="#63b8ff" stroke="#63b8ff" points="545.64,-133.27 555.88,-135.97 549.55,-127.47 545.64,-133.27"/>
</a>
</g>
</g>
<!-- Node2&#45;&gt;Node6 -->
<g id="edge5_Node000002_Node000006" class="edge">
<title>Node2&#45;&gt;Node6</title>
<g id="a_edge5_Node000002_Node000006"><a xlink:title=" ">
<path fill="none" stroke="#63b8ff" d="M501.63,-172.25C490.16,-175.05 478.42,-177.91 467.19,-180.65"/>
<polygon fill="#63b8ff" stroke="#63b8ff" points="502.17,-175.72 511.06,-169.95 500.52,-168.92 502.17,-175.72"/>
</a>
</g>
</g>
<!-- Node3&#45;&gt;Node4 -->
<g id="edge3_Node000003_Node000004" class="edge">
<title>Node3&#45;&gt;Node4</title>
<g id="a_edge3_Node000003_Node000004"><a xlink:title=" ">
<path fill="none" stroke="#63b8ff" d="M174.85,-94.72C142.76,-121.34 96.8,-159.47 70.96,-180.9"/>
<polygon fill="#63b8ff" stroke="#63b8ff" points="176.88,-97.58 182.34,-88.51 172.41,-92.2 176.88,-97.58"/>
</a>
</g>
</g>
<!-- Node3&#45;&gt;Node5 -->
<g id="edge4_Node000003_Node000005" class="edge">
<title>Node3&#45;&gt;Node5</title>
<g id="a_edge4_Node000003_Node000005"><a xlink:title=" ">
<path fill="none" stroke="#63b8ff" d="M129.66,-65.15C119.84,-65.15 110.04,-65.15 100.87,-65.15"/>
<polygon fill="#63b8ff" stroke="#63b8ff" points="129.65,-68.65 139.65,-65.15 129.65,-61.65 129.65,-68.65"/>
</a>
</g>
</g>
<!-- Node6&#45;&gt;Node4 -->
<g id="edge9_Node000006_Node000004" class="edge">
<title>Node6&#45;&gt;Node4</title>
<g id="a_edge9_Node000006_Node000004"><a xlink:title=" ">
<path fill="none" stroke="#63b8ff" d="M324.54,-215.95C311.85,-218.53 298.73,-220.76 286.25,-222.15 220.21,-229.48 202.52,-231.58 136.75,-222.15 124.21,-220.35 110.95,-217.14 98.71,-213.6"/>
<polygon fill="#63b8ff" stroke="#63b8ff" points="325.01,-219.43 334.06,-213.93 323.55,-212.59 325.01,-219.43"/>
</a>
</g>
</g>
<!-- Node6&#45;&gt;Node5 -->
<g id="edge10_Node000006_Node000005" class="edge">
<title>Node6&#45;&gt;Node5</title>
<g id="a_edge10_Node000006_Node000005"><a xlink:title=" ">
<path fill="none" stroke="#63b8ff" d="M343.78,-176.66C275.13,-150.48 157.64,-105.67 94.51,-81.6"/>
<polygon fill="#63b8ff" stroke="#63b8ff" points="342.36,-179.86 352.95,-180.16 344.85,-173.32 342.36,-179.86"/>
</a>
</g>
</g>
<!-- Node7 -->
<g id="Node000007" class="node">
<title>Node7</title>
<g id="a_Node000007"><a xlink:href="class_fiea_1_1_engine_1_1_content_1_1_attributed.html#afb5756182b73d6326b8021f88ee51877" target="_top" xlink:title="Retrieves all instance attribute names.">
<polygon fill="white" stroke="#666666" points="286.25,-213.15 136.75,-213.15 136.75,-181.15 286.25,-181.15 286.25,-213.15"/>
<text xml:space="preserve" text-anchor="start" x="144.75" y="-199.65" font-family="Helvetica,sans-Serif" font-size="10.00">Fiea::Engine::Content</text>
<text xml:space="preserve" text-anchor="middle" x="211.5" y="-187.65" font-family="Helvetica,sans-Serif" font-size="10.00">::Attributed::InstanceAttributes</text>
</a>
</g>
</g>
<!-- Node6&#45;&gt;Node7 -->
<g id="edge6_Node000006_Node000007" class="edge">
<title>Node6&#45;&gt;Node7</title>
<g id="a_edge6_Node000006_Node000007"><a xlink:title=" ">
<path fill="none" stroke="#63b8ff" d="M310.66,-197.15C302.61,-197.15 294.5,-197.15 286.58,-197.15"/>
<polygon fill="#63b8ff" stroke="#63b8ff" points="310.47,-200.65 320.47,-197.15 310.47,-193.65 310.47,-200.65"/>
</a>
</g>
</g>
<!-- Node7&#45;&gt;Node4 -->
<g id="edge7_Node000007_Node000004" class="edge">
<title>Node7&#45;&gt;Node4</title>
<g id="a_edge7_Node000007_Node000004"><a xlink:title=" ">
<path fill="none" stroke="#63b8ff" d="M125.25,-197.15C116.99,-197.15 108.82,-197.15 101.08,-197.15"/>
<polygon fill="#63b8ff" stroke="#63b8ff" points="125.01,-200.65 135.01,-197.15 125.01,-193.65 125.01,-200.65"/>
</a>
</g>
</g>
<!-- Node7&#45;&gt;Node5 -->
<g id="edge8_Node000007_Node000005" class="edge">
<title>Node7&#45;&gt;Node5</title>
<g id="a_edge8_Node000007_Node000005"><a xlink:title=" ">
<path fill="none" stroke="#63b8ff" d="M182.21,-173.68C150.28,-147.19 99.15,-104.78 71.21,-81.6"/>
<polygon fill="#63b8ff" stroke="#63b8ff" points="179.57,-176.04 189.5,-179.73 184.04,-170.65 179.57,-176.04"/>
</a>
</g>
</g>
</g>
</svg>
