<?xml version="1.0" encoding="UTF-8" standalone="no"?>
<!DOCTYPE svg PUBLIC "-//W3C//DTD SVG 1.1//EN"
 "http://www.w3.org/Graphics/SVG/1.1/DTD/svg11.dtd">
<!-- Generated by graphviz version 13.1.0 (20250701.0955)
 -->
<!-- Title: Fiea::Engine::Actions::ActionListWhileLoop::InitAction Pages: 1 -->
<svg width="427pt" height="302pt"
 viewBox="0.00 0.00 427.00 302.00" xmlns="http://www.w3.org/2000/svg" xmlns:xlink="http://www.w3.org/1999/xlink">
<g id="graph0" class="graph" transform="scale(1 1) rotate(0) translate(4 298)">
<title>Fiea::Engine::Actions::ActionListWhileLoop::InitAction</title>
<!-- Node1 -->
<g id="Node000001" class="node">
<title>Node1</title>
<g id="a_Node000001"><a xlink:title=" ">
<polygon fill="#999999" stroke="#666666" points="111.25,-206 0,-206 0,-162 111.25,-162 111.25,-206"/>
<text xml:space="preserve" text-anchor="start" x="8" y="-192.5" font-family="Helvetica,sans-Serif" font-size="10.00">Fiea::Engine::Actions</text>
<text xml:space="preserve" text-anchor="start" x="8" y="-180.5" font-family="Helvetica,sans-Serif" font-size="10.00">::ActionListWhileLoop</text>
<text xml:space="preserve" text-anchor="middle" x="55.62" y="-168.5" font-family="Helvetica,sans-Serif" font-size="10.00">::InitAction</text>
</a>
</g>
</g>
<!-- Node2 -->
<g id="Node000002" class="node">
<title>Node2</title>
<g id="a_Node000002"><a xlink:href="class_fiea_1_1_engine_1_1_r_t_t_i.html#a15bd5993c8ad04da47af440298ebbb30" target="_top" xlink:title=" ">
<polygon fill="white" stroke="#666666" points="263.75,-263 147.25,-263 147.25,-243 263.75,-243 263.75,-263"/>
<text xml:space="preserve" text-anchor="middle" x="205.5" y="-249.5" font-family="Helvetica,sans-Serif" font-size="10.00">Fiea::Engine::RTTI::As</text>
</a>
</g>
</g>
<!-- Node1&#45;&gt;Node2 -->
<g id="edge1_Node000001_Node000002" class="edge">
<title>Node1&#45;&gt;Node2</title>
<g id="a_edge1_Node000001_Node000002"><a xlink:title=" ">
<path fill="none" stroke="#63b8ff" d="M93.32,-206.26C109.51,-215.55 128.98,-226.01 147.25,-234 151.02,-235.65 154.99,-237.24 158.99,-238.75"/>
<polygon fill="#63b8ff" stroke="#63b8ff" points="157.58,-241.96 168.18,-242.04 159.94,-235.37 157.58,-241.96"/>
</a>
</g>
</g>
<!-- Node5 -->
<g id="Node000005" class="node">
<title>Node5</title>
<g id="a_Node000005"><a xlink:href="class_fiea_1_1_engine_1_1_content_1_1_scope.html#ad924c01785b239991fc0e56a63295612" target="_top" xlink:title="Finds a Datum by key.">
<polygon fill="white" stroke="#666666" points="261.12,-225 149.88,-225 149.88,-193 261.12,-193 261.12,-225"/>
<text xml:space="preserve" text-anchor="start" x="157.88" y="-211.5" font-family="Helvetica,sans-Serif" font-size="10.00">Fiea::Engine::Content</text>
<text xml:space="preserve" text-anchor="middle" x="205.5" y="-199.5" font-family="Helvetica,sans-Serif" font-size="10.00">::Scope::Find</text>
</a>
</g>
</g>
<!-- Node1&#45;&gt;Node5 -->
<g id="edge4_Node000001_Node000005" class="edge">
<title>Node1&#45;&gt;Node5</title>
<g id="a_edge4_Node000001_Node000005"><a xlink:title=" ">
<path fill="none" stroke="#63b8ff" d="M111.69,-193.31C120.35,-194.77 129.38,-196.3 138.26,-197.8"/>
<polygon fill="#63b8ff" stroke="#63b8ff" points="137.45,-201.21 147.9,-199.43 138.62,-194.31 137.45,-201.21"/>
</a>
</g>
</g>
<!-- Node6 -->
<g id="Node000006" class="node">
<title>Node6</title>
<g id="a_Node000006"><a xlink:href="class_fiea_1_1_engine_1_1_content_1_1_datum.html#a7f92976f27f407987cf287a2f7017e04" target="_top" xlink:title=" ">
<polygon fill="white" stroke="#666666" points="261.12,-175 149.88,-175 149.88,-143 261.12,-143 261.12,-175"/>
<text xml:space="preserve" text-anchor="start" x="157.88" y="-161.5" font-family="Helvetica,sans-Serif" font-size="10.00">Fiea::Engine::Content</text>
<text xml:space="preserve" text-anchor="middle" x="205.5" y="-149.5" font-family="Helvetica,sans-Serif" font-size="10.00">::Datum::GetAsTable</text>
</a>
</g>
</g>
<!-- Node1&#45;&gt;Node6 -->
<g id="edge5_Node000001_Node000006" class="edge">
<title>Node1&#45;&gt;Node6</title>
<g id="a_edge5_Node000001_Node000006"><a xlink:title=" ">
<path fill="none" stroke="#63b8ff" d="M111.69,-174.69C120.35,-173.23 129.38,-171.7 138.26,-170.2"/>
<polygon fill="#63b8ff" stroke="#63b8ff" points="138.62,-173.69 147.9,-168.57 137.45,-166.79 138.62,-173.69"/>
</a>
</g>
</g>
<!-- Node8 -->
<g id="Node000008" class="node">
<title>Node8</title>
<g id="a_Node000008"><a xlink:href="class_fiea_1_1_engine_1_1_actions_1_1_action.html#abea83b3796a80d29394f644634477d7b" target="_top" xlink:title=" ">
<polygon fill="white" stroke="#666666" points="260.38,-113 150.62,-113 150.62,-81 260.38,-81 260.38,-113"/>
<text xml:space="preserve" text-anchor="start" x="158.62" y="-99.5" font-family="Helvetica,sans-Serif" font-size="10.00">Fiea::Engine::Actions</text>
<text xml:space="preserve" text-anchor="middle" x="205.5" y="-87.5" font-family="Helvetica,sans-Serif" font-size="10.00">::Action::Update</text>
</a>
</g>
</g>
<!-- Node1&#45;&gt;Node8 -->
<g id="edge8_Node000001_Node000008" class="edge">
<title>Node1&#45;&gt;Node8</title>
<g id="a_edge8_Node000001_Node000008"><a xlink:title=" ">
<path fill="none" stroke="#63b8ff" d="M94.71,-161.6C116.97,-148.5 144.95,-132.03 167.1,-119"/>
<polygon fill="#63b8ff" stroke="#63b8ff" points="168.67,-122.14 175.52,-114.05 165.12,-116.11 168.67,-122.14"/>
</a>
</g>
</g>
<!-- Node3 -->
<g id="Node000003" class="node">
<title>Node3</title>
<g id="a_Node000003"><a xlink:href="class_fiea_1_1_engine_1_1_r_t_t_i.html#ac0a7d875e4513b2aca7594abcd4418ef" target="_top" xlink:title=" ">
<polygon fill="white" stroke="#666666" points="415.88,-294 303.12,-294 303.12,-274 415.88,-274 415.88,-294"/>
<text xml:space="preserve" text-anchor="middle" x="359.5" y="-280.5" font-family="Helvetica,sans-Serif" font-size="10.00">Fiea::Engine::RTTI::Is</text>
</a>
</g>
</g>
<!-- Node2&#45;&gt;Node3 -->
<g id="edge2_Node000002_Node000003" class="edge">
<title>Node2&#45;&gt;Node3</title>
<g id="a_edge2_Node000002_Node000003"><a xlink:title=" ">
<path fill="none" stroke="#63b8ff" d="M257.96,-263.5C270.22,-265.99 283.43,-268.69 296.12,-271.28"/>
<polygon fill="#63b8ff" stroke="#63b8ff" points="295.11,-274.64 305.61,-273.21 296.51,-267.79 295.11,-274.64"/>
</a>
</g>
</g>
<!-- Node4 -->
<g id="Node000004" class="node">
<title>Node4</title>
<g id="a_Node000004"><a xlink:href="class_fiea_1_1_engine_1_1_r_t_t_i.html#a13000029a2e6cced30b831e466e07cae" target="_top" xlink:title=" ">
<polygon fill="white" stroke="#666666" points="408.75,-256 310.25,-256 310.25,-224 408.75,-224 408.75,-256"/>
<text xml:space="preserve" text-anchor="start" x="318.25" y="-242.5" font-family="Helvetica,sans-Serif" font-size="10.00">Fiea::Engine::RTTI</text>
<text xml:space="preserve" text-anchor="middle" x="359.5" y="-230.5" font-family="Helvetica,sans-Serif" font-size="10.00">::RTTI</text>
</a>
</g>
</g>
<!-- Node2&#45;&gt;Node4 -->
<g id="edge3_Node000002_Node000004" class="edge">
<title>Node2&#45;&gt;Node4</title>
<g id="a_edge3_Node000002_Node000004"><a xlink:title=" ">
<path fill="none" stroke="#63b8ff" d="M263.96,-248.09C275.31,-247.11 287.25,-246.09 298.68,-245.12"/>
<polygon fill="#63b8ff" stroke="#63b8ff" points="298.72,-248.63 308.38,-244.29 298.12,-241.65 298.72,-248.63"/>
</a>
</g>
</g>
<!-- Node7 -->
<g id="Node000007" class="node">
<title>Node7</title>
<g id="a_Node000007"><a xlink:href="class_fiea_1_1_engine_1_1_content_1_1_datum.html#a921193447f6e42f596ac0a7694b02830" target="_top" xlink:title=" ">
<polygon fill="white" stroke="#666666" points="415.12,-182 303.88,-182 303.88,-150 415.12,-150 415.12,-182"/>
<text xml:space="preserve" text-anchor="start" x="311.88" y="-168.5" font-family="Helvetica,sans-Serif" font-size="10.00">Fiea::Engine::Content</text>
<text xml:space="preserve" text-anchor="middle" x="359.5" y="-156.5" font-family="Helvetica,sans-Serif" font-size="10.00">::Datum::Scope</text>
</a>
</g>
</g>
<!-- Node6&#45;&gt;Node7 -->
<g id="edge6_Node000006_Node000007" class="edge">
<title>Node6&#45;&gt;Node7</title>
<g id="a_edge6_Node000006_Node000007"><a xlink:title=" ">
<path fill="none" stroke="#63b8ff" d="M261.38,-161.53C271.32,-161.99 281.79,-162.47 292.03,-162.94"/>
<polygon fill="#63b8ff" stroke="#63b8ff" points="291.79,-166.43 301.94,-163.4 292.11,-159.44 291.79,-166.43"/>
</a>
</g>
</g>
<!-- Node7&#45;&gt;Node7 -->
<g id="edge7_Node000007_Node000007" class="edge">
<title>Node7&#45;&gt;Node7</title>
<g id="a_edge7_Node000007_Node000007"><a xlink:title=" ">
<path fill="none" stroke="#63b8ff" d="M332.01,-182.44C326.87,-191.58 336.04,-200 359.5,-200 372.33,-200 380.88,-197.48 385.16,-193.71"/>
<polygon fill="#63b8ff" stroke="#63b8ff" points="388.6,-194.37 386.75,-183.94 381.69,-193.25 388.6,-194.37"/>
</a>
</g>
</g>
<!-- Node9 -->
<g id="Node000009" class="node">
<title>Node9</title>
<g id="a_Node000009"><a xlink:href="class_fiea_1_1_engine_1_1_actions_1_1_action.html#aca4c38723b265f3c4e6013bb8916b376" target="_top" xlink:title=" ">
<polygon fill="white" stroke="#666666" points="419.25,-132 299.75,-132 299.75,-100 419.25,-100 419.25,-132"/>
<text xml:space="preserve" text-anchor="start" x="307.75" y="-118.5" font-family="Helvetica,sans-Serif" font-size="10.00">Fiea::Engine::Actions</text>
<text xml:space="preserve" text-anchor="middle" x="359.5" y="-106.5" font-family="Helvetica,sans-Serif" font-size="10.00">::Action::CleanupAction</text>
</a>
</g>
</g>
<!-- Node8&#45;&gt;Node9 -->
<g id="edge9_Node000008_Node000009" class="edge">
<title>Node8&#45;&gt;Node9</title>
<g id="a_edge9_Node000008_Node000009"><a xlink:title=" ">
<path fill="none" stroke="#63b8ff" d="M260.52,-103.75C269.5,-104.87 278.92,-106.05 288.23,-107.22"/>
<polygon fill="#63b8ff" stroke="#63b8ff" points="287.64,-110.67 297.99,-108.44 288.5,-103.72 287.64,-110.67"/>
</a>
</g>
</g>
<!-- Node10 -->
<g id="Node000010" class="node">
<title>Node10</title>
<g id="a_Node000010"><a xlink:href="class_fiea_1_1_engine_1_1_actions_1_1_action.html#a81c0a0c2e60d1d97b21ca306f673b7e7" target="_top" xlink:title=" ">
<polygon fill="white" stroke="#666666" points="414.38,-82 304.62,-82 304.62,-50 414.38,-50 414.38,-82"/>
<text xml:space="preserve" text-anchor="start" x="312.62" y="-68.5" font-family="Helvetica,sans-Serif" font-size="10.00">Fiea::Engine::Actions</text>
<text xml:space="preserve" text-anchor="middle" x="359.5" y="-56.5" font-family="Helvetica,sans-Serif" font-size="10.00">::Action::InitAction</text>
</a>
</g>
</g>
<!-- Node8&#45;&gt;Node10 -->
<g id="edge10_Node000008_Node000010" class="edge">
<title>Node8&#45;&gt;Node10</title>
<g id="a_edge10_Node000008_Node000010"><a xlink:title=" ">
<path fill="none" stroke="#63b8ff" d="M260.52,-85.98C271.03,-83.84 282.16,-81.57 292.99,-79.36"/>
<polygon fill="#63b8ff" stroke="#63b8ff" points="293.56,-82.82 302.66,-77.39 292.16,-75.96 293.56,-82.82"/>
</a>
</g>
</g>
<!-- Node11 -->
<g id="Node000011" class="node">
<title>Node11</title>
<g id="a_Node000011"><a xlink:href="class_fiea_1_1_engine_1_1_actions_1_1_action.html#a75aad9a760f6deb44caed1be2611afad" target="_top" xlink:title=" ">
<polygon fill="white" stroke="#666666" points="414.38,-32 304.62,-32 304.62,0 414.38,0 414.38,-32"/>
<text xml:space="preserve" text-anchor="start" x="312.62" y="-18.5" font-family="Helvetica,sans-Serif" font-size="10.00">Fiea::Engine::Actions</text>
<text xml:space="preserve" text-anchor="middle" x="359.5" y="-6.5" font-family="Helvetica,sans-Serif" font-size="10.00">::Action::RunAction</text>
</a>
</g>
</g>
<!-- Node8&#45;&gt;Node11 -->
<g id="edge11_Node000008_Node000011" class="edge">
<title>Node8&#45;&gt;Node11</title>
<g id="a_edge11_Node000008_Node000011"><a xlink:title=" ">
<path fill="none" stroke="#63b8ff" d="M231.69,-80.57C250.15,-68.86 276.03,-53.1 299.75,-41 302.26,-39.72 304.84,-38.45 307.47,-37.2"/>
<polygon fill="#63b8ff" stroke="#63b8ff" points="308.71,-40.48 316.33,-33.12 305.79,-34.12 308.71,-40.48"/>
</a>
</g>
</g>
</g>
</svg>
