<?xml version="1.0" encoding="UTF-8" standalone="no"?>
<!DOCTYPE svg PUBLIC "-//W3C//DTD SVG 1.1//EN"
 "http://www.w3.org/Graphics/SVG/1.1/DTD/svg11.dtd">
<!-- Generated by graphviz version 13.1.0 (20250701.0955)
 -->
<!-- Title: Fiea::Engine::Actions::ActionList Pages: 1 -->
<svg width="840pt" height="140pt"
 viewBox="0.00 0.00 840.00 140.00" xmlns="http://www.w3.org/2000/svg" xmlns:xlink="http://www.w3.org/1999/xlink">
<g id="graph0" class="graph" transform="scale(1 1) rotate(0) translate(4 136)">
<title>Fiea::Engine::Actions::ActionList</title>
<!-- Node1 -->
<g id="Node000001" class="node">
<title>Node1</title>
<g id="a_Node000001"><a xlink:title=" ">
<polygon fill="#999999" stroke="#666666" points="684.5,-82 574.75,-82 574.75,-50 684.5,-50 684.5,-82"/>
<text xml:space="preserve" text-anchor="start" x="582.75" y="-68.5" font-family="Helvetica,sans-Serif" font-size="10.00">Fiea::Engine::Actions</text>
<text xml:space="preserve" text-anchor="middle" x="629.62" y="-56.5" font-family="Helvetica,sans-Serif" font-size="10.00">::ActionList</text>
</a>
</g>
</g>
<!-- Node6 -->
<g id="Node000006" class="node">
<title>Node6</title>
<g id="a_Node000006"><a xlink:href="class_fiea_1_1_engine_1_1_actions_1_1_action_delayed.html" target="_top" xlink:title=" ">
<polygon fill="white" stroke="#666666" points="831,-132 721.25,-132 721.25,-100 831,-100 831,-132"/>
<text xml:space="preserve" text-anchor="start" x="729.25" y="-118.5" font-family="Helvetica,sans-Serif" font-size="10.00">Fiea::Engine::Actions</text>
<text xml:space="preserve" text-anchor="middle" x="776.12" y="-106.5" font-family="Helvetica,sans-Serif" font-size="10.00">::ActionDelayed</text>
</a>
</g>
</g>
<!-- Node1&#45;&gt;Node6 -->
<g id="edge5_Node000001_Node000006" class="edge">
<title>Node1&#45;&gt;Node6</title>
<g id="a_edge5_Node000001_Node000006"><a xlink:title=" ">
<path fill="none" stroke="#63b8ff" d="M688.65,-86.08C701.62,-90.56 715.22,-95.27 727.7,-99.59"/>
<polygon fill="#63b8ff" stroke="#63b8ff" points="689.96,-82.83 679.37,-82.87 687.68,-89.44 689.96,-82.83"/>
</a>
</g>
</g>
<!-- Node7 -->
<g id="Node000007" class="node">
<title>Node7</title>
<g id="a_Node000007"><a xlink:href="class_fiea_1_1_engine_1_1_actions_1_1_action_list_while_loop.html" target="_top" xlink:title=" ">
<polygon fill="white" stroke="#666666" points="831.75,-82 720.5,-82 720.5,-50 831.75,-50 831.75,-82"/>
<text xml:space="preserve" text-anchor="start" x="728.5" y="-68.5" font-family="Helvetica,sans-Serif" font-size="10.00">Fiea::Engine::Actions</text>
<text xml:space="preserve" text-anchor="middle" x="776.12" y="-56.5" font-family="Helvetica,sans-Serif" font-size="10.00">::ActionListWhileLoop</text>
</a>
</g>
</g>
<!-- Node1&#45;&gt;Node7 -->
<g id="edge6_Node000001_Node000007" class="edge">
<title>Node1&#45;&gt;Node7</title>
<g id="a_edge6_Node000001_Node000007"><a xlink:title=" ">
<path fill="none" stroke="#63b8ff" d="M696.08,-66C704.12,-66 712.26,-66 720.12,-66"/>
<polygon fill="#63b8ff" stroke="#63b8ff" points="696.36,-62.5 686.36,-66 696.36,-69.5 696.36,-62.5"/>
</a>
</g>
</g>
<!-- Node8 -->
<g id="Node000008" class="node">
<title>Node8</title>
<g id="a_Node000008"><a xlink:href="class_fiea_1_1_engine_1_1_actions_1_1_action_timed.html" target="_top" xlink:title=" ">
<polygon fill="white" stroke="#666666" points="831,-32 721.25,-32 721.25,0 831,0 831,-32"/>
<text xml:space="preserve" text-anchor="start" x="729.25" y="-18.5" font-family="Helvetica,sans-Serif" font-size="10.00">Fiea::Engine::Actions</text>
<text xml:space="preserve" text-anchor="middle" x="776.12" y="-6.5" font-family="Helvetica,sans-Serif" font-size="10.00">::ActionTimed</text>
</a>
</g>
</g>
<!-- Node1&#45;&gt;Node8 -->
<g id="edge7_Node000001_Node000008" class="edge">
<title>Node1&#45;&gt;Node8</title>
<g id="a_edge7_Node000001_Node000008"><a xlink:title=" ">
<path fill="none" stroke="#63b8ff" d="M688.65,-45.92C701.62,-41.44 715.22,-36.73 727.7,-32.41"/>
<polygon fill="#63b8ff" stroke="#63b8ff" points="687.68,-42.56 679.37,-49.13 689.96,-49.17 687.68,-42.56"/>
</a>
</g>
</g>
<!-- Node2 -->
<g id="Node000002" class="node">
<title>Node2</title>
<g id="a_Node000002"><a xlink:href="class_fiea_1_1_engine_1_1_actions_1_1_action.html" target="_top" xlink:title=" ">
<polygon fill="white" stroke="#666666" points="538.75,-82 429,-82 429,-50 538.75,-50 538.75,-82"/>
<text xml:space="preserve" text-anchor="start" x="437" y="-68.5" font-family="Helvetica,sans-Serif" font-size="10.00">Fiea::Engine::Actions</text>
<text xml:space="preserve" text-anchor="middle" x="483.88" y="-56.5" font-family="Helvetica,sans-Serif" font-size="10.00">::Action</text>
</a>
</g>
</g>
<!-- Node2&#45;&gt;Node1 -->
<g id="edge1_Node000001_Node000002" class="edge">
<title>Node2&#45;&gt;Node1</title>
<g id="a_edge1_Node000001_Node000002"><a xlink:title=" ">
<path fill="none" stroke="#63b8ff" d="M550.53,-66C558.61,-66 566.8,-66 574.68,-66"/>
<polygon fill="#63b8ff" stroke="#63b8ff" points="550.73,-62.5 540.73,-66 550.73,-69.5 550.73,-62.5"/>
</a>
</g>
</g>
<!-- Node3 -->
<g id="Node000003" class="node">
<title>Node3</title>
<g id="a_Node000003"><a xlink:href="class_fiea_1_1_engine_1_1_content_1_1_attributed.html" target="_top" xlink:title=" ">
<polygon fill="white" stroke="#666666" points="393,-82 281.75,-82 281.75,-50 393,-50 393,-82"/>
<text xml:space="preserve" text-anchor="start" x="289.75" y="-68.5" font-family="Helvetica,sans-Serif" font-size="10.00">Fiea::Engine::Content</text>
<text xml:space="preserve" text-anchor="middle" x="337.38" y="-56.5" font-family="Helvetica,sans-Serif" font-size="10.00">::Attributed</text>
</a>
</g>
</g>
<!-- Node3&#45;&gt;Node2 -->
<g id="edge2_Node000002_Node000003" class="edge">
<title>Node3&#45;&gt;Node2</title>
<g id="a_edge2_Node000002_Node000003"><a xlink:title=" ">
<path fill="none" stroke="#63b8ff" d="M404.76,-66C412.86,-66 421.06,-66 428.94,-66"/>
<polygon fill="#63b8ff" stroke="#63b8ff" points="404.93,-62.5 394.93,-66 404.93,-69.5 404.93,-62.5"/>
</a>
</g>
</g>
<!-- Node4 -->
<g id="Node000004" class="node">
<title>Node4</title>
<g id="a_Node000004"><a xlink:href="class_fiea_1_1_engine_1_1_content_1_1_scope.html" target="_top" xlink:title=" ">
<polygon fill="white" stroke="#666666" points="245.75,-82 134.5,-82 134.5,-50 245.75,-50 245.75,-82"/>
<text xml:space="preserve" text-anchor="start" x="142.5" y="-68.5" font-family="Helvetica,sans-Serif" font-size="10.00">Fiea::Engine::Content</text>
<text xml:space="preserve" text-anchor="middle" x="190.12" y="-56.5" font-family="Helvetica,sans-Serif" font-size="10.00">::Scope</text>
</a>
</g>
</g>
<!-- Node4&#45;&gt;Node3 -->
<g id="edge3_Node000003_Node000004" class="edge">
<title>Node4&#45;&gt;Node3</title>
<g id="a_edge3_Node000003_Node000004"><a xlink:title=" ">
<path fill="none" stroke="#63b8ff" d="M257.31,-66C265.36,-66 273.52,-66 281.38,-66"/>
<polygon fill="#63b8ff" stroke="#63b8ff" points="257.55,-62.5 247.55,-66 257.55,-69.5 257.55,-62.5"/>
</a>
</g>
</g>
<!-- Node5 -->
<g id="Node000005" class="node">
<title>Node5</title>
<g id="a_Node000005"><a xlink:href="class_fiea_1_1_engine_1_1_r_t_t_i.html" target="_top" xlink:title=" ">
<polygon fill="white" stroke="#666666" points="98.5,-76 0,-76 0,-56 98.5,-56 98.5,-76"/>
<text xml:space="preserve" text-anchor="middle" x="49.25" y="-62.5" font-family="Helvetica,sans-Serif" font-size="10.00">Fiea::Engine::RTTI</text>
</a>
</g>
</g>
<!-- Node5&#45;&gt;Node4 -->
<g id="edge4_Node000004_Node000005" class="edge">
<title>Node5&#45;&gt;Node4</title>
<g id="a_edge4_Node000004_Node000005"><a xlink:title=" ">
<path fill="none" stroke="#63b8ff" d="M110.28,-66C118.22,-66 126.32,-66 134.17,-66"/>
<polygon fill="#63b8ff" stroke="#63b8ff" points="110.34,-62.5 100.34,-66 110.34,-69.5 110.34,-62.5"/>
</a>
</g>
</g>
</g>
</svg>
