<?xml version="1.0" encoding="UTF-8" standalone="no"?>
<!DOCTYPE svg PUBLIC "-//W3C//DTD SVG 1.1//EN"
 "http://www.w3.org/Graphics/SVG/1.1/DTD/svg11.dtd">
<!-- Generated by graphviz version 13.1.0 (20250701.0955)
 -->
<!-- Title: Fiea::Engine::GameObject::AddAction Pages: 1 -->
<svg width="724pt" height="118pt"
 viewBox="0.00 0.00 724.00 118.00" xmlns="http://www.w3.org/2000/svg" xmlns:xlink="http://www.w3.org/1999/xlink">
<g id="graph0" class="graph" transform="scale(1 1) rotate(0) translate(4 114.42)">
<title>Fiea::Engine::GameObject::AddAction</title>
<!-- Node1 -->
<g id="Node000001" class="node">
<title>Node1</title>
<g id="a_Node000001"><a xlink:title=" ">
<polygon fill="#999999" stroke="#666666" points="715.75,-94 584.25,-94 584.25,-62 715.75,-62 715.75,-94"/>
<text xml:space="preserve" text-anchor="start" x="592.25" y="-80.5" font-family="Helvetica,sans-Serif" font-size="10.00">Fiea::Engine::GameObject</text>
<text xml:space="preserve" text-anchor="middle" x="650" y="-68.5" font-family="Helvetica,sans-Serif" font-size="10.00">::AddAction</text>
</a>
</g>
</g>
<!-- Node2 -->
<g id="Node000002" class="node">
<title>Node2</title>
<g id="a_Node000002"><a xlink:href="class_fiea_1_1_engine_1_1_content_1_1_scope_writer.html#aa73231d29c0a0b0bcfbb910e2f913404" target="_top" xlink:title=" ">
<polygon fill="white" stroke="#666666" points="523.5,-44 381.5,-44 381.5,0 523.5,0 523.5,-44"/>
<text xml:space="preserve" text-anchor="start" x="389.5" y="-30.5" font-family="Helvetica,sans-Serif" font-size="10.00">Fiea::Engine::Content</text>
<text xml:space="preserve" text-anchor="start" x="389.5" y="-18.5" font-family="Helvetica,sans-Serif" font-size="10.00">::ScopeWriter::AddActionList</text>
<text xml:space="preserve" text-anchor="middle" x="452.5" y="-6.5" font-family="Helvetica,sans-Serif" font-size="10.00">Object</text>
</a>
</g>
</g>
<!-- Node1&#45;&gt;Node2 -->
<g id="edge1_Node000001_Node000002" class="edge">
<title>Node1&#45;&gt;Node2</title>
<g id="a_edge1_Node000001_Node000002"><a xlink:title=" ">
<path fill="none" stroke="#63b8ff" d="M580.5,-58.38C562.15,-53.12 542.28,-47.43 523.84,-42.15"/>
<polygon fill="#63b8ff" stroke="#63b8ff" points="579.37,-61.7 589.95,-61.08 581.3,-54.97 579.37,-61.7"/>
</a>
</g>
</g>
<!-- Node3 -->
<g id="Node000003" class="node">
<title>Node3</title>
<g id="a_Node000003"><a xlink:href="class_fiea_1_1_engine_1_1_content_1_1_scope_writer.html#a0a79e65b8a84d1a7275153c32e4d499a" target="_top" xlink:title=" ">
<polygon fill="white" stroke="#666666" points="320.75,-94 166,-94 166,-62 320.75,-62 320.75,-94"/>
<text xml:space="preserve" text-anchor="start" x="174" y="-80.5" font-family="Helvetica,sans-Serif" font-size="10.00">Fiea::Engine::Content</text>
<text xml:space="preserve" text-anchor="middle" x="243.38" y="-68.5" font-family="Helvetica,sans-Serif" font-size="10.00">::ScopeWriter::AddActionObject</text>
</a>
</g>
</g>
<!-- Node1&#45;&gt;Node3 -->
<g id="edge5_Node000001_Node000003" class="edge">
<title>Node1&#45;&gt;Node3</title>
<g id="a_edge5_Node000001_Node000003"><a xlink:title=" ">
<path fill="none" stroke="#63b8ff" d="M581.95,-97.04C570.78,-99.51 559.25,-101.66 548.25,-103 463.77,-113.33 441.35,-112.3 356.75,-103 340.46,-101.21 323.07,-98 306.97,-94.47"/>
<polygon fill="#63b8ff" stroke="#63b8ff" points="582.55,-100.49 591.49,-94.81 580.96,-93.67 582.55,-100.49"/>
</a>
</g>
</g>
<!-- Node6 -->
<g id="Node000006" class="node">
<title>Node6</title>
<g id="a_Node000006"><a xlink:href="class_fiea_1_1_engine_1_1_content_1_1_scope_writer.html#a8baf6cd60c0807e9e91054132db5183f" target="_top" xlink:title=" ">
<polygon fill="white" stroke="#666666" points="548.25,-94 356.75,-94 356.75,-62 548.25,-62 548.25,-94"/>
<text xml:space="preserve" text-anchor="start" x="364.75" y="-80.5" font-family="Helvetica,sans-Serif" font-size="10.00">Fiea::Engine::Content</text>
<text xml:space="preserve" text-anchor="middle" x="452.5" y="-68.5" font-family="Helvetica,sans-Serif" font-size="10.00">::ScopeWriter::AddActionToPredecessor</text>
</a>
</g>
</g>
<!-- Node1&#45;&gt;Node6 -->
<g id="edge6_Node000001_Node000006" class="edge">
<title>Node1&#45;&gt;Node6</title>
<g id="a_edge6_Node000001_Node000006"><a xlink:title=" ">
<path fill="none" stroke="#63b8ff" d="M572.56,-78C564.71,-78 556.66,-78 548.64,-78"/>
<polygon fill="#63b8ff" stroke="#63b8ff" points="572.39,-81.5 582.39,-78 572.39,-74.5 572.39,-81.5"/>
</a>
</g>
</g>
<!-- Node2&#45;&gt;Node3 -->
<g id="edge2_Node000002_Node000003" class="edge">
<title>Node2&#45;&gt;Node3</title>
<g id="a_edge2_Node000002_Node000003"><a xlink:title=" ">
<path fill="none" stroke="#63b8ff" d="M370.25,-43.97C348.61,-49.82 325.6,-56.04 305.25,-61.54"/>
<polygon fill="#63b8ff" stroke="#63b8ff" points="370.89,-47.42 379.63,-41.43 369.06,-40.66 370.89,-47.42"/>
</a>
</g>
</g>
<!-- Node5 -->
<g id="Node000005" class="node">
<title>Node5</title>
<g id="a_Node000005"><a xlink:href="class_fiea_1_1_engine_1_1_content_1_1_action_list_handler.html#ae0f8b6534bcf602df112f39202c79ecc" target="_top" xlink:title=" ">
<polygon fill="white" stroke="#666666" points="299,-44 187.75,-44 187.75,0 299,0 299,-44"/>
<text xml:space="preserve" text-anchor="start" x="195.75" y="-30.5" font-family="Helvetica,sans-Serif" font-size="10.00">Fiea::Engine::Content</text>
<text xml:space="preserve" text-anchor="start" x="195.75" y="-18.5" font-family="Helvetica,sans-Serif" font-size="10.00">::ActionListHandler::</text>
<text xml:space="preserve" text-anchor="middle" x="243.38" y="-6.5" font-family="Helvetica,sans-Serif" font-size="10.00">EnterKey</text>
</a>
</g>
</g>
<!-- Node2&#45;&gt;Node5 -->
<g id="edge4_Node000002_Node000005" class="edge">
<title>Node2&#45;&gt;Node5</title>
<g id="a_edge4_Node000002_Node000005"><a xlink:title=" ">
<path fill="none" stroke="#63b8ff" d="M369.63,-22C346,-22 320.78,-22 299.22,-22"/>
<polygon fill="#63b8ff" stroke="#63b8ff" points="369.57,-25.5 379.57,-22 369.57,-18.5 369.57,-25.5"/>
</a>
</g>
</g>
<!-- Node4 -->
<g id="Node000004" class="node">
<title>Node4</title>
<g id="a_Node000004"><a xlink:href="class_fiea_1_1_engine_1_1_content_1_1_action_handler.html#a392af20cfeb37d539b88183bc9672f7a" target="_top" xlink:title=" ">
<polygon fill="white" stroke="#666666" points="130,-94 0,-94 0,-62 130,-62 130,-94"/>
<text xml:space="preserve" text-anchor="start" x="8" y="-80.5" font-family="Helvetica,sans-Serif" font-size="10.00">Fiea::Engine::Content</text>
<text xml:space="preserve" text-anchor="middle" x="65" y="-68.5" font-family="Helvetica,sans-Serif" font-size="10.00">::ActionHandler::EnterKey</text>
</a>
</g>
</g>
<!-- Node3&#45;&gt;Node4 -->
<g id="edge3_Node000003_Node000004" class="edge">
<title>Node3&#45;&gt;Node4</title>
<g id="a_edge3_Node000003_Node000004"><a xlink:title=" ">
<path fill="none" stroke="#63b8ff" d="M154.23,-78C146.22,-78 138.21,-78 130.47,-78"/>
<polygon fill="#63b8ff" stroke="#63b8ff" points="154.01,-81.5 164.01,-78 154.01,-74.5 154.01,-81.5"/>
</a>
</g>
</g>
<!-- Node6&#45;&gt;Node3 -->
<g id="edge7_Node000006_Node000003" class="edge">
<title>Node6&#45;&gt;Node3</title>
<g id="a_edge7_Node000006_Node000003"><a xlink:title=" ">
<path fill="none" stroke="#63b8ff" d="M345.06,-78C337.01,-78 328.99,-78 321.19,-78"/>
<polygon fill="#63b8ff" stroke="#63b8ff" points="344.91,-81.5 354.91,-78 344.91,-74.5 344.91,-81.5"/>
</a>
</g>
</g>
</g>
</svg>
