<?xml version="1.0" encoding="UTF-8" standalone="no"?>
<!DOCTYPE svg PUBLIC "-//W3C//DTD SVG 1.1//EN"
 "http://www.w3.org/Graphics/SVG/1.1/DTD/svg11.dtd">
<!-- Generated by graphviz version 13.1.0 (20250701.0955)
 -->
<!-- Title: Fiea::Engine::Content::ScopeWriter::RemoveObject Pages: 1 -->
<svg width="327pt" height="338pt"
 viewBox="0.00 0.00 327.00 338.00" xmlns="http://www.w3.org/2000/svg" xmlns:xlink="http://www.w3.org/1999/xlink">
<g id="graph0" class="graph" transform="scale(1 1) rotate(0) translate(4 334)">
<title>Fiea::Engine::Content::ScopeWriter::RemoveObject</title>
<!-- Node1 -->
<g id="Node000001" class="node">
<title>Node1</title>
<g id="a_Node000001"><a xlink:title=" ">
<polygon fill="#999999" stroke="#666666" points="319.25,-181 172.75,-181 172.75,-149 319.25,-149 319.25,-181"/>
<text xml:space="preserve" text-anchor="start" x="180.75" y="-167.5" font-family="Helvetica,sans-Serif" font-size="10.00">Fiea::Engine::Content</text>
<text xml:space="preserve" text-anchor="middle" x="246" y="-155.5" font-family="Helvetica,sans-Serif" font-size="10.00">::ScopeWriter::RemoveObject</text>
</a>
</g>
</g>
<!-- Node2 -->
<g id="Node000002" class="node">
<title>Node2</title>
<g id="a_Node000002"><a xlink:href="class_fiea_1_1_engine_1_1_content_1_1_action_handler.html#a7bb21557e00fecfa721f31c081f22197" target="_top" xlink:title=" ">
<polygon fill="white" stroke="#666666" points="130.38,-330 6.38,-330 6.38,-298 130.38,-298 130.38,-330"/>
<text xml:space="preserve" text-anchor="start" x="14.38" y="-316.5" font-family="Helvetica,sans-Serif" font-size="10.00">Fiea::Engine::Content</text>
<text xml:space="preserve" text-anchor="middle" x="68.38" y="-304.5" font-family="Helvetica,sans-Serif" font-size="10.00">::ActionHandler::ExitKey</text>
</a>
</g>
</g>
<!-- Node1&#45;&gt;Node2 -->
<g id="edge1_Node000001_Node000002" class="edge">
<title>Node1&#45;&gt;Node2</title>
<g id="a_edge1_Node000001_Node000002"><a xlink:title=" ">
<path fill="none" stroke="#63b8ff" d="M228.32,-190.83C209.21,-218.57 175.5,-262.25 136.75,-289 132.13,-292.19 127.05,-295.03 121.82,-297.55"/>
<polygon fill="#63b8ff" stroke="#63b8ff" points="231.15,-192.9 233.83,-182.65 225.34,-188.98 231.15,-192.9"/>
</a>
</g>
</g>
<!-- Node3 -->
<g id="Node000003" class="node">
<title>Node3</title>
<g id="a_Node000003"><a xlink:href="class_fiea_1_1_engine_1_1_content_1_1_action_list_handler.html#ae7cb74bd223f8fb982294c55f37b6f34" target="_top" xlink:title=" ">
<polygon fill="white" stroke="#666666" points="124,-280 12.75,-280 12.75,-236 124,-236 124,-280"/>
<text xml:space="preserve" text-anchor="start" x="20.75" y="-266.5" font-family="Helvetica,sans-Serif" font-size="10.00">Fiea::Engine::Content</text>
<text xml:space="preserve" text-anchor="start" x="20.75" y="-254.5" font-family="Helvetica,sans-Serif" font-size="10.00">::ActionListHandler::</text>
<text xml:space="preserve" text-anchor="middle" x="68.38" y="-242.5" font-family="Helvetica,sans-Serif" font-size="10.00">ExitKey</text>
</a>
</g>
</g>
<!-- Node1&#45;&gt;Node3 -->
<g id="edge2_Node000001_Node000003" class="edge">
<title>Node1&#45;&gt;Node3</title>
<g id="a_edge2_Node000001_Node000003"><a xlink:title=" ">
<path fill="none" stroke="#63b8ff" d="M208.11,-187.21C187.39,-199.42 160.91,-214.56 136.75,-227 131.14,-229.89 125.21,-232.81 119.29,-235.64"/>
<polygon fill="#63b8ff" stroke="#63b8ff" points="209.66,-190.36 216.48,-182.25 206.1,-184.34 209.66,-190.36"/>
</a>
</g>
</g>
<!-- Node4 -->
<g id="Node000004" class="node">
<title>Node4</title>
<g id="a_Node000004"><a xlink:href="class_fiea_1_1_engine_1_1_content_1_1_action_while_param_handler.html#a99a63537cd8df27c081a1ef309798de5" target="_top" xlink:title=" ">
<polygon fill="white" stroke="#666666" points="136.75,-218 0,-218 0,-174 136.75,-174 136.75,-218"/>
<text xml:space="preserve" text-anchor="start" x="8" y="-204.5" font-family="Helvetica,sans-Serif" font-size="10.00">Fiea::Engine::Content</text>
<text xml:space="preserve" text-anchor="start" x="8" y="-192.5" font-family="Helvetica,sans-Serif" font-size="10.00">::ActionWhileParamHandler</text>
<text xml:space="preserve" text-anchor="middle" x="68.38" y="-180.5" font-family="Helvetica,sans-Serif" font-size="10.00">::ExitKey</text>
</a>
</g>
</g>
<!-- Node1&#45;&gt;Node4 -->
<g id="edge3_Node000001_Node000004" class="edge">
<title>Node1&#45;&gt;Node4</title>
<g id="a_edge3_Node000001_Node000004"><a xlink:title=" ">
<path fill="none" stroke="#63b8ff" d="M161.06,-179.82C153.07,-181.23 145.04,-182.64 137.23,-184.02"/>
<polygon fill="#63b8ff" stroke="#63b8ff" points="161.57,-183.28 170.81,-178.1 160.35,-176.39 161.57,-183.28"/>
</a>
</g>
</g>
<!-- Node5 -->
<g id="Node000005" class="node">
<title>Node5</title>
<g id="a_Node000005"><a xlink:href="class_fiea_1_1_engine_1_1_content_1_1_game_object_handler.html#ad8aacedea1decdcd423c996afd85a872" target="_top" xlink:title=" ">
<polygon fill="white" stroke="#666666" points="126.62,-156 10.12,-156 10.12,-112 126.62,-112 126.62,-156"/>
<text xml:space="preserve" text-anchor="start" x="18.12" y="-142.5" font-family="Helvetica,sans-Serif" font-size="10.00">Fiea::Engine::Content</text>
<text xml:space="preserve" text-anchor="start" x="18.12" y="-130.5" font-family="Helvetica,sans-Serif" font-size="10.00">::GameObjectHandler::</text>
<text xml:space="preserve" text-anchor="middle" x="68.38" y="-118.5" font-family="Helvetica,sans-Serif" font-size="10.00">ExitKey</text>
</a>
</g>
</g>
<!-- Node1&#45;&gt;Node5 -->
<g id="edge4_Node000001_Node000005" class="edge">
<title>Node1&#45;&gt;Node5</title>
<g id="a_edge4_Node000001_Node000005"><a xlink:title=" ">
<path fill="none" stroke="#63b8ff" d="M161.25,-150.22C149.66,-148.17 137.98,-146.11 127.02,-144.17"/>
<polygon fill="#63b8ff" stroke="#63b8ff" points="160.35,-153.61 170.81,-151.9 161.57,-146.72 160.35,-153.61"/>
</a>
</g>
</g>
<!-- Node6 -->
<g id="Node000006" class="node">
<title>Node6</title>
<g id="a_Node000006"><a xlink:href="class_fiea_1_1_engine_1_1_content_1_1_scope_factory_handler.html#a9887b2afe14d6c6d7131f3ad7f14f20b" target="_top" xlink:title=" ">
<polygon fill="white" stroke="#666666" points="126.62,-94 10.12,-94 10.12,-50 126.62,-50 126.62,-94"/>
<text xml:space="preserve" text-anchor="start" x="18.12" y="-80.5" font-family="Helvetica,sans-Serif" font-size="10.00">Fiea::Engine::Content</text>
<text xml:space="preserve" text-anchor="start" x="18.12" y="-68.5" font-family="Helvetica,sans-Serif" font-size="10.00">::ScopeFactoryHandler</text>
<text xml:space="preserve" text-anchor="middle" x="68.38" y="-56.5" font-family="Helvetica,sans-Serif" font-size="10.00">::ExitKey</text>
</a>
</g>
</g>
<!-- Node1&#45;&gt;Node6 -->
<g id="edge5_Node000001_Node000006" class="edge">
<title>Node1&#45;&gt;Node6</title>
<g id="a_edge5_Node000001_Node000006"><a xlink:title=" ">
<path fill="none" stroke="#63b8ff" d="M208.11,-142.79C187.39,-130.58 160.91,-115.44 136.75,-103 131.14,-100.11 125.21,-97.19 119.29,-94.36"/>
<polygon fill="#63b8ff" stroke="#63b8ff" points="206.1,-145.66 216.48,-147.75 209.66,-139.64 206.1,-145.66"/>
</a>
</g>
</g>
<!-- Node7 -->
<g id="Node000007" class="node">
<title>Node7</title>
<g id="a_Node000007"><a xlink:href="class_fiea_1_1_engine_1_1_content_1_1_scope_handler.html#a1ccddb11e976a4c42d542567ccfee2b3" target="_top" xlink:title=" ">
<polygon fill="white" stroke="#666666" points="130.38,-32 6.38,-32 6.38,0 130.38,0 130.38,-32"/>
<text xml:space="preserve" text-anchor="start" x="14.38" y="-18.5" font-family="Helvetica,sans-Serif" font-size="10.00">Fiea::Engine::Content</text>
<text xml:space="preserve" text-anchor="middle" x="68.38" y="-6.5" font-family="Helvetica,sans-Serif" font-size="10.00">::ScopeHandler::ExitKey</text>
</a>
</g>
</g>
<!-- Node1&#45;&gt;Node7 -->
<g id="edge6_Node000001_Node000007" class="edge">
<title>Node1&#45;&gt;Node7</title>
<g id="a_edge6_Node000001_Node000007"><a xlink:title=" ">
<path fill="none" stroke="#63b8ff" d="M228.32,-139.17C209.21,-111.43 175.5,-67.75 136.75,-41 132.13,-37.81 127.05,-34.97 121.82,-32.45"/>
<polygon fill="#63b8ff" stroke="#63b8ff" points="225.34,-141.02 233.83,-147.35 231.15,-137.1 225.34,-141.02"/>
</a>
</g>
</g>
</g>
</svg>
