<?xml version="1.0" encoding="UTF-8" standalone="no"?>
<!DOCTYPE svg PUBLIC "-//W3C//DTD SVG 1.1//EN"
 "http://www.w3.org/Graphics/SVG/1.1/DTD/svg11.dtd">
<!-- Generated by graphviz version 13.1.0 (20250701.0955)
 -->
<!-- Title: Fiea::Engine::Content::Datum::Clear Pages: 1 -->
<svg width="311pt" height="202pt"
 viewBox="0.00 0.00 311.00 202.00" xmlns="http://www.w3.org/2000/svg" xmlns:xlink="http://www.w3.org/1999/xlink">
<g id="graph0" class="graph" transform="scale(1 1) rotate(0) translate(4 198)">
<title>Fiea::Engine::Content::Datum::Clear</title>
<!-- Node1 -->
<g id="Node000001" class="node">
<title>Node1</title>
<g id="a_Node000001"><a xlink:title=" ">
<polygon fill="#999999" stroke="#666666" points="302.75,-116 191.5,-116 191.5,-84 302.75,-84 302.75,-116"/>
<text xml:space="preserve" text-anchor="start" x="199.5" y="-102.5" font-family="Helvetica,sans-Serif" font-size="10.00">Fiea::Engine::Content</text>
<text xml:space="preserve" text-anchor="middle" x="247.12" y="-90.5" font-family="Helvetica,sans-Serif" font-size="10.00">::Datum::Clear</text>
</a>
</g>
</g>
<!-- Node2 -->
<g id="Node000002" class="node">
<title>Node2</title>
<g id="a_Node000002"><a xlink:href="class_fiea_1_1_engine_1_1_actions_1_1_action_delayed.html#a83565992cd6fe62828ba89cb8f572513" target="_top" xlink:title=" ">
<polygon fill="white" stroke="#666666" points="155.5,-194 0,-194 0,-162 155.5,-162 155.5,-194"/>
<text xml:space="preserve" text-anchor="start" x="8" y="-180.5" font-family="Helvetica,sans-Serif" font-size="10.00">Fiea::Engine::Actions</text>
<text xml:space="preserve" text-anchor="middle" x="77.75" y="-168.5" font-family="Helvetica,sans-Serif" font-size="10.00">::ActionDelayed::CleanupAction</text>
</a>
</g>
</g>
<!-- Node1&#45;&gt;Node2 -->
<g id="edge1_Node000001_Node000002" class="edge">
<title>Node1&#45;&gt;Node2</title>
<g id="a_edge1_Node000001_Node000002"><a xlink:title=" ">
<path fill="none" stroke="#63b8ff" d="M212.21,-122.17C195.57,-132.44 174.96,-144.26 155.5,-153 148.72,-156.04 141.46,-158.9 134.21,-161.51"/>
<polygon fill="#63b8ff" stroke="#63b8ff" points="213.61,-125.43 220.22,-117.15 209.89,-119.49 213.61,-125.43"/>
</a>
</g>
</g>
<!-- Node3 -->
<g id="Node000003" class="node">
<title>Node3</title>
<g id="a_Node000003"><a xlink:href="class_fiea_1_1_engine_1_1_actions_1_1_action_list.html#a7e02ca4299cca5d542f6e140a7cadc55" target="_top" xlink:title=" ">
<polygon fill="white" stroke="#666666" points="145.38,-144 10.12,-144 10.12,-112 145.38,-112 145.38,-144"/>
<text xml:space="preserve" text-anchor="start" x="18.12" y="-130.5" font-family="Helvetica,sans-Serif" font-size="10.00">Fiea::Engine::Actions</text>
<text xml:space="preserve" text-anchor="middle" x="77.75" y="-118.5" font-family="Helvetica,sans-Serif" font-size="10.00">::ActionList::CleanupAction</text>
</a>
</g>
</g>
<!-- Node1&#45;&gt;Node3 -->
<g id="edge2_Node000001_Node000003" class="edge">
<title>Node1&#45;&gt;Node3</title>
<g id="a_edge2_Node000001_Node000003"><a xlink:title=" ">
<path fill="none" stroke="#63b8ff" d="M180.16,-111.03C168.82,-112.93 157.02,-114.91 145.66,-116.81"/>
<polygon fill="#63b8ff" stroke="#63b8ff" points="180.54,-114.52 189.83,-109.42 179.39,-107.62 180.54,-114.52"/>
</a>
</g>
</g>
<!-- Node4 -->
<g id="Node000004" class="node">
<title>Node4</title>
<g id="a_Node000004"><a xlink:href="class_fiea_1_1_engine_1_1_actions_1_1_action_list_while_loop.html#ae017bdc5b560cb6fb9f84a50c545c2ed" target="_top" xlink:title=" ">
<polygon fill="white" stroke="#666666" points="133.38,-94 22.12,-94 22.12,-50 133.38,-50 133.38,-94"/>
<text xml:space="preserve" text-anchor="start" x="30.12" y="-80.5" font-family="Helvetica,sans-Serif" font-size="10.00">Fiea::Engine::Actions</text>
<text xml:space="preserve" text-anchor="start" x="30.12" y="-68.5" font-family="Helvetica,sans-Serif" font-size="10.00">::ActionListWhileLoop</text>
<text xml:space="preserve" text-anchor="middle" x="77.75" y="-56.5" font-family="Helvetica,sans-Serif" font-size="10.00">::CleanupAction</text>
</a>
</g>
</g>
<!-- Node1&#45;&gt;Node4 -->
<g id="edge3_Node000001_Node000004" class="edge">
<title>Node1&#45;&gt;Node4</title>
<g id="a_edge3_Node000001_Node000004"><a xlink:title=" ">
<path fill="none" stroke="#63b8ff" d="M180.27,-88.98C164.84,-86.4 148.57,-83.68 133.68,-81.19"/>
<polygon fill="#63b8ff" stroke="#63b8ff" points="179.39,-92.38 189.83,-90.58 180.54,-85.48 179.39,-92.38"/>
</a>
</g>
</g>
<!-- Node5 -->
<g id="Node000005" class="node">
<title>Node5</title>
<g id="a_Node000005"><a xlink:href="class_fiea_1_1_engine_1_1_actions_1_1_action_timed.html#a6ba5b5e467a4772e9f3a598b3065a9f4" target="_top" xlink:title=" ">
<polygon fill="white" stroke="#666666" points="151,-32 4.5,-32 4.5,0 151,0 151,-32"/>
<text xml:space="preserve" text-anchor="start" x="12.5" y="-18.5" font-family="Helvetica,sans-Serif" font-size="10.00">Fiea::Engine::Actions</text>
<text xml:space="preserve" text-anchor="middle" x="77.75" y="-6.5" font-family="Helvetica,sans-Serif" font-size="10.00">::ActionTimed::CleanupAction</text>
</a>
</g>
</g>
<!-- Node1&#45;&gt;Node5 -->
<g id="edge4_Node000001_Node000005" class="edge">
<title>Node1&#45;&gt;Node5</title>
<g id="a_edge4_Node000001_Node000005"><a xlink:title=" ">
<path fill="none" stroke="#63b8ff" d="M215.8,-77.38C198.73,-65.4 176.65,-51.11 155.5,-41 149.05,-37.92 142.13,-35.07 135.17,-32.49"/>
<polygon fill="#63b8ff" stroke="#63b8ff" points="213.33,-79.91 223.5,-82.88 217.4,-74.22 213.33,-79.91"/>
</a>
</g>
</g>
</g>
</svg>
