<?xml version="1.0" encoding="UTF-8" standalone="no"?>
<!DOCTYPE svg PUBLIC "-//W3C//DTD SVG 1.1//EN"
 "http://www.w3.org/Graphics/SVG/1.1/DTD/svg11.dtd">
<!-- Generated by graphviz version 13.1.0 (20250701.0955)
 -->
<!-- Title: Fiea::Engine::Actions::ActionDelayed::ActionDelayed Pages: 1 -->
<svg width="355pt" height="190pt"
 viewBox="0.00 0.00 355.00 190.00" xmlns="http://www.w3.org/2000/svg" xmlns:xlink="http://www.w3.org/1999/xlink">
<g id="graph0" class="graph" transform="scale(1 1) rotate(0) translate(4 186)">
<title>Fiea::Engine::Actions::ActionDelayed::ActionDelayed</title>
<!-- Node1 -->
<g id="Node000001" class="node">
<title>Node1</title>
<g id="a_Node000001"><a xlink:title=" ">
<polygon fill="#999999" stroke="#666666" points="347,-107 191.5,-107 191.5,-75 347,-75 347,-107"/>
<text xml:space="preserve" text-anchor="start" x="199.5" y="-93.5" font-family="Helvetica,sans-Serif" font-size="10.00">Fiea::Engine::Actions</text>
<text xml:space="preserve" text-anchor="middle" x="269.25" y="-81.5" font-family="Helvetica,sans-Serif" font-size="10.00">::ActionDelayed::ActionDelayed</text>
</a>
</g>
</g>
<!-- Node2 -->
<g id="Node000002" class="node">
<title>Node2</title>
<g id="a_Node000002"><a xlink:href="class_fiea_1_1_engine_1_1_actions_1_1_action_delayed.html#a8aa7bf38ecff5e938b5b7968d4bf1df3" target="_top" xlink:title=" ">
<polygon fill="white" stroke="#666666" points="155.5,-182 0,-182 0,-150 155.5,-150 155.5,-182"/>
<text xml:space="preserve" text-anchor="start" x="8" y="-168.5" font-family="Helvetica,sans-Serif" font-size="10.00">Fiea::Engine::Actions</text>
<text xml:space="preserve" text-anchor="middle" x="77.75" y="-156.5" font-family="Helvetica,sans-Serif" font-size="10.00">::ActionDelayed::ActionDelayed</text>
</a>
</g>
</g>
<!-- Node1&#45;&gt;Node2 -->
<g id="edge1_Node000001_Node000002" class="edge">
<title>Node1&#45;&gt;Node2</title>
<g id="a_edge1_Node000001_Node000002"><a xlink:title=" ">
<path fill="none" stroke="#63b8ff" d="M223.3,-112.2C202.82,-121.53 178.14,-132.32 155.5,-141 147.78,-143.96 139.54,-146.88 131.43,-149.63"/>
<polygon fill="#63b8ff" stroke="#63b8ff" points="224.59,-115.46 232.22,-108.11 221.67,-109.1 224.59,-115.46"/>
</a>
</g>
</g>
<!-- Node3 -->
<g id="Node000003" class="node">
<title>Node3</title>
<g id="a_Node000003"><a xlink:href="class_fiea_1_1_engine_1_1_actions_1_1_action_delayed.html#a1ccefcac2a11f520f74c1cb3850db795" target="_top" xlink:title=" ">
<polygon fill="white" stroke="#666666" points="155.5,-132 0,-132 0,-100 155.5,-100 155.5,-132"/>
<text xml:space="preserve" text-anchor="start" x="8" y="-118.5" font-family="Helvetica,sans-Serif" font-size="10.00">Fiea::Engine::Actions</text>
<text xml:space="preserve" text-anchor="middle" x="77.75" y="-106.5" font-family="Helvetica,sans-Serif" font-size="10.00">::ActionDelayed::ActionDelayed</text>
</a>
</g>
</g>
<!-- Node1&#45;&gt;Node3 -->
<g id="edge2_Node000001_Node000003" class="edge">
<title>Node1&#45;&gt;Node3</title>
<g id="a_edge2_Node000001_Node000003"><a xlink:title=" ">
<path fill="none" stroke="#63b8ff" d="M179.86,-102.66C171.81,-103.72 163.7,-104.79 155.76,-105.84"/>
<polygon fill="#63b8ff" stroke="#63b8ff" points="180.22,-106.14 189.67,-101.37 179.3,-99.2 180.22,-106.14"/>
</a>
</g>
</g>
<!-- Node4 -->
<g id="Node000004" class="node">
<title>Node4</title>
<g id="a_Node000004"><a xlink:href="class_fiea_1_1_engine_1_1_actions_1_1_action_delayed.html#a450bbfee4ba67577f9f62eeb63050b61" target="_top" xlink:title=" ">
<polygon fill="white" stroke="#666666" points="144.25,-82 11.25,-82 11.25,-50 144.25,-50 144.25,-82"/>
<text xml:space="preserve" text-anchor="start" x="19.25" y="-68.5" font-family="Helvetica,sans-Serif" font-size="10.00">Fiea::Engine::Actions</text>
<text xml:space="preserve" text-anchor="middle" x="77.75" y="-56.5" font-family="Helvetica,sans-Serif" font-size="10.00">::ActionDelayed::operator=</text>
</a>
</g>
</g>
<!-- Node1&#45;&gt;Node4 -->
<g id="edge3_Node000001_Node000004" class="edge">
<title>Node1&#45;&gt;Node4</title>
<g id="a_edge3_Node000001_Node000004"><a xlink:title=" ">
<path fill="none" stroke="#63b8ff" d="M179.84,-79.34C167.95,-77.77 155.93,-76.18 144.53,-74.68"/>
<polygon fill="#63b8ff" stroke="#63b8ff" points="179.3,-82.8 189.67,-80.63 180.22,-75.86 179.3,-82.8"/>
</a>
</g>
</g>
<!-- Node5 -->
<g id="Node000005" class="node">
<title>Node5</title>
<g id="a_Node000005"><a xlink:href="class_fiea_1_1_engine_1_1_actions_1_1_action_delayed.html#a03c9e16681741772c798a305d1b9ce07" target="_top" xlink:title=" ">
<polygon fill="white" stroke="#666666" points="144.25,-32 11.25,-32 11.25,0 144.25,0 144.25,-32"/>
<text xml:space="preserve" text-anchor="start" x="19.25" y="-18.5" font-family="Helvetica,sans-Serif" font-size="10.00">Fiea::Engine::Actions</text>
<text xml:space="preserve" text-anchor="middle" x="77.75" y="-6.5" font-family="Helvetica,sans-Serif" font-size="10.00">::ActionDelayed::operator=</text>
</a>
</g>
</g>
<!-- Node1&#45;&gt;Node5 -->
<g id="edge4_Node000001_Node000005" class="edge">
<title>Node1&#45;&gt;Node5</title>
<g id="a_edge4_Node000001_Node000005"><a xlink:title=" ">
<path fill="none" stroke="#63b8ff" d="M223.3,-69.8C202.82,-60.47 178.14,-49.68 155.5,-41 147.78,-38.04 139.54,-35.12 131.43,-32.37"/>
<polygon fill="#63b8ff" stroke="#63b8ff" points="221.67,-72.9 232.22,-73.89 224.59,-66.54 221.67,-72.9"/>
</a>
</g>
</g>
</g>
</svg>
