<?xml version="1.0" encoding="UTF-8" standalone="no"?>
<!DOCTYPE svg PUBLIC "-//W3C//DTD SVG 1.1//EN"
 "http://www.w3.org/Graphics/SVG/1.1/DTD/svg11.dtd">
<!-- Generated by graphviz version 13.1.0 (20250701.0955)
 -->
<!-- Title: Fiea::Engine::Actions::ActionTimed::ActionTimed Pages: 1 -->
<svg width="1065pt" height="220pt"
 viewBox="0.00 0.00 1065.00 220.00" xmlns="http://www.w3.org/2000/svg" xmlns:xlink="http://www.w3.org/1999/xlink">
<g id="graph0" class="graph" transform="scale(1 1) rotate(0) translate(4 216)">
<title>Fiea::Engine::Actions::ActionTimed::ActionTimed</title>
<!-- Node1 -->
<g id="Node000001" class="node">
<title>Node1</title>
<g id="a_Node000001"><a xlink:title=" ">
<polygon fill="#999999" stroke="#666666" points="137.5,-122 0,-122 0,-90 137.5,-90 137.5,-122"/>
<text xml:space="preserve" text-anchor="start" x="8" y="-108.5" font-family="Helvetica,sans-Serif" font-size="10.00">Fiea::Engine::Actions</text>
<text xml:space="preserve" text-anchor="middle" x="68.75" y="-96.5" font-family="Helvetica,sans-Serif" font-size="10.00">::ActionTimed::ActionTimed</text>
</a>
</g>
</g>
<!-- Node2 -->
<g id="Node000002" class="node">
<title>Node2</title>
<g id="a_Node000002"><a xlink:href="class_fiea_1_1_engine_1_1_actions_1_1_action_timed.html#af910b88250ceb1f96a98e703dd3383e7" target="_top" xlink:title=" ">
<polygon fill="white" stroke="#666666" points="311,-122 173.5,-122 173.5,-90 311,-90 311,-122"/>
<text xml:space="preserve" text-anchor="start" x="181.5" y="-108.5" font-family="Helvetica,sans-Serif" font-size="10.00">Fiea::Engine::Actions</text>
<text xml:space="preserve" text-anchor="middle" x="242.25" y="-96.5" font-family="Helvetica,sans-Serif" font-size="10.00">::ActionTimed::ActionTimed</text>
</a>
</g>
</g>
<!-- Node1&#45;&gt;Node2 -->
<g id="edge1_Node000001_Node000002" class="edge">
<title>Node1&#45;&gt;Node2</title>
<g id="a_edge1_Node000001_Node000002"><a xlink:title=" ">
<path fill="none" stroke="#63b8ff" d="M137.53,-106C145.49,-106 153.66,-106 161.75,-106"/>
<polygon fill="#63b8ff" stroke="#63b8ff" points="161.6,-109.5 171.6,-106 161.6,-102.5 161.6,-109.5"/>
</a>
</g>
</g>
<!-- Node3 -->
<g id="Node000003" class="node">
<title>Node3</title>
<g id="a_Node000003"><a xlink:href="class_fiea_1_1_engine_1_1_actions_1_1_action_list.html#a77dc15425d13d1d10482ec9e97d923fb" target="_top" xlink:title=" ">
<polygon fill="white" stroke="#666666" points="462,-144 347,-144 347,-112 462,-112 462,-144"/>
<text xml:space="preserve" text-anchor="start" x="355" y="-130.5" font-family="Helvetica,sans-Serif" font-size="10.00">Fiea::Engine::Actions</text>
<text xml:space="preserve" text-anchor="middle" x="404.5" y="-118.5" font-family="Helvetica,sans-Serif" font-size="10.00">::ActionList::ActionList</text>
</a>
</g>
</g>
<!-- Node2&#45;&gt;Node3 -->
<g id="edge2_Node000002_Node000003" class="edge">
<title>Node2&#45;&gt;Node3</title>
<g id="a_edge2_Node000002_Node000003"><a xlink:title=" ">
<path fill="none" stroke="#63b8ff" d="M311.21,-115.33C319.21,-116.43 327.38,-117.55 335.38,-118.65"/>
<polygon fill="#63b8ff" stroke="#63b8ff" points="334.67,-122.08 345.05,-119.98 335.62,-115.15 334.67,-122.08"/>
</a>
</g>
</g>
<!-- Node6 -->
<g id="Node000006" class="node">
<title>Node6</title>
<g id="a_Node000006"><a xlink:href="class_fiea_1_1_engine_1_1_r_t_t_i.html#a876bebbe7b3149483c43a87f55f4ea99" target="_top" xlink:title=" ">
<polygon fill="white" stroke="#666666" points="749,-126 650.5,-126 650.5,-94 749,-94 749,-126"/>
<text xml:space="preserve" text-anchor="start" x="658.5" y="-112.5" font-family="Helvetica,sans-Serif" font-size="10.00">Fiea::Engine::RTTI</text>
<text xml:space="preserve" text-anchor="middle" x="699.75" y="-100.5" font-family="Helvetica,sans-Serif" font-size="10.00">::TypeIdInstance</text>
</a>
</g>
</g>
<!-- Node2&#45;&gt;Node6 -->
<g id="edge17_Node000002_Node000006" class="edge">
<title>Node2&#45;&gt;Node6</title>
<g id="a_edge17_Node000002_Node000006"><a xlink:title=" ">
<path fill="none" stroke="#63b8ff" d="M311.33,-103.75C323.22,-103.44 335.47,-103.17 347,-103 398.11,-102.26 410.89,-102.24 462,-103 522.2,-103.89 590.99,-106.05 638.85,-107.74"/>
<polygon fill="#63b8ff" stroke="#63b8ff" points="638.61,-111.23 648.73,-108.09 638.86,-104.24 638.61,-111.23"/>
</a>
</g>
</g>
<!-- Node4 -->
<g id="Node000004" class="node">
<title>Node4</title>
<g id="a_Node000004"><a xlink:href="class_fiea_1_1_engine_1_1_actions_1_1_action.html#ae2af386f7122152003b00da79393e19e" target="_top" xlink:title=" ">
<polygon fill="white" stroke="#666666" points="607.75,-182 498,-182 498,-150 607.75,-150 607.75,-182"/>
<text xml:space="preserve" text-anchor="start" x="506" y="-168.5" font-family="Helvetica,sans-Serif" font-size="10.00">Fiea::Engine::Actions</text>
<text xml:space="preserve" text-anchor="middle" x="552.88" y="-156.5" font-family="Helvetica,sans-Serif" font-size="10.00">::Action::Action</text>
</a>
</g>
</g>
<!-- Node3&#45;&gt;Node4 -->
<g id="edge3_Node000003_Node000004" class="edge">
<title>Node3&#45;&gt;Node4</title>
<g id="a_edge3_Node000003_Node000004"><a xlink:title=" ">
<path fill="none" stroke="#63b8ff" d="M462.09,-142.69C470.17,-144.79 478.53,-146.96 486.75,-149.09"/>
<polygon fill="#63b8ff" stroke="#63b8ff" points="485.81,-152.47 496.37,-151.59 487.57,-145.69 485.81,-152.47"/>
</a>
</g>
</g>
<!-- Node3&#45;&gt;Node6 -->
<g id="edge16_Node000003_Node000006" class="edge">
<title>Node3&#45;&gt;Node6</title>
<g id="a_edge16_Node000003_Node000006"><a xlink:title=" ">
<path fill="none" stroke="#63b8ff" d="M462.39,-124.51C513.18,-121.39 587.31,-116.84 638.97,-113.67"/>
<polygon fill="#63b8ff" stroke="#63b8ff" points="639,-117.17 648.77,-113.07 638.57,-110.19 639,-117.17"/>
</a>
</g>
</g>
<!-- Node5 -->
<g id="Node000005" class="node">
<title>Node5</title>
<g id="a_Node000005"><a xlink:href="class_fiea_1_1_engine_1_1_content_1_1_attributed.html#ad1ae014235d9d8b62b36066c94164148" target="_top" xlink:title=" ">
<polygon fill="white" stroke="#666666" points="755.75,-194 643.75,-194 643.75,-162 755.75,-162 755.75,-194"/>
<text xml:space="preserve" text-anchor="start" x="651.75" y="-180.5" font-family="Helvetica,sans-Serif" font-size="10.00">Fiea::Engine::Content</text>
<text xml:space="preserve" text-anchor="middle" x="699.75" y="-168.5" font-family="Helvetica,sans-Serif" font-size="10.00">::Attributed::Attributed</text>
</a>
</g>
</g>
<!-- Node4&#45;&gt;Node5 -->
<g id="edge4_Node000004_Node000005" class="edge">
<title>Node4&#45;&gt;Node5</title>
<g id="a_edge4_Node000004_Node000005"><a xlink:title=" ">
<path fill="none" stroke="#63b8ff" d="M608.23,-170.5C616.09,-171.15 624.25,-171.83 632.32,-172.5"/>
<polygon fill="#63b8ff" stroke="#63b8ff" points="631.84,-175.97 642.1,-173.31 632.42,-168.99 631.84,-175.97"/>
</a>
</g>
</g>
<!-- Node4&#45;&gt;Node6 -->
<g id="edge6_Node000004_Node000006" class="edge">
<title>Node4&#45;&gt;Node6</title>
<g id="a_edge6_Node000004_Node000006"><a xlink:title=" ">
<path fill="none" stroke="#63b8ff" d="M596.56,-149.5C612.03,-143.52 629.7,-136.69 645.94,-130.41"/>
<polygon fill="#63b8ff" stroke="#63b8ff" points="646.89,-133.8 654.96,-126.93 644.37,-127.27 646.89,-133.8"/>
</a>
</g>
</g>
<!-- Node5&#45;&gt;Node5 -->
<g id="edge5_Node000005_Node000005" class="edge">
<title>Node5&#45;&gt;Node5</title>
<g id="a_edge5_Node000005_Node000005"><a xlink:title=" ">
<path fill="none" stroke="#63b8ff" d="M673.53,-194.44C668.63,-203.58 677.37,-212 699.75,-212 711.99,-212 720.15,-209.48 724.23,-205.71"/>
<polygon fill="#63b8ff" stroke="#63b8ff" points="727.67,-206.36 725.74,-195.94 720.75,-205.28 727.67,-206.36"/>
</a>
</g>
</g>
<!-- Node6&#45;&gt;Node6 -->
<g id="edge15_Node000006_Node000006" class="edge">
<title>Node6&#45;&gt;Node6</title>
<g id="a_edge15_Node000006_Node000006"><a xlink:title=" ">
<path fill="none" stroke="#63b8ff" d="M673.53,-126.44C668.63,-135.58 677.37,-144 699.75,-144 711.99,-144 720.15,-141.48 724.23,-137.71"/>
<polygon fill="#63b8ff" stroke="#63b8ff" points="727.67,-138.36 725.74,-127.94 720.75,-137.28 727.67,-138.36"/>
</a>
</g>
</g>
<!-- Node7 -->
<g id="Node000007" class="node">
<title>Node7</title>
<g id="a_Node000007"><a xlink:href="class_fiea_1_1_engine_1_1_r_t_t_i.html#a15bd5993c8ad04da47af440298ebbb30" target="_top" xlink:title=" ">
<polygon fill="white" stroke="#666666" points="908.25,-158 791.75,-158 791.75,-138 908.25,-138 908.25,-158"/>
<text xml:space="preserve" text-anchor="middle" x="850" y="-144.5" font-family="Helvetica,sans-Serif" font-size="10.00">Fiea::Engine::RTTI::As</text>
</a>
</g>
</g>
<!-- Node6&#45;&gt;Node7 -->
<g id="edge7_Node000006_Node000007" class="edge">
<title>Node6&#45;&gt;Node7</title>
<g id="a_edge7_Node000006_Node000007"><a xlink:title=" ">
<path fill="none" stroke="#63b8ff" d="M749.29,-122.44C764.65,-126.38 781.68,-130.74 797.25,-134.74"/>
<polygon fill="#63b8ff" stroke="#63b8ff" points="796.27,-138.1 806.82,-137.19 798,-131.32 796.27,-138.1"/>
</a>
</g>
</g>
<!-- Node8 -->
<g id="Node000008" class="node">
<title>Node8</title>
<g id="a_Node000008"><a xlink:href="class_fiea_1_1_engine_1_1_r_t_t_i.html#ac0a7d875e4513b2aca7594abcd4418ef" target="_top" xlink:title=" ">
<polygon fill="white" stroke="#666666" points="1057,-180 944.25,-180 944.25,-160 1057,-160 1057,-180"/>
<text xml:space="preserve" text-anchor="middle" x="1000.62" y="-166.5" font-family="Helvetica,sans-Serif" font-size="10.00">Fiea::Engine::RTTI::Is</text>
</a>
</g>
</g>
<!-- Node6&#45;&gt;Node8 -->
<g id="edge12_Node000006_Node000008" class="edge">
<title>Node6&#45;&gt;Node8</title>
<g id="a_edge12_Node000006_Node000008"><a xlink:title=" ">
<path fill="none" stroke="#63b8ff" d="M719.8,-126.34C737.23,-140.14 764.39,-158.93 791.75,-167 837.47,-180.5 891.35,-180.86 932.8,-178.06"/>
<polygon fill="#63b8ff" stroke="#63b8ff" points="932.93,-181.56 942.63,-177.31 932.39,-174.58 932.93,-181.56"/>
</a>
</g>
</g>
<!-- Node9 -->
<g id="Node000009" class="node">
<title>Node9</title>
<g id="a_Node000009"><a xlink:href="class_fiea_1_1_engine_1_1_r_t_t_i.html#a13000029a2e6cced30b831e466e07cae" target="_top" xlink:title=" ">
<polygon fill="white" stroke="#666666" points="1049.88,-126 951.38,-126 951.38,-94 1049.88,-94 1049.88,-126"/>
<text xml:space="preserve" text-anchor="start" x="959.38" y="-112.5" font-family="Helvetica,sans-Serif" font-size="10.00">Fiea::Engine::RTTI</text>
<text xml:space="preserve" text-anchor="middle" x="1000.62" y="-100.5" font-family="Helvetica,sans-Serif" font-size="10.00">::RTTI</text>
</a>
</g>
</g>
<!-- Node6&#45;&gt;Node9 -->
<g id="edge13_Node000006_Node000009" class="edge">
<title>Node6&#45;&gt;Node9</title>
<g id="a_edge13_Node000006_Node000009"><a xlink:title=" ">
<path fill="none" stroke="#63b8ff" d="M749.43,-110C801.32,-110 883.54,-110 939.45,-110"/>
<polygon fill="#63b8ff" stroke="#63b8ff" points="939.45,-113.5 949.45,-110 939.45,-106.5 939.45,-113.5"/>
</a>
</g>
</g>
<!-- Node10 -->
<g id="Node000010" class="node">
<title>Node10</title>
<g id="a_Node000010"><a xlink:href="class_fiea_1_1_engine_1_1_r_t_t_i.html#a7f70ad5ba0f8a3388543d63d72892575" target="_top" xlink:title=" ">
<polygon fill="white" stroke="#666666" points="899.25,-82 800.75,-82 800.75,-50 899.25,-50 899.25,-82"/>
<text xml:space="preserve" text-anchor="start" x="808.75" y="-68.5" font-family="Helvetica,sans-Serif" font-size="10.00">Fiea::Engine::RTTI</text>
<text xml:space="preserve" text-anchor="middle" x="850" y="-56.5" font-family="Helvetica,sans-Serif" font-size="10.00">::Equals</text>
</a>
</g>
</g>
<!-- Node6&#45;&gt;Node10 -->
<g id="edge10_Node000006_Node000010" class="edge">
<title>Node6&#45;&gt;Node10</title>
<g id="a_edge10_Node000006_Node000010"><a xlink:title=" ">
<path fill="none" stroke="#63b8ff" d="M749.29,-95.59C762.09,-91.79 776.05,-87.65 789.36,-83.7"/>
<polygon fill="#63b8ff" stroke="#63b8ff" points="790.31,-87.07 798.9,-80.87 788.31,-80.36 790.31,-87.07"/>
</a>
</g>
</g>
<!-- Node11 -->
<g id="Node000011" class="node">
<title>Node11</title>
<g id="a_Node000011"><a xlink:href="class_fiea_1_1_engine_1_1_r_t_t_i.html#a43a7d187e332a17d2c699bc2c8136a30" target="_top" xlink:title=" ">
<polygon fill="white" stroke="#666666" points="899.25,-32 800.75,-32 800.75,0 899.25,0 899.25,-32"/>
<text xml:space="preserve" text-anchor="start" x="808.75" y="-18.5" font-family="Helvetica,sans-Serif" font-size="10.00">Fiea::Engine::RTTI</text>
<text xml:space="preserve" text-anchor="middle" x="850" y="-6.5" font-family="Helvetica,sans-Serif" font-size="10.00">::ToString</text>
</a>
</g>
</g>
<!-- Node6&#45;&gt;Node11 -->
<g id="edge14_Node000006_Node000011" class="edge">
<title>Node6&#45;&gt;Node11</title>
<g id="a_edge14_Node000006_Node000011"><a xlink:title=" ">
<path fill="none" stroke="#63b8ff" d="M719.69,-93.51C737.47,-78.56 765.24,-56.54 791.75,-41 793.76,-39.82 795.84,-38.66 797.95,-37.53"/>
<polygon fill="#63b8ff" stroke="#63b8ff" points="799.34,-40.75 806.71,-33.13 796.2,-34.5 799.34,-40.75"/>
</a>
</g>
</g>
<!-- Node7&#45;&gt;Node8 -->
<g id="edge8_Node000007_Node000008" class="edge">
<title>Node7&#45;&gt;Node8</title>
<g id="a_edge8_Node000007_Node000008"><a xlink:title=" ">
<path fill="none" stroke="#63b8ff" d="M908.46,-156.51C916.35,-157.67 924.5,-158.88 932.53,-160.07"/>
<polygon fill="#63b8ff" stroke="#63b8ff" points="931.88,-163.51 942.28,-161.51 932.91,-156.59 931.88,-163.51"/>
</a>
</g>
</g>
<!-- Node7&#45;&gt;Node9 -->
<g id="edge9_Node000007_Node000009" class="edge">
<title>Node7&#45;&gt;Node9</title>
<g id="a_edge9_Node000007_Node000009"><a xlink:title=" ">
<path fill="none" stroke="#63b8ff" d="M892.01,-137.52C906.88,-133.71 923.99,-129.34 940.13,-125.21"/>
<polygon fill="#63b8ff" stroke="#63b8ff" points="940.82,-128.65 949.64,-122.78 939.09,-121.87 940.82,-128.65"/>
</a>
</g>
</g>
<!-- Node10&#45;&gt;Node9 -->
<g id="edge11_Node000010_Node000009" class="edge">
<title>Node10&#45;&gt;Node9</title>
<g id="a_edge11_Node000010_Node000009"><a xlink:title=" ">
<path fill="none" stroke="#63b8ff" d="M899.67,-80.41C912.69,-84.26 926.92,-88.47 940.44,-92.48"/>
<polygon fill="#63b8ff" stroke="#63b8ff" points="939.07,-95.72 949.65,-95.21 941.06,-89.01 939.07,-95.72"/>
</a>
</g>
</g>
</g>
</svg>
