<?xml version="1.0" encoding="UTF-8" standalone="no"?>
<!DOCTYPE svg PUBLIC "-//W3C//DTD SVG 1.1//EN"
 "http://www.w3.org/Graphics/SVG/1.1/DTD/svg11.dtd">
<!-- Generated by graphviz version 13.1.0 (20250701.0955)
 -->
<!-- Title: Fiea::Engine::Content::ScopeWriter::AddGameObject Pages: 1 -->
<svg width="976pt" height="520pt"
 viewBox="0.00 0.00 976.00 520.00" xmlns="http://www.w3.org/2000/svg" xmlns:xlink="http://www.w3.org/1999/xlink">
<g id="graph0" class="graph" transform="scale(1 1) rotate(0) translate(4 515.7)">
<title>Fiea::Engine::Content::ScopeWriter::AddGameObject</title>
<!-- Node1 -->
<g id="Node000001" class="node">
<title>Node1</title>
<g id="a_Node000001"><a xlink:title=" ">
<polygon fill="#999999" stroke="#666666" points="153.25,-320 0,-320 0,-288 153.25,-288 153.25,-320"/>
<text xml:space="preserve" text-anchor="start" x="8" y="-306.5" font-family="Helvetica,sans-Serif" font-size="10.00">Fiea::Engine::Content</text>
<text xml:space="preserve" text-anchor="middle" x="76.62" y="-294.5" font-family="Helvetica,sans-Serif" font-size="10.00">::ScopeWriter::AddGameObject</text>
</a>
</g>
</g>
<!-- Node2 -->
<g id="Node000002" class="node">
<title>Node2</title>
<g id="a_Node000002"><a xlink:href="class_fiea_1_1_engine_1_1_game_object.html#a4d89e3a21dd6381eac8a1f1189ea029e" target="_top" xlink:title=" ">
<polygon fill="white" stroke="#666666" points="328.62,-320 197.12,-320 197.12,-288 328.62,-288 328.62,-320"/>
<text xml:space="preserve" text-anchor="start" x="205.12" y="-306.5" font-family="Helvetica,sans-Serif" font-size="10.00">Fiea::Engine::GameObject</text>
<text xml:space="preserve" text-anchor="middle" x="262.88" y="-294.5" font-family="Helvetica,sans-Serif" font-size="10.00">::AddChild</text>
</a>
</g>
</g>
<!-- Node1&#45;&gt;Node2 -->
<g id="edge1_Node000001_Node000002" class="edge">
<title>Node1&#45;&gt;Node2</title>
<g id="a_edge1_Node000001_Node000002"><a xlink:title=" ">
<path fill="none" stroke="#63b8ff" d="M153.63,-304C164.19,-304 175.03,-304 185.59,-304"/>
<polygon fill="#63b8ff" stroke="#63b8ff" points="185.4,-307.5 195.4,-304 185.4,-300.5 185.4,-307.5"/>
</a>
</g>
</g>
<!-- Node7 -->
<g id="Node000007" class="node">
<title>Node7</title>
<g id="a_Node000007"><a xlink:href="class_fiea_1_1_engine_1_1_r_t_t_i.html#a15bd5993c8ad04da47af440298ebbb30" target="_top" xlink:title=" ">
<polygon fill="white" stroke="#666666" points="818.75,-487 702.25,-487 702.25,-467 818.75,-467 818.75,-487"/>
<text xml:space="preserve" text-anchor="middle" x="760.5" y="-473.5" font-family="Helvetica,sans-Serif" font-size="10.00">Fiea::Engine::RTTI::As</text>
</a>
</g>
</g>
<!-- Node1&#45;&gt;Node7 -->
<g id="edge31_Node000001_Node000007" class="edge">
<title>Node1&#45;&gt;Node7</title>
<g id="a_edge31_Node000001_Node000007"><a xlink:title=" ">
<path fill="none" stroke="#63b8ff" d="M84.96,-320.29C99.75,-351.02 136.31,-417.13 189.25,-447 355.61,-540.88 594.59,-510.43 702.63,-489.63"/>
<polygon fill="#63b8ff" stroke="#63b8ff" points="702.98,-493.13 712.12,-487.76 701.63,-486.26 702.98,-493.13"/>
</a>
</g>
</g>
<!-- Node15 -->
<g id="Node000015" class="node">
<title>Node15</title>
<g id="a_Node000015"><a xlink:href="class_fiea_1_1_engine_1_1_content_1_1_scope.html#a002f54731a8996f37c4f725d8175ffee" target="_top" xlink:title="Appends a new Scope as a child under the specified key.">
<polygon fill="white" stroke="#666666" points="321.12,-220 204.62,-220 204.62,-188 321.12,-188 321.12,-220"/>
<text xml:space="preserve" text-anchor="start" x="212.62" y="-206.5" font-family="Helvetica,sans-Serif" font-size="10.00">Fiea::Engine::Content</text>
<text xml:space="preserve" text-anchor="middle" x="262.88" y="-194.5" font-family="Helvetica,sans-Serif" font-size="10.00">::Scope::AppendScope</text>
</a>
</g>
</g>
<!-- Node1&#45;&gt;Node15 -->
<g id="edge21_Node000001_Node000015" class="edge">
<title>Node1&#45;&gt;Node15</title>
<g id="a_edge21_Node000001_Node000015"><a xlink:title=" ">
<path fill="none" stroke="#63b8ff" d="M107.64,-287.71C138.73,-270.84 187.49,-244.37 221.85,-225.73"/>
<polygon fill="#63b8ff" stroke="#63b8ff" points="223.12,-229.02 230.24,-221.17 219.78,-222.86 223.12,-229.02"/>
</a>
</g>
</g>
<!-- Node21 -->
<g id="Node000021" class="node">
<title>Node21</title>
<g id="a_Node000021"><a xlink:href="struct_fiea_1_1_engine_1_1_content_1_1_i_factory_service.html#a06ed01632b58a4faeb159d3e9a0ef51f" target="_top" xlink:title=" ">
<polygon fill="white" stroke="#666666" points="326,-438 199.75,-438 199.75,-406 326,-406 326,-438"/>
<text xml:space="preserve" text-anchor="start" x="207.75" y="-424.5" font-family="Helvetica,sans-Serif" font-size="10.00">Fiea::Engine::Content</text>
<text xml:space="preserve" text-anchor="middle" x="262.88" y="-412.5" font-family="Helvetica,sans-Serif" font-size="10.00">::IFactoryService::Create</text>
</a>
</g>
</g>
<!-- Node1&#45;&gt;Node21 -->
<g id="edge32_Node000001_Node000021" class="edge">
<title>Node1&#45;&gt;Node21</title>
<g id="a_edge32_Node000001_Node000021"><a xlink:title=" ">
<path fill="none" stroke="#63b8ff" d="M103.24,-320.41C135.33,-340.96 190.46,-376.27 226.54,-399.37"/>
<polygon fill="#63b8ff" stroke="#63b8ff" points="224.59,-402.28 234.9,-404.73 228.37,-396.39 224.59,-402.28"/>
</a>
</g>
</g>
<!-- Node23 -->
<g id="Node000023" class="node">
<title>Node23</title>
<g id="a_Node000023"><a xlink:href="class_fiea_1_1_engine_1_1_service_manager.html#a8aac9b15b7e5483c2b1cd5febe590a0c" target="_top" xlink:title=" ">
<polygon fill="white" stroke="#666666" points="336.5,-170 189.25,-170 189.25,-138 336.5,-138 336.5,-170"/>
<text xml:space="preserve" text-anchor="start" x="197.25" y="-156.5" font-family="Helvetica,sans-Serif" font-size="10.00">Fiea::Engine::ServiceManager</text>
<text xml:space="preserve" text-anchor="middle" x="262.88" y="-144.5" font-family="Helvetica,sans-Serif" font-size="10.00">::ProvideInterface</text>
</a>
</g>
</g>
<!-- Node1&#45;&gt;Node23 -->
<g id="edge35_Node000001_Node000023" class="edge">
<title>Node1&#45;&gt;Node23</title>
<g id="a_edge35_Node000001_Node000023"><a xlink:title=" ">
<path fill="none" stroke="#63b8ff" d="M87.99,-287.79C105.68,-261.37 144.18,-208.96 189.25,-179 191.08,-177.78 192.98,-176.62 194.93,-175.5"/>
<polygon fill="#63b8ff" stroke="#63b8ff" points="196.34,-178.71 203.65,-171.04 193.16,-172.48 196.34,-178.71"/>
</a>
</g>
</g>
<!-- Node3 -->
<g id="Node000003" class="node">
<title>Node3</title>
<g id="a_Node000003"><a xlink:href="class_fiea_1_1_engine_1_1_content_1_1_scope.html#aa91d6470fd3d3f402bbb2e765be54455" target="_top" xlink:title="Appends a new Datum with the given key.">
<polygon fill="white" stroke="#666666" points="501,-270 389.75,-270 389.75,-238 501,-238 501,-270"/>
<text xml:space="preserve" text-anchor="start" x="397.75" y="-256.5" font-family="Helvetica,sans-Serif" font-size="10.00">Fiea::Engine::Content</text>
<text xml:space="preserve" text-anchor="middle" x="445.38" y="-244.5" font-family="Helvetica,sans-Serif" font-size="10.00">::Scope::Append</text>
</a>
</g>
</g>
<!-- Node2&#45;&gt;Node3 -->
<g id="edge2_Node000002_Node000003" class="edge">
<title>Node2&#45;&gt;Node3</title>
<g id="a_edge2_Node000002_Node000003"><a xlink:title=" ">
<path fill="none" stroke="#63b8ff" d="M323.23,-287.56C340.84,-282.68 360.24,-277.31 378.26,-272.32"/>
<polygon fill="#63b8ff" stroke="#63b8ff" points="379.1,-275.71 387.81,-269.67 377.24,-268.97 379.1,-275.71"/>
</a>
</g>
</g>
<!-- Node4 -->
<g id="Node000004" class="node">
<title>Node4</title>
<g id="a_Node000004"><a xlink:href="class_fiea_1_1_engine_1_1_game_object.html#ad3a296dd56ec43cc9f81eef0b1d14db6" target="_top" xlink:title=" ">
<polygon fill="white" stroke="#666666" points="511.12,-370 379.62,-370 379.62,-338 511.12,-338 511.12,-370"/>
<text xml:space="preserve" text-anchor="start" x="387.62" y="-356.5" font-family="Helvetica,sans-Serif" font-size="10.00">Fiea::Engine::GameObject</text>
<text xml:space="preserve" text-anchor="middle" x="445.38" y="-344.5" font-family="Helvetica,sans-Serif" font-size="10.00">::GameObject</text>
</a>
</g>
</g>
<!-- Node2&#45;&gt;Node4 -->
<g id="edge3_Node000002_Node000004" class="edge">
<title>Node2&#45;&gt;Node4</title>
<g id="a_edge3_Node000002_Node000004"><a xlink:title=" ">
<path fill="none" stroke="#63b8ff" d="M323.23,-320.44C339.5,-324.95 357.29,-329.88 374.1,-334.53"/>
<polygon fill="#63b8ff" stroke="#63b8ff" points="372.96,-337.85 383.53,-337.14 374.83,-331.1 372.96,-337.85"/>
</a>
</g>
</g>
<!-- Node12 -->
<g id="Node000012" class="node">
<title>Node12</title>
<g id="a_Node000012"><a xlink:href="class_fiea_1_1_engine_1_1_content_1_1_datum.html#acb3ba55fc9b39b876cf3334d0305f4fc" target="_top" xlink:title=" ">
<polygon fill="white" stroke="#666666" points="501,-320 389.75,-320 389.75,-288 501,-288 501,-320"/>
<text xml:space="preserve" text-anchor="start" x="397.75" y="-306.5" font-family="Helvetica,sans-Serif" font-size="10.00">Fiea::Engine::Content</text>
<text xml:space="preserve" text-anchor="middle" x="445.38" y="-294.5" font-family="Helvetica,sans-Serif" font-size="10.00">::Datum::Push</text>
</a>
</g>
</g>
<!-- Node2&#45;&gt;Node12 -->
<g id="edge16_Node000002_Node000012" class="edge">
<title>Node2&#45;&gt;Node12</title>
<g id="a_edge16_Node000002_Node000012"><a xlink:title=" ">
<path fill="none" stroke="#63b8ff" d="M329.04,-304C344.97,-304 362.02,-304 378.01,-304"/>
<polygon fill="#63b8ff" stroke="#63b8ff" points="377.91,-307.5 387.91,-304 377.91,-300.5 377.91,-307.5"/>
</a>
</g>
</g>
<!-- Node5 -->
<g id="Node000005" class="node">
<title>Node5</title>
<g id="a_Node000005"><a xlink:href="class_fiea_1_1_engine_1_1_content_1_1_attributed.html#ad1ae014235d9d8b62b36066c94164148" target="_top" xlink:title=" ">
<polygon fill="white" stroke="#666666" points="666.25,-429 554.25,-429 554.25,-397 666.25,-397 666.25,-429"/>
<text xml:space="preserve" text-anchor="start" x="562.25" y="-415.5" font-family="Helvetica,sans-Serif" font-size="10.00">Fiea::Engine::Content</text>
<text xml:space="preserve" text-anchor="middle" x="610.25" y="-403.5" font-family="Helvetica,sans-Serif" font-size="10.00">::Attributed::Attributed</text>
</a>
</g>
</g>
<!-- Node4&#45;&gt;Node5 -->
<g id="edge4_Node000004_Node000005" class="edge">
<title>Node4&#45;&gt;Node5</title>
<g id="a_edge4_Node000004_Node000005"><a xlink:title=" ">
<path fill="none" stroke="#63b8ff" d="M491.74,-370.43C510.81,-377.34 533.19,-385.45 553.27,-392.72"/>
<polygon fill="#63b8ff" stroke="#63b8ff" points="551.82,-395.92 562.42,-396.04 554.21,-389.34 551.82,-395.92"/>
</a>
</g>
</g>
<!-- Node6 -->
<g id="Node000006" class="node">
<title>Node6</title>
<g id="a_Node000006"><a xlink:href="class_fiea_1_1_engine_1_1_r_t_t_i.html#a876bebbe7b3149483c43a87f55f4ea99" target="_top" xlink:title=" ">
<polygon fill="white" stroke="#666666" points="659.5,-361 561,-361 561,-329 659.5,-329 659.5,-361"/>
<text xml:space="preserve" text-anchor="start" x="569" y="-347.5" font-family="Helvetica,sans-Serif" font-size="10.00">Fiea::Engine::RTTI</text>
<text xml:space="preserve" text-anchor="middle" x="610.25" y="-335.5" font-family="Helvetica,sans-Serif" font-size="10.00">::TypeIdInstance</text>
</a>
</g>
</g>
<!-- Node4&#45;&gt;Node6 -->
<g id="edge6_Node000004_Node000006" class="edge">
<title>Node4&#45;&gt;Node6</title>
<g id="a_edge6_Node000004_Node000006"><a xlink:title=" ">
<path fill="none" stroke="#63b8ff" d="M511.22,-350.42C523.85,-349.72 537.04,-348.99 549.5,-348.3"/>
<polygon fill="#63b8ff" stroke="#63b8ff" points="549.39,-351.81 559.19,-347.77 549.01,-344.82 549.39,-351.81"/>
</a>
</g>
</g>
<!-- Node5&#45;&gt;Node5 -->
<g id="edge5_Node000005_Node000005" class="edge">
<title>Node5&#45;&gt;Node5</title>
<g id="a_edge5_Node000005_Node000005"><a xlink:title=" ">
<path fill="none" stroke="#63b8ff" d="M583.43,-429.44C578.42,-438.58 587.36,-447 610.25,-447 622.77,-447 631.11,-444.48 635.29,-440.71"/>
<polygon fill="#63b8ff" stroke="#63b8ff" points="638.73,-441.36 636.84,-430.94 631.81,-440.27 638.73,-441.36"/>
</a>
</g>
</g>
<!-- Node6&#45;&gt;Node6 -->
<g id="edge15_Node000006_Node000006" class="edge">
<title>Node6&#45;&gt;Node6</title>
<g id="a_edge15_Node000006_Node000006"><a xlink:title=" ">
<path fill="none" stroke="#63b8ff" d="M583.43,-361.44C578.42,-370.58 587.36,-379 610.25,-379 622.77,-379 631.11,-376.48 635.29,-372.71"/>
<polygon fill="#63b8ff" stroke="#63b8ff" points="638.73,-373.36 636.84,-362.94 631.81,-372.27 638.73,-373.36"/>
</a>
</g>
</g>
<!-- Node6&#45;&gt;Node7 -->
<g id="edge7_Node000006_Node000007" class="edge">
<title>Node6&#45;&gt;Node7</title>
<g id="a_edge7_Node000006_Node000007"><a xlink:title=" ">
<path fill="none" stroke="#63b8ff" d="M636.78,-361.38C646.81,-368.68 657.91,-377.91 666.25,-388 688.55,-414.96 675.68,-435.25 702.25,-458 703.37,-458.96 704.54,-459.87 705.75,-460.73"/>
<polygon fill="#63b8ff" stroke="#63b8ff" points="703.96,-463.74 714.37,-465.75 707.48,-457.69 703.96,-463.74"/>
</a>
</g>
</g>
<!-- Node8 -->
<g id="Node000008" class="node">
<title>Node8</title>
<g id="a_Node000008"><a xlink:href="class_fiea_1_1_engine_1_1_r_t_t_i.html#ac0a7d875e4513b2aca7594abcd4418ef" target="_top" xlink:title=" ">
<polygon fill="white" stroke="#666666" points="967.5,-443 854.75,-443 854.75,-423 967.5,-423 967.5,-443"/>
<text xml:space="preserve" text-anchor="middle" x="911.12" y="-429.5" font-family="Helvetica,sans-Serif" font-size="10.00">Fiea::Engine::RTTI::Is</text>
</a>
</g>
</g>
<!-- Node6&#45;&gt;Node8 -->
<g id="edge12_Node000006_Node000008" class="edge">
<title>Node6&#45;&gt;Node8</title>
<g id="a_edge12_Node000006_Node000008"><a xlink:title=" ">
<path fill="none" stroke="#63b8ff" d="M659.93,-359.33C716.26,-375.92 808.34,-403.03 863.69,-419.33"/>
<polygon fill="#63b8ff" stroke="#63b8ff" points="862.55,-422.64 873.14,-422.11 864.53,-415.93 862.55,-422.64"/>
</a>
</g>
</g>
<!-- Node9 -->
<g id="Node000009" class="node">
<title>Node9</title>
<g id="a_Node000009"><a xlink:href="class_fiea_1_1_engine_1_1_r_t_t_i.html#a13000029a2e6cced30b831e466e07cae" target="_top" xlink:title=" ">
<polygon fill="white" stroke="#666666" points="960.38,-361 861.88,-361 861.88,-329 960.38,-329 960.38,-361"/>
<text xml:space="preserve" text-anchor="start" x="869.88" y="-347.5" font-family="Helvetica,sans-Serif" font-size="10.00">Fiea::Engine::RTTI</text>
<text xml:space="preserve" text-anchor="middle" x="911.12" y="-335.5" font-family="Helvetica,sans-Serif" font-size="10.00">::RTTI</text>
</a>
</g>
</g>
<!-- Node6&#45;&gt;Node9 -->
<g id="edge13_Node000006_Node000009" class="edge">
<title>Node6&#45;&gt;Node9</title>
<g id="a_edge13_Node000006_Node000009"><a xlink:title=" ">
<path fill="none" stroke="#63b8ff" d="M659.87,-329.06C673.43,-325.32 688.29,-321.88 702.25,-320 753.56,-313.08 767.43,-313.11 818.75,-320 829.28,-321.41 840.3,-323.7 850.91,-326.34"/>
<polygon fill="#63b8ff" stroke="#63b8ff" points="849.75,-329.65 860.31,-328.81 851.53,-322.88 849.75,-329.65"/>
</a>
</g>
</g>
<!-- Node10 -->
<g id="Node000010" class="node">
<title>Node10</title>
<g id="a_Node000010"><a xlink:href="class_fiea_1_1_engine_1_1_r_t_t_i.html#a7f70ad5ba0f8a3388543d63d72892575" target="_top" xlink:title=" ">
<polygon fill="white" stroke="#666666" points="809.75,-361 711.25,-361 711.25,-329 809.75,-329 809.75,-361"/>
<text xml:space="preserve" text-anchor="start" x="719.25" y="-347.5" font-family="Helvetica,sans-Serif" font-size="10.00">Fiea::Engine::RTTI</text>
<text xml:space="preserve" text-anchor="middle" x="760.5" y="-335.5" font-family="Helvetica,sans-Serif" font-size="10.00">::Equals</text>
</a>
</g>
</g>
<!-- Node6&#45;&gt;Node10 -->
<g id="edge10_Node000006_Node000010" class="edge">
<title>Node6&#45;&gt;Node10</title>
<g id="a_edge10_Node000006_Node000010"><a xlink:title=" ">
<path fill="none" stroke="#63b8ff" d="M659.79,-345C672.46,-345 686.27,-345 699.46,-345"/>
<polygon fill="#63b8ff" stroke="#63b8ff" points="699.33,-348.5 709.33,-345 699.33,-341.5 699.33,-348.5"/>
</a>
</g>
</g>
<!-- Node11 -->
<g id="Node000011" class="node">
<title>Node11</title>
<g id="a_Node000011"><a xlink:href="class_fiea_1_1_engine_1_1_r_t_t_i.html#a43a7d187e332a17d2c699bc2c8136a30" target="_top" xlink:title=" ">
<polygon fill="white" stroke="#666666" points="809.75,-449 711.25,-449 711.25,-417 809.75,-417 809.75,-449"/>
<text xml:space="preserve" text-anchor="start" x="719.25" y="-435.5" font-family="Helvetica,sans-Serif" font-size="10.00">Fiea::Engine::RTTI</text>
<text xml:space="preserve" text-anchor="middle" x="760.5" y="-423.5" font-family="Helvetica,sans-Serif" font-size="10.00">::ToString</text>
</a>
</g>
</g>
<!-- Node6&#45;&gt;Node11 -->
<g id="edge14_Node000006_Node000011" class="edge">
<title>Node6&#45;&gt;Node11</title>
<g id="a_edge14_Node000006_Node000011"><a xlink:title=" ">
<path fill="none" stroke="#63b8ff" d="M635.62,-361.33C653.75,-373.28 679.23,-389.66 702.25,-403 707.1,-405.81 712.24,-408.67 717.37,-411.44"/>
<polygon fill="#63b8ff" stroke="#63b8ff" points="715.34,-414.33 725.81,-415.94 718.63,-408.15 715.34,-414.33"/>
</a>
</g>
</g>
<!-- Node7&#45;&gt;Node8 -->
<g id="edge8_Node000007_Node000008" class="edge">
<title>Node7&#45;&gt;Node8</title>
<g id="a_edge8_Node000007_Node000008"><a xlink:title=" ">
<path fill="none" stroke="#63b8ff" d="M796.72,-466.57C816.82,-460.62 842.26,-453.09 863.95,-446.67"/>
<polygon fill="#63b8ff" stroke="#63b8ff" points="864.85,-450.05 873.45,-443.86 862.87,-443.34 864.85,-450.05"/>
</a>
</g>
</g>
<!-- Node7&#45;&gt;Node9 -->
<g id="edge9_Node000007_Node000009" class="edge">
<title>Node7&#45;&gt;Node9</title>
<g id="a_edge9_Node000007_Node000009"><a xlink:title=" ">
<path fill="none" stroke="#63b8ff" d="M802.6,-466.57C808.28,-464.22 813.84,-461.4 818.75,-458 819.91,-457.2 863.75,-402.73 890.28,-369.72"/>
<polygon fill="#63b8ff" stroke="#63b8ff" points="892.77,-372.21 896.3,-362.22 887.31,-367.83 892.77,-372.21"/>
</a>
</g>
</g>
<!-- Node10&#45;&gt;Node9 -->
<g id="edge11_Node000010_Node000009" class="edge">
<title>Node10&#45;&gt;Node9</title>
<g id="a_edge11_Node000010_Node000009"><a xlink:title=" ">
<path fill="none" stroke="#63b8ff" d="M810.17,-345C822.93,-345 836.85,-345 850.14,-345"/>
<polygon fill="#63b8ff" stroke="#63b8ff" points="850.09,-348.5 860.09,-345 850.09,-341.5 850.09,-348.5"/>
</a>
</g>
</g>
<!-- Node13 -->
<g id="Node000013" class="node">
<title>Node13</title>
<g id="a_Node000013"><a xlink:href="class_fiea_1_1_engine_1_1_content_1_1_datum.html#a818f812e4489e57885c88951bc0601b3" target="_top" xlink:title=" ">
<polygon fill="white" stroke="#666666" points="665.88,-259 554.62,-259 554.62,-227 665.88,-227 665.88,-259"/>
<text xml:space="preserve" text-anchor="start" x="562.62" y="-245.5" font-family="Helvetica,sans-Serif" font-size="10.00">Fiea::Engine::Content</text>
<text xml:space="preserve" text-anchor="middle" x="610.25" y="-233.5" font-family="Helvetica,sans-Serif" font-size="10.00">::Datum::ResizeArray</text>
</a>
</g>
</g>
<!-- Node12&#45;&gt;Node13 -->
<g id="edge17_Node000012_Node000013" class="edge">
<title>Node12&#45;&gt;Node13</title>
<g id="a_edge17_Node000012_Node000013"><a xlink:title=" ">
<path fill="none" stroke="#63b8ff" d="M494.42,-287.6C502.4,-284.79 510.57,-281.85 518.25,-279 531.19,-274.19 545.08,-268.81 558.02,-263.7"/>
<polygon fill="#63b8ff" stroke="#63b8ff" points="559.21,-267 567.21,-260.05 556.63,-260.49 559.21,-267"/>
</a>
</g>
</g>
<!-- Node14 -->
<g id="Node000014" class="node">
<title>Node14</title>
<g id="a_Node000014"><a xlink:href="class_fiea_1_1_engine_1_1_content_1_1_datum.html#a921193447f6e42f596ac0a7694b02830" target="_top" xlink:title=" ">
<polygon fill="white" stroke="#666666" points="816.12,-255 704.88,-255 704.88,-223 816.12,-223 816.12,-255"/>
<text xml:space="preserve" text-anchor="start" x="712.88" y="-241.5" font-family="Helvetica,sans-Serif" font-size="10.00">Fiea::Engine::Content</text>
<text xml:space="preserve" text-anchor="middle" x="760.5" y="-229.5" font-family="Helvetica,sans-Serif" font-size="10.00">::Datum::Scope</text>
</a>
</g>
</g>
<!-- Node12&#45;&gt;Node14 -->
<g id="edge20_Node000012_Node000014" class="edge">
<title>Node12&#45;&gt;Node14</title>
<g id="a_edge20_Node000012_Node000014"><a xlink:title=" ">
<path fill="none" stroke="#63b8ff" d="M501.46,-297.15C546.19,-291.07 610.72,-281.11 666.25,-268 677.26,-265.4 688.87,-262.18 700.02,-258.85"/>
<polygon fill="#63b8ff" stroke="#63b8ff" points="700.99,-262.21 709.53,-255.94 698.94,-255.52 700.99,-262.21"/>
</a>
</g>
</g>
<!-- Node13&#45;&gt;Node14 -->
<g id="edge18_Node000013_Node000014" class="edge">
<title>Node13&#45;&gt;Node14</title>
<g id="a_edge18_Node000013_Node000014"><a xlink:title=" ">
<path fill="none" stroke="#63b8ff" d="M666.03,-241.52C674.85,-241.28 684.05,-241.04 693.11,-240.79"/>
<polygon fill="#63b8ff" stroke="#63b8ff" points="693.03,-244.29 702.94,-240.53 692.84,-237.3 693.03,-244.29"/>
</a>
</g>
</g>
<!-- Node14&#45;&gt;Node14 -->
<g id="edge19_Node000014_Node000014" class="edge">
<title>Node14&#45;&gt;Node14</title>
<g id="a_edge19_Node000014_Node000014"><a xlink:title=" ">
<path fill="none" stroke="#63b8ff" d="M733.68,-255.44C728.67,-264.58 737.61,-273 760.5,-273 773.02,-273 781.36,-270.48 785.54,-266.71"/>
<polygon fill="#63b8ff" stroke="#63b8ff" points="788.98,-267.36 787.09,-256.94 782.06,-266.27 788.98,-267.36"/>
</a>
</g>
</g>
<!-- Node15&#45;&gt;Node3 -->
<g id="edge22_Node000015_Node000003" class="edge">
<title>Node15&#45;&gt;Node3</title>
<g id="a_edge22_Node000015_Node000003"><a xlink:title=" ">
<path fill="none" stroke="#63b8ff" d="M321.48,-219.96C339.6,-224.98 359.74,-230.55 378.38,-235.72"/>
<polygon fill="#63b8ff" stroke="#63b8ff" points="377.44,-239.09 388.01,-238.39 379.3,-232.34 377.44,-239.09"/>
</a>
</g>
</g>
<!-- Node15&#45;&gt;Node12 -->
<g id="edge25_Node000015_Node000012" class="edge">
<title>Node15&#45;&gt;Node12</title>
<g id="a_edge25_Node000015_Node000012"><a xlink:title=" ">
<path fill="none" stroke="#63b8ff" d="M284.06,-220.42C305.12,-236.95 339.6,-262.31 372.5,-279 375.37,-280.46 378.35,-281.86 381.38,-283.22"/>
<polygon fill="#63b8ff" stroke="#63b8ff" points="379.89,-286.38 390.47,-287.01 382.59,-279.93 379.89,-286.38"/>
</a>
</g>
</g>
<!-- Node16 -->
<g id="Node000016" class="node">
<title>Node16</title>
<g id="a_Node000016"><a xlink:href="class_fiea_1_1_engine_1_1_content_1_1_scope.html#ad924c01785b239991fc0e56a63295612" target="_top" xlink:title="Finds a Datum by key.">
<polygon fill="white" stroke="#666666" points="501,-32 389.75,-32 389.75,0 501,0 501,-32"/>
<text xml:space="preserve" text-anchor="start" x="397.75" y="-18.5" font-family="Helvetica,sans-Serif" font-size="10.00">Fiea::Engine::Content</text>
<text xml:space="preserve" text-anchor="middle" x="445.38" y="-6.5" font-family="Helvetica,sans-Serif" font-size="10.00">::Scope::Find</text>
</a>
</g>
</g>
<!-- Node15&#45;&gt;Node16 -->
<g id="edge23_Node000015_Node000016" class="edge">
<title>Node15&#45;&gt;Node16</title>
<g id="a_edge23_Node000015_Node000016"><a xlink:title=" ">
<path fill="none" stroke="#63b8ff" d="M321.54,-190.41C327.1,-187.35 332.24,-183.6 336.5,-179 379.58,-132.5 329.5,-87.57 372.5,-41 374.73,-38.59 377.2,-36.41 379.85,-34.44"/>
<polygon fill="#63b8ff" stroke="#63b8ff" points="381.47,-37.55 388.14,-29.32 377.79,-31.6 381.47,-37.55"/>
</a>
</g>
</g>
<!-- Node17 -->
<g id="Node000017" class="node">
<title>Node17</title>
<g id="a_Node000017"><a xlink:href="class_fiea_1_1_engine_1_1_content_1_1_datum.html#a6e9dfba6e16fddc4efc39b8182dad89f" target="_top" xlink:title=" ">
<polygon fill="white" stroke="#666666" points="501,-220 389.75,-220 389.75,-188 501,-188 501,-220"/>
<text xml:space="preserve" text-anchor="start" x="397.75" y="-206.5" font-family="Helvetica,sans-Serif" font-size="10.00">Fiea::Engine::Content</text>
<text xml:space="preserve" text-anchor="middle" x="445.38" y="-194.5" font-family="Helvetica,sans-Serif" font-size="10.00">::Datum::IsType</text>
</a>
</g>
</g>
<!-- Node15&#45;&gt;Node17 -->
<g id="edge24_Node000015_Node000017" class="edge">
<title>Node15&#45;&gt;Node17</title>
<g id="a_edge24_Node000015_Node000017"><a xlink:title=" ">
<path fill="none" stroke="#63b8ff" d="M321.48,-204C339.51,-204 359.55,-204 378.12,-204"/>
<polygon fill="#63b8ff" stroke="#63b8ff" points="377.95,-207.5 387.95,-204 377.95,-200.5 377.95,-207.5"/>
</a>
</g>
</g>
<!-- Node18 -->
<g id="Node000018" class="node">
<title>Node18</title>
<g id="a_Node000018"><a xlink:href="class_fiea_1_1_engine_1_1_content_1_1_scope.html#a6631343c968c233ab1d9c3e05c3f4fe9" target="_top" xlink:title=" ">
<polygon fill="white" stroke="#666666" points="665.88,-148 554.62,-148 554.62,-116 665.88,-116 665.88,-148"/>
<text xml:space="preserve" text-anchor="start" x="562.62" y="-134.5" font-family="Helvetica,sans-Serif" font-size="10.00">Fiea::Engine::Content</text>
<text xml:space="preserve" text-anchor="middle" x="610.25" y="-122.5" font-family="Helvetica,sans-Serif" font-size="10.00">::Scope::Scope</text>
</a>
</g>
</g>
<!-- Node15&#45;&gt;Node18 -->
<g id="edge26_Node000015_Node000018" class="edge">
<title>Node15&#45;&gt;Node18</title>
<g id="a_edge26_Node000015_Node000018"><a xlink:title=" ">
<path fill="none" stroke="#63b8ff" d="M321.48,-187.98C326.79,-185.4 331.9,-182.42 336.5,-179 358.48,-162.67 348.13,-141.48 372.5,-129 425.11,-102.05 493.32,-106.32 543,-115.25"/>
<polygon fill="#63b8ff" stroke="#63b8ff" points="542.29,-118.67 552.77,-117.12 543.61,-111.8 542.29,-118.67"/>
</a>
</g>
</g>
<!-- Node19 -->
<g id="Node000019" class="node">
<title>Node19</title>
<g id="a_Node000019"><a xlink:href="class_fiea_1_1_engine_1_1_content_1_1_scope.html#af6a94922a8fa123c3b22b7b4485963de" target="_top" xlink:title=" ">
<polygon fill="white" stroke="#666666" points="501,-170 389.75,-170 389.75,-138 501,-138 501,-170"/>
<text xml:space="preserve" text-anchor="start" x="397.75" y="-156.5" font-family="Helvetica,sans-Serif" font-size="10.00">Fiea::Engine::Content</text>
<text xml:space="preserve" text-anchor="middle" x="445.38" y="-144.5" font-family="Helvetica,sans-Serif" font-size="10.00">::Scope::SetParent</text>
</a>
</g>
</g>
<!-- Node15&#45;&gt;Node19 -->
<g id="edge28_Node000015_Node000019" class="edge">
<title>Node15&#45;&gt;Node19</title>
<g id="a_edge28_Node000015_Node000019"><a xlink:title=" ">
<path fill="none" stroke="#63b8ff" d="M321.48,-188.04C339.6,-183.02 359.74,-177.45 378.38,-172.28"/>
<polygon fill="#63b8ff" stroke="#63b8ff" points="379.3,-175.66 388.01,-169.61 377.44,-168.91 379.3,-175.66"/>
</a>
</g>
</g>
<!-- Node20 -->
<g id="Node000020" class="node">
<title>Node20</title>
<g id="a_Node000020"><a xlink:href="class_fiea_1_1_engine_1_1_content_1_1_datum.html#a23d1f16d9646f024a5dee1f05dbd5a5e" target="_top" xlink:title=" ">
<polygon fill="white" stroke="#666666" points="501,-82 389.75,-82 389.75,-50 501,-50 501,-82"/>
<text xml:space="preserve" text-anchor="start" x="397.75" y="-68.5" font-family="Helvetica,sans-Serif" font-size="10.00">Fiea::Engine::Content</text>
<text xml:space="preserve" text-anchor="middle" x="445.38" y="-56.5" font-family="Helvetica,sans-Serif" font-size="10.00">::Datum::SetType</text>
</a>
</g>
</g>
<!-- Node15&#45;&gt;Node20 -->
<g id="edge30_Node000015_Node000020" class="edge">
<title>Node15&#45;&gt;Node20</title>
<g id="a_edge30_Node000015_Node000020"><a xlink:title=" ">
<path fill="none" stroke="#63b8ff" d="M321.58,-189.35C327,-186.49 332.1,-183.08 336.5,-179 366.02,-151.69 343.87,-124.23 372.5,-96 375.33,-93.21 378.46,-90.66 381.78,-88.34"/>
<polygon fill="#63b8ff" stroke="#63b8ff" points="383.54,-91.37 390.26,-83.18 379.9,-85.39 383.54,-91.37"/>
</a>
</g>
</g>
<!-- Node18&#45;&gt;Node18 -->
<g id="edge27_Node000018_Node000018" class="edge">
<title>Node18&#45;&gt;Node18</title>
<g id="a_edge27_Node000018_Node000018"><a xlink:title=" ">
<path fill="none" stroke="#63b8ff" d="M583.43,-148.44C578.42,-157.58 587.36,-166 610.25,-166 622.77,-166 631.11,-163.48 635.29,-159.71"/>
<polygon fill="#63b8ff" stroke="#63b8ff" points="638.73,-160.36 636.84,-149.94 631.81,-159.27 638.73,-160.36"/>
</a>
</g>
</g>
<!-- Node19&#45;&gt;Node18 -->
<g id="edge29_Node000019_Node000018" class="edge">
<title>Node19&#45;&gt;Node18</title>
<g id="a_edge29_Node000019_Node000018"><a xlink:title=" ">
<path fill="none" stroke="#63b8ff" d="M501.06,-146.61C514.55,-144.79 529.15,-142.82 543.12,-140.93"/>
<polygon fill="#63b8ff" stroke="#63b8ff" points="543.21,-144.45 552.65,-139.64 542.27,-137.52 543.21,-144.45"/>
</a>
</g>
</g>
<!-- Node21&#45;&gt;Node7 -->
<g id="edge33_Node000021_Node000007" class="edge">
<title>Node21&#45;&gt;Node7</title>
<g id="a_edge33_Node000021_Node000007"><a xlink:title=" ">
<path fill="none" stroke="#63b8ff" d="M326.47,-438.08C341.46,-441.46 357.48,-444.7 372.5,-447 483.13,-463.92 613.1,-471.51 690.75,-474.76"/>
<polygon fill="#63b8ff" stroke="#63b8ff" points="690.18,-478.24 700.31,-475.15 690.46,-471.25 690.18,-478.24"/>
</a>
</g>
</g>
<!-- Node22 -->
<g id="Node000022" class="node">
<title>Node22</title>
<g id="a_Node000022"><a xlink:href="struct_fiea_1_1_engine_1_1_content_1_1_i_factory_service.html#a287380a07bd649e87bba6b3762554c20" target="_top" xlink:title=" ">
<polygon fill="white" stroke="#666666" points="518.25,-438 372.5,-438 372.5,-406 518.25,-406 518.25,-438"/>
<text xml:space="preserve" text-anchor="start" x="380.5" y="-424.5" font-family="Helvetica,sans-Serif" font-size="10.00">Fiea::Engine::Content</text>
<text xml:space="preserve" text-anchor="middle" x="445.38" y="-412.5" font-family="Helvetica,sans-Serif" font-size="10.00">::IFactoryService::GetFactory</text>
</a>
</g>
</g>
<!-- Node21&#45;&gt;Node22 -->
<g id="edge34_Node000021_Node000022" class="edge">
<title>Node21&#45;&gt;Node22</title>
<g id="a_edge34_Node000021_Node000022"><a xlink:title=" ">
<path fill="none" stroke="#63b8ff" d="M326.5,-422C337.57,-422 349.26,-422 360.8,-422"/>
<polygon fill="#63b8ff" stroke="#63b8ff" points="360.75,-425.5 370.75,-422 360.75,-418.5 360.75,-425.5"/>
</a>
</g>
</g>
</g>
</svg>
