<?xml version="1.0" encoding="UTF-8" standalone="no"?>
<!DOCTYPE svg PUBLIC "-//W3C//DTD SVG 1.1//EN"
 "http://www.w3.org/Graphics/SVG/1.1/DTD/svg11.dtd">
<!-- Generated by graphviz version 13.1.0 (20250701.0955)
 -->
<!-- Title: Fiea::Engine::Actions::ActionListWhileLoop::ActionListWhileLoop Pages: 1 -->
<svg width="267pt" height="238pt"
 viewBox="0.00 0.00 267.00 238.00" xmlns="http://www.w3.org/2000/svg" xmlns:xlink="http://www.w3.org/1999/xlink">
<g id="graph0" class="graph" transform="scale(1 1) rotate(0) translate(4 234)">
<title>Fiea::Engine::Actions::ActionListWhileLoop::ActionListWhileLoop</title>
<!-- Node1 -->
<g id="Node000001" class="node">
<title>Node1</title>
<g id="a_Node000001"><a xlink:title=" ">
<polygon fill="#999999" stroke="#666666" points="258.5,-137 147.25,-137 147.25,-93 258.5,-93 258.5,-137"/>
<text xml:space="preserve" text-anchor="start" x="155.25" y="-123.5" font-family="Helvetica,sans-Serif" font-size="10.00">Fiea::Engine::Actions</text>
<text xml:space="preserve" text-anchor="start" x="155.25" y="-111.5" font-family="Helvetica,sans-Serif" font-size="10.00">::ActionListWhileLoop</text>
<text xml:space="preserve" text-anchor="middle" x="202.88" y="-99.5" font-family="Helvetica,sans-Serif" font-size="10.00">::ActionListWhileLoop</text>
</a>
</g>
</g>
<!-- Node2 -->
<g id="Node000002" class="node">
<title>Node2</title>
<g id="a_Node000002"><a xlink:href="class_fiea_1_1_engine_1_1_actions_1_1_action_list_while_loop.html#a9ee434dcab770064bad70f78eb394c17" target="_top" xlink:title=" ">
<polygon fill="white" stroke="#666666" points="111.25,-230 0,-230 0,-186 111.25,-186 111.25,-230"/>
<text xml:space="preserve" text-anchor="start" x="8" y="-216.5" font-family="Helvetica,sans-Serif" font-size="10.00">Fiea::Engine::Actions</text>
<text xml:space="preserve" text-anchor="start" x="8" y="-204.5" font-family="Helvetica,sans-Serif" font-size="10.00">::ActionListWhileLoop</text>
<text xml:space="preserve" text-anchor="middle" x="55.62" y="-192.5" font-family="Helvetica,sans-Serif" font-size="10.00">::ActionListWhileLoop</text>
</a>
</g>
</g>
<!-- Node1&#45;&gt;Node2 -->
<g id="edge1_Node000001_Node000002" class="edge">
<title>Node1&#45;&gt;Node2</title>
<g id="a_edge1_Node000001_Node000002"><a xlink:title=" ">
<path fill="none" stroke="#63b8ff" d="M161.16,-143.92C145.72,-154.61 127.86,-166.63 111.25,-177 106.72,-179.83 101.92,-182.71 97.12,-185.52"/>
<polygon fill="#63b8ff" stroke="#63b8ff" points="162.98,-146.92 169.19,-138.33 158.98,-141.17 162.98,-146.92"/>
</a>
</g>
</g>
<!-- Node3 -->
<g id="Node000003" class="node">
<title>Node3</title>
<g id="a_Node000003"><a xlink:href="class_fiea_1_1_engine_1_1_actions_1_1_action_list_while_loop.html#acce962f097ffec57a12c5f70a310ea64" target="_top" xlink:title=" ">
<polygon fill="white" stroke="#666666" points="111.25,-168 0,-168 0,-124 111.25,-124 111.25,-168"/>
<text xml:space="preserve" text-anchor="start" x="8" y="-154.5" font-family="Helvetica,sans-Serif" font-size="10.00">Fiea::Engine::Actions</text>
<text xml:space="preserve" text-anchor="start" x="8" y="-142.5" font-family="Helvetica,sans-Serif" font-size="10.00">::ActionListWhileLoop</text>
<text xml:space="preserve" text-anchor="middle" x="55.62" y="-130.5" font-family="Helvetica,sans-Serif" font-size="10.00">::ActionListWhileLoop</text>
</a>
</g>
</g>
<!-- Node1&#45;&gt;Node3 -->
<g id="edge2_Node000001_Node000003" class="edge">
<title>Node1&#45;&gt;Node3</title>
<g id="a_edge2_Node000001_Node000003"><a xlink:title=" ">
<path fill="none" stroke="#63b8ff" d="M135.97,-129.07C127.83,-130.8 119.57,-132.57 111.62,-134.26"/>
<polygon fill="#63b8ff" stroke="#63b8ff" points="136.43,-132.55 145.48,-127.04 134.97,-125.7 136.43,-132.55"/>
</a>
</g>
</g>
<!-- Node4 -->
<g id="Node000004" class="node">
<title>Node4</title>
<g id="a_Node000004"><a xlink:href="class_fiea_1_1_engine_1_1_actions_1_1_action_list_while_loop.html#a06d57e9f1f97b6360a5122d29605381f" target="_top" xlink:title=" ">
<polygon fill="white" stroke="#666666" points="111.25,-106 0,-106 0,-62 111.25,-62 111.25,-106"/>
<text xml:space="preserve" text-anchor="start" x="8" y="-92.5" font-family="Helvetica,sans-Serif" font-size="10.00">Fiea::Engine::Actions</text>
<text xml:space="preserve" text-anchor="start" x="8" y="-80.5" font-family="Helvetica,sans-Serif" font-size="10.00">::ActionListWhileLoop</text>
<text xml:space="preserve" text-anchor="middle" x="55.62" y="-68.5" font-family="Helvetica,sans-Serif" font-size="10.00">::operator=</text>
</a>
</g>
</g>
<!-- Node1&#45;&gt;Node4 -->
<g id="edge3_Node000001_Node000004" class="edge">
<title>Node1&#45;&gt;Node4</title>
<g id="a_edge3_Node000001_Node000004"><a xlink:title=" ">
<path fill="none" stroke="#63b8ff" d="M135.97,-100.93C127.83,-99.2 119.57,-97.43 111.62,-95.74"/>
<polygon fill="#63b8ff" stroke="#63b8ff" points="134.97,-104.3 145.48,-102.96 136.43,-97.45 134.97,-104.3"/>
</a>
</g>
</g>
<!-- Node5 -->
<g id="Node000005" class="node">
<title>Node5</title>
<g id="a_Node000005"><a xlink:href="class_fiea_1_1_engine_1_1_actions_1_1_action_list_while_loop.html#a1904642ea240a414951011906570cf19" target="_top" xlink:title=" ">
<polygon fill="white" stroke="#666666" points="111.25,-44 0,-44 0,0 111.25,0 111.25,-44"/>
<text xml:space="preserve" text-anchor="start" x="8" y="-30.5" font-family="Helvetica,sans-Serif" font-size="10.00">Fiea::Engine::Actions</text>
<text xml:space="preserve" text-anchor="start" x="8" y="-18.5" font-family="Helvetica,sans-Serif" font-size="10.00">::ActionListWhileLoop</text>
<text xml:space="preserve" text-anchor="middle" x="55.62" y="-6.5" font-family="Helvetica,sans-Serif" font-size="10.00">::operator=</text>
</a>
</g>
</g>
<!-- Node1&#45;&gt;Node5 -->
<g id="edge4_Node000001_Node000005" class="edge">
<title>Node1&#45;&gt;Node5</title>
<g id="a_edge4_Node000001_Node000005"><a xlink:title=" ">
<path fill="none" stroke="#63b8ff" d="M161.16,-86.08C145.72,-75.39 127.86,-63.37 111.25,-53 106.72,-50.17 101.92,-47.29 97.12,-44.48"/>
<polygon fill="#63b8ff" stroke="#63b8ff" points="158.98,-88.83 169.19,-91.67 162.98,-83.08 158.98,-88.83"/>
</a>
</g>
</g>
</g>
</svg>
