<?xml version="1.0" encoding="UTF-8" standalone="no"?>
<!DOCTYPE svg PUBLIC "-//W3C//DTD SVG 1.1//EN"
 "http://www.w3.org/Graphics/SVG/1.1/DTD/svg11.dtd">
<!-- Generated by graphviz version 13.1.0 (20250701.0955)
 -->
<!-- Title: Fiea::Engine::Content::Attributed::AppendInstanceAttribute Pages: 1 -->
<svg width="833pt" height="303pt"
 viewBox="0.00 0.00 833.00 303.00" xmlns="http://www.w3.org/2000/svg" xmlns:xlink="http://www.w3.org/1999/xlink">
<g id="graph0" class="graph" transform="scale(1 1) rotate(0) translate(4 299)">
<title>Fiea::Engine::Content::Attributed::AppendInstanceAttribute</title>
<!-- Node1 -->
<g id="Node000001" class="node">
<title>Node1</title>
<g id="a_Node000001"><a xlink:title="Appends a new instance attribute.">
<polygon fill="#999999" stroke="#666666" points="140.5,-251 0,-251 0,-207 140.5,-207 140.5,-251"/>
<text xml:space="preserve" text-anchor="start" x="8" y="-237.5" font-family="Helvetica,sans-Serif" font-size="10.00">Fiea::Engine::Content</text>
<text xml:space="preserve" text-anchor="start" x="8" y="-225.5" font-family="Helvetica,sans-Serif" font-size="10.00">::Attributed::AppendInstance</text>
<text xml:space="preserve" text-anchor="middle" x="70.25" y="-213.5" font-family="Helvetica,sans-Serif" font-size="10.00">Attribute</text>
</a>
</g>
</g>
<!-- Node2 -->
<g id="Node000002" class="node">
<title>Node2</title>
<g id="a_Node000002"><a xlink:href="class_fiea_1_1_engine_1_1_content_1_1_scope.html#aa91d6470fd3d3f402bbb2e765be54455" target="_top" xlink:title="Appends a new Datum with the given key.">
<polygon fill="white" stroke="#666666" points="302.38,-270 191.12,-270 191.12,-238 302.38,-238 302.38,-270"/>
<text xml:space="preserve" text-anchor="start" x="199.12" y="-256.5" font-family="Helvetica,sans-Serif" font-size="10.00">Fiea::Engine::Content</text>
<text xml:space="preserve" text-anchor="middle" x="246.75" y="-244.5" font-family="Helvetica,sans-Serif" font-size="10.00">::Scope::Append</text>
</a>
</g>
</g>
<!-- Node1&#45;&gt;Node2 -->
<g id="edge1_Node000001_Node000002" class="edge">
<title>Node1&#45;&gt;Node2</title>
<g id="a_edge1_Node000001_Node000002"><a xlink:title=" ">
<path fill="none" stroke="#63b8ff" d="M140.97,-238.99C153.62,-240.8 166.78,-242.69 179.32,-244.48"/>
<polygon fill="#63b8ff" stroke="#63b8ff" points="178.75,-247.94 189.15,-245.89 179.74,-241.01 178.75,-247.94"/>
</a>
</g>
</g>
<!-- Node3 -->
<g id="Node000003" class="node">
<title>Node3</title>
<g id="a_Node000003"><a xlink:href="class_fiea_1_1_engine_1_1_content_1_1_attributed.html#af9a419e6aa1b52eed4c923a89931771e" target="_top" xlink:title="Checks if a given key is a class attribute.">
<polygon fill="white" stroke="#666666" points="317,-220 176.5,-220 176.5,-188 317,-188 317,-220"/>
<text xml:space="preserve" text-anchor="start" x="184.5" y="-206.5" font-family="Helvetica,sans-Serif" font-size="10.00">Fiea::Engine::Content</text>
<text xml:space="preserve" text-anchor="middle" x="246.75" y="-194.5" font-family="Helvetica,sans-Serif" font-size="10.00">::Attributed::IsClassAttribute</text>
</a>
</g>
</g>
<!-- Node1&#45;&gt;Node3 -->
<g id="edge2_Node000001_Node000003" class="edge">
<title>Node1&#45;&gt;Node3</title>
<g id="a_edge2_Node000001_Node000003"><a xlink:title=" ">
<path fill="none" stroke="#63b8ff" d="M140.97,-219.01C148.84,-217.88 156.91,-216.73 164.91,-215.58"/>
<polygon fill="#63b8ff" stroke="#63b8ff" points="165.24,-219.07 174.64,-214.19 164.25,-212.14 165.24,-219.07"/>
</a>
</g>
</g>
<!-- Node4 -->
<g id="Node000004" class="node">
<title>Node4</title>
<g id="a_Node000004"><a xlink:href="struct_fiea_1_1_engine_1_1_content_1_1_i_type_provider.html#a98897793b1bb048c7ca5f163351a239b" target="_top" xlink:title=" ">
<polygon fill="white" stroke="#666666" points="523.5,-295 353,-295 353,-263 523.5,-263 523.5,-295"/>
<text xml:space="preserve" text-anchor="start" x="361" y="-281.5" font-family="Helvetica,sans-Serif" font-size="10.00">Fiea::Engine::Content</text>
<text xml:space="preserve" text-anchor="middle" x="438.25" y="-269.5" font-family="Helvetica,sans-Serif" font-size="10.00">::ITypeProvider::GetClassDefinition</text>
</a>
</g>
</g>
<!-- Node3&#45;&gt;Node4 -->
<g id="edge3_Node000003_Node000004" class="edge">
<title>Node3&#45;&gt;Node4</title>
<g id="a_edge3_Node000003_Node000004"><a xlink:title=" ">
<path fill="none" stroke="#63b8ff" d="M297.97,-220.37C304.49,-223 310.98,-225.89 317,-229 334.31,-237.94 335.44,-245.57 353,-254 356.3,-255.59 359.72,-257.09 363.22,-258.52"/>
<polygon fill="#63b8ff" stroke="#63b8ff" points="361.84,-261.75 372.44,-262.05 364.34,-255.21 361.84,-261.75"/>
</a>
</g>
</g>
<!-- Node5 -->
<g id="Node000005" class="node">
<title>Node5</title>
<g id="a_Node000005"><a xlink:href="class_fiea_1_1_engine_1_1_content_1_1_attributed.html#a2b6b6b36292afc12d93e046373d9a0f1" target="_top" xlink:title="Checks if a given key is an attribute.">
<polygon fill="white" stroke="#666666" points="495.75,-245 380.75,-245 380.75,-213 495.75,-213 495.75,-245"/>
<text xml:space="preserve" text-anchor="start" x="388.75" y="-231.5" font-family="Helvetica,sans-Serif" font-size="10.00">Fiea::Engine::Content</text>
<text xml:space="preserve" text-anchor="middle" x="438.25" y="-219.5" font-family="Helvetica,sans-Serif" font-size="10.00">::Attributed::IsAttribute</text>
</a>
</g>
</g>
<!-- Node3&#45;&gt;Node5 -->
<g id="edge4_Node000003_Node000005" class="edge">
<title>Node3&#45;&gt;Node5</title>
<g id="a_edge4_Node000003_Node000005"><a xlink:title=" ">
<path fill="none" stroke="#63b8ff" d="M317.24,-213.17C334.31,-215.42 352.56,-217.83 369.54,-220.07"/>
<polygon fill="#63b8ff" stroke="#63b8ff" points="368.62,-223.48 379,-221.31 369.54,-216.54 368.62,-223.48"/>
</a>
</g>
</g>
<!-- Node7 -->
<g id="Node000007" class="node">
<title>Node7</title>
<g id="a_Node000007"><a xlink:href="class_fiea_1_1_engine_1_1_service_manager.html#a8aac9b15b7e5483c2b1cd5febe590a0c" target="_top" xlink:title=" ">
<polygon fill="white" stroke="#666666" points="511.88,-195 364.62,-195 364.62,-163 511.88,-163 511.88,-195"/>
<text xml:space="preserve" text-anchor="start" x="372.62" y="-181.5" font-family="Helvetica,sans-Serif" font-size="10.00">Fiea::Engine::ServiceManager</text>
<text xml:space="preserve" text-anchor="middle" x="438.25" y="-169.5" font-family="Helvetica,sans-Serif" font-size="10.00">::ProvideInterface</text>
</a>
</g>
</g>
<!-- Node3&#45;&gt;Node7 -->
<g id="edge6_Node000003_Node000007" class="edge">
<title>Node3&#45;&gt;Node7</title>
<g id="a_edge6_Node000003_Node000007"><a xlink:title=" ">
<path fill="none" stroke="#63b8ff" d="M317.24,-194.83C328.84,-193.3 341,-191.7 352.93,-190.12"/>
<polygon fill="#63b8ff" stroke="#63b8ff" points="353.31,-193.6 362.77,-188.83 352.4,-186.66 353.31,-193.6"/>
</a>
</g>
</g>
<!-- Node8 -->
<g id="Node000008" class="node">
<title>Node8</title>
<g id="a_Node000008"><a xlink:href="class_fiea_1_1_engine_1_1_r_t_t_i.html#a876bebbe7b3149483c43a87f55f4ea99" target="_top" xlink:title=" ">
<polygon fill="white" stroke="#666666" points="487.5,-127 389,-127 389,-95 487.5,-95 487.5,-127"/>
<text xml:space="preserve" text-anchor="start" x="397" y="-113.5" font-family="Helvetica,sans-Serif" font-size="10.00">Fiea::Engine::RTTI</text>
<text xml:space="preserve" text-anchor="middle" x="438.25" y="-101.5" font-family="Helvetica,sans-Serif" font-size="10.00">::TypeIdInstance</text>
</a>
</g>
</g>
<!-- Node3&#45;&gt;Node8 -->
<g id="edge7_Node000003_Node000008" class="edge">
<title>Node3&#45;&gt;Node8</title>
<g id="a_edge7_Node000003_Node000008"><a xlink:title=" ">
<path fill="none" stroke="#63b8ff" d="M281.19,-187.59C312.49,-172.23 359.42,-149.2 393.64,-132.4"/>
<polygon fill="#63b8ff" stroke="#63b8ff" points="395.03,-135.62 402.46,-128.07 391.95,-129.34 395.03,-135.62"/>
</a>
</g>
</g>
<!-- Node6 -->
<g id="Node000006" class="node">
<title>Node6</title>
<g id="a_Node000006"><a xlink:href="class_fiea_1_1_engine_1_1_content_1_1_scope.html#ad924c01785b239991fc0e56a63295612" target="_top" xlink:title="Finds a Datum by key.">
<polygon fill="white" stroke="#666666" points="673.38,-246 562.12,-246 562.12,-214 673.38,-214 673.38,-246"/>
<text xml:space="preserve" text-anchor="start" x="570.12" y="-232.5" font-family="Helvetica,sans-Serif" font-size="10.00">Fiea::Engine::Content</text>
<text xml:space="preserve" text-anchor="middle" x="617.75" y="-220.5" font-family="Helvetica,sans-Serif" font-size="10.00">::Scope::Find</text>
</a>
</g>
</g>
<!-- Node5&#45;&gt;Node6 -->
<g id="edge5_Node000005_Node000006" class="edge">
<title>Node5&#45;&gt;Node6</title>
<g id="a_edge5_Node000005_Node000006"><a xlink:title=" ">
<path fill="none" stroke="#63b8ff" d="M495.9,-229.32C513.29,-229.42 532.59,-229.53 550.56,-229.63"/>
<polygon fill="#63b8ff" stroke="#63b8ff" points="550.32,-233.13 560.34,-229.68 550.36,-226.13 550.32,-233.13"/>
</a>
</g>
</g>
<!-- Node8&#45;&gt;Node8 -->
<g id="edge16_Node000008_Node000008" class="edge">
<title>Node8&#45;&gt;Node8</title>
<g id="a_edge16_Node000008_Node000008"><a xlink:title=" ">
<path fill="none" stroke="#63b8ff" d="M406.2,-127.44C400.22,-136.58 410.9,-145 438.25,-145 453.2,-145 463.18,-142.48 468.16,-138.71"/>
<polygon fill="#63b8ff" stroke="#63b8ff" points="471.59,-139.41 470.01,-128.93 464.71,-138.1 471.59,-139.41"/>
</a>
</g>
</g>
<!-- Node9 -->
<g id="Node000009" class="node">
<title>Node9</title>
<g id="a_Node000009"><a xlink:href="class_fiea_1_1_engine_1_1_r_t_t_i.html#a15bd5993c8ad04da47af440298ebbb30" target="_top" xlink:title=" ">
<polygon fill="white" stroke="#666666" points="676,-158 559.5,-158 559.5,-138 676,-138 676,-158"/>
<text xml:space="preserve" text-anchor="middle" x="617.75" y="-144.5" font-family="Helvetica,sans-Serif" font-size="10.00">Fiea::Engine::RTTI::As</text>
</a>
</g>
</g>
<!-- Node8&#45;&gt;Node9 -->
<g id="edge8_Node000008_Node000009" class="edge">
<title>Node8&#45;&gt;Node9</title>
<g id="a_edge8_Node000008_Node000009"><a xlink:title=" ">
<path fill="none" stroke="#63b8ff" d="M487.75,-121.11C508.65,-125.47 533.33,-130.61 555.47,-135.23"/>
<polygon fill="#63b8ff" stroke="#63b8ff" points="554.46,-138.59 564.97,-137.21 555.89,-131.74 554.46,-138.59"/>
</a>
</g>
</g>
<!-- Node10 -->
<g id="Node000010" class="node">
<title>Node10</title>
<g id="a_Node000010"><a xlink:href="class_fiea_1_1_engine_1_1_r_t_t_i.html#ac0a7d875e4513b2aca7594abcd4418ef" target="_top" xlink:title=" ">
<polygon fill="white" stroke="#666666" points="824.75,-180 712,-180 712,-160 824.75,-160 824.75,-180"/>
<text xml:space="preserve" text-anchor="middle" x="768.38" y="-166.5" font-family="Helvetica,sans-Serif" font-size="10.00">Fiea::Engine::RTTI::Is</text>
</a>
</g>
</g>
<!-- Node8&#45;&gt;Node10 -->
<g id="edge13_Node000008_Node000010" class="edge">
<title>Node8&#45;&gt;Node10</title>
<g id="a_edge13_Node000008_Node000010"><a xlink:title=" ">
<path fill="none" stroke="#63b8ff" d="M470.55,-127.41C499.85,-142.43 541.71,-162.93 559.5,-167 605.81,-177.61 659.45,-178.1 700.64,-176.07"/>
<polygon fill="#63b8ff" stroke="#63b8ff" points="700.62,-179.58 710.4,-175.53 700.22,-172.59 700.62,-179.58"/>
</a>
</g>
</g>
<!-- Node11 -->
<g id="Node000011" class="node">
<title>Node11</title>
<g id="a_Node000011"><a xlink:href="class_fiea_1_1_engine_1_1_r_t_t_i.html#a13000029a2e6cced30b831e466e07cae" target="_top" xlink:title=" ">
<polygon fill="white" stroke="#666666" points="817.62,-126 719.12,-126 719.12,-94 817.62,-94 817.62,-126"/>
<text xml:space="preserve" text-anchor="start" x="727.12" y="-112.5" font-family="Helvetica,sans-Serif" font-size="10.00">Fiea::Engine::RTTI</text>
<text xml:space="preserve" text-anchor="middle" x="768.38" y="-100.5" font-family="Helvetica,sans-Serif" font-size="10.00">::RTTI</text>
</a>
</g>
</g>
<!-- Node8&#45;&gt;Node11 -->
<g id="edge14_Node000008_Node000011" class="edge">
<title>Node8&#45;&gt;Node11</title>
<g id="a_edge14_Node000008_Node000011"><a xlink:title=" ">
<path fill="none" stroke="#63b8ff" d="M487.67,-110.85C546.07,-110.67 644.25,-110.38 707.4,-110.18"/>
<polygon fill="#63b8ff" stroke="#63b8ff" points="707.26,-113.68 717.25,-110.15 707.24,-106.68 707.26,-113.68"/>
</a>
</g>
</g>
<!-- Node12 -->
<g id="Node000012" class="node">
<title>Node12</title>
<g id="a_Node000012"><a xlink:href="class_fiea_1_1_engine_1_1_r_t_t_i.html#a7f70ad5ba0f8a3388543d63d72892575" target="_top" xlink:title=" ">
<polygon fill="white" stroke="#666666" points="667,-82 568.5,-82 568.5,-50 667,-50 667,-82"/>
<text xml:space="preserve" text-anchor="start" x="576.5" y="-68.5" font-family="Helvetica,sans-Serif" font-size="10.00">Fiea::Engine::RTTI</text>
<text xml:space="preserve" text-anchor="middle" x="617.75" y="-56.5" font-family="Helvetica,sans-Serif" font-size="10.00">::Equals</text>
</a>
</g>
</g>
<!-- Node8&#45;&gt;Node12 -->
<g id="edge11_Node000008_Node000012" class="edge">
<title>Node8&#45;&gt;Node12</title>
<g id="a_edge11_Node000008_Node000012"><a xlink:title=" ">
<path fill="none" stroke="#63b8ff" d="M487.75,-98.7C509.28,-93.25 534.81,-86.77 557.45,-81.03"/>
<polygon fill="#63b8ff" stroke="#63b8ff" points="558.01,-84.5 566.84,-78.65 556.29,-77.72 558.01,-84.5"/>
</a>
</g>
</g>
<!-- Node13 -->
<g id="Node000013" class="node">
<title>Node13</title>
<g id="a_Node000013"><a xlink:href="class_fiea_1_1_engine_1_1_r_t_t_i.html#a43a7d187e332a17d2c699bc2c8136a30" target="_top" xlink:title=" ">
<polygon fill="white" stroke="#666666" points="667,-32 568.5,-32 568.5,0 667,0 667,-32"/>
<text xml:space="preserve" text-anchor="start" x="576.5" y="-18.5" font-family="Helvetica,sans-Serif" font-size="10.00">Fiea::Engine::RTTI</text>
<text xml:space="preserve" text-anchor="middle" x="617.75" y="-6.5" font-family="Helvetica,sans-Serif" font-size="10.00">::ToString</text>
</a>
</g>
</g>
<!-- Node8&#45;&gt;Node13 -->
<g id="edge15_Node000008_Node000013" class="edge">
<title>Node8&#45;&gt;Node13</title>
<g id="a_edge15_Node000008_Node000013"><a xlink:title=" ">
<path fill="none" stroke="#63b8ff" d="M465.51,-94.53C489.55,-79.74 526.32,-57.83 559.5,-41 562,-39.73 564.57,-38.47 567.18,-37.22"/>
<polygon fill="#63b8ff" stroke="#63b8ff" points="568.39,-40.51 575.99,-33.12 565.44,-34.17 568.39,-40.51"/>
</a>
</g>
</g>
<!-- Node9&#45;&gt;Node10 -->
<g id="edge9_Node000009_Node000010" class="edge">
<title>Node9&#45;&gt;Node10</title>
<g id="a_edge9_Node000009_Node000010"><a xlink:title=" ">
<path fill="none" stroke="#63b8ff" d="M676.21,-156.51C684.1,-157.67 692.25,-158.88 700.28,-160.07"/>
<polygon fill="#63b8ff" stroke="#63b8ff" points="699.63,-163.51 710.03,-161.51 700.66,-156.59 699.63,-163.51"/>
</a>
</g>
</g>
<!-- Node9&#45;&gt;Node11 -->
<g id="edge10_Node000009_Node000011" class="edge">
<title>Node9&#45;&gt;Node11</title>
<g id="a_edge10_Node000009_Node000011"><a xlink:title=" ">
<path fill="none" stroke="#63b8ff" d="M659.76,-137.52C674.63,-133.71 691.74,-129.34 707.88,-125.21"/>
<polygon fill="#63b8ff" stroke="#63b8ff" points="708.57,-128.65 717.39,-122.78 706.84,-121.87 708.57,-128.65"/>
</a>
</g>
</g>
<!-- Node12&#45;&gt;Node11 -->
<g id="edge12_Node000012_Node000011" class="edge">
<title>Node12&#45;&gt;Node11</title>
<g id="a_edge12_Node000012_Node000011"><a xlink:title=" ">
<path fill="none" stroke="#63b8ff" d="M667.42,-80.41C680.44,-84.26 694.67,-88.47 708.19,-92.48"/>
<polygon fill="#63b8ff" stroke="#63b8ff" points="706.82,-95.72 717.4,-95.21 708.81,-89.01 706.82,-95.72"/>
</a>
</g>
</g>
</g>
</svg>
