<?xml version="1.0" encoding="UTF-8" standalone="no"?>
<!DOCTYPE svg PUBLIC "-//W3C//DTD SVG 1.1//EN"
 "http://www.w3.org/Graphics/SVG/1.1/DTD/svg11.dtd">
<!-- Generated by graphviz version 13.1.0 (20250701.0955)
 -->
<!-- Title: Fiea::Engine::Actions::ActionLoopIncrement::RunAction Pages: 1 -->
<svg width="564pt" height="224pt"
 viewBox="0.00 0.00 564.00 224.00" xmlns="http://www.w3.org/2000/svg" xmlns:xlink="http://www.w3.org/1999/xlink">
<g id="graph0" class="graph" transform="scale(1 1) rotate(0) translate(4 220)">
<title>Fiea::Engine::Actions::ActionLoopIncrement::RunAction</title>
<!-- Node1 -->
<g id="Node000001" class="node">
<title>Node1</title>
<g id="a_Node000001"><a xlink:title=" ">
<polygon fill="#999999" stroke="#666666" points="114.25,-147 0,-147 0,-103 114.25,-103 114.25,-147"/>
<text xml:space="preserve" text-anchor="start" x="8" y="-133.5" font-family="Helvetica,sans-Serif" font-size="10.00">Fiea::Engine::Actions</text>
<text xml:space="preserve" text-anchor="start" x="8" y="-121.5" font-family="Helvetica,sans-Serif" font-size="10.00">::ActionLoopIncrement</text>
<text xml:space="preserve" text-anchor="middle" x="57.12" y="-109.5" font-family="Helvetica,sans-Serif" font-size="10.00">::RunAction</text>
</a>
</g>
</g>
<!-- Node2 -->
<g id="Node000002" class="node">
<title>Node2</title>
<g id="a_Node000002"><a xlink:href="class_fiea_1_1_engine_1_1_content_1_1_datum.html#a695ee2c8a3941869b96581c81f416d1b" target="_top" xlink:title=" ">
<polygon fill="white" stroke="#666666" points="261.5,-216 150.25,-216 150.25,-184 261.5,-184 261.5,-216"/>
<text xml:space="preserve" text-anchor="start" x="158.25" y="-202.5" font-family="Helvetica,sans-Serif" font-size="10.00">Fiea::Engine::Content</text>
<text xml:space="preserve" text-anchor="middle" x="205.88" y="-190.5" font-family="Helvetica,sans-Serif" font-size="10.00">::Datum::GetAsInt</text>
</a>
</g>
</g>
<!-- Node1&#45;&gt;Node2 -->
<g id="edge1_Node000001_Node000002" class="edge">
<title>Node1&#45;&gt;Node2</title>
<g id="a_edge1_Node000001_Node000002"><a xlink:title=" ">
<path fill="none" stroke="#63b8ff" d="M97.72,-147.25C113.88,-156.14 132.83,-166.3 150.25,-175 152.65,-176.2 155.12,-177.41 157.62,-178.62"/>
<polygon fill="#63b8ff" stroke="#63b8ff" points="156.08,-181.76 166.62,-182.88 159.08,-175.44 156.08,-181.76"/>
</a>
</g>
</g>
<!-- Node3 -->
<g id="Node000003" class="node">
<title>Node3</title>
<g id="a_Node000003"><a xlink:href="class_fiea_1_1_engine_1_1_content_1_1_datum.html#a6e9dfba6e16fddc4efc39b8182dad89f" target="_top" xlink:title=" ">
<polygon fill="white" stroke="#666666" points="261.5,-166 150.25,-166 150.25,-134 261.5,-134 261.5,-166"/>
<text xml:space="preserve" text-anchor="start" x="158.25" y="-152.5" font-family="Helvetica,sans-Serif" font-size="10.00">Fiea::Engine::Content</text>
<text xml:space="preserve" text-anchor="middle" x="205.88" y="-140.5" font-family="Helvetica,sans-Serif" font-size="10.00">::Datum::IsType</text>
</a>
</g>
</g>
<!-- Node1&#45;&gt;Node3 -->
<g id="edge2_Node000001_Node000003" class="edge">
<title>Node1&#45;&gt;Node3</title>
<g id="a_edge2_Node000001_Node000003"><a xlink:title=" ">
<path fill="none" stroke="#63b8ff" d="M114.44,-134.59C122.35,-135.94 130.54,-137.34 138.62,-138.71"/>
<polygon fill="#63b8ff" stroke="#63b8ff" points="137.98,-142.15 148.43,-140.38 139.16,-135.25 137.98,-142.15"/>
</a>
</g>
</g>
<!-- Node4 -->
<g id="Node000004" class="node">
<title>Node4</title>
<g id="a_Node000004"><a xlink:href="class_fiea_1_1_engine_1_1_content_1_1_scope.html#ae21ea7cc60b24915a0aac3b0d0f6005c" target="_top" xlink:title=" ">
<polygon fill="white" stroke="#666666" points="261.5,-116 150.25,-116 150.25,-84 261.5,-84 261.5,-116"/>
<text xml:space="preserve" text-anchor="start" x="158.25" y="-102.5" font-family="Helvetica,sans-Serif" font-size="10.00">Fiea::Engine::Content</text>
<text xml:space="preserve" text-anchor="middle" x="205.88" y="-90.5" font-family="Helvetica,sans-Serif" font-size="10.00">::Scope::Search</text>
</a>
</g>
</g>
<!-- Node1&#45;&gt;Node4 -->
<g id="edge3_Node000001_Node000004" class="edge">
<title>Node1&#45;&gt;Node4</title>
<g id="a_edge3_Node000001_Node000004"><a xlink:title=" ">
<path fill="none" stroke="#63b8ff" d="M114.44,-115.41C122.35,-114.06 130.54,-112.66 138.62,-111.29"/>
<polygon fill="#63b8ff" stroke="#63b8ff" points="139.16,-114.75 148.43,-109.62 137.98,-107.85 139.16,-114.75"/>
</a>
</g>
</g>
<!-- Node8 -->
<g id="Node000008" class="node">
<title>Node8</title>
<g id="a_Node000008"><a xlink:href="class_fiea_1_1_engine_1_1_content_1_1_datum.html#af8ca5539cfa1034703824207a4368a04" target="_top" xlink:title=" ">
<polygon fill="white" stroke="#666666" points="261.5,-60 150.25,-60 150.25,-28 261.5,-28 261.5,-60"/>
<text xml:space="preserve" text-anchor="start" x="158.25" y="-46.5" font-family="Helvetica,sans-Serif" font-size="10.00">Fiea::Engine::Content</text>
<text xml:space="preserve" text-anchor="middle" x="205.88" y="-34.5" font-family="Helvetica,sans-Serif" font-size="10.00">::Datum::Set</text>
</a>
</g>
</g>
<!-- Node1&#45;&gt;Node8 -->
<g id="edge9_Node000001_Node000008" class="edge">
<title>Node1&#45;&gt;Node8</title>
<g id="a_edge9_Node000001_Node000008"><a xlink:title=" ">
<path fill="none" stroke="#63b8ff" d="M98.61,-102.65C119.37,-91.2 144.55,-77.29 165.19,-65.9"/>
<polygon fill="#63b8ff" stroke="#63b8ff" points="166.83,-68.99 173.9,-61.1 163.45,-62.87 166.83,-68.99"/>
</a>
</g>
</g>
<!-- Node5 -->
<g id="Node000005" class="node">
<title>Node5</title>
<g id="a_Node000005"><a xlink:href="class_fiea_1_1_engine_1_1_content_1_1_scope.html#ad924c01785b239991fc0e56a63295612" target="_top" xlink:title="Finds a Datum by key.">
<polygon fill="white" stroke="#666666" points="408.75,-188 297.5,-188 297.5,-156 408.75,-156 408.75,-188"/>
<text xml:space="preserve" text-anchor="start" x="305.5" y="-174.5" font-family="Helvetica,sans-Serif" font-size="10.00">Fiea::Engine::Content</text>
<text xml:space="preserve" text-anchor="middle" x="353.12" y="-162.5" font-family="Helvetica,sans-Serif" font-size="10.00">::Scope::Find</text>
</a>
</g>
</g>
<!-- Node4&#45;&gt;Node5 -->
<g id="edge4_Node000004_Node000005" class="edge">
<title>Node4&#45;&gt;Node5</title>
<g id="a_edge4_Node000004_Node000005"><a xlink:title=" ">
<path fill="none" stroke="#63b8ff" d="M244.48,-116.49C250.24,-119.22 256.07,-122.11 261.5,-125 278.05,-133.81 280.95,-138.19 297.5,-147 299.71,-148.17 301.98,-149.35 304.29,-150.51"/>
<polygon fill="#63b8ff" stroke="#63b8ff" points="302.64,-153.6 313.16,-154.84 305.71,-147.31 302.64,-153.6"/>
</a>
</g>
</g>
<!-- Node6 -->
<g id="Node000006" class="node">
<title>Node6</title>
<g id="a_Node000006"><a xlink:href="class_fiea_1_1_engine_1_1_content_1_1_scope.html#ac4627f740867a929957ce0647f436e02" target="_top" xlink:title=" ">
<polygon fill="white" stroke="#666666" points="408.75,-138 297.5,-138 297.5,-106 408.75,-106 408.75,-138"/>
<text xml:space="preserve" text-anchor="start" x="305.5" y="-124.5" font-family="Helvetica,sans-Serif" font-size="10.00">Fiea::Engine::Content</text>
<text xml:space="preserve" text-anchor="middle" x="353.12" y="-112.5" font-family="Helvetica,sans-Serif" font-size="10.00">::Scope::GetParent</text>
</a>
</g>
</g>
<!-- Node4&#45;&gt;Node6 -->
<g id="edge5_Node000004_Node000006" class="edge">
<title>Node4&#45;&gt;Node6</title>
<g id="a_edge5_Node000004_Node000006"><a xlink:title=" ">
<path fill="none" stroke="#63b8ff" d="M261.79,-108.32C269.65,-109.51 277.81,-110.74 285.86,-111.96"/>
<polygon fill="#63b8ff" stroke="#63b8ff" points="285.23,-115.41 295.64,-113.44 286.28,-108.49 285.23,-115.41"/>
</a>
</g>
</g>
<!-- Node7 -->
<g id="Node000007" class="node">
<title>Node7</title>
<g id="a_Node000007"><a xlink:href="class_fiea_1_1_engine_1_1_content_1_1_scope.html#a6631343c968c233ab1d9c3e05c3f4fe9" target="_top" xlink:title=" ">
<polygon fill="white" stroke="#666666" points="556,-116 444.75,-116 444.75,-84 556,-84 556,-116"/>
<text xml:space="preserve" text-anchor="start" x="452.75" y="-102.5" font-family="Helvetica,sans-Serif" font-size="10.00">Fiea::Engine::Content</text>
<text xml:space="preserve" text-anchor="middle" x="500.38" y="-90.5" font-family="Helvetica,sans-Serif" font-size="10.00">::Scope::Scope</text>
</a>
</g>
</g>
<!-- Node4&#45;&gt;Node7 -->
<g id="edge8_Node000004_Node000007" class="edge">
<title>Node4&#45;&gt;Node7</title>
<g id="a_edge8_Node000004_Node000007"><a xlink:title=" ">
<path fill="none" stroke="#63b8ff" d="M261.98,-97.88C273.7,-97.52 286.01,-97.19 297.5,-97 346.94,-96.18 359.31,-96.18 408.75,-97 416.56,-97.13 424.75,-97.32 432.87,-97.55"/>
<polygon fill="#63b8ff" stroke="#63b8ff" points="432.66,-101.04 442.76,-97.84 432.86,-94.04 432.66,-101.04"/>
</a>
</g>
</g>
<!-- Node6&#45;&gt;Node7 -->
<g id="edge6_Node000006_Node000007" class="edge">
<title>Node6&#45;&gt;Node7</title>
<g id="a_edge6_Node000006_Node000007"><a xlink:title=" ">
<path fill="none" stroke="#63b8ff" d="M409.04,-113.68C416.9,-112.49 425.06,-111.26 433.11,-110.04"/>
<polygon fill="#63b8ff" stroke="#63b8ff" points="433.53,-113.51 442.89,-108.56 432.48,-106.59 433.53,-113.51"/>
</a>
</g>
</g>
<!-- Node7&#45;&gt;Node7 -->
<g id="edge7_Node000007_Node000007" class="edge">
<title>Node7&#45;&gt;Node7</title>
<g id="a_edge7_Node000007_Node000007"><a xlink:title=" ">
<path fill="none" stroke="#63b8ff" d="M474.09,-116.44C469.18,-125.58 477.94,-134 500.38,-134 512.64,-134 520.82,-131.48 524.91,-127.71"/>
<polygon fill="#63b8ff" stroke="#63b8ff" points="528.35,-128.36 526.43,-117.94 521.44,-127.28 528.35,-128.36"/>
</a>
</g>
</g>
<!-- Node9 -->
<g id="Node000009" class="node">
<title>Node9</title>
<g id="a_Node000009"><a xlink:href="class_fiea_1_1_engine_1_1_content_1_1_datum.html#a921193447f6e42f596ac0a7694b02830" target="_top" xlink:title=" ">
<polygon fill="white" stroke="#666666" points="408.75,-32 297.5,-32 297.5,0 408.75,0 408.75,-32"/>
<text xml:space="preserve" text-anchor="start" x="305.5" y="-18.5" font-family="Helvetica,sans-Serif" font-size="10.00">Fiea::Engine::Content</text>
<text xml:space="preserve" text-anchor="middle" x="353.12" y="-6.5" font-family="Helvetica,sans-Serif" font-size="10.00">::Datum::Scope</text>
</a>
</g>
</g>
<!-- Node8&#45;&gt;Node9 -->
<g id="edge10_Node000008_Node000009" class="edge">
<title>Node8&#45;&gt;Node9</title>
<g id="a_edge10_Node000008_Node000009"><a xlink:title=" ">
<path fill="none" stroke="#63b8ff" d="M261.79,-33.41C269.65,-31.9 277.81,-30.33 285.86,-28.77"/>
<polygon fill="#63b8ff" stroke="#63b8ff" points="286.49,-32.22 295.65,-26.89 285.17,-25.34 286.49,-32.22"/>
</a>
</g>
</g>
<!-- Node9&#45;&gt;Node9 -->
<g id="edge11_Node000009_Node000009" class="edge">
<title>Node9&#45;&gt;Node9</title>
<g id="a_edge11_Node000009_Node000009"><a xlink:title=" ">
<path fill="none" stroke="#63b8ff" d="M326.84,-32.44C321.93,-41.58 330.69,-50 353.12,-50 365.39,-50 373.57,-47.48 377.66,-43.71"/>
<polygon fill="#63b8ff" stroke="#63b8ff" points="381.1,-44.36 379.18,-33.94 374.19,-43.28 381.1,-44.36"/>
</a>
</g>
</g>
</g>
</svg>
