<?xml version="1.0" encoding="UTF-8" standalone="no"?>
<!DOCTYPE svg PUBLIC "-//W3C//DTD SVG 1.1//EN"
 "http://www.w3.org/Graphics/SVG/1.1/DTD/svg11.dtd">
<!-- Generated by graphviz version 13.1.0 (20250701.0955)
 -->
<!-- Title: Fiea::Engine::Content::Datum::Datum Pages: 1 -->
<svg width="267pt" height="640pt"
 viewBox="0.00 0.00 267.00 640.00" xmlns="http://www.w3.org/2000/svg" xmlns:xlink="http://www.w3.org/1999/xlink">
<g id="graph0" class="graph" transform="scale(1 1) rotate(0) translate(4 636)">
<title>Fiea::Engine::Content::Datum::Datum</title>
<!-- Node1 -->
<g id="Node000001" class="node">
<title>Node1</title>
<g id="a_Node000001"><a xlink:title=" ">
<polygon fill="#999999" stroke="#666666" points="258.5,-332 147.25,-332 147.25,-300 258.5,-300 258.5,-332"/>
<text xml:space="preserve" text-anchor="start" x="155.25" y="-318.5" font-family="Helvetica,sans-Serif" font-size="10.00">Fiea::Engine::Content</text>
<text xml:space="preserve" text-anchor="middle" x="202.88" y="-306.5" font-family="Helvetica,sans-Serif" font-size="10.00">::Datum::Datum</text>
</a>
</g>
</g>
<!-- Node2 -->
<g id="Node000002" class="node">
<title>Node2</title>
<g id="a_Node000002"><a xlink:href="class_fiea_1_1_engine_1_1_content_1_1_datum.html#a458a2b5ddb9adc3819eee0f3bf8fc43c" target="_top" xlink:title=" ">
<polygon fill="white" stroke="#666666" points="111.25,-632 0,-632 0,-600 111.25,-600 111.25,-632"/>
<text xml:space="preserve" text-anchor="start" x="8" y="-618.5" font-family="Helvetica,sans-Serif" font-size="10.00">Fiea::Engine::Content</text>
<text xml:space="preserve" text-anchor="middle" x="55.62" y="-606.5" font-family="Helvetica,sans-Serif" font-size="10.00">::Datum::Datum</text>
</a>
</g>
</g>
<!-- Node1&#45;&gt;Node2 -->
<g id="edge1_Node000001_Node000002" class="edge">
<title>Node1&#45;&gt;Node2</title>
<g id="a_edge1_Node000001_Node000002"><a xlink:title=" ">
<path fill="none" stroke="#63b8ff" d="M199.94,-343.88C194.77,-398 176.25,-518.37 111.25,-591 108.33,-594.26 104.9,-597.13 101.2,-599.64"/>
<polygon fill="#63b8ff" stroke="#63b8ff" points="203.42,-344.26 200.79,-334 196.44,-343.66 203.42,-344.26"/>
</a>
</g>
</g>
<!-- Node3 -->
<g id="Node000003" class="node">
<title>Node3</title>
<g id="a_Node000003"><a xlink:href="class_fiea_1_1_engine_1_1_content_1_1_datum.html#a7398d008b3b3bffe054185c8e65c8463" target="_top" xlink:title=" ">
<polygon fill="white" stroke="#666666" points="111.25,-582 0,-582 0,-550 111.25,-550 111.25,-582"/>
<text xml:space="preserve" text-anchor="start" x="8" y="-568.5" font-family="Helvetica,sans-Serif" font-size="10.00">Fiea::Engine::Content</text>
<text xml:space="preserve" text-anchor="middle" x="55.62" y="-556.5" font-family="Helvetica,sans-Serif" font-size="10.00">::Datum::Datum</text>
</a>
</g>
</g>
<!-- Node1&#45;&gt;Node3 -->
<g id="edge2_Node000001_Node000003" class="edge">
<title>Node1&#45;&gt;Node3</title>
<g id="a_edge2_Node000001_Node000003"><a xlink:title=" ">
<path fill="none" stroke="#63b8ff" d="M197.56,-343.61C188.99,-389.97 165.71,-483.96 111.25,-541 108.15,-544.24 104.56,-547.1 100.71,-549.62"/>
<polygon fill="#63b8ff" stroke="#63b8ff" points="200.99,-344.33 199.26,-333.88 194.09,-343.13 200.99,-344.33"/>
</a>
</g>
</g>
<!-- Node4 -->
<g id="Node000004" class="node">
<title>Node4</title>
<g id="a_Node000004"><a xlink:href="class_fiea_1_1_engine_1_1_content_1_1_datum.html#ad07c2b9f735c771cddacfc22de7f9636" target="_top" xlink:title=" ">
<polygon fill="white" stroke="#666666" points="111.25,-532 0,-532 0,-500 111.25,-500 111.25,-532"/>
<text xml:space="preserve" text-anchor="start" x="8" y="-518.5" font-family="Helvetica,sans-Serif" font-size="10.00">Fiea::Engine::Content</text>
<text xml:space="preserve" text-anchor="middle" x="55.62" y="-506.5" font-family="Helvetica,sans-Serif" font-size="10.00">::Datum::operator!=</text>
</a>
</g>
</g>
<!-- Node1&#45;&gt;Node4 -->
<g id="edge3_Node000001_Node000004" class="edge">
<title>Node1&#45;&gt;Node4</title>
<g id="a_edge3_Node000001_Node000004"><a xlink:title=" ">
<path fill="none" stroke="#63b8ff" d="M194.06,-343.09C181.96,-380.74 155.37,-448.98 111.25,-491 107.85,-494.24 103.96,-497.11 99.85,-499.64"/>
<polygon fill="#63b8ff" stroke="#63b8ff" points="197.29,-344.49 196.91,-333.9 190.6,-342.41 197.29,-344.49"/>
</a>
</g>
</g>
<!-- Node5 -->
<g id="Node000005" class="node">
<title>Node5</title>
<g id="a_Node000005"><a xlink:href="class_fiea_1_1_engine_1_1_content_1_1_datum.html#a08f079ea945799d0fe4e09d8f2784c0f" target="_top" xlink:title=" ">
<polygon fill="white" stroke="#666666" points="111.25,-482 0,-482 0,-450 111.25,-450 111.25,-482"/>
<text xml:space="preserve" text-anchor="start" x="8" y="-468.5" font-family="Helvetica,sans-Serif" font-size="10.00">Fiea::Engine::Content</text>
<text xml:space="preserve" text-anchor="middle" x="55.62" y="-456.5" font-family="Helvetica,sans-Serif" font-size="10.00">::Datum::operator=</text>
</a>
</g>
</g>
<!-- Node1&#45;&gt;Node5 -->
<g id="edge4_Node000001_Node000005" class="edge">
<title>Node1&#45;&gt;Node5</title>
<g id="a_edge4_Node000001_Node000005"><a xlink:title=" ">
<path fill="none" stroke="#63b8ff" d="M188.36,-342.01C172.9,-369.65 145.26,-413.13 111.25,-441 107.38,-444.17 103.04,-447.03 98.54,-449.59"/>
<polygon fill="#63b8ff" stroke="#63b8ff" points="191.24,-344.04 192.96,-333.59 185.1,-340.69 191.24,-344.04"/>
</a>
</g>
</g>
<!-- Node6 -->
<g id="Node000006" class="node">
<title>Node6</title>
<g id="a_Node000006"><a xlink:href="class_fiea_1_1_engine_1_1_content_1_1_datum.html#ad64d8f3628827f18916da5058d5501de" target="_top" xlink:title=" ">
<polygon fill="white" stroke="#666666" points="111.25,-432 0,-432 0,-400 111.25,-400 111.25,-432"/>
<text xml:space="preserve" text-anchor="start" x="8" y="-418.5" font-family="Helvetica,sans-Serif" font-size="10.00">Fiea::Engine::Content</text>
<text xml:space="preserve" text-anchor="middle" x="55.62" y="-406.5" font-family="Helvetica,sans-Serif" font-size="10.00">::Datum::operator=</text>
</a>
</g>
</g>
<!-- Node1&#45;&gt;Node6 -->
<g id="edge5_Node000001_Node000006" class="edge">
<title>Node1&#45;&gt;Node6</title>
<g id="a_edge5_Node000001_Node000006"><a xlink:title=" ">
<path fill="none" stroke="#63b8ff" d="M176.41,-340.17C158.97,-355.92 134.82,-376.21 111.25,-391 106.39,-394.05 101.1,-396.94 95.78,-399.6"/>
<polygon fill="#63b8ff" stroke="#63b8ff" points="178.76,-342.77 183.76,-333.43 174.03,-337.61 178.76,-342.77"/>
</a>
</g>
</g>
<!-- Node7 -->
<g id="Node000007" class="node">
<title>Node7</title>
<g id="a_Node000007"><a xlink:href="class_fiea_1_1_engine_1_1_content_1_1_datum.html#a4dab96d1591a5005171ff9285d624cd1" target="_top" xlink:title=" ">
<polygon fill="white" stroke="#666666" points="111.25,-382 0,-382 0,-350 111.25,-350 111.25,-382"/>
<text xml:space="preserve" text-anchor="start" x="8" y="-368.5" font-family="Helvetica,sans-Serif" font-size="10.00">Fiea::Engine::Content</text>
<text xml:space="preserve" text-anchor="middle" x="55.62" y="-356.5" font-family="Helvetica,sans-Serif" font-size="10.00">::Datum::operator=</text>
</a>
</g>
</g>
<!-- Node1&#45;&gt;Node7 -->
<g id="edge6_Node000001_Node000007" class="edge">
<title>Node1&#45;&gt;Node7</title>
<g id="a_edge6_Node000001_Node000007"><a xlink:title=" ">
<path fill="none" stroke="#63b8ff" d="M143.55,-336.08C130.52,-340.56 116.84,-345.27 104.29,-349.59"/>
<polygon fill="#63b8ff" stroke="#63b8ff" points="144.57,-339.43 152.88,-332.86 142.29,-332.81 144.57,-339.43"/>
</a>
</g>
</g>
<!-- Node8 -->
<g id="Node000008" class="node">
<title>Node8</title>
<g id="a_Node000008"><a xlink:href="class_fiea_1_1_engine_1_1_content_1_1_datum.html#a7389a5c7564b37c7e23d2c82ddf3020a" target="_top" xlink:title=" ">
<polygon fill="white" stroke="#666666" points="111.25,-332 0,-332 0,-300 111.25,-300 111.25,-332"/>
<text xml:space="preserve" text-anchor="start" x="8" y="-318.5" font-family="Helvetica,sans-Serif" font-size="10.00">Fiea::Engine::Content</text>
<text xml:space="preserve" text-anchor="middle" x="55.62" y="-306.5" font-family="Helvetica,sans-Serif" font-size="10.00">::Datum::operator=</text>
</a>
</g>
</g>
<!-- Node1&#45;&gt;Node8 -->
<g id="edge7_Node000001_Node000008" class="edge">
<title>Node1&#45;&gt;Node8</title>
<g id="a_edge7_Node000001_Node000008"><a xlink:title=" ">
<path fill="none" stroke="#63b8ff" d="M135.69,-316C127.64,-316 119.48,-316 111.62,-316"/>
<polygon fill="#63b8ff" stroke="#63b8ff" points="135.45,-319.5 145.45,-316 135.45,-312.5 135.45,-319.5"/>
</a>
</g>
</g>
<!-- Node9 -->
<g id="Node000009" class="node">
<title>Node9</title>
<g id="a_Node000009"><a xlink:href="class_fiea_1_1_engine_1_1_content_1_1_datum.html#a6ab849a49a317f76f090390b73c131df" target="_top" xlink:title=" ">
<polygon fill="white" stroke="#666666" points="111.25,-282 0,-282 0,-250 111.25,-250 111.25,-282"/>
<text xml:space="preserve" text-anchor="start" x="8" y="-268.5" font-family="Helvetica,sans-Serif" font-size="10.00">Fiea::Engine::Content</text>
<text xml:space="preserve" text-anchor="middle" x="55.62" y="-256.5" font-family="Helvetica,sans-Serif" font-size="10.00">::Datum::operator=</text>
</a>
</g>
</g>
<!-- Node1&#45;&gt;Node9 -->
<g id="edge8_Node000001_Node000009" class="edge">
<title>Node1&#45;&gt;Node9</title>
<g id="a_edge8_Node000001_Node000009"><a xlink:title=" ">
<path fill="none" stroke="#63b8ff" d="M143.55,-295.92C130.52,-291.44 116.84,-286.73 104.29,-282.41"/>
<polygon fill="#63b8ff" stroke="#63b8ff" points="142.29,-299.19 152.88,-299.14 144.57,-292.57 142.29,-299.19"/>
</a>
</g>
</g>
<!-- Node10 -->
<g id="Node000010" class="node">
<title>Node10</title>
<g id="a_Node000010"><a xlink:href="class_fiea_1_1_engine_1_1_content_1_1_datum.html#ab4346d1ba357157a5cf934c6d384a699" target="_top" xlink:title=" ">
<polygon fill="white" stroke="#666666" points="111.25,-232 0,-232 0,-200 111.25,-200 111.25,-232"/>
<text xml:space="preserve" text-anchor="start" x="8" y="-218.5" font-family="Helvetica,sans-Serif" font-size="10.00">Fiea::Engine::Content</text>
<text xml:space="preserve" text-anchor="middle" x="55.62" y="-206.5" font-family="Helvetica,sans-Serif" font-size="10.00">::Datum::operator=</text>
</a>
</g>
</g>
<!-- Node1&#45;&gt;Node10 -->
<g id="edge9_Node000001_Node000010" class="edge">
<title>Node1&#45;&gt;Node10</title>
<g id="a_edge9_Node000001_Node000010"><a xlink:title=" ">
<path fill="none" stroke="#63b8ff" d="M176.41,-291.83C158.97,-276.08 134.82,-255.79 111.25,-241 106.39,-237.95 101.1,-235.06 95.78,-232.4"/>
<polygon fill="#63b8ff" stroke="#63b8ff" points="174.03,-294.39 183.76,-298.57 178.76,-289.23 174.03,-294.39"/>
</a>
</g>
</g>
<!-- Node11 -->
<g id="Node000011" class="node">
<title>Node11</title>
<g id="a_Node000011"><a xlink:href="class_fiea_1_1_engine_1_1_content_1_1_datum.html#a6ba71f750843641444b4a35c9e207c3d" target="_top" xlink:title=" ">
<polygon fill="white" stroke="#666666" points="111.25,-182 0,-182 0,-150 111.25,-150 111.25,-182"/>
<text xml:space="preserve" text-anchor="start" x="8" y="-168.5" font-family="Helvetica,sans-Serif" font-size="10.00">Fiea::Engine::Content</text>
<text xml:space="preserve" text-anchor="middle" x="55.62" y="-156.5" font-family="Helvetica,sans-Serif" font-size="10.00">::Datum::operator=</text>
</a>
</g>
</g>
<!-- Node1&#45;&gt;Node11 -->
<g id="edge10_Node000001_Node000011" class="edge">
<title>Node1&#45;&gt;Node11</title>
<g id="a_edge10_Node000001_Node000011"><a xlink:title=" ">
<path fill="none" stroke="#63b8ff" d="M188.36,-289.99C172.9,-262.35 145.26,-218.87 111.25,-191 107.38,-187.83 103.04,-184.97 98.54,-182.41"/>
<polygon fill="#63b8ff" stroke="#63b8ff" points="185.1,-291.31 192.96,-298.41 191.24,-287.96 185.1,-291.31"/>
</a>
</g>
</g>
<!-- Node12 -->
<g id="Node000012" class="node">
<title>Node12</title>
<g id="a_Node000012"><a xlink:href="class_fiea_1_1_engine_1_1_content_1_1_datum.html#a6407282d0d4390a6db48f7701dd2fa9c" target="_top" xlink:title=" ">
<polygon fill="white" stroke="#666666" points="111.25,-132 0,-132 0,-100 111.25,-100 111.25,-132"/>
<text xml:space="preserve" text-anchor="start" x="8" y="-118.5" font-family="Helvetica,sans-Serif" font-size="10.00">Fiea::Engine::Content</text>
<text xml:space="preserve" text-anchor="middle" x="55.62" y="-106.5" font-family="Helvetica,sans-Serif" font-size="10.00">::Datum::operator=</text>
</a>
</g>
</g>
<!-- Node1&#45;&gt;Node12 -->
<g id="edge11_Node000001_Node000012" class="edge">
<title>Node1&#45;&gt;Node12</title>
<g id="a_edge11_Node000001_Node000012"><a xlink:title=" ">
<path fill="none" stroke="#63b8ff" d="M194.06,-288.91C181.96,-251.26 155.37,-183.02 111.25,-141 107.85,-137.76 103.96,-134.89 99.85,-132.36"/>
<polygon fill="#63b8ff" stroke="#63b8ff" points="190.6,-289.59 196.91,-298.1 197.29,-287.51 190.6,-289.59"/>
</a>
</g>
</g>
<!-- Node13 -->
<g id="Node000013" class="node">
<title>Node13</title>
<g id="a_Node000013"><a xlink:href="class_fiea_1_1_engine_1_1_content_1_1_datum.html#a8328bd384ec02ddb4f7aeeae54a0bf7f" target="_top" xlink:title=" ">
<polygon fill="white" stroke="#666666" points="111.25,-82 0,-82 0,-50 111.25,-50 111.25,-82"/>
<text xml:space="preserve" text-anchor="start" x="8" y="-68.5" font-family="Helvetica,sans-Serif" font-size="10.00">Fiea::Engine::Content</text>
<text xml:space="preserve" text-anchor="middle" x="55.62" y="-56.5" font-family="Helvetica,sans-Serif" font-size="10.00">::Datum::operator=</text>
</a>
</g>
</g>
<!-- Node1&#45;&gt;Node13 -->
<g id="edge12_Node000001_Node000013" class="edge">
<title>Node1&#45;&gt;Node13</title>
<g id="a_edge12_Node000001_Node000013"><a xlink:title=" ">
<path fill="none" stroke="#63b8ff" d="M197.56,-288.39C188.99,-242.03 165.71,-148.04 111.25,-91 108.15,-87.76 104.56,-84.9 100.71,-82.38"/>
<polygon fill="#63b8ff" stroke="#63b8ff" points="194.09,-288.87 199.26,-298.12 200.99,-287.67 194.09,-288.87"/>
</a>
</g>
</g>
<!-- Node14 -->
<g id="Node000014" class="node">
<title>Node14</title>
<g id="a_Node000014"><a xlink:href="class_fiea_1_1_engine_1_1_content_1_1_datum.html#ab3c64c4a8020eb029b4f1b728093459c" target="_top" xlink:title=" ">
<polygon fill="white" stroke="#666666" points="111.25,-32 0,-32 0,0 111.25,0 111.25,-32"/>
<text xml:space="preserve" text-anchor="start" x="8" y="-18.5" font-family="Helvetica,sans-Serif" font-size="10.00">Fiea::Engine::Content</text>
<text xml:space="preserve" text-anchor="middle" x="55.62" y="-6.5" font-family="Helvetica,sans-Serif" font-size="10.00">::Datum::operator==</text>
</a>
</g>
</g>
<!-- Node1&#45;&gt;Node14 -->
<g id="edge13_Node000001_Node000014" class="edge">
<title>Node1&#45;&gt;Node14</title>
<g id="a_edge13_Node000001_Node000014"><a xlink:title=" ">
<path fill="none" stroke="#63b8ff" d="M199.94,-288.12C194.77,-234 176.25,-113.63 111.25,-41 108.33,-37.74 104.9,-34.87 101.2,-32.36"/>
<polygon fill="#63b8ff" stroke="#63b8ff" points="196.44,-288.34 200.79,-298 203.42,-287.74 196.44,-288.34"/>
</a>
</g>
</g>
</g>
</svg>
