<?xml version="1.0" encoding="UTF-8" standalone="no"?>
<!DOCTYPE svg PUBLIC "-//W3C//DTD SVG 1.1//EN"
 "http://www.w3.org/Graphics/SVG/1.1/DTD/svg11.dtd">
<!-- Generated by graphviz version 13.1.0 (20250701.0955)
 -->
<!-- Title: Fiea::Engine::Content::Attributed::IsClassAttribute Pages: 1 -->
<svg width="659pt" height="199pt"
 viewBox="0.00 0.00 659.00 199.00" xmlns="http://www.w3.org/2000/svg" xmlns:xlink="http://www.w3.org/1999/xlink">
<g id="graph0" class="graph" transform="scale(1 1) rotate(0) translate(4 194.54)">
<title>Fiea::Engine::Content::Attributed::IsClassAttribute</title>
<!-- Node1 -->
<g id="Node000001" class="node">
<title>Node1</title>
<g id="a_Node000001"><a xlink:title="Checks if a given key is a class attribute.">
<polygon fill="#999999" stroke="#666666" points="651.25,-129.18 510.75,-129.18 510.75,-97.18 651.25,-97.18 651.25,-129.18"/>
<text xml:space="preserve" text-anchor="start" x="518.75" y="-115.68" font-family="Helvetica,sans-Serif" font-size="10.00">Fiea::Engine::Content</text>
<text xml:space="preserve" text-anchor="middle" x="581" y="-103.68" font-family="Helvetica,sans-Serif" font-size="10.00">::Attributed::IsClassAttribute</text>
</a>
</g>
</g>
<!-- Node2 -->
<g id="Node000002" class="node">
<title>Node2</title>
<g id="a_Node000002"><a xlink:href="class_fiea_1_1_engine_1_1_content_1_1_attributed.html#a7fc54279fcfc7c8bd925e6b47e396446" target="_top" xlink:title="Appends a new instance attribute.">
<polygon fill="white" stroke="#666666" points="281.75,-65.18 141.25,-65.18 141.25,-21.18 281.75,-21.18 281.75,-65.18"/>
<text xml:space="preserve" text-anchor="start" x="149.25" y="-51.68" font-family="Helvetica,sans-Serif" font-size="10.00">Fiea::Engine::Content</text>
<text xml:space="preserve" text-anchor="start" x="149.25" y="-39.68" font-family="Helvetica,sans-Serif" font-size="10.00">::Attributed::AppendInstance</text>
<text xml:space="preserve" text-anchor="middle" x="211.5" y="-27.68" font-family="Helvetica,sans-Serif" font-size="10.00">Attribute</text>
</a>
</g>
</g>
<!-- Node1&#45;&gt;Node2 -->
<g id="edge1_Node000001_Node000002" class="edge">
<title>Node1&#45;&gt;Node2</title>
<g id="a_edge1_Node000001_Node000002"><a xlink:title=" ">
<path fill="none" stroke="#63b8ff" d="M499.43,-97.83C434.44,-85.45 343.96,-68.22 282.08,-56.43"/>
<polygon fill="#63b8ff" stroke="#63b8ff" points="498.48,-101.21 508.96,-99.65 499.79,-94.34 498.48,-101.21"/>
</a>
</g>
</g>
<!-- Node3 -->
<g id="Node000003" class="node">
<title>Node3</title>
<g id="a_Node000003"><a xlink:href="namespace_fiea_1_1_engine_1_1_tests.html#ad7d06bf277bf903f5dbc3982540b1563" target="_top" xlink:title=" ">
<polygon fill="white" stroke="#666666" points="100.75,-167.18 0,-167.18 0,-135.18 100.75,-135.18 100.75,-167.18"/>
<text xml:space="preserve" text-anchor="start" x="8" y="-153.68" font-family="Helvetica,sans-Serif" font-size="10.00">Fiea::Engine::Tests</text>
<text xml:space="preserve" text-anchor="middle" x="50.38" y="-141.68" font-family="Helvetica,sans-Serif" font-size="10.00">::TEST_CLASS</text>
</a>
</g>
</g>
<!-- Node1&#45;&gt;Node3 -->
<g id="edge10_Node000001_Node000003" class="edge">
<title>Node1&#45;&gt;Node3</title>
<g id="a_edge10_Node000001_Node000003"><a xlink:title=" ">
<path fill="none" stroke="#63b8ff" d="M528.08,-133.58C511.26,-139.6 492.4,-145.76 474.75,-150.18 328.49,-186.8 285.64,-202.97 136.75,-179.18 121.96,-176.82 106.26,-172.29 92.41,-167.55"/>
<polygon fill="#63b8ff" stroke="#63b8ff" points="529.19,-136.9 537.38,-130.18 526.78,-130.32 529.19,-136.9"/>
</a>
</g>
</g>
<!-- Node4 -->
<g id="Node000004" class="node">
<title>Node4</title>
<g id="a_Node000004"><a xlink:href="namespace_fiea_1_1_engine_1_1_tests.html#a3cdcf27a81b8b07fd7e0f633fb413ca8" target="_top" xlink:title=" ">
<polygon fill="white" stroke="#666666" points="100.75,-95.18 0,-95.18 0,-63.18 100.75,-63.18 100.75,-95.18"/>
<text xml:space="preserve" text-anchor="start" x="8" y="-81.68" font-family="Helvetica,sans-Serif" font-size="10.00">Fiea::Engine::Tests</text>
<text xml:space="preserve" text-anchor="middle" x="50.38" y="-69.68" font-family="Helvetica,sans-Serif" font-size="10.00">::TEST_CLASS</text>
</a>
</g>
</g>
<!-- Node1&#45;&gt;Node4 -->
<g id="edge11_Node000001_Node000004" class="edge">
<title>Node1&#45;&gt;Node4</title>
<g id="a_edge11_Node000001_Node000004"><a xlink:title=" ">
<path fill="none" stroke="#63b8ff" d="M540.3,-91.7C520.91,-81.8 497.02,-70.44 474.75,-62.18 393.49,-32.03 372.2,-23.38 286.25,-12.18 220.36,-3.59 199.55,9.52 136.75,-12.18 107.9,-22.15 81.38,-46.33 65.79,-62.74"/>
<polygon fill="#63b8ff" stroke="#63b8ff" points="538.44,-94.68 548.93,-96.18 541.66,-88.47 538.44,-94.68"/>
</a>
</g>
</g>
<!-- Node5 -->
<g id="Node000005" class="node">
<title>Node5</title>
<g id="a_Node000005"><a xlink:href="class_fiea_1_1_engine_1_1_content_1_1_attributed.html#a2bf121c3108ae47b421b831a88b19a49" target="_top" xlink:title="Checks if a given key is an instance attribute.">
<polygon fill="white" stroke="#666666" points="474.75,-141.18 322.25,-141.18 322.25,-109.18 474.75,-109.18 474.75,-141.18"/>
<text xml:space="preserve" text-anchor="start" x="330.25" y="-127.68" font-family="Helvetica,sans-Serif" font-size="10.00">Fiea::Engine::Content</text>
<text xml:space="preserve" text-anchor="middle" x="398.5" y="-115.68" font-family="Helvetica,sans-Serif" font-size="10.00">::Attributed::IsInstanceAttribute</text>
</a>
</g>
</g>
<!-- Node1&#45;&gt;Node5 -->
<g id="edge4_Node000001_Node000005" class="edge">
<title>Node1&#45;&gt;Node5</title>
<g id="a_edge4_Node000001_Node000005"><a xlink:title=" ">
<path fill="none" stroke="#63b8ff" d="M499.18,-118.55C491.13,-119.09 482.98,-119.63 474.99,-120.16"/>
<polygon fill="#63b8ff" stroke="#63b8ff" points="499.22,-122.06 508.96,-117.9 498.75,-115.07 499.22,-122.06"/>
</a>
</g>
</g>
<!-- Node2&#45;&gt;Node3 -->
<g id="edge2_Node000002_Node000003" class="edge">
<title>Node2&#45;&gt;Node3</title>
<g id="a_edge2_Node000002_Node000003"><a xlink:title=" ">
<path fill="none" stroke="#63b8ff" d="M168.25,-71.85C138.61,-91.97 100.05,-118.14 75.49,-134.81"/>
<polygon fill="#63b8ff" stroke="#63b8ff" points="169.97,-74.92 176.28,-66.41 166.04,-69.13 169.97,-74.92"/>
</a>
</g>
</g>
<!-- Node2&#45;&gt;Node4 -->
<g id="edge3_Node000002_Node000004" class="edge">
<title>Node2&#45;&gt;Node4</title>
<g id="a_edge3_Node000002_Node000004"><a xlink:title=" ">
<path fill="none" stroke="#63b8ff" d="M129.98,-61.39C120.05,-63.64 110.14,-65.88 100.87,-67.98"/>
<polygon fill="#63b8ff" stroke="#63b8ff" points="130.71,-64.82 139.69,-59.2 129.17,-57.99 130.71,-64.82"/>
</a>
</g>
</g>
<!-- Node5&#45;&gt;Node3 -->
<g id="edge8_Node000005_Node000003" class="edge">
<title>Node5&#45;&gt;Node3</title>
<g id="a_edge8_Node000005_Node000003"><a xlink:title=" ">
<path fill="none" stroke="#63b8ff" d="M347.63,-145.56C328.74,-152.26 306.83,-158.85 286.25,-162.18 222.98,-172.42 148.98,-165.96 101.2,-159.44"/>
<polygon fill="#63b8ff" stroke="#63b8ff" points="348.77,-148.87 356.95,-142.14 346.36,-142.29 348.77,-148.87"/>
</a>
</g>
</g>
<!-- Node5&#45;&gt;Node4 -->
<g id="edge9_Node000005_Node000004" class="edge">
<title>Node5&#45;&gt;Node4</title>
<g id="a_edge9_Node000005_Node000004"><a xlink:title=" ">
<path fill="none" stroke="#63b8ff" d="M310.72,-113.65C244.55,-104.85 155.75,-93.05 101.11,-85.79"/>
<polygon fill="#63b8ff" stroke="#63b8ff" points="310.09,-117.09 320.47,-114.94 311.02,-110.15 310.09,-117.09"/>
</a>
</g>
</g>
<!-- Node6 -->
<g id="Node000006" class="node">
<title>Node6</title>
<g id="a_Node000006"><a xlink:href="class_fiea_1_1_engine_1_1_content_1_1_attributed.html#afb5756182b73d6326b8021f88ee51877" target="_top" xlink:title="Retrieves all instance attribute names.">
<polygon fill="white" stroke="#666666" points="286.25,-153.18 136.75,-153.18 136.75,-121.18 286.25,-121.18 286.25,-153.18"/>
<text xml:space="preserve" text-anchor="start" x="144.75" y="-139.68" font-family="Helvetica,sans-Serif" font-size="10.00">Fiea::Engine::Content</text>
<text xml:space="preserve" text-anchor="middle" x="211.5" y="-127.68" font-family="Helvetica,sans-Serif" font-size="10.00">::Attributed::InstanceAttributes</text>
</a>
</g>
</g>
<!-- Node5&#45;&gt;Node6 -->
<g id="edge5_Node000005_Node000006" class="edge">
<title>Node5&#45;&gt;Node6</title>
<g id="a_edge5_Node000005_Node000006"><a xlink:title=" ">
<path fill="none" stroke="#63b8ff" d="M310.66,-130.81C302.61,-131.33 294.5,-131.86 286.58,-132.37"/>
<polygon fill="#63b8ff" stroke="#63b8ff" points="310.72,-134.31 320.48,-130.17 310.27,-127.33 310.72,-134.31"/>
</a>
</g>
</g>
<!-- Node6&#45;&gt;Node3 -->
<g id="edge6_Node000006_Node000003" class="edge">
<title>Node6&#45;&gt;Node3</title>
<g id="a_edge6_Node000006_Node000003"><a xlink:title=" ">
<path fill="none" stroke="#63b8ff" d="M125.25,-144.68C116.99,-145.4 108.82,-146.12 101.08,-146.8"/>
<polygon fill="#63b8ff" stroke="#63b8ff" points="125.37,-148.18 135.02,-143.82 124.75,-141.21 125.37,-148.18"/>
</a>
</g>
</g>
<!-- Node6&#45;&gt;Node4 -->
<g id="edge7_Node000006_Node000004" class="edge">
<title>Node6&#45;&gt;Node4</title>
<g id="a_edge7_Node000006_Node000004"><a xlink:title=" ">
<path fill="none" stroke="#63b8ff" d="M154.66,-116.83C135.59,-109.87 114.5,-102.19 96.39,-95.58"/>
<polygon fill="#63b8ff" stroke="#63b8ff" points="153.31,-120.06 163.9,-120.19 155.71,-113.48 153.31,-120.06"/>
</a>
</g>
</g>
</g>
</svg>
