<?xml version="1.0" encoding="UTF-8" standalone="no"?>
<!DOCTYPE svg PUBLIC "-//W3C//DTD SVG 1.1//EN"
 "http://www.w3.org/Graphics/SVG/1.1/DTD/svg11.dtd">
<!-- Generated by graphviz version 13.1.0 (20250701.0955)
 -->
<!-- Title: Fiea::Engine::RTTI::TypeIdInstance Pages: 1 -->
<svg width="408pt" height="189pt"
 viewBox="0.00 0.00 408.00 189.00" xmlns="http://www.w3.org/2000/svg" xmlns:xlink="http://www.w3.org/1999/xlink">
<g id="graph0" class="graph" transform="scale(1 1) rotate(0) translate(4 184.8)">
<title>Fiea::Engine::RTTI::TypeIdInstance</title>
<!-- Node1 -->
<g id="Node000001" class="node">
<title>Node1</title>
<g id="a_Node000001"><a xlink:title=" ">
<polygon fill="#999999" stroke="#666666" points="98.5,-126 0,-126 0,-94 98.5,-94 98.5,-126"/>
<text xml:space="preserve" text-anchor="start" x="8" y="-112.5" font-family="Helvetica,sans-Serif" font-size="10.00">Fiea::Engine::RTTI</text>
<text xml:space="preserve" text-anchor="middle" x="49.25" y="-100.5" font-family="Helvetica,sans-Serif" font-size="10.00">::TypeIdInstance</text>
</a>
</g>
</g>
<!-- Node1&#45;&gt;Node1 -->
<g id="edge9_Node000001_Node000001" class="edge">
<title>Node1&#45;&gt;Node1</title>
<g id="a_edge9_Node000001_Node000001"><a xlink:title=" ">
<path fill="none" stroke="#63b8ff" d="M23.63,-126.44C18.85,-135.58 27.39,-144 49.25,-144 61.21,-144 69.18,-141.48 73.16,-137.71"/>
<polygon fill="#63b8ff" stroke="#63b8ff" points="76.61,-138.35 74.64,-127.94 69.68,-137.3 76.61,-138.35"/>
</a>
</g>
</g>
<!-- Node2 -->
<g id="Node000002" class="node">
<title>Node2</title>
<g id="a_Node000002"><a xlink:href="class_fiea_1_1_engine_1_1_r_t_t_i.html#a15bd5993c8ad04da47af440298ebbb30" target="_top" xlink:title=" ">
<polygon fill="white" stroke="#666666" points="251,-158 134.5,-158 134.5,-138 251,-138 251,-158"/>
<text xml:space="preserve" text-anchor="middle" x="192.75" y="-144.5" font-family="Helvetica,sans-Serif" font-size="10.00">Fiea::Engine::RTTI::As</text>
</a>
</g>
</g>
<!-- Node1&#45;&gt;Node2 -->
<g id="edge1_Node000001_Node000002" class="edge">
<title>Node1&#45;&gt;Node2</title>
<g id="a_edge1_Node000001_Node000002"><a xlink:title=" ">
<path fill="none" stroke="#63b8ff" d="M98.95,-123.08C112.82,-126.8 127.96,-130.87 141.9,-134.61"/>
<polygon fill="#63b8ff" stroke="#63b8ff" points="140.76,-137.93 151.32,-137.14 142.57,-131.17 140.76,-137.93"/>
</a>
</g>
</g>
<!-- Node3 -->
<g id="Node000003" class="node">
<title>Node3</title>
<g id="a_Node000003"><a xlink:href="class_fiea_1_1_engine_1_1_r_t_t_i.html#ac0a7d875e4513b2aca7594abcd4418ef" target="_top" xlink:title=" ">
<polygon fill="white" stroke="#666666" points="399.75,-180 287,-180 287,-160 399.75,-160 399.75,-180"/>
<text xml:space="preserve" text-anchor="middle" x="343.38" y="-166.5" font-family="Helvetica,sans-Serif" font-size="10.00">Fiea::Engine::RTTI::Is</text>
</a>
</g>
</g>
<!-- Node1&#45;&gt;Node3 -->
<g id="edge6_Node000001_Node000003" class="edge">
<title>Node1&#45;&gt;Node3</title>
<g id="a_edge6_Node000001_Node000003"><a xlink:title=" ">
<path fill="none" stroke="#63b8ff" d="M67.67,-126.32C83.67,-140.12 108.72,-158.9 134.5,-167 179.98,-181.3 233.86,-181.64 275.38,-178.62"/>
<polygon fill="#63b8ff" stroke="#63b8ff" points="275.55,-182.12 285.23,-177.81 274.98,-175.14 275.55,-182.12"/>
</a>
</g>
</g>
<!-- Node4 -->
<g id="Node000004" class="node">
<title>Node4</title>
<g id="a_Node000004"><a xlink:href="class_fiea_1_1_engine_1_1_r_t_t_i.html#a13000029a2e6cced30b831e466e07cae" target="_top" xlink:title=" ">
<polygon fill="white" stroke="#666666" points="392.62,-126 294.12,-126 294.12,-94 392.62,-94 392.62,-126"/>
<text xml:space="preserve" text-anchor="start" x="302.12" y="-112.5" font-family="Helvetica,sans-Serif" font-size="10.00">Fiea::Engine::RTTI</text>
<text xml:space="preserve" text-anchor="middle" x="343.38" y="-100.5" font-family="Helvetica,sans-Serif" font-size="10.00">::RTTI</text>
</a>
</g>
</g>
<!-- Node1&#45;&gt;Node4 -->
<g id="edge7_Node000001_Node000004" class="edge">
<title>Node1&#45;&gt;Node4</title>
<g id="a_edge7_Node000001_Node000004"><a xlink:title=" ">
<path fill="none" stroke="#63b8ff" d="M98.82,-110C149.25,-110 228.24,-110 282.51,-110"/>
<polygon fill="#63b8ff" stroke="#63b8ff" points="282.18,-113.5 292.18,-110 282.18,-106.5 282.18,-113.5"/>
</a>
</g>
</g>
<!-- Node5 -->
<g id="Node000005" class="node">
<title>Node5</title>
<g id="a_Node000005"><a xlink:href="class_fiea_1_1_engine_1_1_r_t_t_i.html#a7f70ad5ba0f8a3388543d63d72892575" target="_top" xlink:title=" ">
<polygon fill="white" stroke="#666666" points="242,-82 143.5,-82 143.5,-50 242,-50 242,-82"/>
<text xml:space="preserve" text-anchor="start" x="151.5" y="-68.5" font-family="Helvetica,sans-Serif" font-size="10.00">Fiea::Engine::RTTI</text>
<text xml:space="preserve" text-anchor="middle" x="192.75" y="-56.5" font-family="Helvetica,sans-Serif" font-size="10.00">::Equals</text>
</a>
</g>
</g>
<!-- Node1&#45;&gt;Node5 -->
<g id="edge4_Node000001_Node000005" class="edge">
<title>Node1&#45;&gt;Node5</title>
<g id="a_edge4_Node000001_Node000005"><a xlink:title=" ">
<path fill="none" stroke="#63b8ff" d="M98.95,-94.86C109.74,-91.5 121.29,-87.91 132.45,-84.44"/>
<polygon fill="#63b8ff" stroke="#63b8ff" points="133.49,-87.78 142,-81.47 131.41,-81.1 133.49,-87.78"/>
</a>
</g>
</g>
<!-- Node6 -->
<g id="Node000006" class="node">
<title>Node6</title>
<g id="a_Node000006"><a xlink:href="class_fiea_1_1_engine_1_1_r_t_t_i.html#a43a7d187e332a17d2c699bc2c8136a30" target="_top" xlink:title=" ">
<polygon fill="white" stroke="#666666" points="242,-32 143.5,-32 143.5,0 242,0 242,-32"/>
<text xml:space="preserve" text-anchor="start" x="151.5" y="-18.5" font-family="Helvetica,sans-Serif" font-size="10.00">Fiea::Engine::RTTI</text>
<text xml:space="preserve" text-anchor="middle" x="192.75" y="-6.5" font-family="Helvetica,sans-Serif" font-size="10.00">::ToString</text>
</a>
</g>
</g>
<!-- Node1&#45;&gt;Node6 -->
<g id="edge8_Node000001_Node000006" class="edge">
<title>Node1&#45;&gt;Node6</title>
<g id="a_edge8_Node000001_Node000006"><a xlink:title=" ">
<path fill="none" stroke="#63b8ff" d="M67.26,-93.68C83.56,-78.65 109.34,-56.39 134.5,-41 136.37,-39.85 138.31,-38.73 140.28,-37.64"/>
<polygon fill="#63b8ff" stroke="#63b8ff" points="141.77,-40.81 149.05,-33.12 138.56,-34.59 141.77,-40.81"/>
</a>
</g>
</g>
<!-- Node2&#45;&gt;Node3 -->
<g id="edge2_Node000002_Node000003" class="edge">
<title>Node2&#45;&gt;Node3</title>
<g id="a_edge2_Node000002_Node000003"><a xlink:title=" ">
<path fill="none" stroke="#63b8ff" d="M251.21,-156.51C259.1,-157.67 267.25,-158.88 275.28,-160.07"/>
<polygon fill="#63b8ff" stroke="#63b8ff" points="274.63,-163.51 285.03,-161.51 275.66,-156.59 274.63,-163.51"/>
</a>
</g>
</g>
<!-- Node2&#45;&gt;Node4 -->
<g id="edge3_Node000002_Node000004" class="edge">
<title>Node2&#45;&gt;Node4</title>
<g id="a_edge3_Node000002_Node000004"><a xlink:title=" ">
<path fill="none" stroke="#63b8ff" d="M234.76,-137.52C249.63,-133.71 266.74,-129.34 282.88,-125.21"/>
<polygon fill="#63b8ff" stroke="#63b8ff" points="283.57,-128.65 292.39,-122.78 281.84,-121.87 283.57,-128.65"/>
</a>
</g>
</g>
<!-- Node5&#45;&gt;Node4 -->
<g id="edge5_Node000005_Node000004" class="edge">
<title>Node5&#45;&gt;Node4</title>
<g id="a_edge5_Node000005_Node000004"><a xlink:title=" ">
<path fill="none" stroke="#63b8ff" d="M242.42,-80.41C255.44,-84.26 269.67,-88.47 283.19,-92.48"/>
<polygon fill="#63b8ff" stroke="#63b8ff" points="281.82,-95.72 292.4,-95.21 283.81,-89.01 281.82,-95.72"/>
</a>
</g>
</g>
</g>
</svg>
