<?xml version="1.0" encoding="UTF-8" standalone="no"?>
<!DOCTYPE svg PUBLIC "-//W3C//DTD SVG 1.1//EN"
 "http://www.w3.org/Graphics/SVG/1.1/DTD/svg11.dtd">
<!-- Generated by graphviz version 13.1.0 (20250701.0955)
 -->
<!-- Title: Fiea::Engine::Actions::ActionLoopIncrement::ActionLoopIncrement Pages: 1 -->
<svg width="273pt" height="238pt"
 viewBox="0.00 0.00 273.00 238.00" xmlns="http://www.w3.org/2000/svg" xmlns:xlink="http://www.w3.org/1999/xlink">
<g id="graph0" class="graph" transform="scale(1 1) rotate(0) translate(4 234)">
<title>Fiea::Engine::Actions::ActionLoopIncrement::ActionLoopIncrement</title>
<!-- Node1 -->
<g id="Node000001" class="node">
<title>Node1</title>
<g id="a_Node000001"><a xlink:title=" ">
<polygon fill="#999999" stroke="#666666" points="264.5,-137 150.25,-137 150.25,-93 264.5,-93 264.5,-137"/>
<text xml:space="preserve" text-anchor="start" x="158.25" y="-123.5" font-family="Helvetica,sans-Serif" font-size="10.00">Fiea::Engine::Actions</text>
<text xml:space="preserve" text-anchor="start" x="158.25" y="-111.5" font-family="Helvetica,sans-Serif" font-size="10.00">::ActionLoopIncrement</text>
<text xml:space="preserve" text-anchor="middle" x="207.38" y="-99.5" font-family="Helvetica,sans-Serif" font-size="10.00">::ActionLoopIncrement</text>
</a>
</g>
</g>
<!-- Node2 -->
<g id="Node000002" class="node">
<title>Node2</title>
<g id="a_Node000002"><a xlink:href="class_fiea_1_1_engine_1_1_actions_1_1_action_loop_increment.html#a149441cb9f9b3527b9d306eaa14fa159" target="_top" xlink:title=" ">
<polygon fill="white" stroke="#666666" points="114.25,-230 0,-230 0,-186 114.25,-186 114.25,-230"/>
<text xml:space="preserve" text-anchor="start" x="8" y="-216.5" font-family="Helvetica,sans-Serif" font-size="10.00">Fiea::Engine::Actions</text>
<text xml:space="preserve" text-anchor="start" x="8" y="-204.5" font-family="Helvetica,sans-Serif" font-size="10.00">::ActionLoopIncrement</text>
<text xml:space="preserve" text-anchor="middle" x="57.13" y="-192.5" font-family="Helvetica,sans-Serif" font-size="10.00">::ActionLoopIncrement</text>
</a>
</g>
</g>
<!-- Node1&#45;&gt;Node2 -->
<g id="edge1_Node000001_Node000002" class="edge">
<title>Node1&#45;&gt;Node2</title>
<g id="a_edge1_Node000001_Node000002"><a xlink:title=" ">
<path fill="none" stroke="#63b8ff" d="M165.38,-143.71C149.6,-154.47 131.28,-166.59 114.25,-177 109.6,-179.84 104.67,-182.74 99.74,-185.55"/>
<polygon fill="#63b8ff" stroke="#63b8ff" points="167.33,-146.62 173.6,-138.07 163.37,-140.85 167.33,-146.62"/>
</a>
</g>
</g>
<!-- Node3 -->
<g id="Node000003" class="node">
<title>Node3</title>
<g id="a_Node000003"><a xlink:href="class_fiea_1_1_engine_1_1_actions_1_1_action_loop_increment.html#a307477d53d4ee314600a239343a1b9f3" target="_top" xlink:title=" ">
<polygon fill="white" stroke="#666666" points="114.25,-168 0,-168 0,-124 114.25,-124 114.25,-168"/>
<text xml:space="preserve" text-anchor="start" x="8" y="-154.5" font-family="Helvetica,sans-Serif" font-size="10.00">Fiea::Engine::Actions</text>
<text xml:space="preserve" text-anchor="start" x="8" y="-142.5" font-family="Helvetica,sans-Serif" font-size="10.00">::ActionLoopIncrement</text>
<text xml:space="preserve" text-anchor="middle" x="57.13" y="-130.5" font-family="Helvetica,sans-Serif" font-size="10.00">::ActionLoopIncrement</text>
</a>
</g>
</g>
<!-- Node1&#45;&gt;Node3 -->
<g id="edge2_Node000001_Node000003" class="edge">
<title>Node1&#45;&gt;Node3</title>
<g id="a_edge2_Node000001_Node000003"><a xlink:title=" ">
<path fill="none" stroke="#63b8ff" d="M138.87,-129.12C130.7,-130.82 122.42,-132.56 114.44,-134.22"/>
<polygon fill="#63b8ff" stroke="#63b8ff" points="139.35,-132.59 148.42,-127.12 137.92,-125.74 139.35,-132.59"/>
</a>
</g>
</g>
<!-- Node4 -->
<g id="Node000004" class="node">
<title>Node4</title>
<g id="a_Node000004"><a xlink:href="class_fiea_1_1_engine_1_1_actions_1_1_action_loop_increment.html#a78a3c5aea436573f6c10a951decae972" target="_top" xlink:title=" ">
<polygon fill="white" stroke="#666666" points="114.25,-106 0,-106 0,-62 114.25,-62 114.25,-106"/>
<text xml:space="preserve" text-anchor="start" x="8" y="-92.5" font-family="Helvetica,sans-Serif" font-size="10.00">Fiea::Engine::Actions</text>
<text xml:space="preserve" text-anchor="start" x="8" y="-80.5" font-family="Helvetica,sans-Serif" font-size="10.00">::ActionLoopIncrement</text>
<text xml:space="preserve" text-anchor="middle" x="57.13" y="-68.5" font-family="Helvetica,sans-Serif" font-size="10.00">::operator=</text>
</a>
</g>
</g>
<!-- Node1&#45;&gt;Node4 -->
<g id="edge3_Node000001_Node000004" class="edge">
<title>Node1&#45;&gt;Node4</title>
<g id="a_edge3_Node000001_Node000004"><a xlink:title=" ">
<path fill="none" stroke="#63b8ff" d="M138.87,-100.88C130.7,-99.18 122.42,-97.44 114.44,-95.78"/>
<polygon fill="#63b8ff" stroke="#63b8ff" points="137.92,-104.26 148.42,-102.88 139.35,-97.41 137.92,-104.26"/>
</a>
</g>
</g>
<!-- Node5 -->
<g id="Node000005" class="node">
<title>Node5</title>
<g id="a_Node000005"><a xlink:href="class_fiea_1_1_engine_1_1_actions_1_1_action_loop_increment.html#ad74302b3a70364fb7c34272e60ba0c6f" target="_top" xlink:title=" ">
<polygon fill="white" stroke="#666666" points="114.25,-44 0,-44 0,0 114.25,0 114.25,-44"/>
<text xml:space="preserve" text-anchor="start" x="8" y="-30.5" font-family="Helvetica,sans-Serif" font-size="10.00">Fiea::Engine::Actions</text>
<text xml:space="preserve" text-anchor="start" x="8" y="-18.5" font-family="Helvetica,sans-Serif" font-size="10.00">::ActionLoopIncrement</text>
<text xml:space="preserve" text-anchor="middle" x="57.13" y="-6.5" font-family="Helvetica,sans-Serif" font-size="10.00">::operator=</text>
</a>
</g>
</g>
<!-- Node1&#45;&gt;Node5 -->
<g id="edge4_Node000001_Node000005" class="edge">
<title>Node1&#45;&gt;Node5</title>
<g id="a_edge4_Node000001_Node000005"><a xlink:title=" ">
<path fill="none" stroke="#63b8ff" d="M165.38,-86.29C149.6,-75.53 131.28,-63.41 114.25,-53 109.6,-50.16 104.67,-47.26 99.74,-44.45"/>
<polygon fill="#63b8ff" stroke="#63b8ff" points="163.37,-89.15 173.6,-91.93 167.33,-83.38 163.37,-89.15"/>
</a>
</g>
</g>
</g>
</svg>
