<?xml version="1.0" encoding="UTF-8" standalone="no"?>
<!DOCTYPE svg PUBLIC "-//W3C//DTD SVG 1.1//EN"
 "http://www.w3.org/Graphics/SVG/1.1/DTD/svg11.dtd">
<!-- Generated by graphviz version 13.1.0 (20250701.0955)
 -->
<!-- Title: Fiea::Engine::List::Iterator::Iterator Pages: 1 -->
<svg width="243pt" height="240pt"
 viewBox="0.00 0.00 243.00 240.00" xmlns="http://www.w3.org/2000/svg" xmlns:xlink="http://www.w3.org/1999/xlink">
<g id="graph0" class="graph" transform="scale(1 1) rotate(0) translate(4 236)">
<title>Fiea::Engine::List::Iterator::Iterator</title>
<!-- Node1 -->
<g id="Node000001" class="node">
<title>Node1</title>
<g id="a_Node000001"><a xlink:title="Constructs an iterator for the list.">
<polygon fill="#999999" stroke="#666666" points="234.5,-132 142,-132 142,-100 234.5,-100 234.5,-132"/>
<text xml:space="preserve" text-anchor="start" x="150" y="-118.5" font-family="Helvetica,sans-Serif" font-size="10.00">Fiea::Engine::List</text>
<text xml:space="preserve" text-anchor="middle" x="188.25" y="-106.5" font-family="Helvetica,sans-Serif" font-size="10.00">::Iterator::Iterator</text>
</a>
</g>
</g>
<!-- Node2 -->
<g id="Node000002" class="node">
<title>Node2</title>
<g id="a_Node000002"><a xlink:href="class_fiea_1_1_engine_1_1_list_1_1_iterator.html#a26b7b2a8ade709adde409e88af3edcd2" target="_top" xlink:title=" ">
<polygon fill="white" stroke="#666666" points="104.5,-232 1.5,-232 1.5,-200 104.5,-200 104.5,-232"/>
<text xml:space="preserve" text-anchor="start" x="9.5" y="-218.5" font-family="Helvetica,sans-Serif" font-size="10.00">Fiea::Engine::List</text>
<text xml:space="preserve" text-anchor="middle" x="53" y="-206.5" font-family="Helvetica,sans-Serif" font-size="10.00">::Iterator::operator!=</text>
</a>
</g>
</g>
<!-- Node1&#45;&gt;Node2 -->
<g id="edge1_Node000001_Node000002" class="edge">
<title>Node1&#45;&gt;Node2</title>
<g id="a_edge1_Node000001_Node000002"><a xlink:title=" ">
<path fill="none" stroke="#63b8ff" d="M164.32,-140.67C148.86,-156.38 127.44,-176.44 106,-191 101.53,-194.04 96.63,-196.91 91.68,-199.55"/>
<polygon fill="#63b8ff" stroke="#63b8ff" points="166.78,-143.16 171.21,-133.54 161.74,-138.3 166.78,-143.16"/>
</a>
</g>
</g>
<!-- Node3 -->
<g id="Node000003" class="node">
<title>Node3</title>
<g id="a_Node000003"><a xlink:href="class_fiea_1_1_engine_1_1_list_1_1_iterator.html#ab3ea994114c26d070c9ed20ee294fa69" target="_top" xlink:title="Postfix increment operator to move to the next node.">
<polygon fill="white" stroke="#666666" points="106,-182 0,-182 0,-150 106,-150 106,-182"/>
<text xml:space="preserve" text-anchor="start" x="8" y="-168.5" font-family="Helvetica,sans-Serif" font-size="10.00">Fiea::Engine::List</text>
<text xml:space="preserve" text-anchor="middle" x="53" y="-156.5" font-family="Helvetica,sans-Serif" font-size="10.00">::Iterator::operator++</text>
</a>
</g>
</g>
<!-- Node1&#45;&gt;Node3 -->
<g id="edge2_Node000001_Node000003" class="edge">
<title>Node1&#45;&gt;Node3</title>
<g id="a_edge2_Node000001_Node000003"><a xlink:title=" ">
<path fill="none" stroke="#63b8ff" d="M133.03,-136.35C121.28,-140.75 109.01,-145.36 97.73,-149.59"/>
<polygon fill="#63b8ff" stroke="#63b8ff" points="134.07,-139.69 142.2,-132.9 131.61,-133.14 134.07,-139.69"/>
</a>
</g>
</g>
<!-- Node4 -->
<g id="Node000004" class="node">
<title>Node4</title>
<g id="a_Node000004"><a xlink:href="class_fiea_1_1_engine_1_1_list_1_1_iterator.html#a5b31d08a945afb306a7ba43713ac15aa" target="_top" xlink:title="Postfix decrement operator to move to the previous node.">
<polygon fill="white" stroke="#666666" points="103,-132 3,-132 3,-100 103,-100 103,-132"/>
<text xml:space="preserve" text-anchor="start" x="11" y="-118.5" font-family="Helvetica,sans-Serif" font-size="10.00">Fiea::Engine::List</text>
<text xml:space="preserve" text-anchor="middle" x="53" y="-106.5" font-family="Helvetica,sans-Serif" font-size="10.00">::Iterator::operator&#45;&#45;</text>
</a>
</g>
</g>
<!-- Node1&#45;&gt;Node4 -->
<g id="edge3_Node000001_Node000004" class="edge">
<title>Node1&#45;&gt;Node4</title>
<g id="a_edge3_Node000001_Node000004"><a xlink:title=" ">
<path fill="none" stroke="#63b8ff" d="M130.52,-116C121.49,-116 112.22,-116 103.38,-116"/>
<polygon fill="#63b8ff" stroke="#63b8ff" points="130.25,-119.5 140.25,-116 130.25,-112.5 130.25,-119.5"/>
</a>
</g>
</g>
<!-- Node5 -->
<g id="Node000005" class="node">
<title>Node5</title>
<g id="a_Node000005"><a xlink:href="class_fiea_1_1_engine_1_1_list_1_1_iterator.html#ab73342db87a6aff2604f4b69dcf71f21" target="_top" xlink:title="Assignment operator to copy another iterator.">
<polygon fill="white" stroke="#666666" points="103,-82 3,-82 3,-50 103,-50 103,-82"/>
<text xml:space="preserve" text-anchor="start" x="11" y="-68.5" font-family="Helvetica,sans-Serif" font-size="10.00">Fiea::Engine::List</text>
<text xml:space="preserve" text-anchor="middle" x="53" y="-56.5" font-family="Helvetica,sans-Serif" font-size="10.00">::Iterator::operator=</text>
</a>
</g>
</g>
<!-- Node1&#45;&gt;Node5 -->
<g id="edge4_Node000001_Node000005" class="edge">
<title>Node1&#45;&gt;Node5</title>
<g id="a_edge4_Node000001_Node000005"><a xlink:title=" ">
<path fill="none" stroke="#63b8ff" d="M133.03,-95.65C121.28,-91.25 109.01,-86.64 97.73,-82.41"/>
<polygon fill="#63b8ff" stroke="#63b8ff" points="131.61,-98.86 142.2,-99.1 134.07,-92.31 131.61,-98.86"/>
</a>
</g>
</g>
<!-- Node6 -->
<g id="Node000006" class="node">
<title>Node6</title>
<g id="a_Node000006"><a xlink:href="class_fiea_1_1_engine_1_1_list_1_1_iterator.html#a4d0b9f366cb1965016706c999fddfbc4" target="_top" xlink:title=" ">
<polygon fill="white" stroke="#666666" points="106,-32 0,-32 0,0 106,0 106,-32"/>
<text xml:space="preserve" text-anchor="start" x="8" y="-18.5" font-family="Helvetica,sans-Serif" font-size="10.00">Fiea::Engine::List</text>
<text xml:space="preserve" text-anchor="middle" x="53" y="-6.5" font-family="Helvetica,sans-Serif" font-size="10.00">::Iterator::operator==</text>
</a>
</g>
</g>
<!-- Node1&#45;&gt;Node6 -->
<g id="edge5_Node000001_Node000006" class="edge">
<title>Node1&#45;&gt;Node6</title>
<g id="a_edge5_Node000001_Node000006"><a xlink:title=" ">
<path fill="none" stroke="#63b8ff" d="M164.32,-91.33C148.86,-75.62 127.44,-55.56 106,-41 101.53,-37.96 96.63,-35.09 91.68,-32.45"/>
<polygon fill="#63b8ff" stroke="#63b8ff" points="161.74,-93.7 171.21,-98.46 166.78,-88.84 161.74,-93.7"/>
</a>
</g>
</g>
</g>
</svg>
