<?xml version="1.0" encoding="UTF-8" standalone="no"?>
<!DOCTYPE svg PUBLIC "-//W3C//DTD SVG 1.1//EN"
 "http://www.w3.org/Graphics/SVG/1.1/DTD/svg11.dtd">
<!-- Generated by graphviz version 13.1.0 (20250701.0955)
 -->
<!-- Title: Fiea::Engine::RTTI Pages: 1 -->
<svg width="939pt" height="590pt"
 viewBox="0.00 0.00 939.00 590.00" xmlns="http://www.w3.org/2000/svg" xmlns:xlink="http://www.w3.org/1999/xlink">
<g id="graph0" class="graph" transform="scale(1 1) rotate(0) translate(4 586)">
<title>Fiea::Engine::RTTI</title>
<!-- Node1 -->
<g id="Node000001" class="node">
<title>Node1</title>
<g id="a_Node000001"><a xlink:title=" ">
<polygon fill="#999999" stroke="#666666" points="98.5,-126 0,-126 0,-106 98.5,-106 98.5,-126"/>
<text xml:space="preserve" text-anchor="middle" x="49.25" y="-112.5" font-family="Helvetica,sans-Serif" font-size="10.00">Fiea::Engine::RTTI</text>
</a>
</g>
</g>
<!-- Node2 -->
<g id="Node000002" class="node">
<title>Node2</title>
<g id="a_Node000002"><a xlink:href="struct_fiea_1_1_engine_1_1_content_1_1_i_factory_base.html" target="_top" xlink:title=" ">
<polygon fill="white" stroke="#666666" points="245.75,-257 134.5,-257 134.5,-225 245.75,-225 245.75,-257"/>
<text xml:space="preserve" text-anchor="start" x="142.5" y="-243.5" font-family="Helvetica,sans-Serif" font-size="10.00">Fiea::Engine::Content</text>
<text xml:space="preserve" text-anchor="middle" x="190.12" y="-231.5" font-family="Helvetica,sans-Serif" font-size="10.00">::IFactoryBase</text>
</a>
</g>
</g>
<!-- Node1&#45;&gt;Node2 -->
<g id="edge1_Node000001_Node000002" class="edge">
<title>Node1&#45;&gt;Node2</title>
<g id="a_edge1_Node000001_Node000002"><a xlink:title=" ">
<path fill="none" stroke="#63b8ff" d="M69.89,-133.68C96.89,-157.98 145.05,-201.33 171.14,-224.81"/>
<polygon fill="#63b8ff" stroke="#63b8ff" points="72.51,-131.33 62.74,-127.24 67.83,-136.53 72.51,-131.33"/>
</a>
</g>
</g>
<!-- Node4 -->
<g id="Node000004" class="node">
<title>Node4</title>
<g id="a_Node000004"><a xlink:href="class_fiea_1_1_engine_1_1_content_1_1_parse_writer.html" target="_top" xlink:title=" ">
<polygon fill="white" stroke="#666666" points="245.75,-182 134.5,-182 134.5,-150 245.75,-150 245.75,-182"/>
<text xml:space="preserve" text-anchor="start" x="142.5" y="-168.5" font-family="Helvetica,sans-Serif" font-size="10.00">Fiea::Engine::Content</text>
<text xml:space="preserve" text-anchor="middle" x="190.12" y="-156.5" font-family="Helvetica,sans-Serif" font-size="10.00">::ParseWriter</text>
</a>
</g>
</g>
<!-- Node1&#45;&gt;Node4 -->
<g id="edge3_Node000001_Node000004" class="edge">
<title>Node1&#45;&gt;Node4</title>
<g id="a_edge3_Node000001_Node000004"><a xlink:title=" ">
<path fill="none" stroke="#63b8ff" d="M89.87,-130.26C106.56,-136.27 126.08,-143.3 143.38,-149.53"/>
<polygon fill="#63b8ff" stroke="#63b8ff" points="91.38,-127.09 80.79,-126.99 89.01,-133.67 91.38,-127.09"/>
</a>
</g>
</g>
<!-- Node7 -->
<g id="Node000007" class="node">
<title>Node7</title>
<g id="a_Node000007"><a xlink:href="class_fiea_1_1_engine_1_1_content_1_1_scope.html" target="_top" xlink:title=" ">
<polygon fill="white" stroke="#666666" points="245.75,-132 134.5,-132 134.5,-100 245.75,-100 245.75,-132"/>
<text xml:space="preserve" text-anchor="start" x="142.5" y="-118.5" font-family="Helvetica,sans-Serif" font-size="10.00">Fiea::Engine::Content</text>
<text xml:space="preserve" text-anchor="middle" x="190.12" y="-106.5" font-family="Helvetica,sans-Serif" font-size="10.00">::Scope</text>
</a>
</g>
</g>
<!-- Node1&#45;&gt;Node7 -->
<g id="edge6_Node000001_Node000007" class="edge">
<title>Node1&#45;&gt;Node7</title>
<g id="a_edge6_Node000001_Node000007"><a xlink:title=" ">
<path fill="none" stroke="#63b8ff" d="M110.28,-116C118.22,-116 126.32,-116 134.17,-116"/>
<polygon fill="#63b8ff" stroke="#63b8ff" points="110.34,-112.5 100.34,-116 110.34,-119.5 110.34,-112.5"/>
</a>
</g>
</g>
<!-- Node26 -->
<g id="Node000026" class="node">
<title>Node26</title>
<g id="a_Node000026"><a xlink:href="class_fiea_1_1_engine_1_1_tests_1_1_support_1_1_empty.html" target="_top" xlink:title=" ">
<polygon fill="white" stroke="#666666" points="240.5,-82 139.75,-82 139.75,-50 240.5,-50 240.5,-82"/>
<text xml:space="preserve" text-anchor="start" x="147.75" y="-68.5" font-family="Helvetica,sans-Serif" font-size="10.00">Fiea::Engine::Tests</text>
<text xml:space="preserve" text-anchor="middle" x="190.12" y="-56.5" font-family="Helvetica,sans-Serif" font-size="10.00">::Support::Empty</text>
</a>
</g>
</g>
<!-- Node1&#45;&gt;Node26 -->
<g id="edge25_Node000001_Node000026" class="edge">
<title>Node1&#45;&gt;Node26</title>
<g id="a_edge25_Node000001_Node000026"><a xlink:title=" ">
<path fill="none" stroke="#63b8ff" d="M89.87,-101.74C106.56,-95.73 126.08,-88.7 143.38,-82.47"/>
<polygon fill="#63b8ff" stroke="#63b8ff" points="89.01,-98.33 80.79,-105.01 91.38,-104.91 89.01,-98.33"/>
</a>
</g>
</g>
<!-- Node28 -->
<g id="Node000028" class="node">
<title>Node28</title>
<g id="a_Node000028"><a xlink:href="class_fiea_1_1_engine_1_1_tests_1_1_support_1_1_foo.html" target="_top" xlink:title=" ">
<polygon fill="white" stroke="#666666" points="240.5,-32 139.75,-32 139.75,0 240.5,0 240.5,-32"/>
<text xml:space="preserve" text-anchor="start" x="147.75" y="-18.5" font-family="Helvetica,sans-Serif" font-size="10.00">Fiea::Engine::Tests</text>
<text xml:space="preserve" text-anchor="middle" x="190.12" y="-6.5" font-family="Helvetica,sans-Serif" font-size="10.00">::Support::Foo</text>
</a>
</g>
</g>
<!-- Node1&#45;&gt;Node28 -->
<g id="edge27_Node000001_Node000028" class="edge">
<title>Node1&#45;&gt;Node28</title>
<g id="a_edge27_Node000001_Node000028"><a xlink:title=" ">
<path fill="none" stroke="#63b8ff" d="M67.83,-97.48C84.03,-81.14 109.32,-57.44 134.5,-41 139.22,-37.92 144.37,-35.03 149.58,-32.38"/>
<polygon fill="#63b8ff" stroke="#63b8ff" points="65.34,-95.02 60.87,-104.62 70.36,-99.9 65.34,-95.02"/>
</a>
</g>
</g>
<!-- Node3 -->
<g id="Node000003" class="node">
<title>Node3</title>
<g id="a_Node000003"><a xlink:href="struct_fiea_1_1_engine_1_1_content_1_1_i_abstract_factory.html" target="_top" xlink:title=" ">
<polygon fill="white" stroke="#666666" points="438,-282 281.75,-282 281.75,-250 438,-250 438,-282"/>
<text xml:space="preserve" text-anchor="start" x="289.75" y="-268.5" font-family="Helvetica,sans-Serif" font-size="10.00">Fiea::Engine::Content</text>
<text xml:space="preserve" text-anchor="middle" x="359.88" y="-256.5" font-family="Helvetica,sans-Serif" font-size="10.00">::IAbstractFactory&lt; BaseType &gt;</text>
</a>
</g>
</g>
<!-- Node2&#45;&gt;Node3 -->
<g id="edge2_Node000002_Node000003" class="edge">
<title>Node2&#45;&gt;Node3</title>
<g id="a_edge2_Node000002_Node000003"><a xlink:title=" ">
<path fill="none" stroke="#63b8ff" d="M257.37,-250.87C265.23,-252.04 273.3,-253.25 281.3,-254.44"/>
<polygon fill="#63b8ff" stroke="#63b8ff" points="257.96,-247.42 247.55,-249.41 256.92,-254.34 257.96,-247.42"/>
</a>
</g>
</g>
<!-- Node5 -->
<g id="Node000005" class="node">
<title>Node5</title>
<g id="a_Node000005"><a xlink:href="class_fiea_1_1_engine_1_1_content_1_1_scope_writer.html" target="_top" xlink:title=" ">
<polygon fill="white" stroke="#666666" points="415.5,-232 304.25,-232 304.25,-200 415.5,-200 415.5,-232"/>
<text xml:space="preserve" text-anchor="start" x="312.25" y="-218.5" font-family="Helvetica,sans-Serif" font-size="10.00">Fiea::Engine::Content</text>
<text xml:space="preserve" text-anchor="middle" x="359.88" y="-206.5" font-family="Helvetica,sans-Serif" font-size="10.00">::ScopeWriter</text>
</a>
</g>
</g>
<!-- Node4&#45;&gt;Node5 -->
<g id="edge4_Node000004_Node000005" class="edge">
<title>Node4&#45;&gt;Node5</title>
<g id="a_edge4_Node000004_Node000005"><a xlink:title=" ">
<path fill="none" stroke="#63b8ff" d="M256.68,-185.54C272.27,-190.19 288.75,-195.1 303.82,-199.59"/>
<polygon fill="#63b8ff" stroke="#63b8ff" points="258.09,-182.31 247.5,-182.8 256.09,-189.01 258.09,-182.31"/>
</a>
</g>
</g>
<!-- Node6 -->
<g id="Node000006" class="node">
<title>Node6</title>
<g id="a_Node000006"><a xlink:href="class_fiea_1_1_engine_1_1_content_1_1_test_writer.html" target="_top" xlink:title=" ">
<polygon fill="white" stroke="#666666" points="415.5,-182 304.25,-182 304.25,-150 415.5,-150 415.5,-182"/>
<text xml:space="preserve" text-anchor="start" x="312.25" y="-168.5" font-family="Helvetica,sans-Serif" font-size="10.00">Fiea::Engine::Content</text>
<text xml:space="preserve" text-anchor="middle" x="359.88" y="-156.5" font-family="Helvetica,sans-Serif" font-size="10.00">::TestWriter</text>
</a>
</g>
</g>
<!-- Node4&#45;&gt;Node6 -->
<g id="edge5_Node000004_Node000006" class="edge">
<title>Node4&#45;&gt;Node6</title>
<g id="a_edge5_Node000004_Node000006"><a xlink:title=" ">
<path fill="none" stroke="#63b8ff" d="M257.13,-166C272.59,-166 288.9,-166 303.82,-166"/>
<polygon fill="#63b8ff" stroke="#63b8ff" points="257.57,-162.5 247.57,-166 257.57,-169.5 257.57,-162.5"/>
</a>
</g>
</g>
<!-- Node8 -->
<g id="Node000008" class="node">
<title>Node8</title>
<g id="a_Node000008"><a xlink:href="class_fiea_1_1_engine_1_1_content_1_1_attributed.html" target="_top" xlink:title=" ">
<polygon fill="white" stroke="#666666" points="415.5,-132 304.25,-132 304.25,-100 415.5,-100 415.5,-132"/>
<text xml:space="preserve" text-anchor="start" x="312.25" y="-118.5" font-family="Helvetica,sans-Serif" font-size="10.00">Fiea::Engine::Content</text>
<text xml:space="preserve" text-anchor="middle" x="359.88" y="-106.5" font-family="Helvetica,sans-Serif" font-size="10.00">::Attributed</text>
</a>
</g>
</g>
<!-- Node7&#45;&gt;Node8 -->
<g id="edge7_Node000007_Node000008" class="edge">
<title>Node7&#45;&gt;Node8</title>
<g id="a_edge7_Node000007_Node000008"><a xlink:title=" ">
<path fill="none" stroke="#63b8ff" d="M257.13,-116C272.59,-116 288.9,-116 303.82,-116"/>
<polygon fill="#63b8ff" stroke="#63b8ff" points="257.57,-112.5 247.57,-116 257.57,-119.5 257.57,-112.5"/>
</a>
</g>
</g>
<!-- Node9 -->
<g id="Node000009" class="node">
<title>Node9</title>
<g id="a_Node000009"><a xlink:href="class_fiea_1_1_engine_1_1_actions_1_1_action.html" target="_top" xlink:title=" ">
<polygon fill="white" stroke="#666666" points="594.62,-357 484.88,-357 484.88,-325 594.62,-325 594.62,-357"/>
<text xml:space="preserve" text-anchor="start" x="492.88" y="-343.5" font-family="Helvetica,sans-Serif" font-size="10.00">Fiea::Engine::Actions</text>
<text xml:space="preserve" text-anchor="middle" x="539.75" y="-331.5" font-family="Helvetica,sans-Serif" font-size="10.00">::Action</text>
</a>
</g>
</g>
<!-- Node8&#45;&gt;Node9 -->
<g id="edge8_Node000008_Node000009" class="edge">
<title>Node8&#45;&gt;Node9</title>
<g id="a_edge8_Node000008_Node000009"><a xlink:title=" ">
<path fill="none" stroke="#63b8ff" d="M425.97,-132.7C430.26,-135.11 434.33,-137.86 438,-141 497.47,-191.99 525.74,-286.62 535.08,-324.6"/>
<polygon fill="#63b8ff" stroke="#63b8ff" points="427.49,-129.55 416.97,-128.35 424.45,-135.85 427.49,-129.55"/>
</a>
</g>
</g>
<!-- Node22 -->
<g id="Node000022" class="node">
<title>Node22</title>
<g id="a_Node000022"><a xlink:href="class_fiea_1_1_engine_1_1_game_object.html" target="_top" xlink:title=" ">
<polygon fill="white" stroke="#666666" points="605.5,-126 474,-126 474,-106 605.5,-106 605.5,-126"/>
<text xml:space="preserve" text-anchor="middle" x="539.75" y="-112.5" font-family="Helvetica,sans-Serif" font-size="10.00">Fiea::Engine::GameObject</text>
</a>
</g>
</g>
<!-- Node8&#45;&gt;Node22 -->
<g id="edge21_Node000008_Node000022" class="edge">
<title>Node8&#45;&gt;Node22</title>
<g id="a_edge21_Node000008_Node000022"><a xlink:title=" ">
<path fill="none" stroke="#63b8ff" d="M427.14,-116C442.4,-116 458.61,-116 473.81,-116"/>
<polygon fill="#63b8ff" stroke="#63b8ff" points="427.21,-112.5 417.21,-116 427.21,-119.5 427.21,-112.5"/>
</a>
</g>
</g>
<!-- Node24 -->
<g id="Node000024" class="node">
<title>Node24</title>
<g id="a_Node000024"><a xlink:href="class_fiea_1_1_engine_1_1_tests_1_1_support_1_1_attribute_box.html" target="_top" xlink:title=" ">
<polygon fill="white" stroke="#666666" points="597.62,-85 481.88,-85 481.88,-53 597.62,-53 597.62,-85"/>
<text xml:space="preserve" text-anchor="start" x="489.88" y="-71.5" font-family="Helvetica,sans-Serif" font-size="10.00">Fiea::Engine::Tests</text>
<text xml:space="preserve" text-anchor="middle" x="539.75" y="-59.5" font-family="Helvetica,sans-Serif" font-size="10.00">::Support::AttributeBox</text>
</a>
</g>
</g>
<!-- Node8&#45;&gt;Node24 -->
<g id="edge23_Node000008_Node000024" class="edge">
<title>Node8&#45;&gt;Node24</title>
<g id="a_edge23_Node000008_Node000024"><a xlink:title=" ">
<path fill="none" stroke="#63b8ff" d="M426.72,-98.6C444.75,-93.84 464.15,-88.71 481.65,-84.09"/>
<polygon fill="#63b8ff" stroke="#63b8ff" points="425.93,-95.19 417.16,-101.13 427.72,-101.96 425.93,-95.19"/>
</a>
</g>
</g>
<!-- Node10 -->
<g id="Node000010" class="node">
<title>Node10</title>
<g id="a_Node000010"><a xlink:href="class_fiea_1_1_engine_1_1_actions_1_1_action_add_datum.html" target="_top" xlink:title=" ">
<polygon fill="white" stroke="#666666" points="767.38,-582 657.62,-582 657.62,-550 767.38,-550 767.38,-582"/>
<text xml:space="preserve" text-anchor="start" x="665.62" y="-568.5" font-family="Helvetica,sans-Serif" font-size="10.00">Fiea::Engine::Actions</text>
<text xml:space="preserve" text-anchor="middle" x="712.5" y="-556.5" font-family="Helvetica,sans-Serif" font-size="10.00">::ActionAddDatum</text>
</a>
</g>
</g>
<!-- Node9&#45;&gt;Node10 -->
<g id="edge9_Node000009_Node000010" class="edge">
<title>Node9&#45;&gt;Node10</title>
<g id="a_edge9_Node000009_Node000010"><a xlink:title=" ">
<path fill="none" stroke="#63b8ff" d="M547.42,-368.19C559.24,-410.87 587.83,-493.59 641.5,-541 646.14,-545.1 651.5,-548.54 657.15,-551.43"/>
<polygon fill="#63b8ff" stroke="#63b8ff" points="550.86,-367.51 544.91,-358.74 544.09,-369.31 550.86,-367.51"/>
</a>
</g>
</g>
<!-- Node11 -->
<g id="Node000011" class="node">
<title>Node11</title>
<g id="a_Node000011"><a xlink:href="class_fiea_1_1_engine_1_1_actions_1_1_action_condition.html" target="_top" xlink:title=" ">
<polygon fill="white" stroke="#666666" points="767.38,-532 657.62,-532 657.62,-500 767.38,-500 767.38,-532"/>
<text xml:space="preserve" text-anchor="start" x="665.62" y="-518.5" font-family="Helvetica,sans-Serif" font-size="10.00">Fiea::Engine::Actions</text>
<text xml:space="preserve" text-anchor="middle" x="712.5" y="-506.5" font-family="Helvetica,sans-Serif" font-size="10.00">::ActionCondition</text>
</a>
</g>
</g>
<!-- Node9&#45;&gt;Node11 -->
<g id="edge10_Node000009_Node000011" class="edge">
<title>Node9&#45;&gt;Node11</title>
<g id="a_edge10_Node000009_Node000011"><a xlink:title=" ">
<path fill="none" stroke="#63b8ff" d="M552.04,-367.34C567.57,-400.63 598.57,-457.6 641.5,-491 646.29,-494.72 651.68,-497.92 657.28,-500.67"/>
<polygon fill="#63b8ff" stroke="#63b8ff" points="555.31,-366.07 547.99,-358.41 548.93,-368.96 555.31,-366.07"/>
</a>
</g>
</g>
<!-- Node12 -->
<g id="Node000012" class="node">
<title>Node12</title>
<g id="a_Node000012"><a xlink:href="class_fiea_1_1_engine_1_1_actions_1_1_action_conditional_increment.html" target="_top" xlink:title=" ">
<polygon fill="white" stroke="#666666" points="783.5,-482 641.5,-482 641.5,-450 783.5,-450 783.5,-482"/>
<text xml:space="preserve" text-anchor="start" x="649.5" y="-468.5" font-family="Helvetica,sans-Serif" font-size="10.00">Fiea::Engine::Actions</text>
<text xml:space="preserve" text-anchor="middle" x="712.5" y="-456.5" font-family="Helvetica,sans-Serif" font-size="10.00">::ActionConditionalIncrement</text>
</a>
</g>
</g>
<!-- Node9&#45;&gt;Node12 -->
<g id="edge11_Node000009_Node000012" class="edge">
<title>Node9&#45;&gt;Node12</title>
<g id="a_edge11_Node000009_Node000012"><a xlink:title=" ">
<path fill="none" stroke="#63b8ff" d="M560.45,-366.04C579.19,-388.4 609.25,-420.67 641.5,-441 646.52,-444.16 652,-447 657.61,-449.52"/>
<polygon fill="#63b8ff" stroke="#63b8ff" points="563.38,-364.1 554.33,-358.59 557.97,-368.54 563.38,-364.1"/>
</a>
</g>
</g>
<!-- Node13 -->
<g id="Node000013" class="node">
<title>Node13</title>
<g id="a_Node000013"><a xlink:href="class_fiea_1_1_engine_1_1_actions_1_1_action_decrement.html" target="_top" xlink:title=" ">
<polygon fill="white" stroke="#666666" points="767.38,-432 657.62,-432 657.62,-400 767.38,-400 767.38,-432"/>
<text xml:space="preserve" text-anchor="start" x="665.62" y="-418.5" font-family="Helvetica,sans-Serif" font-size="10.00">Fiea::Engine::Actions</text>
<text xml:space="preserve" text-anchor="middle" x="712.5" y="-406.5" font-family="Helvetica,sans-Serif" font-size="10.00">::ActionDecrement</text>
</a>
</g>
</g>
<!-- Node9&#45;&gt;Node13 -->
<g id="edge12_Node000009_Node000013" class="edge">
<title>Node9&#45;&gt;Node13</title>
<g id="a_edge12_Node000009_Node000013"><a xlink:title=" ">
<path fill="none" stroke="#63b8ff" d="M581.41,-362.54C599.57,-371.8 621.37,-382.45 641.5,-391 648.39,-393.93 655.75,-396.81 663.01,-399.52"/>
<polygon fill="#63b8ff" stroke="#63b8ff" points="583.02,-359.43 572.52,-357.96 579.81,-365.65 583.02,-359.43"/>
</a>
</g>
</g>
<!-- Node14 -->
<g id="Node000014" class="node">
<title>Node14</title>
<g id="a_Node000014"><a xlink:href="class_fiea_1_1_engine_1_1_actions_1_1_action_increment.html" target="_top" xlink:title=" ">
<polygon fill="white" stroke="#666666" points="767.38,-382 657.62,-382 657.62,-350 767.38,-350 767.38,-382"/>
<text xml:space="preserve" text-anchor="start" x="665.62" y="-368.5" font-family="Helvetica,sans-Serif" font-size="10.00">Fiea::Engine::Actions</text>
<text xml:space="preserve" text-anchor="middle" x="712.5" y="-356.5" font-family="Helvetica,sans-Serif" font-size="10.00">::ActionIncrement</text>
</a>
</g>
</g>
<!-- Node9&#45;&gt;Node14 -->
<g id="edge13_Node000009_Node000014" class="edge">
<title>Node9&#45;&gt;Node14</title>
<g id="a_edge13_Node000009_Node000014"><a xlink:title=" ">
<path fill="none" stroke="#63b8ff" d="M605.75,-350.52C622.74,-353 640.87,-355.66 657.24,-358.06"/>
<polygon fill="#63b8ff" stroke="#63b8ff" points="606.68,-347.12 596.27,-349.13 605.66,-354.04 606.68,-347.12"/>
</a>
</g>
</g>
<!-- Node15 -->
<g id="Node000015" class="node">
<title>Node15</title>
<g id="a_Node000015"><a xlink:href="class_fiea_1_1_engine_1_1_actions_1_1_action_list.html" target="_top" xlink:title=" ">
<polygon fill="white" stroke="#666666" points="767.38,-332 657.62,-332 657.62,-300 767.38,-300 767.38,-332"/>
<text xml:space="preserve" text-anchor="start" x="665.62" y="-318.5" font-family="Helvetica,sans-Serif" font-size="10.00">Fiea::Engine::Actions</text>
<text xml:space="preserve" text-anchor="middle" x="712.5" y="-306.5" font-family="Helvetica,sans-Serif" font-size="10.00">::ActionList</text>
</a>
</g>
</g>
<!-- Node9&#45;&gt;Node15 -->
<g id="edge14_Node000009_Node000015" class="edge">
<title>Node9&#45;&gt;Node15</title>
<g id="a_edge14_Node000009_Node000015"><a xlink:title=" ">
<path fill="none" stroke="#63b8ff" d="M605.75,-331.48C622.74,-329 640.87,-326.34 657.24,-323.94"/>
<polygon fill="#63b8ff" stroke="#63b8ff" points="605.66,-327.96 596.27,-332.87 606.68,-334.88 605.66,-327.96"/>
</a>
</g>
</g>
<!-- Node19 -->
<g id="Node000019" class="node">
<title>Node19</title>
<g id="a_Node000019"><a xlink:href="class_fiea_1_1_engine_1_1_actions_1_1_action_loop_increment.html" target="_top" xlink:title=" ">
<polygon fill="white" stroke="#666666" points="769.62,-282 655.38,-282 655.38,-250 769.62,-250 769.62,-282"/>
<text xml:space="preserve" text-anchor="start" x="663.38" y="-268.5" font-family="Helvetica,sans-Serif" font-size="10.00">Fiea::Engine::Actions</text>
<text xml:space="preserve" text-anchor="middle" x="712.5" y="-256.5" font-family="Helvetica,sans-Serif" font-size="10.00">::ActionLoopIncrement</text>
</a>
</g>
</g>
<!-- Node9&#45;&gt;Node19 -->
<g id="edge18_Node000009_Node000019" class="edge">
<title>Node9&#45;&gt;Node19</title>
<g id="a_edge18_Node000009_Node000019"><a xlink:title=" ">
<path fill="none" stroke="#63b8ff" d="M581.41,-319.46C599.57,-310.2 621.37,-299.55 641.5,-291 648.39,-288.07 655.75,-285.19 663.01,-282.48"/>
<polygon fill="#63b8ff" stroke="#63b8ff" points="579.81,-316.35 572.52,-324.04 583.02,-322.57 579.81,-316.35"/>
</a>
</g>
</g>
<!-- Node20 -->
<g id="Node000020" class="node">
<title>Node20</title>
<g id="a_Node000020"><a xlink:href="class_fiea_1_1_engine_1_1_actions_1_1_action_output.html" target="_top" xlink:title=" ">
<polygon fill="white" stroke="#666666" points="767.38,-232 657.62,-232 657.62,-200 767.38,-200 767.38,-232"/>
<text xml:space="preserve" text-anchor="start" x="665.62" y="-218.5" font-family="Helvetica,sans-Serif" font-size="10.00">Fiea::Engine::Actions</text>
<text xml:space="preserve" text-anchor="middle" x="712.5" y="-206.5" font-family="Helvetica,sans-Serif" font-size="10.00">::ActionOutput</text>
</a>
</g>
</g>
<!-- Node9&#45;&gt;Node20 -->
<g id="edge19_Node000009_Node000020" class="edge">
<title>Node9&#45;&gt;Node20</title>
<g id="a_edge19_Node000009_Node000020"><a xlink:title=" ">
<path fill="none" stroke="#63b8ff" d="M560.45,-315.96C579.19,-293.6 609.25,-261.33 641.5,-241 646.52,-237.84 652,-235 657.61,-232.48"/>
<polygon fill="#63b8ff" stroke="#63b8ff" points="557.97,-313.46 554.33,-323.41 563.38,-317.9 557.97,-313.46"/>
</a>
</g>
</g>
<!-- Node21 -->
<g id="Node000021" class="node">
<title>Node21</title>
<g id="a_Node000021"><a xlink:href="class_fiea_1_1_engine_1_1_actions_1_1_action_preamble.html" target="_top" xlink:title=" ">
<polygon fill="white" stroke="#666666" points="767.38,-182 657.62,-182 657.62,-150 767.38,-150 767.38,-182"/>
<text xml:space="preserve" text-anchor="start" x="665.62" y="-168.5" font-family="Helvetica,sans-Serif" font-size="10.00">Fiea::Engine::Actions</text>
<text xml:space="preserve" text-anchor="middle" x="712.5" y="-156.5" font-family="Helvetica,sans-Serif" font-size="10.00">::ActionPreamble</text>
</a>
</g>
</g>
<!-- Node9&#45;&gt;Node21 -->
<g id="edge20_Node000009_Node000021" class="edge">
<title>Node9&#45;&gt;Node21</title>
<g id="a_edge20_Node000009_Node000021"><a xlink:title=" ">
<path fill="none" stroke="#63b8ff" d="M552.04,-314.66C567.57,-281.37 598.57,-224.4 641.5,-191 646.29,-187.28 651.68,-184.08 657.28,-181.33"/>
<polygon fill="#63b8ff" stroke="#63b8ff" points="548.93,-313.04 547.99,-323.59 555.31,-315.93 548.93,-313.04"/>
</a>
</g>
</g>
<!-- Node16 -->
<g id="Node000016" class="node">
<title>Node16</title>
<g id="a_Node000016"><a xlink:href="class_fiea_1_1_engine_1_1_actions_1_1_action_delayed.html" target="_top" xlink:title=" ">
<polygon fill="white" stroke="#666666" points="930,-382 820.25,-382 820.25,-350 930,-350 930,-382"/>
<text xml:space="preserve" text-anchor="start" x="828.25" y="-368.5" font-family="Helvetica,sans-Serif" font-size="10.00">Fiea::Engine::Actions</text>
<text xml:space="preserve" text-anchor="middle" x="875.12" y="-356.5" font-family="Helvetica,sans-Serif" font-size="10.00">::ActionDelayed</text>
</a>
</g>
</g>
<!-- Node15&#45;&gt;Node16 -->
<g id="edge15_Node000015_Node000016" class="edge">
<title>Node15&#45;&gt;Node16</title>
<g id="a_edge15_Node000015_Node000016"><a xlink:title=" ">
<path fill="none" stroke="#63b8ff" d="M777.07,-335.79C791.67,-340.33 807.04,-345.12 821.14,-349.51"/>
<polygon fill="#63b8ff" stroke="#63b8ff" points="778.13,-332.45 767.54,-332.82 776.05,-339.14 778.13,-332.45"/>
</a>
</g>
</g>
<!-- Node17 -->
<g id="Node000017" class="node">
<title>Node17</title>
<g id="a_Node000017"><a xlink:href="class_fiea_1_1_engine_1_1_actions_1_1_action_list_while_loop.html" target="_top" xlink:title=" ">
<polygon fill="white" stroke="#666666" points="930.75,-332 819.5,-332 819.5,-300 930.75,-300 930.75,-332"/>
<text xml:space="preserve" text-anchor="start" x="827.5" y="-318.5" font-family="Helvetica,sans-Serif" font-size="10.00">Fiea::Engine::Actions</text>
<text xml:space="preserve" text-anchor="middle" x="875.12" y="-306.5" font-family="Helvetica,sans-Serif" font-size="10.00">::ActionListWhileLoop</text>
</a>
</g>
</g>
<!-- Node15&#45;&gt;Node17 -->
<g id="edge16_Node000015_Node000017" class="edge">
<title>Node15&#45;&gt;Node17</title>
<g id="a_edge16_Node000015_Node000017"><a xlink:title=" ">
<path fill="none" stroke="#63b8ff" d="M778.59,-316C792.08,-316 806.16,-316 819.24,-316"/>
<polygon fill="#63b8ff" stroke="#63b8ff" points="778.95,-312.5 768.95,-316 778.95,-319.5 778.95,-312.5"/>
</a>
</g>
</g>
<!-- Node18 -->
<g id="Node000018" class="node">
<title>Node18</title>
<g id="a_Node000018"><a xlink:href="class_fiea_1_1_engine_1_1_actions_1_1_action_timed.html" target="_top" xlink:title=" ">
<polygon fill="white" stroke="#666666" points="930,-282 820.25,-282 820.25,-250 930,-250 930,-282"/>
<text xml:space="preserve" text-anchor="start" x="828.25" y="-268.5" font-family="Helvetica,sans-Serif" font-size="10.00">Fiea::Engine::Actions</text>
<text xml:space="preserve" text-anchor="middle" x="875.12" y="-256.5" font-family="Helvetica,sans-Serif" font-size="10.00">::ActionTimed</text>
</a>
</g>
</g>
<!-- Node15&#45;&gt;Node18 -->
<g id="edge17_Node000015_Node000018" class="edge">
<title>Node15&#45;&gt;Node18</title>
<g id="a_edge17_Node000015_Node000018"><a xlink:title=" ">
<path fill="none" stroke="#63b8ff" d="M777.07,-296.21C791.67,-291.67 807.04,-286.88 821.14,-282.49"/>
<polygon fill="#63b8ff" stroke="#63b8ff" points="776.05,-292.86 767.54,-299.18 778.13,-299.55 776.05,-292.86"/>
</a>
</g>
</g>
<!-- Node23 -->
<g id="Node000023" class="node">
<title>Node23</title>
<g id="a_Node000023"><a xlink:href="class_fiea_1_1_engine_1_1_tests_1_1_test_game_object.html" target="_top" xlink:title=" ">
<polygon fill="white" stroke="#666666" points="762.88,-132 662.12,-132 662.12,-100 762.88,-100 762.88,-132"/>
<text xml:space="preserve" text-anchor="start" x="670.12" y="-118.5" font-family="Helvetica,sans-Serif" font-size="10.00">Fiea::Engine::Tests</text>
<text xml:space="preserve" text-anchor="middle" x="712.5" y="-106.5" font-family="Helvetica,sans-Serif" font-size="10.00">::TestGameObject</text>
</a>
</g>
</g>
<!-- Node22&#45;&gt;Node23 -->
<g id="edge22_Node000022_Node000023" class="edge">
<title>Node22&#45;&gt;Node23</title>
<g id="a_edge22_Node000022_Node000023"><a xlink:title=" ">
<path fill="none" stroke="#63b8ff" d="M617.24,-116C632.35,-116 647.84,-116 661.78,-116"/>
<polygon fill="#63b8ff" stroke="#63b8ff" points="617.3,-112.5 607.3,-116 617.3,-119.5 617.3,-112.5"/>
</a>
</g>
</g>
<!-- Node25 -->
<g id="Node000025" class="node">
<title>Node25</title>
<g id="a_Node000025"><a xlink:href="class_fiea_1_1_engine_1_1_tests_1_1_support_1_1_attribute_box_plus.html" target="_top" xlink:title=" ">
<polygon fill="white" stroke="#666666" points="780.12,-82 644.88,-82 644.88,-50 780.12,-50 780.12,-82"/>
<text xml:space="preserve" text-anchor="start" x="652.88" y="-68.5" font-family="Helvetica,sans-Serif" font-size="10.00">Fiea::Engine::Tests</text>
<text xml:space="preserve" text-anchor="middle" x="712.5" y="-56.5" font-family="Helvetica,sans-Serif" font-size="10.00">::Support::AttributeBoxPlus</text>
</a>
</g>
</g>
<!-- Node24&#45;&gt;Node25 -->
<g id="edge24_Node000024_Node000025" class="edge">
<title>Node24&#45;&gt;Node25</title>
<g id="a_edge24_Node000024_Node000025"><a xlink:title=" ">
<path fill="none" stroke="#63b8ff" d="M609.48,-67.79C621.05,-67.59 633.05,-67.38 644.58,-67.18"/>
<polygon fill="#63b8ff" stroke="#63b8ff" points="609.53,-64.29 599.6,-67.97 609.66,-71.29 609.53,-64.29"/>
</a>
</g>
</g>
<!-- Node27 -->
<g id="Node000027" class="node">
<title>Node27</title>
<g id="a_Node000027"><a xlink:href="class_fiea_1_1_engine_1_1_tests_1_1_support_1_1_empty_child.html" target="_top" xlink:title=" ">
<polygon fill="white" stroke="#666666" points="416.25,-82 303.5,-82 303.5,-50 416.25,-50 416.25,-82"/>
<text xml:space="preserve" text-anchor="start" x="311.5" y="-68.5" font-family="Helvetica,sans-Serif" font-size="10.00">Fiea::Engine::Tests</text>
<text xml:space="preserve" text-anchor="middle" x="359.88" y="-56.5" font-family="Helvetica,sans-Serif" font-size="10.00">::Support::EmptyChild</text>
</a>
</g>
</g>
<!-- Node26&#45;&gt;Node27 -->
<g id="edge26_Node000026_Node000027" class="edge">
<title>Node26&#45;&gt;Node27</title>
<g id="a_edge26_Node000026_Node000027"><a xlink:title=" ">
<path fill="none" stroke="#63b8ff" d="M251.87,-66C268.58,-66 286.62,-66 303.04,-66"/>
<polygon fill="#63b8ff" stroke="#63b8ff" points="252.06,-62.5 242.06,-66 252.06,-69.5 252.06,-62.5"/>
</a>
</g>
</g>
</g>
</svg>
