<?xml version="1.0" encoding="UTF-8" standalone="no"?>
<!DOCTYPE svg PUBLIC "-//W3C//DTD SVG 1.1//EN"
 "http://www.w3.org/Graphics/SVG/1.1/DTD/svg11.dtd">
<!-- Generated by graphviz version 13.1.0 (20250701.0955)
 -->
<!-- Title: Fiea::Engine::GameObject::ForEachChild Pages: 1 -->
<svg width="756pt" height="279pt"
 viewBox="0.00 0.00 756.00 279.00" xmlns="http://www.w3.org/2000/svg" xmlns:xlink="http://www.w3.org/1999/xlink">
<g id="graph0" class="graph" transform="scale(1 1) rotate(0) translate(4 275)">
<title>Fiea::Engine::GameObject::ForEachChild</title>
<!-- Node1 -->
<g id="Node000001" class="node">
<title>Node1</title>
<g id="a_Node000001"><a xlink:title=" ">
<polygon fill="#999999" stroke="#666666" points="131.5,-132 0,-132 0,-100 131.5,-100 131.5,-132"/>
<text xml:space="preserve" text-anchor="start" x="8" y="-118.5" font-family="Helvetica,sans-Serif" font-size="10.00">Fiea::Engine::GameObject</text>
<text xml:space="preserve" text-anchor="middle" x="65.75" y="-106.5" font-family="Helvetica,sans-Serif" font-size="10.00">::ForEachChild</text>
</a>
</g>
</g>
<!-- Node2 -->
<g id="Node000002" class="node">
<title>Node2</title>
<g id="a_Node000002"><a xlink:href="class_fiea_1_1_engine_1_1_r_t_t_i.html#a15bd5993c8ad04da47af440298ebbb30" target="_top" xlink:title=" ">
<polygon fill="white" stroke="#666666" points="599.5,-271 483,-271 483,-251 599.5,-251 599.5,-271"/>
<text xml:space="preserve" text-anchor="middle" x="541.25" y="-257.5" font-family="Helvetica,sans-Serif" font-size="10.00">Fiea::Engine::RTTI::As</text>
</a>
</g>
</g>
<!-- Node1&#45;&gt;Node2 -->
<g id="edge1_Node000001_Node000002" class="edge">
<title>Node1&#45;&gt;Node2</title>
<g id="a_edge1_Node000001_Node000002"><a xlink:title=" ">
<path fill="none" stroke="#63b8ff" d="M83.81,-132.37C102.74,-149.6 134.93,-176.23 167.5,-191 267.03,-236.14 394.19,-252.17 471.31,-257.87"/>
<polygon fill="#63b8ff" stroke="#63b8ff" points="471.05,-261.36 481.27,-258.56 471.54,-254.37 471.05,-261.36"/>
</a>
</g>
</g>
<!-- Node5 -->
<g id="Node000005" class="node">
<title>Node5</title>
<g id="a_Node000005"><a xlink:href="class_fiea_1_1_engine_1_1_content_1_1_scope.html#ad924c01785b239991fc0e56a63295612" target="_top" xlink:title="Finds a Datum by key.">
<polygon fill="white" stroke="#666666" points="288.88,-132 177.62,-132 177.62,-100 288.88,-100 288.88,-132"/>
<text xml:space="preserve" text-anchor="start" x="185.62" y="-118.5" font-family="Helvetica,sans-Serif" font-size="10.00">Fiea::Engine::Content</text>
<text xml:space="preserve" text-anchor="middle" x="233.25" y="-106.5" font-family="Helvetica,sans-Serif" font-size="10.00">::Scope::Find</text>
</a>
</g>
</g>
<!-- Node1&#45;&gt;Node5 -->
<g id="edge4_Node000001_Node000005" class="edge">
<title>Node1&#45;&gt;Node5</title>
<g id="a_edge4_Node000001_Node000005"><a xlink:title=" ">
<path fill="none" stroke="#63b8ff" d="M131.68,-116C142.84,-116 154.45,-116 165.65,-116"/>
<polygon fill="#63b8ff" stroke="#63b8ff" points="165.63,-119.5 175.63,-116 165.63,-112.5 165.63,-119.5"/>
</a>
</g>
</g>
<!-- Node6 -->
<g id="Node000006" class="node">
<title>Node6</title>
<g id="a_Node000006"><a xlink:href="class_fiea_1_1_engine_1_1_game_object.html#ad3a296dd56ec43cc9f81eef0b1d14db6" target="_top" xlink:title=" ">
<polygon fill="white" stroke="#666666" points="299,-182 167.5,-182 167.5,-150 299,-150 299,-182"/>
<text xml:space="preserve" text-anchor="start" x="175.5" y="-168.5" font-family="Helvetica,sans-Serif" font-size="10.00">Fiea::Engine::GameObject</text>
<text xml:space="preserve" text-anchor="middle" x="233.25" y="-156.5" font-family="Helvetica,sans-Serif" font-size="10.00">::GameObject</text>
</a>
</g>
</g>
<!-- Node1&#45;&gt;Node6 -->
<g id="edge5_Node000001_Node000006" class="edge">
<title>Node1&#45;&gt;Node6</title>
<g id="a_edge5_Node000001_Node000006"><a xlink:title=" ">
<path fill="none" stroke="#63b8ff" d="M120.94,-132.37C135.58,-136.8 151.58,-141.63 166.77,-146.22"/>
<polygon fill="#63b8ff" stroke="#63b8ff" points="165.62,-149.53 176.21,-149.07 167.64,-142.83 165.62,-149.53"/>
</a>
</g>
</g>
<!-- Node11 -->
<g id="Node000011" class="node">
<title>Node11</title>
<g id="a_Node000011"><a xlink:href="class_fiea_1_1_engine_1_1_content_1_1_datum.html#a7f92976f27f407987cf287a2f7017e04" target="_top" xlink:title=" ">
<polygon fill="white" stroke="#666666" points="288.88,-82 177.62,-82 177.62,-50 288.88,-50 288.88,-82"/>
<text xml:space="preserve" text-anchor="start" x="185.62" y="-68.5" font-family="Helvetica,sans-Serif" font-size="10.00">Fiea::Engine::Content</text>
<text xml:space="preserve" text-anchor="middle" x="233.25" y="-56.5" font-family="Helvetica,sans-Serif" font-size="10.00">::Datum::GetAsTable</text>
</a>
</g>
</g>
<!-- Node1&#45;&gt;Node11 -->
<g id="edge16_Node000001_Node000011" class="edge">
<title>Node1&#45;&gt;Node11</title>
<g id="a_edge16_Node000001_Node000011"><a xlink:title=" ">
<path fill="none" stroke="#63b8ff" d="M120.94,-99.63C135.58,-95.2 151.58,-90.37 166.77,-85.78"/>
<polygon fill="#63b8ff" stroke="#63b8ff" points="167.64,-89.17 176.21,-82.93 165.62,-82.47 167.64,-89.17"/>
</a>
</g>
</g>
<!-- Node13 -->
<g id="Node000013" class="node">
<title>Node13</title>
<g id="a_Node000013"><a xlink:href="class_fiea_1_1_engine_1_1_content_1_1_datum.html#acae68c3bc8b20345e4c3790fa37bd8d5" target="_top" xlink:title=" ">
<polygon fill="white" stroke="#666666" points="288.88,-32 177.62,-32 177.62,0 288.88,0 288.88,-32"/>
<text xml:space="preserve" text-anchor="start" x="185.62" y="-18.5" font-family="Helvetica,sans-Serif" font-size="10.00">Fiea::Engine::Content</text>
<text xml:space="preserve" text-anchor="middle" x="233.25" y="-6.5" font-family="Helvetica,sans-Serif" font-size="10.00">::Datum::Size</text>
</a>
</g>
</g>
<!-- Node1&#45;&gt;Node13 -->
<g id="edge19_Node000001_Node000013" class="edge">
<title>Node1&#45;&gt;Node13</title>
<g id="a_edge19_Node000001_Node000013"><a xlink:title=" ">
<path fill="none" stroke="#63b8ff" d="M85.38,-99.69C104.84,-83.25 136.76,-57.96 167.5,-41 169.86,-39.7 172.3,-38.43 174.79,-37.21"/>
<polygon fill="#63b8ff" stroke="#63b8ff" points="176.23,-40.4 183.85,-33.04 173.3,-34.04 176.23,-40.4"/>
</a>
</g>
</g>
<!-- Node3 -->
<g id="Node000003" class="node">
<title>Node3</title>
<g id="a_Node000003"><a xlink:href="class_fiea_1_1_engine_1_1_r_t_t_i.html#ac0a7d875e4513b2aca7594abcd4418ef" target="_top" xlink:title=" ">
<polygon fill="white" stroke="#666666" points="748.25,-252 635.5,-252 635.5,-232 748.25,-232 748.25,-252"/>
<text xml:space="preserve" text-anchor="middle" x="691.88" y="-238.5" font-family="Helvetica,sans-Serif" font-size="10.00">Fiea::Engine::RTTI::Is</text>
</a>
</g>
</g>
<!-- Node2&#45;&gt;Node3 -->
<g id="edge2_Node000002_Node000003" class="edge">
<title>Node2&#45;&gt;Node3</title>
<g id="a_edge2_Node000002_Node000003"><a xlink:title=" ">
<path fill="none" stroke="#63b8ff" d="M599.71,-253.65C607.6,-252.65 615.75,-251.6 623.78,-250.58"/>
<polygon fill="#63b8ff" stroke="#63b8ff" points="624.06,-254.07 633.53,-249.33 623.17,-247.13 624.06,-254.07"/>
</a>
</g>
</g>
<!-- Node4 -->
<g id="Node000004" class="node">
<title>Node4</title>
<g id="a_Node000004"><a xlink:href="class_fiea_1_1_engine_1_1_r_t_t_i.html#a13000029a2e6cced30b831e466e07cae" target="_top" xlink:title=" ">
<polygon fill="white" stroke="#666666" points="741.12,-195 642.62,-195 642.62,-163 741.12,-163 741.12,-195"/>
<text xml:space="preserve" text-anchor="start" x="650.62" y="-181.5" font-family="Helvetica,sans-Serif" font-size="10.00">Fiea::Engine::RTTI</text>
<text xml:space="preserve" text-anchor="middle" x="691.88" y="-169.5" font-family="Helvetica,sans-Serif" font-size="10.00">::RTTI</text>
</a>
</g>
</g>
<!-- Node2&#45;&gt;Node4 -->
<g id="edge3_Node000002_Node000004" class="edge">
<title>Node2&#45;&gt;Node4</title>
<g id="a_edge3_Node000002_Node000004"><a xlink:title=" ">
<path fill="none" stroke="#63b8ff" d="M561.07,-250.61C583.64,-238.16 622.08,-216.96 651.28,-200.85"/>
<polygon fill="#63b8ff" stroke="#63b8ff" points="652.79,-204.01 659.86,-196.11 649.41,-197.88 652.79,-204.01"/>
</a>
</g>
</g>
<!-- Node7 -->
<g id="Node000007" class="node">
<title>Node7</title>
<g id="a_Node000007"><a xlink:href="class_fiea_1_1_engine_1_1_content_1_1_attributed.html#ad1ae014235d9d8b62b36066c94164148" target="_top" xlink:title=" ">
<polygon fill="white" stroke="#666666" points="447,-132 335,-132 335,-100 447,-100 447,-132"/>
<text xml:space="preserve" text-anchor="start" x="343" y="-118.5" font-family="Helvetica,sans-Serif" font-size="10.00">Fiea::Engine::Content</text>
<text xml:space="preserve" text-anchor="middle" x="391" y="-106.5" font-family="Helvetica,sans-Serif" font-size="10.00">::Attributed::Attributed</text>
</a>
</g>
</g>
<!-- Node6&#45;&gt;Node7 -->
<g id="edge6_Node000006_Node000007" class="edge">
<title>Node6&#45;&gt;Node7</title>
<g id="a_edge6_Node000006_Node000007"><a xlink:title=" ">
<path fill="none" stroke="#63b8ff" d="M285.25,-149.63C298.89,-145.25 313.79,-140.46 327.96,-135.92"/>
<polygon fill="#63b8ff" stroke="#63b8ff" points="328.73,-139.35 337.18,-132.96 326.59,-132.68 328.73,-139.35"/>
</a>
</g>
</g>
<!-- Node8 -->
<g id="Node000008" class="node">
<title>Node8</title>
<g id="a_Node000008"><a xlink:href="class_fiea_1_1_engine_1_1_r_t_t_i.html#a876bebbe7b3149483c43a87f55f4ea99" target="_top" xlink:title=" ">
<polygon fill="white" stroke="#666666" points="440.25,-200 341.75,-200 341.75,-168 440.25,-168 440.25,-200"/>
<text xml:space="preserve" text-anchor="start" x="349.75" y="-186.5" font-family="Helvetica,sans-Serif" font-size="10.00">Fiea::Engine::RTTI</text>
<text xml:space="preserve" text-anchor="middle" x="391" y="-174.5" font-family="Helvetica,sans-Serif" font-size="10.00">::TypeIdInstance</text>
</a>
</g>
</g>
<!-- Node6&#45;&gt;Node8 -->
<g id="edge8_Node000006_Node000008" class="edge">
<title>Node6&#45;&gt;Node8</title>
<g id="a_edge8_Node000006_Node000008"><a xlink:title=" ">
<path fill="none" stroke="#63b8ff" d="M299.4,-173.53C309.7,-174.72 320.3,-175.94 330.46,-177.12"/>
<polygon fill="#63b8ff" stroke="#63b8ff" points="329.86,-180.57 340.2,-178.24 330.66,-173.62 329.86,-180.57"/>
</a>
</g>
</g>
<!-- Node7&#45;&gt;Node7 -->
<g id="edge7_Node000007_Node000007" class="edge">
<title>Node7&#45;&gt;Node7</title>
<g id="a_edge7_Node000007_Node000007"><a xlink:title=" ">
<path fill="none" stroke="#63b8ff" d="M364.18,-132.44C359.17,-141.58 368.11,-150 391,-150 403.52,-150 411.86,-147.48 416.04,-143.71"/>
<polygon fill="#63b8ff" stroke="#63b8ff" points="419.48,-144.36 417.59,-133.94 412.56,-143.27 419.48,-144.36"/>
</a>
</g>
</g>
<!-- Node8&#45;&gt;Node2 -->
<g id="edge9_Node000008_Node000002" class="edge">
<title>Node8&#45;&gt;Node2</title>
<g id="a_edge9_Node000008_Node000002"><a xlink:title=" ">
<path fill="none" stroke="#63b8ff" d="M418.18,-200.47C436.1,-211.44 460.58,-225.83 483,-237 489.39,-240.19 496.31,-243.33 503.06,-246.24"/>
<polygon fill="#63b8ff" stroke="#63b8ff" points="501.45,-249.36 512.02,-250.01 504.16,-242.91 501.45,-249.36"/>
</a>
</g>
</g>
<!-- Node8&#45;&gt;Node3 -->
<g id="edge12_Node000008_Node000003" class="edge">
<title>Node8&#45;&gt;Node3</title>
<g id="a_edge12_Node000008_Node000003"><a xlink:title=" ">
<path fill="none" stroke="#63b8ff" d="M440.58,-195.01C454.27,-198.02 469.2,-201.22 483,-204 530.01,-213.46 583.21,-223.17 624.02,-230.4"/>
<polygon fill="#63b8ff" stroke="#63b8ff" points="623.24,-233.82 633.7,-232.11 624.46,-226.92 623.24,-233.82"/>
</a>
</g>
</g>
<!-- Node8&#45;&gt;Node4 -->
<g id="edge13_Node000008_Node000004" class="edge">
<title>Node8&#45;&gt;Node4</title>
<g id="a_edge13_Node000008_Node000004"><a xlink:title=" ">
<path fill="none" stroke="#63b8ff" d="M432.53,-167.57C448.05,-162.1 466.08,-156.72 483,-154 534.12,-145.79 548.18,-147.11 599.5,-154 610.03,-155.41 621.05,-157.7 631.66,-160.34"/>
<polygon fill="#63b8ff" stroke="#63b8ff" points="630.5,-163.65 641.06,-162.81 632.28,-156.88 630.5,-163.65"/>
</a>
</g>
</g>
<!-- Node8&#45;&gt;Node8 -->
<g id="edge15_Node000008_Node000008" class="edge">
<title>Node8&#45;&gt;Node8</title>
<g id="a_edge15_Node000008_Node000008"><a xlink:title=" ">
<path fill="none" stroke="#63b8ff" d="M364.18,-200.44C359.17,-209.58 368.11,-218 391,-218 403.52,-218 411.86,-215.48 416.04,-211.71"/>
<polygon fill="#63b8ff" stroke="#63b8ff" points="419.48,-212.36 417.59,-201.94 412.56,-211.27 419.48,-212.36"/>
</a>
</g>
</g>
<!-- Node9 -->
<g id="Node000009" class="node">
<title>Node9</title>
<g id="a_Node000009"><a xlink:href="class_fiea_1_1_engine_1_1_r_t_t_i.html#a7f70ad5ba0f8a3388543d63d72892575" target="_top" xlink:title=" ">
<polygon fill="white" stroke="#666666" points="590.5,-195 492,-195 492,-163 590.5,-163 590.5,-195"/>
<text xml:space="preserve" text-anchor="start" x="500" y="-181.5" font-family="Helvetica,sans-Serif" font-size="10.00">Fiea::Engine::RTTI</text>
<text xml:space="preserve" text-anchor="middle" x="541.25" y="-169.5" font-family="Helvetica,sans-Serif" font-size="10.00">::Equals</text>
</a>
</g>
</g>
<!-- Node8&#45;&gt;Node9 -->
<g id="edge10_Node000008_Node000009" class="edge">
<title>Node8&#45;&gt;Node9</title>
<g id="a_edge10_Node000008_Node000009"><a xlink:title=" ">
<path fill="none" stroke="#63b8ff" d="M440.54,-182.36C453.21,-181.94 467.02,-181.47 480.21,-181.02"/>
<polygon fill="#63b8ff" stroke="#63b8ff" points="480.21,-184.53 490.09,-180.69 479.97,-177.53 480.21,-184.53"/>
</a>
</g>
</g>
<!-- Node10 -->
<g id="Node000010" class="node">
<title>Node10</title>
<g id="a_Node000010"><a xlink:href="class_fiea_1_1_engine_1_1_r_t_t_i.html#a43a7d187e332a17d2c699bc2c8136a30" target="_top" xlink:title=" ">
<polygon fill="white" stroke="#666666" points="590.5,-107 492,-107 492,-75 590.5,-75 590.5,-107"/>
<text xml:space="preserve" text-anchor="start" x="500" y="-93.5" font-family="Helvetica,sans-Serif" font-size="10.00">Fiea::Engine::RTTI</text>
<text xml:space="preserve" text-anchor="middle" x="541.25" y="-81.5" font-family="Helvetica,sans-Serif" font-size="10.00">::ToString</text>
</a>
</g>
</g>
<!-- Node8&#45;&gt;Node10 -->
<g id="edge14_Node000008_Node000010" class="edge">
<title>Node8&#45;&gt;Node10</title>
<g id="a_edge14_Node000008_Node000010"><a xlink:title=" ">
<path fill="none" stroke="#63b8ff" d="M432.94,-167.56C437.84,-164.97 442.64,-162.11 447,-159 465.94,-145.49 464.45,-135.03 483,-121 486.57,-118.3 490.42,-115.71 494.38,-113.26"/>
<polygon fill="#63b8ff" stroke="#63b8ff" points="496.12,-116.3 503.02,-108.26 492.61,-110.24 496.12,-116.3"/>
</a>
</g>
</g>
<!-- Node9&#45;&gt;Node4 -->
<g id="edge11_Node000009_Node000004" class="edge">
<title>Node9&#45;&gt;Node4</title>
<g id="a_edge11_Node000009_Node000004"><a xlink:title=" ">
<path fill="none" stroke="#63b8ff" d="M590.92,-179C603.68,-179 617.6,-179 630.89,-179"/>
<polygon fill="#63b8ff" stroke="#63b8ff" points="630.84,-182.5 640.84,-179 630.84,-175.5 630.84,-182.5"/>
</a>
</g>
</g>
<!-- Node12 -->
<g id="Node000012" class="node">
<title>Node12</title>
<g id="a_Node000012"><a xlink:href="class_fiea_1_1_engine_1_1_content_1_1_datum.html#a921193447f6e42f596ac0a7694b02830" target="_top" xlink:title=" ">
<polygon fill="white" stroke="#666666" points="446.62,-64 335.38,-64 335.38,-32 446.62,-32 446.62,-64"/>
<text xml:space="preserve" text-anchor="start" x="343.38" y="-50.5" font-family="Helvetica,sans-Serif" font-size="10.00">Fiea::Engine::Content</text>
<text xml:space="preserve" text-anchor="middle" x="391" y="-38.5" font-family="Helvetica,sans-Serif" font-size="10.00">::Datum::Scope</text>
</a>
</g>
</g>
<!-- Node11&#45;&gt;Node12 -->
<g id="edge17_Node000011_Node000012" class="edge">
<title>Node11&#45;&gt;Node12</title>
<g id="a_edge17_Node000011_Node000012"><a xlink:title=" ">
<path fill="none" stroke="#63b8ff" d="M289.16,-59.65C300.33,-58.36 312.19,-56.99 323.7,-55.66"/>
<polygon fill="#63b8ff" stroke="#63b8ff" points="324.02,-59.15 333.56,-54.52 323.22,-52.19 324.02,-59.15"/>
</a>
</g>
</g>
<!-- Node12&#45;&gt;Node12 -->
<g id="edge18_Node000012_Node000012" class="edge">
<title>Node12&#45;&gt;Node12</title>
<g id="a_edge18_Node000012_Node000012"><a xlink:title=" ">
<path fill="none" stroke="#63b8ff" d="M364.18,-64.44C359.17,-73.58 368.11,-82 391,-82 403.52,-82 411.86,-79.48 416.04,-75.71"/>
<polygon fill="#63b8ff" stroke="#63b8ff" points="419.48,-76.36 417.59,-65.94 412.56,-75.27 419.48,-76.36"/>
</a>
</g>
</g>
</g>
</svg>
