<?xml version="1.0" encoding="UTF-8" standalone="no"?>
<!DOCTYPE svg PUBLIC "-//W3C//DTD SVG 1.1//EN"
 "http://www.w3.org/Graphics/SVG/1.1/DTD/svg11.dtd">
<!-- Generated by graphviz version 13.1.0 (20250701.0955)
 -->
<!-- Title: Fiea::Engine::Actions::ActionIncrement::ActionIncrement Pages: 1 -->
<svg width="385pt" height="190pt"
 viewBox="0.00 0.00 385.00 190.00" xmlns="http://www.w3.org/2000/svg" xmlns:xlink="http://www.w3.org/1999/xlink">
<g id="graph0" class="graph" transform="scale(1 1) rotate(0) translate(4 186)">
<title>Fiea::Engine::Actions::ActionIncrement::ActionIncrement</title>
<!-- Node1 -->
<g id="Node000001" class="node">
<title>Node1</title>
<g id="a_Node000001"><a xlink:title=" ">
<polygon fill="#999999" stroke="#666666" points="377,-107 206.5,-107 206.5,-75 377,-75 377,-107"/>
<text xml:space="preserve" text-anchor="start" x="214.5" y="-93.5" font-family="Helvetica,sans-Serif" font-size="10.00">Fiea::Engine::Actions</text>
<text xml:space="preserve" text-anchor="middle" x="291.75" y="-81.5" font-family="Helvetica,sans-Serif" font-size="10.00">::ActionIncrement::ActionIncrement</text>
</a>
</g>
</g>
<!-- Node2 -->
<g id="Node000002" class="node">
<title>Node2</title>
<g id="a_Node000002"><a xlink:href="class_fiea_1_1_engine_1_1_actions_1_1_action_increment.html#a3e083a1e4b6fe42fd71928870d51add2" target="_top" xlink:title=" ">
<polygon fill="white" stroke="#666666" points="170.5,-182 0,-182 0,-150 170.5,-150 170.5,-182"/>
<text xml:space="preserve" text-anchor="start" x="8" y="-168.5" font-family="Helvetica,sans-Serif" font-size="10.00">Fiea::Engine::Actions</text>
<text xml:space="preserve" text-anchor="middle" x="85.25" y="-156.5" font-family="Helvetica,sans-Serif" font-size="10.00">::ActionIncrement::ActionIncrement</text>
</a>
</g>
</g>
<!-- Node1&#45;&gt;Node2 -->
<g id="edge1_Node000001_Node000002" class="edge">
<title>Node1&#45;&gt;Node2</title>
<g id="a_edge1_Node000001_Node000002"><a xlink:title=" ">
<path fill="none" stroke="#63b8ff" d="M243.64,-111.94C221.63,-121.38 194.94,-132.32 170.5,-141 162.16,-143.96 153.28,-146.86 144.52,-149.58"/>
<polygon fill="#63b8ff" stroke="#63b8ff" points="244.86,-115.23 252.65,-108.05 242.08,-108.8 244.86,-115.23"/>
</a>
</g>
</g>
<!-- Node3 -->
<g id="Node000003" class="node">
<title>Node3</title>
<g id="a_Node000003"><a xlink:href="class_fiea_1_1_engine_1_1_actions_1_1_action_increment.html#aee29550c552d66c67bcdf77359c267ab" target="_top" xlink:title=" ">
<polygon fill="white" stroke="#666666" points="170.5,-132 0,-132 0,-100 170.5,-100 170.5,-132"/>
<text xml:space="preserve" text-anchor="start" x="8" y="-118.5" font-family="Helvetica,sans-Serif" font-size="10.00">Fiea::Engine::Actions</text>
<text xml:space="preserve" text-anchor="middle" x="85.25" y="-106.5" font-family="Helvetica,sans-Serif" font-size="10.00">::ActionIncrement::ActionIncrement</text>
</a>
</g>
</g>
<!-- Node1&#45;&gt;Node3 -->
<g id="edge2_Node000001_Node000003" class="edge">
<title>Node1&#45;&gt;Node3</title>
<g id="a_edge2_Node000001_Node000003"><a xlink:title=" ">
<path fill="none" stroke="#63b8ff" d="M194.83,-102.73C186.82,-103.71 178.76,-104.69 170.84,-105.66"/>
<polygon fill="#63b8ff" stroke="#63b8ff" points="195.09,-106.22 204.59,-101.53 194.24,-99.27 195.09,-106.22"/>
</a>
</g>
</g>
<!-- Node4 -->
<g id="Node000004" class="node">
<title>Node4</title>
<g id="a_Node000004"><a xlink:href="class_fiea_1_1_engine_1_1_actions_1_1_action_increment.html#ad5e567844e461e34a43726bc7943f8b7" target="_top" xlink:title=" ">
<polygon fill="white" stroke="#666666" points="155.5,-82 15,-82 15,-50 155.5,-50 155.5,-82"/>
<text xml:space="preserve" text-anchor="start" x="23" y="-68.5" font-family="Helvetica,sans-Serif" font-size="10.00">Fiea::Engine::Actions</text>
<text xml:space="preserve" text-anchor="middle" x="85.25" y="-56.5" font-family="Helvetica,sans-Serif" font-size="10.00">::ActionIncrement::operator=</text>
</a>
</g>
</g>
<!-- Node1&#45;&gt;Node4 -->
<g id="edge3_Node000001_Node000004" class="edge">
<title>Node1&#45;&gt;Node4</title>
<g id="a_edge3_Node000001_Node000004"><a xlink:title=" ">
<path fill="none" stroke="#63b8ff" d="M195.06,-79.3C181.86,-77.69 168.52,-76.06 155.91,-74.52"/>
<polygon fill="#63b8ff" stroke="#63b8ff" points="194.24,-82.73 204.59,-80.47 195.09,-75.78 194.24,-82.73"/>
</a>
</g>
</g>
<!-- Node5 -->
<g id="Node000005" class="node">
<title>Node5</title>
<g id="a_Node000005"><a xlink:href="class_fiea_1_1_engine_1_1_actions_1_1_action_increment.html#ae2581e4e0a309def7dc89a3ebcaa7c58" target="_top" xlink:title=" ">
<polygon fill="white" stroke="#666666" points="155.5,-32 15,-32 15,0 155.5,0 155.5,-32"/>
<text xml:space="preserve" text-anchor="start" x="23" y="-18.5" font-family="Helvetica,sans-Serif" font-size="10.00">Fiea::Engine::Actions</text>
<text xml:space="preserve" text-anchor="middle" x="85.25" y="-6.5" font-family="Helvetica,sans-Serif" font-size="10.00">::ActionIncrement::operator=</text>
</a>
</g>
</g>
<!-- Node1&#45;&gt;Node5 -->
<g id="edge4_Node000001_Node000005" class="edge">
<title>Node1&#45;&gt;Node5</title>
<g id="a_edge4_Node000001_Node000005"><a xlink:title=" ">
<path fill="none" stroke="#63b8ff" d="M243.64,-70.06C221.63,-60.62 194.94,-49.68 170.5,-41 162.16,-38.04 153.28,-35.14 144.52,-32.42"/>
<polygon fill="#63b8ff" stroke="#63b8ff" points="242.08,-73.2 252.65,-73.95 244.86,-66.77 242.08,-73.2"/>
</a>
</g>
</g>
</g>
</svg>
