<?xml version="1.0" encoding="UTF-8" standalone="no"?>
<!DOCTYPE svg PUBLIC "-//W3C//DTD SVG 1.1//EN"
 "http://www.w3.org/Graphics/SVG/1.1/DTD/svg11.dtd">
<!-- Generated by graphviz version 13.1.0 (20250701.0955)
 -->
<!-- Title: Fiea::Engine::Actions::Action::Action Pages: 1 -->
<svg width="713pt" height="220pt"
 viewBox="0.00 0.00 713.00 220.00" xmlns="http://www.w3.org/2000/svg" xmlns:xlink="http://www.w3.org/1999/xlink">
<g id="graph0" class="graph" transform="scale(1 1) rotate(0) translate(4 216)">
<title>Fiea::Engine::Actions::Action::Action</title>
<!-- Node1 -->
<g id="Node000001" class="node">
<title>Node1</title>
<g id="a_Node000001"><a xlink:title=" ">
<polygon fill="#999999" stroke="#666666" points="109.75,-172 0,-172 0,-140 109.75,-140 109.75,-172"/>
<text xml:space="preserve" text-anchor="start" x="8" y="-158.5" font-family="Helvetica,sans-Serif" font-size="10.00">Fiea::Engine::Actions</text>
<text xml:space="preserve" text-anchor="middle" x="54.88" y="-146.5" font-family="Helvetica,sans-Serif" font-size="10.00">::Action::Action</text>
</a>
</g>
</g>
<!-- Node2 -->
<g id="Node000002" class="node">
<title>Node2</title>
<g id="a_Node000002"><a xlink:href="class_fiea_1_1_engine_1_1_actions_1_1_action.html#ae2af386f7122152003b00da79393e19e" target="_top" xlink:title=" ">
<polygon fill="white" stroke="#666666" points="255.5,-150 145.75,-150 145.75,-118 255.5,-118 255.5,-150"/>
<text xml:space="preserve" text-anchor="start" x="153.75" y="-136.5" font-family="Helvetica,sans-Serif" font-size="10.00">Fiea::Engine::Actions</text>
<text xml:space="preserve" text-anchor="middle" x="200.62" y="-124.5" font-family="Helvetica,sans-Serif" font-size="10.00">::Action::Action</text>
</a>
</g>
</g>
<!-- Node1&#45;&gt;Node2 -->
<g id="edge1_Node000001_Node000002" class="edge">
<title>Node1&#45;&gt;Node2</title>
<g id="a_edge1_Node000001_Node000002"><a xlink:title=" ">
<path fill="none" stroke="#63b8ff" d="M110.22,-147.68C118.11,-146.48 126.3,-145.22 134.38,-143.99"/>
<polygon fill="#63b8ff" stroke="#63b8ff" points="134.83,-147.46 144.18,-142.49 133.77,-140.54 134.83,-147.46"/>
</a>
</g>
</g>
<!-- Node3 -->
<g id="Node000003" class="node">
<title>Node3</title>
<g id="a_Node000003"><a xlink:href="class_fiea_1_1_engine_1_1_content_1_1_attributed.html#ad1ae014235d9d8b62b36066c94164148" target="_top" xlink:title=" ">
<polygon fill="white" stroke="#666666" points="403.5,-194 291.5,-194 291.5,-162 403.5,-162 403.5,-194"/>
<text xml:space="preserve" text-anchor="start" x="299.5" y="-180.5" font-family="Helvetica,sans-Serif" font-size="10.00">Fiea::Engine::Content</text>
<text xml:space="preserve" text-anchor="middle" x="347.5" y="-168.5" font-family="Helvetica,sans-Serif" font-size="10.00">::Attributed::Attributed</text>
</a>
</g>
</g>
<!-- Node1&#45;&gt;Node3 -->
<g id="edge14_Node000001_Node000003" class="edge">
<title>Node1&#45;&gt;Node3</title>
<g id="a_edge14_Node000001_Node000003"><a xlink:title=" ">
<path fill="none" stroke="#63b8ff" d="M110.2,-160.11C158.31,-163.75 228.69,-169.08 280.13,-172.98"/>
<polygon fill="#63b8ff" stroke="#63b8ff" points="279.71,-176.45 289.95,-173.72 280.24,-169.47 279.71,-176.45"/>
</a>
</g>
</g>
<!-- Node2&#45;&gt;Node3 -->
<g id="edge2_Node000002_Node000003" class="edge">
<title>Node2&#45;&gt;Node3</title>
<g id="a_edge2_Node000002_Node000003"><a xlink:title=" ">
<path fill="none" stroke="#63b8ff" d="M255.57,-150.38C264.06,-152.96 272.9,-155.65 281.6,-158.29"/>
<polygon fill="#63b8ff" stroke="#63b8ff" points="280.48,-161.61 291.06,-161.16 282.51,-154.91 280.48,-161.61"/>
</a>
</g>
</g>
<!-- Node4 -->
<g id="Node000004" class="node">
<title>Node4</title>
<g id="a_Node000004"><a xlink:href="class_fiea_1_1_engine_1_1_r_t_t_i.html#a876bebbe7b3149483c43a87f55f4ea99" target="_top" xlink:title=" ">
<polygon fill="white" stroke="#666666" points="396.75,-126 298.25,-126 298.25,-94 396.75,-94 396.75,-126"/>
<text xml:space="preserve" text-anchor="start" x="306.25" y="-112.5" font-family="Helvetica,sans-Serif" font-size="10.00">Fiea::Engine::RTTI</text>
<text xml:space="preserve" text-anchor="middle" x="347.5" y="-100.5" font-family="Helvetica,sans-Serif" font-size="10.00">::TypeIdInstance</text>
</a>
</g>
</g>
<!-- Node2&#45;&gt;Node4 -->
<g id="edge4_Node000002_Node000004" class="edge">
<title>Node2&#45;&gt;Node4</title>
<g id="a_edge4_Node000002_Node000004"><a xlink:title=" ">
<path fill="none" stroke="#63b8ff" d="M255.98,-125C266.02,-123.33 276.55,-121.59 286.73,-119.9"/>
<polygon fill="#63b8ff" stroke="#63b8ff" points="287.25,-123.36 296.54,-118.28 286.1,-116.46 287.25,-123.36"/>
</a>
</g>
</g>
<!-- Node3&#45;&gt;Node3 -->
<g id="edge3_Node000003_Node000003" class="edge">
<title>Node3&#45;&gt;Node3</title>
<g id="a_edge3_Node000003_Node000003"><a xlink:title=" ">
<path fill="none" stroke="#63b8ff" d="M321.28,-194.44C316.38,-203.58 325.12,-212 347.5,-212 359.74,-212 367.9,-209.48 371.98,-205.71"/>
<polygon fill="#63b8ff" stroke="#63b8ff" points="375.42,-206.36 373.49,-195.94 368.5,-205.28 375.42,-206.36"/>
</a>
</g>
</g>
<!-- Node4&#45;&gt;Node4 -->
<g id="edge13_Node000004_Node000004" class="edge">
<title>Node4&#45;&gt;Node4</title>
<g id="a_edge13_Node000004_Node000004"><a xlink:title=" ">
<path fill="none" stroke="#63b8ff" d="M321.28,-126.44C316.38,-135.58 325.12,-144 347.5,-144 359.74,-144 367.9,-141.48 371.98,-137.71"/>
<polygon fill="#63b8ff" stroke="#63b8ff" points="375.42,-138.36 373.49,-127.94 368.5,-137.28 375.42,-138.36"/>
</a>
</g>
</g>
<!-- Node5 -->
<g id="Node000005" class="node">
<title>Node5</title>
<g id="a_Node000005"><a xlink:href="class_fiea_1_1_engine_1_1_r_t_t_i.html#a15bd5993c8ad04da47af440298ebbb30" target="_top" xlink:title=" ">
<polygon fill="white" stroke="#666666" points="556,-158 439.5,-158 439.5,-138 556,-138 556,-158"/>
<text xml:space="preserve" text-anchor="middle" x="497.75" y="-144.5" font-family="Helvetica,sans-Serif" font-size="10.00">Fiea::Engine::RTTI::As</text>
</a>
</g>
</g>
<!-- Node4&#45;&gt;Node5 -->
<g id="edge5_Node000004_Node000005" class="edge">
<title>Node4&#45;&gt;Node5</title>
<g id="a_edge5_Node000004_Node000005"><a xlink:title=" ">
<path fill="none" stroke="#63b8ff" d="M397.04,-122.44C412.4,-126.38 429.43,-130.74 445,-134.74"/>
<polygon fill="#63b8ff" stroke="#63b8ff" points="444.02,-138.1 454.57,-137.19 445.75,-131.32 444.02,-138.1"/>
</a>
</g>
</g>
<!-- Node6 -->
<g id="Node000006" class="node">
<title>Node6</title>
<g id="a_Node000006"><a xlink:href="class_fiea_1_1_engine_1_1_r_t_t_i.html#ac0a7d875e4513b2aca7594abcd4418ef" target="_top" xlink:title=" ">
<polygon fill="white" stroke="#666666" points="704.75,-180 592,-180 592,-160 704.75,-160 704.75,-180"/>
<text xml:space="preserve" text-anchor="middle" x="648.38" y="-166.5" font-family="Helvetica,sans-Serif" font-size="10.00">Fiea::Engine::RTTI::Is</text>
</a>
</g>
</g>
<!-- Node4&#45;&gt;Node6 -->
<g id="edge10_Node000004_Node000006" class="edge">
<title>Node4&#45;&gt;Node6</title>
<g id="a_edge10_Node000004_Node000006"><a xlink:title=" ">
<path fill="none" stroke="#63b8ff" d="M367.55,-126.34C384.98,-140.14 412.14,-158.93 439.5,-167 485.22,-180.5 539.1,-180.86 580.55,-178.06"/>
<polygon fill="#63b8ff" stroke="#63b8ff" points="580.68,-181.56 590.38,-177.31 580.14,-174.58 580.68,-181.56"/>
</a>
</g>
</g>
<!-- Node7 -->
<g id="Node000007" class="node">
<title>Node7</title>
<g id="a_Node000007"><a xlink:href="class_fiea_1_1_engine_1_1_r_t_t_i.html#a13000029a2e6cced30b831e466e07cae" target="_top" xlink:title=" ">
<polygon fill="white" stroke="#666666" points="697.62,-126 599.12,-126 599.12,-94 697.62,-94 697.62,-126"/>
<text xml:space="preserve" text-anchor="start" x="607.12" y="-112.5" font-family="Helvetica,sans-Serif" font-size="10.00">Fiea::Engine::RTTI</text>
<text xml:space="preserve" text-anchor="middle" x="648.38" y="-100.5" font-family="Helvetica,sans-Serif" font-size="10.00">::RTTI</text>
</a>
</g>
</g>
<!-- Node4&#45;&gt;Node7 -->
<g id="edge11_Node000004_Node000007" class="edge">
<title>Node4&#45;&gt;Node7</title>
<g id="a_edge11_Node000004_Node000007"><a xlink:title=" ">
<path fill="none" stroke="#63b8ff" d="M397.18,-110C449.07,-110 531.29,-110 587.2,-110"/>
<polygon fill="#63b8ff" stroke="#63b8ff" points="587.2,-113.5 597.2,-110 587.2,-106.5 587.2,-113.5"/>
</a>
</g>
</g>
<!-- Node8 -->
<g id="Node000008" class="node">
<title>Node8</title>
<g id="a_Node000008"><a xlink:href="class_fiea_1_1_engine_1_1_r_t_t_i.html#a7f70ad5ba0f8a3388543d63d72892575" target="_top" xlink:title=" ">
<polygon fill="white" stroke="#666666" points="547,-82 448.5,-82 448.5,-50 547,-50 547,-82"/>
<text xml:space="preserve" text-anchor="start" x="456.5" y="-68.5" font-family="Helvetica,sans-Serif" font-size="10.00">Fiea::Engine::RTTI</text>
<text xml:space="preserve" text-anchor="middle" x="497.75" y="-56.5" font-family="Helvetica,sans-Serif" font-size="10.00">::Equals</text>
</a>
</g>
</g>
<!-- Node4&#45;&gt;Node8 -->
<g id="edge8_Node000004_Node000008" class="edge">
<title>Node4&#45;&gt;Node8</title>
<g id="a_edge8_Node000004_Node000008"><a xlink:title=" ">
<path fill="none" stroke="#63b8ff" d="M397.04,-95.59C409.84,-91.79 423.8,-87.65 437.11,-83.7"/>
<polygon fill="#63b8ff" stroke="#63b8ff" points="438.06,-87.07 446.65,-80.87 436.06,-80.36 438.06,-87.07"/>
</a>
</g>
</g>
<!-- Node9 -->
<g id="Node000009" class="node">
<title>Node9</title>
<g id="a_Node000009"><a xlink:href="class_fiea_1_1_engine_1_1_r_t_t_i.html#a43a7d187e332a17d2c699bc2c8136a30" target="_top" xlink:title=" ">
<polygon fill="white" stroke="#666666" points="547,-32 448.5,-32 448.5,0 547,0 547,-32"/>
<text xml:space="preserve" text-anchor="start" x="456.5" y="-18.5" font-family="Helvetica,sans-Serif" font-size="10.00">Fiea::Engine::RTTI</text>
<text xml:space="preserve" text-anchor="middle" x="497.75" y="-6.5" font-family="Helvetica,sans-Serif" font-size="10.00">::ToString</text>
</a>
</g>
</g>
<!-- Node4&#45;&gt;Node9 -->
<g id="edge12_Node000004_Node000009" class="edge">
<title>Node4&#45;&gt;Node9</title>
<g id="a_edge12_Node000004_Node000009"><a xlink:title=" ">
<path fill="none" stroke="#63b8ff" d="M367.44,-93.51C385.22,-78.56 412.99,-56.54 439.5,-41 441.51,-39.82 443.59,-38.66 445.7,-37.53"/>
<polygon fill="#63b8ff" stroke="#63b8ff" points="447.09,-40.75 454.46,-33.13 443.95,-34.5 447.09,-40.75"/>
</a>
</g>
</g>
<!-- Node5&#45;&gt;Node6 -->
<g id="edge6_Node000005_Node000006" class="edge">
<title>Node5&#45;&gt;Node6</title>
<g id="a_edge6_Node000005_Node000006"><a xlink:title=" ">
<path fill="none" stroke="#63b8ff" d="M556.21,-156.51C564.1,-157.67 572.25,-158.88 580.28,-160.07"/>
<polygon fill="#63b8ff" stroke="#63b8ff" points="579.63,-163.51 590.03,-161.51 580.66,-156.59 579.63,-163.51"/>
</a>
</g>
</g>
<!-- Node5&#45;&gt;Node7 -->
<g id="edge7_Node000005_Node000007" class="edge">
<title>Node5&#45;&gt;Node7</title>
<g id="a_edge7_Node000005_Node000007"><a xlink:title=" ">
<path fill="none" stroke="#63b8ff" d="M539.76,-137.52C554.63,-133.71 571.74,-129.34 587.88,-125.21"/>
<polygon fill="#63b8ff" stroke="#63b8ff" points="588.57,-128.65 597.39,-122.78 586.84,-121.87 588.57,-128.65"/>
</a>
</g>
</g>
<!-- Node8&#45;&gt;Node7 -->
<g id="edge9_Node000008_Node000007" class="edge">
<title>Node8&#45;&gt;Node7</title>
<g id="a_edge9_Node000008_Node000007"><a xlink:title=" ">
<path fill="none" stroke="#63b8ff" d="M547.42,-80.41C560.44,-84.26 574.67,-88.47 588.19,-92.48"/>
<polygon fill="#63b8ff" stroke="#63b8ff" points="586.82,-95.72 597.4,-95.21 588.81,-89.01 586.82,-95.72"/>
</a>
</g>
</g>
</g>
</svg>
