<?xml version="1.0" encoding="UTF-8" standalone="no"?>
<!DOCTYPE svg PUBLIC "-//W3C//DTD SVG 1.1//EN"
 "http://www.w3.org/Graphics/SVG/1.1/DTD/svg11.dtd">
<!-- Generated by graphviz version 13.1.0 (20250701.0955)
 -->
<!-- Title: Fiea::Engine::Actions::ActionPreamble::InitAction Pages: 1 -->
<svg width="588pt" height="196pt"
 viewBox="0.00 0.00 588.00 196.00" xmlns="http://www.w3.org/2000/svg" xmlns:xlink="http://www.w3.org/1999/xlink">
<g id="graph0" class="graph" transform="scale(1 1) rotate(0) translate(4 192)">
<title>Fiea::Engine::Actions::ActionPreamble::InitAction</title>
<!-- Node1 -->
<g id="Node000001" class="node">
<title>Node1</title>
<g id="a_Node000001"><a xlink:title=" ">
<polygon fill="#999999" stroke="#666666" points="138.25,-85 0,-85 0,-53 138.25,-53 138.25,-85"/>
<text xml:space="preserve" text-anchor="start" x="8" y="-71.5" font-family="Helvetica,sans-Serif" font-size="10.00">Fiea::Engine::Actions</text>
<text xml:space="preserve" text-anchor="middle" x="69.12" y="-59.5" font-family="Helvetica,sans-Serif" font-size="10.00">::ActionPreamble::InitAction</text>
</a>
</g>
</g>
<!-- Node2 -->
<g id="Node000002" class="node">
<title>Node2</title>
<g id="a_Node000002"><a xlink:href="class_fiea_1_1_engine_1_1_content_1_1_scope.html#ae21ea7cc60b24915a0aac3b0d0f6005c" target="_top" xlink:title=" ">
<polygon fill="white" stroke="#666666" points="285.5,-116 174.25,-116 174.25,-84 285.5,-84 285.5,-116"/>
<text xml:space="preserve" text-anchor="start" x="182.25" y="-102.5" font-family="Helvetica,sans-Serif" font-size="10.00">Fiea::Engine::Content</text>
<text xml:space="preserve" text-anchor="middle" x="229.88" y="-90.5" font-family="Helvetica,sans-Serif" font-size="10.00">::Scope::Search</text>
</a>
</g>
</g>
<!-- Node1&#45;&gt;Node2 -->
<g id="edge1_Node000001_Node000002" class="edge">
<title>Node1&#45;&gt;Node2</title>
<g id="a_edge1_Node000001_Node000002"><a xlink:title=" ">
<path fill="none" stroke="#63b8ff" d="M138.37,-82.33C146.48,-83.91 154.75,-85.53 162.83,-87.1"/>
<polygon fill="#63b8ff" stroke="#63b8ff" points="162.12,-90.53 172.6,-89.01 163.46,-83.66 162.12,-90.53"/>
</a>
</g>
</g>
<!-- Node6 -->
<g id="Node000006" class="node">
<title>Node6</title>
<g id="a_Node000006"><a xlink:href="class_fiea_1_1_engine_1_1_content_1_1_datum.html#af8ca5539cfa1034703824207a4368a04" target="_top" xlink:title=" ">
<polygon fill="white" stroke="#666666" points="285.5,-60 174.25,-60 174.25,-28 285.5,-28 285.5,-60"/>
<text xml:space="preserve" text-anchor="start" x="182.25" y="-46.5" font-family="Helvetica,sans-Serif" font-size="10.00">Fiea::Engine::Content</text>
<text xml:space="preserve" text-anchor="middle" x="229.88" y="-34.5" font-family="Helvetica,sans-Serif" font-size="10.00">::Datum::Set</text>
</a>
</g>
</g>
<!-- Node1&#45;&gt;Node6 -->
<g id="edge7_Node000001_Node000006" class="edge">
<title>Node1&#45;&gt;Node6</title>
<g id="a_edge7_Node000001_Node000006"><a xlink:title=" ">
<path fill="none" stroke="#63b8ff" d="M138.37,-58.25C146.48,-56.98 154.75,-55.67 162.83,-54.4"/>
<polygon fill="#63b8ff" stroke="#63b8ff" points="163.26,-57.88 172.59,-52.86 162.17,-50.96 163.26,-57.88"/>
</a>
</g>
</g>
<!-- Node3 -->
<g id="Node000003" class="node">
<title>Node3</title>
<g id="a_Node000003"><a xlink:href="class_fiea_1_1_engine_1_1_content_1_1_scope.html#ad924c01785b239991fc0e56a63295612" target="_top" xlink:title="Finds a Datum by key.">
<polygon fill="white" stroke="#666666" points="432.75,-188 321.5,-188 321.5,-156 432.75,-156 432.75,-188"/>
<text xml:space="preserve" text-anchor="start" x="329.5" y="-174.5" font-family="Helvetica,sans-Serif" font-size="10.00">Fiea::Engine::Content</text>
<text xml:space="preserve" text-anchor="middle" x="377.12" y="-162.5" font-family="Helvetica,sans-Serif" font-size="10.00">::Scope::Find</text>
</a>
</g>
</g>
<!-- Node2&#45;&gt;Node3 -->
<g id="edge2_Node000002_Node000003" class="edge">
<title>Node2&#45;&gt;Node3</title>
<g id="a_edge2_Node000002_Node000003"><a xlink:title=" ">
<path fill="none" stroke="#63b8ff" d="M261.72,-116.48C279.16,-125.67 301.43,-137.21 321.5,-147 324.04,-148.24 326.66,-149.5 329.31,-150.76"/>
<polygon fill="#63b8ff" stroke="#63b8ff" points="327.66,-153.85 338.2,-154.93 330.64,-147.51 327.66,-153.85"/>
</a>
</g>
</g>
<!-- Node4 -->
<g id="Node000004" class="node">
<title>Node4</title>
<g id="a_Node000004"><a xlink:href="class_fiea_1_1_engine_1_1_content_1_1_scope.html#ac4627f740867a929957ce0647f436e02" target="_top" xlink:title=" ">
<polygon fill="white" stroke="#666666" points="432.75,-138 321.5,-138 321.5,-106 432.75,-106 432.75,-138"/>
<text xml:space="preserve" text-anchor="start" x="329.5" y="-124.5" font-family="Helvetica,sans-Serif" font-size="10.00">Fiea::Engine::Content</text>
<text xml:space="preserve" text-anchor="middle" x="377.12" y="-112.5" font-family="Helvetica,sans-Serif" font-size="10.00">::Scope::GetParent</text>
</a>
</g>
</g>
<!-- Node2&#45;&gt;Node4 -->
<g id="edge3_Node000002_Node000004" class="edge">
<title>Node2&#45;&gt;Node4</title>
<g id="a_edge3_Node000002_Node000004"><a xlink:title=" ">
<path fill="none" stroke="#63b8ff" d="M285.79,-108.32C293.65,-109.51 301.81,-110.74 309.86,-111.96"/>
<polygon fill="#63b8ff" stroke="#63b8ff" points="309.23,-115.41 319.64,-113.44 310.28,-108.49 309.23,-115.41"/>
</a>
</g>
</g>
<!-- Node5 -->
<g id="Node000005" class="node">
<title>Node5</title>
<g id="a_Node000005"><a xlink:href="class_fiea_1_1_engine_1_1_content_1_1_scope.html#a6631343c968c233ab1d9c3e05c3f4fe9" target="_top" xlink:title=" ">
<polygon fill="white" stroke="#666666" points="580,-116 468.75,-116 468.75,-84 580,-84 580,-116"/>
<text xml:space="preserve" text-anchor="start" x="476.75" y="-102.5" font-family="Helvetica,sans-Serif" font-size="10.00">Fiea::Engine::Content</text>
<text xml:space="preserve" text-anchor="middle" x="524.38" y="-90.5" font-family="Helvetica,sans-Serif" font-size="10.00">::Scope::Scope</text>
</a>
</g>
</g>
<!-- Node2&#45;&gt;Node5 -->
<g id="edge6_Node000002_Node000005" class="edge">
<title>Node2&#45;&gt;Node5</title>
<g id="a_edge6_Node000002_Node000005"><a xlink:title=" ">
<path fill="none" stroke="#63b8ff" d="M285.98,-97.88C297.7,-97.52 310.01,-97.19 321.5,-97 370.94,-96.18 383.31,-96.18 432.75,-97 440.56,-97.13 448.75,-97.32 456.87,-97.55"/>
<polygon fill="#63b8ff" stroke="#63b8ff" points="456.66,-101.04 466.76,-97.84 456.86,-94.04 456.66,-101.04"/>
</a>
</g>
</g>
<!-- Node4&#45;&gt;Node5 -->
<g id="edge4_Node000004_Node000005" class="edge">
<title>Node4&#45;&gt;Node5</title>
<g id="a_edge4_Node000004_Node000005"><a xlink:title=" ">
<path fill="none" stroke="#63b8ff" d="M433.04,-113.68C440.9,-112.49 449.06,-111.26 457.11,-110.04"/>
<polygon fill="#63b8ff" stroke="#63b8ff" points="457.53,-113.51 466.89,-108.56 456.48,-106.59 457.53,-113.51"/>
</a>
</g>
</g>
<!-- Node5&#45;&gt;Node5 -->
<g id="edge5_Node000005_Node000005" class="edge">
<title>Node5&#45;&gt;Node5</title>
<g id="a_edge5_Node000005_Node000005"><a xlink:title=" ">
<path fill="none" stroke="#63b8ff" d="M498.09,-116.44C493.18,-125.58 501.94,-134 524.38,-134 536.64,-134 544.82,-131.48 548.91,-127.71"/>
<polygon fill="#63b8ff" stroke="#63b8ff" points="552.35,-128.36 550.43,-117.94 545.44,-127.28 552.35,-128.36"/>
</a>
</g>
</g>
<!-- Node7 -->
<g id="Node000007" class="node">
<title>Node7</title>
<g id="a_Node000007"><a xlink:href="class_fiea_1_1_engine_1_1_content_1_1_datum.html#a921193447f6e42f596ac0a7694b02830" target="_top" xlink:title=" ">
<polygon fill="white" stroke="#666666" points="432.75,-32 321.5,-32 321.5,0 432.75,0 432.75,-32"/>
<text xml:space="preserve" text-anchor="start" x="329.5" y="-18.5" font-family="Helvetica,sans-Serif" font-size="10.00">Fiea::Engine::Content</text>
<text xml:space="preserve" text-anchor="middle" x="377.12" y="-6.5" font-family="Helvetica,sans-Serif" font-size="10.00">::Datum::Scope</text>
</a>
</g>
</g>
<!-- Node6&#45;&gt;Node7 -->
<g id="edge8_Node000006_Node000007" class="edge">
<title>Node6&#45;&gt;Node7</title>
<g id="a_edge8_Node000006_Node000007"><a xlink:title=" ">
<path fill="none" stroke="#63b8ff" d="M285.79,-33.41C293.65,-31.9 301.81,-30.33 309.86,-28.77"/>
<polygon fill="#63b8ff" stroke="#63b8ff" points="310.49,-32.22 319.65,-26.89 309.17,-25.34 310.49,-32.22"/>
</a>
</g>
</g>
<!-- Node7&#45;&gt;Node7 -->
<g id="edge9_Node000007_Node000007" class="edge">
<title>Node7&#45;&gt;Node7</title>
<g id="a_edge9_Node000007_Node000007"><a xlink:title=" ">
<path fill="none" stroke="#63b8ff" d="M350.84,-32.44C345.93,-41.58 354.69,-50 377.12,-50 389.39,-50 397.57,-47.48 401.66,-43.71"/>
<polygon fill="#63b8ff" stroke="#63b8ff" points="405.1,-44.36 403.18,-33.94 398.19,-43.28 405.1,-44.36"/>
</a>
</g>
</g>
</g>
</svg>
