<?xml version="1.0" encoding="UTF-8" standalone="no"?>
<!DOCTYPE svg PUBLIC "-//W3C//DTD SVG 1.1//EN"
 "http://www.w3.org/Graphics/SVG/1.1/DTD/svg11.dtd">
<!-- Generated by graphviz version 13.1.0 (20250701.0955)
 -->
<!-- Title: Fiea::Engine::Actions::ActionList::AddAction Pages: 1 -->
<svg width="721pt" height="382pt"
 viewBox="0.00 0.00 721.00 382.00" xmlns="http://www.w3.org/2000/svg" xmlns:xlink="http://www.w3.org/1999/xlink">
<g id="graph0" class="graph" transform="scale(1 1) rotate(0) translate(4 378)">
<title>Fiea::Engine::Actions::ActionList::AddAction</title>
<!-- Node1 -->
<g id="Node000001" class="node">
<title>Node1</title>
<g id="a_Node000001"><a xlink:title=" ">
<polygon fill="#999999" stroke="#666666" points="116.5,-157 0,-157 0,-125 116.5,-125 116.5,-157"/>
<text xml:space="preserve" text-anchor="start" x="8" y="-143.5" font-family="Helvetica,sans-Serif" font-size="10.00">Fiea::Engine::Actions</text>
<text xml:space="preserve" text-anchor="middle" x="58.25" y="-131.5" font-family="Helvetica,sans-Serif" font-size="10.00">::ActionList::AddAction</text>
</a>
</g>
</g>
<!-- Node2 -->
<g id="Node000002" class="node">
<title>Node2</title>
<g id="a_Node000002"><a xlink:href="class_fiea_1_1_engine_1_1_actions_1_1_action.html#ae2af386f7122152003b00da79393e19e" target="_top" xlink:title=" ">
<polygon fill="white" stroke="#666666" points="263,-288 153.25,-288 153.25,-256 263,-256 263,-288"/>
<text xml:space="preserve" text-anchor="start" x="161.25" y="-274.5" font-family="Helvetica,sans-Serif" font-size="10.00">Fiea::Engine::Actions</text>
<text xml:space="preserve" text-anchor="middle" x="208.12" y="-262.5" font-family="Helvetica,sans-Serif" font-size="10.00">::Action::Action</text>
</a>
</g>
</g>
<!-- Node1&#45;&gt;Node2 -->
<g id="edge1_Node000001_Node000002" class="edge">
<title>Node1&#45;&gt;Node2</title>
<g id="a_edge1_Node000001_Node000002"><a xlink:title=" ">
<path fill="none" stroke="#63b8ff" d="M71.84,-157.33C88.65,-178.41 120.08,-215.41 152.5,-241 156.26,-243.96 160.33,-246.82 164.5,-249.53"/>
<polygon fill="#63b8ff" stroke="#63b8ff" points="162.66,-252.5 173.01,-254.73 166.31,-246.53 162.66,-252.5"/>
</a>
</g>
</g>
<!-- Node10 -->
<g id="Node000010" class="node">
<title>Node10</title>
<g id="a_Node000010"><a xlink:href="class_fiea_1_1_engine_1_1_content_1_1_scope.html#aa91d6470fd3d3f402bbb2e765be54455" target="_top" xlink:title="Appends a new Datum with the given key.">
<polygon fill="white" stroke="#666666" points="263.75,-232 152.5,-232 152.5,-200 263.75,-200 263.75,-232"/>
<text xml:space="preserve" text-anchor="start" x="160.5" y="-218.5" font-family="Helvetica,sans-Serif" font-size="10.00">Fiea::Engine::Content</text>
<text xml:space="preserve" text-anchor="middle" x="208.12" y="-206.5" font-family="Helvetica,sans-Serif" font-size="10.00">::Scope::Append</text>
</a>
</g>
</g>
<!-- Node1&#45;&gt;Node10 -->
<g id="edge14_Node000001_Node000010" class="edge">
<title>Node1&#45;&gt;Node10</title>
<g id="a_edge14_Node000001_Node000010"><a xlink:title=" ">
<path fill="none" stroke="#63b8ff" d="M88.82,-157.47C107.03,-167.46 130.94,-180.3 152.5,-191 154.9,-192.19 157.38,-193.4 159.88,-194.6"/>
<polygon fill="#63b8ff" stroke="#63b8ff" points="158.34,-197.75 168.88,-198.86 161.33,-191.42 158.34,-197.75"/>
</a>
</g>
</g>
<!-- Node11 -->
<g id="Node000011" class="node">
<title>Node11</title>
<g id="a_Node000011"><a xlink:href="class_fiea_1_1_engine_1_1_content_1_1_scope.html#ad924c01785b239991fc0e56a63295612" target="_top" xlink:title="Finds a Datum by key.">
<polygon fill="white" stroke="#666666" points="263.75,-182 152.5,-182 152.5,-150 263.75,-150 263.75,-182"/>
<text xml:space="preserve" text-anchor="start" x="160.5" y="-168.5" font-family="Helvetica,sans-Serif" font-size="10.00">Fiea::Engine::Content</text>
<text xml:space="preserve" text-anchor="middle" x="208.12" y="-156.5" font-family="Helvetica,sans-Serif" font-size="10.00">::Scope::Find</text>
</a>
</g>
</g>
<!-- Node1&#45;&gt;Node11 -->
<g id="edge15_Node000001_Node000011" class="edge">
<title>Node1&#45;&gt;Node11</title>
<g id="a_edge15_Node000001_Node000011"><a xlink:title=" ">
<path fill="none" stroke="#63b8ff" d="M116.85,-150.74C124.78,-152.08 132.98,-153.47 141.06,-154.83"/>
<polygon fill="#63b8ff" stroke="#63b8ff" points="140.41,-158.27 150.86,-156.49 141.58,-151.37 140.41,-158.27"/>
</a>
</g>
</g>
<!-- Node12 -->
<g id="Node000012" class="node">
<title>Node12</title>
<g id="a_Node000012"><a xlink:href="class_fiea_1_1_engine_1_1_content_1_1_datum.html#acb3ba55fc9b39b876cf3334d0305f4fc" target="_top" xlink:title=" ">
<polygon fill="white" stroke="#666666" points="263.75,-132 152.5,-132 152.5,-100 263.75,-100 263.75,-132"/>
<text xml:space="preserve" text-anchor="start" x="160.5" y="-118.5" font-family="Helvetica,sans-Serif" font-size="10.00">Fiea::Engine::Content</text>
<text xml:space="preserve" text-anchor="middle" x="208.12" y="-106.5" font-family="Helvetica,sans-Serif" font-size="10.00">::Datum::Push</text>
</a>
</g>
</g>
<!-- Node1&#45;&gt;Node12 -->
<g id="edge16_Node000001_Node000012" class="edge">
<title>Node1&#45;&gt;Node12</title>
<g id="a_edge16_Node000001_Node000012"><a xlink:title=" ">
<path fill="none" stroke="#63b8ff" d="M116.85,-131.26C124.78,-129.92 132.98,-128.53 141.06,-127.17"/>
<polygon fill="#63b8ff" stroke="#63b8ff" points="141.58,-130.63 150.86,-125.51 140.41,-123.73 141.58,-130.63"/>
</a>
</g>
</g>
<!-- Node15 -->
<g id="Node000015" class="node">
<title>Node15</title>
<g id="a_Node000015"><a xlink:href="class_fiea_1_1_engine_1_1_content_1_1_scope.html#af6a94922a8fa123c3b22b7b4485963de" target="_top" xlink:title=" ">
<polygon fill="white" stroke="#666666" points="263.75,-82 152.5,-82 152.5,-50 263.75,-50 263.75,-82"/>
<text xml:space="preserve" text-anchor="start" x="160.5" y="-68.5" font-family="Helvetica,sans-Serif" font-size="10.00">Fiea::Engine::Content</text>
<text xml:space="preserve" text-anchor="middle" x="208.12" y="-56.5" font-family="Helvetica,sans-Serif" font-size="10.00">::Scope::SetParent</text>
</a>
</g>
</g>
<!-- Node1&#45;&gt;Node15 -->
<g id="edge21_Node000001_Node000015" class="edge">
<title>Node1&#45;&gt;Node15</title>
<g id="a_edge21_Node000001_Node000015"><a xlink:title=" ">
<path fill="none" stroke="#63b8ff" d="M88.82,-124.53C107.03,-114.54 130.94,-101.7 152.5,-91 154.9,-89.81 157.38,-88.6 159.88,-87.4"/>
<polygon fill="#63b8ff" stroke="#63b8ff" points="161.33,-90.58 168.88,-83.14 158.34,-84.25 161.33,-90.58"/>
</a>
</g>
</g>
<!-- Node17 -->
<g id="Node000017" class="node">
<title>Node17</title>
<g id="a_Node000017"><a xlink:href="class_fiea_1_1_engine_1_1_content_1_1_datum.html#a23d1f16d9646f024a5dee1f05dbd5a5e" target="_top" xlink:title=" ">
<polygon fill="white" stroke="#666666" points="263.75,-32 152.5,-32 152.5,0 263.75,0 263.75,-32"/>
<text xml:space="preserve" text-anchor="start" x="160.5" y="-18.5" font-family="Helvetica,sans-Serif" font-size="10.00">Fiea::Engine::Content</text>
<text xml:space="preserve" text-anchor="middle" x="208.12" y="-6.5" font-family="Helvetica,sans-Serif" font-size="10.00">::Datum::SetType</text>
</a>
</g>
</g>
<!-- Node1&#45;&gt;Node17 -->
<g id="edge24_Node000001_Node000017" class="edge">
<title>Node1&#45;&gt;Node17</title>
<g id="a_edge24_Node000001_Node000017"><a xlink:title=" ">
<path fill="none" stroke="#63b8ff" d="M71.23,-124.6C87.6,-103.11 118.81,-65.3 152.5,-41 153.85,-40.03 155.24,-39.08 156.67,-38.16"/>
<polygon fill="#63b8ff" stroke="#63b8ff" points="158.27,-41.27 165.13,-33.2 154.74,-35.23 158.27,-41.27"/>
</a>
</g>
</g>
<!-- Node3 -->
<g id="Node000003" class="node">
<title>Node3</title>
<g id="a_Node000003"><a xlink:href="class_fiea_1_1_engine_1_1_content_1_1_attributed.html#ad1ae014235d9d8b62b36066c94164148" target="_top" xlink:title=" ">
<polygon fill="white" stroke="#666666" points="411.75,-356 299.75,-356 299.75,-324 411.75,-324 411.75,-356"/>
<text xml:space="preserve" text-anchor="start" x="307.75" y="-342.5" font-family="Helvetica,sans-Serif" font-size="10.00">Fiea::Engine::Content</text>
<text xml:space="preserve" text-anchor="middle" x="355.75" y="-330.5" font-family="Helvetica,sans-Serif" font-size="10.00">::Attributed::Attributed</text>
</a>
</g>
</g>
<!-- Node2&#45;&gt;Node3 -->
<g id="edge2_Node000002_Node000003" class="edge">
<title>Node2&#45;&gt;Node3</title>
<g id="a_edge2_Node000002_Node000003"><a xlink:title=" ">
<path fill="none" stroke="#63b8ff" d="M243.49,-288.47C260.4,-296.53 281.11,-306.34 299.75,-315 302.47,-316.26 305.26,-317.55 308.08,-318.85"/>
<polygon fill="#63b8ff" stroke="#63b8ff" points="306.4,-321.93 316.95,-322.91 309.31,-315.57 306.4,-321.93"/>
</a>
</g>
</g>
<!-- Node4 -->
<g id="Node000004" class="node">
<title>Node4</title>
<g id="a_Node000004"><a xlink:href="class_fiea_1_1_engine_1_1_r_t_t_i.html#a876bebbe7b3149483c43a87f55f4ea99" target="_top" xlink:title=" ">
<polygon fill="white" stroke="#666666" points="405,-288 306.5,-288 306.5,-256 405,-256 405,-288"/>
<text xml:space="preserve" text-anchor="start" x="314.5" y="-274.5" font-family="Helvetica,sans-Serif" font-size="10.00">Fiea::Engine::RTTI</text>
<text xml:space="preserve" text-anchor="middle" x="355.75" y="-262.5" font-family="Helvetica,sans-Serif" font-size="10.00">::TypeIdInstance</text>
</a>
</g>
</g>
<!-- Node2&#45;&gt;Node4 -->
<g id="edge4_Node000002_Node000004" class="edge">
<title>Node2&#45;&gt;Node4</title>
<g id="a_edge4_Node000002_Node000004"><a xlink:title=" ">
<path fill="none" stroke="#63b8ff" d="M263.35,-272C273.68,-272 284.55,-272 295.04,-272"/>
<polygon fill="#63b8ff" stroke="#63b8ff" points="294.73,-275.5 304.73,-272 294.73,-268.5 294.73,-275.5"/>
</a>
</g>
</g>
<!-- Node3&#45;&gt;Node3 -->
<g id="edge3_Node000003_Node000003" class="edge">
<title>Node3&#45;&gt;Node3</title>
<g id="a_edge3_Node000003_Node000003"><a xlink:title=" ">
<path fill="none" stroke="#63b8ff" d="M329.39,-356.44C324.48,-365.58 333.26,-374 355.75,-374 368.05,-374 376.25,-371.48 380.35,-367.71"/>
<polygon fill="#63b8ff" stroke="#63b8ff" points="383.79,-368.36 381.87,-357.94 376.88,-367.28 383.79,-368.36"/>
</a>
</g>
</g>
<!-- Node4&#45;&gt;Node4 -->
<g id="edge13_Node000004_Node000004" class="edge">
<title>Node4&#45;&gt;Node4</title>
<g id="a_edge13_Node000004_Node000004"><a xlink:title=" ">
<path fill="none" stroke="#63b8ff" d="M329.39,-288.44C324.48,-297.58 333.26,-306 355.75,-306 368.05,-306 376.25,-303.48 380.35,-299.71"/>
<polygon fill="#63b8ff" stroke="#63b8ff" points="383.79,-300.36 381.87,-289.94 376.88,-299.28 383.79,-300.36"/>
</a>
</g>
</g>
<!-- Node5 -->
<g id="Node000005" class="node">
<title>Node5</title>
<g id="a_Node000005"><a xlink:href="class_fiea_1_1_engine_1_1_r_t_t_i.html#a15bd5993c8ad04da47af440298ebbb30" target="_top" xlink:title=" ">
<polygon fill="white" stroke="#666666" points="564.25,-323 447.75,-323 447.75,-303 564.25,-303 564.25,-323"/>
<text xml:space="preserve" text-anchor="middle" x="506" y="-309.5" font-family="Helvetica,sans-Serif" font-size="10.00">Fiea::Engine::RTTI::As</text>
</a>
</g>
</g>
<!-- Node4&#45;&gt;Node5 -->
<g id="edge5_Node000004_Node000005" class="edge">
<title>Node4&#45;&gt;Node5</title>
<g id="a_edge5_Node000004_Node000005"><a xlink:title=" ">
<path fill="none" stroke="#63b8ff" d="M405.29,-285.42C421.62,-289.94 439.84,-294.98 456.19,-299.5"/>
<polygon fill="#63b8ff" stroke="#63b8ff" points="455.13,-302.84 465.71,-302.13 457,-296.09 455.13,-302.84"/>
</a>
</g>
</g>
<!-- Node6 -->
<g id="Node000006" class="node">
<title>Node6</title>
<g id="a_Node000006"><a xlink:href="class_fiea_1_1_engine_1_1_r_t_t_i.html#ac0a7d875e4513b2aca7594abcd4418ef" target="_top" xlink:title=" ">
<polygon fill="white" stroke="#666666" points="713,-345 600.25,-345 600.25,-325 713,-325 713,-345"/>
<text xml:space="preserve" text-anchor="middle" x="656.62" y="-331.5" font-family="Helvetica,sans-Serif" font-size="10.00">Fiea::Engine::RTTI::Is</text>
</a>
</g>
</g>
<!-- Node4&#45;&gt;Node6 -->
<g id="edge10_Node000004_Node000006" class="edge">
<title>Node4&#45;&gt;Node6</title>
<g id="a_edge10_Node000004_Node000006"><a xlink:title=" ">
<path fill="none" stroke="#63b8ff" d="M378.22,-288.21C400.15,-304.38 433.01,-327.46 447.75,-332 493.31,-346.03 547.2,-346.38 588.68,-343.43"/>
<polygon fill="#63b8ff" stroke="#63b8ff" points="588.84,-346.93 598.53,-342.64 588.28,-339.95 588.84,-346.93"/>
</a>
</g>
</g>
<!-- Node7 -->
<g id="Node000007" class="node">
<title>Node7</title>
<g id="a_Node000007"><a xlink:href="class_fiea_1_1_engine_1_1_r_t_t_i.html#a13000029a2e6cced30b831e466e07cae" target="_top" xlink:title=" ">
<polygon fill="white" stroke="#666666" points="705.88,-291 607.38,-291 607.38,-259 705.88,-259 705.88,-291"/>
<text xml:space="preserve" text-anchor="start" x="615.38" y="-277.5" font-family="Helvetica,sans-Serif" font-size="10.00">Fiea::Engine::RTTI</text>
<text xml:space="preserve" text-anchor="middle" x="656.62" y="-265.5" font-family="Helvetica,sans-Serif" font-size="10.00">::RTTI</text>
</a>
</g>
</g>
<!-- Node4&#45;&gt;Node7 -->
<g id="edge11_Node000004_Node000007" class="edge">
<title>Node4&#45;&gt;Node7</title>
<g id="a_edge11_Node000004_Node000007"><a xlink:title=" ">
<path fill="none" stroke="#63b8ff" d="M405.43,-272.49C457.32,-273.01 539.54,-273.83 595.45,-274.4"/>
<polygon fill="#63b8ff" stroke="#63b8ff" points="595.41,-277.9 605.45,-274.5 595.48,-270.9 595.41,-277.9"/>
</a>
</g>
</g>
<!-- Node8 -->
<g id="Node000008" class="node">
<title>Node8</title>
<g id="a_Node000008"><a xlink:href="class_fiea_1_1_engine_1_1_r_t_t_i.html#a7f70ad5ba0f8a3388543d63d72892575" target="_top" xlink:title=" ">
<polygon fill="white" stroke="#666666" points="555.25,-247 456.75,-247 456.75,-215 555.25,-215 555.25,-247"/>
<text xml:space="preserve" text-anchor="start" x="464.75" y="-233.5" font-family="Helvetica,sans-Serif" font-size="10.00">Fiea::Engine::RTTI</text>
<text xml:space="preserve" text-anchor="middle" x="506" y="-221.5" font-family="Helvetica,sans-Serif" font-size="10.00">::Equals</text>
</a>
</g>
</g>
<!-- Node4&#45;&gt;Node8 -->
<g id="edge8_Node000004_Node000008" class="edge">
<title>Node4&#45;&gt;Node8</title>
<g id="a_edge8_Node000004_Node000008"><a xlink:title=" ">
<path fill="none" stroke="#63b8ff" d="M405.29,-258.58C418.09,-255.04 432.05,-251.18 445.36,-247.49"/>
<polygon fill="#63b8ff" stroke="#63b8ff" points="446.18,-250.9 454.89,-244.86 444.32,-244.15 446.18,-250.9"/>
</a>
</g>
</g>
<!-- Node9 -->
<g id="Node000009" class="node">
<title>Node9</title>
<g id="a_Node000009"><a xlink:href="class_fiea_1_1_engine_1_1_r_t_t_i.html#a43a7d187e332a17d2c699bc2c8136a30" target="_top" xlink:title=" ">
<polygon fill="white" stroke="#666666" points="555.25,-197 456.75,-197 456.75,-165 555.25,-165 555.25,-197"/>
<text xml:space="preserve" text-anchor="start" x="464.75" y="-183.5" font-family="Helvetica,sans-Serif" font-size="10.00">Fiea::Engine::RTTI</text>
<text xml:space="preserve" text-anchor="middle" x="506" y="-171.5" font-family="Helvetica,sans-Serif" font-size="10.00">::ToString</text>
</a>
</g>
</g>
<!-- Node4&#45;&gt;Node9 -->
<g id="edge12_Node000004_Node000009" class="edge">
<title>Node4&#45;&gt;Node9</title>
<g id="a_edge12_Node000004_Node000009"><a xlink:title=" ">
<path fill="none" stroke="#63b8ff" d="M376.5,-255.75C394.39,-241.51 421.83,-220.83 447.75,-206 449.89,-204.77 452.1,-203.57 454.36,-202.39"/>
<polygon fill="#63b8ff" stroke="#63b8ff" points="455.66,-205.66 463.07,-198.08 452.55,-199.38 455.66,-205.66"/>
</a>
</g>
</g>
<!-- Node5&#45;&gt;Node6 -->
<g id="edge6_Node000005_Node000006" class="edge">
<title>Node5&#45;&gt;Node6</title>
<g id="a_edge6_Node000005_Node000006"><a xlink:title=" ">
<path fill="none" stroke="#63b8ff" d="M564.46,-321.51C572.35,-322.67 580.5,-323.88 588.53,-325.07"/>
<polygon fill="#63b8ff" stroke="#63b8ff" points="587.88,-328.51 598.28,-326.51 588.91,-321.59 587.88,-328.51"/>
</a>
</g>
</g>
<!-- Node5&#45;&gt;Node7 -->
<g id="edge7_Node000005_Node000007" class="edge">
<title>Node5&#45;&gt;Node7</title>
<g id="a_edge7_Node000005_Node000007"><a xlink:title=" ">
<path fill="none" stroke="#63b8ff" d="M548.01,-302.52C562.88,-298.71 579.99,-294.34 596.13,-290.21"/>
<polygon fill="#63b8ff" stroke="#63b8ff" points="596.82,-293.65 605.64,-287.78 595.09,-286.87 596.82,-293.65"/>
</a>
</g>
</g>
<!-- Node8&#45;&gt;Node7 -->
<g id="edge9_Node000008_Node000007" class="edge">
<title>Node8&#45;&gt;Node7</title>
<g id="a_edge9_Node000008_Node000007"><a xlink:title=" ">
<path fill="none" stroke="#63b8ff" d="M555.67,-245.41C568.69,-249.26 582.92,-253.47 596.44,-257.48"/>
<polygon fill="#63b8ff" stroke="#63b8ff" points="595.07,-260.72 605.65,-260.21 597.06,-254.01 595.07,-260.72"/>
</a>
</g>
</g>
<!-- Node13 -->
<g id="Node000013" class="node">
<title>Node13</title>
<g id="a_Node000013"><a xlink:href="class_fiea_1_1_engine_1_1_content_1_1_datum.html#a818f812e4489e57885c88951bc0601b3" target="_top" xlink:title=" ">
<polygon fill="white" stroke="#666666" points="411.38,-173 300.12,-173 300.12,-141 411.38,-141 411.38,-173"/>
<text xml:space="preserve" text-anchor="start" x="308.12" y="-159.5" font-family="Helvetica,sans-Serif" font-size="10.00">Fiea::Engine::Content</text>
<text xml:space="preserve" text-anchor="middle" x="355.75" y="-147.5" font-family="Helvetica,sans-Serif" font-size="10.00">::Datum::ResizeArray</text>
</a>
</g>
</g>
<!-- Node12&#45;&gt;Node13 -->
<g id="edge17_Node000012_Node000013" class="edge">
<title>Node12&#45;&gt;Node13</title>
<g id="a_edge17_Node000012_Node000013"><a xlink:title=" ">
<path fill="none" stroke="#63b8ff" d="M264.18,-131.5C272.36,-133.8 280.85,-136.19 289.22,-138.55"/>
<polygon fill="#63b8ff" stroke="#63b8ff" points="288.07,-141.86 298.64,-141.2 289.97,-135.12 288.07,-141.86"/>
</a>
</g>
</g>
<!-- Node14 -->
<g id="Node000014" class="node">
<title>Node14</title>
<g id="a_Node000014"><a xlink:href="class_fiea_1_1_engine_1_1_content_1_1_datum.html#a921193447f6e42f596ac0a7694b02830" target="_top" xlink:title=" ">
<polygon fill="white" stroke="#666666" points="561.62,-129 450.38,-129 450.38,-97 561.62,-97 561.62,-129"/>
<text xml:space="preserve" text-anchor="start" x="458.38" y="-115.5" font-family="Helvetica,sans-Serif" font-size="10.00">Fiea::Engine::Content</text>
<text xml:space="preserve" text-anchor="middle" x="506" y="-103.5" font-family="Helvetica,sans-Serif" font-size="10.00">::Datum::Scope</text>
</a>
</g>
</g>
<!-- Node12&#45;&gt;Node14 -->
<g id="edge20_Node000012_Node000014" class="edge">
<title>Node12&#45;&gt;Node14</title>
<g id="a_edge20_Node000012_Node000014"><a xlink:title=" ">
<path fill="none" stroke="#63b8ff" d="M264.08,-115.44C313.52,-114.94 386.24,-114.2 438.85,-113.67"/>
<polygon fill="#63b8ff" stroke="#63b8ff" points="438.61,-117.17 448.57,-113.57 438.54,-110.17 438.61,-117.17"/>
</a>
</g>
</g>
<!-- Node13&#45;&gt;Node14 -->
<g id="edge18_Node000013_Node000014" class="edge">
<title>Node13&#45;&gt;Node14</title>
<g id="a_edge18_Node000013_Node000014"><a xlink:title=" ">
<path fill="none" stroke="#63b8ff" d="M411.53,-140.74C420.54,-138.07 429.96,-135.27 439.21,-132.53"/>
<polygon fill="#63b8ff" stroke="#63b8ff" points="439.91,-135.97 448.5,-129.77 437.92,-129.26 439.91,-135.97"/>
</a>
</g>
</g>
<!-- Node14&#45;&gt;Node14 -->
<g id="edge19_Node000014_Node000014" class="edge">
<title>Node14&#45;&gt;Node14</title>
<g id="a_edge19_Node000014_Node000014"><a xlink:title=" ">
<path fill="none" stroke="#63b8ff" d="M479.18,-129.44C474.17,-138.58 483.11,-147 506,-147 518.52,-147 526.86,-144.48 531.04,-140.71"/>
<polygon fill="#63b8ff" stroke="#63b8ff" points="534.48,-141.36 532.59,-130.94 527.56,-140.27 534.48,-141.36"/>
</a>
</g>
</g>
<!-- Node16 -->
<g id="Node000016" class="node">
<title>Node16</title>
<g id="a_Node000016"><a xlink:href="class_fiea_1_1_engine_1_1_content_1_1_scope.html#a6631343c968c233ab1d9c3e05c3f4fe9" target="_top" xlink:title=" ">
<polygon fill="white" stroke="#666666" points="411.38,-67 300.12,-67 300.12,-35 411.38,-35 411.38,-67"/>
<text xml:space="preserve" text-anchor="start" x="308.12" y="-53.5" font-family="Helvetica,sans-Serif" font-size="10.00">Fiea::Engine::Content</text>
<text xml:space="preserve" text-anchor="middle" x="355.75" y="-41.5" font-family="Helvetica,sans-Serif" font-size="10.00">::Scope::Scope</text>
</a>
</g>
</g>
<!-- Node15&#45;&gt;Node16 -->
<g id="edge22_Node000015_Node000016" class="edge">
<title>Node15&#45;&gt;Node16</title>
<g id="a_edge22_Node000015_Node000016"><a xlink:title=" ">
<path fill="none" stroke="#63b8ff" d="M264.18,-60.33C272.17,-59.51 280.47,-58.65 288.65,-57.81"/>
<polygon fill="#63b8ff" stroke="#63b8ff" points="289.01,-61.29 298.6,-56.78 288.29,-54.33 289.01,-61.29"/>
</a>
</g>
</g>
<!-- Node16&#45;&gt;Node16 -->
<g id="edge23_Node000016_Node000016" class="edge">
<title>Node16&#45;&gt;Node16</title>
<g id="a_edge23_Node000016_Node000016"><a xlink:title=" ">
<path fill="none" stroke="#63b8ff" d="M329.39,-67.44C324.48,-76.58 333.26,-85 355.75,-85 368.05,-85 376.25,-82.48 380.35,-78.71"/>
<polygon fill="#63b8ff" stroke="#63b8ff" points="383.79,-79.36 381.87,-68.94 376.88,-78.28 383.79,-79.36"/>
</a>
</g>
</g>
</g>
</svg>
