<?xml version="1.0" encoding="UTF-8" standalone="no"?>
<!DOCTYPE svg PUBLIC "-//W3C//DTD SVG 1.1//EN"
 "http://www.w3.org/Graphics/SVG/1.1/DTD/svg11.dtd">
<!-- Generated by graphviz version 13.1.0 (20250701.0955)
 -->
<!-- Title: Fiea::Engine::Content::Scope::Adopt Pages: 1 -->
<svg width="561pt" height="328pt"
 viewBox="0.00 0.00 561.00 328.00" xmlns="http://www.w3.org/2000/svg" xmlns:xlink="http://www.w3.org/1999/xlink">
<g id="graph0" class="graph" transform="scale(1 1) rotate(0) translate(4 324)">
<title>Fiea::Engine::Content::Scope::Adopt</title>
<!-- Node1 -->
<g id="Node000001" class="node">
<title>Node1</title>
<g id="a_Node000001"><a xlink:title="Adopts an existing Scope as a child under the specified key.">
<polygon fill="#999999" stroke="#666666" points="111.25,-170 0,-170 0,-138 111.25,-138 111.25,-170"/>
<text xml:space="preserve" text-anchor="start" x="8" y="-156.5" font-family="Helvetica,sans-Serif" font-size="10.00">Fiea::Engine::Content</text>
<text xml:space="preserve" text-anchor="middle" x="55.62" y="-144.5" font-family="Helvetica,sans-Serif" font-size="10.00">::Scope::Adopt</text>
</a>
</g>
</g>
<!-- Node2 -->
<g id="Node000002" class="node">
<title>Node2</title>
<g id="a_Node000002"><a xlink:href="class_fiea_1_1_engine_1_1_content_1_1_scope.html#aa91d6470fd3d3f402bbb2e765be54455" target="_top" xlink:title="Appends a new Datum with the given key.">
<polygon fill="white" stroke="#666666" points="258.5,-320 147.25,-320 147.25,-288 258.5,-288 258.5,-320"/>
<text xml:space="preserve" text-anchor="start" x="155.25" y="-306.5" font-family="Helvetica,sans-Serif" font-size="10.00">Fiea::Engine::Content</text>
<text xml:space="preserve" text-anchor="middle" x="202.88" y="-294.5" font-family="Helvetica,sans-Serif" font-size="10.00">::Scope::Append</text>
</a>
</g>
</g>
<!-- Node1&#45;&gt;Node2 -->
<g id="edge1_Node000001_Node000002" class="edge">
<title>Node1&#45;&gt;Node2</title>
<g id="a_edge1_Node000001_Node000002"><a xlink:title=" ">
<path fill="none" stroke="#63b8ff" d="M64.82,-170.26C78.64,-196.29 108.89,-247.57 147.25,-279 148.34,-279.89 149.47,-280.76 150.62,-281.6"/>
<polygon fill="#63b8ff" stroke="#63b8ff" points="148.38,-284.32 158.69,-286.77 152.16,-278.43 148.38,-284.32"/>
</a>
</g>
</g>
<!-- Node3 -->
<g id="Node000003" class="node">
<title>Node3</title>
<g id="a_Node000003"><a xlink:href="class_fiea_1_1_engine_1_1_content_1_1_scope.html#ad924c01785b239991fc0e56a63295612" target="_top" xlink:title="Finds a Datum by key.">
<polygon fill="white" stroke="#666666" points="258.5,-270 147.25,-270 147.25,-238 258.5,-238 258.5,-270"/>
<text xml:space="preserve" text-anchor="start" x="155.25" y="-256.5" font-family="Helvetica,sans-Serif" font-size="10.00">Fiea::Engine::Content</text>
<text xml:space="preserve" text-anchor="middle" x="202.88" y="-244.5" font-family="Helvetica,sans-Serif" font-size="10.00">::Scope::Find</text>
</a>
</g>
</g>
<!-- Node1&#45;&gt;Node3 -->
<g id="edge2_Node000001_Node000003" class="edge">
<title>Node1&#45;&gt;Node3</title>
<g id="a_edge2_Node000001_Node000003"><a xlink:title=" ">
<path fill="none" stroke="#63b8ff" d="M73.62,-170.4C91.09,-186.68 119.57,-211.64 147.25,-229 149.07,-230.14 150.96,-231.26 152.88,-232.36"/>
<polygon fill="#63b8ff" stroke="#63b8ff" points="150.91,-235.28 161.38,-236.89 154.2,-229.1 150.91,-235.28"/>
</a>
</g>
</g>
<!-- Node4 -->
<g id="Node000004" class="node">
<title>Node4</title>
<g id="a_Node000004"><a xlink:href="class_fiea_1_1_engine_1_1_content_1_1_datum.html#a6e9dfba6e16fddc4efc39b8182dad89f" target="_top" xlink:title=" ">
<polygon fill="white" stroke="#666666" points="258.5,-220 147.25,-220 147.25,-188 258.5,-188 258.5,-220"/>
<text xml:space="preserve" text-anchor="start" x="155.25" y="-206.5" font-family="Helvetica,sans-Serif" font-size="10.00">Fiea::Engine::Content</text>
<text xml:space="preserve" text-anchor="middle" x="202.88" y="-194.5" font-family="Helvetica,sans-Serif" font-size="10.00">::Datum::IsType</text>
</a>
</g>
</g>
<!-- Node1&#45;&gt;Node4 -->
<g id="edge3_Node000001_Node000004" class="edge">
<title>Node1&#45;&gt;Node4</title>
<g id="a_edge3_Node000001_Node000004"><a xlink:title=" ">
<path fill="none" stroke="#63b8ff" d="M104.19,-170.37C116.73,-174.69 130.4,-179.4 143.44,-183.89"/>
<polygon fill="#63b8ff" stroke="#63b8ff" points="142.18,-187.15 152.78,-187.1 144.46,-180.53 142.18,-187.15"/>
</a>
</g>
</g>
<!-- Node5 -->
<g id="Node000005" class="node">
<title>Node5</title>
<g id="a_Node000005"><a xlink:href="class_fiea_1_1_engine_1_1_content_1_1_scope.html#a769b8bf0382518e075fb90f62940624c" target="_top" xlink:title="Removes this Scope from its parent.">
<polygon fill="white" stroke="#666666" points="258.5,-170 147.25,-170 147.25,-138 258.5,-138 258.5,-170"/>
<text xml:space="preserve" text-anchor="start" x="155.25" y="-156.5" font-family="Helvetica,sans-Serif" font-size="10.00">Fiea::Engine::Content</text>
<text xml:space="preserve" text-anchor="middle" x="202.88" y="-144.5" font-family="Helvetica,sans-Serif" font-size="10.00">::Scope::Orphan</text>
</a>
</g>
</g>
<!-- Node1&#45;&gt;Node5 -->
<g id="edge4_Node000001_Node000005" class="edge">
<title>Node1&#45;&gt;Node5</title>
<g id="a_edge4_Node000001_Node000005"><a xlink:title=" ">
<path fill="none" stroke="#63b8ff" d="M111.54,-154C119.4,-154 127.56,-154 135.61,-154"/>
<polygon fill="#63b8ff" stroke="#63b8ff" points="135.37,-157.5 145.37,-154 135.37,-150.5 135.37,-157.5"/>
</a>
</g>
</g>
<!-- Node7 -->
<g id="Node000007" class="node">
<title>Node7</title>
<g id="a_Node000007"><a xlink:href="class_fiea_1_1_engine_1_1_content_1_1_scope.html#a6631343c968c233ab1d9c3e05c3f4fe9" target="_top" xlink:title=" ">
<polygon fill="white" stroke="#666666" points="405.75,-132 294.5,-132 294.5,-100 405.75,-100 405.75,-132"/>
<text xml:space="preserve" text-anchor="start" x="302.5" y="-118.5" font-family="Helvetica,sans-Serif" font-size="10.00">Fiea::Engine::Content</text>
<text xml:space="preserve" text-anchor="middle" x="350.12" y="-106.5" font-family="Helvetica,sans-Serif" font-size="10.00">::Scope::Scope</text>
</a>
</g>
</g>
<!-- Node1&#45;&gt;Node7 -->
<g id="edge13_Node000001_Node000007" class="edge">
<title>Node1&#45;&gt;Node7</title>
<g id="a_edge13_Node000001_Node000007"><a xlink:title=" ">
<path fill="none" stroke="#63b8ff" d="M108.93,-137.61C121.38,-134.26 134.7,-131.11 147.25,-129 192.17,-121.44 243.39,-118.2 283,-116.85"/>
<polygon fill="#63b8ff" stroke="#63b8ff" points="282.97,-120.35 292.86,-116.55 282.75,-113.36 282.97,-120.35"/>
</a>
</g>
</g>
<!-- Node8 -->
<g id="Node000008" class="node">
<title>Node8</title>
<g id="a_Node000008"><a xlink:href="class_fiea_1_1_engine_1_1_content_1_1_datum.html#acb3ba55fc9b39b876cf3334d0305f4fc" target="_top" xlink:title=" ">
<polygon fill="white" stroke="#666666" points="258.5,-82 147.25,-82 147.25,-50 258.5,-50 258.5,-82"/>
<text xml:space="preserve" text-anchor="start" x="155.25" y="-68.5" font-family="Helvetica,sans-Serif" font-size="10.00">Fiea::Engine::Content</text>
<text xml:space="preserve" text-anchor="middle" x="202.88" y="-56.5" font-family="Helvetica,sans-Serif" font-size="10.00">::Datum::Push</text>
</a>
</g>
</g>
<!-- Node1&#45;&gt;Node8 -->
<g id="edge8_Node000001_Node000008" class="edge">
<title>Node1&#45;&gt;Node8</title>
<g id="a_edge8_Node000001_Node000008"><a xlink:title=" ">
<path fill="none" stroke="#63b8ff" d="M81.35,-137.54C99.41,-125.68 124.6,-109.45 147.25,-96 151.78,-93.31 156.56,-90.56 161.34,-87.87"/>
<polygon fill="#63b8ff" stroke="#63b8ff" points="162.69,-91.12 169.72,-83.2 159.28,-85 162.69,-91.12"/>
</a>
</g>
</g>
<!-- Node11 -->
<g id="Node000011" class="node">
<title>Node11</title>
<g id="a_Node000011"><a xlink:href="class_fiea_1_1_engine_1_1_content_1_1_datum.html#a23d1f16d9646f024a5dee1f05dbd5a5e" target="_top" xlink:title=" ">
<polygon fill="white" stroke="#666666" points="258.5,-32 147.25,-32 147.25,0 258.5,0 258.5,-32"/>
<text xml:space="preserve" text-anchor="start" x="155.25" y="-18.5" font-family="Helvetica,sans-Serif" font-size="10.00">Fiea::Engine::Content</text>
<text xml:space="preserve" text-anchor="middle" x="202.88" y="-6.5" font-family="Helvetica,sans-Serif" font-size="10.00">::Datum::SetType</text>
</a>
</g>
</g>
<!-- Node1&#45;&gt;Node11 -->
<g id="edge14_Node000001_Node000011" class="edge">
<title>Node1&#45;&gt;Node11</title>
<g id="a_edge14_Node000001_Node000011"><a xlink:title=" ">
<path fill="none" stroke="#63b8ff" d="M66.16,-137.79C80.91,-113.88 111.35,-68.98 147.25,-41 148.38,-40.12 149.55,-39.26 150.75,-38.42"/>
<polygon fill="#63b8ff" stroke="#63b8ff" points="152.45,-41.48 159.11,-33.24 148.76,-35.53 152.45,-41.48"/>
</a>
</g>
</g>
<!-- Node6 -->
<g id="Node000006" class="node">
<title>Node6</title>
<g id="a_Node000006"><a xlink:href="class_fiea_1_1_engine_1_1_content_1_1_datum.html#aae7a8c9d75274c388e81a925ad1f49ef" target="_top" xlink:title=" ">
<polygon fill="white" stroke="#666666" points="405.75,-200 294.5,-200 294.5,-168 405.75,-168 405.75,-200"/>
<text xml:space="preserve" text-anchor="start" x="302.5" y="-186.5" font-family="Helvetica,sans-Serif" font-size="10.00">Fiea::Engine::Content</text>
<text xml:space="preserve" text-anchor="middle" x="350.12" y="-174.5" font-family="Helvetica,sans-Serif" font-size="10.00">::Datum::RemoveAt</text>
</a>
</g>
</g>
<!-- Node5&#45;&gt;Node6 -->
<g id="edge5_Node000005_Node000006" class="edge">
<title>Node5&#45;&gt;Node6</title>
<g id="a_edge5_Node000005_Node000006"><a xlink:title=" ">
<path fill="none" stroke="#63b8ff" d="M258.79,-165.34C266.65,-166.97 274.81,-168.65 282.86,-170.31"/>
<polygon fill="#63b8ff" stroke="#63b8ff" points="282.15,-173.74 292.65,-172.34 283.57,-166.89 282.15,-173.74"/>
</a>
</g>
</g>
<!-- Node5&#45;&gt;Node7 -->
<g id="edge6_Node000005_Node000007" class="edge">
<title>Node5&#45;&gt;Node7</title>
<g id="a_edge6_Node000005_Node000007"><a xlink:title=" ">
<path fill="none" stroke="#63b8ff" d="M258.79,-139.63C266.74,-137.55 275,-135.39 283.14,-133.26"/>
<polygon fill="#63b8ff" stroke="#63b8ff" points="283.88,-136.69 292.67,-130.77 282.11,-129.91 283.88,-136.69"/>
</a>
</g>
</g>
<!-- Node7&#45;&gt;Node7 -->
<g id="edge7_Node000007_Node000007" class="edge">
<title>Node7&#45;&gt;Node7</title>
<g id="a_edge7_Node000007_Node000007"><a xlink:title=" ">
<path fill="none" stroke="#63b8ff" d="M323.84,-132.44C318.93,-141.58 327.69,-150 350.12,-150 362.39,-150 370.57,-147.48 374.66,-143.71"/>
<polygon fill="#63b8ff" stroke="#63b8ff" points="378.1,-144.36 376.18,-133.94 371.19,-143.28 378.1,-144.36"/>
</a>
</g>
</g>
<!-- Node9 -->
<g id="Node000009" class="node">
<title>Node9</title>
<g id="a_Node000009"><a xlink:href="class_fiea_1_1_engine_1_1_content_1_1_datum.html#a818f812e4489e57885c88951bc0601b3" target="_top" xlink:title=" ">
<polygon fill="white" stroke="#666666" points="405.75,-82 294.5,-82 294.5,-50 405.75,-50 405.75,-82"/>
<text xml:space="preserve" text-anchor="start" x="302.5" y="-68.5" font-family="Helvetica,sans-Serif" font-size="10.00">Fiea::Engine::Content</text>
<text xml:space="preserve" text-anchor="middle" x="350.12" y="-56.5" font-family="Helvetica,sans-Serif" font-size="10.00">::Datum::ResizeArray</text>
</a>
</g>
</g>
<!-- Node8&#45;&gt;Node9 -->
<g id="edge9_Node000008_Node000009" class="edge">
<title>Node8&#45;&gt;Node9</title>
<g id="a_edge9_Node000008_Node000009"><a xlink:title=" ">
<path fill="none" stroke="#63b8ff" d="M258.79,-66C266.65,-66 274.81,-66 282.86,-66"/>
<polygon fill="#63b8ff" stroke="#63b8ff" points="282.62,-69.5 292.62,-66 282.62,-62.5 282.62,-69.5"/>
</a>
</g>
</g>
<!-- Node10 -->
<g id="Node000010" class="node">
<title>Node10</title>
<g id="a_Node000010"><a xlink:href="class_fiea_1_1_engine_1_1_content_1_1_datum.html#a921193447f6e42f596ac0a7694b02830" target="_top" xlink:title=" ">
<polygon fill="white" stroke="#666666" points="553,-60 441.75,-60 441.75,-28 553,-28 553,-60"/>
<text xml:space="preserve" text-anchor="start" x="449.75" y="-46.5" font-family="Helvetica,sans-Serif" font-size="10.00">Fiea::Engine::Content</text>
<text xml:space="preserve" text-anchor="middle" x="497.38" y="-34.5" font-family="Helvetica,sans-Serif" font-size="10.00">::Datum::Scope</text>
</a>
</g>
</g>
<!-- Node8&#45;&gt;Node10 -->
<g id="edge12_Node000008_Node000010" class="edge">
<title>Node8&#45;&gt;Node10</title>
<g id="a_edge12_Node000008_Node000010"><a xlink:title=" ">
<path fill="none" stroke="#63b8ff" d="M254.18,-49.54C267.17,-46.01 281.24,-42.8 294.5,-41 339.39,-34.92 390.41,-35.75 429.93,-38.05"/>
<polygon fill="#63b8ff" stroke="#63b8ff" points="429.56,-41.53 439.76,-38.68 430.01,-34.55 429.56,-41.53"/>
</a>
</g>
</g>
<!-- Node9&#45;&gt;Node10 -->
<g id="edge10_Node000009_Node000010" class="edge">
<title>Node9&#45;&gt;Node10</title>
<g id="a_edge10_Node000009_Node000010"><a xlink:title=" ">
<path fill="none" stroke="#63b8ff" d="M406.04,-57.68C413.9,-56.49 422.06,-55.26 430.11,-54.04"/>
<polygon fill="#63b8ff" stroke="#63b8ff" points="430.53,-57.51 439.89,-52.56 429.48,-50.59 430.53,-57.51"/>
</a>
</g>
</g>
<!-- Node10&#45;&gt;Node10 -->
<g id="edge11_Node000010_Node000010" class="edge">
<title>Node10&#45;&gt;Node10</title>
<g id="a_edge11_Node000010_Node000010"><a xlink:title=" ">
<path fill="none" stroke="#63b8ff" d="M471.09,-60.44C466.18,-69.58 474.94,-78 497.38,-78 509.64,-78 517.82,-75.48 521.91,-71.71"/>
<polygon fill="#63b8ff" stroke="#63b8ff" points="525.35,-72.36 523.43,-61.94 518.44,-71.28 525.35,-72.36"/>
</a>
</g>
</g>
</g>
</svg>
