<?xml version="1.0" encoding="UTF-8" standalone="no"?>
<!DOCTYPE svg PUBLIC "-//W3C//DTD SVG 1.1//EN"
 "http://www.w3.org/Graphics/SVG/1.1/DTD/svg11.dtd">
<!-- Generated by graphviz version 13.1.0 (20250701.0955)
 -->
<!-- Title: Fiea::Engine::List::Iterator::operator&#45;&#45; Pages: 1 -->
<svg width="365pt" height="40pt"
 viewBox="0.00 0.00 365.00 40.00" xmlns="http://www.w3.org/2000/svg" xmlns:xlink="http://www.w3.org/1999/xlink">
<g id="graph0" class="graph" transform="scale(1 1) rotate(0) translate(4 36)">
<title>Fiea::Engine::List::Iterator::operator&#45;&#45;</title>
<!-- Node1 -->
<g id="Node000001" class="node">
<title>Node1</title>
<g id="a_Node000001"><a xlink:title="Postfix decrement operator to move to the previous node.">
<polygon fill="#999999" stroke="#666666" points="100,-32 0,-32 0,0 100,0 100,-32"/>
<text xml:space="preserve" text-anchor="start" x="8" y="-18.5" font-family="Helvetica,sans-Serif" font-size="10.00">Fiea::Engine::List</text>
<text xml:space="preserve" text-anchor="middle" x="50" y="-6.5" font-family="Helvetica,sans-Serif" font-size="10.00">::Iterator::operator&#45;&#45;</text>
</a>
</g>
</g>
<!-- Node2 -->
<g id="Node000002" class="node">
<title>Node2</title>
<g id="a_Node000002"><a xlink:href="class_fiea_1_1_engine_1_1_list_1_1_iterator.html#ae0840248dd2b9245d84aa8109fd06f00" target="_top" xlink:title="Constructs an iterator for the list.">
<polygon fill="white" stroke="#666666" points="228.5,-32 136,-32 136,0 228.5,0 228.5,-32"/>
<text xml:space="preserve" text-anchor="start" x="144" y="-18.5" font-family="Helvetica,sans-Serif" font-size="10.00">Fiea::Engine::List</text>
<text xml:space="preserve" text-anchor="middle" x="182.25" y="-6.5" font-family="Helvetica,sans-Serif" font-size="10.00">::Iterator::Iterator</text>
</a>
</g>
</g>
<!-- Node1&#45;&gt;Node2 -->
<g id="edge1_Node000001_Node000002" class="edge">
<title>Node1&#45;&gt;Node2</title>
<g id="a_edge1_Node000001_Node000002"><a xlink:title=" ">
<path fill="none" stroke="#63b8ff" d="M100.24,-16C108.17,-16 116.44,-16 124.53,-16"/>
<polygon fill="#63b8ff" stroke="#63b8ff" points="124.29,-19.5 134.29,-16 124.29,-12.5 124.29,-19.5"/>
</a>
</g>
</g>
<!-- Node3 -->
<g id="Node000003" class="node">
<title>Node3</title>
<g id="a_Node000003"><a xlink:href="class_fiea_1_1_engine_1_1_list.html#a6b30f889b2f01a57b9cb191c3526f7c3" target="_top" xlink:title="Default constructor for the List class.">
<polygon fill="white" stroke="#666666" points="357,-32 264.5,-32 264.5,0 357,0 357,-32"/>
<text xml:space="preserve" text-anchor="start" x="272.5" y="-18.5" font-family="Helvetica,sans-Serif" font-size="10.00">Fiea::Engine::List</text>
<text xml:space="preserve" text-anchor="middle" x="310.75" y="-6.5" font-family="Helvetica,sans-Serif" font-size="10.00">::List</text>
</a>
</g>
</g>
<!-- Node2&#45;&gt;Node3 -->
<g id="edge2_Node000002_Node000003" class="edge">
<title>Node2&#45;&gt;Node3</title>
<g id="a_edge2_Node000002_Node000003"><a xlink:title=" ">
<path fill="none" stroke="#63b8ff" d="M228.92,-16C236.62,-16 244.7,-16 252.65,-16"/>
<polygon fill="#63b8ff" stroke="#63b8ff" points="252.63,-19.5 262.63,-16 252.63,-12.5 252.63,-19.5"/>
</a>
</g>
</g>
</g>
</svg>
