<?xml version="1.0" encoding="UTF-8" standalone="no"?>
<!DOCTYPE svg PUBLIC "-//W3C//DTD SVG 1.1//EN"
 "http://www.w3.org/Graphics/SVG/1.1/DTD/svg11.dtd">
<!-- Generated by graphviz version 13.1.0 (20250701.0955)
 -->
<!-- Title: Fiea::Engine::Actions::ActionList::ActionList Pages: 1 -->
<svg width="718pt" height="220pt"
 viewBox="0.00 0.00 718.00 220.00" xmlns="http://www.w3.org/2000/svg" xmlns:xlink="http://www.w3.org/1999/xlink">
<g id="graph0" class="graph" transform="scale(1 1) rotate(0) translate(4 216)">
<title>Fiea::Engine::Actions::ActionList::ActionList</title>
<!-- Node1 -->
<g id="Node000001" class="node">
<title>Node1</title>
<g id="a_Node000001"><a xlink:title=" ">
<polygon fill="#999999" stroke="#666666" points="115,-160 0,-160 0,-128 115,-128 115,-160"/>
<text xml:space="preserve" text-anchor="start" x="8" y="-146.5" font-family="Helvetica,sans-Serif" font-size="10.00">Fiea::Engine::Actions</text>
<text xml:space="preserve" text-anchor="middle" x="57.5" y="-134.5" font-family="Helvetica,sans-Serif" font-size="10.00">::ActionList::ActionList</text>
</a>
</g>
</g>
<!-- Node2 -->
<g id="Node000002" class="node">
<title>Node2</title>
<g id="a_Node000002"><a xlink:href="class_fiea_1_1_engine_1_1_actions_1_1_action.html#ae2af386f7122152003b00da79393e19e" target="_top" xlink:title=" ">
<polygon fill="white" stroke="#666666" points="260.75,-160 151,-160 151,-128 260.75,-128 260.75,-160"/>
<text xml:space="preserve" text-anchor="start" x="159" y="-146.5" font-family="Helvetica,sans-Serif" font-size="10.00">Fiea::Engine::Actions</text>
<text xml:space="preserve" text-anchor="middle" x="205.88" y="-134.5" font-family="Helvetica,sans-Serif" font-size="10.00">::Action::Action</text>
</a>
</g>
</g>
<!-- Node1&#45;&gt;Node2 -->
<g id="edge1_Node000001_Node000002" class="edge">
<title>Node1&#45;&gt;Node2</title>
<g id="a_edge1_Node000001_Node000002"><a xlink:title=" ">
<path fill="none" stroke="#63b8ff" d="M115.09,-144C123.08,-144 131.34,-144 139.47,-144"/>
<polygon fill="#63b8ff" stroke="#63b8ff" points="139.32,-147.5 149.32,-144 139.32,-140.5 139.32,-147.5"/>
</a>
</g>
</g>
<!-- Node3 -->
<g id="Node000003" class="node">
<title>Node3</title>
<g id="a_Node000003"><a xlink:href="class_fiea_1_1_engine_1_1_content_1_1_attributed.html#ad1ae014235d9d8b62b36066c94164148" target="_top" xlink:title=" ">
<polygon fill="white" stroke="#666666" points="408.75,-194 296.75,-194 296.75,-162 408.75,-162 408.75,-194"/>
<text xml:space="preserve" text-anchor="start" x="304.75" y="-180.5" font-family="Helvetica,sans-Serif" font-size="10.00">Fiea::Engine::Content</text>
<text xml:space="preserve" text-anchor="middle" x="352.75" y="-168.5" font-family="Helvetica,sans-Serif" font-size="10.00">::Attributed::Attributed</text>
</a>
</g>
</g>
<!-- Node2&#45;&gt;Node3 -->
<g id="edge2_Node000002_Node000003" class="edge">
<title>Node2&#45;&gt;Node3</title>
<g id="a_edge2_Node000002_Node000003"><a xlink:title=" ">
<path fill="none" stroke="#63b8ff" d="M261.23,-156.76C269.18,-158.62 277.44,-160.56 285.59,-162.47"/>
<polygon fill="#63b8ff" stroke="#63b8ff" points="284.6,-165.83 295.13,-164.71 286.2,-159.02 284.6,-165.83"/>
</a>
</g>
</g>
<!-- Node4 -->
<g id="Node000004" class="node">
<title>Node4</title>
<g id="a_Node000004"><a xlink:href="class_fiea_1_1_engine_1_1_r_t_t_i.html#a876bebbe7b3149483c43a87f55f4ea99" target="_top" xlink:title=" ">
<polygon fill="white" stroke="#666666" points="402,-126 303.5,-126 303.5,-94 402,-94 402,-126"/>
<text xml:space="preserve" text-anchor="start" x="311.5" y="-112.5" font-family="Helvetica,sans-Serif" font-size="10.00">Fiea::Engine::RTTI</text>
<text xml:space="preserve" text-anchor="middle" x="352.75" y="-100.5" font-family="Helvetica,sans-Serif" font-size="10.00">::TypeIdInstance</text>
</a>
</g>
</g>
<!-- Node2&#45;&gt;Node4 -->
<g id="edge4_Node000002_Node000004" class="edge">
<title>Node2&#45;&gt;Node4</title>
<g id="a_edge4_Node000002_Node000004"><a xlink:title=" ">
<path fill="none" stroke="#63b8ff" d="M261.23,-131.24C271.38,-128.86 282.02,-126.36 292.31,-123.95"/>
<polygon fill="#63b8ff" stroke="#63b8ff" points="292.88,-127.41 301.81,-121.72 291.28,-120.6 292.88,-127.41"/>
</a>
</g>
</g>
<!-- Node3&#45;&gt;Node3 -->
<g id="edge3_Node000003_Node000003" class="edge">
<title>Node3&#45;&gt;Node3</title>
<g id="a_edge3_Node000003_Node000003"><a xlink:title=" ">
<path fill="none" stroke="#63b8ff" d="M326.53,-194.44C321.63,-203.58 330.37,-212 352.75,-212 364.99,-212 373.15,-209.48 377.23,-205.71"/>
<polygon fill="#63b8ff" stroke="#63b8ff" points="380.67,-206.36 378.74,-195.94 373.75,-205.28 380.67,-206.36"/>
</a>
</g>
</g>
<!-- Node4&#45;&gt;Node4 -->
<g id="edge13_Node000004_Node000004" class="edge">
<title>Node4&#45;&gt;Node4</title>
<g id="a_edge13_Node000004_Node000004"><a xlink:title=" ">
<path fill="none" stroke="#63b8ff" d="M326.53,-126.44C321.63,-135.58 330.37,-144 352.75,-144 364.99,-144 373.15,-141.48 377.23,-137.71"/>
<polygon fill="#63b8ff" stroke="#63b8ff" points="380.67,-138.36 378.74,-127.94 373.75,-137.28 380.67,-138.36"/>
</a>
</g>
</g>
<!-- Node5 -->
<g id="Node000005" class="node">
<title>Node5</title>
<g id="a_Node000005"><a xlink:href="class_fiea_1_1_engine_1_1_r_t_t_i.html#a15bd5993c8ad04da47af440298ebbb30" target="_top" xlink:title=" ">
<polygon fill="white" stroke="#666666" points="561.25,-158 444.75,-158 444.75,-138 561.25,-138 561.25,-158"/>
<text xml:space="preserve" text-anchor="middle" x="503" y="-144.5" font-family="Helvetica,sans-Serif" font-size="10.00">Fiea::Engine::RTTI::As</text>
</a>
</g>
</g>
<!-- Node4&#45;&gt;Node5 -->
<g id="edge5_Node000004_Node000005" class="edge">
<title>Node4&#45;&gt;Node5</title>
<g id="a_edge5_Node000004_Node000005"><a xlink:title=" ">
<path fill="none" stroke="#63b8ff" d="M402.29,-122.44C417.65,-126.38 434.68,-130.74 450.25,-134.74"/>
<polygon fill="#63b8ff" stroke="#63b8ff" points="449.27,-138.1 459.82,-137.19 451,-131.32 449.27,-138.1"/>
</a>
</g>
</g>
<!-- Node6 -->
<g id="Node000006" class="node">
<title>Node6</title>
<g id="a_Node000006"><a xlink:href="class_fiea_1_1_engine_1_1_r_t_t_i.html#ac0a7d875e4513b2aca7594abcd4418ef" target="_top" xlink:title=" ">
<polygon fill="white" stroke="#666666" points="710,-180 597.25,-180 597.25,-160 710,-160 710,-180"/>
<text xml:space="preserve" text-anchor="middle" x="653.62" y="-166.5" font-family="Helvetica,sans-Serif" font-size="10.00">Fiea::Engine::RTTI::Is</text>
</a>
</g>
</g>
<!-- Node4&#45;&gt;Node6 -->
<g id="edge10_Node000004_Node000006" class="edge">
<title>Node4&#45;&gt;Node6</title>
<g id="a_edge10_Node000004_Node000006"><a xlink:title=" ">
<path fill="none" stroke="#63b8ff" d="M372.8,-126.34C390.23,-140.14 417.39,-158.93 444.75,-167 490.47,-180.5 544.35,-180.86 585.8,-178.06"/>
<polygon fill="#63b8ff" stroke="#63b8ff" points="585.93,-181.56 595.63,-177.31 585.39,-174.58 585.93,-181.56"/>
</a>
</g>
</g>
<!-- Node7 -->
<g id="Node000007" class="node">
<title>Node7</title>
<g id="a_Node000007"><a xlink:href="class_fiea_1_1_engine_1_1_r_t_t_i.html#a13000029a2e6cced30b831e466e07cae" target="_top" xlink:title=" ">
<polygon fill="white" stroke="#666666" points="702.88,-126 604.38,-126 604.38,-94 702.88,-94 702.88,-126"/>
<text xml:space="preserve" text-anchor="start" x="612.38" y="-112.5" font-family="Helvetica,sans-Serif" font-size="10.00">Fiea::Engine::RTTI</text>
<text xml:space="preserve" text-anchor="middle" x="653.62" y="-100.5" font-family="Helvetica,sans-Serif" font-size="10.00">::RTTI</text>
</a>
</g>
</g>
<!-- Node4&#45;&gt;Node7 -->
<g id="edge11_Node000004_Node000007" class="edge">
<title>Node4&#45;&gt;Node7</title>
<g id="a_edge11_Node000004_Node000007"><a xlink:title=" ">
<path fill="none" stroke="#63b8ff" d="M402.43,-110C454.32,-110 536.54,-110 592.45,-110"/>
<polygon fill="#63b8ff" stroke="#63b8ff" points="592.45,-113.5 602.45,-110 592.45,-106.5 592.45,-113.5"/>
</a>
</g>
</g>
<!-- Node8 -->
<g id="Node000008" class="node">
<title>Node8</title>
<g id="a_Node000008"><a xlink:href="class_fiea_1_1_engine_1_1_r_t_t_i.html#a7f70ad5ba0f8a3388543d63d72892575" target="_top" xlink:title=" ">
<polygon fill="white" stroke="#666666" points="552.25,-82 453.75,-82 453.75,-50 552.25,-50 552.25,-82"/>
<text xml:space="preserve" text-anchor="start" x="461.75" y="-68.5" font-family="Helvetica,sans-Serif" font-size="10.00">Fiea::Engine::RTTI</text>
<text xml:space="preserve" text-anchor="middle" x="503" y="-56.5" font-family="Helvetica,sans-Serif" font-size="10.00">::Equals</text>
</a>
</g>
</g>
<!-- Node4&#45;&gt;Node8 -->
<g id="edge8_Node000004_Node000008" class="edge">
<title>Node4&#45;&gt;Node8</title>
<g id="a_edge8_Node000004_Node000008"><a xlink:title=" ">
<path fill="none" stroke="#63b8ff" d="M402.29,-95.59C415.09,-91.79 429.05,-87.65 442.36,-83.7"/>
<polygon fill="#63b8ff" stroke="#63b8ff" points="443.31,-87.07 451.9,-80.87 441.31,-80.36 443.31,-87.07"/>
</a>
</g>
</g>
<!-- Node9 -->
<g id="Node000009" class="node">
<title>Node9</title>
<g id="a_Node000009"><a xlink:href="class_fiea_1_1_engine_1_1_r_t_t_i.html#a43a7d187e332a17d2c699bc2c8136a30" target="_top" xlink:title=" ">
<polygon fill="white" stroke="#666666" points="552.25,-32 453.75,-32 453.75,0 552.25,0 552.25,-32"/>
<text xml:space="preserve" text-anchor="start" x="461.75" y="-18.5" font-family="Helvetica,sans-Serif" font-size="10.00">Fiea::Engine::RTTI</text>
<text xml:space="preserve" text-anchor="middle" x="503" y="-6.5" font-family="Helvetica,sans-Serif" font-size="10.00">::ToString</text>
</a>
</g>
</g>
<!-- Node4&#45;&gt;Node9 -->
<g id="edge12_Node000004_Node000009" class="edge">
<title>Node4&#45;&gt;Node9</title>
<g id="a_edge12_Node000004_Node000009"><a xlink:title=" ">
<path fill="none" stroke="#63b8ff" d="M372.69,-93.51C390.47,-78.56 418.24,-56.54 444.75,-41 446.76,-39.82 448.84,-38.66 450.95,-37.53"/>
<polygon fill="#63b8ff" stroke="#63b8ff" points="452.34,-40.75 459.71,-33.13 449.2,-34.5 452.34,-40.75"/>
</a>
</g>
</g>
<!-- Node5&#45;&gt;Node6 -->
<g id="edge6_Node000005_Node000006" class="edge">
<title>Node5&#45;&gt;Node6</title>
<g id="a_edge6_Node000005_Node000006"><a xlink:title=" ">
<path fill="none" stroke="#63b8ff" d="M561.46,-156.51C569.35,-157.67 577.5,-158.88 585.53,-160.07"/>
<polygon fill="#63b8ff" stroke="#63b8ff" points="584.88,-163.51 595.28,-161.51 585.91,-156.59 584.88,-163.51"/>
</a>
</g>
</g>
<!-- Node5&#45;&gt;Node7 -->
<g id="edge7_Node000005_Node000007" class="edge">
<title>Node5&#45;&gt;Node7</title>
<g id="a_edge7_Node000005_Node000007"><a xlink:title=" ">
<path fill="none" stroke="#63b8ff" d="M545.01,-137.52C559.88,-133.71 576.99,-129.34 593.13,-125.21"/>
<polygon fill="#63b8ff" stroke="#63b8ff" points="593.82,-128.65 602.64,-122.78 592.09,-121.87 593.82,-128.65"/>
</a>
</g>
</g>
<!-- Node8&#45;&gt;Node7 -->
<g id="edge9_Node000008_Node000007" class="edge">
<title>Node8&#45;&gt;Node7</title>
<g id="a_edge9_Node000008_Node000007"><a xlink:title=" ">
<path fill="none" stroke="#63b8ff" d="M552.67,-80.41C565.69,-84.26 579.92,-88.47 593.44,-92.48"/>
<polygon fill="#63b8ff" stroke="#63b8ff" points="592.07,-95.72 602.65,-95.21 594.06,-89.01 592.07,-95.72"/>
</a>
</g>
</g>
</g>
</svg>
