<?xml version="1.0" encoding="UTF-8" standalone="no"?>
<!DOCTYPE svg PUBLIC "-//W3C//DTD SVG 1.1//EN"
 "http://www.w3.org/Graphics/SVG/1.1/DTD/svg11.dtd">
<!-- Generated by graphviz version 13.1.0 (20250701.0955)
 -->
<!-- Title: Fiea::Engine::Content::ScopeWriter::AddGameObject Pages: 1 -->
<svg width="490pt" height="164pt"
 viewBox="0.00 0.00 490.00 164.00" xmlns="http://www.w3.org/2000/svg" xmlns:xlink="http://www.w3.org/1999/xlink">
<g id="graph0" class="graph" transform="scale(1 1) rotate(0) translate(4 160)">
<title>Fiea::Engine::Content::ScopeWriter::AddGameObject</title>
<!-- Node1 -->
<g id="Node000001" class="node">
<title>Node1</title>
<g id="a_Node000001"><a xlink:title=" ">
<polygon fill="#999999" stroke="#666666" points="481.5,-88 328.25,-88 328.25,-56 481.5,-56 481.5,-88"/>
<text xml:space="preserve" text-anchor="start" x="336.25" y="-74.5" font-family="Helvetica,sans-Serif" font-size="10.00">Fiea::Engine::Content</text>
<text xml:space="preserve" text-anchor="middle" x="404.88" y="-62.5" font-family="Helvetica,sans-Serif" font-size="10.00">::ScopeWriter::AddGameObject</text>
</a>
</g>
</g>
<!-- Node2 -->
<g id="Node000002" class="node">
<title>Node2</title>
<g id="a_Node000002"><a xlink:href="class_fiea_1_1_engine_1_1_content_1_1_scope_writer.html#a77fe1b124acb1dd1bd3f2d7f104035cf" target="_top" xlink:title=" ">
<polygon fill="white" stroke="#666666" points="292.25,-88 166,-88 166,-56 292.25,-56 292.25,-88"/>
<text xml:space="preserve" text-anchor="start" x="174" y="-74.5" font-family="Helvetica,sans-Serif" font-size="10.00">Fiea::Engine::Content</text>
<text xml:space="preserve" text-anchor="middle" x="229.12" y="-62.5" font-family="Helvetica,sans-Serif" font-size="10.00">::ScopeWriter::AddScope</text>
</a>
</g>
</g>
<!-- Node1&#45;&gt;Node2 -->
<g id="edge1_Node000001_Node000002" class="edge">
<title>Node1&#45;&gt;Node2</title>
<g id="a_edge1_Node000001_Node000002"><a xlink:title=" ">
<path fill="none" stroke="#63b8ff" d="M316.54,-72C308.48,-72 300.42,-72 292.65,-72"/>
<polygon fill="#63b8ff" stroke="#63b8ff" points="316.4,-75.5 326.4,-72 316.4,-68.5 316.4,-75.5"/>
</a>
</g>
</g>
<!-- Node3 -->
<g id="Node000003" class="node">
<title>Node3</title>
<g id="a_Node000003"><a xlink:href="class_fiea_1_1_engine_1_1_content_1_1_game_object_handler.html#a626573aebcd7beceb84dbd69bc15105b" target="_top" xlink:title=" ">
<polygon fill="white" stroke="#666666" points="123.25,-156 6.75,-156 6.75,-112 123.25,-112 123.25,-156"/>
<text xml:space="preserve" text-anchor="start" x="14.75" y="-142.5" font-family="Helvetica,sans-Serif" font-size="10.00">Fiea::Engine::Content</text>
<text xml:space="preserve" text-anchor="start" x="14.75" y="-130.5" font-family="Helvetica,sans-Serif" font-size="10.00">::GameObjectHandler::</text>
<text xml:space="preserve" text-anchor="middle" x="65" y="-118.5" font-family="Helvetica,sans-Serif" font-size="10.00">EnterKey</text>
</a>
</g>
</g>
<!-- Node2&#45;&gt;Node3 -->
<g id="edge2_Node000002_Node000003" class="edge">
<title>Node2&#45;&gt;Node3</title>
<g id="a_edge2_Node000002_Node000003"><a xlink:title=" ">
<path fill="none" stroke="#63b8ff" d="M174.63,-92.46C158.27,-98.72 140.2,-105.62 123.58,-111.98"/>
<polygon fill="#63b8ff" stroke="#63b8ff" points="175.6,-95.83 183.69,-88.99 173.1,-89.3 175.6,-95.83"/>
</a>
</g>
</g>
<!-- Node4 -->
<g id="Node000004" class="node">
<title>Node4</title>
<g id="a_Node000004"><a xlink:href="class_fiea_1_1_engine_1_1_content_1_1_scope_factory_handler.html#ae5e7d2b134d20238fa9be43f936bf80b" target="_top" xlink:title=" ">
<polygon fill="white" stroke="#666666" points="123.25,-94 6.75,-94 6.75,-50 123.25,-50 123.25,-94"/>
<text xml:space="preserve" text-anchor="start" x="14.75" y="-80.5" font-family="Helvetica,sans-Serif" font-size="10.00">Fiea::Engine::Content</text>
<text xml:space="preserve" text-anchor="start" x="14.75" y="-68.5" font-family="Helvetica,sans-Serif" font-size="10.00">::ScopeFactoryHandler</text>
<text xml:space="preserve" text-anchor="middle" x="65" y="-56.5" font-family="Helvetica,sans-Serif" font-size="10.00">::EnterKey</text>
</a>
</g>
</g>
<!-- Node2&#45;&gt;Node4 -->
<g id="edge3_Node000002_Node000004" class="edge">
<title>Node2&#45;&gt;Node4</title>
<g id="a_edge3_Node000002_Node000004"><a xlink:title=" ">
<path fill="none" stroke="#63b8ff" d="M154.67,-72C144.23,-72 133.61,-72 123.53,-72"/>
<polygon fill="#63b8ff" stroke="#63b8ff" points="154.39,-75.5 164.39,-72 154.39,-68.5 154.39,-75.5"/>
</a>
</g>
</g>
<!-- Node5 -->
<g id="Node000005" class="node">
<title>Node5</title>
<g id="a_Node000005"><a xlink:href="class_fiea_1_1_engine_1_1_content_1_1_scope_handler.html#a593999f6a2df6002af8db4629d8a0176" target="_top" xlink:title=" ">
<polygon fill="white" stroke="#666666" points="130,-32 0,-32 0,0 130,0 130,-32"/>
<text xml:space="preserve" text-anchor="start" x="8" y="-18.5" font-family="Helvetica,sans-Serif" font-size="10.00">Fiea::Engine::Content</text>
<text xml:space="preserve" text-anchor="middle" x="65" y="-6.5" font-family="Helvetica,sans-Serif" font-size="10.00">::ScopeHandler::EnterKey</text>
</a>
</g>
</g>
<!-- Node2&#45;&gt;Node5 -->
<g id="edge4_Node000002_Node000005" class="edge">
<title>Node2&#45;&gt;Node5</title>
<g id="a_edge4_Node000002_Node000005"><a xlink:title=" ">
<path fill="none" stroke="#63b8ff" d="M169.5,-51.75C151.17,-45.42 131.18,-38.52 113.7,-32.48"/>
<polygon fill="#63b8ff" stroke="#63b8ff" points="168.33,-55.05 178.93,-55.01 170.62,-48.43 168.33,-55.05"/>
</a>
</g>
</g>
</g>
</svg>
