<?xml version="1.0" encoding="UTF-8" standalone="no"?>
<!DOCTYPE svg PUBLIC "-//W3C//DTD SVG 1.1//EN"
 "http://www.w3.org/Graphics/SVG/1.1/DTD/svg11.dtd">
<!-- Generated by graphviz version 13.1.0 (20250701.0955)
 -->
<!-- Title: Fiea::Engine::Content::ScopeFactoryHandler::ExitKey Pages: 1 -->
<svg width="456pt" height="100pt"
 viewBox="0.00 0.00 456.00 100.00" xmlns="http://www.w3.org/2000/svg" xmlns:xlink="http://www.w3.org/1999/xlink">
<g id="graph0" class="graph" transform="scale(1 1) rotate(0) translate(4 96)">
<title>Fiea::Engine::Content::ScopeFactoryHandler::ExitKey</title>
<!-- Node1 -->
<g id="Node000001" class="node">
<title>Node1</title>
<g id="a_Node000001"><a xlink:title=" ">
<polygon fill="#999999" stroke="#666666" points="116.5,-60 0,-60 0,-16 116.5,-16 116.5,-60"/>
<text xml:space="preserve" text-anchor="start" x="8" y="-46.5" font-family="Helvetica,sans-Serif" font-size="10.00">Fiea::Engine::Content</text>
<text xml:space="preserve" text-anchor="start" x="8" y="-34.5" font-family="Helvetica,sans-Serif" font-size="10.00">::ScopeFactoryHandler</text>
<text xml:space="preserve" text-anchor="middle" x="58.25" y="-22.5" font-family="Helvetica,sans-Serif" font-size="10.00">::ExitKey</text>
</a>
</g>
</g>
<!-- Node2 -->
<g id="Node000002" class="node">
<title>Node2</title>
<g id="a_Node000002"><a xlink:href="class_fiea_1_1_engine_1_1_r_t_t_i.html#a15bd5993c8ad04da47af440298ebbb30" target="_top" xlink:title=" ">
<polygon fill="white" stroke="#666666" points="284,-70 167.5,-70 167.5,-50 284,-50 284,-70"/>
<text xml:space="preserve" text-anchor="middle" x="225.75" y="-56.5" font-family="Helvetica,sans-Serif" font-size="10.00">Fiea::Engine::RTTI::As</text>
</a>
</g>
</g>
<!-- Node1&#45;&gt;Node2 -->
<g id="edge1_Node000001_Node000002" class="edge">
<title>Node1&#45;&gt;Node2</title>
<g id="a_edge1_Node000001_Node000002"><a xlink:title=" ">
<path fill="none" stroke="#63b8ff" d="M116.67,-45.63C129.31,-47.31 142.81,-49.11 155.85,-50.84"/>
<polygon fill="#63b8ff" stroke="#63b8ff" points="155.28,-54.3 165.65,-52.14 156.2,-47.36 155.28,-54.3"/>
</a>
</g>
</g>
<!-- Node5 -->
<g id="Node000005" class="node">
<title>Node5</title>
<g id="a_Node000005"><a xlink:href="class_fiea_1_1_engine_1_1_content_1_1_scope_writer.html#a1b77c29e0778185d215c657d4ce8db9c" target="_top" xlink:title=" ">
<polygon fill="white" stroke="#666666" points="299,-32 152.5,-32 152.5,0 299,0 299,-32"/>
<text xml:space="preserve" text-anchor="start" x="160.5" y="-18.5" font-family="Helvetica,sans-Serif" font-size="10.00">Fiea::Engine::Content</text>
<text xml:space="preserve" text-anchor="middle" x="225.75" y="-6.5" font-family="Helvetica,sans-Serif" font-size="10.00">::ScopeWriter::RemoveObject</text>
</a>
</g>
</g>
<!-- Node1&#45;&gt;Node5 -->
<g id="edge4_Node000001_Node000005" class="edge">
<title>Node1&#45;&gt;Node5</title>
<g id="a_edge4_Node000001_Node000005"><a xlink:title=" ">
<path fill="none" stroke="#63b8ff" d="M116.67,-30.37C124.56,-29.32 132.8,-28.22 141.05,-27.13"/>
<polygon fill="#63b8ff" stroke="#63b8ff" points="141.32,-30.62 150.77,-25.83 140.4,-23.68 141.32,-30.62"/>
</a>
</g>
</g>
<!-- Node3 -->
<g id="Node000003" class="node">
<title>Node3</title>
<g id="a_Node000003"><a xlink:href="class_fiea_1_1_engine_1_1_r_t_t_i.html#ac0a7d875e4513b2aca7594abcd4418ef" target="_top" xlink:title=" ">
<polygon fill="white" stroke="#666666" points="447.75,-92 335,-92 335,-72 447.75,-72 447.75,-92"/>
<text xml:space="preserve" text-anchor="middle" x="391.38" y="-78.5" font-family="Helvetica,sans-Serif" font-size="10.00">Fiea::Engine::RTTI::Is</text>
</a>
</g>
</g>
<!-- Node2&#45;&gt;Node3 -->
<g id="edge2_Node000002_Node000003" class="edge">
<title>Node2&#45;&gt;Node3</title>
<g id="a_edge2_Node000002_Node000003"><a xlink:title=" ">
<path fill="none" stroke="#63b8ff" d="M284.44,-67.76C297.03,-69.45 310.47,-71.26 323.39,-72.99"/>
<polygon fill="#63b8ff" stroke="#63b8ff" points="322.7,-76.43 333.08,-74.3 323.64,-69.5 322.7,-76.43"/>
</a>
</g>
</g>
<!-- Node4 -->
<g id="Node000004" class="node">
<title>Node4</title>
<g id="a_Node000004"><a xlink:href="class_fiea_1_1_engine_1_1_r_t_t_i.html#a13000029a2e6cced30b831e466e07cae" target="_top" xlink:title=" ">
<polygon fill="white" stroke="#666666" points="440.62,-54 342.12,-54 342.12,-22 440.62,-22 440.62,-54"/>
<text xml:space="preserve" text-anchor="start" x="350.12" y="-40.5" font-family="Helvetica,sans-Serif" font-size="10.00">Fiea::Engine::RTTI</text>
<text xml:space="preserve" text-anchor="middle" x="391.38" y="-28.5" font-family="Helvetica,sans-Serif" font-size="10.00">::RTTI</text>
</a>
</g>
</g>
<!-- Node2&#45;&gt;Node4 -->
<g id="edge3_Node000002_Node000004" class="edge">
<title>Node2&#45;&gt;Node4</title>
<g id="a_edge3_Node000002_Node000004"><a xlink:title=" ">
<path fill="none" stroke="#63b8ff" d="M284.44,-52.24C299.4,-50.23 315.53,-48.06 330.6,-46.04"/>
<polygon fill="#63b8ff" stroke="#63b8ff" points="330.92,-49.53 340.37,-44.72 329.99,-42.59 330.92,-49.53"/>
</a>
</g>
</g>
</g>
</svg>
