<?xml version="1.0" encoding="UTF-8" standalone="no"?>
<!DOCTYPE svg PUBLIC "-//W3C//DTD SVG 1.1//EN"
 "http://www.w3.org/Graphics/SVG/1.1/DTD/svg11.dtd">
<!-- Generated by graphviz version 13.1.0 (20250701.0955)
 -->
<!-- Title: Fiea::Engine::Actions::ActionPreamble::ActionPreamble Pages: 1 -->
<svg width="769pt" height="220pt"
 viewBox="0.00 0.00 769.00 220.00" xmlns="http://www.w3.org/2000/svg" xmlns:xlink="http://www.w3.org/1999/xlink">
<g id="graph0" class="graph" transform="scale(1 1) rotate(0) translate(4 216)">
<title>Fiea::Engine::Actions::ActionPreamble::ActionPreamble</title>
<!-- Node1 -->
<g id="Node000001" class="node">
<title>Node1</title>
<g id="a_Node000001"><a xlink:title=" ">
<polygon fill="#999999" stroke="#666666" points="166,-148 0,-148 0,-116 166,-116 166,-148"/>
<text xml:space="preserve" text-anchor="start" x="8" y="-134.5" font-family="Helvetica,sans-Serif" font-size="10.00">Fiea::Engine::Actions</text>
<text xml:space="preserve" text-anchor="middle" x="83" y="-122.5" font-family="Helvetica,sans-Serif" font-size="10.00">::ActionPreamble::ActionPreamble</text>
</a>
</g>
</g>
<!-- Node2 -->
<g id="Node000002" class="node">
<title>Node2</title>
<g id="a_Node000002"><a xlink:href="class_fiea_1_1_engine_1_1_actions_1_1_action.html#ae2af386f7122152003b00da79393e19e" target="_top" xlink:title=" ">
<polygon fill="white" stroke="#666666" points="311.75,-170 202,-170 202,-138 311.75,-138 311.75,-170"/>
<text xml:space="preserve" text-anchor="start" x="210" y="-156.5" font-family="Helvetica,sans-Serif" font-size="10.00">Fiea::Engine::Actions</text>
<text xml:space="preserve" text-anchor="middle" x="256.88" y="-144.5" font-family="Helvetica,sans-Serif" font-size="10.00">::Action::Action</text>
</a>
</g>
</g>
<!-- Node1&#45;&gt;Node2 -->
<g id="edge1_Node000001_Node000002" class="edge">
<title>Node1&#45;&gt;Node2</title>
<g id="a_edge1_Node000001_Node000002"><a xlink:title=" ">
<path fill="none" stroke="#63b8ff" d="M166.41,-142.55C174.52,-143.59 182.66,-144.63 190.56,-145.64"/>
<polygon fill="#63b8ff" stroke="#63b8ff" points="190.06,-149.1 200.42,-146.9 190.95,-142.16 190.06,-149.1"/>
</a>
</g>
</g>
<!-- Node4 -->
<g id="Node000004" class="node">
<title>Node4</title>
<g id="a_Node000004"><a xlink:href="class_fiea_1_1_engine_1_1_r_t_t_i.html#a876bebbe7b3149483c43a87f55f4ea99" target="_top" xlink:title=" ">
<polygon fill="white" stroke="#666666" points="453,-126 354.5,-126 354.5,-94 453,-94 453,-126"/>
<text xml:space="preserve" text-anchor="start" x="362.5" y="-112.5" font-family="Helvetica,sans-Serif" font-size="10.00">Fiea::Engine::RTTI</text>
<text xml:space="preserve" text-anchor="middle" x="403.75" y="-100.5" font-family="Helvetica,sans-Serif" font-size="10.00">::TypeIdInstance</text>
</a>
</g>
</g>
<!-- Node1&#45;&gt;Node4 -->
<g id="edge14_Node000001_Node000004" class="edge">
<title>Node1&#45;&gt;Node4</title>
<g id="a_edge14_Node000001_Node000004"><a xlink:title=" ">
<path fill="none" stroke="#63b8ff" d="M166.09,-126.33C221.36,-122.52 293,-117.57 342.92,-114.13"/>
<polygon fill="#63b8ff" stroke="#63b8ff" points="342.92,-117.64 352.66,-113.46 342.44,-110.65 342.92,-117.64"/>
</a>
</g>
</g>
<!-- Node3 -->
<g id="Node000003" class="node">
<title>Node3</title>
<g id="a_Node000003"><a xlink:href="class_fiea_1_1_engine_1_1_content_1_1_attributed.html#ad1ae014235d9d8b62b36066c94164148" target="_top" xlink:title=" ">
<polygon fill="white" stroke="#666666" points="459.75,-194 347.75,-194 347.75,-162 459.75,-162 459.75,-194"/>
<text xml:space="preserve" text-anchor="start" x="355.75" y="-180.5" font-family="Helvetica,sans-Serif" font-size="10.00">Fiea::Engine::Content</text>
<text xml:space="preserve" text-anchor="middle" x="403.75" y="-168.5" font-family="Helvetica,sans-Serif" font-size="10.00">::Attributed::Attributed</text>
</a>
</g>
</g>
<!-- Node2&#45;&gt;Node3 -->
<g id="edge2_Node000002_Node000003" class="edge">
<title>Node2&#45;&gt;Node3</title>
<g id="a_edge2_Node000002_Node000003"><a xlink:title=" ">
<path fill="none" stroke="#63b8ff" d="M312.23,-163C320.09,-164.31 328.25,-165.66 336.32,-166.99"/>
<polygon fill="#63b8ff" stroke="#63b8ff" points="335.67,-170.44 346.11,-168.62 336.82,-163.53 335.67,-170.44"/>
</a>
</g>
</g>
<!-- Node2&#45;&gt;Node4 -->
<g id="edge4_Node000002_Node000004" class="edge">
<title>Node2&#45;&gt;Node4</title>
<g id="a_edge4_Node000002_Node000004"><a xlink:title=" ">
<path fill="none" stroke="#63b8ff" d="M311.82,-137.62C322.09,-134.5 332.89,-131.22 343.32,-128.05"/>
<polygon fill="#63b8ff" stroke="#63b8ff" points="344.02,-131.5 352.57,-125.24 341.98,-124.8 344.02,-131.5"/>
</a>
</g>
</g>
<!-- Node3&#45;&gt;Node3 -->
<g id="edge3_Node000003_Node000003" class="edge">
<title>Node3&#45;&gt;Node3</title>
<g id="a_edge3_Node000003_Node000003"><a xlink:title=" ">
<path fill="none" stroke="#63b8ff" d="M377.53,-194.44C372.63,-203.58 381.37,-212 403.75,-212 415.99,-212 424.15,-209.48 428.23,-205.71"/>
<polygon fill="#63b8ff" stroke="#63b8ff" points="431.67,-206.36 429.74,-195.94 424.75,-205.28 431.67,-206.36"/>
</a>
</g>
</g>
<!-- Node4&#45;&gt;Node4 -->
<g id="edge13_Node000004_Node000004" class="edge">
<title>Node4&#45;&gt;Node4</title>
<g id="a_edge13_Node000004_Node000004"><a xlink:title=" ">
<path fill="none" stroke="#63b8ff" d="M377.53,-126.44C372.63,-135.58 381.37,-144 403.75,-144 415.99,-144 424.15,-141.48 428.23,-137.71"/>
<polygon fill="#63b8ff" stroke="#63b8ff" points="431.67,-138.36 429.74,-127.94 424.75,-137.28 431.67,-138.36"/>
</a>
</g>
</g>
<!-- Node5 -->
<g id="Node000005" class="node">
<title>Node5</title>
<g id="a_Node000005"><a xlink:href="class_fiea_1_1_engine_1_1_r_t_t_i.html#a15bd5993c8ad04da47af440298ebbb30" target="_top" xlink:title=" ">
<polygon fill="white" stroke="#666666" points="612.25,-158 495.75,-158 495.75,-138 612.25,-138 612.25,-158"/>
<text xml:space="preserve" text-anchor="middle" x="554" y="-144.5" font-family="Helvetica,sans-Serif" font-size="10.00">Fiea::Engine::RTTI::As</text>
</a>
</g>
</g>
<!-- Node4&#45;&gt;Node5 -->
<g id="edge5_Node000004_Node000005" class="edge">
<title>Node4&#45;&gt;Node5</title>
<g id="a_edge5_Node000004_Node000005"><a xlink:title=" ">
<path fill="none" stroke="#63b8ff" d="M453.29,-122.44C468.65,-126.38 485.68,-130.74 501.25,-134.74"/>
<polygon fill="#63b8ff" stroke="#63b8ff" points="500.27,-138.1 510.82,-137.19 502,-131.32 500.27,-138.1"/>
</a>
</g>
</g>
<!-- Node6 -->
<g id="Node000006" class="node">
<title>Node6</title>
<g id="a_Node000006"><a xlink:href="class_fiea_1_1_engine_1_1_r_t_t_i.html#ac0a7d875e4513b2aca7594abcd4418ef" target="_top" xlink:title=" ">
<polygon fill="white" stroke="#666666" points="761,-180 648.25,-180 648.25,-160 761,-160 761,-180"/>
<text xml:space="preserve" text-anchor="middle" x="704.62" y="-166.5" font-family="Helvetica,sans-Serif" font-size="10.00">Fiea::Engine::RTTI::Is</text>
</a>
</g>
</g>
<!-- Node4&#45;&gt;Node6 -->
<g id="edge10_Node000004_Node000006" class="edge">
<title>Node4&#45;&gt;Node6</title>
<g id="a_edge10_Node000004_Node000006"><a xlink:title=" ">
<path fill="none" stroke="#63b8ff" d="M423.8,-126.34C441.23,-140.14 468.39,-158.93 495.75,-167 541.47,-180.5 595.35,-180.86 636.8,-178.06"/>
<polygon fill="#63b8ff" stroke="#63b8ff" points="636.93,-181.56 646.63,-177.31 636.39,-174.58 636.93,-181.56"/>
</a>
</g>
</g>
<!-- Node7 -->
<g id="Node000007" class="node">
<title>Node7</title>
<g id="a_Node000007"><a xlink:href="class_fiea_1_1_engine_1_1_r_t_t_i.html#a13000029a2e6cced30b831e466e07cae" target="_top" xlink:title=" ">
<polygon fill="white" stroke="#666666" points="753.88,-126 655.38,-126 655.38,-94 753.88,-94 753.88,-126"/>
<text xml:space="preserve" text-anchor="start" x="663.38" y="-112.5" font-family="Helvetica,sans-Serif" font-size="10.00">Fiea::Engine::RTTI</text>
<text xml:space="preserve" text-anchor="middle" x="704.62" y="-100.5" font-family="Helvetica,sans-Serif" font-size="10.00">::RTTI</text>
</a>
</g>
</g>
<!-- Node4&#45;&gt;Node7 -->
<g id="edge11_Node000004_Node000007" class="edge">
<title>Node4&#45;&gt;Node7</title>
<g id="a_edge11_Node000004_Node000007"><a xlink:title=" ">
<path fill="none" stroke="#63b8ff" d="M453.43,-110C505.32,-110 587.54,-110 643.45,-110"/>
<polygon fill="#63b8ff" stroke="#63b8ff" points="643.45,-113.5 653.45,-110 643.45,-106.5 643.45,-113.5"/>
</a>
</g>
</g>
<!-- Node8 -->
<g id="Node000008" class="node">
<title>Node8</title>
<g id="a_Node000008"><a xlink:href="class_fiea_1_1_engine_1_1_r_t_t_i.html#a7f70ad5ba0f8a3388543d63d72892575" target="_top" xlink:title=" ">
<polygon fill="white" stroke="#666666" points="603.25,-82 504.75,-82 504.75,-50 603.25,-50 603.25,-82"/>
<text xml:space="preserve" text-anchor="start" x="512.75" y="-68.5" font-family="Helvetica,sans-Serif" font-size="10.00">Fiea::Engine::RTTI</text>
<text xml:space="preserve" text-anchor="middle" x="554" y="-56.5" font-family="Helvetica,sans-Serif" font-size="10.00">::Equals</text>
</a>
</g>
</g>
<!-- Node4&#45;&gt;Node8 -->
<g id="edge8_Node000004_Node000008" class="edge">
<title>Node4&#45;&gt;Node8</title>
<g id="a_edge8_Node000004_Node000008"><a xlink:title=" ">
<path fill="none" stroke="#63b8ff" d="M453.29,-95.59C466.09,-91.79 480.05,-87.65 493.36,-83.7"/>
<polygon fill="#63b8ff" stroke="#63b8ff" points="494.31,-87.07 502.9,-80.87 492.31,-80.36 494.31,-87.07"/>
</a>
</g>
</g>
<!-- Node9 -->
<g id="Node000009" class="node">
<title>Node9</title>
<g id="a_Node000009"><a xlink:href="class_fiea_1_1_engine_1_1_r_t_t_i.html#a43a7d187e332a17d2c699bc2c8136a30" target="_top" xlink:title=" ">
<polygon fill="white" stroke="#666666" points="603.25,-32 504.75,-32 504.75,0 603.25,0 603.25,-32"/>
<text xml:space="preserve" text-anchor="start" x="512.75" y="-18.5" font-family="Helvetica,sans-Serif" font-size="10.00">Fiea::Engine::RTTI</text>
<text xml:space="preserve" text-anchor="middle" x="554" y="-6.5" font-family="Helvetica,sans-Serif" font-size="10.00">::ToString</text>
</a>
</g>
</g>
<!-- Node4&#45;&gt;Node9 -->
<g id="edge12_Node000004_Node000009" class="edge">
<title>Node4&#45;&gt;Node9</title>
<g id="a_edge12_Node000004_Node000009"><a xlink:title=" ">
<path fill="none" stroke="#63b8ff" d="M423.69,-93.51C441.47,-78.56 469.24,-56.54 495.75,-41 497.76,-39.82 499.84,-38.66 501.95,-37.53"/>
<polygon fill="#63b8ff" stroke="#63b8ff" points="503.34,-40.75 510.71,-33.13 500.2,-34.5 503.34,-40.75"/>
</a>
</g>
</g>
<!-- Node5&#45;&gt;Node6 -->
<g id="edge6_Node000005_Node000006" class="edge">
<title>Node5&#45;&gt;Node6</title>
<g id="a_edge6_Node000005_Node000006"><a xlink:title=" ">
<path fill="none" stroke="#63b8ff" d="M612.46,-156.51C620.35,-157.67 628.5,-158.88 636.53,-160.07"/>
<polygon fill="#63b8ff" stroke="#63b8ff" points="635.88,-163.51 646.28,-161.51 636.91,-156.59 635.88,-163.51"/>
</a>
</g>
</g>
<!-- Node5&#45;&gt;Node7 -->
<g id="edge7_Node000005_Node000007" class="edge">
<title>Node5&#45;&gt;Node7</title>
<g id="a_edge7_Node000005_Node000007"><a xlink:title=" ">
<path fill="none" stroke="#63b8ff" d="M596.01,-137.52C610.88,-133.71 627.99,-129.34 644.13,-125.21"/>
<polygon fill="#63b8ff" stroke="#63b8ff" points="644.82,-128.65 653.64,-122.78 643.09,-121.87 644.82,-128.65"/>
</a>
</g>
</g>
<!-- Node8&#45;&gt;Node7 -->
<g id="edge9_Node000008_Node000007" class="edge">
<title>Node8&#45;&gt;Node7</title>
<g id="a_edge9_Node000008_Node000007"><a xlink:title=" ">
<path fill="none" stroke="#63b8ff" d="M603.67,-80.41C616.69,-84.26 630.92,-88.47 644.44,-92.48"/>
<polygon fill="#63b8ff" stroke="#63b8ff" points="643.07,-95.72 653.65,-95.21 645.06,-89.01 643.07,-95.72"/>
</a>
</g>
</g>
</g>
</svg>
