<?xml version="1.0" encoding="UTF-8" standalone="no"?>
<!DOCTYPE svg PUBLIC "-//W3C//DTD SVG 1.1//EN"
 "http://www.w3.org/Graphics/SVG/1.1/DTD/svg11.dtd">
<!-- Generated by graphviz version 13.1.0 (20250701.0955)
 -->
<!-- Title: Fiea::Engine::GameObject Pages: 1 -->
<svg width="258pt" height="240pt"
 viewBox="0.00 0.00 258.00 240.00" xmlns="http://www.w3.org/2000/svg" xmlns:xlink="http://www.w3.org/1999/xlink">
<g id="graph0" class="graph" transform="scale(1 1) rotate(0) translate(4 236)">
<title>Fiea::Engine::GameObject</title>
<!-- Node1 -->
<g id="Node000001" class="node">
<title>Node1</title>
<g id="a_Node000001"><a xlink:title=" ">
<polygon fill="#999999" stroke="#666666" points="221.38,-20 89.88,-20 89.88,0 221.38,0 221.38,-20"/>
<text xml:space="preserve" text-anchor="middle" x="155.62" y="-6.5" font-family="Helvetica,sans-Serif" font-size="10.00">Fiea::Engine::GameObject</text>
</a>
</g>
</g>
<!-- Node2 -->
<g id="Node000002" class="node">
<title>Node2</title>
<g id="a_Node000002"><a xlink:href="class_fiea_1_1_engine_1_1_content_1_1_attributed.html" target="_top" xlink:title=" ">
<polygon fill="white" stroke="#666666" points="111.25,-106 0,-106 0,-74 111.25,-74 111.25,-106"/>
<text xml:space="preserve" text-anchor="start" x="8" y="-92.5" font-family="Helvetica,sans-Serif" font-size="10.00">Fiea::Engine::Content</text>
<text xml:space="preserve" text-anchor="middle" x="55.62" y="-80.5" font-family="Helvetica,sans-Serif" font-size="10.00">::Attributed</text>
</a>
</g>
</g>
<!-- Node2&#45;&gt;Node1 -->
<g id="edge1_Node000001_Node000002" class="edge">
<title>Node2&#45;&gt;Node1</title>
<g id="a_edge1_Node000001_Node000002"><a xlink:title=" ">
<path fill="none" stroke="#63b8ff" d="M84.23,-66.69C103.83,-51.4 128.84,-31.89 143.46,-20.49"/>
<polygon fill="#63b8ff" stroke="#63b8ff" points="82.31,-63.75 76.58,-72.66 86.61,-69.27 82.31,-63.75"/>
</a>
</g>
</g>
<!-- Node3 -->
<g id="Node000003" class="node">
<title>Node3</title>
<g id="a_Node000003"><a xlink:href="class_fiea_1_1_engine_1_1_content_1_1_scope.html" target="_top" xlink:title=" ">
<polygon fill="white" stroke="#666666" points="111.25,-175 0,-175 0,-143 111.25,-143 111.25,-175"/>
<text xml:space="preserve" text-anchor="start" x="8" y="-161.5" font-family="Helvetica,sans-Serif" font-size="10.00">Fiea::Engine::Content</text>
<text xml:space="preserve" text-anchor="middle" x="55.62" y="-149.5" font-family="Helvetica,sans-Serif" font-size="10.00">::Scope</text>
</a>
</g>
</g>
<!-- Node3&#45;&gt;Node2 -->
<g id="edge2_Node000002_Node000003" class="edge">
<title>Node3&#45;&gt;Node2</title>
<g id="a_edge2_Node000002_Node000003"><a xlink:title=" ">
<path fill="none" stroke="#63b8ff" d="M55.62,-131.35C55.62,-122.78 55.62,-113.59 55.62,-106.14"/>
<polygon fill="#63b8ff" stroke="#63b8ff" points="52.13,-131.28 55.63,-141.28 59.13,-131.28 52.13,-131.28"/>
</a>
</g>
</g>
<!-- Node4 -->
<g id="Node000004" class="node">
<title>Node4</title>
<g id="a_Node000004"><a xlink:href="class_fiea_1_1_engine_1_1_r_t_t_i.html" target="_top" xlink:title=" ">
<polygon fill="white" stroke="#666666" points="104.88,-232 6.37,-232 6.37,-212 104.88,-212 104.88,-232"/>
<text xml:space="preserve" text-anchor="middle" x="55.62" y="-218.5" font-family="Helvetica,sans-Serif" font-size="10.00">Fiea::Engine::RTTI</text>
</a>
</g>
</g>
<!-- Node4&#45;&gt;Node3 -->
<g id="edge3_Node000003_Node000004" class="edge">
<title>Node4&#45;&gt;Node3</title>
<g id="a_edge3_Node000003_Node000004"><a xlink:title=" ">
<path fill="none" stroke="#63b8ff" d="M55.62,-200.36C55.62,-192.07 55.62,-182.69 55.62,-175.06"/>
<polygon fill="#63b8ff" stroke="#63b8ff" points="52.13,-200.22 55.63,-210.22 59.13,-200.22 52.13,-200.22"/>
</a>
</g>
</g>
<!-- Node5 -->
<g id="Node000005" class="node">
<title>Node5</title>
<g id="a_Node000005"><a xlink:href="struct_fiea_1_1_engine_1_1_transform.html" target="_top" xlink:title=" ">
<polygon fill="white" stroke="#666666" points="250.12,-100 129.12,-100 129.12,-80 250.12,-80 250.12,-100"/>
<text xml:space="preserve" text-anchor="middle" x="189.62" y="-86.5" font-family="Helvetica,sans-Serif" font-size="10.00">Fiea::Engine::Transform</text>
</a>
</g>
</g>
<!-- Node5&#45;&gt;Node1 -->
<g id="edge4_Node000001_Node000005" class="edge">
<title>Node5&#45;&gt;Node1</title>
<g id="a_edge4_Node000001_Node000005"><a xlink:title=" ">
<path fill="none" stroke="#9a32cd" stroke-dasharray="5,2" d="M181.13,-69.51C174.27,-53.77 164.92,-32.32 159.65,-20.24"/>
<polygon fill="#9a32cd" stroke="#9a32cd" points="177.78,-70.59 184.99,-78.36 184.2,-67.79 177.78,-70.59"/>
</a>
</g>
<text xml:space="preserve" text-anchor="start" x="177.66" y="-43.5" font-family="Helvetica,sans-Serif" font-size="10.00" fill="grey">_transform</text>
</g>
</g>
</svg>
