<?xml version="1.0" encoding="UTF-8" standalone="no"?>
<!DOCTYPE svg PUBLIC "-//W3C//DTD SVG 1.1//EN"
 "http://www.w3.org/Graphics/SVG/1.1/DTD/svg11.dtd">
<!-- Generated by graphviz version 13.1.0 (20250701.0955)
 -->
<!-- Title: Fiea::Engine::Actions::ActionOutput::operator= Pages: 1 -->
<svg width="907pt" height="220pt"
 viewBox="0.00 0.00 907.00 220.00" xmlns="http://www.w3.org/2000/svg" xmlns:xlink="http://www.w3.org/1999/xlink">
<g id="graph0" class="graph" transform="scale(1 1) rotate(0) translate(4 216)">
<title>Fiea::Engine::Actions::ActionOutput::operator=</title>
<!-- Node1 -->
<g id="Node000001" class="node">
<title>Node1</title>
<g id="a_Node000001"><a xlink:title=" ">
<polygon fill="#999999" stroke="#666666" points="126.25,-148 0,-148 0,-116 126.25,-116 126.25,-148"/>
<text xml:space="preserve" text-anchor="start" x="8" y="-134.5" font-family="Helvetica,sans-Serif" font-size="10.00">Fiea::Engine::Actions</text>
<text xml:space="preserve" text-anchor="middle" x="63.12" y="-122.5" font-family="Helvetica,sans-Serif" font-size="10.00">::ActionOutput::operator=</text>
</a>
</g>
</g>
<!-- Node2 -->
<g id="Node000002" class="node">
<title>Node2</title>
<g id="a_Node000002"><a xlink:href="class_fiea_1_1_engine_1_1_actions_1_1_action_output.html#a9a2595b570019ae79796d9831ee70167" target="_top" xlink:title=" ">
<polygon fill="white" stroke="#666666" points="304.25,-148 162.25,-148 162.25,-116 304.25,-116 304.25,-148"/>
<text xml:space="preserve" text-anchor="start" x="170.25" y="-134.5" font-family="Helvetica,sans-Serif" font-size="10.00">Fiea::Engine::Actions</text>
<text xml:space="preserve" text-anchor="middle" x="233.25" y="-122.5" font-family="Helvetica,sans-Serif" font-size="10.00">::ActionOutput::ActionOutput</text>
</a>
</g>
</g>
<!-- Node1&#45;&gt;Node2 -->
<g id="edge1_Node000001_Node000002" class="edge">
<title>Node1&#45;&gt;Node2</title>
<g id="a_edge1_Node000001_Node000002"><a xlink:title=" ">
<path fill="none" stroke="#63b8ff" d="M126.73,-132C134.53,-132 142.6,-132 150.64,-132"/>
<polygon fill="#63b8ff" stroke="#63b8ff" points="150.44,-135.5 160.44,-132 150.44,-128.5 150.44,-135.5"/>
</a>
</g>
</g>
<!-- Node3 -->
<g id="Node000003" class="node">
<title>Node3</title>
<g id="a_Node000003"><a xlink:href="class_fiea_1_1_engine_1_1_actions_1_1_action.html#ae2af386f7122152003b00da79393e19e" target="_top" xlink:title=" ">
<polygon fill="white" stroke="#666666" points="450,-170 340.25,-170 340.25,-138 450,-138 450,-170"/>
<text xml:space="preserve" text-anchor="start" x="348.25" y="-156.5" font-family="Helvetica,sans-Serif" font-size="10.00">Fiea::Engine::Actions</text>
<text xml:space="preserve" text-anchor="middle" x="395.12" y="-144.5" font-family="Helvetica,sans-Serif" font-size="10.00">::Action::Action</text>
</a>
</g>
</g>
<!-- Node2&#45;&gt;Node3 -->
<g id="edge2_Node000002_Node000003" class="edge">
<title>Node2&#45;&gt;Node3</title>
<g id="a_edge2_Node000002_Node000003"><a xlink:title=" ">
<path fill="none" stroke="#63b8ff" d="M304.37,-141.65C312.47,-142.76 320.71,-143.9 328.74,-145"/>
<polygon fill="#63b8ff" stroke="#63b8ff" points="328.04,-148.44 338.42,-146.33 328.99,-141.5 328.04,-148.44"/>
</a>
</g>
</g>
<!-- Node5 -->
<g id="Node000005" class="node">
<title>Node5</title>
<g id="a_Node000005"><a xlink:href="class_fiea_1_1_engine_1_1_r_t_t_i.html#a876bebbe7b3149483c43a87f55f4ea99" target="_top" xlink:title=" ">
<polygon fill="white" stroke="#666666" points="591.25,-126 492.75,-126 492.75,-94 591.25,-94 591.25,-126"/>
<text xml:space="preserve" text-anchor="start" x="500.75" y="-112.5" font-family="Helvetica,sans-Serif" font-size="10.00">Fiea::Engine::RTTI</text>
<text xml:space="preserve" text-anchor="middle" x="542" y="-100.5" font-family="Helvetica,sans-Serif" font-size="10.00">::TypeIdInstance</text>
</a>
</g>
</g>
<!-- Node2&#45;&gt;Node5 -->
<g id="edge15_Node000002_Node000005" class="edge">
<title>Node2&#45;&gt;Node5</title>
<g id="a_edge15_Node000002_Node000005"><a xlink:title=" ">
<path fill="none" stroke="#63b8ff" d="M304.62,-126.95C357.96,-123.13 430.45,-117.93 481.04,-114.3"/>
<polygon fill="#63b8ff" stroke="#63b8ff" points="481.21,-117.8 490.93,-113.59 480.71,-110.82 481.21,-117.8"/>
</a>
</g>
</g>
<!-- Node4 -->
<g id="Node000004" class="node">
<title>Node4</title>
<g id="a_Node000004"><a xlink:href="class_fiea_1_1_engine_1_1_content_1_1_attributed.html#ad1ae014235d9d8b62b36066c94164148" target="_top" xlink:title=" ">
<polygon fill="white" stroke="#666666" points="598,-194 486,-194 486,-162 598,-162 598,-194"/>
<text xml:space="preserve" text-anchor="start" x="494" y="-180.5" font-family="Helvetica,sans-Serif" font-size="10.00">Fiea::Engine::Content</text>
<text xml:space="preserve" text-anchor="middle" x="542" y="-168.5" font-family="Helvetica,sans-Serif" font-size="10.00">::Attributed::Attributed</text>
</a>
</g>
</g>
<!-- Node3&#45;&gt;Node4 -->
<g id="edge3_Node000003_Node000004" class="edge">
<title>Node3&#45;&gt;Node4</title>
<g id="a_edge3_Node000003_Node000004"><a xlink:title=" ">
<path fill="none" stroke="#63b8ff" d="M450.48,-163C458.34,-164.31 466.5,-165.66 474.57,-166.99"/>
<polygon fill="#63b8ff" stroke="#63b8ff" points="473.92,-170.44 484.36,-168.62 475.07,-163.53 473.92,-170.44"/>
</a>
</g>
</g>
<!-- Node3&#45;&gt;Node5 -->
<g id="edge5_Node000003_Node000005" class="edge">
<title>Node3&#45;&gt;Node5</title>
<g id="a_edge5_Node000003_Node000005"><a xlink:title=" ">
<path fill="none" stroke="#63b8ff" d="M450.07,-137.62C460.34,-134.5 471.14,-131.22 481.57,-128.05"/>
<polygon fill="#63b8ff" stroke="#63b8ff" points="482.27,-131.5 490.82,-125.24 480.23,-124.8 482.27,-131.5"/>
</a>
</g>
</g>
<!-- Node4&#45;&gt;Node4 -->
<g id="edge4_Node000004_Node000004" class="edge">
<title>Node4&#45;&gt;Node4</title>
<g id="a_edge4_Node000004_Node000004"><a xlink:title=" ">
<path fill="none" stroke="#63b8ff" d="M515.78,-194.44C510.88,-203.58 519.62,-212 542,-212 554.24,-212 562.4,-209.48 566.48,-205.71"/>
<polygon fill="#63b8ff" stroke="#63b8ff" points="569.92,-206.36 567.99,-195.94 563,-205.28 569.92,-206.36"/>
</a>
</g>
</g>
<!-- Node5&#45;&gt;Node5 -->
<g id="edge14_Node000005_Node000005" class="edge">
<title>Node5&#45;&gt;Node5</title>
<g id="a_edge14_Node000005_Node000005"><a xlink:title=" ">
<path fill="none" stroke="#63b8ff" d="M515.78,-126.44C510.88,-135.58 519.62,-144 542,-144 554.24,-144 562.4,-141.48 566.48,-137.71"/>
<polygon fill="#63b8ff" stroke="#63b8ff" points="569.92,-138.36 567.99,-127.94 563,-137.28 569.92,-138.36"/>
</a>
</g>
</g>
<!-- Node6 -->
<g id="Node000006" class="node">
<title>Node6</title>
<g id="a_Node000006"><a xlink:href="class_fiea_1_1_engine_1_1_r_t_t_i.html#a15bd5993c8ad04da47af440298ebbb30" target="_top" xlink:title=" ">
<polygon fill="white" stroke="#666666" points="750.5,-158 634,-158 634,-138 750.5,-138 750.5,-158"/>
<text xml:space="preserve" text-anchor="middle" x="692.25" y="-144.5" font-family="Helvetica,sans-Serif" font-size="10.00">Fiea::Engine::RTTI::As</text>
</a>
</g>
</g>
<!-- Node5&#45;&gt;Node6 -->
<g id="edge6_Node000005_Node000006" class="edge">
<title>Node5&#45;&gt;Node6</title>
<g id="a_edge6_Node000005_Node000006"><a xlink:title=" ">
<path fill="none" stroke="#63b8ff" d="M591.54,-122.44C606.9,-126.38 623.93,-130.74 639.5,-134.74"/>
<polygon fill="#63b8ff" stroke="#63b8ff" points="638.52,-138.1 649.07,-137.19 640.25,-131.32 638.52,-138.1"/>
</a>
</g>
</g>
<!-- Node7 -->
<g id="Node000007" class="node">
<title>Node7</title>
<g id="a_Node000007"><a xlink:href="class_fiea_1_1_engine_1_1_r_t_t_i.html#ac0a7d875e4513b2aca7594abcd4418ef" target="_top" xlink:title=" ">
<polygon fill="white" stroke="#666666" points="899.25,-180 786.5,-180 786.5,-160 899.25,-160 899.25,-180"/>
<text xml:space="preserve" text-anchor="middle" x="842.88" y="-166.5" font-family="Helvetica,sans-Serif" font-size="10.00">Fiea::Engine::RTTI::Is</text>
</a>
</g>
</g>
<!-- Node5&#45;&gt;Node7 -->
<g id="edge11_Node000005_Node000007" class="edge">
<title>Node5&#45;&gt;Node7</title>
<g id="a_edge11_Node000005_Node000007"><a xlink:title=" ">
<path fill="none" stroke="#63b8ff" d="M562.05,-126.34C579.48,-140.14 606.64,-158.93 634,-167 679.72,-180.5 733.6,-180.86 775.05,-178.06"/>
<polygon fill="#63b8ff" stroke="#63b8ff" points="775.18,-181.56 784.88,-177.31 774.64,-174.58 775.18,-181.56"/>
</a>
</g>
</g>
<!-- Node8 -->
<g id="Node000008" class="node">
<title>Node8</title>
<g id="a_Node000008"><a xlink:href="class_fiea_1_1_engine_1_1_r_t_t_i.html#a13000029a2e6cced30b831e466e07cae" target="_top" xlink:title=" ">
<polygon fill="white" stroke="#666666" points="892.12,-126 793.62,-126 793.62,-94 892.12,-94 892.12,-126"/>
<text xml:space="preserve" text-anchor="start" x="801.62" y="-112.5" font-family="Helvetica,sans-Serif" font-size="10.00">Fiea::Engine::RTTI</text>
<text xml:space="preserve" text-anchor="middle" x="842.88" y="-100.5" font-family="Helvetica,sans-Serif" font-size="10.00">::RTTI</text>
</a>
</g>
</g>
<!-- Node5&#45;&gt;Node8 -->
<g id="edge12_Node000005_Node000008" class="edge">
<title>Node5&#45;&gt;Node8</title>
<g id="a_edge12_Node000005_Node000008"><a xlink:title=" ">
<path fill="none" stroke="#63b8ff" d="M591.68,-110C643.57,-110 725.79,-110 781.7,-110"/>
<polygon fill="#63b8ff" stroke="#63b8ff" points="781.7,-113.5 791.7,-110 781.7,-106.5 781.7,-113.5"/>
</a>
</g>
</g>
<!-- Node9 -->
<g id="Node000009" class="node">
<title>Node9</title>
<g id="a_Node000009"><a xlink:href="class_fiea_1_1_engine_1_1_r_t_t_i.html#a7f70ad5ba0f8a3388543d63d72892575" target="_top" xlink:title=" ">
<polygon fill="white" stroke="#666666" points="741.5,-82 643,-82 643,-50 741.5,-50 741.5,-82"/>
<text xml:space="preserve" text-anchor="start" x="651" y="-68.5" font-family="Helvetica,sans-Serif" font-size="10.00">Fiea::Engine::RTTI</text>
<text xml:space="preserve" text-anchor="middle" x="692.25" y="-56.5" font-family="Helvetica,sans-Serif" font-size="10.00">::Equals</text>
</a>
</g>
</g>
<!-- Node5&#45;&gt;Node9 -->
<g id="edge9_Node000005_Node000009" class="edge">
<title>Node5&#45;&gt;Node9</title>
<g id="a_edge9_Node000005_Node000009"><a xlink:title=" ">
<path fill="none" stroke="#63b8ff" d="M591.54,-95.59C604.34,-91.79 618.3,-87.65 631.61,-83.7"/>
<polygon fill="#63b8ff" stroke="#63b8ff" points="632.56,-87.07 641.15,-80.87 630.56,-80.36 632.56,-87.07"/>
</a>
</g>
</g>
<!-- Node10 -->
<g id="Node000010" class="node">
<title>Node10</title>
<g id="a_Node000010"><a xlink:href="class_fiea_1_1_engine_1_1_r_t_t_i.html#a43a7d187e332a17d2c699bc2c8136a30" target="_top" xlink:title=" ">
<polygon fill="white" stroke="#666666" points="741.5,-32 643,-32 643,0 741.5,0 741.5,-32"/>
<text xml:space="preserve" text-anchor="start" x="651" y="-18.5" font-family="Helvetica,sans-Serif" font-size="10.00">Fiea::Engine::RTTI</text>
<text xml:space="preserve" text-anchor="middle" x="692.25" y="-6.5" font-family="Helvetica,sans-Serif" font-size="10.00">::ToString</text>
</a>
</g>
</g>
<!-- Node5&#45;&gt;Node10 -->
<g id="edge13_Node000005_Node000010" class="edge">
<title>Node5&#45;&gt;Node10</title>
<g id="a_edge13_Node000005_Node000010"><a xlink:title=" ">
<path fill="none" stroke="#63b8ff" d="M561.94,-93.51C579.72,-78.56 607.49,-56.54 634,-41 636.01,-39.82 638.09,-38.66 640.2,-37.53"/>
<polygon fill="#63b8ff" stroke="#63b8ff" points="641.59,-40.75 648.96,-33.13 638.45,-34.5 641.59,-40.75"/>
</a>
</g>
</g>
<!-- Node6&#45;&gt;Node7 -->
<g id="edge7_Node000006_Node000007" class="edge">
<title>Node6&#45;&gt;Node7</title>
<g id="a_edge7_Node000006_Node000007"><a xlink:title=" ">
<path fill="none" stroke="#63b8ff" d="M750.71,-156.51C758.6,-157.67 766.75,-158.88 774.78,-160.07"/>
<polygon fill="#63b8ff" stroke="#63b8ff" points="774.13,-163.51 784.53,-161.51 775.16,-156.59 774.13,-163.51"/>
</a>
</g>
</g>
<!-- Node6&#45;&gt;Node8 -->
<g id="edge8_Node000006_Node000008" class="edge">
<title>Node6&#45;&gt;Node8</title>
<g id="a_edge8_Node000006_Node000008"><a xlink:title=" ">
<path fill="none" stroke="#63b8ff" d="M734.26,-137.52C749.13,-133.71 766.24,-129.34 782.38,-125.21"/>
<polygon fill="#63b8ff" stroke="#63b8ff" points="783.07,-128.65 791.89,-122.78 781.34,-121.87 783.07,-128.65"/>
</a>
</g>
</g>
<!-- Node9&#45;&gt;Node8 -->
<g id="edge10_Node000009_Node000008" class="edge">
<title>Node9&#45;&gt;Node8</title>
<g id="a_edge10_Node000009_Node000008"><a xlink:title=" ">
<path fill="none" stroke="#63b8ff" d="M741.92,-80.41C754.94,-84.26 769.17,-88.47 782.69,-92.48"/>
<polygon fill="#63b8ff" stroke="#63b8ff" points="781.32,-95.72 791.9,-95.21 783.31,-89.01 781.32,-95.72"/>
</a>
</g>
</g>
</g>
</svg>
