<?xml version="1.0" encoding="UTF-8" standalone="no"?>
<!DOCTYPE svg PUBLIC "-//W3C//DTD SVG 1.1//EN"
 "http://www.w3.org/Graphics/SVG/1.1/DTD/svg11.dtd">
<!-- Generated by graphviz version 13.1.0 (20250701.0955)
 -->
<!-- Title: Fiea::Engine::Content::FloatHandler::EnterKey Pages: 1 -->
<svg width="468pt" height="150pt"
 viewBox="0.00 0.00 468.00 150.00" xmlns="http://www.w3.org/2000/svg" xmlns:xlink="http://www.w3.org/1999/xlink">
<g id="graph0" class="graph" transform="scale(1 1) rotate(0) translate(4 146)">
<title>Fiea::Engine::Content::FloatHandler::EnterKey</title>
<!-- Node1 -->
<g id="Node000001" class="node">
<title>Node1</title>
<g id="a_Node000001"><a xlink:title=" ">
<polygon fill="#999999" stroke="#666666" points="124,-82 0,-82 0,-50 124,-50 124,-82"/>
<text xml:space="preserve" text-anchor="start" x="8" y="-68.5" font-family="Helvetica,sans-Serif" font-size="10.00">Fiea::Engine::Content</text>
<text xml:space="preserve" text-anchor="middle" x="62" y="-56.5" font-family="Helvetica,sans-Serif" font-size="10.00">::FloatHandler::EnterKey</text>
</a>
</g>
</g>
<!-- Node2 -->
<g id="Node000002" class="node">
<title>Node2</title>
<g id="a_Node000002"><a xlink:href="class_fiea_1_1_engine_1_1_r_t_t_i.html#a15bd5993c8ad04da47af440298ebbb30" target="_top" xlink:title=" ">
<polygon fill="white" stroke="#666666" points="293.75,-120 177.25,-120 177.25,-100 293.75,-100 293.75,-120"/>
<text xml:space="preserve" text-anchor="middle" x="235.5" y="-106.5" font-family="Helvetica,sans-Serif" font-size="10.00">Fiea::Engine::RTTI::As</text>
</a>
</g>
</g>
<!-- Node1&#45;&gt;Node2 -->
<g id="edge1_Node000001_Node000002" class="edge">
<title>Node1&#45;&gt;Node2</title>
<g id="a_edge1_Node000001_Node000002"><a xlink:title=" ">
<path fill="none" stroke="#63b8ff" d="M124.31,-81.83C136.15,-84.88 148.46,-88.04 160,-91 167.3,-92.87 175,-94.84 182.57,-96.77"/>
<polygon fill="#63b8ff" stroke="#63b8ff" points="181.49,-100.11 192.04,-99.19 183.22,-93.33 181.49,-100.11"/>
</a>
</g>
</g>
<!-- Node5 -->
<g id="Node000005" class="node">
<title>Node5</title>
<g id="a_Node000005"><a xlink:href="class_fiea_1_1_engine_1_1_content_1_1_test_writer.html#aab4e478fe3946e8305fb66445654dd94" target="_top" xlink:title=" ">
<polygon fill="white" stroke="#666666" points="311,-82 160,-82 160,-50 311,-50 311,-82"/>
<text xml:space="preserve" text-anchor="start" x="168" y="-68.5" font-family="Helvetica,sans-Serif" font-size="10.00">Fiea::Engine::Content</text>
<text xml:space="preserve" text-anchor="middle" x="235.5" y="-56.5" font-family="Helvetica,sans-Serif" font-size="10.00">::TestWriter::CheckIfValidArray</text>
</a>
</g>
</g>
<!-- Node1&#45;&gt;Node5 -->
<g id="edge4_Node000001_Node000005" class="edge">
<title>Node1&#45;&gt;Node5</title>
<g id="a_edge4_Node000001_Node000005"><a xlink:title=" ">
<path fill="none" stroke="#63b8ff" d="M124.43,-66C132.2,-66 140.27,-66 148.34,-66"/>
<polygon fill="#63b8ff" stroke="#63b8ff" points="148.21,-69.5 158.21,-66 148.21,-62.5 148.21,-69.5"/>
</a>
</g>
</g>
<!-- Node6 -->
<g id="Node000006" class="node">
<title>Node6</title>
<g id="a_Node000006"><a xlink:href="class_fiea_1_1_engine_1_1_content_1_1_test_writer.html#ae2cac3211fa521f5989efa508802952e" target="_top" xlink:title=" ">
<polygon fill="white" stroke="#666666" points="298.25,-32 172.75,-32 172.75,0 298.25,0 298.25,-32"/>
<text xml:space="preserve" text-anchor="start" x="180.75" y="-18.5" font-family="Helvetica,sans-Serif" font-size="10.00">Fiea::Engine::Content</text>
<text xml:space="preserve" text-anchor="middle" x="235.5" y="-6.5" font-family="Helvetica,sans-Serif" font-size="10.00">::TestWriter::RecordFloat</text>
</a>
</g>
</g>
<!-- Node1&#45;&gt;Node6 -->
<g id="edge5_Node000001_Node000006" class="edge">
<title>Node1&#45;&gt;Node6</title>
<g id="a_edge5_Node000001_Node000006"><a xlink:title=" ">
<path fill="none" stroke="#63b8ff" d="M119.16,-49.63C134.47,-45.16 151.23,-40.28 167.1,-35.65"/>
<polygon fill="#63b8ff" stroke="#63b8ff" points="167.85,-39.08 176.47,-32.92 165.89,-32.36 167.85,-39.08"/>
</a>
</g>
</g>
<!-- Node3 -->
<g id="Node000003" class="node">
<title>Node3</title>
<g id="a_Node000003"><a xlink:href="class_fiea_1_1_engine_1_1_r_t_t_i.html#ac0a7d875e4513b2aca7594abcd4418ef" target="_top" xlink:title=" ">
<polygon fill="white" stroke="#666666" points="459.75,-142 347,-142 347,-122 459.75,-122 459.75,-142"/>
<text xml:space="preserve" text-anchor="middle" x="403.38" y="-128.5" font-family="Helvetica,sans-Serif" font-size="10.00">Fiea::Engine::RTTI::Is</text>
</a>
</g>
</g>
<!-- Node2&#45;&gt;Node3 -->
<g id="edge2_Node000002_Node000003" class="edge">
<title>Node2&#45;&gt;Node3</title>
<g id="a_edge2_Node000002_Node000003"><a xlink:title=" ">
<path fill="none" stroke="#63b8ff" d="M294.05,-117.63C307.35,-119.4 321.62,-121.29 335.3,-123.1"/>
<polygon fill="#63b8ff" stroke="#63b8ff" points="334.73,-126.56 345.11,-124.4 335.65,-119.62 334.73,-126.56"/>
</a>
</g>
</g>
<!-- Node4 -->
<g id="Node000004" class="node">
<title>Node4</title>
<g id="a_Node000004"><a xlink:href="class_fiea_1_1_engine_1_1_r_t_t_i.html#a13000029a2e6cced30b831e466e07cae" target="_top" xlink:title=" ">
<polygon fill="white" stroke="#666666" points="452.62,-104 354.12,-104 354.12,-72 452.62,-72 452.62,-104"/>
<text xml:space="preserve" text-anchor="start" x="362.12" y="-90.5" font-family="Helvetica,sans-Serif" font-size="10.00">Fiea::Engine::RTTI</text>
<text xml:space="preserve" text-anchor="middle" x="403.38" y="-78.5" font-family="Helvetica,sans-Serif" font-size="10.00">::RTTI</text>
</a>
</g>
</g>
<!-- Node2&#45;&gt;Node4 -->
<g id="edge3_Node000002_Node000004" class="edge">
<title>Node2&#45;&gt;Node4</title>
<g id="a_edge3_Node000002_Node000004"><a xlink:title=" ">
<path fill="none" stroke="#63b8ff" d="M294.05,-102.37C309.71,-100.29 326.71,-98.04 342.5,-95.94"/>
<polygon fill="#63b8ff" stroke="#63b8ff" points="342.79,-99.43 352.24,-94.65 341.87,-92.49 342.79,-99.43"/>
</a>
</g>
</g>
<!-- Node7 -->
<g id="Node000007" class="node">
<title>Node7</title>
<g id="a_Node000007"><a xlink:href="class_fiea_1_1_engine_1_1_content_1_1_parse_writer.html#aa155c5b78668071847272e16c2ec28cb" target="_top" xlink:title=" ">
<polygon fill="white" stroke="#666666" points="459,-32 347.75,-32 347.75,0 459,0 459,-32"/>
<text xml:space="preserve" text-anchor="start" x="355.75" y="-18.5" font-family="Helvetica,sans-Serif" font-size="10.00">Fiea::Engine::Content</text>
<text xml:space="preserve" text-anchor="middle" x="403.38" y="-6.5" font-family="Helvetica,sans-Serif" font-size="10.00">::ParseWriter::Depth</text>
</a>
</g>
</g>
<!-- Node6&#45;&gt;Node7 -->
<g id="edge6_Node000006_Node000007" class="edge">
<title>Node6&#45;&gt;Node7</title>
<g id="a_edge6_Node000006_Node000007"><a xlink:title=" ">
<path fill="none" stroke="#63b8ff" d="M298.74,-16C310.98,-16 323.87,-16 336.24,-16"/>
<polygon fill="#63b8ff" stroke="#63b8ff" points="335.91,-19.5 345.91,-16 335.91,-12.5 335.91,-19.5"/>
</a>
</g>
</g>
</g>
</svg>
