<?xml version="1.0" encoding="UTF-8" standalone="no"?>
<!DOCTYPE svg PUBLIC "-//W3C//DTD SVG 1.1//EN"
 "http://www.w3.org/Graphics/SVG/1.1/DTD/svg11.dtd">
<!-- Generated by graphviz version 13.1.0 (20250701.0955)
 -->
<!-- Title: Fiea::Engine::Content::Attributed::ClassAttributes Pages: 1 -->
<svg width="653pt" height="252pt"
 viewBox="0.00 0.00 653.00 252.00" xmlns="http://www.w3.org/2000/svg" xmlns:xlink="http://www.w3.org/1999/xlink">
<g id="graph0" class="graph" transform="scale(1 1) rotate(0) translate(4 248)">
<title>Fiea::Engine::Content::Attributed::ClassAttributes</title>
<!-- Node1 -->
<g id="Node000001" class="node">
<title>Node1</title>
<g id="a_Node000001"><a xlink:title="Retrieves all class attribute names.">
<polygon fill="#999999" stroke="#666666" points="137.5,-194 0,-194 0,-162 137.5,-162 137.5,-194"/>
<text xml:space="preserve" text-anchor="start" x="8" y="-180.5" font-family="Helvetica,sans-Serif" font-size="10.00">Fiea::Engine::Content</text>
<text xml:space="preserve" text-anchor="middle" x="68.75" y="-168.5" font-family="Helvetica,sans-Serif" font-size="10.00">::Attributed::ClassAttributes</text>
</a>
</g>
</g>
<!-- Node2 -->
<g id="Node000002" class="node">
<title>Node2</title>
<g id="a_Node000002"><a xlink:href="struct_fiea_1_1_engine_1_1_content_1_1_i_type_provider.html#a98897793b1bb048c7ca5f163351a239b" target="_top" xlink:title=" ">
<polygon fill="white" stroke="#666666" points="344,-244 173.5,-244 173.5,-212 344,-212 344,-244"/>
<text xml:space="preserve" text-anchor="start" x="181.5" y="-230.5" font-family="Helvetica,sans-Serif" font-size="10.00">Fiea::Engine::Content</text>
<text xml:space="preserve" text-anchor="middle" x="258.75" y="-218.5" font-family="Helvetica,sans-Serif" font-size="10.00">::ITypeProvider::GetClassDefinition</text>
</a>
</g>
</g>
<!-- Node1&#45;&gt;Node2 -->
<g id="edge1_Node000001_Node000002" class="edge">
<title>Node1&#45;&gt;Node2</title>
<g id="a_edge1_Node000001_Node000002"><a xlink:title=" ">
<path fill="none" stroke="#63b8ff" d="M131.57,-194.44C148.59,-198.97 167.22,-203.92 184.81,-208.6"/>
<polygon fill="#63b8ff" stroke="#63b8ff" points="183.87,-211.97 194.43,-211.16 185.67,-205.21 183.87,-211.97"/>
</a>
</g>
</g>
<!-- Node3 -->
<g id="Node000003" class="node">
<title>Node3</title>
<g id="a_Node000003"><a xlink:href="class_fiea_1_1_engine_1_1_service_manager.html#a8aac9b15b7e5483c2b1cd5febe590a0c" target="_top" xlink:title=" ">
<polygon fill="white" stroke="#666666" points="332.38,-194 185.12,-194 185.12,-162 332.38,-162 332.38,-194"/>
<text xml:space="preserve" text-anchor="start" x="193.12" y="-180.5" font-family="Helvetica,sans-Serif" font-size="10.00">Fiea::Engine::ServiceManager</text>
<text xml:space="preserve" text-anchor="middle" x="258.75" y="-168.5" font-family="Helvetica,sans-Serif" font-size="10.00">::ProvideInterface</text>
</a>
</g>
</g>
<!-- Node1&#45;&gt;Node3 -->
<g id="edge2_Node000001_Node000003" class="edge">
<title>Node1&#45;&gt;Node3</title>
<g id="a_edge2_Node000001_Node000003"><a xlink:title=" ">
<path fill="none" stroke="#63b8ff" d="M137.89,-178C149.43,-178 161.55,-178 173.45,-178"/>
<polygon fill="#63b8ff" stroke="#63b8ff" points="173.26,-181.5 183.26,-178 173.26,-174.5 173.26,-181.5"/>
</a>
</g>
</g>
<!-- Node4 -->
<g id="Node000004" class="node">
<title>Node4</title>
<g id="a_Node000004"><a xlink:href="class_fiea_1_1_engine_1_1_r_t_t_i.html#a876bebbe7b3149483c43a87f55f4ea99" target="_top" xlink:title=" ">
<polygon fill="white" stroke="#666666" points="308,-126 209.5,-126 209.5,-94 308,-94 308,-126"/>
<text xml:space="preserve" text-anchor="start" x="217.5" y="-112.5" font-family="Helvetica,sans-Serif" font-size="10.00">Fiea::Engine::RTTI</text>
<text xml:space="preserve" text-anchor="middle" x="258.75" y="-100.5" font-family="Helvetica,sans-Serif" font-size="10.00">::TypeIdInstance</text>
</a>
</g>
</g>
<!-- Node1&#45;&gt;Node4 -->
<g id="edge3_Node000001_Node000004" class="edge">
<title>Node1&#45;&gt;Node4</title>
<g id="a_edge3_Node000001_Node000004"><a xlink:title=" ">
<path fill="none" stroke="#63b8ff" d="M115.26,-161.54C141.26,-152.14 174.07,-140.27 201.65,-130.29"/>
<polygon fill="#63b8ff" stroke="#63b8ff" points="202.7,-133.63 210.91,-126.94 200.32,-127.05 202.7,-133.63"/>
</a>
</g>
</g>
<!-- Node4&#45;&gt;Node4 -->
<g id="edge12_Node000004_Node000004" class="edge">
<title>Node4&#45;&gt;Node4</title>
<g id="a_edge12_Node000004_Node000004"><a xlink:title=" ">
<path fill="none" stroke="#63b8ff" d="M226.7,-126.44C220.72,-135.58 231.4,-144 258.75,-144 273.7,-144 283.68,-141.48 288.66,-137.71"/>
<polygon fill="#63b8ff" stroke="#63b8ff" points="292.09,-138.41 290.51,-127.93 285.21,-137.1 292.09,-138.41"/>
</a>
</g>
</g>
<!-- Node5 -->
<g id="Node000005" class="node">
<title>Node5</title>
<g id="a_Node000005"><a xlink:href="class_fiea_1_1_engine_1_1_r_t_t_i.html#a15bd5993c8ad04da47af440298ebbb30" target="_top" xlink:title=" ">
<polygon fill="white" stroke="#666666" points="496.5,-158 380,-158 380,-138 496.5,-138 496.5,-158"/>
<text xml:space="preserve" text-anchor="middle" x="438.25" y="-144.5" font-family="Helvetica,sans-Serif" font-size="10.00">Fiea::Engine::RTTI::As</text>
</a>
</g>
</g>
<!-- Node4&#45;&gt;Node5 -->
<g id="edge4_Node000004_Node000005" class="edge">
<title>Node4&#45;&gt;Node5</title>
<g id="a_edge4_Node000004_Node000005"><a xlink:title=" ">
<path fill="none" stroke="#63b8ff" d="M308.25,-120.38C329.59,-124.95 354.87,-130.36 377.36,-135.18"/>
<polygon fill="#63b8ff" stroke="#63b8ff" points="376.51,-138.58 387.02,-137.25 377.97,-131.73 376.51,-138.58"/>
</a>
</g>
</g>
<!-- Node6 -->
<g id="Node000006" class="node">
<title>Node6</title>
<g id="a_Node000006"><a xlink:href="class_fiea_1_1_engine_1_1_r_t_t_i.html#ac0a7d875e4513b2aca7594abcd4418ef" target="_top" xlink:title=" ">
<polygon fill="white" stroke="#666666" points="645.25,-180 532.5,-180 532.5,-160 645.25,-160 645.25,-180"/>
<text xml:space="preserve" text-anchor="middle" x="588.88" y="-166.5" font-family="Helvetica,sans-Serif" font-size="10.00">Fiea::Engine::RTTI::Is</text>
</a>
</g>
</g>
<!-- Node4&#45;&gt;Node6 -->
<g id="edge9_Node000004_Node000006" class="edge">
<title>Node4&#45;&gt;Node6</title>
<g id="a_edge9_Node000004_Node000006"><a xlink:title=" ">
<path fill="none" stroke="#63b8ff" d="M290.48,-126.41C319.79,-141.73 362.05,-162.83 380,-167 426.27,-177.76 479.92,-178.25 521.12,-176.19"/>
<polygon fill="#63b8ff" stroke="#63b8ff" points="521.1,-179.69 530.88,-175.63 520.7,-172.7 521.1,-179.69"/>
</a>
</g>
</g>
<!-- Node7 -->
<g id="Node000007" class="node">
<title>Node7</title>
<g id="a_Node000007"><a xlink:href="class_fiea_1_1_engine_1_1_r_t_t_i.html#a13000029a2e6cced30b831e466e07cae" target="_top" xlink:title=" ">
<polygon fill="white" stroke="#666666" points="638.12,-126 539.62,-126 539.62,-94 638.12,-94 638.12,-126"/>
<text xml:space="preserve" text-anchor="start" x="547.62" y="-112.5" font-family="Helvetica,sans-Serif" font-size="10.00">Fiea::Engine::RTTI</text>
<text xml:space="preserve" text-anchor="middle" x="588.88" y="-100.5" font-family="Helvetica,sans-Serif" font-size="10.00">::RTTI</text>
</a>
</g>
</g>
<!-- Node4&#45;&gt;Node7 -->
<g id="edge10_Node000004_Node000007" class="edge">
<title>Node4&#45;&gt;Node7</title>
<g id="a_edge10_Node000004_Node000007"><a xlink:title=" ">
<path fill="none" stroke="#63b8ff" d="M308.17,-110C366.57,-110 464.75,-110 527.9,-110"/>
<polygon fill="#63b8ff" stroke="#63b8ff" points="527.75,-113.5 537.75,-110 527.75,-106.5 527.75,-113.5"/>
</a>
</g>
</g>
<!-- Node8 -->
<g id="Node000008" class="node">
<title>Node8</title>
<g id="a_Node000008"><a xlink:href="class_fiea_1_1_engine_1_1_r_t_t_i.html#a7f70ad5ba0f8a3388543d63d72892575" target="_top" xlink:title=" ">
<polygon fill="white" stroke="#666666" points="487.5,-82 389,-82 389,-50 487.5,-50 487.5,-82"/>
<text xml:space="preserve" text-anchor="start" x="397" y="-68.5" font-family="Helvetica,sans-Serif" font-size="10.00">Fiea::Engine::RTTI</text>
<text xml:space="preserve" text-anchor="middle" x="438.25" y="-56.5" font-family="Helvetica,sans-Serif" font-size="10.00">::Equals</text>
</a>
</g>
</g>
<!-- Node4&#45;&gt;Node8 -->
<g id="edge7_Node000004_Node000008" class="edge">
<title>Node4&#45;&gt;Node8</title>
<g id="a_edge7_Node000004_Node000008"><a xlink:title=" ">
<path fill="none" stroke="#63b8ff" d="M308.25,-97.98C329.68,-92.67 355.07,-86.37 377.64,-80.78"/>
<polygon fill="#63b8ff" stroke="#63b8ff" points="378.47,-84.18 387.34,-78.37 376.79,-77.38 378.47,-84.18"/>
</a>
</g>
</g>
<!-- Node9 -->
<g id="Node000009" class="node">
<title>Node9</title>
<g id="a_Node000009"><a xlink:href="class_fiea_1_1_engine_1_1_r_t_t_i.html#a43a7d187e332a17d2c699bc2c8136a30" target="_top" xlink:title=" ">
<polygon fill="white" stroke="#666666" points="487.5,-32 389,-32 389,0 487.5,0 487.5,-32"/>
<text xml:space="preserve" text-anchor="start" x="397" y="-18.5" font-family="Helvetica,sans-Serif" font-size="10.00">Fiea::Engine::RTTI</text>
<text xml:space="preserve" text-anchor="middle" x="438.25" y="-6.5" font-family="Helvetica,sans-Serif" font-size="10.00">::ToString</text>
</a>
</g>
</g>
<!-- Node4&#45;&gt;Node9 -->
<g id="edge11_Node000004_Node000009" class="edge">
<title>Node4&#45;&gt;Node9</title>
<g id="a_edge11_Node000004_Node000009"><a xlink:title=" ">
<path fill="none" stroke="#63b8ff" d="M286.51,-93.52C310.58,-78.97 347.11,-57.56 380,-41 382.54,-39.72 385.17,-38.44 387.83,-37.17"/>
<polygon fill="#63b8ff" stroke="#63b8ff" points="389.2,-40.39 396.81,-33.01 386.26,-34.04 389.2,-40.39"/>
</a>
</g>
</g>
<!-- Node5&#45;&gt;Node6 -->
<g id="edge5_Node000005_Node000006" class="edge">
<title>Node5&#45;&gt;Node6</title>
<g id="a_edge5_Node000005_Node000006"><a xlink:title=" ">
<path fill="none" stroke="#63b8ff" d="M496.71,-156.51C504.6,-157.67 512.75,-158.88 520.78,-160.07"/>
<polygon fill="#63b8ff" stroke="#63b8ff" points="520.13,-163.51 530.53,-161.51 521.16,-156.59 520.13,-163.51"/>
</a>
</g>
</g>
<!-- Node5&#45;&gt;Node7 -->
<g id="edge6_Node000005_Node000007" class="edge">
<title>Node5&#45;&gt;Node7</title>
<g id="a_edge6_Node000005_Node000007"><a xlink:title=" ">
<path fill="none" stroke="#63b8ff" d="M480.26,-137.52C495.13,-133.71 512.24,-129.34 528.38,-125.21"/>
<polygon fill="#63b8ff" stroke="#63b8ff" points="529.07,-128.65 537.89,-122.78 527.34,-121.87 529.07,-128.65"/>
</a>
</g>
</g>
<!-- Node8&#45;&gt;Node7 -->
<g id="edge8_Node000008_Node000007" class="edge">
<title>Node8&#45;&gt;Node7</title>
<g id="a_edge8_Node000008_Node000007"><a xlink:title=" ">
<path fill="none" stroke="#63b8ff" d="M487.92,-80.41C500.94,-84.26 515.17,-88.47 528.69,-92.48"/>
<polygon fill="#63b8ff" stroke="#63b8ff" points="527.32,-95.72 537.9,-95.21 529.31,-89.01 527.32,-95.72"/>
</a>
</g>
</g>
</g>
</svg>
