<?xml version="1.0" encoding="UTF-8" standalone="no"?>
<!DOCTYPE svg PUBLIC "-//W3C//DTD SVG 1.1//EN"
 "http://www.w3.org/Graphics/SVG/1.1/DTD/svg11.dtd">
<!-- Generated by graphviz version 13.1.0 (20250701.0955)
 -->
<!-- Title: Fiea::Engine::GameObject::GameObject Pages: 1 -->
<svg width="589pt" height="220pt"
 viewBox="0.00 0.00 589.00 220.00" xmlns="http://www.w3.org/2000/svg" xmlns:xlink="http://www.w3.org/1999/xlink">
<g id="graph0" class="graph" transform="scale(1 1) rotate(0) translate(4 216)">
<title>Fiea::Engine::GameObject::GameObject</title>
<!-- Node1 -->
<g id="Node000001" class="node">
<title>Node1</title>
<g id="a_Node000001"><a xlink:title=" ">
<polygon fill="#999999" stroke="#666666" points="131.5,-160 0,-160 0,-128 131.5,-128 131.5,-160"/>
<text xml:space="preserve" text-anchor="start" x="8" y="-146.5" font-family="Helvetica,sans-Serif" font-size="10.00">Fiea::Engine::GameObject</text>
<text xml:space="preserve" text-anchor="middle" x="65.75" y="-134.5" font-family="Helvetica,sans-Serif" font-size="10.00">::GameObject</text>
</a>
</g>
</g>
<!-- Node2 -->
<g id="Node000002" class="node">
<title>Node2</title>
<g id="a_Node000002"><a xlink:href="class_fiea_1_1_engine_1_1_content_1_1_attributed.html#ad1ae014235d9d8b62b36066c94164148" target="_top" xlink:title=" ">
<polygon fill="white" stroke="#666666" points="279.5,-194 167.5,-194 167.5,-162 279.5,-162 279.5,-194"/>
<text xml:space="preserve" text-anchor="start" x="175.5" y="-180.5" font-family="Helvetica,sans-Serif" font-size="10.00">Fiea::Engine::Content</text>
<text xml:space="preserve" text-anchor="middle" x="223.5" y="-168.5" font-family="Helvetica,sans-Serif" font-size="10.00">::Attributed::Attributed</text>
</a>
</g>
</g>
<!-- Node1&#45;&gt;Node2 -->
<g id="edge1_Node000001_Node000002" class="edge">
<title>Node1&#45;&gt;Node2</title>
<g id="a_edge1_Node000001_Node000002"><a xlink:title=" ">
<path fill="none" stroke="#63b8ff" d="M131.9,-158.22C139.94,-159.98 148.18,-161.78 156.24,-163.54"/>
<polygon fill="#63b8ff" stroke="#63b8ff" points="155.49,-166.95 166.01,-165.67 156.98,-160.12 155.49,-166.95"/>
</a>
</g>
</g>
<!-- Node3 -->
<g id="Node000003" class="node">
<title>Node3</title>
<g id="a_Node000003"><a xlink:href="class_fiea_1_1_engine_1_1_r_t_t_i.html#a876bebbe7b3149483c43a87f55f4ea99" target="_top" xlink:title=" ">
<polygon fill="white" stroke="#666666" points="272.75,-126 174.25,-126 174.25,-94 272.75,-94 272.75,-126"/>
<text xml:space="preserve" text-anchor="start" x="182.25" y="-112.5" font-family="Helvetica,sans-Serif" font-size="10.00">Fiea::Engine::RTTI</text>
<text xml:space="preserve" text-anchor="middle" x="223.5" y="-100.5" font-family="Helvetica,sans-Serif" font-size="10.00">::TypeIdInstance</text>
</a>
</g>
</g>
<!-- Node1&#45;&gt;Node3 -->
<g id="edge3_Node000001_Node000003" class="edge">
<title>Node1&#45;&gt;Node3</title>
<g id="a_edge3_Node000001_Node000003"><a xlink:title=" ">
<path fill="none" stroke="#63b8ff" d="M131.9,-129.78C142.2,-127.53 152.8,-125.22 162.96,-123"/>
<polygon fill="#63b8ff" stroke="#63b8ff" points="163.7,-126.42 172.72,-120.87 162.2,-119.58 163.7,-126.42"/>
</a>
</g>
</g>
<!-- Node2&#45;&gt;Node2 -->
<g id="edge2_Node000002_Node000002" class="edge">
<title>Node2&#45;&gt;Node2</title>
<g id="a_edge2_Node000002_Node000002"><a xlink:title=" ">
<path fill="none" stroke="#63b8ff" d="M196.68,-194.44C191.67,-203.58 200.61,-212 223.5,-212 236.02,-212 244.36,-209.48 248.54,-205.71"/>
<polygon fill="#63b8ff" stroke="#63b8ff" points="251.98,-206.36 250.09,-195.94 245.06,-205.27 251.98,-206.36"/>
</a>
</g>
</g>
<!-- Node3&#45;&gt;Node3 -->
<g id="edge12_Node000003_Node000003" class="edge">
<title>Node3&#45;&gt;Node3</title>
<g id="a_edge12_Node000003_Node000003"><a xlink:title=" ">
<path fill="none" stroke="#63b8ff" d="M196.68,-126.44C191.67,-135.58 200.61,-144 223.5,-144 236.02,-144 244.36,-141.48 248.54,-137.71"/>
<polygon fill="#63b8ff" stroke="#63b8ff" points="251.98,-138.36 250.09,-127.94 245.06,-137.27 251.98,-138.36"/>
</a>
</g>
</g>
<!-- Node4 -->
<g id="Node000004" class="node">
<title>Node4</title>
<g id="a_Node000004"><a xlink:href="class_fiea_1_1_engine_1_1_r_t_t_i.html#a15bd5993c8ad04da47af440298ebbb30" target="_top" xlink:title=" ">
<polygon fill="white" stroke="#666666" points="432,-158 315.5,-158 315.5,-138 432,-138 432,-158"/>
<text xml:space="preserve" text-anchor="middle" x="373.75" y="-144.5" font-family="Helvetica,sans-Serif" font-size="10.00">Fiea::Engine::RTTI::As</text>
</a>
</g>
</g>
<!-- Node3&#45;&gt;Node4 -->
<g id="edge4_Node000003_Node000004" class="edge">
<title>Node3&#45;&gt;Node4</title>
<g id="a_edge4_Node000003_Node000004"><a xlink:title=" ">
<path fill="none" stroke="#63b8ff" d="M273.04,-122.44C288.4,-126.38 305.43,-130.74 321,-134.74"/>
<polygon fill="#63b8ff" stroke="#63b8ff" points="320.02,-138.1 330.57,-137.19 321.75,-131.32 320.02,-138.1"/>
</a>
</g>
</g>
<!-- Node5 -->
<g id="Node000005" class="node">
<title>Node5</title>
<g id="a_Node000005"><a xlink:href="class_fiea_1_1_engine_1_1_r_t_t_i.html#ac0a7d875e4513b2aca7594abcd4418ef" target="_top" xlink:title=" ">
<polygon fill="white" stroke="#666666" points="580.75,-180 468,-180 468,-160 580.75,-160 580.75,-180"/>
<text xml:space="preserve" text-anchor="middle" x="524.38" y="-166.5" font-family="Helvetica,sans-Serif" font-size="10.00">Fiea::Engine::RTTI::Is</text>
</a>
</g>
</g>
<!-- Node3&#45;&gt;Node5 -->
<g id="edge9_Node000003_Node000005" class="edge">
<title>Node3&#45;&gt;Node5</title>
<g id="a_edge9_Node000003_Node000005"><a xlink:title=" ">
<path fill="none" stroke="#63b8ff" d="M243.55,-126.34C260.98,-140.14 288.14,-158.93 315.5,-167 361.22,-180.5 415.1,-180.86 456.55,-178.06"/>
<polygon fill="#63b8ff" stroke="#63b8ff" points="456.68,-181.56 466.38,-177.31 456.14,-174.58 456.68,-181.56"/>
</a>
</g>
</g>
<!-- Node6 -->
<g id="Node000006" class="node">
<title>Node6</title>
<g id="a_Node000006"><a xlink:href="class_fiea_1_1_engine_1_1_r_t_t_i.html#a13000029a2e6cced30b831e466e07cae" target="_top" xlink:title=" ">
<polygon fill="white" stroke="#666666" points="573.62,-126 475.12,-126 475.12,-94 573.62,-94 573.62,-126"/>
<text xml:space="preserve" text-anchor="start" x="483.12" y="-112.5" font-family="Helvetica,sans-Serif" font-size="10.00">Fiea::Engine::RTTI</text>
<text xml:space="preserve" text-anchor="middle" x="524.38" y="-100.5" font-family="Helvetica,sans-Serif" font-size="10.00">::RTTI</text>
</a>
</g>
</g>
<!-- Node3&#45;&gt;Node6 -->
<g id="edge10_Node000003_Node000006" class="edge">
<title>Node3&#45;&gt;Node6</title>
<g id="a_edge10_Node000003_Node000006"><a xlink:title=" ">
<path fill="none" stroke="#63b8ff" d="M273.18,-110C325.07,-110 407.29,-110 463.2,-110"/>
<polygon fill="#63b8ff" stroke="#63b8ff" points="463.2,-113.5 473.2,-110 463.2,-106.5 463.2,-113.5"/>
</a>
</g>
</g>
<!-- Node7 -->
<g id="Node000007" class="node">
<title>Node7</title>
<g id="a_Node000007"><a xlink:href="class_fiea_1_1_engine_1_1_r_t_t_i.html#a7f70ad5ba0f8a3388543d63d72892575" target="_top" xlink:title=" ">
<polygon fill="white" stroke="#666666" points="423,-82 324.5,-82 324.5,-50 423,-50 423,-82"/>
<text xml:space="preserve" text-anchor="start" x="332.5" y="-68.5" font-family="Helvetica,sans-Serif" font-size="10.00">Fiea::Engine::RTTI</text>
<text xml:space="preserve" text-anchor="middle" x="373.75" y="-56.5" font-family="Helvetica,sans-Serif" font-size="10.00">::Equals</text>
</a>
</g>
</g>
<!-- Node3&#45;&gt;Node7 -->
<g id="edge7_Node000003_Node000007" class="edge">
<title>Node3&#45;&gt;Node7</title>
<g id="a_edge7_Node000003_Node000007"><a xlink:title=" ">
<path fill="none" stroke="#63b8ff" d="M273.04,-95.59C285.84,-91.79 299.8,-87.65 313.11,-83.7"/>
<polygon fill="#63b8ff" stroke="#63b8ff" points="314.06,-87.07 322.65,-80.87 312.06,-80.36 314.06,-87.07"/>
</a>
</g>
</g>
<!-- Node8 -->
<g id="Node000008" class="node">
<title>Node8</title>
<g id="a_Node000008"><a xlink:href="class_fiea_1_1_engine_1_1_r_t_t_i.html#a43a7d187e332a17d2c699bc2c8136a30" target="_top" xlink:title=" ">
<polygon fill="white" stroke="#666666" points="423,-32 324.5,-32 324.5,0 423,0 423,-32"/>
<text xml:space="preserve" text-anchor="start" x="332.5" y="-18.5" font-family="Helvetica,sans-Serif" font-size="10.00">Fiea::Engine::RTTI</text>
<text xml:space="preserve" text-anchor="middle" x="373.75" y="-6.5" font-family="Helvetica,sans-Serif" font-size="10.00">::ToString</text>
</a>
</g>
</g>
<!-- Node3&#45;&gt;Node8 -->
<g id="edge11_Node000003_Node000008" class="edge">
<title>Node3&#45;&gt;Node8</title>
<g id="a_edge11_Node000003_Node000008"><a xlink:title=" ">
<path fill="none" stroke="#63b8ff" d="M243.44,-93.51C261.22,-78.56 288.99,-56.54 315.5,-41 317.51,-39.82 319.59,-38.66 321.7,-37.53"/>
<polygon fill="#63b8ff" stroke="#63b8ff" points="323.09,-40.75 330.46,-33.13 319.95,-34.5 323.09,-40.75"/>
</a>
</g>
</g>
<!-- Node4&#45;&gt;Node5 -->
<g id="edge5_Node000004_Node000005" class="edge">
<title>Node4&#45;&gt;Node5</title>
<g id="a_edge5_Node000004_Node000005"><a xlink:title=" ">
<path fill="none" stroke="#63b8ff" d="M432.21,-156.51C440.1,-157.67 448.25,-158.88 456.28,-160.07"/>
<polygon fill="#63b8ff" stroke="#63b8ff" points="455.63,-163.51 466.03,-161.51 456.66,-156.59 455.63,-163.51"/>
</a>
</g>
</g>
<!-- Node4&#45;&gt;Node6 -->
<g id="edge6_Node000004_Node000006" class="edge">
<title>Node4&#45;&gt;Node6</title>
<g id="a_edge6_Node000004_Node000006"><a xlink:title=" ">
<path fill="none" stroke="#63b8ff" d="M415.76,-137.52C430.63,-133.71 447.74,-129.34 463.88,-125.21"/>
<polygon fill="#63b8ff" stroke="#63b8ff" points="464.57,-128.65 473.39,-122.78 462.84,-121.87 464.57,-128.65"/>
</a>
</g>
</g>
<!-- Node7&#45;&gt;Node6 -->
<g id="edge8_Node000007_Node000006" class="edge">
<title>Node7&#45;&gt;Node6</title>
<g id="a_edge8_Node000007_Node000006"><a xlink:title=" ">
<path fill="none" stroke="#63b8ff" d="M423.42,-80.41C436.44,-84.26 450.67,-88.47 464.19,-92.48"/>
<polygon fill="#63b8ff" stroke="#63b8ff" points="462.82,-95.72 473.4,-95.21 464.81,-89.01 462.82,-95.72"/>
</a>
</g>
</g>
</g>
</svg>
