<?xml version="1.0" encoding="UTF-8" standalone="no"?>
<!DOCTYPE svg PUBLIC "-//W3C//DTD SVG 1.1//EN"
 "http://www.w3.org/Graphics/SVG/1.1/DTD/svg11.dtd">
<!-- Generated by graphviz version 13.1.0 (20250701.0955)
 -->
<!-- Title: Fiea::Engine::Actions::ActionListWhileLoop::ActionListWhileLoop Pages: 1 -->
<svg width="865pt" height="220pt"
 viewBox="0.00 0.00 865.00 220.00" xmlns="http://www.w3.org/2000/svg" xmlns:xlink="http://www.w3.org/1999/xlink">
<g id="graph0" class="graph" transform="scale(1 1) rotate(0) translate(4 216)">
<title>Fiea::Engine::Actions::ActionListWhileLoop::ActionListWhileLoop</title>
<!-- Node1 -->
<g id="Node000001" class="node">
<title>Node1</title>
<g id="a_Node000001"><a xlink:title=" ">
<polygon fill="#999999" stroke="#666666" points="111.25,-128 0,-128 0,-84 111.25,-84 111.25,-128"/>
<text xml:space="preserve" text-anchor="start" x="8" y="-114.5" font-family="Helvetica,sans-Serif" font-size="10.00">Fiea::Engine::Actions</text>
<text xml:space="preserve" text-anchor="start" x="8" y="-102.5" font-family="Helvetica,sans-Serif" font-size="10.00">::ActionListWhileLoop</text>
<text xml:space="preserve" text-anchor="middle" x="55.62" y="-90.5" font-family="Helvetica,sans-Serif" font-size="10.00">::ActionListWhileLoop</text>
</a>
</g>
</g>
<!-- Node2 -->
<g id="Node000002" class="node">
<title>Node2</title>
<g id="a_Node000002"><a xlink:href="class_fiea_1_1_engine_1_1_actions_1_1_action_list.html#a77dc15425d13d1d10482ec9e97d923fb" target="_top" xlink:title=" ">
<polygon fill="white" stroke="#666666" points="262.25,-144 147.25,-144 147.25,-112 262.25,-112 262.25,-144"/>
<text xml:space="preserve" text-anchor="start" x="155.25" y="-130.5" font-family="Helvetica,sans-Serif" font-size="10.00">Fiea::Engine::Actions</text>
<text xml:space="preserve" text-anchor="middle" x="204.75" y="-118.5" font-family="Helvetica,sans-Serif" font-size="10.00">::ActionList::ActionList</text>
</a>
</g>
</g>
<!-- Node1&#45;&gt;Node2 -->
<g id="edge1_Node000001_Node000002" class="edge">
<title>Node1&#45;&gt;Node2</title>
<g id="a_edge1_Node000001_Node000002"><a xlink:title=" ">
<path fill="none" stroke="#63b8ff" d="M111.41,-114.19C119.29,-115.37 127.49,-116.6 135.59,-117.81"/>
<polygon fill="#63b8ff" stroke="#63b8ff" points="135.05,-121.27 145.46,-119.28 136.08,-114.34 135.05,-121.27"/>
</a>
</g>
</g>
<!-- Node5 -->
<g id="Node000005" class="node">
<title>Node5</title>
<g id="a_Node000005"><a xlink:href="class_fiea_1_1_engine_1_1_r_t_t_i.html#a876bebbe7b3149483c43a87f55f4ea99" target="_top" xlink:title=" ">
<polygon fill="white" stroke="#666666" points="549.25,-126 450.75,-126 450.75,-94 549.25,-94 549.25,-126"/>
<text xml:space="preserve" text-anchor="start" x="458.75" y="-112.5" font-family="Helvetica,sans-Serif" font-size="10.00">Fiea::Engine::RTTI</text>
<text xml:space="preserve" text-anchor="middle" x="500" y="-100.5" font-family="Helvetica,sans-Serif" font-size="10.00">::TypeIdInstance</text>
</a>
</g>
</g>
<!-- Node1&#45;&gt;Node5 -->
<g id="edge16_Node000001_Node000005" class="edge">
<title>Node1&#45;&gt;Node5</title>
<g id="a_edge16_Node000001_Node000005"><a xlink:title=" ">
<path fill="none" stroke="#63b8ff" d="M111.73,-103.88C123.45,-103.52 135.76,-103.19 147.25,-103 249.79,-101.3 369.14,-104.84 439.13,-107.48"/>
<polygon fill="#63b8ff" stroke="#63b8ff" points="438.71,-110.97 448.84,-107.85 438.98,-103.97 438.71,-110.97"/>
</a>
</g>
</g>
<!-- Node3 -->
<g id="Node000003" class="node">
<title>Node3</title>
<g id="a_Node000003"><a xlink:href="class_fiea_1_1_engine_1_1_actions_1_1_action.html#ae2af386f7122152003b00da79393e19e" target="_top" xlink:title=" ">
<polygon fill="white" stroke="#666666" points="408,-182 298.25,-182 298.25,-150 408,-150 408,-182"/>
<text xml:space="preserve" text-anchor="start" x="306.25" y="-168.5" font-family="Helvetica,sans-Serif" font-size="10.00">Fiea::Engine::Actions</text>
<text xml:space="preserve" text-anchor="middle" x="353.12" y="-156.5" font-family="Helvetica,sans-Serif" font-size="10.00">::Action::Action</text>
</a>
</g>
</g>
<!-- Node2&#45;&gt;Node3 -->
<g id="edge2_Node000002_Node000003" class="edge">
<title>Node2&#45;&gt;Node3</title>
<g id="a_edge2_Node000002_Node000003"><a xlink:title=" ">
<path fill="none" stroke="#63b8ff" d="M262.34,-142.69C270.42,-144.79 278.78,-146.96 287,-149.09"/>
<polygon fill="#63b8ff" stroke="#63b8ff" points="286.06,-152.47 296.62,-151.59 287.82,-145.69 286.06,-152.47"/>
</a>
</g>
</g>
<!-- Node2&#45;&gt;Node5 -->
<g id="edge15_Node000002_Node000005" class="edge">
<title>Node2&#45;&gt;Node5</title>
<g id="a_edge15_Node000002_Node000005"><a xlink:title=" ">
<path fill="none" stroke="#63b8ff" d="M262.64,-124.51C313.43,-121.39 387.56,-116.84 439.22,-113.67"/>
<polygon fill="#63b8ff" stroke="#63b8ff" points="439.25,-117.17 449.02,-113.07 438.82,-110.19 439.25,-117.17"/>
</a>
</g>
</g>
<!-- Node4 -->
<g id="Node000004" class="node">
<title>Node4</title>
<g id="a_Node000004"><a xlink:href="class_fiea_1_1_engine_1_1_content_1_1_attributed.html#ad1ae014235d9d8b62b36066c94164148" target="_top" xlink:title=" ">
<polygon fill="white" stroke="#666666" points="556,-194 444,-194 444,-162 556,-162 556,-194"/>
<text xml:space="preserve" text-anchor="start" x="452" y="-180.5" font-family="Helvetica,sans-Serif" font-size="10.00">Fiea::Engine::Content</text>
<text xml:space="preserve" text-anchor="middle" x="500" y="-168.5" font-family="Helvetica,sans-Serif" font-size="10.00">::Attributed::Attributed</text>
</a>
</g>
</g>
<!-- Node3&#45;&gt;Node4 -->
<g id="edge3_Node000003_Node000004" class="edge">
<title>Node3&#45;&gt;Node4</title>
<g id="a_edge3_Node000003_Node000004"><a xlink:title=" ">
<path fill="none" stroke="#63b8ff" d="M408.48,-170.5C416.34,-171.15 424.5,-171.83 432.57,-172.5"/>
<polygon fill="#63b8ff" stroke="#63b8ff" points="432.09,-175.97 442.35,-173.31 432.67,-168.99 432.09,-175.97"/>
</a>
</g>
</g>
<!-- Node3&#45;&gt;Node5 -->
<g id="edge5_Node000003_Node000005" class="edge">
<title>Node3&#45;&gt;Node5</title>
<g id="a_edge5_Node000003_Node000005"><a xlink:title=" ">
<path fill="none" stroke="#63b8ff" d="M396.81,-149.5C412.28,-143.52 429.95,-136.69 446.19,-130.41"/>
<polygon fill="#63b8ff" stroke="#63b8ff" points="447.14,-133.8 455.21,-126.93 444.62,-127.27 447.14,-133.8"/>
</a>
</g>
</g>
<!-- Node4&#45;&gt;Node4 -->
<g id="edge4_Node000004_Node000004" class="edge">
<title>Node4&#45;&gt;Node4</title>
<g id="a_edge4_Node000004_Node000004"><a xlink:title=" ">
<path fill="none" stroke="#63b8ff" d="M473.78,-194.44C468.88,-203.58 477.62,-212 500,-212 512.24,-212 520.4,-209.48 524.48,-205.71"/>
<polygon fill="#63b8ff" stroke="#63b8ff" points="527.92,-206.36 525.99,-195.94 521,-205.28 527.92,-206.36"/>
</a>
</g>
</g>
<!-- Node5&#45;&gt;Node5 -->
<g id="edge14_Node000005_Node000005" class="edge">
<title>Node5&#45;&gt;Node5</title>
<g id="a_edge14_Node000005_Node000005"><a xlink:title=" ">
<path fill="none" stroke="#63b8ff" d="M473.78,-126.44C468.88,-135.58 477.62,-144 500,-144 512.24,-144 520.4,-141.48 524.48,-137.71"/>
<polygon fill="#63b8ff" stroke="#63b8ff" points="527.92,-138.36 525.99,-127.94 521,-137.28 527.92,-138.36"/>
</a>
</g>
</g>
<!-- Node6 -->
<g id="Node000006" class="node">
<title>Node6</title>
<g id="a_Node000006"><a xlink:href="class_fiea_1_1_engine_1_1_r_t_t_i.html#a15bd5993c8ad04da47af440298ebbb30" target="_top" xlink:title=" ">
<polygon fill="white" stroke="#666666" points="708.5,-158 592,-158 592,-138 708.5,-138 708.5,-158"/>
<text xml:space="preserve" text-anchor="middle" x="650.25" y="-144.5" font-family="Helvetica,sans-Serif" font-size="10.00">Fiea::Engine::RTTI::As</text>
</a>
</g>
</g>
<!-- Node5&#45;&gt;Node6 -->
<g id="edge6_Node000005_Node000006" class="edge">
<title>Node5&#45;&gt;Node6</title>
<g id="a_edge6_Node000005_Node000006"><a xlink:title=" ">
<path fill="none" stroke="#63b8ff" d="M549.54,-122.44C564.9,-126.38 581.93,-130.74 597.5,-134.74"/>
<polygon fill="#63b8ff" stroke="#63b8ff" points="596.52,-138.1 607.07,-137.19 598.25,-131.32 596.52,-138.1"/>
</a>
</g>
</g>
<!-- Node7 -->
<g id="Node000007" class="node">
<title>Node7</title>
<g id="a_Node000007"><a xlink:href="class_fiea_1_1_engine_1_1_r_t_t_i.html#ac0a7d875e4513b2aca7594abcd4418ef" target="_top" xlink:title=" ">
<polygon fill="white" stroke="#666666" points="857.25,-180 744.5,-180 744.5,-160 857.25,-160 857.25,-180"/>
<text xml:space="preserve" text-anchor="middle" x="800.88" y="-166.5" font-family="Helvetica,sans-Serif" font-size="10.00">Fiea::Engine::RTTI::Is</text>
</a>
</g>
</g>
<!-- Node5&#45;&gt;Node7 -->
<g id="edge11_Node000005_Node000007" class="edge">
<title>Node5&#45;&gt;Node7</title>
<g id="a_edge11_Node000005_Node000007"><a xlink:title=" ">
<path fill="none" stroke="#63b8ff" d="M520.05,-126.34C537.48,-140.14 564.64,-158.93 592,-167 637.72,-180.5 691.6,-180.86 733.05,-178.06"/>
<polygon fill="#63b8ff" stroke="#63b8ff" points="733.18,-181.56 742.88,-177.31 732.64,-174.58 733.18,-181.56"/>
</a>
</g>
</g>
<!-- Node8 -->
<g id="Node000008" class="node">
<title>Node8</title>
<g id="a_Node000008"><a xlink:href="class_fiea_1_1_engine_1_1_r_t_t_i.html#a13000029a2e6cced30b831e466e07cae" target="_top" xlink:title=" ">
<polygon fill="white" stroke="#666666" points="850.12,-126 751.62,-126 751.62,-94 850.12,-94 850.12,-126"/>
<text xml:space="preserve" text-anchor="start" x="759.62" y="-112.5" font-family="Helvetica,sans-Serif" font-size="10.00">Fiea::Engine::RTTI</text>
<text xml:space="preserve" text-anchor="middle" x="800.88" y="-100.5" font-family="Helvetica,sans-Serif" font-size="10.00">::RTTI</text>
</a>
</g>
</g>
<!-- Node5&#45;&gt;Node8 -->
<g id="edge12_Node000005_Node000008" class="edge">
<title>Node5&#45;&gt;Node8</title>
<g id="a_edge12_Node000005_Node000008"><a xlink:title=" ">
<path fill="none" stroke="#63b8ff" d="M549.68,-110C601.57,-110 683.79,-110 739.7,-110"/>
<polygon fill="#63b8ff" stroke="#63b8ff" points="739.7,-113.5 749.7,-110 739.7,-106.5 739.7,-113.5"/>
</a>
</g>
</g>
<!-- Node9 -->
<g id="Node000009" class="node">
<title>Node9</title>
<g id="a_Node000009"><a xlink:href="class_fiea_1_1_engine_1_1_r_t_t_i.html#a7f70ad5ba0f8a3388543d63d72892575" target="_top" xlink:title=" ">
<polygon fill="white" stroke="#666666" points="699.5,-82 601,-82 601,-50 699.5,-50 699.5,-82"/>
<text xml:space="preserve" text-anchor="start" x="609" y="-68.5" font-family="Helvetica,sans-Serif" font-size="10.00">Fiea::Engine::RTTI</text>
<text xml:space="preserve" text-anchor="middle" x="650.25" y="-56.5" font-family="Helvetica,sans-Serif" font-size="10.00">::Equals</text>
</a>
</g>
</g>
<!-- Node5&#45;&gt;Node9 -->
<g id="edge9_Node000005_Node000009" class="edge">
<title>Node5&#45;&gt;Node9</title>
<g id="a_edge9_Node000005_Node000009"><a xlink:title=" ">
<path fill="none" stroke="#63b8ff" d="M549.54,-95.59C562.34,-91.79 576.3,-87.65 589.61,-83.7"/>
<polygon fill="#63b8ff" stroke="#63b8ff" points="590.56,-87.07 599.15,-80.87 588.56,-80.36 590.56,-87.07"/>
</a>
</g>
</g>
<!-- Node10 -->
<g id="Node000010" class="node">
<title>Node10</title>
<g id="a_Node000010"><a xlink:href="class_fiea_1_1_engine_1_1_r_t_t_i.html#a43a7d187e332a17d2c699bc2c8136a30" target="_top" xlink:title=" ">
<polygon fill="white" stroke="#666666" points="699.5,-32 601,-32 601,0 699.5,0 699.5,-32"/>
<text xml:space="preserve" text-anchor="start" x="609" y="-18.5" font-family="Helvetica,sans-Serif" font-size="10.00">Fiea::Engine::RTTI</text>
<text xml:space="preserve" text-anchor="middle" x="650.25" y="-6.5" font-family="Helvetica,sans-Serif" font-size="10.00">::ToString</text>
</a>
</g>
</g>
<!-- Node5&#45;&gt;Node10 -->
<g id="edge13_Node000005_Node000010" class="edge">
<title>Node5&#45;&gt;Node10</title>
<g id="a_edge13_Node000005_Node000010"><a xlink:title=" ">
<path fill="none" stroke="#63b8ff" d="M519.94,-93.51C537.72,-78.56 565.49,-56.54 592,-41 594.01,-39.82 596.09,-38.66 598.2,-37.53"/>
<polygon fill="#63b8ff" stroke="#63b8ff" points="599.59,-40.75 606.96,-33.13 596.45,-34.5 599.59,-40.75"/>
</a>
</g>
</g>
<!-- Node6&#45;&gt;Node7 -->
<g id="edge7_Node000006_Node000007" class="edge">
<title>Node6&#45;&gt;Node7</title>
<g id="a_edge7_Node000006_Node000007"><a xlink:title=" ">
<path fill="none" stroke="#63b8ff" d="M708.71,-156.51C716.6,-157.67 724.75,-158.88 732.78,-160.07"/>
<polygon fill="#63b8ff" stroke="#63b8ff" points="732.13,-163.51 742.53,-161.51 733.16,-156.59 732.13,-163.51"/>
</a>
</g>
</g>
<!-- Node6&#45;&gt;Node8 -->
<g id="edge8_Node000006_Node000008" class="edge">
<title>Node6&#45;&gt;Node8</title>
<g id="a_edge8_Node000006_Node000008"><a xlink:title=" ">
<path fill="none" stroke="#63b8ff" d="M692.26,-137.52C707.13,-133.71 724.24,-129.34 740.38,-125.21"/>
<polygon fill="#63b8ff" stroke="#63b8ff" points="741.07,-128.65 749.89,-122.78 739.34,-121.87 741.07,-128.65"/>
</a>
</g>
</g>
<!-- Node9&#45;&gt;Node8 -->
<g id="edge10_Node000009_Node000008" class="edge">
<title>Node9&#45;&gt;Node8</title>
<g id="a_edge10_Node000009_Node000008"><a xlink:title=" ">
<path fill="none" stroke="#63b8ff" d="M699.92,-80.41C712.94,-84.26 727.17,-88.47 740.69,-92.48"/>
<polygon fill="#63b8ff" stroke="#63b8ff" points="739.32,-95.72 749.9,-95.21 741.31,-89.01 739.32,-95.72"/>
</a>
</g>
</g>
</g>
</svg>
