<?xml version="1.0" encoding="UTF-8" standalone="no"?>
<!DOCTYPE svg PUBLIC "-//W3C//DTD SVG 1.1//EN"
 "http://www.w3.org/Graphics/SVG/1.1/DTD/svg11.dtd">
<!-- Generated by graphviz version 13.1.0 (20250701.0955)
 -->
<!-- Title: Fiea::Engine::Content::SpecialPrimitivesHandler::EnterKey Pages: 1 -->
<svg width="941pt" height="378pt"
 viewBox="0.00 0.00 941.00 378.00" xmlns="http://www.w3.org/2000/svg" xmlns:xlink="http://www.w3.org/1999/xlink">
<g id="graph0" class="graph" transform="scale(1 1) rotate(0) translate(4 374)">
<title>Fiea::Engine::Content::SpecialPrimitivesHandler::EnterKey</title>
<!-- Node1 -->
<g id="Node000001" class="node">
<title>Node1</title>
<g id="a_Node000001"><a xlink:title=" ">
<polygon fill="#999999" stroke="#666666" points="131.5,-226 0,-226 0,-182 131.5,-182 131.5,-226"/>
<text xml:space="preserve" text-anchor="start" x="8" y="-212.5" font-family="Helvetica,sans-Serif" font-size="10.00">Fiea::Engine::Content</text>
<text xml:space="preserve" text-anchor="start" x="8" y="-200.5" font-family="Helvetica,sans-Serif" font-size="10.00">::SpecialPrimitivesHandler</text>
<text xml:space="preserve" text-anchor="middle" x="65.75" y="-188.5" font-family="Helvetica,sans-Serif" font-size="10.00">::EnterKey</text>
</a>
</g>
</g>
<!-- Node2 -->
<g id="Node000002" class="node">
<title>Node2</title>
<g id="a_Node000002"><a xlink:href="class_fiea_1_1_engine_1_1_content_1_1_scope_writer.html#a138420169c6f0541ec537c660bd4ac67" target="_top" xlink:title=" ">
<polygon fill="white" stroke="#666666" points="314.38,-220 167.88,-220 167.88,-188 314.38,-188 314.38,-220"/>
<text xml:space="preserve" text-anchor="start" x="175.88" y="-206.5" font-family="Helvetica,sans-Serif" font-size="10.00">Fiea::Engine::Content</text>
<text xml:space="preserve" text-anchor="middle" x="241.12" y="-194.5" font-family="Helvetica,sans-Serif" font-size="10.00">::ScopeWriter::AddMatrixType</text>
</a>
</g>
</g>
<!-- Node1&#45;&gt;Node2 -->
<g id="edge1_Node000001_Node000002" class="edge">
<title>Node1&#45;&gt;Node2</title>
<g id="a_edge1_Node000001_Node000002"><a xlink:title=" ">
<path fill="none" stroke="#63b8ff" d="M131.8,-204C139.7,-204 147.86,-204 155.99,-204"/>
<polygon fill="#63b8ff" stroke="#63b8ff" points="155.92,-207.5 165.92,-204 155.92,-200.5 155.92,-207.5"/>
</a>
</g>
</g>
<!-- Node12 -->
<g id="Node000012" class="node">
<title>Node12</title>
<g id="a_Node000012"><a xlink:href="class_fiea_1_1_engine_1_1_content_1_1_scope_writer.html#ab193d237036951e2e814316bbfe9b87b" target="_top" xlink:title=" ">
<polygon fill="white" stroke="#666666" points="314.75,-270 167.5,-270 167.5,-238 314.75,-238 314.75,-270"/>
<text xml:space="preserve" text-anchor="start" x="175.5" y="-256.5" font-family="Helvetica,sans-Serif" font-size="10.00">Fiea::Engine::Content</text>
<text xml:space="preserve" text-anchor="middle" x="241.12" y="-244.5" font-family="Helvetica,sans-Serif" font-size="10.00">::ScopeWriter::AddVectorType</text>
</a>
</g>
</g>
<!-- Node1&#45;&gt;Node12 -->
<g id="edge13_Node000001_Node000012" class="edge">
<title>Node1&#45;&gt;Node12</title>
<g id="a_edge13_Node000001_Node000012"><a xlink:title=" ">
<path fill="none" stroke="#63b8ff" d="M131.8,-222.76C144.94,-226.55 158.78,-230.54 172.02,-234.36"/>
<polygon fill="#63b8ff" stroke="#63b8ff" points="170.94,-237.69 181.52,-237.1 172.88,-230.96 170.94,-237.69"/>
</a>
</g>
</g>
<!-- Node13 -->
<g id="Node000013" class="node">
<title>Node13</title>
<g id="a_Node000013"><a xlink:href="class_fiea_1_1_engine_1_1_r_t_t_i.html#a15bd5993c8ad04da47af440298ebbb30" target="_top" xlink:title=" ">
<polygon fill="white" stroke="#666666" points="299.38,-70 182.88,-70 182.88,-50 299.38,-50 299.38,-70"/>
<text xml:space="preserve" text-anchor="middle" x="241.12" y="-56.5" font-family="Helvetica,sans-Serif" font-size="10.00">Fiea::Engine::RTTI::As</text>
</a>
</g>
</g>
<!-- Node1&#45;&gt;Node13 -->
<g id="edge20_Node000001_Node000013" class="edge">
<title>Node1&#45;&gt;Node13</title>
<g id="a_edge20_Node000001_Node000013"><a xlink:title=" ">
<path fill="none" stroke="#63b8ff" d="M93.84,-181.5C128.36,-152.83 187.33,-103.85 218.82,-77.69"/>
<polygon fill="#63b8ff" stroke="#63b8ff" points="221.04,-80.4 226.49,-71.32 216.56,-75.02 221.04,-80.4"/>
</a>
</g>
</g>
<!-- Node3 -->
<g id="Node000003" class="node">
<title>Node3</title>
<g id="a_Node000003"><a xlink:href="class_fiea_1_1_engine_1_1_content_1_1_scope.html#aa91d6470fd3d3f402bbb2e765be54455" target="_top" xlink:title="Appends a new Datum with the given key.">
<polygon fill="white" stroke="#666666" points="476.62,-370 365.38,-370 365.38,-338 476.62,-338 476.62,-370"/>
<text xml:space="preserve" text-anchor="start" x="373.38" y="-356.5" font-family="Helvetica,sans-Serif" font-size="10.00">Fiea::Engine::Content</text>
<text xml:space="preserve" text-anchor="middle" x="421" y="-344.5" font-family="Helvetica,sans-Serif" font-size="10.00">::Scope::Append</text>
</a>
</g>
</g>
<!-- Node2&#45;&gt;Node3 -->
<g id="edge2_Node000002_Node000003" class="edge">
<title>Node2&#45;&gt;Node3</title>
<g id="a_edge2_Node000002_Node000003"><a xlink:title=" ">
<path fill="none" stroke="#63b8ff" d="M303.62,-220.4C307.65,-222.87 311.43,-225.72 314.75,-229 348.38,-262.17 317.36,-295.58 350.75,-329 352.31,-330.56 353.97,-332.02 355.72,-333.4"/>
<polygon fill="#63b8ff" stroke="#63b8ff" points="353.5,-336.13 363.78,-338.7 357.35,-330.28 353.5,-336.13"/>
</a>
</g>
</g>
<!-- Node4 -->
<g id="Node000004" class="node">
<title>Node4</title>
<g id="a_Node000004"><a xlink:href="class_fiea_1_1_engine_1_1_content_1_1_scope_writer.html#afcb6b54b66a06b4d43edbeb27a191cfa" target="_top" xlink:title=" ">
<polygon fill="white" stroke="#666666" points="491.25,-320 350.75,-320 350.75,-288 491.25,-288 491.25,-320"/>
<text xml:space="preserve" text-anchor="start" x="358.75" y="-306.5" font-family="Helvetica,sans-Serif" font-size="10.00">Fiea::Engine::Content</text>
<text xml:space="preserve" text-anchor="middle" x="421" y="-294.5" font-family="Helvetica,sans-Serif" font-size="10.00">::ScopeWriter::GetTopScope</text>
</a>
</g>
</g>
<!-- Node2&#45;&gt;Node4 -->
<g id="edge3_Node000002_Node000004" class="edge">
<title>Node2&#45;&gt;Node4</title>
<g id="a_edge3_Node000002_Node000004"><a xlink:title=" ">
<path fill="none" stroke="#63b8ff" d="M300.47,-220.38C305.52,-222.88 310.36,-225.74 314.75,-229 336.73,-245.33 328.89,-262.5 350.75,-279 352.09,-280.01 353.47,-280.98 354.89,-281.92"/>
<polygon fill="#63b8ff" stroke="#63b8ff" points="352.99,-284.86 363.4,-286.82 356.48,-278.8 352.99,-284.86"/>
</a>
</g>
</g>
<!-- Node5 -->
<g id="Node000005" class="node">
<title>Node5</title>
<g id="a_Node000005"><a xlink:href="class_fiea_1_1_engine_1_1_content_1_1_datum.html#a2bb6d02e4d11e947717b9fce2da3ca5f" target="_top" xlink:title=" ">
<polygon fill="white" stroke="#666666" points="484.88,-270 357.12,-270 357.12,-238 484.88,-238 484.88,-270"/>
<text xml:space="preserve" text-anchor="start" x="365.12" y="-256.5" font-family="Helvetica,sans-Serif" font-size="10.00">Fiea::Engine::Content</text>
<text xml:space="preserve" text-anchor="middle" x="421" y="-244.5" font-family="Helvetica,sans-Serif" font-size="10.00">::Datum::PushFromString</text>
</a>
</g>
</g>
<!-- Node2&#45;&gt;Node5 -->
<g id="edge4_Node000002_Node000005" class="edge">
<title>Node2&#45;&gt;Node5</title>
<g id="a_edge4_Node000002_Node000005"><a xlink:title=" ">
<path fill="none" stroke="#63b8ff" d="M300.37,-220.37C316.41,-224.88 333.97,-229.82 350.57,-234.48"/>
<polygon fill="#63b8ff" stroke="#63b8ff" points="349.29,-237.76 359.86,-237.1 351.19,-231.02 349.29,-237.76"/>
</a>
</g>
</g>
<!-- Node9 -->
<g id="Node000009" class="node">
<title>Node9</title>
<g id="a_Node000009"><a xlink:href="class_fiea_1_1_engine_1_1_content_1_1_datum.html#a7e3945c2e80b5c6a0b85729b4063ded8" target="_top" xlink:title=" ">
<polygon fill="white" stroke="#666666" points="481.12,-220 360.88,-220 360.88,-188 481.12,-188 481.12,-220"/>
<text xml:space="preserve" text-anchor="start" x="368.88" y="-206.5" font-family="Helvetica,sans-Serif" font-size="10.00">Fiea::Engine::Content</text>
<text xml:space="preserve" text-anchor="middle" x="421" y="-194.5" font-family="Helvetica,sans-Serif" font-size="10.00">::Datum::SetFromString</text>
</a>
</g>
</g>
<!-- Node2&#45;&gt;Node9 -->
<g id="edge10_Node000002_Node000009" class="edge">
<title>Node2&#45;&gt;Node9</title>
<g id="a_edge10_Node000002_Node000009"><a xlink:title=" ">
<path fill="none" stroke="#63b8ff" d="M314.73,-204C326.11,-204 337.87,-204 349.21,-204"/>
<polygon fill="#63b8ff" stroke="#63b8ff" points="348.87,-207.5 358.87,-204 348.87,-200.5 348.87,-207.5"/>
</a>
</g>
</g>
<!-- Node10 -->
<g id="Node000010" class="node">
<title>Node10</title>
<g id="a_Node000010"><a xlink:href="class_fiea_1_1_engine_1_1_content_1_1_datum.html#a23d1f16d9646f024a5dee1f05dbd5a5e" target="_top" xlink:title=" ">
<polygon fill="white" stroke="#666666" points="476.62,-170 365.38,-170 365.38,-138 476.62,-138 476.62,-170"/>
<text xml:space="preserve" text-anchor="start" x="373.38" y="-156.5" font-family="Helvetica,sans-Serif" font-size="10.00">Fiea::Engine::Content</text>
<text xml:space="preserve" text-anchor="middle" x="421" y="-144.5" font-family="Helvetica,sans-Serif" font-size="10.00">::Datum::SetType</text>
</a>
</g>
</g>
<!-- Node2&#45;&gt;Node10 -->
<g id="edge11_Node000002_Node000010" class="edge">
<title>Node2&#45;&gt;Node10</title>
<g id="a_edge11_Node000002_Node000010"><a xlink:title=" ">
<path fill="none" stroke="#63b8ff" d="M300.37,-187.63C317.57,-182.79 336.52,-177.47 354.16,-172.51"/>
<polygon fill="#63b8ff" stroke="#63b8ff" points="354.81,-175.96 363.49,-169.88 352.92,-169.22 354.81,-175.96"/>
</a>
</g>
</g>
<!-- Node11 -->
<g id="Node000011" class="node">
<title>Node11</title>
<g id="a_Node000011"><a xlink:href="class_fiea_1_1_engine_1_1_content_1_1_datum.html#acae68c3bc8b20345e4c3790fa37bd8d5" target="_top" xlink:title=" ">
<polygon fill="white" stroke="#666666" points="476.62,-120 365.38,-120 365.38,-88 476.62,-88 476.62,-120"/>
<text xml:space="preserve" text-anchor="start" x="373.38" y="-106.5" font-family="Helvetica,sans-Serif" font-size="10.00">Fiea::Engine::Content</text>
<text xml:space="preserve" text-anchor="middle" x="421" y="-94.5" font-family="Helvetica,sans-Serif" font-size="10.00">::Datum::Size</text>
</a>
</g>
</g>
<!-- Node2&#45;&gt;Node11 -->
<g id="edge12_Node000002_Node000011" class="edge">
<title>Node2&#45;&gt;Node11</title>
<g id="a_edge12_Node000002_Node000011"><a xlink:title=" ">
<path fill="none" stroke="#63b8ff" d="M262.35,-187.66C283.44,-171.2 317.94,-145.89 350.75,-129 353.57,-127.55 356.5,-126.14 359.49,-124.78"/>
<polygon fill="#63b8ff" stroke="#63b8ff" points="360.58,-128.12 368.4,-120.98 357.83,-121.69 360.58,-128.12"/>
</a>
</g>
</g>
<!-- Node6 -->
<g id="Node000006" class="node">
<title>Node6</title>
<g id="a_Node000006"><a xlink:href="class_fiea_1_1_engine_1_1_content_1_1_datum.html#acb3ba55fc9b39b876cf3334d0305f4fc" target="_top" xlink:title=" ">
<polygon fill="white" stroke="#666666" points="638.5,-270 527.25,-270 527.25,-238 638.5,-238 638.5,-270"/>
<text xml:space="preserve" text-anchor="start" x="535.25" y="-256.5" font-family="Helvetica,sans-Serif" font-size="10.00">Fiea::Engine::Content</text>
<text xml:space="preserve" text-anchor="middle" x="582.88" y="-244.5" font-family="Helvetica,sans-Serif" font-size="10.00">::Datum::Push</text>
</a>
</g>
</g>
<!-- Node5&#45;&gt;Node6 -->
<g id="edge5_Node000005_Node000006" class="edge">
<title>Node5&#45;&gt;Node6</title>
<g id="a_edge5_Node000005_Node000006"><a xlink:title=" ">
<path fill="none" stroke="#63b8ff" d="M485.19,-254C495.21,-254 505.59,-254 515.68,-254"/>
<polygon fill="#63b8ff" stroke="#63b8ff" points="515.39,-257.5 525.39,-254 515.39,-250.5 515.39,-257.5"/>
</a>
</g>
</g>
<!-- Node7 -->
<g id="Node000007" class="node">
<title>Node7</title>
<g id="a_Node000007"><a xlink:href="class_fiea_1_1_engine_1_1_content_1_1_datum.html#a818f812e4489e57885c88951bc0601b3" target="_top" xlink:title=" ">
<polygon fill="white" stroke="#666666" points="785.75,-248 674.5,-248 674.5,-216 785.75,-216 785.75,-248"/>
<text xml:space="preserve" text-anchor="start" x="682.5" y="-234.5" font-family="Helvetica,sans-Serif" font-size="10.00">Fiea::Engine::Content</text>
<text xml:space="preserve" text-anchor="middle" x="730.12" y="-222.5" font-family="Helvetica,sans-Serif" font-size="10.00">::Datum::ResizeArray</text>
</a>
</g>
</g>
<!-- Node6&#45;&gt;Node7 -->
<g id="edge6_Node000006_Node000007" class="edge">
<title>Node6&#45;&gt;Node7</title>
<g id="a_edge6_Node000006_Node000007"><a xlink:title=" ">
<path fill="none" stroke="#63b8ff" d="M638.79,-245.68C646.65,-244.49 654.81,-243.26 662.86,-242.04"/>
<polygon fill="#63b8ff" stroke="#63b8ff" points="663.28,-245.51 672.64,-240.56 662.23,-238.59 663.28,-245.51"/>
</a>
</g>
</g>
<!-- Node8 -->
<g id="Node000008" class="node">
<title>Node8</title>
<g id="a_Node000008"><a xlink:href="class_fiea_1_1_engine_1_1_content_1_1_datum.html#a921193447f6e42f596ac0a7694b02830" target="_top" xlink:title=" ">
<polygon fill="white" stroke="#666666" points="933,-270 821.75,-270 821.75,-238 933,-238 933,-270"/>
<text xml:space="preserve" text-anchor="start" x="829.75" y="-256.5" font-family="Helvetica,sans-Serif" font-size="10.00">Fiea::Engine::Content</text>
<text xml:space="preserve" text-anchor="middle" x="877.38" y="-244.5" font-family="Helvetica,sans-Serif" font-size="10.00">::Datum::Scope</text>
</a>
</g>
</g>
<!-- Node6&#45;&gt;Node8 -->
<g id="edge9_Node000006_Node000008" class="edge">
<title>Node6&#45;&gt;Node8</title>
<g id="a_edge9_Node000006_Node000008"><a xlink:title=" ">
<path fill="none" stroke="#63b8ff" d="M638.98,-256.12C650.7,-256.48 663.01,-256.81 674.5,-257 723.94,-257.82 736.31,-257.82 785.75,-257 793.56,-256.87 801.75,-256.68 809.87,-256.45"/>
<polygon fill="#63b8ff" stroke="#63b8ff" points="809.86,-259.96 819.76,-256.16 809.66,-252.96 809.86,-259.96"/>
</a>
</g>
</g>
<!-- Node7&#45;&gt;Node8 -->
<g id="edge7_Node000007_Node000008" class="edge">
<title>Node7&#45;&gt;Node8</title>
<g id="a_edge7_Node000007_Node000008"><a xlink:title=" ">
<path fill="none" stroke="#63b8ff" d="M786.04,-240.32C793.9,-241.51 802.06,-242.74 810.11,-243.96"/>
<polygon fill="#63b8ff" stroke="#63b8ff" points="809.48,-247.41 819.89,-245.44 810.53,-240.49 809.48,-247.41"/>
</a>
</g>
</g>
<!-- Node8&#45;&gt;Node8 -->
<g id="edge8_Node000008_Node000008" class="edge">
<title>Node8&#45;&gt;Node8</title>
<g id="a_edge8_Node000008_Node000008"><a xlink:title=" ">
<path fill="none" stroke="#63b8ff" d="M851.09,-270.44C846.18,-279.58 854.94,-288 877.38,-288 889.64,-288 897.82,-285.48 901.91,-281.71"/>
<polygon fill="#63b8ff" stroke="#63b8ff" points="905.35,-282.36 903.43,-271.94 898.44,-281.28 905.35,-282.36"/>
</a>
</g>
</g>
<!-- Node12&#45;&gt;Node3 -->
<g id="edge14_Node000012_Node000003" class="edge">
<title>Node12&#45;&gt;Node3</title>
<g id="a_edge14_Node000012_Node000003"><a xlink:title=" ">
<path fill="none" stroke="#63b8ff" d="M262.35,-270.34C283.44,-286.8 317.94,-312.11 350.75,-329 353.57,-330.45 356.5,-331.86 359.49,-333.22"/>
<polygon fill="#63b8ff" stroke="#63b8ff" points="357.83,-336.31 368.4,-337.02 360.58,-329.88 357.83,-336.31"/>
</a>
</g>
</g>
<!-- Node12&#45;&gt;Node4 -->
<g id="edge15_Node000012_Node000004" class="edge">
<title>Node12&#45;&gt;Node4</title>
<g id="a_edge15_Node000012_Node000004"><a xlink:title=" ">
<path fill="none" stroke="#63b8ff" d="M300.37,-270.37C316.41,-274.88 333.97,-279.82 350.57,-284.48"/>
<polygon fill="#63b8ff" stroke="#63b8ff" points="349.29,-287.76 359.86,-287.1 351.19,-281.02 349.29,-287.76"/>
</a>
</g>
</g>
<!-- Node12&#45;&gt;Node5 -->
<g id="edge16_Node000012_Node000005" class="edge">
<title>Node12&#45;&gt;Node5</title>
<g id="a_edge16_Node000012_Node000005"><a xlink:title=" ">
<path fill="none" stroke="#63b8ff" d="M315.24,-254C325.27,-254 335.57,-254 345.62,-254"/>
<polygon fill="#63b8ff" stroke="#63b8ff" points="345.31,-257.5 355.31,-254 345.31,-250.5 345.31,-257.5"/>
</a>
</g>
</g>
<!-- Node12&#45;&gt;Node9 -->
<g id="edge17_Node000012_Node000009" class="edge">
<title>Node12&#45;&gt;Node9</title>
<g id="a_edge17_Node000012_Node000009"><a xlink:title=" ">
<path fill="none" stroke="#63b8ff" d="M300.37,-237.63C316.41,-233.12 333.97,-228.18 350.57,-223.52"/>
<polygon fill="#63b8ff" stroke="#63b8ff" points="351.19,-226.98 359.86,-220.9 349.29,-220.24 351.19,-226.98"/>
</a>
</g>
</g>
<!-- Node12&#45;&gt;Node10 -->
<g id="edge18_Node000012_Node000010" class="edge">
<title>Node12&#45;&gt;Node10</title>
<g id="a_edge18_Node000012_Node000010"><a xlink:title=" ">
<path fill="none" stroke="#63b8ff" d="M300.47,-237.62C305.52,-235.12 310.36,-232.26 314.75,-229 336.73,-212.67 328.89,-195.5 350.75,-179 352.26,-177.86 353.82,-176.77 355.43,-175.73"/>
<polygon fill="#63b8ff" stroke="#63b8ff" points="356.79,-178.98 363.75,-170.99 353.33,-172.9 356.79,-178.98"/>
</a>
</g>
</g>
<!-- Node12&#45;&gt;Node11 -->
<g id="edge19_Node000012_Node000011" class="edge">
<title>Node12&#45;&gt;Node11</title>
<g id="a_edge19_Node000012_Node000011"><a xlink:title=" ">
<path fill="none" stroke="#63b8ff" d="M303.62,-237.6C307.65,-235.13 311.43,-232.28 314.75,-229 348.38,-195.83 317.36,-162.42 350.75,-129 352.31,-127.44 353.97,-125.98 355.72,-124.6"/>
<polygon fill="#63b8ff" stroke="#63b8ff" points="357.35,-127.72 363.78,-119.3 353.5,-121.87 357.35,-127.72"/>
</a>
</g>
</g>
<!-- Node14 -->
<g id="Node000014" class="node">
<title>Node14</title>
<g id="a_Node000014"><a xlink:href="class_fiea_1_1_engine_1_1_r_t_t_i.html#ac0a7d875e4513b2aca7594abcd4418ef" target="_top" xlink:title=" ">
<polygon fill="white" stroke="#666666" points="477.38,-70 364.62,-70 364.62,-50 477.38,-50 477.38,-70"/>
<text xml:space="preserve" text-anchor="middle" x="421" y="-56.5" font-family="Helvetica,sans-Serif" font-size="10.00">Fiea::Engine::RTTI::Is</text>
</a>
</g>
</g>
<!-- Node13&#45;&gt;Node14 -->
<g id="edge21_Node000013_Node000014" class="edge">
<title>Node13&#45;&gt;Node14</title>
<g id="a_edge21_Node000013_Node000014"><a xlink:title=" ">
<path fill="none" stroke="#63b8ff" d="M299.38,-60C316.46,-60 335.33,-60 352.98,-60"/>
<polygon fill="#63b8ff" stroke="#63b8ff" points="352.85,-63.5 362.85,-60 352.85,-56.5 352.85,-63.5"/>
</a>
</g>
</g>
<!-- Node15 -->
<g id="Node000015" class="node">
<title>Node15</title>
<g id="a_Node000015"><a xlink:href="class_fiea_1_1_engine_1_1_r_t_t_i.html#a13000029a2e6cced30b831e466e07cae" target="_top" xlink:title=" ">
<polygon fill="white" stroke="#666666" points="470.25,-32 371.75,-32 371.75,0 470.25,0 470.25,-32"/>
<text xml:space="preserve" text-anchor="start" x="379.75" y="-18.5" font-family="Helvetica,sans-Serif" font-size="10.00">Fiea::Engine::RTTI</text>
<text xml:space="preserve" text-anchor="middle" x="421" y="-6.5" font-family="Helvetica,sans-Serif" font-size="10.00">::RTTI</text>
</a>
</g>
</g>
<!-- Node13&#45;&gt;Node15 -->
<g id="edge22_Node000013_Node000015" class="edge">
<title>Node13&#45;&gt;Node15</title>
<g id="a_edge22_Node000013_Node000015"><a xlink:title=" ">
<path fill="none" stroke="#63b8ff" d="M284.28,-49.57C307.1,-43.93 335.66,-36.86 360.69,-30.67"/>
<polygon fill="#63b8ff" stroke="#63b8ff" points="361.21,-34.15 370.07,-28.35 359.53,-27.35 361.21,-34.15"/>
</a>
</g>
</g>
</g>
</svg>
