<?xml version="1.0" encoding="UTF-8" standalone="no"?>
<!DOCTYPE svg PUBLIC "-//W3C//DTD SVG 1.1//EN"
 "http://www.w3.org/Graphics/SVG/1.1/DTD/svg11.dtd">
<!-- Generated by graphviz version 13.1.0 (20250701.0955)
 -->
<!-- Title: Fiea::Engine::Actions::ActionOutput::ActionOutput Pages: 1 -->
<svg width="745pt" height="220pt"
 viewBox="0.00 0.00 745.00 220.00" xmlns="http://www.w3.org/2000/svg" xmlns:xlink="http://www.w3.org/1999/xlink">
<g id="graph0" class="graph" transform="scale(1 1) rotate(0) translate(4 216)">
<title>Fiea::Engine::Actions::ActionOutput::ActionOutput</title>
<!-- Node1 -->
<g id="Node000001" class="node">
<title>Node1</title>
<g id="a_Node000001"><a xlink:title=" ">
<polygon fill="#999999" stroke="#666666" points="142,-148 0,-148 0,-116 142,-116 142,-148"/>
<text xml:space="preserve" text-anchor="start" x="8" y="-134.5" font-family="Helvetica,sans-Serif" font-size="10.00">Fiea::Engine::Actions</text>
<text xml:space="preserve" text-anchor="middle" x="71" y="-122.5" font-family="Helvetica,sans-Serif" font-size="10.00">::ActionOutput::ActionOutput</text>
</a>
</g>
</g>
<!-- Node2 -->
<g id="Node000002" class="node">
<title>Node2</title>
<g id="a_Node000002"><a xlink:href="class_fiea_1_1_engine_1_1_actions_1_1_action.html#ae2af386f7122152003b00da79393e19e" target="_top" xlink:title=" ">
<polygon fill="white" stroke="#666666" points="287.75,-170 178,-170 178,-138 287.75,-138 287.75,-170"/>
<text xml:space="preserve" text-anchor="start" x="186" y="-156.5" font-family="Helvetica,sans-Serif" font-size="10.00">Fiea::Engine::Actions</text>
<text xml:space="preserve" text-anchor="middle" x="232.88" y="-144.5" font-family="Helvetica,sans-Serif" font-size="10.00">::Action::Action</text>
</a>
</g>
</g>
<!-- Node1&#45;&gt;Node2 -->
<g id="edge1_Node000001_Node000002" class="edge">
<title>Node1&#45;&gt;Node2</title>
<g id="a_edge1_Node000001_Node000002"><a xlink:title=" ">
<path fill="none" stroke="#63b8ff" d="M142.12,-141.65C150.22,-142.76 158.46,-143.9 166.49,-145"/>
<polygon fill="#63b8ff" stroke="#63b8ff" points="165.79,-148.44 176.17,-146.33 166.74,-141.5 165.79,-148.44"/>
</a>
</g>
</g>
<!-- Node4 -->
<g id="Node000004" class="node">
<title>Node4</title>
<g id="a_Node000004"><a xlink:href="class_fiea_1_1_engine_1_1_r_t_t_i.html#a876bebbe7b3149483c43a87f55f4ea99" target="_top" xlink:title=" ">
<polygon fill="white" stroke="#666666" points="429,-126 330.5,-126 330.5,-94 429,-94 429,-126"/>
<text xml:space="preserve" text-anchor="start" x="338.5" y="-112.5" font-family="Helvetica,sans-Serif" font-size="10.00">Fiea::Engine::RTTI</text>
<text xml:space="preserve" text-anchor="middle" x="379.75" y="-100.5" font-family="Helvetica,sans-Serif" font-size="10.00">::TypeIdInstance</text>
</a>
</g>
</g>
<!-- Node1&#45;&gt;Node4 -->
<g id="edge14_Node000001_Node000004" class="edge">
<title>Node1&#45;&gt;Node4</title>
<g id="a_edge14_Node000001_Node000004"><a xlink:title=" ">
<path fill="none" stroke="#63b8ff" d="M142.37,-126.95C195.71,-123.13 268.2,-117.93 318.79,-114.3"/>
<polygon fill="#63b8ff" stroke="#63b8ff" points="318.96,-117.8 328.68,-113.59 318.46,-110.82 318.96,-117.8"/>
</a>
</g>
</g>
<!-- Node3 -->
<g id="Node000003" class="node">
<title>Node3</title>
<g id="a_Node000003"><a xlink:href="class_fiea_1_1_engine_1_1_content_1_1_attributed.html#ad1ae014235d9d8b62b36066c94164148" target="_top" xlink:title=" ">
<polygon fill="white" stroke="#666666" points="435.75,-194 323.75,-194 323.75,-162 435.75,-162 435.75,-194"/>
<text xml:space="preserve" text-anchor="start" x="331.75" y="-180.5" font-family="Helvetica,sans-Serif" font-size="10.00">Fiea::Engine::Content</text>
<text xml:space="preserve" text-anchor="middle" x="379.75" y="-168.5" font-family="Helvetica,sans-Serif" font-size="10.00">::Attributed::Attributed</text>
</a>
</g>
</g>
<!-- Node2&#45;&gt;Node3 -->
<g id="edge2_Node000002_Node000003" class="edge">
<title>Node2&#45;&gt;Node3</title>
<g id="a_edge2_Node000002_Node000003"><a xlink:title=" ">
<path fill="none" stroke="#63b8ff" d="M288.23,-163C296.09,-164.31 304.25,-165.66 312.32,-166.99"/>
<polygon fill="#63b8ff" stroke="#63b8ff" points="311.67,-170.44 322.11,-168.62 312.82,-163.53 311.67,-170.44"/>
</a>
</g>
</g>
<!-- Node2&#45;&gt;Node4 -->
<g id="edge4_Node000002_Node000004" class="edge">
<title>Node2&#45;&gt;Node4</title>
<g id="a_edge4_Node000002_Node000004"><a xlink:title=" ">
<path fill="none" stroke="#63b8ff" d="M287.82,-137.62C298.09,-134.5 308.89,-131.22 319.32,-128.05"/>
<polygon fill="#63b8ff" stroke="#63b8ff" points="320.02,-131.5 328.57,-125.24 317.98,-124.8 320.02,-131.5"/>
</a>
</g>
</g>
<!-- Node3&#45;&gt;Node3 -->
<g id="edge3_Node000003_Node000003" class="edge">
<title>Node3&#45;&gt;Node3</title>
<g id="a_edge3_Node000003_Node000003"><a xlink:title=" ">
<path fill="none" stroke="#63b8ff" d="M353.53,-194.44C348.63,-203.58 357.37,-212 379.75,-212 391.99,-212 400.15,-209.48 404.23,-205.71"/>
<polygon fill="#63b8ff" stroke="#63b8ff" points="407.67,-206.36 405.74,-195.94 400.75,-205.28 407.67,-206.36"/>
</a>
</g>
</g>
<!-- Node4&#45;&gt;Node4 -->
<g id="edge13_Node000004_Node000004" class="edge">
<title>Node4&#45;&gt;Node4</title>
<g id="a_edge13_Node000004_Node000004"><a xlink:title=" ">
<path fill="none" stroke="#63b8ff" d="M353.53,-126.44C348.63,-135.58 357.37,-144 379.75,-144 391.99,-144 400.15,-141.48 404.23,-137.71"/>
<polygon fill="#63b8ff" stroke="#63b8ff" points="407.67,-138.36 405.74,-127.94 400.75,-137.28 407.67,-138.36"/>
</a>
</g>
</g>
<!-- Node5 -->
<g id="Node000005" class="node">
<title>Node5</title>
<g id="a_Node000005"><a xlink:href="class_fiea_1_1_engine_1_1_r_t_t_i.html#a15bd5993c8ad04da47af440298ebbb30" target="_top" xlink:title=" ">
<polygon fill="white" stroke="#666666" points="588.25,-158 471.75,-158 471.75,-138 588.25,-138 588.25,-158"/>
<text xml:space="preserve" text-anchor="middle" x="530" y="-144.5" font-family="Helvetica,sans-Serif" font-size="10.00">Fiea::Engine::RTTI::As</text>
</a>
</g>
</g>
<!-- Node4&#45;&gt;Node5 -->
<g id="edge5_Node000004_Node000005" class="edge">
<title>Node4&#45;&gt;Node5</title>
<g id="a_edge5_Node000004_Node000005"><a xlink:title=" ">
<path fill="none" stroke="#63b8ff" d="M429.29,-122.44C444.65,-126.38 461.68,-130.74 477.25,-134.74"/>
<polygon fill="#63b8ff" stroke="#63b8ff" points="476.27,-138.1 486.82,-137.19 478,-131.32 476.27,-138.1"/>
</a>
</g>
</g>
<!-- Node6 -->
<g id="Node000006" class="node">
<title>Node6</title>
<g id="a_Node000006"><a xlink:href="class_fiea_1_1_engine_1_1_r_t_t_i.html#ac0a7d875e4513b2aca7594abcd4418ef" target="_top" xlink:title=" ">
<polygon fill="white" stroke="#666666" points="737,-180 624.25,-180 624.25,-160 737,-160 737,-180"/>
<text xml:space="preserve" text-anchor="middle" x="680.62" y="-166.5" font-family="Helvetica,sans-Serif" font-size="10.00">Fiea::Engine::RTTI::Is</text>
</a>
</g>
</g>
<!-- Node4&#45;&gt;Node6 -->
<g id="edge10_Node000004_Node000006" class="edge">
<title>Node4&#45;&gt;Node6</title>
<g id="a_edge10_Node000004_Node000006"><a xlink:title=" ">
<path fill="none" stroke="#63b8ff" d="M399.8,-126.34C417.23,-140.14 444.39,-158.93 471.75,-167 517.47,-180.5 571.35,-180.86 612.8,-178.06"/>
<polygon fill="#63b8ff" stroke="#63b8ff" points="612.93,-181.56 622.63,-177.31 612.39,-174.58 612.93,-181.56"/>
</a>
</g>
</g>
<!-- Node7 -->
<g id="Node000007" class="node">
<title>Node7</title>
<g id="a_Node000007"><a xlink:href="class_fiea_1_1_engine_1_1_r_t_t_i.html#a13000029a2e6cced30b831e466e07cae" target="_top" xlink:title=" ">
<polygon fill="white" stroke="#666666" points="729.88,-126 631.38,-126 631.38,-94 729.88,-94 729.88,-126"/>
<text xml:space="preserve" text-anchor="start" x="639.38" y="-112.5" font-family="Helvetica,sans-Serif" font-size="10.00">Fiea::Engine::RTTI</text>
<text xml:space="preserve" text-anchor="middle" x="680.62" y="-100.5" font-family="Helvetica,sans-Serif" font-size="10.00">::RTTI</text>
</a>
</g>
</g>
<!-- Node4&#45;&gt;Node7 -->
<g id="edge11_Node000004_Node000007" class="edge">
<title>Node4&#45;&gt;Node7</title>
<g id="a_edge11_Node000004_Node000007"><a xlink:title=" ">
<path fill="none" stroke="#63b8ff" d="M429.43,-110C481.32,-110 563.54,-110 619.45,-110"/>
<polygon fill="#63b8ff" stroke="#63b8ff" points="619.45,-113.5 629.45,-110 619.45,-106.5 619.45,-113.5"/>
</a>
</g>
</g>
<!-- Node8 -->
<g id="Node000008" class="node">
<title>Node8</title>
<g id="a_Node000008"><a xlink:href="class_fiea_1_1_engine_1_1_r_t_t_i.html#a7f70ad5ba0f8a3388543d63d72892575" target="_top" xlink:title=" ">
<polygon fill="white" stroke="#666666" points="579.25,-82 480.75,-82 480.75,-50 579.25,-50 579.25,-82"/>
<text xml:space="preserve" text-anchor="start" x="488.75" y="-68.5" font-family="Helvetica,sans-Serif" font-size="10.00">Fiea::Engine::RTTI</text>
<text xml:space="preserve" text-anchor="middle" x="530" y="-56.5" font-family="Helvetica,sans-Serif" font-size="10.00">::Equals</text>
</a>
</g>
</g>
<!-- Node4&#45;&gt;Node8 -->
<g id="edge8_Node000004_Node000008" class="edge">
<title>Node4&#45;&gt;Node8</title>
<g id="a_edge8_Node000004_Node000008"><a xlink:title=" ">
<path fill="none" stroke="#63b8ff" d="M429.29,-95.59C442.09,-91.79 456.05,-87.65 469.36,-83.7"/>
<polygon fill="#63b8ff" stroke="#63b8ff" points="470.31,-87.07 478.9,-80.87 468.31,-80.36 470.31,-87.07"/>
</a>
</g>
</g>
<!-- Node9 -->
<g id="Node000009" class="node">
<title>Node9</title>
<g id="a_Node000009"><a xlink:href="class_fiea_1_1_engine_1_1_r_t_t_i.html#a43a7d187e332a17d2c699bc2c8136a30" target="_top" xlink:title=" ">
<polygon fill="white" stroke="#666666" points="579.25,-32 480.75,-32 480.75,0 579.25,0 579.25,-32"/>
<text xml:space="preserve" text-anchor="start" x="488.75" y="-18.5" font-family="Helvetica,sans-Serif" font-size="10.00">Fiea::Engine::RTTI</text>
<text xml:space="preserve" text-anchor="middle" x="530" y="-6.5" font-family="Helvetica,sans-Serif" font-size="10.00">::ToString</text>
</a>
</g>
</g>
<!-- Node4&#45;&gt;Node9 -->
<g id="edge12_Node000004_Node000009" class="edge">
<title>Node4&#45;&gt;Node9</title>
<g id="a_edge12_Node000004_Node000009"><a xlink:title=" ">
<path fill="none" stroke="#63b8ff" d="M399.69,-93.51C417.47,-78.56 445.24,-56.54 471.75,-41 473.76,-39.82 475.84,-38.66 477.95,-37.53"/>
<polygon fill="#63b8ff" stroke="#63b8ff" points="479.34,-40.75 486.71,-33.13 476.2,-34.5 479.34,-40.75"/>
</a>
</g>
</g>
<!-- Node5&#45;&gt;Node6 -->
<g id="edge6_Node000005_Node000006" class="edge">
<title>Node5&#45;&gt;Node6</title>
<g id="a_edge6_Node000005_Node000006"><a xlink:title=" ">
<path fill="none" stroke="#63b8ff" d="M588.46,-156.51C596.35,-157.67 604.5,-158.88 612.53,-160.07"/>
<polygon fill="#63b8ff" stroke="#63b8ff" points="611.88,-163.51 622.28,-161.51 612.91,-156.59 611.88,-163.51"/>
</a>
</g>
</g>
<!-- Node5&#45;&gt;Node7 -->
<g id="edge7_Node000005_Node000007" class="edge">
<title>Node5&#45;&gt;Node7</title>
<g id="a_edge7_Node000005_Node000007"><a xlink:title=" ">
<path fill="none" stroke="#63b8ff" d="M572.01,-137.52C586.88,-133.71 603.99,-129.34 620.13,-125.21"/>
<polygon fill="#63b8ff" stroke="#63b8ff" points="620.82,-128.65 629.64,-122.78 619.09,-121.87 620.82,-128.65"/>
</a>
</g>
</g>
<!-- Node8&#45;&gt;Node7 -->
<g id="edge9_Node000008_Node000007" class="edge">
<title>Node8&#45;&gt;Node7</title>
<g id="a_edge9_Node000008_Node000007"><a xlink:title=" ">
<path fill="none" stroke="#63b8ff" d="M579.67,-80.41C592.69,-84.26 606.92,-88.47 620.44,-92.48"/>
<polygon fill="#63b8ff" stroke="#63b8ff" points="619.07,-95.72 629.65,-95.21 621.06,-89.01 619.07,-95.72"/>
</a>
</g>
</g>
</g>
</svg>
