<?xml version="1.0" encoding="UTF-8" standalone="no"?>
<!DOCTYPE svg PUBLIC "-//W3C//DTD SVG 1.1//EN"
 "http://www.w3.org/Graphics/SVG/1.1/DTD/svg11.dtd">
<!-- Generated by graphviz version 13.1.0 (20250701.0955)
 -->
<!-- Title: Fiea::Engine::Actions::ActionAddDatum::InitAction Pages: 1 -->
<svg width="593pt" height="212pt"
 viewBox="0.00 0.00 593.00 212.00" xmlns="http://www.w3.org/2000/svg" xmlns:xlink="http://www.w3.org/1999/xlink">
<g id="graph0" class="graph" transform="scale(1 1) rotate(0) translate(4 208)">
<title>Fiea::Engine::Actions::ActionAddDatum::InitAction</title>
<!-- Node1 -->
<g id="Node000001" class="node">
<title>Node1</title>
<g id="a_Node000001"><a xlink:title=" ">
<polygon fill="#999999" stroke="#666666" points="143.5,-129 0,-129 0,-97 143.5,-97 143.5,-129"/>
<text xml:space="preserve" text-anchor="start" x="8" y="-115.5" font-family="Helvetica,sans-Serif" font-size="10.00">Fiea::Engine::Actions</text>
<text xml:space="preserve" text-anchor="middle" x="71.75" y="-103.5" font-family="Helvetica,sans-Serif" font-size="10.00">::ActionAddDatum::InitAction</text>
</a>
</g>
</g>
<!-- Node2 -->
<g id="Node000002" class="node">
<title>Node2</title>
<g id="a_Node000002"><a xlink:href="class_fiea_1_1_engine_1_1_content_1_1_scope.html#aa91d6470fd3d3f402bbb2e765be54455" target="_top" xlink:title="Appends a new Datum with the given key.">
<polygon fill="white" stroke="#666666" points="290.75,-204 179.5,-204 179.5,-172 290.75,-172 290.75,-204"/>
<text xml:space="preserve" text-anchor="start" x="187.5" y="-190.5" font-family="Helvetica,sans-Serif" font-size="10.00">Fiea::Engine::Content</text>
<text xml:space="preserve" text-anchor="middle" x="235.12" y="-178.5" font-family="Helvetica,sans-Serif" font-size="10.00">::Scope::Append</text>
</a>
</g>
</g>
<!-- Node1&#45;&gt;Node2 -->
<g id="edge1_Node000001_Node000002" class="edge">
<title>Node1&#45;&gt;Node2</title>
<g id="a_edge1_Node000001_Node000002"><a xlink:title=" ">
<path fill="none" stroke="#63b8ff" d="M107.33,-129.29C128.21,-139.1 155.36,-151.82 179.5,-163 182.2,-164.25 184.98,-165.53 187.78,-166.83"/>
<polygon fill="#63b8ff" stroke="#63b8ff" points="186.04,-169.88 196.59,-170.87 188.96,-163.52 186.04,-169.88"/>
</a>
</g>
</g>
<!-- Node3 -->
<g id="Node000003" class="node">
<title>Node3</title>
<g id="a_Node000003"><a xlink:href="class_fiea_1_1_engine_1_1_content_1_1_scope.html#ad924c01785b239991fc0e56a63295612" target="_top" xlink:title="Finds a Datum by key.">
<polygon fill="white" stroke="#666666" points="290.75,-154 179.5,-154 179.5,-122 290.75,-122 290.75,-154"/>
<text xml:space="preserve" text-anchor="start" x="187.5" y="-140.5" font-family="Helvetica,sans-Serif" font-size="10.00">Fiea::Engine::Content</text>
<text xml:space="preserve" text-anchor="middle" x="235.12" y="-128.5" font-family="Helvetica,sans-Serif" font-size="10.00">::Scope::Find</text>
</a>
</g>
</g>
<!-- Node1&#45;&gt;Node3 -->
<g id="edge2_Node000001_Node000003" class="edge">
<title>Node1&#45;&gt;Node3</title>
<g id="a_edge2_Node000001_Node000003"><a xlink:title=" ">
<path fill="none" stroke="#63b8ff" d="M143.53,-123.97C151.7,-125.23 160.02,-126.52 168.12,-127.78"/>
<polygon fill="#63b8ff" stroke="#63b8ff" points="167.5,-131.22 177.92,-129.29 168.57,-124.3 167.5,-131.22"/>
</a>
</g>
</g>
<!-- Node4 -->
<g id="Node000004" class="node">
<title>Node4</title>
<g id="a_Node000004"><a xlink:href="class_fiea_1_1_engine_1_1_content_1_1_scope.html#ac4627f740867a929957ce0647f436e02" target="_top" xlink:title=" ">
<polygon fill="white" stroke="#666666" points="290.75,-104 179.5,-104 179.5,-72 290.75,-72 290.75,-104"/>
<text xml:space="preserve" text-anchor="start" x="187.5" y="-90.5" font-family="Helvetica,sans-Serif" font-size="10.00">Fiea::Engine::Content</text>
<text xml:space="preserve" text-anchor="middle" x="235.12" y="-78.5" font-family="Helvetica,sans-Serif" font-size="10.00">::Scope::GetParent</text>
</a>
</g>
</g>
<!-- Node1&#45;&gt;Node4 -->
<g id="edge3_Node000001_Node000004" class="edge">
<title>Node1&#45;&gt;Node4</title>
<g id="a_edge3_Node000001_Node000004"><a xlink:title=" ">
<path fill="none" stroke="#63b8ff" d="M143.53,-102.03C151.7,-100.77 160.02,-99.48 168.12,-98.22"/>
<polygon fill="#63b8ff" stroke="#63b8ff" points="168.57,-101.7 177.92,-96.71 167.5,-94.78 168.57,-101.7"/>
</a>
</g>
</g>
<!-- Node6 -->
<g id="Node000006" class="node">
<title>Node6</title>
<g id="a_Node000006"><a xlink:href="class_fiea_1_1_engine_1_1_content_1_1_datum.html#acb3ba55fc9b39b876cf3334d0305f4fc" target="_top" xlink:title=" ">
<polygon fill="white" stroke="#666666" points="290.75,-54 179.5,-54 179.5,-22 290.75,-22 290.75,-54"/>
<text xml:space="preserve" text-anchor="start" x="187.5" y="-40.5" font-family="Helvetica,sans-Serif" font-size="10.00">Fiea::Engine::Content</text>
<text xml:space="preserve" text-anchor="middle" x="235.12" y="-28.5" font-family="Helvetica,sans-Serif" font-size="10.00">::Datum::Push</text>
</a>
</g>
</g>
<!-- Node1&#45;&gt;Node6 -->
<g id="edge6_Node000001_Node000006" class="edge">
<title>Node1&#45;&gt;Node6</title>
<g id="a_edge6_Node000001_Node000006"><a xlink:title=" ">
<path fill="none" stroke="#63b8ff" d="M107.33,-96.71C128.21,-86.9 155.36,-74.18 179.5,-63 182.2,-61.75 184.98,-60.47 187.78,-59.17"/>
<polygon fill="#63b8ff" stroke="#63b8ff" points="188.96,-62.48 196.59,-55.13 186.04,-56.12 188.96,-62.48"/>
</a>
</g>
</g>
<!-- Node5 -->
<g id="Node000005" class="node">
<title>Node5</title>
<g id="a_Node000005"><a xlink:href="class_fiea_1_1_engine_1_1_content_1_1_scope.html#a6631343c968c233ab1d9c3e05c3f4fe9" target="_top" xlink:title=" ">
<polygon fill="white" stroke="#666666" points="438,-104 326.75,-104 326.75,-72 438,-72 438,-104"/>
<text xml:space="preserve" text-anchor="start" x="334.75" y="-90.5" font-family="Helvetica,sans-Serif" font-size="10.00">Fiea::Engine::Content</text>
<text xml:space="preserve" text-anchor="middle" x="382.38" y="-78.5" font-family="Helvetica,sans-Serif" font-size="10.00">::Scope::Scope</text>
</a>
</g>
</g>
<!-- Node4&#45;&gt;Node5 -->
<g id="edge4_Node000004_Node000005" class="edge">
<title>Node4&#45;&gt;Node5</title>
<g id="a_edge4_Node000004_Node000005"><a xlink:title=" ">
<path fill="none" stroke="#63b8ff" d="M291.04,-88C298.9,-88 307.06,-88 315.11,-88"/>
<polygon fill="#63b8ff" stroke="#63b8ff" points="314.87,-91.5 324.87,-88 314.87,-84.5 314.87,-91.5"/>
</a>
</g>
</g>
<!-- Node5&#45;&gt;Node5 -->
<g id="edge5_Node000005_Node000005" class="edge">
<title>Node5&#45;&gt;Node5</title>
<g id="a_edge5_Node000005_Node000005"><a xlink:title=" ">
<path fill="none" stroke="#63b8ff" d="M356.09,-104.44C351.18,-113.58 359.94,-122 382.38,-122 394.64,-122 402.82,-119.48 406.91,-115.71"/>
<polygon fill="#63b8ff" stroke="#63b8ff" points="410.35,-116.36 408.43,-105.94 403.44,-115.28 410.35,-116.36"/>
</a>
</g>
</g>
<!-- Node7 -->
<g id="Node000007" class="node">
<title>Node7</title>
<g id="a_Node000007"><a xlink:href="class_fiea_1_1_engine_1_1_content_1_1_datum.html#a818f812e4489e57885c88951bc0601b3" target="_top" xlink:title=" ">
<polygon fill="white" stroke="#666666" points="438,-54 326.75,-54 326.75,-22 438,-22 438,-54"/>
<text xml:space="preserve" text-anchor="start" x="334.75" y="-40.5" font-family="Helvetica,sans-Serif" font-size="10.00">Fiea::Engine::Content</text>
<text xml:space="preserve" text-anchor="middle" x="382.38" y="-28.5" font-family="Helvetica,sans-Serif" font-size="10.00">::Datum::ResizeArray</text>
</a>
</g>
</g>
<!-- Node6&#45;&gt;Node7 -->
<g id="edge7_Node000006_Node000007" class="edge">
<title>Node6&#45;&gt;Node7</title>
<g id="a_edge7_Node000006_Node000007"><a xlink:title=" ">
<path fill="none" stroke="#63b8ff" d="M291.04,-38C298.9,-38 307.06,-38 315.11,-38"/>
<polygon fill="#63b8ff" stroke="#63b8ff" points="314.87,-41.5 324.87,-38 314.87,-34.5 314.87,-41.5"/>
</a>
</g>
</g>
<!-- Node8 -->
<g id="Node000008" class="node">
<title>Node8</title>
<g id="a_Node000008"><a xlink:href="class_fiea_1_1_engine_1_1_content_1_1_datum.html#a921193447f6e42f596ac0a7694b02830" target="_top" xlink:title=" ">
<polygon fill="white" stroke="#666666" points="585.25,-32 474,-32 474,0 585.25,0 585.25,-32"/>
<text xml:space="preserve" text-anchor="start" x="482" y="-18.5" font-family="Helvetica,sans-Serif" font-size="10.00">Fiea::Engine::Content</text>
<text xml:space="preserve" text-anchor="middle" x="529.62" y="-6.5" font-family="Helvetica,sans-Serif" font-size="10.00">::Datum::Scope</text>
</a>
</g>
</g>
<!-- Node6&#45;&gt;Node8 -->
<g id="edge10_Node000006_Node000008" class="edge">
<title>Node6&#45;&gt;Node8</title>
<g id="a_edge10_Node000006_Node000008"><a xlink:title=" ">
<path fill="none" stroke="#63b8ff" d="M286.43,-21.54C299.42,-18.01 313.49,-14.8 326.75,-13 371.64,-6.92 422.66,-7.75 462.18,-10.05"/>
<polygon fill="#63b8ff" stroke="#63b8ff" points="461.81,-13.53 472.01,-10.68 462.26,-6.55 461.81,-13.53"/>
</a>
</g>
</g>
<!-- Node7&#45;&gt;Node8 -->
<g id="edge8_Node000007_Node000008" class="edge">
<title>Node7&#45;&gt;Node8</title>
<g id="a_edge8_Node000007_Node000008"><a xlink:title=" ">
<path fill="none" stroke="#63b8ff" d="M438.29,-29.68C446.15,-28.49 454.31,-27.26 462.36,-26.04"/>
<polygon fill="#63b8ff" stroke="#63b8ff" points="462.78,-29.51 472.14,-24.56 461.73,-22.59 462.78,-29.51"/>
</a>
</g>
</g>
<!-- Node8&#45;&gt;Node8 -->
<g id="edge9_Node000008_Node000008" class="edge">
<title>Node8&#45;&gt;Node8</title>
<g id="a_edge9_Node000008_Node000008"><a xlink:title=" ">
<path fill="none" stroke="#63b8ff" d="M503.34,-32.44C498.43,-41.58 507.19,-50 529.62,-50 541.89,-50 550.07,-47.48 554.16,-43.71"/>
<polygon fill="#63b8ff" stroke="#63b8ff" points="557.6,-44.36 555.68,-33.94 550.69,-43.28 557.6,-44.36"/>
</a>
</g>
</g>
</g>
</svg>
