<?xml version="1.0" encoding="UTF-8" standalone="no"?>
<!DOCTYPE svg PUBLIC "-//W3C//DTD SVG 1.1//EN"
 "http://www.w3.org/Graphics/SVG/1.1/DTD/svg11.dtd">
<!-- Generated by graphviz version 13.1.0 (20250701.0955)
 -->
<!-- Title: Fiea::Engine::Content::StringHandler::EnterKey Pages: 1 -->
<svg width="472pt" height="150pt"
 viewBox="0.00 0.00 472.00 150.00" xmlns="http://www.w3.org/2000/svg" xmlns:xlink="http://www.w3.org/1999/xlink">
<g id="graph0" class="graph" transform="scale(1 1) rotate(0) translate(4 146)">
<title>Fiea::Engine::Content::StringHandler::EnterKey</title>
<!-- Node1 -->
<g id="Node000001" class="node">
<title>Node1</title>
<g id="a_Node000001"><a xlink:title=" ">
<polygon fill="#999999" stroke="#666666" points="127.75,-82 0,-82 0,-50 127.75,-50 127.75,-82"/>
<text xml:space="preserve" text-anchor="start" x="8" y="-68.5" font-family="Helvetica,sans-Serif" font-size="10.00">Fiea::Engine::Content</text>
<text xml:space="preserve" text-anchor="middle" x="63.88" y="-56.5" font-family="Helvetica,sans-Serif" font-size="10.00">::StringHandler::EnterKey</text>
</a>
</g>
</g>
<!-- Node2 -->
<g id="Node000002" class="node">
<title>Node2</title>
<g id="a_Node000002"><a xlink:href="class_fiea_1_1_engine_1_1_r_t_t_i.html#a15bd5993c8ad04da47af440298ebbb30" target="_top" xlink:title=" ">
<polygon fill="white" stroke="#666666" points="297.5,-120 181,-120 181,-100 297.5,-100 297.5,-120"/>
<text xml:space="preserve" text-anchor="middle" x="239.25" y="-106.5" font-family="Helvetica,sans-Serif" font-size="10.00">Fiea::Engine::RTTI::As</text>
</a>
</g>
</g>
<!-- Node1&#45;&gt;Node2 -->
<g id="edge1_Node000001_Node000002" class="edge">
<title>Node1&#45;&gt;Node2</title>
<g id="a_edge1_Node000001_Node000002"><a xlink:title=" ">
<path fill="none" stroke="#63b8ff" d="M127.96,-82.01C147.04,-86.85 167.78,-92.11 186.06,-96.76"/>
<polygon fill="#63b8ff" stroke="#63b8ff" points="185.07,-100.12 195.63,-99.18 186.8,-93.33 185.07,-100.12"/>
</a>
</g>
</g>
<!-- Node5 -->
<g id="Node000005" class="node">
<title>Node5</title>
<g id="a_Node000005"><a xlink:href="class_fiea_1_1_engine_1_1_content_1_1_test_writer.html#aab4e478fe3946e8305fb66445654dd94" target="_top" xlink:title=" ">
<polygon fill="white" stroke="#666666" points="314.75,-82 163.75,-82 163.75,-50 314.75,-50 314.75,-82"/>
<text xml:space="preserve" text-anchor="start" x="171.75" y="-68.5" font-family="Helvetica,sans-Serif" font-size="10.00">Fiea::Engine::Content</text>
<text xml:space="preserve" text-anchor="middle" x="239.25" y="-56.5" font-family="Helvetica,sans-Serif" font-size="10.00">::TestWriter::CheckIfValidArray</text>
</a>
</g>
</g>
<!-- Node1&#45;&gt;Node5 -->
<g id="edge4_Node000001_Node000005" class="edge">
<title>Node1&#45;&gt;Node5</title>
<g id="a_edge4_Node000001_Node000005"><a xlink:title=" ">
<path fill="none" stroke="#63b8ff" d="M127.96,-66C135.79,-66 143.9,-66 152,-66"/>
<polygon fill="#63b8ff" stroke="#63b8ff" points="151.91,-69.5 161.91,-66 151.91,-62.5 151.91,-69.5"/>
</a>
</g>
</g>
<!-- Node6 -->
<g id="Node000006" class="node">
<title>Node6</title>
<g id="a_Node000006"><a xlink:href="class_fiea_1_1_engine_1_1_content_1_1_test_writer.html#a1df1c9e28177892803128cca16596ceb" target="_top" xlink:title=" ">
<polygon fill="white" stroke="#666666" points="303.88,-32 174.62,-32 174.62,0 303.88,0 303.88,-32"/>
<text xml:space="preserve" text-anchor="start" x="182.62" y="-18.5" font-family="Helvetica,sans-Serif" font-size="10.00">Fiea::Engine::Content</text>
<text xml:space="preserve" text-anchor="middle" x="239.25" y="-6.5" font-family="Helvetica,sans-Serif" font-size="10.00">::TestWriter::RecordString</text>
</a>
</g>
</g>
<!-- Node1&#45;&gt;Node6 -->
<g id="edge5_Node000001_Node000006" class="edge">
<title>Node1&#45;&gt;Node6</title>
<g id="a_edge5_Node000001_Node000006"><a xlink:title=" ">
<path fill="none" stroke="#63b8ff" d="M121.64,-49.63C137.13,-45.16 154.07,-40.28 170.12,-35.65"/>
<polygon fill="#63b8ff" stroke="#63b8ff" points="170.96,-39.05 179.6,-32.91 169.02,-32.32 170.96,-39.05"/>
</a>
</g>
</g>
<!-- Node3 -->
<g id="Node000003" class="node">
<title>Node3</title>
<g id="a_Node000003"><a xlink:href="class_fiea_1_1_engine_1_1_r_t_t_i.html#ac0a7d875e4513b2aca7594abcd4418ef" target="_top" xlink:title=" ">
<polygon fill="white" stroke="#666666" points="463.5,-142 350.75,-142 350.75,-122 463.5,-122 463.5,-142"/>
<text xml:space="preserve" text-anchor="middle" x="407.12" y="-128.5" font-family="Helvetica,sans-Serif" font-size="10.00">Fiea::Engine::RTTI::Is</text>
</a>
</g>
</g>
<!-- Node2&#45;&gt;Node3 -->
<g id="edge2_Node000002_Node000003" class="edge">
<title>Node2&#45;&gt;Node3</title>
<g id="a_edge2_Node000002_Node000003"><a xlink:title=" ">
<path fill="none" stroke="#63b8ff" d="M297.8,-117.63C311.1,-119.4 325.37,-121.29 339.05,-123.1"/>
<polygon fill="#63b8ff" stroke="#63b8ff" points="338.48,-126.56 348.86,-124.4 339.4,-119.62 338.48,-126.56"/>
</a>
</g>
</g>
<!-- Node4 -->
<g id="Node000004" class="node">
<title>Node4</title>
<g id="a_Node000004"><a xlink:href="class_fiea_1_1_engine_1_1_r_t_t_i.html#a13000029a2e6cced30b831e466e07cae" target="_top" xlink:title=" ">
<polygon fill="white" stroke="#666666" points="456.38,-104 357.88,-104 357.88,-72 456.38,-72 456.38,-104"/>
<text xml:space="preserve" text-anchor="start" x="365.88" y="-90.5" font-family="Helvetica,sans-Serif" font-size="10.00">Fiea::Engine::RTTI</text>
<text xml:space="preserve" text-anchor="middle" x="407.12" y="-78.5" font-family="Helvetica,sans-Serif" font-size="10.00">::RTTI</text>
</a>
</g>
</g>
<!-- Node2&#45;&gt;Node4 -->
<g id="edge3_Node000002_Node000004" class="edge">
<title>Node2&#45;&gt;Node4</title>
<g id="a_edge3_Node000002_Node000004"><a xlink:title=" ">
<path fill="none" stroke="#63b8ff" d="M297.8,-102.37C313.46,-100.29 330.46,-98.04 346.25,-95.94"/>
<polygon fill="#63b8ff" stroke="#63b8ff" points="346.54,-99.43 355.99,-94.65 345.62,-92.49 346.54,-99.43"/>
</a>
</g>
</g>
<!-- Node7 -->
<g id="Node000007" class="node">
<title>Node7</title>
<g id="a_Node000007"><a xlink:href="class_fiea_1_1_engine_1_1_content_1_1_parse_writer.html#aa155c5b78668071847272e16c2ec28cb" target="_top" xlink:title=" ">
<polygon fill="white" stroke="#666666" points="462.75,-32 351.5,-32 351.5,0 462.75,0 462.75,-32"/>
<text xml:space="preserve" text-anchor="start" x="359.5" y="-18.5" font-family="Helvetica,sans-Serif" font-size="10.00">Fiea::Engine::Content</text>
<text xml:space="preserve" text-anchor="middle" x="407.12" y="-6.5" font-family="Helvetica,sans-Serif" font-size="10.00">::ParseWriter::Depth</text>
</a>
</g>
</g>
<!-- Node6&#45;&gt;Node7 -->
<g id="edge6_Node000006_Node000007" class="edge">
<title>Node6&#45;&gt;Node7</title>
<g id="a_edge6_Node000006_Node000007"><a xlink:title=" ">
<path fill="none" stroke="#63b8ff" d="M303.91,-16C315.68,-16 328,-16 339.84,-16"/>
<polygon fill="#63b8ff" stroke="#63b8ff" points="339.51,-19.5 349.51,-16 339.51,-12.5 339.51,-19.5"/>
</a>
</g>
</g>
</g>
</svg>
