<?xml version="1.0" encoding="UTF-8" standalone="no"?>
<!DOCTYPE svg PUBLIC "-//W3C//DTD SVG 1.1//EN"
 "http://www.w3.org/Graphics/SVG/1.1/DTD/svg11.dtd">
<!-- Generated by graphviz version 13.1.0 (20250701.0955)
 -->
<!-- Title: Fiea::Engine::Actions::ActionList::CleanupAction Pages: 1 -->
<svg width="748pt" height="337pt"
 viewBox="0.00 0.00 748.00 337.00" xmlns="http://www.w3.org/2000/svg" xmlns:xlink="http://www.w3.org/1999/xlink">
<g id="graph0" class="graph" transform="scale(1 1) rotate(0) translate(4 333.42)">
<title>Fiea::Engine::Actions::ActionList::CleanupAction</title>
<!-- Node1 -->
<g id="Node000001" class="node">
<title>Node1</title>
<g id="a_Node000001"><a xlink:title=" ">
<polygon fill="#999999" stroke="#666666" points="135.25,-182 0,-182 0,-150 135.25,-150 135.25,-182"/>
<text xml:space="preserve" text-anchor="start" x="8" y="-168.5" font-family="Helvetica,sans-Serif" font-size="10.00">Fiea::Engine::Actions</text>
<text xml:space="preserve" text-anchor="middle" x="67.62" y="-156.5" font-family="Helvetica,sans-Serif" font-size="10.00">::ActionList::CleanupAction</text>
</a>
</g>
</g>
<!-- Node2 -->
<g id="Node000002" class="node">
<title>Node2</title>
<g id="a_Node000002"><a xlink:href="class_fiea_1_1_engine_1_1_actions_1_1_action.html#ae2af386f7122152003b00da79393e19e" target="_top" xlink:title=" ">
<polygon fill="white" stroke="#666666" points="285.88,-282 176.12,-282 176.12,-250 285.88,-250 285.88,-282"/>
<text xml:space="preserve" text-anchor="start" x="184.12" y="-268.5" font-family="Helvetica,sans-Serif" font-size="10.00">Fiea::Engine::Actions</text>
<text xml:space="preserve" text-anchor="middle" x="231" y="-256.5" font-family="Helvetica,sans-Serif" font-size="10.00">::Action::Action</text>
</a>
</g>
</g>
<!-- Node1&#45;&gt;Node2 -->
<g id="edge1_Node000001_Node000002" class="edge">
<title>Node1&#45;&gt;Node2</title>
<g id="a_edge1_Node000001_Node000002"><a xlink:title=" ">
<path fill="none" stroke="#63b8ff" d="M88.15,-182.37C108.14,-198.62 140.55,-223.56 171.25,-241 173.4,-242.22 175.63,-243.42 177.9,-244.6"/>
<polygon fill="#63b8ff" stroke="#63b8ff" points="176.14,-247.63 186.66,-248.87 179.21,-241.34 176.14,-247.63"/>
</a>
</g>
</g>
<!-- Node5 -->
<g id="Node000005" class="node">
<title>Node5</title>
<g id="a_Node000005"><a xlink:href="class_fiea_1_1_engine_1_1_r_t_t_i.html#a15bd5993c8ad04da47af440298ebbb30" target="_top" xlink:title=" ">
<polygon fill="white" stroke="#666666" points="591.25,-314 474.75,-314 474.75,-294 591.25,-294 591.25,-314"/>
<text xml:space="preserve" text-anchor="middle" x="533" y="-300.5" font-family="Helvetica,sans-Serif" font-size="10.00">Fiea::Engine::RTTI::As</text>
</a>
</g>
</g>
<!-- Node1&#45;&gt;Node5 -->
<g id="edge14_Node000001_Node000005" class="edge">
<title>Node1&#45;&gt;Node5</title>
<g id="a_edge14_Node000001_Node000005"><a xlink:title=" ">
<path fill="none" stroke="#63b8ff" d="M76.69,-182.42C91.28,-210.16 124.91,-265.72 171.25,-291 267.8,-343.66 401.51,-330.23 476.05,-316.58"/>
<polygon fill="#63b8ff" stroke="#63b8ff" points="476.4,-320.07 485.57,-314.76 475.09,-313.2 476.4,-320.07"/>
</a>
</g>
</g>
<!-- Node10 -->
<g id="Node000010" class="node">
<title>Node10</title>
<g id="a_Node000010"><a xlink:href="class_fiea_1_1_engine_1_1_actions_1_1_action.html#aca4c38723b265f3c4e6013bb8916b376" target="_top" xlink:title=" ">
<polygon fill="white" stroke="#666666" points="290.75,-232 171.25,-232 171.25,-200 290.75,-200 290.75,-232"/>
<text xml:space="preserve" text-anchor="start" x="179.25" y="-218.5" font-family="Helvetica,sans-Serif" font-size="10.00">Fiea::Engine::Actions</text>
<text xml:space="preserve" text-anchor="middle" x="231" y="-206.5" font-family="Helvetica,sans-Serif" font-size="10.00">::Action::CleanupAction</text>
</a>
</g>
</g>
<!-- Node1&#45;&gt;Node10 -->
<g id="edge15_Node000001_Node000010" class="edge">
<title>Node1&#45;&gt;Node10</title>
<g id="a_edge15_Node000001_Node000010"><a xlink:title=" ">
<path fill="none" stroke="#63b8ff" d="M121.47,-182.37C135.74,-186.8 151.34,-191.63 166.15,-196.22"/>
<polygon fill="#63b8ff" stroke="#63b8ff" points="164.73,-199.44 175.32,-199.06 166.8,-192.76 164.73,-199.44"/>
</a>
</g>
</g>
<!-- Node11 -->
<g id="Node000011" class="node">
<title>Node11</title>
<g id="a_Node000011"><a xlink:href="class_fiea_1_1_engine_1_1_content_1_1_datum.html#ab217ba22f80e6d680e6660cb9b21abdc" target="_top" xlink:title=" ">
<polygon fill="white" stroke="#666666" points="286.62,-182 175.38,-182 175.38,-150 286.62,-150 286.62,-182"/>
<text xml:space="preserve" text-anchor="start" x="183.38" y="-168.5" font-family="Helvetica,sans-Serif" font-size="10.00">Fiea::Engine::Content</text>
<text xml:space="preserve" text-anchor="middle" x="231" y="-156.5" font-family="Helvetica,sans-Serif" font-size="10.00">::Datum::Clear</text>
</a>
</g>
</g>
<!-- Node1&#45;&gt;Node11 -->
<g id="edge16_Node000001_Node000011" class="edge">
<title>Node1&#45;&gt;Node11</title>
<g id="a_edge16_Node000001_Node000011"><a xlink:title=" ">
<path fill="none" stroke="#63b8ff" d="M135.66,-166C144.85,-166 154.29,-166 163.48,-166"/>
<polygon fill="#63b8ff" stroke="#63b8ff" points="163.43,-169.5 173.43,-166 163.43,-162.5 163.43,-169.5"/>
</a>
</g>
</g>
<!-- Node12 -->
<g id="Node000012" class="node">
<title>Node12</title>
<g id="a_Node000012"><a xlink:href="class_fiea_1_1_engine_1_1_content_1_1_scope.html#ad924c01785b239991fc0e56a63295612" target="_top" xlink:title="Finds a Datum by key.">
<polygon fill="white" stroke="#666666" points="286.62,-132 175.38,-132 175.38,-100 286.62,-100 286.62,-132"/>
<text xml:space="preserve" text-anchor="start" x="183.38" y="-118.5" font-family="Helvetica,sans-Serif" font-size="10.00">Fiea::Engine::Content</text>
<text xml:space="preserve" text-anchor="middle" x="231" y="-106.5" font-family="Helvetica,sans-Serif" font-size="10.00">::Scope::Find</text>
</a>
</g>
</g>
<!-- Node1&#45;&gt;Node12 -->
<g id="edge17_Node000001_Node000012" class="edge">
<title>Node1&#45;&gt;Node12</title>
<g id="a_edge17_Node000001_Node000012"><a xlink:title=" ">
<path fill="none" stroke="#63b8ff" d="M121.47,-149.63C135.74,-145.2 151.34,-140.37 166.15,-135.78"/>
<polygon fill="#63b8ff" stroke="#63b8ff" points="166.8,-139.24 175.32,-132.94 164.73,-132.56 166.8,-139.24"/>
</a>
</g>
</g>
<!-- Node13 -->
<g id="Node000013" class="node">
<title>Node13</title>
<g id="a_Node000013"><a xlink:href="class_fiea_1_1_engine_1_1_content_1_1_datum.html#a7f92976f27f407987cf287a2f7017e04" target="_top" xlink:title=" ">
<polygon fill="white" stroke="#666666" points="286.62,-82 175.38,-82 175.38,-50 286.62,-50 286.62,-82"/>
<text xml:space="preserve" text-anchor="start" x="183.38" y="-68.5" font-family="Helvetica,sans-Serif" font-size="10.00">Fiea::Engine::Content</text>
<text xml:space="preserve" text-anchor="middle" x="231" y="-56.5" font-family="Helvetica,sans-Serif" font-size="10.00">::Datum::GetAsTable</text>
</a>
</g>
</g>
<!-- Node1&#45;&gt;Node13 -->
<g id="edge18_Node000001_Node000013" class="edge">
<title>Node1&#45;&gt;Node13</title>
<g id="a_edge18_Node000001_Node000013"><a xlink:title=" ">
<path fill="none" stroke="#63b8ff" d="M88.15,-149.63C108.14,-133.38 140.55,-108.44 171.25,-91 173.4,-89.78 175.63,-88.58 177.9,-87.4"/>
<polygon fill="#63b8ff" stroke="#63b8ff" points="179.21,-90.66 186.66,-83.13 176.14,-84.37 179.21,-90.66"/>
</a>
</g>
</g>
<!-- Node15 -->
<g id="Node000015" class="node">
<title>Node15</title>
<g id="a_Node000015"><a xlink:href="class_fiea_1_1_engine_1_1_content_1_1_datum.html#acae68c3bc8b20345e4c3790fa37bd8d5" target="_top" xlink:title=" ">
<polygon fill="white" stroke="#666666" points="286.62,-32 175.38,-32 175.38,0 286.62,0 286.62,-32"/>
<text xml:space="preserve" text-anchor="start" x="183.38" y="-18.5" font-family="Helvetica,sans-Serif" font-size="10.00">Fiea::Engine::Content</text>
<text xml:space="preserve" text-anchor="middle" x="231" y="-6.5" font-family="Helvetica,sans-Serif" font-size="10.00">::Datum::Size</text>
</a>
</g>
</g>
<!-- Node1&#45;&gt;Node15 -->
<g id="edge21_Node000001_Node000015" class="edge">
<title>Node1&#45;&gt;Node15</title>
<g id="a_edge21_Node000001_Node000015"><a xlink:title=" ">
<path fill="none" stroke="#63b8ff" d="M78.33,-149.67C94.59,-123.55 129.67,-72.14 171.25,-41 172.58,-40 173.96,-39.04 175.37,-38.1"/>
<polygon fill="#63b8ff" stroke="#63b8ff" points="176.96,-41.23 183.8,-33.14 173.41,-35.2 176.96,-41.23"/>
</a>
</g>
</g>
<!-- Node3 -->
<g id="Node000003" class="node">
<title>Node3</title>
<g id="a_Node000003"><a xlink:href="class_fiea_1_1_engine_1_1_content_1_1_attributed.html#ad1ae014235d9d8b62b36066c94164148" target="_top" xlink:title=" ">
<polygon fill="white" stroke="#666666" points="438.75,-282 326.75,-282 326.75,-250 438.75,-250 438.75,-282"/>
<text xml:space="preserve" text-anchor="start" x="334.75" y="-268.5" font-family="Helvetica,sans-Serif" font-size="10.00">Fiea::Engine::Content</text>
<text xml:space="preserve" text-anchor="middle" x="382.75" y="-256.5" font-family="Helvetica,sans-Serif" font-size="10.00">::Attributed::Attributed</text>
</a>
</g>
</g>
<!-- Node2&#45;&gt;Node3 -->
<g id="edge2_Node000002_Node000003" class="edge">
<title>Node2&#45;&gt;Node3</title>
<g id="a_edge2_Node000002_Node000003"><a xlink:title=" ">
<path fill="none" stroke="#63b8ff" d="M286.06,-266C295.46,-266 305.33,-266 315.01,-266"/>
<polygon fill="#63b8ff" stroke="#63b8ff" points="314.74,-269.5 324.74,-266 314.74,-262.5 314.74,-269.5"/>
</a>
</g>
</g>
<!-- Node4 -->
<g id="Node000004" class="node">
<title>Node4</title>
<g id="a_Node000004"><a xlink:href="class_fiea_1_1_engine_1_1_r_t_t_i.html#a876bebbe7b3149483c43a87f55f4ea99" target="_top" xlink:title=" ">
<polygon fill="white" stroke="#666666" points="432,-214 333.5,-214 333.5,-182 432,-182 432,-214"/>
<text xml:space="preserve" text-anchor="start" x="341.5" y="-200.5" font-family="Helvetica,sans-Serif" font-size="10.00">Fiea::Engine::RTTI</text>
<text xml:space="preserve" text-anchor="middle" x="382.75" y="-188.5" font-family="Helvetica,sans-Serif" font-size="10.00">::TypeIdInstance</text>
</a>
</g>
</g>
<!-- Node2&#45;&gt;Node4 -->
<g id="edge4_Node000002_Node000004" class="edge">
<title>Node2&#45;&gt;Node4</title>
<g id="a_edge4_Node000002_Node000004"><a xlink:title=" ">
<path fill="none" stroke="#63b8ff" d="M271.28,-249.54C277.8,-246.73 284.48,-243.81 290.75,-241 306.02,-234.15 322.59,-226.41 337.37,-219.4"/>
<polygon fill="#63b8ff" stroke="#63b8ff" points="338.87,-222.56 346.39,-215.1 335.86,-216.24 338.87,-222.56"/>
</a>
</g>
</g>
<!-- Node3&#45;&gt;Node3 -->
<g id="edge3_Node000003_Node000003" class="edge">
<title>Node3&#45;&gt;Node3</title>
<g id="a_edge3_Node000003_Node000003"><a xlink:title=" ">
<path fill="none" stroke="#63b8ff" d="M355.93,-282.44C350.92,-291.58 359.86,-300 382.75,-300 395.27,-300 403.61,-297.48 407.79,-293.71"/>
<polygon fill="#63b8ff" stroke="#63b8ff" points="411.23,-294.36 409.34,-283.94 404.31,-293.27 411.23,-294.36"/>
</a>
</g>
</g>
<!-- Node4&#45;&gt;Node4 -->
<g id="edge13_Node000004_Node000004" class="edge">
<title>Node4&#45;&gt;Node4</title>
<g id="a_edge13_Node000004_Node000004"><a xlink:title=" ">
<path fill="none" stroke="#63b8ff" d="M355.93,-214.44C350.92,-223.58 359.86,-232 382.75,-232 395.27,-232 403.61,-229.48 407.79,-225.71"/>
<polygon fill="#63b8ff" stroke="#63b8ff" points="411.23,-226.36 409.34,-215.94 404.31,-225.27 411.23,-226.36"/>
</a>
</g>
</g>
<!-- Node4&#45;&gt;Node5 -->
<g id="edge5_Node000004_Node000005" class="edge">
<title>Node4&#45;&gt;Node5</title>
<g id="a_edge5_Node000004_Node000005"><a xlink:title=" ">
<path fill="none" stroke="#63b8ff" d="M406.36,-214.37C416.57,-222.09 428.59,-231.64 438.75,-241 456.1,-256.98 455.43,-266.46 474.75,-280 479.48,-283.32 484.75,-286.3 490.11,-288.94"/>
<polygon fill="#63b8ff" stroke="#63b8ff" points="488.49,-292.05 499.05,-292.97 491.37,-285.67 488.49,-292.05"/>
</a>
</g>
</g>
<!-- Node6 -->
<g id="Node000006" class="node">
<title>Node6</title>
<g id="a_Node000006"><a xlink:href="class_fiea_1_1_engine_1_1_r_t_t_i.html#ac0a7d875e4513b2aca7594abcd4418ef" target="_top" xlink:title=" ">
<polygon fill="white" stroke="#666666" points="740,-295 627.25,-295 627.25,-275 740,-275 740,-295"/>
<text xml:space="preserve" text-anchor="middle" x="683.62" y="-281.5" font-family="Helvetica,sans-Serif" font-size="10.00">Fiea::Engine::RTTI::Is</text>
</a>
</g>
</g>
<!-- Node4&#45;&gt;Node6 -->
<g id="edge10_Node000004_Node000006" class="edge">
<title>Node4&#45;&gt;Node6</title>
<g id="a_edge10_Node000004_Node000006"><a xlink:title=" ">
<path fill="none" stroke="#63b8ff" d="M409.04,-214.41C426.77,-225.21 451.38,-238.8 474.75,-247 520.48,-263.04 574.35,-272.64 615.8,-278.18"/>
<polygon fill="#63b8ff" stroke="#63b8ff" points="615.28,-281.65 625.64,-279.45 616.17,-274.7 615.28,-281.65"/>
</a>
</g>
</g>
<!-- Node7 -->
<g id="Node000007" class="node">
<title>Node7</title>
<g id="a_Node000007"><a xlink:href="class_fiea_1_1_engine_1_1_r_t_t_i.html#a13000029a2e6cced30b831e466e07cae" target="_top" xlink:title=" ">
<polygon fill="white" stroke="#666666" points="732.88,-238 634.38,-238 634.38,-206 732.88,-206 732.88,-238"/>
<text xml:space="preserve" text-anchor="start" x="642.38" y="-224.5" font-family="Helvetica,sans-Serif" font-size="10.00">Fiea::Engine::RTTI</text>
<text xml:space="preserve" text-anchor="middle" x="683.62" y="-212.5" font-family="Helvetica,sans-Serif" font-size="10.00">::RTTI</text>
</a>
</g>
</g>
<!-- Node4&#45;&gt;Node7 -->
<g id="edge11_Node000004_Node000007" class="edge">
<title>Node4&#45;&gt;Node7</title>
<g id="a_edge11_Node000004_Node000007"><a xlink:title=" ">
<path fill="none" stroke="#63b8ff" d="M405.54,-181.54C423.17,-169.33 449.17,-153.68 474.75,-147 524.85,-133.92 542.5,-129.55 591.25,-147 619.15,-156.98 644.64,-179.56 661.57,-197.35"/>
<polygon fill="#63b8ff" stroke="#63b8ff" points="658.8,-199.51 668.14,-204.51 663.96,-194.78 658.8,-199.51"/>
</a>
</g>
</g>
<!-- Node8 -->
<g id="Node000008" class="node">
<title>Node8</title>
<g id="a_Node000008"><a xlink:href="class_fiea_1_1_engine_1_1_r_t_t_i.html#a7f70ad5ba0f8a3388543d63d72892575" target="_top" xlink:title=" ">
<polygon fill="white" stroke="#666666" points="582.25,-238 483.75,-238 483.75,-206 582.25,-206 582.25,-238"/>
<text xml:space="preserve" text-anchor="start" x="491.75" y="-224.5" font-family="Helvetica,sans-Serif" font-size="10.00">Fiea::Engine::RTTI</text>
<text xml:space="preserve" text-anchor="middle" x="533" y="-212.5" font-family="Helvetica,sans-Serif" font-size="10.00">::Equals</text>
</a>
</g>
</g>
<!-- Node4&#45;&gt;Node8 -->
<g id="edge8_Node000004_Node000008" class="edge">
<title>Node4&#45;&gt;Node8</title>
<g id="a_edge8_Node000004_Node000008"><a xlink:title=" ">
<path fill="none" stroke="#63b8ff" d="M432.29,-205.86C445.09,-207.93 459.05,-210.19 472.36,-212.34"/>
<polygon fill="#63b8ff" stroke="#63b8ff" points="471.42,-215.74 481.85,-213.88 472.54,-208.83 471.42,-215.74"/>
</a>
</g>
</g>
<!-- Node9 -->
<g id="Node000009" class="node">
<title>Node9</title>
<g id="a_Node000009"><a xlink:href="class_fiea_1_1_engine_1_1_r_t_t_i.html#a43a7d187e332a17d2c699bc2c8136a30" target="_top" xlink:title=" ">
<polygon fill="white" stroke="#666666" points="582.25,-188 483.75,-188 483.75,-156 582.25,-156 582.25,-188"/>
<text xml:space="preserve" text-anchor="start" x="491.75" y="-174.5" font-family="Helvetica,sans-Serif" font-size="10.00">Fiea::Engine::RTTI</text>
<text xml:space="preserve" text-anchor="middle" x="533" y="-162.5" font-family="Helvetica,sans-Serif" font-size="10.00">::ToString</text>
</a>
</g>
</g>
<!-- Node4&#45;&gt;Node9 -->
<g id="edge12_Node000004_Node000009" class="edge">
<title>Node4&#45;&gt;Node9</title>
<g id="a_edge12_Node000004_Node000009"><a xlink:title=" ">
<path fill="none" stroke="#63b8ff" d="M432.29,-189.49C445.09,-187.24 459.05,-184.79 472.36,-182.46"/>
<polygon fill="#63b8ff" stroke="#63b8ff" points="472.61,-185.97 481.86,-180.79 471.4,-179.07 472.61,-185.97"/>
</a>
</g>
</g>
<!-- Node5&#45;&gt;Node6 -->
<g id="edge6_Node000005_Node000006" class="edge">
<title>Node5&#45;&gt;Node6</title>
<g id="a_edge6_Node000005_Node000006"><a xlink:title=" ">
<path fill="none" stroke="#63b8ff" d="M591.46,-296.65C599.35,-295.65 607.5,-294.6 615.53,-293.58"/>
<polygon fill="#63b8ff" stroke="#63b8ff" points="615.81,-297.07 625.28,-292.33 614.92,-290.13 615.81,-297.07"/>
</a>
</g>
</g>
<!-- Node5&#45;&gt;Node7 -->
<g id="edge7_Node000005_Node000007" class="edge">
<title>Node5&#45;&gt;Node7</title>
<g id="a_edge7_Node000005_Node000007"><a xlink:title=" ">
<path fill="none" stroke="#63b8ff" d="M552.82,-293.61C575.39,-281.16 613.83,-259.96 643.03,-243.85"/>
<polygon fill="#63b8ff" stroke="#63b8ff" points="644.54,-247.01 651.61,-239.11 641.16,-240.88 644.54,-247.01"/>
</a>
</g>
</g>
<!-- Node8&#45;&gt;Node7 -->
<g id="edge9_Node000008_Node000007" class="edge">
<title>Node8&#45;&gt;Node7</title>
<g id="a_edge9_Node000008_Node000007"><a xlink:title=" ">
<path fill="none" stroke="#63b8ff" d="M582.67,-222C595.43,-222 609.35,-222 622.64,-222"/>
<polygon fill="#63b8ff" stroke="#63b8ff" points="622.59,-225.5 632.59,-222 622.59,-218.5 622.59,-225.5"/>
</a>
</g>
</g>
<!-- Node14 -->
<g id="Node000014" class="node">
<title>Node14</title>
<g id="a_Node000014"><a xlink:href="class_fiea_1_1_engine_1_1_content_1_1_datum.html#a921193447f6e42f596ac0a7694b02830" target="_top" xlink:title=" ">
<polygon fill="white" stroke="#666666" points="438.38,-82 327.12,-82 327.12,-50 438.38,-50 438.38,-82"/>
<text xml:space="preserve" text-anchor="start" x="335.12" y="-68.5" font-family="Helvetica,sans-Serif" font-size="10.00">Fiea::Engine::Content</text>
<text xml:space="preserve" text-anchor="middle" x="382.75" y="-56.5" font-family="Helvetica,sans-Serif" font-size="10.00">::Datum::Scope</text>
</a>
</g>
</g>
<!-- Node13&#45;&gt;Node14 -->
<g id="edge19_Node000013_Node000014" class="edge">
<title>Node13&#45;&gt;Node14</title>
<g id="a_edge19_Node000013_Node000014"><a xlink:title=" ">
<path fill="none" stroke="#63b8ff" d="M286.91,-66C296.17,-66 305.87,-66 315.38,-66"/>
<polygon fill="#63b8ff" stroke="#63b8ff" points="315.33,-69.5 325.33,-66 315.33,-62.5 315.33,-69.5"/>
</a>
</g>
</g>
<!-- Node14&#45;&gt;Node14 -->
<g id="edge20_Node000014_Node000014" class="edge">
<title>Node14&#45;&gt;Node14</title>
<g id="a_edge20_Node000014_Node000014"><a xlink:title=" ">
<path fill="none" stroke="#63b8ff" d="M355.93,-82.44C350.92,-91.58 359.86,-100 382.75,-100 395.27,-100 403.61,-97.48 407.79,-93.71"/>
<polygon fill="#63b8ff" stroke="#63b8ff" points="411.23,-94.36 409.34,-83.94 404.31,-93.27 411.23,-94.36"/>
</a>
</g>
</g>
</g>
</svg>
