<?xml version="1.0" encoding="UTF-8" standalone="no"?>
<!DOCTYPE svg PUBLIC "-//W3C//DTD SVG 1.1//EN"
 "http://www.w3.org/Graphics/SVG/1.1/DTD/svg11.dtd">
<!-- Generated by graphviz version 13.1.0 (20250701.0955)
 -->
<!-- Title: Fiea::Engine::Actions::ActionDecrement::ActionDecrement Pages: 1 -->
<svg width="783pt" height="220pt"
 viewBox="0.00 0.00 783.00 220.00" xmlns="http://www.w3.org/2000/svg" xmlns:xlink="http://www.w3.org/1999/xlink">
<g id="graph0" class="graph" transform="scale(1 1) rotate(0) translate(4 216)">
<title>Fiea::Engine::Actions::ActionDecrement::ActionDecrement</title>
<!-- Node1 -->
<g id="Node000001" class="node">
<title>Node1</title>
<g id="a_Node000001"><a xlink:title=" ">
<polygon fill="#999999" stroke="#666666" points="179.5,-148 0,-148 0,-116 179.5,-116 179.5,-148"/>
<text xml:space="preserve" text-anchor="start" x="8" y="-134.5" font-family="Helvetica,sans-Serif" font-size="10.00">Fiea::Engine::Actions</text>
<text xml:space="preserve" text-anchor="middle" x="89.75" y="-122.5" font-family="Helvetica,sans-Serif" font-size="10.00">::ActionDecrement::ActionDecrement</text>
</a>
</g>
</g>
<!-- Node2 -->
<g id="Node000002" class="node">
<title>Node2</title>
<g id="a_Node000002"><a xlink:href="class_fiea_1_1_engine_1_1_actions_1_1_action.html#ae2af386f7122152003b00da79393e19e" target="_top" xlink:title=" ">
<polygon fill="white" stroke="#666666" points="325.25,-170 215.5,-170 215.5,-138 325.25,-138 325.25,-170"/>
<text xml:space="preserve" text-anchor="start" x="223.5" y="-156.5" font-family="Helvetica,sans-Serif" font-size="10.00">Fiea::Engine::Actions</text>
<text xml:space="preserve" text-anchor="middle" x="270.38" y="-144.5" font-family="Helvetica,sans-Serif" font-size="10.00">::Action::Action</text>
</a>
</g>
</g>
<!-- Node1&#45;&gt;Node2 -->
<g id="edge1_Node000001_Node000002" class="edge">
<title>Node1&#45;&gt;Node2</title>
<g id="a_edge1_Node000001_Node000002"><a xlink:title=" ">
<path fill="none" stroke="#63b8ff" d="M179.8,-142.97C187.9,-143.97 196.01,-144.96 203.85,-145.93"/>
<polygon fill="#63b8ff" stroke="#63b8ff" points="203.26,-149.38 213.62,-147.13 204.12,-142.44 203.26,-149.38"/>
</a>
</g>
</g>
<!-- Node4 -->
<g id="Node000004" class="node">
<title>Node4</title>
<g id="a_Node000004"><a xlink:href="class_fiea_1_1_engine_1_1_r_t_t_i.html#a876bebbe7b3149483c43a87f55f4ea99" target="_top" xlink:title=" ">
<polygon fill="white" stroke="#666666" points="466.5,-126 368,-126 368,-94 466.5,-94 466.5,-126"/>
<text xml:space="preserve" text-anchor="start" x="376" y="-112.5" font-family="Helvetica,sans-Serif" font-size="10.00">Fiea::Engine::RTTI</text>
<text xml:space="preserve" text-anchor="middle" x="417.25" y="-100.5" font-family="Helvetica,sans-Serif" font-size="10.00">::TypeIdInstance</text>
</a>
</g>
</g>
<!-- Node1&#45;&gt;Node4 -->
<g id="edge14_Node000001_Node000004" class="edge">
<title>Node1&#45;&gt;Node4</title>
<g id="a_edge14_Node000001_Node000004"><a xlink:title=" ">
<path fill="none" stroke="#63b8ff" d="M179.69,-125.99C235.81,-122.2 306.77,-117.4 356.27,-114.05"/>
<polygon fill="#63b8ff" stroke="#63b8ff" points="356.49,-117.55 366.23,-113.38 356.02,-110.56 356.49,-117.55"/>
</a>
</g>
</g>
<!-- Node3 -->
<g id="Node000003" class="node">
<title>Node3</title>
<g id="a_Node000003"><a xlink:href="class_fiea_1_1_engine_1_1_content_1_1_attributed.html#ad1ae014235d9d8b62b36066c94164148" target="_top" xlink:title=" ">
<polygon fill="white" stroke="#666666" points="473.25,-194 361.25,-194 361.25,-162 473.25,-162 473.25,-194"/>
<text xml:space="preserve" text-anchor="start" x="369.25" y="-180.5" font-family="Helvetica,sans-Serif" font-size="10.00">Fiea::Engine::Content</text>
<text xml:space="preserve" text-anchor="middle" x="417.25" y="-168.5" font-family="Helvetica,sans-Serif" font-size="10.00">::Attributed::Attributed</text>
</a>
</g>
</g>
<!-- Node2&#45;&gt;Node3 -->
<g id="edge2_Node000002_Node000003" class="edge">
<title>Node2&#45;&gt;Node3</title>
<g id="a_edge2_Node000002_Node000003"><a xlink:title=" ">
<path fill="none" stroke="#63b8ff" d="M325.73,-163C333.59,-164.31 341.75,-165.66 349.82,-166.99"/>
<polygon fill="#63b8ff" stroke="#63b8ff" points="349.17,-170.44 359.61,-168.62 350.32,-163.53 349.17,-170.44"/>
</a>
</g>
</g>
<!-- Node2&#45;&gt;Node4 -->
<g id="edge4_Node000002_Node000004" class="edge">
<title>Node2&#45;&gt;Node4</title>
<g id="a_edge4_Node000002_Node000004"><a xlink:title=" ">
<path fill="none" stroke="#63b8ff" d="M325.32,-137.62C335.59,-134.5 346.39,-131.22 356.82,-128.05"/>
<polygon fill="#63b8ff" stroke="#63b8ff" points="357.52,-131.5 366.07,-125.24 355.48,-124.8 357.52,-131.5"/>
</a>
</g>
</g>
<!-- Node3&#45;&gt;Node3 -->
<g id="edge3_Node000003_Node000003" class="edge">
<title>Node3&#45;&gt;Node3</title>
<g id="a_edge3_Node000003_Node000003"><a xlink:title=" ">
<path fill="none" stroke="#63b8ff" d="M391.03,-194.44C386.13,-203.58 394.87,-212 417.25,-212 429.49,-212 437.65,-209.48 441.73,-205.71"/>
<polygon fill="#63b8ff" stroke="#63b8ff" points="445.17,-206.36 443.24,-195.94 438.25,-205.28 445.17,-206.36"/>
</a>
</g>
</g>
<!-- Node4&#45;&gt;Node4 -->
<g id="edge13_Node000004_Node000004" class="edge">
<title>Node4&#45;&gt;Node4</title>
<g id="a_edge13_Node000004_Node000004"><a xlink:title=" ">
<path fill="none" stroke="#63b8ff" d="M391.03,-126.44C386.13,-135.58 394.87,-144 417.25,-144 429.49,-144 437.65,-141.48 441.73,-137.71"/>
<polygon fill="#63b8ff" stroke="#63b8ff" points="445.17,-138.36 443.24,-127.94 438.25,-137.28 445.17,-138.36"/>
</a>
</g>
</g>
<!-- Node5 -->
<g id="Node000005" class="node">
<title>Node5</title>
<g id="a_Node000005"><a xlink:href="class_fiea_1_1_engine_1_1_r_t_t_i.html#a15bd5993c8ad04da47af440298ebbb30" target="_top" xlink:title=" ">
<polygon fill="white" stroke="#666666" points="625.75,-158 509.25,-158 509.25,-138 625.75,-138 625.75,-158"/>
<text xml:space="preserve" text-anchor="middle" x="567.5" y="-144.5" font-family="Helvetica,sans-Serif" font-size="10.00">Fiea::Engine::RTTI::As</text>
</a>
</g>
</g>
<!-- Node4&#45;&gt;Node5 -->
<g id="edge5_Node000004_Node000005" class="edge">
<title>Node4&#45;&gt;Node5</title>
<g id="a_edge5_Node000004_Node000005"><a xlink:title=" ">
<path fill="none" stroke="#63b8ff" d="M466.79,-122.44C482.15,-126.38 499.18,-130.74 514.75,-134.74"/>
<polygon fill="#63b8ff" stroke="#63b8ff" points="513.77,-138.1 524.32,-137.19 515.5,-131.32 513.77,-138.1"/>
</a>
</g>
</g>
<!-- Node6 -->
<g id="Node000006" class="node">
<title>Node6</title>
<g id="a_Node000006"><a xlink:href="class_fiea_1_1_engine_1_1_r_t_t_i.html#ac0a7d875e4513b2aca7594abcd4418ef" target="_top" xlink:title=" ">
<polygon fill="white" stroke="#666666" points="774.5,-180 661.75,-180 661.75,-160 774.5,-160 774.5,-180"/>
<text xml:space="preserve" text-anchor="middle" x="718.12" y="-166.5" font-family="Helvetica,sans-Serif" font-size="10.00">Fiea::Engine::RTTI::Is</text>
</a>
</g>
</g>
<!-- Node4&#45;&gt;Node6 -->
<g id="edge10_Node000004_Node000006" class="edge">
<title>Node4&#45;&gt;Node6</title>
<g id="a_edge10_Node000004_Node000006"><a xlink:title=" ">
<path fill="none" stroke="#63b8ff" d="M437.3,-126.34C454.73,-140.14 481.89,-158.93 509.25,-167 554.97,-180.5 608.85,-180.86 650.3,-178.06"/>
<polygon fill="#63b8ff" stroke="#63b8ff" points="650.43,-181.56 660.13,-177.31 649.89,-174.58 650.43,-181.56"/>
</a>
</g>
</g>
<!-- Node7 -->
<g id="Node000007" class="node">
<title>Node7</title>
<g id="a_Node000007"><a xlink:href="class_fiea_1_1_engine_1_1_r_t_t_i.html#a13000029a2e6cced30b831e466e07cae" target="_top" xlink:title=" ">
<polygon fill="white" stroke="#666666" points="767.38,-126 668.88,-126 668.88,-94 767.38,-94 767.38,-126"/>
<text xml:space="preserve" text-anchor="start" x="676.88" y="-112.5" font-family="Helvetica,sans-Serif" font-size="10.00">Fiea::Engine::RTTI</text>
<text xml:space="preserve" text-anchor="middle" x="718.12" y="-100.5" font-family="Helvetica,sans-Serif" font-size="10.00">::RTTI</text>
</a>
</g>
</g>
<!-- Node4&#45;&gt;Node7 -->
<g id="edge11_Node000004_Node000007" class="edge">
<title>Node4&#45;&gt;Node7</title>
<g id="a_edge11_Node000004_Node000007"><a xlink:title=" ">
<path fill="none" stroke="#63b8ff" d="M466.93,-110C518.82,-110 601.04,-110 656.95,-110"/>
<polygon fill="#63b8ff" stroke="#63b8ff" points="656.95,-113.5 666.95,-110 656.95,-106.5 656.95,-113.5"/>
</a>
</g>
</g>
<!-- Node8 -->
<g id="Node000008" class="node">
<title>Node8</title>
<g id="a_Node000008"><a xlink:href="class_fiea_1_1_engine_1_1_r_t_t_i.html#a7f70ad5ba0f8a3388543d63d72892575" target="_top" xlink:title=" ">
<polygon fill="white" stroke="#666666" points="616.75,-82 518.25,-82 518.25,-50 616.75,-50 616.75,-82"/>
<text xml:space="preserve" text-anchor="start" x="526.25" y="-68.5" font-family="Helvetica,sans-Serif" font-size="10.00">Fiea::Engine::RTTI</text>
<text xml:space="preserve" text-anchor="middle" x="567.5" y="-56.5" font-family="Helvetica,sans-Serif" font-size="10.00">::Equals</text>
</a>
</g>
</g>
<!-- Node4&#45;&gt;Node8 -->
<g id="edge8_Node000004_Node000008" class="edge">
<title>Node4&#45;&gt;Node8</title>
<g id="a_edge8_Node000004_Node000008"><a xlink:title=" ">
<path fill="none" stroke="#63b8ff" d="M466.79,-95.59C479.59,-91.79 493.55,-87.65 506.86,-83.7"/>
<polygon fill="#63b8ff" stroke="#63b8ff" points="507.81,-87.07 516.4,-80.87 505.81,-80.36 507.81,-87.07"/>
</a>
</g>
</g>
<!-- Node9 -->
<g id="Node000009" class="node">
<title>Node9</title>
<g id="a_Node000009"><a xlink:href="class_fiea_1_1_engine_1_1_r_t_t_i.html#a43a7d187e332a17d2c699bc2c8136a30" target="_top" xlink:title=" ">
<polygon fill="white" stroke="#666666" points="616.75,-32 518.25,-32 518.25,0 616.75,0 616.75,-32"/>
<text xml:space="preserve" text-anchor="start" x="526.25" y="-18.5" font-family="Helvetica,sans-Serif" font-size="10.00">Fiea::Engine::RTTI</text>
<text xml:space="preserve" text-anchor="middle" x="567.5" y="-6.5" font-family="Helvetica,sans-Serif" font-size="10.00">::ToString</text>
</a>
</g>
</g>
<!-- Node4&#45;&gt;Node9 -->
<g id="edge12_Node000004_Node000009" class="edge">
<title>Node4&#45;&gt;Node9</title>
<g id="a_edge12_Node000004_Node000009"><a xlink:title=" ">
<path fill="none" stroke="#63b8ff" d="M437.19,-93.51C454.97,-78.56 482.74,-56.54 509.25,-41 511.26,-39.82 513.34,-38.66 515.45,-37.53"/>
<polygon fill="#63b8ff" stroke="#63b8ff" points="516.84,-40.75 524.21,-33.13 513.7,-34.5 516.84,-40.75"/>
</a>
</g>
</g>
<!-- Node5&#45;&gt;Node6 -->
<g id="edge6_Node000005_Node000006" class="edge">
<title>Node5&#45;&gt;Node6</title>
<g id="a_edge6_Node000005_Node000006"><a xlink:title=" ">
<path fill="none" stroke="#63b8ff" d="M625.96,-156.51C633.85,-157.67 642,-158.88 650.03,-160.07"/>
<polygon fill="#63b8ff" stroke="#63b8ff" points="649.38,-163.51 659.78,-161.51 650.41,-156.59 649.38,-163.51"/>
</a>
</g>
</g>
<!-- Node5&#45;&gt;Node7 -->
<g id="edge7_Node000005_Node000007" class="edge">
<title>Node5&#45;&gt;Node7</title>
<g id="a_edge7_Node000005_Node000007"><a xlink:title=" ">
<path fill="none" stroke="#63b8ff" d="M609.51,-137.52C624.38,-133.71 641.49,-129.34 657.63,-125.21"/>
<polygon fill="#63b8ff" stroke="#63b8ff" points="658.32,-128.65 667.14,-122.78 656.59,-121.87 658.32,-128.65"/>
</a>
</g>
</g>
<!-- Node8&#45;&gt;Node7 -->
<g id="edge9_Node000008_Node000007" class="edge">
<title>Node8&#45;&gt;Node7</title>
<g id="a_edge9_Node000008_Node000007"><a xlink:title=" ">
<path fill="none" stroke="#63b8ff" d="M617.17,-80.41C630.19,-84.26 644.42,-88.47 657.94,-92.48"/>
<polygon fill="#63b8ff" stroke="#63b8ff" points="656.57,-95.72 667.15,-95.21 658.56,-89.01 656.57,-95.72"/>
</a>
</g>
</g>
</g>
</svg>
