<?xml version="1.0" encoding="UTF-8" standalone="no"?>
<!DOCTYPE svg PUBLIC "-//W3C//DTD SVG 1.1//EN"
 "http://www.w3.org/Graphics/SVG/1.1/DTD/svg11.dtd">
<!-- Generated by graphviz version 13.1.0 (20250701.0955)
 -->
<!-- Title: Fiea::Engine::Actions::ActionAddDatum::ActionAddDatum Pages: 1 -->
<svg width="934pt" height="220pt"
 viewBox="0.00 0.00 934.00 220.00" xmlns="http://www.w3.org/2000/svg" xmlns:xlink="http://www.w3.org/1999/xlink">
<g id="graph0" class="graph" transform="scale(1 1) rotate(0) translate(4 216)">
<title>Fiea::Engine::Actions::ActionAddDatum::ActionAddDatum</title>
<!-- Node1 -->
<g id="Node000001" class="node">
<title>Node1</title>
<g id="a_Node000001"><a xlink:title=" ">
<polygon fill="#999999" stroke="#666666" points="147.25,-154 0,-154 0,-110 147.25,-110 147.25,-154"/>
<text xml:space="preserve" text-anchor="start" x="8" y="-140.5" font-family="Helvetica,sans-Serif" font-size="10.00">Fiea::Engine::Actions</text>
<text xml:space="preserve" text-anchor="start" x="8" y="-128.5" font-family="Helvetica,sans-Serif" font-size="10.00">::ActionAddDatum::ActionAdd</text>
<text xml:space="preserve" text-anchor="middle" x="73.62" y="-116.5" font-family="Helvetica,sans-Serif" font-size="10.00">Datum</text>
</a>
</g>
</g>
<!-- Node2 -->
<g id="Node000002" class="node">
<title>Node2</title>
<g id="a_Node000002"><a xlink:href="class_fiea_1_1_engine_1_1_actions_1_1_action_add_datum.html#ad36c48a3887d261713f6f5406d2b7da1" target="_top" xlink:title=" ">
<polygon fill="white" stroke="#666666" points="330.5,-154 183.25,-154 183.25,-110 330.5,-110 330.5,-154"/>
<text xml:space="preserve" text-anchor="start" x="191.25" y="-140.5" font-family="Helvetica,sans-Serif" font-size="10.00">Fiea::Engine::Actions</text>
<text xml:space="preserve" text-anchor="start" x="191.25" y="-128.5" font-family="Helvetica,sans-Serif" font-size="10.00">::ActionAddDatum::ActionAdd</text>
<text xml:space="preserve" text-anchor="middle" x="256.88" y="-116.5" font-family="Helvetica,sans-Serif" font-size="10.00">Datum</text>
</a>
</g>
</g>
<!-- Node1&#45;&gt;Node2 -->
<g id="edge1_Node000001_Node000002" class="edge">
<title>Node1&#45;&gt;Node2</title>
<g id="a_edge1_Node000001_Node000002"><a xlink:title=" ">
<path fill="none" stroke="#63b8ff" d="M147.56,-132C155.45,-132 163.53,-132 171.54,-132"/>
<polygon fill="#63b8ff" stroke="#63b8ff" points="171.28,-135.5 181.28,-132 171.28,-128.5 171.28,-135.5"/>
</a>
</g>
</g>
<!-- Node3 -->
<g id="Node000003" class="node">
<title>Node3</title>
<g id="a_Node000003"><a xlink:href="class_fiea_1_1_engine_1_1_actions_1_1_action.html#ae2af386f7122152003b00da79393e19e" target="_top" xlink:title=" ">
<polygon fill="white" stroke="#666666" points="476.25,-170 366.5,-170 366.5,-138 476.25,-138 476.25,-170"/>
<text xml:space="preserve" text-anchor="start" x="374.5" y="-156.5" font-family="Helvetica,sans-Serif" font-size="10.00">Fiea::Engine::Actions</text>
<text xml:space="preserve" text-anchor="middle" x="421.38" y="-144.5" font-family="Helvetica,sans-Serif" font-size="10.00">::Action::Action</text>
</a>
</g>
</g>
<!-- Node2&#45;&gt;Node3 -->
<g id="edge2_Node000002_Node000003" class="edge">
<title>Node2&#45;&gt;Node3</title>
<g id="a_edge2_Node000002_Node000003"><a xlink:title=" ">
<path fill="none" stroke="#63b8ff" d="M330.57,-141.84C338.73,-142.95 347,-144.07 355.05,-145.16"/>
<polygon fill="#63b8ff" stroke="#63b8ff" points="354.38,-148.6 364.76,-146.47 355.32,-141.66 354.38,-148.6"/>
</a>
</g>
</g>
<!-- Node5 -->
<g id="Node000005" class="node">
<title>Node5</title>
<g id="a_Node000005"><a xlink:href="class_fiea_1_1_engine_1_1_r_t_t_i.html#a876bebbe7b3149483c43a87f55f4ea99" target="_top" xlink:title=" ">
<polygon fill="white" stroke="#666666" points="617.5,-126 519,-126 519,-94 617.5,-94 617.5,-126"/>
<text xml:space="preserve" text-anchor="start" x="527" y="-112.5" font-family="Helvetica,sans-Serif" font-size="10.00">Fiea::Engine::RTTI</text>
<text xml:space="preserve" text-anchor="middle" x="568.25" y="-100.5" font-family="Helvetica,sans-Serif" font-size="10.00">::TypeIdInstance</text>
</a>
</g>
</g>
<!-- Node2&#45;&gt;Node5 -->
<g id="edge15_Node000002_Node000005" class="edge">
<title>Node2&#45;&gt;Node5</title>
<g id="a_edge15_Node000002_Node000005"><a xlink:title=" ">
<path fill="none" stroke="#63b8ff" d="M330.8,-126.81C384.66,-122.98 457.09,-117.83 507.53,-114.25"/>
<polygon fill="#63b8ff" stroke="#63b8ff" points="507.66,-117.75 517.39,-113.55 507.17,-110.76 507.66,-117.75"/>
</a>
</g>
</g>
<!-- Node4 -->
<g id="Node000004" class="node">
<title>Node4</title>
<g id="a_Node000004"><a xlink:href="class_fiea_1_1_engine_1_1_content_1_1_attributed.html#ad1ae014235d9d8b62b36066c94164148" target="_top" xlink:title=" ">
<polygon fill="white" stroke="#666666" points="624.25,-194 512.25,-194 512.25,-162 624.25,-162 624.25,-194"/>
<text xml:space="preserve" text-anchor="start" x="520.25" y="-180.5" font-family="Helvetica,sans-Serif" font-size="10.00">Fiea::Engine::Content</text>
<text xml:space="preserve" text-anchor="middle" x="568.25" y="-168.5" font-family="Helvetica,sans-Serif" font-size="10.00">::Attributed::Attributed</text>
</a>
</g>
</g>
<!-- Node3&#45;&gt;Node4 -->
<g id="edge3_Node000003_Node000004" class="edge">
<title>Node3&#45;&gt;Node4</title>
<g id="a_edge3_Node000003_Node000004"><a xlink:title=" ">
<path fill="none" stroke="#63b8ff" d="M476.73,-163C484.59,-164.31 492.75,-165.66 500.82,-166.99"/>
<polygon fill="#63b8ff" stroke="#63b8ff" points="500.17,-170.44 510.61,-168.62 501.32,-163.53 500.17,-170.44"/>
</a>
</g>
</g>
<!-- Node3&#45;&gt;Node5 -->
<g id="edge5_Node000003_Node000005" class="edge">
<title>Node3&#45;&gt;Node5</title>
<g id="a_edge5_Node000003_Node000005"><a xlink:title=" ">
<path fill="none" stroke="#63b8ff" d="M476.32,-137.62C486.59,-134.5 497.39,-131.22 507.82,-128.05"/>
<polygon fill="#63b8ff" stroke="#63b8ff" points="508.52,-131.5 517.07,-125.24 506.48,-124.8 508.52,-131.5"/>
</a>
</g>
</g>
<!-- Node4&#45;&gt;Node4 -->
<g id="edge4_Node000004_Node000004" class="edge">
<title>Node4&#45;&gt;Node4</title>
<g id="a_edge4_Node000004_Node000004"><a xlink:title=" ">
<path fill="none" stroke="#63b8ff" d="M542.03,-194.44C537.13,-203.58 545.87,-212 568.25,-212 580.49,-212 588.65,-209.48 592.73,-205.71"/>
<polygon fill="#63b8ff" stroke="#63b8ff" points="596.17,-206.36 594.24,-195.94 589.25,-205.28 596.17,-206.36"/>
</a>
</g>
</g>
<!-- Node5&#45;&gt;Node5 -->
<g id="edge14_Node000005_Node000005" class="edge">
<title>Node5&#45;&gt;Node5</title>
<g id="a_edge14_Node000005_Node000005"><a xlink:title=" ">
<path fill="none" stroke="#63b8ff" d="M542.03,-126.44C537.13,-135.58 545.87,-144 568.25,-144 580.49,-144 588.65,-141.48 592.73,-137.71"/>
<polygon fill="#63b8ff" stroke="#63b8ff" points="596.17,-138.36 594.24,-127.94 589.25,-137.28 596.17,-138.36"/>
</a>
</g>
</g>
<!-- Node6 -->
<g id="Node000006" class="node">
<title>Node6</title>
<g id="a_Node000006"><a xlink:href="class_fiea_1_1_engine_1_1_r_t_t_i.html#a15bd5993c8ad04da47af440298ebbb30" target="_top" xlink:title=" ">
<polygon fill="white" stroke="#666666" points="776.75,-158 660.25,-158 660.25,-138 776.75,-138 776.75,-158"/>
<text xml:space="preserve" text-anchor="middle" x="718.5" y="-144.5" font-family="Helvetica,sans-Serif" font-size="10.00">Fiea::Engine::RTTI::As</text>
</a>
</g>
</g>
<!-- Node5&#45;&gt;Node6 -->
<g id="edge6_Node000005_Node000006" class="edge">
<title>Node5&#45;&gt;Node6</title>
<g id="a_edge6_Node000005_Node000006"><a xlink:title=" ">
<path fill="none" stroke="#63b8ff" d="M617.79,-122.44C633.15,-126.38 650.18,-130.74 665.75,-134.74"/>
<polygon fill="#63b8ff" stroke="#63b8ff" points="664.77,-138.1 675.32,-137.19 666.5,-131.32 664.77,-138.1"/>
</a>
</g>
</g>
<!-- Node7 -->
<g id="Node000007" class="node">
<title>Node7</title>
<g id="a_Node000007"><a xlink:href="class_fiea_1_1_engine_1_1_r_t_t_i.html#ac0a7d875e4513b2aca7594abcd4418ef" target="_top" xlink:title=" ">
<polygon fill="white" stroke="#666666" points="925.5,-180 812.75,-180 812.75,-160 925.5,-160 925.5,-180"/>
<text xml:space="preserve" text-anchor="middle" x="869.12" y="-166.5" font-family="Helvetica,sans-Serif" font-size="10.00">Fiea::Engine::RTTI::Is</text>
</a>
</g>
</g>
<!-- Node5&#45;&gt;Node7 -->
<g id="edge11_Node000005_Node000007" class="edge">
<title>Node5&#45;&gt;Node7</title>
<g id="a_edge11_Node000005_Node000007"><a xlink:title=" ">
<path fill="none" stroke="#63b8ff" d="M588.3,-126.34C605.73,-140.14 632.89,-158.93 660.25,-167 705.97,-180.5 759.85,-180.86 801.3,-178.06"/>
<polygon fill="#63b8ff" stroke="#63b8ff" points="801.43,-181.56 811.13,-177.31 800.89,-174.58 801.43,-181.56"/>
</a>
</g>
</g>
<!-- Node8 -->
<g id="Node000008" class="node">
<title>Node8</title>
<g id="a_Node000008"><a xlink:href="class_fiea_1_1_engine_1_1_r_t_t_i.html#a13000029a2e6cced30b831e466e07cae" target="_top" xlink:title=" ">
<polygon fill="white" stroke="#666666" points="918.38,-126 819.88,-126 819.88,-94 918.38,-94 918.38,-126"/>
<text xml:space="preserve" text-anchor="start" x="827.88" y="-112.5" font-family="Helvetica,sans-Serif" font-size="10.00">Fiea::Engine::RTTI</text>
<text xml:space="preserve" text-anchor="middle" x="869.12" y="-100.5" font-family="Helvetica,sans-Serif" font-size="10.00">::RTTI</text>
</a>
</g>
</g>
<!-- Node5&#45;&gt;Node8 -->
<g id="edge12_Node000005_Node000008" class="edge">
<title>Node5&#45;&gt;Node8</title>
<g id="a_edge12_Node000005_Node000008"><a xlink:title=" ">
<path fill="none" stroke="#63b8ff" d="M617.93,-110C669.82,-110 752.04,-110 807.95,-110"/>
<polygon fill="#63b8ff" stroke="#63b8ff" points="807.95,-113.5 817.95,-110 807.95,-106.5 807.95,-113.5"/>
</a>
</g>
</g>
<!-- Node9 -->
<g id="Node000009" class="node">
<title>Node9</title>
<g id="a_Node000009"><a xlink:href="class_fiea_1_1_engine_1_1_r_t_t_i.html#a7f70ad5ba0f8a3388543d63d72892575" target="_top" xlink:title=" ">
<polygon fill="white" stroke="#666666" points="767.75,-82 669.25,-82 669.25,-50 767.75,-50 767.75,-82"/>
<text xml:space="preserve" text-anchor="start" x="677.25" y="-68.5" font-family="Helvetica,sans-Serif" font-size="10.00">Fiea::Engine::RTTI</text>
<text xml:space="preserve" text-anchor="middle" x="718.5" y="-56.5" font-family="Helvetica,sans-Serif" font-size="10.00">::Equals</text>
</a>
</g>
</g>
<!-- Node5&#45;&gt;Node9 -->
<g id="edge9_Node000005_Node000009" class="edge">
<title>Node5&#45;&gt;Node9</title>
<g id="a_edge9_Node000005_Node000009"><a xlink:title=" ">
<path fill="none" stroke="#63b8ff" d="M617.79,-95.59C630.59,-91.79 644.55,-87.65 657.86,-83.7"/>
<polygon fill="#63b8ff" stroke="#63b8ff" points="658.81,-87.07 667.4,-80.87 656.81,-80.36 658.81,-87.07"/>
</a>
</g>
</g>
<!-- Node10 -->
<g id="Node000010" class="node">
<title>Node10</title>
<g id="a_Node000010"><a xlink:href="class_fiea_1_1_engine_1_1_r_t_t_i.html#a43a7d187e332a17d2c699bc2c8136a30" target="_top" xlink:title=" ">
<polygon fill="white" stroke="#666666" points="767.75,-32 669.25,-32 669.25,0 767.75,0 767.75,-32"/>
<text xml:space="preserve" text-anchor="start" x="677.25" y="-18.5" font-family="Helvetica,sans-Serif" font-size="10.00">Fiea::Engine::RTTI</text>
<text xml:space="preserve" text-anchor="middle" x="718.5" y="-6.5" font-family="Helvetica,sans-Serif" font-size="10.00">::ToString</text>
</a>
</g>
</g>
<!-- Node5&#45;&gt;Node10 -->
<g id="edge13_Node000005_Node000010" class="edge">
<title>Node5&#45;&gt;Node10</title>
<g id="a_edge13_Node000005_Node000010"><a xlink:title=" ">
<path fill="none" stroke="#63b8ff" d="M588.19,-93.51C605.97,-78.56 633.74,-56.54 660.25,-41 662.26,-39.82 664.34,-38.66 666.45,-37.53"/>
<polygon fill="#63b8ff" stroke="#63b8ff" points="667.84,-40.75 675.21,-33.13 664.7,-34.5 667.84,-40.75"/>
</a>
</g>
</g>
<!-- Node6&#45;&gt;Node7 -->
<g id="edge7_Node000006_Node000007" class="edge">
<title>Node6&#45;&gt;Node7</title>
<g id="a_edge7_Node000006_Node000007"><a xlink:title=" ">
<path fill="none" stroke="#63b8ff" d="M776.96,-156.51C784.85,-157.67 793,-158.88 801.03,-160.07"/>
<polygon fill="#63b8ff" stroke="#63b8ff" points="800.38,-163.51 810.78,-161.51 801.41,-156.59 800.38,-163.51"/>
</a>
</g>
</g>
<!-- Node6&#45;&gt;Node8 -->
<g id="edge8_Node000006_Node000008" class="edge">
<title>Node6&#45;&gt;Node8</title>
<g id="a_edge8_Node000006_Node000008"><a xlink:title=" ">
<path fill="none" stroke="#63b8ff" d="M760.51,-137.52C775.38,-133.71 792.49,-129.34 808.63,-125.21"/>
<polygon fill="#63b8ff" stroke="#63b8ff" points="809.32,-128.65 818.14,-122.78 807.59,-121.87 809.32,-128.65"/>
</a>
</g>
</g>
<!-- Node9&#45;&gt;Node8 -->
<g id="edge10_Node000009_Node000008" class="edge">
<title>Node9&#45;&gt;Node8</title>
<g id="a_edge10_Node000009_Node000008"><a xlink:title=" ">
<path fill="none" stroke="#63b8ff" d="M768.17,-80.41C781.19,-84.26 795.42,-88.47 808.94,-92.48"/>
<polygon fill="#63b8ff" stroke="#63b8ff" points="807.57,-95.72 818.15,-95.21 809.56,-89.01 807.57,-95.72"/>
</a>
</g>
</g>
</g>
</svg>
