<?xml version="1.0" encoding="UTF-8" standalone="no"?>
<!DOCTYPE svg PUBLIC "-//W3C//DTD SVG 1.1//EN"
 "http://www.w3.org/Graphics/SVG/1.1/DTD/svg11.dtd">
<!-- Generated by graphviz version 13.1.0 (20250701.0955)
 -->
<!-- Title: Fiea::Engine::Content::Attributed::IsInstanceAttribute Pages: 1 -->
<svg width="483pt" height="99pt"
 viewBox="0.00 0.00 483.00 99.00" xmlns="http://www.w3.org/2000/svg" xmlns:xlink="http://www.w3.org/1999/xlink">
<g id="graph0" class="graph" transform="scale(1 1) rotate(0) translate(4 95)">
<title>Fiea::Engine::Content::Attributed::IsInstanceAttribute</title>
<!-- Node1 -->
<g id="Node000001" class="node">
<title>Node1</title>
<g id="a_Node000001"><a xlink:title="Checks if a given key is an instance attribute.">
<polygon fill="#999999" stroke="#666666" points="474.75,-57 322.25,-57 322.25,-25 474.75,-25 474.75,-57"/>
<text xml:space="preserve" text-anchor="start" x="330.25" y="-43.5" font-family="Helvetica,sans-Serif" font-size="10.00">Fiea::Engine::Content</text>
<text xml:space="preserve" text-anchor="middle" x="398.5" y="-31.5" font-family="Helvetica,sans-Serif" font-size="10.00">::Attributed::IsInstanceAttribute</text>
</a>
</g>
</g>
<!-- Node2 -->
<g id="Node000002" class="node">
<title>Node2</title>
<g id="a_Node000002"><a xlink:href="class_fiea_1_1_engine_1_1_content_1_1_attributed.html#afb5756182b73d6326b8021f88ee51877" target="_top" xlink:title="Retrieves all instance attribute names.">
<polygon fill="white" stroke="#666666" points="286.25,-57 136.75,-57 136.75,-25 286.25,-25 286.25,-57"/>
<text xml:space="preserve" text-anchor="start" x="144.75" y="-43.5" font-family="Helvetica,sans-Serif" font-size="10.00">Fiea::Engine::Content</text>
<text xml:space="preserve" text-anchor="middle" x="211.5" y="-31.5" font-family="Helvetica,sans-Serif" font-size="10.00">::Attributed::InstanceAttributes</text>
</a>
</g>
</g>
<!-- Node1&#45;&gt;Node2 -->
<g id="edge1_Node000001_Node000002" class="edge">
<title>Node1&#45;&gt;Node2</title>
<g id="a_edge1_Node000001_Node000002"><a xlink:title=" ">
<path fill="none" stroke="#63b8ff" d="M310.66,-41C302.61,-41 294.5,-41 286.58,-41"/>
<polygon fill="#63b8ff" stroke="#63b8ff" points="310.47,-44.5 320.47,-41 310.47,-37.5 310.47,-44.5"/>
</a>
</g>
</g>
<!-- Node3 -->
<g id="Node000003" class="node">
<title>Node3</title>
<g id="a_Node000003"><a xlink:href="namespace_fiea_1_1_engine_1_1_tests.html#ad7d06bf277bf903f5dbc3982540b1563" target="_top" xlink:title=" ">
<polygon fill="white" stroke="#666666" points="100.75,-91 0,-91 0,-59 100.75,-59 100.75,-91"/>
<text xml:space="preserve" text-anchor="start" x="8" y="-77.5" font-family="Helvetica,sans-Serif" font-size="10.00">Fiea::Engine::Tests</text>
<text xml:space="preserve" text-anchor="middle" x="50.38" y="-65.5" font-family="Helvetica,sans-Serif" font-size="10.00">::TEST_CLASS</text>
</a>
</g>
</g>
<!-- Node1&#45;&gt;Node3 -->
<g id="edge4_Node000001_Node000003" class="edge">
<title>Node1&#45;&gt;Node3</title>
<g id="a_edge4_Node000001_Node000003"><a xlink:title=" ">
<path fill="none" stroke="#63b8ff" d="M322.49,-59.81C310.44,-62.27 298.05,-64.46 286.25,-66 222.72,-74.28 148.77,-75.79 101.08,-75.72"/>
<polygon fill="#63b8ff" stroke="#63b8ff" points="322.9,-63.3 331.96,-57.81 321.45,-56.45 322.9,-63.3"/>
</a>
</g>
</g>
<!-- Node4 -->
<g id="Node000004" class="node">
<title>Node4</title>
<g id="a_Node000004"><a xlink:href="namespace_fiea_1_1_engine_1_1_tests.html#a3cdcf27a81b8b07fd7e0f633fb413ca8" target="_top" xlink:title=" ">
<polygon fill="white" stroke="#666666" points="100.75,-32 0,-32 0,0 100.75,0 100.75,-32"/>
<text xml:space="preserve" text-anchor="start" x="8" y="-18.5" font-family="Helvetica,sans-Serif" font-size="10.00">Fiea::Engine::Tests</text>
<text xml:space="preserve" text-anchor="middle" x="50.38" y="-6.5" font-family="Helvetica,sans-Serif" font-size="10.00">::TEST_CLASS</text>
</a>
</g>
</g>
<!-- Node1&#45;&gt;Node4 -->
<g id="edge5_Node000001_Node000004" class="edge">
<title>Node1&#45;&gt;Node4</title>
<g id="a_edge5_Node000001_Node000004"><a xlink:title=" ">
<path fill="none" stroke="#63b8ff" d="M324.54,-22.19C311.85,-19.62 298.73,-17.38 286.25,-16 222.62,-8.94 148.7,-10.54 101.04,-12.83"/>
<polygon fill="#63b8ff" stroke="#63b8ff" points="323.55,-25.56 334.06,-24.22 325.01,-18.72 323.55,-25.56"/>
</a>
</g>
</g>
<!-- Node2&#45;&gt;Node3 -->
<g id="edge2_Node000002_Node000003" class="edge">
<title>Node2&#45;&gt;Node3</title>
<g id="a_edge2_Node000002_Node000003"><a xlink:title=" ">
<path fill="none" stroke="#63b8ff" d="M125.53,-59.16C117.18,-60.94 108.91,-62.71 101.08,-64.38"/>
<polygon fill="#63b8ff" stroke="#63b8ff" points="126,-62.63 135.05,-57.12 124.54,-55.79 126,-62.63"/>
</a>
</g>
</g>
<!-- Node2&#45;&gt;Node4 -->
<g id="edge3_Node000002_Node000004" class="edge">
<title>Node2&#45;&gt;Node4</title>
<g id="a_edge3_Node000002_Node000004"><a xlink:title=" ">
<path fill="none" stroke="#63b8ff" d="M125.25,-27.61C116.99,-26.31 108.82,-25.02 101.08,-23.81"/>
<polygon fill="#63b8ff" stroke="#63b8ff" points="124.61,-31.05 135.03,-29.14 125.7,-24.13 124.61,-31.05"/>
</a>
</g>
</g>
</g>
</svg>
