<?xml version="1.0" encoding="UTF-8" standalone="no"?>
<!DOCTYPE svg PUBLIC "-//W3C//DTD SVG 1.1//EN"
 "http://www.w3.org/Graphics/SVG/1.1/DTD/svg11.dtd">
<!-- Generated by graphviz version 13.1.0 (20250701.0955)
 -->
<!-- Title: Fiea::Engine::Content::ContentService Pages: 1 -->
<svg width="267pt" height="190pt"
 viewBox="0.00 0.00 267.00 190.00" xmlns="http://www.w3.org/2000/svg" xmlns:xlink="http://www.w3.org/1999/xlink">
<g id="graph0" class="graph" transform="scale(1 1) rotate(0) translate(4 186)">
<title>Fiea::Engine::Content::ContentService</title>
<!-- Node1 -->
<g id="Node000001" class="node">
<title>Node1</title>
<g id="a_Node000001"><a xlink:title=" ">
<polygon fill="#999999" stroke="#666666" points="258.5,-107 147.25,-107 147.25,-75 258.5,-75 258.5,-107"/>
<text xml:space="preserve" text-anchor="start" x="155.25" y="-93.5" font-family="Helvetica,sans-Serif" font-size="10.00">Fiea::Engine::Content</text>
<text xml:space="preserve" text-anchor="middle" x="202.88" y="-81.5" font-family="Helvetica,sans-Serif" font-size="10.00">::ContentService</text>
</a>
</g>
</g>
<!-- Node2 -->
<g id="Node000002" class="node">
<title>Node2</title>
<g id="a_Node000002"><a xlink:href="struct_fiea_1_1_engine_1_1_content_1_1_i_type_registrar.html" target="_top" xlink:title=" ">
<polygon fill="white" stroke="#666666" points="111.25,-182 0,-182 0,-150 111.25,-150 111.25,-182"/>
<text xml:space="preserve" text-anchor="start" x="8" y="-168.5" font-family="Helvetica,sans-Serif" font-size="10.00">Fiea::Engine::Content</text>
<text xml:space="preserve" text-anchor="middle" x="55.62" y="-156.5" font-family="Helvetica,sans-Serif" font-size="10.00">::ITypeRegistrar</text>
</a>
</g>
</g>
<!-- Node2&#45;&gt;Node1 -->
<g id="edge1_Node000001_Node000002" class="edge">
<title>Node2&#45;&gt;Node1</title>
<g id="a_edge1_Node000001_Node000002"><a xlink:title=" ">
<path fill="none" stroke="#63b8ff" d="M103.89,-144.64C106.39,-143.43 108.85,-142.21 111.25,-141 132.43,-130.33 155.87,-117.37 173.6,-107.32"/>
<polygon fill="#63b8ff" stroke="#63b8ff" points="102.43,-141.46 94.9,-148.91 105.43,-147.78 102.43,-141.46"/>
</a>
</g>
</g>
<!-- Node3 -->
<g id="Node000003" class="node">
<title>Node3</title>
<g id="a_Node000003"><a xlink:href="struct_fiea_1_1_engine_1_1_content_1_1_i_type_provider.html" target="_top" xlink:title=" ">
<polygon fill="white" stroke="#666666" points="111.25,-132 0,-132 0,-100 111.25,-100 111.25,-132"/>
<text xml:space="preserve" text-anchor="start" x="8" y="-118.5" font-family="Helvetica,sans-Serif" font-size="10.00">Fiea::Engine::Content</text>
<text xml:space="preserve" text-anchor="middle" x="55.62" y="-106.5" font-family="Helvetica,sans-Serif" font-size="10.00">::ITypeProvider</text>
</a>
</g>
</g>
<!-- Node3&#45;&gt;Node1 -->
<g id="edge2_Node000001_Node000003" class="edge">
<title>Node3&#45;&gt;Node1</title>
<g id="a_edge2_Node000001_Node000003"><a xlink:title=" ">
<path fill="none" stroke="#63b8ff" d="M122.81,-104.61C130.86,-103.22 139.02,-101.82 146.88,-100.46"/>
<polygon fill="#63b8ff" stroke="#63b8ff" points="122.29,-101.15 113.03,-106.29 123.48,-108.04 122.29,-101.15"/>
</a>
</g>
</g>
<!-- Node4 -->
<g id="Node000004" class="node">
<title>Node4</title>
<g id="a_Node000004"><a xlink:href="struct_fiea_1_1_engine_1_1_content_1_1_i_json_config.html" target="_top" xlink:title=" ">
<polygon fill="white" stroke="#666666" points="111.25,-82 0,-82 0,-50 111.25,-50 111.25,-82"/>
<text xml:space="preserve" text-anchor="start" x="8" y="-68.5" font-family="Helvetica,sans-Serif" font-size="10.00">Fiea::Engine::Content</text>
<text xml:space="preserve" text-anchor="middle" x="55.62" y="-56.5" font-family="Helvetica,sans-Serif" font-size="10.00">::IJsonConfig</text>
</a>
</g>
</g>
<!-- Node4&#45;&gt;Node1 -->
<g id="edge3_Node000001_Node000004" class="edge">
<title>Node4&#45;&gt;Node1</title>
<g id="a_edge3_Node000001_Node000004"><a xlink:title=" ">
<path fill="none" stroke="#63b8ff" d="M122.81,-77.39C130.86,-78.78 139.02,-80.18 146.88,-81.54"/>
<polygon fill="#63b8ff" stroke="#63b8ff" points="123.48,-73.96 113.03,-75.71 122.29,-80.85 123.48,-73.96"/>
</a>
</g>
</g>
<!-- Node5 -->
<g id="Node000005" class="node">
<title>Node5</title>
<g id="a_Node000005"><a xlink:href="struct_fiea_1_1_engine_1_1_content_1_1_i_json_parser.html" target="_top" xlink:title=" ">
<polygon fill="white" stroke="#666666" points="111.25,-32 0,-32 0,0 111.25,0 111.25,-32"/>
<text xml:space="preserve" text-anchor="start" x="8" y="-18.5" font-family="Helvetica,sans-Serif" font-size="10.00">Fiea::Engine::Content</text>
<text xml:space="preserve" text-anchor="middle" x="55.62" y="-6.5" font-family="Helvetica,sans-Serif" font-size="10.00">::IJsonParser</text>
</a>
</g>
</g>
<!-- Node5&#45;&gt;Node1 -->
<g id="edge4_Node000001_Node000005" class="edge">
<title>Node5&#45;&gt;Node1</title>
<g id="a_edge4_Node000001_Node000005"><a xlink:title=" ">
<path fill="none" stroke="#63b8ff" d="M103.89,-37.36C106.39,-38.57 108.85,-39.79 111.25,-41 132.43,-51.67 155.87,-64.63 173.6,-74.68"/>
<polygon fill="#63b8ff" stroke="#63b8ff" points="105.43,-34.22 94.9,-33.09 102.43,-40.54 105.43,-34.22"/>
</a>
</g>
</g>
</g>
</svg>
