<?xml version="1.0" encoding="UTF-8" standalone="no"?>
<!DOCTYPE svg PUBLIC "-//W3C//DTD SVG 1.1//EN"
 "http://www.w3.org/Graphics/SVG/1.1/DTD/svg11.dtd">
<!-- Generated by graphviz version 13.1.0 (20250701.0955)
 -->
<!-- Title: Fiea::Engine::Actions::ActionLoopIncrement::ActionLoopIncrement Pages: 1 -->
<svg width="868pt" height="220pt"
 viewBox="0.00 0.00 868.00 220.00" xmlns="http://www.w3.org/2000/svg" xmlns:xlink="http://www.w3.org/1999/xlink">
<g id="graph0" class="graph" transform="scale(1 1) rotate(0) translate(4 216)">
<title>Fiea::Engine::Actions::ActionLoopIncrement::ActionLoopIncrement</title>
<!-- Node1 -->
<g id="Node000001" class="node">
<title>Node1</title>
<g id="a_Node000001"><a xlink:title=" ">
<polygon fill="#999999" stroke="#666666" points="114.25,-154 0,-154 0,-110 114.25,-110 114.25,-154"/>
<text xml:space="preserve" text-anchor="start" x="8" y="-140.5" font-family="Helvetica,sans-Serif" font-size="10.00">Fiea::Engine::Actions</text>
<text xml:space="preserve" text-anchor="start" x="8" y="-128.5" font-family="Helvetica,sans-Serif" font-size="10.00">::ActionLoopIncrement</text>
<text xml:space="preserve" text-anchor="middle" x="57.12" y="-116.5" font-family="Helvetica,sans-Serif" font-size="10.00">::ActionLoopIncrement</text>
</a>
</g>
</g>
<!-- Node2 -->
<g id="Node000002" class="node">
<title>Node2</title>
<g id="a_Node000002"><a xlink:href="class_fiea_1_1_engine_1_1_actions_1_1_action_loop_increment.html#a4a5d402961fc7f77279d6e5871697cec" target="_top" xlink:title=" ">
<polygon fill="white" stroke="#666666" points="264.5,-154 150.25,-154 150.25,-110 264.5,-110 264.5,-154"/>
<text xml:space="preserve" text-anchor="start" x="158.25" y="-140.5" font-family="Helvetica,sans-Serif" font-size="10.00">Fiea::Engine::Actions</text>
<text xml:space="preserve" text-anchor="start" x="158.25" y="-128.5" font-family="Helvetica,sans-Serif" font-size="10.00">::ActionLoopIncrement</text>
<text xml:space="preserve" text-anchor="middle" x="207.38" y="-116.5" font-family="Helvetica,sans-Serif" font-size="10.00">::ActionLoopIncrement</text>
</a>
</g>
</g>
<!-- Node1&#45;&gt;Node2 -->
<g id="edge1_Node000001_Node000002" class="edge">
<title>Node1&#45;&gt;Node2</title>
<g id="a_edge1_Node000001_Node000002"><a xlink:title=" ">
<path fill="none" stroke="#63b8ff" d="M114.59,-132C122.49,-132 130.67,-132 138.75,-132"/>
<polygon fill="#63b8ff" stroke="#63b8ff" points="138.55,-135.5 148.55,-132 138.55,-128.5 138.55,-135.5"/>
</a>
</g>
</g>
<!-- Node3 -->
<g id="Node000003" class="node">
<title>Node3</title>
<g id="a_Node000003"><a xlink:href="class_fiea_1_1_engine_1_1_actions_1_1_action.html#ae2af386f7122152003b00da79393e19e" target="_top" xlink:title=" ">
<polygon fill="white" stroke="#666666" points="410.25,-170 300.5,-170 300.5,-138 410.25,-138 410.25,-170"/>
<text xml:space="preserve" text-anchor="start" x="308.5" y="-156.5" font-family="Helvetica,sans-Serif" font-size="10.00">Fiea::Engine::Actions</text>
<text xml:space="preserve" text-anchor="middle" x="355.38" y="-144.5" font-family="Helvetica,sans-Serif" font-size="10.00">::Action::Action</text>
</a>
</g>
</g>
<!-- Node2&#45;&gt;Node3 -->
<g id="edge2_Node000002_Node000003" class="edge">
<title>Node2&#45;&gt;Node3</title>
<g id="a_edge2_Node000002_Node000003"><a xlink:title=" ">
<path fill="none" stroke="#63b8ff" d="M264.82,-140.51C272.79,-141.71 281.03,-142.95 289.14,-144.17"/>
<polygon fill="#63b8ff" stroke="#63b8ff" points="288.57,-147.62 298.98,-145.65 289.61,-140.7 288.57,-147.62"/>
</a>
</g>
</g>
<!-- Node5 -->
<g id="Node000005" class="node">
<title>Node5</title>
<g id="a_Node000005"><a xlink:href="class_fiea_1_1_engine_1_1_r_t_t_i.html#a876bebbe7b3149483c43a87f55f4ea99" target="_top" xlink:title=" ">
<polygon fill="white" stroke="#666666" points="551.5,-126 453,-126 453,-94 551.5,-94 551.5,-126"/>
<text xml:space="preserve" text-anchor="start" x="461" y="-112.5" font-family="Helvetica,sans-Serif" font-size="10.00">Fiea::Engine::RTTI</text>
<text xml:space="preserve" text-anchor="middle" x="502.25" y="-100.5" font-family="Helvetica,sans-Serif" font-size="10.00">::TypeIdInstance</text>
</a>
</g>
</g>
<!-- Node2&#45;&gt;Node5 -->
<g id="edge15_Node000002_Node000005" class="edge">
<title>Node2&#45;&gt;Node5</title>
<g id="a_edge15_Node000002_Node000005"><a xlink:title=" ">
<path fill="none" stroke="#63b8ff" d="M264.84,-127.76C315.53,-123.95 389.7,-118.38 441.4,-114.5"/>
<polygon fill="#63b8ff" stroke="#63b8ff" points="441.5,-118 451.21,-113.76 440.98,-111.02 441.5,-118"/>
</a>
</g>
</g>
<!-- Node4 -->
<g id="Node000004" class="node">
<title>Node4</title>
<g id="a_Node000004"><a xlink:href="class_fiea_1_1_engine_1_1_content_1_1_attributed.html#ad1ae014235d9d8b62b36066c94164148" target="_top" xlink:title=" ">
<polygon fill="white" stroke="#666666" points="558.25,-194 446.25,-194 446.25,-162 558.25,-162 558.25,-194"/>
<text xml:space="preserve" text-anchor="start" x="454.25" y="-180.5" font-family="Helvetica,sans-Serif" font-size="10.00">Fiea::Engine::Content</text>
<text xml:space="preserve" text-anchor="middle" x="502.25" y="-168.5" font-family="Helvetica,sans-Serif" font-size="10.00">::Attributed::Attributed</text>
</a>
</g>
</g>
<!-- Node3&#45;&gt;Node4 -->
<g id="edge3_Node000003_Node000004" class="edge">
<title>Node3&#45;&gt;Node4</title>
<g id="a_edge3_Node000003_Node000004"><a xlink:title=" ">
<path fill="none" stroke="#63b8ff" d="M410.73,-163C418.59,-164.31 426.75,-165.66 434.82,-166.99"/>
<polygon fill="#63b8ff" stroke="#63b8ff" points="434.17,-170.44 444.61,-168.62 435.32,-163.53 434.17,-170.44"/>
</a>
</g>
</g>
<!-- Node3&#45;&gt;Node5 -->
<g id="edge5_Node000003_Node000005" class="edge">
<title>Node3&#45;&gt;Node5</title>
<g id="a_edge5_Node000003_Node000005"><a xlink:title=" ">
<path fill="none" stroke="#63b8ff" d="M410.32,-137.62C420.59,-134.5 431.39,-131.22 441.82,-128.05"/>
<polygon fill="#63b8ff" stroke="#63b8ff" points="442.52,-131.5 451.07,-125.24 440.48,-124.8 442.52,-131.5"/>
</a>
</g>
</g>
<!-- Node4&#45;&gt;Node4 -->
<g id="edge4_Node000004_Node000004" class="edge">
<title>Node4&#45;&gt;Node4</title>
<g id="a_edge4_Node000004_Node000004"><a xlink:title=" ">
<path fill="none" stroke="#63b8ff" d="M476.03,-194.44C471.13,-203.58 479.87,-212 502.25,-212 514.49,-212 522.65,-209.48 526.73,-205.71"/>
<polygon fill="#63b8ff" stroke="#63b8ff" points="530.17,-206.36 528.24,-195.94 523.25,-205.28 530.17,-206.36"/>
</a>
</g>
</g>
<!-- Node5&#45;&gt;Node5 -->
<g id="edge14_Node000005_Node000005" class="edge">
<title>Node5&#45;&gt;Node5</title>
<g id="a_edge14_Node000005_Node000005"><a xlink:title=" ">
<path fill="none" stroke="#63b8ff" d="M476.03,-126.44C471.13,-135.58 479.87,-144 502.25,-144 514.49,-144 522.65,-141.48 526.73,-137.71"/>
<polygon fill="#63b8ff" stroke="#63b8ff" points="530.17,-138.36 528.24,-127.94 523.25,-137.28 530.17,-138.36"/>
</a>
</g>
</g>
<!-- Node6 -->
<g id="Node000006" class="node">
<title>Node6</title>
<g id="a_Node000006"><a xlink:href="class_fiea_1_1_engine_1_1_r_t_t_i.html#a15bd5993c8ad04da47af440298ebbb30" target="_top" xlink:title=" ">
<polygon fill="white" stroke="#666666" points="710.75,-158 594.25,-158 594.25,-138 710.75,-138 710.75,-158"/>
<text xml:space="preserve" text-anchor="middle" x="652.5" y="-144.5" font-family="Helvetica,sans-Serif" font-size="10.00">Fiea::Engine::RTTI::As</text>
</a>
</g>
</g>
<!-- Node5&#45;&gt;Node6 -->
<g id="edge6_Node000005_Node000006" class="edge">
<title>Node5&#45;&gt;Node6</title>
<g id="a_edge6_Node000005_Node000006"><a xlink:title=" ">
<path fill="none" stroke="#63b8ff" d="M551.79,-122.44C567.15,-126.38 584.18,-130.74 599.75,-134.74"/>
<polygon fill="#63b8ff" stroke="#63b8ff" points="598.77,-138.1 609.32,-137.19 600.5,-131.32 598.77,-138.1"/>
</a>
</g>
</g>
<!-- Node7 -->
<g id="Node000007" class="node">
<title>Node7</title>
<g id="a_Node000007"><a xlink:href="class_fiea_1_1_engine_1_1_r_t_t_i.html#ac0a7d875e4513b2aca7594abcd4418ef" target="_top" xlink:title=" ">
<polygon fill="white" stroke="#666666" points="859.5,-180 746.75,-180 746.75,-160 859.5,-160 859.5,-180"/>
<text xml:space="preserve" text-anchor="middle" x="803.12" y="-166.5" font-family="Helvetica,sans-Serif" font-size="10.00">Fiea::Engine::RTTI::Is</text>
</a>
</g>
</g>
<!-- Node5&#45;&gt;Node7 -->
<g id="edge11_Node000005_Node000007" class="edge">
<title>Node5&#45;&gt;Node7</title>
<g id="a_edge11_Node000005_Node000007"><a xlink:title=" ">
<path fill="none" stroke="#63b8ff" d="M522.3,-126.34C539.73,-140.14 566.89,-158.93 594.25,-167 639.97,-180.5 693.85,-180.86 735.3,-178.06"/>
<polygon fill="#63b8ff" stroke="#63b8ff" points="735.43,-181.56 745.13,-177.31 734.89,-174.58 735.43,-181.56"/>
</a>
</g>
</g>
<!-- Node8 -->
<g id="Node000008" class="node">
<title>Node8</title>
<g id="a_Node000008"><a xlink:href="class_fiea_1_1_engine_1_1_r_t_t_i.html#a13000029a2e6cced30b831e466e07cae" target="_top" xlink:title=" ">
<polygon fill="white" stroke="#666666" points="852.38,-126 753.88,-126 753.88,-94 852.38,-94 852.38,-126"/>
<text xml:space="preserve" text-anchor="start" x="761.88" y="-112.5" font-family="Helvetica,sans-Serif" font-size="10.00">Fiea::Engine::RTTI</text>
<text xml:space="preserve" text-anchor="middle" x="803.12" y="-100.5" font-family="Helvetica,sans-Serif" font-size="10.00">::RTTI</text>
</a>
</g>
</g>
<!-- Node5&#45;&gt;Node8 -->
<g id="edge12_Node000005_Node000008" class="edge">
<title>Node5&#45;&gt;Node8</title>
<g id="a_edge12_Node000005_Node000008"><a xlink:title=" ">
<path fill="none" stroke="#63b8ff" d="M551.93,-110C603.82,-110 686.04,-110 741.95,-110"/>
<polygon fill="#63b8ff" stroke="#63b8ff" points="741.95,-113.5 751.95,-110 741.95,-106.5 741.95,-113.5"/>
</a>
</g>
</g>
<!-- Node9 -->
<g id="Node000009" class="node">
<title>Node9</title>
<g id="a_Node000009"><a xlink:href="class_fiea_1_1_engine_1_1_r_t_t_i.html#a7f70ad5ba0f8a3388543d63d72892575" target="_top" xlink:title=" ">
<polygon fill="white" stroke="#666666" points="701.75,-82 603.25,-82 603.25,-50 701.75,-50 701.75,-82"/>
<text xml:space="preserve" text-anchor="start" x="611.25" y="-68.5" font-family="Helvetica,sans-Serif" font-size="10.00">Fiea::Engine::RTTI</text>
<text xml:space="preserve" text-anchor="middle" x="652.5" y="-56.5" font-family="Helvetica,sans-Serif" font-size="10.00">::Equals</text>
</a>
</g>
</g>
<!-- Node5&#45;&gt;Node9 -->
<g id="edge9_Node000005_Node000009" class="edge">
<title>Node5&#45;&gt;Node9</title>
<g id="a_edge9_Node000005_Node000009"><a xlink:title=" ">
<path fill="none" stroke="#63b8ff" d="M551.79,-95.59C564.59,-91.79 578.55,-87.65 591.86,-83.7"/>
<polygon fill="#63b8ff" stroke="#63b8ff" points="592.81,-87.07 601.4,-80.87 590.81,-80.36 592.81,-87.07"/>
</a>
</g>
</g>
<!-- Node10 -->
<g id="Node000010" class="node">
<title>Node10</title>
<g id="a_Node000010"><a xlink:href="class_fiea_1_1_engine_1_1_r_t_t_i.html#a43a7d187e332a17d2c699bc2c8136a30" target="_top" xlink:title=" ">
<polygon fill="white" stroke="#666666" points="701.75,-32 603.25,-32 603.25,0 701.75,0 701.75,-32"/>
<text xml:space="preserve" text-anchor="start" x="611.25" y="-18.5" font-family="Helvetica,sans-Serif" font-size="10.00">Fiea::Engine::RTTI</text>
<text xml:space="preserve" text-anchor="middle" x="652.5" y="-6.5" font-family="Helvetica,sans-Serif" font-size="10.00">::ToString</text>
</a>
</g>
</g>
<!-- Node5&#45;&gt;Node10 -->
<g id="edge13_Node000005_Node000010" class="edge">
<title>Node5&#45;&gt;Node10</title>
<g id="a_edge13_Node000005_Node000010"><a xlink:title=" ">
<path fill="none" stroke="#63b8ff" d="M522.19,-93.51C539.97,-78.56 567.74,-56.54 594.25,-41 596.26,-39.82 598.34,-38.66 600.45,-37.53"/>
<polygon fill="#63b8ff" stroke="#63b8ff" points="601.84,-40.75 609.21,-33.13 598.7,-34.5 601.84,-40.75"/>
</a>
</g>
</g>
<!-- Node6&#45;&gt;Node7 -->
<g id="edge7_Node000006_Node000007" class="edge">
<title>Node6&#45;&gt;Node7</title>
<g id="a_edge7_Node000006_Node000007"><a xlink:title=" ">
<path fill="none" stroke="#63b8ff" d="M710.96,-156.51C718.85,-157.67 727,-158.88 735.03,-160.07"/>
<polygon fill="#63b8ff" stroke="#63b8ff" points="734.38,-163.51 744.78,-161.51 735.41,-156.59 734.38,-163.51"/>
</a>
</g>
</g>
<!-- Node6&#45;&gt;Node8 -->
<g id="edge8_Node000006_Node000008" class="edge">
<title>Node6&#45;&gt;Node8</title>
<g id="a_edge8_Node000006_Node000008"><a xlink:title=" ">
<path fill="none" stroke="#63b8ff" d="M694.51,-137.52C709.38,-133.71 726.49,-129.34 742.63,-125.21"/>
<polygon fill="#63b8ff" stroke="#63b8ff" points="743.32,-128.65 752.14,-122.78 741.59,-121.87 743.32,-128.65"/>
</a>
</g>
</g>
<!-- Node9&#45;&gt;Node8 -->
<g id="edge10_Node000009_Node000008" class="edge">
<title>Node9&#45;&gt;Node8</title>
<g id="a_edge10_Node000009_Node000008"><a xlink:title=" ">
<path fill="none" stroke="#63b8ff" d="M702.17,-80.41C715.19,-84.26 729.42,-88.47 742.94,-92.48"/>
<polygon fill="#63b8ff" stroke="#63b8ff" points="741.57,-95.72 752.15,-95.21 743.56,-89.01 741.57,-95.72"/>
</a>
</g>
</g>
</g>
</svg>
