<?xml version="1.0" encoding="UTF-8" standalone="no"?>
<!DOCTYPE svg PUBLIC "-//W3C//DTD SVG 1.1//EN"
 "http://www.w3.org/Graphics/SVG/1.1/DTD/svg11.dtd">
<!-- Generated by graphviz version 13.1.0 (20250701.0955)
 -->
<!-- Title: Fiea::Engine::Clock::ClockService::GetSystemTimeInSeconds Pages: 1 -->
<svg width="347pt" height="90pt"
 viewBox="0.00 0.00 347.00 90.00" xmlns="http://www.w3.org/2000/svg" xmlns:xlink="http://www.w3.org/1999/xlink">
<g id="graph0" class="graph" transform="scale(1 1) rotate(0) translate(4 86)">
<title>Fiea::Engine::Clock::ClockService::GetSystemTimeInSeconds</title>
<!-- Node1 -->
<g id="Node000001" class="node">
<title>Node1</title>
<g id="a_Node000001"><a xlink:title=" ">
<polygon fill="#999999" stroke="#666666" points="338.75,-63 181,-63 181,-19 338.75,-19 338.75,-63"/>
<text xml:space="preserve" text-anchor="start" x="189" y="-49.5" font-family="Helvetica,sans-Serif" font-size="10.00">Fiea::Engine::Clock</text>
<text xml:space="preserve" text-anchor="start" x="189" y="-37.5" font-family="Helvetica,sans-Serif" font-size="10.00">::ClockService::GetSystemTime</text>
<text xml:space="preserve" text-anchor="middle" x="259.88" y="-25.5" font-family="Helvetica,sans-Serif" font-size="10.00">InSeconds</text>
</a>
</g>
</g>
<!-- Node2 -->
<g id="Node000002" class="node">
<title>Node2</title>
<g id="a_Node000002"><a xlink:href="class_fiea_1_1_engine_1_1_clock_1_1_clock_service.html#ac154482fa65ff4e553df14de0918f9ae" target="_top" xlink:title=" ">
<polygon fill="white" stroke="#666666" points="145,-82 0,-82 0,-50 145,-50 145,-82"/>
<text xml:space="preserve" text-anchor="start" x="8" y="-68.5" font-family="Helvetica,sans-Serif" font-size="10.00">Fiea::Engine::Clock</text>
<text xml:space="preserve" text-anchor="middle" x="72.5" y="-56.5" font-family="Helvetica,sans-Serif" font-size="10.00">::ClockService::ClockService</text>
</a>
</g>
</g>
<!-- Node1&#45;&gt;Node2 -->
<g id="edge1_Node000001_Node000002" class="edge">
<title>Node1&#45;&gt;Node2</title>
<g id="a_edge1_Node000001_Node000002"><a xlink:title=" ">
<path fill="none" stroke="#63b8ff" d="M169.25,-53.09C161.25,-54.17 153.21,-55.25 145.38,-56.31"/>
<polygon fill="#63b8ff" stroke="#63b8ff" points="169.59,-56.57 179.03,-51.77 168.65,-49.64 169.59,-56.57"/>
</a>
</g>
</g>
<!-- Node3 -->
<g id="Node000003" class="node">
<title>Node3</title>
<g id="a_Node000003"><a xlink:href="class_fiea_1_1_engine_1_1_clock_1_1_clock_service.html#ab368d1f8f012811cfa089ce7b296b4df" target="_top" xlink:title=" ">
<polygon fill="white" stroke="#666666" points="131.5,-32 13.5,-32 13.5,0 131.5,0 131.5,-32"/>
<text xml:space="preserve" text-anchor="start" x="21.5" y="-18.5" font-family="Helvetica,sans-Serif" font-size="10.00">Fiea::Engine::Clock</text>
<text xml:space="preserve" text-anchor="middle" x="72.5" y="-6.5" font-family="Helvetica,sans-Serif" font-size="10.00">::ClockService::Update</text>
</a>
</g>
</g>
<!-- Node1&#45;&gt;Node3 -->
<g id="edge2_Node000001_Node000003" class="edge">
<title>Node1&#45;&gt;Node3</title>
<g id="a_edge2_Node000001_Node000003"><a xlink:title=" ">
<path fill="none" stroke="#63b8ff" d="M169.38,-28.93C156.64,-27.21 143.82,-25.48 131.88,-23.87"/>
<polygon fill="#63b8ff" stroke="#63b8ff" points="168.65,-32.36 179.03,-30.23 169.59,-25.43 168.65,-32.36"/>
</a>
</g>
</g>
</g>
</svg>
