<?xml version="1.0" encoding="UTF-8" standalone="no"?>
<!DOCTYPE svg PUBLIC "-//W3C//DTD SVG 1.1//EN"
 "http://www.w3.org/Graphics/SVG/1.1/DTD/svg11.dtd">
<!-- Generated by graphviz version 13.1.0 (20250701.0955)
 -->
<!-- Title: Fiea::Engine::Content::Datum::Size Pages: 1 -->
<svg width="617pt" height="966pt"
 viewBox="0.00 0.00 617.00 966.00" xmlns="http://www.w3.org/2000/svg" xmlns:xlink="http://www.w3.org/1999/xlink">
<g id="graph0" class="graph" transform="scale(1 1) rotate(0) translate(4 962)">
<title>Fiea::Engine::Content::Datum::Size</title>
<!-- Node1 -->
<g id="Node000001" class="node">
<title>Node1</title>
<g id="a_Node000001"><a xlink:title=" ">
<polygon fill="#999999" stroke="#666666" points="609.25,-498 498,-498 498,-466 609.25,-466 609.25,-498"/>
<text xml:space="preserve" text-anchor="start" x="506" y="-484.5" font-family="Helvetica,sans-Serif" font-size="10.00">Fiea::Engine::Content</text>
<text xml:space="preserve" text-anchor="middle" x="553.62" y="-472.5" font-family="Helvetica,sans-Serif" font-size="10.00">::Datum::Size</text>
</a>
</g>
</g>
<!-- Node2 -->
<g id="Node000002" class="node">
<title>Node2</title>
<g id="a_Node000002"><a xlink:href="class_fiea_1_1_engine_1_1_content_1_1_scope_writer.html#a138420169c6f0541ec537c660bd4ac67" target="_top" xlink:title=" ">
<polygon fill="white" stroke="#666666" points="456.38,-958 309.88,-958 309.88,-926 456.38,-926 456.38,-958"/>
<text xml:space="preserve" text-anchor="start" x="317.88" y="-944.5" font-family="Helvetica,sans-Serif" font-size="10.00">Fiea::Engine::Content</text>
<text xml:space="preserve" text-anchor="middle" x="383.12" y="-932.5" font-family="Helvetica,sans-Serif" font-size="10.00">::ScopeWriter::AddMatrixType</text>
</a>
</g>
</g>
<!-- Node1&#45;&gt;Node2 -->
<g id="edge1_Node000001_Node000002" class="edge">
<title>Node1&#45;&gt;Node2</title>
<g id="a_edge1_Node000001_Node000002"><a xlink:title=" ">
<path fill="none" stroke="#63b8ff" d="M550.47,-509.5C543.21,-595.29 516.96,-855.92 462,-917 459.06,-920.27 455.68,-923.12 452.03,-925.59"/>
<polygon fill="#63b8ff" stroke="#63b8ff" points="553.94,-509.92 551.28,-499.66 546.97,-509.34 553.94,-509.92"/>
</a>
</g>
</g>
<!-- Node4 -->
<g id="Node000004" class="node">
<title>Node4</title>
<g id="a_Node000004"><a xlink:href="class_fiea_1_1_engine_1_1_content_1_1_scope_writer.html#a028f763e7b7c95ba5d53fb121a832583" target="_top" xlink:title=" ">
<polygon fill="white" stroke="#666666" points="462,-858 304.25,-858 304.25,-826 462,-826 462,-858"/>
<text xml:space="preserve" text-anchor="start" x="312.25" y="-844.5" font-family="Helvetica,sans-Serif" font-size="10.00">Fiea::Engine::Content</text>
<text xml:space="preserve" text-anchor="middle" x="383.12" y="-832.5" font-family="Helvetica,sans-Serif" font-size="10.00">::ScopeWriter::AddPrimitiveType</text>
</a>
</g>
</g>
<!-- Node1&#45;&gt;Node4 -->
<g id="edge3_Node000001_Node000004" class="edge">
<title>Node1&#45;&gt;Node4</title>
<g id="a_edge3_Node000001_Node000004"><a xlink:title=" ">
<path fill="none" stroke="#63b8ff" d="M553.45,-509.53C553.81,-572.7 545.66,-729.36 462,-817 458.86,-820.29 455.29,-823.14 451.45,-825.62"/>
<polygon fill="#63b8ff" stroke="#63b8ff" points="556.95,-509.65 553.31,-499.7 549.96,-509.75 556.95,-509.65"/>
</a>
</g>
</g>
<!-- Node6 -->
<g id="Node000006" class="node">
<title>Node6</title>
<g id="a_Node000006"><a xlink:href="class_fiea_1_1_engine_1_1_content_1_1_scope_writer.html#ab193d237036951e2e814316bbfe9b87b" target="_top" xlink:title=" ">
<polygon fill="white" stroke="#666666" points="456.75,-908 309.5,-908 309.5,-876 456.75,-876 456.75,-908"/>
<text xml:space="preserve" text-anchor="start" x="317.5" y="-894.5" font-family="Helvetica,sans-Serif" font-size="10.00">Fiea::Engine::Content</text>
<text xml:space="preserve" text-anchor="middle" x="383.12" y="-882.5" font-family="Helvetica,sans-Serif" font-size="10.00">::ScopeWriter::AddVectorType</text>
</a>
</g>
</g>
<!-- Node1&#45;&gt;Node6 -->
<g id="edge5_Node000001_Node000006" class="edge">
<title>Node1&#45;&gt;Node6</title>
<g id="a_edge5_Node000001_Node000006"><a xlink:title=" ">
<path fill="none" stroke="#63b8ff" d="M549.66,-509.46C540.62,-588.45 510.97,-813.98 462,-867 459.01,-870.23 455.61,-873.05 451.93,-875.5"/>
<polygon fill="#63b8ff" stroke="#63b8ff" points="553.09,-510.33 550.72,-500 546.13,-509.55 553.09,-510.33"/>
</a>
</g>
</g>
<!-- Node7 -->
<g id="Node000007" class="node">
<title>Node7</title>
<g id="a_Node000007"><a xlink:href="class_fiea_1_1_engine_1_1_actions_1_1_action_delayed.html#a83565992cd6fe62828ba89cb8f572513" target="_top" xlink:title=" ">
<polygon fill="white" stroke="#666666" points="460.88,-808 305.38,-808 305.38,-776 460.88,-776 460.88,-808"/>
<text xml:space="preserve" text-anchor="start" x="313.38" y="-794.5" font-family="Helvetica,sans-Serif" font-size="10.00">Fiea::Engine::Actions</text>
<text xml:space="preserve" text-anchor="middle" x="383.12" y="-782.5" font-family="Helvetica,sans-Serif" font-size="10.00">::ActionDelayed::CleanupAction</text>
</a>
</g>
</g>
<!-- Node1&#45;&gt;Node7 -->
<g id="edge7_Node000001_Node000007" class="edge">
<title>Node1&#45;&gt;Node7</title>
<g id="a_edge7_Node000001_Node000007"><a xlink:title=" ">
<path fill="none" stroke="#63b8ff" d="M551.87,-509.66C548.82,-566.02 533.9,-694.9 462,-767 458.69,-770.32 454.94,-773.2 450.92,-775.69"/>
<polygon fill="#63b8ff" stroke="#63b8ff" points="555.35,-510.13 552.3,-499.99 548.36,-509.82 555.35,-510.13"/>
</a>
</g>
</g>
<!-- Node8 -->
<g id="Node000008" class="node">
<title>Node8</title>
<g id="a_Node000008"><a xlink:href="class_fiea_1_1_engine_1_1_actions_1_1_action_list.html#a7e02ca4299cca5d542f6e140a7cadc55" target="_top" xlink:title=" ">
<polygon fill="white" stroke="#666666" points="450.75,-758 315.5,-758 315.5,-726 450.75,-726 450.75,-758"/>
<text xml:space="preserve" text-anchor="start" x="323.5" y="-744.5" font-family="Helvetica,sans-Serif" font-size="10.00">Fiea::Engine::Actions</text>
<text xml:space="preserve" text-anchor="middle" x="383.12" y="-732.5" font-family="Helvetica,sans-Serif" font-size="10.00">::ActionList::CleanupAction</text>
</a>
</g>
</g>
<!-- Node1&#45;&gt;Node8 -->
<g id="edge8_Node000001_Node000008" class="edge">
<title>Node1&#45;&gt;Node8</title>
<g id="a_edge8_Node000001_Node000008"><a xlink:title=" ">
<path fill="none" stroke="#63b8ff" d="M549.7,-509.5C543.05,-558.24 522.38,-659.99 462,-717 458.49,-720.31 454.54,-723.19 450.32,-725.68"/>
<polygon fill="#63b8ff" stroke="#63b8ff" points="553.14,-510.17 550.91,-499.82 546.19,-509.3 553.14,-510.17"/>
</a>
</g>
</g>
<!-- Node9 -->
<g id="Node000009" class="node">
<title>Node9</title>
<g id="a_Node000009"><a xlink:href="class_fiea_1_1_engine_1_1_actions_1_1_action_list_while_loop.html#ae017bdc5b560cb6fb9f84a50c545c2ed" target="_top" xlink:title=" ">
<polygon fill="white" stroke="#666666" points="438.75,-708 327.5,-708 327.5,-664 438.75,-664 438.75,-708"/>
<text xml:space="preserve" text-anchor="start" x="335.5" y="-694.5" font-family="Helvetica,sans-Serif" font-size="10.00">Fiea::Engine::Actions</text>
<text xml:space="preserve" text-anchor="start" x="335.5" y="-682.5" font-family="Helvetica,sans-Serif" font-size="10.00">::ActionListWhileLoop</text>
<text xml:space="preserve" text-anchor="middle" x="383.12" y="-670.5" font-family="Helvetica,sans-Serif" font-size="10.00">::CleanupAction</text>
</a>
</g>
</g>
<!-- Node1&#45;&gt;Node9 -->
<g id="edge9_Node000001_Node000009" class="edge">
<title>Node1&#45;&gt;Node9</title>
<g id="a_edge9_Node000001_Node000009"><a xlink:title=" ">
<path fill="none" stroke="#63b8ff" d="M545.01,-509.09C533.16,-546.68 506.85,-614.58 462,-655 455.3,-661.04 447.28,-665.97 438.96,-669.98"/>
<polygon fill="#63b8ff" stroke="#63b8ff" points="548.24,-510.5 547.8,-499.91 541.55,-508.47 548.24,-510.5"/>
</a>
</g>
</g>
<!-- Node10 -->
<g id="Node000010" class="node">
<title>Node10</title>
<g id="a_Node000010"><a xlink:href="class_fiea_1_1_engine_1_1_actions_1_1_action_timed.html#a6ba5b5e467a4772e9f3a598b3065a9f4" target="_top" xlink:title=" ">
<polygon fill="white" stroke="#666666" points="456.38,-646 309.88,-646 309.88,-614 456.38,-614 456.38,-646"/>
<text xml:space="preserve" text-anchor="start" x="317.88" y="-632.5" font-family="Helvetica,sans-Serif" font-size="10.00">Fiea::Engine::Actions</text>
<text xml:space="preserve" text-anchor="middle" x="383.12" y="-620.5" font-family="Helvetica,sans-Serif" font-size="10.00">::ActionTimed::CleanupAction</text>
</a>
</g>
</g>
<!-- Node1&#45;&gt;Node10 -->
<g id="edge10_Node000001_Node000010" class="edge">
<title>Node1&#45;&gt;Node10</title>
<g id="a_edge10_Node000001_Node000010"><a xlink:title=" ">
<path fill="none" stroke="#63b8ff" d="M538.37,-508.13C522.76,-534.57 495.43,-575.02 462,-600 454.92,-605.29 446.79,-609.76 438.52,-613.51"/>
<polygon fill="#63b8ff" stroke="#63b8ff" points="541.26,-510.14 543.2,-499.72 535.19,-506.65 541.26,-510.14"/>
</a>
</g>
</g>
<!-- Node11 -->
<g id="Node000011" class="node">
<title>Node11</title>
<g id="a_Node000011"><a xlink:href="class_fiea_1_1_engine_1_1_game_object.html#a31fde54010ab18837926a5c8d8cc45d7" target="_top" xlink:title=" ">
<polygon fill="white" stroke="#666666" points="268.25,-606 136.75,-606 136.75,-574 268.25,-574 268.25,-606"/>
<text xml:space="preserve" text-anchor="start" x="144.75" y="-592.5" font-family="Helvetica,sans-Serif" font-size="10.00">Fiea::Engine::GameObject</text>
<text xml:space="preserve" text-anchor="middle" x="202.5" y="-580.5" font-family="Helvetica,sans-Serif" font-size="10.00">::ForEachChild</text>
</a>
</g>
</g>
<!-- Node1&#45;&gt;Node11 -->
<g id="edge11_Node000001_Node000011" class="edge">
<title>Node1&#45;&gt;Node11</title>
<g id="a_edge11_Node000001_Node000011"><a xlink:title=" ">
<path fill="none" stroke="#63b8ff" d="M528.3,-505.99C511.19,-521.4 486.97,-540.44 462,-551 399.72,-577.35 322.37,-586.24 268.59,-589.07"/>
<polygon fill="#63b8ff" stroke="#63b8ff" points="530.5,-508.72 535.45,-499.36 525.74,-503.59 530.5,-508.72"/>
</a>
</g>
</g>
<!-- Node13 -->
<g id="Node000013" class="node">
<title>Node13</title>
<g id="a_Node000013"><a xlink:href="class_fiea_1_1_engine_1_1_game_object.html#a1c9a8cd0f8c50acde928cde271f04598" target="_top" xlink:title=" ">
<polygon fill="white" stroke="#666666" points="268.25,-438 136.75,-438 136.75,-406 268.25,-406 268.25,-438"/>
<text xml:space="preserve" text-anchor="start" x="144.75" y="-424.5" font-family="Helvetica,sans-Serif" font-size="10.00">Fiea::Engine::GameObject</text>
<text xml:space="preserve" text-anchor="middle" x="202.5" y="-412.5" font-family="Helvetica,sans-Serif" font-size="10.00">::GetChildCount</text>
</a>
</g>
</g>
<!-- Node1&#45;&gt;Node13 -->
<g id="edge13_Node000001_Node000013" class="edge">
<title>Node1&#45;&gt;Node13</title>
<g id="a_edge13_Node000001_Node000013"><a xlink:title=" ">
<path fill="none" stroke="#63b8ff" d="M486.38,-470.62C423.85,-459.87 330.64,-443.85 268.51,-433.17"/>
<polygon fill="#63b8ff" stroke="#63b8ff" points="485.75,-474.06 496.2,-472.3 486.94,-467.16 485.75,-474.06"/>
</a>
</g>
</g>
<!-- Node15 -->
<g id="Node000015" class="node">
<title>Node15</title>
<g id="a_Node000015"><a xlink:href="class_fiea_1_1_engine_1_1_actions_1_1_action_delayed.html#ac29912e240f6939397bebdf1f79f3053" target="_top" xlink:title=" ">
<polygon fill="white" stroke="#666666" points="449.62,-394 316.62,-394 316.62,-362 449.62,-362 449.62,-394"/>
<text xml:space="preserve" text-anchor="start" x="324.62" y="-380.5" font-family="Helvetica,sans-Serif" font-size="10.00">Fiea::Engine::Actions</text>
<text xml:space="preserve" text-anchor="middle" x="383.12" y="-368.5" font-family="Helvetica,sans-Serif" font-size="10.00">::ActionDelayed::InitAction</text>
</a>
</g>
</g>
<!-- Node1&#45;&gt;Node15 -->
<g id="edge16_Node000001_Node000015" class="edge">
<title>Node1&#45;&gt;Node15</title>
<g id="a_edge16_Node000001_Node000015"><a xlink:title=" ">
<path fill="none" stroke="#63b8ff" d="M527.72,-457.99C510.36,-442.22 486.08,-421.99 462,-408 453.23,-402.91 443.43,-398.35 433.83,-394.43"/>
<polygon fill="#63b8ff" stroke="#63b8ff" points="525.3,-460.52 535.02,-464.75 530.06,-455.39 525.3,-460.52"/>
</a>
</g>
</g>
<!-- Node16 -->
<g id="Node000016" class="node">
<title>Node16</title>
<g id="a_Node000016"><a xlink:href="class_fiea_1_1_engine_1_1_actions_1_1_action_list.html#a4d1536d33dd42d194860a728a0a32df1" target="_top" xlink:title=" ">
<polygon fill="white" stroke="#666666" points="451.12,-344 315.12,-344 315.12,-312 451.12,-312 451.12,-344"/>
<text xml:space="preserve" text-anchor="start" x="323.12" y="-330.5" font-family="Helvetica,sans-Serif" font-size="10.00">Fiea::Engine::Actions</text>
<text xml:space="preserve" text-anchor="middle" x="383.12" y="-318.5" font-family="Helvetica,sans-Serif" font-size="10.00">::ActionList::RemoveAction</text>
</a>
</g>
</g>
<!-- Node1&#45;&gt;Node16 -->
<g id="edge17_Node000001_Node000016" class="edge">
<title>Node1&#45;&gt;Node16</title>
<g id="a_edge17_Node000001_Node000016"><a xlink:title=" ">
<path fill="none" stroke="#63b8ff" d="M540.42,-455.27C525.77,-426.08 498.55,-379.9 462,-353 457.54,-349.72 452.63,-346.85 447.51,-344.36"/>
<polygon fill="#63b8ff" stroke="#63b8ff" points="537.23,-456.72 544.75,-464.19 543.53,-453.66 537.23,-456.72"/>
</a>
</g>
</g>
<!-- Node17 -->
<g id="Node000017" class="node">
<title>Node17</title>
<g id="a_Node000017"><a xlink:href="class_fiea_1_1_engine_1_1_game_object.html#aff873c5557228f0ab9bb948949a8e58f" target="_top" xlink:title=" ">
<polygon fill="white" stroke="#666666" points="448.88,-520 317.38,-520 317.38,-488 448.88,-488 448.88,-520"/>
<text xml:space="preserve" text-anchor="start" x="325.38" y="-506.5" font-family="Helvetica,sans-Serif" font-size="10.00">Fiea::Engine::GameObject</text>
<text xml:space="preserve" text-anchor="middle" x="383.12" y="-494.5" font-family="Helvetica,sans-Serif" font-size="10.00">::RemoveAction</text>
</a>
</g>
</g>
<!-- Node1&#45;&gt;Node17 -->
<g id="edge18_Node000001_Node000017" class="edge">
<title>Node1&#45;&gt;Node17</title>
<g id="a_edge18_Node000001_Node000017"><a xlink:title=" ">
<path fill="none" stroke="#63b8ff" d="M486.75,-490.6C474.39,-492.22 461.46,-493.9 449.13,-495.51"/>
<polygon fill="#63b8ff" stroke="#63b8ff" points="486.95,-494.1 496.42,-489.34 486.05,-487.16 486.95,-494.1"/>
</a>
</g>
</g>
<!-- Node18 -->
<g id="Node000018" class="node">
<title>Node18</title>
<g id="a_Node000018"><a xlink:href="class_fiea_1_1_engine_1_1_game_object.html#a98e7dc26718acd4dba6f1b5bbe0483b8" target="_top" xlink:title=" ">
<polygon fill="white" stroke="#666666" points="268.25,-488 136.75,-488 136.75,-456 268.25,-456 268.25,-488"/>
<text xml:space="preserve" text-anchor="start" x="144.75" y="-474.5" font-family="Helvetica,sans-Serif" font-size="10.00">Fiea::Engine::GameObject</text>
<text xml:space="preserve" text-anchor="middle" x="202.5" y="-462.5" font-family="Helvetica,sans-Serif" font-size="10.00">::Update</text>
</a>
</g>
</g>
<!-- Node1&#45;&gt;Node18 -->
<g id="edge31_Node000001_Node000018" class="edge">
<title>Node1&#45;&gt;Node18</title>
<g id="a_edge31_Node000001_Node000018"><a xlink:title=" ">
<path fill="none" stroke="#63b8ff" d="M486.12,-479.75C477.99,-479.49 469.81,-479.23 462,-479 396.15,-477.02 320.85,-475.01 268.57,-473.65"/>
<polygon fill="#63b8ff" stroke="#63b8ff" points="485.89,-483.25 496,-480.07 486.12,-476.25 485.89,-483.25"/>
</a>
</g>
</g>
<!-- Node19 -->
<g id="Node000019" class="node">
<title>Node19</title>
<g id="a_Node000019"><a xlink:href="class_fiea_1_1_engine_1_1_game_object.html#afb652b102eac13f7e03e86c64513517e" target="_top" xlink:title=" ">
<polygon fill="white" stroke="#666666" points="268.25,-556 136.75,-556 136.75,-524 268.25,-524 268.25,-556"/>
<text xml:space="preserve" text-anchor="start" x="144.75" y="-542.5" font-family="Helvetica,sans-Serif" font-size="10.00">Fiea::Engine::GameObject</text>
<text xml:space="preserve" text-anchor="middle" x="202.5" y="-530.5" font-family="Helvetica,sans-Serif" font-size="10.00">::RemoveChild</text>
</a>
</g>
</g>
<!-- Node1&#45;&gt;Node19 -->
<g id="edge23_Node000001_Node000019" class="edge">
<title>Node1&#45;&gt;Node19</title>
<g id="a_edge23_Node000001_Node000019"><a xlink:title=" ">
<path fill="none" stroke="#63b8ff" d="M518.76,-504.06C502.31,-513.57 481.86,-523.71 462,-529 397.87,-546.09 321.66,-547.12 268.67,-544.93"/>
<polygon fill="#63b8ff" stroke="#63b8ff" points="520.35,-507.18 527.14,-499.05 516.76,-501.18 520.35,-507.18"/>
</a>
</g>
</g>
<!-- Node20 -->
<g id="Node000020" class="node">
<title>Node20</title>
<g id="a_Node000020"><a xlink:href="class_fiea_1_1_engine_1_1_actions_1_1_action_delayed.html#a709534fdda2c17d92f4324f84e29d977" target="_top" xlink:title=" ">
<polygon fill="white" stroke="#666666" points="451.88,-294 314.38,-294 314.38,-262 451.88,-262 451.88,-294"/>
<text xml:space="preserve" text-anchor="start" x="322.38" y="-280.5" font-family="Helvetica,sans-Serif" font-size="10.00">Fiea::Engine::Actions</text>
<text xml:space="preserve" text-anchor="middle" x="383.12" y="-268.5" font-family="Helvetica,sans-Serif" font-size="10.00">::ActionDelayed::RunAction</text>
</a>
</g>
</g>
<!-- Node1&#45;&gt;Node20 -->
<g id="edge25_Node000001_Node000020" class="edge">
<title>Node1&#45;&gt;Node20</title>
<g id="a_edge25_Node000001_Node000020"><a xlink:title=" ">
<path fill="none" stroke="#63b8ff" d="M546,-454.73C535.09,-415.57 509.67,-343.67 462,-303 458.11,-299.68 453.78,-296.8 449.2,-294.3"/>
<polygon fill="#63b8ff" stroke="#63b8ff" points="542.59,-455.53 548.54,-464.29 549.35,-453.73 542.59,-455.53"/>
</a>
</g>
</g>
<!-- Node21 -->
<g id="Node000021" class="node">
<title>Node21</title>
<g id="a_Node000021"><a xlink:href="class_fiea_1_1_engine_1_1_actions_1_1_action_list.html#a492054b1164d5e86602f968527ac0b9d" target="_top" xlink:title=" ">
<polygon fill="white" stroke="#666666" points="441.75,-244 324.5,-244 324.5,-212 441.75,-212 441.75,-244"/>
<text xml:space="preserve" text-anchor="start" x="332.5" y="-230.5" font-family="Helvetica,sans-Serif" font-size="10.00">Fiea::Engine::Actions</text>
<text xml:space="preserve" text-anchor="middle" x="383.12" y="-218.5" font-family="Helvetica,sans-Serif" font-size="10.00">::ActionList::RunAction</text>
</a>
</g>
</g>
<!-- Node1&#45;&gt;Node21 -->
<g id="edge26_Node000001_Node000021" class="edge">
<title>Node1&#45;&gt;Node21</title>
<g id="a_edge26_Node000001_Node000021"><a xlink:title=" ">
<path fill="none" stroke="#63b8ff" d="M549.38,-454.53C542.29,-406.77 521.02,-308.23 462,-253 456.3,-247.66 449.45,-243.47 442.22,-240.16"/>
<polygon fill="#63b8ff" stroke="#63b8ff" points="545.89,-454.86 550.72,-464.29 552.83,-453.91 545.89,-454.86"/>
</a>
</g>
</g>
<!-- Node22 -->
<g id="Node000022" class="node">
<title>Node22</title>
<g id="a_Node000022"><a xlink:href="class_fiea_1_1_engine_1_1_actions_1_1_action_list_while_loop.html#a7290de0f669f9591885d994906b2736f" target="_top" xlink:title=" ">
<polygon fill="white" stroke="#666666" points="438.75,-194 327.5,-194 327.5,-150 438.75,-150 438.75,-194"/>
<text xml:space="preserve" text-anchor="start" x="335.5" y="-180.5" font-family="Helvetica,sans-Serif" font-size="10.00">Fiea::Engine::Actions</text>
<text xml:space="preserve" text-anchor="start" x="335.5" y="-168.5" font-family="Helvetica,sans-Serif" font-size="10.00">::ActionListWhileLoop</text>
<text xml:space="preserve" text-anchor="middle" x="383.12" y="-156.5" font-family="Helvetica,sans-Serif" font-size="10.00">::RunAction</text>
</a>
</g>
</g>
<!-- Node1&#45;&gt;Node22 -->
<g id="edge27_Node000001_Node000022" class="edge">
<title>Node1&#45;&gt;Node22</title>
<g id="a_edge27_Node000001_Node000022"><a xlink:title=" ">
<path fill="none" stroke="#63b8ff" d="M551.22,-454.57C546.99,-399.71 529.99,-275.55 462,-203 455.63,-196.2 447.58,-190.87 439.08,-186.69"/>
<polygon fill="#63b8ff" stroke="#63b8ff" points="547.71,-454.52 551.88,-464.26 554.7,-454.05 547.71,-454.52"/>
</a>
</g>
</g>
<!-- Node23 -->
<g id="Node000023" class="node">
<title>Node23</title>
<g id="a_Node000023"><a xlink:href="class_fiea_1_1_engine_1_1_actions_1_1_action_timed.html#a1a83c312108a0d9f3ac4f84a5042db38" target="_top" xlink:title=" ">
<polygon fill="white" stroke="#666666" points="447.38,-132 318.88,-132 318.88,-100 447.38,-100 447.38,-132"/>
<text xml:space="preserve" text-anchor="start" x="326.88" y="-118.5" font-family="Helvetica,sans-Serif" font-size="10.00">Fiea::Engine::Actions</text>
<text xml:space="preserve" text-anchor="middle" x="383.12" y="-106.5" font-family="Helvetica,sans-Serif" font-size="10.00">::ActionTimed::RunAction</text>
</a>
</g>
</g>
<!-- Node1&#45;&gt;Node23 -->
<g id="edge28_Node000001_Node000023" class="edge">
<title>Node1&#45;&gt;Node23</title>
<g id="a_edge28_Node000001_Node000023"><a xlink:title=" ">
<path fill="none" stroke="#63b8ff" d="M548.74,-454.38C537.98,-381.59 505.68,-186.96 462,-141 457.89,-136.68 453.04,-133.1 447.79,-130.14"/>
<polygon fill="#63b8ff" stroke="#63b8ff" points="545.27,-454.85 550.17,-464.24 552.2,-453.84 545.27,-454.85"/>
</a>
</g>
</g>
<!-- Node24 -->
<g id="Node000024" class="node">
<title>Node24</title>
<g id="a_Node000024"><a xlink:href="namespace_fiea_1_1_engine_1_1_tests.html#a6fef2096c3071aeedc84a735d125856c" target="_top" xlink:title=" ">
<polygon fill="white" stroke="#666666" points="433.5,-82 332.75,-82 332.75,-50 433.5,-50 433.5,-82"/>
<text xml:space="preserve" text-anchor="start" x="340.75" y="-68.5" font-family="Helvetica,sans-Serif" font-size="10.00">Fiea::Engine::Tests</text>
<text xml:space="preserve" text-anchor="middle" x="383.12" y="-56.5" font-family="Helvetica,sans-Serif" font-size="10.00">::TEST_CLASS</text>
</a>
</g>
</g>
<!-- Node1&#45;&gt;Node24 -->
<g id="edge29_Node000001_Node000024" class="edge">
<title>Node1&#45;&gt;Node24</title>
<g id="a_edge29_Node000001_Node000024"><a xlink:title=" ">
<path fill="none" stroke="#63b8ff" d="M549.78,-454.66C540.98,-374.95 511.71,-145.01 462,-91 454.5,-82.85 444.34,-77.35 433.84,-73.63"/>
<polygon fill="#63b8ff" stroke="#63b8ff" points="546.26,-454.63 550.82,-464.2 553.22,-453.88 546.26,-454.63"/>
</a>
</g>
</g>
<!-- Node25 -->
<g id="Node000025" class="node">
<title>Node25</title>
<g id="a_Node000025"><a xlink:href="namespace_fiea_1_1_engine_1_1_tests.html#a15040015fac83efdce86366a293948ae" target="_top" xlink:title=" ">
<polygon fill="white" stroke="#666666" points="433.5,-32 332.75,-32 332.75,0 433.5,0 433.5,-32"/>
<text xml:space="preserve" text-anchor="start" x="340.75" y="-18.5" font-family="Helvetica,sans-Serif" font-size="10.00">Fiea::Engine::Tests</text>
<text xml:space="preserve" text-anchor="middle" x="383.12" y="-6.5" font-family="Helvetica,sans-Serif" font-size="10.00">::TEST_CLASS</text>
</a>
</g>
</g>
<!-- Node1&#45;&gt;Node25 -->
<g id="edge30_Node000001_Node000025" class="edge">
<title>Node1&#45;&gt;Node25</title>
<g id="a_edge30_Node000001_Node000025"><a xlink:title=" ">
<path fill="none" stroke="#63b8ff" d="M550.54,-454.39C543.47,-367.71 517.66,-103.02 462,-41 454.6,-32.76 444.48,-27.22 433.99,-23.5"/>
<polygon fill="#63b8ff" stroke="#63b8ff" points="547.03,-454.42 551.32,-464.12 554.01,-453.87 547.03,-454.42"/>
</a>
</g>
</g>
<!-- Node3 -->
<g id="Node000003" class="node">
<title>Node3</title>
<g id="a_Node000003"><a xlink:href="class_fiea_1_1_engine_1_1_content_1_1_special_primitives_handler.html#a5ff6f656b92d166947bbd3a7c73f9610" target="_top" xlink:title=" ">
<polygon fill="white" stroke="#666666" points="268.25,-945 136.75,-945 136.75,-901 268.25,-901 268.25,-945"/>
<text xml:space="preserve" text-anchor="start" x="144.75" y="-931.5" font-family="Helvetica,sans-Serif" font-size="10.00">Fiea::Engine::Content</text>
<text xml:space="preserve" text-anchor="start" x="144.75" y="-919.5" font-family="Helvetica,sans-Serif" font-size="10.00">::SpecialPrimitivesHandler</text>
<text xml:space="preserve" text-anchor="middle" x="202.5" y="-907.5" font-family="Helvetica,sans-Serif" font-size="10.00">::EnterKey</text>
</a>
</g>
</g>
<!-- Node2&#45;&gt;Node3 -->
<g id="edge2_Node000002_Node000003" class="edge">
<title>Node2&#45;&gt;Node3</title>
<g id="a_edge2_Node000002_Node000003"><a xlink:title=" ">
<path fill="none" stroke="#63b8ff" d="M298.29,-933.08C288.32,-932.02 278.27,-930.95 268.62,-929.93"/>
<polygon fill="#63b8ff" stroke="#63b8ff" points="297.65,-936.53 307.97,-934.11 298.39,-929.57 297.65,-936.53"/>
</a>
</g>
</g>
<!-- Node5 -->
<g id="Node000005" class="node">
<title>Node5</title>
<g id="a_Node000005"><a xlink:href="class_fiea_1_1_engine_1_1_content_1_1_primitive_type_handler.html#a841c5fd5708419c73da86de56d887a2b" target="_top" xlink:title=" ">
<polygon fill="white" stroke="#666666" points="260,-864 145,-864 145,-820 260,-820 260,-864"/>
<text xml:space="preserve" text-anchor="start" x="153" y="-850.5" font-family="Helvetica,sans-Serif" font-size="10.00">Fiea::Engine::Content</text>
<text xml:space="preserve" text-anchor="start" x="153" y="-838.5" font-family="Helvetica,sans-Serif" font-size="10.00">::PrimitiveTypeHandler</text>
<text xml:space="preserve" text-anchor="middle" x="202.5" y="-826.5" font-family="Helvetica,sans-Serif" font-size="10.00">::EnterKey</text>
</a>
</g>
</g>
<!-- Node4&#45;&gt;Node5 -->
<g id="edge4_Node000004_Node000005" class="edge">
<title>Node4&#45;&gt;Node5</title>
<g id="a_edge4_Node000004_Node000005"><a xlink:title=" ">
<path fill="none" stroke="#63b8ff" d="M292.42,-842C281.49,-842 270.57,-842 260.31,-842"/>
<polygon fill="#63b8ff" stroke="#63b8ff" points="292.26,-845.5 302.26,-842 292.26,-838.5 292.26,-845.5"/>
</a>
</g>
</g>
<!-- Node6&#45;&gt;Node3 -->
<g id="edge6_Node000006_Node000003" class="edge">
<title>Node6&#45;&gt;Node3</title>
<g id="a_edge6_Node000006_Node000003"><a xlink:title=" ">
<path fill="none" stroke="#63b8ff" d="M298.13,-906.58C288.25,-908.29 278.28,-910.02 268.72,-911.68"/>
<polygon fill="#63b8ff" stroke="#63b8ff" points="298.47,-910.07 307.72,-904.91 297.27,-903.17 298.47,-910.07"/>
</a>
</g>
</g>
<!-- Node12 -->
<g id="Node000012" class="node">
<title>Node12</title>
<g id="a_Node000012"><a xlink:href="namespace_fiea_1_1_engine_1_1_tests.html#a34b2b8dfbe4f7aa6a3ea0a5f24db384f" target="_top" xlink:title=" ">
<polygon fill="white" stroke="#666666" points="100.75,-513 0,-513 0,-481 100.75,-481 100.75,-513"/>
<text xml:space="preserve" text-anchor="start" x="8" y="-499.5" font-family="Helvetica,sans-Serif" font-size="10.00">Fiea::Engine::Tests</text>
<text xml:space="preserve" text-anchor="middle" x="50.38" y="-487.5" font-family="Helvetica,sans-Serif" font-size="10.00">::TEST_CLASS</text>
</a>
</g>
</g>
<!-- Node11&#45;&gt;Node12 -->
<g id="edge12_Node000011_Node000012" class="edge">
<title>Node11&#45;&gt;Node12</title>
<g id="a_edge12_Node000011_Node000012"><a xlink:title=" ">
<path fill="none" stroke="#63b8ff" d="M143.85,-568.82C141.42,-567.59 139.04,-566.31 136.75,-565 111.1,-550.3 85.01,-528.26 68.54,-513.29"/>
<polygon fill="#63b8ff" stroke="#63b8ff" points="142.13,-571.88 152.67,-572.97 145.11,-565.54 142.13,-571.88"/>
</a>
</g>
</g>
<!-- Node13&#45;&gt;Node12 -->
<g id="edge14_Node000013_Node000012" class="edge">
<title>Node13&#45;&gt;Node12</title>
<g id="a_edge14_Node000013_Node000012"><a xlink:title=" ">
<path fill="none" stroke="#63b8ff" d="M144.52,-443.1C141.87,-444.37 139.26,-445.67 136.75,-447 119.54,-456.13 117.48,-462.02 100.75,-472 95.88,-474.9 90.63,-477.8 85.44,-480.53"/>
<polygon fill="#63b8ff" stroke="#63b8ff" points="145.84,-446.34 153.53,-439.06 142.98,-439.96 145.84,-446.34"/>
</a>
</g>
</g>
<!-- Node14 -->
<g id="Node000014" class="node">
<title>Node14</title>
<g id="a_Node000014"><a xlink:href="namespace_fiea_1_1_engine_1_1_tests.html#a89b054e30b186f60d7f23c17503265da" target="_top" xlink:title=" ">
<polygon fill="white" stroke="#666666" points="100.75,-463 0,-463 0,-431 100.75,-431 100.75,-463"/>
<text xml:space="preserve" text-anchor="start" x="8" y="-449.5" font-family="Helvetica,sans-Serif" font-size="10.00">Fiea::Engine::Tests</text>
<text xml:space="preserve" text-anchor="middle" x="50.38" y="-437.5" font-family="Helvetica,sans-Serif" font-size="10.00">::TEST_CLASS</text>
</a>
</g>
</g>
<!-- Node13&#45;&gt;Node14 -->
<g id="edge15_Node000013_Node000014" class="edge">
<title>Node13&#45;&gt;Node14</title>
<g id="a_edge15_Node000013_Node000014"><a xlink:title=" ">
<path fill="none" stroke="#63b8ff" d="M125.32,-434.69C117.08,-436.06 108.86,-437.43 101.06,-438.73"/>
<polygon fill="#63b8ff" stroke="#63b8ff" points="125.74,-438.16 135.03,-433.07 124.59,-431.26 125.74,-438.16"/>
</a>
</g>
</g>
<!-- Node17&#45;&gt;Node18 -->
<g id="edge19_Node000017_Node000018" class="edge">
<title>Node17&#45;&gt;Node18</title>
<g id="a_edge19_Node000017_Node000018"><a xlink:title=" ">
<path fill="none" stroke="#63b8ff" d="M305.66,-490.3C293.31,-488.09 280.62,-485.82 268.57,-483.66"/>
<polygon fill="#63b8ff" stroke="#63b8ff" points="304.93,-493.73 315.39,-492.04 306.16,-486.84 304.93,-493.73"/>
</a>
</g>
</g>
<!-- Node18&#45;&gt;Node12 -->
<g id="edge20_Node000018_Node000012" class="edge">
<title>Node18&#45;&gt;Node12</title>
<g id="a_edge20_Node000018_Node000012"><a xlink:title=" ">
<path fill="none" stroke="#63b8ff" d="M125.32,-484.69C117.08,-486.06 108.86,-487.43 101.06,-488.73"/>
<polygon fill="#63b8ff" stroke="#63b8ff" points="125.74,-488.16 135.03,-483.07 124.59,-481.26 125.74,-488.16"/>
</a>
</g>
</g>
<!-- Node18&#45;&gt;Node14 -->
<g id="edge21_Node000018_Node000014" class="edge">
<title>Node18&#45;&gt;Node14</title>
<g id="a_edge21_Node000018_Node000014"><a xlink:title=" ">
<path fill="none" stroke="#63b8ff" d="M125.32,-459.31C117.08,-457.94 108.86,-456.57 101.06,-455.27"/>
<polygon fill="#63b8ff" stroke="#63b8ff" points="124.59,-462.74 135.03,-460.93 125.74,-455.84 124.59,-462.74"/>
</a>
</g>
</g>
<!-- Node18&#45;&gt;Node18 -->
<g id="edge22_Node000018_Node000018" class="edge">
<title>Node18&#45;&gt;Node18</title>
<g id="a_edge22_Node000018_Node000018"><a xlink:title=" ">
<path fill="none" stroke="#63b8ff" d="M227.85,-499.71C223.62,-503.48 215.17,-506 202.5,-506 179.32,-506 170.27,-497.58 175.34,-488.44"/>
<polygon fill="#63b8ff" stroke="#63b8ff" points="231.29,-500.37 229.42,-489.94 224.38,-499.26 231.29,-500.37"/>
</a>
</g>
</g>
<!-- Node19&#45;&gt;Node12 -->
<g id="edge24_Node000019_Node000012" class="edge">
<title>Node19&#45;&gt;Node12</title>
<g id="a_edge24_Node000019_Node000012"><a xlink:title=" ">
<path fill="none" stroke="#63b8ff" d="M133.49,-520.52C122.56,-517.39 111.43,-514.2 101.04,-511.23"/>
<polygon fill="#63b8ff" stroke="#63b8ff" points="132.28,-523.82 142.86,-523.2 134.21,-517.09 132.28,-523.82"/>
</a>
</g>
</g>
</g>
</svg>
