<?xml version="1.0" encoding="UTF-8" standalone="no"?>
<!DOCTYPE svg PUBLIC "-//W3C//DTD SVG 1.1//EN"
 "http://www.w3.org/Graphics/SVG/1.1/DTD/svg11.dtd">
<!-- Generated by graphviz version 13.1.0 (20250701.0955)
 -->
<!-- Title: Fiea::Engine::Content::Attributed::IsInstanceAttribute Pages: 1 -->
<svg width="845pt" height="302pt"
 viewBox="0.00 0.00 845.00 302.00" xmlns="http://www.w3.org/2000/svg" xmlns:xlink="http://www.w3.org/1999/xlink">
<g id="graph0" class="graph" transform="scale(1 1) rotate(0) translate(4 298)">
<title>Fiea::Engine::Content::Attributed::IsInstanceAttribute</title>
<!-- Node1 -->
<g id="Node000001" class="node">
<title>Node1</title>
<g id="a_Node000001"><a xlink:title="Checks if a given key is an instance attribute.">
<polygon fill="#999999" stroke="#666666" points="152.5,-266 0,-266 0,-234 152.5,-234 152.5,-266"/>
<text xml:space="preserve" text-anchor="start" x="8" y="-252.5" font-family="Helvetica,sans-Serif" font-size="10.00">Fiea::Engine::Content</text>
<text xml:space="preserve" text-anchor="middle" x="76.25" y="-240.5" font-family="Helvetica,sans-Serif" font-size="10.00">::Attributed::IsInstanceAttribute</text>
</a>
</g>
</g>
<!-- Node2 -->
<g id="Node000002" class="node">
<title>Node2</title>
<g id="a_Node000002"><a xlink:href="class_fiea_1_1_engine_1_1_content_1_1_attributed.html#a2b6b6b36292afc12d93e046373d9a0f1" target="_top" xlink:title="Checks if a given key is an attribute.">
<polygon fill="white" stroke="#666666" points="507.75,-294 392.75,-294 392.75,-262 507.75,-262 507.75,-294"/>
<text xml:space="preserve" text-anchor="start" x="400.75" y="-280.5" font-family="Helvetica,sans-Serif" font-size="10.00">Fiea::Engine::Content</text>
<text xml:space="preserve" text-anchor="middle" x="450.25" y="-268.5" font-family="Helvetica,sans-Serif" font-size="10.00">::Attributed::IsAttribute</text>
</a>
</g>
</g>
<!-- Node1&#45;&gt;Node2 -->
<g id="edge1_Node000001_Node000002" class="edge">
<title>Node1&#45;&gt;Node2</title>
<g id="a_edge1_Node000001_Node000002"><a xlink:title=" ">
<path fill="none" stroke="#63b8ff" d="M152.98,-255.7C219.91,-260.74 316.67,-268.02 381.19,-272.88"/>
<polygon fill="#63b8ff" stroke="#63b8ff" points="380.71,-276.35 390.94,-273.61 381.23,-269.37 380.71,-276.35"/>
</a>
</g>
</g>
<!-- Node4 -->
<g id="Node000004" class="node">
<title>Node4</title>
<g id="a_Node000004"><a xlink:href="class_fiea_1_1_engine_1_1_content_1_1_attributed.html#af9a419e6aa1b52eed4c923a89931771e" target="_top" xlink:title="Checks if a given key is a class attribute.">
<polygon fill="white" stroke="#666666" points="329,-244 188.5,-244 188.5,-212 329,-212 329,-244"/>
<text xml:space="preserve" text-anchor="start" x="196.5" y="-230.5" font-family="Helvetica,sans-Serif" font-size="10.00">Fiea::Engine::Content</text>
<text xml:space="preserve" text-anchor="middle" x="258.75" y="-218.5" font-family="Helvetica,sans-Serif" font-size="10.00">::Attributed::IsClassAttribute</text>
</a>
</g>
</g>
<!-- Node1&#45;&gt;Node4 -->
<g id="edge3_Node000001_Node000004" class="edge">
<title>Node1&#45;&gt;Node4</title>
<g id="a_edge3_Node000001_Node000004"><a xlink:title=" ">
<path fill="none" stroke="#63b8ff" d="M152.75,-240.8C160.7,-239.83 168.8,-238.84 176.8,-237.87"/>
<polygon fill="#63b8ff" stroke="#63b8ff" points="177.02,-241.37 186.52,-236.68 176.17,-234.42 177.02,-241.37"/>
</a>
</g>
</g>
<!-- Node3 -->
<g id="Node000003" class="node">
<title>Node3</title>
<g id="a_Node000003"><a xlink:href="class_fiea_1_1_engine_1_1_content_1_1_scope.html#ad924c01785b239991fc0e56a63295612" target="_top" xlink:title="Finds a Datum by key.">
<polygon fill="white" stroke="#666666" points="685.38,-294 574.12,-294 574.12,-262 685.38,-262 685.38,-294"/>
<text xml:space="preserve" text-anchor="start" x="582.12" y="-280.5" font-family="Helvetica,sans-Serif" font-size="10.00">Fiea::Engine::Content</text>
<text xml:space="preserve" text-anchor="middle" x="629.75" y="-268.5" font-family="Helvetica,sans-Serif" font-size="10.00">::Scope::Find</text>
</a>
</g>
</g>
<!-- Node2&#45;&gt;Node3 -->
<g id="edge2_Node000002_Node000003" class="edge">
<title>Node2&#45;&gt;Node3</title>
<g id="a_edge2_Node000002_Node000003"><a xlink:title=" ">
<path fill="none" stroke="#63b8ff" d="M507.9,-278C525.29,-278 544.59,-278 562.56,-278"/>
<polygon fill="#63b8ff" stroke="#63b8ff" points="562.34,-281.5 572.34,-278 562.34,-274.5 562.34,-281.5"/>
</a>
</g>
</g>
<!-- Node4&#45;&gt;Node2 -->
<g id="edge5_Node000004_Node000002" class="edge">
<title>Node4&#45;&gt;Node2</title>
<g id="a_edge5_Node000004_Node000002"><a xlink:title=" ">
<path fill="none" stroke="#63b8ff" d="M322.06,-244.44C341.09,-249.46 362.1,-255 381.47,-260.12"/>
<polygon fill="#63b8ff" stroke="#63b8ff" points="380.32,-263.43 390.88,-262.6 382.1,-256.66 380.32,-263.43"/>
</a>
</g>
</g>
<!-- Node5 -->
<g id="Node000005" class="node">
<title>Node5</title>
<g id="a_Node000005"><a xlink:href="struct_fiea_1_1_engine_1_1_content_1_1_i_type_provider.html#a98897793b1bb048c7ca5f163351a239b" target="_top" xlink:title=" ">
<polygon fill="white" stroke="#666666" points="535.5,-244 365,-244 365,-212 535.5,-212 535.5,-244"/>
<text xml:space="preserve" text-anchor="start" x="373" y="-230.5" font-family="Helvetica,sans-Serif" font-size="10.00">Fiea::Engine::Content</text>
<text xml:space="preserve" text-anchor="middle" x="450.25" y="-218.5" font-family="Helvetica,sans-Serif" font-size="10.00">::ITypeProvider::GetClassDefinition</text>
</a>
</g>
</g>
<!-- Node4&#45;&gt;Node5 -->
<g id="edge4_Node000004_Node000005" class="edge">
<title>Node4&#45;&gt;Node5</title>
<g id="a_edge4_Node000004_Node000005"><a xlink:title=" ">
<path fill="none" stroke="#63b8ff" d="M329.24,-228C337.06,-228 345.14,-228 353.22,-228"/>
<polygon fill="#63b8ff" stroke="#63b8ff" points="353.13,-231.5 363.12,-228 353.12,-224.5 353.13,-231.5"/>
</a>
</g>
</g>
<!-- Node6 -->
<g id="Node000006" class="node">
<title>Node6</title>
<g id="a_Node000006"><a xlink:href="class_fiea_1_1_engine_1_1_service_manager.html#a8aac9b15b7e5483c2b1cd5febe590a0c" target="_top" xlink:title=" ">
<polygon fill="white" stroke="#666666" points="523.88,-194 376.62,-194 376.62,-162 523.88,-162 523.88,-194"/>
<text xml:space="preserve" text-anchor="start" x="384.62" y="-180.5" font-family="Helvetica,sans-Serif" font-size="10.00">Fiea::Engine::ServiceManager</text>
<text xml:space="preserve" text-anchor="middle" x="450.25" y="-168.5" font-family="Helvetica,sans-Serif" font-size="10.00">::ProvideInterface</text>
</a>
</g>
</g>
<!-- Node4&#45;&gt;Node6 -->
<g id="edge6_Node000004_Node000006" class="edge">
<title>Node4&#45;&gt;Node6</title>
<g id="a_edge6_Node000004_Node000006"><a xlink:title=" ">
<path fill="none" stroke="#63b8ff" d="M322.06,-211.56C339.3,-207.01 358.17,-202.03 375.98,-197.33"/>
<polygon fill="#63b8ff" stroke="#63b8ff" points="376.66,-200.77 385.44,-194.84 374.88,-194 376.66,-200.77"/>
</a>
</g>
</g>
<!-- Node7 -->
<g id="Node000007" class="node">
<title>Node7</title>
<g id="a_Node000007"><a xlink:href="class_fiea_1_1_engine_1_1_r_t_t_i.html#a876bebbe7b3149483c43a87f55f4ea99" target="_top" xlink:title=" ">
<polygon fill="white" stroke="#666666" points="499.5,-126 401,-126 401,-94 499.5,-94 499.5,-126"/>
<text xml:space="preserve" text-anchor="start" x="409" y="-112.5" font-family="Helvetica,sans-Serif" font-size="10.00">Fiea::Engine::RTTI</text>
<text xml:space="preserve" text-anchor="middle" x="450.25" y="-100.5" font-family="Helvetica,sans-Serif" font-size="10.00">::TypeIdInstance</text>
</a>
</g>
</g>
<!-- Node4&#45;&gt;Node7 -->
<g id="edge7_Node000004_Node000007" class="edge">
<title>Node4&#45;&gt;Node7</title>
<g id="a_edge7_Node000004_Node000007"><a xlink:title=" ">
<path fill="none" stroke="#63b8ff" d="M280.89,-211.53C301.71,-195.65 334.69,-171.39 365,-153 377.41,-145.47 391.29,-138.01 404.15,-131.48"/>
<polygon fill="#63b8ff" stroke="#63b8ff" points="405.46,-134.73 412.84,-127.13 402.33,-128.47 405.46,-134.73"/>
</a>
</g>
</g>
<!-- Node7&#45;&gt;Node7 -->
<g id="edge16_Node000007_Node000007" class="edge">
<title>Node7&#45;&gt;Node7</title>
<g id="a_edge16_Node000007_Node000007"><a xlink:title=" ">
<path fill="none" stroke="#63b8ff" d="M418.2,-126.44C412.22,-135.58 422.9,-144 450.25,-144 465.2,-144 475.18,-141.48 480.16,-137.71"/>
<polygon fill="#63b8ff" stroke="#63b8ff" points="483.59,-138.41 482.01,-127.93 476.71,-137.1 483.59,-138.41"/>
</a>
</g>
</g>
<!-- Node8 -->
<g id="Node000008" class="node">
<title>Node8</title>
<g id="a_Node000008"><a xlink:href="class_fiea_1_1_engine_1_1_r_t_t_i.html#a15bd5993c8ad04da47af440298ebbb30" target="_top" xlink:title=" ">
<polygon fill="white" stroke="#666666" points="688,-158 571.5,-158 571.5,-138 688,-138 688,-158"/>
<text xml:space="preserve" text-anchor="middle" x="629.75" y="-144.5" font-family="Helvetica,sans-Serif" font-size="10.00">Fiea::Engine::RTTI::As</text>
</a>
</g>
</g>
<!-- Node7&#45;&gt;Node8 -->
<g id="edge8_Node000007_Node000008" class="edge">
<title>Node7&#45;&gt;Node8</title>
<g id="a_edge8_Node000007_Node000008"><a xlink:title=" ">
<path fill="none" stroke="#63b8ff" d="M499.75,-120.38C521.09,-124.95 546.37,-130.36 568.86,-135.18"/>
<polygon fill="#63b8ff" stroke="#63b8ff" points="568.01,-138.58 578.52,-137.25 569.47,-131.73 568.01,-138.58"/>
</a>
</g>
</g>
<!-- Node9 -->
<g id="Node000009" class="node">
<title>Node9</title>
<g id="a_Node000009"><a xlink:href="class_fiea_1_1_engine_1_1_r_t_t_i.html#ac0a7d875e4513b2aca7594abcd4418ef" target="_top" xlink:title=" ">
<polygon fill="white" stroke="#666666" points="836.75,-180 724,-180 724,-160 836.75,-160 836.75,-180"/>
<text xml:space="preserve" text-anchor="middle" x="780.38" y="-166.5" font-family="Helvetica,sans-Serif" font-size="10.00">Fiea::Engine::RTTI::Is</text>
</a>
</g>
</g>
<!-- Node7&#45;&gt;Node9 -->
<g id="edge13_Node000007_Node000009" class="edge">
<title>Node7&#45;&gt;Node9</title>
<g id="a_edge13_Node000007_Node000009"><a xlink:title=" ">
<path fill="none" stroke="#63b8ff" d="M481.98,-126.41C511.29,-141.73 553.55,-162.83 571.5,-167 617.77,-177.76 671.42,-178.25 712.62,-176.19"/>
<polygon fill="#63b8ff" stroke="#63b8ff" points="712.6,-179.69 722.38,-175.63 712.2,-172.7 712.6,-179.69"/>
</a>
</g>
</g>
<!-- Node10 -->
<g id="Node000010" class="node">
<title>Node10</title>
<g id="a_Node000010"><a xlink:href="class_fiea_1_1_engine_1_1_r_t_t_i.html#a13000029a2e6cced30b831e466e07cae" target="_top" xlink:title=" ">
<polygon fill="white" stroke="#666666" points="829.62,-126 731.12,-126 731.12,-94 829.62,-94 829.62,-126"/>
<text xml:space="preserve" text-anchor="start" x="739.12" y="-112.5" font-family="Helvetica,sans-Serif" font-size="10.00">Fiea::Engine::RTTI</text>
<text xml:space="preserve" text-anchor="middle" x="780.38" y="-100.5" font-family="Helvetica,sans-Serif" font-size="10.00">::RTTI</text>
</a>
</g>
</g>
<!-- Node7&#45;&gt;Node10 -->
<g id="edge14_Node000007_Node000010" class="edge">
<title>Node7&#45;&gt;Node10</title>
<g id="a_edge14_Node000007_Node000010"><a xlink:title=" ">
<path fill="none" stroke="#63b8ff" d="M499.67,-110C558.07,-110 656.25,-110 719.4,-110"/>
<polygon fill="#63b8ff" stroke="#63b8ff" points="719.25,-113.5 729.25,-110 719.25,-106.5 719.25,-113.5"/>
</a>
</g>
</g>
<!-- Node11 -->
<g id="Node000011" class="node">
<title>Node11</title>
<g id="a_Node000011"><a xlink:href="class_fiea_1_1_engine_1_1_r_t_t_i.html#a7f70ad5ba0f8a3388543d63d72892575" target="_top" xlink:title=" ">
<polygon fill="white" stroke="#666666" points="679,-82 580.5,-82 580.5,-50 679,-50 679,-82"/>
<text xml:space="preserve" text-anchor="start" x="588.5" y="-68.5" font-family="Helvetica,sans-Serif" font-size="10.00">Fiea::Engine::RTTI</text>
<text xml:space="preserve" text-anchor="middle" x="629.75" y="-56.5" font-family="Helvetica,sans-Serif" font-size="10.00">::Equals</text>
</a>
</g>
</g>
<!-- Node7&#45;&gt;Node11 -->
<g id="edge11_Node000007_Node000011" class="edge">
<title>Node7&#45;&gt;Node11</title>
<g id="a_edge11_Node000007_Node000011"><a xlink:title=" ">
<path fill="none" stroke="#63b8ff" d="M499.75,-97.98C521.18,-92.67 546.57,-86.37 569.14,-80.78"/>
<polygon fill="#63b8ff" stroke="#63b8ff" points="569.97,-84.18 578.84,-78.37 568.29,-77.38 569.97,-84.18"/>
</a>
</g>
</g>
<!-- Node12 -->
<g id="Node000012" class="node">
<title>Node12</title>
<g id="a_Node000012"><a xlink:href="class_fiea_1_1_engine_1_1_r_t_t_i.html#a43a7d187e332a17d2c699bc2c8136a30" target="_top" xlink:title=" ">
<polygon fill="white" stroke="#666666" points="679,-32 580.5,-32 580.5,0 679,0 679,-32"/>
<text xml:space="preserve" text-anchor="start" x="588.5" y="-18.5" font-family="Helvetica,sans-Serif" font-size="10.00">Fiea::Engine::RTTI</text>
<text xml:space="preserve" text-anchor="middle" x="629.75" y="-6.5" font-family="Helvetica,sans-Serif" font-size="10.00">::ToString</text>
</a>
</g>
</g>
<!-- Node7&#45;&gt;Node12 -->
<g id="edge15_Node000007_Node000012" class="edge">
<title>Node7&#45;&gt;Node12</title>
<g id="a_edge15_Node000007_Node000012"><a xlink:title=" ">
<path fill="none" stroke="#63b8ff" d="M478.01,-93.52C502.08,-78.97 538.61,-57.56 571.5,-41 574.04,-39.72 576.67,-38.44 579.33,-37.17"/>
<polygon fill="#63b8ff" stroke="#63b8ff" points="580.7,-40.39 588.31,-33.01 577.76,-34.04 580.7,-40.39"/>
</a>
</g>
</g>
<!-- Node8&#45;&gt;Node9 -->
<g id="edge9_Node000008_Node000009" class="edge">
<title>Node8&#45;&gt;Node9</title>
<g id="a_edge9_Node000008_Node000009"><a xlink:title=" ">
<path fill="none" stroke="#63b8ff" d="M688.21,-156.51C696.1,-157.67 704.25,-158.88 712.28,-160.07"/>
<polygon fill="#63b8ff" stroke="#63b8ff" points="711.63,-163.51 722.03,-161.51 712.66,-156.59 711.63,-163.51"/>
</a>
</g>
</g>
<!-- Node8&#45;&gt;Node10 -->
<g id="edge10_Node000008_Node000010" class="edge">
<title>Node8&#45;&gt;Node10</title>
<g id="a_edge10_Node000008_Node000010"><a xlink:title=" ">
<path fill="none" stroke="#63b8ff" d="M671.76,-137.52C686.63,-133.71 703.74,-129.34 719.88,-125.21"/>
<polygon fill="#63b8ff" stroke="#63b8ff" points="720.57,-128.65 729.39,-122.78 718.84,-121.87 720.57,-128.65"/>
</a>
</g>
</g>
<!-- Node11&#45;&gt;Node10 -->
<g id="edge12_Node000011_Node000010" class="edge">
<title>Node11&#45;&gt;Node10</title>
<g id="a_edge12_Node000011_Node000010"><a xlink:title=" ">
<path fill="none" stroke="#63b8ff" d="M679.42,-80.41C692.44,-84.26 706.67,-88.47 720.19,-92.48"/>
<polygon fill="#63b8ff" stroke="#63b8ff" points="718.82,-95.72 729.4,-95.21 720.81,-89.01 718.82,-95.72"/>
</a>
</g>
</g>
</g>
</svg>
