<?xml version="1.0" encoding="UTF-8" standalone="no"?>
<!DOCTYPE svg PUBLIC "-//W3C//DTD SVG 1.1//EN"
 "http://www.w3.org/Graphics/SVG/1.1/DTD/svg11.dtd">
<!-- Generated by graphviz version 13.1.0 (20250701.0955)
 -->
<!-- Title: Fiea::Engine::Actions::ActionAddDatum::ActionAddDatum Pages: 1 -->
<svg width="339pt" height="214pt"
 viewBox="0.00 0.00 339.00 214.00" xmlns="http://www.w3.org/2000/svg" xmlns:xlink="http://www.w3.org/1999/xlink">
<g id="graph0" class="graph" transform="scale(1 1) rotate(0) translate(4 210)">
<title>Fiea::Engine::Actions::ActionAddDatum::ActionAddDatum</title>
<!-- Node1 -->
<g id="Node000001" class="node">
<title>Node1</title>
<g id="a_Node000001"><a xlink:title=" ">
<polygon fill="#999999" stroke="#666666" points="330.5,-116 183.25,-116 183.25,-72 330.5,-72 330.5,-116"/>
<text xml:space="preserve" text-anchor="start" x="191.25" y="-102.5" font-family="Helvetica,sans-Serif" font-size="10.00">Fiea::Engine::Actions</text>
<text xml:space="preserve" text-anchor="start" x="191.25" y="-90.5" font-family="Helvetica,sans-Serif" font-size="10.00">::ActionAddDatum::ActionAdd</text>
<text xml:space="preserve" text-anchor="middle" x="256.88" y="-78.5" font-family="Helvetica,sans-Serif" font-size="10.00">Datum</text>
</a>
</g>
</g>
<!-- Node2 -->
<g id="Node000002" class="node">
<title>Node2</title>
<g id="a_Node000002"><a xlink:href="class_fiea_1_1_engine_1_1_actions_1_1_action_add_datum.html#a11e66ab7255a0e07b27ff213067ce6a2" target="_top" xlink:title=" ">
<polygon fill="white" stroke="#666666" points="147.25,-206 0,-206 0,-162 147.25,-162 147.25,-206"/>
<text xml:space="preserve" text-anchor="start" x="8" y="-192.5" font-family="Helvetica,sans-Serif" font-size="10.00">Fiea::Engine::Actions</text>
<text xml:space="preserve" text-anchor="start" x="8" y="-180.5" font-family="Helvetica,sans-Serif" font-size="10.00">::ActionAddDatum::ActionAdd</text>
<text xml:space="preserve" text-anchor="middle" x="73.62" y="-168.5" font-family="Helvetica,sans-Serif" font-size="10.00">Datum</text>
</a>
</g>
</g>
<!-- Node1&#45;&gt;Node2 -->
<g id="edge1_Node000001_Node000002" class="edge">
<title>Node1&#45;&gt;Node2</title>
<g id="a_edge1_Node000001_Node000002"><a xlink:title=" ">
<path fill="none" stroke="#63b8ff" d="M206.69,-121.99C188.24,-132.15 166.97,-143.46 147.25,-153 141.33,-155.87 135.07,-158.75 128.82,-161.54"/>
<polygon fill="#63b8ff" stroke="#63b8ff" points="208.24,-125.13 215.29,-117.22 204.85,-119.01 208.24,-125.13"/>
</a>
</g>
</g>
<!-- Node3 -->
<g id="Node000003" class="node">
<title>Node3</title>
<g id="a_Node000003"><a xlink:href="class_fiea_1_1_engine_1_1_actions_1_1_action_add_datum.html#a0f6a8fb746f583191ffb22328aad9e08" target="_top" xlink:title=" ">
<polygon fill="white" stroke="#666666" points="147.25,-144 0,-144 0,-100 147.25,-100 147.25,-144"/>
<text xml:space="preserve" text-anchor="start" x="8" y="-130.5" font-family="Helvetica,sans-Serif" font-size="10.00">Fiea::Engine::Actions</text>
<text xml:space="preserve" text-anchor="start" x="8" y="-118.5" font-family="Helvetica,sans-Serif" font-size="10.00">::ActionAddDatum::ActionAdd</text>
<text xml:space="preserve" text-anchor="middle" x="73.62" y="-106.5" font-family="Helvetica,sans-Serif" font-size="10.00">Datum</text>
</a>
</g>
</g>
<!-- Node1&#45;&gt;Node3 -->
<g id="edge2_Node000001_Node000003" class="edge">
<title>Node1&#45;&gt;Node3</title>
<g id="a_edge2_Node000001_Node000003"><a xlink:title=" ">
<path fill="none" stroke="#63b8ff" d="M171.69,-107.01C163.68,-108.24 155.6,-109.49 147.71,-110.71"/>
<polygon fill="#63b8ff" stroke="#63b8ff" points="172.09,-110.48 181.44,-105.5 171.02,-103.57 172.09,-110.48"/>
</a>
</g>
</g>
<!-- Node4 -->
<g id="Node000004" class="node">
<title>Node4</title>
<g id="a_Node000004"><a xlink:href="class_fiea_1_1_engine_1_1_actions_1_1_action_add_datum.html#a1030f06176d03a480b3e67dd29f749c3" target="_top" xlink:title=" ">
<polygon fill="white" stroke="#666666" points="145.38,-82 1.88,-82 1.88,-50 145.38,-50 145.38,-82"/>
<text xml:space="preserve" text-anchor="start" x="9.88" y="-68.5" font-family="Helvetica,sans-Serif" font-size="10.00">Fiea::Engine::Actions</text>
<text xml:space="preserve" text-anchor="middle" x="73.62" y="-56.5" font-family="Helvetica,sans-Serif" font-size="10.00">::ActionAddDatum::operator=</text>
</a>
</g>
</g>
<!-- Node1&#45;&gt;Node4 -->
<g id="edge3_Node000001_Node000004" class="edge">
<title>Node1&#45;&gt;Node4</title>
<g id="a_edge3_Node000001_Node000004"><a xlink:title=" ">
<path fill="none" stroke="#63b8ff" d="M171.6,-80.98C162.92,-79.64 154.16,-78.29 145.65,-76.97"/>
<polygon fill="#63b8ff" stroke="#63b8ff" points="171.02,-84.43 181.44,-82.5 172.09,-77.52 171.02,-84.43"/>
</a>
</g>
</g>
<!-- Node5 -->
<g id="Node000005" class="node">
<title>Node5</title>
<g id="a_Node000005"><a xlink:href="class_fiea_1_1_engine_1_1_actions_1_1_action_add_datum.html#a87790f0a67834bbb1359f3a8280d66b2" target="_top" xlink:title=" ">
<polygon fill="white" stroke="#666666" points="145.38,-32 1.88,-32 1.88,0 145.38,0 145.38,-32"/>
<text xml:space="preserve" text-anchor="start" x="9.88" y="-18.5" font-family="Helvetica,sans-Serif" font-size="10.00">Fiea::Engine::Actions</text>
<text xml:space="preserve" text-anchor="middle" x="73.62" y="-6.5" font-family="Helvetica,sans-Serif" font-size="10.00">::ActionAddDatum::operator=</text>
</a>
</g>
</g>
<!-- Node1&#45;&gt;Node5 -->
<g id="edge4_Node000001_Node000005" class="edge">
<title>Node1&#45;&gt;Node5</title>
<g id="a_edge4_Node000001_Node000005"><a xlink:title=" ">
<path fill="none" stroke="#63b8ff" d="M203.04,-66.61C185.5,-57.95 165.72,-48.65 147.25,-41 140.1,-38.04 132.47,-35.14 124.93,-32.42"/>
<polygon fill="#63b8ff" stroke="#63b8ff" points="201.22,-69.62 211.73,-70.94 204.34,-63.35 201.22,-69.62"/>
</a>
</g>
</g>
</g>
</svg>
