<?xml version="1.0" encoding="UTF-8" standalone="no"?>
<!DOCTYPE svg PUBLIC "-//W3C//DTD SVG 1.1//EN"
 "http://www.w3.org/Graphics/SVG/1.1/DTD/svg11.dtd">
<!-- Generated by graphviz version 13.1.0 (20250701.0955)
 -->
<!-- Title: Fiea::Engine::Content::ScopeHandler::EnterKey Pages: 1 -->
<svg width="1304pt" height="532pt"
 viewBox="0.00 0.00 1304.00 532.00" xmlns="http://www.w3.org/2000/svg" xmlns:xlink="http://www.w3.org/1999/xlink">
<g id="graph0" class="graph" transform="scale(1 1) rotate(0) translate(4 528)">
<title>Fiea::Engine::Content::ScopeHandler::EnterKey</title>
<!-- Node1 -->
<g id="Node000001" class="node">
<title>Node1</title>
<g id="a_Node000001"><a xlink:title=" ">
<polygon fill="#999999" stroke="#666666" points="130,-126 0,-126 0,-94 130,-94 130,-126"/>
<text xml:space="preserve" text-anchor="start" x="8" y="-112.5" font-family="Helvetica,sans-Serif" font-size="10.00">Fiea::Engine::Content</text>
<text xml:space="preserve" text-anchor="middle" x="65" y="-100.5" font-family="Helvetica,sans-Serif" font-size="10.00">::ScopeHandler::EnterKey</text>
</a>
</g>
</g>
<!-- Node2 -->
<g id="Node000002" class="node">
<title>Node2</title>
<g id="a_Node000002"><a xlink:href="class_fiea_1_1_engine_1_1_content_1_1_scope_writer.html#a77fe1b124acb1dd1bd3f2d7f104035cf" target="_top" xlink:title=" ">
<polygon fill="white" stroke="#666666" points="292.25,-236 166,-236 166,-204 292.25,-204 292.25,-236"/>
<text xml:space="preserve" text-anchor="start" x="174" y="-222.5" font-family="Helvetica,sans-Serif" font-size="10.00">Fiea::Engine::Content</text>
<text xml:space="preserve" text-anchor="middle" x="229.12" y="-210.5" font-family="Helvetica,sans-Serif" font-size="10.00">::ScopeWriter::AddScope</text>
</a>
</g>
</g>
<!-- Node1&#45;&gt;Node2 -->
<g id="edge1_Node000001_Node000002" class="edge">
<title>Node1&#45;&gt;Node2</title>
<g id="a_edge1_Node000001_Node000002"><a xlink:title=" ">
<path fill="none" stroke="#63b8ff" d="M90.27,-126.47C118.05,-145.32 163.71,-176.29 194.81,-197.39"/>
<polygon fill="#63b8ff" stroke="#63b8ff" points="192.46,-200.03 202.7,-202.75 196.39,-194.24 192.46,-200.03"/>
</a>
</g>
</g>
<!-- Node9 -->
<g id="Node000009" class="node">
<title>Node9</title>
<g id="a_Node000009"><a xlink:href="class_fiea_1_1_engine_1_1_r_t_t_i.html#a15bd5993c8ad04da47af440298ebbb30" target="_top" xlink:title=" ">
<polygon fill="white" stroke="#666666" points="1147,-101 1030.5,-101 1030.5,-81 1147,-81 1147,-101"/>
<text xml:space="preserve" text-anchor="middle" x="1088.75" y="-87.5" font-family="Helvetica,sans-Serif" font-size="10.00">Fiea::Engine::RTTI::As</text>
</a>
</g>
</g>
<!-- Node1&#45;&gt;Node9 -->
<g id="edge41_Node000001_Node000009" class="edge">
<title>Node1&#45;&gt;Node9</title>
<g id="a_edge41_Node000001_Node000009"><a xlink:title=" ">
<path fill="none" stroke="#63b8ff" d="M95.24,-93.53C152.55,-62.85 284.51,0 403.88,0 403.88,0 403.88,0 774.62,0 881.83,0 1001.78,-49.8 1056.95,-75.72"/>
<polygon fill="#63b8ff" stroke="#63b8ff" points="1055.2,-78.76 1065.73,-79.91 1058.21,-72.44 1055.2,-78.76"/>
</a>
</g>
</g>
<!-- Node3 -->
<g id="Node000003" class="node">
<title>Node3</title>
<g id="a_Node000003"><a xlink:href="class_fiea_1_1_engine_1_1_content_1_1_scope_writer.html#a707086401a09fd8b2f07d65a1f95fd72" target="_top" xlink:title=" ">
<polygon fill="white" stroke="#666666" points="481.5,-236 328.25,-236 328.25,-204 481.5,-204 481.5,-236"/>
<text xml:space="preserve" text-anchor="start" x="336.25" y="-222.5" font-family="Helvetica,sans-Serif" font-size="10.00">Fiea::Engine::Content</text>
<text xml:space="preserve" text-anchor="middle" x="404.88" y="-210.5" font-family="Helvetica,sans-Serif" font-size="10.00">::ScopeWriter::AddGameObject</text>
</a>
</g>
</g>
<!-- Node2&#45;&gt;Node3 -->
<g id="edge2_Node000002_Node000003" class="edge">
<title>Node2&#45;&gt;Node3</title>
<g id="a_edge2_Node000002_Node000003"><a xlink:title=" ">
<path fill="none" stroke="#63b8ff" d="M292.36,-220C300.17,-220 308.27,-220 316.38,-220"/>
<polygon fill="#63b8ff" stroke="#63b8ff" points="316.3,-223.5 326.3,-220 316.3,-216.5 316.3,-223.5"/>
</a>
</g>
</g>
<!-- Node17 -->
<g id="Node000017" class="node">
<title>Node17</title>
<g id="a_Node000017"><a xlink:href="class_fiea_1_1_engine_1_1_content_1_1_scope.html#a002f54731a8996f37c4f725d8175ffee" target="_top" xlink:title="Appends a new Scope as a child under the specified key.">
<polygon fill="white" stroke="#666666" points="649.38,-286 532.88,-286 532.88,-254 649.38,-254 649.38,-286"/>
<text xml:space="preserve" text-anchor="start" x="540.88" y="-272.5" font-family="Helvetica,sans-Serif" font-size="10.00">Fiea::Engine::Content</text>
<text xml:space="preserve" text-anchor="middle" x="591.12" y="-260.5" font-family="Helvetica,sans-Serif" font-size="10.00">::Scope::AppendScope</text>
</a>
</g>
</g>
<!-- Node2&#45;&gt;Node17 -->
<g id="edge38_Node000002_Node000017" class="edge">
<title>Node2&#45;&gt;Node17</title>
<g id="a_edge38_Node000002_Node000017"><a xlink:title=" ">
<path fill="none" stroke="#63b8ff" d="M288.7,-236.49C301.64,-239.7 315.35,-242.75 328.25,-245 393.22,-256.31 468.22,-262.81 521.26,-266.34"/>
<polygon fill="#63b8ff" stroke="#63b8ff" points="520.85,-269.82 531.06,-266.97 521.3,-262.83 520.85,-269.82"/>
</a>
</g>
</g>
<!-- Node23 -->
<g id="Node000023" class="node">
<title>Node23</title>
<g id="a_Node000023"><a xlink:href="struct_fiea_1_1_engine_1_1_content_1_1_i_factory_service.html#a06ed01632b58a4faeb159d3e9a0ef51f" target="_top" xlink:title=" ">
<polygon fill="white" stroke="#666666" points="654.25,-98 528,-98 528,-66 654.25,-66 654.25,-98"/>
<text xml:space="preserve" text-anchor="start" x="536" y="-84.5" font-family="Helvetica,sans-Serif" font-size="10.00">Fiea::Engine::Content</text>
<text xml:space="preserve" text-anchor="middle" x="591.12" y="-72.5" font-family="Helvetica,sans-Serif" font-size="10.00">::IFactoryService::Create</text>
</a>
</g>
</g>
<!-- Node2&#45;&gt;Node23 -->
<g id="edge39_Node000002_Node000023" class="edge">
<title>Node2&#45;&gt;Node23</title>
<g id="a_edge39_Node000002_Node000023"><a xlink:title=" ">
<path fill="none" stroke="#63b8ff" d="M272.84,-203.63C338.65,-178.4 464.75,-130.06 536.57,-102.53"/>
<polygon fill="#63b8ff" stroke="#63b8ff" points="537.69,-105.85 545.78,-99 535.19,-99.31 537.69,-105.85"/>
</a>
</g>
</g>
<!-- Node25 -->
<g id="Node000025" class="node">
<title>Node25</title>
<g id="a_Node000025"><a xlink:href="class_fiea_1_1_engine_1_1_service_manager.html#a8aac9b15b7e5483c2b1cd5febe590a0c" target="_top" xlink:title=" ">
<polygon fill="white" stroke="#666666" points="664.75,-336 517.5,-336 517.5,-304 664.75,-304 664.75,-336"/>
<text xml:space="preserve" text-anchor="start" x="525.5" y="-322.5" font-family="Helvetica,sans-Serif" font-size="10.00">Fiea::Engine::ServiceManager</text>
<text xml:space="preserve" text-anchor="middle" x="591.12" y="-310.5" font-family="Helvetica,sans-Serif" font-size="10.00">::ProvideInterface</text>
</a>
</g>
</g>
<!-- Node2&#45;&gt;Node25 -->
<g id="edge40_Node000002_Node000025" class="edge">
<title>Node2&#45;&gt;Node25</title>
<g id="a_edge40_Node000002_Node000025"><a xlink:title=" ">
<path fill="none" stroke="#63b8ff" d="M258.49,-236.32C277.65,-246.72 303.81,-259.75 328.25,-268 386.15,-287.54 453.86,-300.74 505.92,-308.96"/>
<polygon fill="#63b8ff" stroke="#63b8ff" points="505.21,-312.39 515.62,-310.45 506.28,-305.47 505.21,-312.39"/>
</a>
</g>
</g>
<!-- Node4 -->
<g id="Node000004" class="node">
<title>Node4</title>
<g id="a_Node000004"><a xlink:href="class_fiea_1_1_engine_1_1_game_object.html#a4d89e3a21dd6381eac8a1f1189ea029e" target="_top" xlink:title=" ">
<polygon fill="white" stroke="#666666" points="656.88,-236 525.38,-236 525.38,-204 656.88,-204 656.88,-236"/>
<text xml:space="preserve" text-anchor="start" x="533.38" y="-222.5" font-family="Helvetica,sans-Serif" font-size="10.00">Fiea::Engine::GameObject</text>
<text xml:space="preserve" text-anchor="middle" x="591.12" y="-210.5" font-family="Helvetica,sans-Serif" font-size="10.00">::AddChild</text>
</a>
</g>
</g>
<!-- Node3&#45;&gt;Node4 -->
<g id="edge3_Node000003_Node000004" class="edge">
<title>Node3&#45;&gt;Node4</title>
<g id="a_edge3_Node000003_Node000004"><a xlink:title=" ">
<path fill="none" stroke="#63b8ff" d="M481.88,-220C492.44,-220 503.28,-220 513.84,-220"/>
<polygon fill="#63b8ff" stroke="#63b8ff" points="513.65,-223.5 523.65,-220 513.65,-216.5 513.65,-223.5"/>
</a>
</g>
</g>
<!-- Node3&#45;&gt;Node9 -->
<g id="edge33_Node000003_Node000009" class="edge">
<title>Node3&#45;&gt;Node9</title>
<g id="a_edge33_Node000003_Node000009"><a xlink:title=" ">
<path fill="none" stroke="#63b8ff" d="M462.81,-203.53C521.89,-186.9 617.17,-161.41 700.75,-145 760.16,-133.34 924.86,-111.69 1019.15,-99.64"/>
<polygon fill="#63b8ff" stroke="#63b8ff" points="1019.31,-103.15 1028.78,-98.42 1018.42,-96.21 1019.31,-103.15"/>
</a>
</g>
</g>
<!-- Node3&#45;&gt;Node17 -->
<g id="edge23_Node000003_Node000017" class="edge">
<title>Node3&#45;&gt;Node17</title>
<g id="a_edge23_Node000003_Node000017"><a xlink:title=" ">
<path fill="none" stroke="#63b8ff" d="M466.46,-236.44C484.09,-241.23 503.48,-246.49 521.56,-251.39"/>
<polygon fill="#63b8ff" stroke="#63b8ff" points="520.6,-254.76 531.17,-254 522.44,-248 520.6,-254.76"/>
</a>
</g>
</g>
<!-- Node3&#45;&gt;Node23 -->
<g id="edge34_Node000003_Node000023" class="edge">
<title>Node3&#45;&gt;Node23</title>
<g id="a_edge34_Node000003_Node000023"><a xlink:title=" ">
<path fill="none" stroke="#63b8ff" d="M422.17,-203.57C450.49,-175.11 506.79,-119.02 517.5,-112 522.3,-108.86 527.48,-105.93 532.79,-103.25"/>
<polygon fill="#63b8ff" stroke="#63b8ff" points="534.17,-106.46 541.72,-99.02 531.18,-100.14 534.17,-106.46"/>
</a>
</g>
</g>
<!-- Node3&#45;&gt;Node25 -->
<g id="edge37_Node000003_Node000025" class="edge">
<title>Node3&#45;&gt;Node25</title>
<g id="a_edge37_Node000003_Node000025"><a xlink:title=" ">
<path fill="none" stroke="#63b8ff" d="M426.68,-236.4C448.37,-252.91 483.84,-278.26 517.5,-295 520.41,-296.45 523.42,-297.85 526.5,-299.19"/>
<polygon fill="#63b8ff" stroke="#63b8ff" points="525.12,-302.41 535.7,-302.98 527.79,-295.94 525.12,-302.41"/>
</a>
</g>
</g>
<!-- Node5 -->
<g id="Node000005" class="node">
<title>Node5</title>
<g id="a_Node000005"><a xlink:href="class_fiea_1_1_engine_1_1_content_1_1_scope.html#aa91d6470fd3d3f402bbb2e765be54455" target="_top" xlink:title="Appends a new Datum with the given key.">
<polygon fill="white" stroke="#666666" points="829.25,-286 718,-286 718,-254 829.25,-254 829.25,-286"/>
<text xml:space="preserve" text-anchor="start" x="726" y="-272.5" font-family="Helvetica,sans-Serif" font-size="10.00">Fiea::Engine::Content</text>
<text xml:space="preserve" text-anchor="middle" x="773.62" y="-260.5" font-family="Helvetica,sans-Serif" font-size="10.00">::Scope::Append</text>
</a>
</g>
</g>
<!-- Node4&#45;&gt;Node5 -->
<g id="edge4_Node000004_Node000005" class="edge">
<title>Node4&#45;&gt;Node5</title>
<g id="a_edge4_Node000004_Node000005"><a xlink:title=" ">
<path fill="none" stroke="#63b8ff" d="M651.48,-236.44C669.09,-241.32 688.49,-246.69 706.51,-251.68"/>
<polygon fill="#63b8ff" stroke="#63b8ff" points="705.49,-255.03 716.06,-254.33 707.35,-248.29 705.49,-255.03"/>
</a>
</g>
</g>
<!-- Node6 -->
<g id="Node000006" class="node">
<title>Node6</title>
<g id="a_Node000006"><a xlink:href="class_fiea_1_1_engine_1_1_game_object.html#ad3a296dd56ec43cc9f81eef0b1d14db6" target="_top" xlink:title=" ">
<polygon fill="white" stroke="#666666" points="839.38,-186 707.88,-186 707.88,-154 839.38,-154 839.38,-186"/>
<text xml:space="preserve" text-anchor="start" x="715.88" y="-172.5" font-family="Helvetica,sans-Serif" font-size="10.00">Fiea::Engine::GameObject</text>
<text xml:space="preserve" text-anchor="middle" x="773.62" y="-160.5" font-family="Helvetica,sans-Serif" font-size="10.00">::GameObject</text>
</a>
</g>
</g>
<!-- Node4&#45;&gt;Node6 -->
<g id="edge5_Node000004_Node000006" class="edge">
<title>Node4&#45;&gt;Node6</title>
<g id="a_edge5_Node000004_Node000006"><a xlink:title=" ">
<path fill="none" stroke="#63b8ff" d="M651.48,-203.56C667.75,-199.05 685.54,-194.12 702.35,-189.47"/>
<polygon fill="#63b8ff" stroke="#63b8ff" points="703.08,-192.9 711.78,-186.86 701.21,-186.15 703.08,-192.9"/>
</a>
</g>
</g>
<!-- Node14 -->
<g id="Node000014" class="node">
<title>Node14</title>
<g id="a_Node000014"><a xlink:href="class_fiea_1_1_engine_1_1_content_1_1_datum.html#acb3ba55fc9b39b876cf3334d0305f4fc" target="_top" xlink:title=" ">
<polygon fill="white" stroke="#666666" points="829.25,-236 718,-236 718,-204 829.25,-204 829.25,-236"/>
<text xml:space="preserve" text-anchor="start" x="726" y="-222.5" font-family="Helvetica,sans-Serif" font-size="10.00">Fiea::Engine::Content</text>
<text xml:space="preserve" text-anchor="middle" x="773.62" y="-210.5" font-family="Helvetica,sans-Serif" font-size="10.00">::Datum::Push</text>
</a>
</g>
</g>
<!-- Node4&#45;&gt;Node14 -->
<g id="edge18_Node000004_Node000014" class="edge">
<title>Node4&#45;&gt;Node14</title>
<g id="a_edge18_Node000004_Node000014"><a xlink:title=" ">
<path fill="none" stroke="#63b8ff" d="M657.29,-220C673.22,-220 690.27,-220 706.26,-220"/>
<polygon fill="#63b8ff" stroke="#63b8ff" points="706.16,-223.5 716.16,-220 706.16,-216.5 706.16,-223.5"/>
</a>
</g>
</g>
<!-- Node7 -->
<g id="Node000007" class="node">
<title>Node7</title>
<g id="a_Node000007"><a xlink:href="class_fiea_1_1_engine_1_1_content_1_1_attributed.html#ad1ae014235d9d8b62b36066c94164148" target="_top" xlink:title=" ">
<polygon fill="white" stroke="#666666" points="994.5,-254 882.5,-254 882.5,-222 994.5,-222 994.5,-254"/>
<text xml:space="preserve" text-anchor="start" x="890.5" y="-240.5" font-family="Helvetica,sans-Serif" font-size="10.00">Fiea::Engine::Content</text>
<text xml:space="preserve" text-anchor="middle" x="938.5" y="-228.5" font-family="Helvetica,sans-Serif" font-size="10.00">::Attributed::Attributed</text>
</a>
</g>
</g>
<!-- Node6&#45;&gt;Node7 -->
<g id="edge6_Node000006_Node000007" class="edge">
<title>Node6&#45;&gt;Node7</title>
<g id="a_edge6_Node000006_Node000007"><a xlink:title=" ">
<path fill="none" stroke="#63b8ff" d="M824.43,-186.39C831.89,-189.11 839.44,-192.02 846.5,-195 862.98,-201.95 866.35,-205.3 882.5,-213 885.07,-214.23 887.71,-215.47 890.38,-216.72"/>
<polygon fill="#63b8ff" stroke="#63b8ff" points="888.81,-219.85 899.35,-220.88 891.75,-213.5 888.81,-219.85"/>
</a>
</g>
</g>
<!-- Node8 -->
<g id="Node000008" class="node">
<title>Node8</title>
<g id="a_Node000008"><a xlink:href="class_fiea_1_1_engine_1_1_r_t_t_i.html#a876bebbe7b3149483c43a87f55f4ea99" target="_top" xlink:title=" ">
<polygon fill="white" stroke="#666666" points="987.75,-186 889.25,-186 889.25,-154 987.75,-154 987.75,-186"/>
<text xml:space="preserve" text-anchor="start" x="897.25" y="-172.5" font-family="Helvetica,sans-Serif" font-size="10.00">Fiea::Engine::RTTI</text>
<text xml:space="preserve" text-anchor="middle" x="938.5" y="-160.5" font-family="Helvetica,sans-Serif" font-size="10.00">::TypeIdInstance</text>
</a>
</g>
</g>
<!-- Node6&#45;&gt;Node8 -->
<g id="edge8_Node000006_Node000008" class="edge">
<title>Node6&#45;&gt;Node8</title>
<g id="a_edge8_Node000006_Node000008"><a xlink:title=" ">
<path fill="none" stroke="#63b8ff" d="M839.47,-170C852.1,-170 865.29,-170 877.75,-170"/>
<polygon fill="#63b8ff" stroke="#63b8ff" points="877.43,-173.5 887.43,-170 877.43,-166.5 877.43,-173.5"/>
</a>
</g>
</g>
<!-- Node7&#45;&gt;Node7 -->
<g id="edge7_Node000007_Node000007" class="edge">
<title>Node7&#45;&gt;Node7</title>
<g id="a_edge7_Node000007_Node000007"><a xlink:title=" ">
<path fill="none" stroke="#63b8ff" d="M911.68,-254.44C906.67,-263.58 915.61,-272 938.5,-272 951.02,-272 959.36,-269.48 963.54,-265.71"/>
<polygon fill="#63b8ff" stroke="#63b8ff" points="966.98,-266.36 965.09,-255.94 960.06,-265.27 966.98,-266.36"/>
</a>
</g>
</g>
<!-- Node8&#45;&gt;Node8 -->
<g id="edge17_Node000008_Node000008" class="edge">
<title>Node8&#45;&gt;Node8</title>
<g id="a_edge17_Node000008_Node000008"><a xlink:title=" ">
<path fill="none" stroke="#63b8ff" d="M911.68,-186.44C906.67,-195.58 915.61,-204 938.5,-204 951.02,-204 959.36,-201.48 963.54,-197.71"/>
<polygon fill="#63b8ff" stroke="#63b8ff" points="966.98,-198.36 965.09,-187.94 960.06,-197.27 966.98,-198.36"/>
</a>
</g>
</g>
<!-- Node8&#45;&gt;Node9 -->
<g id="edge9_Node000008_Node000009" class="edge">
<title>Node8&#45;&gt;Node9</title>
<g id="a_edge9_Node000008_Node000009"><a xlink:title=" ">
<path fill="none" stroke="#63b8ff" d="M970.96,-153.6C978.75,-149.33 987,-144.63 994.5,-140 1011.07,-129.77 1013.42,-124.37 1030.5,-115 1036.37,-111.78 1042.76,-108.71 1049.08,-105.9"/>
<polygon fill="#63b8ff" stroke="#63b8ff" points="1050.31,-109.18 1058.14,-102.05 1047.57,-102.74 1050.31,-109.18"/>
</a>
</g>
</g>
<!-- Node10 -->
<g id="Node000010" class="node">
<title>Node10</title>
<g id="a_Node000010"><a xlink:href="class_fiea_1_1_engine_1_1_r_t_t_i.html#ac0a7d875e4513b2aca7594abcd4418ef" target="_top" xlink:title=" ">
<polygon fill="white" stroke="#666666" points="1295.75,-117 1183,-117 1183,-97 1295.75,-97 1295.75,-117"/>
<text xml:space="preserve" text-anchor="middle" x="1239.38" y="-103.5" font-family="Helvetica,sans-Serif" font-size="10.00">Fiea::Engine::RTTI::Is</text>
</a>
</g>
</g>
<!-- Node8&#45;&gt;Node10 -->
<g id="edge14_Node000008_Node000010" class="edge">
<title>Node8&#45;&gt;Node10</title>
<g id="a_edge14_Node000008_Node000010"><a xlink:title=" ">
<path fill="none" stroke="#63b8ff" d="M988.18,-159.74C1039.87,-148.84 1121.66,-131.6 1177.55,-119.82"/>
<polygon fill="#63b8ff" stroke="#63b8ff" points="1178.17,-123.27 1187.23,-117.78 1176.73,-116.42 1178.17,-123.27"/>
</a>
</g>
</g>
<!-- Node11 -->
<g id="Node000011" class="node">
<title>Node11</title>
<g id="a_Node000011"><a xlink:href="class_fiea_1_1_engine_1_1_r_t_t_i.html#a13000029a2e6cced30b831e466e07cae" target="_top" xlink:title=" ">
<polygon fill="white" stroke="#666666" points="1288.62,-183 1190.12,-183 1190.12,-151 1288.62,-151 1288.62,-183"/>
<text xml:space="preserve" text-anchor="start" x="1198.12" y="-169.5" font-family="Helvetica,sans-Serif" font-size="10.00">Fiea::Engine::RTTI</text>
<text xml:space="preserve" text-anchor="middle" x="1239.38" y="-157.5" font-family="Helvetica,sans-Serif" font-size="10.00">::RTTI</text>
</a>
</g>
</g>
<!-- Node8&#45;&gt;Node11 -->
<g id="edge15_Node000008_Node000011" class="edge">
<title>Node8&#45;&gt;Node11</title>
<g id="a_edge15_Node000008_Node000011"><a xlink:title=" ">
<path fill="none" stroke="#63b8ff" d="M988.18,-169.51C1040.07,-168.99 1122.29,-168.17 1178.2,-167.6"/>
<polygon fill="#63b8ff" stroke="#63b8ff" points="1178.23,-171.1 1188.2,-167.5 1178.16,-164.1 1178.23,-171.1"/>
</a>
</g>
</g>
<!-- Node12 -->
<g id="Node000012" class="node">
<title>Node12</title>
<g id="a_Node000012"><a xlink:href="class_fiea_1_1_engine_1_1_r_t_t_i.html#a7f70ad5ba0f8a3388543d63d72892575" target="_top" xlink:title=" ">
<polygon fill="white" stroke="#666666" points="1138,-277 1039.5,-277 1039.5,-245 1138,-245 1138,-277"/>
<text xml:space="preserve" text-anchor="start" x="1047.5" y="-263.5" font-family="Helvetica,sans-Serif" font-size="10.00">Fiea::Engine::RTTI</text>
<text xml:space="preserve" text-anchor="middle" x="1088.75" y="-251.5" font-family="Helvetica,sans-Serif" font-size="10.00">::Equals</text>
</a>
</g>
</g>
<!-- Node8&#45;&gt;Node12 -->
<g id="edge12_Node000008_Node000012" class="edge">
<title>Node8&#45;&gt;Node12</title>
<g id="a_edge12_Node000008_Node000012"><a xlink:title=" ">
<path fill="none" stroke="#63b8ff" d="M959.25,-186.25C977.14,-200.49 1004.58,-221.17 1030.5,-236 1032.64,-237.23 1034.85,-238.43 1037.11,-239.61"/>
<polygon fill="#63b8ff" stroke="#63b8ff" points="1035.3,-242.62 1045.82,-243.92 1038.41,-236.34 1035.3,-242.62"/>
</a>
</g>
</g>
<!-- Node13 -->
<g id="Node000013" class="node">
<title>Node13</title>
<g id="a_Node000013"><a xlink:href="class_fiea_1_1_engine_1_1_r_t_t_i.html#a43a7d187e332a17d2c699bc2c8136a30" target="_top" xlink:title=" ">
<polygon fill="white" stroke="#666666" points="1138,-227 1039.5,-227 1039.5,-195 1138,-195 1138,-227"/>
<text xml:space="preserve" text-anchor="start" x="1047.5" y="-213.5" font-family="Helvetica,sans-Serif" font-size="10.00">Fiea::Engine::RTTI</text>
<text xml:space="preserve" text-anchor="middle" x="1088.75" y="-201.5" font-family="Helvetica,sans-Serif" font-size="10.00">::ToString</text>
</a>
</g>
</g>
<!-- Node8&#45;&gt;Node13 -->
<g id="edge16_Node000008_Node000013" class="edge">
<title>Node8&#45;&gt;Node13</title>
<g id="a_edge16_Node000008_Node000013"><a xlink:title=" ">
<path fill="none" stroke="#63b8ff" d="M988.04,-183.42C1000.84,-186.96 1014.8,-190.82 1028.11,-194.51"/>
<polygon fill="#63b8ff" stroke="#63b8ff" points="1027.07,-197.85 1037.64,-197.14 1028.93,-191.1 1027.07,-197.85"/>
</a>
</g>
</g>
<!-- Node9&#45;&gt;Node10 -->
<g id="edge10_Node000009_Node000010" class="edge">
<title>Node9&#45;&gt;Node10</title>
<g id="a_edge10_Node000009_Node000010"><a xlink:title=" ">
<path fill="none" stroke="#63b8ff" d="M1147.21,-97.19C1155.1,-98.03 1163.25,-98.91 1171.28,-99.78"/>
<polygon fill="#63b8ff" stroke="#63b8ff" points="1170.71,-103.24 1181.03,-100.83 1171.46,-96.28 1170.71,-103.24"/>
</a>
</g>
</g>
<!-- Node9&#45;&gt;Node11 -->
<g id="edge11_Node000009_Node000011" class="edge">
<title>Node9&#45;&gt;Node11</title>
<g id="a_edge11_Node000009_Node000011"><a xlink:title=" ">
<path fill="none" stroke="#63b8ff" d="M1110.1,-101.41C1132.2,-112.7 1168.09,-131.06 1196.3,-145.48"/>
<polygon fill="#63b8ff" stroke="#63b8ff" points="1194.46,-148.47 1204.96,-149.91 1197.65,-142.24 1194.46,-148.47"/>
</a>
</g>
</g>
<!-- Node12&#45;&gt;Node11 -->
<g id="edge13_Node000012_Node000011" class="edge">
<title>Node12&#45;&gt;Node11</title>
<g id="a_edge13_Node000012_Node000011"><a xlink:title=" ">
<path fill="none" stroke="#63b8ff" d="M1130.69,-244.54C1136.27,-241.88 1141.85,-239.01 1147,-236 1169.65,-222.75 1193.23,-204.82 1210.77,-190.56"/>
<polygon fill="#63b8ff" stroke="#63b8ff" points="1212.69,-193.51 1218.18,-184.44 1208.24,-188.11 1212.69,-193.51"/>
</a>
</g>
</g>
<!-- Node15 -->
<g id="Node000015" class="node">
<title>Node15</title>
<g id="a_Node000015"><a xlink:href="class_fiea_1_1_engine_1_1_content_1_1_datum.html#a818f812e4489e57885c88951bc0601b3" target="_top" xlink:title=" ">
<polygon fill="white" stroke="#666666" points="994.12,-360 882.88,-360 882.88,-328 994.12,-328 994.12,-360"/>
<text xml:space="preserve" text-anchor="start" x="890.88" y="-346.5" font-family="Helvetica,sans-Serif" font-size="10.00">Fiea::Engine::Content</text>
<text xml:space="preserve" text-anchor="middle" x="938.5" y="-334.5" font-family="Helvetica,sans-Serif" font-size="10.00">::Datum::ResizeArray</text>
</a>
</g>
</g>
<!-- Node14&#45;&gt;Node15 -->
<g id="edge19_Node000014_Node000015" class="edge">
<title>Node14&#45;&gt;Node15</title>
<g id="a_edge19_Node000014_Node000015"><a xlink:title=" ">
<path fill="none" stroke="#63b8ff" d="M829.63,-234.12C835.71,-237.1 841.5,-240.68 846.5,-245 872.68,-267.61 858.27,-289.32 882.5,-314 885.05,-316.6 887.88,-319.03 890.86,-321.3"/>
<polygon fill="#63b8ff" stroke="#63b8ff" points="888.68,-324.05 898.92,-326.75 892.6,-318.25 888.68,-324.05"/>
</a>
</g>
</g>
<!-- Node16 -->
<g id="Node000016" class="node">
<title>Node16</title>
<g id="a_Node000016"><a xlink:href="class_fiea_1_1_engine_1_1_content_1_1_datum.html#a921193447f6e42f596ac0a7694b02830" target="_top" xlink:title=" ">
<polygon fill="white" stroke="#666666" points="1144.38,-343 1033.12,-343 1033.12,-311 1144.38,-311 1144.38,-343"/>
<text xml:space="preserve" text-anchor="start" x="1041.12" y="-329.5" font-family="Helvetica,sans-Serif" font-size="10.00">Fiea::Engine::Content</text>
<text xml:space="preserve" text-anchor="middle" x="1088.75" y="-317.5" font-family="Helvetica,sans-Serif" font-size="10.00">::Datum::Scope</text>
</a>
</g>
</g>
<!-- Node14&#45;&gt;Node16 -->
<g id="edge22_Node000014_Node000016" class="edge">
<title>Node14&#45;&gt;Node16</title>
<g id="a_edge22_Node000014_Node000016"><a xlink:title=" ">
<path fill="none" stroke="#63b8ff" d="M829.6,-236.19C835.49,-238.77 841.24,-241.7 846.5,-245 865.67,-257.02 862.67,-270.09 882.5,-281 925.44,-304.62 979.76,-316.12 1021.73,-321.71"/>
<polygon fill="#63b8ff" stroke="#63b8ff" points="1021.09,-325.16 1031.44,-322.92 1021.95,-318.21 1021.09,-325.16"/>
</a>
</g>
</g>
<!-- Node15&#45;&gt;Node16 -->
<g id="edge20_Node000015_Node000016" class="edge">
<title>Node15&#45;&gt;Node16</title>
<g id="a_edge20_Node000015_Node000016"><a xlink:title=" ">
<path fill="none" stroke="#63b8ff" d="M994.28,-337.72C1003.1,-336.71 1012.3,-335.65 1021.36,-334.61"/>
<polygon fill="#63b8ff" stroke="#63b8ff" points="1021.66,-338.1 1031.19,-333.49 1020.86,-331.15 1021.66,-338.1"/>
</a>
</g>
</g>
<!-- Node16&#45;&gt;Node16 -->
<g id="edge21_Node000016_Node000016" class="edge">
<title>Node16&#45;&gt;Node16</title>
<g id="a_edge21_Node000016_Node000016"><a xlink:title=" ">
<path fill="none" stroke="#63b8ff" d="M1061.93,-343.44C1056.92,-352.58 1065.86,-361 1088.75,-361 1101.27,-361 1109.61,-358.48 1113.79,-354.71"/>
<polygon fill="#63b8ff" stroke="#63b8ff" points="1117.23,-355.36 1115.34,-344.94 1110.31,-354.27 1117.23,-355.36"/>
</a>
</g>
</g>
<!-- Node17&#45;&gt;Node5 -->
<g id="edge24_Node000017_Node000005" class="edge">
<title>Node17&#45;&gt;Node5</title>
<g id="a_edge24_Node000017_Node000005"><a xlink:title=" ">
<path fill="none" stroke="#63b8ff" d="M649.73,-270C667.76,-270 687.8,-270 706.37,-270"/>
<polygon fill="#63b8ff" stroke="#63b8ff" points="706.2,-273.5 716.2,-270 706.2,-266.5 706.2,-273.5"/>
</a>
</g>
</g>
<!-- Node17&#45;&gt;Node14 -->
<g id="edge27_Node000017_Node000014" class="edge">
<title>Node17&#45;&gt;Node14</title>
<g id="a_edge27_Node000017_Node000014"><a xlink:title=" ">
<path fill="none" stroke="#63b8ff" d="M649.73,-254.04C667.85,-249.02 687.99,-243.45 706.63,-238.28"/>
<polygon fill="#63b8ff" stroke="#63b8ff" points="707.55,-241.66 716.26,-235.61 705.69,-234.91 707.55,-241.66"/>
</a>
</g>
</g>
<!-- Node18 -->
<g id="Node000018" class="node">
<title>Node18</title>
<g id="a_Node000018"><a xlink:href="class_fiea_1_1_engine_1_1_content_1_1_scope.html#ad924c01785b239991fc0e56a63295612" target="_top" xlink:title="Finds a Datum by key.">
<polygon fill="white" stroke="#666666" points="829.25,-424 718,-424 718,-392 829.25,-392 829.25,-424"/>
<text xml:space="preserve" text-anchor="start" x="726" y="-410.5" font-family="Helvetica,sans-Serif" font-size="10.00">Fiea::Engine::Content</text>
<text xml:space="preserve" text-anchor="middle" x="773.62" y="-398.5" font-family="Helvetica,sans-Serif" font-size="10.00">::Scope::Find</text>
</a>
</g>
</g>
<!-- Node17&#45;&gt;Node18 -->
<g id="edge25_Node000017_Node000018" class="edge">
<title>Node17&#45;&gt;Node18</title>
<g id="a_edge25_Node000017_Node000018"><a xlink:title=" ">
<path fill="none" stroke="#63b8ff" d="M649.56,-284.36C655.09,-287.28 660.29,-290.79 664.75,-295 695.47,-324.02 670.08,-353.93 700.75,-383 702.97,-385.1 705.37,-387.03 707.9,-388.79"/>
<polygon fill="#63b8ff" stroke="#63b8ff" points="705.88,-391.66 716.28,-393.73 709.44,-385.63 705.88,-391.66"/>
</a>
</g>
</g>
<!-- Node19 -->
<g id="Node000019" class="node">
<title>Node19</title>
<g id="a_Node000019"><a xlink:href="class_fiea_1_1_engine_1_1_content_1_1_datum.html#a6e9dfba6e16fddc4efc39b8182dad89f" target="_top" xlink:title=" ">
<polygon fill="white" stroke="#666666" points="829.25,-374 718,-374 718,-342 829.25,-342 829.25,-374"/>
<text xml:space="preserve" text-anchor="start" x="726" y="-360.5" font-family="Helvetica,sans-Serif" font-size="10.00">Fiea::Engine::Content</text>
<text xml:space="preserve" text-anchor="middle" x="773.62" y="-348.5" font-family="Helvetica,sans-Serif" font-size="10.00">::Datum::IsType</text>
</a>
</g>
</g>
<!-- Node17&#45;&gt;Node19 -->
<g id="edge26_Node000017_Node000019" class="edge">
<title>Node17&#45;&gt;Node19</title>
<g id="a_edge26_Node000017_Node000019"><a xlink:title=" ">
<path fill="none" stroke="#63b8ff" d="M647.54,-286.37C653.51,-288.92 659.36,-291.8 664.75,-295 683.4,-306.1 682.46,-316.31 700.75,-328 705.61,-331.11 710.85,-334.01 716.2,-336.69"/>
<polygon fill="#63b8ff" stroke="#63b8ff" points="714.66,-339.84 725.19,-340.93 717.64,-333.5 714.66,-339.84"/>
</a>
</g>
</g>
<!-- Node20 -->
<g id="Node000020" class="node">
<title>Node20</title>
<g id="a_Node000020"><a xlink:href="class_fiea_1_1_engine_1_1_content_1_1_scope.html#a6631343c968c233ab1d9c3e05c3f4fe9" target="_top" xlink:title=" ">
<polygon fill="white" stroke="#666666" points="994.12,-467 882.88,-467 882.88,-435 994.12,-435 994.12,-467"/>
<text xml:space="preserve" text-anchor="start" x="890.88" y="-453.5" font-family="Helvetica,sans-Serif" font-size="10.00">Fiea::Engine::Content</text>
<text xml:space="preserve" text-anchor="middle" x="938.5" y="-441.5" font-family="Helvetica,sans-Serif" font-size="10.00">::Scope::Scope</text>
</a>
</g>
</g>
<!-- Node17&#45;&gt;Node20 -->
<g id="edge28_Node000017_Node000020" class="edge">
<title>Node17&#45;&gt;Node20</title>
<g id="a_edge28_Node000017_Node000020"><a xlink:title=" ">
<path fill="none" stroke="#63b8ff" d="M649.6,-283.22C722.03,-300.04 838.15,-327.55 846.5,-333 865.17,-345.19 899.95,-394.45 920.68,-425.34"/>
<polygon fill="#63b8ff" stroke="#63b8ff" points="917.59,-427.01 926.04,-433.39 923.41,-423.13 917.59,-427.01"/>
</a>
</g>
</g>
<!-- Node21 -->
<g id="Node000021" class="node">
<title>Node21</title>
<g id="a_Node000021"><a xlink:href="class_fiea_1_1_engine_1_1_content_1_1_scope.html#af6a94922a8fa123c3b22b7b4485963de" target="_top" xlink:title=" ">
<polygon fill="white" stroke="#666666" points="829.25,-524 718,-524 718,-492 829.25,-492 829.25,-524"/>
<text xml:space="preserve" text-anchor="start" x="726" y="-510.5" font-family="Helvetica,sans-Serif" font-size="10.00">Fiea::Engine::Content</text>
<text xml:space="preserve" text-anchor="middle" x="773.62" y="-498.5" font-family="Helvetica,sans-Serif" font-size="10.00">::Scope::SetParent</text>
</a>
</g>
</g>
<!-- Node17&#45;&gt;Node21 -->
<g id="edge30_Node000017_Node000021" class="edge">
<title>Node17&#45;&gt;Node21</title>
<g id="a_edge30_Node000017_Node000021"><a xlink:title=" ">
<path fill="none" stroke="#63b8ff" d="M649.74,-283.11C655.38,-286.26 660.56,-290.16 664.75,-295 720.48,-359.28 645.13,-418.63 700.75,-483 702.94,-485.53 705.39,-487.8 708.05,-489.85"/>
<polygon fill="#63b8ff" stroke="#63b8ff" points="706.1,-492.76 716.43,-495.14 709.84,-486.84 706.1,-492.76"/>
</a>
</g>
</g>
<!-- Node22 -->
<g id="Node000022" class="node">
<title>Node22</title>
<g id="a_Node000022"><a xlink:href="class_fiea_1_1_engine_1_1_content_1_1_datum.html#a23d1f16d9646f024a5dee1f05dbd5a5e" target="_top" xlink:title=" ">
<polygon fill="white" stroke="#666666" points="829.25,-474 718,-474 718,-442 829.25,-442 829.25,-474"/>
<text xml:space="preserve" text-anchor="start" x="726" y="-460.5" font-family="Helvetica,sans-Serif" font-size="10.00">Fiea::Engine::Content</text>
<text xml:space="preserve" text-anchor="middle" x="773.62" y="-448.5" font-family="Helvetica,sans-Serif" font-size="10.00">::Datum::SetType</text>
</a>
</g>
</g>
<!-- Node17&#45;&gt;Node22 -->
<g id="edge32_Node000017_Node000022" class="edge">
<title>Node17&#45;&gt;Node22</title>
<g id="a_edge32_Node000017_Node000022"><a xlink:title=" ">
<path fill="none" stroke="#63b8ff" d="M649.79,-283.59C655.35,-286.65 660.49,-290.4 664.75,-295 707.83,-341.5 657.75,-386.43 700.75,-433 702.98,-435.41 705.45,-437.59 708.1,-439.56"/>
<polygon fill="#63b8ff" stroke="#63b8ff" points="706.04,-442.4 716.39,-444.68 709.72,-436.45 706.04,-442.4"/>
</a>
</g>
</g>
<!-- Node20&#45;&gt;Node20 -->
<g id="edge29_Node000020_Node000020" class="edge">
<title>Node20&#45;&gt;Node20</title>
<g id="a_edge29_Node000020_Node000020"><a xlink:title=" ">
<path fill="none" stroke="#63b8ff" d="M911.68,-467.44C906.67,-476.58 915.61,-485 938.5,-485 951.02,-485 959.36,-482.48 963.54,-478.71"/>
<polygon fill="#63b8ff" stroke="#63b8ff" points="966.98,-479.36 965.09,-468.94 960.06,-478.27 966.98,-479.36"/>
</a>
</g>
</g>
<!-- Node21&#45;&gt;Node20 -->
<g id="edge31_Node000021_Node000020" class="edge">
<title>Node21&#45;&gt;Node20</title>
<g id="a_edge31_Node000021_Node000020"><a xlink:title=" ">
<path fill="none" stroke="#63b8ff" d="M821.8,-491.62C830.04,-488.75 838.52,-485.79 846.5,-483 857.4,-479.19 869.03,-475.11 880.21,-471.18"/>
<polygon fill="#63b8ff" stroke="#63b8ff" points="881.05,-474.59 889.32,-467.98 878.73,-467.99 881.05,-474.59"/>
</a>
</g>
</g>
<!-- Node23&#45;&gt;Node9 -->
<g id="edge35_Node000023_Node000009" class="edge">
<title>Node23&#45;&gt;Node9</title>
<g id="a_edge35_Node000023_Node000009"><a xlink:title=" ">
<path fill="none" stroke="#63b8ff" d="M654.65,-83.14C747.67,-84.82 921.92,-87.99 1018.63,-89.74"/>
<polygon fill="#63b8ff" stroke="#63b8ff" points="1018.45,-93.24 1028.51,-89.92 1018.58,-86.24 1018.45,-93.24"/>
</a>
</g>
</g>
<!-- Node24 -->
<g id="Node000024" class="node">
<title>Node24</title>
<g id="a_Node000024"><a xlink:href="struct_fiea_1_1_engine_1_1_content_1_1_i_factory_service.html#a287380a07bd649e87bba6b3762554c20" target="_top" xlink:title=" ">
<polygon fill="white" stroke="#666666" points="846.5,-60 700.75,-60 700.75,-28 846.5,-28 846.5,-60"/>
<text xml:space="preserve" text-anchor="start" x="708.75" y="-46.5" font-family="Helvetica,sans-Serif" font-size="10.00">Fiea::Engine::Content</text>
<text xml:space="preserve" text-anchor="middle" x="773.62" y="-34.5" font-family="Helvetica,sans-Serif" font-size="10.00">::IFactoryService::GetFactory</text>
</a>
</g>
</g>
<!-- Node23&#45;&gt;Node24 -->
<g id="edge36_Node000023_Node000024" class="edge">
<title>Node23&#45;&gt;Node24</title>
<g id="a_edge36_Node000023_Node000024"><a xlink:title=" ">
<path fill="none" stroke="#63b8ff" d="M654.75,-68.82C665.94,-66.46 677.75,-63.97 689.41,-61.52"/>
<polygon fill="#63b8ff" stroke="#63b8ff" points="689.97,-64.98 699.03,-59.49 688.53,-58.13 689.97,-64.98"/>
</a>
</g>
</g>
</g>
</svg>
