<?xml version="1.0" encoding="UTF-8" standalone="no"?>
<!DOCTYPE svg PUBLIC "-//W3C//DTD SVG 1.1//EN"
 "http://www.w3.org/Graphics/SVG/1.1/DTD/svg11.dtd">
<!-- Generated by graphviz version 13.1.0 (20250701.0955)
 -->
<!-- Title: Fiea::Engine::Actions::ActionDelayed::CleanupAction Pages: 1 -->
<svg width="468pt" height="300pt"
 viewBox="0.00 0.00 468.00 300.00" xmlns="http://www.w3.org/2000/svg" xmlns:xlink="http://www.w3.org/1999/xlink">
<g id="graph0" class="graph" transform="scale(1 1) rotate(0) translate(4 296)">
<title>Fiea::Engine::Actions::ActionDelayed::CleanupAction</title>
<!-- Node1 -->
<g id="Node000001" class="node">
<title>Node1</title>
<g id="a_Node000001"><a xlink:title=" ">
<polygon fill="#999999" stroke="#666666" points="155.5,-157 0,-157 0,-125 155.5,-125 155.5,-157"/>
<text xml:space="preserve" text-anchor="start" x="8" y="-143.5" font-family="Helvetica,sans-Serif" font-size="10.00">Fiea::Engine::Actions</text>
<text xml:space="preserve" text-anchor="middle" x="77.75" y="-131.5" font-family="Helvetica,sans-Serif" font-size="10.00">::ActionDelayed::CleanupAction</text>
</a>
</g>
</g>
<!-- Node2 -->
<g id="Node000002" class="node">
<title>Node2</title>
<g id="a_Node000002"><a xlink:href="class_fiea_1_1_engine_1_1_r_t_t_i.html#a15bd5993c8ad04da47af440298ebbb30" target="_top" xlink:title=" ">
<polygon fill="white" stroke="#666666" points="309.5,-270 193,-270 193,-250 309.5,-250 309.5,-270"/>
<text xml:space="preserve" text-anchor="middle" x="251.25" y="-256.5" font-family="Helvetica,sans-Serif" font-size="10.00">Fiea::Engine::RTTI::As</text>
</a>
</g>
</g>
<!-- Node1&#45;&gt;Node2 -->
<g id="edge1_Node000001_Node000002" class="edge">
<title>Node1&#45;&gt;Node2</title>
<g id="a_edge1_Node000001_Node000002"><a xlink:title=" ">
<path fill="none" stroke="#63b8ff" d="M93.19,-157.5C113.22,-179.45 151.52,-218.15 191.5,-241 194.16,-242.52 196.95,-243.93 199.82,-245.25"/>
<polygon fill="#63b8ff" stroke="#63b8ff" points="198.44,-248.47 209.02,-249.02 201.1,-241.99 198.44,-248.47"/>
</a>
</g>
</g>
<!-- Node5 -->
<g id="Node000005" class="node">
<title>Node5</title>
<g id="a_Node000005"><a xlink:href="class_fiea_1_1_engine_1_1_actions_1_1_action.html#aca4c38723b265f3c4e6013bb8916b376" target="_top" xlink:title=" ">
<polygon fill="white" stroke="#666666" points="311,-232 191.5,-232 191.5,-200 311,-200 311,-232"/>
<text xml:space="preserve" text-anchor="start" x="199.5" y="-218.5" font-family="Helvetica,sans-Serif" font-size="10.00">Fiea::Engine::Actions</text>
<text xml:space="preserve" text-anchor="middle" x="251.25" y="-206.5" font-family="Helvetica,sans-Serif" font-size="10.00">::Action::CleanupAction</text>
</a>
</g>
</g>
<!-- Node1&#45;&gt;Node5 -->
<g id="edge4_Node000001_Node000005" class="edge">
<title>Node1&#45;&gt;Node5</title>
<g id="a_edge4_Node000001_Node000005"><a xlink:title=" ">
<path fill="none" stroke="#63b8ff" d="M115.5,-157.47C137.51,-167.28 166.07,-179.95 191.5,-191 194.6,-192.35 197.8,-193.73 201.03,-195.12"/>
<polygon fill="#63b8ff" stroke="#63b8ff" points="199.38,-198.22 209.95,-198.95 202.14,-191.79 199.38,-198.22"/>
</a>
</g>
</g>
<!-- Node6 -->
<g id="Node000006" class="node">
<title>Node6</title>
<g id="a_Node000006"><a xlink:href="class_fiea_1_1_engine_1_1_content_1_1_datum.html#ab217ba22f80e6d680e6660cb9b21abdc" target="_top" xlink:title=" ">
<polygon fill="white" stroke="#666666" points="306.88,-182 195.62,-182 195.62,-150 306.88,-150 306.88,-182"/>
<text xml:space="preserve" text-anchor="start" x="203.62" y="-168.5" font-family="Helvetica,sans-Serif" font-size="10.00">Fiea::Engine::Content</text>
<text xml:space="preserve" text-anchor="middle" x="251.25" y="-156.5" font-family="Helvetica,sans-Serif" font-size="10.00">::Datum::Clear</text>
</a>
</g>
</g>
<!-- Node1&#45;&gt;Node6 -->
<g id="edge5_Node000001_Node000006" class="edge">
<title>Node1&#45;&gt;Node6</title>
<g id="a_edge5_Node000001_Node000006"><a xlink:title=" ">
<path fill="none" stroke="#63b8ff" d="M155.97,-152.26C165.29,-153.61 174.74,-154.99 183.88,-156.32"/>
<polygon fill="#63b8ff" stroke="#63b8ff" points="183.36,-159.79 193.76,-157.76 184.37,-152.86 183.36,-159.79"/>
</a>
</g>
</g>
<!-- Node7 -->
<g id="Node000007" class="node">
<title>Node7</title>
<g id="a_Node000007"><a xlink:href="class_fiea_1_1_engine_1_1_content_1_1_scope.html#ad924c01785b239991fc0e56a63295612" target="_top" xlink:title="Finds a Datum by key.">
<polygon fill="white" stroke="#666666" points="306.88,-132 195.62,-132 195.62,-100 306.88,-100 306.88,-132"/>
<text xml:space="preserve" text-anchor="start" x="203.62" y="-118.5" font-family="Helvetica,sans-Serif" font-size="10.00">Fiea::Engine::Content</text>
<text xml:space="preserve" text-anchor="middle" x="251.25" y="-106.5" font-family="Helvetica,sans-Serif" font-size="10.00">::Scope::Find</text>
</a>
</g>
</g>
<!-- Node1&#45;&gt;Node7 -->
<g id="edge6_Node000001_Node000007" class="edge">
<title>Node1&#45;&gt;Node7</title>
<g id="a_edge6_Node000001_Node000007"><a xlink:title=" ">
<path fill="none" stroke="#63b8ff" d="M155.97,-129.74C165.29,-128.39 174.74,-127.01 183.88,-125.68"/>
<polygon fill="#63b8ff" stroke="#63b8ff" points="184.37,-129.14 193.76,-124.24 183.36,-122.21 184.37,-129.14"/>
</a>
</g>
</g>
<!-- Node8 -->
<g id="Node000008" class="node">
<title>Node8</title>
<g id="a_Node000008"><a xlink:href="class_fiea_1_1_engine_1_1_content_1_1_datum.html#a7f92976f27f407987cf287a2f7017e04" target="_top" xlink:title=" ">
<polygon fill="white" stroke="#666666" points="306.88,-82 195.62,-82 195.62,-50 306.88,-50 306.88,-82"/>
<text xml:space="preserve" text-anchor="start" x="203.62" y="-68.5" font-family="Helvetica,sans-Serif" font-size="10.00">Fiea::Engine::Content</text>
<text xml:space="preserve" text-anchor="middle" x="251.25" y="-56.5" font-family="Helvetica,sans-Serif" font-size="10.00">::Datum::GetAsTable</text>
</a>
</g>
</g>
<!-- Node1&#45;&gt;Node8 -->
<g id="edge7_Node000001_Node000008" class="edge">
<title>Node1&#45;&gt;Node8</title>
<g id="a_edge7_Node000001_Node000008"><a xlink:title=" ">
<path fill="none" stroke="#63b8ff" d="M115.5,-124.53C137.51,-114.72 166.07,-102.05 191.5,-91 194.6,-89.65 197.8,-88.27 201.03,-86.88"/>
<polygon fill="#63b8ff" stroke="#63b8ff" points="202.14,-90.21 209.95,-83.05 199.38,-83.78 202.14,-90.21"/>
</a>
</g>
</g>
<!-- Node10 -->
<g id="Node000010" class="node">
<title>Node10</title>
<g id="a_Node000010"><a xlink:href="class_fiea_1_1_engine_1_1_content_1_1_datum.html#acae68c3bc8b20345e4c3790fa37bd8d5" target="_top" xlink:title=" ">
<polygon fill="white" stroke="#666666" points="306.88,-32 195.62,-32 195.62,0 306.88,0 306.88,-32"/>
<text xml:space="preserve" text-anchor="start" x="203.62" y="-18.5" font-family="Helvetica,sans-Serif" font-size="10.00">Fiea::Engine::Content</text>
<text xml:space="preserve" text-anchor="middle" x="251.25" y="-6.5" font-family="Helvetica,sans-Serif" font-size="10.00">::Datum::Size</text>
</a>
</g>
</g>
<!-- Node1&#45;&gt;Node10 -->
<g id="edge10_Node000001_Node000010" class="edge">
<title>Node1&#45;&gt;Node10</title>
<g id="a_edge10_Node000001_Node000010"><a xlink:title=" ">
<path fill="none" stroke="#63b8ff" d="M93.85,-124.65C114.32,-103.22 152.8,-65.47 191.5,-41 193.33,-39.84 195.22,-38.72 197.15,-37.63"/>
<polygon fill="#63b8ff" stroke="#63b8ff" points="198.48,-40.88 205.73,-33.16 195.24,-34.68 198.48,-40.88"/>
</a>
</g>
</g>
<!-- Node3 -->
<g id="Node000003" class="node">
<title>Node3</title>
<g id="a_Node000003"><a xlink:href="class_fiea_1_1_engine_1_1_r_t_t_i.html#ac0a7d875e4513b2aca7594abcd4418ef" target="_top" xlink:title=" ">
<polygon fill="white" stroke="#666666" points="459.75,-292 347,-292 347,-272 459.75,-272 459.75,-292"/>
<text xml:space="preserve" text-anchor="middle" x="403.38" y="-278.5" font-family="Helvetica,sans-Serif" font-size="10.00">Fiea::Engine::RTTI::Is</text>
</a>
</g>
</g>
<!-- Node2&#45;&gt;Node3 -->
<g id="edge2_Node000002_Node000003" class="edge">
<title>Node2&#45;&gt;Node3</title>
<g id="a_edge2_Node000002_Node000003"><a xlink:title=" ">
<path fill="none" stroke="#63b8ff" d="M309.86,-268.44C318.26,-269.67 326.96,-270.95 335.52,-272.2"/>
<polygon fill="#63b8ff" stroke="#63b8ff" points="334.75,-275.63 345.15,-273.61 335.76,-268.7 334.75,-275.63"/>
</a>
</g>
</g>
<!-- Node4 -->
<g id="Node000004" class="node">
<title>Node4</title>
<g id="a_Node000004"><a xlink:href="class_fiea_1_1_engine_1_1_r_t_t_i.html#a13000029a2e6cced30b831e466e07cae" target="_top" xlink:title=" ">
<polygon fill="white" stroke="#666666" points="452.62,-254 354.12,-254 354.12,-222 452.62,-222 452.62,-254"/>
<text xml:space="preserve" text-anchor="start" x="362.12" y="-240.5" font-family="Helvetica,sans-Serif" font-size="10.00">Fiea::Engine::RTTI</text>
<text xml:space="preserve" text-anchor="middle" x="403.38" y="-228.5" font-family="Helvetica,sans-Serif" font-size="10.00">::RTTI</text>
</a>
</g>
</g>
<!-- Node2&#45;&gt;Node4 -->
<g id="edge3_Node000002_Node000004" class="edge">
<title>Node2&#45;&gt;Node4</title>
<g id="a_edge3_Node000002_Node000004"><a xlink:title=" ">
<path fill="none" stroke="#63b8ff" d="M309.86,-251.56C320.66,-249.97 331.98,-248.32 342.83,-246.73"/>
<polygon fill="#63b8ff" stroke="#63b8ff" points="343.06,-250.23 352.45,-245.32 342.05,-243.3 343.06,-250.23"/>
</a>
</g>
</g>
<!-- Node9 -->
<g id="Node000009" class="node">
<title>Node9</title>
<g id="a_Node000009"><a xlink:href="class_fiea_1_1_engine_1_1_content_1_1_datum.html#a921193447f6e42f596ac0a7694b02830" target="_top" xlink:title=" ">
<polygon fill="white" stroke="#666666" points="459,-82 347.75,-82 347.75,-50 459,-50 459,-82"/>
<text xml:space="preserve" text-anchor="start" x="355.75" y="-68.5" font-family="Helvetica,sans-Serif" font-size="10.00">Fiea::Engine::Content</text>
<text xml:space="preserve" text-anchor="middle" x="403.38" y="-56.5" font-family="Helvetica,sans-Serif" font-size="10.00">::Datum::Scope</text>
</a>
</g>
</g>
<!-- Node8&#45;&gt;Node9 -->
<g id="edge8_Node000008_Node000009" class="edge">
<title>Node8&#45;&gt;Node9</title>
<g id="a_edge8_Node000008_Node000009"><a xlink:title=" ">
<path fill="none" stroke="#63b8ff" d="M307.3,-66C316.58,-66 326.3,-66 335.84,-66"/>
<polygon fill="#63b8ff" stroke="#63b8ff" points="335.82,-69.5 345.82,-66 335.82,-62.5 335.82,-69.5"/>
</a>
</g>
</g>
<!-- Node9&#45;&gt;Node9 -->
<g id="edge9_Node000009_Node000009" class="edge">
<title>Node9&#45;&gt;Node9</title>
<g id="a_edge9_Node000009_Node000009"><a xlink:title=" ">
<path fill="none" stroke="#63b8ff" d="M376.22,-82.44C371.15,-91.58 380.2,-100 403.38,-100 416.05,-100 424.5,-97.48 428.73,-93.71"/>
<polygon fill="#63b8ff" stroke="#63b8ff" points="432.17,-94.37 430.29,-83.94 425.25,-93.26 432.17,-94.37"/>
</a>
</g>
</g>
</g>
</svg>
