<?xml version="1.0" encoding="UTF-8" standalone="no"?>
<!DOCTYPE svg PUBLIC "-//W3C//DTD SVG 1.1//EN"
 "http://www.w3.org/Graphics/SVG/1.1/DTD/svg11.dtd">
<!-- Generated by graphviz version 13.1.0 (20250701.0955)
 -->
<!-- Title: Fiea::Engine::Content::ActionListHandler::EnterKey Pages: 1 -->
<svg width="924pt" height="416pt"
 viewBox="0.00 0.00 924.00 416.00" xmlns="http://www.w3.org/2000/svg" xmlns:xlink="http://www.w3.org/1999/xlink">
<g id="graph0" class="graph" transform="scale(1 1) rotate(0) translate(4 412)">
<title>Fiea::Engine::Content::ActionListHandler::EnterKey</title>
<!-- Node1 -->
<g id="Node000001" class="node">
<title>Node1</title>
<g id="a_Node000001"><a xlink:title=" ">
<polygon fill="#999999" stroke="#666666" points="111.25,-117 0,-117 0,-73 111.25,-73 111.25,-117"/>
<text xml:space="preserve" text-anchor="start" x="8" y="-103.5" font-family="Helvetica,sans-Serif" font-size="10.00">Fiea::Engine::Content</text>
<text xml:space="preserve" text-anchor="start" x="8" y="-91.5" font-family="Helvetica,sans-Serif" font-size="10.00">::ActionListHandler::</text>
<text xml:space="preserve" text-anchor="middle" x="55.62" y="-79.5" font-family="Helvetica,sans-Serif" font-size="10.00">EnterKey</text>
</a>
</g>
</g>
<!-- Node2 -->
<g id="Node000002" class="node">
<title>Node2</title>
<g id="a_Node000002"><a xlink:href="class_fiea_1_1_engine_1_1_content_1_1_scope_writer.html#aa73231d29c0a0b0bcfbb910e2f913404" target="_top" xlink:title=" ">
<polygon fill="white" stroke="#666666" points="289.25,-186 147.25,-186 147.25,-142 289.25,-142 289.25,-186"/>
<text xml:space="preserve" text-anchor="start" x="155.25" y="-172.5" font-family="Helvetica,sans-Serif" font-size="10.00">Fiea::Engine::Content</text>
<text xml:space="preserve" text-anchor="start" x="155.25" y="-160.5" font-family="Helvetica,sans-Serif" font-size="10.00">::ScopeWriter::AddActionList</text>
<text xml:space="preserve" text-anchor="middle" x="218.25" y="-148.5" font-family="Helvetica,sans-Serif" font-size="10.00">Object</text>
</a>
</g>
</g>
<!-- Node1&#45;&gt;Node2 -->
<g id="edge1_Node000001_Node000002" class="edge">
<title>Node1&#45;&gt;Node2</title>
<g id="a_edge1_Node000001_Node000002"><a xlink:title=" ">
<path fill="none" stroke="#63b8ff" d="M108.78,-117.4C123.44,-123.7 139.53,-130.62 154.73,-137.15"/>
<polygon fill="#63b8ff" stroke="#63b8ff" points="153.13,-140.26 163.7,-140.99 155.89,-133.83 153.13,-140.26"/>
</a>
</g>
</g>
<!-- Node14 -->
<g id="Node000014" class="node">
<title>Node14</title>
<g id="a_Node000014"><a xlink:href="class_fiea_1_1_engine_1_1_r_t_t_i.html#a15bd5993c8ad04da47af440298ebbb30" target="_top" xlink:title=" ">
<polygon fill="white" stroke="#666666" points="457.12,-72 340.62,-72 340.62,-52 457.12,-52 457.12,-72"/>
<text xml:space="preserve" text-anchor="middle" x="398.88" y="-58.5" font-family="Helvetica,sans-Serif" font-size="10.00">Fiea::Engine::RTTI::As</text>
</a>
</g>
</g>
<!-- Node1&#45;&gt;Node14 -->
<g id="edge24_Node000001_Node000014" class="edge">
<title>Node1&#45;&gt;Node14</title>
<g id="a_edge24_Node000001_Node000014"><a xlink:title=" ">
<path fill="none" stroke="#63b8ff" d="M111.45,-89.7C170.64,-83.97 265.02,-74.85 329.13,-68.65"/>
<polygon fill="#63b8ff" stroke="#63b8ff" points="329.21,-72.16 338.83,-67.71 328.54,-65.19 329.21,-72.16"/>
</a>
</g>
</g>
<!-- Node3 -->
<g id="Node000003" class="node">
<title>Node3</title>
<g id="a_Node000003"><a xlink:href="class_fiea_1_1_engine_1_1_game_object.html#a2d9e0734194c82c1f1d319e49c845c0f" target="_top" xlink:title=" ">
<polygon fill="white" stroke="#666666" points="464.62,-313 333.12,-313 333.12,-281 464.62,-281 464.62,-313"/>
<text xml:space="preserve" text-anchor="start" x="341.12" y="-299.5" font-family="Helvetica,sans-Serif" font-size="10.00">Fiea::Engine::GameObject</text>
<text xml:space="preserve" text-anchor="middle" x="398.88" y="-287.5" font-family="Helvetica,sans-Serif" font-size="10.00">::AddAction</text>
</a>
</g>
</g>
<!-- Node2&#45;&gt;Node3 -->
<g id="edge2_Node000002_Node000003" class="edge">
<title>Node2&#45;&gt;Node3</title>
<g id="a_edge2_Node000002_Node000003"><a xlink:title=" ">
<path fill="none" stroke="#63b8ff" d="M240.05,-186.37C260.39,-207.4 292.94,-238.87 325.25,-261 332.84,-266.2 341.3,-271.1 349.68,-275.5"/>
<polygon fill="#63b8ff" stroke="#63b8ff" points="347.94,-278.54 358.45,-279.93 351.1,-272.3 347.94,-278.54"/>
</a>
</g>
</g>
<!-- Node9 -->
<g id="Node000009" class="node">
<title>Node9</title>
<g id="a_Node000009"><a xlink:href="class_fiea_1_1_engine_1_1_content_1_1_scope.html#a002f54731a8996f37c4f725d8175ffee" target="_top" xlink:title="Appends a new Scope as a child under the specified key.">
<polygon fill="white" stroke="#666666" points="457.12,-252 340.62,-252 340.62,-220 457.12,-220 457.12,-252"/>
<text xml:space="preserve" text-anchor="start" x="348.62" y="-238.5" font-family="Helvetica,sans-Serif" font-size="10.00">Fiea::Engine::Content</text>
<text xml:space="preserve" text-anchor="middle" x="398.88" y="-226.5" font-family="Helvetica,sans-Serif" font-size="10.00">::Scope::AppendScope</text>
</a>
</g>
</g>
<!-- Node2&#45;&gt;Node9 -->
<g id="edge10_Node000002_Node000009" class="edge">
<title>Node2&#45;&gt;Node9</title>
<g id="a_edge10_Node000002_Node000009"><a xlink:title=" ">
<path fill="none" stroke="#63b8ff" d="M274.79,-186.39C297.67,-195.61 324.02,-206.23 346.46,-215.28"/>
<polygon fill="#63b8ff" stroke="#63b8ff" points="345.14,-218.52 355.72,-219.01 347.76,-212.02 345.14,-218.52"/>
</a>
</g>
</g>
<!-- Node2&#45;&gt;Node14 -->
<g id="edge20_Node000002_Node000014" class="edge">
<title>Node2&#45;&gt;Node14</title>
<g id="a_edge20_Node000002_Node000014"><a xlink:title=" ">
<path fill="none" stroke="#63b8ff" d="M258.45,-141.62C292.07,-122.42 339.71,-95.22 369.68,-78.1"/>
<polygon fill="#63b8ff" stroke="#63b8ff" points="371.24,-81.24 378.18,-73.24 367.76,-75.16 371.24,-81.24"/>
</a>
</g>
</g>
<!-- Node17 -->
<g id="Node000017" class="node">
<title>Node17</title>
<g id="a_Node000017"><a xlink:href="class_fiea_1_1_engine_1_1_service_manager.html#a8aac9b15b7e5483c2b1cd5febe590a0c" target="_top" xlink:title=" ">
<polygon fill="white" stroke="#666666" points="472.5,-180 325.25,-180 325.25,-148 472.5,-148 472.5,-180"/>
<text xml:space="preserve" text-anchor="start" x="333.25" y="-166.5" font-family="Helvetica,sans-Serif" font-size="10.00">Fiea::Engine::ServiceManager</text>
<text xml:space="preserve" text-anchor="middle" x="398.88" y="-154.5" font-family="Helvetica,sans-Serif" font-size="10.00">::ProvideInterface</text>
</a>
</g>
</g>
<!-- Node2&#45;&gt;Node17 -->
<g id="edge23_Node000002_Node000017" class="edge">
<title>Node2&#45;&gt;Node17</title>
<g id="a_edge23_Node000002_Node000017"><a xlink:title=" ">
<path fill="none" stroke="#63b8ff" d="M289.59,-164C297.49,-164 305.59,-164 313.64,-164"/>
<polygon fill="#63b8ff" stroke="#63b8ff" points="313.44,-167.5 323.44,-164 313.44,-160.5 313.44,-167.5"/>
</a>
</g>
</g>
<!-- Node4 -->
<g id="Node000004" class="node">
<title>Node4</title>
<g id="a_Node000004"><a xlink:href="class_fiea_1_1_engine_1_1_content_1_1_scope.html#aa91d6470fd3d3f402bbb2e765be54455" target="_top" xlink:title="Appends a new Datum with the given key.">
<polygon fill="white" stroke="#666666" points="620.5,-308 509.25,-308 509.25,-276 620.5,-276 620.5,-308"/>
<text xml:space="preserve" text-anchor="start" x="517.25" y="-294.5" font-family="Helvetica,sans-Serif" font-size="10.00">Fiea::Engine::Content</text>
<text xml:space="preserve" text-anchor="middle" x="564.88" y="-282.5" font-family="Helvetica,sans-Serif" font-size="10.00">::Scope::Append</text>
</a>
</g>
</g>
<!-- Node3&#45;&gt;Node4 -->
<g id="edge3_Node000003_Node000004" class="edge">
<title>Node3&#45;&gt;Node4</title>
<g id="a_edge3_Node000003_Node000004"><a xlink:title=" ">
<path fill="none" stroke="#63b8ff" d="M464.69,-295.02C475.41,-294.7 486.54,-294.36 497.3,-294.03"/>
<polygon fill="#63b8ff" stroke="#63b8ff" points="497.39,-297.53 507.28,-293.73 497.18,-290.53 497.39,-297.53"/>
</a>
</g>
</g>
<!-- Node5 -->
<g id="Node000005" class="node">
<title>Node5</title>
<g id="a_Node000005"><a xlink:href="class_fiea_1_1_engine_1_1_content_1_1_scope.html#ad924c01785b239991fc0e56a63295612" target="_top" xlink:title="Finds a Datum by key.">
<polygon fill="white" stroke="#666666" points="620.5,-408 509.25,-408 509.25,-376 620.5,-376 620.5,-408"/>
<text xml:space="preserve" text-anchor="start" x="517.25" y="-394.5" font-family="Helvetica,sans-Serif" font-size="10.00">Fiea::Engine::Content</text>
<text xml:space="preserve" text-anchor="middle" x="564.88" y="-382.5" font-family="Helvetica,sans-Serif" font-size="10.00">::Scope::Find</text>
</a>
</g>
</g>
<!-- Node3&#45;&gt;Node5 -->
<g id="edge4_Node000003_Node000005" class="edge">
<title>Node3&#45;&gt;Node5</title>
<g id="a_edge4_Node000003_Node000005"><a xlink:title=" ">
<path fill="none" stroke="#63b8ff" d="M422.99,-313.33C444.58,-328.23 477.95,-350.38 508.5,-367 510.68,-368.19 512.93,-369.37 515.22,-370.53"/>
<polygon fill="#63b8ff" stroke="#63b8ff" points="513.5,-373.59 524.02,-374.85 516.59,-367.31 513.5,-373.59"/>
</a>
</g>
</g>
<!-- Node6 -->
<g id="Node000006" class="node">
<title>Node6</title>
<g id="a_Node000006"><a xlink:href="class_fiea_1_1_engine_1_1_content_1_1_datum.html#acb3ba55fc9b39b876cf3334d0305f4fc" target="_top" xlink:title=" ">
<polygon fill="white" stroke="#666666" points="620.5,-358 509.25,-358 509.25,-326 620.5,-326 620.5,-358"/>
<text xml:space="preserve" text-anchor="start" x="517.25" y="-344.5" font-family="Helvetica,sans-Serif" font-size="10.00">Fiea::Engine::Content</text>
<text xml:space="preserve" text-anchor="middle" x="564.88" y="-332.5" font-family="Helvetica,sans-Serif" font-size="10.00">::Datum::Push</text>
</a>
</g>
</g>
<!-- Node3&#45;&gt;Node6 -->
<g id="edge5_Node000003_Node000006" class="edge">
<title>Node3&#45;&gt;Node6</title>
<g id="a_edge5_Node000003_Node000006"><a xlink:title=" ">
<path fill="none" stroke="#63b8ff" d="M459.55,-313.37C472.01,-316.79 485.23,-320.42 497.91,-323.9"/>
<polygon fill="#63b8ff" stroke="#63b8ff" points="496.85,-327.24 507.42,-326.51 498.7,-320.49 496.85,-327.24"/>
</a>
</g>
</g>
<!-- Node7 -->
<g id="Node000007" class="node">
<title>Node7</title>
<g id="a_Node000007"><a xlink:href="class_fiea_1_1_engine_1_1_content_1_1_datum.html#a818f812e4489e57885c88951bc0601b3" target="_top" xlink:title=" ">
<polygon fill="white" stroke="#666666" points="768.5,-380 657.25,-380 657.25,-348 768.5,-348 768.5,-380"/>
<text xml:space="preserve" text-anchor="start" x="665.25" y="-366.5" font-family="Helvetica,sans-Serif" font-size="10.00">Fiea::Engine::Content</text>
<text xml:space="preserve" text-anchor="middle" x="712.88" y="-354.5" font-family="Helvetica,sans-Serif" font-size="10.00">::Datum::ResizeArray</text>
</a>
</g>
</g>
<!-- Node6&#45;&gt;Node7 -->
<g id="edge6_Node000006_Node000007" class="edge">
<title>Node6&#45;&gt;Node7</title>
<g id="a_edge6_Node000006_Node000007"><a xlink:title=" ">
<path fill="none" stroke="#63b8ff" d="M620.66,-350.25C628.78,-351.48 637.22,-352.75 645.55,-354.01"/>
<polygon fill="#63b8ff" stroke="#63b8ff" points="644.88,-357.44 655.29,-355.47 645.92,-350.52 644.88,-357.44"/>
</a>
</g>
</g>
<!-- Node8 -->
<g id="Node000008" class="node">
<title>Node8</title>
<g id="a_Node000008"><a xlink:href="class_fiea_1_1_engine_1_1_content_1_1_datum.html#a921193447f6e42f596ac0a7694b02830" target="_top" xlink:title=" ">
<polygon fill="white" stroke="#666666" points="915.75,-358 804.5,-358 804.5,-326 915.75,-326 915.75,-358"/>
<text xml:space="preserve" text-anchor="start" x="812.5" y="-344.5" font-family="Helvetica,sans-Serif" font-size="10.00">Fiea::Engine::Content</text>
<text xml:space="preserve" text-anchor="middle" x="860.12" y="-332.5" font-family="Helvetica,sans-Serif" font-size="10.00">::Datum::Scope</text>
</a>
</g>
</g>
<!-- Node6&#45;&gt;Node8 -->
<g id="edge9_Node000006_Node000008" class="edge">
<title>Node6&#45;&gt;Node8</title>
<g id="a_edge9_Node000006_Node000008"><a xlink:title=" ">
<path fill="none" stroke="#63b8ff" d="M620.95,-339.9C632.92,-339.52 645.51,-339.19 657.25,-339 706.69,-338.19 719.06,-338.18 768.5,-339 776.31,-339.13 784.5,-339.32 792.62,-339.55"/>
<polygon fill="#63b8ff" stroke="#63b8ff" points="792.41,-343.04 802.51,-339.84 792.61,-336.04 792.41,-343.04"/>
</a>
</g>
</g>
<!-- Node7&#45;&gt;Node8 -->
<g id="edge7_Node000007_Node000008" class="edge">
<title>Node7&#45;&gt;Node8</title>
<g id="a_edge7_Node000007_Node000008"><a xlink:title=" ">
<path fill="none" stroke="#63b8ff" d="M768.79,-355.68C776.65,-354.49 784.81,-353.26 792.86,-352.04"/>
<polygon fill="#63b8ff" stroke="#63b8ff" points="793.28,-355.51 802.64,-350.56 792.23,-348.59 793.28,-355.51"/>
</a>
</g>
</g>
<!-- Node8&#45;&gt;Node8 -->
<g id="edge8_Node000008_Node000008" class="edge">
<title>Node8&#45;&gt;Node8</title>
<g id="a_edge8_Node000008_Node000008"><a xlink:title=" ">
<path fill="none" stroke="#63b8ff" d="M833.84,-358.44C828.93,-367.58 837.69,-376 860.12,-376 872.39,-376 880.57,-373.48 884.66,-369.71"/>
<polygon fill="#63b8ff" stroke="#63b8ff" points="888.1,-370.36 886.18,-359.94 881.19,-369.28 888.1,-370.36"/>
</a>
</g>
</g>
<!-- Node9&#45;&gt;Node4 -->
<g id="edge11_Node000009_Node000004" class="edge">
<title>Node9&#45;&gt;Node4</title>
<g id="a_edge11_Node000009_Node000004"><a xlink:title=" ">
<path fill="none" stroke="#63b8ff" d="M448.19,-252.5C465.96,-258.57 486.29,-265.51 504.9,-271.86"/>
<polygon fill="#63b8ff" stroke="#63b8ff" points="503.59,-275.11 514.19,-275.03 505.85,-268.49 503.59,-275.11"/>
</a>
</g>
</g>
<!-- Node9&#45;&gt;Node5 -->
<g id="edge12_Node000009_Node000005" class="edge">
<title>Node9&#45;&gt;Node5</title>
<g id="a_edge12_Node000009_Node000005"><a xlink:title=" ">
<path fill="none" stroke="#63b8ff" d="M446.07,-252.41C455.75,-257.52 465.22,-263.97 472.5,-272 502.83,-305.45 477.58,-334.1 508.5,-367 508.97,-367.5 509.46,-368 509.96,-368.48"/>
<polygon fill="#63b8ff" stroke="#63b8ff" points="507.66,-371.13 517.66,-374.62 512.02,-365.65 507.66,-371.13"/>
</a>
</g>
</g>
<!-- Node9&#45;&gt;Node6 -->
<g id="edge14_Node000009_Node000006" class="edge">
<title>Node9&#45;&gt;Node6</title>
<g id="a_edge14_Node000009_Node000006"><a xlink:title=" ">
<path fill="none" stroke="#63b8ff" d="M440.95,-252.5C451.79,-257.85 463.08,-264.41 472.5,-272 492.45,-288.07 488.27,-301.3 508.5,-317 509.65,-317.89 510.83,-318.76 512.05,-319.6"/>
<polygon fill="#63b8ff" stroke="#63b8ff" points="510.18,-322.56 520.53,-324.82 513.85,-316.6 510.18,-322.56"/>
</a>
</g>
</g>
<!-- Node10 -->
<g id="Node000010" class="node">
<title>Node10</title>
<g id="a_Node000010"><a xlink:href="class_fiea_1_1_engine_1_1_content_1_1_datum.html#a6e9dfba6e16fddc4efc39b8182dad89f" target="_top" xlink:title=" ">
<polygon fill="white" stroke="#666666" points="620.5,-258 509.25,-258 509.25,-226 620.5,-226 620.5,-258"/>
<text xml:space="preserve" text-anchor="start" x="517.25" y="-244.5" font-family="Helvetica,sans-Serif" font-size="10.00">Fiea::Engine::Content</text>
<text xml:space="preserve" text-anchor="middle" x="564.88" y="-232.5" font-family="Helvetica,sans-Serif" font-size="10.00">::Datum::IsType</text>
</a>
</g>
</g>
<!-- Node9&#45;&gt;Node10 -->
<g id="edge13_Node000009_Node000010" class="edge">
<title>Node9&#45;&gt;Node10</title>
<g id="a_edge13_Node000009_Node000010"><a xlink:title=" ">
<path fill="none" stroke="#63b8ff" d="M457.23,-238.1C470.17,-238.57 484,-239.08 497.27,-239.56"/>
<polygon fill="#63b8ff" stroke="#63b8ff" points="497.12,-243.06 507.24,-239.93 497.38,-236.06 497.12,-243.06"/>
</a>
</g>
</g>
<!-- Node11 -->
<g id="Node000011" class="node">
<title>Node11</title>
<g id="a_Node000011"><a xlink:href="class_fiea_1_1_engine_1_1_content_1_1_scope.html#a6631343c968c233ab1d9c3e05c3f4fe9" target="_top" xlink:title=" ">
<polygon fill="white" stroke="#666666" points="768.5,-186 657.25,-186 657.25,-154 768.5,-154 768.5,-186"/>
<text xml:space="preserve" text-anchor="start" x="665.25" y="-172.5" font-family="Helvetica,sans-Serif" font-size="10.00">Fiea::Engine::Content</text>
<text xml:space="preserve" text-anchor="middle" x="712.88" y="-160.5" font-family="Helvetica,sans-Serif" font-size="10.00">::Scope::Scope</text>
</a>
</g>
</g>
<!-- Node9&#45;&gt;Node11 -->
<g id="edge15_Node000009_Node000011" class="edge">
<title>Node9&#45;&gt;Node11</title>
<g id="a_edge15_Node000009_Node000011"><a xlink:title=" ">
<path fill="none" stroke="#63b8ff" d="M425.45,-219.51C456.82,-199.31 506.17,-167.68 508.5,-167 552.88,-154.1 605.04,-155.17 645.43,-159.3"/>
<polygon fill="#63b8ff" stroke="#63b8ff" points="644.93,-162.77 655.25,-160.41 645.71,-155.81 644.93,-162.77"/>
</a>
</g>
</g>
<!-- Node12 -->
<g id="Node000012" class="node">
<title>Node12</title>
<g id="a_Node000012"><a xlink:href="class_fiea_1_1_engine_1_1_content_1_1_scope.html#af6a94922a8fa123c3b22b7b4485963de" target="_top" xlink:title=" ">
<polygon fill="white" stroke="#666666" points="620.5,-208 509.25,-208 509.25,-176 620.5,-176 620.5,-208"/>
<text xml:space="preserve" text-anchor="start" x="517.25" y="-194.5" font-family="Helvetica,sans-Serif" font-size="10.00">Fiea::Engine::Content</text>
<text xml:space="preserve" text-anchor="middle" x="564.88" y="-182.5" font-family="Helvetica,sans-Serif" font-size="10.00">::Scope::SetParent</text>
</a>
</g>
</g>
<!-- Node9&#45;&gt;Node12 -->
<g id="edge17_Node000009_Node000012" class="edge">
<title>Node9&#45;&gt;Node12</title>
<g id="a_edge17_Node000009_Node000012"><a xlink:title=" ">
<path fill="none" stroke="#63b8ff" d="M457.23,-220.61C470.3,-217.11 484.28,-213.36 497.67,-209.76"/>
<polygon fill="#63b8ff" stroke="#63b8ff" points="498.54,-213.15 507.29,-207.18 496.73,-206.39 498.54,-213.15"/>
</a>
</g>
</g>
<!-- Node13 -->
<g id="Node000013" class="node">
<title>Node13</title>
<g id="a_Node000013"><a xlink:href="class_fiea_1_1_engine_1_1_content_1_1_datum.html#a23d1f16d9646f024a5dee1f05dbd5a5e" target="_top" xlink:title=" ">
<polygon fill="white" stroke="#666666" points="620.5,-120 509.25,-120 509.25,-88 620.5,-88 620.5,-120"/>
<text xml:space="preserve" text-anchor="start" x="517.25" y="-106.5" font-family="Helvetica,sans-Serif" font-size="10.00">Fiea::Engine::Content</text>
<text xml:space="preserve" text-anchor="middle" x="564.88" y="-94.5" font-family="Helvetica,sans-Serif" font-size="10.00">::Datum::SetType</text>
</a>
</g>
</g>
<!-- Node9&#45;&gt;Node13 -->
<g id="edge19_Node000009_Node000013" class="edge">
<title>Node9&#45;&gt;Node13</title>
<g id="a_edge19_Node000009_Node000013"><a xlink:title=" ">
<path fill="none" stroke="#63b8ff" d="M431.28,-219.59C444.91,-211.53 460.47,-200.97 472.5,-189 493.21,-168.4 487,-153.78 508.5,-134 511.36,-131.37 514.5,-128.88 517.78,-126.56"/>
<polygon fill="#63b8ff" stroke="#63b8ff" points="519.49,-129.62 526.01,-121.28 515.71,-123.73 519.49,-129.62"/>
</a>
</g>
</g>
<!-- Node11&#45;&gt;Node11 -->
<g id="edge16_Node000011_Node000011" class="edge">
<title>Node11&#45;&gt;Node11</title>
<g id="a_edge16_Node000011_Node000011"><a xlink:title=" ">
<path fill="none" stroke="#63b8ff" d="M686.59,-186.44C681.68,-195.58 690.44,-204 712.88,-204 725.14,-204 733.32,-201.48 737.41,-197.71"/>
<polygon fill="#63b8ff" stroke="#63b8ff" points="740.85,-198.36 738.93,-187.94 733.94,-197.28 740.85,-198.36"/>
</a>
</g>
</g>
<!-- Node12&#45;&gt;Node11 -->
<g id="edge18_Node000012_Node000011" class="edge">
<title>Node12&#45;&gt;Node11</title>
<g id="a_edge18_Node000012_Node000011"><a xlink:title=" ">
<path fill="none" stroke="#63b8ff" d="M620.66,-183.75C628.78,-182.52 637.22,-181.25 645.55,-179.99"/>
<polygon fill="#63b8ff" stroke="#63b8ff" points="645.92,-183.48 655.29,-178.53 644.88,-176.56 645.92,-183.48"/>
</a>
</g>
</g>
<!-- Node15 -->
<g id="Node000015" class="node">
<title>Node15</title>
<g id="a_Node000015"><a xlink:href="class_fiea_1_1_engine_1_1_r_t_t_i.html#ac0a7d875e4513b2aca7594abcd4418ef" target="_top" xlink:title=" ">
<polygon fill="white" stroke="#666666" points="621.25,-20 508.5,-20 508.5,0 621.25,0 621.25,-20"/>
<text xml:space="preserve" text-anchor="middle" x="564.88" y="-6.5" font-family="Helvetica,sans-Serif" font-size="10.00">Fiea::Engine::RTTI::Is</text>
</a>
</g>
</g>
<!-- Node14&#45;&gt;Node15 -->
<g id="edge21_Node000014_Node000015" class="edge">
<title>Node14&#45;&gt;Node15</title>
<g id="a_edge21_Node000014_Node000015"><a xlink:title=" ">
<path fill="none" stroke="#63b8ff" d="M432.67,-51.6C457.73,-43.66 492.51,-32.63 519.97,-23.92"/>
<polygon fill="#63b8ff" stroke="#63b8ff" points="520.94,-27.29 529.41,-20.93 518.82,-20.61 520.94,-27.29"/>
</a>
</g>
</g>
<!-- Node16 -->
<g id="Node000016" class="node">
<title>Node16</title>
<g id="a_Node000016"><a xlink:href="class_fiea_1_1_engine_1_1_r_t_t_i.html#a13000029a2e6cced30b831e466e07cae" target="_top" xlink:title=" ">
<polygon fill="white" stroke="#666666" points="614.12,-70 515.62,-70 515.62,-38 614.12,-38 614.12,-70"/>
<text xml:space="preserve" text-anchor="start" x="523.62" y="-56.5" font-family="Helvetica,sans-Serif" font-size="10.00">Fiea::Engine::RTTI</text>
<text xml:space="preserve" text-anchor="middle" x="564.88" y="-44.5" font-family="Helvetica,sans-Serif" font-size="10.00">::RTTI</text>
</a>
</g>
</g>
<!-- Node14&#45;&gt;Node16 -->
<g id="edge22_Node000014_Node000016" class="edge">
<title>Node14&#45;&gt;Node16</title>
<g id="a_edge22_Node000014_Node000016"><a xlink:title=" ">
<path fill="none" stroke="#63b8ff" d="M457.23,-59.2C472.32,-58.47 488.64,-57.67 503.86,-56.93"/>
<polygon fill="#63b8ff" stroke="#63b8ff" points="503.93,-60.43 513.74,-56.45 503.59,-53.44 503.93,-60.43"/>
</a>
</g>
</g>
</g>
</svg>
