<?xml version="1.0" encoding="UTF-8" standalone="no"?>
<!DOCTYPE svg PUBLIC "-//W3C//DTD SVG 1.1//EN"
 "http://www.w3.org/Graphics/SVG/1.1/DTD/svg11.dtd">
<!-- Generated by graphviz version 13.1.0 (20250701.0955)
 -->
<!-- Title: Fiea::Engine::GameObject::Update Pages: 1 -->
<svg width="764pt" height="555pt"
 viewBox="0.00 0.00 764.00 555.00" xmlns="http://www.w3.org/2000/svg" xmlns:xlink="http://www.w3.org/1999/xlink">
<g id="graph0" class="graph" transform="scale(1 1) rotate(0) translate(4 551.46)">
<title>Fiea::Engine::GameObject::Update</title>
<!-- Node1 -->
<g id="Node000001" class="node">
<title>Node1</title>
<g id="a_Node000001"><a xlink:title=" ">
<polygon fill="#999999" stroke="#666666" points="131.5,-285 0,-285 0,-253 131.5,-253 131.5,-285"/>
<text xml:space="preserve" text-anchor="start" x="8" y="-271.5" font-family="Helvetica,sans-Serif" font-size="10.00">Fiea::Engine::GameObject</text>
<text xml:space="preserve" text-anchor="middle" x="65.75" y="-259.5" font-family="Helvetica,sans-Serif" font-size="10.00">::Update</text>
</a>
</g>
</g>
<!-- Node1&#45;&gt;Node1 -->
<g id="edge29_Node000001_Node000001" class="edge">
<title>Node1&#45;&gt;Node1</title>
<g id="a_edge29_Node000001_Node000001"><a xlink:title=" ">
<path fill="none" stroke="#63b8ff" d="M35.85,-285.44C30.26,-294.58 40.23,-303 65.75,-303 79.7,-303 89.01,-300.48 93.66,-296.71"/>
<polygon fill="#63b8ff" stroke="#63b8ff" points="97.1,-297.39 95.39,-286.93 90.2,-296.17 97.1,-297.39"/>
</a>
</g>
</g>
<!-- Node2 -->
<g id="Node000002" class="node">
<title>Node2</title>
<g id="a_Node000002"><a xlink:href="class_fiea_1_1_engine_1_1_r_t_t_i.html#a15bd5993c8ad04da47af440298ebbb30" target="_top" xlink:title=" ">
<polygon fill="white" stroke="#666666" points="607,-408 490.5,-408 490.5,-388 607,-388 607,-408"/>
<text xml:space="preserve" text-anchor="middle" x="548.75" y="-394.5" font-family="Helvetica,sans-Serif" font-size="10.00">Fiea::Engine::RTTI::As</text>
</a>
</g>
</g>
<!-- Node1&#45;&gt;Node2 -->
<g id="edge1_Node000001_Node000002" class="edge">
<title>Node1&#45;&gt;Node2</title>
<g id="a_edge1_Node000001_Node000002"><a xlink:title=" ">
<path fill="none" stroke="#63b8ff" d="M71.85,-285.42C83.49,-320.47 115.12,-403.44 167.5,-453 227.43,-509.7 254.54,-514.77 335,-533 386.8,-544.73 407.47,-557.67 454.5,-533 500.58,-508.83 528.37,-450.42 540.52,-418.94"/>
<polygon fill="#63b8ff" stroke="#63b8ff" points="543.74,-420.33 543.89,-409.74 537.16,-417.92 543.74,-420.33"/>
</a>
</g>
</g>
<!-- Node5 -->
<g id="Node000005" class="node">
<title>Node5</title>
<g id="a_Node000005"><a xlink:href="class_fiea_1_1_engine_1_1_content_1_1_scope.html#ad924c01785b239991fc0e56a63295612" target="_top" xlink:title="Finds a Datum by key.">
<polygon fill="white" stroke="#666666" points="450.38,-282 339.12,-282 339.12,-250 450.38,-250 450.38,-282"/>
<text xml:space="preserve" text-anchor="start" x="347.12" y="-268.5" font-family="Helvetica,sans-Serif" font-size="10.00">Fiea::Engine::Content</text>
<text xml:space="preserve" text-anchor="middle" x="394.75" y="-256.5" font-family="Helvetica,sans-Serif" font-size="10.00">::Scope::Find</text>
</a>
</g>
</g>
<!-- Node1&#45;&gt;Node5 -->
<g id="edge4_Node000001_Node000005" class="edge">
<title>Node1&#45;&gt;Node5</title>
<g id="a_edge4_Node000001_Node000005"><a xlink:title=" ">
<path fill="none" stroke="#63b8ff" d="M131.75,-268.4C188.38,-267.88 270.15,-267.13 327.22,-266.61"/>
<polygon fill="#63b8ff" stroke="#63b8ff" points="327.17,-270.11 337.14,-266.52 327.11,-263.11 327.17,-270.11"/>
</a>
</g>
</g>
<!-- Node6 -->
<g id="Node000006" class="node">
<title>Node6</title>
<g id="a_Node000006"><a xlink:href="class_fiea_1_1_engine_1_1_game_object.html#ad3a296dd56ec43cc9f81eef0b1d14db6" target="_top" xlink:title=" ">
<polygon fill="white" stroke="#666666" points="299,-332 167.5,-332 167.5,-300 299,-300 299,-332"/>
<text xml:space="preserve" text-anchor="start" x="175.5" y="-318.5" font-family="Helvetica,sans-Serif" font-size="10.00">Fiea::Engine::GameObject</text>
<text xml:space="preserve" text-anchor="middle" x="233.25" y="-306.5" font-family="Helvetica,sans-Serif" font-size="10.00">::GameObject</text>
</a>
</g>
</g>
<!-- Node1&#45;&gt;Node6 -->
<g id="edge5_Node000001_Node000006" class="edge">
<title>Node1&#45;&gt;Node6</title>
<g id="a_edge5_Node000001_Node000006"><a xlink:title=" ">
<path fill="none" stroke="#63b8ff" d="M124.63,-285.44C137.23,-289.02 150.68,-292.83 163.65,-296.52"/>
<polygon fill="#63b8ff" stroke="#63b8ff" points="162.37,-299.79 172.94,-299.16 164.28,-293.06 162.37,-299.79"/>
</a>
</g>
</g>
<!-- Node11 -->
<g id="Node000011" class="node">
<title>Node11</title>
<g id="a_Node000011"><a xlink:href="class_fiea_1_1_engine_1_1_content_1_1_datum.html#a7f92976f27f407987cf287a2f7017e04" target="_top" xlink:title=" ">
<polygon fill="white" stroke="#666666" points="288.88,-444 177.62,-444 177.62,-412 288.88,-412 288.88,-444"/>
<text xml:space="preserve" text-anchor="start" x="185.62" y="-430.5" font-family="Helvetica,sans-Serif" font-size="10.00">Fiea::Engine::Content</text>
<text xml:space="preserve" text-anchor="middle" x="233.25" y="-418.5" font-family="Helvetica,sans-Serif" font-size="10.00">::Datum::GetAsTable</text>
</a>
</g>
</g>
<!-- Node1&#45;&gt;Node11 -->
<g id="edge16_Node000001_Node000011" class="edge">
<title>Node1&#45;&gt;Node11</title>
<g id="a_edge16_Node000001_Node000011"><a xlink:title=" ">
<path fill="none" stroke="#63b8ff" d="M83.84,-285.42C113.23,-313.65 173.45,-371.51 207.46,-404.18"/>
<polygon fill="#63b8ff" stroke="#63b8ff" points="204.77,-406.46 214.41,-410.86 209.62,-401.41 204.77,-406.46"/>
</a>
</g>
</g>
<!-- Node13 -->
<g id="Node000013" class="node">
<title>Node13</title>
<g id="a_Node000013"><a xlink:href="class_fiea_1_1_engine_1_1_game_object.html#aff873c5557228f0ab9bb948949a8e58f" target="_top" xlink:title=" ">
<polygon fill="white" stroke="#666666" points="299,-241 167.5,-241 167.5,-209 299,-209 299,-241"/>
<text xml:space="preserve" text-anchor="start" x="175.5" y="-227.5" font-family="Helvetica,sans-Serif" font-size="10.00">Fiea::Engine::GameObject</text>
<text xml:space="preserve" text-anchor="middle" x="233.25" y="-215.5" font-family="Helvetica,sans-Serif" font-size="10.00">::RemoveAction</text>
</a>
</g>
</g>
<!-- Node1&#45;&gt;Node13 -->
<g id="edge19_Node000001_Node000013" class="edge">
<title>Node1&#45;&gt;Node13</title>
<g id="a_edge19_Node000001_Node000013"><a xlink:title=" ">
<path fill="none" stroke="#63b8ff" d="M128.38,-252.62C138.43,-249.94 148.93,-247.15 159.23,-244.41"/>
<polygon fill="#63b8ff" stroke="#63b8ff" points="160.07,-247.81 168.83,-241.86 158.27,-241.05 160.07,-247.81"/>
</a>
</g>
</g>
<!-- Node15 -->
<g id="Node000015" class="node">
<title>Node15</title>
<g id="a_Node000015"><a xlink:href="class_fiea_1_1_engine_1_1_content_1_1_datum.html#acae68c3bc8b20345e4c3790fa37bd8d5" target="_top" xlink:title=" ">
<polygon fill="white" stroke="#666666" points="450.38,-182 339.12,-182 339.12,-150 450.38,-150 450.38,-182"/>
<text xml:space="preserve" text-anchor="start" x="347.12" y="-168.5" font-family="Helvetica,sans-Serif" font-size="10.00">Fiea::Engine::Content</text>
<text xml:space="preserve" text-anchor="middle" x="394.75" y="-156.5" font-family="Helvetica,sans-Serif" font-size="10.00">::Datum::Size</text>
</a>
</g>
</g>
<!-- Node1&#45;&gt;Node15 -->
<g id="edge24_Node000001_Node000015" class="edge">
<title>Node1&#45;&gt;Node15</title>
<g id="a_edge24_Node000001_Node000015"><a xlink:title=" ">
<path fill="none" stroke="#63b8ff" d="M84.95,-252.71C104.08,-236.57 135.74,-212.5 167.5,-200 218.95,-179.76 281.35,-171.48 327.57,-168.13"/>
<polygon fill="#63b8ff" stroke="#63b8ff" points="327.7,-171.63 337.45,-167.48 327.24,-164.65 327.7,-171.63"/>
</a>
</g>
</g>
<!-- Node16 -->
<g id="Node000016" class="node">
<title>Node16</title>
<g id="a_Node000016"><a xlink:href="class_fiea_1_1_engine_1_1_actions_1_1_action.html#abea83b3796a80d29394f644634477d7b" target="_top" xlink:title=" ">
<polygon fill="white" stroke="#666666" points="288.12,-107 178.38,-107 178.38,-75 288.12,-75 288.12,-107"/>
<text xml:space="preserve" text-anchor="start" x="186.38" y="-93.5" font-family="Helvetica,sans-Serif" font-size="10.00">Fiea::Engine::Actions</text>
<text xml:space="preserve" text-anchor="middle" x="233.25" y="-81.5" font-family="Helvetica,sans-Serif" font-size="10.00">::Action::Update</text>
</a>
</g>
</g>
<!-- Node1&#45;&gt;Node16 -->
<g id="edge25_Node000001_Node000016" class="edge">
<title>Node1&#45;&gt;Node16</title>
<g id="a_edge25_Node000001_Node000016"><a xlink:title=" ">
<path fill="none" stroke="#63b8ff" d="M82.02,-252.57C111.21,-221.18 175.06,-152.51 209.37,-115.61"/>
<polygon fill="#63b8ff" stroke="#63b8ff" points="211.74,-118.2 215.98,-108.5 206.61,-113.44 211.74,-118.2"/>
</a>
</g>
</g>
<!-- Node3 -->
<g id="Node000003" class="node">
<title>Node3</title>
<g id="a_Node000003"><a xlink:href="class_fiea_1_1_engine_1_1_r_t_t_i.html#ac0a7d875e4513b2aca7594abcd4418ef" target="_top" xlink:title=" ">
<polygon fill="white" stroke="#666666" points="755.75,-389 643,-389 643,-369 755.75,-369 755.75,-389"/>
<text xml:space="preserve" text-anchor="middle" x="699.38" y="-375.5" font-family="Helvetica,sans-Serif" font-size="10.00">Fiea::Engine::RTTI::Is</text>
</a>
</g>
</g>
<!-- Node2&#45;&gt;Node3 -->
<g id="edge2_Node000002_Node000003" class="edge">
<title>Node2&#45;&gt;Node3</title>
<g id="a_edge2_Node000002_Node000003"><a xlink:title=" ">
<path fill="none" stroke="#63b8ff" d="M607.21,-390.65C615.1,-389.65 623.25,-388.6 631.28,-387.58"/>
<polygon fill="#63b8ff" stroke="#63b8ff" points="631.56,-391.07 641.03,-386.33 630.67,-384.13 631.56,-391.07"/>
</a>
</g>
</g>
<!-- Node4 -->
<g id="Node000004" class="node">
<title>Node4</title>
<g id="a_Node000004"><a xlink:href="class_fiea_1_1_engine_1_1_r_t_t_i.html#a13000029a2e6cced30b831e466e07cae" target="_top" xlink:title=" ">
<polygon fill="white" stroke="#666666" points="748.62,-332 650.12,-332 650.12,-300 748.62,-300 748.62,-332"/>
<text xml:space="preserve" text-anchor="start" x="658.12" y="-318.5" font-family="Helvetica,sans-Serif" font-size="10.00">Fiea::Engine::RTTI</text>
<text xml:space="preserve" text-anchor="middle" x="699.38" y="-306.5" font-family="Helvetica,sans-Serif" font-size="10.00">::RTTI</text>
</a>
</g>
</g>
<!-- Node2&#45;&gt;Node4 -->
<g id="edge3_Node000002_Node000004" class="edge">
<title>Node2&#45;&gt;Node4</title>
<g id="a_edge3_Node000002_Node000004"><a xlink:title=" ">
<path fill="none" stroke="#63b8ff" d="M568.57,-387.61C591.14,-375.16 629.58,-353.96 658.78,-337.85"/>
<polygon fill="#63b8ff" stroke="#63b8ff" points="660.29,-341.01 667.36,-333.11 656.91,-334.88 660.29,-341.01"/>
</a>
</g>
</g>
<!-- Node7 -->
<g id="Node000007" class="node">
<title>Node7</title>
<g id="a_Node000007"><a xlink:href="class_fiea_1_1_engine_1_1_content_1_1_attributed.html#ad1ae014235d9d8b62b36066c94164148" target="_top" xlink:title=" ">
<polygon fill="white" stroke="#666666" points="450.75,-438 338.75,-438 338.75,-406 450.75,-406 450.75,-438"/>
<text xml:space="preserve" text-anchor="start" x="346.75" y="-424.5" font-family="Helvetica,sans-Serif" font-size="10.00">Fiea::Engine::Content</text>
<text xml:space="preserve" text-anchor="middle" x="394.75" y="-412.5" font-family="Helvetica,sans-Serif" font-size="10.00">::Attributed::Attributed</text>
</a>
</g>
</g>
<!-- Node6&#45;&gt;Node7 -->
<g id="edge6_Node000006_Node000007" class="edge">
<title>Node6&#45;&gt;Node7</title>
<g id="a_edge6_Node000006_Node000007"><a xlink:title=" ">
<path fill="none" stroke="#63b8ff" d="M253.59,-332.2C273.36,-348.36 305.28,-373.4 335,-392 339.5,-394.81 344.29,-397.59 349.12,-400.25"/>
<polygon fill="#63b8ff" stroke="#63b8ff" points="347.21,-403.2 357.69,-404.82 350.51,-397.03 347.21,-403.2"/>
</a>
</g>
</g>
<!-- Node8 -->
<g id="Node000008" class="node">
<title>Node8</title>
<g id="a_Node000008"><a xlink:href="class_fiea_1_1_engine_1_1_r_t_t_i.html#a876bebbe7b3149483c43a87f55f4ea99" target="_top" xlink:title=" ">
<polygon fill="white" stroke="#666666" points="444,-332 345.5,-332 345.5,-300 444,-300 444,-332"/>
<text xml:space="preserve" text-anchor="start" x="353.5" y="-318.5" font-family="Helvetica,sans-Serif" font-size="10.00">Fiea::Engine::RTTI</text>
<text xml:space="preserve" text-anchor="middle" x="394.75" y="-306.5" font-family="Helvetica,sans-Serif" font-size="10.00">::TypeIdInstance</text>
</a>
</g>
</g>
<!-- Node6&#45;&gt;Node8 -->
<g id="edge8_Node000006_Node000008" class="edge">
<title>Node6&#45;&gt;Node8</title>
<g id="a_edge8_Node000006_Node000008"><a xlink:title=" ">
<path fill="none" stroke="#63b8ff" d="M299.12,-316C310.52,-316 322.33,-316 333.59,-316"/>
<polygon fill="#63b8ff" stroke="#63b8ff" points="333.57,-319.5 343.57,-316 333.57,-312.5 333.57,-319.5"/>
</a>
</g>
</g>
<!-- Node7&#45;&gt;Node7 -->
<g id="edge7_Node000007_Node000007" class="edge">
<title>Node7&#45;&gt;Node7</title>
<g id="a_edge7_Node000007_Node000007"><a xlink:title=" ">
<path fill="none" stroke="#63b8ff" d="M367.26,-438.44C362.12,-447.58 371.29,-456 394.75,-456 407.58,-456 416.13,-453.48 420.41,-449.71"/>
<polygon fill="#63b8ff" stroke="#63b8ff" points="423.85,-450.37 422,-439.94 416.94,-449.25 423.85,-450.37"/>
</a>
</g>
</g>
<!-- Node8&#45;&gt;Node2 -->
<g id="edge9_Node000008_Node000002" class="edge">
<title>Node8&#45;&gt;Node2</title>
<g id="a_edge9_Node000008_Node000002"><a xlink:title=" ">
<path fill="none" stroke="#63b8ff" d="M420.09,-332.32C438.89,-344.57 465.78,-361.34 490.5,-374 496.8,-377.22 503.63,-380.37 510.3,-383.27"/>
<polygon fill="#63b8ff" stroke="#63b8ff" points="508.6,-386.35 519.17,-387.01 511.32,-379.9 508.6,-386.35"/>
</a>
</g>
</g>
<!-- Node8&#45;&gt;Node3 -->
<g id="edge12_Node000008_Node000003" class="edge">
<title>Node8&#45;&gt;Node3</title>
<g id="a_edge12_Node000008_Node000003"><a xlink:title=" ">
<path fill="none" stroke="#63b8ff" d="M444.26,-329.57C459.05,-333.5 475.39,-337.63 490.5,-341 537.31,-351.44 590.51,-361.12 631.37,-368.1"/>
<polygon fill="#63b8ff" stroke="#63b8ff" points="630.62,-371.52 641.06,-369.75 631.79,-364.62 630.62,-371.52"/>
</a>
</g>
</g>
<!-- Node8&#45;&gt;Node4 -->
<g id="edge13_Node000008_Node000004" class="edge">
<title>Node8&#45;&gt;Node4</title>
<g id="a_edge13_Node000008_Node000004"><a xlink:title=" ">
<path fill="none" stroke="#63b8ff" d="M444.45,-300.58C459.1,-296.64 475.32,-292.97 490.5,-291 541.85,-284.34 555.68,-284.11 607,-291 617.53,-292.41 628.55,-294.7 639.16,-297.34"/>
<polygon fill="#63b8ff" stroke="#63b8ff" points="638,-300.65 648.56,-299.81 639.78,-293.88 638,-300.65"/>
</a>
</g>
</g>
<!-- Node8&#45;&gt;Node8 -->
<g id="edge15_Node000008_Node000008" class="edge">
<title>Node8&#45;&gt;Node8</title>
<g id="a_edge15_Node000008_Node000008"><a xlink:title=" ">
<path fill="none" stroke="#63b8ff" d="M367.26,-332.44C362.12,-341.58 371.29,-350 394.75,-350 407.58,-350 416.13,-347.48 420.41,-343.71"/>
<polygon fill="#63b8ff" stroke="#63b8ff" points="423.85,-344.37 422,-333.94 416.94,-343.25 423.85,-344.37"/>
</a>
</g>
</g>
<!-- Node9 -->
<g id="Node000009" class="node">
<title>Node9</title>
<g id="a_Node000009"><a xlink:href="class_fiea_1_1_engine_1_1_r_t_t_i.html#a7f70ad5ba0f8a3388543d63d72892575" target="_top" xlink:title=" ">
<polygon fill="white" stroke="#666666" points="598,-332 499.5,-332 499.5,-300 598,-300 598,-332"/>
<text xml:space="preserve" text-anchor="start" x="507.5" y="-318.5" font-family="Helvetica,sans-Serif" font-size="10.00">Fiea::Engine::RTTI</text>
<text xml:space="preserve" text-anchor="middle" x="548.75" y="-306.5" font-family="Helvetica,sans-Serif" font-size="10.00">::Equals</text>
</a>
</g>
</g>
<!-- Node8&#45;&gt;Node9 -->
<g id="edge10_Node000008_Node000009" class="edge">
<title>Node8&#45;&gt;Node9</title>
<g id="a_edge10_Node000008_Node000009"><a xlink:title=" ">
<path fill="none" stroke="#63b8ff" d="M444.26,-316C458.11,-316 473.37,-316 487.81,-316"/>
<polygon fill="#63b8ff" stroke="#63b8ff" points="487.66,-319.5 497.66,-316 487.66,-312.5 487.66,-319.5"/>
</a>
</g>
</g>
<!-- Node10 -->
<g id="Node000010" class="node">
<title>Node10</title>
<g id="a_Node000010"><a xlink:href="class_fiea_1_1_engine_1_1_r_t_t_i.html#a43a7d187e332a17d2c699bc2c8136a30" target="_top" xlink:title=" ">
<polygon fill="white" stroke="#666666" points="598,-244 499.5,-244 499.5,-212 598,-212 598,-244"/>
<text xml:space="preserve" text-anchor="start" x="507.5" y="-230.5" font-family="Helvetica,sans-Serif" font-size="10.00">Fiea::Engine::RTTI</text>
<text xml:space="preserve" text-anchor="middle" x="548.75" y="-218.5" font-family="Helvetica,sans-Serif" font-size="10.00">::ToString</text>
</a>
</g>
</g>
<!-- Node8&#45;&gt;Node10 -->
<g id="edge14_Node000008_Node000010" class="edge">
<title>Node8&#45;&gt;Node10</title>
<g id="a_edge14_Node000008_Node000010"><a xlink:title=" ">
<path fill="none" stroke="#63b8ff" d="M438.98,-299.62C444.35,-297.01 449.65,-294.12 454.5,-291 472.75,-279.25 472.74,-270.48 490.5,-258 494.53,-255.17 498.87,-252.42 503.29,-249.82"/>
<polygon fill="#63b8ff" stroke="#63b8ff" points="504.67,-253.06 511.67,-245.11 501.24,-246.95 504.67,-253.06"/>
</a>
</g>
</g>
<!-- Node9&#45;&gt;Node4 -->
<g id="edge11_Node000009_Node000004" class="edge">
<title>Node9&#45;&gt;Node4</title>
<g id="a_edge11_Node000009_Node000004"><a xlink:title=" ">
<path fill="none" stroke="#63b8ff" d="M598.42,-316C611.18,-316 625.1,-316 638.39,-316"/>
<polygon fill="#63b8ff" stroke="#63b8ff" points="638.34,-319.5 648.34,-316 638.34,-312.5 638.34,-319.5"/>
</a>
</g>
</g>
<!-- Node12 -->
<g id="Node000012" class="node">
<title>Node12</title>
<g id="a_Node000012"><a xlink:href="class_fiea_1_1_engine_1_1_content_1_1_datum.html#a921193447f6e42f596ac0a7694b02830" target="_top" xlink:title=" ">
<polygon fill="white" stroke="#666666" points="450.38,-506 339.12,-506 339.12,-474 450.38,-474 450.38,-506"/>
<text xml:space="preserve" text-anchor="start" x="347.12" y="-492.5" font-family="Helvetica,sans-Serif" font-size="10.00">Fiea::Engine::Content</text>
<text xml:space="preserve" text-anchor="middle" x="394.75" y="-480.5" font-family="Helvetica,sans-Serif" font-size="10.00">::Datum::Scope</text>
</a>
</g>
</g>
<!-- Node11&#45;&gt;Node12 -->
<g id="edge17_Node000011_Node000012" class="edge">
<title>Node11&#45;&gt;Node12</title>
<g id="a_edge17_Node000011_Node000012"><a xlink:title=" ">
<path fill="none" stroke="#63b8ff" d="M276.57,-444.45C296.3,-452.12 319.98,-461.32 340.87,-469.44"/>
<polygon fill="#63b8ff" stroke="#63b8ff" points="339.51,-472.67 350.09,-473.03 342.04,-466.15 339.51,-472.67"/>
</a>
</g>
</g>
<!-- Node12&#45;&gt;Node12 -->
<g id="edge18_Node000012_Node000012" class="edge">
<title>Node12&#45;&gt;Node12</title>
<g id="a_edge18_Node000012_Node000012"><a xlink:title=" ">
<path fill="none" stroke="#63b8ff" d="M367.26,-506.44C362.12,-515.58 371.29,-524 394.75,-524 407.58,-524 416.13,-521.48 420.41,-517.71"/>
<polygon fill="#63b8ff" stroke="#63b8ff" points="423.85,-518.37 422,-507.94 416.94,-517.25 423.85,-518.37"/>
</a>
</g>
</g>
<!-- Node13&#45;&gt;Node2 -->
<g id="edge20_Node000013_Node000002" class="edge">
<title>Node13&#45;&gt;Node2</title>
<g id="a_edge20_Node000013_Node000002"><a xlink:title=" ">
<path fill="none" stroke="#63b8ff" d="M253.04,-241.4C266.84,-254.05 285.45,-272.47 299,-291 319.18,-318.6 307.42,-338.78 335,-359 357.5,-375.5 425.56,-385.98 478.71,-391.88"/>
<polygon fill="#63b8ff" stroke="#63b8ff" points="478.32,-395.36 488.64,-392.94 479.07,-388.39 478.32,-395.36"/>
</a>
</g>
</g>
<!-- Node13&#45;&gt;Node5 -->
<g id="edge21_Node000013_Node000005" class="edge">
<title>Node13&#45;&gt;Node5</title>
<g id="a_edge21_Node000013_Node000005"><a xlink:title=" ">
<path fill="none" stroke="#63b8ff" d="M298.21,-241.44C307.97,-243.95 318.06,-246.54 327.86,-249.06"/>
<polygon fill="#63b8ff" stroke="#63b8ff" points="326.74,-252.39 337.3,-251.49 328.49,-245.61 326.74,-252.39"/>
</a>
</g>
</g>
<!-- Node14 -->
<g id="Node000014" class="node">
<title>Node14</title>
<g id="a_Node000014"><a xlink:href="class_fiea_1_1_engine_1_1_content_1_1_datum.html#aae7a8c9d75274c388e81a925ad1f49ef" target="_top" xlink:title=" ">
<polygon fill="white" stroke="#666666" points="450.38,-232 339.12,-232 339.12,-200 450.38,-200 450.38,-232"/>
<text xml:space="preserve" text-anchor="start" x="347.12" y="-218.5" font-family="Helvetica,sans-Serif" font-size="10.00">Fiea::Engine::Content</text>
<text xml:space="preserve" text-anchor="middle" x="394.75" y="-206.5" font-family="Helvetica,sans-Serif" font-size="10.00">::Datum::RemoveAt</text>
</a>
</g>
</g>
<!-- Node13&#45;&gt;Node14 -->
<g id="edge22_Node000013_Node000014" class="edge">
<title>Node13&#45;&gt;Node14</title>
<g id="a_edge22_Node000013_Node000014"><a xlink:title=" ">
<path fill="none" stroke="#63b8ff" d="M299.12,-221.34C308.44,-220.81 318.05,-220.27 327.39,-219.74"/>
<polygon fill="#63b8ff" stroke="#63b8ff" points="327.34,-223.25 337.12,-219.2 326.94,-216.26 327.34,-223.25"/>
</a>
</g>
</g>
<!-- Node13&#45;&gt;Node15 -->
<g id="edge23_Node000013_Node000015" class="edge">
<title>Node13&#45;&gt;Node15</title>
<g id="a_edge23_Node000013_Node000015"><a xlink:title=" ">
<path fill="none" stroke="#63b8ff" d="M278.68,-208.57C297.27,-201.69 319.06,-193.63 338.66,-186.38"/>
<polygon fill="#63b8ff" stroke="#63b8ff" points="339.7,-189.73 347.86,-182.97 337.27,-183.16 339.7,-189.73"/>
</a>
</g>
</g>
<!-- Node17 -->
<g id="Node000017" class="node">
<title>Node17</title>
<g id="a_Node000017"><a xlink:href="class_fiea_1_1_engine_1_1_actions_1_1_action.html#aca4c38723b265f3c4e6013bb8916b376" target="_top" xlink:title=" ">
<polygon fill="white" stroke="#666666" points="454.5,-32 335,-32 335,0 454.5,0 454.5,-32"/>
<text xml:space="preserve" text-anchor="start" x="343" y="-18.5" font-family="Helvetica,sans-Serif" font-size="10.00">Fiea::Engine::Actions</text>
<text xml:space="preserve" text-anchor="middle" x="394.75" y="-6.5" font-family="Helvetica,sans-Serif" font-size="10.00">::Action::CleanupAction</text>
</a>
</g>
</g>
<!-- Node16&#45;&gt;Node17 -->
<g id="edge26_Node000016_Node000017" class="edge">
<title>Node16&#45;&gt;Node17</title>
<g id="a_edge26_Node000016_Node000017"><a xlink:title=" ">
<path fill="none" stroke="#63b8ff" d="M266.23,-74.53C285.93,-64.54 311.76,-51.7 335,-41 337.88,-39.67 340.85,-38.33 343.85,-37"/>
<polygon fill="#63b8ff" stroke="#63b8ff" points="344.97,-40.33 352.72,-33.1 342.16,-33.92 344.97,-40.33"/>
</a>
</g>
</g>
<!-- Node18 -->
<g id="Node000018" class="node">
<title>Node18</title>
<g id="a_Node000018"><a xlink:href="class_fiea_1_1_engine_1_1_actions_1_1_action.html#a81c0a0c2e60d1d97b21ca306f673b7e7" target="_top" xlink:title=" ">
<polygon fill="white" stroke="#666666" points="449.62,-132 339.88,-132 339.88,-100 449.62,-100 449.62,-132"/>
<text xml:space="preserve" text-anchor="start" x="347.88" y="-118.5" font-family="Helvetica,sans-Serif" font-size="10.00">Fiea::Engine::Actions</text>
<text xml:space="preserve" text-anchor="middle" x="394.75" y="-106.5" font-family="Helvetica,sans-Serif" font-size="10.00">::Action::InitAction</text>
</a>
</g>
</g>
<!-- Node16&#45;&gt;Node18 -->
<g id="edge27_Node000016_Node000018" class="edge">
<title>Node16&#45;&gt;Node18</title>
<g id="a_edge27_Node000016_Node000018"><a xlink:title=" ">
<path fill="none" stroke="#63b8ff" d="M288.25,-99.46C301.17,-101.49 315.1,-103.67 328.47,-105.77"/>
<polygon fill="#63b8ff" stroke="#63b8ff" points="327.62,-109.18 338.04,-107.27 328.7,-102.26 327.62,-109.18"/>
</a>
</g>
</g>
<!-- Node19 -->
<g id="Node000019" class="node">
<title>Node19</title>
<g id="a_Node000019"><a xlink:href="class_fiea_1_1_engine_1_1_actions_1_1_action.html#a75aad9a760f6deb44caed1be2611afad" target="_top" xlink:title=" ">
<polygon fill="white" stroke="#666666" points="449.62,-82 339.88,-82 339.88,-50 449.62,-50 449.62,-82"/>
<text xml:space="preserve" text-anchor="start" x="347.88" y="-68.5" font-family="Helvetica,sans-Serif" font-size="10.00">Fiea::Engine::Actions</text>
<text xml:space="preserve" text-anchor="middle" x="394.75" y="-56.5" font-family="Helvetica,sans-Serif" font-size="10.00">::Action::RunAction</text>
</a>
</g>
</g>
<!-- Node16&#45;&gt;Node19 -->
<g id="edge28_Node000016_Node000019" class="edge">
<title>Node16&#45;&gt;Node19</title>
<g id="a_edge28_Node000016_Node000019"><a xlink:title=" ">
<path fill="none" stroke="#63b8ff" d="M288.25,-82.54C301.17,-80.51 315.1,-78.33 328.47,-76.23"/>
<polygon fill="#63b8ff" stroke="#63b8ff" points="328.7,-79.74 338.04,-74.73 327.62,-72.82 328.7,-79.74"/>
</a>
</g>
</g>
</g>
</svg>
