<?xml version="1.0" encoding="UTF-8" standalone="no"?>
<!DOCTYPE svg PUBLIC "-//W3C//DTD SVG 1.1//EN"
 "http://www.w3.org/Graphics/SVG/1.1/DTD/svg11.dtd">
<!-- Generated by graphviz version 13.1.0 (20250701.0955)
 -->
<!-- Title: Fiea::Engine::Content::ParseWriter::Depth Pages: 1 -->
<svg width="448pt" height="140pt"
 viewBox="0.00 0.00 448.00 140.00" xmlns="http://www.w3.org/2000/svg" xmlns:xlink="http://www.w3.org/1999/xlink">
<g id="graph0" class="graph" transform="scale(1 1) rotate(0) translate(4 136)">
<title>Fiea::Engine::Content::ParseWriter::Depth</title>
<!-- Node1 -->
<g id="Node000001" class="node">
<title>Node1</title>
<g id="a_Node000001"><a xlink:title=" ">
<polygon fill="#999999" stroke="#666666" points="440.25,-82 329,-82 329,-50 440.25,-50 440.25,-82"/>
<text xml:space="preserve" text-anchor="start" x="337" y="-68.5" font-family="Helvetica,sans-Serif" font-size="10.00">Fiea::Engine::Content</text>
<text xml:space="preserve" text-anchor="middle" x="384.62" y="-56.5" font-family="Helvetica,sans-Serif" font-size="10.00">::ParseWriter::Depth</text>
</a>
</g>
</g>
<!-- Node2 -->
<g id="Node000002" class="node">
<title>Node2</title>
<g id="a_Node000002"><a xlink:href="class_fiea_1_1_engine_1_1_content_1_1_test_writer.html#ae2cac3211fa521f5989efa508802952e" target="_top" xlink:title=" ">
<polygon fill="white" stroke="#666666" points="291.12,-132 165.62,-132 165.62,-100 291.12,-100 291.12,-132"/>
<text xml:space="preserve" text-anchor="start" x="173.62" y="-118.5" font-family="Helvetica,sans-Serif" font-size="10.00">Fiea::Engine::Content</text>
<text xml:space="preserve" text-anchor="middle" x="228.38" y="-106.5" font-family="Helvetica,sans-Serif" font-size="10.00">::TestWriter::RecordFloat</text>
</a>
</g>
</g>
<!-- Node1&#45;&gt;Node2 -->
<g id="edge1_Node000001_Node000002" class="edge">
<title>Node1&#45;&gt;Node2</title>
<g id="a_edge1_Node000001_Node000002"><a xlink:title=" ">
<path fill="none" stroke="#63b8ff" d="M322.57,-85.79C308.56,-90.33 293.8,-95.12 280.26,-99.51"/>
<polygon fill="#63b8ff" stroke="#63b8ff" points="323.24,-89.25 331.68,-82.84 321.09,-82.59 323.24,-89.25"/>
</a>
</g>
</g>
<!-- Node4 -->
<g id="Node000004" class="node">
<title>Node4</title>
<g id="a_Node000004"><a xlink:href="class_fiea_1_1_engine_1_1_content_1_1_test_writer.html#ab7a4c64374bc489a3184203eb2e5d770" target="_top" xlink:title=" ">
<polygon fill="white" stroke="#666666" points="285.88,-82 170.88,-82 170.88,-50 285.88,-50 285.88,-82"/>
<text xml:space="preserve" text-anchor="start" x="178.88" y="-68.5" font-family="Helvetica,sans-Serif" font-size="10.00">Fiea::Engine::Content</text>
<text xml:space="preserve" text-anchor="middle" x="228.38" y="-56.5" font-family="Helvetica,sans-Serif" font-size="10.00">::TestWriter::RecordInt</text>
</a>
</g>
</g>
<!-- Node1&#45;&gt;Node4 -->
<g id="edge3_Node000001_Node000004" class="edge">
<title>Node1&#45;&gt;Node4</title>
<g id="a_edge3_Node000001_Node000004"><a xlink:title=" ">
<path fill="none" stroke="#63b8ff" d="M317.32,-66C307.01,-66 296.44,-66 286.36,-66"/>
<polygon fill="#63b8ff" stroke="#63b8ff" points="317.29,-69.5 327.29,-66 317.29,-62.5 317.29,-69.5"/>
</a>
</g>
</g>
<!-- Node6 -->
<g id="Node000006" class="node">
<title>Node6</title>
<g id="a_Node000006"><a xlink:href="class_fiea_1_1_engine_1_1_content_1_1_test_writer.html#a1df1c9e28177892803128cca16596ceb" target="_top" xlink:title=" ">
<polygon fill="white" stroke="#666666" points="293,-32 163.75,-32 163.75,0 293,0 293,-32"/>
<text xml:space="preserve" text-anchor="start" x="171.75" y="-18.5" font-family="Helvetica,sans-Serif" font-size="10.00">Fiea::Engine::Content</text>
<text xml:space="preserve" text-anchor="middle" x="228.38" y="-6.5" font-family="Helvetica,sans-Serif" font-size="10.00">::TestWriter::RecordString</text>
</a>
</g>
</g>
<!-- Node1&#45;&gt;Node6 -->
<g id="edge5_Node000001_Node000006" class="edge">
<title>Node1&#45;&gt;Node6</title>
<g id="a_edge5_Node000001_Node000006"><a xlink:title=" ">
<path fill="none" stroke="#63b8ff" d="M322.57,-46.21C308.56,-41.67 293.8,-36.88 280.26,-32.49"/>
<polygon fill="#63b8ff" stroke="#63b8ff" points="321.09,-49.41 331.68,-49.16 323.24,-42.75 321.09,-49.41"/>
</a>
</g>
</g>
<!-- Node3 -->
<g id="Node000003" class="node">
<title>Node3</title>
<g id="a_Node000003"><a xlink:href="class_fiea_1_1_engine_1_1_content_1_1_float_handler.html#abfd93a4d2ad8b74f5771c3c17b9b33ac" target="_top" xlink:title=" ">
<polygon fill="white" stroke="#666666" points="125.88,-132 1.88,-132 1.88,-100 125.88,-100 125.88,-132"/>
<text xml:space="preserve" text-anchor="start" x="9.88" y="-118.5" font-family="Helvetica,sans-Serif" font-size="10.00">Fiea::Engine::Content</text>
<text xml:space="preserve" text-anchor="middle" x="63.88" y="-106.5" font-family="Helvetica,sans-Serif" font-size="10.00">::FloatHandler::EnterKey</text>
</a>
</g>
</g>
<!-- Node2&#45;&gt;Node3 -->
<g id="edge2_Node000002_Node000003" class="edge">
<title>Node2&#45;&gt;Node3</title>
<g id="a_edge2_Node000002_Node000003"><a xlink:title=" ">
<path fill="none" stroke="#63b8ff" d="M154.22,-116C144.9,-116 135.44,-116 126.33,-116"/>
<polygon fill="#63b8ff" stroke="#63b8ff" points="153.96,-119.5 163.96,-116 153.96,-112.5 153.96,-119.5"/>
</a>
</g>
</g>
<!-- Node5 -->
<g id="Node000005" class="node">
<title>Node5</title>
<g id="a_Node000005"><a xlink:href="class_fiea_1_1_engine_1_1_content_1_1_int_handler.html#a1eaa8ae949c2d2beb1df7a888bb5ba26" target="_top" xlink:title=" ">
<polygon fill="white" stroke="#666666" points="120.62,-82 7.12,-82 7.12,-50 120.62,-50 120.62,-82"/>
<text xml:space="preserve" text-anchor="start" x="15.12" y="-68.5" font-family="Helvetica,sans-Serif" font-size="10.00">Fiea::Engine::Content</text>
<text xml:space="preserve" text-anchor="middle" x="63.88" y="-56.5" font-family="Helvetica,sans-Serif" font-size="10.00">::IntHandler::EnterKey</text>
</a>
</g>
</g>
<!-- Node4&#45;&gt;Node5 -->
<g id="edge4_Node000004_Node000005" class="edge">
<title>Node4&#45;&gt;Node5</title>
<g id="a_edge4_Node000004_Node000005"><a xlink:title=" ">
<path fill="none" stroke="#63b8ff" d="M159.41,-66C146.57,-66 133.27,-66 120.86,-66"/>
<polygon fill="#63b8ff" stroke="#63b8ff" points="159.03,-69.5 169.03,-66 159.03,-62.5 159.03,-69.5"/>
</a>
</g>
</g>
<!-- Node7 -->
<g id="Node000007" class="node">
<title>Node7</title>
<g id="a_Node000007"><a xlink:href="class_fiea_1_1_engine_1_1_content_1_1_string_handler.html#ab5c180316dfd4e0db23136e61557fc8b" target="_top" xlink:title=" ">
<polygon fill="white" stroke="#666666" points="127.75,-32 0,-32 0,0 127.75,0 127.75,-32"/>
<text xml:space="preserve" text-anchor="start" x="8" y="-18.5" font-family="Helvetica,sans-Serif" font-size="10.00">Fiea::Engine::Content</text>
<text xml:space="preserve" text-anchor="middle" x="63.88" y="-6.5" font-family="Helvetica,sans-Serif" font-size="10.00">::StringHandler::EnterKey</text>
</a>
</g>
</g>
<!-- Node6&#45;&gt;Node7 -->
<g id="edge6_Node000006_Node000007" class="edge">
<title>Node6&#45;&gt;Node7</title>
<g id="a_edge6_Node000006_Node000007"><a xlink:title=" ">
<path fill="none" stroke="#63b8ff" d="M152.3,-16C144.24,-16 136.09,-16 128.18,-16"/>
<polygon fill="#63b8ff" stroke="#63b8ff" points="152.1,-19.5 162.1,-16 152.1,-12.5 152.1,-19.5"/>
</a>
</g>
</g>
</g>
</svg>
