<?xml version="1.0" encoding="UTF-8" standalone="no"?>
<!DOCTYPE svg PUBLIC "-//W3C//DTD SVG 1.1//EN"
 "http://www.w3.org/Graphics/SVG/1.1/DTD/svg11.dtd">
<!-- Generated by graphviz version 13.1.0 (20250701.0955)
 -->
<!-- Title: Fiea::Engine::ServiceManager Pages: 1 -->
<svg width="155pt" height="114pt"
 viewBox="0.00 0.00 155.00 114.00" xmlns="http://www.w3.org/2000/svg" xmlns:xlink="http://www.w3.org/1999/xlink">
<g id="graph0" class="graph" transform="scale(1 1) rotate(0) translate(4 110)">
<title>Fiea::Engine::ServiceManager</title>
<!-- Node1 -->
<g id="Node000001" class="node">
<title>Node1</title>
<g id="a_Node000001"><a xlink:title=" ">
<polygon fill="#999999" stroke="#666666" points="147.25,-106 0,-106 0,-86 147.25,-86 147.25,-106"/>
<text xml:space="preserve" text-anchor="middle" x="73.62" y="-92.5" font-family="Helvetica,sans-Serif" font-size="10.00">Fiea::Engine::ServiceManager</text>
</a>
</g>
</g>
<!-- Node2 -->
<g id="Node000002" class="node">
<title>Node2</title>
<g id="a_Node000002"><a xlink:href="struct_fiea_1_1_engine_1_1_singleton.html" target="_top" xlink:title=" ">
<polygon fill="white" stroke="#666666" points="132.25,-32 15,-32 15,0 132.25,0 132.25,-32"/>
<text xml:space="preserve" text-anchor="start" x="23" y="-18.5" font-family="Helvetica,sans-Serif" font-size="10.00">Fiea::Engine::Singleton</text>
<text xml:space="preserve" text-anchor="middle" x="73.62" y="-6.5" font-family="Helvetica,sans-Serif" font-size="10.00">&lt; ServiceManager &gt;</text>
</a>
</g>
</g>
<!-- Node1&#45;&gt;Node2 -->
<g id="edge2_Node000002_Node000001" class="edge">
<title>Node1&#45;&gt;Node2</title>
<g id="a_edge2_Node000002_Node000001"><a xlink:title=" ">
<path fill="none" stroke="#9a32cd" stroke-dasharray="5,2" d="M46.63,-78.4C43.51,-75.34 40.77,-71.86 38.88,-68 35.36,-60.81 35.72,-57.35 38.88,-50 41.76,-43.27 46.77,-37.27 52.1,-32.29"/>
<polygon fill="#9a32cd" stroke="#9a32cd" points="44.33,-81.03 54.3,-84.59 48.72,-75.59 44.33,-81.03"/>
</a>
</g>
<text xml:space="preserve" text-anchor="start" x="41.88" y="-55.5" font-family="Helvetica,sans-Serif" font-size="10.00" fill="grey">_Instance</text>
</g>
<!-- Node2&#45;&gt;Node1 -->
<g id="edge1_Node000001_Node000002" class="edge">
<title>Node2&#45;&gt;Node1</title>
<g id="a_edge1_Node000001_Node000002"><a xlink:title=" ">
<path fill="none" stroke="#63b8ff" d="M89.25,-42.4C92.45,-50.53 94.17,-59.6 91.62,-68 89.67,-74.47 85.59,-80.81 81.81,-85.71"/>
<polygon fill="#63b8ff" stroke="#63b8ff" points="92.4,-40.88 84.88,-33.42 86.11,-43.94 92.4,-40.88"/>
</a>
</g>
</g>
</g>
</svg>
