<?xml version="1.0" encoding="UTF-8" standalone="no"?>
<!DOCTYPE svg PUBLIC "-//W3C//DTD SVG 1.1//EN"
 "http://www.w3.org/Graphics/SVG/1.1/DTD/svg11.dtd">
<!-- Generated by graphviz version 13.1.0 (20250701.0955)
 -->
<!-- Title: Fiea::Engine::GameObject::Clone Pages: 1 -->
<svg width="756pt" height="220pt"
 viewBox="0.00 0.00 756.00 220.00" xmlns="http://www.w3.org/2000/svg" xmlns:xlink="http://www.w3.org/1999/xlink">
<g id="graph0" class="graph" transform="scale(1 1) rotate(0) translate(4 216)">
<title>Fiea::Engine::GameObject::Clone</title>
<!-- Node1 -->
<g id="Node000001" class="node">
<title>Node1</title>
<g id="a_Node000001"><a xlink:title="Creates a deep copy of this Attributed object.">
<polygon fill="#999999" stroke="#666666" points="131.5,-160 0,-160 0,-128 131.5,-128 131.5,-160"/>
<text xml:space="preserve" text-anchor="start" x="8" y="-146.5" font-family="Helvetica,sans-Serif" font-size="10.00">Fiea::Engine::GameObject</text>
<text xml:space="preserve" text-anchor="middle" x="65.75" y="-134.5" font-family="Helvetica,sans-Serif" font-size="10.00">::Clone</text>
</a>
</g>
</g>
<!-- Node2 -->
<g id="Node000002" class="node">
<title>Node2</title>
<g id="a_Node000002"><a xlink:href="class_fiea_1_1_engine_1_1_game_object.html#ad3a296dd56ec43cc9f81eef0b1d14db6" target="_top" xlink:title=" ">
<polygon fill="white" stroke="#666666" points="299,-160 167.5,-160 167.5,-128 299,-128 299,-160"/>
<text xml:space="preserve" text-anchor="start" x="175.5" y="-146.5" font-family="Helvetica,sans-Serif" font-size="10.00">Fiea::Engine::GameObject</text>
<text xml:space="preserve" text-anchor="middle" x="233.25" y="-134.5" font-family="Helvetica,sans-Serif" font-size="10.00">::GameObject</text>
</a>
</g>
</g>
<!-- Node1&#45;&gt;Node2 -->
<g id="edge1_Node000001_Node000002" class="edge">
<title>Node1&#45;&gt;Node2</title>
<g id="a_edge1_Node000001_Node000002"><a xlink:title=" ">
<path fill="none" stroke="#63b8ff" d="M131.68,-144C139.63,-144 147.79,-144 155.88,-144"/>
<polygon fill="#63b8ff" stroke="#63b8ff" points="155.72,-147.5 165.72,-144 155.72,-140.5 155.72,-147.5"/>
</a>
</g>
</g>
<!-- Node3 -->
<g id="Node000003" class="node">
<title>Node3</title>
<g id="a_Node000003"><a xlink:href="class_fiea_1_1_engine_1_1_content_1_1_attributed.html#ad1ae014235d9d8b62b36066c94164148" target="_top" xlink:title=" ">
<polygon fill="white" stroke="#666666" points="447,-194 335,-194 335,-162 447,-162 447,-194"/>
<text xml:space="preserve" text-anchor="start" x="343" y="-180.5" font-family="Helvetica,sans-Serif" font-size="10.00">Fiea::Engine::Content</text>
<text xml:space="preserve" text-anchor="middle" x="391" y="-168.5" font-family="Helvetica,sans-Serif" font-size="10.00">::Attributed::Attributed</text>
</a>
</g>
</g>
<!-- Node2&#45;&gt;Node3 -->
<g id="edge2_Node000002_Node000003" class="edge">
<title>Node2&#45;&gt;Node3</title>
<g id="a_edge2_Node000002_Node000003"><a xlink:title=" ">
<path fill="none" stroke="#63b8ff" d="M299.4,-158.22C307.44,-159.98 315.68,-161.78 323.74,-163.54"/>
<polygon fill="#63b8ff" stroke="#63b8ff" points="322.99,-166.95 333.51,-165.67 324.48,-160.12 322.99,-166.95"/>
</a>
</g>
</g>
<!-- Node4 -->
<g id="Node000004" class="node">
<title>Node4</title>
<g id="a_Node000004"><a xlink:href="class_fiea_1_1_engine_1_1_r_t_t_i.html#a876bebbe7b3149483c43a87f55f4ea99" target="_top" xlink:title=" ">
<polygon fill="white" stroke="#666666" points="440.25,-126 341.75,-126 341.75,-94 440.25,-94 440.25,-126"/>
<text xml:space="preserve" text-anchor="start" x="349.75" y="-112.5" font-family="Helvetica,sans-Serif" font-size="10.00">Fiea::Engine::RTTI</text>
<text xml:space="preserve" text-anchor="middle" x="391" y="-100.5" font-family="Helvetica,sans-Serif" font-size="10.00">::TypeIdInstance</text>
</a>
</g>
</g>
<!-- Node2&#45;&gt;Node4 -->
<g id="edge4_Node000002_Node000004" class="edge">
<title>Node2&#45;&gt;Node4</title>
<g id="a_edge4_Node000002_Node000004"><a xlink:title=" ">
<path fill="none" stroke="#63b8ff" d="M299.4,-129.78C309.7,-127.53 320.3,-125.22 330.46,-123"/>
<polygon fill="#63b8ff" stroke="#63b8ff" points="331.2,-126.42 340.22,-120.87 329.7,-119.58 331.2,-126.42"/>
</a>
</g>
</g>
<!-- Node3&#45;&gt;Node3 -->
<g id="edge3_Node000003_Node000003" class="edge">
<title>Node3&#45;&gt;Node3</title>
<g id="a_edge3_Node000003_Node000003"><a xlink:title=" ">
<path fill="none" stroke="#63b8ff" d="M364.18,-194.44C359.17,-203.58 368.11,-212 391,-212 403.52,-212 411.86,-209.48 416.04,-205.71"/>
<polygon fill="#63b8ff" stroke="#63b8ff" points="419.48,-206.36 417.59,-195.94 412.56,-205.27 419.48,-206.36"/>
</a>
</g>
</g>
<!-- Node4&#45;&gt;Node4 -->
<g id="edge13_Node000004_Node000004" class="edge">
<title>Node4&#45;&gt;Node4</title>
<g id="a_edge13_Node000004_Node000004"><a xlink:title=" ">
<path fill="none" stroke="#63b8ff" d="M364.18,-126.44C359.17,-135.58 368.11,-144 391,-144 403.52,-144 411.86,-141.48 416.04,-137.71"/>
<polygon fill="#63b8ff" stroke="#63b8ff" points="419.48,-138.36 417.59,-127.94 412.56,-137.27 419.48,-138.36"/>
</a>
</g>
</g>
<!-- Node5 -->
<g id="Node000005" class="node">
<title>Node5</title>
<g id="a_Node000005"><a xlink:href="class_fiea_1_1_engine_1_1_r_t_t_i.html#a15bd5993c8ad04da47af440298ebbb30" target="_top" xlink:title=" ">
<polygon fill="white" stroke="#666666" points="599.5,-158 483,-158 483,-138 599.5,-138 599.5,-158"/>
<text xml:space="preserve" text-anchor="middle" x="541.25" y="-144.5" font-family="Helvetica,sans-Serif" font-size="10.00">Fiea::Engine::RTTI::As</text>
</a>
</g>
</g>
<!-- Node4&#45;&gt;Node5 -->
<g id="edge5_Node000004_Node000005" class="edge">
<title>Node4&#45;&gt;Node5</title>
<g id="a_edge5_Node000004_Node000005"><a xlink:title=" ">
<path fill="none" stroke="#63b8ff" d="M440.54,-122.44C455.9,-126.38 472.93,-130.74 488.5,-134.74"/>
<polygon fill="#63b8ff" stroke="#63b8ff" points="487.52,-138.1 498.07,-137.19 489.25,-131.32 487.52,-138.1"/>
</a>
</g>
</g>
<!-- Node6 -->
<g id="Node000006" class="node">
<title>Node6</title>
<g id="a_Node000006"><a xlink:href="class_fiea_1_1_engine_1_1_r_t_t_i.html#ac0a7d875e4513b2aca7594abcd4418ef" target="_top" xlink:title=" ">
<polygon fill="white" stroke="#666666" points="748.25,-180 635.5,-180 635.5,-160 748.25,-160 748.25,-180"/>
<text xml:space="preserve" text-anchor="middle" x="691.88" y="-166.5" font-family="Helvetica,sans-Serif" font-size="10.00">Fiea::Engine::RTTI::Is</text>
</a>
</g>
</g>
<!-- Node4&#45;&gt;Node6 -->
<g id="edge10_Node000004_Node000006" class="edge">
<title>Node4&#45;&gt;Node6</title>
<g id="a_edge10_Node000004_Node000006"><a xlink:title=" ">
<path fill="none" stroke="#63b8ff" d="M411.05,-126.34C428.48,-140.14 455.64,-158.93 483,-167 528.72,-180.5 582.6,-180.86 624.05,-178.06"/>
<polygon fill="#63b8ff" stroke="#63b8ff" points="624.18,-181.56 633.88,-177.31 623.64,-174.58 624.18,-181.56"/>
</a>
</g>
</g>
<!-- Node7 -->
<g id="Node000007" class="node">
<title>Node7</title>
<g id="a_Node000007"><a xlink:href="class_fiea_1_1_engine_1_1_r_t_t_i.html#a13000029a2e6cced30b831e466e07cae" target="_top" xlink:title=" ">
<polygon fill="white" stroke="#666666" points="741.12,-126 642.62,-126 642.62,-94 741.12,-94 741.12,-126"/>
<text xml:space="preserve" text-anchor="start" x="650.62" y="-112.5" font-family="Helvetica,sans-Serif" font-size="10.00">Fiea::Engine::RTTI</text>
<text xml:space="preserve" text-anchor="middle" x="691.88" y="-100.5" font-family="Helvetica,sans-Serif" font-size="10.00">::RTTI</text>
</a>
</g>
</g>
<!-- Node4&#45;&gt;Node7 -->
<g id="edge11_Node000004_Node000007" class="edge">
<title>Node4&#45;&gt;Node7</title>
<g id="a_edge11_Node000004_Node000007"><a xlink:title=" ">
<path fill="none" stroke="#63b8ff" d="M440.68,-110C492.57,-110 574.79,-110 630.7,-110"/>
<polygon fill="#63b8ff" stroke="#63b8ff" points="630.7,-113.5 640.7,-110 630.7,-106.5 630.7,-113.5"/>
</a>
</g>
</g>
<!-- Node8 -->
<g id="Node000008" class="node">
<title>Node8</title>
<g id="a_Node000008"><a xlink:href="class_fiea_1_1_engine_1_1_r_t_t_i.html#a7f70ad5ba0f8a3388543d63d72892575" target="_top" xlink:title=" ">
<polygon fill="white" stroke="#666666" points="590.5,-82 492,-82 492,-50 590.5,-50 590.5,-82"/>
<text xml:space="preserve" text-anchor="start" x="500" y="-68.5" font-family="Helvetica,sans-Serif" font-size="10.00">Fiea::Engine::RTTI</text>
<text xml:space="preserve" text-anchor="middle" x="541.25" y="-56.5" font-family="Helvetica,sans-Serif" font-size="10.00">::Equals</text>
</a>
</g>
</g>
<!-- Node4&#45;&gt;Node8 -->
<g id="edge8_Node000004_Node000008" class="edge">
<title>Node4&#45;&gt;Node8</title>
<g id="a_edge8_Node000004_Node000008"><a xlink:title=" ">
<path fill="none" stroke="#63b8ff" d="M440.54,-95.59C453.34,-91.79 467.3,-87.65 480.61,-83.7"/>
<polygon fill="#63b8ff" stroke="#63b8ff" points="481.56,-87.07 490.15,-80.87 479.56,-80.36 481.56,-87.07"/>
</a>
</g>
</g>
<!-- Node9 -->
<g id="Node000009" class="node">
<title>Node9</title>
<g id="a_Node000009"><a xlink:href="class_fiea_1_1_engine_1_1_r_t_t_i.html#a43a7d187e332a17d2c699bc2c8136a30" target="_top" xlink:title=" ">
<polygon fill="white" stroke="#666666" points="590.5,-32 492,-32 492,0 590.5,0 590.5,-32"/>
<text xml:space="preserve" text-anchor="start" x="500" y="-18.5" font-family="Helvetica,sans-Serif" font-size="10.00">Fiea::Engine::RTTI</text>
<text xml:space="preserve" text-anchor="middle" x="541.25" y="-6.5" font-family="Helvetica,sans-Serif" font-size="10.00">::ToString</text>
</a>
</g>
</g>
<!-- Node4&#45;&gt;Node9 -->
<g id="edge12_Node000004_Node000009" class="edge">
<title>Node4&#45;&gt;Node9</title>
<g id="a_edge12_Node000004_Node000009"><a xlink:title=" ">
<path fill="none" stroke="#63b8ff" d="M410.94,-93.51C428.72,-78.56 456.49,-56.54 483,-41 485.01,-39.82 487.09,-38.66 489.2,-37.53"/>
<polygon fill="#63b8ff" stroke="#63b8ff" points="490.59,-40.75 497.96,-33.13 487.45,-34.5 490.59,-40.75"/>
</a>
</g>
</g>
<!-- Node5&#45;&gt;Node6 -->
<g id="edge6_Node000005_Node000006" class="edge">
<title>Node5&#45;&gt;Node6</title>
<g id="a_edge6_Node000005_Node000006"><a xlink:title=" ">
<path fill="none" stroke="#63b8ff" d="M599.71,-156.51C607.6,-157.67 615.75,-158.88 623.78,-160.07"/>
<polygon fill="#63b8ff" stroke="#63b8ff" points="623.13,-163.51 633.53,-161.51 624.16,-156.59 623.13,-163.51"/>
</a>
</g>
</g>
<!-- Node5&#45;&gt;Node7 -->
<g id="edge7_Node000005_Node000007" class="edge">
<title>Node5&#45;&gt;Node7</title>
<g id="a_edge7_Node000005_Node000007"><a xlink:title=" ">
<path fill="none" stroke="#63b8ff" d="M583.26,-137.52C598.13,-133.71 615.24,-129.34 631.38,-125.21"/>
<polygon fill="#63b8ff" stroke="#63b8ff" points="632.07,-128.65 640.89,-122.78 630.34,-121.87 632.07,-128.65"/>
</a>
</g>
</g>
<!-- Node8&#45;&gt;Node7 -->
<g id="edge9_Node000008_Node000007" class="edge">
<title>Node8&#45;&gt;Node7</title>
<g id="a_edge9_Node000008_Node000007"><a xlink:title=" ">
<path fill="none" stroke="#63b8ff" d="M590.92,-80.41C603.94,-84.26 618.17,-88.47 631.69,-92.48"/>
<polygon fill="#63b8ff" stroke="#63b8ff" points="630.32,-95.72 640.9,-95.21 632.31,-89.01 630.32,-95.72"/>
</a>
</g>
</g>
</g>
</svg>
