<?xml version="1.0" encoding="UTF-8" standalone="no"?>
<!DOCTYPE svg PUBLIC "-//W3C//DTD SVG 1.1//EN"
 "http://www.w3.org/Graphics/SVG/1.1/DTD/svg11.dtd">
<!-- Generated by graphviz version 13.1.0 (20250701.0955)
 -->
<!-- Title: Fiea::Engine::Actions::ActionList::ActionList Pages: 1 -->
<svg width="506pt" height="638pt"
 viewBox="0.00 0.00 506.00 638.00" xmlns="http://www.w3.org/2000/svg" xmlns:xlink="http://www.w3.org/1999/xlink">
<g id="graph0" class="graph" transform="scale(1 1) rotate(0) translate(4 634)">
<title>Fiea::Engine::Actions::ActionList::ActionList</title>
<!-- Node1 -->
<g id="Node000001" class="node">
<title>Node1</title>
<g id="a_Node000001"><a xlink:title=" ">
<polygon fill="#999999" stroke="#666666" points="498,-269 383,-269 383,-237 498,-237 498,-269"/>
<text xml:space="preserve" text-anchor="start" x="391" y="-255.5" font-family="Helvetica,sans-Serif" font-size="10.00">Fiea::Engine::Actions</text>
<text xml:space="preserve" text-anchor="middle" x="440.5" y="-243.5" font-family="Helvetica,sans-Serif" font-size="10.00">::ActionList::ActionList</text>
</a>
</g>
</g>
<!-- Node2 -->
<g id="Node000002" class="node">
<title>Node2</title>
<g id="a_Node000002"><a xlink:href="class_fiea_1_1_engine_1_1_actions_1_1_action_delayed.html#a95679c42e92441cf43d0f5373757beb0" target="_top" xlink:title=" ">
<polygon fill="white" stroke="#666666" points="347,-530 191.5,-530 191.5,-498 347,-498 347,-530"/>
<text xml:space="preserve" text-anchor="start" x="199.5" y="-516.5" font-family="Helvetica,sans-Serif" font-size="10.00">Fiea::Engine::Actions</text>
<text xml:space="preserve" text-anchor="middle" x="269.25" y="-504.5" font-family="Helvetica,sans-Serif" font-size="10.00">::ActionDelayed::ActionDelayed</text>
</a>
</g>
</g>
<!-- Node1&#45;&gt;Node2 -->
<g id="edge1_Node000001_Node000002" class="edge">
<title>Node1&#45;&gt;Node2</title>
<g id="a_edge1_Node000001_Node000002"><a xlink:title=" ">
<path fill="none" stroke="#63b8ff" d="M422.79,-278.77C388.16,-332.18 309.38,-453.65 280.83,-497.68"/>
<polygon fill="#63b8ff" stroke="#63b8ff" points="425.58,-280.89 428.09,-270.6 419.71,-277.08 425.58,-280.89"/>
</a>
</g>
</g>
<!-- Node7 -->
<g id="Node000007" class="node">
<title>Node7</title>
<g id="a_Node000007"><a xlink:href="class_fiea_1_1_engine_1_1_actions_1_1_action_list.html#aa6cff5ae26cd37754f26c7a75ba97128" target="_top" xlink:title=" ">
<polygon fill="white" stroke="#666666" points="326.75,-375 211.75,-375 211.75,-343 326.75,-343 326.75,-375"/>
<text xml:space="preserve" text-anchor="start" x="219.75" y="-361.5" font-family="Helvetica,sans-Serif" font-size="10.00">Fiea::Engine::Actions</text>
<text xml:space="preserve" text-anchor="middle" x="269.25" y="-349.5" font-family="Helvetica,sans-Serif" font-size="10.00">::ActionList::ActionList</text>
</a>
</g>
</g>
<!-- Node1&#45;&gt;Node7 -->
<g id="edge6_Node000001_Node000007" class="edge">
<title>Node1&#45;&gt;Node7</title>
<g id="a_edge6_Node000001_Node000007"><a xlink:title=" ">
<path fill="none" stroke="#63b8ff" d="M417.04,-277.4C399.47,-295.24 373.63,-318.86 347,-334 340.79,-337.53 334,-340.65 327.12,-343.38"/>
<polygon fill="#63b8ff" stroke="#63b8ff" points="419.5,-279.89 423.92,-270.26 414.46,-275.04 419.5,-279.89"/>
</a>
</g>
</g>
<!-- Node8 -->
<g id="Node000008" class="node">
<title>Node8</title>
<g id="a_Node000008"><a xlink:href="class_fiea_1_1_engine_1_1_actions_1_1_action_list.html#a5f3e778a6c07dac41555596e265f3370" target="_top" xlink:title=" ">
<polygon fill="white" stroke="#666666" points="326.75,-325 211.75,-325 211.75,-293 326.75,-293 326.75,-325"/>
<text xml:space="preserve" text-anchor="start" x="219.75" y="-311.5" font-family="Helvetica,sans-Serif" font-size="10.00">Fiea::Engine::Actions</text>
<text xml:space="preserve" text-anchor="middle" x="269.25" y="-299.5" font-family="Helvetica,sans-Serif" font-size="10.00">::ActionList::ActionList</text>
</a>
</g>
</g>
<!-- Node1&#45;&gt;Node8 -->
<g id="edge7_Node000001_Node000008" class="edge">
<title>Node1&#45;&gt;Node8</title>
<g id="a_edge7_Node000001_Node000008"><a xlink:title=" ">
<path fill="none" stroke="#63b8ff" d="M379.81,-273.09C368.9,-276.73 357.61,-280.49 347,-284 338.62,-286.77 329.71,-289.69 321.05,-292.52"/>
<polygon fill="#63b8ff" stroke="#63b8ff" points="380.75,-276.46 389.12,-269.97 378.53,-269.82 380.75,-276.46"/>
</a>
</g>
</g>
<!-- Node9 -->
<g id="Node000009" class="node">
<title>Node9</title>
<g id="a_Node000009"><a xlink:href="class_fiea_1_1_engine_1_1_actions_1_1_action_list_while_loop.html#ac028ded1d05dc70a0fbc9c8c7345085f" target="_top" xlink:title=" ">
<polygon fill="white" stroke="#666666" points="324.88,-275 213.62,-275 213.62,-231 324.88,-231 324.88,-275"/>
<text xml:space="preserve" text-anchor="start" x="221.62" y="-261.5" font-family="Helvetica,sans-Serif" font-size="10.00">Fiea::Engine::Actions</text>
<text xml:space="preserve" text-anchor="start" x="221.62" y="-249.5" font-family="Helvetica,sans-Serif" font-size="10.00">::ActionListWhileLoop</text>
<text xml:space="preserve" text-anchor="middle" x="269.25" y="-237.5" font-family="Helvetica,sans-Serif" font-size="10.00">::ActionListWhileLoop</text>
</a>
</g>
</g>
<!-- Node1&#45;&gt;Node9 -->
<g id="edge8_Node000001_Node000009" class="edge">
<title>Node1&#45;&gt;Node9</title>
<g id="a_edge8_Node000001_Node000009"><a xlink:title=" ">
<path fill="none" stroke="#63b8ff" d="M371.16,-253C355.88,-253 339.87,-253 325.21,-253"/>
<polygon fill="#63b8ff" stroke="#63b8ff" points="371.16,-256.5 381.16,-253 371.16,-249.5 371.16,-256.5"/>
</a>
</g>
</g>
<!-- Node14 -->
<g id="Node000014" class="node">
<title>Node14</title>
<g id="a_Node000014"><a xlink:href="class_fiea_1_1_engine_1_1_actions_1_1_action_timed.html#af910b88250ceb1f96a98e703dd3383e7" target="_top" xlink:title=" ">
<polygon fill="white" stroke="#666666" points="338,-182 200.5,-182 200.5,-150 338,-150 338,-182"/>
<text xml:space="preserve" text-anchor="start" x="208.5" y="-168.5" font-family="Helvetica,sans-Serif" font-size="10.00">Fiea::Engine::Actions</text>
<text xml:space="preserve" text-anchor="middle" x="269.25" y="-156.5" font-family="Helvetica,sans-Serif" font-size="10.00">::ActionTimed::ActionTimed</text>
</a>
</g>
</g>
<!-- Node1&#45;&gt;Node14 -->
<g id="edge13_Node000001_Node000014" class="edge">
<title>Node1&#45;&gt;Node14</title>
<g id="a_edge13_Node000001_Node000014"><a xlink:title=" ">
<path fill="none" stroke="#63b8ff" d="M397.66,-231.49C368.16,-216.33 329.25,-196.33 302.23,-182.44"/>
<polygon fill="#63b8ff" stroke="#63b8ff" points="395.83,-234.49 406.32,-235.94 399.03,-228.26 395.83,-234.49"/>
</a>
</g>
</g>
<!-- Node19 -->
<g id="Node000019" class="node">
<title>Node19</title>
<g id="a_Node000019"><a xlink:href="class_fiea_1_1_engine_1_1_actions_1_1_action_list.html#acfb3ae88a2eb3dd558548d433537ae9c" target="_top" xlink:title=" ">
<polygon fill="white" stroke="#666666" points="325.62,-132 212.88,-132 212.88,-100 325.62,-100 325.62,-132"/>
<text xml:space="preserve" text-anchor="start" x="220.88" y="-118.5" font-family="Helvetica,sans-Serif" font-size="10.00">Fiea::Engine::Actions</text>
<text xml:space="preserve" text-anchor="middle" x="269.25" y="-106.5" font-family="Helvetica,sans-Serif" font-size="10.00">::ActionList::operator=</text>
</a>
</g>
</g>
<!-- Node1&#45;&gt;Node19 -->
<g id="edge18_Node000001_Node000019" class="edge">
<title>Node1&#45;&gt;Node19</title>
<g id="a_edge18_Node000001_Node000019"><a xlink:title=" ">
<path fill="none" stroke="#63b8ff" d="M424.29,-227.12C408.14,-201.76 380.35,-163.7 347,-141 340.63,-136.66 333.45,-133.04 326.11,-130.01"/>
<polygon fill="#63b8ff" stroke="#63b8ff" points="421.25,-228.86 429.5,-235.52 427.2,-225.18 421.25,-228.86"/>
</a>
</g>
</g>
<!-- Node20 -->
<g id="Node000020" class="node">
<title>Node20</title>
<g id="a_Node000020"><a xlink:href="class_fiea_1_1_engine_1_1_actions_1_1_action_list.html#ade9d97151210b25935f7fae807c0b723" target="_top" xlink:title=" ">
<polygon fill="white" stroke="#666666" points="325.62,-82 212.88,-82 212.88,-50 325.62,-50 325.62,-82"/>
<text xml:space="preserve" text-anchor="start" x="220.88" y="-68.5" font-family="Helvetica,sans-Serif" font-size="10.00">Fiea::Engine::Actions</text>
<text xml:space="preserve" text-anchor="middle" x="269.25" y="-56.5" font-family="Helvetica,sans-Serif" font-size="10.00">::ActionList::operator=</text>
</a>
</g>
</g>
<!-- Node1&#45;&gt;Node20 -->
<g id="edge19_Node000001_Node000020" class="edge">
<title>Node1&#45;&gt;Node20</title>
<g id="a_edge19_Node000001_Node000020"><a xlink:title=" ">
<path fill="none" stroke="#63b8ff" d="M430.99,-225.95C418.33,-190.04 391.19,-126.99 347,-91 340.81,-85.96 333.57,-81.92 326.05,-78.69"/>
<polygon fill="#63b8ff" stroke="#63b8ff" points="427.58,-226.8 434.1,-235.15 434.21,-224.55 427.58,-226.8"/>
</a>
</g>
</g>
<!-- Node3 -->
<g id="Node000003" class="node">
<title>Node3</title>
<g id="a_Node000003"><a xlink:href="class_fiea_1_1_engine_1_1_actions_1_1_action_delayed.html#a8aa7bf38ecff5e938b5b7968d4bf1df3" target="_top" xlink:title=" ">
<polygon fill="white" stroke="#666666" points="155.5,-630 0,-630 0,-598 155.5,-598 155.5,-630"/>
<text xml:space="preserve" text-anchor="start" x="8" y="-616.5" font-family="Helvetica,sans-Serif" font-size="10.00">Fiea::Engine::Actions</text>
<text xml:space="preserve" text-anchor="middle" x="77.75" y="-604.5" font-family="Helvetica,sans-Serif" font-size="10.00">::ActionDelayed::ActionDelayed</text>
</a>
</g>
</g>
<!-- Node2&#45;&gt;Node3 -->
<g id="edge2_Node000002_Node000003" class="edge">
<title>Node2&#45;&gt;Node3</title>
<g id="a_edge2_Node000002_Node000003"><a xlink:title=" ">
<path fill="none" stroke="#63b8ff" d="M238.55,-537.02C216.56,-553.23 185.36,-574.54 155.5,-589 149.07,-592.11 142.15,-594.98 135.2,-597.57"/>
<polygon fill="#63b8ff" stroke="#63b8ff" points="240.55,-539.9 246.46,-531.1 236.36,-534.29 240.55,-539.9"/>
</a>
</g>
</g>
<!-- Node4 -->
<g id="Node000004" class="node">
<title>Node4</title>
<g id="a_Node000004"><a xlink:href="class_fiea_1_1_engine_1_1_actions_1_1_action_delayed.html#a1ccefcac2a11f520f74c1cb3850db795" target="_top" xlink:title=" ">
<polygon fill="white" stroke="#666666" points="155.5,-580 0,-580 0,-548 155.5,-548 155.5,-580"/>
<text xml:space="preserve" text-anchor="start" x="8" y="-566.5" font-family="Helvetica,sans-Serif" font-size="10.00">Fiea::Engine::Actions</text>
<text xml:space="preserve" text-anchor="middle" x="77.75" y="-554.5" font-family="Helvetica,sans-Serif" font-size="10.00">::ActionDelayed::ActionDelayed</text>
</a>
</g>
</g>
<!-- Node2&#45;&gt;Node4 -->
<g id="edge3_Node000002_Node000004" class="edge">
<title>Node2&#45;&gt;Node4</title>
<g id="a_edge3_Node000002_Node000004"><a xlink:title=" ">
<path fill="none" stroke="#63b8ff" d="M195.02,-533.32C177.21,-538.02 158.34,-543 141.1,-547.55"/>
<polygon fill="#63b8ff" stroke="#63b8ff" points="195.7,-536.76 204.47,-530.83 193.91,-529.99 195.7,-536.76"/>
</a>
</g>
</g>
<!-- Node5 -->
<g id="Node000005" class="node">
<title>Node5</title>
<g id="a_Node000005"><a xlink:href="class_fiea_1_1_engine_1_1_actions_1_1_action_delayed.html#a450bbfee4ba67577f9f62eeb63050b61" target="_top" xlink:title=" ">
<polygon fill="white" stroke="#666666" points="144.25,-530 11.25,-530 11.25,-498 144.25,-498 144.25,-530"/>
<text xml:space="preserve" text-anchor="start" x="19.25" y="-516.5" font-family="Helvetica,sans-Serif" font-size="10.00">Fiea::Engine::Actions</text>
<text xml:space="preserve" text-anchor="middle" x="77.75" y="-504.5" font-family="Helvetica,sans-Serif" font-size="10.00">::ActionDelayed::operator=</text>
</a>
</g>
</g>
<!-- Node2&#45;&gt;Node5 -->
<g id="edge4_Node000002_Node000005" class="edge">
<title>Node2&#45;&gt;Node5</title>
<g id="a_edge4_Node000002_Node000005"><a xlink:title=" ">
<path fill="none" stroke="#63b8ff" d="M179.84,-514C167.95,-514 155.93,-514 144.53,-514"/>
<polygon fill="#63b8ff" stroke="#63b8ff" points="179.66,-517.5 189.66,-514 179.66,-510.5 179.66,-517.5"/>
</a>
</g>
</g>
<!-- Node6 -->
<g id="Node000006" class="node">
<title>Node6</title>
<g id="a_Node000006"><a xlink:href="class_fiea_1_1_engine_1_1_actions_1_1_action_delayed.html#a03c9e16681741772c798a305d1b9ce07" target="_top" xlink:title=" ">
<polygon fill="white" stroke="#666666" points="144.25,-480 11.25,-480 11.25,-448 144.25,-448 144.25,-480"/>
<text xml:space="preserve" text-anchor="start" x="19.25" y="-466.5" font-family="Helvetica,sans-Serif" font-size="10.00">Fiea::Engine::Actions</text>
<text xml:space="preserve" text-anchor="middle" x="77.75" y="-454.5" font-family="Helvetica,sans-Serif" font-size="10.00">::ActionDelayed::operator=</text>
</a>
</g>
</g>
<!-- Node2&#45;&gt;Node6 -->
<g id="edge5_Node000002_Node000006" class="edge">
<title>Node2&#45;&gt;Node6</title>
<g id="a_edge5_Node000002_Node000006"><a xlink:title=" ">
<path fill="none" stroke="#63b8ff" d="M195.02,-494.68C177.21,-489.98 158.34,-485 141.1,-480.45"/>
<polygon fill="#63b8ff" stroke="#63b8ff" points="193.91,-498.01 204.47,-497.17 195.7,-491.24 193.91,-498.01"/>
</a>
</g>
</g>
<!-- Node10 -->
<g id="Node000010" class="node">
<title>Node10</title>
<g id="a_Node000010"><a xlink:href="class_fiea_1_1_engine_1_1_actions_1_1_action_list_while_loop.html#a9ee434dcab770064bad70f78eb394c17" target="_top" xlink:title=" ">
<polygon fill="white" stroke="#666666" points="133.38,-430 22.12,-430 22.12,-386 133.38,-386 133.38,-430"/>
<text xml:space="preserve" text-anchor="start" x="30.12" y="-416.5" font-family="Helvetica,sans-Serif" font-size="10.00">Fiea::Engine::Actions</text>
<text xml:space="preserve" text-anchor="start" x="30.12" y="-404.5" font-family="Helvetica,sans-Serif" font-size="10.00">::ActionListWhileLoop</text>
<text xml:space="preserve" text-anchor="middle" x="77.75" y="-392.5" font-family="Helvetica,sans-Serif" font-size="10.00">::ActionListWhileLoop</text>
</a>
</g>
</g>
<!-- Node9&#45;&gt;Node10 -->
<g id="edge9_Node000009_Node000010" class="edge">
<title>Node9&#45;&gt;Node10</title>
<g id="a_edge9_Node000009_Node000010"><a xlink:title=" ">
<path fill="none" stroke="#63b8ff" d="M203.4,-274.35C199.09,-277.19 195.06,-280.39 191.5,-284 160.39,-315.57 186.61,-345.43 155.5,-377 149.35,-383.24 141.77,-388.27 133.79,-392.31"/>
<polygon fill="#63b8ff" stroke="#63b8ff" points="204.98,-277.48 211.9,-269.45 201.49,-271.41 204.98,-277.48"/>
</a>
</g>
</g>
<!-- Node11 -->
<g id="Node000011" class="node">
<title>Node11</title>
<g id="a_Node000011"><a xlink:href="class_fiea_1_1_engine_1_1_actions_1_1_action_list_while_loop.html#acce962f097ffec57a12c5f70a310ea64" target="_top" xlink:title=" ">
<polygon fill="white" stroke="#666666" points="133.38,-368 22.12,-368 22.12,-324 133.38,-324 133.38,-368"/>
<text xml:space="preserve" text-anchor="start" x="30.12" y="-354.5" font-family="Helvetica,sans-Serif" font-size="10.00">Fiea::Engine::Actions</text>
<text xml:space="preserve" text-anchor="start" x="30.12" y="-342.5" font-family="Helvetica,sans-Serif" font-size="10.00">::ActionListWhileLoop</text>
<text xml:space="preserve" text-anchor="middle" x="77.75" y="-330.5" font-family="Helvetica,sans-Serif" font-size="10.00">::ActionListWhileLoop</text>
</a>
</g>
</g>
<!-- Node9&#45;&gt;Node11 -->
<g id="edge10_Node000009_Node000011" class="edge">
<title>Node9&#45;&gt;Node11</title>
<g id="a_edge10_Node000009_Node000011"><a xlink:title=" ">
<path fill="none" stroke="#63b8ff" d="M203.27,-277.45C199.22,-279.52 195.26,-281.71 191.5,-284 173.47,-294.99 173.53,-304.01 155.5,-315 148.63,-319.19 141.09,-323.03 133.51,-326.47"/>
<polygon fill="#63b8ff" stroke="#63b8ff" points="204.64,-280.68 212.13,-273.19 201.6,-274.37 204.64,-280.68"/>
</a>
</g>
</g>
<!-- Node12 -->
<g id="Node000012" class="node">
<title>Node12</title>
<g id="a_Node000012"><a xlink:href="class_fiea_1_1_engine_1_1_actions_1_1_action_list_while_loop.html#a06d57e9f1f97b6360a5122d29605381f" target="_top" xlink:title=" ">
<polygon fill="white" stroke="#666666" points="133.38,-306 22.12,-306 22.12,-262 133.38,-262 133.38,-306"/>
<text xml:space="preserve" text-anchor="start" x="30.12" y="-292.5" font-family="Helvetica,sans-Serif" font-size="10.00">Fiea::Engine::Actions</text>
<text xml:space="preserve" text-anchor="start" x="30.12" y="-280.5" font-family="Helvetica,sans-Serif" font-size="10.00">::ActionListWhileLoop</text>
<text xml:space="preserve" text-anchor="middle" x="77.75" y="-268.5" font-family="Helvetica,sans-Serif" font-size="10.00">::operator=</text>
</a>
</g>
</g>
<!-- Node9&#45;&gt;Node12 -->
<g id="edge11_Node000009_Node000012" class="edge">
<title>Node9&#45;&gt;Node12</title>
<g id="a_edge11_Node000009_Node000012"><a xlink:title=" ">
<path fill="none" stroke="#63b8ff" d="M202.08,-263.82C179.72,-267.48 155.01,-271.52 133.63,-275.02"/>
<polygon fill="#63b8ff" stroke="#63b8ff" points="202.39,-267.32 211.69,-262.25 201.26,-260.41 202.39,-267.32"/>
</a>
</g>
</g>
<!-- Node13 -->
<g id="Node000013" class="node">
<title>Node13</title>
<g id="a_Node000013"><a xlink:href="class_fiea_1_1_engine_1_1_actions_1_1_action_list_while_loop.html#a1904642ea240a414951011906570cf19" target="_top" xlink:title=" ">
<polygon fill="white" stroke="#666666" points="133.38,-244 22.12,-244 22.12,-200 133.38,-200 133.38,-244"/>
<text xml:space="preserve" text-anchor="start" x="30.12" y="-230.5" font-family="Helvetica,sans-Serif" font-size="10.00">Fiea::Engine::Actions</text>
<text xml:space="preserve" text-anchor="start" x="30.12" y="-218.5" font-family="Helvetica,sans-Serif" font-size="10.00">::ActionListWhileLoop</text>
<text xml:space="preserve" text-anchor="middle" x="77.75" y="-206.5" font-family="Helvetica,sans-Serif" font-size="10.00">::operator=</text>
</a>
</g>
</g>
<!-- Node9&#45;&gt;Node13 -->
<g id="edge12_Node000009_Node000013" class="edge">
<title>Node9&#45;&gt;Node13</title>
<g id="a_edge12_Node000009_Node000013"><a xlink:title=" ">
<path fill="none" stroke="#63b8ff" d="M202.08,-242.18C179.72,-238.52 155.01,-234.48 133.63,-230.98"/>
<polygon fill="#63b8ff" stroke="#63b8ff" points="201.26,-245.59 211.69,-243.75 202.39,-238.68 201.26,-245.59"/>
</a>
</g>
</g>
<!-- Node15 -->
<g id="Node000015" class="node">
<title>Node15</title>
<g id="a_Node000015"><a xlink:href="class_fiea_1_1_engine_1_1_actions_1_1_action_timed.html#af9fb8e9ef5b37c0efd4717335ca1aad7" target="_top" xlink:title=" ">
<polygon fill="white" stroke="#666666" points="146.5,-182 9,-182 9,-150 146.5,-150 146.5,-182"/>
<text xml:space="preserve" text-anchor="start" x="17" y="-168.5" font-family="Helvetica,sans-Serif" font-size="10.00">Fiea::Engine::Actions</text>
<text xml:space="preserve" text-anchor="middle" x="77.75" y="-156.5" font-family="Helvetica,sans-Serif" font-size="10.00">::ActionTimed::ActionTimed</text>
</a>
</g>
</g>
<!-- Node14&#45;&gt;Node15 -->
<g id="edge14_Node000014_Node000015" class="edge">
<title>Node14&#45;&gt;Node15</title>
<g id="a_edge14_Node000014_Node000015"><a xlink:title=" ">
<path fill="none" stroke="#63b8ff" d="M188.6,-166C174.74,-166 160.44,-166 146.93,-166"/>
<polygon fill="#63b8ff" stroke="#63b8ff" points="188.59,-169.5 198.59,-166 188.59,-162.5 188.59,-169.5"/>
</a>
</g>
</g>
<!-- Node16 -->
<g id="Node000016" class="node">
<title>Node16</title>
<g id="a_Node000016"><a xlink:href="class_fiea_1_1_engine_1_1_actions_1_1_action_timed.html#abb37fac551acd67202845016d71feb11" target="_top" xlink:title=" ">
<polygon fill="white" stroke="#666666" points="146.5,-132 9,-132 9,-100 146.5,-100 146.5,-132"/>
<text xml:space="preserve" text-anchor="start" x="17" y="-118.5" font-family="Helvetica,sans-Serif" font-size="10.00">Fiea::Engine::Actions</text>
<text xml:space="preserve" text-anchor="middle" x="77.75" y="-106.5" font-family="Helvetica,sans-Serif" font-size="10.00">::ActionTimed::ActionTimed</text>
</a>
</g>
</g>
<!-- Node14&#45;&gt;Node16 -->
<g id="edge15_Node000014_Node000016" class="edge">
<title>Node14&#45;&gt;Node16</title>
<g id="a_edge15_Node000014_Node000016"><a xlink:title=" ">
<path fill="none" stroke="#63b8ff" d="M195.02,-146.68C177.21,-141.98 158.34,-137 141.1,-132.45"/>
<polygon fill="#63b8ff" stroke="#63b8ff" points="193.91,-150.01 204.47,-149.17 195.7,-143.24 193.91,-150.01"/>
</a>
</g>
</g>
<!-- Node17 -->
<g id="Node000017" class="node">
<title>Node17</title>
<g id="a_Node000017"><a xlink:href="class_fiea_1_1_engine_1_1_actions_1_1_action_timed.html#a3f278f32e1c60e2a6901e022ccad5c06" target="_top" xlink:title=" ">
<polygon fill="white" stroke="#666666" points="139.75,-82 15.75,-82 15.75,-50 139.75,-50 139.75,-82"/>
<text xml:space="preserve" text-anchor="start" x="23.75" y="-68.5" font-family="Helvetica,sans-Serif" font-size="10.00">Fiea::Engine::Actions</text>
<text xml:space="preserve" text-anchor="middle" x="77.75" y="-56.5" font-family="Helvetica,sans-Serif" font-size="10.00">::ActionTimed::operator=</text>
</a>
</g>
</g>
<!-- Node14&#45;&gt;Node17 -->
<g id="edge16_Node000014_Node000017" class="edge">
<title>Node14&#45;&gt;Node17</title>
<g id="a_edge16_Node000014_Node000017"><a xlink:title=" ">
<path fill="none" stroke="#63b8ff" d="M196.2,-144.18C194.59,-143.17 193.02,-142.11 191.5,-141 169.39,-124.85 177.61,-107.15 155.5,-91 150.75,-87.53 145.49,-84.52 140.02,-81.92"/>
<polygon fill="#63b8ff" stroke="#63b8ff" points="194.05,-146.99 204.49,-148.78 197.44,-140.87 194.05,-146.99"/>
</a>
</g>
</g>
<!-- Node18 -->
<g id="Node000018" class="node">
<title>Node18</title>
<g id="a_Node000018"><a xlink:href="class_fiea_1_1_engine_1_1_actions_1_1_action_timed.html#a4006c68412b3523165bd0af5041a39f3" target="_top" xlink:title=" ">
<polygon fill="white" stroke="#666666" points="139.75,-32 15.75,-32 15.75,0 139.75,0 139.75,-32"/>
<text xml:space="preserve" text-anchor="start" x="23.75" y="-18.5" font-family="Helvetica,sans-Serif" font-size="10.00">Fiea::Engine::Actions</text>
<text xml:space="preserve" text-anchor="middle" x="77.75" y="-6.5" font-family="Helvetica,sans-Serif" font-size="10.00">::ActionTimed::operator=</text>
</a>
</g>
</g>
<!-- Node14&#45;&gt;Node18 -->
<g id="edge17_Node000014_Node000018" class="edge">
<title>Node14&#45;&gt;Node18</title>
<g id="a_edge17_Node000014_Node000018"><a xlink:title=" ">
<path fill="none" stroke="#63b8ff" d="M193.81,-143.11C193.02,-142.43 192.25,-141.73 191.5,-141 157.59,-108.11 189.41,-73.89 155.5,-41 150.97,-36.61 145.67,-32.99 139.99,-30.01"/>
<polygon fill="#63b8ff" stroke="#63b8ff" points="191.53,-145.79 201.69,-148.8 195.63,-140.11 191.53,-145.79"/>
</a>
</g>
</g>
</g>
</svg>
