<?xml version="1.0" encoding="UTF-8" standalone="no"?>
<!DOCTYPE svg PUBLIC "-//W3C//DTD SVG 1.1//EN"
 "http://www.w3.org/Graphics/SVG/1.1/DTD/svg11.dtd">
<!-- Generated by graphviz version 13.1.0 (20250701.0955)
 -->
<!-- Title: Fiea::Engine::Content::Attributed::Clone Pages: 1 -->
<svg width="267pt" height="58pt"
 viewBox="0.00 0.00 267.00 58.00" xmlns="http://www.w3.org/2000/svg" xmlns:xlink="http://www.w3.org/1999/xlink">
<g id="graph0" class="graph" transform="scale(1 1) rotate(0) translate(4 54)">
<title>Fiea::Engine::Content::Attributed::Clone</title>
<!-- Node1 -->
<g id="Node000001" class="node">
<title>Node1</title>
<g id="a_Node000001"><a xlink:title="Creates a deep copy of this Attributed object.">
<polygon fill="#999999" stroke="#666666" points="111.25,-32 0,-32 0,0 111.25,0 111.25,-32"/>
<text xml:space="preserve" text-anchor="start" x="8" y="-18.5" font-family="Helvetica,sans-Serif" font-size="10.00">Fiea::Engine::Content</text>
<text xml:space="preserve" text-anchor="middle" x="55.62" y="-6.5" font-family="Helvetica,sans-Serif" font-size="10.00">::Attributed::Clone</text>
</a>
</g>
</g>
<!-- Node2 -->
<g id="Node000002" class="node">
<title>Node2</title>
<g id="a_Node000002"><a xlink:href="class_fiea_1_1_engine_1_1_content_1_1_attributed.html#ad1ae014235d9d8b62b36066c94164148" target="_top" xlink:title=" ">
<polygon fill="white" stroke="#666666" points="259.25,-32 147.25,-32 147.25,0 259.25,0 259.25,-32"/>
<text xml:space="preserve" text-anchor="start" x="155.25" y="-18.5" font-family="Helvetica,sans-Serif" font-size="10.00">Fiea::Engine::Content</text>
<text xml:space="preserve" text-anchor="middle" x="203.25" y="-6.5" font-family="Helvetica,sans-Serif" font-size="10.00">::Attributed::Attributed</text>
</a>
</g>
</g>
<!-- Node1&#45;&gt;Node2 -->
<g id="edge1_Node000001_Node000002" class="edge">
<title>Node1&#45;&gt;Node2</title>
<g id="a_edge1_Node000001_Node000002"><a xlink:title=" ">
<path fill="none" stroke="#63b8ff" d="M111.68,-16C119.56,-16 127.74,-16 135.82,-16"/>
<polygon fill="#63b8ff" stroke="#63b8ff" points="135.6,-19.5 145.6,-16 135.6,-12.5 135.6,-19.5"/>
</a>
</g>
</g>
<!-- Node2&#45;&gt;Node2 -->
<g id="edge2_Node000002_Node000002" class="edge">
<title>Node2&#45;&gt;Node2</title>
<g id="a_edge2_Node000002_Node000002"><a xlink:title=" ">
<path fill="none" stroke="#63b8ff" d="M176.89,-32.44C171.98,-41.58 180.76,-50 203.25,-50 215.55,-50 223.75,-47.48 227.85,-43.71"/>
<polygon fill="#63b8ff" stroke="#63b8ff" points="231.29,-44.36 229.37,-33.94 224.38,-43.28 231.29,-44.36"/>
</a>
</g>
</g>
</g>
</svg>
