<?xml version="1.0" encoding="UTF-8" standalone="no"?>
<!DOCTYPE svg PUBLIC "-//W3C//DTD SVG 1.1//EN"
 "http://www.w3.org/Graphics/SVG/1.1/DTD/svg11.dtd">
<!-- Generated by graphviz version 13.1.0 (20250701.0955)
 -->
<!-- Title: Fiea::Engine::Content::ScopeWriter::AddMatrixType Pages: 1 -->
<svg width="773pt" height="290pt"
 viewBox="0.00 0.00 773.00 290.00" xmlns="http://www.w3.org/2000/svg" xmlns:xlink="http://www.w3.org/1999/xlink">
<g id="graph0" class="graph" transform="scale(1 1) rotate(0) translate(4 286)">
<title>Fiea::Engine::Content::ScopeWriter::AddMatrixType</title>
<!-- Node1 -->
<g id="Node000001" class="node">
<title>Node1</title>
<g id="a_Node000001"><a xlink:title=" ">
<polygon fill="#999999" stroke="#666666" points="146.5,-157 0,-157 0,-125 146.5,-125 146.5,-157"/>
<text xml:space="preserve" text-anchor="start" x="8" y="-143.5" font-family="Helvetica,sans-Serif" font-size="10.00">Fiea::Engine::Content</text>
<text xml:space="preserve" text-anchor="middle" x="73.25" y="-131.5" font-family="Helvetica,sans-Serif" font-size="10.00">::ScopeWriter::AddMatrixType</text>
</a>
</g>
</g>
<!-- Node2 -->
<g id="Node000002" class="node">
<title>Node2</title>
<g id="a_Node000002"><a xlink:href="class_fiea_1_1_engine_1_1_content_1_1_scope.html#aa91d6470fd3d3f402bbb2e765be54455" target="_top" xlink:title="Appends a new Datum with the given key.">
<polygon fill="white" stroke="#666666" points="308.38,-282 197.12,-282 197.12,-250 308.38,-250 308.38,-282"/>
<text xml:space="preserve" text-anchor="start" x="205.12" y="-268.5" font-family="Helvetica,sans-Serif" font-size="10.00">Fiea::Engine::Content</text>
<text xml:space="preserve" text-anchor="middle" x="252.75" y="-256.5" font-family="Helvetica,sans-Serif" font-size="10.00">::Scope::Append</text>
</a>
</g>
</g>
<!-- Node1&#45;&gt;Node2 -->
<g id="edge1_Node000001_Node000002" class="edge">
<title>Node1&#45;&gt;Node2</title>
<g id="a_edge1_Node000001_Node000002"><a xlink:title=" ">
<path fill="none" stroke="#63b8ff" d="M88.08,-157.34C107.28,-179.12 144.02,-217.61 182.5,-241 184.63,-242.29 186.84,-243.54 189.1,-244.73"/>
<polygon fill="#63b8ff" stroke="#63b8ff" points="187.38,-247.79 197.91,-248.96 190.41,-241.48 187.38,-247.79"/>
</a>
</g>
</g>
<!-- Node3 -->
<g id="Node000003" class="node">
<title>Node3</title>
<g id="a_Node000003"><a xlink:href="class_fiea_1_1_engine_1_1_content_1_1_scope_writer.html#afcb6b54b66a06b4d43edbeb27a191cfa" target="_top" xlink:title=" ">
<polygon fill="white" stroke="#666666" points="323,-232 182.5,-232 182.5,-200 323,-200 323,-232"/>
<text xml:space="preserve" text-anchor="start" x="190.5" y="-218.5" font-family="Helvetica,sans-Serif" font-size="10.00">Fiea::Engine::Content</text>
<text xml:space="preserve" text-anchor="middle" x="252.75" y="-206.5" font-family="Helvetica,sans-Serif" font-size="10.00">::ScopeWriter::GetTopScope</text>
</a>
</g>
</g>
<!-- Node1&#45;&gt;Node3 -->
<g id="edge2_Node000001_Node000003" class="edge">
<title>Node1&#45;&gt;Node3</title>
<g id="a_edge2_Node000001_Node000003"><a xlink:title=" ">
<path fill="none" stroke="#63b8ff" d="M107.57,-157.29C128.81,-167.46 157.03,-180.54 182.5,-191 186.27,-192.55 190.17,-194.1 194.12,-195.62"/>
<polygon fill="#63b8ff" stroke="#63b8ff" points="192.6,-198.79 203.19,-199.06 195.08,-192.24 192.6,-198.79"/>
</a>
</g>
</g>
<!-- Node4 -->
<g id="Node000004" class="node">
<title>Node4</title>
<g id="a_Node000004"><a xlink:href="class_fiea_1_1_engine_1_1_content_1_1_datum.html#a2bb6d02e4d11e947717b9fce2da3ca5f" target="_top" xlink:title=" ">
<polygon fill="white" stroke="#666666" points="316.62,-182 188.88,-182 188.88,-150 316.62,-150 316.62,-182"/>
<text xml:space="preserve" text-anchor="start" x="196.88" y="-168.5" font-family="Helvetica,sans-Serif" font-size="10.00">Fiea::Engine::Content</text>
<text xml:space="preserve" text-anchor="middle" x="252.75" y="-156.5" font-family="Helvetica,sans-Serif" font-size="10.00">::Datum::PushFromString</text>
</a>
</g>
</g>
<!-- Node1&#45;&gt;Node4 -->
<g id="edge3_Node000001_Node000004" class="edge">
<title>Node1&#45;&gt;Node4</title>
<g id="a_edge3_Node000001_Node000004"><a xlink:title=" ">
<path fill="none" stroke="#63b8ff" d="M146.96,-151.24C156.98,-152.65 167.27,-154.1 177.32,-155.52"/>
<polygon fill="#63b8ff" stroke="#63b8ff" points="176.64,-158.96 187.03,-156.88 177.62,-152.02 176.64,-158.96"/>
</a>
</g>
</g>
<!-- Node8 -->
<g id="Node000008" class="node">
<title>Node8</title>
<g id="a_Node000008"><a xlink:href="class_fiea_1_1_engine_1_1_content_1_1_datum.html#a7e3945c2e80b5c6a0b85729b4063ded8" target="_top" xlink:title=" ">
<polygon fill="white" stroke="#666666" points="312.88,-132 192.62,-132 192.62,-100 312.88,-100 312.88,-132"/>
<text xml:space="preserve" text-anchor="start" x="200.62" y="-118.5" font-family="Helvetica,sans-Serif" font-size="10.00">Fiea::Engine::Content</text>
<text xml:space="preserve" text-anchor="middle" x="252.75" y="-106.5" font-family="Helvetica,sans-Serif" font-size="10.00">::Datum::SetFromString</text>
</a>
</g>
</g>
<!-- Node1&#45;&gt;Node8 -->
<g id="edge9_Node000001_Node000008" class="edge">
<title>Node1&#45;&gt;Node8</title>
<g id="a_edge9_Node000001_Node000008"><a xlink:title=" ">
<path fill="none" stroke="#63b8ff" d="M146.96,-130.76C158.23,-129.17 169.86,-127.53 181.09,-125.95"/>
<polygon fill="#63b8ff" stroke="#63b8ff" points="181.24,-129.47 190.66,-124.6 180.26,-122.53 181.24,-129.47"/>
</a>
</g>
</g>
<!-- Node9 -->
<g id="Node000009" class="node">
<title>Node9</title>
<g id="a_Node000009"><a xlink:href="class_fiea_1_1_engine_1_1_content_1_1_datum.html#a23d1f16d9646f024a5dee1f05dbd5a5e" target="_top" xlink:title=" ">
<polygon fill="white" stroke="#666666" points="308.38,-82 197.12,-82 197.12,-50 308.38,-50 308.38,-82"/>
<text xml:space="preserve" text-anchor="start" x="205.12" y="-68.5" font-family="Helvetica,sans-Serif" font-size="10.00">Fiea::Engine::Content</text>
<text xml:space="preserve" text-anchor="middle" x="252.75" y="-56.5" font-family="Helvetica,sans-Serif" font-size="10.00">::Datum::SetType</text>
</a>
</g>
</g>
<!-- Node1&#45;&gt;Node9 -->
<g id="edge10_Node000001_Node000009" class="edge">
<title>Node1&#45;&gt;Node9</title>
<g id="a_edge10_Node000001_Node000009"><a xlink:title=" ">
<path fill="none" stroke="#63b8ff" d="M107.57,-124.71C128.81,-114.54 157.03,-101.46 182.5,-91 186.27,-89.45 190.17,-87.9 194.12,-86.38"/>
<polygon fill="#63b8ff" stroke="#63b8ff" points="195.08,-89.76 203.19,-82.94 192.6,-83.21 195.08,-89.76"/>
</a>
</g>
</g>
<!-- Node10 -->
<g id="Node000010" class="node">
<title>Node10</title>
<g id="a_Node000010"><a xlink:href="class_fiea_1_1_engine_1_1_content_1_1_datum.html#acae68c3bc8b20345e4c3790fa37bd8d5" target="_top" xlink:title=" ">
<polygon fill="white" stroke="#666666" points="308.38,-32 197.12,-32 197.12,0 308.38,0 308.38,-32"/>
<text xml:space="preserve" text-anchor="start" x="205.12" y="-18.5" font-family="Helvetica,sans-Serif" font-size="10.00">Fiea::Engine::Content</text>
<text xml:space="preserve" text-anchor="middle" x="252.75" y="-6.5" font-family="Helvetica,sans-Serif" font-size="10.00">::Datum::Size</text>
</a>
</g>
</g>
<!-- Node1&#45;&gt;Node10 -->
<g id="edge11_Node000001_Node000010" class="edge">
<title>Node1&#45;&gt;Node10</title>
<g id="a_edge11_Node000001_Node000010"><a xlink:title=" ">
<path fill="none" stroke="#63b8ff" d="M88.08,-124.66C107.28,-102.88 144.02,-64.39 182.5,-41 184.63,-39.71 186.84,-38.46 189.1,-37.27"/>
<polygon fill="#63b8ff" stroke="#63b8ff" points="190.41,-40.52 197.91,-33.04 187.38,-34.21 190.41,-40.52"/>
</a>
</g>
</g>
<!-- Node5 -->
<g id="Node000005" class="node">
<title>Node5</title>
<g id="a_Node000005"><a xlink:href="class_fiea_1_1_engine_1_1_content_1_1_datum.html#acb3ba55fc9b39b876cf3334d0305f4fc" target="_top" xlink:title=" ">
<polygon fill="white" stroke="#666666" points="470.25,-182 359,-182 359,-150 470.25,-150 470.25,-182"/>
<text xml:space="preserve" text-anchor="start" x="367" y="-168.5" font-family="Helvetica,sans-Serif" font-size="10.00">Fiea::Engine::Content</text>
<text xml:space="preserve" text-anchor="middle" x="414.62" y="-156.5" font-family="Helvetica,sans-Serif" font-size="10.00">::Datum::Push</text>
</a>
</g>
</g>
<!-- Node4&#45;&gt;Node5 -->
<g id="edge4_Node000004_Node000005" class="edge">
<title>Node4&#45;&gt;Node5</title>
<g id="a_edge4_Node000004_Node000005"><a xlink:title=" ">
<path fill="none" stroke="#63b8ff" d="M316.94,-166C326.96,-166 337.34,-166 347.43,-166"/>
<polygon fill="#63b8ff" stroke="#63b8ff" points="347.14,-169.5 357.14,-166 347.14,-162.5 347.14,-169.5"/>
</a>
</g>
</g>
<!-- Node6 -->
<g id="Node000006" class="node">
<title>Node6</title>
<g id="a_Node000006"><a xlink:href="class_fiea_1_1_engine_1_1_content_1_1_datum.html#a818f812e4489e57885c88951bc0601b3" target="_top" xlink:title=" ">
<polygon fill="white" stroke="#666666" points="617.5,-204 506.25,-204 506.25,-172 617.5,-172 617.5,-204"/>
<text xml:space="preserve" text-anchor="start" x="514.25" y="-190.5" font-family="Helvetica,sans-Serif" font-size="10.00">Fiea::Engine::Content</text>
<text xml:space="preserve" text-anchor="middle" x="561.88" y="-178.5" font-family="Helvetica,sans-Serif" font-size="10.00">::Datum::ResizeArray</text>
</a>
</g>
</g>
<!-- Node5&#45;&gt;Node6 -->
<g id="edge5_Node000005_Node000006" class="edge">
<title>Node5&#45;&gt;Node6</title>
<g id="a_edge5_Node000005_Node000006"><a xlink:title=" ">
<path fill="none" stroke="#63b8ff" d="M470.54,-174.32C478.4,-175.51 486.56,-176.74 494.61,-177.96"/>
<polygon fill="#63b8ff" stroke="#63b8ff" points="493.98,-181.41 504.39,-179.44 495.03,-174.49 493.98,-181.41"/>
</a>
</g>
</g>
<!-- Node7 -->
<g id="Node000007" class="node">
<title>Node7</title>
<g id="a_Node000007"><a xlink:href="class_fiea_1_1_engine_1_1_content_1_1_datum.html#a921193447f6e42f596ac0a7694b02830" target="_top" xlink:title=" ">
<polygon fill="white" stroke="#666666" points="764.75,-182 653.5,-182 653.5,-150 764.75,-150 764.75,-182"/>
<text xml:space="preserve" text-anchor="start" x="661.5" y="-168.5" font-family="Helvetica,sans-Serif" font-size="10.00">Fiea::Engine::Content</text>
<text xml:space="preserve" text-anchor="middle" x="709.12" y="-156.5" font-family="Helvetica,sans-Serif" font-size="10.00">::Datum::Scope</text>
</a>
</g>
</g>
<!-- Node5&#45;&gt;Node7 -->
<g id="edge8_Node000005_Node000007" class="edge">
<title>Node5&#45;&gt;Node7</title>
<g id="a_edge8_Node000005_Node000007"><a xlink:title=" ">
<path fill="none" stroke="#63b8ff" d="M470.73,-163.88C482.45,-163.52 494.76,-163.19 506.25,-163 555.69,-162.18 568.06,-162.18 617.5,-163 625.31,-163.13 633.5,-163.32 641.62,-163.55"/>
<polygon fill="#63b8ff" stroke="#63b8ff" points="641.41,-167.04 651.51,-163.84 641.61,-160.04 641.41,-167.04"/>
</a>
</g>
</g>
<!-- Node6&#45;&gt;Node7 -->
<g id="edge6_Node000006_Node000007" class="edge">
<title>Node6&#45;&gt;Node7</title>
<g id="a_edge6_Node000006_Node000007"><a xlink:title=" ">
<path fill="none" stroke="#63b8ff" d="M617.79,-179.68C625.65,-178.49 633.81,-177.26 641.86,-176.04"/>
<polygon fill="#63b8ff" stroke="#63b8ff" points="642.28,-179.51 651.64,-174.56 641.23,-172.59 642.28,-179.51"/>
</a>
</g>
</g>
<!-- Node7&#45;&gt;Node7 -->
<g id="edge7_Node000007_Node000007" class="edge">
<title>Node7&#45;&gt;Node7</title>
<g id="a_edge7_Node000007_Node000007"><a xlink:title=" ">
<path fill="none" stroke="#63b8ff" d="M682.84,-182.44C677.93,-191.58 686.69,-200 709.12,-200 721.39,-200 729.57,-197.48 733.66,-193.71"/>
<polygon fill="#63b8ff" stroke="#63b8ff" points="737.1,-194.36 735.18,-183.94 730.19,-193.28 737.1,-194.36"/>
</a>
</g>
</g>
</g>
</svg>
