<?xml version="1.0" encoding="UTF-8" standalone="no"?>
<!DOCTYPE svg PUBLIC "-//W3C//DTD SVG 1.1//EN"
 "http://www.w3.org/Graphics/SVG/1.1/DTD/svg11.dtd">
<!-- Generated by graphviz version 13.1.0 (20250701.0955)
 -->
<!-- Title: Fiea::Engine::Content::Scope::GetParent Pages: 1 -->
<svg width="871pt" height="828pt"
 viewBox="0.00 0.00 871.00 828.00" xmlns="http://www.w3.org/2000/svg" xmlns:xlink="http://www.w3.org/1999/xlink">
<g id="graph0" class="graph" transform="scale(1 1) rotate(0) translate(4 824)">
<title>Fiea::Engine::Content::Scope::GetParent</title>
<!-- Node1 -->
<g id="Node000001" class="node">
<title>Node1</title>
<g id="a_Node000001"><a xlink:title=" ">
<polygon fill="#999999" stroke="#666666" points="863,-544 751.75,-544 751.75,-512 863,-512 863,-544"/>
<text xml:space="preserve" text-anchor="start" x="759.75" y="-530.5" font-family="Helvetica,sans-Serif" font-size="10.00">Fiea::Engine::Content</text>
<text xml:space="preserve" text-anchor="middle" x="807.38" y="-518.5" font-family="Helvetica,sans-Serif" font-size="10.00">::Scope::GetParent</text>
</a>
</g>
</g>
<!-- Node2 -->
<g id="Node000002" class="node">
<title>Node2</title>
<g id="a_Node000002"><a xlink:href="class_fiea_1_1_engine_1_1_content_1_1_scope_writer.html#a8baf6cd60c0807e9e91054132db5183f" target="_top" xlink:title=" ">
<polygon fill="white" stroke="#666666" points="715.75,-773 524.25,-773 524.25,-741 715.75,-741 715.75,-773"/>
<text xml:space="preserve" text-anchor="start" x="532.25" y="-759.5" font-family="Helvetica,sans-Serif" font-size="10.00">Fiea::Engine::Content</text>
<text xml:space="preserve" text-anchor="middle" x="620" y="-747.5" font-family="Helvetica,sans-Serif" font-size="10.00">::ScopeWriter::AddActionToPredecessor</text>
</a>
</g>
</g>
<!-- Node1&#45;&gt;Node2 -->
<g id="edge1_Node000001_Node000002" class="edge">
<title>Node1&#45;&gt;Node2</title>
<g id="a_edge1_Node000001_Node000002"><a xlink:title=" ">
<path fill="none" stroke="#63b8ff" d="M795.19,-554.21C780.31,-587.14 751.64,-644.27 715.75,-685 696.08,-707.32 668.56,-727.31 648.25,-740.53"/>
<polygon fill="#63b8ff" stroke="#63b8ff" points="798.24,-555.97 799.09,-545.41 791.84,-553.14 798.24,-555.97"/>
</a>
</g>
</g>
<!-- Node5 -->
<g id="Node000005" class="node">
<title>Node5</title>
<g id="a_Node000005"><a xlink:href="class_fiea_1_1_engine_1_1_content_1_1_scope.html#a9d741d7fb95ccb49ee35dd6d9f779f1e" target="_top" xlink:title="Clears all data in the Scope.">
<polygon fill="white" stroke="#666666" points="675.62,-676 564.38,-676 564.38,-644 675.62,-644 675.62,-676"/>
<text xml:space="preserve" text-anchor="start" x="572.38" y="-662.5" font-family="Helvetica,sans-Serif" font-size="10.00">Fiea::Engine::Content</text>
<text xml:space="preserve" text-anchor="middle" x="620" y="-650.5" font-family="Helvetica,sans-Serif" font-size="10.00">::Scope::Clear</text>
</a>
</g>
</g>
<!-- Node1&#45;&gt;Node5 -->
<g id="edge4_Node000001_Node000005" class="edge">
<title>Node1&#45;&gt;Node5</title>
<g id="a_edge4_Node000001_Node000005"><a xlink:title=" ">
<path fill="none" stroke="#63b8ff" d="M774.36,-550.79C737.24,-577.23 676.94,-620.17 644.1,-643.55"/>
<polygon fill="#63b8ff" stroke="#63b8ff" points="775.92,-553.98 782.04,-545.33 771.86,-548.28 775.92,-553.98"/>
</a>
</g>
</g>
<!-- Node14 -->
<g id="Node000014" class="node">
<title>Node14</title>
<g id="a_Node000014"><a xlink:href="namespace_fiea_1_1_engine_1_1_tests.html#ad3e53e7e3f072321bc7199970c619c1d" target="_top" xlink:title=" ">
<polygon fill="white" stroke="#666666" points="282.88,-569 182.12,-569 182.12,-537 282.88,-537 282.88,-569"/>
<text xml:space="preserve" text-anchor="start" x="190.12" y="-555.5" font-family="Helvetica,sans-Serif" font-size="10.00">Fiea::Engine::Tests</text>
<text xml:space="preserve" text-anchor="middle" x="232.5" y="-543.5" font-family="Helvetica,sans-Serif" font-size="10.00">::TEST_CLASS</text>
</a>
</g>
</g>
<!-- Node1&#45;&gt;Node14 -->
<g id="edge31_Node000001_Node000014" class="edge">
<title>Node1&#45;&gt;Node14</title>
<g id="a_edge31_Node000001_Node000014"><a xlink:title=" ">
<path fill="none" stroke="#63b8ff" d="M745.21,-547.26C735.45,-549.64 725.39,-551.7 715.75,-553 558.94,-574.23 370.82,-564.11 283.08,-557.36"/>
<polygon fill="#63b8ff" stroke="#63b8ff" points="745.8,-550.73 754.6,-544.84 744.05,-543.95 745.8,-550.73"/>
</a>
</g>
</g>
<!-- Node16 -->
<g id="Node000016" class="node">
<title>Node16</title>
<g id="a_Node000016"><a xlink:href="class_fiea_1_1_engine_1_1_actions_1_1_action_add_datum.html#a5f4cbb307e5114e6df91fe55e09ba3b1" target="_top" xlink:title=" ">
<polygon fill="white" stroke="#666666" points="691.75,-544 548.25,-544 548.25,-512 691.75,-512 691.75,-544"/>
<text xml:space="preserve" text-anchor="start" x="556.25" y="-530.5" font-family="Helvetica,sans-Serif" font-size="10.00">Fiea::Engine::Actions</text>
<text xml:space="preserve" text-anchor="middle" x="620" y="-518.5" font-family="Helvetica,sans-Serif" font-size="10.00">::ActionAddDatum::InitAction</text>
</a>
</g>
</g>
<!-- Node1&#45;&gt;Node16 -->
<g id="edge15_Node000001_Node000016" class="edge">
<title>Node1&#45;&gt;Node16</title>
<g id="a_edge15_Node000001_Node000016"><a xlink:title=" ">
<path fill="none" stroke="#63b8ff" d="M740.13,-528C724.54,-528 707.86,-528 692.07,-528"/>
<polygon fill="#63b8ff" stroke="#63b8ff" points="739.74,-531.5 749.74,-528 739.74,-524.5 739.74,-531.5"/>
</a>
</g>
</g>
<!-- Node17 -->
<g id="Node000017" class="node">
<title>Node17</title>
<g id="a_Node000017"><a xlink:href="class_fiea_1_1_engine_1_1_content_1_1_scope.html#a853041a85e32e8b7de723fa3dd9a1d82" target="_top" xlink:title="Checks if this Scope is an ancestor of the specified descendent Scope.">
<polygon fill="white" stroke="#666666" points="676.75,-494 563.25,-494 563.25,-462 676.75,-462 676.75,-494"/>
<text xml:space="preserve" text-anchor="start" x="571.25" y="-480.5" font-family="Helvetica,sans-Serif" font-size="10.00">Fiea::Engine::Content</text>
<text xml:space="preserve" text-anchor="middle" x="620" y="-468.5" font-family="Helvetica,sans-Serif" font-size="10.00">::Scope::IsAncestorOf</text>
</a>
</g>
</g>
<!-- Node1&#45;&gt;Node17 -->
<g id="edge16_Node000001_Node000017" class="edge">
<title>Node1&#45;&gt;Node17</title>
<g id="a_edge16_Node000001_Node000017"><a xlink:title=" ">
<path fill="none" stroke="#63b8ff" d="M740.45,-509.72C732.14,-507.44 723.75,-505.16 715.75,-503 703.27,-499.63 689.84,-496.06 677.14,-492.7"/>
<polygon fill="#63b8ff" stroke="#63b8ff" points="739.26,-513.02 749.83,-512.3 741.11,-506.27 739.26,-513.02"/>
</a>
</g>
</g>
<!-- Node19 -->
<g id="Node000019" class="node">
<title>Node19</title>
<g id="a_Node000019"><a xlink:href="class_fiea_1_1_engine_1_1_actions_1_1_action_add_datum.html#a65a23409f0bcced84f44bbc4a8935553" target="_top" xlink:title=" ">
<polygon fill="white" stroke="#666666" points="694,-444 546,-444 546,-412 694,-412 694,-444"/>
<text xml:space="preserve" text-anchor="start" x="554" y="-430.5" font-family="Helvetica,sans-Serif" font-size="10.00">Fiea::Engine::Actions</text>
<text xml:space="preserve" text-anchor="middle" x="620" y="-418.5" font-family="Helvetica,sans-Serif" font-size="10.00">::ActionAddDatum::RunAction</text>
</a>
</g>
</g>
<!-- Node1&#45;&gt;Node19 -->
<g id="edge20_Node000001_Node000019" class="edge">
<title>Node1&#45;&gt;Node19</title>
<g id="a_edge20_Node000001_Node000019"><a xlink:title=" ">
<path fill="none" stroke="#63b8ff" d="M783.11,-503.83C765.93,-487.3 741.2,-466.07 715.75,-453 708.94,-449.5 701.6,-446.46 694.12,-443.82"/>
<polygon fill="#63b8ff" stroke="#63b8ff" points="780.25,-505.93 789.83,-510.46 785.16,-500.95 780.25,-505.93"/>
</a>
</g>
</g>
<!-- Node20 -->
<g id="Node000020" class="node">
<title>Node20</title>
<g id="a_Node000020"><a xlink:href="class_fiea_1_1_engine_1_1_content_1_1_scope.html#ae21ea7cc60b24915a0aac3b0d0f6005c" target="_top" xlink:title=" ">
<polygon fill="white" stroke="#666666" points="675.62,-272 564.38,-272 564.38,-240 675.62,-240 675.62,-272"/>
<text xml:space="preserve" text-anchor="start" x="572.38" y="-258.5" font-family="Helvetica,sans-Serif" font-size="10.00">Fiea::Engine::Content</text>
<text xml:space="preserve" text-anchor="middle" x="620" y="-246.5" font-family="Helvetica,sans-Serif" font-size="10.00">::Scope::Search</text>
</a>
</g>
</g>
<!-- Node1&#45;&gt;Node20 -->
<g id="edge21_Node000001_Node000020" class="edge">
<title>Node1&#45;&gt;Node20</title>
<g id="a_edge21_Node000001_Node000020"><a xlink:title=" ">
<path fill="none" stroke="#63b8ff" d="M788.92,-502.38C751.28,-447.16 663.4,-318.21 632.22,-272.46"/>
<polygon fill="#63b8ff" stroke="#63b8ff" points="785.96,-504.26 794.48,-510.55 791.74,-500.31 785.96,-504.26"/>
</a>
</g>
</g>
<!-- Node3 -->
<g id="Node000003" class="node">
<title>Node3</title>
<g id="a_Node000003"><a xlink:href="class_fiea_1_1_engine_1_1_content_1_1_scope_writer.html#a0a79e65b8a84d1a7275153c32e4d499a" target="_top" xlink:title=" ">
<polygon fill="white" stroke="#666666" points="488.25,-820 333.5,-820 333.5,-788 488.25,-788 488.25,-820"/>
<text xml:space="preserve" text-anchor="start" x="341.5" y="-806.5" font-family="Helvetica,sans-Serif" font-size="10.00">Fiea::Engine::Content</text>
<text xml:space="preserve" text-anchor="middle" x="410.88" y="-794.5" font-family="Helvetica,sans-Serif" font-size="10.00">::ScopeWriter::AddActionObject</text>
</a>
</g>
</g>
<!-- Node2&#45;&gt;Node3 -->
<g id="edge2_Node000002_Node000003" class="edge">
<title>Node2&#45;&gt;Node3</title>
<g id="a_edge2_Node000002_Node000003"><a xlink:title=" ">
<path fill="none" stroke="#63b8ff" d="M535.53,-775.94C518.55,-779.79 500.83,-783.81 484.28,-787.57"/>
<polygon fill="#63b8ff" stroke="#63b8ff" points="536.1,-779.4 545.08,-773.77 534.56,-772.57 536.1,-779.4"/>
</a>
</g>
</g>
<!-- Node4 -->
<g id="Node000004" class="node">
<title>Node4</title>
<g id="a_Node000004"><a xlink:href="class_fiea_1_1_engine_1_1_content_1_1_action_handler.html#a392af20cfeb37d539b88183bc9672f7a" target="_top" xlink:title=" ">
<polygon fill="white" stroke="#666666" points="297.5,-820 167.5,-820 167.5,-788 297.5,-788 297.5,-820"/>
<text xml:space="preserve" text-anchor="start" x="175.5" y="-806.5" font-family="Helvetica,sans-Serif" font-size="10.00">Fiea::Engine::Content</text>
<text xml:space="preserve" text-anchor="middle" x="232.5" y="-794.5" font-family="Helvetica,sans-Serif" font-size="10.00">::ActionHandler::EnterKey</text>
</a>
</g>
</g>
<!-- Node3&#45;&gt;Node4 -->
<g id="edge3_Node000003_Node000004" class="edge">
<title>Node3&#45;&gt;Node4</title>
<g id="a_edge3_Node000003_Node000004"><a xlink:title=" ">
<path fill="none" stroke="#63b8ff" d="M321.73,-804C313.72,-804 305.71,-804 297.97,-804"/>
<polygon fill="#63b8ff" stroke="#63b8ff" points="321.51,-807.5 331.51,-804 321.51,-800.5 321.51,-807.5"/>
</a>
</g>
</g>
<!-- Node6 -->
<g id="Node000006" class="node">
<title>Node6</title>
<g id="a_Node000006"><a xlink:href="class_fiea_1_1_engine_1_1_content_1_1_scope.html#abb1ebfa662badfce689226c18a8bf02c" target="_top" xlink:title="Copy assignment operator.">
<polygon fill="white" stroke="#666666" points="466.5,-770 355.25,-770 355.25,-738 466.5,-738 466.5,-770"/>
<text xml:space="preserve" text-anchor="start" x="363.25" y="-756.5" font-family="Helvetica,sans-Serif" font-size="10.00">Fiea::Engine::Content</text>
<text xml:space="preserve" text-anchor="middle" x="410.88" y="-744.5" font-family="Helvetica,sans-Serif" font-size="10.00">::Scope::operator=</text>
</a>
</g>
</g>
<!-- Node5&#45;&gt;Node6 -->
<g id="edge5_Node000005_Node000006" class="edge">
<title>Node5&#45;&gt;Node6</title>
<g id="a_edge5_Node000005_Node000006"><a xlink:title=" ">
<path fill="none" stroke="#63b8ff" d="M581.4,-682.02C555.71,-696.52 520.59,-715.29 488.25,-729 481.19,-731.99 473.63,-734.86 466.12,-737.5"/>
<polygon fill="#63b8ff" stroke="#63b8ff" points="582.84,-685.23 589.79,-677.24 579.37,-679.15 582.84,-685.23"/>
</a>
</g>
</g>
<!-- Node13 -->
<g id="Node000013" class="node">
<title>Node13</title>
<g id="a_Node000013"><a xlink:href="class_fiea_1_1_engine_1_1_content_1_1_scope.html#af8a79b26cb0104b5def2814917edcdf2" target="_top" xlink:title="Move assignment operator.">
<polygon fill="white" stroke="#666666" points="466.5,-720 355.25,-720 355.25,-688 466.5,-688 466.5,-720"/>
<text xml:space="preserve" text-anchor="start" x="363.25" y="-706.5" font-family="Helvetica,sans-Serif" font-size="10.00">Fiea::Engine::Content</text>
<text xml:space="preserve" text-anchor="middle" x="410.88" y="-694.5" font-family="Helvetica,sans-Serif" font-size="10.00">::Scope::operator=</text>
</a>
</g>
</g>
<!-- Node5&#45;&gt;Node13 -->
<g id="edge12_Node000005_Node000013" class="edge">
<title>Node5&#45;&gt;Node13</title>
<g id="a_edge12_Node000005_Node000013"><a xlink:title=" ">
<path fill="none" stroke="#63b8ff" d="M552.82,-674.06C525.06,-679.96 493.16,-686.73 466.73,-692.35"/>
<polygon fill="#63b8ff" stroke="#63b8ff" points="553.5,-677.49 562.56,-671.99 552.05,-670.64 553.5,-677.49"/>
</a>
</g>
</g>
<!-- Node5&#45;&gt;Node14 -->
<g id="edge13_Node000005_Node000014" class="edge">
<title>Node5&#45;&gt;Node14</title>
<g id="a_edge13_Node000005_Node000014"><a xlink:title=" ">
<path fill="none" stroke="#63b8ff" d="M552.87,-667.34C493.19,-671.28 404.17,-670.38 333.5,-641 296.13,-625.46 263.12,-590.04 245.98,-569.19"/>
<polygon fill="#63b8ff" stroke="#63b8ff" points="552.8,-670.85 562.52,-666.63 552.29,-663.87 552.8,-670.85"/>
</a>
</g>
</g>
<!-- Node15 -->
<g id="Node000015" class="node">
<title>Node15</title>
<g id="a_Node000015"><a xlink:href="class_fiea_1_1_engine_1_1_content_1_1_scope.html#aa5eadd2f68d579fd4ba66f1d086be3e9" target="_top" xlink:title="Destructor. Clears the Scope.">
<polygon fill="white" stroke="#666666" points="466.5,-632 355.25,-632 355.25,-600 466.5,-600 466.5,-632"/>
<text xml:space="preserve" text-anchor="start" x="363.25" y="-618.5" font-family="Helvetica,sans-Serif" font-size="10.00">Fiea::Engine::Content</text>
<text xml:space="preserve" text-anchor="middle" x="410.88" y="-606.5" font-family="Helvetica,sans-Serif" font-size="10.00">::Scope::~Scope</text>
</a>
</g>
</g>
<!-- Node5&#45;&gt;Node15 -->
<g id="edge14_Node000005_Node000015" class="edge">
<title>Node5&#45;&gt;Node15</title>
<g id="a_edge14_Node000005_Node000015"><a xlink:title=" ">
<path fill="none" stroke="#63b8ff" d="M552.82,-645.94C525.06,-640.04 493.16,-633.27 466.73,-627.65"/>
<polygon fill="#63b8ff" stroke="#63b8ff" points="552.05,-649.36 562.56,-648.01 553.5,-642.51 552.05,-649.36"/>
</a>
</g>
</g>
<!-- Node7 -->
<g id="Node000007" class="node">
<title>Node7</title>
<g id="a_Node000007"><a xlink:href="class_fiea_1_1_engine_1_1_content_1_1_attributed.html#a210ac6177723b6ef8dd257ae52268305" target="_top" xlink:title="Move assignment operator.">
<polygon fill="white" stroke="#666666" points="288.12,-770 176.88,-770 176.88,-738 288.12,-738 288.12,-770"/>
<text xml:space="preserve" text-anchor="start" x="184.88" y="-756.5" font-family="Helvetica,sans-Serif" font-size="10.00">Fiea::Engine::Content</text>
<text xml:space="preserve" text-anchor="middle" x="232.5" y="-744.5" font-family="Helvetica,sans-Serif" font-size="10.00">::Attributed::operator=</text>
</a>
</g>
</g>
<!-- Node6&#45;&gt;Node7 -->
<g id="edge6_Node000006_Node000007" class="edge">
<title>Node6&#45;&gt;Node7</title>
<g id="a_edge6_Node000006_Node000007"><a xlink:title=" ">
<path fill="none" stroke="#63b8ff" d="M343.64,-754C325.51,-754 306.05,-754 288.61,-754"/>
<polygon fill="#63b8ff" stroke="#63b8ff" points="343.52,-757.5 353.52,-754 343.52,-750.5 343.52,-757.5"/>
</a>
</g>
</g>
<!-- Node8 -->
<g id="Node000008" class="node">
<title>Node8</title>
<g id="a_Node000008"><a xlink:href="class_fiea_1_1_engine_1_1_content_1_1_attributed.html#ad00b7ac2fa53d92d617e235da1f83055" target="_top" xlink:title="Copy assignment operator.">
<polygon fill="white" stroke="#666666" points="288.12,-720 176.88,-720 176.88,-688 288.12,-688 288.12,-720"/>
<text xml:space="preserve" text-anchor="start" x="184.88" y="-706.5" font-family="Helvetica,sans-Serif" font-size="10.00">Fiea::Engine::Content</text>
<text xml:space="preserve" text-anchor="middle" x="232.5" y="-694.5" font-family="Helvetica,sans-Serif" font-size="10.00">::Attributed::operator=</text>
</a>
</g>
</g>
<!-- Node6&#45;&gt;Node8 -->
<g id="edge7_Node000006_Node000008" class="edge">
<title>Node6&#45;&gt;Node8</title>
<g id="a_edge7_Node000006_Node000008"><a xlink:title=" ">
<path fill="none" stroke="#63b8ff" d="M344.16,-735.37C325.88,-730.19 306.21,-724.61 288.61,-719.62"/>
<polygon fill="#63b8ff" stroke="#63b8ff" points="343,-738.68 353.58,-738.04 344.91,-731.95 343,-738.68"/>
</a>
</g>
</g>
<!-- Node9 -->
<g id="Node000009" class="node">
<title>Node9</title>
<g id="a_Node000009"><a xlink:href="class_fiea_1_1_engine_1_1_actions_1_1_action.html#ad7a0a26c4f04657e19ae73eb11cbdd14" target="_top" xlink:title=" ">
<polygon fill="white" stroke="#666666" points="120.62,-795 10.88,-795 10.88,-763 120.62,-763 120.62,-795"/>
<text xml:space="preserve" text-anchor="start" x="18.88" y="-781.5" font-family="Helvetica,sans-Serif" font-size="10.00">Fiea::Engine::Actions</text>
<text xml:space="preserve" text-anchor="middle" x="65.75" y="-769.5" font-family="Helvetica,sans-Serif" font-size="10.00">::Action::operator=</text>
</a>
</g>
</g>
<!-- Node8&#45;&gt;Node9 -->
<g id="edge8_Node000008_Node000009" class="edge">
<title>Node8&#45;&gt;Node9</title>
<g id="a_edge8_Node000008_Node000009"><a xlink:title=" ">
<path fill="none" stroke="#63b8ff" d="M175.18,-725.12C172.56,-726.38 169.99,-727.67 167.5,-729 150.31,-738.16 148.71,-744.87 131.5,-754 125.75,-757.05 119.55,-759.92 113.34,-762.56"/>
<polygon fill="#63b8ff" stroke="#63b8ff" points="176.41,-728.41 184.08,-721.1 173.53,-722.03 176.41,-728.41"/>
</a>
</g>
</g>
<!-- Node10 -->
<g id="Node000010" class="node">
<title>Node10</title>
<g id="a_Node000010"><a xlink:href="class_fiea_1_1_engine_1_1_actions_1_1_action.html#a213b522a45471ddf0f7540c927bb1c5d" target="_top" xlink:title=" ">
<polygon fill="white" stroke="#666666" points="120.62,-745 10.88,-745 10.88,-713 120.62,-713 120.62,-745"/>
<text xml:space="preserve" text-anchor="start" x="18.88" y="-731.5" font-family="Helvetica,sans-Serif" font-size="10.00">Fiea::Engine::Actions</text>
<text xml:space="preserve" text-anchor="middle" x="65.75" y="-719.5" font-family="Helvetica,sans-Serif" font-size="10.00">::Action::operator=</text>
</a>
</g>
</g>
<!-- Node8&#45;&gt;Node10 -->
<g id="edge9_Node000008_Node000010" class="edge">
<title>Node8&#45;&gt;Node10</title>
<g id="a_edge9_Node000008_Node000010"><a xlink:title=" ">
<path fill="none" stroke="#63b8ff" d="M165.54,-714.01C150.79,-716.25 135.31,-718.6 121.09,-720.75"/>
<polygon fill="#63b8ff" stroke="#63b8ff" points="165.78,-717.51 175.14,-712.55 164.73,-710.59 165.78,-717.51"/>
</a>
</g>
</g>
<!-- Node11 -->
<g id="Node000011" class="node">
<title>Node11</title>
<g id="a_Node000011"><a xlink:href="class_fiea_1_1_engine_1_1_game_object.html#a71dfc1fae65a0519cd631b680e40b1b9" target="_top" xlink:title=" ">
<polygon fill="white" stroke="#666666" points="131.5,-695 0,-695 0,-663 131.5,-663 131.5,-695"/>
<text xml:space="preserve" text-anchor="start" x="8" y="-681.5" font-family="Helvetica,sans-Serif" font-size="10.00">Fiea::Engine::GameObject</text>
<text xml:space="preserve" text-anchor="middle" x="65.75" y="-669.5" font-family="Helvetica,sans-Serif" font-size="10.00">::operator=</text>
</a>
</g>
</g>
<!-- Node8&#45;&gt;Node11 -->
<g id="edge10_Node000008_Node000011" class="edge">
<title>Node8&#45;&gt;Node11</title>
<g id="a_edge10_Node000008_Node000011"><a xlink:title=" ">
<path fill="none" stroke="#63b8ff" d="M165.35,-693.96C154.34,-692.29 142.93,-690.56 131.94,-688.89"/>
<polygon fill="#63b8ff" stroke="#63b8ff" points="164.73,-697.41 175.14,-695.45 165.78,-690.49 164.73,-697.41"/>
</a>
</g>
</g>
<!-- Node12 -->
<g id="Node000012" class="node">
<title>Node12</title>
<g id="a_Node000012"><a xlink:href="class_fiea_1_1_engine_1_1_game_object.html#aeba25685ae5ae7ca60c620e14b7efc10" target="_top" xlink:title=" ">
<polygon fill="white" stroke="#666666" points="131.5,-645 0,-645 0,-613 131.5,-613 131.5,-645"/>
<text xml:space="preserve" text-anchor="start" x="8" y="-631.5" font-family="Helvetica,sans-Serif" font-size="10.00">Fiea::Engine::GameObject</text>
<text xml:space="preserve" text-anchor="middle" x="65.75" y="-619.5" font-family="Helvetica,sans-Serif" font-size="10.00">::operator=</text>
</a>
</g>
</g>
<!-- Node8&#45;&gt;Node12 -->
<g id="edge11_Node000008_Node000012" class="edge">
<title>Node8&#45;&gt;Node12</title>
<g id="a_edge11_Node000008_Node000012"><a xlink:title=" ">
<path fill="none" stroke="#63b8ff" d="M190.65,-682.47C172.69,-673.3 151.24,-662.72 131.5,-654 124.89,-651.08 117.82,-648.15 110.87,-645.39"/>
<polygon fill="#63b8ff" stroke="#63b8ff" points="188.94,-685.53 199.44,-687 192.15,-679.31 188.94,-685.53"/>
</a>
</g>
</g>
<!-- Node17&#45;&gt;Node14 -->
<g id="edge19_Node000017_Node000014" class="edge">
<title>Node17&#45;&gt;Node14</title>
<g id="a_edge19_Node000017_Node000014"><a xlink:title=" ">
<path fill="none" stroke="#63b8ff" d="M552.07,-495.09C542.7,-497.65 533.21,-500.33 524.25,-503 508.09,-507.82 504.65,-511.07 488.25,-515 418.02,-531.81 335.01,-542.53 283.3,-548.16"/>
<polygon fill="#63b8ff" stroke="#63b8ff" points="552.77,-498.53 561.51,-492.54 550.94,-491.77 552.77,-498.53"/>
</a>
</g>
</g>
<!-- Node18 -->
<g id="Node000018" class="node">
<title>Node18</title>
<g id="a_Node000018"><a xlink:href="class_fiea_1_1_engine_1_1_content_1_1_scope.html#a8f7dfeddfe92368a8d160ed2b805640f" target="_top" xlink:title="Checks if this Scope is a descendent of the specified ancestor Scope.">
<polygon fill="white" stroke="#666666" points="474.38,-506 347.38,-506 347.38,-474 474.38,-474 474.38,-506"/>
<text xml:space="preserve" text-anchor="start" x="355.38" y="-492.5" font-family="Helvetica,sans-Serif" font-size="10.00">Fiea::Engine::Content</text>
<text xml:space="preserve" text-anchor="middle" x="410.88" y="-480.5" font-family="Helvetica,sans-Serif" font-size="10.00">::Scope::IsDescendentOf</text>
</a>
</g>
</g>
<!-- Node17&#45;&gt;Node18 -->
<g id="edge17_Node000017_Node000018" class="edge">
<title>Node17&#45;&gt;Node18</title>
<g id="a_edge17_Node000017_Node000018"><a xlink:title=" ">
<path fill="none" stroke="#63b8ff" d="M551.46,-481.91C526.71,-483.35 498.84,-484.96 474.54,-486.37"/>
<polygon fill="#63b8ff" stroke="#63b8ff" points="551.66,-485.41 561.44,-481.33 551.25,-478.42 551.66,-485.41"/>
</a>
</g>
</g>
<!-- Node18&#45;&gt;Node14 -->
<g id="edge18_Node000018_Node000014" class="edge">
<title>Node18&#45;&gt;Node14</title>
<g id="a_edge18_Node000018_Node000014"><a xlink:title=" ">
<path fill="none" stroke="#63b8ff" d="M353.31,-510.2C329.46,-518.73 302.04,-528.52 279.46,-536.58"/>
<polygon fill="#63b8ff" stroke="#63b8ff" points="354.33,-513.56 362.57,-506.9 351.98,-506.96 354.33,-513.56"/>
</a>
</g>
</g>
<!-- Node21 -->
<g id="Node000021" class="node">
<title>Node21</title>
<g id="a_Node000021"><a xlink:href="class_fiea_1_1_engine_1_1_actions_1_1_action_condition.html#af38dd920cf58d8232bf86142c944fa99" target="_top" xlink:title=" ">
<polygon fill="white" stroke="#666666" points="480,-456 341.75,-456 341.75,-424 480,-424 480,-456"/>
<text xml:space="preserve" text-anchor="start" x="349.75" y="-442.5" font-family="Helvetica,sans-Serif" font-size="10.00">Fiea::Engine::Actions</text>
<text xml:space="preserve" text-anchor="middle" x="410.88" y="-430.5" font-family="Helvetica,sans-Serif" font-size="10.00">::ActionCondition::InitAction</text>
</a>
</g>
</g>
<!-- Node20&#45;&gt;Node21 -->
<g id="edge22_Node000020_Node000021" class="edge">
<title>Node20&#45;&gt;Node21</title>
<g id="a_edge22_Node000020_Node000021"><a xlink:title=" ">
<path fill="none" stroke="#63b8ff" d="M604.42,-281.6C583.22,-316.63 540.62,-379.21 488.25,-415 483.53,-418.23 478.36,-421.06 473.01,-423.55"/>
<polygon fill="#63b8ff" stroke="#63b8ff" points="607.2,-283.77 609.3,-273.39 601.18,-280.2 607.2,-283.77"/>
</a>
</g>
</g>
<!-- Node22 -->
<g id="Node000022" class="node">
<title>Node22</title>
<g id="a_Node000022"><a xlink:href="class_fiea_1_1_engine_1_1_actions_1_1_action_preamble.html#a25e78fc4fc7a8d53091a8330b02759e0" target="_top" xlink:title=" ">
<polygon fill="white" stroke="#666666" points="480,-406 341.75,-406 341.75,-374 480,-374 480,-406"/>
<text xml:space="preserve" text-anchor="start" x="349.75" y="-392.5" font-family="Helvetica,sans-Serif" font-size="10.00">Fiea::Engine::Actions</text>
<text xml:space="preserve" text-anchor="middle" x="410.88" y="-380.5" font-family="Helvetica,sans-Serif" font-size="10.00">::ActionPreamble::InitAction</text>
</a>
</g>
</g>
<!-- Node20&#45;&gt;Node22 -->
<g id="edge23_Node000020_Node000022" class="edge">
<title>Node20&#45;&gt;Node22</title>
<g id="a_edge23_Node000020_Node000022"><a xlink:title=" ">
<path fill="none" stroke="#63b8ff" d="M595.55,-280.36C570.87,-304.78 529.88,-341.95 488.25,-365 482.51,-368.18 476.31,-371.03 470,-373.57"/>
<polygon fill="#63b8ff" stroke="#63b8ff" points="597.93,-282.93 602.51,-273.38 592.97,-277.99 597.93,-282.93"/>
</a>
</g>
</g>
<!-- Node23 -->
<g id="Node000023" class="node">
<title>Node23</title>
<g id="a_Node000023"><a xlink:href="class_fiea_1_1_engine_1_1_actions_1_1_action_condition.html#a78fd346e5e99d3bd4523da1257b65c2c" target="_top" xlink:title=" ">
<polygon fill="white" stroke="#666666" points="482.25,-356 339.5,-356 339.5,-324 482.25,-324 482.25,-356"/>
<text xml:space="preserve" text-anchor="start" x="347.5" y="-342.5" font-family="Helvetica,sans-Serif" font-size="10.00">Fiea::Engine::Actions</text>
<text xml:space="preserve" text-anchor="middle" x="410.88" y="-330.5" font-family="Helvetica,sans-Serif" font-size="10.00">::ActionCondition::RunAction</text>
</a>
</g>
</g>
<!-- Node20&#45;&gt;Node23 -->
<g id="edge24_Node000020_Node000023" class="edge">
<title>Node20&#45;&gt;Node23</title>
<g id="a_edge24_Node000020_Node000023"><a xlink:title=" ">
<path fill="none" stroke="#63b8ff" d="M574.99,-277.29C549.86,-289.08 517.61,-303.61 488.25,-315 480.71,-317.93 472.66,-320.81 464.73,-323.52"/>
<polygon fill="#63b8ff" stroke="#63b8ff" points="576.37,-280.5 583.92,-273.07 573.38,-274.17 576.37,-280.5"/>
</a>
</g>
</g>
<!-- Node24 -->
<g id="Node000024" class="node">
<title>Node24</title>
<g id="a_Node000024"><a xlink:href="class_fiea_1_1_engine_1_1_actions_1_1_action_conditional_increment.html#a4cb7636a1237acda5ef08f94cb41ae48" target="_top" xlink:title=" ">
<polygon fill="white" stroke="#666666" points="481.88,-306 339.88,-306 339.88,-262 481.88,-262 481.88,-306"/>
<text xml:space="preserve" text-anchor="start" x="347.88" y="-292.5" font-family="Helvetica,sans-Serif" font-size="10.00">Fiea::Engine::Actions</text>
<text xml:space="preserve" text-anchor="start" x="347.88" y="-280.5" font-family="Helvetica,sans-Serif" font-size="10.00">::ActionConditionalIncrement</text>
<text xml:space="preserve" text-anchor="middle" x="410.88" y="-268.5" font-family="Helvetica,sans-Serif" font-size="10.00">::RunAction</text>
</a>
</g>
</g>
<!-- Node20&#45;&gt;Node24 -->
<g id="edge25_Node000020_Node000024" class="edge">
<title>Node20&#45;&gt;Node24</title>
<g id="a_edge25_Node000020_Node000024"><a xlink:title=" ">
<path fill="none" stroke="#63b8ff" d="M552.89,-264.94C530.4,-267.98 505.18,-271.39 482.36,-274.47"/>
<polygon fill="#63b8ff" stroke="#63b8ff" points="553.1,-268.44 562.54,-263.63 552.16,-261.5 553.1,-268.44"/>
</a>
</g>
</g>
<!-- Node25 -->
<g id="Node000025" class="node">
<title>Node25</title>
<g id="a_Node000025"><a xlink:href="class_fiea_1_1_engine_1_1_actions_1_1_action_decrement.html#a1ec17d56aee3e3172c0b983a839a60ee" target="_top" xlink:title=" ">
<polygon fill="white" stroke="#666666" points="485.62,-244 336.12,-244 336.12,-212 485.62,-212 485.62,-244"/>
<text xml:space="preserve" text-anchor="start" x="344.12" y="-230.5" font-family="Helvetica,sans-Serif" font-size="10.00">Fiea::Engine::Actions</text>
<text xml:space="preserve" text-anchor="middle" x="410.88" y="-218.5" font-family="Helvetica,sans-Serif" font-size="10.00">::ActionDecrement::RunAction</text>
</a>
</g>
</g>
<!-- Node20&#45;&gt;Node25 -->
<g id="edge26_Node000020_Node000025" class="edge">
<title>Node20&#45;&gt;Node25</title>
<g id="a_edge26_Node000020_Node000025"><a xlink:title=" ">
<path fill="none" stroke="#63b8ff" d="M552.8,-247.05C531.46,-244.17 507.68,-240.95 485.82,-238"/>
<polygon fill="#63b8ff" stroke="#63b8ff" points="552.16,-250.5 562.54,-248.37 553.1,-243.56 552.16,-250.5"/>
</a>
</g>
</g>
<!-- Node26 -->
<g id="Node000026" class="node">
<title>Node26</title>
<g id="a_Node000026"><a xlink:href="class_fiea_1_1_engine_1_1_actions_1_1_action_increment.html#a21f75108814dbcf084c7bebd98c84468" target="_top" xlink:title=" ">
<polygon fill="white" stroke="#666666" points="483.38,-194 338.38,-194 338.38,-162 483.38,-162 483.38,-194"/>
<text xml:space="preserve" text-anchor="start" x="346.38" y="-180.5" font-family="Helvetica,sans-Serif" font-size="10.00">Fiea::Engine::Actions</text>
<text xml:space="preserve" text-anchor="middle" x="410.88" y="-168.5" font-family="Helvetica,sans-Serif" font-size="10.00">::ActionIncrement::RunAction</text>
</a>
</g>
</g>
<!-- Node20&#45;&gt;Node26 -->
<g id="edge27_Node000020_Node000026" class="edge">
<title>Node20&#45;&gt;Node26</title>
<g id="a_edge27_Node000020_Node000026"><a xlink:title=" ">
<path fill="none" stroke="#63b8ff" d="M569.93,-235.18C545.53,-225.06 515.5,-212.97 488.25,-203 480.39,-200.12 472.02,-197.22 463.81,-194.47"/>
<polygon fill="#63b8ff" stroke="#63b8ff" points="568.39,-238.33 578.97,-238.94 571.09,-231.87 568.39,-238.33"/>
</a>
</g>
</g>
<!-- Node27 -->
<g id="Node000027" class="node">
<title>Node27</title>
<g id="a_Node000027"><a xlink:href="class_fiea_1_1_engine_1_1_actions_1_1_action_loop_increment.html#afa069fcd75025f4734e7d1eb9f136a0f" target="_top" xlink:title=" ">
<polygon fill="white" stroke="#666666" points="468,-144 353.75,-144 353.75,-100 468,-100 468,-144"/>
<text xml:space="preserve" text-anchor="start" x="361.75" y="-130.5" font-family="Helvetica,sans-Serif" font-size="10.00">Fiea::Engine::Actions</text>
<text xml:space="preserve" text-anchor="start" x="361.75" y="-118.5" font-family="Helvetica,sans-Serif" font-size="10.00">::ActionLoopIncrement</text>
<text xml:space="preserve" text-anchor="middle" x="410.88" y="-106.5" font-family="Helvetica,sans-Serif" font-size="10.00">::RunAction</text>
</a>
</g>
</g>
<!-- Node20&#45;&gt;Node27 -->
<g id="edge28_Node000020_Node000027" class="edge">
<title>Node20&#45;&gt;Node27</title>
<g id="a_edge28_Node000020_Node000027"><a xlink:title=" ">
<path fill="none" stroke="#63b8ff" d="M593.27,-232.12C567.99,-209.56 527.59,-175.86 488.25,-153 481.94,-149.33 475.11,-145.9 468.23,-142.75"/>
<polygon fill="#63b8ff" stroke="#63b8ff" points="590.67,-234.48 600.43,-238.58 595.36,-229.28 590.67,-234.48"/>
</a>
</g>
</g>
<!-- Node28 -->
<g id="Node000028" class="node">
<title>Node28</title>
<g id="a_Node000028"><a xlink:href="class_fiea_1_1_engine_1_1_actions_1_1_action_output.html#abc49dcc72edd41ab188935c4c13b7301" target="_top" xlink:title=" ">
<polygon fill="white" stroke="#666666" points="476.25,-82 345.5,-82 345.5,-50 476.25,-50 476.25,-82"/>
<text xml:space="preserve" text-anchor="start" x="353.5" y="-68.5" font-family="Helvetica,sans-Serif" font-size="10.00">Fiea::Engine::Actions</text>
<text xml:space="preserve" text-anchor="middle" x="410.88" y="-56.5" font-family="Helvetica,sans-Serif" font-size="10.00">::ActionOutput::RunAction</text>
</a>
</g>
</g>
<!-- Node20&#45;&gt;Node28 -->
<g id="edge29_Node000020_Node000028" class="edge">
<title>Node20&#45;&gt;Node28</title>
<g id="a_edge29_Node000020_Node000028"><a xlink:title=" ">
<path fill="none" stroke="#63b8ff" d="M604.83,-229.7C583.96,-193.39 541.61,-128.18 488.25,-91 483.56,-87.73 478.41,-84.87 473.07,-82.36"/>
<polygon fill="#63b8ff" stroke="#63b8ff" points="601.67,-231.23 609.63,-238.23 607.77,-227.8 601.67,-231.23"/>
</a>
</g>
</g>
<!-- Node29 -->
<g id="Node000029" class="node">
<title>Node29</title>
<g id="a_Node000029"><a xlink:href="class_fiea_1_1_engine_1_1_actions_1_1_action_preamble.html#a0ef97b0c1c472e965f51af89fa9030a5" target="_top" xlink:title=" ">
<polygon fill="white" stroke="#666666" points="482.25,-32 339.5,-32 339.5,0 482.25,0 482.25,-32"/>
<text xml:space="preserve" text-anchor="start" x="347.5" y="-18.5" font-family="Helvetica,sans-Serif" font-size="10.00">Fiea::Engine::Actions</text>
<text xml:space="preserve" text-anchor="middle" x="410.88" y="-6.5" font-family="Helvetica,sans-Serif" font-size="10.00">::ActionPreamble::RunAction</text>
</a>
</g>
</g>
<!-- Node20&#45;&gt;Node29 -->
<g id="edge30_Node000020_Node000029" class="edge">
<title>Node20&#45;&gt;Node29</title>
<g id="a_edge30_Node000020_Node000029"><a xlink:title=" ">
<path fill="none" stroke="#63b8ff" d="M609.63,-228.77C592.61,-183.28 552.33,-91.81 488.25,-41 484.1,-37.71 479.49,-34.84 474.66,-32.35"/>
<polygon fill="#63b8ff" stroke="#63b8ff" points="606.33,-229.92 613.03,-238.13 612.91,-227.53 606.33,-229.92"/>
</a>
</g>
</g>
</g>
</svg>
