<?xml version="1.0" encoding="UTF-8" standalone="no"?>
<!DOCTYPE svg PUBLIC "-//W3C//DTD SVG 1.1//EN"
 "http://www.w3.org/Graphics/SVG/1.1/DTD/svg11.dtd">
<!-- Generated by graphviz version 13.1.0 (20250701.0955)
 -->
<!-- Title: Fiea::Engine::Content::Attributed::operator= Pages: 1 -->
<svg width="709pt" height="108pt"
 viewBox="0.00 0.00 709.00 108.00" xmlns="http://www.w3.org/2000/svg" xmlns:xlink="http://www.w3.org/1999/xlink">
<g id="graph0" class="graph" transform="scale(1 1) rotate(0) translate(4 104)">
<title>Fiea::Engine::Content::Attributed::operator=</title>
<!-- Node1 -->
<g id="Node000001" class="node">
<title>Node1</title>
<g id="a_Node000001"><a xlink:title="Move assignment operator.">
<polygon fill="#999999" stroke="#666666" points="111.25,-57 0,-57 0,-25 111.25,-25 111.25,-57"/>
<text xml:space="preserve" text-anchor="start" x="8" y="-43.5" font-family="Helvetica,sans-Serif" font-size="10.00">Fiea::Engine::Content</text>
<text xml:space="preserve" text-anchor="middle" x="55.62" y="-31.5" font-family="Helvetica,sans-Serif" font-size="10.00">::Attributed::operator=</text>
</a>
</g>
</g>
<!-- Node2 -->
<g id="Node000002" class="node">
<title>Node2</title>
<g id="a_Node000002"><a xlink:href="class_fiea_1_1_engine_1_1_content_1_1_attributed.html#ad1ae014235d9d8b62b36066c94164148" target="_top" xlink:title=" ">
<polygon fill="white" stroke="#666666" points="259.25,-82 147.25,-82 147.25,-50 259.25,-50 259.25,-82"/>
<text xml:space="preserve" text-anchor="start" x="155.25" y="-68.5" font-family="Helvetica,sans-Serif" font-size="10.00">Fiea::Engine::Content</text>
<text xml:space="preserve" text-anchor="middle" x="203.25" y="-56.5" font-family="Helvetica,sans-Serif" font-size="10.00">::Attributed::Attributed</text>
</a>
</g>
</g>
<!-- Node1&#45;&gt;Node2 -->
<g id="edge1_Node000001_Node000002" class="edge">
<title>Node1&#45;&gt;Node2</title>
<g id="a_edge1_Node000001_Node000002"><a xlink:title=" ">
<path fill="none" stroke="#63b8ff" d="M111.68,-50.45C119.56,-51.8 127.74,-53.21 135.82,-54.59"/>
<polygon fill="#63b8ff" stroke="#63b8ff" points="135.18,-58.04 145.63,-56.28 136.36,-51.14 135.18,-58.04"/>
</a>
</g>
</g>
<!-- Node3 -->
<g id="Node000003" class="node">
<title>Node3</title>
<g id="a_Node000003"><a xlink:href="class_fiea_1_1_engine_1_1_content_1_1_scope.html#abb1ebfa662badfce689226c18a8bf02c" target="_top" xlink:title="Copy assignment operator.">
<polygon fill="white" stroke="#666666" points="258.88,-32 147.62,-32 147.62,0 258.88,0 258.88,-32"/>
<text xml:space="preserve" text-anchor="start" x="155.62" y="-18.5" font-family="Helvetica,sans-Serif" font-size="10.00">Fiea::Engine::Content</text>
<text xml:space="preserve" text-anchor="middle" x="203.25" y="-6.5" font-family="Helvetica,sans-Serif" font-size="10.00">::Scope::operator=</text>
</a>
</g>
</g>
<!-- Node1&#45;&gt;Node3 -->
<g id="edge3_Node000001_Node000003" class="edge">
<title>Node1&#45;&gt;Node3</title>
<g id="a_edge3_Node000001_Node000003"><a xlink:title=" ">
<path fill="none" stroke="#63b8ff" d="M111.68,-31.55C119.76,-30.16 128.16,-28.72 136.43,-27.3"/>
<polygon fill="#63b8ff" stroke="#63b8ff" points="136.85,-30.78 146.11,-25.64 135.66,-23.88 136.85,-30.78"/>
</a>
</g>
</g>
<!-- Node2&#45;&gt;Node2 -->
<g id="edge2_Node000002_Node000002" class="edge">
<title>Node2&#45;&gt;Node2</title>
<g id="a_edge2_Node000002_Node000002"><a xlink:title=" ">
<path fill="none" stroke="#63b8ff" d="M176.89,-82.44C171.98,-91.58 180.76,-100 203.25,-100 215.55,-100 223.75,-97.48 227.85,-93.71"/>
<polygon fill="#63b8ff" stroke="#63b8ff" points="231.29,-94.36 229.37,-83.94 224.38,-93.28 231.29,-94.36"/>
</a>
</g>
</g>
<!-- Node4 -->
<g id="Node000004" class="node">
<title>Node4</title>
<g id="a_Node000004"><a xlink:href="class_fiea_1_1_engine_1_1_content_1_1_scope.html#a9d741d7fb95ccb49ee35dd6d9f779f1e" target="_top" xlink:title="Clears all data in the Scope.">
<polygon fill="white" stroke="#666666" points="406.5,-54 295.25,-54 295.25,-22 406.5,-22 406.5,-54"/>
<text xml:space="preserve" text-anchor="start" x="303.25" y="-40.5" font-family="Helvetica,sans-Serif" font-size="10.00">Fiea::Engine::Content</text>
<text xml:space="preserve" text-anchor="middle" x="350.88" y="-28.5" font-family="Helvetica,sans-Serif" font-size="10.00">::Scope::Clear</text>
</a>
</g>
</g>
<!-- Node3&#45;&gt;Node4 -->
<g id="edge4_Node000003_Node000004" class="edge">
<title>Node3&#45;&gt;Node4</title>
<g id="a_edge4_Node000003_Node000004"><a xlink:title=" ">
<path fill="none" stroke="#63b8ff" d="M259.3,-24.32C267.39,-25.54 275.78,-26.81 284.06,-28.06"/>
<polygon fill="#63b8ff" stroke="#63b8ff" points="283.32,-31.48 293.73,-29.52 284.36,-24.56 283.32,-31.48"/>
</a>
</g>
</g>
<!-- Node6 -->
<g id="Node000006" class="node">
<title>Node6</title>
<g id="a_Node000006"><a xlink:href="class_fiea_1_1_engine_1_1_content_1_1_scope.html#a6631343c968c233ab1d9c3e05c3f4fe9" target="_top" xlink:title=" ">
<polygon fill="white" stroke="#666666" points="701,-48 589.75,-48 589.75,-16 701,-16 701,-48"/>
<text xml:space="preserve" text-anchor="start" x="597.75" y="-34.5" font-family="Helvetica,sans-Serif" font-size="10.00">Fiea::Engine::Content</text>
<text xml:space="preserve" text-anchor="middle" x="645.38" y="-22.5" font-family="Helvetica,sans-Serif" font-size="10.00">::Scope::Scope</text>
</a>
</g>
</g>
<!-- Node3&#45;&gt;Node6 -->
<g id="edge9_Node000003_Node000006" class="edge">
<title>Node3&#45;&gt;Node6</title>
<g id="a_edge9_Node000003_Node000006"><a xlink:title=" ">
<path fill="none" stroke="#63b8ff" d="M259.1,-13.9C271.02,-13.52 283.55,-13.19 295.25,-13 344.69,-12.19 357.09,-11.03 406.5,-13 464.63,-15.32 530.56,-20.81 578.24,-25.3"/>
<polygon fill="#63b8ff" stroke="#63b8ff" points="577.86,-28.77 588.14,-26.24 578.52,-21.81 577.86,-28.77"/>
</a>
</g>
</g>
<!-- Node5 -->
<g id="Node000005" class="node">
<title>Node5</title>
<g id="a_Node000005"><a xlink:href="class_fiea_1_1_engine_1_1_content_1_1_scope.html#ac4627f740867a929957ce0647f436e02" target="_top" xlink:title=" ">
<polygon fill="white" stroke="#666666" points="553.75,-92 442.5,-92 442.5,-60 553.75,-60 553.75,-92"/>
<text xml:space="preserve" text-anchor="start" x="450.5" y="-78.5" font-family="Helvetica,sans-Serif" font-size="10.00">Fiea::Engine::Content</text>
<text xml:space="preserve" text-anchor="middle" x="498.12" y="-66.5" font-family="Helvetica,sans-Serif" font-size="10.00">::Scope::GetParent</text>
</a>
</g>
</g>
<!-- Node4&#45;&gt;Node5 -->
<g id="edge5_Node000004_Node000005" class="edge">
<title>Node4&#45;&gt;Node5</title>
<g id="a_edge5_Node000004_Node000005"><a xlink:title=" ">
<path fill="none" stroke="#63b8ff" d="M406.79,-52.37C414.74,-54.45 423,-56.61 431.14,-58.74"/>
<polygon fill="#63b8ff" stroke="#63b8ff" points="430.11,-62.09 440.67,-61.23 431.88,-55.31 430.11,-62.09"/>
</a>
</g>
</g>
<!-- Node4&#45;&gt;Node6 -->
<g id="edge8_Node000004_Node000006" class="edge">
<title>Node4&#45;&gt;Node6</title>
<g id="a_edge8_Node000004_Node000006"><a xlink:title=" ">
<path fill="none" stroke="#63b8ff" d="M406.89,-36.87C455.51,-35.87 526.52,-34.42 578.22,-33.36"/>
<polygon fill="#63b8ff" stroke="#63b8ff" points="578.17,-36.86 588.09,-33.15 578.02,-29.86 578.17,-36.86"/>
</a>
</g>
</g>
<!-- Node5&#45;&gt;Node6 -->
<g id="edge6_Node000005_Node000006" class="edge">
<title>Node5&#45;&gt;Node6</title>
<g id="a_edge6_Node000005_Node000006"><a xlink:title=" ">
<path fill="none" stroke="#63b8ff" d="M553.21,-59.62C561.72,-57.04 570.59,-54.35 579.31,-51.71"/>
<polygon fill="#63b8ff" stroke="#63b8ff" points="580.24,-55.09 588.8,-48.84 578.21,-48.39 580.24,-55.09"/>
</a>
</g>
</g>
<!-- Node6&#45;&gt;Node6 -->
<g id="edge7_Node000006_Node000006" class="edge">
<title>Node6&#45;&gt;Node6</title>
<g id="a_edge7_Node000006_Node000006"><a xlink:title=" ">
<path fill="none" stroke="#63b8ff" d="M619.09,-48.44C614.18,-57.58 622.94,-66 645.38,-66 657.64,-66 665.82,-63.48 669.91,-59.71"/>
<polygon fill="#63b8ff" stroke="#63b8ff" points="673.35,-60.36 671.43,-49.94 666.44,-59.28 673.35,-60.36"/>
</a>
</g>
</g>
</g>
</svg>
