<?xml version="1.0" encoding="UTF-8" standalone="no"?>
<!DOCTYPE svg PUBLIC "-//W3C//DTD SVG 1.1//EN"
 "http://www.w3.org/Graphics/SVG/1.1/DTD/svg11.dtd">
<!-- Generated by graphviz version 13.1.0 (20250701.0955)
 -->
<!-- Title: Fiea::Engine::Content::Datum::SetType Pages: 1 -->
<svg width="897pt" height="632pt"
 viewBox="0.00 0.00 897.00 632.00" xmlns="http://www.w3.org/2000/svg" xmlns:xlink="http://www.w3.org/1999/xlink">
<g id="graph0" class="graph" transform="scale(1 1) rotate(0) translate(4 628)">
<title>Fiea::Engine::Content::Datum::SetType</title>
<!-- Node1 -->
<g id="Node000001" class="node">
<title>Node1</title>
<g id="a_Node000001"><a xlink:title=" ">
<polygon fill="#999999" stroke="#666666" points="889.25,-474 778,-474 778,-442 889.25,-442 889.25,-474"/>
<text xml:space="preserve" text-anchor="start" x="786" y="-460.5" font-family="Helvetica,sans-Serif" font-size="10.00">Fiea::Engine::Content</text>
<text xml:space="preserve" text-anchor="middle" x="833.62" y="-448.5" font-family="Helvetica,sans-Serif" font-size="10.00">::Datum::SetType</text>
</a>
</g>
</g>
<!-- Node2 -->
<g id="Node000002" class="node">
<title>Node2</title>
<g id="a_Node000002"><a xlink:href="class_fiea_1_1_engine_1_1_actions_1_1_action_list.html#a0c04eb0d37827c07bb6745b3a0cac817" target="_top" xlink:title=" ">
<polygon fill="white" stroke="#666666" points="721.38,-624 604.88,-624 604.88,-592 721.38,-592 721.38,-624"/>
<text xml:space="preserve" text-anchor="start" x="612.88" y="-610.5" font-family="Helvetica,sans-Serif" font-size="10.00">Fiea::Engine::Actions</text>
<text xml:space="preserve" text-anchor="middle" x="663.12" y="-598.5" font-family="Helvetica,sans-Serif" font-size="10.00">::ActionList::AddAction</text>
</a>
</g>
</g>
<!-- Node1&#45;&gt;Node2 -->
<g id="edge1_Node000001_Node000002" class="edge">
<title>Node1&#45;&gt;Node2</title>
<g id="a_edge1_Node000001_Node000002"><a xlink:title=" ">
<path fill="none" stroke="#63b8ff" d="M819.97,-484.35C805.09,-512.66 777.8,-557.06 742,-583 735.91,-587.42 729,-591.07 721.87,-594.1"/>
<polygon fill="#63b8ff" stroke="#63b8ff" points="822.95,-486.21 824.37,-475.71 816.71,-483.04 822.95,-486.21"/>
</a>
</g>
</g>
<!-- Node3 -->
<g id="Node000003" class="node">
<title>Node3</title>
<g id="a_Node000003"><a xlink:href="class_fiea_1_1_engine_1_1_content_1_1_scope_writer.html#a138420169c6f0541ec537c660bd4ac67" target="_top" xlink:title=" ">
<polygon fill="white" stroke="#666666" points="736.38,-574 589.88,-574 589.88,-542 736.38,-542 736.38,-574"/>
<text xml:space="preserve" text-anchor="start" x="597.88" y="-560.5" font-family="Helvetica,sans-Serif" font-size="10.00">Fiea::Engine::Content</text>
<text xml:space="preserve" text-anchor="middle" x="663.12" y="-548.5" font-family="Helvetica,sans-Serif" font-size="10.00">::ScopeWriter::AddMatrixType</text>
</a>
</g>
</g>
<!-- Node1&#45;&gt;Node3 -->
<g id="edge2_Node000001_Node000003" class="edge">
<title>Node1&#45;&gt;Node3</title>
<g id="a_edge2_Node000001_Node000003"><a xlink:title=" ">
<path fill="none" stroke="#63b8ff" d="M808.82,-482.06C791.55,-498.36 766.94,-519.34 742,-533 736.15,-536.21 729.82,-539.08 723.38,-541.63"/>
<polygon fill="#63b8ff" stroke="#63b8ff" points="810.82,-484.99 815.59,-475.53 805.96,-479.95 810.82,-484.99"/>
</a>
</g>
</g>
<!-- Node5 -->
<g id="Node000005" class="node">
<title>Node5</title>
<g id="a_Node000005"><a xlink:href="class_fiea_1_1_engine_1_1_content_1_1_scope_writer.html#a028f763e7b7c95ba5d53fb121a832583" target="_top" xlink:title=" ">
<polygon fill="white" stroke="#666666" points="742,-474 584.25,-474 584.25,-442 742,-442 742,-474"/>
<text xml:space="preserve" text-anchor="start" x="592.25" y="-460.5" font-family="Helvetica,sans-Serif" font-size="10.00">Fiea::Engine::Content</text>
<text xml:space="preserve" text-anchor="middle" x="663.12" y="-448.5" font-family="Helvetica,sans-Serif" font-size="10.00">::ScopeWriter::AddPrimitiveType</text>
</a>
</g>
</g>
<!-- Node1&#45;&gt;Node5 -->
<g id="edge4_Node000001_Node000005" class="edge">
<title>Node1&#45;&gt;Node5</title>
<g id="a_edge4_Node000001_Node000005"><a xlink:title=" ">
<path fill="none" stroke="#63b8ff" d="M766.53,-458C758.62,-458 750.49,-458 742.43,-458"/>
<polygon fill="#63b8ff" stroke="#63b8ff" points="766.4,-461.5 776.4,-458 766.4,-454.5 766.4,-461.5"/>
</a>
</g>
</g>
<!-- Node7 -->
<g id="Node000007" class="node">
<title>Node7</title>
<g id="a_Node000007"><a xlink:href="class_fiea_1_1_engine_1_1_content_1_1_scope_writer.html#ab193d237036951e2e814316bbfe9b87b" target="_top" xlink:title=" ">
<polygon fill="white" stroke="#666666" points="736.75,-524 589.5,-524 589.5,-492 736.75,-492 736.75,-524"/>
<text xml:space="preserve" text-anchor="start" x="597.5" y="-510.5" font-family="Helvetica,sans-Serif" font-size="10.00">Fiea::Engine::Content</text>
<text xml:space="preserve" text-anchor="middle" x="663.12" y="-498.5" font-family="Helvetica,sans-Serif" font-size="10.00">::ScopeWriter::AddVectorType</text>
</a>
</g>
</g>
<!-- Node1&#45;&gt;Node7 -->
<g id="edge6_Node000001_Node000007" class="edge">
<title>Node1&#45;&gt;Node7</title>
<g id="a_edge6_Node000001_Node000007"><a xlink:title=" ">
<path fill="none" stroke="#63b8ff" d="M767.23,-477.41C751.53,-482.06 734.91,-486.99 719.71,-491.51"/>
<polygon fill="#63b8ff" stroke="#63b8ff" points="767.88,-480.86 776.47,-474.66 765.88,-474.15 767.88,-480.86"/>
</a>
</g>
</g>
<!-- Node8 -->
<g id="Node000008" class="node">
<title>Node8</title>
<g id="a_Node000008"><a xlink:href="class_fiea_1_1_engine_1_1_content_1_1_scope.html#abf39accc1ce38b12bcbc6884ba0165e3" target="_top" xlink:title="Adopts an existing Scope as a child under the specified key.">
<polygon fill="white" stroke="#666666" points="718.75,-424 607.5,-424 607.5,-392 718.75,-392 718.75,-424"/>
<text xml:space="preserve" text-anchor="start" x="615.5" y="-410.5" font-family="Helvetica,sans-Serif" font-size="10.00">Fiea::Engine::Content</text>
<text xml:space="preserve" text-anchor="middle" x="663.12" y="-398.5" font-family="Helvetica,sans-Serif" font-size="10.00">::Scope::Adopt</text>
</a>
</g>
</g>
<!-- Node1&#45;&gt;Node8 -->
<g id="edge8_Node000001_Node000008" class="edge">
<title>Node1&#45;&gt;Node8</title>
<g id="a_edge8_Node000001_Node000008"><a xlink:title=" ">
<path fill="none" stroke="#63b8ff" d="M767.12,-438.56C751.25,-433.85 734.46,-428.87 719.13,-424.32"/>
<polygon fill="#63b8ff" stroke="#63b8ff" points="765.88,-441.85 776.47,-441.34 767.88,-435.14 765.88,-441.85"/>
</a>
</g>
</g>
<!-- Node10 -->
<g id="Node000010" class="node">
<title>Node10</title>
<g id="a_Node000010"><a xlink:href="class_fiea_1_1_engine_1_1_content_1_1_scope.html#a002f54731a8996f37c4f725d8175ffee" target="_top" xlink:title="Appends a new Scope as a child under the specified key.">
<polygon fill="white" stroke="#666666" points="721.38,-260 604.88,-260 604.88,-228 721.38,-228 721.38,-260"/>
<text xml:space="preserve" text-anchor="start" x="612.88" y="-246.5" font-family="Helvetica,sans-Serif" font-size="10.00">Fiea::Engine::Content</text>
<text xml:space="preserve" text-anchor="middle" x="663.12" y="-234.5" font-family="Helvetica,sans-Serif" font-size="10.00">::Scope::AppendScope</text>
</a>
</g>
</g>
<!-- Node1&#45;&gt;Node10 -->
<g id="edge10_Node000001_Node000010" class="edge">
<title>Node1&#45;&gt;Node10</title>
<g id="a_edge10_Node000001_Node000010"><a xlink:title=" ">
<path fill="none" stroke="#63b8ff" d="M812.6,-432.57C777.63,-388.16 706.37,-297.66 677.11,-260.49"/>
<polygon fill="#63b8ff" stroke="#63b8ff" points="809.81,-434.68 818.75,-440.37 815.31,-430.35 809.81,-434.68"/>
</a>
</g>
</g>
<!-- Node24 -->
<g id="Node000024" class="node">
<title>Node24</title>
<g id="a_Node000024"><a xlink:href="namespace_fiea_1_1_engine_1_1_tests.html#a376f9ed8237603ebeb822c9076f2f630" target="_top" xlink:title=" ">
<polygon fill="white" stroke="#666666" points="502.88,-32 402.12,-32 402.12,0 502.88,0 502.88,-32"/>
<text xml:space="preserve" text-anchor="start" x="410.12" y="-18.5" font-family="Helvetica,sans-Serif" font-size="10.00">Fiea::Engine::Tests</text>
<text xml:space="preserve" text-anchor="middle" x="452.5" y="-6.5" font-family="Helvetica,sans-Serif" font-size="10.00">::TEST_CLASS</text>
</a>
</g>
</g>
<!-- Node1&#45;&gt;Node24 -->
<g id="edge29_Node000001_Node000024" class="edge">
<title>Node1&#45;&gt;Node24</title>
<g id="a_edge29_Node000001_Node000024"><a xlink:title=" ">
<path fill="none" stroke="#63b8ff" d="M826.68,-430.74C815.62,-384.25 788.68,-287.96 742,-219 676.45,-122.17 650.84,-97.11 548.25,-41 534.37,-33.41 518.07,-28.03 502.94,-24.26"/>
<polygon fill="#63b8ff" stroke="#63b8ff" points="823.21,-431.27 828.87,-440.23 830.03,-429.7 823.21,-431.27"/>
</a>
</g>
</g>
<!-- Node4 -->
<g id="Node000004" class="node">
<title>Node4</title>
<g id="a_Node000004"><a xlink:href="class_fiea_1_1_engine_1_1_content_1_1_special_primitives_handler.html#a5ff6f656b92d166947bbd3a7c73f9610" target="_top" xlink:title=" ">
<polygon fill="white" stroke="#666666" points="518.25,-564 386.75,-564 386.75,-520 518.25,-520 518.25,-564"/>
<text xml:space="preserve" text-anchor="start" x="394.75" y="-550.5" font-family="Helvetica,sans-Serif" font-size="10.00">Fiea::Engine::Content</text>
<text xml:space="preserve" text-anchor="start" x="394.75" y="-538.5" font-family="Helvetica,sans-Serif" font-size="10.00">::SpecialPrimitivesHandler</text>
<text xml:space="preserve" text-anchor="middle" x="452.5" y="-526.5" font-family="Helvetica,sans-Serif" font-size="10.00">::EnterKey</text>
</a>
</g>
</g>
<!-- Node3&#45;&gt;Node4 -->
<g id="edge3_Node000003_Node000004" class="edge">
<title>Node3&#45;&gt;Node4</title>
<g id="a_edge3_Node000003_Node000004"><a xlink:title=" ">
<path fill="none" stroke="#63b8ff" d="M578.22,-551.57C558.36,-550.04 537.48,-548.44 518.6,-546.99"/>
<polygon fill="#63b8ff" stroke="#63b8ff" points="577.7,-555.04 587.94,-552.31 578.24,-548.06 577.7,-555.04"/>
</a>
</g>
</g>
<!-- Node6 -->
<g id="Node000006" class="node">
<title>Node6</title>
<g id="a_Node000006"><a xlink:href="class_fiea_1_1_engine_1_1_content_1_1_primitive_type_handler.html#a841c5fd5708419c73da86de56d887a2b" target="_top" xlink:title=" ">
<polygon fill="white" stroke="#666666" points="510,-494 395,-494 395,-450 510,-450 510,-494"/>
<text xml:space="preserve" text-anchor="start" x="403" y="-480.5" font-family="Helvetica,sans-Serif" font-size="10.00">Fiea::Engine::Content</text>
<text xml:space="preserve" text-anchor="start" x="403" y="-468.5" font-family="Helvetica,sans-Serif" font-size="10.00">::PrimitiveTypeHandler</text>
<text xml:space="preserve" text-anchor="middle" x="452.5" y="-456.5" font-family="Helvetica,sans-Serif" font-size="10.00">::EnterKey</text>
</a>
</g>
</g>
<!-- Node5&#45;&gt;Node6 -->
<g id="edge5_Node000005_Node000006" class="edge">
<title>Node5&#45;&gt;Node6</title>
<g id="a_edge5_Node000005_Node000006"><a xlink:title=" ">
<path fill="none" stroke="#63b8ff" d="M572.58,-464.01C551.49,-465.42 529.58,-466.89 510.39,-468.18"/>
<polygon fill="#63b8ff" stroke="#63b8ff" points="572.59,-467.52 582.34,-463.35 572.13,-460.53 572.59,-467.52"/>
</a>
</g>
</g>
<!-- Node7&#45;&gt;Node4 -->
<g id="edge7_Node000007_Node000004" class="edge">
<title>Node7&#45;&gt;Node4</title>
<g id="a_edge7_Node000007_Node000004"><a xlink:title=" ">
<path fill="none" stroke="#63b8ff" d="M577.94,-521.72C558.1,-524.95 537.26,-528.35 518.42,-531.42"/>
<polygon fill="#63b8ff" stroke="#63b8ff" points="578.36,-525.2 587.66,-520.14 577.23,-518.29 578.36,-525.2"/>
</a>
</g>
</g>
<!-- Node9 -->
<g id="Node000009" class="node">
<title>Node9</title>
<g id="a_Node000009"><a xlink:href="namespace_fiea_1_1_engine_1_1_tests.html#ad3e53e7e3f072321bc7199970c619c1d" target="_top" xlink:title=" ">
<polygon fill="white" stroke="#666666" points="502.88,-432 402.12,-432 402.12,-400 502.88,-400 502.88,-432"/>
<text xml:space="preserve" text-anchor="start" x="410.12" y="-418.5" font-family="Helvetica,sans-Serif" font-size="10.00">Fiea::Engine::Tests</text>
<text xml:space="preserve" text-anchor="middle" x="452.5" y="-406.5" font-family="Helvetica,sans-Serif" font-size="10.00">::TEST_CLASS</text>
</a>
</g>
</g>
<!-- Node8&#45;&gt;Node9 -->
<g id="edge9_Node000008_Node000009" class="edge">
<title>Node8&#45;&gt;Node9</title>
<g id="a_edge9_Node000008_Node000009"><a xlink:title=" ">
<path fill="none" stroke="#63b8ff" d="M595.8,-410.54C565.78,-411.69 530.9,-413.03 503.18,-414.09"/>
<polygon fill="#63b8ff" stroke="#63b8ff" points="595.67,-414.05 605.53,-410.17 595.4,-407.06 595.67,-414.05"/>
</a>
</g>
</g>
<!-- Node10&#45;&gt;Node9 -->
<g id="edge28_Node000010_Node000009" class="edge">
<title>Node10&#45;&gt;Node9</title>
<g id="a_edge28_Node000010_Node000009"><a xlink:title=" ">
<path fill="none" stroke="#63b8ff" d="M647.74,-270.13C628.91,-301.98 592.98,-355.35 548.25,-386 534.87,-395.17 518.54,-401.65 503.23,-406.18"/>
<polygon fill="#63b8ff" stroke="#63b8ff" points="650.74,-271.94 652.7,-261.53 644.67,-268.44 650.74,-271.94"/>
</a>
</g>
</g>
<!-- Node11 -->
<g id="Node000011" class="node">
<title>Node11</title>
<g id="a_Node000011"><a xlink:href="class_fiea_1_1_engine_1_1_content_1_1_scope_writer.html#aa73231d29c0a0b0bcfbb910e2f913404" target="_top" xlink:title=" ">
<polygon fill="white" stroke="#666666" points="523.5,-294 381.5,-294 381.5,-250 523.5,-250 523.5,-294"/>
<text xml:space="preserve" text-anchor="start" x="389.5" y="-280.5" font-family="Helvetica,sans-Serif" font-size="10.00">Fiea::Engine::Content</text>
<text xml:space="preserve" text-anchor="start" x="389.5" y="-268.5" font-family="Helvetica,sans-Serif" font-size="10.00">::ScopeWriter::AddActionList</text>
<text xml:space="preserve" text-anchor="middle" x="452.5" y="-256.5" font-family="Helvetica,sans-Serif" font-size="10.00">Object</text>
</a>
</g>
</g>
<!-- Node10&#45;&gt;Node11 -->
<g id="edge11_Node000010_Node000011" class="edge">
<title>Node10&#45;&gt;Node11</title>
<g id="a_edge11_Node000010_Node000011"><a xlink:title=" ">
<path fill="none" stroke="#63b8ff" d="M593.17,-253.25C570.92,-256.24 546.23,-259.55 523.88,-262.55"/>
<polygon fill="#63b8ff" stroke="#63b8ff" points="593.62,-256.73 603.06,-251.93 592.69,-249.79 593.62,-256.73"/>
</a>
</g>
</g>
<!-- Node12 -->
<g id="Node000012" class="node">
<title>Node12</title>
<g id="a_Node000012"><a xlink:href="class_fiea_1_1_engine_1_1_content_1_1_scope_writer.html#a0a79e65b8a84d1a7275153c32e4d499a" target="_top" xlink:title=" ">
<polygon fill="white" stroke="#666666" points="320.75,-344 166,-344 166,-312 320.75,-312 320.75,-344"/>
<text xml:space="preserve" text-anchor="start" x="174" y="-330.5" font-family="Helvetica,sans-Serif" font-size="10.00">Fiea::Engine::Content</text>
<text xml:space="preserve" text-anchor="middle" x="243.38" y="-318.5" font-family="Helvetica,sans-Serif" font-size="10.00">::ScopeWriter::AddActionObject</text>
</a>
</g>
</g>
<!-- Node10&#45;&gt;Node12 -->
<g id="edge15_Node000010_Node000012" class="edge">
<title>Node10&#45;&gt;Node12</title>
<g id="a_edge15_Node000010_Node000012"><a xlink:title=" ">
<path fill="none" stroke="#63b8ff" d="M644.99,-269.26C625.25,-295.87 590.1,-336.2 548.25,-353 462.53,-387.41 352.48,-363.3 291.1,-344.45"/>
<polygon fill="#63b8ff" stroke="#63b8ff" points="647.66,-271.54 650.66,-261.38 641.98,-267.45 647.66,-271.54"/>
</a>
</g>
</g>
<!-- Node15 -->
<g id="Node000015" class="node">
<title>Node15</title>
<g id="a_Node000015"><a xlink:href="class_fiea_1_1_engine_1_1_content_1_1_scope_writer.html#a8baf6cd60c0807e9e91054132db5183f" target="_top" xlink:title=" ">
<polygon fill="white" stroke="#666666" points="548.25,-344 356.75,-344 356.75,-312 548.25,-312 548.25,-344"/>
<text xml:space="preserve" text-anchor="start" x="364.75" y="-330.5" font-family="Helvetica,sans-Serif" font-size="10.00">Fiea::Engine::Content</text>
<text xml:space="preserve" text-anchor="middle" x="452.5" y="-318.5" font-family="Helvetica,sans-Serif" font-size="10.00">::ScopeWriter::AddActionToPredecessor</text>
</a>
</g>
</g>
<!-- Node10&#45;&gt;Node15 -->
<g id="edge16_Node000010_Node000015" class="edge">
<title>Node10&#45;&gt;Node15</title>
<g id="a_edge16_Node000010_Node000015"><a xlink:title=" ">
<path fill="none" stroke="#63b8ff" d="M625.01,-265.88C603.21,-278.05 574.79,-292.77 548.25,-303 540.23,-306.09 531.69,-308.93 523.15,-311.51"/>
<polygon fill="#63b8ff" stroke="#63b8ff" points="626.55,-269.03 633.52,-261.06 623.1,-262.94 626.55,-269.03"/>
</a>
</g>
</g>
<!-- Node16 -->
<g id="Node000016" class="node">
<title>Node16</title>
<g id="a_Node000016"><a xlink:href="class_fiea_1_1_engine_1_1_content_1_1_scope_writer.html#a707086401a09fd8b2f07d65a1f95fd72" target="_top" xlink:title=" ">
<polygon fill="white" stroke="#666666" points="529.12,-232 375.88,-232 375.88,-200 529.12,-200 529.12,-232"/>
<text xml:space="preserve" text-anchor="start" x="383.88" y="-218.5" font-family="Helvetica,sans-Serif" font-size="10.00">Fiea::Engine::Content</text>
<text xml:space="preserve" text-anchor="middle" x="452.5" y="-206.5" font-family="Helvetica,sans-Serif" font-size="10.00">::ScopeWriter::AddGameObject</text>
</a>
</g>
</g>
<!-- Node10&#45;&gt;Node16 -->
<g id="edge18_Node000010_Node000016" class="edge">
<title>Node10&#45;&gt;Node16</title>
<g id="a_edge18_Node000010_Node000016"><a xlink:title=" ">
<path fill="none" stroke="#63b8ff" d="M593.39,-234.78C572.85,-232.02 550.21,-228.98 529.24,-226.17"/>
<polygon fill="#63b8ff" stroke="#63b8ff" points="592.69,-238.21 603.06,-236.07 593.62,-231.27 592.69,-238.21"/>
</a>
</g>
</g>
<!-- Node17 -->
<g id="Node000017" class="node">
<title>Node17</title>
<g id="a_Node000017"><a xlink:href="class_fiea_1_1_engine_1_1_content_1_1_scope_writer.html#a77fe1b124acb1dd1bd3f2d7f104035cf" target="_top" xlink:title=" ">
<polygon fill="white" stroke="#666666" points="306.5,-210 180.25,-210 180.25,-178 306.5,-178 306.5,-210"/>
<text xml:space="preserve" text-anchor="start" x="188.25" y="-196.5" font-family="Helvetica,sans-Serif" font-size="10.00">Fiea::Engine::Content</text>
<text xml:space="preserve" text-anchor="middle" x="243.38" y="-184.5" font-family="Helvetica,sans-Serif" font-size="10.00">::ScopeWriter::AddScope</text>
</a>
</g>
</g>
<!-- Node10&#45;&gt;Node17 -->
<g id="edge23_Node000010_Node000017" class="edge">
<title>Node10&#45;&gt;Node17</title>
<g id="a_edge23_Node000010_Node000017"><a xlink:title=" ">
<path fill="none" stroke="#63b8ff" d="M625.65,-222.04C603.99,-210.29 575.51,-197.03 548.25,-191 466.35,-172.87 368.96,-178.42 306.92,-185.23"/>
<polygon fill="#63b8ff" stroke="#63b8ff" points="623.94,-225.09 634.38,-226.91 627.35,-218.98 623.94,-225.09"/>
</a>
</g>
</g>
<!-- Node21 -->
<g id="Node000021" class="node">
<title>Node21</title>
<g id="a_Node000021"><a xlink:href="class_fiea_1_1_engine_1_1_content_1_1_scope_writer.html#a542b6ab60fcbb7b17a9e203df367ca01" target="_top" xlink:title=" ">
<polygon fill="white" stroke="#666666" points="528,-144 377,-144 377,-100 528,-100 528,-144"/>
<text xml:space="preserve" text-anchor="start" x="385" y="-130.5" font-family="Helvetica,sans-Serif" font-size="10.00">Fiea::Engine::Content</text>
<text xml:space="preserve" text-anchor="start" x="385" y="-118.5" font-family="Helvetica,sans-Serif" font-size="10.00">::ScopeWriter::AddWhileAction</text>
<text xml:space="preserve" text-anchor="middle" x="452.5" y="-106.5" font-family="Helvetica,sans-Serif" font-size="10.00">ParamObject</text>
</a>
</g>
</g>
<!-- Node10&#45;&gt;Node21 -->
<g id="edge24_Node000010_Node000021" class="edge">
<title>Node10&#45;&gt;Node21</title>
<g id="a_edge24_Node000010_Node000021"><a xlink:title=" ">
<path fill="none" stroke="#63b8ff" d="M635.4,-220.34C613.23,-201.59 580.27,-175.7 548.25,-158 539.32,-153.06 529.57,-148.51 519.83,-144.43"/>
<polygon fill="#63b8ff" stroke="#63b8ff" points="632.9,-222.8 642.77,-226.65 637.46,-217.49 632.9,-222.8"/>
</a>
</g>
</g>
<!-- Node23 -->
<g id="Node000023" class="node">
<title>Node23</title>
<g id="a_Node000023"><a xlink:href="namespace_fiea_1_1_engine_1_1_tests.html#a6fef2096c3071aeedc84a735d125856c" target="_top" xlink:title=" ">
<polygon fill="white" stroke="#666666" points="502.88,-82 402.12,-82 402.12,-50 502.88,-50 502.88,-82"/>
<text xml:space="preserve" text-anchor="start" x="410.12" y="-68.5" font-family="Helvetica,sans-Serif" font-size="10.00">Fiea::Engine::Tests</text>
<text xml:space="preserve" text-anchor="middle" x="452.5" y="-56.5" font-family="Helvetica,sans-Serif" font-size="10.00">::TEST_CLASS</text>
</a>
</g>
</g>
<!-- Node10&#45;&gt;Node23 -->
<g id="edge26_Node000010_Node000023" class="edge">
<title>Node10&#45;&gt;Node23</title>
<g id="a_edge26_Node000010_Node000023"><a xlink:title=" ">
<path fill="none" stroke="#63b8ff" d="M649.57,-217.52C631.86,-183.07 596.27,-123.46 548.25,-91 534.86,-81.95 518.36,-76.17 502.9,-72.49"/>
<polygon fill="#63b8ff" stroke="#63b8ff" points="646.41,-219.02 654.01,-226.4 652.67,-215.89 646.41,-219.02"/>
</a>
</g>
</g>
<!-- Node10&#45;&gt;Node24 -->
<g id="edge27_Node000010_Node000024" class="edge">
<title>Node10&#45;&gt;Node24</title>
<g id="a_edge27_Node000010_Node000024"><a xlink:title=" ">
<path fill="none" stroke="#63b8ff" d="M646.86,-217.82C631,-190.52 605.58,-146.44 584.25,-108 567.85,-78.44 574.79,-61.94 548.25,-41 535.43,-30.89 518.9,-24.84 503.24,-21.24"/>
<polygon fill="#63b8ff" stroke="#63b8ff" points="643.82,-219.56 651.87,-226.44 649.87,-216.04 643.82,-219.56"/>
</a>
</g>
</g>
<!-- Node11&#45;&gt;Node12 -->
<g id="edge12_Node000011_Node000012" class="edge">
<title>Node11&#45;&gt;Node12</title>
<g id="a_edge12_Node000011_Node000012"><a xlink:title=" ">
<path fill="none" stroke="#63b8ff" d="M370.25,-293.97C348.61,-299.82 325.6,-306.04 305.25,-311.54"/>
<polygon fill="#63b8ff" stroke="#63b8ff" points="370.89,-297.42 379.63,-291.43 369.06,-290.66 370.89,-297.42"/>
</a>
</g>
</g>
<!-- Node14 -->
<g id="Node000014" class="node">
<title>Node14</title>
<g id="a_Node000014"><a xlink:href="class_fiea_1_1_engine_1_1_content_1_1_action_list_handler.html#ae0f8b6534bcf602df112f39202c79ecc" target="_top" xlink:title=" ">
<polygon fill="white" stroke="#666666" points="299,-294 187.75,-294 187.75,-250 299,-250 299,-294"/>
<text xml:space="preserve" text-anchor="start" x="195.75" y="-280.5" font-family="Helvetica,sans-Serif" font-size="10.00">Fiea::Engine::Content</text>
<text xml:space="preserve" text-anchor="start" x="195.75" y="-268.5" font-family="Helvetica,sans-Serif" font-size="10.00">::ActionListHandler::</text>
<text xml:space="preserve" text-anchor="middle" x="243.38" y="-256.5" font-family="Helvetica,sans-Serif" font-size="10.00">EnterKey</text>
</a>
</g>
</g>
<!-- Node11&#45;&gt;Node14 -->
<g id="edge14_Node000011_Node000014" class="edge">
<title>Node11&#45;&gt;Node14</title>
<g id="a_edge14_Node000011_Node000014"><a xlink:title=" ">
<path fill="none" stroke="#63b8ff" d="M369.63,-272C346,-272 320.78,-272 299.22,-272"/>
<polygon fill="#63b8ff" stroke="#63b8ff" points="369.57,-275.5 379.57,-272 369.57,-268.5 369.57,-275.5"/>
</a>
</g>
</g>
<!-- Node13 -->
<g id="Node000013" class="node">
<title>Node13</title>
<g id="a_Node000013"><a xlink:href="class_fiea_1_1_engine_1_1_content_1_1_action_handler.html#a392af20cfeb37d539b88183bc9672f7a" target="_top" xlink:title=" ">
<polygon fill="white" stroke="#666666" points="130,-344 0,-344 0,-312 130,-312 130,-344"/>
<text xml:space="preserve" text-anchor="start" x="8" y="-330.5" font-family="Helvetica,sans-Serif" font-size="10.00">Fiea::Engine::Content</text>
<text xml:space="preserve" text-anchor="middle" x="65" y="-318.5" font-family="Helvetica,sans-Serif" font-size="10.00">::ActionHandler::EnterKey</text>
</a>
</g>
</g>
<!-- Node12&#45;&gt;Node13 -->
<g id="edge13_Node000012_Node000013" class="edge">
<title>Node12&#45;&gt;Node13</title>
<g id="a_edge13_Node000012_Node000013"><a xlink:title=" ">
<path fill="none" stroke="#63b8ff" d="M154.23,-328C146.22,-328 138.21,-328 130.47,-328"/>
<polygon fill="#63b8ff" stroke="#63b8ff" points="154.01,-331.5 164.01,-328 154.01,-324.5 154.01,-331.5"/>
</a>
</g>
</g>
<!-- Node15&#45;&gt;Node12 -->
<g id="edge17_Node000015_Node000012" class="edge">
<title>Node15&#45;&gt;Node12</title>
<g id="a_edge17_Node000015_Node000012"><a xlink:title=" ">
<path fill="none" stroke="#63b8ff" d="M345.06,-328C337.01,-328 328.99,-328 321.19,-328"/>
<polygon fill="#63b8ff" stroke="#63b8ff" points="344.91,-331.5 354.91,-328 344.91,-324.5 344.91,-331.5"/>
</a>
</g>
</g>
<!-- Node16&#45;&gt;Node17 -->
<g id="edge19_Node000016_Node000017" class="edge">
<title>Node16&#45;&gt;Node17</title>
<g id="a_edge19_Node000016_Node000017"><a xlink:title=" ">
<path fill="none" stroke="#63b8ff" d="M364.28,-206.74C344.95,-204.68 324.84,-202.55 306.74,-200.62"/>
<polygon fill="#63b8ff" stroke="#63b8ff" points="363.73,-210.2 374.05,-207.77 364.47,-203.24 363.73,-210.2"/>
</a>
</g>
</g>
<!-- Node18 -->
<g id="Node000018" class="node">
<title>Node18</title>
<g id="a_Node000018"><a xlink:href="class_fiea_1_1_engine_1_1_content_1_1_game_object_handler.html#a626573aebcd7beceb84dbd69bc15105b" target="_top" xlink:title=" ">
<polygon fill="white" stroke="#666666" points="123.25,-278 6.75,-278 6.75,-234 123.25,-234 123.25,-278"/>
<text xml:space="preserve" text-anchor="start" x="14.75" y="-264.5" font-family="Helvetica,sans-Serif" font-size="10.00">Fiea::Engine::Content</text>
<text xml:space="preserve" text-anchor="start" x="14.75" y="-252.5" font-family="Helvetica,sans-Serif" font-size="10.00">::GameObjectHandler::</text>
<text xml:space="preserve" text-anchor="middle" x="65" y="-240.5" font-family="Helvetica,sans-Serif" font-size="10.00">EnterKey</text>
</a>
</g>
</g>
<!-- Node17&#45;&gt;Node18 -->
<g id="edge20_Node000017_Node000018" class="edge">
<title>Node17&#45;&gt;Node18</title>
<g id="a_edge20_Node000017_Node000018"><a xlink:title=" ">
<path fill="none" stroke="#63b8ff" d="M184.94,-214.19C165.32,-221.08 143.39,-228.8 123.74,-235.7"/>
<polygon fill="#63b8ff" stroke="#63b8ff" points="185.87,-217.57 194.14,-210.95 183.55,-210.97 185.87,-217.57"/>
</a>
</g>
</g>
<!-- Node19 -->
<g id="Node000019" class="node">
<title>Node19</title>
<g id="a_Node000019"><a xlink:href="class_fiea_1_1_engine_1_1_content_1_1_scope_factory_handler.html#ae5e7d2b134d20238fa9be43f936bf80b" target="_top" xlink:title=" ">
<polygon fill="white" stroke="#666666" points="123.25,-216 6.75,-216 6.75,-172 123.25,-172 123.25,-216"/>
<text xml:space="preserve" text-anchor="start" x="14.75" y="-202.5" font-family="Helvetica,sans-Serif" font-size="10.00">Fiea::Engine::Content</text>
<text xml:space="preserve" text-anchor="start" x="14.75" y="-190.5" font-family="Helvetica,sans-Serif" font-size="10.00">::ScopeFactoryHandler</text>
<text xml:space="preserve" text-anchor="middle" x="65" y="-178.5" font-family="Helvetica,sans-Serif" font-size="10.00">::EnterKey</text>
</a>
</g>
</g>
<!-- Node17&#45;&gt;Node19 -->
<g id="edge21_Node000017_Node000019" class="edge">
<title>Node17&#45;&gt;Node19</title>
<g id="a_edge21_Node000017_Node000019"><a xlink:title=" ">
<path fill="none" stroke="#63b8ff" d="M168.77,-194C153.65,-194 137.95,-194 123.49,-194"/>
<polygon fill="#63b8ff" stroke="#63b8ff" points="168.68,-197.5 178.68,-194 168.68,-190.5 168.68,-197.5"/>
</a>
</g>
</g>
<!-- Node20 -->
<g id="Node000020" class="node">
<title>Node20</title>
<g id="a_Node000020"><a xlink:href="class_fiea_1_1_engine_1_1_content_1_1_scope_handler.html#a593999f6a2df6002af8db4629d8a0176" target="_top" xlink:title=" ">
<polygon fill="white" stroke="#666666" points="130,-154 0,-154 0,-122 130,-122 130,-154"/>
<text xml:space="preserve" text-anchor="start" x="8" y="-140.5" font-family="Helvetica,sans-Serif" font-size="10.00">Fiea::Engine::Content</text>
<text xml:space="preserve" text-anchor="middle" x="65" y="-128.5" font-family="Helvetica,sans-Serif" font-size="10.00">::ScopeHandler::EnterKey</text>
</a>
</g>
</g>
<!-- Node17&#45;&gt;Node20 -->
<g id="edge22_Node000017_Node000020" class="edge">
<title>Node17&#45;&gt;Node20</title>
<g id="a_edge22_Node000017_Node000020"><a xlink:title=" ">
<path fill="none" stroke="#63b8ff" d="M179.72,-174.11C159.47,-167.68 137.27,-160.63 117.9,-154.48"/>
<polygon fill="#63b8ff" stroke="#63b8ff" points="178.38,-177.35 188.97,-177.04 180.5,-170.68 178.38,-177.35"/>
</a>
</g>
</g>
<!-- Node22 -->
<g id="Node000022" class="node">
<title>Node22</title>
<g id="a_Node000022"><a xlink:href="class_fiea_1_1_engine_1_1_content_1_1_action_while_param_handler.html#a0d3cab60b559a3be182c4534883d4614" target="_top" xlink:title=" ">
<polygon fill="white" stroke="#666666" points="311.75,-144 175,-144 175,-100 311.75,-100 311.75,-144"/>
<text xml:space="preserve" text-anchor="start" x="183" y="-130.5" font-family="Helvetica,sans-Serif" font-size="10.00">Fiea::Engine::Content</text>
<text xml:space="preserve" text-anchor="start" x="183" y="-118.5" font-family="Helvetica,sans-Serif" font-size="10.00">::ActionWhileParamHandler</text>
<text xml:space="preserve" text-anchor="middle" x="243.38" y="-106.5" font-family="Helvetica,sans-Serif" font-size="10.00">::EnterKey</text>
</a>
</g>
</g>
<!-- Node21&#45;&gt;Node22 -->
<g id="edge25_Node000021_Node000022" class="edge">
<title>Node21&#45;&gt;Node22</title>
<g id="a_edge25_Node000021_Node000022"><a xlink:title=" ">
<path fill="none" stroke="#63b8ff" d="M365.21,-122C347.5,-122 329.1,-122 312.16,-122"/>
<polygon fill="#63b8ff" stroke="#63b8ff" points="365.21,-125.5 375.21,-122 365.21,-118.5 365.21,-125.5"/>
</a>
</g>
</g>
</g>
</svg>
