<?xml version="1.0" encoding="UTF-8" standalone="no"?>
<!DOCTYPE svg PUBLIC "-//W3C//DTD SVG 1.1//EN"
 "http://www.w3.org/Graphics/SVG/1.1/DTD/svg11.dtd">
<!-- Generated by graphviz version 13.1.0 (20250701.0955)
 -->
<!-- Title: Fiea::Engine::Actions::ActionList::ActionList Pages: 1 -->
<svg width="869pt" height="220pt"
 viewBox="0.00 0.00 869.00 220.00" xmlns="http://www.w3.org/2000/svg" xmlns:xlink="http://www.w3.org/1999/xlink">
<g id="graph0" class="graph" transform="scale(1 1) rotate(0) translate(4 216)">
<title>Fiea::Engine::Actions::ActionList::ActionList</title>
<!-- Node1 -->
<g id="Node000001" class="node">
<title>Node1</title>
<g id="a_Node000001"><a xlink:title=" ">
<polygon fill="#999999" stroke="#666666" points="115,-148 0,-148 0,-116 115,-116 115,-148"/>
<text xml:space="preserve" text-anchor="start" x="8" y="-134.5" font-family="Helvetica,sans-Serif" font-size="10.00">Fiea::Engine::Actions</text>
<text xml:space="preserve" text-anchor="middle" x="57.5" y="-122.5" font-family="Helvetica,sans-Serif" font-size="10.00">::ActionList::ActionList</text>
</a>
</g>
</g>
<!-- Node2 -->
<g id="Node000002" class="node">
<title>Node2</title>
<g id="a_Node000002"><a xlink:href="class_fiea_1_1_engine_1_1_actions_1_1_action_list.html#a77dc15425d13d1d10482ec9e97d923fb" target="_top" xlink:title=" ">
<polygon fill="white" stroke="#666666" points="266,-148 151,-148 151,-116 266,-116 266,-148"/>
<text xml:space="preserve" text-anchor="start" x="159" y="-134.5" font-family="Helvetica,sans-Serif" font-size="10.00">Fiea::Engine::Actions</text>
<text xml:space="preserve" text-anchor="middle" x="208.5" y="-122.5" font-family="Helvetica,sans-Serif" font-size="10.00">::ActionList::ActionList</text>
</a>
</g>
</g>
<!-- Node1&#45;&gt;Node2 -->
<g id="edge1_Node000001_Node000002" class="edge">
<title>Node1&#45;&gt;Node2</title>
<g id="a_edge1_Node000001_Node000002"><a xlink:title=" ">
<path fill="none" stroke="#63b8ff" d="M115.26,-132C123.19,-132 131.42,-132 139.53,-132"/>
<polygon fill="#63b8ff" stroke="#63b8ff" points="139.39,-135.5 149.39,-132 139.39,-128.5 139.39,-135.5"/>
</a>
</g>
</g>
<!-- Node3 -->
<g id="Node000003" class="node">
<title>Node3</title>
<g id="a_Node000003"><a xlink:href="class_fiea_1_1_engine_1_1_actions_1_1_action.html#ae2af386f7122152003b00da79393e19e" target="_top" xlink:title=" ">
<polygon fill="white" stroke="#666666" points="411.75,-170 302,-170 302,-138 411.75,-138 411.75,-170"/>
<text xml:space="preserve" text-anchor="start" x="310" y="-156.5" font-family="Helvetica,sans-Serif" font-size="10.00">Fiea::Engine::Actions</text>
<text xml:space="preserve" text-anchor="middle" x="356.88" y="-144.5" font-family="Helvetica,sans-Serif" font-size="10.00">::Action::Action</text>
</a>
</g>
</g>
<!-- Node2&#45;&gt;Node3 -->
<g id="edge2_Node000002_Node000003" class="edge">
<title>Node2&#45;&gt;Node3</title>
<g id="a_edge2_Node000002_Node000003"><a xlink:title=" ">
<path fill="none" stroke="#63b8ff" d="M266.09,-140.51C274.08,-141.71 282.34,-142.95 290.47,-144.17"/>
<polygon fill="#63b8ff" stroke="#63b8ff" points="289.93,-147.63 300.34,-145.65 290.97,-140.71 289.93,-147.63"/>
</a>
</g>
</g>
<!-- Node5 -->
<g id="Node000005" class="node">
<title>Node5</title>
<g id="a_Node000005"><a xlink:href="class_fiea_1_1_engine_1_1_r_t_t_i.html#a876bebbe7b3149483c43a87f55f4ea99" target="_top" xlink:title=" ">
<polygon fill="white" stroke="#666666" points="553,-126 454.5,-126 454.5,-94 553,-94 553,-126"/>
<text xml:space="preserve" text-anchor="start" x="462.5" y="-112.5" font-family="Helvetica,sans-Serif" font-size="10.00">Fiea::Engine::RTTI</text>
<text xml:space="preserve" text-anchor="middle" x="503.75" y="-100.5" font-family="Helvetica,sans-Serif" font-size="10.00">::TypeIdInstance</text>
</a>
</g>
</g>
<!-- Node2&#45;&gt;Node5 -->
<g id="edge15_Node000002_Node000005" class="edge">
<title>Node2&#45;&gt;Node5</title>
<g id="a_edge15_Node000002_Node000005"><a xlink:title=" ">
<path fill="none" stroke="#63b8ff" d="M266.39,-127.73C317.18,-123.92 391.31,-118.36 442.97,-114.49"/>
<polygon fill="#63b8ff" stroke="#63b8ff" points="443.06,-117.99 452.77,-113.75 442.54,-111.01 443.06,-117.99"/>
</a>
</g>
</g>
<!-- Node4 -->
<g id="Node000004" class="node">
<title>Node4</title>
<g id="a_Node000004"><a xlink:href="class_fiea_1_1_engine_1_1_content_1_1_attributed.html#ad1ae014235d9d8b62b36066c94164148" target="_top" xlink:title=" ">
<polygon fill="white" stroke="#666666" points="559.75,-194 447.75,-194 447.75,-162 559.75,-162 559.75,-194"/>
<text xml:space="preserve" text-anchor="start" x="455.75" y="-180.5" font-family="Helvetica,sans-Serif" font-size="10.00">Fiea::Engine::Content</text>
<text xml:space="preserve" text-anchor="middle" x="503.75" y="-168.5" font-family="Helvetica,sans-Serif" font-size="10.00">::Attributed::Attributed</text>
</a>
</g>
</g>
<!-- Node3&#45;&gt;Node4 -->
<g id="edge3_Node000003_Node000004" class="edge">
<title>Node3&#45;&gt;Node4</title>
<g id="a_edge3_Node000003_Node000004"><a xlink:title=" ">
<path fill="none" stroke="#63b8ff" d="M412.23,-163C420.09,-164.31 428.25,-165.66 436.32,-166.99"/>
<polygon fill="#63b8ff" stroke="#63b8ff" points="435.67,-170.44 446.11,-168.62 436.82,-163.53 435.67,-170.44"/>
</a>
</g>
</g>
<!-- Node3&#45;&gt;Node5 -->
<g id="edge5_Node000003_Node000005" class="edge">
<title>Node3&#45;&gt;Node5</title>
<g id="a_edge5_Node000003_Node000005"><a xlink:title=" ">
<path fill="none" stroke="#63b8ff" d="M411.82,-137.62C422.09,-134.5 432.89,-131.22 443.32,-128.05"/>
<polygon fill="#63b8ff" stroke="#63b8ff" points="444.02,-131.5 452.57,-125.24 441.98,-124.8 444.02,-131.5"/>
</a>
</g>
</g>
<!-- Node4&#45;&gt;Node4 -->
<g id="edge4_Node000004_Node000004" class="edge">
<title>Node4&#45;&gt;Node4</title>
<g id="a_edge4_Node000004_Node000004"><a xlink:title=" ">
<path fill="none" stroke="#63b8ff" d="M477.53,-194.44C472.63,-203.58 481.37,-212 503.75,-212 515.99,-212 524.15,-209.48 528.23,-205.71"/>
<polygon fill="#63b8ff" stroke="#63b8ff" points="531.67,-206.36 529.74,-195.94 524.75,-205.28 531.67,-206.36"/>
</a>
</g>
</g>
<!-- Node5&#45;&gt;Node5 -->
<g id="edge14_Node000005_Node000005" class="edge">
<title>Node5&#45;&gt;Node5</title>
<g id="a_edge14_Node000005_Node000005"><a xlink:title=" ">
<path fill="none" stroke="#63b8ff" d="M477.53,-126.44C472.63,-135.58 481.37,-144 503.75,-144 515.99,-144 524.15,-141.48 528.23,-137.71"/>
<polygon fill="#63b8ff" stroke="#63b8ff" points="531.67,-138.36 529.74,-127.94 524.75,-137.28 531.67,-138.36"/>
</a>
</g>
</g>
<!-- Node6 -->
<g id="Node000006" class="node">
<title>Node6</title>
<g id="a_Node000006"><a xlink:href="class_fiea_1_1_engine_1_1_r_t_t_i.html#a15bd5993c8ad04da47af440298ebbb30" target="_top" xlink:title=" ">
<polygon fill="white" stroke="#666666" points="712.25,-158 595.75,-158 595.75,-138 712.25,-138 712.25,-158"/>
<text xml:space="preserve" text-anchor="middle" x="654" y="-144.5" font-family="Helvetica,sans-Serif" font-size="10.00">Fiea::Engine::RTTI::As</text>
</a>
</g>
</g>
<!-- Node5&#45;&gt;Node6 -->
<g id="edge6_Node000005_Node000006" class="edge">
<title>Node5&#45;&gt;Node6</title>
<g id="a_edge6_Node000005_Node000006"><a xlink:title=" ">
<path fill="none" stroke="#63b8ff" d="M553.29,-122.44C568.65,-126.38 585.68,-130.74 601.25,-134.74"/>
<polygon fill="#63b8ff" stroke="#63b8ff" points="600.27,-138.1 610.82,-137.19 602,-131.32 600.27,-138.1"/>
</a>
</g>
</g>
<!-- Node7 -->
<g id="Node000007" class="node">
<title>Node7</title>
<g id="a_Node000007"><a xlink:href="class_fiea_1_1_engine_1_1_r_t_t_i.html#ac0a7d875e4513b2aca7594abcd4418ef" target="_top" xlink:title=" ">
<polygon fill="white" stroke="#666666" points="861,-180 748.25,-180 748.25,-160 861,-160 861,-180"/>
<text xml:space="preserve" text-anchor="middle" x="804.62" y="-166.5" font-family="Helvetica,sans-Serif" font-size="10.00">Fiea::Engine::RTTI::Is</text>
</a>
</g>
</g>
<!-- Node5&#45;&gt;Node7 -->
<g id="edge11_Node000005_Node000007" class="edge">
<title>Node5&#45;&gt;Node7</title>
<g id="a_edge11_Node000005_Node000007"><a xlink:title=" ">
<path fill="none" stroke="#63b8ff" d="M523.8,-126.34C541.23,-140.14 568.39,-158.93 595.75,-167 641.47,-180.5 695.35,-180.86 736.8,-178.06"/>
<polygon fill="#63b8ff" stroke="#63b8ff" points="736.93,-181.56 746.63,-177.31 736.39,-174.58 736.93,-181.56"/>
</a>
</g>
</g>
<!-- Node8 -->
<g id="Node000008" class="node">
<title>Node8</title>
<g id="a_Node000008"><a xlink:href="class_fiea_1_1_engine_1_1_r_t_t_i.html#a13000029a2e6cced30b831e466e07cae" target="_top" xlink:title=" ">
<polygon fill="white" stroke="#666666" points="853.88,-126 755.38,-126 755.38,-94 853.88,-94 853.88,-126"/>
<text xml:space="preserve" text-anchor="start" x="763.38" y="-112.5" font-family="Helvetica,sans-Serif" font-size="10.00">Fiea::Engine::RTTI</text>
<text xml:space="preserve" text-anchor="middle" x="804.62" y="-100.5" font-family="Helvetica,sans-Serif" font-size="10.00">::RTTI</text>
</a>
</g>
</g>
<!-- Node5&#45;&gt;Node8 -->
<g id="edge12_Node000005_Node000008" class="edge">
<title>Node5&#45;&gt;Node8</title>
<g id="a_edge12_Node000005_Node000008"><a xlink:title=" ">
<path fill="none" stroke="#63b8ff" d="M553.43,-110C605.32,-110 687.54,-110 743.45,-110"/>
<polygon fill="#63b8ff" stroke="#63b8ff" points="743.45,-113.5 753.45,-110 743.45,-106.5 743.45,-113.5"/>
</a>
</g>
</g>
<!-- Node9 -->
<g id="Node000009" class="node">
<title>Node9</title>
<g id="a_Node000009"><a xlink:href="class_fiea_1_1_engine_1_1_r_t_t_i.html#a7f70ad5ba0f8a3388543d63d72892575" target="_top" xlink:title=" ">
<polygon fill="white" stroke="#666666" points="703.25,-82 604.75,-82 604.75,-50 703.25,-50 703.25,-82"/>
<text xml:space="preserve" text-anchor="start" x="612.75" y="-68.5" font-family="Helvetica,sans-Serif" font-size="10.00">Fiea::Engine::RTTI</text>
<text xml:space="preserve" text-anchor="middle" x="654" y="-56.5" font-family="Helvetica,sans-Serif" font-size="10.00">::Equals</text>
</a>
</g>
</g>
<!-- Node5&#45;&gt;Node9 -->
<g id="edge9_Node000005_Node000009" class="edge">
<title>Node5&#45;&gt;Node9</title>
<g id="a_edge9_Node000005_Node000009"><a xlink:title=" ">
<path fill="none" stroke="#63b8ff" d="M553.29,-95.59C566.09,-91.79 580.05,-87.65 593.36,-83.7"/>
<polygon fill="#63b8ff" stroke="#63b8ff" points="594.31,-87.07 602.9,-80.87 592.31,-80.36 594.31,-87.07"/>
</a>
</g>
</g>
<!-- Node10 -->
<g id="Node000010" class="node">
<title>Node10</title>
<g id="a_Node000010"><a xlink:href="class_fiea_1_1_engine_1_1_r_t_t_i.html#a43a7d187e332a17d2c699bc2c8136a30" target="_top" xlink:title=" ">
<polygon fill="white" stroke="#666666" points="703.25,-32 604.75,-32 604.75,0 703.25,0 703.25,-32"/>
<text xml:space="preserve" text-anchor="start" x="612.75" y="-18.5" font-family="Helvetica,sans-Serif" font-size="10.00">Fiea::Engine::RTTI</text>
<text xml:space="preserve" text-anchor="middle" x="654" y="-6.5" font-family="Helvetica,sans-Serif" font-size="10.00">::ToString</text>
</a>
</g>
</g>
<!-- Node5&#45;&gt;Node10 -->
<g id="edge13_Node000005_Node000010" class="edge">
<title>Node5&#45;&gt;Node10</title>
<g id="a_edge13_Node000005_Node000010"><a xlink:title=" ">
<path fill="none" stroke="#63b8ff" d="M523.69,-93.51C541.47,-78.56 569.24,-56.54 595.75,-41 597.76,-39.82 599.84,-38.66 601.95,-37.53"/>
<polygon fill="#63b8ff" stroke="#63b8ff" points="603.34,-40.75 610.71,-33.13 600.2,-34.5 603.34,-40.75"/>
</a>
</g>
</g>
<!-- Node6&#45;&gt;Node7 -->
<g id="edge7_Node000006_Node000007" class="edge">
<title>Node6&#45;&gt;Node7</title>
<g id="a_edge7_Node000006_Node000007"><a xlink:title=" ">
<path fill="none" stroke="#63b8ff" d="M712.46,-156.51C720.35,-157.67 728.5,-158.88 736.53,-160.07"/>
<polygon fill="#63b8ff" stroke="#63b8ff" points="735.88,-163.51 746.28,-161.51 736.91,-156.59 735.88,-163.51"/>
</a>
</g>
</g>
<!-- Node6&#45;&gt;Node8 -->
<g id="edge8_Node000006_Node000008" class="edge">
<title>Node6&#45;&gt;Node8</title>
<g id="a_edge8_Node000006_Node000008"><a xlink:title=" ">
<path fill="none" stroke="#63b8ff" d="M696.01,-137.52C710.88,-133.71 727.99,-129.34 744.13,-125.21"/>
<polygon fill="#63b8ff" stroke="#63b8ff" points="744.82,-128.65 753.64,-122.78 743.09,-121.87 744.82,-128.65"/>
</a>
</g>
</g>
<!-- Node9&#45;&gt;Node8 -->
<g id="edge10_Node000009_Node000008" class="edge">
<title>Node9&#45;&gt;Node8</title>
<g id="a_edge10_Node000009_Node000008"><a xlink:title=" ">
<path fill="none" stroke="#63b8ff" d="M703.67,-80.41C716.69,-84.26 730.92,-88.47 744.44,-92.48"/>
<polygon fill="#63b8ff" stroke="#63b8ff" points="743.07,-95.72 753.65,-95.21 745.06,-89.01 743.07,-95.72"/>
</a>
</g>
</g>
</g>
</svg>
