<?xml version="1.0" encoding="UTF-8" standalone="no"?>
<!DOCTYPE svg PUBLIC "-//W3C//DTD SVG 1.1//EN"
 "http://www.w3.org/Graphics/SVG/1.1/DTD/svg11.dtd">
<!-- Generated by graphviz version 13.1.0 (20250701.0955)
 -->
<!-- Title: Fiea::Engine::Actions::ActionList::RemoveAction Pages: 1 -->
<svg width="741pt" height="383pt"
 viewBox="0.00 0.00 741.00 383.00" xmlns="http://www.w3.org/2000/svg" xmlns:xlink="http://www.w3.org/1999/xlink">
<g id="graph0" class="graph" transform="scale(1 1) rotate(0) translate(4 379)">
<title>Fiea::Engine::Actions::ActionList::RemoveAction</title>
<!-- Node1 -->
<g id="Node000001" class="node">
<title>Node1</title>
<g id="a_Node000001"><a xlink:title=" ">
<polygon fill="#999999" stroke="#666666" points="136,-157 0,-157 0,-125 136,-125 136,-157"/>
<text xml:space="preserve" text-anchor="start" x="8" y="-143.5" font-family="Helvetica,sans-Serif" font-size="10.00">Fiea::Engine::Actions</text>
<text xml:space="preserve" text-anchor="middle" x="68" y="-131.5" font-family="Helvetica,sans-Serif" font-size="10.00">::ActionList::RemoveAction</text>
</a>
</g>
</g>
<!-- Node2 -->
<g id="Node000002" class="node">
<title>Node2</title>
<g id="a_Node000002"><a xlink:href="class_fiea_1_1_engine_1_1_actions_1_1_action.html#ae2af386f7122152003b00da79393e19e" target="_top" xlink:title=" ">
<polygon fill="white" stroke="#666666" points="282.5,-289 172.75,-289 172.75,-257 282.5,-257 282.5,-289"/>
<text xml:space="preserve" text-anchor="start" x="180.75" y="-275.5" font-family="Helvetica,sans-Serif" font-size="10.00">Fiea::Engine::Actions</text>
<text xml:space="preserve" text-anchor="middle" x="227.62" y="-263.5" font-family="Helvetica,sans-Serif" font-size="10.00">::Action::Action</text>
</a>
</g>
</g>
<!-- Node1&#45;&gt;Node2 -->
<g id="edge1_Node000001_Node000002" class="edge">
<title>Node1&#45;&gt;Node2</title>
<g id="a_edge1_Node000001_Node000002"><a xlink:title=" ">
<path fill="none" stroke="#63b8ff" d="M88.64,-157.45C116.21,-180.54 166.54,-222.68 198.19,-249.19"/>
<polygon fill="#63b8ff" stroke="#63b8ff" points="195.91,-251.84 205.82,-255.58 200.4,-246.47 195.91,-251.84"/>
</a>
</g>
</g>
<!-- Node5 -->
<g id="Node000005" class="node">
<title>Node5</title>
<g id="a_Node000005"><a xlink:href="class_fiea_1_1_engine_1_1_r_t_t_i.html#a15bd5993c8ad04da47af440298ebbb30" target="_top" xlink:title=" ">
<polygon fill="white" stroke="#666666" points="583.75,-210 467.25,-210 467.25,-190 583.75,-190 583.75,-210"/>
<text xml:space="preserve" text-anchor="middle" x="525.5" y="-196.5" font-family="Helvetica,sans-Serif" font-size="10.00">Fiea::Engine::RTTI::As</text>
</a>
</g>
</g>
<!-- Node1&#45;&gt;Node5 -->
<g id="edge14_Node000001_Node000005" class="edge">
<title>Node1&#45;&gt;Node5</title>
<g id="a_edge14_Node000001_Node000005"><a xlink:title=" ">
<path fill="none" stroke="#63b8ff" d="M94.92,-157.45C115.07,-169.26 144.19,-184.23 172,-191 268.41,-214.46 384.04,-211.82 455.9,-206.73"/>
<polygon fill="#63b8ff" stroke="#63b8ff" points="455.83,-210.24 465.54,-206.01 455.31,-203.26 455.83,-210.24"/>
</a>
</g>
</g>
<!-- Node10 -->
<g id="Node000010" class="node">
<title>Node10</title>
<g id="a_Node000010"><a xlink:href="class_fiea_1_1_engine_1_1_content_1_1_scope.html#ad924c01785b239991fc0e56a63295612" target="_top" xlink:title="Finds a Datum by key.">
<polygon fill="white" stroke="#666666" points="283.25,-182 172,-182 172,-150 283.25,-150 283.25,-182"/>
<text xml:space="preserve" text-anchor="start" x="180" y="-168.5" font-family="Helvetica,sans-Serif" font-size="10.00">Fiea::Engine::Content</text>
<text xml:space="preserve" text-anchor="middle" x="227.62" y="-156.5" font-family="Helvetica,sans-Serif" font-size="10.00">::Scope::Find</text>
</a>
</g>
</g>
<!-- Node1&#45;&gt;Node10 -->
<g id="edge15_Node000001_Node000010" class="edge">
<title>Node1&#45;&gt;Node10</title>
<g id="a_edge15_Node000001_Node000010"><a xlink:title=" ">
<path fill="none" stroke="#63b8ff" d="M136.3,-151.67C144.38,-152.96 152.62,-154.26 160.68,-155.54"/>
<polygon fill="#63b8ff" stroke="#63b8ff" points="159.99,-158.97 170.41,-157.08 161.09,-152.06 159.99,-158.97"/>
</a>
</g>
</g>
<!-- Node11 -->
<g id="Node000011" class="node">
<title>Node11</title>
<g id="a_Node000011"><a xlink:href="class_fiea_1_1_engine_1_1_content_1_1_datum.html#a7f92976f27f407987cf287a2f7017e04" target="_top" xlink:title=" ">
<polygon fill="white" stroke="#666666" points="283.25,-132 172,-132 172,-100 283.25,-100 283.25,-132"/>
<text xml:space="preserve" text-anchor="start" x="180" y="-118.5" font-family="Helvetica,sans-Serif" font-size="10.00">Fiea::Engine::Content</text>
<text xml:space="preserve" text-anchor="middle" x="227.62" y="-106.5" font-family="Helvetica,sans-Serif" font-size="10.00">::Datum::GetAsTable</text>
</a>
</g>
</g>
<!-- Node1&#45;&gt;Node11 -->
<g id="edge16_Node000001_Node000011" class="edge">
<title>Node1&#45;&gt;Node11</title>
<g id="a_edge16_Node000001_Node000011"><a xlink:title=" ">
<path fill="none" stroke="#63b8ff" d="M136.3,-130.33C144.38,-129.04 152.62,-127.74 160.68,-126.46"/>
<polygon fill="#63b8ff" stroke="#63b8ff" points="161.09,-129.94 170.41,-124.92 159.99,-123.03 161.09,-129.94"/>
</a>
</g>
</g>
<!-- Node13 -->
<g id="Node000013" class="node">
<title>Node13</title>
<g id="a_Node000013"><a xlink:href="class_fiea_1_1_engine_1_1_content_1_1_datum.html#aae7a8c9d75274c388e81a925ad1f49ef" target="_top" xlink:title=" ">
<polygon fill="white" stroke="#666666" points="283.25,-82 172,-82 172,-50 283.25,-50 283.25,-82"/>
<text xml:space="preserve" text-anchor="start" x="180" y="-68.5" font-family="Helvetica,sans-Serif" font-size="10.00">Fiea::Engine::Content</text>
<text xml:space="preserve" text-anchor="middle" x="227.62" y="-56.5" font-family="Helvetica,sans-Serif" font-size="10.00">::Datum::RemoveAt</text>
</a>
</g>
</g>
<!-- Node1&#45;&gt;Node13 -->
<g id="edge19_Node000001_Node000013" class="edge">
<title>Node1&#45;&gt;Node13</title>
<g id="a_edge19_Node000001_Node000013"><a xlink:title=" ">
<path fill="none" stroke="#63b8ff" d="M102.31,-124.59C122.43,-114.74 148.63,-102.02 172,-91 174.69,-89.73 177.46,-88.43 180.26,-87.13"/>
<polygon fill="#63b8ff" stroke="#63b8ff" points="181.45,-90.44 189.06,-83.06 178.51,-84.08 181.45,-90.44"/>
</a>
</g>
</g>
<!-- Node14 -->
<g id="Node000014" class="node">
<title>Node14</title>
<g id="a_Node000014"><a xlink:href="class_fiea_1_1_engine_1_1_content_1_1_datum.html#acae68c3bc8b20345e4c3790fa37bd8d5" target="_top" xlink:title=" ">
<polygon fill="white" stroke="#666666" points="283.25,-32 172,-32 172,0 283.25,0 283.25,-32"/>
<text xml:space="preserve" text-anchor="start" x="180" y="-18.5" font-family="Helvetica,sans-Serif" font-size="10.00">Fiea::Engine::Content</text>
<text xml:space="preserve" text-anchor="middle" x="227.62" y="-6.5" font-family="Helvetica,sans-Serif" font-size="10.00">::Datum::Size</text>
</a>
</g>
</g>
<!-- Node1&#45;&gt;Node14 -->
<g id="edge20_Node000001_Node000014" class="edge">
<title>Node1&#45;&gt;Node14</title>
<g id="a_edge20_Node000001_Node000014"><a xlink:title=" ">
<path fill="none" stroke="#63b8ff" d="M82.6,-124.7C101.09,-103.31 136,-65.62 172,-41 173.54,-39.95 175.13,-38.92 176.76,-37.92"/>
<polygon fill="#63b8ff" stroke="#63b8ff" points="178.07,-41.2 185.06,-33.24 174.63,-35.1 178.07,-41.2"/>
</a>
</g>
</g>
<!-- Node3 -->
<g id="Node000003" class="node">
<title>Node3</title>
<g id="a_Node000003"><a xlink:href="class_fiea_1_1_engine_1_1_content_1_1_attributed.html#ad1ae014235d9d8b62b36066c94164148" target="_top" xlink:title=" ">
<polygon fill="white" stroke="#666666" points="431.25,-357 319.25,-357 319.25,-325 431.25,-325 431.25,-357"/>
<text xml:space="preserve" text-anchor="start" x="327.25" y="-343.5" font-family="Helvetica,sans-Serif" font-size="10.00">Fiea::Engine::Content</text>
<text xml:space="preserve" text-anchor="middle" x="375.25" y="-331.5" font-family="Helvetica,sans-Serif" font-size="10.00">::Attributed::Attributed</text>
</a>
</g>
</g>
<!-- Node2&#45;&gt;Node3 -->
<g id="edge2_Node000002_Node000003" class="edge">
<title>Node2&#45;&gt;Node3</title>
<g id="a_edge2_Node000002_Node000003"><a xlink:title=" ">
<path fill="none" stroke="#63b8ff" d="M262.99,-289.47C279.9,-297.53 300.61,-307.34 319.25,-316 321.97,-317.26 324.76,-318.55 327.58,-319.85"/>
<polygon fill="#63b8ff" stroke="#63b8ff" points="325.9,-322.93 336.45,-323.91 328.81,-316.57 325.9,-322.93"/>
</a>
</g>
</g>
<!-- Node4 -->
<g id="Node000004" class="node">
<title>Node4</title>
<g id="a_Node000004"><a xlink:href="class_fiea_1_1_engine_1_1_r_t_t_i.html#a876bebbe7b3149483c43a87f55f4ea99" target="_top" xlink:title=" ">
<polygon fill="white" stroke="#666666" points="424.5,-289 326,-289 326,-257 424.5,-257 424.5,-289"/>
<text xml:space="preserve" text-anchor="start" x="334" y="-275.5" font-family="Helvetica,sans-Serif" font-size="10.00">Fiea::Engine::RTTI</text>
<text xml:space="preserve" text-anchor="middle" x="375.25" y="-263.5" font-family="Helvetica,sans-Serif" font-size="10.00">::TypeIdInstance</text>
</a>
</g>
</g>
<!-- Node2&#45;&gt;Node4 -->
<g id="edge4_Node000002_Node000004" class="edge">
<title>Node2&#45;&gt;Node4</title>
<g id="a_edge4_Node000002_Node000004"><a xlink:title=" ">
<path fill="none" stroke="#63b8ff" d="M282.85,-273C293.18,-273 304.05,-273 314.54,-273"/>
<polygon fill="#63b8ff" stroke="#63b8ff" points="314.23,-276.5 324.23,-273 314.23,-269.5 314.23,-276.5"/>
</a>
</g>
</g>
<!-- Node3&#45;&gt;Node3 -->
<g id="edge3_Node000003_Node000003" class="edge">
<title>Node3&#45;&gt;Node3</title>
<g id="a_edge3_Node000003_Node000003"><a xlink:title=" ">
<path fill="none" stroke="#63b8ff" d="M348.89,-357.44C343.98,-366.58 352.76,-375 375.25,-375 387.55,-375 395.75,-372.48 399.85,-368.71"/>
<polygon fill="#63b8ff" stroke="#63b8ff" points="403.29,-369.36 401.37,-358.94 396.38,-368.28 403.29,-369.36"/>
</a>
</g>
</g>
<!-- Node4&#45;&gt;Node4 -->
<g id="edge13_Node000004_Node000004" class="edge">
<title>Node4&#45;&gt;Node4</title>
<g id="a_edge13_Node000004_Node000004"><a xlink:title=" ">
<path fill="none" stroke="#63b8ff" d="M348.89,-289.44C343.98,-298.58 352.76,-307 375.25,-307 387.55,-307 395.75,-304.48 399.85,-300.71"/>
<polygon fill="#63b8ff" stroke="#63b8ff" points="403.29,-301.36 401.37,-290.94 396.38,-300.28 403.29,-301.36"/>
</a>
</g>
</g>
<!-- Node4&#45;&gt;Node5 -->
<g id="edge5_Node000004_Node000005" class="edge">
<title>Node4&#45;&gt;Node5</title>
<g id="a_edge5_Node000004_Node000005"><a xlink:title=" ">
<path fill="none" stroke="#63b8ff" d="M404.98,-256.61C422.71,-246.72 446.04,-234.13 467.25,-224 473.76,-220.89 480.78,-217.77 487.6,-214.85"/>
<polygon fill="#63b8ff" stroke="#63b8ff" points="488.78,-218.15 496.65,-211.05 486.07,-211.69 488.78,-218.15"/>
</a>
</g>
</g>
<!-- Node6 -->
<g id="Node000006" class="node">
<title>Node6</title>
<g id="a_Node000006"><a xlink:href="class_fiea_1_1_engine_1_1_r_t_t_i.html#ac0a7d875e4513b2aca7594abcd4418ef" target="_top" xlink:title=" ">
<polygon fill="white" stroke="#666666" points="732.5,-229 619.75,-229 619.75,-209 732.5,-209 732.5,-229"/>
<text xml:space="preserve" text-anchor="middle" x="676.12" y="-215.5" font-family="Helvetica,sans-Serif" font-size="10.00">Fiea::Engine::RTTI::Is</text>
</a>
</g>
</g>
<!-- Node4&#45;&gt;Node6 -->
<g id="edge10_Node000004_Node000006" class="edge">
<title>Node4&#45;&gt;Node6</title>
<g id="a_edge10_Node000004_Node000006"><a xlink:title=" ">
<path fill="none" stroke="#63b8ff" d="M424.93,-264.2C474.76,-255.2 552.57,-241.14 608.18,-231.1"/>
<polygon fill="#63b8ff" stroke="#63b8ff" points="608.63,-234.57 617.85,-229.35 607.39,-227.68 608.63,-234.57"/>
</a>
</g>
</g>
<!-- Node7 -->
<g id="Node000007" class="node">
<title>Node7</title>
<g id="a_Node000007"><a xlink:href="class_fiea_1_1_engine_1_1_r_t_t_i.html#a13000029a2e6cced30b831e466e07cae" target="_top" xlink:title=" ">
<polygon fill="white" stroke="#666666" points="725.38,-298 626.88,-298 626.88,-266 725.38,-266 725.38,-298"/>
<text xml:space="preserve" text-anchor="start" x="634.88" y="-284.5" font-family="Helvetica,sans-Serif" font-size="10.00">Fiea::Engine::RTTI</text>
<text xml:space="preserve" text-anchor="middle" x="676.12" y="-272.5" font-family="Helvetica,sans-Serif" font-size="10.00">::RTTI</text>
</a>
</g>
</g>
<!-- Node4&#45;&gt;Node7 -->
<g id="edge11_Node000004_Node000007" class="edge">
<title>Node4&#45;&gt;Node7</title>
<g id="a_edge11_Node000004_Node000007"><a xlink:title=" ">
<path fill="none" stroke="#63b8ff" d="M399.24,-289.46C409.41,-297.12 421.29,-306.6 431.25,-316 448.88,-332.65 445.16,-347 467.25,-357 514.42,-378.35 535,-374.45 583.75,-357 611.65,-347.02 637.14,-324.44 654.07,-306.65"/>
<polygon fill="#63b8ff" stroke="#63b8ff" points="656.46,-309.22 660.64,-299.49 651.3,-304.49 656.46,-309.22"/>
</a>
</g>
</g>
<!-- Node8 -->
<g id="Node000008" class="node">
<title>Node8</title>
<g id="a_Node000008"><a xlink:href="class_fiea_1_1_engine_1_1_r_t_t_i.html#a7f70ad5ba0f8a3388543d63d72892575" target="_top" xlink:title=" ">
<polygon fill="white" stroke="#666666" points="574.75,-298 476.25,-298 476.25,-266 574.75,-266 574.75,-298"/>
<text xml:space="preserve" text-anchor="start" x="484.25" y="-284.5" font-family="Helvetica,sans-Serif" font-size="10.00">Fiea::Engine::RTTI</text>
<text xml:space="preserve" text-anchor="middle" x="525.5" y="-272.5" font-family="Helvetica,sans-Serif" font-size="10.00">::Equals</text>
</a>
</g>
</g>
<!-- Node4&#45;&gt;Node8 -->
<g id="edge8_Node000004_Node000008" class="edge">
<title>Node4&#45;&gt;Node8</title>
<g id="a_edge8_Node000004_Node000008"><a xlink:title=" ">
<path fill="none" stroke="#63b8ff" d="M424.79,-275.95C437.46,-276.72 451.27,-277.55 464.46,-278.36"/>
<polygon fill="#63b8ff" stroke="#63b8ff" points="464.14,-281.84 474.34,-278.95 464.57,-274.86 464.14,-281.84"/>
</a>
</g>
</g>
<!-- Node9 -->
<g id="Node000009" class="node">
<title>Node9</title>
<g id="a_Node000009"><a xlink:href="class_fiea_1_1_engine_1_1_r_t_t_i.html#a43a7d187e332a17d2c699bc2c8136a30" target="_top" xlink:title=" ">
<polygon fill="white" stroke="#666666" points="574.75,-348 476.25,-348 476.25,-316 574.75,-316 574.75,-348"/>
<text xml:space="preserve" text-anchor="start" x="484.25" y="-334.5" font-family="Helvetica,sans-Serif" font-size="10.00">Fiea::Engine::RTTI</text>
<text xml:space="preserve" text-anchor="middle" x="525.5" y="-322.5" font-family="Helvetica,sans-Serif" font-size="10.00">::ToString</text>
</a>
</g>
</g>
<!-- Node4&#45;&gt;Node9 -->
<g id="edge12_Node000004_Node000009" class="edge">
<title>Node4&#45;&gt;Node9</title>
<g id="a_edge12_Node000004_Node000009"><a xlink:title=" ">
<path fill="none" stroke="#63b8ff" d="M417.55,-289.43C434.58,-296.22 454.52,-304.15 472.53,-311.32"/>
<polygon fill="#63b8ff" stroke="#63b8ff" points="471.18,-314.55 481.76,-314.99 473.77,-308.04 471.18,-314.55"/>
</a>
</g>
</g>
<!-- Node5&#45;&gt;Node6 -->
<g id="edge6_Node000005_Node000006" class="edge">
<title>Node5&#45;&gt;Node6</title>
<g id="a_edge6_Node000005_Node000006"><a xlink:title=" ">
<path fill="none" stroke="#63b8ff" d="M583.96,-207.35C591.85,-208.35 600,-209.4 608.03,-210.42"/>
<polygon fill="#63b8ff" stroke="#63b8ff" points="607.42,-213.87 617.78,-211.67 608.31,-206.93 607.42,-213.87"/>
</a>
</g>
</g>
<!-- Node5&#45;&gt;Node7 -->
<g id="edge7_Node000005_Node000007" class="edge">
<title>Node5&#45;&gt;Node7</title>
<g id="a_edge7_Node000005_Node000007"><a xlink:title=" ">
<path fill="none" stroke="#63b8ff" d="M545.32,-210.39C567.89,-222.84 606.33,-244.04 635.53,-260.15"/>
<polygon fill="#63b8ff" stroke="#63b8ff" points="633.66,-263.12 644.11,-264.89 637.04,-256.99 633.66,-263.12"/>
</a>
</g>
</g>
<!-- Node8&#45;&gt;Node7 -->
<g id="edge9_Node000008_Node000007" class="edge">
<title>Node8&#45;&gt;Node7</title>
<g id="a_edge9_Node000008_Node000007"><a xlink:title=" ">
<path fill="none" stroke="#63b8ff" d="M575.17,-282C587.93,-282 601.85,-282 615.14,-282"/>
<polygon fill="#63b8ff" stroke="#63b8ff" points="615.09,-285.5 625.09,-282 615.09,-278.5 615.09,-285.5"/>
</a>
</g>
</g>
<!-- Node12 -->
<g id="Node000012" class="node">
<title>Node12</title>
<g id="a_Node000012"><a xlink:href="class_fiea_1_1_engine_1_1_content_1_1_datum.html#a921193447f6e42f596ac0a7694b02830" target="_top" xlink:title=" ">
<polygon fill="white" stroke="#666666" points="430.88,-132 319.62,-132 319.62,-100 430.88,-100 430.88,-132"/>
<text xml:space="preserve" text-anchor="start" x="327.62" y="-118.5" font-family="Helvetica,sans-Serif" font-size="10.00">Fiea::Engine::Content</text>
<text xml:space="preserve" text-anchor="middle" x="375.25" y="-106.5" font-family="Helvetica,sans-Serif" font-size="10.00">::Datum::Scope</text>
</a>
</g>
</g>
<!-- Node11&#45;&gt;Node12 -->
<g id="edge17_Node000011_Node000012" class="edge">
<title>Node11&#45;&gt;Node12</title>
<g id="a_edge17_Node000011_Node000012"><a xlink:title=" ">
<path fill="none" stroke="#63b8ff" d="M283.68,-116C291.67,-116 299.97,-116 308.15,-116"/>
<polygon fill="#63b8ff" stroke="#63b8ff" points="308.09,-119.5 318.09,-116 308.09,-112.5 308.09,-119.5"/>
</a>
</g>
</g>
<!-- Node12&#45;&gt;Node12 -->
<g id="edge18_Node000012_Node000012" class="edge">
<title>Node12&#45;&gt;Node12</title>
<g id="a_edge18_Node000012_Node000012"><a xlink:title=" ">
<path fill="none" stroke="#63b8ff" d="M348.89,-132.44C343.98,-141.58 352.76,-150 375.25,-150 387.55,-150 395.75,-147.48 399.85,-143.71"/>
<polygon fill="#63b8ff" stroke="#63b8ff" points="403.29,-144.36 401.37,-133.94 396.38,-143.28 403.29,-144.36"/>
</a>
</g>
</g>
</g>
</svg>
