<?xml version="1.0" encoding="UTF-8" standalone="no"?>
<!DOCTYPE svg PUBLIC "-//W3C//DTD SVG 1.1//EN"
 "http://www.w3.org/Graphics/SVG/1.1/DTD/svg11.dtd">
<!-- Generated by graphviz version 13.1.0 (20250701.0955)
 -->
<!-- Title: Fiea::Engine::Content::Datum::GetAsInt Pages: 1 -->
<svg width="298pt" height="552pt"
 viewBox="0.00 0.00 298.00 552.00" xmlns="http://www.w3.org/2000/svg" xmlns:xlink="http://www.w3.org/1999/xlink">
<g id="graph0" class="graph" transform="scale(1 1) rotate(0) translate(4 548)">
<title>Fiea::Engine::Content::Datum::GetAsInt</title>
<!-- Node1 -->
<g id="Node000001" class="node">
<title>Node1</title>
<g id="a_Node000001"><a xlink:title=" ">
<polygon fill="#999999" stroke="#666666" points="290,-282 178.75,-282 178.75,-250 290,-250 290,-282"/>
<text xml:space="preserve" text-anchor="start" x="186.75" y="-268.5" font-family="Helvetica,sans-Serif" font-size="10.00">Fiea::Engine::Content</text>
<text xml:space="preserve" text-anchor="middle" x="234.38" y="-256.5" font-family="Helvetica,sans-Serif" font-size="10.00">::Datum::GetAsInt</text>
</a>
</g>
</g>
<!-- Node2 -->
<g id="Node000002" class="node">
<title>Node2</title>
<g id="a_Node000002"><a xlink:href="class_fiea_1_1_engine_1_1_actions_1_1_action_condition.html#af38dd920cf58d8232bf86142c944fa99" target="_top" xlink:title=" ">
<polygon fill="white" stroke="#666666" points="140.5,-544 2.25,-544 2.25,-512 140.5,-512 140.5,-544"/>
<text xml:space="preserve" text-anchor="start" x="10.25" y="-530.5" font-family="Helvetica,sans-Serif" font-size="10.00">Fiea::Engine::Actions</text>
<text xml:space="preserve" text-anchor="middle" x="71.38" y="-518.5" font-family="Helvetica,sans-Serif" font-size="10.00">::ActionCondition::InitAction</text>
</a>
</g>
</g>
<!-- Node1&#45;&gt;Node2 -->
<g id="edge1_Node000001_Node000002" class="edge">
<title>Node1&#45;&gt;Node2</title>
<g id="a_edge1_Node000001_Node000002"><a xlink:title=" ">
<path fill="none" stroke="#63b8ff" d="M230.34,-293.55C223.53,-342.4 202.61,-444.56 142.75,-503 139.41,-506.26 135.62,-509.1 131.57,-511.57"/>
<polygon fill="#63b8ff" stroke="#63b8ff" points="233.79,-294.2 231.59,-283.84 226.84,-293.31 233.79,-294.2"/>
</a>
</g>
</g>
<!-- Node3 -->
<g id="Node000003" class="node">
<title>Node3</title>
<g id="a_Node000003"><a xlink:href="class_fiea_1_1_engine_1_1_actions_1_1_action_condition.html#a78fd346e5e99d3bd4523da1257b65c2c" target="_top" xlink:title=" ">
<polygon fill="white" stroke="#666666" points="142.75,-494 0,-494 0,-462 142.75,-462 142.75,-494"/>
<text xml:space="preserve" text-anchor="start" x="8" y="-480.5" font-family="Helvetica,sans-Serif" font-size="10.00">Fiea::Engine::Actions</text>
<text xml:space="preserve" text-anchor="middle" x="71.38" y="-468.5" font-family="Helvetica,sans-Serif" font-size="10.00">::ActionCondition::RunAction</text>
</a>
</g>
</g>
<!-- Node1&#45;&gt;Node3 -->
<g id="edge2_Node000001_Node000003" class="edge">
<title>Node1&#45;&gt;Node3</title>
<g id="a_edge2_Node000001_Node000003"><a xlink:title=" ">
<path fill="none" stroke="#63b8ff" d="M227.15,-293.4C216.6,-333.84 191.44,-409.39 142.75,-453 139.08,-456.29 134.95,-459.15 130.57,-461.64"/>
<polygon fill="#63b8ff" stroke="#63b8ff" points="230.54,-294.31 229.55,-283.76 223.74,-292.62 230.54,-294.31"/>
</a>
</g>
</g>
<!-- Node4 -->
<g id="Node000004" class="node">
<title>Node4</title>
<g id="a_Node000004"><a xlink:href="class_fiea_1_1_engine_1_1_actions_1_1_action_loop_increment.html#afa069fcd75025f4734e7d1eb9f136a0f" target="_top" xlink:title=" ">
<polygon fill="white" stroke="#666666" points="128.5,-444 14.25,-444 14.25,-400 128.5,-400 128.5,-444"/>
<text xml:space="preserve" text-anchor="start" x="22.25" y="-430.5" font-family="Helvetica,sans-Serif" font-size="10.00">Fiea::Engine::Actions</text>
<text xml:space="preserve" text-anchor="start" x="22.25" y="-418.5" font-family="Helvetica,sans-Serif" font-size="10.00">::ActionLoopIncrement</text>
<text xml:space="preserve" text-anchor="middle" x="71.38" y="-406.5" font-family="Helvetica,sans-Serif" font-size="10.00">::RunAction</text>
</a>
</g>
</g>
<!-- Node1&#45;&gt;Node4 -->
<g id="edge3_Node000001_Node000004" class="edge">
<title>Node1&#45;&gt;Node4</title>
<g id="a_edge3_Node000001_Node000004"><a xlink:title=" ">
<path fill="none" stroke="#63b8ff" d="M219.94,-292.11C204.54,-319.83 176.96,-363.38 142.75,-391 138.49,-394.44 133.79,-397.57 128.9,-400.41"/>
<polygon fill="#63b8ff" stroke="#63b8ff" points="222.83,-294.12 224.51,-283.65 216.68,-290.78 222.83,-294.12"/>
</a>
</g>
</g>
<!-- Node5 -->
<g id="Node000005" class="node">
<title>Node5</title>
<g id="a_Node000005"><a xlink:href="namespace_fiea_1_1_engine_1_1_tests.html#a7f5c7835a1ebaa98c6d49380ec86f0ba" target="_top" xlink:title=" ">
<polygon fill="white" stroke="#666666" points="121.75,-382 21,-382 21,-350 121.75,-350 121.75,-382"/>
<text xml:space="preserve" text-anchor="start" x="29" y="-368.5" font-family="Helvetica,sans-Serif" font-size="10.00">Fiea::Engine::Tests</text>
<text xml:space="preserve" text-anchor="middle" x="71.38" y="-356.5" font-family="Helvetica,sans-Serif" font-size="10.00">::TEST_CLASS</text>
</a>
</g>
</g>
<!-- Node1&#45;&gt;Node5 -->
<g id="edge4_Node000001_Node000005" class="edge">
<title>Node1&#45;&gt;Node5</title>
<g id="a_edge4_Node000001_Node000005"><a xlink:title=" ">
<path fill="none" stroke="#63b8ff" d="M209.44,-289.82C192.11,-306.01 167.48,-326.96 142.75,-341 136.32,-344.65 129.27,-347.91 122.19,-350.78"/>
<polygon fill="#63b8ff" stroke="#63b8ff" points="211.41,-292.78 216.23,-283.35 206.58,-287.71 211.41,-292.78"/>
</a>
</g>
</g>
<!-- Node6 -->
<g id="Node000006" class="node">
<title>Node6</title>
<g id="a_Node000006"><a xlink:href="namespace_fiea_1_1_engine_1_1_tests.html#aaa7584a8b305871c6cc1d1144266a08f" target="_top" xlink:title=" ">
<polygon fill="white" stroke="#666666" points="121.75,-332 21,-332 21,-300 121.75,-300 121.75,-332"/>
<text xml:space="preserve" text-anchor="start" x="29" y="-318.5" font-family="Helvetica,sans-Serif" font-size="10.00">Fiea::Engine::Tests</text>
<text xml:space="preserve" text-anchor="middle" x="71.38" y="-306.5" font-family="Helvetica,sans-Serif" font-size="10.00">::TEST_CLASS</text>
</a>
</g>
</g>
<!-- Node1&#45;&gt;Node6 -->
<g id="edge5_Node000001_Node000006" class="edge">
<title>Node1&#45;&gt;Node6</title>
<g id="a_edge5_Node000001_Node000006"><a xlink:title=" ">
<path fill="none" stroke="#63b8ff" d="M169.87,-285.72C154.03,-290.64 137.28,-295.84 122.2,-300.53"/>
<polygon fill="#63b8ff" stroke="#63b8ff" points="170.7,-289.13 179.21,-282.82 168.62,-282.44 170.7,-289.13"/>
</a>
</g>
</g>
<!-- Node7 -->
<g id="Node000007" class="node">
<title>Node7</title>
<g id="a_Node000007"><a xlink:href="namespace_fiea_1_1_engine_1_1_tests.html#ad7d06bf277bf903f5dbc3982540b1563" target="_top" xlink:title=" ">
<polygon fill="white" stroke="#666666" points="121.75,-282 21,-282 21,-250 121.75,-250 121.75,-282"/>
<text xml:space="preserve" text-anchor="start" x="29" y="-268.5" font-family="Helvetica,sans-Serif" font-size="10.00">Fiea::Engine::Tests</text>
<text xml:space="preserve" text-anchor="middle" x="71.38" y="-256.5" font-family="Helvetica,sans-Serif" font-size="10.00">::TEST_CLASS</text>
</a>
</g>
</g>
<!-- Node1&#45;&gt;Node7 -->
<g id="edge6_Node000001_Node000007" class="edge">
<title>Node1&#45;&gt;Node7</title>
<g id="a_edge6_Node000001_Node000007"><a xlink:title=" ">
<path fill="none" stroke="#63b8ff" d="M167.11,-266C152.1,-266 136.41,-266 122.22,-266"/>
<polygon fill="#63b8ff" stroke="#63b8ff" points="166.9,-269.5 176.9,-266 166.9,-262.5 166.9,-269.5"/>
</a>
</g>
</g>
<!-- Node8 -->
<g id="Node000008" class="node">
<title>Node8</title>
<g id="a_Node000008"><a xlink:href="namespace_fiea_1_1_engine_1_1_tests.html#a3cdcf27a81b8b07fd7e0f633fb413ca8" target="_top" xlink:title=" ">
<polygon fill="white" stroke="#666666" points="121.75,-232 21,-232 21,-200 121.75,-200 121.75,-232"/>
<text xml:space="preserve" text-anchor="start" x="29" y="-218.5" font-family="Helvetica,sans-Serif" font-size="10.00">Fiea::Engine::Tests</text>
<text xml:space="preserve" text-anchor="middle" x="71.38" y="-206.5" font-family="Helvetica,sans-Serif" font-size="10.00">::TEST_CLASS</text>
</a>
</g>
</g>
<!-- Node1&#45;&gt;Node8 -->
<g id="edge7_Node000001_Node000008" class="edge">
<title>Node1&#45;&gt;Node8</title>
<g id="a_edge7_Node000001_Node000008"><a xlink:title=" ">
<path fill="none" stroke="#63b8ff" d="M169.87,-246.28C154.03,-241.36 137.28,-236.16 122.2,-231.47"/>
<polygon fill="#63b8ff" stroke="#63b8ff" points="168.62,-249.56 179.21,-249.18 170.7,-242.87 168.62,-249.56"/>
</a>
</g>
</g>
<!-- Node9 -->
<g id="Node000009" class="node">
<title>Node9</title>
<g id="a_Node000009"><a xlink:href="namespace_fiea_1_1_engine_1_1_tests.html#a15040015fac83efdce86366a293948ae" target="_top" xlink:title=" ">
<polygon fill="white" stroke="#666666" points="121.75,-182 21,-182 21,-150 121.75,-150 121.75,-182"/>
<text xml:space="preserve" text-anchor="start" x="29" y="-168.5" font-family="Helvetica,sans-Serif" font-size="10.00">Fiea::Engine::Tests</text>
<text xml:space="preserve" text-anchor="middle" x="71.38" y="-156.5" font-family="Helvetica,sans-Serif" font-size="10.00">::TEST_CLASS</text>
</a>
</g>
</g>
<!-- Node1&#45;&gt;Node9 -->
<g id="edge8_Node000001_Node000009" class="edge">
<title>Node1&#45;&gt;Node9</title>
<g id="a_edge8_Node000001_Node000009"><a xlink:title=" ">
<path fill="none" stroke="#63b8ff" d="M209.44,-242.18C192.11,-225.99 167.48,-205.04 142.75,-191 136.32,-187.35 129.27,-184.09 122.19,-181.22"/>
<polygon fill="#63b8ff" stroke="#63b8ff" points="206.58,-244.29 216.23,-248.65 211.41,-239.22 206.58,-244.29"/>
</a>
</g>
</g>
<!-- Node10 -->
<g id="Node000010" class="node">
<title>Node10</title>
<g id="a_Node000010"><a xlink:href="namespace_fiea_1_1_engine_1_1_tests.html#a68f566c6aeab43c3e521cc48e0c08362" target="_top" xlink:title=" ">
<polygon fill="white" stroke="#666666" points="121.75,-132 21,-132 21,-100 121.75,-100 121.75,-132"/>
<text xml:space="preserve" text-anchor="start" x="29" y="-118.5" font-family="Helvetica,sans-Serif" font-size="10.00">Fiea::Engine::Tests</text>
<text xml:space="preserve" text-anchor="middle" x="71.38" y="-106.5" font-family="Helvetica,sans-Serif" font-size="10.00">::TEST_CLASS</text>
</a>
</g>
</g>
<!-- Node1&#45;&gt;Node10 -->
<g id="edge9_Node000001_Node000010" class="edge">
<title>Node1&#45;&gt;Node10</title>
<g id="a_edge9_Node000001_Node000010"><a xlink:title=" ">
<path fill="none" stroke="#63b8ff" d="M220.57,-239.85C205.55,-211.73 178.15,-167.49 142.75,-141 136.52,-136.34 129.35,-132.49 122.01,-129.33"/>
<polygon fill="#63b8ff" stroke="#63b8ff" points="217.3,-241.16 225.01,-248.43 223.52,-237.94 217.3,-241.16"/>
</a>
</g>
</g>
<!-- Node11 -->
<g id="Node000011" class="node">
<title>Node11</title>
<g id="a_Node000011"><a xlink:href="namespace_fiea_1_1_engine_1_1_tests.html#a89b054e30b186f60d7f23c17503265da" target="_top" xlink:title=" ">
<polygon fill="white" stroke="#666666" points="121.75,-82 21,-82 21,-50 121.75,-50 121.75,-82"/>
<text xml:space="preserve" text-anchor="start" x="29" y="-68.5" font-family="Helvetica,sans-Serif" font-size="10.00">Fiea::Engine::Tests</text>
<text xml:space="preserve" text-anchor="middle" x="71.38" y="-56.5" font-family="Helvetica,sans-Serif" font-size="10.00">::TEST_CLASS</text>
</a>
</g>
</g>
<!-- Node1&#45;&gt;Node11 -->
<g id="edge10_Node000001_Node000011" class="edge">
<title>Node1&#45;&gt;Node11</title>
<g id="a_edge10_Node000001_Node000011"><a xlink:title=" ">
<path fill="none" stroke="#63b8ff" d="M226.24,-238.94C214.82,-200.76 188.9,-131.25 142.75,-91 136.69,-85.72 129.44,-81.53 121.93,-78.21"/>
<polygon fill="#63b8ff" stroke="#63b8ff" points="222.79,-239.61 228.9,-248.26 229.52,-237.69 222.79,-239.61"/>
</a>
</g>
</g>
<!-- Node12 -->
<g id="Node000012" class="node">
<title>Node12</title>
<g id="a_Node000012"><a xlink:href="namespace_fiea_1_1_engine_1_1_tests.html#ad3e53e7e3f072321bc7199970c619c1d" target="_top" xlink:title=" ">
<polygon fill="white" stroke="#666666" points="121.75,-32 21,-32 21,0 121.75,0 121.75,-32"/>
<text xml:space="preserve" text-anchor="start" x="29" y="-18.5" font-family="Helvetica,sans-Serif" font-size="10.00">Fiea::Engine::Tests</text>
<text xml:space="preserve" text-anchor="middle" x="71.38" y="-6.5" font-family="Helvetica,sans-Serif" font-size="10.00">::TEST_CLASS</text>
</a>
</g>
</g>
<!-- Node1&#45;&gt;Node12 -->
<g id="edge11_Node000001_Node000012" class="edge">
<title>Node1&#45;&gt;Node12</title>
<g id="a_edge11_Node000001_Node000012"><a xlink:title=" ">
<path fill="none" stroke="#63b8ff" d="M229.7,-238.5C222.01,-191.59 199.92,-95.84 142.75,-41 136.86,-35.35 129.6,-30.96 122.01,-27.56"/>
<polygon fill="#63b8ff" stroke="#63b8ff" points="226.19,-238.73 231.16,-248.09 233.11,-237.67 226.19,-238.73"/>
</a>
</g>
</g>
</g>
</svg>
