<?xml version="1.0" encoding="UTF-8" standalone="no"?>
<!DOCTYPE svg PUBLIC "-//W3C//DTD SVG 1.1//EN"
 "http://www.w3.org/Graphics/SVG/1.1/DTD/svg11.dtd">
<!-- Generated by graphviz version 13.1.0 (20250701.0955)
 -->
<!-- Title: Fiea::Engine::Actions::ActionCondition::operator= Pages: 1 -->
<svg width="943pt" height="220pt"
 viewBox="0.00 0.00 943.00 220.00" xmlns="http://www.w3.org/2000/svg" xmlns:xlink="http://www.w3.org/1999/xlink">
<g id="graph0" class="graph" transform="scale(1 1) rotate(0) translate(4 216)">
<title>Fiea::Engine::Actions::ActionCondition::operator=</title>
<!-- Node1 -->
<g id="Node000001" class="node">
<title>Node1</title>
<g id="a_Node000001"><a xlink:title=" ">
<polygon fill="#999999" stroke="#666666" points="138.25,-148 0,-148 0,-116 138.25,-116 138.25,-148"/>
<text xml:space="preserve" text-anchor="start" x="8" y="-134.5" font-family="Helvetica,sans-Serif" font-size="10.00">Fiea::Engine::Actions</text>
<text xml:space="preserve" text-anchor="middle" x="69.12" y="-122.5" font-family="Helvetica,sans-Serif" font-size="10.00">::ActionCondition::operator=</text>
</a>
</g>
</g>
<!-- Node2 -->
<g id="Node000002" class="node">
<title>Node2</title>
<g id="a_Node000002"><a xlink:href="class_fiea_1_1_engine_1_1_actions_1_1_action_condition.html#a76c8e4fde56f94348f657fcd63d23446" target="_top" xlink:title=" ">
<polygon fill="white" stroke="#666666" points="340.25,-148 174.25,-148 174.25,-116 340.25,-116 340.25,-148"/>
<text xml:space="preserve" text-anchor="start" x="182.25" y="-134.5" font-family="Helvetica,sans-Serif" font-size="10.00">Fiea::Engine::Actions</text>
<text xml:space="preserve" text-anchor="middle" x="257.25" y="-122.5" font-family="Helvetica,sans-Serif" font-size="10.00">::ActionCondition::ActionCondition</text>
</a>
</g>
</g>
<!-- Node1&#45;&gt;Node2 -->
<g id="edge1_Node000001_Node000002" class="edge">
<title>Node1&#45;&gt;Node2</title>
<g id="a_edge1_Node000001_Node000002"><a xlink:title=" ">
<path fill="none" stroke="#63b8ff" d="M138.64,-132C146.46,-132 154.53,-132 162.6,-132"/>
<polygon fill="#63b8ff" stroke="#63b8ff" points="162.48,-135.5 172.48,-132 162.48,-128.5 162.48,-135.5"/>
</a>
</g>
</g>
<!-- Node3 -->
<g id="Node000003" class="node">
<title>Node3</title>
<g id="a_Node000003"><a xlink:href="class_fiea_1_1_engine_1_1_actions_1_1_action.html#ae2af386f7122152003b00da79393e19e" target="_top" xlink:title=" ">
<polygon fill="white" stroke="#666666" points="486,-170 376.25,-170 376.25,-138 486,-138 486,-170"/>
<text xml:space="preserve" text-anchor="start" x="384.25" y="-156.5" font-family="Helvetica,sans-Serif" font-size="10.00">Fiea::Engine::Actions</text>
<text xml:space="preserve" text-anchor="middle" x="431.12" y="-144.5" font-family="Helvetica,sans-Serif" font-size="10.00">::Action::Action</text>
</a>
</g>
</g>
<!-- Node2&#45;&gt;Node3 -->
<g id="edge2_Node000002_Node000003" class="edge">
<title>Node2&#45;&gt;Node3</title>
<g id="a_edge2_Node000002_Node000003"><a xlink:title=" ">
<path fill="none" stroke="#63b8ff" d="M340.66,-142.55C348.77,-143.59 356.91,-144.63 364.81,-145.64"/>
<polygon fill="#63b8ff" stroke="#63b8ff" points="364.31,-149.1 374.67,-146.9 365.2,-142.16 364.31,-149.1"/>
</a>
</g>
</g>
<!-- Node5 -->
<g id="Node000005" class="node">
<title>Node5</title>
<g id="a_Node000005"><a xlink:href="class_fiea_1_1_engine_1_1_r_t_t_i.html#a876bebbe7b3149483c43a87f55f4ea99" target="_top" xlink:title=" ">
<polygon fill="white" stroke="#666666" points="627.25,-126 528.75,-126 528.75,-94 627.25,-94 627.25,-126"/>
<text xml:space="preserve" text-anchor="start" x="536.75" y="-112.5" font-family="Helvetica,sans-Serif" font-size="10.00">Fiea::Engine::RTTI</text>
<text xml:space="preserve" text-anchor="middle" x="578" y="-100.5" font-family="Helvetica,sans-Serif" font-size="10.00">::TypeIdInstance</text>
</a>
</g>
</g>
<!-- Node2&#45;&gt;Node5 -->
<g id="edge15_Node000002_Node000005" class="edge">
<title>Node2&#45;&gt;Node5</title>
<g id="a_edge15_Node000002_Node000005"><a xlink:title=" ">
<path fill="none" stroke="#63b8ff" d="M340.34,-126.33C395.61,-122.52 467.25,-117.57 517.17,-114.13"/>
<polygon fill="#63b8ff" stroke="#63b8ff" points="517.17,-117.64 526.91,-113.46 516.69,-110.65 517.17,-117.64"/>
</a>
</g>
</g>
<!-- Node4 -->
<g id="Node000004" class="node">
<title>Node4</title>
<g id="a_Node000004"><a xlink:href="class_fiea_1_1_engine_1_1_content_1_1_attributed.html#ad1ae014235d9d8b62b36066c94164148" target="_top" xlink:title=" ">
<polygon fill="white" stroke="#666666" points="634,-194 522,-194 522,-162 634,-162 634,-194"/>
<text xml:space="preserve" text-anchor="start" x="530" y="-180.5" font-family="Helvetica,sans-Serif" font-size="10.00">Fiea::Engine::Content</text>
<text xml:space="preserve" text-anchor="middle" x="578" y="-168.5" font-family="Helvetica,sans-Serif" font-size="10.00">::Attributed::Attributed</text>
</a>
</g>
</g>
<!-- Node3&#45;&gt;Node4 -->
<g id="edge3_Node000003_Node000004" class="edge">
<title>Node3&#45;&gt;Node4</title>
<g id="a_edge3_Node000003_Node000004"><a xlink:title=" ">
<path fill="none" stroke="#63b8ff" d="M486.48,-163C494.34,-164.31 502.5,-165.66 510.57,-166.99"/>
<polygon fill="#63b8ff" stroke="#63b8ff" points="509.92,-170.44 520.36,-168.62 511.07,-163.53 509.92,-170.44"/>
</a>
</g>
</g>
<!-- Node3&#45;&gt;Node5 -->
<g id="edge5_Node000003_Node000005" class="edge">
<title>Node3&#45;&gt;Node5</title>
<g id="a_edge5_Node000003_Node000005"><a xlink:title=" ">
<path fill="none" stroke="#63b8ff" d="M486.07,-137.62C496.34,-134.5 507.14,-131.22 517.57,-128.05"/>
<polygon fill="#63b8ff" stroke="#63b8ff" points="518.27,-131.5 526.82,-125.24 516.23,-124.8 518.27,-131.5"/>
</a>
</g>
</g>
<!-- Node4&#45;&gt;Node4 -->
<g id="edge4_Node000004_Node000004" class="edge">
<title>Node4&#45;&gt;Node4</title>
<g id="a_edge4_Node000004_Node000004"><a xlink:title=" ">
<path fill="none" stroke="#63b8ff" d="M551.78,-194.44C546.88,-203.58 555.62,-212 578,-212 590.24,-212 598.4,-209.48 602.48,-205.71"/>
<polygon fill="#63b8ff" stroke="#63b8ff" points="605.92,-206.36 603.99,-195.94 599,-205.28 605.92,-206.36"/>
</a>
</g>
</g>
<!-- Node5&#45;&gt;Node5 -->
<g id="edge14_Node000005_Node000005" class="edge">
<title>Node5&#45;&gt;Node5</title>
<g id="a_edge14_Node000005_Node000005"><a xlink:title=" ">
<path fill="none" stroke="#63b8ff" d="M551.78,-126.44C546.88,-135.58 555.62,-144 578,-144 590.24,-144 598.4,-141.48 602.48,-137.71"/>
<polygon fill="#63b8ff" stroke="#63b8ff" points="605.92,-138.36 603.99,-127.94 599,-137.28 605.92,-138.36"/>
</a>
</g>
</g>
<!-- Node6 -->
<g id="Node000006" class="node">
<title>Node6</title>
<g id="a_Node000006"><a xlink:href="class_fiea_1_1_engine_1_1_r_t_t_i.html#a15bd5993c8ad04da47af440298ebbb30" target="_top" xlink:title=" ">
<polygon fill="white" stroke="#666666" points="786.5,-158 670,-158 670,-138 786.5,-138 786.5,-158"/>
<text xml:space="preserve" text-anchor="middle" x="728.25" y="-144.5" font-family="Helvetica,sans-Serif" font-size="10.00">Fiea::Engine::RTTI::As</text>
</a>
</g>
</g>
<!-- Node5&#45;&gt;Node6 -->
<g id="edge6_Node000005_Node000006" class="edge">
<title>Node5&#45;&gt;Node6</title>
<g id="a_edge6_Node000005_Node000006"><a xlink:title=" ">
<path fill="none" stroke="#63b8ff" d="M627.54,-122.44C642.9,-126.38 659.93,-130.74 675.5,-134.74"/>
<polygon fill="#63b8ff" stroke="#63b8ff" points="674.52,-138.1 685.07,-137.19 676.25,-131.32 674.52,-138.1"/>
</a>
</g>
</g>
<!-- Node7 -->
<g id="Node000007" class="node">
<title>Node7</title>
<g id="a_Node000007"><a xlink:href="class_fiea_1_1_engine_1_1_r_t_t_i.html#ac0a7d875e4513b2aca7594abcd4418ef" target="_top" xlink:title=" ">
<polygon fill="white" stroke="#666666" points="935.25,-180 822.5,-180 822.5,-160 935.25,-160 935.25,-180"/>
<text xml:space="preserve" text-anchor="middle" x="878.88" y="-166.5" font-family="Helvetica,sans-Serif" font-size="10.00">Fiea::Engine::RTTI::Is</text>
</a>
</g>
</g>
<!-- Node5&#45;&gt;Node7 -->
<g id="edge11_Node000005_Node000007" class="edge">
<title>Node5&#45;&gt;Node7</title>
<g id="a_edge11_Node000005_Node000007"><a xlink:title=" ">
<path fill="none" stroke="#63b8ff" d="M598.05,-126.34C615.48,-140.14 642.64,-158.93 670,-167 715.72,-180.5 769.6,-180.86 811.05,-178.06"/>
<polygon fill="#63b8ff" stroke="#63b8ff" points="811.18,-181.56 820.88,-177.31 810.64,-174.58 811.18,-181.56"/>
</a>
</g>
</g>
<!-- Node8 -->
<g id="Node000008" class="node">
<title>Node8</title>
<g id="a_Node000008"><a xlink:href="class_fiea_1_1_engine_1_1_r_t_t_i.html#a13000029a2e6cced30b831e466e07cae" target="_top" xlink:title=" ">
<polygon fill="white" stroke="#666666" points="928.12,-126 829.62,-126 829.62,-94 928.12,-94 928.12,-126"/>
<text xml:space="preserve" text-anchor="start" x="837.62" y="-112.5" font-family="Helvetica,sans-Serif" font-size="10.00">Fiea::Engine::RTTI</text>
<text xml:space="preserve" text-anchor="middle" x="878.88" y="-100.5" font-family="Helvetica,sans-Serif" font-size="10.00">::RTTI</text>
</a>
</g>
</g>
<!-- Node5&#45;&gt;Node8 -->
<g id="edge12_Node000005_Node000008" class="edge">
<title>Node5&#45;&gt;Node8</title>
<g id="a_edge12_Node000005_Node000008"><a xlink:title=" ">
<path fill="none" stroke="#63b8ff" d="M627.68,-110C679.57,-110 761.79,-110 817.7,-110"/>
<polygon fill="#63b8ff" stroke="#63b8ff" points="817.7,-113.5 827.7,-110 817.7,-106.5 817.7,-113.5"/>
</a>
</g>
</g>
<!-- Node9 -->
<g id="Node000009" class="node">
<title>Node9</title>
<g id="a_Node000009"><a xlink:href="class_fiea_1_1_engine_1_1_r_t_t_i.html#a7f70ad5ba0f8a3388543d63d72892575" target="_top" xlink:title=" ">
<polygon fill="white" stroke="#666666" points="777.5,-82 679,-82 679,-50 777.5,-50 777.5,-82"/>
<text xml:space="preserve" text-anchor="start" x="687" y="-68.5" font-family="Helvetica,sans-Serif" font-size="10.00">Fiea::Engine::RTTI</text>
<text xml:space="preserve" text-anchor="middle" x="728.25" y="-56.5" font-family="Helvetica,sans-Serif" font-size="10.00">::Equals</text>
</a>
</g>
</g>
<!-- Node5&#45;&gt;Node9 -->
<g id="edge9_Node000005_Node000009" class="edge">
<title>Node5&#45;&gt;Node9</title>
<g id="a_edge9_Node000005_Node000009"><a xlink:title=" ">
<path fill="none" stroke="#63b8ff" d="M627.54,-95.59C640.34,-91.79 654.3,-87.65 667.61,-83.7"/>
<polygon fill="#63b8ff" stroke="#63b8ff" points="668.56,-87.07 677.15,-80.87 666.56,-80.36 668.56,-87.07"/>
</a>
</g>
</g>
<!-- Node10 -->
<g id="Node000010" class="node">
<title>Node10</title>
<g id="a_Node000010"><a xlink:href="class_fiea_1_1_engine_1_1_r_t_t_i.html#a43a7d187e332a17d2c699bc2c8136a30" target="_top" xlink:title=" ">
<polygon fill="white" stroke="#666666" points="777.5,-32 679,-32 679,0 777.5,0 777.5,-32"/>
<text xml:space="preserve" text-anchor="start" x="687" y="-18.5" font-family="Helvetica,sans-Serif" font-size="10.00">Fiea::Engine::RTTI</text>
<text xml:space="preserve" text-anchor="middle" x="728.25" y="-6.5" font-family="Helvetica,sans-Serif" font-size="10.00">::ToString</text>
</a>
</g>
</g>
<!-- Node5&#45;&gt;Node10 -->
<g id="edge13_Node000005_Node000010" class="edge">
<title>Node5&#45;&gt;Node10</title>
<g id="a_edge13_Node000005_Node000010"><a xlink:title=" ">
<path fill="none" stroke="#63b8ff" d="M597.94,-93.51C615.72,-78.56 643.49,-56.54 670,-41 672.01,-39.82 674.09,-38.66 676.2,-37.53"/>
<polygon fill="#63b8ff" stroke="#63b8ff" points="677.59,-40.75 684.96,-33.13 674.45,-34.5 677.59,-40.75"/>
</a>
</g>
</g>
<!-- Node6&#45;&gt;Node7 -->
<g id="edge7_Node000006_Node000007" class="edge">
<title>Node6&#45;&gt;Node7</title>
<g id="a_edge7_Node000006_Node000007"><a xlink:title=" ">
<path fill="none" stroke="#63b8ff" d="M786.71,-156.51C794.6,-157.67 802.75,-158.88 810.78,-160.07"/>
<polygon fill="#63b8ff" stroke="#63b8ff" points="810.13,-163.51 820.53,-161.51 811.16,-156.59 810.13,-163.51"/>
</a>
</g>
</g>
<!-- Node6&#45;&gt;Node8 -->
<g id="edge8_Node000006_Node000008" class="edge">
<title>Node6&#45;&gt;Node8</title>
<g id="a_edge8_Node000006_Node000008"><a xlink:title=" ">
<path fill="none" stroke="#63b8ff" d="M770.26,-137.52C785.13,-133.71 802.24,-129.34 818.38,-125.21"/>
<polygon fill="#63b8ff" stroke="#63b8ff" points="819.07,-128.65 827.89,-122.78 817.34,-121.87 819.07,-128.65"/>
</a>
</g>
</g>
<!-- Node9&#45;&gt;Node8 -->
<g id="edge10_Node000009_Node000008" class="edge">
<title>Node9&#45;&gt;Node8</title>
<g id="a_edge10_Node000009_Node000008"><a xlink:title=" ">
<path fill="none" stroke="#63b8ff" d="M777.92,-80.41C790.94,-84.26 805.17,-88.47 818.69,-92.48"/>
<polygon fill="#63b8ff" stroke="#63b8ff" points="817.32,-95.72 827.9,-95.21 819.31,-89.01 817.32,-95.72"/>
</a>
</g>
</g>
</g>
</svg>
