<?xml version="1.0" encoding="UTF-8" standalone="no"?>
<!DOCTYPE svg PUBLIC "-//W3C//DTD SVG 1.1//EN"
 "http://www.w3.org/Graphics/SVG/1.1/DTD/svg11.dtd">
<!-- Generated by graphviz version 13.1.0 (20250701.0955)
 -->
<!-- Title: Fiea::Engine::Actions::ActionDecrement::ActionDecrement Pages: 1 -->
<svg width="403pt" height="190pt"
 viewBox="0.00 0.00 403.00 190.00" xmlns="http://www.w3.org/2000/svg" xmlns:xlink="http://www.w3.org/1999/xlink">
<g id="graph0" class="graph" transform="scale(1 1) rotate(0) translate(4 186)">
<title>Fiea::Engine::Actions::ActionDecrement::ActionDecrement</title>
<!-- Node1 -->
<g id="Node000001" class="node">
<title>Node1</title>
<g id="a_Node000001"><a xlink:title=" ">
<polygon fill="#999999" stroke="#666666" points="395,-107 215.5,-107 215.5,-75 395,-75 395,-107"/>
<text xml:space="preserve" text-anchor="start" x="223.5" y="-93.5" font-family="Helvetica,sans-Serif" font-size="10.00">Fiea::Engine::Actions</text>
<text xml:space="preserve" text-anchor="middle" x="305.25" y="-81.5" font-family="Helvetica,sans-Serif" font-size="10.00">::ActionDecrement::ActionDecrement</text>
</a>
</g>
</g>
<!-- Node2 -->
<g id="Node000002" class="node">
<title>Node2</title>
<g id="a_Node000002"><a xlink:href="class_fiea_1_1_engine_1_1_actions_1_1_action_decrement.html#a5bac3b761536aea6242eeff37e8f6ff4" target="_top" xlink:title=" ">
<polygon fill="white" stroke="#666666" points="179.5,-182 0,-182 0,-150 179.5,-150 179.5,-182"/>
<text xml:space="preserve" text-anchor="start" x="8" y="-168.5" font-family="Helvetica,sans-Serif" font-size="10.00">Fiea::Engine::Actions</text>
<text xml:space="preserve" text-anchor="middle" x="89.75" y="-156.5" font-family="Helvetica,sans-Serif" font-size="10.00">::ActionDecrement::ActionDecrement</text>
</a>
</g>
</g>
<!-- Node1&#45;&gt;Node2 -->
<g id="edge1_Node000001_Node000002" class="edge">
<title>Node1&#45;&gt;Node2</title>
<g id="a_edge1_Node000001_Node000002"><a xlink:title=" ">
<path fill="none" stroke="#63b8ff" d="M255.67,-111.87C232.78,-121.34 204.96,-132.34 179.5,-141 170.71,-143.99 161.35,-146.91 152.12,-149.63"/>
<polygon fill="#63b8ff" stroke="#63b8ff" points="256.87,-115.16 264.75,-108.08 254.18,-108.7 256.87,-115.16"/>
</a>
</g>
</g>
<!-- Node3 -->
<g id="Node000003" class="node">
<title>Node3</title>
<g id="a_Node000003"><a xlink:href="class_fiea_1_1_engine_1_1_actions_1_1_action_decrement.html#a4294a20863c3c77a89425a8c0e39e357" target="_top" xlink:title=" ">
<polygon fill="white" stroke="#666666" points="179.5,-132 0,-132 0,-100 179.5,-100 179.5,-132"/>
<text xml:space="preserve" text-anchor="start" x="8" y="-118.5" font-family="Helvetica,sans-Serif" font-size="10.00">Fiea::Engine::Actions</text>
<text xml:space="preserve" text-anchor="middle" x="89.75" y="-106.5" font-family="Helvetica,sans-Serif" font-size="10.00">::ActionDecrement::ActionDecrement</text>
</a>
</g>
</g>
<!-- Node1&#45;&gt;Node3 -->
<g id="edge2_Node000001_Node000003" class="edge">
<title>Node1&#45;&gt;Node3</title>
<g id="a_edge2_Node000001_Node000003"><a xlink:title=" ">
<path fill="none" stroke="#63b8ff" d="M203.97,-102.74C195.95,-103.68 187.88,-104.63 179.95,-105.56"/>
<polygon fill="#63b8ff" stroke="#63b8ff" points="204.22,-106.24 213.75,-101.6 203.41,-99.28 204.22,-106.24"/>
</a>
</g>
</g>
<!-- Node4 -->
<g id="Node000004" class="node">
<title>Node4</title>
<g id="a_Node000004"><a xlink:href="class_fiea_1_1_engine_1_1_actions_1_1_action_decrement.html#a7b73aa06629cd2601301f41fdc124159" target="_top" xlink:title=" ">
<polygon fill="white" stroke="#666666" points="162.25,-82 17.25,-82 17.25,-50 162.25,-50 162.25,-82"/>
<text xml:space="preserve" text-anchor="start" x="25.25" y="-68.5" font-family="Helvetica,sans-Serif" font-size="10.00">Fiea::Engine::Actions</text>
<text xml:space="preserve" text-anchor="middle" x="89.75" y="-56.5" font-family="Helvetica,sans-Serif" font-size="10.00">::ActionDecrement::operator=</text>
</a>
</g>
</g>
<!-- Node1&#45;&gt;Node4 -->
<g id="edge3_Node000001_Node000004" class="edge">
<title>Node1&#45;&gt;Node4</title>
<g id="a_edge3_Node000001_Node000004"><a xlink:title=" ">
<path fill="none" stroke="#63b8ff" d="M204.11,-79.27C190.14,-77.64 176.03,-75.99 162.72,-74.43"/>
<polygon fill="#63b8ff" stroke="#63b8ff" points="203.41,-82.72 213.75,-80.4 204.22,-75.76 203.41,-82.72"/>
</a>
</g>
</g>
<!-- Node5 -->
<g id="Node000005" class="node">
<title>Node5</title>
<g id="a_Node000005"><a xlink:href="class_fiea_1_1_engine_1_1_actions_1_1_action_decrement.html#ac218a6d08b08f687767ed94552198dad" target="_top" xlink:title=" ">
<polygon fill="white" stroke="#666666" points="162.25,-32 17.25,-32 17.25,0 162.25,0 162.25,-32"/>
<text xml:space="preserve" text-anchor="start" x="25.25" y="-18.5" font-family="Helvetica,sans-Serif" font-size="10.00">Fiea::Engine::Actions</text>
<text xml:space="preserve" text-anchor="middle" x="89.75" y="-6.5" font-family="Helvetica,sans-Serif" font-size="10.00">::ActionDecrement::operator=</text>
</a>
</g>
</g>
<!-- Node1&#45;&gt;Node5 -->
<g id="edge4_Node000001_Node000005" class="edge">
<title>Node1&#45;&gt;Node5</title>
<g id="a_edge4_Node000001_Node000005"><a xlink:title=" ">
<path fill="none" stroke="#63b8ff" d="M255.67,-70.13C232.78,-60.66 204.96,-49.66 179.5,-41 170.71,-38.01 161.35,-35.09 152.12,-32.37"/>
<polygon fill="#63b8ff" stroke="#63b8ff" points="254.18,-73.3 264.75,-73.92 256.87,-66.84 254.18,-73.3"/>
</a>
</g>
</g>
</g>
</svg>
