<?xml version="1.0" encoding="UTF-8" standalone="no"?>
<!DOCTYPE svg PUBLIC "-//W3C//DTD SVG 1.1//EN"
 "http://www.w3.org/Graphics/SVG/1.1/DTD/svg11.dtd">
<!-- Generated by graphviz version 13.1.0 (20250701.0955)
 -->
<!-- Title: Fiea::Engine::Content::Datum::GetAsFloat Pages: 1 -->
<svg width="305pt" height="652pt"
 viewBox="0.00 0.00 305.00 652.00" xmlns="http://www.w3.org/2000/svg" xmlns:xlink="http://www.w3.org/1999/xlink">
<g id="graph0" class="graph" transform="scale(1 1) rotate(0) translate(4 648)">
<title>Fiea::Engine::Content::Datum::GetAsFloat</title>
<!-- Node1 -->
<g id="Node000001" class="node">
<title>Node1</title>
<g id="a_Node000001"><a xlink:title=" ">
<polygon fill="#999999" stroke="#666666" points="296.75,-332 185.5,-332 185.5,-300 296.75,-300 296.75,-332"/>
<text xml:space="preserve" text-anchor="start" x="193.5" y="-318.5" font-family="Helvetica,sans-Serif" font-size="10.00">Fiea::Engine::Content</text>
<text xml:space="preserve" text-anchor="middle" x="241.12" y="-306.5" font-family="Helvetica,sans-Serif" font-size="10.00">::Datum::GetAsFloat</text>
</a>
</g>
</g>
<!-- Node2 -->
<g id="Node000002" class="node">
<title>Node2</title>
<g id="a_Node000002"><a xlink:href="class_fiea_1_1_engine_1_1_actions_1_1_action_condition.html#af38dd920cf58d8232bf86142c944fa99" target="_top" xlink:title=" ">
<polygon fill="white" stroke="#666666" points="143.88,-644 5.62,-644 5.62,-612 143.88,-612 143.88,-644"/>
<text xml:space="preserve" text-anchor="start" x="13.62" y="-630.5" font-family="Helvetica,sans-Serif" font-size="10.00">Fiea::Engine::Actions</text>
<text xml:space="preserve" text-anchor="middle" x="74.75" y="-618.5" font-family="Helvetica,sans-Serif" font-size="10.00">::ActionCondition::InitAction</text>
</a>
</g>
</g>
<!-- Node1&#45;&gt;Node2 -->
<g id="edge1_Node000001_Node000002" class="edge">
<title>Node1&#45;&gt;Node2</title>
<g id="a_edge1_Node000001_Node000002"><a xlink:title=" ">
<path fill="none" stroke="#63b8ff" d="M239.36,-343.35C236.3,-399.71 221.36,-529.61 149.5,-603 146.28,-606.28 142.62,-609.14 138.69,-611.62"/>
<polygon fill="#63b8ff" stroke="#63b8ff" points="242.84,-343.84 239.79,-333.7 235.85,-343.53 242.84,-343.84"/>
</a>
</g>
</g>
<!-- Node3 -->
<g id="Node000003" class="node">
<title>Node3</title>
<g id="a_Node000003"><a xlink:href="class_fiea_1_1_engine_1_1_actions_1_1_action_condition.html#a78fd346e5e99d3bd4523da1257b65c2c" target="_top" xlink:title=" ">
<polygon fill="white" stroke="#666666" points="146.12,-594 3.38,-594 3.38,-562 146.12,-562 146.12,-594"/>
<text xml:space="preserve" text-anchor="start" x="11.38" y="-580.5" font-family="Helvetica,sans-Serif" font-size="10.00">Fiea::Engine::Actions</text>
<text xml:space="preserve" text-anchor="middle" x="74.75" y="-568.5" font-family="Helvetica,sans-Serif" font-size="10.00">::ActionCondition::RunAction</text>
</a>
</g>
</g>
<!-- Node1&#45;&gt;Node3 -->
<g id="edge2_Node000001_Node000003" class="edge">
<title>Node1&#45;&gt;Node3</title>
<g id="a_edge2_Node000001_Node000003"><a xlink:title=" ">
<path fill="none" stroke="#63b8ff" d="M237.18,-343.64C230.5,-392.63 209.78,-494.99 149.5,-553 146.09,-556.28 142.23,-559.13 138.12,-561.61"/>
<polygon fill="#63b8ff" stroke="#63b8ff" points="240.63,-344.25 238.4,-333.89 233.68,-343.38 240.63,-344.25"/>
</a>
</g>
</g>
<!-- Node4 -->
<g id="Node000004" class="node">
<title>Node4</title>
<g id="a_Node000004"><a xlink:href="class_fiea_1_1_engine_1_1_actions_1_1_action_conditional_increment.html#a4cb7636a1237acda5ef08f94cb41ae48" target="_top" xlink:title=" ">
<polygon fill="white" stroke="#666666" points="145.75,-544 3.75,-544 3.75,-500 145.75,-500 145.75,-544"/>
<text xml:space="preserve" text-anchor="start" x="11.75" y="-530.5" font-family="Helvetica,sans-Serif" font-size="10.00">Fiea::Engine::Actions</text>
<text xml:space="preserve" text-anchor="start" x="11.75" y="-518.5" font-family="Helvetica,sans-Serif" font-size="10.00">::ActionConditionalIncrement</text>
<text xml:space="preserve" text-anchor="middle" x="74.75" y="-506.5" font-family="Helvetica,sans-Serif" font-size="10.00">::RunAction</text>
</a>
</g>
</g>
<!-- Node1&#45;&gt;Node4 -->
<g id="edge3_Node000001_Node000004" class="edge">
<title>Node1&#45;&gt;Node4</title>
<g id="a_edge3_Node000001_Node000004"><a xlink:title=" ">
<path fill="none" stroke="#63b8ff" d="M232.58,-343C220.74,-380.81 194.38,-449.57 149.5,-491 146.03,-494.2 142.18,-497.1 138.11,-499.72"/>
<polygon fill="#63b8ff" stroke="#63b8ff" points="235.83,-344.35 235.36,-333.77 229.13,-342.33 235.83,-344.35"/>
</a>
</g>
</g>
<!-- Node5 -->
<g id="Node000005" class="node">
<title>Node5</title>
<g id="a_Node000005"><a xlink:href="class_fiea_1_1_engine_1_1_actions_1_1_action_decrement.html#a1ec17d56aee3e3172c0b983a839a60ee" target="_top" xlink:title=" ">
<polygon fill="white" stroke="#666666" points="149.5,-482 0,-482 0,-450 149.5,-450 149.5,-482"/>
<text xml:space="preserve" text-anchor="start" x="8" y="-468.5" font-family="Helvetica,sans-Serif" font-size="10.00">Fiea::Engine::Actions</text>
<text xml:space="preserve" text-anchor="middle" x="74.75" y="-456.5" font-family="Helvetica,sans-Serif" font-size="10.00">::ActionDecrement::RunAction</text>
</a>
</g>
</g>
<!-- Node1&#45;&gt;Node5 -->
<g id="edge4_Node000001_Node000005" class="edge">
<title>Node1&#45;&gt;Node5</title>
<g id="a_edge4_Node000001_Node000005"><a xlink:title=" ">
<path fill="none" stroke="#63b8ff" d="M227.39,-342.24C212.44,-370.45 185.09,-414.77 149.5,-441 145.04,-444.29 140.11,-447.17 134.99,-449.68"/>
<polygon fill="#63b8ff" stroke="#63b8ff" points="230.35,-344.13 231.81,-333.64 224.13,-340.93 230.35,-344.13"/>
</a>
</g>
</g>
<!-- Node6 -->
<g id="Node000006" class="node">
<title>Node6</title>
<g id="a_Node000006"><a xlink:href="class_fiea_1_1_engine_1_1_actions_1_1_action_increment.html#a21f75108814dbcf084c7bebd98c84468" target="_top" xlink:title=" ">
<polygon fill="white" stroke="#666666" points="147.25,-432 2.25,-432 2.25,-400 147.25,-400 147.25,-432"/>
<text xml:space="preserve" text-anchor="start" x="10.25" y="-418.5" font-family="Helvetica,sans-Serif" font-size="10.00">Fiea::Engine::Actions</text>
<text xml:space="preserve" text-anchor="middle" x="74.75" y="-406.5" font-family="Helvetica,sans-Serif" font-size="10.00">::ActionIncrement::RunAction</text>
</a>
</g>
</g>
<!-- Node1&#45;&gt;Node6 -->
<g id="edge5_Node000001_Node000006" class="edge">
<title>Node1&#45;&gt;Node6</title>
<g id="a_edge5_Node000001_Node000006"><a xlink:title=" ">
<path fill="none" stroke="#63b8ff" d="M216.25,-339.93C198.95,-356.18 174.33,-377.14 149.5,-391 143.83,-394.16 137.7,-397.02 131.47,-399.57"/>
<polygon fill="#63b8ff" stroke="#63b8ff" points="218.23,-342.88 223.03,-333.43 213.39,-337.83 218.23,-342.88"/>
</a>
</g>
</g>
<!-- Node7 -->
<g id="Node000007" class="node">
<title>Node7</title>
<g id="a_Node000007"><a xlink:href="namespace_fiea_1_1_engine_1_1_tests.html#a376f9ed8237603ebeb822c9076f2f630" target="_top" xlink:title=" ">
<polygon fill="white" stroke="#666666" points="125.12,-382 24.38,-382 24.38,-350 125.12,-350 125.12,-382"/>
<text xml:space="preserve" text-anchor="start" x="32.38" y="-368.5" font-family="Helvetica,sans-Serif" font-size="10.00">Fiea::Engine::Tests</text>
<text xml:space="preserve" text-anchor="middle" x="74.75" y="-356.5" font-family="Helvetica,sans-Serif" font-size="10.00">::TEST_CLASS</text>
</a>
</g>
</g>
<!-- Node1&#45;&gt;Node7 -->
<g id="edge6_Node000001_Node000007" class="edge">
<title>Node1&#45;&gt;Node7</title>
<g id="a_edge6_Node000001_Node000007"><a xlink:title=" ">
<path fill="none" stroke="#63b8ff" d="M175.55,-335.64C158.91,-340.7 141.27,-346.07 125.52,-350.86"/>
<polygon fill="#63b8ff" stroke="#63b8ff" points="176.31,-339.07 184.85,-332.81 174.27,-332.37 176.31,-339.07"/>
</a>
</g>
</g>
<!-- Node8 -->
<g id="Node000008" class="node">
<title>Node8</title>
<g id="a_Node000008"><a xlink:href="namespace_fiea_1_1_engine_1_1_tests.html#a7f5c7835a1ebaa98c6d49380ec86f0ba" target="_top" xlink:title=" ">
<polygon fill="white" stroke="#666666" points="125.12,-332 24.38,-332 24.38,-300 125.12,-300 125.12,-332"/>
<text xml:space="preserve" text-anchor="start" x="32.38" y="-318.5" font-family="Helvetica,sans-Serif" font-size="10.00">Fiea::Engine::Tests</text>
<text xml:space="preserve" text-anchor="middle" x="74.75" y="-306.5" font-family="Helvetica,sans-Serif" font-size="10.00">::TEST_CLASS</text>
</a>
</g>
</g>
<!-- Node1&#45;&gt;Node8 -->
<g id="edge7_Node000001_Node000008" class="edge">
<title>Node1&#45;&gt;Node8</title>
<g id="a_edge7_Node000001_Node000008"><a xlink:title=" ">
<path fill="none" stroke="#63b8ff" d="M174.31,-316C158.05,-316 140.89,-316 125.54,-316"/>
<polygon fill="#63b8ff" stroke="#63b8ff" points="173.88,-319.5 183.88,-316 173.88,-312.5 173.88,-319.5"/>
</a>
</g>
</g>
<!-- Node9 -->
<g id="Node000009" class="node">
<title>Node9</title>
<g id="a_Node000009"><a xlink:href="namespace_fiea_1_1_engine_1_1_tests.html#aaa7584a8b305871c6cc1d1144266a08f" target="_top" xlink:title=" ">
<polygon fill="white" stroke="#666666" points="125.12,-282 24.38,-282 24.38,-250 125.12,-250 125.12,-282"/>
<text xml:space="preserve" text-anchor="start" x="32.38" y="-268.5" font-family="Helvetica,sans-Serif" font-size="10.00">Fiea::Engine::Tests</text>
<text xml:space="preserve" text-anchor="middle" x="74.75" y="-256.5" font-family="Helvetica,sans-Serif" font-size="10.00">::TEST_CLASS</text>
</a>
</g>
</g>
<!-- Node1&#45;&gt;Node9 -->
<g id="edge8_Node000001_Node000009" class="edge">
<title>Node1&#45;&gt;Node9</title>
<g id="a_edge8_Node000001_Node000009"><a xlink:title=" ">
<path fill="none" stroke="#63b8ff" d="M175.55,-296.36C158.91,-291.3 141.27,-285.93 125.52,-281.14"/>
<polygon fill="#63b8ff" stroke="#63b8ff" points="174.27,-299.63 184.85,-299.19 176.31,-292.93 174.27,-299.63"/>
</a>
</g>
</g>
<!-- Node10 -->
<g id="Node000010" class="node">
<title>Node10</title>
<g id="a_Node000010"><a xlink:href="namespace_fiea_1_1_engine_1_1_tests.html#ad7d06bf277bf903f5dbc3982540b1563" target="_top" xlink:title=" ">
<polygon fill="white" stroke="#666666" points="125.12,-232 24.38,-232 24.38,-200 125.12,-200 125.12,-232"/>
<text xml:space="preserve" text-anchor="start" x="32.38" y="-218.5" font-family="Helvetica,sans-Serif" font-size="10.00">Fiea::Engine::Tests</text>
<text xml:space="preserve" text-anchor="middle" x="74.75" y="-206.5" font-family="Helvetica,sans-Serif" font-size="10.00">::TEST_CLASS</text>
</a>
</g>
</g>
<!-- Node1&#45;&gt;Node10 -->
<g id="edge9_Node000001_Node000010" class="edge">
<title>Node1&#45;&gt;Node10</title>
<g id="a_edge9_Node000001_Node000010"><a xlink:title=" ">
<path fill="none" stroke="#63b8ff" d="M216.25,-292.07C198.95,-275.82 174.33,-254.86 149.5,-241 142.06,-236.85 133.82,-233.23 125.62,-230.12"/>
<polygon fill="#63b8ff" stroke="#63b8ff" points="213.39,-294.17 223.03,-298.57 218.23,-289.12 213.39,-294.17"/>
</a>
</g>
</g>
<!-- Node11 -->
<g id="Node000011" class="node">
<title>Node11</title>
<g id="a_Node000011"><a xlink:href="namespace_fiea_1_1_engine_1_1_tests.html#a3cdcf27a81b8b07fd7e0f633fb413ca8" target="_top" xlink:title=" ">
<polygon fill="white" stroke="#666666" points="125.12,-182 24.38,-182 24.38,-150 125.12,-150 125.12,-182"/>
<text xml:space="preserve" text-anchor="start" x="32.38" y="-168.5" font-family="Helvetica,sans-Serif" font-size="10.00">Fiea::Engine::Tests</text>
<text xml:space="preserve" text-anchor="middle" x="74.75" y="-156.5" font-family="Helvetica,sans-Serif" font-size="10.00">::TEST_CLASS</text>
</a>
</g>
</g>
<!-- Node1&#45;&gt;Node11 -->
<g id="edge10_Node000001_Node000011" class="edge">
<title>Node1&#45;&gt;Node11</title>
<g id="a_edge10_Node000001_Node000011"><a xlink:title=" ">
<path fill="none" stroke="#63b8ff" d="M227.39,-289.76C212.44,-261.55 185.09,-217.23 149.5,-191 142.32,-185.71 133.94,-181.48 125.45,-178.12"/>
<polygon fill="#63b8ff" stroke="#63b8ff" points="224.13,-291.07 231.81,-298.36 230.35,-287.87 224.13,-291.07"/>
</a>
</g>
</g>
<!-- Node12 -->
<g id="Node000012" class="node">
<title>Node12</title>
<g id="a_Node000012"><a xlink:href="namespace_fiea_1_1_engine_1_1_tests.html#a15040015fac83efdce86366a293948ae" target="_top" xlink:title=" ">
<polygon fill="white" stroke="#666666" points="125.12,-132 24.38,-132 24.38,-100 125.12,-100 125.12,-132"/>
<text xml:space="preserve" text-anchor="start" x="32.38" y="-118.5" font-family="Helvetica,sans-Serif" font-size="10.00">Fiea::Engine::Tests</text>
<text xml:space="preserve" text-anchor="middle" x="74.75" y="-106.5" font-family="Helvetica,sans-Serif" font-size="10.00">::TEST_CLASS</text>
</a>
</g>
</g>
<!-- Node1&#45;&gt;Node12 -->
<g id="edge11_Node000001_Node000012" class="edge">
<title>Node1&#45;&gt;Node12</title>
<g id="a_edge11_Node000001_Node000012"><a xlink:title=" ">
<path fill="none" stroke="#63b8ff" d="M232.99,-288.6C221.63,-250.26 195.84,-180.83 149.5,-141 142.53,-135.01 134.06,-130.44 125.37,-126.95"/>
<polygon fill="#63b8ff" stroke="#63b8ff" points="229.62,-289.53 235.71,-298.2 236.35,-287.63 229.62,-289.53"/>
</a>
</g>
</g>
<!-- Node13 -->
<g id="Node000013" class="node">
<title>Node13</title>
<g id="a_Node000013"><a xlink:href="namespace_fiea_1_1_engine_1_1_tests.html#a89b054e30b186f60d7f23c17503265da" target="_top" xlink:title=" ">
<polygon fill="white" stroke="#666666" points="125.12,-82 24.38,-82 24.38,-50 125.12,-50 125.12,-82"/>
<text xml:space="preserve" text-anchor="start" x="32.38" y="-68.5" font-family="Helvetica,sans-Serif" font-size="10.00">Fiea::Engine::Tests</text>
<text xml:space="preserve" text-anchor="middle" x="74.75" y="-56.5" font-family="Helvetica,sans-Serif" font-size="10.00">::TEST_CLASS</text>
</a>
</g>
</g>
<!-- Node1&#45;&gt;Node13 -->
<g id="edge12_Node000001_Node000013" class="edge">
<title>Node1&#45;&gt;Node13</title>
<g id="a_edge12_Node000001_Node000013"><a xlink:title=" ">
<path fill="none" stroke="#63b8ff" d="M236.53,-288.41C228.97,-241.37 207.07,-145.43 149.5,-91 142.72,-84.59 134.24,-79.82 125.46,-76.27"/>
<polygon fill="#63b8ff" stroke="#63b8ff" points="233.03,-288.66 237.97,-298.03 239.95,-287.62 233.03,-288.66"/>
</a>
</g>
</g>
<!-- Node14 -->
<g id="Node000014" class="node">
<title>Node14</title>
<g id="a_Node000014"><a xlink:href="namespace_fiea_1_1_engine_1_1_tests.html#ad3e53e7e3f072321bc7199970c619c1d" target="_top" xlink:title=" ">
<polygon fill="white" stroke="#666666" points="125.12,-32 24.38,-32 24.38,0 125.12,0 125.12,-32"/>
<text xml:space="preserve" text-anchor="start" x="32.38" y="-18.5" font-family="Helvetica,sans-Serif" font-size="10.00">Fiea::Engine::Tests</text>
<text xml:space="preserve" text-anchor="middle" x="74.75" y="-6.5" font-family="Helvetica,sans-Serif" font-size="10.00">::TEST_CLASS</text>
</a>
</g>
</g>
<!-- Node1&#45;&gt;Node14 -->
<g id="edge13_Node000001_Node000014" class="edge">
<title>Node1&#45;&gt;Node14</title>
<g id="a_edge13_Node000001_Node000014"><a xlink:title=" ">
<path fill="none" stroke="#63b8ff" d="M238.91,-288.65C235.01,-234.03 218.6,-110.69 149.5,-41 142.84,-34.28 134.3,-29.37 125.42,-25.77"/>
<polygon fill="#63b8ff" stroke="#63b8ff" points="235.4,-288.54 239.5,-298.3 242.38,-288.11 235.4,-288.54"/>
</a>
</g>
</g>
</g>
</svg>
