<?xml version="1.0" encoding="UTF-8" standalone="no"?>
<!DOCTYPE svg PUBLIC "-//W3C//DTD SVG 1.1//EN"
 "http://www.w3.org/Graphics/SVG/1.1/DTD/svg11.dtd">
<!-- Generated by graphviz version 13.1.0 (20250701.0955)
 -->
<!-- Title: Fiea::Engine::Content::Datum::IsType Pages: 1 -->
<svg width="889pt" height="536pt"
 viewBox="0.00 0.00 889.00 536.00" xmlns="http://www.w3.org/2000/svg" xmlns:xlink="http://www.w3.org/1999/xlink">
<g id="graph0" class="graph" transform="scale(1 1) rotate(0) translate(4 532)">
<title>Fiea::Engine::Content::Datum::IsType</title>
<!-- Node1 -->
<g id="Node000001" class="node">
<title>Node1</title>
<g id="a_Node000001"><a xlink:title=" ">
<polygon fill="#999999" stroke="#666666" points="881,-228 769.75,-228 769.75,-196 881,-196 881,-228"/>
<text xml:space="preserve" text-anchor="start" x="777.75" y="-214.5" font-family="Helvetica,sans-Serif" font-size="10.00">Fiea::Engine::Content</text>
<text xml:space="preserve" text-anchor="middle" x="825.38" y="-202.5" font-family="Helvetica,sans-Serif" font-size="10.00">::Datum::IsType</text>
</a>
</g>
</g>
<!-- Node2 -->
<g id="Node000002" class="node">
<title>Node2</title>
<g id="a_Node000002"><a xlink:href="class_fiea_1_1_engine_1_1_content_1_1_scope.html#abf39accc1ce38b12bcbc6884ba0165e3" target="_top" xlink:title="Adopts an existing Scope as a child under the specified key.">
<polygon fill="white" stroke="#666666" points="714.62,-467 603.38,-467 603.38,-435 714.62,-435 714.62,-467"/>
<text xml:space="preserve" text-anchor="start" x="611.38" y="-453.5" font-family="Helvetica,sans-Serif" font-size="10.00">Fiea::Engine::Content</text>
<text xml:space="preserve" text-anchor="middle" x="659" y="-441.5" font-family="Helvetica,sans-Serif" font-size="10.00">::Scope::Adopt</text>
</a>
</g>
</g>
<!-- Node1&#45;&gt;Node2 -->
<g id="edge1_Node000001_Node000002" class="edge">
<title>Node1&#45;&gt;Node2</title>
<g id="a_edge1_Node000001_Node000002"><a xlink:title=" ">
<path fill="none" stroke="#63b8ff" d="M810.64,-238.27C793.93,-269.46 764.15,-322.57 733.75,-365 715.42,-390.58 691.19,-417.78 675.6,-434.58"/>
<polygon fill="#63b8ff" stroke="#63b8ff" points="813.67,-240.02 815.28,-229.55 807.49,-236.73 813.67,-240.02"/>
</a>
</g>
</g>
<!-- Node4 -->
<g id="Node000004" class="node">
<title>Node4</title>
<g id="a_Node000004"><a xlink:href="class_fiea_1_1_engine_1_1_content_1_1_scope.html#a002f54731a8996f37c4f725d8175ffee" target="_top" xlink:title="Appends a new Scope as a child under the specified key.">
<polygon fill="white" stroke="#666666" points="717.25,-356 600.75,-356 600.75,-324 717.25,-324 717.25,-356"/>
<text xml:space="preserve" text-anchor="start" x="608.75" y="-342.5" font-family="Helvetica,sans-Serif" font-size="10.00">Fiea::Engine::Content</text>
<text xml:space="preserve" text-anchor="middle" x="659" y="-330.5" font-family="Helvetica,sans-Serif" font-size="10.00">::Scope::AppendScope</text>
</a>
</g>
</g>
<!-- Node1&#45;&gt;Node4 -->
<g id="edge3_Node000001_Node000004" class="edge">
<title>Node1&#45;&gt;Node4</title>
<g id="a_edge3_Node000001_Node000004"><a xlink:title=" ">
<path fill="none" stroke="#63b8ff" d="M807.77,-237.55C791.47,-260.76 764.62,-294.42 733.75,-315 728.69,-318.37 723.13,-321.34 717.4,-323.92"/>
<polygon fill="#63b8ff" stroke="#63b8ff" points="810.47,-239.79 813.23,-229.56 804.7,-235.84 810.47,-239.79"/>
</a>
</g>
</g>
<!-- Node19 -->
<g id="Node000019" class="node">
<title>Node19</title>
<g id="a_Node000019"><a xlink:href="class_fiea_1_1_engine_1_1_actions_1_1_action_condition.html#af38dd920cf58d8232bf86142c944fa99" target="_top" xlink:title=" ">
<polygon fill="white" stroke="#666666" points="728.12,-306 589.88,-306 589.88,-274 728.12,-274 728.12,-306"/>
<text xml:space="preserve" text-anchor="start" x="597.88" y="-292.5" font-family="Helvetica,sans-Serif" font-size="10.00">Fiea::Engine::Actions</text>
<text xml:space="preserve" text-anchor="middle" x="659" y="-280.5" font-family="Helvetica,sans-Serif" font-size="10.00">::ActionCondition::InitAction</text>
</a>
</g>
</g>
<!-- Node1&#45;&gt;Node19 -->
<g id="edge22_Node000001_Node000019" class="edge">
<title>Node1&#45;&gt;Node19</title>
<g id="a_edge22_Node000001_Node000019"><a xlink:title=" ">
<path fill="none" stroke="#63b8ff" d="M790.41,-234.07C773.76,-244.31 753.16,-256.15 733.75,-265 727.11,-268.03 719.99,-270.89 712.88,-273.53"/>
<polygon fill="#63b8ff" stroke="#63b8ff" points="791.8,-237.33 798.43,-229.06 788.1,-231.39 791.8,-237.33"/>
</a>
</g>
</g>
<!-- Node20 -->
<g id="Node000020" class="node">
<title>Node20</title>
<g id="a_Node000020"><a xlink:href="class_fiea_1_1_engine_1_1_actions_1_1_action_condition.html#a78fd346e5e99d3bd4523da1257b65c2c" target="_top" xlink:title=" ">
<polygon fill="white" stroke="#666666" points="730.38,-256 587.62,-256 587.62,-224 730.38,-224 730.38,-256"/>
<text xml:space="preserve" text-anchor="start" x="595.62" y="-242.5" font-family="Helvetica,sans-Serif" font-size="10.00">Fiea::Engine::Actions</text>
<text xml:space="preserve" text-anchor="middle" x="659" y="-230.5" font-family="Helvetica,sans-Serif" font-size="10.00">::ActionCondition::RunAction</text>
</a>
</g>
</g>
<!-- Node1&#45;&gt;Node20 -->
<g id="edge23_Node000001_Node000020" class="edge">
<title>Node1&#45;&gt;Node20</title>
<g id="a_edge23_Node000001_Node000020"><a xlink:title=" ">
<path fill="none" stroke="#63b8ff" d="M758.36,-223.24C749.32,-224.79 740,-226.37 730.87,-227.93"/>
<polygon fill="#63b8ff" stroke="#63b8ff" points="758.88,-226.71 768.15,-221.58 757.7,-219.81 758.88,-226.71"/>
</a>
</g>
</g>
<!-- Node21 -->
<g id="Node000021" class="node">
<title>Node21</title>
<g id="a_Node000021"><a xlink:href="class_fiea_1_1_engine_1_1_actions_1_1_action_conditional_increment.html#a4cb7636a1237acda5ef08f94cb41ae48" target="_top" xlink:title=" ">
<polygon fill="white" stroke="#666666" points="730,-206 588,-206 588,-162 730,-162 730,-206"/>
<text xml:space="preserve" text-anchor="start" x="596" y="-192.5" font-family="Helvetica,sans-Serif" font-size="10.00">Fiea::Engine::Actions</text>
<text xml:space="preserve" text-anchor="start" x="596" y="-180.5" font-family="Helvetica,sans-Serif" font-size="10.00">::ActionConditionalIncrement</text>
<text xml:space="preserve" text-anchor="middle" x="659" y="-168.5" font-family="Helvetica,sans-Serif" font-size="10.00">::RunAction</text>
</a>
</g>
</g>
<!-- Node1&#45;&gt;Node21 -->
<g id="edge24_Node000001_Node000021" class="edge">
<title>Node1&#45;&gt;Node21</title>
<g id="a_edge24_Node000001_Node000021"><a xlink:title=" ">
<path fill="none" stroke="#63b8ff" d="M758.5,-200.78C749.22,-199.2 739.65,-197.57 730.29,-195.97"/>
<polygon fill="#63b8ff" stroke="#63b8ff" points="757.7,-204.19 768.15,-202.42 758.88,-197.29 757.7,-204.19"/>
</a>
</g>
</g>
<!-- Node22 -->
<g id="Node000022" class="node">
<title>Node22</title>
<g id="a_Node000022"><a xlink:href="class_fiea_1_1_engine_1_1_actions_1_1_action_decrement.html#a1ec17d56aee3e3172c0b983a839a60ee" target="_top" xlink:title=" ">
<polygon fill="white" stroke="#666666" points="733.75,-144 584.25,-144 584.25,-112 733.75,-112 733.75,-144"/>
<text xml:space="preserve" text-anchor="start" x="592.25" y="-130.5" font-family="Helvetica,sans-Serif" font-size="10.00">Fiea::Engine::Actions</text>
<text xml:space="preserve" text-anchor="middle" x="659" y="-118.5" font-family="Helvetica,sans-Serif" font-size="10.00">::ActionDecrement::RunAction</text>
</a>
</g>
</g>
<!-- Node1&#45;&gt;Node22 -->
<g id="edge25_Node000001_Node000022" class="edge">
<title>Node1&#45;&gt;Node22</title>
<g id="a_edge25_Node000001_Node000022"><a xlink:title=" ">
<path fill="none" stroke="#63b8ff" d="M793.66,-189.24C776.62,-177.33 754.7,-163.17 733.75,-153 727.43,-149.93 720.63,-147.08 713.81,-144.48"/>
<polygon fill="#63b8ff" stroke="#63b8ff" points="791.17,-191.76 801.35,-194.7 795.22,-186.05 791.17,-191.76"/>
</a>
</g>
</g>
<!-- Node23 -->
<g id="Node000023" class="node">
<title>Node23</title>
<g id="a_Node000023"><a xlink:href="class_fiea_1_1_engine_1_1_actions_1_1_action_increment.html#a21f75108814dbcf084c7bebd98c84468" target="_top" xlink:title=" ">
<polygon fill="white" stroke="#666666" points="731.5,-94 586.5,-94 586.5,-62 731.5,-62 731.5,-94"/>
<text xml:space="preserve" text-anchor="start" x="594.5" y="-80.5" font-family="Helvetica,sans-Serif" font-size="10.00">Fiea::Engine::Actions</text>
<text xml:space="preserve" text-anchor="middle" x="659" y="-68.5" font-family="Helvetica,sans-Serif" font-size="10.00">::ActionIncrement::RunAction</text>
</a>
</g>
</g>
<!-- Node1&#45;&gt;Node23 -->
<g id="edge26_Node000001_Node000023" class="edge">
<title>Node1&#45;&gt;Node23</title>
<g id="a_edge26_Node000001_Node000023"><a xlink:title=" ">
<path fill="none" stroke="#63b8ff" d="M808.85,-186.08C792.88,-161.47 765.84,-125.05 733.75,-103 729.07,-99.78 723.94,-96.95 718.64,-94.46"/>
<polygon fill="#63b8ff" stroke="#63b8ff" points="805.7,-187.65 814,-194.24 811.62,-183.91 805.7,-187.65"/>
</a>
</g>
</g>
<!-- Node24 -->
<g id="Node000024" class="node">
<title>Node24</title>
<g id="a_Node000024"><a xlink:href="class_fiea_1_1_engine_1_1_actions_1_1_action_loop_increment.html#afa069fcd75025f4734e7d1eb9f136a0f" target="_top" xlink:title=" ">
<polygon fill="white" stroke="#666666" points="716.12,-44 601.88,-44 601.88,0 716.12,0 716.12,-44"/>
<text xml:space="preserve" text-anchor="start" x="609.88" y="-30.5" font-family="Helvetica,sans-Serif" font-size="10.00">Fiea::Engine::Actions</text>
<text xml:space="preserve" text-anchor="start" x="609.88" y="-18.5" font-family="Helvetica,sans-Serif" font-size="10.00">::ActionLoopIncrement</text>
<text xml:space="preserve" text-anchor="middle" x="659" y="-6.5" font-family="Helvetica,sans-Serif" font-size="10.00">::RunAction</text>
</a>
</g>
</g>
<!-- Node1&#45;&gt;Node24 -->
<g id="edge27_Node000001_Node000024" class="edge">
<title>Node1&#45;&gt;Node24</title>
<g id="a_edge27_Node000001_Node000024"><a xlink:title=" ">
<path fill="none" stroke="#63b8ff" d="M815.24,-184.98C802.21,-150.15 775.19,-89.74 733.75,-53 728.55,-48.39 722.57,-44.4 716.31,-40.97"/>
<polygon fill="#63b8ff" stroke="#63b8ff" points="811.92,-186.09 818.61,-194.31 818.5,-183.72 811.92,-186.09"/>
</a>
</g>
</g>
<!-- Node3 -->
<g id="Node000003" class="node">
<title>Node3</title>
<g id="a_Node000003"><a xlink:href="namespace_fiea_1_1_engine_1_1_tests.html#ad3e53e7e3f072321bc7199970c619c1d" target="_top" xlink:title=" ">
<polygon fill="white" stroke="#666666" points="502.88,-528 402.12,-528 402.12,-496 502.88,-496 502.88,-528"/>
<text xml:space="preserve" text-anchor="start" x="410.12" y="-514.5" font-family="Helvetica,sans-Serif" font-size="10.00">Fiea::Engine::Tests</text>
<text xml:space="preserve" text-anchor="middle" x="452.5" y="-502.5" font-family="Helvetica,sans-Serif" font-size="10.00">::TEST_CLASS</text>
</a>
</g>
</g>
<!-- Node2&#45;&gt;Node3 -->
<g id="edge2_Node000002_Node000003" class="edge">
<title>Node2&#45;&gt;Node3</title>
<g id="a_edge2_Node000002_Node000003"><a xlink:title=" ">
<path fill="none" stroke="#63b8ff" d="M592.09,-470.66C563.18,-479.28 529.82,-489.23 503.07,-497.21"/>
<polygon fill="#63b8ff" stroke="#63b8ff" points="592.9,-474.07 601.48,-467.86 590.9,-467.36 592.9,-474.07"/>
</a>
</g>
</g>
<!-- Node4&#45;&gt;Node3 -->
<g id="edge21_Node000004_Node000003" class="edge">
<title>Node4&#45;&gt;Node3</title>
<g id="a_edge21_Node000004_Node000003"><a xlink:title=" ">
<path fill="none" stroke="#63b8ff" d="M635.47,-364.43C620.36,-381.24 600.36,-404.37 584.25,-426 566.58,-449.73 571.75,-464.02 548.25,-482 535.23,-491.96 518.83,-498.66 503.34,-503.15"/>
<polygon fill="#63b8ff" stroke="#63b8ff" points="637.75,-367.13 641.87,-357.37 632.56,-362.43 637.75,-367.13"/>
</a>
</g>
</g>
<!-- Node5 -->
<g id="Node000005" class="node">
<title>Node5</title>
<g id="a_Node000005"><a xlink:href="class_fiea_1_1_engine_1_1_content_1_1_scope_writer.html#aa73231d29c0a0b0bcfbb910e2f913404" target="_top" xlink:title=" ">
<polygon fill="white" stroke="#666666" points="523.5,-390 381.5,-390 381.5,-346 523.5,-346 523.5,-390"/>
<text xml:space="preserve" text-anchor="start" x="389.5" y="-376.5" font-family="Helvetica,sans-Serif" font-size="10.00">Fiea::Engine::Content</text>
<text xml:space="preserve" text-anchor="start" x="389.5" y="-364.5" font-family="Helvetica,sans-Serif" font-size="10.00">::ScopeWriter::AddActionList</text>
<text xml:space="preserve" text-anchor="middle" x="452.5" y="-352.5" font-family="Helvetica,sans-Serif" font-size="10.00">Object</text>
</a>
</g>
</g>
<!-- Node4&#45;&gt;Node5 -->
<g id="edge4_Node000004_Node000005" class="edge">
<title>Node4&#45;&gt;Node5</title>
<g id="a_edge4_Node000004_Node000005"><a xlink:title=" ">
<path fill="none" stroke="#63b8ff" d="M589.33,-349.4C568.19,-352.3 544.9,-355.49 523.66,-358.39"/>
<polygon fill="#63b8ff" stroke="#63b8ff" points="589.56,-352.9 598.99,-348.08 588.61,-345.97 589.56,-352.9"/>
</a>
</g>
</g>
<!-- Node6 -->
<g id="Node000006" class="node">
<title>Node6</title>
<g id="a_Node000006"><a xlink:href="class_fiea_1_1_engine_1_1_content_1_1_scope_writer.html#a0a79e65b8a84d1a7275153c32e4d499a" target="_top" xlink:title=" ">
<polygon fill="white" stroke="#666666" points="320.75,-440 166,-440 166,-408 320.75,-408 320.75,-440"/>
<text xml:space="preserve" text-anchor="start" x="174" y="-426.5" font-family="Helvetica,sans-Serif" font-size="10.00">Fiea::Engine::Content</text>
<text xml:space="preserve" text-anchor="middle" x="243.38" y="-414.5" font-family="Helvetica,sans-Serif" font-size="10.00">::ScopeWriter::AddActionObject</text>
</a>
</g>
</g>
<!-- Node4&#45;&gt;Node6 -->
<g id="edge8_Node000004_Node000006" class="edge">
<title>Node4&#45;&gt;Node6</title>
<g id="a_edge8_Node000004_Node000006"><a xlink:title=" ">
<path fill="none" stroke="#63b8ff" d="M637.29,-364.57C611.9,-393.92 569.63,-440.19 548.25,-449 462.48,-484.35 351.74,-459.59 290.4,-440.45"/>
<polygon fill="#63b8ff" stroke="#63b8ff" points="639.74,-367.08 643.59,-357.21 634.43,-362.52 639.74,-367.08"/>
</a>
</g>
</g>
<!-- Node9 -->
<g id="Node000009" class="node">
<title>Node9</title>
<g id="a_Node000009"><a xlink:href="class_fiea_1_1_engine_1_1_content_1_1_scope_writer.html#a8baf6cd60c0807e9e91054132db5183f" target="_top" xlink:title=" ">
<polygon fill="white" stroke="#666666" points="548.25,-440 356.75,-440 356.75,-408 548.25,-408 548.25,-440"/>
<text xml:space="preserve" text-anchor="start" x="364.75" y="-426.5" font-family="Helvetica,sans-Serif" font-size="10.00">Fiea::Engine::Content</text>
<text xml:space="preserve" text-anchor="middle" x="452.5" y="-414.5" font-family="Helvetica,sans-Serif" font-size="10.00">::ScopeWriter::AddActionToPredecessor</text>
</a>
</g>
</g>
<!-- Node4&#45;&gt;Node9 -->
<g id="edge9_Node000004_Node000009" class="edge">
<title>Node4&#45;&gt;Node9</title>
<g id="a_edge9_Node000004_Node000009"><a xlink:title=" ">
<path fill="none" stroke="#63b8ff" d="M622.04,-362.11C601.1,-374.28 573.85,-388.91 548.25,-399 540.34,-402.12 531.9,-404.98 523.45,-407.55"/>
<polygon fill="#63b8ff" stroke="#63b8ff" points="623.64,-365.23 630.48,-357.14 620.09,-359.2 623.64,-365.23"/>
</a>
</g>
</g>
<!-- Node10 -->
<g id="Node000010" class="node">
<title>Node10</title>
<g id="a_Node000010"><a xlink:href="class_fiea_1_1_engine_1_1_content_1_1_scope_writer.html#a707086401a09fd8b2f07d65a1f95fd72" target="_top" xlink:title=" ">
<polygon fill="white" stroke="#666666" points="529.12,-328 375.88,-328 375.88,-296 529.12,-296 529.12,-328"/>
<text xml:space="preserve" text-anchor="start" x="383.88" y="-314.5" font-family="Helvetica,sans-Serif" font-size="10.00">Fiea::Engine::Content</text>
<text xml:space="preserve" text-anchor="middle" x="452.5" y="-302.5" font-family="Helvetica,sans-Serif" font-size="10.00">::ScopeWriter::AddGameObject</text>
</a>
</g>
</g>
<!-- Node4&#45;&gt;Node10 -->
<g id="edge11_Node000004_Node000010" class="edge">
<title>Node4&#45;&gt;Node10</title>
<g id="a_edge11_Node000004_Node000010"><a xlink:title=" ">
<path fill="none" stroke="#63b8ff" d="M589.09,-330.57C569.87,-327.93 548.88,-325.06 529.29,-322.38"/>
<polygon fill="#63b8ff" stroke="#63b8ff" points="588.61,-334.03 598.99,-331.92 589.56,-327.1 588.61,-334.03"/>
</a>
</g>
</g>
<!-- Node11 -->
<g id="Node000011" class="node">
<title>Node11</title>
<g id="a_Node000011"><a xlink:href="class_fiea_1_1_engine_1_1_content_1_1_scope_writer.html#a77fe1b124acb1dd1bd3f2d7f104035cf" target="_top" xlink:title=" ">
<polygon fill="white" stroke="#666666" points="306.5,-306 180.25,-306 180.25,-274 306.5,-274 306.5,-306"/>
<text xml:space="preserve" text-anchor="start" x="188.25" y="-292.5" font-family="Helvetica,sans-Serif" font-size="10.00">Fiea::Engine::Content</text>
<text xml:space="preserve" text-anchor="middle" x="243.38" y="-280.5" font-family="Helvetica,sans-Serif" font-size="10.00">::ScopeWriter::AddScope</text>
</a>
</g>
</g>
<!-- Node4&#45;&gt;Node11 -->
<g id="edge16_Node000004_Node000011" class="edge">
<title>Node4&#45;&gt;Node11</title>
<g id="a_edge16_Node000004_Node000011"><a xlink:title=" ">
<path fill="none" stroke="#63b8ff" d="M592.43,-319.09C589.63,-317.79 586.89,-316.42 584.25,-315 566.4,-305.39 567.42,-293.58 548.25,-287 468.41,-259.6 369.67,-267.63 306.84,-277.49"/>
<polygon fill="#63b8ff" stroke="#63b8ff" points="590.8,-322.2 601.37,-322.96 593.58,-315.78 590.8,-322.2"/>
</a>
</g>
</g>
<!-- Node15 -->
<g id="Node000015" class="node">
<title>Node15</title>
<g id="a_Node000015"><a xlink:href="class_fiea_1_1_engine_1_1_content_1_1_scope_writer.html#a542b6ab60fcbb7b17a9e203df367ca01" target="_top" xlink:title=" ">
<polygon fill="white" stroke="#666666" points="528,-240 377,-240 377,-196 528,-196 528,-240"/>
<text xml:space="preserve" text-anchor="start" x="385" y="-226.5" font-family="Helvetica,sans-Serif" font-size="10.00">Fiea::Engine::Content</text>
<text xml:space="preserve" text-anchor="start" x="385" y="-214.5" font-family="Helvetica,sans-Serif" font-size="10.00">::ScopeWriter::AddWhileAction</text>
<text xml:space="preserve" text-anchor="middle" x="452.5" y="-202.5" font-family="Helvetica,sans-Serif" font-size="10.00">ParamObject</text>
</a>
</g>
</g>
<!-- Node4&#45;&gt;Node15 -->
<g id="edge17_Node000004_Node000015" class="edge">
<title>Node4&#45;&gt;Node15</title>
<g id="a_edge17_Node000004_Node000015"><a xlink:title=" ">
<path fill="none" stroke="#63b8ff" d="M590.43,-319.49C588.28,-318.09 586.21,-316.59 584.25,-315 559.82,-295.15 572.32,-274.29 548.25,-254 542.06,-248.78 535.04,-244.28 527.68,-240.4"/>
<polygon fill="#63b8ff" stroke="#63b8ff" points="588.53,-322.44 598.96,-324.3 591.97,-316.34 588.53,-322.44"/>
</a>
</g>
</g>
<!-- Node17 -->
<g id="Node000017" class="node">
<title>Node17</title>
<g id="a_Node000017"><a xlink:href="namespace_fiea_1_1_engine_1_1_tests.html#a6fef2096c3071aeedc84a735d125856c" target="_top" xlink:title=" ">
<polygon fill="white" stroke="#666666" points="502.88,-178 402.12,-178 402.12,-146 502.88,-146 502.88,-178"/>
<text xml:space="preserve" text-anchor="start" x="410.12" y="-164.5" font-family="Helvetica,sans-Serif" font-size="10.00">Fiea::Engine::Tests</text>
<text xml:space="preserve" text-anchor="middle" x="452.5" y="-152.5" font-family="Helvetica,sans-Serif" font-size="10.00">::TEST_CLASS</text>
</a>
</g>
</g>
<!-- Node4&#45;&gt;Node17 -->
<g id="edge19_Node000004_Node000017" class="edge">
<title>Node4&#45;&gt;Node17</title>
<g id="a_edge19_Node000004_Node000017"><a xlink:title=" ">
<path fill="none" stroke="#63b8ff" d="M590.74,-320.79C588.42,-319.03 586.24,-317.1 584.25,-315 543.58,-272.13 590.37,-228.45 548.25,-187 536.24,-175.19 519.35,-168.77 503.15,-165.35"/>
<polygon fill="#63b8ff" stroke="#63b8ff" points="588.66,-323.62 598.99,-326.01 592.41,-317.71 588.66,-323.62"/>
</a>
</g>
</g>
<!-- Node18 -->
<g id="Node000018" class="node">
<title>Node18</title>
<g id="a_Node000018"><a xlink:href="namespace_fiea_1_1_engine_1_1_tests.html#a376f9ed8237603ebeb822c9076f2f630" target="_top" xlink:title=" ">
<polygon fill="white" stroke="#666666" points="502.88,-128 402.12,-128 402.12,-96 502.88,-96 502.88,-128"/>
<text xml:space="preserve" text-anchor="start" x="410.12" y="-114.5" font-family="Helvetica,sans-Serif" font-size="10.00">Fiea::Engine::Tests</text>
<text xml:space="preserve" text-anchor="middle" x="452.5" y="-102.5" font-family="Helvetica,sans-Serif" font-size="10.00">::TEST_CLASS</text>
</a>
</g>
</g>
<!-- Node4&#45;&gt;Node18 -->
<g id="edge20_Node000004_Node000018" class="edge">
<title>Node4&#45;&gt;Node18</title>
<g id="a_edge20_Node000004_Node000018"><a xlink:title=" ">
<path fill="none" stroke="#63b8ff" d="M590.68,-321.09C588.36,-319.24 586.2,-317.22 584.25,-315 530.92,-254.41 603.63,-195.72 548.25,-137 536.58,-124.62 519.57,-118.1 503.17,-114.75"/>
<polygon fill="#63b8ff" stroke="#63b8ff" points="588.71,-323.98 599,-326.52 592.54,-318.12 588.71,-323.98"/>
</a>
</g>
</g>
<!-- Node5&#45;&gt;Node6 -->
<g id="edge5_Node000005_Node000006" class="edge">
<title>Node5&#45;&gt;Node6</title>
<g id="a_edge5_Node000005_Node000006"><a xlink:title=" ">
<path fill="none" stroke="#63b8ff" d="M370.25,-389.97C348.61,-395.82 325.6,-402.04 305.25,-407.54"/>
<polygon fill="#63b8ff" stroke="#63b8ff" points="370.89,-393.42 379.63,-387.43 369.06,-386.66 370.89,-393.42"/>
</a>
</g>
</g>
<!-- Node8 -->
<g id="Node000008" class="node">
<title>Node8</title>
<g id="a_Node000008"><a xlink:href="class_fiea_1_1_engine_1_1_content_1_1_action_list_handler.html#ae0f8b6534bcf602df112f39202c79ecc" target="_top" xlink:title=" ">
<polygon fill="white" stroke="#666666" points="299,-390 187.75,-390 187.75,-346 299,-346 299,-390"/>
<text xml:space="preserve" text-anchor="start" x="195.75" y="-376.5" font-family="Helvetica,sans-Serif" font-size="10.00">Fiea::Engine::Content</text>
<text xml:space="preserve" text-anchor="start" x="195.75" y="-364.5" font-family="Helvetica,sans-Serif" font-size="10.00">::ActionListHandler::</text>
<text xml:space="preserve" text-anchor="middle" x="243.38" y="-352.5" font-family="Helvetica,sans-Serif" font-size="10.00">EnterKey</text>
</a>
</g>
</g>
<!-- Node5&#45;&gt;Node8 -->
<g id="edge7_Node000005_Node000008" class="edge">
<title>Node5&#45;&gt;Node8</title>
<g id="a_edge7_Node000005_Node000008"><a xlink:title=" ">
<path fill="none" stroke="#63b8ff" d="M369.63,-368C346,-368 320.78,-368 299.22,-368"/>
<polygon fill="#63b8ff" stroke="#63b8ff" points="369.57,-371.5 379.57,-368 369.57,-364.5 369.57,-371.5"/>
</a>
</g>
</g>
<!-- Node7 -->
<g id="Node000007" class="node">
<title>Node7</title>
<g id="a_Node000007"><a xlink:href="class_fiea_1_1_engine_1_1_content_1_1_action_handler.html#a392af20cfeb37d539b88183bc9672f7a" target="_top" xlink:title=" ">
<polygon fill="white" stroke="#666666" points="130,-440 0,-440 0,-408 130,-408 130,-440"/>
<text xml:space="preserve" text-anchor="start" x="8" y="-426.5" font-family="Helvetica,sans-Serif" font-size="10.00">Fiea::Engine::Content</text>
<text xml:space="preserve" text-anchor="middle" x="65" y="-414.5" font-family="Helvetica,sans-Serif" font-size="10.00">::ActionHandler::EnterKey</text>
</a>
</g>
</g>
<!-- Node6&#45;&gt;Node7 -->
<g id="edge6_Node000006_Node000007" class="edge">
<title>Node6&#45;&gt;Node7</title>
<g id="a_edge6_Node000006_Node000007"><a xlink:title=" ">
<path fill="none" stroke="#63b8ff" d="M154.23,-424C146.22,-424 138.21,-424 130.47,-424"/>
<polygon fill="#63b8ff" stroke="#63b8ff" points="154.01,-427.5 164.01,-424 154.01,-420.5 154.01,-427.5"/>
</a>
</g>
</g>
<!-- Node9&#45;&gt;Node6 -->
<g id="edge10_Node000009_Node000006" class="edge">
<title>Node9&#45;&gt;Node6</title>
<g id="a_edge10_Node000009_Node000006"><a xlink:title=" ">
<path fill="none" stroke="#63b8ff" d="M345.06,-424C337.01,-424 328.99,-424 321.19,-424"/>
<polygon fill="#63b8ff" stroke="#63b8ff" points="344.91,-427.5 354.91,-424 344.91,-420.5 344.91,-427.5"/>
</a>
</g>
</g>
<!-- Node10&#45;&gt;Node11 -->
<g id="edge12_Node000010_Node000011" class="edge">
<title>Node10&#45;&gt;Node11</title>
<g id="a_edge12_Node000010_Node000011"><a xlink:title=" ">
<path fill="none" stroke="#63b8ff" d="M364.28,-302.74C344.95,-300.68 324.84,-298.55 306.74,-296.62"/>
<polygon fill="#63b8ff" stroke="#63b8ff" points="363.73,-306.2 374.05,-303.77 364.47,-299.24 363.73,-306.2"/>
</a>
</g>
</g>
<!-- Node12 -->
<g id="Node000012" class="node">
<title>Node12</title>
<g id="a_Node000012"><a xlink:href="class_fiea_1_1_engine_1_1_content_1_1_game_object_handler.html#a626573aebcd7beceb84dbd69bc15105b" target="_top" xlink:title=" ">
<polygon fill="white" stroke="#666666" points="123.25,-374 6.75,-374 6.75,-330 123.25,-330 123.25,-374"/>
<text xml:space="preserve" text-anchor="start" x="14.75" y="-360.5" font-family="Helvetica,sans-Serif" font-size="10.00">Fiea::Engine::Content</text>
<text xml:space="preserve" text-anchor="start" x="14.75" y="-348.5" font-family="Helvetica,sans-Serif" font-size="10.00">::GameObjectHandler::</text>
<text xml:space="preserve" text-anchor="middle" x="65" y="-336.5" font-family="Helvetica,sans-Serif" font-size="10.00">EnterKey</text>
</a>
</g>
</g>
<!-- Node11&#45;&gt;Node12 -->
<g id="edge13_Node000011_Node000012" class="edge">
<title>Node11&#45;&gt;Node12</title>
<g id="a_edge13_Node000011_Node000012"><a xlink:title=" ">
<path fill="none" stroke="#63b8ff" d="M184.94,-310.19C165.32,-317.08 143.39,-324.8 123.74,-331.7"/>
<polygon fill="#63b8ff" stroke="#63b8ff" points="185.87,-313.57 194.14,-306.95 183.55,-306.97 185.87,-313.57"/>
</a>
</g>
</g>
<!-- Node13 -->
<g id="Node000013" class="node">
<title>Node13</title>
<g id="a_Node000013"><a xlink:href="class_fiea_1_1_engine_1_1_content_1_1_scope_factory_handler.html#ae5e7d2b134d20238fa9be43f936bf80b" target="_top" xlink:title=" ">
<polygon fill="white" stroke="#666666" points="123.25,-312 6.75,-312 6.75,-268 123.25,-268 123.25,-312"/>
<text xml:space="preserve" text-anchor="start" x="14.75" y="-298.5" font-family="Helvetica,sans-Serif" font-size="10.00">Fiea::Engine::Content</text>
<text xml:space="preserve" text-anchor="start" x="14.75" y="-286.5" font-family="Helvetica,sans-Serif" font-size="10.00">::ScopeFactoryHandler</text>
<text xml:space="preserve" text-anchor="middle" x="65" y="-274.5" font-family="Helvetica,sans-Serif" font-size="10.00">::EnterKey</text>
</a>
</g>
</g>
<!-- Node11&#45;&gt;Node13 -->
<g id="edge14_Node000011_Node000013" class="edge">
<title>Node11&#45;&gt;Node13</title>
<g id="a_edge14_Node000011_Node000013"><a xlink:title=" ">
<path fill="none" stroke="#63b8ff" d="M168.77,-290C153.65,-290 137.95,-290 123.49,-290"/>
<polygon fill="#63b8ff" stroke="#63b8ff" points="168.68,-293.5 178.68,-290 168.68,-286.5 168.68,-293.5"/>
</a>
</g>
</g>
<!-- Node14 -->
<g id="Node000014" class="node">
<title>Node14</title>
<g id="a_Node000014"><a xlink:href="class_fiea_1_1_engine_1_1_content_1_1_scope_handler.html#a593999f6a2df6002af8db4629d8a0176" target="_top" xlink:title=" ">
<polygon fill="white" stroke="#666666" points="130,-250 0,-250 0,-218 130,-218 130,-250"/>
<text xml:space="preserve" text-anchor="start" x="8" y="-236.5" font-family="Helvetica,sans-Serif" font-size="10.00">Fiea::Engine::Content</text>
<text xml:space="preserve" text-anchor="middle" x="65" y="-224.5" font-family="Helvetica,sans-Serif" font-size="10.00">::ScopeHandler::EnterKey</text>
</a>
</g>
</g>
<!-- Node11&#45;&gt;Node14 -->
<g id="edge15_Node000011_Node000014" class="edge">
<title>Node11&#45;&gt;Node14</title>
<g id="a_edge15_Node000011_Node000014"><a xlink:title=" ">
<path fill="none" stroke="#63b8ff" d="M179.72,-270.11C159.47,-263.68 137.27,-256.63 117.9,-250.48"/>
<polygon fill="#63b8ff" stroke="#63b8ff" points="178.38,-273.35 188.97,-273.04 180.5,-266.68 178.38,-273.35"/>
</a>
</g>
</g>
<!-- Node16 -->
<g id="Node000016" class="node">
<title>Node16</title>
<g id="a_Node000016"><a xlink:href="class_fiea_1_1_engine_1_1_content_1_1_action_while_param_handler.html#a0d3cab60b559a3be182c4534883d4614" target="_top" xlink:title=" ">
<polygon fill="white" stroke="#666666" points="311.75,-240 175,-240 175,-196 311.75,-196 311.75,-240"/>
<text xml:space="preserve" text-anchor="start" x="183" y="-226.5" font-family="Helvetica,sans-Serif" font-size="10.00">Fiea::Engine::Content</text>
<text xml:space="preserve" text-anchor="start" x="183" y="-214.5" font-family="Helvetica,sans-Serif" font-size="10.00">::ActionWhileParamHandler</text>
<text xml:space="preserve" text-anchor="middle" x="243.38" y="-202.5" font-family="Helvetica,sans-Serif" font-size="10.00">::EnterKey</text>
</a>
</g>
</g>
<!-- Node15&#45;&gt;Node16 -->
<g id="edge18_Node000015_Node000016" class="edge">
<title>Node15&#45;&gt;Node16</title>
<g id="a_edge18_Node000015_Node000016"><a xlink:title=" ">
<path fill="none" stroke="#63b8ff" d="M365.21,-218C347.5,-218 329.1,-218 312.16,-218"/>
<polygon fill="#63b8ff" stroke="#63b8ff" points="365.21,-221.5 375.21,-218 365.21,-214.5 365.21,-221.5"/>
</a>
</g>
</g>
</g>
</svg>
