<?xml version="1.0" encoding="UTF-8" standalone="no"?>
<!DOCTYPE svg PUBLIC "-//W3C//DTD SVG 1.1//EN"
 "http://www.w3.org/Graphics/SVG/1.1/DTD/svg11.dtd">
<!-- Generated by graphviz version 13.1.0 (20250701.0955)
 -->
<!-- Title: Fiea::Engine::Memory::MemoryService::DefaultFree Pages: 1 -->
<svg width="303pt" height="90pt"
 viewBox="0.00 0.00 303.00 90.00" xmlns="http://www.w3.org/2000/svg" xmlns:xlink="http://www.w3.org/1999/xlink">
<g id="graph0" class="graph" transform="scale(1 1) rotate(0) translate(4 86)">
<title>Fiea::Engine::Memory::MemoryService::DefaultFree</title>
<!-- Node1 -->
<g id="Node000001" class="node">
<title>Node1</title>
<g id="a_Node000001"><a xlink:title="Frees memory using the current default allocator or free.">
<polygon fill="#999999" stroke="#666666" points="147.25,-57 0,-57 0,-25 147.25,-25 147.25,-57"/>
<text xml:space="preserve" text-anchor="start" x="8" y="-43.5" font-family="Helvetica,sans-Serif" font-size="10.00">Fiea::Engine::Memory</text>
<text xml:space="preserve" text-anchor="middle" x="73.62" y="-31.5" font-family="Helvetica,sans-Serif" font-size="10.00">::MemoryService::DefaultFree</text>
</a>
</g>
</g>
<!-- Node2 -->
<g id="Node000002" class="node">
<title>Node2</title>
<g id="a_Node000002"><a xlink:href="class_fiea_1_1_engine_1_1_memory_1_1_heap.html#ac1622d5b6d300dc3164bfd16557785fc" target="_top" xlink:title=" ">
<polygon fill="white" stroke="#666666" points="295.25,-82 183.25,-82 183.25,-50 295.25,-50 295.25,-82"/>
<text xml:space="preserve" text-anchor="start" x="191.25" y="-68.5" font-family="Helvetica,sans-Serif" font-size="10.00">Fiea::Engine::Memory</text>
<text xml:space="preserve" text-anchor="middle" x="239.25" y="-56.5" font-family="Helvetica,sans-Serif" font-size="10.00">::Heap::Contains</text>
</a>
</g>
</g>
<!-- Node1&#45;&gt;Node2 -->
<g id="edge1_Node000001_Node000002" class="edge">
<title>Node1&#45;&gt;Node2</title>
<g id="a_edge1_Node000001_Node000002"><a xlink:title=" ">
<path fill="none" stroke="#63b8ff" d="M147.35,-52.11C155.47,-53.35 163.71,-54.61 171.75,-55.84"/>
<polygon fill="#63b8ff" stroke="#63b8ff" points="171.03,-59.27 181.45,-57.32 172.09,-52.35 171.03,-59.27"/>
</a>
</g>
</g>
<!-- Node3 -->
<g id="Node000003" class="node">
<title>Node3</title>
<g id="a_Node000003"><a xlink:href="class_fiea_1_1_engine_1_1_memory_1_1_heap.html#a5cf1ae093d0344b813d096bbb8a3a792" target="_top" xlink:title=" ">
<polygon fill="white" stroke="#666666" points="295.25,-32 183.25,-32 183.25,0 295.25,0 295.25,-32"/>
<text xml:space="preserve" text-anchor="start" x="191.25" y="-18.5" font-family="Helvetica,sans-Serif" font-size="10.00">Fiea::Engine::Memory</text>
<text xml:space="preserve" text-anchor="middle" x="239.25" y="-6.5" font-family="Helvetica,sans-Serif" font-size="10.00">::Heap::Free</text>
</a>
</g>
</g>
<!-- Node1&#45;&gt;Node3 -->
<g id="edge2_Node000001_Node000003" class="edge">
<title>Node1&#45;&gt;Node3</title>
<g id="a_edge2_Node000001_Node000003"><a xlink:title=" ">
<path fill="none" stroke="#63b8ff" d="M147.35,-29.89C155.47,-28.65 163.71,-27.39 171.75,-26.16"/>
<polygon fill="#63b8ff" stroke="#63b8ff" points="172.09,-29.65 181.45,-24.68 171.03,-22.73 172.09,-29.65"/>
</a>
</g>
</g>
</g>
</svg>
