<?xml version="1.0" encoding="UTF-8" standalone="no"?>
<!DOCTYPE svg PUBLIC "-//W3C//DTD SVG 1.1//EN"
 "http://www.w3.org/Graphics/SVG/1.1/DTD/svg11.dtd">
<!-- Generated by graphviz version 13.1.0 (20250701.0955)
 -->
<!-- Title: Fiea::Engine::Actions::ActionCondition::RunAction Pages: 1 -->
<svg width="593pt" height="212pt"
 viewBox="0.00 0.00 593.00 212.00" xmlns="http://www.w3.org/2000/svg" xmlns:xlink="http://www.w3.org/1999/xlink">
<g id="graph0" class="graph" transform="scale(1 1) rotate(0) translate(4 208)">
<title>Fiea::Engine::Actions::ActionCondition::RunAction</title>
<!-- Node1 -->
<g id="Node000001" class="node">
<title>Node1</title>
<g id="a_Node000001"><a xlink:title=" ">
<polygon fill="#999999" stroke="#666666" points="142.75,-129 0,-129 0,-97 142.75,-97 142.75,-129"/>
<text xml:space="preserve" text-anchor="start" x="8" y="-115.5" font-family="Helvetica,sans-Serif" font-size="10.00">Fiea::Engine::Actions</text>
<text xml:space="preserve" text-anchor="middle" x="71.38" y="-103.5" font-family="Helvetica,sans-Serif" font-size="10.00">::ActionCondition::RunAction</text>
</a>
</g>
</g>
<!-- Node2 -->
<g id="Node000002" class="node">
<title>Node2</title>
<g id="a_Node000002"><a xlink:href="class_fiea_1_1_engine_1_1_content_1_1_datum.html#afe5c48ad15802ef84b150d79ed476898" target="_top" xlink:title=" ">
<polygon fill="white" stroke="#666666" points="290,-204 178.75,-204 178.75,-172 290,-172 290,-204"/>
<text xml:space="preserve" text-anchor="start" x="186.75" y="-190.5" font-family="Helvetica,sans-Serif" font-size="10.00">Fiea::Engine::Content</text>
<text xml:space="preserve" text-anchor="middle" x="234.38" y="-178.5" font-family="Helvetica,sans-Serif" font-size="10.00">::Datum::GetAsFloat</text>
</a>
</g>
</g>
<!-- Node1&#45;&gt;Node2 -->
<g id="edge1_Node000001_Node000002" class="edge">
<title>Node1&#45;&gt;Node2</title>
<g id="a_edge1_Node000001_Node000002"><a xlink:title=" ">
<path fill="none" stroke="#63b8ff" d="M106.83,-129.3C127.63,-139.12 154.68,-151.84 178.75,-163 181.45,-164.25 184.23,-165.54 187.03,-166.83"/>
<polygon fill="#63b8ff" stroke="#63b8ff" points="185.29,-169.88 195.83,-170.88 188.21,-163.52 185.29,-169.88"/>
</a>
</g>
</g>
<!-- Node3 -->
<g id="Node000003" class="node">
<title>Node3</title>
<g id="a_Node000003"><a xlink:href="class_fiea_1_1_engine_1_1_content_1_1_datum.html#a695ee2c8a3941869b96581c81f416d1b" target="_top" xlink:title=" ">
<polygon fill="white" stroke="#666666" points="290,-154 178.75,-154 178.75,-122 290,-122 290,-154"/>
<text xml:space="preserve" text-anchor="start" x="186.75" y="-140.5" font-family="Helvetica,sans-Serif" font-size="10.00">Fiea::Engine::Content</text>
<text xml:space="preserve" text-anchor="middle" x="234.38" y="-128.5" font-family="Helvetica,sans-Serif" font-size="10.00">::Datum::GetAsInt</text>
</a>
</g>
</g>
<!-- Node1&#45;&gt;Node3 -->
<g id="edge2_Node000001_Node000003" class="edge">
<title>Node1&#45;&gt;Node3</title>
<g id="a_edge2_Node000001_Node000003"><a xlink:title=" ">
<path fill="none" stroke="#63b8ff" d="M142.99,-123.97C151.03,-125.21 159.2,-126.48 167.18,-127.72"/>
<polygon fill="#63b8ff" stroke="#63b8ff" points="166.39,-131.14 176.81,-129.22 167.46,-124.22 166.39,-131.14"/>
</a>
</g>
</g>
<!-- Node4 -->
<g id="Node000004" class="node">
<title>Node4</title>
<g id="a_Node000004"><a xlink:href="class_fiea_1_1_engine_1_1_content_1_1_datum.html#a6e9dfba6e16fddc4efc39b8182dad89f" target="_top" xlink:title=" ">
<polygon fill="white" stroke="#666666" points="290,-104 178.75,-104 178.75,-72 290,-72 290,-104"/>
<text xml:space="preserve" text-anchor="start" x="186.75" y="-90.5" font-family="Helvetica,sans-Serif" font-size="10.00">Fiea::Engine::Content</text>
<text xml:space="preserve" text-anchor="middle" x="234.38" y="-78.5" font-family="Helvetica,sans-Serif" font-size="10.00">::Datum::IsType</text>
</a>
</g>
</g>
<!-- Node1&#45;&gt;Node4 -->
<g id="edge3_Node000001_Node000004" class="edge">
<title>Node1&#45;&gt;Node4</title>
<g id="a_edge3_Node000001_Node000004"><a xlink:title=" ">
<path fill="none" stroke="#63b8ff" d="M142.99,-102.03C151.03,-100.79 159.2,-99.52 167.18,-98.28"/>
<polygon fill="#63b8ff" stroke="#63b8ff" points="167.46,-101.78 176.81,-96.78 166.39,-94.86 167.46,-101.78"/>
</a>
</g>
</g>
<!-- Node5 -->
<g id="Node000005" class="node">
<title>Node5</title>
<g id="a_Node000005"><a xlink:href="class_fiea_1_1_engine_1_1_content_1_1_scope.html#ae21ea7cc60b24915a0aac3b0d0f6005c" target="_top" xlink:title=" ">
<polygon fill="white" stroke="#666666" points="290,-54 178.75,-54 178.75,-22 290,-22 290,-54"/>
<text xml:space="preserve" text-anchor="start" x="186.75" y="-40.5" font-family="Helvetica,sans-Serif" font-size="10.00">Fiea::Engine::Content</text>
<text xml:space="preserve" text-anchor="middle" x="234.38" y="-28.5" font-family="Helvetica,sans-Serif" font-size="10.00">::Scope::Search</text>
</a>
</g>
</g>
<!-- Node1&#45;&gt;Node5 -->
<g id="edge4_Node000001_Node000005" class="edge">
<title>Node1&#45;&gt;Node5</title>
<g id="a_edge4_Node000001_Node000005"><a xlink:title=" ">
<path fill="none" stroke="#63b8ff" d="M106.83,-96.7C127.63,-86.88 154.68,-74.16 178.75,-63 181.45,-61.75 184.23,-60.46 187.03,-59.17"/>
<polygon fill="#63b8ff" stroke="#63b8ff" points="188.21,-62.48 195.83,-55.12 185.29,-56.12 188.21,-62.48"/>
</a>
</g>
</g>
<!-- Node6 -->
<g id="Node000006" class="node">
<title>Node6</title>
<g id="a_Node000006"><a xlink:href="class_fiea_1_1_engine_1_1_content_1_1_scope.html#ad924c01785b239991fc0e56a63295612" target="_top" xlink:title="Finds a Datum by key.">
<polygon fill="white" stroke="#666666" points="437.25,-104 326,-104 326,-72 437.25,-72 437.25,-104"/>
<text xml:space="preserve" text-anchor="start" x="334" y="-90.5" font-family="Helvetica,sans-Serif" font-size="10.00">Fiea::Engine::Content</text>
<text xml:space="preserve" text-anchor="middle" x="381.62" y="-78.5" font-family="Helvetica,sans-Serif" font-size="10.00">::Scope::Find</text>
</a>
</g>
</g>
<!-- Node5&#45;&gt;Node6 -->
<g id="edge5_Node000005_Node000006" class="edge">
<title>Node5&#45;&gt;Node6</title>
<g id="a_edge5_Node000005_Node000006"><a xlink:title=" ">
<path fill="none" stroke="#63b8ff" d="M282.94,-54.37C295.48,-58.69 309.15,-63.4 322.19,-67.89"/>
<polygon fill="#63b8ff" stroke="#63b8ff" points="320.93,-71.15 331.53,-71.1 323.21,-64.53 320.93,-71.15"/>
</a>
</g>
</g>
<!-- Node7 -->
<g id="Node000007" class="node">
<title>Node7</title>
<g id="a_Node000007"><a xlink:href="class_fiea_1_1_engine_1_1_content_1_1_scope.html#ac4627f740867a929957ce0647f436e02" target="_top" xlink:title=" ">
<polygon fill="white" stroke="#666666" points="437.25,-54 326,-54 326,-22 437.25,-22 437.25,-54"/>
<text xml:space="preserve" text-anchor="start" x="334" y="-40.5" font-family="Helvetica,sans-Serif" font-size="10.00">Fiea::Engine::Content</text>
<text xml:space="preserve" text-anchor="middle" x="381.62" y="-28.5" font-family="Helvetica,sans-Serif" font-size="10.00">::Scope::GetParent</text>
</a>
</g>
</g>
<!-- Node5&#45;&gt;Node7 -->
<g id="edge6_Node000005_Node000007" class="edge">
<title>Node5&#45;&gt;Node7</title>
<g id="a_edge6_Node000005_Node000007"><a xlink:title=" ">
<path fill="none" stroke="#63b8ff" d="M290.29,-38C298.15,-38 306.31,-38 314.36,-38"/>
<polygon fill="#63b8ff" stroke="#63b8ff" points="314.12,-41.5 324.12,-38 314.12,-34.5 314.12,-41.5"/>
</a>
</g>
</g>
<!-- Node8 -->
<g id="Node000008" class="node">
<title>Node8</title>
<g id="a_Node000008"><a xlink:href="class_fiea_1_1_engine_1_1_content_1_1_scope.html#a6631343c968c233ab1d9c3e05c3f4fe9" target="_top" xlink:title=" ">
<polygon fill="white" stroke="#666666" points="584.5,-32 473.25,-32 473.25,0 584.5,0 584.5,-32"/>
<text xml:space="preserve" text-anchor="start" x="481.25" y="-18.5" font-family="Helvetica,sans-Serif" font-size="10.00">Fiea::Engine::Content</text>
<text xml:space="preserve" text-anchor="middle" x="528.88" y="-6.5" font-family="Helvetica,sans-Serif" font-size="10.00">::Scope::Scope</text>
</a>
</g>
</g>
<!-- Node5&#45;&gt;Node8 -->
<g id="edge9_Node000005_Node000008" class="edge">
<title>Node5&#45;&gt;Node8</title>
<g id="a_edge9_Node000005_Node000008"><a xlink:title=" ">
<path fill="none" stroke="#63b8ff" d="M285.68,-21.54C298.67,-18.01 312.74,-14.8 326,-13 370.89,-6.92 421.91,-7.75 461.43,-10.05"/>
<polygon fill="#63b8ff" stroke="#63b8ff" points="461.06,-13.53 471.26,-10.68 461.51,-6.55 461.06,-13.53"/>
</a>
</g>
</g>
<!-- Node7&#45;&gt;Node8 -->
<g id="edge7_Node000007_Node000008" class="edge">
<title>Node7&#45;&gt;Node8</title>
<g id="a_edge7_Node000007_Node000008"><a xlink:title=" ">
<path fill="none" stroke="#63b8ff" d="M437.54,-29.68C445.4,-28.49 453.56,-27.26 461.61,-26.04"/>
<polygon fill="#63b8ff" stroke="#63b8ff" points="462.03,-29.51 471.39,-24.56 460.98,-22.59 462.03,-29.51"/>
</a>
</g>
</g>
<!-- Node8&#45;&gt;Node8 -->
<g id="edge8_Node000008_Node000008" class="edge">
<title>Node8&#45;&gt;Node8</title>
<g id="a_edge8_Node000008_Node000008"><a xlink:title=" ">
<path fill="none" stroke="#63b8ff" d="M502.59,-32.44C497.68,-41.58 506.44,-50 528.88,-50 541.14,-50 549.32,-47.48 553.41,-43.71"/>
<polygon fill="#63b8ff" stroke="#63b8ff" points="556.85,-44.36 554.93,-33.94 549.94,-43.28 556.85,-44.36"/>
</a>
</g>
</g>
</g>
</svg>
