<?xml version="1.0" encoding="UTF-8" standalone="no"?>
<!DOCTYPE svg PUBLIC "-//W3C//DTD SVG 1.1//EN"
 "http://www.w3.org/Graphics/SVG/1.1/DTD/svg11.dtd">
<!-- Generated by graphviz version 13.1.0 (20250701.0955)
 -->
<!-- Title: Fiea::Engine::Content::ScopeWriter::AddActionListObject Pages: 1 -->
<svg width="777pt" height="416pt"
 viewBox="0.00 0.00 777.00 416.00" xmlns="http://www.w3.org/2000/svg" xmlns:xlink="http://www.w3.org/1999/xlink">
<g id="graph0" class="graph" transform="scale(1 1) rotate(0) translate(4 412)">
<title>Fiea::Engine::Content::ScopeWriter::AddActionListObject</title>
<!-- Node1 -->
<g id="Node000001" class="node">
<title>Node1</title>
<g id="a_Node000001"><a xlink:title=" ">
<polygon fill="#999999" stroke="#666666" points="142,-159 0,-159 0,-115 142,-115 142,-159"/>
<text xml:space="preserve" text-anchor="start" x="8" y="-145.5" font-family="Helvetica,sans-Serif" font-size="10.00">Fiea::Engine::Content</text>
<text xml:space="preserve" text-anchor="start" x="8" y="-133.5" font-family="Helvetica,sans-Serif" font-size="10.00">::ScopeWriter::AddActionList</text>
<text xml:space="preserve" text-anchor="middle" x="71" y="-121.5" font-family="Helvetica,sans-Serif" font-size="10.00">Object</text>
</a>
</g>
</g>
<!-- Node2 -->
<g id="Node000002" class="node">
<title>Node2</title>
<g id="a_Node000002"><a xlink:href="class_fiea_1_1_engine_1_1_game_object.html#a2d9e0734194c82c1f1d319e49c845c0f" target="_top" xlink:title=" ">
<polygon fill="white" stroke="#666666" points="317.38,-319 185.88,-319 185.88,-287 317.38,-287 317.38,-319"/>
<text xml:space="preserve" text-anchor="start" x="193.88" y="-305.5" font-family="Helvetica,sans-Serif" font-size="10.00">Fiea::Engine::GameObject</text>
<text xml:space="preserve" text-anchor="middle" x="251.62" y="-293.5" font-family="Helvetica,sans-Serif" font-size="10.00">::AddAction</text>
</a>
</g>
</g>
<!-- Node1&#45;&gt;Node2 -->
<g id="edge1_Node000001_Node000002" class="edge">
<title>Node1&#45;&gt;Node2</title>
<g id="a_edge1_Node000001_Node000002"><a xlink:title=" ">
<path fill="none" stroke="#63b8ff" d="M88.81,-159.24C108.5,-184.45 142.92,-225.93 178,-256 188.32,-264.85 200.42,-273.31 211.75,-280.56"/>
<polygon fill="#63b8ff" stroke="#63b8ff" points="209.82,-283.48 220.16,-285.79 213.52,-277.54 209.82,-283.48"/>
</a>
</g>
</g>
<!-- Node8 -->
<g id="Node000008" class="node">
<title>Node8</title>
<g id="a_Node000008"><a xlink:href="class_fiea_1_1_engine_1_1_content_1_1_scope.html#a002f54731a8996f37c4f725d8175ffee" target="_top" xlink:title="Appends a new Scope as a child under the specified key.">
<polygon fill="white" stroke="#666666" points="309.88,-247 193.38,-247 193.38,-215 309.88,-215 309.88,-247"/>
<text xml:space="preserve" text-anchor="start" x="201.38" y="-233.5" font-family="Helvetica,sans-Serif" font-size="10.00">Fiea::Engine::Content</text>
<text xml:space="preserve" text-anchor="middle" x="251.62" y="-221.5" font-family="Helvetica,sans-Serif" font-size="10.00">::Scope::AppendScope</text>
</a>
</g>
</g>
<!-- Node1&#45;&gt;Node8 -->
<g id="edge9_Node000001_Node000008" class="edge">
<title>Node1&#45;&gt;Node8</title>
<g id="a_edge9_Node000001_Node000008"><a xlink:title=" ">
<path fill="none" stroke="#63b8ff" d="M114.33,-159.28C143.09,-174.41 180.94,-194.33 209.45,-209.33"/>
<polygon fill="#63b8ff" stroke="#63b8ff" points="207.68,-212.35 218.16,-213.91 210.94,-206.16 207.68,-212.35"/>
</a>
</g>
</g>
<!-- Node13 -->
<g id="Node000013" class="node">
<title>Node13</title>
<g id="a_Node000013"><a xlink:href="class_fiea_1_1_engine_1_1_r_t_t_i.html#a15bd5993c8ad04da47af440298ebbb30" target="_top" xlink:title=" ">
<polygon fill="white" stroke="#666666" points="309.88,-125 193.38,-125 193.38,-105 309.88,-105 309.88,-125"/>
<text xml:space="preserve" text-anchor="middle" x="251.62" y="-111.5" font-family="Helvetica,sans-Serif" font-size="10.00">Fiea::Engine::RTTI::As</text>
</a>
</g>
</g>
<!-- Node1&#45;&gt;Node13 -->
<g id="edge19_Node000001_Node000013" class="edge">
<title>Node1&#45;&gt;Node13</title>
<g id="a_edge19_Node000001_Node000013"><a xlink:title=" ">
<path fill="none" stroke="#63b8ff" d="M142.34,-128.34C155.33,-126.74 168.88,-125.07 181.82,-123.47"/>
<polygon fill="#63b8ff" stroke="#63b8ff" points="182.01,-126.98 191.5,-122.28 181.15,-120.03 182.01,-126.98"/>
</a>
</g>
</g>
<!-- Node16 -->
<g id="Node000016" class="node">
<title>Node16</title>
<g id="a_Node000016"><a xlink:href="class_fiea_1_1_engine_1_1_service_manager.html#a8aac9b15b7e5483c2b1cd5febe590a0c" target="_top" xlink:title=" ">
<polygon fill="white" stroke="#666666" points="325.25,-87 178,-87 178,-55 325.25,-55 325.25,-87"/>
<text xml:space="preserve" text-anchor="start" x="186" y="-73.5" font-family="Helvetica,sans-Serif" font-size="10.00">Fiea::Engine::ServiceManager</text>
<text xml:space="preserve" text-anchor="middle" x="251.62" y="-61.5" font-family="Helvetica,sans-Serif" font-size="10.00">::ProvideInterface</text>
</a>
</g>
</g>
<!-- Node1&#45;&gt;Node16 -->
<g id="edge22_Node000001_Node000016" class="edge">
<title>Node1&#45;&gt;Node16</title>
<g id="a_edge22_Node000001_Node000016"><a xlink:title=" ">
<path fill="none" stroke="#63b8ff" d="M128.79,-114.58C144.67,-108.44 161.97,-101.86 178,-96 182.37,-94.4 186.89,-92.78 191.45,-91.16"/>
<polygon fill="#63b8ff" stroke="#63b8ff" points="192.39,-94.54 200.67,-87.92 190.07,-87.94 192.39,-94.54"/>
</a>
</g>
</g>
<!-- Node3 -->
<g id="Node000003" class="node">
<title>Node3</title>
<g id="a_Node000003"><a xlink:href="class_fiea_1_1_engine_1_1_content_1_1_scope.html#aa91d6470fd3d3f402bbb2e765be54455" target="_top" xlink:title="Appends a new Datum with the given key.">
<polygon fill="white" stroke="#666666" points="473.25,-408 362,-408 362,-376 473.25,-376 473.25,-408"/>
<text xml:space="preserve" text-anchor="start" x="370" y="-394.5" font-family="Helvetica,sans-Serif" font-size="10.00">Fiea::Engine::Content</text>
<text xml:space="preserve" text-anchor="middle" x="417.62" y="-382.5" font-family="Helvetica,sans-Serif" font-size="10.00">::Scope::Append</text>
</a>
</g>
</g>
<!-- Node2&#45;&gt;Node3 -->
<g id="edge2_Node000002_Node000003" class="edge">
<title>Node2&#45;&gt;Node3</title>
<g id="a_edge2_Node000002_Node000003"><a xlink:title=" ">
<path fill="none" stroke="#63b8ff" d="M278.52,-319.33C300.25,-332.77 332.3,-351.99 361.25,-367 363.62,-368.23 366.06,-369.46 368.54,-370.68"/>
<polygon fill="#63b8ff" stroke="#63b8ff" points="366.93,-373.79 377.47,-374.95 369.95,-367.47 366.93,-373.79"/>
</a>
</g>
</g>
<!-- Node4 -->
<g id="Node000004" class="node">
<title>Node4</title>
<g id="a_Node000004"><a xlink:href="class_fiea_1_1_engine_1_1_content_1_1_scope.html#ad924c01785b239991fc0e56a63295612" target="_top" xlink:title="Finds a Datum by key.">
<polygon fill="white" stroke="#666666" points="473.25,-358 362,-358 362,-326 473.25,-326 473.25,-358"/>
<text xml:space="preserve" text-anchor="start" x="370" y="-344.5" font-family="Helvetica,sans-Serif" font-size="10.00">Fiea::Engine::Content</text>
<text xml:space="preserve" text-anchor="middle" x="417.62" y="-332.5" font-family="Helvetica,sans-Serif" font-size="10.00">::Scope::Find</text>
</a>
</g>
</g>
<!-- Node2&#45;&gt;Node4 -->
<g id="edge3_Node000002_Node000004" class="edge">
<title>Node2&#45;&gt;Node4</title>
<g id="a_edge3_Node000002_Node000004"><a xlink:title=" ">
<path fill="none" stroke="#63b8ff" d="M317.44,-318.41C328.27,-320.99 339.52,-323.66 350.39,-326.25"/>
<polygon fill="#63b8ff" stroke="#63b8ff" points="349.53,-329.64 360.07,-328.55 351.15,-322.83 349.53,-329.64"/>
</a>
</g>
</g>
<!-- Node5 -->
<g id="Node000005" class="node">
<title>Node5</title>
<g id="a_Node000005"><a xlink:href="class_fiea_1_1_engine_1_1_content_1_1_datum.html#acb3ba55fc9b39b876cf3334d0305f4fc" target="_top" xlink:title=" ">
<polygon fill="white" stroke="#666666" points="473.25,-308 362,-308 362,-276 473.25,-276 473.25,-308"/>
<text xml:space="preserve" text-anchor="start" x="370" y="-294.5" font-family="Helvetica,sans-Serif" font-size="10.00">Fiea::Engine::Content</text>
<text xml:space="preserve" text-anchor="middle" x="417.62" y="-282.5" font-family="Helvetica,sans-Serif" font-size="10.00">::Datum::Push</text>
</a>
</g>
</g>
<!-- Node2&#45;&gt;Node5 -->
<g id="edge4_Node000002_Node000005" class="edge">
<title>Node2&#45;&gt;Node5</title>
<g id="a_edge4_Node000002_Node000005"><a xlink:title=" ">
<path fill="none" stroke="#63b8ff" d="M317.44,-298.65C328.27,-297.93 339.52,-297.17 350.39,-296.44"/>
<polygon fill="#63b8ff" stroke="#63b8ff" points="350.29,-299.96 360.03,-295.8 349.82,-292.97 350.29,-299.96"/>
</a>
</g>
</g>
<!-- Node6 -->
<g id="Node000006" class="node">
<title>Node6</title>
<g id="a_Node000006"><a xlink:href="class_fiea_1_1_engine_1_1_content_1_1_datum.html#a818f812e4489e57885c88951bc0601b3" target="_top" xlink:title=" ">
<polygon fill="white" stroke="#666666" points="621.25,-301 510,-301 510,-269 621.25,-269 621.25,-301"/>
<text xml:space="preserve" text-anchor="start" x="518" y="-287.5" font-family="Helvetica,sans-Serif" font-size="10.00">Fiea::Engine::Content</text>
<text xml:space="preserve" text-anchor="middle" x="565.62" y="-275.5" font-family="Helvetica,sans-Serif" font-size="10.00">::Datum::ResizeArray</text>
</a>
</g>
</g>
<!-- Node5&#45;&gt;Node6 -->
<g id="edge5_Node000005_Node000006" class="edge">
<title>Node5&#45;&gt;Node6</title>
<g id="a_edge5_Node000005_Node000006"><a xlink:title=" ">
<path fill="none" stroke="#63b8ff" d="M473.41,-289.37C481.53,-288.98 489.97,-288.58 498.3,-288.18"/>
<polygon fill="#63b8ff" stroke="#63b8ff" points="498.2,-291.69 508.03,-287.71 497.87,-284.7 498.2,-291.69"/>
</a>
</g>
</g>
<!-- Node7 -->
<g id="Node000007" class="node">
<title>Node7</title>
<g id="a_Node000007"><a xlink:href="class_fiea_1_1_engine_1_1_content_1_1_datum.html#a921193447f6e42f596ac0a7694b02830" target="_top" xlink:title=" ">
<polygon fill="white" stroke="#666666" points="768.5,-323 657.25,-323 657.25,-291 768.5,-291 768.5,-323"/>
<text xml:space="preserve" text-anchor="start" x="665.25" y="-309.5" font-family="Helvetica,sans-Serif" font-size="10.00">Fiea::Engine::Content</text>
<text xml:space="preserve" text-anchor="middle" x="712.88" y="-297.5" font-family="Helvetica,sans-Serif" font-size="10.00">::Datum::Scope</text>
</a>
</g>
</g>
<!-- Node5&#45;&gt;Node7 -->
<g id="edge8_Node000005_Node000007" class="edge">
<title>Node5&#45;&gt;Node7</title>
<g id="a_edge8_Node000005_Node000007"><a xlink:title=" ">
<path fill="none" stroke="#63b8ff" d="M473.45,-304.6C485.43,-306.84 498.09,-308.84 510,-310 555.09,-314.4 606.1,-313.59 645.57,-311.71"/>
<polygon fill="#63b8ff" stroke="#63b8ff" points="645.58,-315.22 655.39,-311.21 645.22,-308.23 645.58,-315.22"/>
</a>
</g>
</g>
<!-- Node6&#45;&gt;Node7 -->
<g id="edge6_Node000006_Node000007" class="edge">
<title>Node6&#45;&gt;Node7</title>
<g id="a_edge6_Node000006_Node000007"><a xlink:title=" ">
<path fill="none" stroke="#63b8ff" d="M621.54,-293.32C629.4,-294.51 637.56,-295.74 645.61,-296.96"/>
<polygon fill="#63b8ff" stroke="#63b8ff" points="644.98,-300.41 655.39,-298.44 646.03,-293.49 644.98,-300.41"/>
</a>
</g>
</g>
<!-- Node7&#45;&gt;Node7 -->
<g id="edge7_Node000007_Node000007" class="edge">
<title>Node7&#45;&gt;Node7</title>
<g id="a_edge7_Node000007_Node000007"><a xlink:title=" ">
<path fill="none" stroke="#63b8ff" d="M686.59,-323.44C681.68,-332.58 690.44,-341 712.88,-341 725.14,-341 733.32,-338.48 737.41,-334.71"/>
<polygon fill="#63b8ff" stroke="#63b8ff" points="740.85,-335.36 738.93,-324.94 733.94,-334.28 740.85,-335.36"/>
</a>
</g>
</g>
<!-- Node8&#45;&gt;Node3 -->
<g id="edge10_Node000008_Node000003" class="edge">
<title>Node8&#45;&gt;Node3</title>
<g id="a_edge10_Node000008_Node000003"><a xlink:title=" ">
<path fill="none" stroke="#63b8ff" d="M287.02,-247.42C300.38,-255.18 314.92,-265.49 325.25,-278 352.42,-310.9 331.68,-336.24 361.25,-367 361.84,-367.61 362.45,-368.21 363.07,-368.8"/>
<polygon fill="#63b8ff" stroke="#63b8ff" points="360.69,-371.39 370.74,-374.74 364.98,-365.85 360.69,-371.39"/>
</a>
</g>
</g>
<!-- Node8&#45;&gt;Node4 -->
<g id="edge11_Node000008_Node000004" class="edge">
<title>Node8&#45;&gt;Node4</title>
<g id="a_edge11_Node000008_Node000004"><a xlink:title=" ">
<path fill="none" stroke="#63b8ff" d="M281.37,-247.3C295.2,-255.71 311.69,-266.58 325.25,-278 343.29,-293.19 342.12,-303.2 361.25,-317 362.61,-317.98 364.02,-318.94 365.46,-319.87"/>
<polygon fill="#63b8ff" stroke="#63b8ff" points="363.65,-322.87 374.05,-324.87 367.17,-316.82 363.65,-322.87"/>
</a>
</g>
</g>
<!-- Node8&#45;&gt;Node5 -->
<g id="edge13_Node000008_Node000005" class="edge">
<title>Node8&#45;&gt;Node5</title>
<g id="a_edge13_Node000008_Node000005"><a xlink:title=" ">
<path fill="none" stroke="#63b8ff" d="M296.57,-247.35C316.53,-254.77 340.35,-263.63 361.49,-271.49"/>
<polygon fill="#63b8ff" stroke="#63b8ff" points="360.26,-274.77 370.85,-274.97 362.7,-268.21 360.26,-274.77"/>
</a>
</g>
</g>
<!-- Node9 -->
<g id="Node000009" class="node">
<title>Node9</title>
<g id="a_Node000009"><a xlink:href="class_fiea_1_1_engine_1_1_content_1_1_datum.html#a6e9dfba6e16fddc4efc39b8182dad89f" target="_top" xlink:title=" ">
<polygon fill="white" stroke="#666666" points="473.25,-120 362,-120 362,-88 473.25,-88 473.25,-120"/>
<text xml:space="preserve" text-anchor="start" x="370" y="-106.5" font-family="Helvetica,sans-Serif" font-size="10.00">Fiea::Engine::Content</text>
<text xml:space="preserve" text-anchor="middle" x="417.62" y="-94.5" font-family="Helvetica,sans-Serif" font-size="10.00">::Datum::IsType</text>
</a>
</g>
</g>
<!-- Node8&#45;&gt;Node9 -->
<g id="edge12_Node000008_Node000009" class="edge">
<title>Node8&#45;&gt;Node9</title>
<g id="a_edge12_Node000008_Node000009"><a xlink:title=" ">
<path fill="none" stroke="#63b8ff" d="M266.73,-214.75C286.25,-193.02 323.39,-154.29 361.25,-129 362.85,-127.93 364.5,-126.89 366.19,-125.88"/>
<polygon fill="#63b8ff" stroke="#63b8ff" points="367.77,-129 374.83,-121.1 364.39,-122.87 367.77,-129"/>
</a>
</g>
</g>
<!-- Node10 -->
<g id="Node000010" class="node">
<title>Node10</title>
<g id="a_Node000010"><a xlink:href="class_fiea_1_1_engine_1_1_content_1_1_scope.html#a6631343c968c233ab1d9c3e05c3f4fe9" target="_top" xlink:title=" ">
<polygon fill="white" stroke="#666666" points="621.25,-227 510,-227 510,-195 621.25,-195 621.25,-227"/>
<text xml:space="preserve" text-anchor="start" x="518" y="-213.5" font-family="Helvetica,sans-Serif" font-size="10.00">Fiea::Engine::Content</text>
<text xml:space="preserve" text-anchor="middle" x="565.62" y="-201.5" font-family="Helvetica,sans-Serif" font-size="10.00">::Scope::Scope</text>
</a>
</g>
</g>
<!-- Node8&#45;&gt;Node10 -->
<g id="edge14_Node000008_Node000010" class="edge">
<title>Node8&#45;&gt;Node10</title>
<g id="a_edge14_Node000008_Node000010"><a xlink:title=" ">
<path fill="none" stroke="#63b8ff" d="M310.3,-222.49C326.73,-220.36 344.66,-218.31 361.25,-217 406.92,-213.39 458.52,-211.9 498.31,-211.31"/>
<polygon fill="#63b8ff" stroke="#63b8ff" points="498.27,-214.81 508.22,-211.17 498.17,-207.81 498.27,-214.81"/>
</a>
</g>
</g>
<!-- Node11 -->
<g id="Node000011" class="node">
<title>Node11</title>
<g id="a_Node000011"><a xlink:href="class_fiea_1_1_engine_1_1_content_1_1_scope.html#af6a94922a8fa123c3b22b7b4485963de" target="_top" xlink:title=" ">
<polygon fill="white" stroke="#666666" points="473.25,-258 362,-258 362,-226 473.25,-226 473.25,-258"/>
<text xml:space="preserve" text-anchor="start" x="370" y="-244.5" font-family="Helvetica,sans-Serif" font-size="10.00">Fiea::Engine::Content</text>
<text xml:space="preserve" text-anchor="middle" x="417.62" y="-232.5" font-family="Helvetica,sans-Serif" font-size="10.00">::Scope::SetParent</text>
</a>
</g>
</g>
<!-- Node8&#45;&gt;Node11 -->
<g id="edge16_Node000008_Node000011" class="edge">
<title>Node8&#45;&gt;Node11</title>
<g id="a_edge16_Node000008_Node000011"><a xlink:title=" ">
<path fill="none" stroke="#63b8ff" d="M309.98,-234.85C322.92,-235.71 336.75,-236.64 350.02,-237.53"/>
<polygon fill="#63b8ff" stroke="#63b8ff" points="349.78,-241.02 360,-238.2 350.25,-234.04 349.78,-241.02"/>
</a>
</g>
</g>
<!-- Node12 -->
<g id="Node000012" class="node">
<title>Node12</title>
<g id="a_Node000012"><a xlink:href="class_fiea_1_1_engine_1_1_content_1_1_datum.html#a23d1f16d9646f024a5dee1f05dbd5a5e" target="_top" xlink:title=" ">
<polygon fill="white" stroke="#666666" points="473.25,-170 362,-170 362,-138 473.25,-138 473.25,-170"/>
<text xml:space="preserve" text-anchor="start" x="370" y="-156.5" font-family="Helvetica,sans-Serif" font-size="10.00">Fiea::Engine::Content</text>
<text xml:space="preserve" text-anchor="middle" x="417.62" y="-144.5" font-family="Helvetica,sans-Serif" font-size="10.00">::Datum::SetType</text>
</a>
</g>
</g>
<!-- Node8&#45;&gt;Node12 -->
<g id="edge18_Node000008_Node000012" class="edge">
<title>Node8&#45;&gt;Node12</title>
<g id="a_edge18_Node000008_Node000012"><a xlink:title=" ">
<path fill="none" stroke="#63b8ff" d="M287.41,-214.67C311.89,-203.17 344.9,-187.68 371.43,-175.22"/>
<polygon fill="#63b8ff" stroke="#63b8ff" points="372.68,-178.5 380.24,-171.08 369.7,-172.16 372.68,-178.5"/>
</a>
</g>
</g>
<!-- Node10&#45;&gt;Node10 -->
<g id="edge15_Node000010_Node000010" class="edge">
<title>Node10&#45;&gt;Node10</title>
<g id="a_edge15_Node000010_Node000010"><a xlink:title=" ">
<path fill="none" stroke="#63b8ff" d="M539.34,-227.44C534.43,-236.58 543.19,-245 565.62,-245 577.89,-245 586.07,-242.48 590.16,-238.71"/>
<polygon fill="#63b8ff" stroke="#63b8ff" points="593.6,-239.36 591.68,-228.94 586.69,-238.28 593.6,-239.36"/>
</a>
</g>
</g>
<!-- Node11&#45;&gt;Node10 -->
<g id="edge17_Node000011_Node000010" class="edge">
<title>Node11&#45;&gt;Node10</title>
<g id="a_edge17_Node000011_Node000010"><a xlink:title=" ">
<path fill="none" stroke="#63b8ff" d="M473.41,-230.37C481.53,-228.64 489.97,-226.85 498.3,-225.08"/>
<polygon fill="#63b8ff" stroke="#63b8ff" points="499,-228.51 508.06,-223.01 497.55,-221.66 499,-228.51"/>
</a>
</g>
</g>
<!-- Node14 -->
<g id="Node000014" class="node">
<title>Node14</title>
<g id="a_Node000014"><a xlink:href="class_fiea_1_1_engine_1_1_r_t_t_i.html#ac0a7d875e4513b2aca7594abcd4418ef" target="_top" xlink:title=" ">
<polygon fill="white" stroke="#666666" points="474,-20 361.25,-20 361.25,0 474,0 474,-20"/>
<text xml:space="preserve" text-anchor="middle" x="417.62" y="-6.5" font-family="Helvetica,sans-Serif" font-size="10.00">Fiea::Engine::RTTI::Is</text>
</a>
</g>
</g>
<!-- Node13&#45;&gt;Node14 -->
<g id="edge20_Node000013_Node000014" class="edge">
<title>Node13&#45;&gt;Node14</title>
<g id="a_edge20_Node000013_Node000014"><a xlink:title=" ">
<path fill="none" stroke="#63b8ff" d="M310.28,-104.79C315.64,-102.44 320.74,-99.55 325.25,-96 351.81,-75.09 335.49,-50.88 361.25,-29 362.51,-27.93 363.83,-26.92 365.2,-25.97"/>
<polygon fill="#63b8ff" stroke="#63b8ff" points="366.59,-29.2 373.54,-21.2 363.12,-23.13 366.59,-29.2"/>
</a>
</g>
</g>
<!-- Node15 -->
<g id="Node000015" class="node">
<title>Node15</title>
<g id="a_Node000015"><a xlink:href="class_fiea_1_1_engine_1_1_r_t_t_i.html#a13000029a2e6cced30b831e466e07cae" target="_top" xlink:title=" ">
<polygon fill="white" stroke="#666666" points="466.88,-70 368.38,-70 368.38,-38 466.88,-38 466.88,-70"/>
<text xml:space="preserve" text-anchor="start" x="376.38" y="-56.5" font-family="Helvetica,sans-Serif" font-size="10.00">Fiea::Engine::RTTI</text>
<text xml:space="preserve" text-anchor="middle" x="417.62" y="-44.5" font-family="Helvetica,sans-Serif" font-size="10.00">::RTTI</text>
</a>
</g>
</g>
<!-- Node13&#45;&gt;Node15 -->
<g id="edge21_Node000013_Node000015" class="edge">
<title>Node13&#45;&gt;Node15</title>
<g id="a_edge21_Node000013_Node000015"><a xlink:title=" ">
<path fill="none" stroke="#63b8ff" d="M297.96,-104.52C307.09,-102.03 316.55,-99.16 325.25,-96 341.88,-89.96 345.19,-86.42 361.25,-79 363.98,-77.74 366.8,-76.45 369.64,-75.15"/>
<polygon fill="#63b8ff" stroke="#63b8ff" points="370.92,-78.41 378.57,-71.08 368.02,-72.04 370.92,-78.41"/>
</a>
</g>
</g>
</g>
</svg>
