<?xml version="1.0" encoding="UTF-8" standalone="no"?>
<!DOCTYPE svg PUBLIC "-//W3C//DTD SVG 1.1//EN"
 "http://www.w3.org/Graphics/SVG/1.1/DTD/svg11.dtd">
<!-- Generated by graphviz version 13.1.0 (20250701.0955)
 -->
<!-- Title: Fiea::Engine::Content::Datum::ResizeArray Pages: 1 -->
<svg width="1045pt" height="801pt"
 viewBox="0.00 0.00 1045.00 801.00" xmlns="http://www.w3.org/2000/svg" xmlns:xlink="http://www.w3.org/1999/xlink">
<g id="graph0" class="graph" transform="scale(1 1) rotate(0) translate(4 797.3)">
<title>Fiea::Engine::Content::Datum::ResizeArray</title>
<!-- Node1 -->
<g id="Node000001" class="node">
<title>Node1</title>
<g id="a_Node000001"><a xlink:title=" ">
<polygon fill="#999999" stroke="#666666" points="1036.5,-292 925.25,-292 925.25,-260 1036.5,-260 1036.5,-292"/>
<text xml:space="preserve" text-anchor="start" x="933.25" y="-278.5" font-family="Helvetica,sans-Serif" font-size="10.00">Fiea::Engine::Content</text>
<text xml:space="preserve" text-anchor="middle" x="980.88" y="-266.5" font-family="Helvetica,sans-Serif" font-size="10.00">::Datum::ResizeArray</text>
</a>
</g>
</g>
<!-- Node2 -->
<g id="Node000002" class="node">
<title>Node2</title>
<g id="a_Node000002"><a xlink:href="class_fiea_1_1_engine_1_1_content_1_1_datum.html#acb3ba55fc9b39b876cf3334d0305f4fc" target="_top" xlink:title=" ">
<polygon fill="white" stroke="#666666" points="889.25,-292 778,-292 778,-260 889.25,-260 889.25,-292"/>
<text xml:space="preserve" text-anchor="start" x="786" y="-278.5" font-family="Helvetica,sans-Serif" font-size="10.00">Fiea::Engine::Content</text>
<text xml:space="preserve" text-anchor="middle" x="833.62" y="-266.5" font-family="Helvetica,sans-Serif" font-size="10.00">::Datum::Push</text>
</a>
</g>
</g>
<!-- Node1&#45;&gt;Node2 -->
<g id="edge1_Node000001_Node000002" class="edge">
<title>Node1&#45;&gt;Node2</title>
<g id="a_edge1_Node000001_Node000002"><a xlink:title=" ">
<path fill="none" stroke="#63b8ff" d="M913.69,-276C905.64,-276 897.48,-276 889.62,-276"/>
<polygon fill="#63b8ff" stroke="#63b8ff" points="913.45,-279.5 923.45,-276 913.45,-272.5 913.45,-279.5"/>
</a>
</g>
</g>
<!-- Node3 -->
<g id="Node000003" class="node">
<title>Node3</title>
<g id="a_Node000003"><a xlink:href="class_fiea_1_1_engine_1_1_actions_1_1_action_list.html#a0c04eb0d37827c07bb6745b3a0cac817" target="_top" xlink:title=" ">
<polygon fill="white" stroke="#666666" points="721.38,-702 604.88,-702 604.88,-670 721.38,-670 721.38,-702"/>
<text xml:space="preserve" text-anchor="start" x="612.88" y="-688.5" font-family="Helvetica,sans-Serif" font-size="10.00">Fiea::Engine::Actions</text>
<text xml:space="preserve" text-anchor="middle" x="663.12" y="-676.5" font-family="Helvetica,sans-Serif" font-size="10.00">::ActionList::AddAction</text>
</a>
</g>
</g>
<!-- Node2&#45;&gt;Node3 -->
<g id="edge2_Node000002_Node000003" class="edge">
<title>Node2&#45;&gt;Node3</title>
<g id="a_edge2_Node000002_Node000003"><a xlink:title=" ">
<path fill="none" stroke="#63b8ff" d="M829.66,-303.46C820.62,-382.45 790.97,-607.98 742,-661 736.41,-667.05 729.36,-671.64 721.79,-675.13"/>
<polygon fill="#63b8ff" stroke="#63b8ff" points="833.09,-304.33 830.72,-294 826.13,-303.55 833.09,-304.33"/>
</a>
</g>
</g>
<!-- Node4 -->
<g id="Node000004" class="node">
<title>Node4</title>
<g id="a_Node000004"><a xlink:href="class_fiea_1_1_engine_1_1_game_object.html#a2d9e0734194c82c1f1d319e49c845c0f" target="_top" xlink:title=" ">
<polygon fill="white" stroke="#666666" points="728.88,-652 597.38,-652 597.38,-620 728.88,-620 728.88,-652"/>
<text xml:space="preserve" text-anchor="start" x="605.38" y="-638.5" font-family="Helvetica,sans-Serif" font-size="10.00">Fiea::Engine::GameObject</text>
<text xml:space="preserve" text-anchor="middle" x="663.12" y="-626.5" font-family="Helvetica,sans-Serif" font-size="10.00">::AddAction</text>
</a>
</g>
</g>
<!-- Node2&#45;&gt;Node4 -->
<g id="edge3_Node000002_Node000004" class="edge">
<title>Node2&#45;&gt;Node4</title>
<g id="a_edge3_Node000002_Node000004"><a xlink:title=" ">
<path fill="none" stroke="#63b8ff" d="M829.1,-303.51C821.11,-357.74 797.81,-480.65 742,-567 728.17,-588.39 705.95,-607.15 688.78,-619.69"/>
<polygon fill="#63b8ff" stroke="#63b8ff" points="832.52,-304.32 830.44,-293.93 825.59,-303.35 832.52,-304.32"/>
</a>
</g>
</g>
<!-- Node10 -->
<g id="Node000010" class="node">
<title>Node10</title>
<g id="a_Node000010"><a xlink:href="class_fiea_1_1_engine_1_1_game_object.html#a4d89e3a21dd6381eac8a1f1189ea029e" target="_top" xlink:title=" ">
<polygon fill="white" stroke="#666666" points="728.88,-558 597.38,-558 597.38,-526 728.88,-526 728.88,-558"/>
<text xml:space="preserve" text-anchor="start" x="605.38" y="-544.5" font-family="Helvetica,sans-Serif" font-size="10.00">Fiea::Engine::GameObject</text>
<text xml:space="preserve" text-anchor="middle" x="663.12" y="-532.5" font-family="Helvetica,sans-Serif" font-size="10.00">::AddChild</text>
</a>
</g>
</g>
<!-- Node2&#45;&gt;Node10 -->
<g id="edge11_Node000002_Node000010" class="edge">
<title>Node2&#45;&gt;Node10</title>
<g id="a_edge11_Node000002_Node000010"><a xlink:title=" ">
<path fill="none" stroke="#63b8ff" d="M827.11,-303.51C816.99,-348.14 791.76,-437.12 742,-495 731.09,-507.69 715.86,-517.93 701.76,-525.57"/>
<polygon fill="#63b8ff" stroke="#63b8ff" points="830.5,-304.41 829.2,-293.9 823.66,-302.93 830.5,-304.41"/>
</a>
</g>
</g>
<!-- Node17 -->
<g id="Node000017" class="node">
<title>Node17</title>
<g id="a_Node000017"><a xlink:href="class_fiea_1_1_engine_1_1_content_1_1_scope_writer.html#a028f763e7b7c95ba5d53fb121a832583" target="_top" xlink:title=" ">
<polygon fill="white" stroke="#666666" points="742,-270 584.25,-270 584.25,-238 742,-238 742,-270"/>
<text xml:space="preserve" text-anchor="start" x="592.25" y="-256.5" font-family="Helvetica,sans-Serif" font-size="10.00">Fiea::Engine::Content</text>
<text xml:space="preserve" text-anchor="middle" x="663.12" y="-244.5" font-family="Helvetica,sans-Serif" font-size="10.00">::ScopeWriter::AddPrimitiveType</text>
</a>
</g>
</g>
<!-- Node2&#45;&gt;Node17 -->
<g id="edge18_Node000002_Node000017" class="edge">
<title>Node2&#45;&gt;Node17</title>
<g id="a_edge18_Node000002_Node000017"><a xlink:title=" ">
<path fill="none" stroke="#63b8ff" d="M766.53,-267.37C758.62,-266.34 750.49,-265.28 742.43,-264.22"/>
<polygon fill="#63b8ff" stroke="#63b8ff" points="766.05,-270.84 776.42,-268.66 766.95,-263.9 766.05,-270.84"/>
</a>
</g>
</g>
<!-- Node19 -->
<g id="Node000019" class="node">
<title>Node19</title>
<g id="a_Node000019"><a xlink:href="class_fiea_1_1_engine_1_1_content_1_1_scope.html#abf39accc1ce38b12bcbc6884ba0165e3" target="_top" xlink:title="Adopts an existing Scope as a child under the specified key.">
<polygon fill="white" stroke="#666666" points="718.75,-358 607.5,-358 607.5,-326 718.75,-326 718.75,-358"/>
<text xml:space="preserve" text-anchor="start" x="615.5" y="-344.5" font-family="Helvetica,sans-Serif" font-size="10.00">Fiea::Engine::Content</text>
<text xml:space="preserve" text-anchor="middle" x="663.12" y="-332.5" font-family="Helvetica,sans-Serif" font-size="10.00">::Scope::Adopt</text>
</a>
</g>
</g>
<!-- Node2&#45;&gt;Node19 -->
<g id="edge20_Node000002_Node000019" class="edge">
<title>Node2&#45;&gt;Node19</title>
<g id="a_edge20_Node000002_Node000019"><a xlink:title=" ">
<path fill="none" stroke="#63b8ff" d="M781.13,-296.56C768.35,-301.64 754.69,-307.04 742,-312 730.67,-316.43 718.39,-321.19 707,-325.58"/>
<polygon fill="#63b8ff" stroke="#63b8ff" points="782.2,-299.9 790.2,-292.96 779.62,-293.4 782.2,-299.9"/>
</a>
</g>
</g>
<!-- Node21 -->
<g id="Node000021" class="node">
<title>Node21</title>
<g id="a_Node000021"><a xlink:href="class_fiea_1_1_engine_1_1_content_1_1_scope.html#a002f54731a8996f37c4f725d8175ffee" target="_top" xlink:title="Appends a new Scope as a child under the specified key.">
<polygon fill="white" stroke="#666666" points="721.38,-486 604.88,-486 604.88,-454 721.38,-454 721.38,-486"/>
<text xml:space="preserve" text-anchor="start" x="612.88" y="-472.5" font-family="Helvetica,sans-Serif" font-size="10.00">Fiea::Engine::Content</text>
<text xml:space="preserve" text-anchor="middle" x="663.12" y="-460.5" font-family="Helvetica,sans-Serif" font-size="10.00">::Scope::AppendScope</text>
</a>
</g>
</g>
<!-- Node2&#45;&gt;Node21 -->
<g id="edge22_Node000002_Node000021" class="edge">
<title>Node2&#45;&gt;Node21</title>
<g id="a_edge22_Node000002_Node000021"><a xlink:title=" ">
<path fill="none" stroke="#63b8ff" d="M811,-300.9C775.97,-341.23 707.77,-419.75 678.28,-453.7"/>
<polygon fill="#63b8ff" stroke="#63b8ff" points="813.64,-303.19 817.56,-293.35 808.36,-298.6 813.64,-303.19"/>
</a>
</g>
</g>
<!-- Node25 -->
<g id="Node000025" class="node">
<title>Node25</title>
<g id="a_Node000025"><a xlink:href="namespace_fiea_1_1_engine_1_1_tests.html#a376f9ed8237603ebeb822c9076f2f630" target="_top" xlink:title=" ">
<polygon fill="white" stroke="#666666" points="502.88,-308 402.12,-308 402.12,-276 502.88,-276 502.88,-308"/>
<text xml:space="preserve" text-anchor="start" x="410.12" y="-294.5" font-family="Helvetica,sans-Serif" font-size="10.00">Fiea::Engine::Tests</text>
<text xml:space="preserve" text-anchor="middle" x="452.5" y="-282.5" font-family="Helvetica,sans-Serif" font-size="10.00">::TEST_CLASS</text>
</a>
</g>
</g>
<!-- Node2&#45;&gt;Node25 -->
<g id="edge40_Node000002_Node000025" class="edge">
<title>Node2&#45;&gt;Node25</title>
<g id="a_edge40_Node000002_Node000025"><a xlink:title=" ">
<path fill="none" stroke="#63b8ff" d="M766.73,-278.78C691.74,-281.95 570.95,-287.04 503.37,-289.9"/>
<polygon fill="#63b8ff" stroke="#63b8ff" points="766.55,-282.29 776.39,-278.37 766.25,-275.3 766.55,-282.29"/>
</a>
</g>
</g>
<!-- Node26 -->
<g id="Node000026" class="node">
<title>Node26</title>
<g id="a_Node000026"><a xlink:href="class_fiea_1_1_engine_1_1_actions_1_1_action_add_datum.html#a5f4cbb307e5114e6df91fe55e09ba3b1" target="_top" xlink:title=" ">
<polygon fill="white" stroke="#666666" points="734.88,-220 591.38,-220 591.38,-188 734.88,-188 734.88,-220"/>
<text xml:space="preserve" text-anchor="start" x="599.38" y="-206.5" font-family="Helvetica,sans-Serif" font-size="10.00">Fiea::Engine::Actions</text>
<text xml:space="preserve" text-anchor="middle" x="663.12" y="-194.5" font-family="Helvetica,sans-Serif" font-size="10.00">::ActionAddDatum::InitAction</text>
</a>
</g>
</g>
<!-- Node2&#45;&gt;Node26 -->
<g id="edge33_Node000002_Node000026" class="edge">
<title>Node2&#45;&gt;Node26</title>
<g id="a_edge33_Node000002_Node000026"><a xlink:title=" ">
<path fill="none" stroke="#63b8ff" d="M794.26,-254.29C778.37,-245.78 759.58,-236.32 742,-229 734.79,-226 727.08,-223.13 719.43,-220.48"/>
<polygon fill="#63b8ff" stroke="#63b8ff" points="792.45,-257.29 802.91,-258.99 795.79,-251.14 792.45,-257.29"/>
</a>
</g>
</g>
<!-- Node27 -->
<g id="Node000027" class="node">
<title>Node27</title>
<g id="a_Node000027"><a xlink:href="class_fiea_1_1_engine_1_1_content_1_1_datum.html#a2bb6d02e4d11e947717b9fce2da3ca5f" target="_top" xlink:title=" ">
<polygon fill="white" stroke="#666666" points="727,-170 599.25,-170 599.25,-138 727,-138 727,-170"/>
<text xml:space="preserve" text-anchor="start" x="607.25" y="-156.5" font-family="Helvetica,sans-Serif" font-size="10.00">Fiea::Engine::Content</text>
<text xml:space="preserve" text-anchor="middle" x="663.12" y="-144.5" font-family="Helvetica,sans-Serif" font-size="10.00">::Datum::PushFromString</text>
</a>
</g>
</g>
<!-- Node2&#45;&gt;Node27 -->
<g id="edge34_Node000002_Node000027" class="edge">
<title>Node2&#45;&gt;Node27</title>
<g id="a_edge34_Node000002_Node000027"><a xlink:title=" ">
<path fill="none" stroke="#63b8ff" d="M814.98,-250.83C798.44,-228.97 771.84,-197.92 742,-179 736.84,-175.73 731.22,-172.85 725.44,-170.33"/>
<polygon fill="#63b8ff" stroke="#63b8ff" points="811.99,-252.67 820.74,-258.65 817.63,-248.52 811.99,-252.67"/>
</a>
</g>
</g>
<!-- Node31 -->
<g id="Node000031" class="node">
<title>Node31</title>
<g id="a_Node000031"><a xlink:href="namespace_fiea_1_1_engine_1_1_tests.html#a15040015fac83efdce86366a293948ae" target="_top" xlink:title=" ">
<polygon fill="white" stroke="#666666" points="502.88,-96 402.12,-96 402.12,-64 502.88,-64 502.88,-96"/>
<text xml:space="preserve" text-anchor="start" x="410.12" y="-82.5" font-family="Helvetica,sans-Serif" font-size="10.00">Fiea::Engine::Tests</text>
<text xml:space="preserve" text-anchor="middle" x="452.5" y="-70.5" font-family="Helvetica,sans-Serif" font-size="10.00">::TEST_CLASS</text>
</a>
</g>
</g>
<!-- Node2&#45;&gt;Node31 -->
<g id="edge42_Node000002_Node000031" class="edge">
<title>Node2&#45;&gt;Node31</title>
<g id="a_edge42_Node000002_Node000031"><a xlink:title=" ">
<path fill="none" stroke="#63b8ff" d="M823.87,-249.04C811.39,-215.2 785.1,-158.07 742,-129 703.83,-103.26 575.09,-89.41 503.16,-83.51"/>
<polygon fill="#63b8ff" stroke="#63b8ff" points="820.45,-249.86 827.07,-258.12 827.05,-247.53 820.45,-249.86"/>
</a>
</g>
</g>
<!-- Node32 -->
<g id="Node000032" class="node">
<title>Node32</title>
<g id="a_Node000032"><a xlink:href="namespace_fiea_1_1_engine_1_1_tests.html#ad7d06bf277bf903f5dbc3982540b1563" target="_top" xlink:title=" ">
<polygon fill="white" stroke="#666666" points="713.5,-82 612.75,-82 612.75,-50 713.5,-50 713.5,-82"/>
<text xml:space="preserve" text-anchor="start" x="620.75" y="-68.5" font-family="Helvetica,sans-Serif" font-size="10.00">Fiea::Engine::Tests</text>
<text xml:space="preserve" text-anchor="middle" x="663.12" y="-56.5" font-family="Helvetica,sans-Serif" font-size="10.00">::TEST_CLASS</text>
</a>
</g>
</g>
<!-- Node2&#45;&gt;Node32 -->
<g id="edge41_Node000002_Node000032" class="edge">
<title>Node2&#45;&gt;Node32</title>
<g id="a_edge41_Node000002_Node000032"><a xlink:title=" ">
<path fill="none" stroke="#63b8ff" d="M825.64,-248.64C814.35,-209.64 788.53,-138.15 742,-96 733.95,-88.7 723.93,-83.11 713.79,-78.84"/>
<polygon fill="#63b8ff" stroke="#63b8ff" points="822.24,-249.47 828.28,-258.17 828.98,-247.6 822.24,-249.47"/>
</a>
</g>
</g>
<!-- Node33 -->
<g id="Node000033" class="node">
<title>Node33</title>
<g id="a_Node000033"><a xlink:href="namespace_fiea_1_1_engine_1_1_tests.html#a68f566c6aeab43c3e521cc48e0c08362" target="_top" xlink:title=" ">
<polygon fill="white" stroke="#666666" points="713.5,-32 612.75,-32 612.75,0 713.5,0 713.5,-32"/>
<text xml:space="preserve" text-anchor="start" x="620.75" y="-18.5" font-family="Helvetica,sans-Serif" font-size="10.00">Fiea::Engine::Tests</text>
<text xml:space="preserve" text-anchor="middle" x="663.12" y="-6.5" font-family="Helvetica,sans-Serif" font-size="10.00">::TEST_CLASS</text>
</a>
</g>
</g>
<!-- Node2&#45;&gt;Node33 -->
<g id="edge43_Node000002_Node000033" class="edge">
<title>Node2&#45;&gt;Node33</title>
<g id="a_edge43_Node000002_Node000033"><a xlink:title=" ">
<path fill="none" stroke="#63b8ff" d="M829.7,-248.5C823.05,-199.76 802.38,-98.01 742,-41 734.15,-33.59 724.1,-28.38 713.85,-24.71"/>
<polygon fill="#63b8ff" stroke="#63b8ff" points="826.19,-248.7 830.91,-258.18 833.14,-247.83 826.19,-248.7"/>
</a>
</g>
</g>
<!-- Node5 -->
<g id="Node000005" class="node">
<title>Node5</title>
<g id="a_Node000005"><a xlink:href="class_fiea_1_1_engine_1_1_content_1_1_scope_writer.html#aa73231d29c0a0b0bcfbb910e2f913404" target="_top" xlink:title=" ">
<polygon fill="white" stroke="#666666" points="523.5,-658 381.5,-658 381.5,-614 523.5,-614 523.5,-658"/>
<text xml:space="preserve" text-anchor="start" x="389.5" y="-644.5" font-family="Helvetica,sans-Serif" font-size="10.00">Fiea::Engine::Content</text>
<text xml:space="preserve" text-anchor="start" x="389.5" y="-632.5" font-family="Helvetica,sans-Serif" font-size="10.00">::ScopeWriter::AddActionList</text>
<text xml:space="preserve" text-anchor="middle" x="452.5" y="-620.5" font-family="Helvetica,sans-Serif" font-size="10.00">Object</text>
</a>
</g>
</g>
<!-- Node4&#45;&gt;Node5 -->
<g id="edge4_Node000004_Node000005" class="edge">
<title>Node4&#45;&gt;Node5</title>
<g id="a_edge4_Node000004_Node000005"><a xlink:title=" ">
<path fill="none" stroke="#63b8ff" d="M585.62,-636C565.45,-636 543.78,-636 523.95,-636"/>
<polygon fill="#63b8ff" stroke="#63b8ff" points="585.46,-639.5 595.46,-636 585.46,-632.5 585.46,-639.5"/>
</a>
</g>
</g>
<!-- Node6 -->
<g id="Node000006" class="node">
<title>Node6</title>
<g id="a_Node000006"><a xlink:href="class_fiea_1_1_engine_1_1_content_1_1_scope_writer.html#a0a79e65b8a84d1a7275153c32e4d499a" target="_top" xlink:title=" ">
<polygon fill="white" stroke="#666666" points="320.75,-733 166,-733 166,-701 320.75,-701 320.75,-733"/>
<text xml:space="preserve" text-anchor="start" x="174" y="-719.5" font-family="Helvetica,sans-Serif" font-size="10.00">Fiea::Engine::Content</text>
<text xml:space="preserve" text-anchor="middle" x="243.38" y="-707.5" font-family="Helvetica,sans-Serif" font-size="10.00">::ScopeWriter::AddActionObject</text>
</a>
</g>
</g>
<!-- Node4&#45;&gt;Node6 -->
<g id="edge8_Node000004_Node000006" class="edge">
<title>Node4&#45;&gt;Node6</title>
<g id="a_edge8_Node000004_Node000006"><a xlink:title=" ">
<path fill="none" stroke="#63b8ff" d="M587.53,-658.02C586.4,-658.97 585.3,-659.96 584.25,-661 548.77,-695.89 588.69,-738.02 548.25,-767 462.41,-828.5 328.16,-765.35 271.28,-733.27"/>
<polygon fill="#63b8ff" stroke="#63b8ff" points="589.44,-660.95 595.64,-652.36 585.44,-655.21 589.44,-660.95"/>
</a>
</g>
</g>
<!-- Node9 -->
<g id="Node000009" class="node">
<title>Node9</title>
<g id="a_Node000009"><a xlink:href="class_fiea_1_1_engine_1_1_content_1_1_scope_writer.html#a8baf6cd60c0807e9e91054132db5183f" target="_top" xlink:title=" ">
<polygon fill="white" stroke="#666666" points="548.25,-758 356.75,-758 356.75,-726 548.25,-726 548.25,-758"/>
<text xml:space="preserve" text-anchor="start" x="364.75" y="-744.5" font-family="Helvetica,sans-Serif" font-size="10.00">Fiea::Engine::Content</text>
<text xml:space="preserve" text-anchor="middle" x="452.5" y="-732.5" font-family="Helvetica,sans-Serif" font-size="10.00">::ScopeWriter::AddActionToPredecessor</text>
</a>
</g>
</g>
<!-- Node4&#45;&gt;Node9 -->
<g id="edge9_Node000004_Node000009" class="edge">
<title>Node4&#45;&gt;Node9</title>
<g id="a_edge9_Node000004_Node000009"><a xlink:title=" ">
<path fill="none" stroke="#63b8ff" d="M588.39,-658.04C586.97,-658.99 585.59,-659.97 584.25,-661 560.79,-679.02 572.18,-699.6 548.25,-717 543.71,-720.3 538.76,-723.17 533.6,-725.66"/>
<polygon fill="#63b8ff" stroke="#63b8ff" points="589.99,-661.16 596.89,-653.12 586.48,-655.1 589.99,-661.16"/>
</a>
</g>
</g>
<!-- Node5&#45;&gt;Node6 -->
<g id="edge5_Node000005_Node000006" class="edge">
<title>Node5&#45;&gt;Node6</title>
<g id="a_edge5_Node000005_Node000006"><a xlink:title=" ">
<path fill="none" stroke="#63b8ff" d="M370.3,-661.96C365.7,-663.62 361.16,-665.3 356.75,-667 330.25,-677.2 300.95,-690.3 278.92,-700.53"/>
<polygon fill="#63b8ff" stroke="#63b8ff" points="371.41,-665.28 379.68,-658.64 369.08,-658.68 371.41,-665.28"/>
</a>
</g>
</g>
<!-- Node8 -->
<g id="Node000008" class="node">
<title>Node8</title>
<g id="a_Node000008"><a xlink:href="class_fiea_1_1_engine_1_1_content_1_1_action_list_handler.html#ae0f8b6534bcf602df112f39202c79ecc" target="_top" xlink:title=" ">
<polygon fill="white" stroke="#666666" points="299,-658 187.75,-658 187.75,-614 299,-614 299,-658"/>
<text xml:space="preserve" text-anchor="start" x="195.75" y="-644.5" font-family="Helvetica,sans-Serif" font-size="10.00">Fiea::Engine::Content</text>
<text xml:space="preserve" text-anchor="start" x="195.75" y="-632.5" font-family="Helvetica,sans-Serif" font-size="10.00">::ActionListHandler::</text>
<text xml:space="preserve" text-anchor="middle" x="243.38" y="-620.5" font-family="Helvetica,sans-Serif" font-size="10.00">EnterKey</text>
</a>
</g>
</g>
<!-- Node5&#45;&gt;Node8 -->
<g id="edge7_Node000005_Node000008" class="edge">
<title>Node5&#45;&gt;Node8</title>
<g id="a_edge7_Node000005_Node000008"><a xlink:title=" ">
<path fill="none" stroke="#63b8ff" d="M369.63,-636C346,-636 320.78,-636 299.22,-636"/>
<polygon fill="#63b8ff" stroke="#63b8ff" points="369.57,-639.5 379.57,-636 369.57,-632.5 369.57,-639.5"/>
</a>
</g>
</g>
<!-- Node7 -->
<g id="Node000007" class="node">
<title>Node7</title>
<g id="a_Node000007"><a xlink:href="class_fiea_1_1_engine_1_1_content_1_1_action_handler.html#a392af20cfeb37d539b88183bc9672f7a" target="_top" xlink:title=" ">
<polygon fill="white" stroke="#666666" points="130,-733 0,-733 0,-701 130,-701 130,-733"/>
<text xml:space="preserve" text-anchor="start" x="8" y="-719.5" font-family="Helvetica,sans-Serif" font-size="10.00">Fiea::Engine::Content</text>
<text xml:space="preserve" text-anchor="middle" x="65" y="-707.5" font-family="Helvetica,sans-Serif" font-size="10.00">::ActionHandler::EnterKey</text>
</a>
</g>
</g>
<!-- Node6&#45;&gt;Node7 -->
<g id="edge6_Node000006_Node000007" class="edge">
<title>Node6&#45;&gt;Node7</title>
<g id="a_edge6_Node000006_Node000007"><a xlink:title=" ">
<path fill="none" stroke="#63b8ff" d="M154.23,-717C146.22,-717 138.21,-717 130.47,-717"/>
<polygon fill="#63b8ff" stroke="#63b8ff" points="154.01,-720.5 164.01,-717 154.01,-713.5 154.01,-720.5"/>
</a>
</g>
</g>
<!-- Node9&#45;&gt;Node6 -->
<g id="edge10_Node000009_Node000006" class="edge">
<title>Node9&#45;&gt;Node6</title>
<g id="a_edge10_Node000009_Node000006"><a xlink:title=" ">
<path fill="none" stroke="#63b8ff" d="M345.06,-729.15C337.01,-728.18 328.99,-727.21 321.19,-726.27"/>
<polygon fill="#63b8ff" stroke="#63b8ff" points="344.57,-732.62 354.92,-730.34 345.41,-725.67 344.57,-732.62"/>
</a>
</g>
</g>
<!-- Node11 -->
<g id="Node000011" class="node">
<title>Node11</title>
<g id="a_Node000011"><a xlink:href="class_fiea_1_1_engine_1_1_content_1_1_scope_writer.html#a707086401a09fd8b2f07d65a1f95fd72" target="_top" xlink:title=" ">
<polygon fill="white" stroke="#666666" points="529.12,-558 375.88,-558 375.88,-526 529.12,-526 529.12,-558"/>
<text xml:space="preserve" text-anchor="start" x="383.88" y="-544.5" font-family="Helvetica,sans-Serif" font-size="10.00">Fiea::Engine::Content</text>
<text xml:space="preserve" text-anchor="middle" x="452.5" y="-532.5" font-family="Helvetica,sans-Serif" font-size="10.00">::ScopeWriter::AddGameObject</text>
</a>
</g>
</g>
<!-- Node10&#45;&gt;Node11 -->
<g id="edge12_Node000010_Node000011" class="edge">
<title>Node10&#45;&gt;Node11</title>
<g id="a_edge12_Node000010_Node000011"><a xlink:title=" ">
<path fill="none" stroke="#63b8ff" d="M585.47,-542C567.2,-542 547.71,-542 529.47,-542"/>
<polygon fill="#63b8ff" stroke="#63b8ff" points="585.46,-545.5 595.46,-542 585.46,-538.5 585.46,-545.5"/>
</a>
</g>
</g>
<!-- Node16 -->
<g id="Node000016" class="node">
<title>Node16</title>
<g id="a_Node000016"><a xlink:href="namespace_fiea_1_1_engine_1_1_tests.html#a34b2b8dfbe4f7aa6a3ea0a5f24db384f" target="_top" xlink:title=" ">
<polygon fill="white" stroke="#666666" points="502.88,-708 402.12,-708 402.12,-676 502.88,-676 502.88,-708"/>
<text xml:space="preserve" text-anchor="start" x="410.12" y="-694.5" font-family="Helvetica,sans-Serif" font-size="10.00">Fiea::Engine::Tests</text>
<text xml:space="preserve" text-anchor="middle" x="452.5" y="-682.5" font-family="Helvetica,sans-Serif" font-size="10.00">::TEST_CLASS</text>
</a>
</g>
</g>
<!-- Node10&#45;&gt;Node16 -->
<g id="edge17_Node000010_Node000016" class="edge">
<title>Node10&#45;&gt;Node16</title>
<g id="a_edge17_Node000010_Node000016"><a xlink:title=" ">
<path fill="none" stroke="#63b8ff" d="M631.94,-565.42C616.71,-578.02 598.5,-594.37 584.25,-611 565,-633.47 572.18,-649.6 548.25,-667 535.18,-676.5 518.76,-682.4 503.28,-686.05"/>
<polygon fill="#63b8ff" stroke="#63b8ff" points="633.78,-568.43 639.34,-559.4 629.37,-563 633.78,-568.43"/>
</a>
</g>
</g>
<!-- Node12 -->
<g id="Node000012" class="node">
<title>Node12</title>
<g id="a_Node000012"><a xlink:href="class_fiea_1_1_engine_1_1_content_1_1_scope_writer.html#a77fe1b124acb1dd1bd3f2d7f104035cf" target="_top" xlink:title=" ">
<polygon fill="white" stroke="#666666" points="306.5,-539 180.25,-539 180.25,-507 306.5,-507 306.5,-539"/>
<text xml:space="preserve" text-anchor="start" x="188.25" y="-525.5" font-family="Helvetica,sans-Serif" font-size="10.00">Fiea::Engine::Content</text>
<text xml:space="preserve" text-anchor="middle" x="243.38" y="-513.5" font-family="Helvetica,sans-Serif" font-size="10.00">::ScopeWriter::AddScope</text>
</a>
</g>
</g>
<!-- Node11&#45;&gt;Node12 -->
<g id="edge13_Node000011_Node000012" class="edge">
<title>Node11&#45;&gt;Node12</title>
<g id="a_edge13_Node000011_Node000012"><a xlink:title=" ">
<path fill="none" stroke="#63b8ff" d="M364.28,-534C344.95,-532.23 324.84,-530.38 306.74,-528.72"/>
<polygon fill="#63b8ff" stroke="#63b8ff" points="363.77,-537.47 374.04,-534.89 364.4,-530.5 363.77,-537.47"/>
</a>
</g>
</g>
<!-- Node13 -->
<g id="Node000013" class="node">
<title>Node13</title>
<g id="a_Node000013"><a xlink:href="class_fiea_1_1_engine_1_1_content_1_1_game_object_handler.html#a626573aebcd7beceb84dbd69bc15105b" target="_top" xlink:title=" ">
<polygon fill="white" stroke="#666666" points="123.25,-607 6.75,-607 6.75,-563 123.25,-563 123.25,-607"/>
<text xml:space="preserve" text-anchor="start" x="14.75" y="-593.5" font-family="Helvetica,sans-Serif" font-size="10.00">Fiea::Engine::Content</text>
<text xml:space="preserve" text-anchor="start" x="14.75" y="-581.5" font-family="Helvetica,sans-Serif" font-size="10.00">::GameObjectHandler::</text>
<text xml:space="preserve" text-anchor="middle" x="65" y="-569.5" font-family="Helvetica,sans-Serif" font-size="10.00">EnterKey</text>
</a>
</g>
</g>
<!-- Node12&#45;&gt;Node13 -->
<g id="edge14_Node000012_Node000013" class="edge">
<title>Node12&#45;&gt;Node13</title>
<g id="a_edge14_Node000012_Node000013"><a xlink:title=" ">
<path fill="none" stroke="#63b8ff" d="M184.94,-543.19C165.32,-550.08 143.39,-557.8 123.74,-564.7"/>
<polygon fill="#63b8ff" stroke="#63b8ff" points="185.87,-546.57 194.14,-539.95 183.55,-539.97 185.87,-546.57"/>
</a>
</g>
</g>
<!-- Node14 -->
<g id="Node000014" class="node">
<title>Node14</title>
<g id="a_Node000014"><a xlink:href="class_fiea_1_1_engine_1_1_content_1_1_scope_factory_handler.html#ae5e7d2b134d20238fa9be43f936bf80b" target="_top" xlink:title=" ">
<polygon fill="white" stroke="#666666" points="123.25,-545 6.75,-545 6.75,-501 123.25,-501 123.25,-545"/>
<text xml:space="preserve" text-anchor="start" x="14.75" y="-531.5" font-family="Helvetica,sans-Serif" font-size="10.00">Fiea::Engine::Content</text>
<text xml:space="preserve" text-anchor="start" x="14.75" y="-519.5" font-family="Helvetica,sans-Serif" font-size="10.00">::ScopeFactoryHandler</text>
<text xml:space="preserve" text-anchor="middle" x="65" y="-507.5" font-family="Helvetica,sans-Serif" font-size="10.00">::EnterKey</text>
</a>
</g>
</g>
<!-- Node12&#45;&gt;Node14 -->
<g id="edge15_Node000012_Node000014" class="edge">
<title>Node12&#45;&gt;Node14</title>
<g id="a_edge15_Node000012_Node000014"><a xlink:title=" ">
<path fill="none" stroke="#63b8ff" d="M168.77,-523C153.65,-523 137.95,-523 123.49,-523"/>
<polygon fill="#63b8ff" stroke="#63b8ff" points="168.68,-526.5 178.68,-523 168.68,-519.5 168.68,-526.5"/>
</a>
</g>
</g>
<!-- Node15 -->
<g id="Node000015" class="node">
<title>Node15</title>
<g id="a_Node000015"><a xlink:href="class_fiea_1_1_engine_1_1_content_1_1_scope_handler.html#a593999f6a2df6002af8db4629d8a0176" target="_top" xlink:title=" ">
<polygon fill="white" stroke="#666666" points="130,-483 0,-483 0,-451 130,-451 130,-483"/>
<text xml:space="preserve" text-anchor="start" x="8" y="-469.5" font-family="Helvetica,sans-Serif" font-size="10.00">Fiea::Engine::Content</text>
<text xml:space="preserve" text-anchor="middle" x="65" y="-457.5" font-family="Helvetica,sans-Serif" font-size="10.00">::ScopeHandler::EnterKey</text>
</a>
</g>
</g>
<!-- Node12&#45;&gt;Node15 -->
<g id="edge16_Node000012_Node000015" class="edge">
<title>Node12&#45;&gt;Node15</title>
<g id="a_edge16_Node000012_Node000015"><a xlink:title=" ">
<path fill="none" stroke="#63b8ff" d="M179.72,-503.11C159.47,-496.68 137.27,-489.63 117.9,-483.48"/>
<polygon fill="#63b8ff" stroke="#63b8ff" points="178.38,-506.35 188.97,-506.04 180.5,-499.68 178.38,-506.35"/>
</a>
</g>
</g>
<!-- Node18 -->
<g id="Node000018" class="node">
<title>Node18</title>
<g id="a_Node000018"><a xlink:href="class_fiea_1_1_engine_1_1_content_1_1_primitive_type_handler.html#a841c5fd5708419c73da86de56d887a2b" target="_top" xlink:title=" ">
<polygon fill="white" stroke="#666666" points="510,-258 395,-258 395,-214 510,-214 510,-258"/>
<text xml:space="preserve" text-anchor="start" x="403" y="-244.5" font-family="Helvetica,sans-Serif" font-size="10.00">Fiea::Engine::Content</text>
<text xml:space="preserve" text-anchor="start" x="403" y="-232.5" font-family="Helvetica,sans-Serif" font-size="10.00">::PrimitiveTypeHandler</text>
<text xml:space="preserve" text-anchor="middle" x="452.5" y="-220.5" font-family="Helvetica,sans-Serif" font-size="10.00">::EnterKey</text>
</a>
</g>
</g>
<!-- Node17&#45;&gt;Node18 -->
<g id="edge19_Node000017_Node000018" class="edge">
<title>Node17&#45;&gt;Node18</title>
<g id="a_edge19_Node000017_Node000018"><a xlink:title=" ">
<path fill="none" stroke="#63b8ff" d="M572.58,-246.27C551.49,-244.45 529.58,-242.56 510.39,-240.91"/>
<polygon fill="#63b8ff" stroke="#63b8ff" points="572.08,-249.74 582.34,-247.12 572.68,-242.77 572.08,-249.74"/>
</a>
</g>
</g>
<!-- Node20 -->
<g id="Node000020" class="node">
<title>Node20</title>
<g id="a_Node000020"><a xlink:href="namespace_fiea_1_1_engine_1_1_tests.html#ad3e53e7e3f072321bc7199970c619c1d" target="_top" xlink:title=" ">
<polygon fill="white" stroke="#666666" points="502.88,-358 402.12,-358 402.12,-326 502.88,-326 502.88,-358"/>
<text xml:space="preserve" text-anchor="start" x="410.12" y="-344.5" font-family="Helvetica,sans-Serif" font-size="10.00">Fiea::Engine::Tests</text>
<text xml:space="preserve" text-anchor="middle" x="452.5" y="-332.5" font-family="Helvetica,sans-Serif" font-size="10.00">::TEST_CLASS</text>
</a>
</g>
</g>
<!-- Node19&#45;&gt;Node20 -->
<g id="edge21_Node000019_Node000020" class="edge">
<title>Node19&#45;&gt;Node20</title>
<g id="a_edge21_Node000019_Node000020"><a xlink:title=" ">
<path fill="none" stroke="#63b8ff" d="M595.8,-342C565.78,-342 530.9,-342 503.18,-342"/>
<polygon fill="#63b8ff" stroke="#63b8ff" points="595.52,-345.5 605.52,-342 595.52,-338.5 595.52,-345.5"/>
</a>
</g>
</g>
<!-- Node21&#45;&gt;Node5 -->
<g id="edge23_Node000021_Node000005" class="edge">
<title>Node21&#45;&gt;Node5</title>
<g id="a_edge23_Node000021_Node000005"><a xlink:title=" ">
<path fill="none" stroke="#63b8ff" d="M615.22,-491.92C604.03,-498.77 592.85,-507.16 584.25,-517 557.78,-547.27 577.33,-572.23 548.25,-600 541.12,-606.81 532.58,-612.36 523.58,-616.88"/>
<polygon fill="#63b8ff" stroke="#63b8ff" points="616.76,-495.08 623.68,-487.06 613.27,-489.01 616.76,-495.08"/>
</a>
</g>
</g>
<!-- Node21&#45;&gt;Node6 -->
<g id="edge24_Node000021_Node000006" class="edge">
<title>Node21&#45;&gt;Node6</title>
<g id="a_edge24_Node000021_Node000006"><a xlink:title=" ">
<path fill="none" stroke="#63b8ff" d="M618.84,-491.92C606.94,-499.03 594.5,-507.55 584.25,-517 564.12,-535.56 571.28,-552.19 548.25,-567 475.26,-613.92 427.36,-554.56 356.75,-605 330.82,-623.52 342.67,-643.87 320.75,-667 307.99,-680.46 290.95,-692.06 276.19,-700.69"/>
<polygon fill="#63b8ff" stroke="#63b8ff" points="620.41,-495.05 627.34,-487.04 616.93,-488.98 620.41,-495.05"/>
</a>
</g>
</g>
<!-- Node21&#45;&gt;Node9 -->
<g id="edge25_Node000021_Node000009" class="edge">
<title>Node21&#45;&gt;Node9</title>
<g id="a_edge25_Node000021_Node000009"><a xlink:title=" ">
<path fill="none" stroke="#63b8ff" d="M611.39,-492.03C601.02,-498.67 591.17,-506.94 584.25,-517 533.03,-591.39 609.51,-650.64 548.25,-717 545.25,-720.25 541.88,-723.1 538.25,-725.59"/>
<polygon fill="#63b8ff" stroke="#63b8ff" points="612.85,-495.23 619.69,-487.14 609.3,-489.2 612.85,-495.23"/>
</a>
</g>
</g>
<!-- Node21&#45;&gt;Node11 -->
<g id="edge26_Node000021_Node000011" class="edge">
<title>Node21&#45;&gt;Node11</title>
<g id="a_edge26_Node000021_Node000011"><a xlink:title=" ">
<path fill="none" stroke="#63b8ff" d="M608.5,-490.37C589.53,-497.41 568.01,-505.23 548.25,-512 534.86,-516.58 520.33,-521.31 506.76,-525.62"/>
<polygon fill="#63b8ff" stroke="#63b8ff" points="609.47,-493.74 617.62,-486.96 607.02,-487.18 609.47,-493.74"/>
</a>
</g>
</g>
<!-- Node21&#45;&gt;Node12 -->
<g id="edge27_Node000021_Node000012" class="edge">
<title>Node21&#45;&gt;Node12</title>
<g id="a_edge27_Node000021_Node000012"><a xlink:title=" ">
<path fill="none" stroke="#63b8ff" d="M593.1,-478.76C513.46,-488.86 383.65,-505.33 306.88,-515.07"/>
<polygon fill="#63b8ff" stroke="#63b8ff" points="593.5,-482.24 602.98,-477.5 592.61,-475.29 593.5,-482.24"/>
</a>
</g>
</g>
<!-- Node21&#45;&gt;Node20 -->
<g id="edge32_Node000021_Node000020" class="edge">
<title>Node21&#45;&gt;Node20</title>
<g id="a_edge32_Node000021_Node000020"><a xlink:title=" ">
<path fill="none" stroke="#63b8ff" d="M641.41,-445.42C620.3,-421.92 585.45,-387.16 548.25,-367 534.34,-359.46 518.03,-354.1 502.9,-350.33"/>
<polygon fill="#63b8ff" stroke="#63b8ff" points="638.57,-447.49 647.8,-452.68 643.82,-442.87 638.57,-447.49"/>
</a>
</g>
</g>
<!-- Node22 -->
<g id="Node000022" class="node">
<title>Node22</title>
<g id="a_Node000022"><a xlink:href="class_fiea_1_1_engine_1_1_content_1_1_scope_writer.html#a542b6ab60fcbb7b17a9e203df367ca01" target="_top" xlink:title=" ">
<polygon fill="white" stroke="#666666" points="528,-470 377,-470 377,-426 528,-426 528,-470"/>
<text xml:space="preserve" text-anchor="start" x="385" y="-456.5" font-family="Helvetica,sans-Serif" font-size="10.00">Fiea::Engine::Content</text>
<text xml:space="preserve" text-anchor="start" x="385" y="-444.5" font-family="Helvetica,sans-Serif" font-size="10.00">::ScopeWriter::AddWhileAction</text>
<text xml:space="preserve" text-anchor="middle" x="452.5" y="-432.5" font-family="Helvetica,sans-Serif" font-size="10.00">ParamObject</text>
</a>
</g>
</g>
<!-- Node21&#45;&gt;Node22 -->
<g id="edge28_Node000021_Node000022" class="edge">
<title>Node21&#45;&gt;Node22</title>
<g id="a_edge28_Node000021_Node000022"><a xlink:title=" ">
<path fill="none" stroke="#63b8ff" d="M593.27,-462.74C572.51,-460.55 549.61,-458.14 528.47,-455.91"/>
<polygon fill="#63b8ff" stroke="#63b8ff" points="592.75,-466.2 603.06,-463.77 593.48,-459.24 592.75,-466.2"/>
</a>
</g>
</g>
<!-- Node24 -->
<g id="Node000024" class="node">
<title>Node24</title>
<g id="a_Node000024"><a xlink:href="namespace_fiea_1_1_engine_1_1_tests.html#a6fef2096c3071aeedc84a735d125856c" target="_top" xlink:title=" ">
<polygon fill="white" stroke="#666666" points="502.88,-408 402.12,-408 402.12,-376 502.88,-376 502.88,-408"/>
<text xml:space="preserve" text-anchor="start" x="410.12" y="-394.5" font-family="Helvetica,sans-Serif" font-size="10.00">Fiea::Engine::Tests</text>
<text xml:space="preserve" text-anchor="middle" x="452.5" y="-382.5" font-family="Helvetica,sans-Serif" font-size="10.00">::TEST_CLASS</text>
</a>
</g>
</g>
<!-- Node21&#45;&gt;Node24 -->
<g id="edge30_Node000021_Node000024" class="edge">
<title>Node21&#45;&gt;Node24</title>
<g id="a_edge30_Node000021_Node000024"><a xlink:title=" ">
<path fill="none" stroke="#63b8ff" d="M620.57,-448.49C599.32,-438.05 572.81,-425.88 548.25,-417 533.85,-411.8 517.86,-407.16 503.19,-403.34"/>
<polygon fill="#63b8ff" stroke="#63b8ff" points="618.99,-451.61 629.5,-452.93 622.11,-445.34 618.99,-451.61"/>
</a>
</g>
</g>
<!-- Node21&#45;&gt;Node25 -->
<g id="edge31_Node000021_Node000025" class="edge">
<title>Node21&#45;&gt;Node25</title>
<g id="a_edge31_Node000021_Node000025"><a xlink:title=" ">
<path fill="none" stroke="#63b8ff" d="M642.64,-444.57C626.78,-423.8 603.9,-393.63 584.25,-367 567.99,-344.97 570.81,-332.52 548.25,-317 534.93,-307.84 518.45,-302.04 502.99,-298.36"/>
<polygon fill="#63b8ff" stroke="#63b8ff" points="639.83,-446.65 648.68,-452.47 645.39,-442.4 639.83,-446.65"/>
</a>
</g>
</g>
<!-- Node23 -->
<g id="Node000023" class="node">
<title>Node23</title>
<g id="a_Node000023"><a xlink:href="class_fiea_1_1_engine_1_1_content_1_1_action_while_param_handler.html#a0d3cab60b559a3be182c4534883d4614" target="_top" xlink:title=" ">
<polygon fill="white" stroke="#666666" points="311.75,-470 175,-470 175,-426 311.75,-426 311.75,-470"/>
<text xml:space="preserve" text-anchor="start" x="183" y="-456.5" font-family="Helvetica,sans-Serif" font-size="10.00">Fiea::Engine::Content</text>
<text xml:space="preserve" text-anchor="start" x="183" y="-444.5" font-family="Helvetica,sans-Serif" font-size="10.00">::ActionWhileParamHandler</text>
<text xml:space="preserve" text-anchor="middle" x="243.38" y="-432.5" font-family="Helvetica,sans-Serif" font-size="10.00">::EnterKey</text>
</a>
</g>
</g>
<!-- Node22&#45;&gt;Node23 -->
<g id="edge29_Node000022_Node000023" class="edge">
<title>Node22&#45;&gt;Node23</title>
<g id="a_edge29_Node000022_Node000023"><a xlink:title=" ">
<path fill="none" stroke="#63b8ff" d="M365.21,-448C347.5,-448 329.1,-448 312.16,-448"/>
<polygon fill="#63b8ff" stroke="#63b8ff" points="365.21,-451.5 375.21,-448 365.21,-444.5 365.21,-451.5"/>
</a>
</g>
</g>
<!-- Node28 -->
<g id="Node000028" class="node">
<title>Node28</title>
<g id="a_Node000028"><a xlink:href="class_fiea_1_1_engine_1_1_content_1_1_scope_writer.html#a138420169c6f0541ec537c660bd4ac67" target="_top" xlink:title=" ">
<polygon fill="white" stroke="#666666" points="525.75,-196 379.25,-196 379.25,-164 525.75,-164 525.75,-196"/>
<text xml:space="preserve" text-anchor="start" x="387.25" y="-182.5" font-family="Helvetica,sans-Serif" font-size="10.00">Fiea::Engine::Content</text>
<text xml:space="preserve" text-anchor="middle" x="452.5" y="-170.5" font-family="Helvetica,sans-Serif" font-size="10.00">::ScopeWriter::AddMatrixType</text>
</a>
</g>
</g>
<!-- Node27&#45;&gt;Node28 -->
<g id="edge35_Node000027_Node000028" class="edge">
<title>Node27&#45;&gt;Node28</title>
<g id="a_edge35_Node000027_Node000028"><a xlink:title=" ">
<path fill="none" stroke="#63b8ff" d="M587.68,-163.28C567.6,-165.78 545.92,-168.48 525.95,-170.97"/>
<polygon fill="#63b8ff" stroke="#63b8ff" points="587.97,-166.77 597.46,-162.06 587.11,-159.82 587.97,-166.77"/>
</a>
</g>
</g>
<!-- Node30 -->
<g id="Node000030" class="node">
<title>Node30</title>
<g id="a_Node000030"><a xlink:href="class_fiea_1_1_engine_1_1_content_1_1_scope_writer.html#ab193d237036951e2e814316bbfe9b87b" target="_top" xlink:title=" ">
<polygon fill="white" stroke="#666666" points="526.12,-146 378.88,-146 378.88,-114 526.12,-114 526.12,-146"/>
<text xml:space="preserve" text-anchor="start" x="386.88" y="-132.5" font-family="Helvetica,sans-Serif" font-size="10.00">Fiea::Engine::Content</text>
<text xml:space="preserve" text-anchor="middle" x="452.5" y="-120.5" font-family="Helvetica,sans-Serif" font-size="10.00">::ScopeWriter::AddVectorType</text>
</a>
</g>
</g>
<!-- Node27&#45;&gt;Node30 -->
<g id="edge37_Node000027_Node000030" class="edge">
<title>Node27&#45;&gt;Node30</title>
<g id="a_edge37_Node000027_Node000030"><a xlink:title=" ">
<path fill="none" stroke="#63b8ff" d="M587.74,-145.44C567.77,-143.15 546.21,-140.66 526.33,-138.38"/>
<polygon fill="#63b8ff" stroke="#63b8ff" points="587.13,-148.9 597.46,-146.56 587.93,-141.94 587.13,-148.9"/>
</a>
</g>
</g>
<!-- Node27&#45;&gt;Node31 -->
<g id="edge39_Node000027_Node000031" class="edge">
<title>Node27&#45;&gt;Node31</title>
<g id="a_edge39_Node000027_Node000031"><a xlink:title=" ">
<path fill="none" stroke="#63b8ff" d="M606.36,-133.44C598.87,-130.41 591.33,-127.22 584.25,-124 567.78,-116.51 565.11,-111.57 548.25,-105 533.98,-99.44 518.04,-94.7 503.36,-90.89"/>
<polygon fill="#63b8ff" stroke="#63b8ff" points="604.87,-136.61 615.46,-137.04 607.45,-130.1 604.87,-136.61"/>
</a>
</g>
</g>
<!-- Node29 -->
<g id="Node000029" class="node">
<title>Node29</title>
<g id="a_Node000029"><a xlink:href="class_fiea_1_1_engine_1_1_content_1_1_special_primitives_handler.html#a5ff6f656b92d166947bbd3a7c73f9610" target="_top" xlink:title=" ">
<polygon fill="white" stroke="#666666" points="309.12,-177 177.62,-177 177.62,-133 309.12,-133 309.12,-177"/>
<text xml:space="preserve" text-anchor="start" x="185.62" y="-163.5" font-family="Helvetica,sans-Serif" font-size="10.00">Fiea::Engine::Content</text>
<text xml:space="preserve" text-anchor="start" x="185.62" y="-151.5" font-family="Helvetica,sans-Serif" font-size="10.00">::SpecialPrimitivesHandler</text>
<text xml:space="preserve" text-anchor="middle" x="243.38" y="-139.5" font-family="Helvetica,sans-Serif" font-size="10.00">::EnterKey</text>
</a>
</g>
</g>
<!-- Node28&#45;&gt;Node29 -->
<g id="edge36_Node000028_Node000029" class="edge">
<title>Node28&#45;&gt;Node29</title>
<g id="a_edge36_Node000028_Node000029"><a xlink:title=" ">
<path fill="none" stroke="#63b8ff" d="M367.48,-169.86C348.1,-167.52 327.76,-165.07 309.33,-162.84"/>
<polygon fill="#63b8ff" stroke="#63b8ff" points="366.92,-173.32 377.26,-171.04 367.76,-166.37 366.92,-173.32"/>
</a>
</g>
</g>
<!-- Node30&#45;&gt;Node29 -->
<g id="edge38_Node000030_Node000029" class="edge">
<title>Node30&#45;&gt;Node29</title>
<g id="a_edge38_Node000030_Node000029"><a xlink:title=" ">
<path fill="none" stroke="#63b8ff" d="M367.26,-140.17C348,-142.49 327.82,-144.93 309.5,-147.14"/>
<polygon fill="#63b8ff" stroke="#63b8ff" points="367.46,-143.67 376.97,-139 366.63,-136.72 367.46,-143.67"/>
</a>
</g>
</g>
</g>
</svg>
