<?xml version="1.0" encoding="UTF-8" standalone="no"?>
<!DOCTYPE svg PUBLIC "-//W3C//DTD SVG 1.1//EN"
 "http://www.w3.org/Graphics/SVG/1.1/DTD/svg11.dtd">
<!-- Generated by graphviz version 13.1.0 (20250701.0955)
 -->
<!-- Title: Fiea::Engine::Actions::ActionTimed::RunAction Pages: 1 -->
<svg width="445pt" height="359pt"
 viewBox="0.00 0.00 445.00 359.00" xmlns="http://www.w3.org/2000/svg" xmlns:xlink="http://www.w3.org/1999/xlink">
<g id="graph0" class="graph" transform="scale(1 1) rotate(0) translate(4 355)">
<title>Fiea::Engine::Actions::ActionTimed::RunAction</title>
<!-- Node1 -->
<g id="Node000001" class="node">
<title>Node1</title>
<g id="a_Node000001"><a xlink:title=" ">
<polygon fill="#999999" stroke="#666666" points="128.5,-207 0,-207 0,-175 128.5,-175 128.5,-207"/>
<text xml:space="preserve" text-anchor="start" x="8" y="-193.5" font-family="Helvetica,sans-Serif" font-size="10.00">Fiea::Engine::Actions</text>
<text xml:space="preserve" text-anchor="middle" x="64.25" y="-181.5" font-family="Helvetica,sans-Serif" font-size="10.00">::ActionTimed::RunAction</text>
</a>
</g>
</g>
<!-- Node2 -->
<g id="Node000002" class="node">
<title>Node2</title>
<g id="a_Node000002"><a xlink:href="class_fiea_1_1_engine_1_1_r_t_t_i.html#a15bd5993c8ad04da47af440298ebbb30" target="_top" xlink:title=" ">
<polygon fill="white" stroke="#666666" points="281,-320 164.5,-320 164.5,-300 281,-300 281,-320"/>
<text xml:space="preserve" text-anchor="middle" x="222.75" y="-306.5" font-family="Helvetica,sans-Serif" font-size="10.00">Fiea::Engine::RTTI::As</text>
</a>
</g>
</g>
<!-- Node1&#45;&gt;Node2 -->
<g id="edge1_Node000001_Node000002" class="edge">
<title>Node1&#45;&gt;Node2</title>
<g id="a_edge1_Node000001_Node000002"><a xlink:title=" ">
<path fill="none" stroke="#63b8ff" d="M77.26,-207.18C94.34,-229.12 127.7,-268.19 164.5,-291 166.79,-292.42 169.2,-293.75 171.68,-294.98"/>
<polygon fill="#63b8ff" stroke="#63b8ff" points="170.2,-298.16 180.77,-298.97 173.02,-291.75 170.2,-298.16"/>
</a>
</g>
</g>
<!-- Node5 -->
<g id="Node000005" class="node">
<title>Node5</title>
<g id="a_Node000005"><a xlink:href="class_fiea_1_1_engine_1_1_content_1_1_scope.html#ad924c01785b239991fc0e56a63295612" target="_top" xlink:title="Finds a Datum by key.">
<polygon fill="white" stroke="#666666" points="278.38,-282 167.12,-282 167.12,-250 278.38,-250 278.38,-282"/>
<text xml:space="preserve" text-anchor="start" x="175.12" y="-268.5" font-family="Helvetica,sans-Serif" font-size="10.00">Fiea::Engine::Content</text>
<text xml:space="preserve" text-anchor="middle" x="222.75" y="-256.5" font-family="Helvetica,sans-Serif" font-size="10.00">::Scope::Find</text>
</a>
</g>
</g>
<!-- Node1&#45;&gt;Node5 -->
<g id="edge4_Node000001_Node000005" class="edge">
<title>Node1&#45;&gt;Node5</title>
<g id="a_edge4_Node000001_Node000005"><a xlink:title=" ">
<path fill="none" stroke="#63b8ff" d="M96.77,-207.43C116.17,-217.41 141.62,-230.25 164.5,-241 167.26,-242.3 170.1,-243.61 172.97,-244.92"/>
<polygon fill="#63b8ff" stroke="#63b8ff" points="171.5,-248.09 182.05,-248.99 174.36,-241.7 171.5,-248.09"/>
</a>
</g>
</g>
<!-- Node6 -->
<g id="Node000006" class="node">
<title>Node6</title>
<g id="a_Node000006"><a xlink:href="class_fiea_1_1_engine_1_1_content_1_1_datum.html#a7f92976f27f407987cf287a2f7017e04" target="_top" xlink:title=" ">
<polygon fill="white" stroke="#666666" points="278.38,-232 167.12,-232 167.12,-200 278.38,-200 278.38,-232"/>
<text xml:space="preserve" text-anchor="start" x="175.12" y="-218.5" font-family="Helvetica,sans-Serif" font-size="10.00">Fiea::Engine::Content</text>
<text xml:space="preserve" text-anchor="middle" x="222.75" y="-206.5" font-family="Helvetica,sans-Serif" font-size="10.00">::Datum::GetAsTable</text>
</a>
</g>
</g>
<!-- Node1&#45;&gt;Node6 -->
<g id="edge5_Node000001_Node000006" class="edge">
<title>Node1&#45;&gt;Node6</title>
<g id="a_edge5_Node000001_Node000006"><a xlink:title=" ">
<path fill="none" stroke="#63b8ff" d="M128.9,-201.17C137.61,-202.56 146.57,-203.99 155.33,-205.39"/>
<polygon fill="#63b8ff" stroke="#63b8ff" points="154.76,-208.84 165.19,-206.96 155.87,-201.93 154.76,-208.84"/>
</a>
</g>
</g>
<!-- Node8 -->
<g id="Node000008" class="node">
<title>Node8</title>
<g id="a_Node000008"><a xlink:href="class_fiea_1_1_engine_1_1_content_1_1_datum.html#aae7a8c9d75274c388e81a925ad1f49ef" target="_top" xlink:title=" ">
<polygon fill="white" stroke="#666666" points="278.38,-182 167.12,-182 167.12,-150 278.38,-150 278.38,-182"/>
<text xml:space="preserve" text-anchor="start" x="175.12" y="-168.5" font-family="Helvetica,sans-Serif" font-size="10.00">Fiea::Engine::Content</text>
<text xml:space="preserve" text-anchor="middle" x="222.75" y="-156.5" font-family="Helvetica,sans-Serif" font-size="10.00">::Datum::RemoveAt</text>
</a>
</g>
</g>
<!-- Node1&#45;&gt;Node8 -->
<g id="edge8_Node000001_Node000008" class="edge">
<title>Node1&#45;&gt;Node8</title>
<g id="a_edge8_Node000001_Node000008"><a xlink:title=" ">
<path fill="none" stroke="#63b8ff" d="M128.9,-180.83C137.61,-179.44 146.57,-178.01 155.33,-176.61"/>
<polygon fill="#63b8ff" stroke="#63b8ff" points="155.87,-180.07 165.19,-175.04 154.76,-173.16 155.87,-180.07"/>
</a>
</g>
</g>
<!-- Node9 -->
<g id="Node000009" class="node">
<title>Node9</title>
<g id="a_Node000009"><a xlink:href="class_fiea_1_1_engine_1_1_content_1_1_datum.html#acae68c3bc8b20345e4c3790fa37bd8d5" target="_top" xlink:title=" ">
<polygon fill="white" stroke="#666666" points="278.38,-132 167.12,-132 167.12,-100 278.38,-100 278.38,-132"/>
<text xml:space="preserve" text-anchor="start" x="175.12" y="-118.5" font-family="Helvetica,sans-Serif" font-size="10.00">Fiea::Engine::Content</text>
<text xml:space="preserve" text-anchor="middle" x="222.75" y="-106.5" font-family="Helvetica,sans-Serif" font-size="10.00">::Datum::Size</text>
</a>
</g>
</g>
<!-- Node1&#45;&gt;Node9 -->
<g id="edge9_Node000001_Node000009" class="edge">
<title>Node1&#45;&gt;Node9</title>
<g id="a_edge9_Node000001_Node000009"><a xlink:title=" ">
<path fill="none" stroke="#63b8ff" d="M96.77,-174.57C116.17,-164.59 141.62,-151.75 164.5,-141 167.26,-139.7 170.1,-138.39 172.97,-137.08"/>
<polygon fill="#63b8ff" stroke="#63b8ff" points="174.36,-140.3 182.05,-133.01 171.5,-133.91 174.36,-140.3"/>
</a>
</g>
</g>
<!-- Node10 -->
<g id="Node000010" class="node">
<title>Node10</title>
<g id="a_Node000010"><a xlink:href="class_fiea_1_1_engine_1_1_actions_1_1_action.html#abea83b3796a80d29394f644634477d7b" target="_top" xlink:title=" ">
<polygon fill="white" stroke="#666666" points="277.62,-82 167.88,-82 167.88,-50 277.62,-50 277.62,-82"/>
<text xml:space="preserve" text-anchor="start" x="175.88" y="-68.5" font-family="Helvetica,sans-Serif" font-size="10.00">Fiea::Engine::Actions</text>
<text xml:space="preserve" text-anchor="middle" x="222.75" y="-56.5" font-family="Helvetica,sans-Serif" font-size="10.00">::Action::Update</text>
</a>
</g>
</g>
<!-- Node1&#45;&gt;Node10 -->
<g id="edge10_Node000001_Node000010" class="edge">
<title>Node1&#45;&gt;Node10</title>
<g id="a_edge10_Node000001_Node000010"><a xlink:title=" ">
<path fill="none" stroke="#63b8ff" d="M78.16,-174.57C95.77,-153.03 129.18,-115.19 164.5,-91 166.07,-89.93 167.69,-88.88 169.35,-87.87"/>
<polygon fill="#63b8ff" stroke="#63b8ff" points="170.82,-91.05 177.87,-83.14 167.43,-84.93 170.82,-91.05"/>
</a>
</g>
</g>
<!-- Node3 -->
<g id="Node000003" class="node">
<title>Node3</title>
<g id="a_Node000003"><a xlink:href="class_fiea_1_1_engine_1_1_r_t_t_i.html#ac0a7d875e4513b2aca7594abcd4418ef" target="_top" xlink:title=" ">
<polygon fill="white" stroke="#666666" points="433.12,-351 320.38,-351 320.38,-331 433.12,-331 433.12,-351"/>
<text xml:space="preserve" text-anchor="middle" x="376.75" y="-337.5" font-family="Helvetica,sans-Serif" font-size="10.00">Fiea::Engine::RTTI::Is</text>
</a>
</g>
</g>
<!-- Node2&#45;&gt;Node3 -->
<g id="edge2_Node000002_Node000003" class="edge">
<title>Node2&#45;&gt;Node3</title>
<g id="a_edge2_Node000002_Node000003"><a xlink:title=" ">
<path fill="none" stroke="#63b8ff" d="M275.21,-320.5C287.47,-322.99 300.68,-325.69 313.37,-328.28"/>
<polygon fill="#63b8ff" stroke="#63b8ff" points="312.36,-331.64 322.86,-330.21 313.76,-324.79 312.36,-331.64"/>
</a>
</g>
</g>
<!-- Node4 -->
<g id="Node000004" class="node">
<title>Node4</title>
<g id="a_Node000004"><a xlink:href="class_fiea_1_1_engine_1_1_r_t_t_i.html#a13000029a2e6cced30b831e466e07cae" target="_top" xlink:title=" ">
<polygon fill="white" stroke="#666666" points="426,-313 327.5,-313 327.5,-281 426,-281 426,-313"/>
<text xml:space="preserve" text-anchor="start" x="335.5" y="-299.5" font-family="Helvetica,sans-Serif" font-size="10.00">Fiea::Engine::RTTI</text>
<text xml:space="preserve" text-anchor="middle" x="376.75" y="-287.5" font-family="Helvetica,sans-Serif" font-size="10.00">::RTTI</text>
</a>
</g>
</g>
<!-- Node2&#45;&gt;Node4 -->
<g id="edge3_Node000002_Node000004" class="edge">
<title>Node2&#45;&gt;Node4</title>
<g id="a_edge3_Node000002_Node000004"><a xlink:title=" ">
<path fill="none" stroke="#63b8ff" d="M281.21,-305.09C292.56,-304.11 304.5,-303.09 315.93,-302.12"/>
<polygon fill="#63b8ff" stroke="#63b8ff" points="315.97,-305.63 325.63,-301.29 315.37,-298.65 315.97,-305.63"/>
</a>
</g>
</g>
<!-- Node7 -->
<g id="Node000007" class="node">
<title>Node7</title>
<g id="a_Node000007"><a xlink:href="class_fiea_1_1_engine_1_1_content_1_1_datum.html#a921193447f6e42f596ac0a7694b02830" target="_top" xlink:title=" ">
<polygon fill="white" stroke="#666666" points="432.38,-232 321.12,-232 321.12,-200 432.38,-200 432.38,-232"/>
<text xml:space="preserve" text-anchor="start" x="329.12" y="-218.5" font-family="Helvetica,sans-Serif" font-size="10.00">Fiea::Engine::Content</text>
<text xml:space="preserve" text-anchor="middle" x="376.75" y="-206.5" font-family="Helvetica,sans-Serif" font-size="10.00">::Datum::Scope</text>
</a>
</g>
</g>
<!-- Node6&#45;&gt;Node7 -->
<g id="edge6_Node000006_Node000007" class="edge">
<title>Node6&#45;&gt;Node7</title>
<g id="a_edge6_Node000006_Node000007"><a xlink:title=" ">
<path fill="none" stroke="#63b8ff" d="M278.63,-216C288.57,-216 299.04,-216 309.28,-216"/>
<polygon fill="#63b8ff" stroke="#63b8ff" points="309.19,-219.5 319.19,-216 309.19,-212.5 309.19,-219.5"/>
</a>
</g>
</g>
<!-- Node7&#45;&gt;Node7 -->
<g id="edge7_Node000007_Node000007" class="edge">
<title>Node7&#45;&gt;Node7</title>
<g id="a_edge7_Node000007_Node000007"><a xlink:title=" ">
<path fill="none" stroke="#63b8ff" d="M349.26,-232.44C344.12,-241.58 353.29,-250 376.75,-250 389.58,-250 398.13,-247.48 402.41,-243.71"/>
<polygon fill="#63b8ff" stroke="#63b8ff" points="405.85,-244.37 404,-233.94 398.94,-243.25 405.85,-244.37"/>
</a>
</g>
</g>
<!-- Node11 -->
<g id="Node000011" class="node">
<title>Node11</title>
<g id="a_Node000011"><a xlink:href="class_fiea_1_1_engine_1_1_actions_1_1_action.html#aca4c38723b265f3c4e6013bb8916b376" target="_top" xlink:title=" ">
<polygon fill="white" stroke="#666666" points="436.5,-132 317,-132 317,-100 436.5,-100 436.5,-132"/>
<text xml:space="preserve" text-anchor="start" x="325" y="-118.5" font-family="Helvetica,sans-Serif" font-size="10.00">Fiea::Engine::Actions</text>
<text xml:space="preserve" text-anchor="middle" x="376.75" y="-106.5" font-family="Helvetica,sans-Serif" font-size="10.00">::Action::CleanupAction</text>
</a>
</g>
</g>
<!-- Node10&#45;&gt;Node11 -->
<g id="edge11_Node000010_Node000011" class="edge">
<title>Node10&#45;&gt;Node11</title>
<g id="a_edge11_Node000010_Node000011"><a xlink:title=" ">
<path fill="none" stroke="#63b8ff" d="M273.52,-82.37C286.71,-86.71 301.09,-91.44 314.8,-95.95"/>
<polygon fill="#63b8ff" stroke="#63b8ff" points="313.58,-99.23 324.17,-99.03 315.76,-92.58 313.58,-99.23"/>
</a>
</g>
</g>
<!-- Node12 -->
<g id="Node000012" class="node">
<title>Node12</title>
<g id="a_Node000012"><a xlink:href="class_fiea_1_1_engine_1_1_actions_1_1_action.html#a81c0a0c2e60d1d97b21ca306f673b7e7" target="_top" xlink:title=" ">
<polygon fill="white" stroke="#666666" points="431.62,-82 321.88,-82 321.88,-50 431.62,-50 431.62,-82"/>
<text xml:space="preserve" text-anchor="start" x="329.88" y="-68.5" font-family="Helvetica,sans-Serif" font-size="10.00">Fiea::Engine::Actions</text>
<text xml:space="preserve" text-anchor="middle" x="376.75" y="-56.5" font-family="Helvetica,sans-Serif" font-size="10.00">::Action::InitAction</text>
</a>
</g>
</g>
<!-- Node10&#45;&gt;Node12 -->
<g id="edge12_Node000010_Node000012" class="edge">
<title>Node10&#45;&gt;Node12</title>
<g id="a_edge12_Node000010_Node000012"><a xlink:title=" ">
<path fill="none" stroke="#63b8ff" d="M277.77,-66C288.17,-66 299.17,-66 309.9,-66"/>
<polygon fill="#63b8ff" stroke="#63b8ff" points="309.88,-69.5 319.88,-66 309.88,-62.5 309.88,-69.5"/>
</a>
</g>
</g>
<!-- Node13 -->
<g id="Node000013" class="node">
<title>Node13</title>
<g id="a_Node000013"><a xlink:href="class_fiea_1_1_engine_1_1_actions_1_1_action.html#a75aad9a760f6deb44caed1be2611afad" target="_top" xlink:title=" ">
<polygon fill="white" stroke="#666666" points="431.62,-32 321.88,-32 321.88,0 431.62,0 431.62,-32"/>
<text xml:space="preserve" text-anchor="start" x="329.88" y="-18.5" font-family="Helvetica,sans-Serif" font-size="10.00">Fiea::Engine::Actions</text>
<text xml:space="preserve" text-anchor="middle" x="376.75" y="-6.5" font-family="Helvetica,sans-Serif" font-size="10.00">::Action::RunAction</text>
</a>
</g>
</g>
<!-- Node10&#45;&gt;Node13 -->
<g id="edge13_Node000010_Node000013" class="edge">
<title>Node10&#45;&gt;Node13</title>
<g id="a_edge13_Node000010_Node000013"><a xlink:title=" ">
<path fill="none" stroke="#63b8ff" d="M273.52,-49.63C286.71,-45.29 301.09,-40.56 314.8,-36.05"/>
<polygon fill="#63b8ff" stroke="#63b8ff" points="315.76,-39.42 324.17,-32.97 313.58,-32.77 315.76,-39.42"/>
</a>
</g>
</g>
</g>
</svg>
