<?xml version="1.0" encoding="UTF-8" standalone="no"?>
<!DOCTYPE svg PUBLIC "-//W3C//DTD SVG 1.1//EN"
 "http://www.w3.org/Graphics/SVG/1.1/DTD/svg11.dtd">
<!-- Generated by graphviz version 13.1.0 (20250701.0955)
 -->
<!-- Title: Fiea::Engine::Content::Scope::IsDescendentOf Pages: 1 -->
<svg width="579pt" height="100pt"
 viewBox="0.00 0.00 579.00 100.00" xmlns="http://www.w3.org/2000/svg" xmlns:xlink="http://www.w3.org/1999/xlink">
<g id="graph0" class="graph" transform="scale(1 1) rotate(0) translate(4 96)">
<title>Fiea::Engine::Content::Scope::IsDescendentOf</title>
<!-- Node1 -->
<g id="Node000001" class="node">
<title>Node1</title>
<g id="a_Node000001"><a xlink:title="Checks if this Scope is a descendent of the specified ancestor Scope.">
<polygon fill="#999999" stroke="#666666" points="127,-32 0,-32 0,0 127,0 127,-32"/>
<text xml:space="preserve" text-anchor="start" x="8" y="-18.5" font-family="Helvetica,sans-Serif" font-size="10.00">Fiea::Engine::Content</text>
<text xml:space="preserve" text-anchor="middle" x="63.5" y="-6.5" font-family="Helvetica,sans-Serif" font-size="10.00">::Scope::IsDescendentOf</text>
</a>
</g>
</g>
<!-- Node2 -->
<g id="Node000002" class="node">
<title>Node2</title>
<g id="a_Node000002"><a xlink:href="class_fiea_1_1_engine_1_1_content_1_1_scope.html#a853041a85e32e8b7de723fa3dd9a1d82" target="_top" xlink:title="Checks if this Scope is an ancestor of the specified descendent Scope.">
<polygon fill="white" stroke="#666666" points="276.5,-54 163,-54 163,-22 276.5,-22 276.5,-54"/>
<text xml:space="preserve" text-anchor="start" x="171" y="-40.5" font-family="Helvetica,sans-Serif" font-size="10.00">Fiea::Engine::Content</text>
<text xml:space="preserve" text-anchor="middle" x="219.75" y="-28.5" font-family="Helvetica,sans-Serif" font-size="10.00">::Scope::IsAncestorOf</text>
</a>
</g>
</g>
<!-- Node1&#45;&gt;Node2 -->
<g id="edge1_Node000001_Node000002" class="edge">
<title>Node1&#45;&gt;Node2</title>
<g id="a_edge1_Node000001_Node000002"><a xlink:title=" ">
<path fill="none" stroke="#63b8ff" d="M127.24,-24.95C135.18,-26.08 143.32,-27.24 151.33,-28.38"/>
<polygon fill="#63b8ff" stroke="#63b8ff" points="150.62,-31.82 161.02,-29.77 151.61,-24.89 150.62,-31.82"/>
</a>
</g>
</g>
<!-- Node4 -->
<g id="Node000004" class="node">
<title>Node4</title>
<g id="a_Node000004"><a xlink:href="class_fiea_1_1_engine_1_1_content_1_1_scope.html#a6631343c968c233ab1d9c3e05c3f4fe9" target="_top" xlink:title=" ">
<polygon fill="white" stroke="#666666" points="571,-48 459.75,-48 459.75,-16 571,-16 571,-48"/>
<text xml:space="preserve" text-anchor="start" x="467.75" y="-34.5" font-family="Helvetica,sans-Serif" font-size="10.00">Fiea::Engine::Content</text>
<text xml:space="preserve" text-anchor="middle" x="515.38" y="-22.5" font-family="Helvetica,sans-Serif" font-size="10.00">::Scope::Scope</text>
</a>
</g>
</g>
<!-- Node1&#45;&gt;Node4 -->
<g id="edge6_Node000001_Node000004" class="edge">
<title>Node1&#45;&gt;Node4</title>
<g id="a_edge6_Node000001_Node000004"><a xlink:title=" ">
<path fill="none" stroke="#63b8ff" d="M127.29,-13.8C139.15,-13.47 151.45,-13.18 163,-13 213.44,-12.23 226.1,-10.99 276.5,-13 334.63,-15.32 400.56,-20.81 448.24,-25.3"/>
<polygon fill="#63b8ff" stroke="#63b8ff" points="447.86,-28.77 458.14,-26.24 448.52,-21.81 447.86,-28.77"/>
</a>
</g>
</g>
<!-- Node3 -->
<g id="Node000003" class="node">
<title>Node3</title>
<g id="a_Node000003"><a xlink:href="class_fiea_1_1_engine_1_1_content_1_1_scope.html#ac4627f740867a929957ce0647f436e02" target="_top" xlink:title=" ">
<polygon fill="white" stroke="#666666" points="423.75,-92 312.5,-92 312.5,-60 423.75,-60 423.75,-92"/>
<text xml:space="preserve" text-anchor="start" x="320.5" y="-78.5" font-family="Helvetica,sans-Serif" font-size="10.00">Fiea::Engine::Content</text>
<text xml:space="preserve" text-anchor="middle" x="368.12" y="-66.5" font-family="Helvetica,sans-Serif" font-size="10.00">::Scope::GetParent</text>
</a>
</g>
</g>
<!-- Node2&#45;&gt;Node3 -->
<g id="edge2_Node000002_Node000003" class="edge">
<title>Node2&#45;&gt;Node3</title>
<g id="a_edge2_Node000002_Node000003"><a xlink:title=" ">
<path fill="none" stroke="#63b8ff" d="M276.92,-52.58C284.91,-54.66 293.17,-56.8 301.32,-58.92"/>
<polygon fill="#63b8ff" stroke="#63b8ff" points="300.28,-62.26 310.84,-61.39 302.04,-55.49 300.28,-62.26"/>
</a>
</g>
</g>
<!-- Node2&#45;&gt;Node4 -->
<g id="edge5_Node000002_Node000004" class="edge">
<title>Node2&#45;&gt;Node4</title>
<g id="a_edge5_Node000002_Node000004"><a xlink:title=" ">
<path fill="none" stroke="#63b8ff" d="M276.67,-36.86C325.55,-35.86 396.6,-34.41 448.28,-33.35"/>
<polygon fill="#63b8ff" stroke="#63b8ff" points="448.22,-36.85 458.14,-33.15 448.07,-29.85 448.22,-36.85"/>
</a>
</g>
</g>
<!-- Node3&#45;&gt;Node4 -->
<g id="edge3_Node000003_Node000004" class="edge">
<title>Node3&#45;&gt;Node4</title>
<g id="a_edge3_Node000003_Node000004"><a xlink:title=" ">
<path fill="none" stroke="#63b8ff" d="M423.21,-59.62C431.72,-57.04 440.59,-54.35 449.31,-51.71"/>
<polygon fill="#63b8ff" stroke="#63b8ff" points="450.24,-55.09 458.8,-48.84 448.21,-48.39 450.24,-55.09"/>
</a>
</g>
</g>
<!-- Node4&#45;&gt;Node4 -->
<g id="edge4_Node000004_Node000004" class="edge">
<title>Node4&#45;&gt;Node4</title>
<g id="a_edge4_Node000004_Node000004"><a xlink:title=" ">
<path fill="none" stroke="#63b8ff" d="M489.09,-48.44C484.18,-57.58 492.94,-66 515.38,-66 527.64,-66 535.82,-63.48 539.91,-59.71"/>
<polygon fill="#63b8ff" stroke="#63b8ff" points="543.35,-60.36 541.43,-49.94 536.44,-59.28 543.35,-60.36"/>
</a>
</g>
</g>
</g>
</svg>
