<?xml version="1.0" encoding="UTF-8" standalone="no"?>
<!DOCTYPE svg PUBLIC "-//W3C//DTD SVG 1.1//EN"
 "http://www.w3.org/Graphics/SVG/1.1/DTD/svg11.dtd">
<!-- Generated by graphviz version 13.1.0 (20250701.0955)
 -->
<!-- Title: Fiea::Engine::Content::Scope::Search Pages: 1 -->
<svg width="305pt" height="464pt"
 viewBox="0.00 0.00 305.00 464.00" xmlns="http://www.w3.org/2000/svg" xmlns:xlink="http://www.w3.org/1999/xlink">
<g id="graph0" class="graph" transform="scale(1 1) rotate(0) translate(4 460)">
<title>Fiea::Engine::Content::Scope::Search</title>
<!-- Node1 -->
<g id="Node000001" class="node">
<title>Node1</title>
<g id="a_Node000001"><a xlink:title=" ">
<polygon fill="#999999" stroke="#666666" points="296.75,-244 185.5,-244 185.5,-212 296.75,-212 296.75,-244"/>
<text xml:space="preserve" text-anchor="start" x="193.5" y="-230.5" font-family="Helvetica,sans-Serif" font-size="10.00">Fiea::Engine::Content</text>
<text xml:space="preserve" text-anchor="middle" x="241.12" y="-218.5" font-family="Helvetica,sans-Serif" font-size="10.00">::Scope::Search</text>
</a>
</g>
</g>
<!-- Node2 -->
<g id="Node000002" class="node">
<title>Node2</title>
<g id="a_Node000002"><a xlink:href="class_fiea_1_1_engine_1_1_actions_1_1_action_condition.html#af38dd920cf58d8232bf86142c944fa99" target="_top" xlink:title=" ">
<polygon fill="white" stroke="#666666" points="143.88,-456 5.62,-456 5.62,-424 143.88,-424 143.88,-456"/>
<text xml:space="preserve" text-anchor="start" x="13.62" y="-442.5" font-family="Helvetica,sans-Serif" font-size="10.00">Fiea::Engine::Actions</text>
<text xml:space="preserve" text-anchor="middle" x="74.75" y="-430.5" font-family="Helvetica,sans-Serif" font-size="10.00">::ActionCondition::InitAction</text>
</a>
</g>
</g>
<!-- Node1&#45;&gt;Node2 -->
<g id="edge1_Node000001_Node000002" class="edge">
<title>Node1&#45;&gt;Node2</title>
<g id="a_edge1_Node000001_Node000002"><a xlink:title=" ">
<path fill="none" stroke="#63b8ff" d="M233.99,-255.49C223.54,-296.04 198.51,-371.74 149.5,-415 145.75,-418.31 141.54,-421.19 137.09,-423.68"/>
<polygon fill="#63b8ff" stroke="#63b8ff" points="237.38,-256.36 236.36,-245.82 230.58,-254.7 237.38,-256.36"/>
</a>
</g>
</g>
<!-- Node3 -->
<g id="Node000003" class="node">
<title>Node3</title>
<g id="a_Node000003"><a xlink:href="class_fiea_1_1_engine_1_1_actions_1_1_action_preamble.html#a25e78fc4fc7a8d53091a8330b02759e0" target="_top" xlink:title=" ">
<polygon fill="white" stroke="#666666" points="143.88,-406 5.62,-406 5.62,-374 143.88,-374 143.88,-406"/>
<text xml:space="preserve" text-anchor="start" x="13.62" y="-392.5" font-family="Helvetica,sans-Serif" font-size="10.00">Fiea::Engine::Actions</text>
<text xml:space="preserve" text-anchor="middle" x="74.75" y="-380.5" font-family="Helvetica,sans-Serif" font-size="10.00">::ActionPreamble::InitAction</text>
</a>
</g>
</g>
<!-- Node1&#45;&gt;Node3 -->
<g id="edge2_Node000001_Node000003" class="edge">
<title>Node1&#45;&gt;Node3</title>
<g id="a_edge2_Node000001_Node000003"><a xlink:title=" ">
<path fill="none" stroke="#63b8ff" d="M228.9,-254.89C214.72,-285.7 187.52,-335.7 149.5,-365 145.32,-368.22 140.71,-371.04 135.88,-373.5"/>
<polygon fill="#63b8ff" stroke="#63b8ff" points="232.04,-256.42 232.91,-245.86 225.65,-253.58 232.04,-256.42"/>
</a>
</g>
</g>
<!-- Node4 -->
<g id="Node000004" class="node">
<title>Node4</title>
<g id="a_Node000004"><a xlink:href="class_fiea_1_1_engine_1_1_actions_1_1_action_condition.html#a78fd346e5e99d3bd4523da1257b65c2c" target="_top" xlink:title=" ">
<polygon fill="white" stroke="#666666" points="146.12,-356 3.38,-356 3.38,-324 146.12,-324 146.12,-356"/>
<text xml:space="preserve" text-anchor="start" x="11.38" y="-342.5" font-family="Helvetica,sans-Serif" font-size="10.00">Fiea::Engine::Actions</text>
<text xml:space="preserve" text-anchor="middle" x="74.75" y="-330.5" font-family="Helvetica,sans-Serif" font-size="10.00">::ActionCondition::RunAction</text>
</a>
</g>
</g>
<!-- Node1&#45;&gt;Node4 -->
<g id="edge3_Node000001_Node000004" class="edge">
<title>Node1&#45;&gt;Node4</title>
<g id="a_edge3_Node000001_Node000004"><a xlink:title=" ">
<path fill="none" stroke="#63b8ff" d="M219.65,-252.93C202.63,-272.23 176.86,-298.38 149.5,-315 144.18,-318.23 138.4,-321.1 132.48,-323.65"/>
<polygon fill="#63b8ff" stroke="#63b8ff" points="222.18,-255.35 226.05,-245.49 216.88,-250.78 222.18,-255.35"/>
</a>
</g>
</g>
<!-- Node5 -->
<g id="Node000005" class="node">
<title>Node5</title>
<g id="a_Node000005"><a xlink:href="class_fiea_1_1_engine_1_1_actions_1_1_action_conditional_increment.html#a4cb7636a1237acda5ef08f94cb41ae48" target="_top" xlink:title=" ">
<polygon fill="white" stroke="#666666" points="145.75,-306 3.75,-306 3.75,-262 145.75,-262 145.75,-306"/>
<text xml:space="preserve" text-anchor="start" x="11.75" y="-292.5" font-family="Helvetica,sans-Serif" font-size="10.00">Fiea::Engine::Actions</text>
<text xml:space="preserve" text-anchor="start" x="11.75" y="-280.5" font-family="Helvetica,sans-Serif" font-size="10.00">::ActionConditionalIncrement</text>
<text xml:space="preserve" text-anchor="middle" x="74.75" y="-268.5" font-family="Helvetica,sans-Serif" font-size="10.00">::RunAction</text>
</a>
</g>
</g>
<!-- Node1&#45;&gt;Node5 -->
<g id="edge4_Node000001_Node000005" class="edge">
<title>Node1&#45;&gt;Node5</title>
<g id="a_edge4_Node000001_Node000005"><a xlink:title=" ">
<path fill="none" stroke="#63b8ff" d="M181.12,-248.1C168.27,-252.48 154.59,-257.14 141.5,-261.6"/>
<polygon fill="#63b8ff" stroke="#63b8ff" points="181.93,-251.52 190.26,-244.99 179.67,-244.9 181.93,-251.52"/>
</a>
</g>
</g>
<!-- Node6 -->
<g id="Node000006" class="node">
<title>Node6</title>
<g id="a_Node000006"><a xlink:href="class_fiea_1_1_engine_1_1_actions_1_1_action_decrement.html#a1ec17d56aee3e3172c0b983a839a60ee" target="_top" xlink:title=" ">
<polygon fill="white" stroke="#666666" points="149.5,-244 0,-244 0,-212 149.5,-212 149.5,-244"/>
<text xml:space="preserve" text-anchor="start" x="8" y="-230.5" font-family="Helvetica,sans-Serif" font-size="10.00">Fiea::Engine::Actions</text>
<text xml:space="preserve" text-anchor="middle" x="74.75" y="-218.5" font-family="Helvetica,sans-Serif" font-size="10.00">::ActionDecrement::RunAction</text>
</a>
</g>
</g>
<!-- Node1&#45;&gt;Node6 -->
<g id="edge5_Node000001_Node000006" class="edge">
<title>Node1&#45;&gt;Node6</title>
<g id="a_edge5_Node000001_Node000006"><a xlink:title=" ">
<path fill="none" stroke="#63b8ff" d="M173.95,-228C166.02,-228 157.88,-228 149.85,-228"/>
<polygon fill="#63b8ff" stroke="#63b8ff" points="173.88,-231.5 183.88,-228 173.88,-224.5 173.88,-231.5"/>
</a>
</g>
</g>
<!-- Node7 -->
<g id="Node000007" class="node">
<title>Node7</title>
<g id="a_Node000007"><a xlink:href="class_fiea_1_1_engine_1_1_actions_1_1_action_increment.html#a21f75108814dbcf084c7bebd98c84468" target="_top" xlink:title=" ">
<polygon fill="white" stroke="#666666" points="147.25,-194 2.25,-194 2.25,-162 147.25,-162 147.25,-194"/>
<text xml:space="preserve" text-anchor="start" x="10.25" y="-180.5" font-family="Helvetica,sans-Serif" font-size="10.00">Fiea::Engine::Actions</text>
<text xml:space="preserve" text-anchor="middle" x="74.75" y="-168.5" font-family="Helvetica,sans-Serif" font-size="10.00">::ActionIncrement::RunAction</text>
</a>
</g>
</g>
<!-- Node1&#45;&gt;Node7 -->
<g id="edge6_Node000001_Node000007" class="edge">
<title>Node1&#45;&gt;Node7</title>
<g id="a_edge6_Node000001_Node000007"><a xlink:title=" ">
<path fill="none" stroke="#63b8ff" d="M175.51,-208.34C160.44,-203.76 144.54,-198.92 129.97,-194.49"/>
<polygon fill="#63b8ff" stroke="#63b8ff" points="174.27,-211.63 184.85,-211.19 176.31,-204.93 174.27,-211.63"/>
</a>
</g>
</g>
<!-- Node8 -->
<g id="Node000008" class="node">
<title>Node8</title>
<g id="a_Node000008"><a xlink:href="class_fiea_1_1_engine_1_1_actions_1_1_action_loop_increment.html#afa069fcd75025f4734e7d1eb9f136a0f" target="_top" xlink:title=" ">
<polygon fill="white" stroke="#666666" points="131.88,-144 17.62,-144 17.62,-100 131.88,-100 131.88,-144"/>
<text xml:space="preserve" text-anchor="start" x="25.62" y="-130.5" font-family="Helvetica,sans-Serif" font-size="10.00">Fiea::Engine::Actions</text>
<text xml:space="preserve" text-anchor="start" x="25.62" y="-118.5" font-family="Helvetica,sans-Serif" font-size="10.00">::ActionLoopIncrement</text>
<text xml:space="preserve" text-anchor="middle" x="74.75" y="-106.5" font-family="Helvetica,sans-Serif" font-size="10.00">::RunAction</text>
</a>
</g>
</g>
<!-- Node1&#45;&gt;Node8 -->
<g id="edge7_Node000001_Node000008" class="edge">
<title>Node1&#45;&gt;Node8</title>
<g id="a_edge7_Node000001_Node000008"><a xlink:title=" ">
<path fill="none" stroke="#63b8ff" d="M215.14,-203.88C197.74,-187.99 173.45,-167.51 149.5,-153 144.04,-149.69 138.15,-146.57 132.18,-143.67"/>
<polygon fill="#63b8ff" stroke="#63b8ff" points="212.75,-206.44 222.46,-210.69 217.52,-201.32 212.75,-206.44"/>
</a>
</g>
</g>
<!-- Node9 -->
<g id="Node000009" class="node">
<title>Node9</title>
<g id="a_Node000009"><a xlink:href="class_fiea_1_1_engine_1_1_actions_1_1_action_output.html#abc49dcc72edd41ab188935c4c13b7301" target="_top" xlink:title=" ">
<polygon fill="white" stroke="#666666" points="140.12,-82 9.38,-82 9.38,-50 140.12,-50 140.12,-82"/>
<text xml:space="preserve" text-anchor="start" x="17.38" y="-68.5" font-family="Helvetica,sans-Serif" font-size="10.00">Fiea::Engine::Actions</text>
<text xml:space="preserve" text-anchor="middle" x="74.75" y="-56.5" font-family="Helvetica,sans-Serif" font-size="10.00">::ActionOutput::RunAction</text>
</a>
</g>
</g>
<!-- Node1&#45;&gt;Node9 -->
<g id="edge8_Node000001_Node000009" class="edge">
<title>Node1&#45;&gt;Node9</title>
<g id="a_edge8_Node000001_Node000009"><a xlink:title=" ">
<path fill="none" stroke="#63b8ff" d="M228.9,-201.11C214.72,-170.3 187.52,-120.3 149.5,-91 145.32,-87.78 140.71,-84.96 135.88,-82.5"/>
<polygon fill="#63b8ff" stroke="#63b8ff" points="225.65,-202.42 232.91,-210.14 232.04,-199.58 225.65,-202.42"/>
</a>
</g>
</g>
<!-- Node10 -->
<g id="Node000010" class="node">
<title>Node10</title>
<g id="a_Node000010"><a xlink:href="class_fiea_1_1_engine_1_1_actions_1_1_action_preamble.html#a0ef97b0c1c472e965f51af89fa9030a5" target="_top" xlink:title=" ">
<polygon fill="white" stroke="#666666" points="146.12,-32 3.38,-32 3.38,0 146.12,0 146.12,-32"/>
<text xml:space="preserve" text-anchor="start" x="11.38" y="-18.5" font-family="Helvetica,sans-Serif" font-size="10.00">Fiea::Engine::Actions</text>
<text xml:space="preserve" text-anchor="middle" x="74.75" y="-6.5" font-family="Helvetica,sans-Serif" font-size="10.00">::ActionPreamble::RunAction</text>
</a>
</g>
</g>
<!-- Node1&#45;&gt;Node10 -->
<g id="edge9_Node000001_Node000010" class="edge">
<title>Node1&#45;&gt;Node10</title>
<g id="a_edge9_Node000001_Node000010"><a xlink:title=" ">
<path fill="none" stroke="#63b8ff" d="M233.99,-200.51C223.54,-159.96 198.51,-84.26 149.5,-41 145.75,-37.69 141.54,-34.81 137.09,-32.32"/>
<polygon fill="#63b8ff" stroke="#63b8ff" points="230.58,-201.3 236.36,-210.18 237.38,-199.64 230.58,-201.3"/>
</a>
</g>
</g>
</g>
</svg>
