<?xml version="1.0" encoding="UTF-8" standalone="no"?>
<!DOCTYPE svg PUBLIC "-//W3C//DTD SVG 1.1//EN"
 "http://www.w3.org/Graphics/SVG/1.1/DTD/svg11.dtd">
<!-- Generated by graphviz version 13.1.0 (20250701.0955)
 -->
<!-- Title: Fiea::Engine::Content::ActionWhileParamHandler::ExitKey Pages: 1 -->
<svg width="476pt" height="100pt"
 viewBox="0.00 0.00 476.00 100.00" xmlns="http://www.w3.org/2000/svg" xmlns:xlink="http://www.w3.org/1999/xlink">
<g id="graph0" class="graph" transform="scale(1 1) rotate(0) translate(4 96)">
<title>Fiea::Engine::Content::ActionWhileParamHandler::ExitKey</title>
<!-- Node1 -->
<g id="Node000001" class="node">
<title>Node1</title>
<g id="a_Node000001"><a xlink:title=" ">
<polygon fill="#999999" stroke="#666666" points="136.75,-60 0,-60 0,-16 136.75,-16 136.75,-60"/>
<text xml:space="preserve" text-anchor="start" x="8" y="-46.5" font-family="Helvetica,sans-Serif" font-size="10.00">Fiea::Engine::Content</text>
<text xml:space="preserve" text-anchor="start" x="8" y="-34.5" font-family="Helvetica,sans-Serif" font-size="10.00">::ActionWhileParamHandler</text>
<text xml:space="preserve" text-anchor="middle" x="68.38" y="-22.5" font-family="Helvetica,sans-Serif" font-size="10.00">::ExitKey</text>
</a>
</g>
</g>
<!-- Node2 -->
<g id="Node000002" class="node">
<title>Node2</title>
<g id="a_Node000002"><a xlink:href="class_fiea_1_1_engine_1_1_r_t_t_i.html#a15bd5993c8ad04da47af440298ebbb30" target="_top" xlink:title=" ">
<polygon fill="white" stroke="#666666" points="304.25,-70 187.75,-70 187.75,-50 304.25,-50 304.25,-70"/>
<text xml:space="preserve" text-anchor="middle" x="246" y="-56.5" font-family="Helvetica,sans-Serif" font-size="10.00">Fiea::Engine::RTTI::As</text>
</a>
</g>
</g>
<!-- Node1&#45;&gt;Node2 -->
<g id="edge1_Node000001_Node000002" class="edge">
<title>Node1&#45;&gt;Node2</title>
<g id="a_edge1_Node000001_Node000002"><a xlink:title=" ">
<path fill="none" stroke="#63b8ff" d="M137.02,-46.47C149.88,-48.08 163.34,-49.77 176.23,-51.39"/>
<polygon fill="#63b8ff" stroke="#63b8ff" points="175.52,-54.82 185.88,-52.59 176.39,-47.88 175.52,-54.82"/>
</a>
</g>
</g>
<!-- Node5 -->
<g id="Node000005" class="node">
<title>Node5</title>
<g id="a_Node000005"><a xlink:href="class_fiea_1_1_engine_1_1_content_1_1_scope_writer.html#a1b77c29e0778185d215c657d4ce8db9c" target="_top" xlink:title=" ">
<polygon fill="white" stroke="#666666" points="319.25,-32 172.75,-32 172.75,0 319.25,0 319.25,-32"/>
<text xml:space="preserve" text-anchor="start" x="180.75" y="-18.5" font-family="Helvetica,sans-Serif" font-size="10.00">Fiea::Engine::Content</text>
<text xml:space="preserve" text-anchor="middle" x="246" y="-6.5" font-family="Helvetica,sans-Serif" font-size="10.00">::ScopeWriter::RemoveObject</text>
</a>
</g>
</g>
<!-- Node1&#45;&gt;Node5 -->
<g id="edge4_Node000001_Node000005" class="edge">
<title>Node1&#45;&gt;Node5</title>
<g id="a_edge4_Node000001_Node000005"><a xlink:title=" ">
<path fill="none" stroke="#63b8ff" d="M137.02,-29.53C144.91,-28.54 153.02,-27.52 161.08,-26.51"/>
<polygon fill="#63b8ff" stroke="#63b8ff" points="161.44,-29.99 170.93,-25.28 160.57,-23.05 161.44,-29.99"/>
</a>
</g>
</g>
<!-- Node3 -->
<g id="Node000003" class="node">
<title>Node3</title>
<g id="a_Node000003"><a xlink:href="class_fiea_1_1_engine_1_1_r_t_t_i.html#ac0a7d875e4513b2aca7594abcd4418ef" target="_top" xlink:title=" ">
<polygon fill="white" stroke="#666666" points="468,-92 355.25,-92 355.25,-72 468,-72 468,-92"/>
<text xml:space="preserve" text-anchor="middle" x="411.62" y="-78.5" font-family="Helvetica,sans-Serif" font-size="10.00">Fiea::Engine::RTTI::Is</text>
</a>
</g>
</g>
<!-- Node2&#45;&gt;Node3 -->
<g id="edge2_Node000002_Node000003" class="edge">
<title>Node2&#45;&gt;Node3</title>
<g id="a_edge2_Node000002_Node000003"><a xlink:title=" ">
<path fill="none" stroke="#63b8ff" d="M304.69,-67.76C317.28,-69.45 330.72,-71.26 343.64,-72.99"/>
<polygon fill="#63b8ff" stroke="#63b8ff" points="342.95,-76.43 353.33,-74.3 343.89,-69.5 342.95,-76.43"/>
</a>
</g>
</g>
<!-- Node4 -->
<g id="Node000004" class="node">
<title>Node4</title>
<g id="a_Node000004"><a xlink:href="class_fiea_1_1_engine_1_1_r_t_t_i.html#a13000029a2e6cced30b831e466e07cae" target="_top" xlink:title=" ">
<polygon fill="white" stroke="#666666" points="460.88,-54 362.38,-54 362.38,-22 460.88,-22 460.88,-54"/>
<text xml:space="preserve" text-anchor="start" x="370.38" y="-40.5" font-family="Helvetica,sans-Serif" font-size="10.00">Fiea::Engine::RTTI</text>
<text xml:space="preserve" text-anchor="middle" x="411.62" y="-28.5" font-family="Helvetica,sans-Serif" font-size="10.00">::RTTI</text>
</a>
</g>
</g>
<!-- Node2&#45;&gt;Node4 -->
<g id="edge3_Node000002_Node000004" class="edge">
<title>Node2&#45;&gt;Node4</title>
<g id="a_edge3_Node000002_Node000004"><a xlink:title=" ">
<path fill="none" stroke="#63b8ff" d="M304.69,-52.24C319.65,-50.23 335.78,-48.06 350.85,-46.04"/>
<polygon fill="#63b8ff" stroke="#63b8ff" points="351.17,-49.53 360.62,-44.72 350.24,-42.59 351.17,-49.53"/>
</a>
</g>
</g>
</g>
</svg>
