<?xml version="1.0" encoding="UTF-8" standalone="no"?>
<!DOCTYPE svg PUBLIC "-//W3C//DTD SVG 1.1//EN"
 "http://www.w3.org/Graphics/SVG/1.1/DTD/svg11.dtd">
<!-- Generated by graphviz version 13.1.0 (20250701.0955)
 -->
<!-- Title: Fiea::Engine::Content::Attributed::operator= Pages: 1 -->
<svg width="287pt" height="190pt"
 viewBox="0.00 0.00 287.00 190.00" xmlns="http://www.w3.org/2000/svg" xmlns:xlink="http://www.w3.org/1999/xlink">
<g id="graph0" class="graph" transform="scale(1 1) rotate(0) translate(4 186)">
<title>Fiea::Engine::Content::Attributed::operator=</title>
<!-- Node1 -->
<g id="Node000001" class="node">
<title>Node1</title>
<g id="a_Node000001"><a xlink:title="Copy assignment operator.">
<polygon fill="#999999" stroke="#666666" points="278.75,-107 167.5,-107 167.5,-75 278.75,-75 278.75,-107"/>
<text xml:space="preserve" text-anchor="start" x="175.5" y="-93.5" font-family="Helvetica,sans-Serif" font-size="10.00">Fiea::Engine::Content</text>
<text xml:space="preserve" text-anchor="middle" x="223.12" y="-81.5" font-family="Helvetica,sans-Serif" font-size="10.00">::Attributed::operator=</text>
</a>
</g>
</g>
<!-- Node2 -->
<g id="Node000002" class="node">
<title>Node2</title>
<g id="a_Node000002"><a xlink:href="class_fiea_1_1_engine_1_1_actions_1_1_action.html#ad7a0a26c4f04657e19ae73eb11cbdd14" target="_top" xlink:title=" ">
<polygon fill="white" stroke="#666666" points="120.62,-182 10.88,-182 10.88,-150 120.62,-150 120.62,-182"/>
<text xml:space="preserve" text-anchor="start" x="18.88" y="-168.5" font-family="Helvetica,sans-Serif" font-size="10.00">Fiea::Engine::Actions</text>
<text xml:space="preserve" text-anchor="middle" x="65.75" y="-156.5" font-family="Helvetica,sans-Serif" font-size="10.00">::Action::operator=</text>
</a>
</g>
</g>
<!-- Node1&#45;&gt;Node2 -->
<g id="edge1_Node000001_Node000002" class="edge">
<title>Node1&#45;&gt;Node2</title>
<g id="a_edge1_Node000001_Node000002"><a xlink:title=" ">
<path fill="none" stroke="#63b8ff" d="M185.22,-112.85C169.01,-122.06 149.57,-132.57 131.5,-141 125.17,-143.95 118.38,-146.85 111.67,-149.57"/>
<polygon fill="#63b8ff" stroke="#63b8ff" points="186.62,-116.08 193.55,-108.06 183.14,-110.01 186.62,-116.08"/>
</a>
</g>
</g>
<!-- Node3 -->
<g id="Node000003" class="node">
<title>Node3</title>
<g id="a_Node000003"><a xlink:href="class_fiea_1_1_engine_1_1_actions_1_1_action.html#a213b522a45471ddf0f7540c927bb1c5d" target="_top" xlink:title=" ">
<polygon fill="white" stroke="#666666" points="120.62,-132 10.88,-132 10.88,-100 120.62,-100 120.62,-132"/>
<text xml:space="preserve" text-anchor="start" x="18.88" y="-118.5" font-family="Helvetica,sans-Serif" font-size="10.00">Fiea::Engine::Actions</text>
<text xml:space="preserve" text-anchor="middle" x="65.75" y="-106.5" font-family="Helvetica,sans-Serif" font-size="10.00">::Action::operator=</text>
</a>
</g>
</g>
<!-- Node1&#45;&gt;Node3 -->
<g id="edge2_Node000001_Node000003" class="edge">
<title>Node1&#45;&gt;Node3</title>
<g id="a_edge2_Node000001_Node000003"><a xlink:title=" ">
<path fill="none" stroke="#63b8ff" d="M156.24,-101.6C144.51,-103.49 132.4,-105.44 121.03,-107.27"/>
<polygon fill="#63b8ff" stroke="#63b8ff" points="156.53,-105.1 165.85,-100.05 155.42,-98.19 156.53,-105.1"/>
</a>
</g>
</g>
<!-- Node4 -->
<g id="Node000004" class="node">
<title>Node4</title>
<g id="a_Node000004"><a xlink:href="class_fiea_1_1_engine_1_1_game_object.html#a71dfc1fae65a0519cd631b680e40b1b9" target="_top" xlink:title=" ">
<polygon fill="white" stroke="#666666" points="131.5,-82 0,-82 0,-50 131.5,-50 131.5,-82"/>
<text xml:space="preserve" text-anchor="start" x="8" y="-68.5" font-family="Helvetica,sans-Serif" font-size="10.00">Fiea::Engine::GameObject</text>
<text xml:space="preserve" text-anchor="middle" x="65.75" y="-56.5" font-family="Helvetica,sans-Serif" font-size="10.00">::operator=</text>
</a>
</g>
</g>
<!-- Node1&#45;&gt;Node4 -->
<g id="edge3_Node000001_Node000004" class="edge">
<title>Node1&#45;&gt;Node4</title>
<g id="a_edge3_Node000001_Node000004"><a xlink:title=" ">
<path fill="none" stroke="#63b8ff" d="M156.16,-80.39C148.14,-79.1 139.95,-77.78 131.95,-76.49"/>
<polygon fill="#63b8ff" stroke="#63b8ff" points="155.42,-83.81 165.85,-81.95 156.53,-76.9 155.42,-83.81"/>
</a>
</g>
</g>
<!-- Node5 -->
<g id="Node000005" class="node">
<title>Node5</title>
<g id="a_Node000005"><a xlink:href="class_fiea_1_1_engine_1_1_game_object.html#aeba25685ae5ae7ca60c620e14b7efc10" target="_top" xlink:title=" ">
<polygon fill="white" stroke="#666666" points="131.5,-32 0,-32 0,0 131.5,0 131.5,-32"/>
<text xml:space="preserve" text-anchor="start" x="8" y="-18.5" font-family="Helvetica,sans-Serif" font-size="10.00">Fiea::Engine::GameObject</text>
<text xml:space="preserve" text-anchor="middle" x="65.75" y="-6.5" font-family="Helvetica,sans-Serif" font-size="10.00">::operator=</text>
</a>
</g>
</g>
<!-- Node1&#45;&gt;Node5 -->
<g id="edge4_Node000001_Node000005" class="edge">
<title>Node1&#45;&gt;Node5</title>
<g id="a_edge4_Node000001_Node000005"><a xlink:title=" ">
<path fill="none" stroke="#63b8ff" d="M185.22,-69.15C169.01,-59.94 149.57,-49.43 131.5,-41 125.17,-38.05 118.38,-35.15 111.67,-32.43"/>
<polygon fill="#63b8ff" stroke="#63b8ff" points="183.14,-71.99 193.55,-73.94 186.62,-65.92 183.14,-71.99"/>
</a>
</g>
</g>
</g>
</svg>
