<?xml version="1.0" encoding="UTF-8" standalone="no"?>
<!DOCTYPE svg PUBLIC "-//W3C//DTD SVG 1.1//EN"
 "http://www.w3.org/Graphics/SVG/1.1/DTD/svg11.dtd">
<!-- Generated by graphviz version 13.1.0 (20250701.0955)
 -->
<!-- Title: Fiea::Engine::Actions::ActionDecrement::ActionDecrement Pages: 1 -->
<svg width="998pt" height="220pt"
 viewBox="0.00 0.00 998.00 220.00" xmlns="http://www.w3.org/2000/svg" xmlns:xlink="http://www.w3.org/1999/xlink">
<g id="graph0" class="graph" transform="scale(1 1) rotate(0) translate(4 216)">
<title>Fiea::Engine::Actions::ActionDecrement::ActionDecrement</title>
<!-- Node1 -->
<g id="Node000001" class="node">
<title>Node1</title>
<g id="a_Node000001"><a xlink:title=" ">
<polygon fill="#999999" stroke="#666666" points="179.5,-148 0,-148 0,-116 179.5,-116 179.5,-148"/>
<text xml:space="preserve" text-anchor="start" x="8" y="-134.5" font-family="Helvetica,sans-Serif" font-size="10.00">Fiea::Engine::Actions</text>
<text xml:space="preserve" text-anchor="middle" x="89.75" y="-122.5" font-family="Helvetica,sans-Serif" font-size="10.00">::ActionDecrement::ActionDecrement</text>
</a>
</g>
</g>
<!-- Node2 -->
<g id="Node000002" class="node">
<title>Node2</title>
<g id="a_Node000002"><a xlink:href="class_fiea_1_1_engine_1_1_actions_1_1_action_decrement.html#a8197d1d77997e88be86924b47d7e95a9" target="_top" xlink:title=" ">
<polygon fill="white" stroke="#666666" points="395,-148 215.5,-148 215.5,-116 395,-116 395,-148"/>
<text xml:space="preserve" text-anchor="start" x="223.5" y="-134.5" font-family="Helvetica,sans-Serif" font-size="10.00">Fiea::Engine::Actions</text>
<text xml:space="preserve" text-anchor="middle" x="305.25" y="-122.5" font-family="Helvetica,sans-Serif" font-size="10.00">::ActionDecrement::ActionDecrement</text>
</a>
</g>
</g>
<!-- Node1&#45;&gt;Node2 -->
<g id="edge1_Node000001_Node000002" class="edge">
<title>Node1&#45;&gt;Node2</title>
<g id="a_edge1_Node000001_Node000002"><a xlink:title=" ">
<path fill="none" stroke="#63b8ff" d="M179.75,-132C187.68,-132 195.75,-132 203.77,-132"/>
<polygon fill="#63b8ff" stroke="#63b8ff" points="203.54,-135.5 213.54,-132 203.54,-128.5 203.54,-135.5"/>
</a>
</g>
</g>
<!-- Node3 -->
<g id="Node000003" class="node">
<title>Node3</title>
<g id="a_Node000003"><a xlink:href="class_fiea_1_1_engine_1_1_actions_1_1_action.html#ae2af386f7122152003b00da79393e19e" target="_top" xlink:title=" ">
<polygon fill="white" stroke="#666666" points="540.75,-170 431,-170 431,-138 540.75,-138 540.75,-170"/>
<text xml:space="preserve" text-anchor="start" x="439" y="-156.5" font-family="Helvetica,sans-Serif" font-size="10.00">Fiea::Engine::Actions</text>
<text xml:space="preserve" text-anchor="middle" x="485.88" y="-144.5" font-family="Helvetica,sans-Serif" font-size="10.00">::Action::Action</text>
</a>
</g>
</g>
<!-- Node2&#45;&gt;Node3 -->
<g id="edge2_Node000002_Node000003" class="edge">
<title>Node2&#45;&gt;Node3</title>
<g id="a_edge2_Node000002_Node000003"><a xlink:title=" ">
<path fill="none" stroke="#63b8ff" d="M395.3,-142.97C403.4,-143.97 411.51,-144.96 419.35,-145.93"/>
<polygon fill="#63b8ff" stroke="#63b8ff" points="418.76,-149.38 429.12,-147.13 419.62,-142.44 418.76,-149.38"/>
</a>
</g>
</g>
<!-- Node5 -->
<g id="Node000005" class="node">
<title>Node5</title>
<g id="a_Node000005"><a xlink:href="class_fiea_1_1_engine_1_1_r_t_t_i.html#a876bebbe7b3149483c43a87f55f4ea99" target="_top" xlink:title=" ">
<polygon fill="white" stroke="#666666" points="682,-126 583.5,-126 583.5,-94 682,-94 682,-126"/>
<text xml:space="preserve" text-anchor="start" x="591.5" y="-112.5" font-family="Helvetica,sans-Serif" font-size="10.00">Fiea::Engine::RTTI</text>
<text xml:space="preserve" text-anchor="middle" x="632.75" y="-100.5" font-family="Helvetica,sans-Serif" font-size="10.00">::TypeIdInstance</text>
</a>
</g>
</g>
<!-- Node2&#45;&gt;Node5 -->
<g id="edge15_Node000002_Node000005" class="edge">
<title>Node2&#45;&gt;Node5</title>
<g id="a_edge15_Node000002_Node000005"><a xlink:title=" ">
<path fill="none" stroke="#63b8ff" d="M395.19,-125.99C451.31,-122.2 522.27,-117.4 571.77,-114.05"/>
<polygon fill="#63b8ff" stroke="#63b8ff" points="571.99,-117.55 581.73,-113.38 571.52,-110.56 571.99,-117.55"/>
</a>
</g>
</g>
<!-- Node4 -->
<g id="Node000004" class="node">
<title>Node4</title>
<g id="a_Node000004"><a xlink:href="class_fiea_1_1_engine_1_1_content_1_1_attributed.html#ad1ae014235d9d8b62b36066c94164148" target="_top" xlink:title=" ">
<polygon fill="white" stroke="#666666" points="688.75,-194 576.75,-194 576.75,-162 688.75,-162 688.75,-194"/>
<text xml:space="preserve" text-anchor="start" x="584.75" y="-180.5" font-family="Helvetica,sans-Serif" font-size="10.00">Fiea::Engine::Content</text>
<text xml:space="preserve" text-anchor="middle" x="632.75" y="-168.5" font-family="Helvetica,sans-Serif" font-size="10.00">::Attributed::Attributed</text>
</a>
</g>
</g>
<!-- Node3&#45;&gt;Node4 -->
<g id="edge3_Node000003_Node000004" class="edge">
<title>Node3&#45;&gt;Node4</title>
<g id="a_edge3_Node000003_Node000004"><a xlink:title=" ">
<path fill="none" stroke="#63b8ff" d="M541.23,-163C549.09,-164.31 557.25,-165.66 565.32,-166.99"/>
<polygon fill="#63b8ff" stroke="#63b8ff" points="564.67,-170.44 575.11,-168.62 565.82,-163.53 564.67,-170.44"/>
</a>
</g>
</g>
<!-- Node3&#45;&gt;Node5 -->
<g id="edge5_Node000003_Node000005" class="edge">
<title>Node3&#45;&gt;Node5</title>
<g id="a_edge5_Node000003_Node000005"><a xlink:title=" ">
<path fill="none" stroke="#63b8ff" d="M540.82,-137.62C551.09,-134.5 561.89,-131.22 572.32,-128.05"/>
<polygon fill="#63b8ff" stroke="#63b8ff" points="573.02,-131.5 581.57,-125.24 570.98,-124.8 573.02,-131.5"/>
</a>
</g>
</g>
<!-- Node4&#45;&gt;Node4 -->
<g id="edge4_Node000004_Node000004" class="edge">
<title>Node4&#45;&gt;Node4</title>
<g id="a_edge4_Node000004_Node000004"><a xlink:title=" ">
<path fill="none" stroke="#63b8ff" d="M606.53,-194.44C601.63,-203.58 610.37,-212 632.75,-212 644.99,-212 653.15,-209.48 657.23,-205.71"/>
<polygon fill="#63b8ff" stroke="#63b8ff" points="660.67,-206.36 658.74,-195.94 653.75,-205.28 660.67,-206.36"/>
</a>
</g>
</g>
<!-- Node5&#45;&gt;Node5 -->
<g id="edge14_Node000005_Node000005" class="edge">
<title>Node5&#45;&gt;Node5</title>
<g id="a_edge14_Node000005_Node000005"><a xlink:title=" ">
<path fill="none" stroke="#63b8ff" d="M606.53,-126.44C601.63,-135.58 610.37,-144 632.75,-144 644.99,-144 653.15,-141.48 657.23,-137.71"/>
<polygon fill="#63b8ff" stroke="#63b8ff" points="660.67,-138.36 658.74,-127.94 653.75,-137.28 660.67,-138.36"/>
</a>
</g>
</g>
<!-- Node6 -->
<g id="Node000006" class="node">
<title>Node6</title>
<g id="a_Node000006"><a xlink:href="class_fiea_1_1_engine_1_1_r_t_t_i.html#a15bd5993c8ad04da47af440298ebbb30" target="_top" xlink:title=" ">
<polygon fill="white" stroke="#666666" points="841.25,-158 724.75,-158 724.75,-138 841.25,-138 841.25,-158"/>
<text xml:space="preserve" text-anchor="middle" x="783" y="-144.5" font-family="Helvetica,sans-Serif" font-size="10.00">Fiea::Engine::RTTI::As</text>
</a>
</g>
</g>
<!-- Node5&#45;&gt;Node6 -->
<g id="edge6_Node000005_Node000006" class="edge">
<title>Node5&#45;&gt;Node6</title>
<g id="a_edge6_Node000005_Node000006"><a xlink:title=" ">
<path fill="none" stroke="#63b8ff" d="M682.29,-122.44C697.65,-126.38 714.68,-130.74 730.25,-134.74"/>
<polygon fill="#63b8ff" stroke="#63b8ff" points="729.27,-138.1 739.82,-137.19 731,-131.32 729.27,-138.1"/>
</a>
</g>
</g>
<!-- Node7 -->
<g id="Node000007" class="node">
<title>Node7</title>
<g id="a_Node000007"><a xlink:href="class_fiea_1_1_engine_1_1_r_t_t_i.html#ac0a7d875e4513b2aca7594abcd4418ef" target="_top" xlink:title=" ">
<polygon fill="white" stroke="#666666" points="990,-180 877.25,-180 877.25,-160 990,-160 990,-180"/>
<text xml:space="preserve" text-anchor="middle" x="933.62" y="-166.5" font-family="Helvetica,sans-Serif" font-size="10.00">Fiea::Engine::RTTI::Is</text>
</a>
</g>
</g>
<!-- Node5&#45;&gt;Node7 -->
<g id="edge11_Node000005_Node000007" class="edge">
<title>Node5&#45;&gt;Node7</title>
<g id="a_edge11_Node000005_Node000007"><a xlink:title=" ">
<path fill="none" stroke="#63b8ff" d="M652.8,-126.34C670.23,-140.14 697.39,-158.93 724.75,-167 770.47,-180.5 824.35,-180.86 865.8,-178.06"/>
<polygon fill="#63b8ff" stroke="#63b8ff" points="865.93,-181.56 875.63,-177.31 865.39,-174.58 865.93,-181.56"/>
</a>
</g>
</g>
<!-- Node8 -->
<g id="Node000008" class="node">
<title>Node8</title>
<g id="a_Node000008"><a xlink:href="class_fiea_1_1_engine_1_1_r_t_t_i.html#a13000029a2e6cced30b831e466e07cae" target="_top" xlink:title=" ">
<polygon fill="white" stroke="#666666" points="982.88,-126 884.38,-126 884.38,-94 982.88,-94 982.88,-126"/>
<text xml:space="preserve" text-anchor="start" x="892.38" y="-112.5" font-family="Helvetica,sans-Serif" font-size="10.00">Fiea::Engine::RTTI</text>
<text xml:space="preserve" text-anchor="middle" x="933.62" y="-100.5" font-family="Helvetica,sans-Serif" font-size="10.00">::RTTI</text>
</a>
</g>
</g>
<!-- Node5&#45;&gt;Node8 -->
<g id="edge12_Node000005_Node000008" class="edge">
<title>Node5&#45;&gt;Node8</title>
<g id="a_edge12_Node000005_Node000008"><a xlink:title=" ">
<path fill="none" stroke="#63b8ff" d="M682.43,-110C734.32,-110 816.54,-110 872.45,-110"/>
<polygon fill="#63b8ff" stroke="#63b8ff" points="872.45,-113.5 882.45,-110 872.45,-106.5 872.45,-113.5"/>
</a>
</g>
</g>
<!-- Node9 -->
<g id="Node000009" class="node">
<title>Node9</title>
<g id="a_Node000009"><a xlink:href="class_fiea_1_1_engine_1_1_r_t_t_i.html#a7f70ad5ba0f8a3388543d63d72892575" target="_top" xlink:title=" ">
<polygon fill="white" stroke="#666666" points="832.25,-82 733.75,-82 733.75,-50 832.25,-50 832.25,-82"/>
<text xml:space="preserve" text-anchor="start" x="741.75" y="-68.5" font-family="Helvetica,sans-Serif" font-size="10.00">Fiea::Engine::RTTI</text>
<text xml:space="preserve" text-anchor="middle" x="783" y="-56.5" font-family="Helvetica,sans-Serif" font-size="10.00">::Equals</text>
</a>
</g>
</g>
<!-- Node5&#45;&gt;Node9 -->
<g id="edge9_Node000005_Node000009" class="edge">
<title>Node5&#45;&gt;Node9</title>
<g id="a_edge9_Node000005_Node000009"><a xlink:title=" ">
<path fill="none" stroke="#63b8ff" d="M682.29,-95.59C695.09,-91.79 709.05,-87.65 722.36,-83.7"/>
<polygon fill="#63b8ff" stroke="#63b8ff" points="723.31,-87.07 731.9,-80.87 721.31,-80.36 723.31,-87.07"/>
</a>
</g>
</g>
<!-- Node10 -->
<g id="Node000010" class="node">
<title>Node10</title>
<g id="a_Node000010"><a xlink:href="class_fiea_1_1_engine_1_1_r_t_t_i.html#a43a7d187e332a17d2c699bc2c8136a30" target="_top" xlink:title=" ">
<polygon fill="white" stroke="#666666" points="832.25,-32 733.75,-32 733.75,0 832.25,0 832.25,-32"/>
<text xml:space="preserve" text-anchor="start" x="741.75" y="-18.5" font-family="Helvetica,sans-Serif" font-size="10.00">Fiea::Engine::RTTI</text>
<text xml:space="preserve" text-anchor="middle" x="783" y="-6.5" font-family="Helvetica,sans-Serif" font-size="10.00">::ToString</text>
</a>
</g>
</g>
<!-- Node5&#45;&gt;Node10 -->
<g id="edge13_Node000005_Node000010" class="edge">
<title>Node5&#45;&gt;Node10</title>
<g id="a_edge13_Node000005_Node000010"><a xlink:title=" ">
<path fill="none" stroke="#63b8ff" d="M652.69,-93.51C670.47,-78.56 698.24,-56.54 724.75,-41 726.76,-39.82 728.84,-38.66 730.95,-37.53"/>
<polygon fill="#63b8ff" stroke="#63b8ff" points="732.34,-40.75 739.71,-33.13 729.2,-34.5 732.34,-40.75"/>
</a>
</g>
</g>
<!-- Node6&#45;&gt;Node7 -->
<g id="edge7_Node000006_Node000007" class="edge">
<title>Node6&#45;&gt;Node7</title>
<g id="a_edge7_Node000006_Node000007"><a xlink:title=" ">
<path fill="none" stroke="#63b8ff" d="M841.46,-156.51C849.35,-157.67 857.5,-158.88 865.53,-160.07"/>
<polygon fill="#63b8ff" stroke="#63b8ff" points="864.88,-163.51 875.28,-161.51 865.91,-156.59 864.88,-163.51"/>
</a>
</g>
</g>
<!-- Node6&#45;&gt;Node8 -->
<g id="edge8_Node000006_Node000008" class="edge">
<title>Node6&#45;&gt;Node8</title>
<g id="a_edge8_Node000006_Node000008"><a xlink:title=" ">
<path fill="none" stroke="#63b8ff" d="M825.01,-137.52C839.88,-133.71 856.99,-129.34 873.13,-125.21"/>
<polygon fill="#63b8ff" stroke="#63b8ff" points="873.82,-128.65 882.64,-122.78 872.09,-121.87 873.82,-128.65"/>
</a>
</g>
</g>
<!-- Node9&#45;&gt;Node8 -->
<g id="edge10_Node000009_Node000008" class="edge">
<title>Node9&#45;&gt;Node8</title>
<g id="a_edge10_Node000009_Node000008"><a xlink:title=" ">
<path fill="none" stroke="#63b8ff" d="M832.67,-80.41C845.69,-84.26 859.92,-88.47 873.44,-92.48"/>
<polygon fill="#63b8ff" stroke="#63b8ff" points="872.07,-95.72 882.65,-95.21 874.06,-89.01 872.07,-95.72"/>
</a>
</g>
</g>
</g>
</svg>
