<?xml version="1.0" encoding="UTF-8" standalone="no"?>
<!DOCTYPE svg PUBLIC "-//W3C//DTD SVG 1.1//EN"
 "http://www.w3.org/Graphics/SVG/1.1/DTD/svg11.dtd">
<!-- Generated by graphviz version 13.1.0 (20250701.0955)
 -->
<!-- Title: Fiea::Engine::Content::Attributed::Attributed Pages: 1 -->
<svg width="268pt" height="126pt"
 viewBox="0.00 0.00 268.00 126.00" xmlns="http://www.w3.org/2000/svg" xmlns:xlink="http://www.w3.org/1999/xlink">
<g id="graph0" class="graph" transform="scale(1 1) rotate(0) translate(4 122)">
<title>Fiea::Engine::Content::Attributed::Attributed</title>
<!-- Node1 -->
<g id="Node000001" class="node">
<title>Node1</title>
<g id="a_Node000001"><a xlink:title="Move constructor for Attributed.">
<polygon fill="#999999" stroke="#666666" points="112,-66 0,-66 0,-34 112,-34 112,-66"/>
<text xml:space="preserve" text-anchor="start" x="8" y="-52.5" font-family="Helvetica,sans-Serif" font-size="10.00">Fiea::Engine::Content</text>
<text xml:space="preserve" text-anchor="middle" x="56" y="-40.5" font-family="Helvetica,sans-Serif" font-size="10.00">::Attributed::Attributed</text>
</a>
</g>
</g>
<!-- Node2 -->
<g id="Node000002" class="node">
<title>Node2</title>
<g id="a_Node000002"><a xlink:href="class_fiea_1_1_engine_1_1_content_1_1_attributed.html#ad1ae014235d9d8b62b36066c94164148" target="_top" xlink:title=" ">
<polygon fill="white" stroke="#666666" points="260,-100 148,-100 148,-68 260,-68 260,-100"/>
<text xml:space="preserve" text-anchor="start" x="156" y="-86.5" font-family="Helvetica,sans-Serif" font-size="10.00">Fiea::Engine::Content</text>
<text xml:space="preserve" text-anchor="middle" x="204" y="-74.5" font-family="Helvetica,sans-Serif" font-size="10.00">::Attributed::Attributed</text>
</a>
</g>
</g>
<!-- Node1&#45;&gt;Node2 -->
<g id="edge1_Node000001_Node000002" class="edge">
<title>Node1&#45;&gt;Node2</title>
<g id="a_edge1_Node000001_Node000002"><a xlink:title=" ">
<path fill="none" stroke="#63b8ff" d="M112.2,-62.85C120.19,-64.72 128.49,-66.65 136.67,-68.55"/>
<polygon fill="#63b8ff" stroke="#63b8ff" points="135.72,-71.93 146.25,-70.78 137.31,-65.11 135.72,-71.93"/>
</a>
</g>
</g>
<!-- Node3 -->
<g id="Node000003" class="node">
<title>Node3</title>
<g id="a_Node000003"><a xlink:href="class_fiea_1_1_engine_1_1_content_1_1_scope.html#a6631343c968c233ab1d9c3e05c3f4fe9" target="_top" xlink:title=" ">
<polygon fill="white" stroke="#666666" points="259.62,-32 148.38,-32 148.38,0 259.62,0 259.62,-32"/>
<text xml:space="preserve" text-anchor="start" x="156.38" y="-18.5" font-family="Helvetica,sans-Serif" font-size="10.00">Fiea::Engine::Content</text>
<text xml:space="preserve" text-anchor="middle" x="204" y="-6.5" font-family="Helvetica,sans-Serif" font-size="10.00">::Scope::Scope</text>
</a>
</g>
</g>
<!-- Node1&#45;&gt;Node3 -->
<g id="edge3_Node000001_Node000003" class="edge">
<title>Node1&#45;&gt;Node3</title>
<g id="a_edge3_Node000001_Node000003"><a xlink:title=" ">
<path fill="none" stroke="#63b8ff" d="M112.2,-37.15C120.3,-35.26 128.72,-33.3 137.01,-31.37"/>
<polygon fill="#63b8ff" stroke="#63b8ff" points="137.79,-34.78 146.74,-29.1 136.2,-27.96 137.79,-34.78"/>
</a>
</g>
</g>
<!-- Node2&#45;&gt;Node2 -->
<g id="edge2_Node000002_Node000002" class="edge">
<title>Node2&#45;&gt;Node2</title>
<g id="a_edge2_Node000002_Node000002"><a xlink:title=" ">
<path fill="none" stroke="#63b8ff" d="M177.58,-100.44C172.65,-109.58 181.45,-118 204,-118 216.33,-118 224.55,-115.48 228.66,-111.71"/>
<polygon fill="#63b8ff" stroke="#63b8ff" points="232.1,-112.36 230.19,-101.94 225.19,-111.28 232.1,-112.36"/>
</a>
</g>
</g>
<!-- Node3&#45;&gt;Node3 -->
<g id="edge4_Node000003_Node000003" class="edge">
<title>Node3&#45;&gt;Node3</title>
<g id="a_edge4_Node000003_Node000003"><a xlink:title=" ">
<path fill="none" stroke="#63b8ff" d="M177.58,-32.44C172.65,-41.58 181.45,-50 204,-50 216.33,-50 224.55,-47.48 228.66,-43.71"/>
<polygon fill="#63b8ff" stroke="#63b8ff" points="232.1,-44.36 230.19,-33.94 225.19,-43.28 232.1,-44.36"/>
</a>
</g>
</g>
</g>
</svg>
