<?xml version="1.0" encoding="UTF-8" standalone="no"?>
<!DOCTYPE svg PUBLIC "-//W3C//DTD SVG 1.1//EN"
 "http://www.w3.org/Graphics/SVG/1.1/DTD/svg11.dtd">
<!-- Generated by graphviz version 13.1.0 (20250701.0955)
 -->
<!-- Title: Fiea::Engine::Actions::ActionPreamble::RunAction Pages: 1 -->
<svg width="593pt" height="196pt"
 viewBox="0.00 0.00 593.00 196.00" xmlns="http://www.w3.org/2000/svg" xmlns:xlink="http://www.w3.org/1999/xlink">
<g id="graph0" class="graph" transform="scale(1 1) rotate(0) translate(4 192)">
<title>Fiea::Engine::Actions::ActionPreamble::RunAction</title>
<!-- Node1 -->
<g id="Node000001" class="node">
<title>Node1</title>
<g id="a_Node000001"><a xlink:title=" ">
<polygon fill="#999999" stroke="#666666" points="142.75,-85 0,-85 0,-53 142.75,-53 142.75,-85"/>
<text xml:space="preserve" text-anchor="start" x="8" y="-71.5" font-family="Helvetica,sans-Serif" font-size="10.00">Fiea::Engine::Actions</text>
<text xml:space="preserve" text-anchor="middle" x="71.38" y="-59.5" font-family="Helvetica,sans-Serif" font-size="10.00">::ActionPreamble::RunAction</text>
</a>
</g>
</g>
<!-- Node2 -->
<g id="Node000002" class="node">
<title>Node2</title>
<g id="a_Node000002"><a xlink:href="class_fiea_1_1_engine_1_1_content_1_1_scope.html#ae21ea7cc60b24915a0aac3b0d0f6005c" target="_top" xlink:title=" ">
<polygon fill="white" stroke="#666666" points="290,-116 178.75,-116 178.75,-84 290,-84 290,-116"/>
<text xml:space="preserve" text-anchor="start" x="186.75" y="-102.5" font-family="Helvetica,sans-Serif" font-size="10.00">Fiea::Engine::Content</text>
<text xml:space="preserve" text-anchor="middle" x="234.38" y="-90.5" font-family="Helvetica,sans-Serif" font-size="10.00">::Scope::Search</text>
</a>
</g>
</g>
<!-- Node1&#45;&gt;Node2 -->
<g id="edge1_Node000001_Node000002" class="edge">
<title>Node1&#45;&gt;Node2</title>
<g id="a_edge1_Node000001_Node000002"><a xlink:title=" ">
<path fill="none" stroke="#63b8ff" d="M142.99,-82.6C151.03,-84.15 159.2,-85.72 167.18,-87.26"/>
<polygon fill="#63b8ff" stroke="#63b8ff" points="166.33,-90.66 176.82,-89.11 167.66,-83.78 166.33,-90.66"/>
</a>
</g>
</g>
<!-- Node6 -->
<g id="Node000006" class="node">
<title>Node6</title>
<g id="a_Node000006"><a xlink:href="class_fiea_1_1_engine_1_1_content_1_1_datum.html#af8ca5539cfa1034703824207a4368a04" target="_top" xlink:title=" ">
<polygon fill="white" stroke="#666666" points="290,-60 178.75,-60 178.75,-28 290,-28 290,-60"/>
<text xml:space="preserve" text-anchor="start" x="186.75" y="-46.5" font-family="Helvetica,sans-Serif" font-size="10.00">Fiea::Engine::Content</text>
<text xml:space="preserve" text-anchor="middle" x="234.38" y="-34.5" font-family="Helvetica,sans-Serif" font-size="10.00">::Datum::Set</text>
</a>
</g>
</g>
<!-- Node1&#45;&gt;Node6 -->
<g id="edge7_Node000001_Node000006" class="edge">
<title>Node1&#45;&gt;Node6</title>
<g id="a_edge7_Node000001_Node000006"><a xlink:title=" ">
<path fill="none" stroke="#63b8ff" d="M142.99,-58.03C151.03,-56.79 159.2,-55.52 167.18,-54.28"/>
<polygon fill="#63b8ff" stroke="#63b8ff" points="167.46,-57.78 176.81,-52.78 166.39,-50.86 167.46,-57.78"/>
</a>
</g>
</g>
<!-- Node3 -->
<g id="Node000003" class="node">
<title>Node3</title>
<g id="a_Node000003"><a xlink:href="class_fiea_1_1_engine_1_1_content_1_1_scope.html#ad924c01785b239991fc0e56a63295612" target="_top" xlink:title="Finds a Datum by key.">
<polygon fill="white" stroke="#666666" points="437.25,-188 326,-188 326,-156 437.25,-156 437.25,-188"/>
<text xml:space="preserve" text-anchor="start" x="334" y="-174.5" font-family="Helvetica,sans-Serif" font-size="10.00">Fiea::Engine::Content</text>
<text xml:space="preserve" text-anchor="middle" x="381.62" y="-162.5" font-family="Helvetica,sans-Serif" font-size="10.00">::Scope::Find</text>
</a>
</g>
</g>
<!-- Node2&#45;&gt;Node3 -->
<g id="edge2_Node000002_Node000003" class="edge">
<title>Node2&#45;&gt;Node3</title>
<g id="a_edge2_Node000002_Node000003"><a xlink:title=" ">
<path fill="none" stroke="#63b8ff" d="M266.22,-116.48C283.66,-125.67 305.93,-137.21 326,-147 328.54,-148.24 331.16,-149.5 333.81,-150.76"/>
<polygon fill="#63b8ff" stroke="#63b8ff" points="332.16,-153.85 342.7,-154.93 335.14,-147.51 332.16,-153.85"/>
</a>
</g>
</g>
<!-- Node4 -->
<g id="Node000004" class="node">
<title>Node4</title>
<g id="a_Node000004"><a xlink:href="class_fiea_1_1_engine_1_1_content_1_1_scope.html#ac4627f740867a929957ce0647f436e02" target="_top" xlink:title=" ">
<polygon fill="white" stroke="#666666" points="437.25,-138 326,-138 326,-106 437.25,-106 437.25,-138"/>
<text xml:space="preserve" text-anchor="start" x="334" y="-124.5" font-family="Helvetica,sans-Serif" font-size="10.00">Fiea::Engine::Content</text>
<text xml:space="preserve" text-anchor="middle" x="381.62" y="-112.5" font-family="Helvetica,sans-Serif" font-size="10.00">::Scope::GetParent</text>
</a>
</g>
</g>
<!-- Node2&#45;&gt;Node4 -->
<g id="edge3_Node000002_Node000004" class="edge">
<title>Node2&#45;&gt;Node4</title>
<g id="a_edge3_Node000002_Node000004"><a xlink:title=" ">
<path fill="none" stroke="#63b8ff" d="M290.29,-108.32C298.15,-109.51 306.31,-110.74 314.36,-111.96"/>
<polygon fill="#63b8ff" stroke="#63b8ff" points="313.73,-115.41 324.14,-113.44 314.78,-108.49 313.73,-115.41"/>
</a>
</g>
</g>
<!-- Node5 -->
<g id="Node000005" class="node">
<title>Node5</title>
<g id="a_Node000005"><a xlink:href="class_fiea_1_1_engine_1_1_content_1_1_scope.html#a6631343c968c233ab1d9c3e05c3f4fe9" target="_top" xlink:title=" ">
<polygon fill="white" stroke="#666666" points="584.5,-116 473.25,-116 473.25,-84 584.5,-84 584.5,-116"/>
<text xml:space="preserve" text-anchor="start" x="481.25" y="-102.5" font-family="Helvetica,sans-Serif" font-size="10.00">Fiea::Engine::Content</text>
<text xml:space="preserve" text-anchor="middle" x="528.88" y="-90.5" font-family="Helvetica,sans-Serif" font-size="10.00">::Scope::Scope</text>
</a>
</g>
</g>
<!-- Node2&#45;&gt;Node5 -->
<g id="edge6_Node000002_Node000005" class="edge">
<title>Node2&#45;&gt;Node5</title>
<g id="a_edge6_Node000002_Node000005"><a xlink:title=" ">
<path fill="none" stroke="#63b8ff" d="M290.48,-97.88C302.2,-97.52 314.51,-97.19 326,-97 375.44,-96.18 387.81,-96.18 437.25,-97 445.06,-97.13 453.25,-97.32 461.37,-97.55"/>
<polygon fill="#63b8ff" stroke="#63b8ff" points="461.16,-101.04 471.26,-97.84 461.36,-94.04 461.16,-101.04"/>
</a>
</g>
</g>
<!-- Node4&#45;&gt;Node5 -->
<g id="edge4_Node000004_Node000005" class="edge">
<title>Node4&#45;&gt;Node5</title>
<g id="a_edge4_Node000004_Node000005"><a xlink:title=" ">
<path fill="none" stroke="#63b8ff" d="M437.54,-113.68C445.4,-112.49 453.56,-111.26 461.61,-110.04"/>
<polygon fill="#63b8ff" stroke="#63b8ff" points="462.03,-113.51 471.39,-108.56 460.98,-106.59 462.03,-113.51"/>
</a>
</g>
</g>
<!-- Node5&#45;&gt;Node5 -->
<g id="edge5_Node000005_Node000005" class="edge">
<title>Node5&#45;&gt;Node5</title>
<g id="a_edge5_Node000005_Node000005"><a xlink:title=" ">
<path fill="none" stroke="#63b8ff" d="M502.59,-116.44C497.68,-125.58 506.44,-134 528.88,-134 541.14,-134 549.32,-131.48 553.41,-127.71"/>
<polygon fill="#63b8ff" stroke="#63b8ff" points="556.85,-128.36 554.93,-117.94 549.94,-127.28 556.85,-128.36"/>
</a>
</g>
</g>
<!-- Node7 -->
<g id="Node000007" class="node">
<title>Node7</title>
<g id="a_Node000007"><a xlink:href="class_fiea_1_1_engine_1_1_content_1_1_datum.html#a921193447f6e42f596ac0a7694b02830" target="_top" xlink:title=" ">
<polygon fill="white" stroke="#666666" points="437.25,-32 326,-32 326,0 437.25,0 437.25,-32"/>
<text xml:space="preserve" text-anchor="start" x="334" y="-18.5" font-family="Helvetica,sans-Serif" font-size="10.00">Fiea::Engine::Content</text>
<text xml:space="preserve" text-anchor="middle" x="381.62" y="-6.5" font-family="Helvetica,sans-Serif" font-size="10.00">::Datum::Scope</text>
</a>
</g>
</g>
<!-- Node6&#45;&gt;Node7 -->
<g id="edge8_Node000006_Node000007" class="edge">
<title>Node6&#45;&gt;Node7</title>
<g id="a_edge8_Node000006_Node000007"><a xlink:title=" ">
<path fill="none" stroke="#63b8ff" d="M290.29,-33.41C298.15,-31.9 306.31,-30.33 314.36,-28.77"/>
<polygon fill="#63b8ff" stroke="#63b8ff" points="314.99,-32.22 324.15,-26.89 313.67,-25.34 314.99,-32.22"/>
</a>
</g>
</g>
<!-- Node7&#45;&gt;Node7 -->
<g id="edge9_Node000007_Node000007" class="edge">
<title>Node7&#45;&gt;Node7</title>
<g id="a_edge9_Node000007_Node000007"><a xlink:title=" ">
<path fill="none" stroke="#63b8ff" d="M355.34,-32.44C350.43,-41.58 359.19,-50 381.62,-50 393.89,-50 402.07,-47.48 406.16,-43.71"/>
<polygon fill="#63b8ff" stroke="#63b8ff" points="409.6,-44.36 407.68,-33.94 402.69,-43.28 409.6,-44.36"/>
</a>
</g>
</g>
</g>
</svg>
