<?xml version="1.0" encoding="UTF-8" standalone="no"?>
<!DOCTYPE svg PUBLIC "-//W3C//DTD SVG 1.1//EN"
 "http://www.w3.org/Graphics/SVG/1.1/DTD/svg11.dtd">
<!-- Generated by graphviz version 13.1.0 (20250701.0955)
 -->
<!-- Title: Fiea::Engine::Content::Scope Pages: 1 -->
<svg width="894pt" height="540pt"
 viewBox="0.00 0.00 894.00 540.00" xmlns="http://www.w3.org/2000/svg" xmlns:xlink="http://www.w3.org/1999/xlink">
<g id="graph0" class="graph" transform="scale(1 1) rotate(0) translate(4 536)">
<title>Fiea::Engine::Content::Scope</title>
<!-- Node1 -->
<g id="Node000001" class="node">
<title>Node1</title>
<g id="a_Node000001"><a xlink:title=" ">
<polygon fill="#999999" stroke="#666666" points="245.75,-82 134.5,-82 134.5,-50 245.75,-50 245.75,-82"/>
<text xml:space="preserve" text-anchor="start" x="142.5" y="-68.5" font-family="Helvetica,sans-Serif" font-size="10.00">Fiea::Engine::Content</text>
<text xml:space="preserve" text-anchor="middle" x="190.12" y="-56.5" font-family="Helvetica,sans-Serif" font-size="10.00">::Scope</text>
</a>
</g>
</g>
<!-- Node3 -->
<g id="Node000003" class="node">
<title>Node3</title>
<g id="a_Node000003"><a xlink:href="class_fiea_1_1_engine_1_1_content_1_1_attributed.html" target="_top" xlink:title=" ">
<polygon fill="white" stroke="#666666" points="393,-82 281.75,-82 281.75,-50 393,-50 393,-82"/>
<text xml:space="preserve" text-anchor="start" x="289.75" y="-68.5" font-family="Helvetica,sans-Serif" font-size="10.00">Fiea::Engine::Content</text>
<text xml:space="preserve" text-anchor="middle" x="337.38" y="-56.5" font-family="Helvetica,sans-Serif" font-size="10.00">::Attributed</text>
</a>
</g>
</g>
<!-- Node1&#45;&gt;Node3 -->
<g id="edge2_Node000001_Node000003" class="edge">
<title>Node1&#45;&gt;Node3</title>
<g id="a_edge2_Node000001_Node000003"><a xlink:title=" ">
<path fill="none" stroke="#63b8ff" d="M257.31,-66C265.36,-66 273.52,-66 281.38,-66"/>
<polygon fill="#63b8ff" stroke="#63b8ff" points="257.55,-62.5 247.55,-66 257.55,-69.5 257.55,-62.5"/>
</a>
</g>
</g>
<!-- Node2 -->
<g id="Node000002" class="node">
<title>Node2</title>
<g id="a_Node000002"><a xlink:href="class_fiea_1_1_engine_1_1_r_t_t_i.html" target="_top" xlink:title=" ">
<polygon fill="white" stroke="#666666" points="98.5,-76 0,-76 0,-56 98.5,-56 98.5,-76"/>
<text xml:space="preserve" text-anchor="middle" x="49.25" y="-62.5" font-family="Helvetica,sans-Serif" font-size="10.00">Fiea::Engine::RTTI</text>
</a>
</g>
</g>
<!-- Node2&#45;&gt;Node1 -->
<g id="edge1_Node000001_Node000002" class="edge">
<title>Node2&#45;&gt;Node1</title>
<g id="a_edge1_Node000001_Node000002"><a xlink:title=" ">
<path fill="none" stroke="#63b8ff" d="M110.28,-66C118.22,-66 126.32,-66 134.17,-66"/>
<polygon fill="#63b8ff" stroke="#63b8ff" points="110.34,-62.5 100.34,-66 110.34,-69.5 110.34,-62.5"/>
</a>
</g>
</g>
<!-- Node4 -->
<g id="Node000004" class="node">
<title>Node4</title>
<g id="a_Node000004"><a xlink:href="class_fiea_1_1_engine_1_1_actions_1_1_action.html" target="_top" xlink:title=" ">
<polygon fill="white" stroke="#666666" points="549.62,-307 439.88,-307 439.88,-275 549.62,-275 549.62,-307"/>
<text xml:space="preserve" text-anchor="start" x="447.88" y="-293.5" font-family="Helvetica,sans-Serif" font-size="10.00">Fiea::Engine::Actions</text>
<text xml:space="preserve" text-anchor="middle" x="494.75" y="-281.5" font-family="Helvetica,sans-Serif" font-size="10.00">::Action</text>
</a>
</g>
</g>
<!-- Node3&#45;&gt;Node4 -->
<g id="edge3_Node000003_Node000004" class="edge">
<title>Node3&#45;&gt;Node4</title>
<g id="a_edge3_Node000003_Node000004"><a xlink:title=" ">
<path fill="none" stroke="#63b8ff" d="M356.04,-91.59C388.26,-138.25 455.72,-235.92 482.47,-274.66"/>
<polygon fill="#63b8ff" stroke="#63b8ff" points="358.97,-89.67 350.41,-83.43 353.21,-93.64 358.97,-89.67"/>
</a>
</g>
</g>
<!-- Node17 -->
<g id="Node000017" class="node">
<title>Node17</title>
<g id="a_Node000017"><a xlink:href="class_fiea_1_1_engine_1_1_game_object.html" target="_top" xlink:title=" ">
<polygon fill="white" stroke="#666666" points="560.5,-76 429,-76 429,-56 560.5,-56 560.5,-76"/>
<text xml:space="preserve" text-anchor="middle" x="494.75" y="-62.5" font-family="Helvetica,sans-Serif" font-size="10.00">Fiea::Engine::GameObject</text>
</a>
</g>
</g>
<!-- Node3&#45;&gt;Node17 -->
<g id="edge16_Node000003_Node000017" class="edge">
<title>Node3&#45;&gt;Node17</title>
<g id="a_edge16_Node000003_Node000017"><a xlink:title=" ">
<path fill="none" stroke="#63b8ff" d="M404.62,-66C412.55,-66 420.64,-66 428.55,-66"/>
<polygon fill="#63b8ff" stroke="#63b8ff" points="404.67,-62.5 394.67,-66 404.67,-69.5 404.67,-62.5"/>
</a>
</g>
</g>
<!-- Node19 -->
<g id="Node000019" class="node">
<title>Node19</title>
<g id="a_Node000019"><a xlink:href="class_fiea_1_1_engine_1_1_tests_1_1_support_1_1_attribute_box.html" target="_top" xlink:title=" ">
<polygon fill="white" stroke="#666666" points="552.62,-35 436.88,-35 436.88,-3 552.62,-3 552.62,-35"/>
<text xml:space="preserve" text-anchor="start" x="444.88" y="-21.5" font-family="Helvetica,sans-Serif" font-size="10.00">Fiea::Engine::Tests</text>
<text xml:space="preserve" text-anchor="middle" x="494.75" y="-9.5" font-family="Helvetica,sans-Serif" font-size="10.00">::Support::AttributeBox</text>
</a>
</g>
</g>
<!-- Node3&#45;&gt;Node19 -->
<g id="edge18_Node000003_Node000019" class="edge">
<title>Node3&#45;&gt;Node19</title>
<g id="a_edge18_Node000003_Node000019"><a xlink:title=" ">
<path fill="none" stroke="#63b8ff" d="M403.54,-46.29C415.49,-42.67 427.85,-38.93 439.44,-35.43"/>
<polygon fill="#63b8ff" stroke="#63b8ff" points="402.72,-42.88 394.17,-49.12 404.75,-49.58 402.72,-42.88"/>
</a>
</g>
</g>
<!-- Node5 -->
<g id="Node000005" class="node">
<title>Node5</title>
<g id="a_Node000005"><a xlink:href="class_fiea_1_1_engine_1_1_actions_1_1_action_add_datum.html" target="_top" xlink:title=" ">
<polygon fill="white" stroke="#666666" points="722.38,-532 612.62,-532 612.62,-500 722.38,-500 722.38,-532"/>
<text xml:space="preserve" text-anchor="start" x="620.62" y="-518.5" font-family="Helvetica,sans-Serif" font-size="10.00">Fiea::Engine::Actions</text>
<text xml:space="preserve" text-anchor="middle" x="667.5" y="-506.5" font-family="Helvetica,sans-Serif" font-size="10.00">::ActionAddDatum</text>
</a>
</g>
</g>
<!-- Node4&#45;&gt;Node5 -->
<g id="edge4_Node000004_Node000005" class="edge">
<title>Node4&#45;&gt;Node5</title>
<g id="a_edge4_Node000004_Node000005"><a xlink:title=" ">
<path fill="none" stroke="#63b8ff" d="M502.42,-318.19C514.24,-360.87 542.83,-443.59 596.5,-491 601.14,-495.1 606.5,-498.54 612.15,-501.43"/>
<polygon fill="#63b8ff" stroke="#63b8ff" points="505.86,-317.51 499.91,-308.74 499.09,-319.31 505.86,-317.51"/>
</a>
</g>
</g>
<!-- Node6 -->
<g id="Node000006" class="node">
<title>Node6</title>
<g id="a_Node000006"><a xlink:href="class_fiea_1_1_engine_1_1_actions_1_1_action_condition.html" target="_top" xlink:title=" ">
<polygon fill="white" stroke="#666666" points="722.38,-482 612.62,-482 612.62,-450 722.38,-450 722.38,-482"/>
<text xml:space="preserve" text-anchor="start" x="620.62" y="-468.5" font-family="Helvetica,sans-Serif" font-size="10.00">Fiea::Engine::Actions</text>
<text xml:space="preserve" text-anchor="middle" x="667.5" y="-456.5" font-family="Helvetica,sans-Serif" font-size="10.00">::ActionCondition</text>
</a>
</g>
</g>
<!-- Node4&#45;&gt;Node6 -->
<g id="edge5_Node000004_Node000006" class="edge">
<title>Node4&#45;&gt;Node6</title>
<g id="a_edge5_Node000004_Node000006"><a xlink:title=" ">
<path fill="none" stroke="#63b8ff" d="M507.04,-317.34C522.57,-350.63 553.57,-407.6 596.5,-441 601.29,-444.72 606.68,-447.92 612.28,-450.67"/>
<polygon fill="#63b8ff" stroke="#63b8ff" points="510.31,-316.07 502.99,-308.41 503.93,-318.96 510.31,-316.07"/>
</a>
</g>
</g>
<!-- Node7 -->
<g id="Node000007" class="node">
<title>Node7</title>
<g id="a_Node000007"><a xlink:href="class_fiea_1_1_engine_1_1_actions_1_1_action_conditional_increment.html" target="_top" xlink:title=" ">
<polygon fill="white" stroke="#666666" points="738.5,-432 596.5,-432 596.5,-400 738.5,-400 738.5,-432"/>
<text xml:space="preserve" text-anchor="start" x="604.5" y="-418.5" font-family="Helvetica,sans-Serif" font-size="10.00">Fiea::Engine::Actions</text>
<text xml:space="preserve" text-anchor="middle" x="667.5" y="-406.5" font-family="Helvetica,sans-Serif" font-size="10.00">::ActionConditionalIncrement</text>
</a>
</g>
</g>
<!-- Node4&#45;&gt;Node7 -->
<g id="edge6_Node000004_Node000007" class="edge">
<title>Node4&#45;&gt;Node7</title>
<g id="a_edge6_Node000004_Node000007"><a xlink:title=" ">
<path fill="none" stroke="#63b8ff" d="M515.45,-316.04C534.19,-338.4 564.25,-370.67 596.5,-391 601.52,-394.16 607,-397 612.61,-399.52"/>
<polygon fill="#63b8ff" stroke="#63b8ff" points="518.38,-314.1 509.33,-308.59 512.97,-318.54 518.38,-314.1"/>
</a>
</g>
</g>
<!-- Node8 -->
<g id="Node000008" class="node">
<title>Node8</title>
<g id="a_Node000008"><a xlink:href="class_fiea_1_1_engine_1_1_actions_1_1_action_decrement.html" target="_top" xlink:title=" ">
<polygon fill="white" stroke="#666666" points="722.38,-382 612.62,-382 612.62,-350 722.38,-350 722.38,-382"/>
<text xml:space="preserve" text-anchor="start" x="620.62" y="-368.5" font-family="Helvetica,sans-Serif" font-size="10.00">Fiea::Engine::Actions</text>
<text xml:space="preserve" text-anchor="middle" x="667.5" y="-356.5" font-family="Helvetica,sans-Serif" font-size="10.00">::ActionDecrement</text>
</a>
</g>
</g>
<!-- Node4&#45;&gt;Node8 -->
<g id="edge7_Node000004_Node000008" class="edge">
<title>Node4&#45;&gt;Node8</title>
<g id="a_edge7_Node000004_Node000008"><a xlink:title=" ">
<path fill="none" stroke="#63b8ff" d="M536.41,-312.54C554.57,-321.8 576.37,-332.45 596.5,-341 603.39,-343.93 610.75,-346.81 618.01,-349.52"/>
<polygon fill="#63b8ff" stroke="#63b8ff" points="538.02,-309.43 527.52,-307.96 534.81,-315.65 538.02,-309.43"/>
</a>
</g>
</g>
<!-- Node9 -->
<g id="Node000009" class="node">
<title>Node9</title>
<g id="a_Node000009"><a xlink:href="class_fiea_1_1_engine_1_1_actions_1_1_action_increment.html" target="_top" xlink:title=" ">
<polygon fill="white" stroke="#666666" points="722.38,-332 612.62,-332 612.62,-300 722.38,-300 722.38,-332"/>
<text xml:space="preserve" text-anchor="start" x="620.62" y="-318.5" font-family="Helvetica,sans-Serif" font-size="10.00">Fiea::Engine::Actions</text>
<text xml:space="preserve" text-anchor="middle" x="667.5" y="-306.5" font-family="Helvetica,sans-Serif" font-size="10.00">::ActionIncrement</text>
</a>
</g>
</g>
<!-- Node4&#45;&gt;Node9 -->
<g id="edge8_Node000004_Node000009" class="edge">
<title>Node4&#45;&gt;Node9</title>
<g id="a_edge8_Node000004_Node000009"><a xlink:title=" ">
<path fill="none" stroke="#63b8ff" d="M560.75,-300.52C577.74,-303 595.87,-305.66 612.24,-308.06"/>
<polygon fill="#63b8ff" stroke="#63b8ff" points="561.68,-297.12 551.27,-299.13 560.66,-304.04 561.68,-297.12"/>
</a>
</g>
</g>
<!-- Node10 -->
<g id="Node000010" class="node">
<title>Node10</title>
<g id="a_Node000010"><a xlink:href="class_fiea_1_1_engine_1_1_actions_1_1_action_list.html" target="_top" xlink:title=" ">
<polygon fill="white" stroke="#666666" points="722.38,-282 612.62,-282 612.62,-250 722.38,-250 722.38,-282"/>
<text xml:space="preserve" text-anchor="start" x="620.62" y="-268.5" font-family="Helvetica,sans-Serif" font-size="10.00">Fiea::Engine::Actions</text>
<text xml:space="preserve" text-anchor="middle" x="667.5" y="-256.5" font-family="Helvetica,sans-Serif" font-size="10.00">::ActionList</text>
</a>
</g>
</g>
<!-- Node4&#45;&gt;Node10 -->
<g id="edge9_Node000004_Node000010" class="edge">
<title>Node4&#45;&gt;Node10</title>
<g id="a_edge9_Node000004_Node000010"><a xlink:title=" ">
<path fill="none" stroke="#63b8ff" d="M560.75,-281.48C577.74,-279 595.87,-276.34 612.24,-273.94"/>
<polygon fill="#63b8ff" stroke="#63b8ff" points="560.66,-277.96 551.27,-282.87 561.68,-284.88 560.66,-277.96"/>
</a>
</g>
</g>
<!-- Node14 -->
<g id="Node000014" class="node">
<title>Node14</title>
<g id="a_Node000014"><a xlink:href="class_fiea_1_1_engine_1_1_actions_1_1_action_loop_increment.html" target="_top" xlink:title=" ">
<polygon fill="white" stroke="#666666" points="724.62,-232 610.38,-232 610.38,-200 724.62,-200 724.62,-232"/>
<text xml:space="preserve" text-anchor="start" x="618.38" y="-218.5" font-family="Helvetica,sans-Serif" font-size="10.00">Fiea::Engine::Actions</text>
<text xml:space="preserve" text-anchor="middle" x="667.5" y="-206.5" font-family="Helvetica,sans-Serif" font-size="10.00">::ActionLoopIncrement</text>
</a>
</g>
</g>
<!-- Node4&#45;&gt;Node14 -->
<g id="edge13_Node000004_Node000014" class="edge">
<title>Node4&#45;&gt;Node14</title>
<g id="a_edge13_Node000004_Node000014"><a xlink:title=" ">
<path fill="none" stroke="#63b8ff" d="M536.41,-269.46C554.57,-260.2 576.37,-249.55 596.5,-241 603.39,-238.07 610.75,-235.19 618.01,-232.48"/>
<polygon fill="#63b8ff" stroke="#63b8ff" points="534.81,-266.35 527.52,-274.04 538.02,-272.57 534.81,-266.35"/>
</a>
</g>
</g>
<!-- Node15 -->
<g id="Node000015" class="node">
<title>Node15</title>
<g id="a_Node000015"><a xlink:href="class_fiea_1_1_engine_1_1_actions_1_1_action_output.html" target="_top" xlink:title=" ">
<polygon fill="white" stroke="#666666" points="722.38,-182 612.62,-182 612.62,-150 722.38,-150 722.38,-182"/>
<text xml:space="preserve" text-anchor="start" x="620.62" y="-168.5" font-family="Helvetica,sans-Serif" font-size="10.00">Fiea::Engine::Actions</text>
<text xml:space="preserve" text-anchor="middle" x="667.5" y="-156.5" font-family="Helvetica,sans-Serif" font-size="10.00">::ActionOutput</text>
</a>
</g>
</g>
<!-- Node4&#45;&gt;Node15 -->
<g id="edge14_Node000004_Node000015" class="edge">
<title>Node4&#45;&gt;Node15</title>
<g id="a_edge14_Node000004_Node000015"><a xlink:title=" ">
<path fill="none" stroke="#63b8ff" d="M515.45,-265.96C534.19,-243.6 564.25,-211.33 596.5,-191 601.52,-187.84 607,-185 612.61,-182.48"/>
<polygon fill="#63b8ff" stroke="#63b8ff" points="512.97,-263.46 509.33,-273.41 518.38,-267.9 512.97,-263.46"/>
</a>
</g>
</g>
<!-- Node16 -->
<g id="Node000016" class="node">
<title>Node16</title>
<g id="a_Node000016"><a xlink:href="class_fiea_1_1_engine_1_1_actions_1_1_action_preamble.html" target="_top" xlink:title=" ">
<polygon fill="white" stroke="#666666" points="722.38,-132 612.62,-132 612.62,-100 722.38,-100 722.38,-132"/>
<text xml:space="preserve" text-anchor="start" x="620.62" y="-118.5" font-family="Helvetica,sans-Serif" font-size="10.00">Fiea::Engine::Actions</text>
<text xml:space="preserve" text-anchor="middle" x="667.5" y="-106.5" font-family="Helvetica,sans-Serif" font-size="10.00">::ActionPreamble</text>
</a>
</g>
</g>
<!-- Node4&#45;&gt;Node16 -->
<g id="edge15_Node000004_Node000016" class="edge">
<title>Node4&#45;&gt;Node16</title>
<g id="a_edge15_Node000004_Node000016"><a xlink:title=" ">
<path fill="none" stroke="#63b8ff" d="M507.04,-264.66C522.57,-231.37 553.57,-174.4 596.5,-141 601.29,-137.28 606.68,-134.08 612.28,-131.33"/>
<polygon fill="#63b8ff" stroke="#63b8ff" points="503.93,-263.04 502.99,-273.59 510.31,-265.93 503.93,-263.04"/>
</a>
</g>
</g>
<!-- Node11 -->
<g id="Node000011" class="node">
<title>Node11</title>
<g id="a_Node000011"><a xlink:href="class_fiea_1_1_engine_1_1_actions_1_1_action_delayed.html" target="_top" xlink:title=" ">
<polygon fill="white" stroke="#666666" points="885,-332 775.25,-332 775.25,-300 885,-300 885,-332"/>
<text xml:space="preserve" text-anchor="start" x="783.25" y="-318.5" font-family="Helvetica,sans-Serif" font-size="10.00">Fiea::Engine::Actions</text>
<text xml:space="preserve" text-anchor="middle" x="830.12" y="-306.5" font-family="Helvetica,sans-Serif" font-size="10.00">::ActionDelayed</text>
</a>
</g>
</g>
<!-- Node10&#45;&gt;Node11 -->
<g id="edge10_Node000010_Node000011" class="edge">
<title>Node10&#45;&gt;Node11</title>
<g id="a_edge10_Node000010_Node000011"><a xlink:title=" ">
<path fill="none" stroke="#63b8ff" d="M732.07,-285.79C746.67,-290.33 762.04,-295.12 776.14,-299.51"/>
<polygon fill="#63b8ff" stroke="#63b8ff" points="733.13,-282.45 722.54,-282.82 731.05,-289.14 733.13,-282.45"/>
</a>
</g>
</g>
<!-- Node12 -->
<g id="Node000012" class="node">
<title>Node12</title>
<g id="a_Node000012"><a xlink:href="class_fiea_1_1_engine_1_1_actions_1_1_action_list_while_loop.html" target="_top" xlink:title=" ">
<polygon fill="white" stroke="#666666" points="885.75,-282 774.5,-282 774.5,-250 885.75,-250 885.75,-282"/>
<text xml:space="preserve" text-anchor="start" x="782.5" y="-268.5" font-family="Helvetica,sans-Serif" font-size="10.00">Fiea::Engine::Actions</text>
<text xml:space="preserve" text-anchor="middle" x="830.12" y="-256.5" font-family="Helvetica,sans-Serif" font-size="10.00">::ActionListWhileLoop</text>
</a>
</g>
</g>
<!-- Node10&#45;&gt;Node12 -->
<g id="edge11_Node000010_Node000012" class="edge">
<title>Node10&#45;&gt;Node12</title>
<g id="a_edge11_Node000010_Node000012"><a xlink:title=" ">
<path fill="none" stroke="#63b8ff" d="M733.59,-266C747.08,-266 761.16,-266 774.24,-266"/>
<polygon fill="#63b8ff" stroke="#63b8ff" points="733.95,-262.5 723.95,-266 733.95,-269.5 733.95,-262.5"/>
</a>
</g>
</g>
<!-- Node13 -->
<g id="Node000013" class="node">
<title>Node13</title>
<g id="a_Node000013"><a xlink:href="class_fiea_1_1_engine_1_1_actions_1_1_action_timed.html" target="_top" xlink:title=" ">
<polygon fill="white" stroke="#666666" points="885,-232 775.25,-232 775.25,-200 885,-200 885,-232"/>
<text xml:space="preserve" text-anchor="start" x="783.25" y="-218.5" font-family="Helvetica,sans-Serif" font-size="10.00">Fiea::Engine::Actions</text>
<text xml:space="preserve" text-anchor="middle" x="830.12" y="-206.5" font-family="Helvetica,sans-Serif" font-size="10.00">::ActionTimed</text>
</a>
</g>
</g>
<!-- Node10&#45;&gt;Node13 -->
<g id="edge12_Node000010_Node000013" class="edge">
<title>Node10&#45;&gt;Node13</title>
<g id="a_edge12_Node000010_Node000013"><a xlink:title=" ">
<path fill="none" stroke="#63b8ff" d="M732.07,-246.21C746.67,-241.67 762.04,-236.88 776.14,-232.49"/>
<polygon fill="#63b8ff" stroke="#63b8ff" points="731.05,-242.86 722.54,-249.18 733.13,-249.55 731.05,-242.86"/>
</a>
</g>
</g>
<!-- Node18 -->
<g id="Node000018" class="node">
<title>Node18</title>
<g id="a_Node000018"><a xlink:href="class_fiea_1_1_engine_1_1_tests_1_1_test_game_object.html" target="_top" xlink:title=" ">
<polygon fill="white" stroke="#666666" points="717.88,-82 617.12,-82 617.12,-50 717.88,-50 717.88,-82"/>
<text xml:space="preserve" text-anchor="start" x="625.12" y="-68.5" font-family="Helvetica,sans-Serif" font-size="10.00">Fiea::Engine::Tests</text>
<text xml:space="preserve" text-anchor="middle" x="667.5" y="-56.5" font-family="Helvetica,sans-Serif" font-size="10.00">::TestGameObject</text>
</a>
</g>
</g>
<!-- Node17&#45;&gt;Node18 -->
<g id="edge17_Node000017_Node000018" class="edge">
<title>Node17&#45;&gt;Node18</title>
<g id="a_edge17_Node000017_Node000018"><a xlink:title=" ">
<path fill="none" stroke="#63b8ff" d="M572.24,-66C587.35,-66 602.84,-66 616.78,-66"/>
<polygon fill="#63b8ff" stroke="#63b8ff" points="572.3,-62.5 562.3,-66 572.3,-69.5 572.3,-62.5"/>
</a>
</g>
</g>
<!-- Node20 -->
<g id="Node000020" class="node">
<title>Node20</title>
<g id="a_Node000020"><a xlink:href="class_fiea_1_1_engine_1_1_tests_1_1_support_1_1_attribute_box_plus.html" target="_top" xlink:title=" ">
<polygon fill="white" stroke="#666666" points="735.12,-32 599.88,-32 599.88,0 735.12,0 735.12,-32"/>
<text xml:space="preserve" text-anchor="start" x="607.88" y="-18.5" font-family="Helvetica,sans-Serif" font-size="10.00">Fiea::Engine::Tests</text>
<text xml:space="preserve" text-anchor="middle" x="667.5" y="-6.5" font-family="Helvetica,sans-Serif" font-size="10.00">::Support::AttributeBoxPlus</text>
</a>
</g>
</g>
<!-- Node19&#45;&gt;Node20 -->
<g id="edge19_Node000019_Node000020" class="edge">
<title>Node19&#45;&gt;Node20</title>
<g id="a_edge19_Node000019_Node000020"><a xlink:title=" ">
<path fill="none" stroke="#63b8ff" d="M564.48,-17.79C576.05,-17.59 588.05,-17.38 599.58,-17.18"/>
<polygon fill="#63b8ff" stroke="#63b8ff" points="564.53,-14.29 554.6,-17.97 564.66,-21.29 564.53,-14.29"/>
</a>
</g>
</g>
</g>
</svg>
