<?xml version="1.0" encoding="UTF-8" standalone="no"?>
<!DOCTYPE svg PUBLIC "-//W3C//DTD SVG 1.1//EN"
 "http://www.w3.org/Graphics/SVG/1.1/DTD/svg11.dtd">
<!-- Generated by graphviz version 13.1.0 (20250701.0955)
 -->
<!-- Title: Fiea::Engine::ServiceManager::ProvideInterface Pages: 1 -->
<svg width="896pt" height="767pt"
 viewBox="0.00 0.00 896.00 767.00" xmlns="http://www.w3.org/2000/svg" xmlns:xlink="http://www.w3.org/1999/xlink">
<g id="graph0" class="graph" transform="scale(1 1) rotate(0) translate(4 763.24)">
<title>Fiea::Engine::ServiceManager::ProvideInterface</title>
<!-- Node1 -->
<g id="Node000001" class="node">
<title>Node1</title>
<g id="a_Node000001"><a xlink:title=" ">
<polygon fill="#999999" stroke="#666666" points="887.75,-395 740.5,-395 740.5,-363 887.75,-363 887.75,-395"/>
<text xml:space="preserve" text-anchor="start" x="748.5" y="-381.5" font-family="Helvetica,sans-Serif" font-size="10.00">Fiea::Engine::ServiceManager</text>
<text xml:space="preserve" text-anchor="middle" x="814.12" y="-369.5" font-family="Helvetica,sans-Serif" font-size="10.00">::ProvideInterface</text>
</a>
</g>
</g>
<!-- Node2 -->
<g id="Node000002" class="node">
<title>Node2</title>
<g id="a_Node000002"><a xlink:href="class_fiea_1_1_engine_1_1_content_1_1_scope_writer.html#aa73231d29c0a0b0bcfbb910e2f913404" target="_top" xlink:title=" ">
<polygon fill="white" stroke="#666666" points="679.75,-670 537.75,-670 537.75,-626 679.75,-626 679.75,-670"/>
<text xml:space="preserve" text-anchor="start" x="545.75" y="-656.5" font-family="Helvetica,sans-Serif" font-size="10.00">Fiea::Engine::Content</text>
<text xml:space="preserve" text-anchor="start" x="545.75" y="-644.5" font-family="Helvetica,sans-Serif" font-size="10.00">::ScopeWriter::AddActionList</text>
<text xml:space="preserve" text-anchor="middle" x="608.75" y="-632.5" font-family="Helvetica,sans-Serif" font-size="10.00">Object</text>
</a>
</g>
</g>
<!-- Node1&#45;&gt;Node2 -->
<g id="edge1_Node000001_Node000002" class="edge">
<title>Node1&#45;&gt;Node2</title>
<g id="a_edge1_Node000001_Node000002"><a xlink:title=" ">
<path fill="none" stroke="#63b8ff" d="M807.47,-406.38C796.19,-454.47 766.43,-554.44 704.5,-612 697.41,-618.59 688.99,-624.01 680.15,-628.46"/>
<polygon fill="#63b8ff" stroke="#63b8ff" points="810.85,-407.33 809.62,-396.81 804.02,-405.8 810.85,-407.33"/>
</a>
</g>
</g>
<!-- Node3 -->
<g id="Node000003" class="node">
<title>Node3</title>
<g id="a_Node000003"><a xlink:href="class_fiea_1_1_engine_1_1_content_1_1_scope_writer.html#a0a79e65b8a84d1a7275153c32e4d499a" target="_top" xlink:title=" ">
<polygon fill="white" stroke="#666666" points="477,-720 322.25,-720 322.25,-688 477,-688 477,-720"/>
<text xml:space="preserve" text-anchor="start" x="330.25" y="-706.5" font-family="Helvetica,sans-Serif" font-size="10.00">Fiea::Engine::Content</text>
<text xml:space="preserve" text-anchor="middle" x="399.62" y="-694.5" font-family="Helvetica,sans-Serif" font-size="10.00">::ScopeWriter::AddActionObject</text>
</a>
</g>
</g>
<!-- Node1&#45;&gt;Node3 -->
<g id="edge5_Node000001_Node000003" class="edge">
<title>Node1&#45;&gt;Node3</title>
<g id="a_edge5_Node000001_Node000003"><a xlink:title=" ">
<path fill="none" stroke="#63b8ff" d="M808.87,-406.26C796.49,-481.58 757.98,-689.6 704.5,-729 623.95,-788.34 496.71,-746.43 435.62,-720.43"/>
<polygon fill="#63b8ff" stroke="#63b8ff" points="812.25,-407.28 810.39,-396.85 805.34,-406.16 812.25,-407.28"/>
</a>
</g>
</g>
<!-- Node6 -->
<g id="Node000006" class="node">
<title>Node6</title>
<g id="a_Node000006"><a xlink:href="class_fiea_1_1_engine_1_1_content_1_1_scope_writer.html#a8baf6cd60c0807e9e91054132db5183f" target="_top" xlink:title=" ">
<polygon fill="white" stroke="#666666" points="704.5,-720 513,-720 513,-688 704.5,-688 704.5,-720"/>
<text xml:space="preserve" text-anchor="start" x="521" y="-706.5" font-family="Helvetica,sans-Serif" font-size="10.00">Fiea::Engine::Content</text>
<text xml:space="preserve" text-anchor="middle" x="608.75" y="-694.5" font-family="Helvetica,sans-Serif" font-size="10.00">::ScopeWriter::AddActionToPredecessor</text>
</a>
</g>
</g>
<!-- Node1&#45;&gt;Node6 -->
<g id="edge6_Node000001_Node000006" class="edge">
<title>Node1&#45;&gt;Node6</title>
<g id="a_edge6_Node000001_Node000006"><a xlink:title=" ">
<path fill="none" stroke="#63b8ff" d="M811.42,-406.48C806.24,-465.46 785.6,-604.85 704.5,-679 700.86,-682.33 696.83,-685.22 692.54,-687.74"/>
<polygon fill="#63b8ff" stroke="#63b8ff" points="814.9,-406.91 812.19,-396.67 807.92,-406.37 814.9,-406.91"/>
</a>
</g>
</g>
<!-- Node7 -->
<g id="Node000007" class="node">
<title>Node7</title>
<g id="a_Node000007"><a xlink:href="class_fiea_1_1_engine_1_1_content_1_1_scope_writer.html#a707086401a09fd8b2f07d65a1f95fd72" target="_top" xlink:title=" ">
<polygon fill="white" stroke="#666666" points="685.38,-570 532.12,-570 532.12,-538 685.38,-538 685.38,-570"/>
<text xml:space="preserve" text-anchor="start" x="540.12" y="-556.5" font-family="Helvetica,sans-Serif" font-size="10.00">Fiea::Engine::Content</text>
<text xml:space="preserve" text-anchor="middle" x="608.75" y="-544.5" font-family="Helvetica,sans-Serif" font-size="10.00">::ScopeWriter::AddGameObject</text>
</a>
</g>
</g>
<!-- Node1&#45;&gt;Node7 -->
<g id="edge8_Node000001_Node000007" class="edge">
<title>Node1&#45;&gt;Node7</title>
<g id="a_edge8_Node000001_Node000007"><a xlink:title=" ">
<path fill="none" stroke="#63b8ff" d="M801.08,-405.48C784.3,-439.34 750.68,-497.34 704.5,-529 698.75,-532.94 692.41,-536.27 685.81,-539.06"/>
<polygon fill="#63b8ff" stroke="#63b8ff" points="804.09,-407.3 805.27,-396.77 797.78,-404.26 804.09,-407.3"/>
</a>
</g>
</g>
<!-- Node8 -->
<g id="Node000008" class="node">
<title>Node8</title>
<g id="a_Node000008"><a xlink:href="class_fiea_1_1_engine_1_1_content_1_1_scope_writer.html#a77fe1b124acb1dd1bd3f2d7f104035cf" target="_top" xlink:title=" ">
<polygon fill="white" stroke="#666666" points="462.75,-586 336.5,-586 336.5,-554 462.75,-554 462.75,-586"/>
<text xml:space="preserve" text-anchor="start" x="344.5" y="-572.5" font-family="Helvetica,sans-Serif" font-size="10.00">Fiea::Engine::Content</text>
<text xml:space="preserve" text-anchor="middle" x="399.62" y="-560.5" font-family="Helvetica,sans-Serif" font-size="10.00">::ScopeWriter::AddScope</text>
</a>
</g>
</g>
<!-- Node1&#45;&gt;Node8 -->
<g id="edge13_Node000001_Node000008" class="edge">
<title>Node1&#45;&gt;Node8</title>
<g id="a_edge13_Node000001_Node000008"><a xlink:title=" ">
<path fill="none" stroke="#63b8ff" d="M807.59,-406.33C796.77,-451.67 768.09,-541.17 704.5,-579 625.35,-626.08 512.91,-604.8 449.34,-586.47"/>
<polygon fill="#63b8ff" stroke="#63b8ff" points="810.96,-407.3 809.74,-396.78 804.13,-405.77 810.96,-407.3"/>
</a>
</g>
</g>
<!-- Node12 -->
<g id="Node000012" class="node">
<title>Node12</title>
<g id="a_Node000012"><a xlink:href="class_fiea_1_1_engine_1_1_content_1_1_scope_writer.html#a542b6ab60fcbb7b17a9e203df367ca01" target="_top" xlink:title=" ">
<polygon fill="white" stroke="#666666" points="684.25,-520 533.25,-520 533.25,-476 684.25,-476 684.25,-520"/>
<text xml:space="preserve" text-anchor="start" x="541.25" y="-506.5" font-family="Helvetica,sans-Serif" font-size="10.00">Fiea::Engine::Content</text>
<text xml:space="preserve" text-anchor="start" x="541.25" y="-494.5" font-family="Helvetica,sans-Serif" font-size="10.00">::ScopeWriter::AddWhileAction</text>
<text xml:space="preserve" text-anchor="middle" x="608.75" y="-482.5" font-family="Helvetica,sans-Serif" font-size="10.00">ParamObject</text>
</a>
</g>
</g>
<!-- Node1&#45;&gt;Node12 -->
<g id="edge14_Node000001_Node000012" class="edge">
<title>Node1&#45;&gt;Node12</title>
<g id="a_edge14_Node000001_Node000012"><a xlink:title=" ">
<path fill="none" stroke="#63b8ff" d="M788.6,-403.31C767.74,-422.83 736.21,-449.74 704.5,-467 698.12,-470.48 691.28,-473.65 684.3,-476.52"/>
<polygon fill="#63b8ff" stroke="#63b8ff" points="790.93,-405.92 795.76,-396.49 786.1,-400.85 790.93,-405.92"/>
</a>
</g>
</g>
<!-- Node14 -->
<g id="Node000014" class="node">
<title>Node14</title>
<g id="a_Node000014"><a xlink:href="class_fiea_1_1_engine_1_1_content_1_1_attributed.html#adff35ee5e52ab504651c9ba6743b6776" target="_top" xlink:title="Constructor that initializes class attributes based on the provided class definition generator.">
<polygon fill="white" stroke="#666666" points="664.75,-458 552.75,-458 552.75,-426 664.75,-426 664.75,-458"/>
<text xml:space="preserve" text-anchor="start" x="560.75" y="-444.5" font-family="Helvetica,sans-Serif" font-size="10.00">Fiea::Engine::Content</text>
<text xml:space="preserve" text-anchor="middle" x="608.75" y="-432.5" font-family="Helvetica,sans-Serif" font-size="10.00">::Attributed::Attributed</text>
</a>
</g>
</g>
<!-- Node1&#45;&gt;Node14 -->
<g id="edge16_Node000001_Node000014" class="edge">
<title>Node1&#45;&gt;Node14</title>
<g id="a_edge16_Node000001_Node000014"><a xlink:title=" ">
<path fill="none" stroke="#63b8ff" d="M749.17,-398.81C721.44,-407.4 689.36,-417.34 662.96,-425.52"/>
<polygon fill="#63b8ff" stroke="#63b8ff" points="749.99,-402.22 758.51,-395.92 747.92,-395.53 749.99,-402.22"/>
</a>
</g>
</g>
<!-- Node15 -->
<g id="Node000015" class="node">
<title>Node15</title>
<g id="a_Node000015"><a xlink:href="class_fiea_1_1_engine_1_1_content_1_1_attributed.html#ab4d8bae8360da2a6204951e3a3791046" target="_top" xlink:title="Retrieves all class attribute names.">
<polygon fill="white" stroke="#666666" points="280.25,-458 142.75,-458 142.75,-426 280.25,-426 280.25,-458"/>
<text xml:space="preserve" text-anchor="start" x="150.75" y="-444.5" font-family="Helvetica,sans-Serif" font-size="10.00">Fiea::Engine::Content</text>
<text xml:space="preserve" text-anchor="middle" x="211.5" y="-432.5" font-family="Helvetica,sans-Serif" font-size="10.00">::Attributed::ClassAttributes</text>
</a>
</g>
</g>
<!-- Node1&#45;&gt;Node15 -->
<g id="edge17_Node000001_Node000015" class="edge">
<title>Node1&#45;&gt;Node15</title>
<g id="a_edge17_Node000001_Node000015"><a xlink:title=" ">
<path fill="none" stroke="#63b8ff" d="M728.77,-387.85C608.67,-400.45 390.76,-423.3 280.42,-434.88"/>
<polygon fill="#63b8ff" stroke="#63b8ff" points="728.99,-391.34 738.57,-386.82 728.26,-384.38 728.99,-391.34"/>
</a>
</g>
</g>
<!-- Node18 -->
<g id="Node000018" class="node">
<title>Node18</title>
<g id="a_Node000018"><a xlink:href="class_fiea_1_1_engine_1_1_content_1_1_attributed.html#afb5756182b73d6326b8021f88ee51877" target="_top" xlink:title="Retrieves all instance attribute names.">
<polygon fill="white" stroke="#666666" points="286.25,-332 136.75,-332 136.75,-300 286.25,-300 286.25,-332"/>
<text xml:space="preserve" text-anchor="start" x="144.75" y="-318.5" font-family="Helvetica,sans-Serif" font-size="10.00">Fiea::Engine::Content</text>
<text xml:space="preserve" text-anchor="middle" x="211.5" y="-306.5" font-family="Helvetica,sans-Serif" font-size="10.00">::Attributed::InstanceAttributes</text>
</a>
</g>
</g>
<!-- Node1&#45;&gt;Node18 -->
<g id="edge20_Node000001_Node000018" class="edge">
<title>Node1&#45;&gt;Node18</title>
<g id="a_edge20_Node000001_Node000018"><a xlink:title=" ">
<path fill="none" stroke="#63b8ff" d="M729.06,-376.24C630.97,-372.16 464.1,-362.53 322.25,-341 307.66,-338.79 292.13,-335.7 277.49,-332.46"/>
<polygon fill="#63b8ff" stroke="#63b8ff" points="728.74,-379.73 738.87,-376.64 729.02,-372.74 728.74,-379.73"/>
</a>
</g>
</g>
<!-- Node19 -->
<g id="Node000019" class="node">
<title>Node19</title>
<g id="a_Node000019"><a xlink:href="class_fiea_1_1_engine_1_1_content_1_1_attributed.html#af9a419e6aa1b52eed4c923a89931771e" target="_top" xlink:title="Checks if a given key is a class attribute.">
<polygon fill="white" stroke="#666666" points="679,-332 538.5,-332 538.5,-300 679,-300 679,-332"/>
<text xml:space="preserve" text-anchor="start" x="546.5" y="-318.5" font-family="Helvetica,sans-Serif" font-size="10.00">Fiea::Engine::Content</text>
<text xml:space="preserve" text-anchor="middle" x="608.75" y="-306.5" font-family="Helvetica,sans-Serif" font-size="10.00">::Attributed::IsClassAttribute</text>
</a>
</g>
</g>
<!-- Node1&#45;&gt;Node19 -->
<g id="edge23_Node000001_Node000019" class="edge">
<title>Node1&#45;&gt;Node19</title>
<g id="a_edge23_Node000001_Node000019"><a xlink:title=" ">
<path fill="none" stroke="#63b8ff" d="M749.17,-359.19C721.44,-350.6 689.36,-340.66 662.96,-332.48"/>
<polygon fill="#63b8ff" stroke="#63b8ff" points="747.92,-362.47 758.51,-362.08 749.99,-355.78 747.92,-362.47"/>
</a>
</g>
</g>
<!-- Node22 -->
<g id="Node000022" class="node">
<title>Node22</title>
<g id="a_Node000022"><a xlink:href="namespace_fiea_1_1_engine_1_1_tests.html#a68f566c6aeab43c3e521cc48e0c08362" target="_top" xlink:title=" ">
<polygon fill="white" stroke="#666666" points="659.12,-282 558.38,-282 558.38,-250 659.12,-250 659.12,-282"/>
<text xml:space="preserve" text-anchor="start" x="566.38" y="-268.5" font-family="Helvetica,sans-Serif" font-size="10.00">Fiea::Engine::Tests</text>
<text xml:space="preserve" text-anchor="middle" x="608.75" y="-256.5" font-family="Helvetica,sans-Serif" font-size="10.00">::TEST_CLASS</text>
</a>
</g>
</g>
<!-- Node1&#45;&gt;Node22 -->
<g id="edge33_Node000001_Node000022" class="edge">
<title>Node1&#45;&gt;Node22</title>
<g id="a_edge33_Node000001_Node000022"><a xlink:title=" ">
<path fill="none" stroke="#63b8ff" d="M789.22,-354.55C768.52,-334.71 736.89,-307.43 704.5,-291 690.54,-283.92 674.38,-278.7 659.4,-274.92"/>
<polygon fill="#63b8ff" stroke="#63b8ff" points="786.71,-357 796.31,-361.49 791.61,-351.99 786.71,-357"/>
</a>
</g>
</g>
<!-- Node23 -->
<g id="Node000023" class="node">
<title>Node23</title>
<g id="a_Node000023"><a xlink:href="namespace_fiea_1_1_engine_1_1_tests.html#a16fc13573dc263e0c19766314b40d399" target="_top" xlink:title=" ">
<polygon fill="white" stroke="#666666" points="659.12,-232 558.38,-232 558.38,-200 659.12,-200 659.12,-232"/>
<text xml:space="preserve" text-anchor="start" x="566.38" y="-218.5" font-family="Helvetica,sans-Serif" font-size="10.00">Fiea::Engine::Tests</text>
<text xml:space="preserve" text-anchor="middle" x="608.75" y="-206.5" font-family="Helvetica,sans-Serif" font-size="10.00">::TEST_CLASS</text>
</a>
</g>
</g>
<!-- Node1&#45;&gt;Node23 -->
<g id="edge34_Node000001_Node000023" class="edge">
<title>Node1&#45;&gt;Node23</title>
<g id="a_edge34_Node000001_Node000023"><a xlink:title=" ">
<path fill="none" stroke="#63b8ff" d="M799.47,-352.76C781.79,-321.39 748.01,-269.57 704.5,-241 691.13,-232.22 674.81,-226.52 659.5,-222.82"/>
<polygon fill="#63b8ff" stroke="#63b8ff" points="796.24,-354.14 804.12,-361.22 802.38,-350.77 796.24,-354.14"/>
</a>
</g>
</g>
<!-- Node24 -->
<g id="Node000024" class="node">
<title>Node24</title>
<g id="a_Node000024"><a xlink:href="namespace_fiea_1_1_engine_1_1_tests.html#a217e9c28b23b0ee07f93392651454c83" target="_top" xlink:title=" ">
<polygon fill="white" stroke="#666666" points="659.12,-182 558.38,-182 558.38,-150 659.12,-150 659.12,-182"/>
<text xml:space="preserve" text-anchor="start" x="566.38" y="-168.5" font-family="Helvetica,sans-Serif" font-size="10.00">Fiea::Engine::Tests</text>
<text xml:space="preserve" text-anchor="middle" x="608.75" y="-156.5" font-family="Helvetica,sans-Serif" font-size="10.00">::TEST_CLASS</text>
</a>
</g>
</g>
<!-- Node1&#45;&gt;Node24 -->
<g id="edge35_Node000001_Node000024" class="edge">
<title>Node1&#45;&gt;Node24</title>
<g id="a_edge35_Node000001_Node000024"><a xlink:title=" ">
<path fill="none" stroke="#63b8ff" d="M804.9,-351.68C791.07,-310.46 759.14,-232.75 704.5,-191 691.52,-181.08 674.95,-175.09 659.31,-171.47"/>
<polygon fill="#63b8ff" stroke="#63b8ff" points="801.54,-352.64 807.94,-361.08 808.2,-350.49 801.54,-352.64"/>
</a>
</g>
</g>
<!-- Node25 -->
<g id="Node000025" class="node">
<title>Node25</title>
<g id="a_Node000025"><a xlink:href="namespace_fiea_1_1_engine_1_1_tests.html#aceedc88e68490f2629fe8c4dcced8ff3" target="_top" xlink:title=" ">
<polygon fill="white" stroke="#666666" points="659.12,-132 558.38,-132 558.38,-100 659.12,-100 659.12,-132"/>
<text xml:space="preserve" text-anchor="start" x="566.38" y="-118.5" font-family="Helvetica,sans-Serif" font-size="10.00">Fiea::Engine::Tests</text>
<text xml:space="preserve" text-anchor="middle" x="608.75" y="-106.5" font-family="Helvetica,sans-Serif" font-size="10.00">::TEST_CLASS</text>
</a>
</g>
</g>
<!-- Node1&#45;&gt;Node25 -->
<g id="edge36_Node000001_Node000025" class="edge">
<title>Node1&#45;&gt;Node25</title>
<g id="a_edge36_Node000001_Node000025"><a xlink:title=" ">
<path fill="none" stroke="#63b8ff" d="M808.47,-351.39C798.59,-301.62 770.75,-196.84 704.5,-141 691.88,-130.37 675.22,-124.2 659.4,-120.64"/>
<polygon fill="#63b8ff" stroke="#63b8ff" points="804.99,-351.86 810.28,-361.04 811.87,-350.56 804.99,-351.86"/>
</a>
</g>
</g>
<!-- Node26 -->
<g id="Node000026" class="node">
<title>Node26</title>
<g id="a_Node000026"><a xlink:href="namespace_fiea_1_1_engine_1_1_tests.html#a89b054e30b186f60d7f23c17503265da" target="_top" xlink:title=" ">
<polygon fill="white" stroke="#666666" points="659.12,-82 558.38,-82 558.38,-50 659.12,-50 659.12,-82"/>
<text xml:space="preserve" text-anchor="start" x="566.38" y="-68.5" font-family="Helvetica,sans-Serif" font-size="10.00">Fiea::Engine::Tests</text>
<text xml:space="preserve" text-anchor="middle" x="608.75" y="-56.5" font-family="Helvetica,sans-Serif" font-size="10.00">::TEST_CLASS</text>
</a>
</g>
</g>
<!-- Node1&#45;&gt;Node26 -->
<g id="edge37_Node000001_Node000026" class="edge">
<title>Node1&#45;&gt;Node26</title>
<g id="a_edge37_Node000001_Node000026"><a xlink:title=" ">
<path fill="none" stroke="#63b8ff" d="M810.93,-351.43C804.86,-294.11 782.68,-161.54 704.5,-91 692.12,-79.83 675.33,-73.55 659.33,-70.05"/>
<polygon fill="#63b8ff" stroke="#63b8ff" points="807.44,-351.66 811.88,-361.28 814.41,-350.99 807.44,-351.66"/>
</a>
</g>
</g>
<!-- Node27 -->
<g id="Node000027" class="node">
<title>Node27</title>
<g id="a_Node000027"><a xlink:href="namespace_fiea_1_1_engine_1_1_tests.html#ac5649971ac3bf0ed64a9afba695697bf" target="_top" xlink:title=" ">
<polygon fill="white" stroke="#666666" points="659.12,-32 558.38,-32 558.38,0 659.12,0 659.12,-32"/>
<text xml:space="preserve" text-anchor="start" x="566.38" y="-18.5" font-family="Helvetica,sans-Serif" font-size="10.00">Fiea::Engine::Tests</text>
<text xml:space="preserve" text-anchor="middle" x="608.75" y="-6.5" font-family="Helvetica,sans-Serif" font-size="10.00">::TEST_CLASS</text>
</a>
</g>
</g>
<!-- Node1&#45;&gt;Node27 -->
<g id="edge38_Node000001_Node000027" class="edge">
<title>Node1&#45;&gt;Node27</title>
<g id="a_edge38_Node000001_Node000027"><a xlink:title=" ">
<path fill="none" stroke="#63b8ff" d="M812.72,-351.65C810.24,-287.56 794.83,-126.67 704.5,-41 692.28,-29.41 675.34,-23.05 659.16,-19.6"/>
<polygon fill="#63b8ff" stroke="#63b8ff" points="809.21,-351.38 813.01,-361.27 816.21,-351.17 809.21,-351.38"/>
</a>
</g>
</g>
<!-- Node2&#45;&gt;Node3 -->
<g id="edge2_Node000002_Node000003" class="edge">
<title>Node2&#45;&gt;Node3</title>
<g id="a_edge2_Node000002_Node000003"><a xlink:title=" ">
<path fill="none" stroke="#63b8ff" d="M526.5,-669.97C504.86,-675.82 481.85,-682.04 461.5,-687.54"/>
<polygon fill="#63b8ff" stroke="#63b8ff" points="527.14,-673.42 535.88,-667.43 525.31,-666.66 527.14,-673.42"/>
</a>
</g>
</g>
<!-- Node5 -->
<g id="Node000005" class="node">
<title>Node5</title>
<g id="a_Node000005"><a xlink:href="class_fiea_1_1_engine_1_1_content_1_1_action_list_handler.html#ae0f8b6534bcf602df112f39202c79ecc" target="_top" xlink:title=" ">
<polygon fill="white" stroke="#666666" points="455.25,-670 344,-670 344,-626 455.25,-626 455.25,-670"/>
<text xml:space="preserve" text-anchor="start" x="352" y="-656.5" font-family="Helvetica,sans-Serif" font-size="10.00">Fiea::Engine::Content</text>
<text xml:space="preserve" text-anchor="start" x="352" y="-644.5" font-family="Helvetica,sans-Serif" font-size="10.00">::ActionListHandler::</text>
<text xml:space="preserve" text-anchor="middle" x="399.62" y="-632.5" font-family="Helvetica,sans-Serif" font-size="10.00">EnterKey</text>
</a>
</g>
</g>
<!-- Node2&#45;&gt;Node5 -->
<g id="edge4_Node000002_Node000005" class="edge">
<title>Node2&#45;&gt;Node5</title>
<g id="a_edge4_Node000002_Node000005"><a xlink:title=" ">
<path fill="none" stroke="#63b8ff" d="M525.88,-648C502.25,-648 477.03,-648 455.47,-648"/>
<polygon fill="#63b8ff" stroke="#63b8ff" points="525.82,-651.5 535.82,-648 525.82,-644.5 525.82,-651.5"/>
</a>
</g>
</g>
<!-- Node4 -->
<g id="Node000004" class="node">
<title>Node4</title>
<g id="a_Node000004"><a xlink:href="class_fiea_1_1_engine_1_1_content_1_1_action_handler.html#a392af20cfeb37d539b88183bc9672f7a" target="_top" xlink:title=" ">
<polygon fill="white" stroke="#666666" points="276.5,-720 146.5,-720 146.5,-688 276.5,-688 276.5,-720"/>
<text xml:space="preserve" text-anchor="start" x="154.5" y="-706.5" font-family="Helvetica,sans-Serif" font-size="10.00">Fiea::Engine::Content</text>
<text xml:space="preserve" text-anchor="middle" x="211.5" y="-694.5" font-family="Helvetica,sans-Serif" font-size="10.00">::ActionHandler::EnterKey</text>
</a>
</g>
</g>
<!-- Node3&#45;&gt;Node4 -->
<g id="edge3_Node000003_Node000004" class="edge">
<title>Node3&#45;&gt;Node4</title>
<g id="a_edge3_Node000003_Node000004"><a xlink:title=" ">
<path fill="none" stroke="#63b8ff" d="M310.57,-704C299.24,-704 287.81,-704 276.95,-704"/>
<polygon fill="#63b8ff" stroke="#63b8ff" points="310.33,-707.5 320.33,-704 310.33,-700.5 310.33,-707.5"/>
</a>
</g>
</g>
<!-- Node6&#45;&gt;Node3 -->
<g id="edge7_Node000006_Node000003" class="edge">
<title>Node6&#45;&gt;Node3</title>
<g id="a_edge7_Node000006_Node000003"><a xlink:title=" ">
<path fill="none" stroke="#63b8ff" d="M501.31,-704C493.26,-704 485.24,-704 477.44,-704"/>
<polygon fill="#63b8ff" stroke="#63b8ff" points="501.16,-707.5 511.16,-704 501.16,-700.5 501.16,-707.5"/>
</a>
</g>
</g>
<!-- Node7&#45;&gt;Node8 -->
<g id="edge9_Node000007_Node000008" class="edge">
<title>Node7&#45;&gt;Node8</title>
<g id="a_edge9_Node000007_Node000008"><a xlink:title=" ">
<path fill="none" stroke="#63b8ff" d="M520.53,-560.74C501.2,-562.23 481.09,-563.78 462.99,-565.18"/>
<polygon fill="#63b8ff" stroke="#63b8ff" points="520.59,-564.24 530.29,-559.98 520.05,-557.26 520.59,-564.24"/>
</a>
</g>
</g>
<!-- Node9 -->
<g id="Node000009" class="node">
<title>Node9</title>
<g id="a_Node000009"><a xlink:href="class_fiea_1_1_engine_1_1_content_1_1_game_object_handler.html#a626573aebcd7beceb84dbd69bc15105b" target="_top" xlink:title=" ">
<polygon fill="white" stroke="#666666" points="269.75,-654 153.25,-654 153.25,-610 269.75,-610 269.75,-654"/>
<text xml:space="preserve" text-anchor="start" x="161.25" y="-640.5" font-family="Helvetica,sans-Serif" font-size="10.00">Fiea::Engine::Content</text>
<text xml:space="preserve" text-anchor="start" x="161.25" y="-628.5" font-family="Helvetica,sans-Serif" font-size="10.00">::GameObjectHandler::</text>
<text xml:space="preserve" text-anchor="middle" x="211.5" y="-616.5" font-family="Helvetica,sans-Serif" font-size="10.00">EnterKey</text>
</a>
</g>
</g>
<!-- Node8&#45;&gt;Node9 -->
<g id="edge10_Node000008_Node000009" class="edge">
<title>Node8&#45;&gt;Node9</title>
<g id="a_edge10_Node000008_Node000009"><a xlink:title=" ">
<path fill="none" stroke="#63b8ff" d="M338.39,-590.07C316.46,-597.37 291.74,-605.61 270.05,-612.83"/>
<polygon fill="#63b8ff" stroke="#63b8ff" points="339.42,-593.41 347.8,-586.93 337.21,-586.77 339.42,-593.41"/>
</a>
</g>
</g>
<!-- Node10 -->
<g id="Node000010" class="node">
<title>Node10</title>
<g id="a_Node000010"><a xlink:href="class_fiea_1_1_engine_1_1_content_1_1_scope_factory_handler.html#ae5e7d2b134d20238fa9be43f936bf80b" target="_top" xlink:title=" ">
<polygon fill="white" stroke="#666666" points="269.75,-592 153.25,-592 153.25,-548 269.75,-548 269.75,-592"/>
<text xml:space="preserve" text-anchor="start" x="161.25" y="-578.5" font-family="Helvetica,sans-Serif" font-size="10.00">Fiea::Engine::Content</text>
<text xml:space="preserve" text-anchor="start" x="161.25" y="-566.5" font-family="Helvetica,sans-Serif" font-size="10.00">::ScopeFactoryHandler</text>
<text xml:space="preserve" text-anchor="middle" x="211.5" y="-554.5" font-family="Helvetica,sans-Serif" font-size="10.00">::EnterKey</text>
</a>
</g>
</g>
<!-- Node8&#45;&gt;Node10 -->
<g id="edge11_Node000008_Node000010" class="edge">
<title>Node8&#45;&gt;Node10</title>
<g id="a_edge11_Node000008_Node000010"><a xlink:title=" ">
<path fill="none" stroke="#63b8ff" d="M324.69,-570C306.54,-570 287.37,-570 270.12,-570"/>
<polygon fill="#63b8ff" stroke="#63b8ff" points="324.62,-573.5 334.62,-570 324.62,-566.5 324.62,-573.5"/>
</a>
</g>
</g>
<!-- Node11 -->
<g id="Node000011" class="node">
<title>Node11</title>
<g id="a_Node000011"><a xlink:href="class_fiea_1_1_engine_1_1_content_1_1_scope_handler.html#a593999f6a2df6002af8db4629d8a0176" target="_top" xlink:title=" ">
<polygon fill="white" stroke="#666666" points="276.5,-530 146.5,-530 146.5,-498 276.5,-498 276.5,-530"/>
<text xml:space="preserve" text-anchor="start" x="154.5" y="-516.5" font-family="Helvetica,sans-Serif" font-size="10.00">Fiea::Engine::Content</text>
<text xml:space="preserve" text-anchor="middle" x="211.5" y="-504.5" font-family="Helvetica,sans-Serif" font-size="10.00">::ScopeHandler::EnterKey</text>
</a>
</g>
</g>
<!-- Node8&#45;&gt;Node11 -->
<g id="edge12_Node000008_Node000011" class="edge">
<title>Node8&#45;&gt;Node11</title>
<g id="a_edge12_Node000008_Node000011"><a xlink:title=" ">
<path fill="none" stroke="#63b8ff" d="M332.8,-550.19C311.36,-543.74 287.81,-536.66 267.27,-530.48"/>
<polygon fill="#63b8ff" stroke="#63b8ff" points="331.75,-553.54 342.34,-553.06 333.77,-546.83 331.75,-553.54"/>
</a>
</g>
</g>
<!-- Node13 -->
<g id="Node000013" class="node">
<title>Node13</title>
<g id="a_Node000013"><a xlink:href="class_fiea_1_1_engine_1_1_content_1_1_action_while_param_handler.html#a0d3cab60b559a3be182c4534883d4614" target="_top" xlink:title=" ">
<polygon fill="white" stroke="#666666" points="468,-520 331.25,-520 331.25,-476 468,-476 468,-520"/>
<text xml:space="preserve" text-anchor="start" x="339.25" y="-506.5" font-family="Helvetica,sans-Serif" font-size="10.00">Fiea::Engine::Content</text>
<text xml:space="preserve" text-anchor="start" x="339.25" y="-494.5" font-family="Helvetica,sans-Serif" font-size="10.00">::ActionWhileParamHandler</text>
<text xml:space="preserve" text-anchor="middle" x="399.62" y="-482.5" font-family="Helvetica,sans-Serif" font-size="10.00">::EnterKey</text>
</a>
</g>
</g>
<!-- Node12&#45;&gt;Node13 -->
<g id="edge15_Node000012_Node000013" class="edge">
<title>Node12&#45;&gt;Node13</title>
<g id="a_edge15_Node000012_Node000013"><a xlink:title=" ">
<path fill="none" stroke="#63b8ff" d="M521.46,-498C503.75,-498 485.35,-498 468.41,-498"/>
<polygon fill="#63b8ff" stroke="#63b8ff" points="521.46,-501.5 531.46,-498 521.46,-494.5 521.46,-501.5"/>
</a>
</g>
</g>
<!-- Node16 -->
<g id="Node000016" class="node">
<title>Node16</title>
<g id="a_Node000016"><a xlink:href="namespace_fiea_1_1_engine_1_1_tests.html#ad7d06bf277bf903f5dbc3982540b1563" target="_top" xlink:title=" ">
<polygon fill="white" stroke="#666666" points="100.75,-376 0,-376 0,-344 100.75,-344 100.75,-376"/>
<text xml:space="preserve" text-anchor="start" x="8" y="-362.5" font-family="Helvetica,sans-Serif" font-size="10.00">Fiea::Engine::Tests</text>
<text xml:space="preserve" text-anchor="middle" x="50.38" y="-350.5" font-family="Helvetica,sans-Serif" font-size="10.00">::TEST_CLASS</text>
</a>
</g>
</g>
<!-- Node15&#45;&gt;Node16 -->
<g id="edge18_Node000015_Node000016" class="edge">
<title>Node15&#45;&gt;Node16</title>
<g id="a_edge18_Node000015_Node000016"><a xlink:title=" ">
<path fill="none" stroke="#63b8ff" d="M156.29,-421.12C149.64,-418.21 142.99,-415.14 136.75,-412 115.52,-401.3 92.56,-387.16 75.8,-376.33"/>
<polygon fill="#63b8ff" stroke="#63b8ff" points="154.73,-424.26 165.3,-424.94 157.46,-417.81 154.73,-424.26"/>
</a>
</g>
</g>
<!-- Node17 -->
<g id="Node000017" class="node">
<title>Node17</title>
<g id="a_Node000017"><a xlink:href="namespace_fiea_1_1_engine_1_1_tests.html#a3cdcf27a81b8b07fd7e0f633fb413ca8" target="_top" xlink:title=" ">
<polygon fill="white" stroke="#666666" points="100.75,-288 0,-288 0,-256 100.75,-256 100.75,-288"/>
<text xml:space="preserve" text-anchor="start" x="8" y="-274.5" font-family="Helvetica,sans-Serif" font-size="10.00">Fiea::Engine::Tests</text>
<text xml:space="preserve" text-anchor="middle" x="50.38" y="-262.5" font-family="Helvetica,sans-Serif" font-size="10.00">::TEST_CLASS</text>
</a>
</g>
</g>
<!-- Node15&#45;&gt;Node17 -->
<g id="edge19_Node000015_Node000017" class="edge">
<title>Node15&#45;&gt;Node17</title>
<g id="a_edge19_Node000015_Node000017"><a xlink:title=" ">
<path fill="none" stroke="#63b8ff" d="M187.46,-417.39C154.45,-382.12 94.59,-318.17 66.59,-288.25"/>
<polygon fill="#63b8ff" stroke="#63b8ff" points="184.82,-419.69 194.21,-424.59 189.93,-414.9 184.82,-419.69"/>
</a>
</g>
</g>
<!-- Node18&#45;&gt;Node16 -->
<g id="edge21_Node000018_Node000016" class="edge">
<title>Node18&#45;&gt;Node16</title>
<g id="a_edge21_Node000018_Node000016"><a xlink:title=" ">
<path fill="none" stroke="#63b8ff" d="M140.26,-335.42C127.04,-339.08 113.47,-342.83 101.04,-346.27"/>
<polygon fill="#63b8ff" stroke="#63b8ff" points="141.08,-338.83 149.79,-332.79 139.22,-332.08 141.08,-338.83"/>
</a>
</g>
</g>
<!-- Node18&#45;&gt;Node17 -->
<g id="edge22_Node000018_Node000017" class="edge">
<title>Node18&#45;&gt;Node17</title>
<g id="a_edge22_Node000018_Node000017"><a xlink:title=" ">
<path fill="none" stroke="#63b8ff" d="M140.26,-296.58C127.04,-292.92 113.47,-289.17 101.04,-285.73"/>
<polygon fill="#63b8ff" stroke="#63b8ff" points="139.22,-299.92 149.79,-299.21 141.08,-293.17 139.22,-299.92"/>
</a>
</g>
</g>
<!-- Node19&#45;&gt;Node16 -->
<g id="edge31_Node000019_Node000016" class="edge">
<title>Node19&#45;&gt;Node16</title>
<g id="a_edge31_Node000019_Node000016"><a xlink:title=" ">
<path fill="none" stroke="#63b8ff" d="M526.8,-332.51C510.36,-335.58 493.15,-338.57 477,-341 392.66,-353.69 371.41,-357.33 286.25,-362 219.91,-365.64 203.19,-362.78 136.75,-362 125.19,-361.86 112.74,-361.63 101.03,-361.36"/>
<polygon fill="#63b8ff" stroke="#63b8ff" points="527.37,-335.97 536.55,-330.67 526.07,-329.09 527.37,-335.97"/>
</a>
</g>
</g>
<!-- Node19&#45;&gt;Node17 -->
<g id="edge32_Node000019_Node000017" class="edge">
<title>Node19&#45;&gt;Node17</title>
<g id="a_edge32_Node000019_Node000017"><a xlink:title=" ">
<path fill="none" stroke="#63b8ff" d="M527.58,-298.91C522.48,-296.6 517.57,-293.98 513,-291 491.53,-277.03 498.31,-260.22 477,-246 403.61,-197.03 373.61,-203.34 286.25,-191 220.46,-181.7 198.47,-166.38 136.75,-191 104.11,-204.02 76.79,-236.11 62.38,-255.77"/>
<polygon fill="#63b8ff" stroke="#63b8ff" points="526.26,-302.15 536.85,-302.66 528.89,-295.66 526.26,-302.15"/>
</a>
</g>
</g>
<!-- Node20 -->
<g id="Node000020" class="node">
<title>Node20</title>
<g id="a_Node000020"><a xlink:href="class_fiea_1_1_engine_1_1_content_1_1_attributed.html#a7fc54279fcfc7c8bd925e6b47e396446" target="_top" xlink:title="Appends a new instance attribute.">
<polygon fill="white" stroke="#666666" points="281.75,-244 141.25,-244 141.25,-200 281.75,-200 281.75,-244"/>
<text xml:space="preserve" text-anchor="start" x="149.25" y="-230.5" font-family="Helvetica,sans-Serif" font-size="10.00">Fiea::Engine::Content</text>
<text xml:space="preserve" text-anchor="start" x="149.25" y="-218.5" font-family="Helvetica,sans-Serif" font-size="10.00">::Attributed::AppendInstance</text>
<text xml:space="preserve" text-anchor="middle" x="211.5" y="-206.5" font-family="Helvetica,sans-Serif" font-size="10.00">Attribute</text>
</a>
</g>
</g>
<!-- Node19&#45;&gt;Node20 -->
<g id="edge24_Node000019_Node000020" class="edge">
<title>Node19&#45;&gt;Node20</title>
<g id="a_edge24_Node000019_Node000020"><a xlink:title=" ">
<path fill="none" stroke="#63b8ff" d="M527.62,-296.94C455.53,-279.8 350.69,-254.86 282.05,-238.54"/>
<polygon fill="#63b8ff" stroke="#63b8ff" points="526.44,-300.26 536.98,-299.17 528.06,-293.45 526.44,-300.26"/>
</a>
</g>
</g>
<!-- Node21 -->
<g id="Node000021" class="node">
<title>Node21</title>
<g id="a_Node000021"><a xlink:href="class_fiea_1_1_engine_1_1_content_1_1_attributed.html#a2bf121c3108ae47b421b831a88b19a49" target="_top" xlink:title="Checks if a given key is an instance attribute.">
<polygon fill="white" stroke="#666666" points="475.88,-332 323.38,-332 323.38,-300 475.88,-300 475.88,-332"/>
<text xml:space="preserve" text-anchor="start" x="331.38" y="-318.5" font-family="Helvetica,sans-Serif" font-size="10.00">Fiea::Engine::Content</text>
<text xml:space="preserve" text-anchor="middle" x="399.62" y="-306.5" font-family="Helvetica,sans-Serif" font-size="10.00">::Attributed::IsInstanceAttribute</text>
</a>
</g>
</g>
<!-- Node19&#45;&gt;Node21 -->
<g id="edge27_Node000019_Node000021" class="edge">
<title>Node19&#45;&gt;Node21</title>
<g id="a_edge27_Node000019_Node000021"><a xlink:title=" ">
<path fill="none" stroke="#63b8ff" d="M526.79,-316C510.08,-316 492.54,-316 476.03,-316"/>
<polygon fill="#63b8ff" stroke="#63b8ff" points="526.69,-319.5 536.69,-316 526.69,-312.5 526.69,-319.5"/>
</a>
</g>
</g>
<!-- Node20&#45;&gt;Node16 -->
<g id="edge25_Node000020_Node000016" class="edge">
<title>Node20&#45;&gt;Node16</title>
<g id="a_edge25_Node000020_Node000016"><a xlink:title=" ">
<path fill="none" stroke="#63b8ff" d="M176.28,-251.68C143.87,-279.79 96.39,-320.96 70.3,-343.59"/>
<polygon fill="#63b8ff" stroke="#63b8ff" points="178.17,-254.67 183.44,-245.47 173.59,-249.38 178.17,-254.67"/>
</a>
</g>
</g>
<!-- Node20&#45;&gt;Node17 -->
<g id="edge26_Node000020_Node000017" class="edge">
<title>Node20&#45;&gt;Node17</title>
<g id="a_edge26_Node000020_Node000017"><a xlink:title=" ">
<path fill="none" stroke="#63b8ff" d="M130.3,-247.2C120.26,-250.35 110.24,-253.5 100.87,-256.45"/>
<polygon fill="#63b8ff" stroke="#63b8ff" points="131.23,-250.58 139.72,-244.24 129.14,-243.9 131.23,-250.58"/>
</a>
</g>
</g>
<!-- Node21&#45;&gt;Node16 -->
<g id="edge29_Node000021_Node000016" class="edge">
<title>Node21&#45;&gt;Node16</title>
<g id="a_edge29_Node000021_Node000016"><a xlink:title=" ">
<path fill="none" stroke="#63b8ff" d="M320.8,-334.77C309.27,-337.13 297.48,-339.3 286.25,-341 222.74,-350.59 148.79,-355.56 101.09,-357.97"/>
<polygon fill="#63b8ff" stroke="#63b8ff" points="321.22,-338.26 330.28,-332.78 319.77,-331.41 321.22,-338.26"/>
</a>
</g>
</g>
<!-- Node21&#45;&gt;Node17 -->
<g id="edge30_Node000021_Node000017" class="edge">
<title>Node21&#45;&gt;Node17</title>
<g id="a_edge30_Node000021_Node000017"><a xlink:title=" ">
<path fill="none" stroke="#63b8ff" d="M320.8,-297.23C309.27,-294.87 297.48,-292.7 286.25,-291 222.74,-281.41 148.79,-276.44 101.09,-274.03"/>
<polygon fill="#63b8ff" stroke="#63b8ff" points="319.77,-300.59 330.28,-299.22 321.22,-293.74 319.77,-300.59"/>
</a>
</g>
</g>
<!-- Node21&#45;&gt;Node18 -->
<g id="edge28_Node000021_Node000018" class="edge">
<title>Node21&#45;&gt;Node18</title>
<g id="a_edge28_Node000021_Node000018"><a xlink:title=" ">
<path fill="none" stroke="#63b8ff" d="M311.6,-316C303.25,-316 294.84,-316 286.63,-316"/>
<polygon fill="#63b8ff" stroke="#63b8ff" points="311.41,-319.5 321.41,-316 311.41,-312.5 311.41,-319.5"/>
</a>
</g>
</g>
</g>
</svg>
