<?xml version="1.0" encoding="UTF-8" standalone="no"?>
<!DOCTYPE svg PUBLIC "-//W3C//DTD SVG 1.1//EN"
 "http://www.w3.org/Graphics/SVG/1.1/DTD/svg11.dtd">
<!-- Generated by graphviz version 13.1.0 (20250701.0955)
 -->
<!-- Title: Fiea::Engine::Actions::ActionTimed::ActionTimed Pages: 1 -->
<svg width="892pt" height="220pt"
 viewBox="0.00 0.00 892.00 220.00" xmlns="http://www.w3.org/2000/svg" xmlns:xlink="http://www.w3.org/1999/xlink">
<g id="graph0" class="graph" transform="scale(1 1) rotate(0) translate(4 216)">
<title>Fiea::Engine::Actions::ActionTimed::ActionTimed</title>
<!-- Node1 -->
<g id="Node000001" class="node">
<title>Node1</title>
<g id="a_Node000001"><a xlink:title=" ">
<polygon fill="#999999" stroke="#666666" points="137.5,-122 0,-122 0,-90 137.5,-90 137.5,-122"/>
<text xml:space="preserve" text-anchor="start" x="8" y="-108.5" font-family="Helvetica,sans-Serif" font-size="10.00">Fiea::Engine::Actions</text>
<text xml:space="preserve" text-anchor="middle" x="68.75" y="-96.5" font-family="Helvetica,sans-Serif" font-size="10.00">::ActionTimed::ActionTimed</text>
</a>
</g>
</g>
<!-- Node2 -->
<g id="Node000002" class="node">
<title>Node2</title>
<g id="a_Node000002"><a xlink:href="class_fiea_1_1_engine_1_1_actions_1_1_action_list.html#a77dc15425d13d1d10482ec9e97d923fb" target="_top" xlink:title=" ">
<polygon fill="white" stroke="#666666" points="288.5,-144 173.5,-144 173.5,-112 288.5,-112 288.5,-144"/>
<text xml:space="preserve" text-anchor="start" x="181.5" y="-130.5" font-family="Helvetica,sans-Serif" font-size="10.00">Fiea::Engine::Actions</text>
<text xml:space="preserve" text-anchor="middle" x="231" y="-118.5" font-family="Helvetica,sans-Serif" font-size="10.00">::ActionList::ActionList</text>
</a>
</g>
</g>
<!-- Node1&#45;&gt;Node2 -->
<g id="edge1_Node000001_Node000002" class="edge">
<title>Node1&#45;&gt;Node2</title>
<g id="a_edge1_Node000001_Node000002"><a xlink:title=" ">
<path fill="none" stroke="#63b8ff" d="M137.71,-115.33C145.71,-116.43 153.88,-117.55 161.88,-118.65"/>
<polygon fill="#63b8ff" stroke="#63b8ff" points="161.17,-122.08 171.55,-119.98 162.12,-115.15 161.17,-122.08"/>
</a>
</g>
</g>
<!-- Node5 -->
<g id="Node000005" class="node">
<title>Node5</title>
<g id="a_Node000005"><a xlink:href="class_fiea_1_1_engine_1_1_r_t_t_i.html#a876bebbe7b3149483c43a87f55f4ea99" target="_top" xlink:title=" ">
<polygon fill="white" stroke="#666666" points="575.5,-126 477,-126 477,-94 575.5,-94 575.5,-126"/>
<text xml:space="preserve" text-anchor="start" x="485" y="-112.5" font-family="Helvetica,sans-Serif" font-size="10.00">Fiea::Engine::RTTI</text>
<text xml:space="preserve" text-anchor="middle" x="526.25" y="-100.5" font-family="Helvetica,sans-Serif" font-size="10.00">::TypeIdInstance</text>
</a>
</g>
</g>
<!-- Node1&#45;&gt;Node5 -->
<g id="edge16_Node000001_Node000005" class="edge">
<title>Node1&#45;&gt;Node5</title>
<g id="a_edge16_Node000001_Node000005"><a xlink:title=" ">
<path fill="none" stroke="#63b8ff" d="M137.83,-103.75C149.72,-103.44 161.97,-103.17 173.5,-103 224.61,-102.26 237.39,-102.24 288.5,-103 348.7,-103.89 417.49,-106.05 465.35,-107.74"/>
<polygon fill="#63b8ff" stroke="#63b8ff" points="465.11,-111.23 475.23,-108.09 465.36,-104.24 465.11,-111.23"/>
</a>
</g>
</g>
<!-- Node3 -->
<g id="Node000003" class="node">
<title>Node3</title>
<g id="a_Node000003"><a xlink:href="class_fiea_1_1_engine_1_1_actions_1_1_action.html#ae2af386f7122152003b00da79393e19e" target="_top" xlink:title=" ">
<polygon fill="white" stroke="#666666" points="434.25,-182 324.5,-182 324.5,-150 434.25,-150 434.25,-182"/>
<text xml:space="preserve" text-anchor="start" x="332.5" y="-168.5" font-family="Helvetica,sans-Serif" font-size="10.00">Fiea::Engine::Actions</text>
<text xml:space="preserve" text-anchor="middle" x="379.38" y="-156.5" font-family="Helvetica,sans-Serif" font-size="10.00">::Action::Action</text>
</a>
</g>
</g>
<!-- Node2&#45;&gt;Node3 -->
<g id="edge2_Node000002_Node000003" class="edge">
<title>Node2&#45;&gt;Node3</title>
<g id="a_edge2_Node000002_Node000003"><a xlink:title=" ">
<path fill="none" stroke="#63b8ff" d="M288.59,-142.69C296.67,-144.79 305.03,-146.96 313.25,-149.09"/>
<polygon fill="#63b8ff" stroke="#63b8ff" points="312.31,-152.47 322.87,-151.59 314.07,-145.69 312.31,-152.47"/>
</a>
</g>
</g>
<!-- Node2&#45;&gt;Node5 -->
<g id="edge15_Node000002_Node000005" class="edge">
<title>Node2&#45;&gt;Node5</title>
<g id="a_edge15_Node000002_Node000005"><a xlink:title=" ">
<path fill="none" stroke="#63b8ff" d="M288.89,-124.51C339.68,-121.39 413.81,-116.84 465.47,-113.67"/>
<polygon fill="#63b8ff" stroke="#63b8ff" points="465.5,-117.17 475.27,-113.07 465.07,-110.19 465.5,-117.17"/>
</a>
</g>
</g>
<!-- Node4 -->
<g id="Node000004" class="node">
<title>Node4</title>
<g id="a_Node000004"><a xlink:href="class_fiea_1_1_engine_1_1_content_1_1_attributed.html#ad1ae014235d9d8b62b36066c94164148" target="_top" xlink:title=" ">
<polygon fill="white" stroke="#666666" points="582.25,-194 470.25,-194 470.25,-162 582.25,-162 582.25,-194"/>
<text xml:space="preserve" text-anchor="start" x="478.25" y="-180.5" font-family="Helvetica,sans-Serif" font-size="10.00">Fiea::Engine::Content</text>
<text xml:space="preserve" text-anchor="middle" x="526.25" y="-168.5" font-family="Helvetica,sans-Serif" font-size="10.00">::Attributed::Attributed</text>
</a>
</g>
</g>
<!-- Node3&#45;&gt;Node4 -->
<g id="edge3_Node000003_Node000004" class="edge">
<title>Node3&#45;&gt;Node4</title>
<g id="a_edge3_Node000003_Node000004"><a xlink:title=" ">
<path fill="none" stroke="#63b8ff" d="M434.73,-170.5C442.59,-171.15 450.75,-171.83 458.82,-172.5"/>
<polygon fill="#63b8ff" stroke="#63b8ff" points="458.34,-175.97 468.6,-173.31 458.92,-168.99 458.34,-175.97"/>
</a>
</g>
</g>
<!-- Node3&#45;&gt;Node5 -->
<g id="edge5_Node000003_Node000005" class="edge">
<title>Node3&#45;&gt;Node5</title>
<g id="a_edge5_Node000003_Node000005"><a xlink:title=" ">
<path fill="none" stroke="#63b8ff" d="M423.06,-149.5C438.53,-143.52 456.2,-136.69 472.44,-130.41"/>
<polygon fill="#63b8ff" stroke="#63b8ff" points="473.39,-133.8 481.46,-126.93 470.87,-127.27 473.39,-133.8"/>
</a>
</g>
</g>
<!-- Node4&#45;&gt;Node4 -->
<g id="edge4_Node000004_Node000004" class="edge">
<title>Node4&#45;&gt;Node4</title>
<g id="a_edge4_Node000004_Node000004"><a xlink:title=" ">
<path fill="none" stroke="#63b8ff" d="M500.03,-194.44C495.13,-203.58 503.87,-212 526.25,-212 538.49,-212 546.65,-209.48 550.73,-205.71"/>
<polygon fill="#63b8ff" stroke="#63b8ff" points="554.17,-206.36 552.24,-195.94 547.25,-205.28 554.17,-206.36"/>
</a>
</g>
</g>
<!-- Node5&#45;&gt;Node5 -->
<g id="edge14_Node000005_Node000005" class="edge">
<title>Node5&#45;&gt;Node5</title>
<g id="a_edge14_Node000005_Node000005"><a xlink:title=" ">
<path fill="none" stroke="#63b8ff" d="M500.03,-126.44C495.13,-135.58 503.87,-144 526.25,-144 538.49,-144 546.65,-141.48 550.73,-137.71"/>
<polygon fill="#63b8ff" stroke="#63b8ff" points="554.17,-138.36 552.24,-127.94 547.25,-137.28 554.17,-138.36"/>
</a>
</g>
</g>
<!-- Node6 -->
<g id="Node000006" class="node">
<title>Node6</title>
<g id="a_Node000006"><a xlink:href="class_fiea_1_1_engine_1_1_r_t_t_i.html#a15bd5993c8ad04da47af440298ebbb30" target="_top" xlink:title=" ">
<polygon fill="white" stroke="#666666" points="734.75,-158 618.25,-158 618.25,-138 734.75,-138 734.75,-158"/>
<text xml:space="preserve" text-anchor="middle" x="676.5" y="-144.5" font-family="Helvetica,sans-Serif" font-size="10.00">Fiea::Engine::RTTI::As</text>
</a>
</g>
</g>
<!-- Node5&#45;&gt;Node6 -->
<g id="edge6_Node000005_Node000006" class="edge">
<title>Node5&#45;&gt;Node6</title>
<g id="a_edge6_Node000005_Node000006"><a xlink:title=" ">
<path fill="none" stroke="#63b8ff" d="M575.79,-122.44C591.15,-126.38 608.18,-130.74 623.75,-134.74"/>
<polygon fill="#63b8ff" stroke="#63b8ff" points="622.77,-138.1 633.32,-137.19 624.5,-131.32 622.77,-138.1"/>
</a>
</g>
</g>
<!-- Node7 -->
<g id="Node000007" class="node">
<title>Node7</title>
<g id="a_Node000007"><a xlink:href="class_fiea_1_1_engine_1_1_r_t_t_i.html#ac0a7d875e4513b2aca7594abcd4418ef" target="_top" xlink:title=" ">
<polygon fill="white" stroke="#666666" points="883.5,-180 770.75,-180 770.75,-160 883.5,-160 883.5,-180"/>
<text xml:space="preserve" text-anchor="middle" x="827.12" y="-166.5" font-family="Helvetica,sans-Serif" font-size="10.00">Fiea::Engine::RTTI::Is</text>
</a>
</g>
</g>
<!-- Node5&#45;&gt;Node7 -->
<g id="edge11_Node000005_Node000007" class="edge">
<title>Node5&#45;&gt;Node7</title>
<g id="a_edge11_Node000005_Node000007"><a xlink:title=" ">
<path fill="none" stroke="#63b8ff" d="M546.3,-126.34C563.73,-140.14 590.89,-158.93 618.25,-167 663.97,-180.5 717.85,-180.86 759.3,-178.06"/>
<polygon fill="#63b8ff" stroke="#63b8ff" points="759.43,-181.56 769.13,-177.31 758.89,-174.58 759.43,-181.56"/>
</a>
</g>
</g>
<!-- Node8 -->
<g id="Node000008" class="node">
<title>Node8</title>
<g id="a_Node000008"><a xlink:href="class_fiea_1_1_engine_1_1_r_t_t_i.html#a13000029a2e6cced30b831e466e07cae" target="_top" xlink:title=" ">
<polygon fill="white" stroke="#666666" points="876.38,-126 777.88,-126 777.88,-94 876.38,-94 876.38,-126"/>
<text xml:space="preserve" text-anchor="start" x="785.88" y="-112.5" font-family="Helvetica,sans-Serif" font-size="10.00">Fiea::Engine::RTTI</text>
<text xml:space="preserve" text-anchor="middle" x="827.12" y="-100.5" font-family="Helvetica,sans-Serif" font-size="10.00">::RTTI</text>
</a>
</g>
</g>
<!-- Node5&#45;&gt;Node8 -->
<g id="edge12_Node000005_Node000008" class="edge">
<title>Node5&#45;&gt;Node8</title>
<g id="a_edge12_Node000005_Node000008"><a xlink:title=" ">
<path fill="none" stroke="#63b8ff" d="M575.93,-110C627.82,-110 710.04,-110 765.95,-110"/>
<polygon fill="#63b8ff" stroke="#63b8ff" points="765.95,-113.5 775.95,-110 765.95,-106.5 765.95,-113.5"/>
</a>
</g>
</g>
<!-- Node9 -->
<g id="Node000009" class="node">
<title>Node9</title>
<g id="a_Node000009"><a xlink:href="class_fiea_1_1_engine_1_1_r_t_t_i.html#a7f70ad5ba0f8a3388543d63d72892575" target="_top" xlink:title=" ">
<polygon fill="white" stroke="#666666" points="725.75,-82 627.25,-82 627.25,-50 725.75,-50 725.75,-82"/>
<text xml:space="preserve" text-anchor="start" x="635.25" y="-68.5" font-family="Helvetica,sans-Serif" font-size="10.00">Fiea::Engine::RTTI</text>
<text xml:space="preserve" text-anchor="middle" x="676.5" y="-56.5" font-family="Helvetica,sans-Serif" font-size="10.00">::Equals</text>
</a>
</g>
</g>
<!-- Node5&#45;&gt;Node9 -->
<g id="edge9_Node000005_Node000009" class="edge">
<title>Node5&#45;&gt;Node9</title>
<g id="a_edge9_Node000005_Node000009"><a xlink:title=" ">
<path fill="none" stroke="#63b8ff" d="M575.79,-95.59C588.59,-91.79 602.55,-87.65 615.86,-83.7"/>
<polygon fill="#63b8ff" stroke="#63b8ff" points="616.81,-87.07 625.4,-80.87 614.81,-80.36 616.81,-87.07"/>
</a>
</g>
</g>
<!-- Node10 -->
<g id="Node000010" class="node">
<title>Node10</title>
<g id="a_Node000010"><a xlink:href="class_fiea_1_1_engine_1_1_r_t_t_i.html#a43a7d187e332a17d2c699bc2c8136a30" target="_top" xlink:title=" ">
<polygon fill="white" stroke="#666666" points="725.75,-32 627.25,-32 627.25,0 725.75,0 725.75,-32"/>
<text xml:space="preserve" text-anchor="start" x="635.25" y="-18.5" font-family="Helvetica,sans-Serif" font-size="10.00">Fiea::Engine::RTTI</text>
<text xml:space="preserve" text-anchor="middle" x="676.5" y="-6.5" font-family="Helvetica,sans-Serif" font-size="10.00">::ToString</text>
</a>
</g>
</g>
<!-- Node5&#45;&gt;Node10 -->
<g id="edge13_Node000005_Node000010" class="edge">
<title>Node5&#45;&gt;Node10</title>
<g id="a_edge13_Node000005_Node000010"><a xlink:title=" ">
<path fill="none" stroke="#63b8ff" d="M546.19,-93.51C563.97,-78.56 591.74,-56.54 618.25,-41 620.26,-39.82 622.34,-38.66 624.45,-37.53"/>
<polygon fill="#63b8ff" stroke="#63b8ff" points="625.84,-40.75 633.21,-33.13 622.7,-34.5 625.84,-40.75"/>
</a>
</g>
</g>
<!-- Node6&#45;&gt;Node7 -->
<g id="edge7_Node000006_Node000007" class="edge">
<title>Node6&#45;&gt;Node7</title>
<g id="a_edge7_Node000006_Node000007"><a xlink:title=" ">
<path fill="none" stroke="#63b8ff" d="M734.96,-156.51C742.85,-157.67 751,-158.88 759.03,-160.07"/>
<polygon fill="#63b8ff" stroke="#63b8ff" points="758.38,-163.51 768.78,-161.51 759.41,-156.59 758.38,-163.51"/>
</a>
</g>
</g>
<!-- Node6&#45;&gt;Node8 -->
<g id="edge8_Node000006_Node000008" class="edge">
<title>Node6&#45;&gt;Node8</title>
<g id="a_edge8_Node000006_Node000008"><a xlink:title=" ">
<path fill="none" stroke="#63b8ff" d="M718.51,-137.52C733.38,-133.71 750.49,-129.34 766.63,-125.21"/>
<polygon fill="#63b8ff" stroke="#63b8ff" points="767.32,-128.65 776.14,-122.78 765.59,-121.87 767.32,-128.65"/>
</a>
</g>
</g>
<!-- Node9&#45;&gt;Node8 -->
<g id="edge10_Node000009_Node000008" class="edge">
<title>Node9&#45;&gt;Node8</title>
<g id="a_edge10_Node000009_Node000008"><a xlink:title=" ">
<path fill="none" stroke="#63b8ff" d="M726.17,-80.41C739.19,-84.26 753.42,-88.47 766.94,-92.48"/>
<polygon fill="#63b8ff" stroke="#63b8ff" points="765.57,-95.72 776.15,-95.21 767.56,-89.01 765.57,-95.72"/>
</a>
</g>
</g>
</g>
</svg>
