<?xml version="1.0" encoding="UTF-8" standalone="no"?>
<!DOCTYPE svg PUBLIC "-//W3C//DTD SVG 1.1//EN"
 "http://www.w3.org/Graphics/SVG/1.1/DTD/svg11.dtd">
<!-- Generated by graphviz version 13.1.0 (20250701.0955)
 -->
<!-- Title: Fiea::Engine::Actions::ActionDelayed::ActionDelayed Pages: 1 -->
<svg width="910pt" height="220pt"
 viewBox="0.00 0.00 910.00 220.00" xmlns="http://www.w3.org/2000/svg" xmlns:xlink="http://www.w3.org/1999/xlink">
<g id="graph0" class="graph" transform="scale(1 1) rotate(0) translate(4 216)">
<title>Fiea::Engine::Actions::ActionDelayed::ActionDelayed</title>
<!-- Node1 -->
<g id="Node000001" class="node">
<title>Node1</title>
<g id="a_Node000001"><a xlink:title=" ">
<polygon fill="#999999" stroke="#666666" points="155.5,-122 0,-122 0,-90 155.5,-90 155.5,-122"/>
<text xml:space="preserve" text-anchor="start" x="8" y="-108.5" font-family="Helvetica,sans-Serif" font-size="10.00">Fiea::Engine::Actions</text>
<text xml:space="preserve" text-anchor="middle" x="77.75" y="-96.5" font-family="Helvetica,sans-Serif" font-size="10.00">::ActionDelayed::ActionDelayed</text>
</a>
</g>
</g>
<!-- Node2 -->
<g id="Node000002" class="node">
<title>Node2</title>
<g id="a_Node000002"><a xlink:href="class_fiea_1_1_engine_1_1_actions_1_1_action_list.html#a77dc15425d13d1d10482ec9e97d923fb" target="_top" xlink:title=" ">
<polygon fill="white" stroke="#666666" points="306.5,-144 191.5,-144 191.5,-112 306.5,-112 306.5,-144"/>
<text xml:space="preserve" text-anchor="start" x="199.5" y="-130.5" font-family="Helvetica,sans-Serif" font-size="10.00">Fiea::Engine::Actions</text>
<text xml:space="preserve" text-anchor="middle" x="249" y="-118.5" font-family="Helvetica,sans-Serif" font-size="10.00">::ActionList::ActionList</text>
</a>
</g>
</g>
<!-- Node1&#45;&gt;Node2 -->
<g id="edge1_Node000001_Node000002" class="edge">
<title>Node1&#45;&gt;Node2</title>
<g id="a_edge1_Node000001_Node000002"><a xlink:title=" ">
<path fill="none" stroke="#63b8ff" d="M155.95,-116.03C163.91,-117.07 171.97,-118.12 179.83,-119.14"/>
<polygon fill="#63b8ff" stroke="#63b8ff" points="179.3,-122.6 189.66,-120.42 180.2,-115.66 179.3,-122.6"/>
</a>
</g>
</g>
<!-- Node5 -->
<g id="Node000005" class="node">
<title>Node5</title>
<g id="a_Node000005"><a xlink:href="class_fiea_1_1_engine_1_1_r_t_t_i.html#a876bebbe7b3149483c43a87f55f4ea99" target="_top" xlink:title=" ">
<polygon fill="white" stroke="#666666" points="593.5,-126 495,-126 495,-94 593.5,-94 593.5,-126"/>
<text xml:space="preserve" text-anchor="start" x="503" y="-112.5" font-family="Helvetica,sans-Serif" font-size="10.00">Fiea::Engine::RTTI</text>
<text xml:space="preserve" text-anchor="middle" x="544.25" y="-100.5" font-family="Helvetica,sans-Serif" font-size="10.00">::TypeIdInstance</text>
</a>
</g>
</g>
<!-- Node1&#45;&gt;Node5 -->
<g id="edge16_Node000001_Node000005" class="edge">
<title>Node1&#45;&gt;Node5</title>
<g id="a_edge16_Node000001_Node000005"><a xlink:title=" ">
<path fill="none" stroke="#63b8ff" d="M155.77,-103.68C167.73,-103.4 179.95,-103.15 191.5,-103 242.61,-102.32 255.39,-102.24 306.5,-103 366.7,-103.89 435.49,-106.05 483.35,-107.74"/>
<polygon fill="#63b8ff" stroke="#63b8ff" points="483.11,-111.23 493.23,-108.09 483.36,-104.24 483.11,-111.23"/>
</a>
</g>
</g>
<!-- Node3 -->
<g id="Node000003" class="node">
<title>Node3</title>
<g id="a_Node000003"><a xlink:href="class_fiea_1_1_engine_1_1_actions_1_1_action.html#ae2af386f7122152003b00da79393e19e" target="_top" xlink:title=" ">
<polygon fill="white" stroke="#666666" points="452.25,-182 342.5,-182 342.5,-150 452.25,-150 452.25,-182"/>
<text xml:space="preserve" text-anchor="start" x="350.5" y="-168.5" font-family="Helvetica,sans-Serif" font-size="10.00">Fiea::Engine::Actions</text>
<text xml:space="preserve" text-anchor="middle" x="397.38" y="-156.5" font-family="Helvetica,sans-Serif" font-size="10.00">::Action::Action</text>
</a>
</g>
</g>
<!-- Node2&#45;&gt;Node3 -->
<g id="edge2_Node000002_Node000003" class="edge">
<title>Node2&#45;&gt;Node3</title>
<g id="a_edge2_Node000002_Node000003"><a xlink:title=" ">
<path fill="none" stroke="#63b8ff" d="M306.59,-142.69C314.67,-144.79 323.03,-146.96 331.25,-149.09"/>
<polygon fill="#63b8ff" stroke="#63b8ff" points="330.31,-152.47 340.87,-151.59 332.07,-145.69 330.31,-152.47"/>
</a>
</g>
</g>
<!-- Node2&#45;&gt;Node5 -->
<g id="edge15_Node000002_Node000005" class="edge">
<title>Node2&#45;&gt;Node5</title>
<g id="a_edge15_Node000002_Node000005"><a xlink:title=" ">
<path fill="none" stroke="#63b8ff" d="M306.89,-124.51C357.68,-121.39 431.81,-116.84 483.47,-113.67"/>
<polygon fill="#63b8ff" stroke="#63b8ff" points="483.5,-117.17 493.27,-113.07 483.07,-110.19 483.5,-117.17"/>
</a>
</g>
</g>
<!-- Node4 -->
<g id="Node000004" class="node">
<title>Node4</title>
<g id="a_Node000004"><a xlink:href="class_fiea_1_1_engine_1_1_content_1_1_attributed.html#ad1ae014235d9d8b62b36066c94164148" target="_top" xlink:title=" ">
<polygon fill="white" stroke="#666666" points="600.25,-194 488.25,-194 488.25,-162 600.25,-162 600.25,-194"/>
<text xml:space="preserve" text-anchor="start" x="496.25" y="-180.5" font-family="Helvetica,sans-Serif" font-size="10.00">Fiea::Engine::Content</text>
<text xml:space="preserve" text-anchor="middle" x="544.25" y="-168.5" font-family="Helvetica,sans-Serif" font-size="10.00">::Attributed::Attributed</text>
</a>
</g>
</g>
<!-- Node3&#45;&gt;Node4 -->
<g id="edge3_Node000003_Node000004" class="edge">
<title>Node3&#45;&gt;Node4</title>
<g id="a_edge3_Node000003_Node000004"><a xlink:title=" ">
<path fill="none" stroke="#63b8ff" d="M452.73,-170.5C460.59,-171.15 468.75,-171.83 476.82,-172.5"/>
<polygon fill="#63b8ff" stroke="#63b8ff" points="476.34,-175.97 486.6,-173.31 476.92,-168.99 476.34,-175.97"/>
</a>
</g>
</g>
<!-- Node3&#45;&gt;Node5 -->
<g id="edge5_Node000003_Node000005" class="edge">
<title>Node3&#45;&gt;Node5</title>
<g id="a_edge5_Node000003_Node000005"><a xlink:title=" ">
<path fill="none" stroke="#63b8ff" d="M441.06,-149.5C456.53,-143.52 474.2,-136.69 490.44,-130.41"/>
<polygon fill="#63b8ff" stroke="#63b8ff" points="491.39,-133.8 499.46,-126.93 488.87,-127.27 491.39,-133.8"/>
</a>
</g>
</g>
<!-- Node4&#45;&gt;Node4 -->
<g id="edge4_Node000004_Node000004" class="edge">
<title>Node4&#45;&gt;Node4</title>
<g id="a_edge4_Node000004_Node000004"><a xlink:title=" ">
<path fill="none" stroke="#63b8ff" d="M518.03,-194.44C513.13,-203.58 521.87,-212 544.25,-212 556.49,-212 564.65,-209.48 568.73,-205.71"/>
<polygon fill="#63b8ff" stroke="#63b8ff" points="572.17,-206.36 570.24,-195.94 565.25,-205.28 572.17,-206.36"/>
</a>
</g>
</g>
<!-- Node5&#45;&gt;Node5 -->
<g id="edge14_Node000005_Node000005" class="edge">
<title>Node5&#45;&gt;Node5</title>
<g id="a_edge14_Node000005_Node000005"><a xlink:title=" ">
<path fill="none" stroke="#63b8ff" d="M518.03,-126.44C513.13,-135.58 521.87,-144 544.25,-144 556.49,-144 564.65,-141.48 568.73,-137.71"/>
<polygon fill="#63b8ff" stroke="#63b8ff" points="572.17,-138.36 570.24,-127.94 565.25,-137.28 572.17,-138.36"/>
</a>
</g>
</g>
<!-- Node6 -->
<g id="Node000006" class="node">
<title>Node6</title>
<g id="a_Node000006"><a xlink:href="class_fiea_1_1_engine_1_1_r_t_t_i.html#a15bd5993c8ad04da47af440298ebbb30" target="_top" xlink:title=" ">
<polygon fill="white" stroke="#666666" points="752.75,-158 636.25,-158 636.25,-138 752.75,-138 752.75,-158"/>
<text xml:space="preserve" text-anchor="middle" x="694.5" y="-144.5" font-family="Helvetica,sans-Serif" font-size="10.00">Fiea::Engine::RTTI::As</text>
</a>
</g>
</g>
<!-- Node5&#45;&gt;Node6 -->
<g id="edge6_Node000005_Node000006" class="edge">
<title>Node5&#45;&gt;Node6</title>
<g id="a_edge6_Node000005_Node000006"><a xlink:title=" ">
<path fill="none" stroke="#63b8ff" d="M593.79,-122.44C609.15,-126.38 626.18,-130.74 641.75,-134.74"/>
<polygon fill="#63b8ff" stroke="#63b8ff" points="640.77,-138.1 651.32,-137.19 642.5,-131.32 640.77,-138.1"/>
</a>
</g>
</g>
<!-- Node7 -->
<g id="Node000007" class="node">
<title>Node7</title>
<g id="a_Node000007"><a xlink:href="class_fiea_1_1_engine_1_1_r_t_t_i.html#ac0a7d875e4513b2aca7594abcd4418ef" target="_top" xlink:title=" ">
<polygon fill="white" stroke="#666666" points="901.5,-180 788.75,-180 788.75,-160 901.5,-160 901.5,-180"/>
<text xml:space="preserve" text-anchor="middle" x="845.12" y="-166.5" font-family="Helvetica,sans-Serif" font-size="10.00">Fiea::Engine::RTTI::Is</text>
</a>
</g>
</g>
<!-- Node5&#45;&gt;Node7 -->
<g id="edge11_Node000005_Node000007" class="edge">
<title>Node5&#45;&gt;Node7</title>
<g id="a_edge11_Node000005_Node000007"><a xlink:title=" ">
<path fill="none" stroke="#63b8ff" d="M564.3,-126.34C581.73,-140.14 608.89,-158.93 636.25,-167 681.97,-180.5 735.85,-180.86 777.3,-178.06"/>
<polygon fill="#63b8ff" stroke="#63b8ff" points="777.43,-181.56 787.13,-177.31 776.89,-174.58 777.43,-181.56"/>
</a>
</g>
</g>
<!-- Node8 -->
<g id="Node000008" class="node">
<title>Node8</title>
<g id="a_Node000008"><a xlink:href="class_fiea_1_1_engine_1_1_r_t_t_i.html#a13000029a2e6cced30b831e466e07cae" target="_top" xlink:title=" ">
<polygon fill="white" stroke="#666666" points="894.38,-126 795.88,-126 795.88,-94 894.38,-94 894.38,-126"/>
<text xml:space="preserve" text-anchor="start" x="803.88" y="-112.5" font-family="Helvetica,sans-Serif" font-size="10.00">Fiea::Engine::RTTI</text>
<text xml:space="preserve" text-anchor="middle" x="845.12" y="-100.5" font-family="Helvetica,sans-Serif" font-size="10.00">::RTTI</text>
</a>
</g>
</g>
<!-- Node5&#45;&gt;Node8 -->
<g id="edge12_Node000005_Node000008" class="edge">
<title>Node5&#45;&gt;Node8</title>
<g id="a_edge12_Node000005_Node000008"><a xlink:title=" ">
<path fill="none" stroke="#63b8ff" d="M593.93,-110C645.82,-110 728.04,-110 783.95,-110"/>
<polygon fill="#63b8ff" stroke="#63b8ff" points="783.95,-113.5 793.95,-110 783.95,-106.5 783.95,-113.5"/>
</a>
</g>
</g>
<!-- Node9 -->
<g id="Node000009" class="node">
<title>Node9</title>
<g id="a_Node000009"><a xlink:href="class_fiea_1_1_engine_1_1_r_t_t_i.html#a7f70ad5ba0f8a3388543d63d72892575" target="_top" xlink:title=" ">
<polygon fill="white" stroke="#666666" points="743.75,-82 645.25,-82 645.25,-50 743.75,-50 743.75,-82"/>
<text xml:space="preserve" text-anchor="start" x="653.25" y="-68.5" font-family="Helvetica,sans-Serif" font-size="10.00">Fiea::Engine::RTTI</text>
<text xml:space="preserve" text-anchor="middle" x="694.5" y="-56.5" font-family="Helvetica,sans-Serif" font-size="10.00">::Equals</text>
</a>
</g>
</g>
<!-- Node5&#45;&gt;Node9 -->
<g id="edge9_Node000005_Node000009" class="edge">
<title>Node5&#45;&gt;Node9</title>
<g id="a_edge9_Node000005_Node000009"><a xlink:title=" ">
<path fill="none" stroke="#63b8ff" d="M593.79,-95.59C606.59,-91.79 620.55,-87.65 633.86,-83.7"/>
<polygon fill="#63b8ff" stroke="#63b8ff" points="634.81,-87.07 643.4,-80.87 632.81,-80.36 634.81,-87.07"/>
</a>
</g>
</g>
<!-- Node10 -->
<g id="Node000010" class="node">
<title>Node10</title>
<g id="a_Node000010"><a xlink:href="class_fiea_1_1_engine_1_1_r_t_t_i.html#a43a7d187e332a17d2c699bc2c8136a30" target="_top" xlink:title=" ">
<polygon fill="white" stroke="#666666" points="743.75,-32 645.25,-32 645.25,0 743.75,0 743.75,-32"/>
<text xml:space="preserve" text-anchor="start" x="653.25" y="-18.5" font-family="Helvetica,sans-Serif" font-size="10.00">Fiea::Engine::RTTI</text>
<text xml:space="preserve" text-anchor="middle" x="694.5" y="-6.5" font-family="Helvetica,sans-Serif" font-size="10.00">::ToString</text>
</a>
</g>
</g>
<!-- Node5&#45;&gt;Node10 -->
<g id="edge13_Node000005_Node000010" class="edge">
<title>Node5&#45;&gt;Node10</title>
<g id="a_edge13_Node000005_Node000010"><a xlink:title=" ">
<path fill="none" stroke="#63b8ff" d="M564.19,-93.51C581.97,-78.56 609.74,-56.54 636.25,-41 638.26,-39.82 640.34,-38.66 642.45,-37.53"/>
<polygon fill="#63b8ff" stroke="#63b8ff" points="643.84,-40.75 651.21,-33.13 640.7,-34.5 643.84,-40.75"/>
</a>
</g>
</g>
<!-- Node6&#45;&gt;Node7 -->
<g id="edge7_Node000006_Node000007" class="edge">
<title>Node6&#45;&gt;Node7</title>
<g id="a_edge7_Node000006_Node000007"><a xlink:title=" ">
<path fill="none" stroke="#63b8ff" d="M752.96,-156.51C760.85,-157.67 769,-158.88 777.03,-160.07"/>
<polygon fill="#63b8ff" stroke="#63b8ff" points="776.38,-163.51 786.78,-161.51 777.41,-156.59 776.38,-163.51"/>
</a>
</g>
</g>
<!-- Node6&#45;&gt;Node8 -->
<g id="edge8_Node000006_Node000008" class="edge">
<title>Node6&#45;&gt;Node8</title>
<g id="a_edge8_Node000006_Node000008"><a xlink:title=" ">
<path fill="none" stroke="#63b8ff" d="M736.51,-137.52C751.38,-133.71 768.49,-129.34 784.63,-125.21"/>
<polygon fill="#63b8ff" stroke="#63b8ff" points="785.32,-128.65 794.14,-122.78 783.59,-121.87 785.32,-128.65"/>
</a>
</g>
</g>
<!-- Node9&#45;&gt;Node8 -->
<g id="edge10_Node000009_Node000008" class="edge">
<title>Node9&#45;&gt;Node8</title>
<g id="a_edge10_Node000009_Node000008"><a xlink:title=" ">
<path fill="none" stroke="#63b8ff" d="M744.17,-80.41C757.19,-84.26 771.42,-88.47 784.94,-92.48"/>
<polygon fill="#63b8ff" stroke="#63b8ff" points="783.57,-95.72 794.15,-95.21 785.56,-89.01 783.57,-95.72"/>
</a>
</g>
</g>
</g>
</svg>
