<?xml version="1.0" encoding="UTF-8" standalone="no"?>
<!DOCTYPE svg PUBLIC "-//W3C//DTD SVG 1.1//EN"
 "http://www.w3.org/Graphics/SVG/1.1/DTD/svg11.dtd">
<!-- Generated by graphviz version 13.1.0 (20250701.0955)
 -->
<!-- Title: Fiea::Engine::Content::ScopeWriter::AddPrimitiveType Pages: 1 -->
<svg width="637pt" height="278pt"
 viewBox="0.00 0.00 637.00 278.00" xmlns="http://www.w3.org/2000/svg" xmlns:xlink="http://www.w3.org/1999/xlink">
<g id="graph0" class="graph" transform="scale(1 1) rotate(0) translate(4 274)">
<title>Fiea::Engine::Content::ScopeWriter::AddPrimitiveType</title>
<!-- Node1 -->
<g id="Node000001" class="node">
<title>Node1</title>
<g id="a_Node000001"><a xlink:title=" ">
<polygon fill="#999999" stroke="#666666" points="157.75,-148 0,-148 0,-116 157.75,-116 157.75,-148"/>
<text xml:space="preserve" text-anchor="start" x="8" y="-134.5" font-family="Helvetica,sans-Serif" font-size="10.00">Fiea::Engine::Content</text>
<text xml:space="preserve" text-anchor="middle" x="78.88" y="-122.5" font-family="Helvetica,sans-Serif" font-size="10.00">::ScopeWriter::AddPrimitiveType</text>
</a>
</g>
</g>
<!-- Node2 -->
<g id="Node000002" class="node">
<title>Node2</title>
<g id="a_Node000002"><a xlink:href="class_fiea_1_1_engine_1_1_content_1_1_scope.html#aa91d6470fd3d3f402bbb2e765be54455" target="_top" xlink:title="Appends a new Datum with the given key.">
<polygon fill="white" stroke="#666666" points="319.62,-270 208.38,-270 208.38,-238 319.62,-238 319.62,-270"/>
<text xml:space="preserve" text-anchor="start" x="216.38" y="-256.5" font-family="Helvetica,sans-Serif" font-size="10.00">Fiea::Engine::Content</text>
<text xml:space="preserve" text-anchor="middle" x="264" y="-244.5" font-family="Helvetica,sans-Serif" font-size="10.00">::Scope::Append</text>
</a>
</g>
</g>
<!-- Node1&#45;&gt;Node2 -->
<g id="edge1_Node000001_Node000002" class="edge">
<title>Node1&#45;&gt;Node2</title>
<g id="a_edge1_Node000001_Node000002"><a xlink:title=" ">
<path fill="none" stroke="#63b8ff" d="M95.41,-148.5C116.11,-169.65 154.67,-206.31 193.75,-229 196.04,-230.33 198.4,-231.6 200.82,-232.83"/>
<polygon fill="#63b8ff" stroke="#63b8ff" points="199.1,-235.88 209.64,-236.93 202.05,-229.54 199.1,-235.88"/>
</a>
</g>
</g>
<!-- Node3 -->
<g id="Node000003" class="node">
<title>Node3</title>
<g id="a_Node000003"><a xlink:href="class_fiea_1_1_engine_1_1_content_1_1_scope_writer.html#afcb6b54b66a06b4d43edbeb27a191cfa" target="_top" xlink:title=" ">
<polygon fill="white" stroke="#666666" points="334.25,-220 193.75,-220 193.75,-188 334.25,-188 334.25,-220"/>
<text xml:space="preserve" text-anchor="start" x="201.75" y="-206.5" font-family="Helvetica,sans-Serif" font-size="10.00">Fiea::Engine::Content</text>
<text xml:space="preserve" text-anchor="middle" x="264" y="-194.5" font-family="Helvetica,sans-Serif" font-size="10.00">::ScopeWriter::GetTopScope</text>
</a>
</g>
</g>
<!-- Node1&#45;&gt;Node3 -->
<g id="edge2_Node000001_Node000003" class="edge">
<title>Node1&#45;&gt;Node3</title>
<g id="a_edge2_Node000001_Node000003"><a xlink:title=" ">
<path fill="none" stroke="#63b8ff" d="M118.44,-148.42C140.41,-157.65 168.52,-169.24 193.75,-179 197.79,-180.56 201.98,-182.15 206.2,-183.73"/>
<polygon fill="#63b8ff" stroke="#63b8ff" points="204.69,-186.9 215.28,-187.09 207.12,-180.34 204.69,-186.9"/>
</a>
</g>
</g>
<!-- Node4 -->
<g id="Node000004" class="node">
<title>Node4</title>
<g id="a_Node000004"><a xlink:href="class_fiea_1_1_engine_1_1_content_1_1_datum.html#acb3ba55fc9b39b876cf3334d0305f4fc" target="_top" xlink:title=" ">
<polygon fill="white" stroke="#666666" points="319.62,-170 208.38,-170 208.38,-138 319.62,-138 319.62,-170"/>
<text xml:space="preserve" text-anchor="start" x="216.38" y="-156.5" font-family="Helvetica,sans-Serif" font-size="10.00">Fiea::Engine::Content</text>
<text xml:space="preserve" text-anchor="middle" x="264" y="-144.5" font-family="Helvetica,sans-Serif" font-size="10.00">::Datum::Push</text>
</a>
</g>
</g>
<!-- Node1&#45;&gt;Node4 -->
<g id="edge3_Node000001_Node000004" class="edge">
<title>Node1&#45;&gt;Node4</title>
<g id="a_edge3_Node000001_Node000004"><a xlink:title=" ">
<path fill="none" stroke="#63b8ff" d="M158.07,-141.39C170.94,-142.94 184.18,-144.53 196.73,-146.04"/>
<polygon fill="#63b8ff" stroke="#63b8ff" points="196.18,-149.5 206.53,-147.22 197.02,-142.55 196.18,-149.5"/>
</a>
</g>
</g>
<!-- Node7 -->
<g id="Node000007" class="node">
<title>Node7</title>
<g id="a_Node000007"><a xlink:href="class_fiea_1_1_engine_1_1_content_1_1_datum.html#af8ca5539cfa1034703824207a4368a04" target="_top" xlink:title=" ">
<polygon fill="white" stroke="#666666" points="481.5,-126 370.25,-126 370.25,-94 481.5,-94 481.5,-126"/>
<text xml:space="preserve" text-anchor="start" x="378.25" y="-112.5" font-family="Helvetica,sans-Serif" font-size="10.00">Fiea::Engine::Content</text>
<text xml:space="preserve" text-anchor="middle" x="425.88" y="-100.5" font-family="Helvetica,sans-Serif" font-size="10.00">::Datum::Set</text>
</a>
</g>
</g>
<!-- Node1&#45;&gt;Node7 -->
<g id="edge8_Node000001_Node000007" class="edge">
<title>Node1&#45;&gt;Node7</title>
<g id="a_edge8_Node000001_Node000007"><a xlink:title=" ">
<path fill="none" stroke="#63b8ff" d="M158.16,-127.01C218.61,-123.15 301.32,-117.88 358.54,-114.23"/>
<polygon fill="#63b8ff" stroke="#63b8ff" points="358.72,-117.73 368.47,-113.6 358.27,-110.74 358.72,-117.73"/>
</a>
</g>
</g>
<!-- Node8 -->
<g id="Node000008" class="node">
<title>Node8</title>
<g id="a_Node000008"><a xlink:href="class_fiea_1_1_engine_1_1_content_1_1_datum.html#a23d1f16d9646f024a5dee1f05dbd5a5e" target="_top" xlink:title=" ">
<polygon fill="white" stroke="#666666" points="319.62,-82 208.38,-82 208.38,-50 319.62,-50 319.62,-82"/>
<text xml:space="preserve" text-anchor="start" x="216.38" y="-68.5" font-family="Helvetica,sans-Serif" font-size="10.00">Fiea::Engine::Content</text>
<text xml:space="preserve" text-anchor="middle" x="264" y="-56.5" font-family="Helvetica,sans-Serif" font-size="10.00">::Datum::SetType</text>
</a>
</g>
</g>
<!-- Node1&#45;&gt;Node8 -->
<g id="edge10_Node000001_Node000008" class="edge">
<title>Node1&#45;&gt;Node8</title>
<g id="a_edge10_Node000001_Node000008"><a xlink:title=" ">
<path fill="none" stroke="#63b8ff" d="M125.61,-115.52C150.29,-106.62 180.94,-95.57 207.03,-86.17"/>
<polygon fill="#63b8ff" stroke="#63b8ff" points="207.88,-89.59 216.1,-82.9 205.51,-83 207.88,-89.59"/>
</a>
</g>
</g>
<!-- Node9 -->
<g id="Node000009" class="node">
<title>Node9</title>
<g id="a_Node000009"><a xlink:href="class_fiea_1_1_engine_1_1_content_1_1_datum.html#acae68c3bc8b20345e4c3790fa37bd8d5" target="_top" xlink:title=" ">
<polygon fill="white" stroke="#666666" points="319.62,-32 208.38,-32 208.38,0 319.62,0 319.62,-32"/>
<text xml:space="preserve" text-anchor="start" x="216.38" y="-18.5" font-family="Helvetica,sans-Serif" font-size="10.00">Fiea::Engine::Content</text>
<text xml:space="preserve" text-anchor="middle" x="264" y="-6.5" font-family="Helvetica,sans-Serif" font-size="10.00">::Datum::Size</text>
</a>
</g>
</g>
<!-- Node1&#45;&gt;Node9 -->
<g id="edge11_Node000001_Node000009" class="edge">
<title>Node1&#45;&gt;Node9</title>
<g id="a_edge11_Node000001_Node000009"><a xlink:title=" ">
<path fill="none" stroke="#63b8ff" d="M96.71,-115.56C117.87,-95.64 155.99,-62.14 193.75,-41 196.1,-39.68 198.54,-38.41 201.03,-37.19"/>
<polygon fill="#63b8ff" stroke="#63b8ff" points="202.44,-40.39 210.1,-33.07 199.55,-34.02 202.44,-40.39"/>
</a>
</g>
</g>
<!-- Node5 -->
<g id="Node000005" class="node">
<title>Node5</title>
<g id="a_Node000005"><a xlink:href="class_fiea_1_1_engine_1_1_content_1_1_datum.html#a818f812e4489e57885c88951bc0601b3" target="_top" xlink:title=" ">
<polygon fill="white" stroke="#666666" points="481.5,-214 370.25,-214 370.25,-182 481.5,-182 481.5,-214"/>
<text xml:space="preserve" text-anchor="start" x="378.25" y="-200.5" font-family="Helvetica,sans-Serif" font-size="10.00">Fiea::Engine::Content</text>
<text xml:space="preserve" text-anchor="middle" x="425.88" y="-188.5" font-family="Helvetica,sans-Serif" font-size="10.00">::Datum::ResizeArray</text>
</a>
</g>
</g>
<!-- Node4&#45;&gt;Node5 -->
<g id="edge4_Node000004_Node000005" class="edge">
<title>Node4&#45;&gt;Node5</title>
<g id="a_edge4_Node000004_Node000005"><a xlink:title=" ">
<path fill="none" stroke="#63b8ff" d="M320.02,-169.14C332.58,-172.6 346.05,-176.31 359.02,-179.87"/>
<polygon fill="#63b8ff" stroke="#63b8ff" points="357.72,-183.15 368.29,-182.43 359.58,-176.4 357.72,-183.15"/>
</a>
</g>
</g>
<!-- Node6 -->
<g id="Node000006" class="node">
<title>Node6</title>
<g id="a_Node000006"><a xlink:href="class_fiea_1_1_engine_1_1_content_1_1_datum.html#a921193447f6e42f596ac0a7694b02830" target="_top" xlink:title=" ">
<polygon fill="white" stroke="#666666" points="628.75,-170 517.5,-170 517.5,-138 628.75,-138 628.75,-170"/>
<text xml:space="preserve" text-anchor="start" x="525.5" y="-156.5" font-family="Helvetica,sans-Serif" font-size="10.00">Fiea::Engine::Content</text>
<text xml:space="preserve" text-anchor="middle" x="573.12" y="-144.5" font-family="Helvetica,sans-Serif" font-size="10.00">::Datum::Scope</text>
</a>
</g>
</g>
<!-- Node4&#45;&gt;Node6 -->
<g id="edge7_Node000004_Node000006" class="edge">
<title>Node4&#45;&gt;Node6</title>
<g id="a_edge7_Node000004_Node000006"><a xlink:title=" ">
<path fill="none" stroke="#63b8ff" d="M319.91,-154C371.94,-154 450.17,-154 505.69,-154"/>
<polygon fill="#63b8ff" stroke="#63b8ff" points="505.66,-157.5 515.66,-154 505.66,-150.5 505.66,-157.5"/>
</a>
</g>
</g>
<!-- Node5&#45;&gt;Node6 -->
<g id="edge5_Node000005_Node000006" class="edge">
<title>Node5&#45;&gt;Node6</title>
<g id="a_edge5_Node000005_Node000006"><a xlink:title=" ">
<path fill="none" stroke="#63b8ff" d="M480.96,-181.62C489.47,-179.04 498.34,-176.35 507.06,-173.71"/>
<polygon fill="#63b8ff" stroke="#63b8ff" points="507.99,-177.09 516.55,-170.84 505.96,-170.39 507.99,-177.09"/>
</a>
</g>
</g>
<!-- Node6&#45;&gt;Node6 -->
<g id="edge6_Node000006_Node000006" class="edge">
<title>Node6&#45;&gt;Node6</title>
<g id="a_edge6_Node000006_Node000006"><a xlink:title=" ">
<path fill="none" stroke="#63b8ff" d="M546.84,-170.44C541.93,-179.58 550.69,-188 573.12,-188 585.39,-188 593.57,-185.48 597.66,-181.71"/>
<polygon fill="#63b8ff" stroke="#63b8ff" points="601.1,-182.36 599.18,-171.94 594.19,-181.28 601.1,-182.36"/>
</a>
</g>
</g>
<!-- Node7&#45;&gt;Node6 -->
<g id="edge9_Node000007_Node000006" class="edge">
<title>Node7&#45;&gt;Node6</title>
<g id="a_edge9_Node000007_Node000006"><a xlink:title=" ">
<path fill="none" stroke="#63b8ff" d="M480.96,-126.38C489.47,-128.96 498.34,-131.65 507.06,-134.29"/>
<polygon fill="#63b8ff" stroke="#63b8ff" points="505.96,-137.61 516.55,-137.16 507.99,-130.91 505.96,-137.61"/>
</a>
</g>
</g>
</g>
</svg>
