<?xml version="1.0" encoding="UTF-8" standalone="no"?>
<!DOCTYPE svg PUBLIC "-//W3C//DTD SVG 1.1//EN"
 "http://www.w3.org/Graphics/SVG/1.1/DTD/svg11.dtd">
<!-- Generated by graphviz version 13.1.0 (20250701.0955)
 -->
<!-- Title: Fiea::Engine::Actions::ActionList::RunAction Pages: 1 -->
<svg width="729pt" height="358pt"
 viewBox="0.00 0.00 729.00 358.00" xmlns="http://www.w3.org/2000/svg" xmlns:xlink="http://www.w3.org/1999/xlink">
<g id="graph0" class="graph" transform="scale(1 1) rotate(0) translate(4 354.2)">
<title>Fiea::Engine::Actions::ActionList::RunAction</title>
<!-- Node1 -->
<g id="Node000001" class="node">
<title>Node1</title>
<g id="a_Node000001"><a xlink:title=" ">
<polygon fill="#999999" stroke="#666666" points="117.25,-207 0,-207 0,-175 117.25,-175 117.25,-207"/>
<text xml:space="preserve" text-anchor="start" x="8" y="-193.5" font-family="Helvetica,sans-Serif" font-size="10.00">Fiea::Engine::Actions</text>
<text xml:space="preserve" text-anchor="middle" x="58.62" y="-181.5" font-family="Helvetica,sans-Serif" font-size="10.00">::ActionList::RunAction</text>
</a>
</g>
</g>
<!-- Node2 -->
<g id="Node000002" class="node">
<title>Node2</title>
<g id="a_Node000002"><a xlink:href="class_fiea_1_1_engine_1_1_actions_1_1_action.html#ae2af386f7122152003b00da79393e19e" target="_top" xlink:title=" ">
<polygon fill="white" stroke="#666666" points="263.75,-282 154,-282 154,-250 263.75,-250 263.75,-282"/>
<text xml:space="preserve" text-anchor="start" x="162" y="-268.5" font-family="Helvetica,sans-Serif" font-size="10.00">Fiea::Engine::Actions</text>
<text xml:space="preserve" text-anchor="middle" x="208.88" y="-256.5" font-family="Helvetica,sans-Serif" font-size="10.00">::Action::Action</text>
</a>
</g>
</g>
<!-- Node1&#45;&gt;Node2 -->
<g id="edge1_Node000001_Node000002" class="edge">
<title>Node1&#45;&gt;Node2</title>
<g id="a_edge1_Node000001_Node000002"><a xlink:title=" ">
<path fill="none" stroke="#63b8ff" d="M89.32,-207.46C107.61,-217.44 131.62,-230.29 153.25,-241 155.79,-242.26 158.4,-243.53 161.04,-244.79"/>
<polygon fill="#63b8ff" stroke="#63b8ff" points="159.39,-247.88 169.92,-248.99 162.38,-241.55 159.39,-247.88"/>
</a>
</g>
</g>
<!-- Node5 -->
<g id="Node000005" class="node">
<title>Node5</title>
<g id="a_Node000005"><a xlink:href="class_fiea_1_1_engine_1_1_r_t_t_i.html#a15bd5993c8ad04da47af440298ebbb30" target="_top" xlink:title=" ">
<polygon fill="white" stroke="#666666" points="572.5,-342 456,-342 456,-322 572.5,-322 572.5,-342"/>
<text xml:space="preserve" text-anchor="middle" x="514.25" y="-328.5" font-family="Helvetica,sans-Serif" font-size="10.00">Fiea::Engine::RTTI::As</text>
</a>
</g>
</g>
<!-- Node1&#45;&gt;Node5 -->
<g id="edge14_Node000001_Node000005" class="edge">
<title>Node1&#45;&gt;Node5</title>
<g id="a_edge14_Node000001_Node000005"><a xlink:title=" ">
<path fill="none" stroke="#63b8ff" d="M71.12,-207.42C87.19,-229.29 118.35,-267.89 153.25,-291 211.37,-329.49 231.87,-332.81 300.5,-345 349.06,-353.62 404.72,-349.74 446.93,-344.04"/>
<polygon fill="#63b8ff" stroke="#63b8ff" points="447.28,-347.53 456.69,-342.65 446.29,-340.6 447.28,-347.53"/>
</a>
</g>
</g>
<!-- Node10 -->
<g id="Node000010" class="node">
<title>Node10</title>
<g id="a_Node000010"><a xlink:href="class_fiea_1_1_engine_1_1_content_1_1_scope.html#ad924c01785b239991fc0e56a63295612" target="_top" xlink:title="Finds a Datum by key.">
<polygon fill="white" stroke="#666666" points="264.5,-232 153.25,-232 153.25,-200 264.5,-200 264.5,-232"/>
<text xml:space="preserve" text-anchor="start" x="161.25" y="-218.5" font-family="Helvetica,sans-Serif" font-size="10.00">Fiea::Engine::Content</text>
<text xml:space="preserve" text-anchor="middle" x="208.88" y="-206.5" font-family="Helvetica,sans-Serif" font-size="10.00">::Scope::Find</text>
</a>
</g>
</g>
<!-- Node1&#45;&gt;Node10 -->
<g id="edge15_Node000001_Node000010" class="edge">
<title>Node1&#45;&gt;Node10</title>
<g id="a_edge15_Node000001_Node000010"><a xlink:title=" ">
<path fill="none" stroke="#63b8ff" d="M117.37,-200.74C125.32,-202.08 133.55,-203.47 141.64,-204.83"/>
<polygon fill="#63b8ff" stroke="#63b8ff" points="141.03,-208.28 151.47,-206.49 142.19,-201.37 141.03,-208.28"/>
</a>
</g>
</g>
<!-- Node11 -->
<g id="Node000011" class="node">
<title>Node11</title>
<g id="a_Node000011"><a xlink:href="class_fiea_1_1_engine_1_1_content_1_1_datum.html#a7f92976f27f407987cf287a2f7017e04" target="_top" xlink:title=" ">
<polygon fill="white" stroke="#666666" points="264.5,-182 153.25,-182 153.25,-150 264.5,-150 264.5,-182"/>
<text xml:space="preserve" text-anchor="start" x="161.25" y="-168.5" font-family="Helvetica,sans-Serif" font-size="10.00">Fiea::Engine::Content</text>
<text xml:space="preserve" text-anchor="middle" x="208.88" y="-156.5" font-family="Helvetica,sans-Serif" font-size="10.00">::Datum::GetAsTable</text>
</a>
</g>
</g>
<!-- Node1&#45;&gt;Node11 -->
<g id="edge16_Node000001_Node000011" class="edge">
<title>Node1&#45;&gt;Node11</title>
<g id="a_edge16_Node000001_Node000011"><a xlink:title=" ">
<path fill="none" stroke="#63b8ff" d="M117.37,-181.26C125.32,-179.92 133.55,-178.53 141.64,-177.17"/>
<polygon fill="#63b8ff" stroke="#63b8ff" points="142.19,-180.63 151.47,-175.51 141.03,-173.72 142.19,-180.63"/>
</a>
</g>
</g>
<!-- Node13 -->
<g id="Node000013" class="node">
<title>Node13</title>
<g id="a_Node000013"><a xlink:href="class_fiea_1_1_engine_1_1_content_1_1_datum.html#acae68c3bc8b20345e4c3790fa37bd8d5" target="_top" xlink:title=" ">
<polygon fill="white" stroke="#666666" points="264.5,-132 153.25,-132 153.25,-100 264.5,-100 264.5,-132"/>
<text xml:space="preserve" text-anchor="start" x="161.25" y="-118.5" font-family="Helvetica,sans-Serif" font-size="10.00">Fiea::Engine::Content</text>
<text xml:space="preserve" text-anchor="middle" x="208.88" y="-106.5" font-family="Helvetica,sans-Serif" font-size="10.00">::Datum::Size</text>
</a>
</g>
</g>
<!-- Node1&#45;&gt;Node13 -->
<g id="edge19_Node000001_Node000013" class="edge">
<title>Node1&#45;&gt;Node13</title>
<g id="a_edge19_Node000001_Node000013"><a xlink:title=" ">
<path fill="none" stroke="#63b8ff" d="M89.32,-174.54C107.61,-164.56 131.62,-151.71 153.25,-141 155.79,-139.74 158.4,-138.47 161.04,-137.21"/>
<polygon fill="#63b8ff" stroke="#63b8ff" points="162.38,-140.45 169.92,-133.01 159.39,-134.12 162.38,-140.45"/>
</a>
</g>
</g>
<!-- Node14 -->
<g id="Node000014" class="node">
<title>Node14</title>
<g id="a_Node000014"><a xlink:href="class_fiea_1_1_engine_1_1_actions_1_1_action.html#abea83b3796a80d29394f644634477d7b" target="_top" xlink:title=" ">
<polygon fill="white" stroke="#666666" points="263.75,-82 154,-82 154,-50 263.75,-50 263.75,-82"/>
<text xml:space="preserve" text-anchor="start" x="162" y="-68.5" font-family="Helvetica,sans-Serif" font-size="10.00">Fiea::Engine::Actions</text>
<text xml:space="preserve" text-anchor="middle" x="208.88" y="-56.5" font-family="Helvetica,sans-Serif" font-size="10.00">::Action::Update</text>
</a>
</g>
</g>
<!-- Node1&#45;&gt;Node14 -->
<g id="edge20_Node000001_Node000014" class="edge">
<title>Node1&#45;&gt;Node14</title>
<g id="a_edge20_Node000001_Node000014"><a xlink:title=" ">
<path fill="none" stroke="#63b8ff" d="M71.67,-174.6C88.12,-153.11 119.47,-115.31 153.25,-91 154.6,-90.03 155.99,-89.08 157.42,-88.16"/>
<polygon fill="#63b8ff" stroke="#63b8ff" points="159.02,-91.28 165.89,-83.21 155.49,-85.23 159.02,-91.28"/>
</a>
</g>
</g>
<!-- Node3 -->
<g id="Node000003" class="node">
<title>Node3</title>
<g id="a_Node000003"><a xlink:href="class_fiea_1_1_engine_1_1_content_1_1_attributed.html#ad1ae014235d9d8b62b36066c94164148" target="_top" xlink:title=" ">
<polygon fill="white" stroke="#666666" points="416.25,-318 304.25,-318 304.25,-286 416.25,-286 416.25,-318"/>
<text xml:space="preserve" text-anchor="start" x="312.25" y="-304.5" font-family="Helvetica,sans-Serif" font-size="10.00">Fiea::Engine::Content</text>
<text xml:space="preserve" text-anchor="middle" x="360.25" y="-292.5" font-family="Helvetica,sans-Serif" font-size="10.00">::Attributed::Attributed</text>
</a>
</g>
</g>
<!-- Node2&#45;&gt;Node3 -->
<g id="edge2_Node000002_Node000003" class="edge">
<title>Node2&#45;&gt;Node3</title>
<g id="a_edge2_Node000002_Node000003"><a xlink:title=" ">
<path fill="none" stroke="#63b8ff" d="M264.23,-279.1C273.52,-281.34 283.27,-283.69 292.83,-285.99"/>
<polygon fill="#63b8ff" stroke="#63b8ff" points="291.92,-289.37 302.47,-288.31 293.56,-282.57 291.92,-289.37"/>
</a>
</g>
</g>
<!-- Node4 -->
<g id="Node000004" class="node">
<title>Node4</title>
<g id="a_Node000004"><a xlink:href="class_fiea_1_1_engine_1_1_r_t_t_i.html#a876bebbe7b3149483c43a87f55f4ea99" target="_top" xlink:title=" ">
<polygon fill="white" stroke="#666666" points="409.5,-250 311,-250 311,-218 409.5,-218 409.5,-250"/>
<text xml:space="preserve" text-anchor="start" x="319" y="-236.5" font-family="Helvetica,sans-Serif" font-size="10.00">Fiea::Engine::RTTI</text>
<text xml:space="preserve" text-anchor="middle" x="360.25" y="-224.5" font-family="Helvetica,sans-Serif" font-size="10.00">::TypeIdInstance</text>
</a>
</g>
</g>
<!-- Node2&#45;&gt;Node4 -->
<g id="edge4_Node000002_Node000004" class="edge">
<title>Node2&#45;&gt;Node4</title>
<g id="a_edge4_Node000002_Node000004"><a xlink:title=" ">
<path fill="none" stroke="#63b8ff" d="M264.23,-254.36C275.73,-251.89 287.93,-249.28 299.62,-246.77"/>
<polygon fill="#63b8ff" stroke="#63b8ff" points="300.11,-250.25 309.15,-244.73 298.64,-243.4 300.11,-250.25"/>
</a>
</g>
</g>
<!-- Node3&#45;&gt;Node3 -->
<g id="edge3_Node000003_Node000003" class="edge">
<title>Node3&#45;&gt;Node3</title>
<g id="a_edge3_Node000003_Node000003"><a xlink:title=" ">
<path fill="none" stroke="#63b8ff" d="M333.23,-318.44C328.18,-327.58 337.19,-336 360.25,-336 372.86,-336 381.27,-333.48 385.48,-329.71"/>
<polygon fill="#63b8ff" stroke="#63b8ff" points="388.92,-330.36 387.04,-319.94 382,-329.26 388.92,-330.36"/>
</a>
</g>
</g>
<!-- Node4&#45;&gt;Node4 -->
<g id="edge13_Node000004_Node000004" class="edge">
<title>Node4&#45;&gt;Node4</title>
<g id="a_edge13_Node000004_Node000004"><a xlink:title=" ">
<path fill="none" stroke="#63b8ff" d="M333.23,-250.44C328.18,-259.58 337.19,-268 360.25,-268 372.86,-268 381.27,-265.48 385.48,-261.71"/>
<polygon fill="#63b8ff" stroke="#63b8ff" points="388.92,-262.36 387.04,-251.94 382,-261.26 388.92,-262.36"/>
</a>
</g>
</g>
<!-- Node4&#45;&gt;Node5 -->
<g id="edge5_Node000004_Node000005" class="edge">
<title>Node4&#45;&gt;Node5</title>
<g id="a_edge5_Node000004_Node000005"><a xlink:title=" ">
<path fill="none" stroke="#63b8ff" d="M384.44,-250.33C395.38,-258.2 408.52,-267.88 420,-277 436.53,-290.13 438.04,-296.89 456,-308 461.33,-311.3 467.19,-314.33 473.06,-317.06"/>
<polygon fill="#63b8ff" stroke="#63b8ff" points="471.59,-320.23 482.16,-321.01 474.38,-313.81 471.59,-320.23"/>
</a>
</g>
</g>
<!-- Node6 -->
<g id="Node000006" class="node">
<title>Node6</title>
<g id="a_Node000006"><a xlink:href="class_fiea_1_1_engine_1_1_r_t_t_i.html#ac0a7d875e4513b2aca7594abcd4418ef" target="_top" xlink:title=" ">
<polygon fill="white" stroke="#666666" points="721.25,-326 608.5,-326 608.5,-306 721.25,-306 721.25,-326"/>
<text xml:space="preserve" text-anchor="middle" x="664.88" y="-312.5" font-family="Helvetica,sans-Serif" font-size="10.00">Fiea::Engine::RTTI::Is</text>
</a>
</g>
</g>
<!-- Node4&#45;&gt;Node6 -->
<g id="edge10_Node000004_Node000006" class="edge">
<title>Node4&#45;&gt;Node6</title>
<g id="a_edge10_Node000004_Node000006"><a xlink:title=" ">
<path fill="none" stroke="#63b8ff" d="M409.87,-247.17C466.1,-262.41 558.17,-287.36 614.65,-302.66"/>
<polygon fill="#63b8ff" stroke="#63b8ff" points="613.43,-305.96 623.99,-305.19 615.26,-299.2 613.43,-305.96"/>
</a>
</g>
</g>
<!-- Node7 -->
<g id="Node000007" class="node">
<title>Node7</title>
<g id="a_Node000007"><a xlink:href="class_fiea_1_1_engine_1_1_r_t_t_i.html#a13000029a2e6cced30b831e466e07cae" target="_top" xlink:title=" ">
<polygon fill="white" stroke="#666666" points="714.12,-272 615.62,-272 615.62,-240 714.12,-240 714.12,-272"/>
<text xml:space="preserve" text-anchor="start" x="623.62" y="-258.5" font-family="Helvetica,sans-Serif" font-size="10.00">Fiea::Engine::RTTI</text>
<text xml:space="preserve" text-anchor="middle" x="664.88" y="-246.5" font-family="Helvetica,sans-Serif" font-size="10.00">::RTTI</text>
</a>
</g>
</g>
<!-- Node4&#45;&gt;Node7 -->
<g id="edge11_Node000004_Node000007" class="edge">
<title>Node4&#45;&gt;Node7</title>
<g id="a_edge11_Node000004_Node000007"><a xlink:title=" ">
<path fill="none" stroke="#63b8ff" d="M409.87,-237.53C462.71,-241.38 547.16,-247.52 604.03,-251.65"/>
<polygon fill="#63b8ff" stroke="#63b8ff" points="603.64,-255.13 613.86,-252.36 604.14,-248.15 603.64,-255.13"/>
</a>
</g>
</g>
<!-- Node8 -->
<g id="Node000008" class="node">
<title>Node8</title>
<g id="a_Node000008"><a xlink:href="class_fiea_1_1_engine_1_1_r_t_t_i.html#a7f70ad5ba0f8a3388543d63d72892575" target="_top" xlink:title=" ">
<polygon fill="white" stroke="#666666" points="563.5,-228 465,-228 465,-196 563.5,-196 563.5,-228"/>
<text xml:space="preserve" text-anchor="start" x="473" y="-214.5" font-family="Helvetica,sans-Serif" font-size="10.00">Fiea::Engine::RTTI</text>
<text xml:space="preserve" text-anchor="middle" x="514.25" y="-202.5" font-family="Helvetica,sans-Serif" font-size="10.00">::Equals</text>
</a>
</g>
</g>
<!-- Node4&#45;&gt;Node8 -->
<g id="edge8_Node000004_Node000008" class="edge">
<title>Node4&#45;&gt;Node8</title>
<g id="a_edge8_Node000004_Node000008"><a xlink:title=" ">
<path fill="none" stroke="#63b8ff" d="M409.76,-226.98C423.61,-224.97 438.87,-222.77 453.31,-220.68"/>
<polygon fill="#63b8ff" stroke="#63b8ff" points="453.78,-224.14 463.18,-219.25 452.78,-217.22 453.78,-224.14"/>
</a>
</g>
</g>
<!-- Node9 -->
<g id="Node000009" class="node">
<title>Node9</title>
<g id="a_Node000009"><a xlink:href="class_fiea_1_1_engine_1_1_r_t_t_i.html#a43a7d187e332a17d2c699bc2c8136a30" target="_top" xlink:title=" ">
<polygon fill="white" stroke="#666666" points="563.5,-178 465,-178 465,-146 563.5,-146 563.5,-178"/>
<text xml:space="preserve" text-anchor="start" x="473" y="-164.5" font-family="Helvetica,sans-Serif" font-size="10.00">Fiea::Engine::RTTI</text>
<text xml:space="preserve" text-anchor="middle" x="514.25" y="-152.5" font-family="Helvetica,sans-Serif" font-size="10.00">::ToString</text>
</a>
</g>
</g>
<!-- Node4&#45;&gt;Node9 -->
<g id="edge12_Node000004_Node000009" class="edge">
<title>Node4&#45;&gt;Node9</title>
<g id="a_edge12_Node000004_Node000009"><a xlink:title=" ">
<path fill="none" stroke="#63b8ff" d="M402.06,-217.55C408.14,-214.84 414.28,-211.94 420,-209 436.67,-200.42 439.37,-195.66 456,-187 458.48,-185.71 461.05,-184.42 463.65,-183.15"/>
<polygon fill="#63b8ff" stroke="#63b8ff" points="464.87,-186.44 472.43,-179.02 461.9,-180.11 464.87,-186.44"/>
</a>
</g>
</g>
<!-- Node5&#45;&gt;Node6 -->
<g id="edge6_Node000005_Node000006" class="edge">
<title>Node5&#45;&gt;Node6</title>
<g id="a_edge6_Node000005_Node000006"><a xlink:title=" ">
<path fill="none" stroke="#63b8ff" d="M572.71,-325.81C580.6,-324.97 588.75,-324.09 596.78,-323.22"/>
<polygon fill="#63b8ff" stroke="#63b8ff" points="596.96,-326.72 606.53,-322.17 596.21,-319.76 596.96,-326.72"/>
</a>
</g>
</g>
<!-- Node5&#45;&gt;Node7 -->
<g id="edge7_Node000005_Node000007" class="edge">
<title>Node5&#45;&gt;Node7</title>
<g id="a_edge7_Node000005_Node000007"><a xlink:title=" ">
<path fill="none" stroke="#63b8ff" d="M535.6,-321.59C557.7,-310.3 593.59,-291.94 621.8,-277.52"/>
<polygon fill="#63b8ff" stroke="#63b8ff" points="623.15,-280.76 630.46,-273.09 619.96,-274.53 623.15,-280.76"/>
</a>
</g>
</g>
<!-- Node8&#45;&gt;Node7 -->
<g id="edge9_Node000008_Node000007" class="edge">
<title>Node8&#45;&gt;Node7</title>
<g id="a_edge9_Node000008_Node000007"><a xlink:title=" ">
<path fill="none" stroke="#63b8ff" d="M563.92,-226.41C576.94,-230.26 591.17,-234.47 604.69,-238.48"/>
<polygon fill="#63b8ff" stroke="#63b8ff" points="603.32,-241.72 613.9,-241.21 605.31,-235.01 603.32,-241.72"/>
</a>
</g>
</g>
<!-- Node12 -->
<g id="Node000012" class="node">
<title>Node12</title>
<g id="a_Node000012"><a xlink:href="class_fiea_1_1_engine_1_1_content_1_1_datum.html#a921193447f6e42f596ac0a7694b02830" target="_top" xlink:title=" ">
<polygon fill="white" stroke="#666666" points="415.88,-182 304.62,-182 304.62,-150 415.88,-150 415.88,-182"/>
<text xml:space="preserve" text-anchor="start" x="312.62" y="-168.5" font-family="Helvetica,sans-Serif" font-size="10.00">Fiea::Engine::Content</text>
<text xml:space="preserve" text-anchor="middle" x="360.25" y="-156.5" font-family="Helvetica,sans-Serif" font-size="10.00">::Datum::Scope</text>
</a>
</g>
</g>
<!-- Node11&#45;&gt;Node12 -->
<g id="edge17_Node000011_Node000012" class="edge">
<title>Node11&#45;&gt;Node12</title>
<g id="a_edge17_Node000011_Node000012"><a xlink:title=" ">
<path fill="none" stroke="#63b8ff" d="M264.65,-166C273.82,-166 283.43,-166 292.86,-166"/>
<polygon fill="#63b8ff" stroke="#63b8ff" points="292.72,-169.5 302.72,-166 292.72,-162.5 292.72,-169.5"/>
</a>
</g>
</g>
<!-- Node12&#45;&gt;Node12 -->
<g id="edge18_Node000012_Node000012" class="edge">
<title>Node12&#45;&gt;Node12</title>
<g id="a_edge18_Node000012_Node000012"><a xlink:title=" ">
<path fill="none" stroke="#63b8ff" d="M333.23,-182.44C328.18,-191.58 337.19,-200 360.25,-200 372.86,-200 381.27,-197.48 385.48,-193.71"/>
<polygon fill="#63b8ff" stroke="#63b8ff" points="388.92,-194.36 387.04,-183.94 382,-193.26 388.92,-194.36"/>
</a>
</g>
</g>
<!-- Node15 -->
<g id="Node000015" class="node">
<title>Node15</title>
<g id="a_Node000015"><a xlink:href="class_fiea_1_1_engine_1_1_actions_1_1_action.html#aca4c38723b265f3c4e6013bb8916b376" target="_top" xlink:title=" ">
<polygon fill="white" stroke="#666666" points="420,-132 300.5,-132 300.5,-100 420,-100 420,-132"/>
<text xml:space="preserve" text-anchor="start" x="308.5" y="-118.5" font-family="Helvetica,sans-Serif" font-size="10.00">Fiea::Engine::Actions</text>
<text xml:space="preserve" text-anchor="middle" x="360.25" y="-106.5" font-family="Helvetica,sans-Serif" font-size="10.00">::Action::CleanupAction</text>
</a>
</g>
</g>
<!-- Node14&#45;&gt;Node15 -->
<g id="edge21_Node000014_Node000015" class="edge">
<title>Node14&#45;&gt;Node15</title>
<g id="a_edge21_Node000014_Node000015"><a xlink:title=" ">
<path fill="none" stroke="#63b8ff" d="M258.79,-82.37C271.74,-86.71 285.88,-91.44 299.35,-95.95"/>
<polygon fill="#63b8ff" stroke="#63b8ff" points="297.94,-99.17 308.54,-99.03 300.17,-92.53 297.94,-99.17"/>
</a>
</g>
</g>
<!-- Node16 -->
<g id="Node000016" class="node">
<title>Node16</title>
<g id="a_Node000016"><a xlink:href="class_fiea_1_1_engine_1_1_actions_1_1_action.html#a81c0a0c2e60d1d97b21ca306f673b7e7" target="_top" xlink:title=" ">
<polygon fill="white" stroke="#666666" points="415.12,-82 305.38,-82 305.38,-50 415.12,-50 415.12,-82"/>
<text xml:space="preserve" text-anchor="start" x="313.38" y="-68.5" font-family="Helvetica,sans-Serif" font-size="10.00">Fiea::Engine::Actions</text>
<text xml:space="preserve" text-anchor="middle" x="360.25" y="-56.5" font-family="Helvetica,sans-Serif" font-size="10.00">::Action::InitAction</text>
</a>
</g>
</g>
<!-- Node14&#45;&gt;Node16 -->
<g id="edge22_Node000014_Node000016" class="edge">
<title>Node14&#45;&gt;Node16</title>
<g id="a_edge22_Node000014_Node000016"><a xlink:title=" ">
<path fill="none" stroke="#63b8ff" d="M264.23,-66C273.76,-66 283.77,-66 293.57,-66"/>
<polygon fill="#63b8ff" stroke="#63b8ff" points="293.43,-69.5 303.43,-66 293.43,-62.5 293.43,-69.5"/>
</a>
</g>
</g>
<!-- Node17 -->
<g id="Node000017" class="node">
<title>Node17</title>
<g id="a_Node000017"><a xlink:href="class_fiea_1_1_engine_1_1_actions_1_1_action.html#a75aad9a760f6deb44caed1be2611afad" target="_top" xlink:title=" ">
<polygon fill="white" stroke="#666666" points="415.12,-32 305.38,-32 305.38,0 415.12,0 415.12,-32"/>
<text xml:space="preserve" text-anchor="start" x="313.38" y="-18.5" font-family="Helvetica,sans-Serif" font-size="10.00">Fiea::Engine::Actions</text>
<text xml:space="preserve" text-anchor="middle" x="360.25" y="-6.5" font-family="Helvetica,sans-Serif" font-size="10.00">::Action::RunAction</text>
</a>
</g>
</g>
<!-- Node14&#45;&gt;Node17 -->
<g id="edge23_Node000014_Node000017" class="edge">
<title>Node14&#45;&gt;Node17</title>
<g id="a_edge23_Node000014_Node000017"><a xlink:title=" ">
<path fill="none" stroke="#63b8ff" d="M258.79,-49.63C271.74,-45.29 285.88,-40.56 299.35,-36.05"/>
<polygon fill="#63b8ff" stroke="#63b8ff" points="300.17,-39.47 308.54,-32.97 297.94,-32.83 300.17,-39.47"/>
</a>
</g>
</g>
</g>
</svg>
