<?xml version="1.0" encoding="UTF-8" standalone="no"?>
<!DOCTYPE svg PUBLIC "-//W3C//DTD SVG 1.1//EN"
 "http://www.w3.org/Graphics/SVG/1.1/DTD/svg11.dtd">
<!-- Generated by graphviz version 13.1.0 (20250701.0955)
 -->
<!-- Title: Fiea::Engine::GameObject::RemoveChild Pages: 1 -->
<svg width="756pt" height="329pt"
 viewBox="0.00 0.00 756.00 329.00" xmlns="http://www.w3.org/2000/svg" xmlns:xlink="http://www.w3.org/1999/xlink">
<g id="graph0" class="graph" transform="scale(1 1) rotate(0) translate(4 325)">
<title>Fiea::Engine::GameObject::RemoveChild</title>
<!-- Node1 -->
<g id="Node000001" class="node">
<title>Node1</title>
<g id="a_Node000001"><a xlink:title=" ">
<polygon fill="#999999" stroke="#666666" points="131.5,-157 0,-157 0,-125 131.5,-125 131.5,-157"/>
<text xml:space="preserve" text-anchor="start" x="8" y="-143.5" font-family="Helvetica,sans-Serif" font-size="10.00">Fiea::Engine::GameObject</text>
<text xml:space="preserve" text-anchor="middle" x="65.75" y="-131.5" font-family="Helvetica,sans-Serif" font-size="10.00">::RemoveChild</text>
</a>
</g>
</g>
<!-- Node2 -->
<g id="Node000002" class="node">
<title>Node2</title>
<g id="a_Node000002"><a xlink:href="class_fiea_1_1_engine_1_1_r_t_t_i.html#a15bd5993c8ad04da47af440298ebbb30" target="_top" xlink:title=" ">
<polygon fill="white" stroke="#666666" points="599.5,-321 483,-321 483,-301 599.5,-301 599.5,-321"/>
<text xml:space="preserve" text-anchor="middle" x="541.25" y="-307.5" font-family="Helvetica,sans-Serif" font-size="10.00">Fiea::Engine::RTTI::As</text>
</a>
</g>
</g>
<!-- Node1&#45;&gt;Node2 -->
<g id="edge1_Node000001_Node000002" class="edge">
<title>Node1&#45;&gt;Node2</title>
<g id="a_edge1_Node000001_Node000002"><a xlink:title=" ">
<path fill="none" stroke="#63b8ff" d="M78.37,-157.37C95.29,-179.92 128.93,-220.1 167.5,-241 264.19,-293.41 393.4,-307.23 471.52,-310.5"/>
<polygon fill="#63b8ff" stroke="#63b8ff" points="471.03,-313.99 481.15,-310.86 471.29,-306.99 471.03,-313.99"/>
</a>
</g>
</g>
<!-- Node5 -->
<g id="Node000005" class="node">
<title>Node5</title>
<g id="a_Node000005"><a xlink:href="class_fiea_1_1_engine_1_1_content_1_1_scope.html#ad924c01785b239991fc0e56a63295612" target="_top" xlink:title="Finds a Datum by key.">
<polygon fill="white" stroke="#666666" points="288.88,-182 177.62,-182 177.62,-150 288.88,-150 288.88,-182"/>
<text xml:space="preserve" text-anchor="start" x="185.62" y="-168.5" font-family="Helvetica,sans-Serif" font-size="10.00">Fiea::Engine::Content</text>
<text xml:space="preserve" text-anchor="middle" x="233.25" y="-156.5" font-family="Helvetica,sans-Serif" font-size="10.00">::Scope::Find</text>
</a>
</g>
</g>
<!-- Node1&#45;&gt;Node5 -->
<g id="edge4_Node000001_Node000005" class="edge">
<title>Node1&#45;&gt;Node5</title>
<g id="a_edge4_Node000001_Node000005"><a xlink:title=" ">
<path fill="none" stroke="#63b8ff" d="M131.68,-150.81C142.96,-152.51 154.7,-154.29 166.01,-155.99"/>
<polygon fill="#63b8ff" stroke="#63b8ff" points="165.23,-159.42 175.64,-157.45 166.28,-152.49 165.23,-159.42"/>
</a>
</g>
</g>
<!-- Node6 -->
<g id="Node000006" class="node">
<title>Node6</title>
<g id="a_Node000006"><a xlink:href="class_fiea_1_1_engine_1_1_game_object.html#ad3a296dd56ec43cc9f81eef0b1d14db6" target="_top" xlink:title=" ">
<polygon fill="white" stroke="#666666" points="299,-232 167.5,-232 167.5,-200 299,-200 299,-232"/>
<text xml:space="preserve" text-anchor="start" x="175.5" y="-218.5" font-family="Helvetica,sans-Serif" font-size="10.00">Fiea::Engine::GameObject</text>
<text xml:space="preserve" text-anchor="middle" x="233.25" y="-206.5" font-family="Helvetica,sans-Serif" font-size="10.00">::GameObject</text>
</a>
</g>
</g>
<!-- Node1&#45;&gt;Node6 -->
<g id="edge5_Node000001_Node000006" class="edge">
<title>Node1&#45;&gt;Node6</title>
<g id="a_edge5_Node000001_Node000006"><a xlink:title=" ">
<path fill="none" stroke="#63b8ff" d="M97.71,-157.29C117.46,-167.45 143.73,-180.54 167.5,-191 170.81,-192.46 174.23,-193.91 177.7,-195.35"/>
<polygon fill="#63b8ff" stroke="#63b8ff" points="176.16,-198.51 186.74,-199.03 178.79,-192.02 176.16,-198.51"/>
</a>
</g>
</g>
<!-- Node11 -->
<g id="Node000011" class="node">
<title>Node11</title>
<g id="a_Node000011"><a xlink:href="class_fiea_1_1_engine_1_1_content_1_1_datum.html#a7f92976f27f407987cf287a2f7017e04" target="_top" xlink:title=" ">
<polygon fill="white" stroke="#666666" points="288.88,-132 177.62,-132 177.62,-100 288.88,-100 288.88,-132"/>
<text xml:space="preserve" text-anchor="start" x="185.62" y="-118.5" font-family="Helvetica,sans-Serif" font-size="10.00">Fiea::Engine::Content</text>
<text xml:space="preserve" text-anchor="middle" x="233.25" y="-106.5" font-family="Helvetica,sans-Serif" font-size="10.00">::Datum::GetAsTable</text>
</a>
</g>
</g>
<!-- Node1&#45;&gt;Node11 -->
<g id="edge16_Node000001_Node000011" class="edge">
<title>Node1&#45;&gt;Node11</title>
<g id="a_edge16_Node000001_Node000011"><a xlink:title=" ">
<path fill="none" stroke="#63b8ff" d="M131.68,-131.19C142.96,-129.49 154.7,-127.71 166.01,-126.01"/>
<polygon fill="#63b8ff" stroke="#63b8ff" points="166.28,-129.51 175.64,-124.55 165.23,-122.58 166.28,-129.51"/>
</a>
</g>
</g>
<!-- Node13 -->
<g id="Node000013" class="node">
<title>Node13</title>
<g id="a_Node000013"><a xlink:href="class_fiea_1_1_engine_1_1_content_1_1_datum.html#aae7a8c9d75274c388e81a925ad1f49ef" target="_top" xlink:title=" ">
<polygon fill="white" stroke="#666666" points="288.88,-82 177.62,-82 177.62,-50 288.88,-50 288.88,-82"/>
<text xml:space="preserve" text-anchor="start" x="185.62" y="-68.5" font-family="Helvetica,sans-Serif" font-size="10.00">Fiea::Engine::Content</text>
<text xml:space="preserve" text-anchor="middle" x="233.25" y="-56.5" font-family="Helvetica,sans-Serif" font-size="10.00">::Datum::RemoveAt</text>
</a>
</g>
</g>
<!-- Node1&#45;&gt;Node13 -->
<g id="edge19_Node000001_Node000013" class="edge">
<title>Node1&#45;&gt;Node13</title>
<g id="a_edge19_Node000001_Node000013"><a xlink:title=" ">
<path fill="none" stroke="#63b8ff" d="M97.71,-124.71C117.46,-114.55 143.73,-101.46 167.5,-91 170.81,-89.54 174.23,-88.09 177.7,-86.65"/>
<polygon fill="#63b8ff" stroke="#63b8ff" points="178.79,-89.98 186.74,-82.97 176.16,-83.49 178.79,-89.98"/>
</a>
</g>
</g>
<!-- Node14 -->
<g id="Node000014" class="node">
<title>Node14</title>
<g id="a_Node000014"><a xlink:href="class_fiea_1_1_engine_1_1_content_1_1_datum.html#acae68c3bc8b20345e4c3790fa37bd8d5" target="_top" xlink:title=" ">
<polygon fill="white" stroke="#666666" points="288.88,-32 177.62,-32 177.62,0 288.88,0 288.88,-32"/>
<text xml:space="preserve" text-anchor="start" x="185.62" y="-18.5" font-family="Helvetica,sans-Serif" font-size="10.00">Fiea::Engine::Content</text>
<text xml:space="preserve" text-anchor="middle" x="233.25" y="-6.5" font-family="Helvetica,sans-Serif" font-size="10.00">::Datum::Size</text>
</a>
</g>
</g>
<!-- Node1&#45;&gt;Node14 -->
<g id="edge20_Node000001_Node000014" class="edge">
<title>Node1&#45;&gt;Node14</title>
<g id="a_edge20_Node000001_Node000014"><a xlink:title=" ">
<path fill="none" stroke="#63b8ff" d="M79.45,-124.72C97.13,-103.01 131.1,-64.59 167.5,-41 169.32,-39.82 171.2,-38.68 173.13,-37.59"/>
<polygon fill="#63b8ff" stroke="#63b8ff" points="174.45,-40.85 181.74,-33.16 171.25,-34.62 174.45,-40.85"/>
</a>
</g>
</g>
<!-- Node3 -->
<g id="Node000003" class="node">
<title>Node3</title>
<g id="a_Node000003"><a xlink:href="class_fiea_1_1_engine_1_1_r_t_t_i.html#ac0a7d875e4513b2aca7594abcd4418ef" target="_top" xlink:title=" ">
<polygon fill="white" stroke="#666666" points="748.25,-302 635.5,-302 635.5,-282 748.25,-282 748.25,-302"/>
<text xml:space="preserve" text-anchor="middle" x="691.88" y="-288.5" font-family="Helvetica,sans-Serif" font-size="10.00">Fiea::Engine::RTTI::Is</text>
</a>
</g>
</g>
<!-- Node2&#45;&gt;Node3 -->
<g id="edge2_Node000002_Node000003" class="edge">
<title>Node2&#45;&gt;Node3</title>
<g id="a_edge2_Node000002_Node000003"><a xlink:title=" ">
<path fill="none" stroke="#63b8ff" d="M599.71,-303.65C607.6,-302.65 615.75,-301.6 623.78,-300.58"/>
<polygon fill="#63b8ff" stroke="#63b8ff" points="624.06,-304.07 633.53,-299.33 623.17,-297.13 624.06,-304.07"/>
</a>
</g>
</g>
<!-- Node4 -->
<g id="Node000004" class="node">
<title>Node4</title>
<g id="a_Node000004"><a xlink:href="class_fiea_1_1_engine_1_1_r_t_t_i.html#a13000029a2e6cced30b831e466e07cae" target="_top" xlink:title=" ">
<polygon fill="white" stroke="#666666" points="741.12,-245 642.62,-245 642.62,-213 741.12,-213 741.12,-245"/>
<text xml:space="preserve" text-anchor="start" x="650.62" y="-231.5" font-family="Helvetica,sans-Serif" font-size="10.00">Fiea::Engine::RTTI</text>
<text xml:space="preserve" text-anchor="middle" x="691.88" y="-219.5" font-family="Helvetica,sans-Serif" font-size="10.00">::RTTI</text>
</a>
</g>
</g>
<!-- Node2&#45;&gt;Node4 -->
<g id="edge3_Node000002_Node000004" class="edge">
<title>Node2&#45;&gt;Node4</title>
<g id="a_edge3_Node000002_Node000004"><a xlink:title=" ">
<path fill="none" stroke="#63b8ff" d="M561.07,-300.61C583.64,-288.16 622.08,-266.96 651.28,-250.85"/>
<polygon fill="#63b8ff" stroke="#63b8ff" points="652.79,-254.01 659.86,-246.11 649.41,-247.88 652.79,-254.01"/>
</a>
</g>
</g>
<!-- Node7 -->
<g id="Node000007" class="node">
<title>Node7</title>
<g id="a_Node000007"><a xlink:href="class_fiea_1_1_engine_1_1_content_1_1_attributed.html#ad1ae014235d9d8b62b36066c94164148" target="_top" xlink:title=" ">
<polygon fill="white" stroke="#666666" points="447,-182 335,-182 335,-150 447,-150 447,-182"/>
<text xml:space="preserve" text-anchor="start" x="343" y="-168.5" font-family="Helvetica,sans-Serif" font-size="10.00">Fiea::Engine::Content</text>
<text xml:space="preserve" text-anchor="middle" x="391" y="-156.5" font-family="Helvetica,sans-Serif" font-size="10.00">::Attributed::Attributed</text>
</a>
</g>
</g>
<!-- Node6&#45;&gt;Node7 -->
<g id="edge6_Node000006_Node000007" class="edge">
<title>Node6&#45;&gt;Node7</title>
<g id="a_edge6_Node000006_Node000007"><a xlink:title=" ">
<path fill="none" stroke="#63b8ff" d="M285.25,-199.63C298.89,-195.25 313.79,-190.46 327.96,-185.92"/>
<polygon fill="#63b8ff" stroke="#63b8ff" points="328.73,-189.35 337.18,-182.96 326.59,-182.68 328.73,-189.35"/>
</a>
</g>
</g>
<!-- Node8 -->
<g id="Node000008" class="node">
<title>Node8</title>
<g id="a_Node000008"><a xlink:href="class_fiea_1_1_engine_1_1_r_t_t_i.html#a876bebbe7b3149483c43a87f55f4ea99" target="_top" xlink:title=" ">
<polygon fill="white" stroke="#666666" points="440.25,-250 341.75,-250 341.75,-218 440.25,-218 440.25,-250"/>
<text xml:space="preserve" text-anchor="start" x="349.75" y="-236.5" font-family="Helvetica,sans-Serif" font-size="10.00">Fiea::Engine::RTTI</text>
<text xml:space="preserve" text-anchor="middle" x="391" y="-224.5" font-family="Helvetica,sans-Serif" font-size="10.00">::TypeIdInstance</text>
</a>
</g>
</g>
<!-- Node6&#45;&gt;Node8 -->
<g id="edge8_Node000006_Node000008" class="edge">
<title>Node6&#45;&gt;Node8</title>
<g id="a_edge8_Node000006_Node000008"><a xlink:title=" ">
<path fill="none" stroke="#63b8ff" d="M299.4,-223.53C309.7,-224.72 320.3,-225.94 330.46,-227.12"/>
<polygon fill="#63b8ff" stroke="#63b8ff" points="329.86,-230.57 340.2,-228.24 330.66,-223.62 329.86,-230.57"/>
</a>
</g>
</g>
<!-- Node7&#45;&gt;Node7 -->
<g id="edge7_Node000007_Node000007" class="edge">
<title>Node7&#45;&gt;Node7</title>
<g id="a_edge7_Node000007_Node000007"><a xlink:title=" ">
<path fill="none" stroke="#63b8ff" d="M364.18,-182.44C359.17,-191.58 368.11,-200 391,-200 403.52,-200 411.86,-197.48 416.04,-193.71"/>
<polygon fill="#63b8ff" stroke="#63b8ff" points="419.48,-194.36 417.59,-183.94 412.56,-193.27 419.48,-194.36"/>
</a>
</g>
</g>
<!-- Node8&#45;&gt;Node2 -->
<g id="edge9_Node000008_Node000002" class="edge">
<title>Node8&#45;&gt;Node2</title>
<g id="a_edge9_Node000008_Node000002"><a xlink:title=" ">
<path fill="none" stroke="#63b8ff" d="M418.18,-250.47C436.1,-261.44 460.58,-275.83 483,-287 489.39,-290.19 496.31,-293.33 503.06,-296.24"/>
<polygon fill="#63b8ff" stroke="#63b8ff" points="501.45,-299.36 512.02,-300.01 504.16,-292.91 501.45,-299.36"/>
</a>
</g>
</g>
<!-- Node8&#45;&gt;Node3 -->
<g id="edge12_Node000008_Node000003" class="edge">
<title>Node8&#45;&gt;Node3</title>
<g id="a_edge12_Node000008_Node000003"><a xlink:title=" ">
<path fill="none" stroke="#63b8ff" d="M440.58,-245.01C454.27,-248.02 469.2,-251.22 483,-254 530.01,-263.46 583.21,-273.17 624.02,-280.4"/>
<polygon fill="#63b8ff" stroke="#63b8ff" points="623.24,-283.82 633.7,-282.11 624.46,-276.92 623.24,-283.82"/>
</a>
</g>
</g>
<!-- Node8&#45;&gt;Node4 -->
<g id="edge13_Node000008_Node000004" class="edge">
<title>Node8&#45;&gt;Node4</title>
<g id="a_edge13_Node000008_Node000004"><a xlink:title=" ">
<path fill="none" stroke="#63b8ff" d="M432.53,-217.57C448.05,-212.1 466.08,-206.72 483,-204 534.12,-195.79 548.18,-197.11 599.5,-204 610.03,-205.41 621.05,-207.7 631.66,-210.34"/>
<polygon fill="#63b8ff" stroke="#63b8ff" points="630.5,-213.65 641.06,-212.81 632.28,-206.88 630.5,-213.65"/>
</a>
</g>
</g>
<!-- Node8&#45;&gt;Node8 -->
<g id="edge15_Node000008_Node000008" class="edge">
<title>Node8&#45;&gt;Node8</title>
<g id="a_edge15_Node000008_Node000008"><a xlink:title=" ">
<path fill="none" stroke="#63b8ff" d="M364.18,-250.44C359.17,-259.58 368.11,-268 391,-268 403.52,-268 411.86,-265.48 416.04,-261.71"/>
<polygon fill="#63b8ff" stroke="#63b8ff" points="419.48,-262.36 417.59,-251.94 412.56,-261.27 419.48,-262.36"/>
</a>
</g>
</g>
<!-- Node9 -->
<g id="Node000009" class="node">
<title>Node9</title>
<g id="a_Node000009"><a xlink:href="class_fiea_1_1_engine_1_1_r_t_t_i.html#a7f70ad5ba0f8a3388543d63d72892575" target="_top" xlink:title=" ">
<polygon fill="white" stroke="#666666" points="590.5,-245 492,-245 492,-213 590.5,-213 590.5,-245"/>
<text xml:space="preserve" text-anchor="start" x="500" y="-231.5" font-family="Helvetica,sans-Serif" font-size="10.00">Fiea::Engine::RTTI</text>
<text xml:space="preserve" text-anchor="middle" x="541.25" y="-219.5" font-family="Helvetica,sans-Serif" font-size="10.00">::Equals</text>
</a>
</g>
</g>
<!-- Node8&#45;&gt;Node9 -->
<g id="edge10_Node000008_Node000009" class="edge">
<title>Node8&#45;&gt;Node9</title>
<g id="a_edge10_Node000008_Node000009"><a xlink:title=" ">
<path fill="none" stroke="#63b8ff" d="M440.54,-232.36C453.21,-231.94 467.02,-231.47 480.21,-231.02"/>
<polygon fill="#63b8ff" stroke="#63b8ff" points="480.21,-234.53 490.09,-230.69 479.97,-227.53 480.21,-234.53"/>
</a>
</g>
</g>
<!-- Node10 -->
<g id="Node000010" class="node">
<title>Node10</title>
<g id="a_Node000010"><a xlink:href="class_fiea_1_1_engine_1_1_r_t_t_i.html#a43a7d187e332a17d2c699bc2c8136a30" target="_top" xlink:title=" ">
<polygon fill="white" stroke="#666666" points="590.5,-157 492,-157 492,-125 590.5,-125 590.5,-157"/>
<text xml:space="preserve" text-anchor="start" x="500" y="-143.5" font-family="Helvetica,sans-Serif" font-size="10.00">Fiea::Engine::RTTI</text>
<text xml:space="preserve" text-anchor="middle" x="541.25" y="-131.5" font-family="Helvetica,sans-Serif" font-size="10.00">::ToString</text>
</a>
</g>
</g>
<!-- Node8&#45;&gt;Node10 -->
<g id="edge14_Node000008_Node000010" class="edge">
<title>Node8&#45;&gt;Node10</title>
<g id="a_edge14_Node000008_Node000010"><a xlink:title=" ">
<path fill="none" stroke="#63b8ff" d="M432.94,-217.56C437.84,-214.97 442.64,-212.11 447,-209 465.94,-195.49 464.45,-185.03 483,-171 486.57,-168.3 490.42,-165.71 494.38,-163.26"/>
<polygon fill="#63b8ff" stroke="#63b8ff" points="496.12,-166.3 503.02,-158.26 492.61,-160.24 496.12,-166.3"/>
</a>
</g>
</g>
<!-- Node9&#45;&gt;Node4 -->
<g id="edge11_Node000009_Node000004" class="edge">
<title>Node9&#45;&gt;Node4</title>
<g id="a_edge11_Node000009_Node000004"><a xlink:title=" ">
<path fill="none" stroke="#63b8ff" d="M590.92,-229C603.68,-229 617.6,-229 630.89,-229"/>
<polygon fill="#63b8ff" stroke="#63b8ff" points="630.84,-232.5 640.84,-229 630.84,-225.5 630.84,-232.5"/>
</a>
</g>
</g>
<!-- Node12 -->
<g id="Node000012" class="node">
<title>Node12</title>
<g id="a_Node000012"><a xlink:href="class_fiea_1_1_engine_1_1_content_1_1_datum.html#a921193447f6e42f596ac0a7694b02830" target="_top" xlink:title=" ">
<polygon fill="white" stroke="#666666" points="446.62,-114 335.38,-114 335.38,-82 446.62,-82 446.62,-114"/>
<text xml:space="preserve" text-anchor="start" x="343.38" y="-100.5" font-family="Helvetica,sans-Serif" font-size="10.00">Fiea::Engine::Content</text>
<text xml:space="preserve" text-anchor="middle" x="391" y="-88.5" font-family="Helvetica,sans-Serif" font-size="10.00">::Datum::Scope</text>
</a>
</g>
</g>
<!-- Node11&#45;&gt;Node12 -->
<g id="edge17_Node000011_Node000012" class="edge">
<title>Node11&#45;&gt;Node12</title>
<g id="a_edge17_Node000011_Node000012"><a xlink:title=" ">
<path fill="none" stroke="#63b8ff" d="M289.16,-109.65C300.33,-108.36 312.19,-106.99 323.7,-105.66"/>
<polygon fill="#63b8ff" stroke="#63b8ff" points="324.02,-109.15 333.56,-104.52 323.22,-102.19 324.02,-109.15"/>
</a>
</g>
</g>
<!-- Node12&#45;&gt;Node12 -->
<g id="edge18_Node000012_Node000012" class="edge">
<title>Node12&#45;&gt;Node12</title>
<g id="a_edge18_Node000012_Node000012"><a xlink:title=" ">
<path fill="none" stroke="#63b8ff" d="M364.18,-114.44C359.17,-123.58 368.11,-132 391,-132 403.52,-132 411.86,-129.48 416.04,-125.71"/>
<polygon fill="#63b8ff" stroke="#63b8ff" points="419.48,-126.36 417.59,-115.94 412.56,-125.27 419.48,-126.36"/>
</a>
</g>
</g>
</g>
</svg>
