<?xml version="1.0" encoding="UTF-8" standalone="no"?>
<!DOCTYPE svg PUBLIC "-//W3C//DTD SVG 1.1//EN"
 "http://www.w3.org/Graphics/SVG/1.1/DTD/svg11.dtd">
<!-- Generated by graphviz version 13.1.0 (20250701.0955)
 -->
<!-- Title: Fiea::Engine::Memory::Heap::Free Pages: 1 -->
<svg width="303pt" height="90pt"
 viewBox="0.00 0.00 303.00 90.00" xmlns="http://www.w3.org/2000/svg" xmlns:xlink="http://www.w3.org/1999/xlink">
<g id="graph0" class="graph" transform="scale(1 1) rotate(0) translate(4 86)">
<title>Fiea::Engine::Memory::Heap::Free</title>
<!-- Node1 -->
<g id="Node000001" class="node">
<title>Node1</title>
<g id="a_Node000001"><a xlink:title=" ">
<polygon fill="#999999" stroke="#666666" points="295.25,-57 183.25,-57 183.25,-25 295.25,-25 295.25,-57"/>
<text xml:space="preserve" text-anchor="start" x="191.25" y="-43.5" font-family="Helvetica,sans-Serif" font-size="10.00">Fiea::Engine::Memory</text>
<text xml:space="preserve" text-anchor="middle" x="239.25" y="-31.5" font-family="Helvetica,sans-Serif" font-size="10.00">::Heap::Free</text>
</a>
</g>
</g>
<!-- Node2 -->
<g id="Node000002" class="node">
<title>Node2</title>
<g id="a_Node000002"><a xlink:href="class_fiea_1_1_engine_1_1_memory_1_1_memory_service.html#aa852d402f8102876dac56ec11904f811" target="_top" xlink:title="Frees memory using the current default allocator or free.">
<polygon fill="white" stroke="#666666" points="147.25,-82 0,-82 0,-50 147.25,-50 147.25,-82"/>
<text xml:space="preserve" text-anchor="start" x="8" y="-68.5" font-family="Helvetica,sans-Serif" font-size="10.00">Fiea::Engine::Memory</text>
<text xml:space="preserve" text-anchor="middle" x="73.62" y="-56.5" font-family="Helvetica,sans-Serif" font-size="10.00">::MemoryService::DefaultFree</text>
</a>
</g>
</g>
<!-- Node1&#45;&gt;Node2 -->
<g id="edge1_Node000001_Node000002" class="edge">
<title>Node1&#45;&gt;Node2</title>
<g id="a_edge1_Node000001_Node000002"><a xlink:title=" ">
<path fill="none" stroke="#63b8ff" d="M171.51,-51.2C163.65,-52.4 155.6,-53.63 147.66,-54.84"/>
<polygon fill="#63b8ff" stroke="#63b8ff" points="172,-54.66 181.36,-49.69 170.94,-47.74 172,-54.66"/>
</a>
</g>
</g>
<!-- Node3 -->
<g id="Node000003" class="node">
<title>Node3</title>
<g id="a_Node000003"><a xlink:href="namespace_fiea_1_1_engine_1_1_tests.html#a16fc13573dc263e0c19766314b40d399" target="_top" xlink:title=" ">
<polygon fill="white" stroke="#666666" points="124,-32 23.25,-32 23.25,0 124,0 124,-32"/>
<text xml:space="preserve" text-anchor="start" x="31.25" y="-18.5" font-family="Helvetica,sans-Serif" font-size="10.00">Fiea::Engine::Tests</text>
<text xml:space="preserve" text-anchor="middle" x="73.62" y="-6.5" font-family="Helvetica,sans-Serif" font-size="10.00">::TEST_CLASS</text>
</a>
</g>
</g>
<!-- Node1&#45;&gt;Node3 -->
<g id="edge2_Node000001_Node000003" class="edge">
<title>Node1&#45;&gt;Node3</title>
<g id="a_edge2_Node000001_Node000003"><a xlink:title=" ">
<path fill="none" stroke="#63b8ff" d="M171.57,-30.81C155.83,-28.41 139.31,-25.88 124.47,-23.62"/>
<polygon fill="#63b8ff" stroke="#63b8ff" points="170.94,-34.26 181.36,-32.31 172,-27.34 170.94,-34.26"/>
</a>
</g>
</g>
</g>
</svg>
