<?xml version="1.0" encoding="UTF-8" standalone="no"?>
<!DOCTYPE svg PUBLIC "-//W3C//DTD SVG 1.1//EN"
 "http://www.w3.org/Graphics/SVG/1.1/DTD/svg11.dtd">
<!-- Generated by graphviz version 13.1.0 (20250701.0955)
 -->
<!-- Title: Fiea::Engine::Memory::MemoryService Pages: 1 -->
<svg width="333pt" height="144pt"
 viewBox="0.00 0.00 333.00 144.00" xmlns="http://www.w3.org/2000/svg" xmlns:xlink="http://www.w3.org/1999/xlink">
<g id="graph0" class="graph" transform="scale(1 1) rotate(0) translate(4 140)">
<title>Fiea::Engine::Memory::MemoryService</title>
<!-- Node1 -->
<g id="Node000001" class="node">
<title>Node1</title>
<g id="a_Node000001"><a xlink:title=" ">
<polygon fill="#999999" stroke="#666666" points="325.25,-73 213.25,-73 213.25,-41 325.25,-41 325.25,-73"/>
<text xml:space="preserve" text-anchor="start" x="221.25" y="-59.5" font-family="Helvetica,sans-Serif" font-size="10.00">Fiea::Engine::Memory</text>
<text xml:space="preserve" text-anchor="middle" x="269.25" y="-47.5" font-family="Helvetica,sans-Serif" font-size="10.00">::MemoryService</text>
</a>
</g>
</g>
<!-- Node2 -->
<g id="Node000002" class="node">
<title>Node2</title>
<g id="a_Node000002"><a xlink:href="struct_fiea_1_1_engine_1_1_memory_1_1_i_memory_service.html" target="_top" xlink:title=" ">
<polygon fill="white" stroke="#666666" points="112,-136 0,-136 0,-104 112,-104 112,-136"/>
<text xml:space="preserve" text-anchor="start" x="8" y="-122.5" font-family="Helvetica,sans-Serif" font-size="10.00">Fiea::Engine::Memory</text>
<text xml:space="preserve" text-anchor="middle" x="56" y="-110.5" font-family="Helvetica,sans-Serif" font-size="10.00">::IMemoryService</text>
</a>
</g>
</g>
<!-- Node2&#45;&gt;Node1 -->
<g id="edge1_Node000001_Node000002" class="edge">
<title>Node2&#45;&gt;Node1</title>
<g id="a_edge1_Node000001_Node000002"><a xlink:title=" ">
<path fill="none" stroke="#63b8ff" d="M123.05,-100.3C151.94,-91.69 185.44,-81.7 212.98,-73.48"/>
<polygon fill="#63b8ff" stroke="#63b8ff" points="122.26,-96.89 113.68,-103.1 124.26,-103.59 122.26,-96.89"/>
</a>
</g>
</g>
<!-- Node3 -->
<g id="Node000003" class="node">
<title>Node3</title>
<g id="a_Node000003"><a xlink:href="struct_fiea_1_1_engine_1_1_memory_1_1_i_allocator_provider.html" target="_top" xlink:title=" ">
<polygon fill="white" stroke="#666666" points="112,-86 0,-86 0,-54 112,-54 112,-86"/>
<text xml:space="preserve" text-anchor="start" x="8" y="-72.5" font-family="Helvetica,sans-Serif" font-size="10.00">Fiea::Engine::Memory</text>
<text xml:space="preserve" text-anchor="middle" x="56" y="-60.5" font-family="Helvetica,sans-Serif" font-size="10.00">::IAllocatorProvider</text>
</a>
</g>
</g>
<!-- Node3&#45;&gt;Node1 -->
<g id="edge2_Node000001_Node000003" class="edge">
<title>Node3&#45;&gt;Node1</title>
<g id="a_edge2_Node000001_Node000003"><a xlink:title=" ">
<path fill="none" stroke="#63b8ff" d="M123.43,-65.91C152.23,-64.14 185.56,-62.09 212.98,-60.4"/>
<polygon fill="#63b8ff" stroke="#63b8ff" points="123.5,-62.4 113.74,-66.51 123.93,-69.39 123.5,-62.4"/>
</a>
</g>
</g>
<!-- Node4 -->
<g id="Node000004" class="node">
<title>Node4</title>
<g id="a_Node000004"><a xlink:href="struct_fiea_1_1_engine_1_1_memory_1_1_i_default_allocator.html" target="_top" xlink:title=" ">
<polygon fill="white" stroke="#666666" points="112,-32 0,-32 0,0 112,0 112,-32"/>
<text xml:space="preserve" text-anchor="start" x="8" y="-18.5" font-family="Helvetica,sans-Serif" font-size="10.00">Fiea::Engine::Memory</text>
<text xml:space="preserve" text-anchor="middle" x="56" y="-6.5" font-family="Helvetica,sans-Serif" font-size="10.00">::IDefaultAllocator</text>
</a>
</g>
</g>
<!-- Node4&#45;&gt;Node1 -->
<g id="edge3_Node000001_Node000004" class="edge">
<title>Node4&#45;&gt;Node1</title>
<g id="a_edge3_Node000001_Node000004"><a xlink:title=" ">
<path fill="none" stroke="#63b8ff" d="M123.48,-29.71C125.68,-30.15 127.86,-30.58 130,-31 157.32,-36.38 187.72,-42.12 213.04,-46.84"/>
<polygon fill="#63b8ff" stroke="#63b8ff" points="124.36,-26.32 113.87,-27.78 122.98,-33.18 124.36,-26.32"/>
</a>
</g>
</g>
<!-- Node4&#45;&gt;Node1 -->
<g id="edge4_Node000001_Node000004" class="edge">
<title>Node4&#45;&gt;Node1</title>
<g id="a_edge4_Node000001_Node000004"><a xlink:title=" ">
<path fill="none" stroke="#9a32cd" stroke-dasharray="5,2" d="M123.63,-3.62C146.72,-1.68 172.5,-2.19 195.25,-9 215.88,-15.18 236.09,-29.27 249.99,-40.6"/>
<polygon fill="#9a32cd" stroke="#9a32cd" points="123.28,-0.14 113.69,-4.64 124,-7.1 123.28,-0.14"/>
</a>
</g>
<text xml:space="preserve" text-anchor="start" x="133" y="-14.5" font-family="Helvetica,sans-Serif" font-size="10.00" fill="grey">_DefAllocator</text>
</g>
</g>
</svg>
