<?xml version="1.0" encoding="UTF-8" standalone="no"?>
<!DOCTYPE svg PUBLIC "-//W3C//DTD SVG 1.1//EN"
 "http://www.w3.org/Graphics/SVG/1.1/DTD/svg11.dtd">
<!-- Generated by graphviz version 13.1.0 (20250701.0955)
 -->
<!-- Title: Fiea::Engine::Actions::ActionIncrement::operator= Pages: 1 -->
<svg width="950pt" height="220pt"
 viewBox="0.00 0.00 950.00 220.00" xmlns="http://www.w3.org/2000/svg" xmlns:xlink="http://www.w3.org/1999/xlink">
<g id="graph0" class="graph" transform="scale(1 1) rotate(0) translate(4 216)">
<title>Fiea::Engine::Actions::ActionIncrement::operator=</title>
<!-- Node1 -->
<g id="Node000001" class="node">
<title>Node1</title>
<g id="a_Node000001"><a xlink:title=" ">
<polygon fill="#999999" stroke="#666666" points="140.5,-148 0,-148 0,-116 140.5,-116 140.5,-148"/>
<text xml:space="preserve" text-anchor="start" x="8" y="-134.5" font-family="Helvetica,sans-Serif" font-size="10.00">Fiea::Engine::Actions</text>
<text xml:space="preserve" text-anchor="middle" x="70.25" y="-122.5" font-family="Helvetica,sans-Serif" font-size="10.00">::ActionIncrement::operator=</text>
</a>
</g>
</g>
<!-- Node2 -->
<g id="Node000002" class="node">
<title>Node2</title>
<g id="a_Node000002"><a xlink:href="class_fiea_1_1_engine_1_1_actions_1_1_action_increment.html#a6044ebac8f599c1922c5acb34d7babfa" target="_top" xlink:title=" ">
<polygon fill="white" stroke="#666666" points="347,-148 176.5,-148 176.5,-116 347,-116 347,-148"/>
<text xml:space="preserve" text-anchor="start" x="184.5" y="-134.5" font-family="Helvetica,sans-Serif" font-size="10.00">Fiea::Engine::Actions</text>
<text xml:space="preserve" text-anchor="middle" x="261.75" y="-122.5" font-family="Helvetica,sans-Serif" font-size="10.00">::ActionIncrement::ActionIncrement</text>
</a>
</g>
</g>
<!-- Node1&#45;&gt;Node2 -->
<g id="edge1_Node000001_Node000002" class="edge">
<title>Node1&#45;&gt;Node2</title>
<g id="a_edge1_Node000001_Node000002"><a xlink:title=" ">
<path fill="none" stroke="#63b8ff" d="M140.74,-132C148.56,-132 156.64,-132 164.72,-132"/>
<polygon fill="#63b8ff" stroke="#63b8ff" points="164.63,-135.5 174.62,-132 164.62,-128.5 164.63,-135.5"/>
</a>
</g>
</g>
<!-- Node3 -->
<g id="Node000003" class="node">
<title>Node3</title>
<g id="a_Node000003"><a xlink:href="class_fiea_1_1_engine_1_1_actions_1_1_action.html#ae2af386f7122152003b00da79393e19e" target="_top" xlink:title=" ">
<polygon fill="white" stroke="#666666" points="492.75,-170 383,-170 383,-138 492.75,-138 492.75,-170"/>
<text xml:space="preserve" text-anchor="start" x="391" y="-156.5" font-family="Helvetica,sans-Serif" font-size="10.00">Fiea::Engine::Actions</text>
<text xml:space="preserve" text-anchor="middle" x="437.88" y="-144.5" font-family="Helvetica,sans-Serif" font-size="10.00">::Action::Action</text>
</a>
</g>
</g>
<!-- Node2&#45;&gt;Node3 -->
<g id="edge2_Node000002_Node000003" class="edge">
<title>Node2&#45;&gt;Node3</title>
<g id="a_edge2_Node000002_Node000003"><a xlink:title=" ">
<path fill="none" stroke="#63b8ff" d="M347.26,-142.68C355.41,-143.71 363.59,-144.74 371.52,-145.74"/>
<polygon fill="#63b8ff" stroke="#63b8ff" points="371.05,-149.21 381.41,-146.99 371.93,-142.27 371.05,-149.21"/>
</a>
</g>
</g>
<!-- Node5 -->
<g id="Node000005" class="node">
<title>Node5</title>
<g id="a_Node000005"><a xlink:href="class_fiea_1_1_engine_1_1_r_t_t_i.html#a876bebbe7b3149483c43a87f55f4ea99" target="_top" xlink:title=" ">
<polygon fill="white" stroke="#666666" points="634,-126 535.5,-126 535.5,-94 634,-94 634,-126"/>
<text xml:space="preserve" text-anchor="start" x="543.5" y="-112.5" font-family="Helvetica,sans-Serif" font-size="10.00">Fiea::Engine::RTTI</text>
<text xml:space="preserve" text-anchor="middle" x="584.75" y="-100.5" font-family="Helvetica,sans-Serif" font-size="10.00">::TypeIdInstance</text>
</a>
</g>
</g>
<!-- Node2&#45;&gt;Node5 -->
<g id="edge15_Node000002_Node000005" class="edge">
<title>Node2&#45;&gt;Node5</title>
<g id="a_edge15_Node000002_Node000005"><a xlink:title=" ">
<path fill="none" stroke="#63b8ff" d="M347.09,-126.22C402.75,-122.4 474.33,-117.5 524.12,-114.09"/>
<polygon fill="#63b8ff" stroke="#63b8ff" points="524.09,-117.6 533.83,-113.42 523.61,-110.61 524.09,-117.6"/>
</a>
</g>
</g>
<!-- Node4 -->
<g id="Node000004" class="node">
<title>Node4</title>
<g id="a_Node000004"><a xlink:href="class_fiea_1_1_engine_1_1_content_1_1_attributed.html#ad1ae014235d9d8b62b36066c94164148" target="_top" xlink:title=" ">
<polygon fill="white" stroke="#666666" points="640.75,-194 528.75,-194 528.75,-162 640.75,-162 640.75,-194"/>
<text xml:space="preserve" text-anchor="start" x="536.75" y="-180.5" font-family="Helvetica,sans-Serif" font-size="10.00">Fiea::Engine::Content</text>
<text xml:space="preserve" text-anchor="middle" x="584.75" y="-168.5" font-family="Helvetica,sans-Serif" font-size="10.00">::Attributed::Attributed</text>
</a>
</g>
</g>
<!-- Node3&#45;&gt;Node4 -->
<g id="edge3_Node000003_Node000004" class="edge">
<title>Node3&#45;&gt;Node4</title>
<g id="a_edge3_Node000003_Node000004"><a xlink:title=" ">
<path fill="none" stroke="#63b8ff" d="M493.23,-163C501.09,-164.31 509.25,-165.66 517.32,-166.99"/>
<polygon fill="#63b8ff" stroke="#63b8ff" points="516.67,-170.44 527.11,-168.62 517.82,-163.53 516.67,-170.44"/>
</a>
</g>
</g>
<!-- Node3&#45;&gt;Node5 -->
<g id="edge5_Node000003_Node000005" class="edge">
<title>Node3&#45;&gt;Node5</title>
<g id="a_edge5_Node000003_Node000005"><a xlink:title=" ">
<path fill="none" stroke="#63b8ff" d="M492.82,-137.62C503.09,-134.5 513.89,-131.22 524.32,-128.05"/>
<polygon fill="#63b8ff" stroke="#63b8ff" points="525.02,-131.5 533.57,-125.24 522.98,-124.8 525.02,-131.5"/>
</a>
</g>
</g>
<!-- Node4&#45;&gt;Node4 -->
<g id="edge4_Node000004_Node000004" class="edge">
<title>Node4&#45;&gt;Node4</title>
<g id="a_edge4_Node000004_Node000004"><a xlink:title=" ">
<path fill="none" stroke="#63b8ff" d="M558.53,-194.44C553.63,-203.58 562.37,-212 584.75,-212 596.99,-212 605.15,-209.48 609.23,-205.71"/>
<polygon fill="#63b8ff" stroke="#63b8ff" points="612.67,-206.36 610.74,-195.94 605.75,-205.28 612.67,-206.36"/>
</a>
</g>
</g>
<!-- Node5&#45;&gt;Node5 -->
<g id="edge14_Node000005_Node000005" class="edge">
<title>Node5&#45;&gt;Node5</title>
<g id="a_edge14_Node000005_Node000005"><a xlink:title=" ">
<path fill="none" stroke="#63b8ff" d="M558.53,-126.44C553.63,-135.58 562.37,-144 584.75,-144 596.99,-144 605.15,-141.48 609.23,-137.71"/>
<polygon fill="#63b8ff" stroke="#63b8ff" points="612.67,-138.36 610.74,-127.94 605.75,-137.28 612.67,-138.36"/>
</a>
</g>
</g>
<!-- Node6 -->
<g id="Node000006" class="node">
<title>Node6</title>
<g id="a_Node000006"><a xlink:href="class_fiea_1_1_engine_1_1_r_t_t_i.html#a15bd5993c8ad04da47af440298ebbb30" target="_top" xlink:title=" ">
<polygon fill="white" stroke="#666666" points="793.25,-158 676.75,-158 676.75,-138 793.25,-138 793.25,-158"/>
<text xml:space="preserve" text-anchor="middle" x="735" y="-144.5" font-family="Helvetica,sans-Serif" font-size="10.00">Fiea::Engine::RTTI::As</text>
</a>
</g>
</g>
<!-- Node5&#45;&gt;Node6 -->
<g id="edge6_Node000005_Node000006" class="edge">
<title>Node5&#45;&gt;Node6</title>
<g id="a_edge6_Node000005_Node000006"><a xlink:title=" ">
<path fill="none" stroke="#63b8ff" d="M634.29,-122.44C649.65,-126.38 666.68,-130.74 682.25,-134.74"/>
<polygon fill="#63b8ff" stroke="#63b8ff" points="681.27,-138.1 691.82,-137.19 683,-131.32 681.27,-138.1"/>
</a>
</g>
</g>
<!-- Node7 -->
<g id="Node000007" class="node">
<title>Node7</title>
<g id="a_Node000007"><a xlink:href="class_fiea_1_1_engine_1_1_r_t_t_i.html#ac0a7d875e4513b2aca7594abcd4418ef" target="_top" xlink:title=" ">
<polygon fill="white" stroke="#666666" points="942,-180 829.25,-180 829.25,-160 942,-160 942,-180"/>
<text xml:space="preserve" text-anchor="middle" x="885.62" y="-166.5" font-family="Helvetica,sans-Serif" font-size="10.00">Fiea::Engine::RTTI::Is</text>
</a>
</g>
</g>
<!-- Node5&#45;&gt;Node7 -->
<g id="edge11_Node000005_Node000007" class="edge">
<title>Node5&#45;&gt;Node7</title>
<g id="a_edge11_Node000005_Node000007"><a xlink:title=" ">
<path fill="none" stroke="#63b8ff" d="M604.8,-126.34C622.23,-140.14 649.39,-158.93 676.75,-167 722.47,-180.5 776.35,-180.86 817.8,-178.06"/>
<polygon fill="#63b8ff" stroke="#63b8ff" points="817.93,-181.56 827.63,-177.31 817.39,-174.58 817.93,-181.56"/>
</a>
</g>
</g>
<!-- Node8 -->
<g id="Node000008" class="node">
<title>Node8</title>
<g id="a_Node000008"><a xlink:href="class_fiea_1_1_engine_1_1_r_t_t_i.html#a13000029a2e6cced30b831e466e07cae" target="_top" xlink:title=" ">
<polygon fill="white" stroke="#666666" points="934.88,-126 836.38,-126 836.38,-94 934.88,-94 934.88,-126"/>
<text xml:space="preserve" text-anchor="start" x="844.38" y="-112.5" font-family="Helvetica,sans-Serif" font-size="10.00">Fiea::Engine::RTTI</text>
<text xml:space="preserve" text-anchor="middle" x="885.62" y="-100.5" font-family="Helvetica,sans-Serif" font-size="10.00">::RTTI</text>
</a>
</g>
</g>
<!-- Node5&#45;&gt;Node8 -->
<g id="edge12_Node000005_Node000008" class="edge">
<title>Node5&#45;&gt;Node8</title>
<g id="a_edge12_Node000005_Node000008"><a xlink:title=" ">
<path fill="none" stroke="#63b8ff" d="M634.43,-110C686.32,-110 768.54,-110 824.45,-110"/>
<polygon fill="#63b8ff" stroke="#63b8ff" points="824.45,-113.5 834.45,-110 824.45,-106.5 824.45,-113.5"/>
</a>
</g>
</g>
<!-- Node9 -->
<g id="Node000009" class="node">
<title>Node9</title>
<g id="a_Node000009"><a xlink:href="class_fiea_1_1_engine_1_1_r_t_t_i.html#a7f70ad5ba0f8a3388543d63d72892575" target="_top" xlink:title=" ">
<polygon fill="white" stroke="#666666" points="784.25,-82 685.75,-82 685.75,-50 784.25,-50 784.25,-82"/>
<text xml:space="preserve" text-anchor="start" x="693.75" y="-68.5" font-family="Helvetica,sans-Serif" font-size="10.00">Fiea::Engine::RTTI</text>
<text xml:space="preserve" text-anchor="middle" x="735" y="-56.5" font-family="Helvetica,sans-Serif" font-size="10.00">::Equals</text>
</a>
</g>
</g>
<!-- Node5&#45;&gt;Node9 -->
<g id="edge9_Node000005_Node000009" class="edge">
<title>Node5&#45;&gt;Node9</title>
<g id="a_edge9_Node000005_Node000009"><a xlink:title=" ">
<path fill="none" stroke="#63b8ff" d="M634.29,-95.59C647.09,-91.79 661.05,-87.65 674.36,-83.7"/>
<polygon fill="#63b8ff" stroke="#63b8ff" points="675.31,-87.07 683.9,-80.87 673.31,-80.36 675.31,-87.07"/>
</a>
</g>
</g>
<!-- Node10 -->
<g id="Node000010" class="node">
<title>Node10</title>
<g id="a_Node000010"><a xlink:href="class_fiea_1_1_engine_1_1_r_t_t_i.html#a43a7d187e332a17d2c699bc2c8136a30" target="_top" xlink:title=" ">
<polygon fill="white" stroke="#666666" points="784.25,-32 685.75,-32 685.75,0 784.25,0 784.25,-32"/>
<text xml:space="preserve" text-anchor="start" x="693.75" y="-18.5" font-family="Helvetica,sans-Serif" font-size="10.00">Fiea::Engine::RTTI</text>
<text xml:space="preserve" text-anchor="middle" x="735" y="-6.5" font-family="Helvetica,sans-Serif" font-size="10.00">::ToString</text>
</a>
</g>
</g>
<!-- Node5&#45;&gt;Node10 -->
<g id="edge13_Node000005_Node000010" class="edge">
<title>Node5&#45;&gt;Node10</title>
<g id="a_edge13_Node000005_Node000010"><a xlink:title=" ">
<path fill="none" stroke="#63b8ff" d="M604.69,-93.51C622.47,-78.56 650.24,-56.54 676.75,-41 678.76,-39.82 680.84,-38.66 682.95,-37.53"/>
<polygon fill="#63b8ff" stroke="#63b8ff" points="684.34,-40.75 691.71,-33.13 681.2,-34.5 684.34,-40.75"/>
</a>
</g>
</g>
<!-- Node6&#45;&gt;Node7 -->
<g id="edge7_Node000006_Node000007" class="edge">
<title>Node6&#45;&gt;Node7</title>
<g id="a_edge7_Node000006_Node000007"><a xlink:title=" ">
<path fill="none" stroke="#63b8ff" d="M793.46,-156.51C801.35,-157.67 809.5,-158.88 817.53,-160.07"/>
<polygon fill="#63b8ff" stroke="#63b8ff" points="816.88,-163.51 827.28,-161.51 817.91,-156.59 816.88,-163.51"/>
</a>
</g>
</g>
<!-- Node6&#45;&gt;Node8 -->
<g id="edge8_Node000006_Node000008" class="edge">
<title>Node6&#45;&gt;Node8</title>
<g id="a_edge8_Node000006_Node000008"><a xlink:title=" ">
<path fill="none" stroke="#63b8ff" d="M777.01,-137.52C791.88,-133.71 808.99,-129.34 825.13,-125.21"/>
<polygon fill="#63b8ff" stroke="#63b8ff" points="825.82,-128.65 834.64,-122.78 824.09,-121.87 825.82,-128.65"/>
</a>
</g>
</g>
<!-- Node9&#45;&gt;Node8 -->
<g id="edge10_Node000009_Node000008" class="edge">
<title>Node9&#45;&gt;Node8</title>
<g id="a_edge10_Node000009_Node000008"><a xlink:title=" ">
<path fill="none" stroke="#63b8ff" d="M784.67,-80.41C797.69,-84.26 811.92,-88.47 825.44,-92.48"/>
<polygon fill="#63b8ff" stroke="#63b8ff" points="824.07,-95.72 834.65,-95.21 826.06,-89.01 824.07,-95.72"/>
</a>
</g>
</g>
</g>
</svg>
