<?xml version="1.0" encoding="UTF-8" standalone="no"?>
<!DOCTYPE svg PUBLIC "-//W3C//DTD SVG 1.1//EN"
 "http://www.w3.org/Graphics/SVG/1.1/DTD/svg11.dtd">
<!-- Generated by graphviz version 13.1.0 (20250701.0955)
 -->
<!-- Title: Fiea::Engine::Actions::ActionList::~ActionList Pages: 1 -->
<svg width="724pt" height="220pt"
 viewBox="0.00 0.00 724.00 220.00" xmlns="http://www.w3.org/2000/svg" xmlns:xlink="http://www.w3.org/1999/xlink">
<g id="graph0" class="graph" transform="scale(1 1) rotate(0) translate(4 216)">
<title>Fiea::Engine::Actions::ActionList::~ActionList</title>
<!-- Node1 -->
<g id="Node000001" class="node">
<title>Node1</title>
<g id="a_Node000001"><a xlink:title=" ">
<polygon fill="#999999" stroke="#666666" points="121,-160 0,-160 0,-128 121,-128 121,-160"/>
<text xml:space="preserve" text-anchor="start" x="8" y="-146.5" font-family="Helvetica,sans-Serif" font-size="10.00">Fiea::Engine::Actions</text>
<text xml:space="preserve" text-anchor="middle" x="60.5" y="-134.5" font-family="Helvetica,sans-Serif" font-size="10.00">::ActionList::~ActionList</text>
</a>
</g>
</g>
<!-- Node2 -->
<g id="Node000002" class="node">
<title>Node2</title>
<g id="a_Node000002"><a xlink:href="class_fiea_1_1_engine_1_1_actions_1_1_action.html#ae2af386f7122152003b00da79393e19e" target="_top" xlink:title=" ">
<polygon fill="white" stroke="#666666" points="266.75,-160 157,-160 157,-128 266.75,-128 266.75,-160"/>
<text xml:space="preserve" text-anchor="start" x="165" y="-146.5" font-family="Helvetica,sans-Serif" font-size="10.00">Fiea::Engine::Actions</text>
<text xml:space="preserve" text-anchor="middle" x="211.88" y="-134.5" font-family="Helvetica,sans-Serif" font-size="10.00">::Action::Action</text>
</a>
</g>
</g>
<!-- Node1&#45;&gt;Node2 -->
<g id="edge1_Node000001_Node000002" class="edge">
<title>Node1&#45;&gt;Node2</title>
<g id="a_edge1_Node000001_Node000002"><a xlink:title=" ">
<path fill="none" stroke="#63b8ff" d="M121.4,-144C129.25,-144 137.33,-144 145.27,-144"/>
<polygon fill="#63b8ff" stroke="#63b8ff" points="145.25,-147.5 155.25,-144 145.25,-140.5 145.25,-147.5"/>
</a>
</g>
</g>
<!-- Node3 -->
<g id="Node000003" class="node">
<title>Node3</title>
<g id="a_Node000003"><a xlink:href="class_fiea_1_1_engine_1_1_content_1_1_attributed.html#ad1ae014235d9d8b62b36066c94164148" target="_top" xlink:title=" ">
<polygon fill="white" stroke="#666666" points="414.75,-194 302.75,-194 302.75,-162 414.75,-162 414.75,-194"/>
<text xml:space="preserve" text-anchor="start" x="310.75" y="-180.5" font-family="Helvetica,sans-Serif" font-size="10.00">Fiea::Engine::Content</text>
<text xml:space="preserve" text-anchor="middle" x="358.75" y="-168.5" font-family="Helvetica,sans-Serif" font-size="10.00">::Attributed::Attributed</text>
</a>
</g>
</g>
<!-- Node2&#45;&gt;Node3 -->
<g id="edge2_Node000002_Node000003" class="edge">
<title>Node2&#45;&gt;Node3</title>
<g id="a_edge2_Node000002_Node000003"><a xlink:title=" ">
<path fill="none" stroke="#63b8ff" d="M267.23,-156.76C275.18,-158.62 283.44,-160.56 291.59,-162.47"/>
<polygon fill="#63b8ff" stroke="#63b8ff" points="290.6,-165.83 301.13,-164.71 292.2,-159.02 290.6,-165.83"/>
</a>
</g>
</g>
<!-- Node4 -->
<g id="Node000004" class="node">
<title>Node4</title>
<g id="a_Node000004"><a xlink:href="class_fiea_1_1_engine_1_1_r_t_t_i.html#a876bebbe7b3149483c43a87f55f4ea99" target="_top" xlink:title=" ">
<polygon fill="white" stroke="#666666" points="408,-126 309.5,-126 309.5,-94 408,-94 408,-126"/>
<text xml:space="preserve" text-anchor="start" x="317.5" y="-112.5" font-family="Helvetica,sans-Serif" font-size="10.00">Fiea::Engine::RTTI</text>
<text xml:space="preserve" text-anchor="middle" x="358.75" y="-100.5" font-family="Helvetica,sans-Serif" font-size="10.00">::TypeIdInstance</text>
</a>
</g>
</g>
<!-- Node2&#45;&gt;Node4 -->
<g id="edge4_Node000002_Node000004" class="edge">
<title>Node2&#45;&gt;Node4</title>
<g id="a_edge4_Node000002_Node000004"><a xlink:title=" ">
<path fill="none" stroke="#63b8ff" d="M267.23,-131.24C277.38,-128.86 288.02,-126.36 298.31,-123.95"/>
<polygon fill="#63b8ff" stroke="#63b8ff" points="298.88,-127.41 307.81,-121.72 297.28,-120.6 298.88,-127.41"/>
</a>
</g>
</g>
<!-- Node3&#45;&gt;Node3 -->
<g id="edge3_Node000003_Node000003" class="edge">
<title>Node3&#45;&gt;Node3</title>
<g id="a_edge3_Node000003_Node000003"><a xlink:title=" ">
<path fill="none" stroke="#63b8ff" d="M332.53,-194.44C327.63,-203.58 336.37,-212 358.75,-212 370.99,-212 379.15,-209.48 383.23,-205.71"/>
<polygon fill="#63b8ff" stroke="#63b8ff" points="386.67,-206.36 384.74,-195.94 379.75,-205.28 386.67,-206.36"/>
</a>
</g>
</g>
<!-- Node4&#45;&gt;Node4 -->
<g id="edge13_Node000004_Node000004" class="edge">
<title>Node4&#45;&gt;Node4</title>
<g id="a_edge13_Node000004_Node000004"><a xlink:title=" ">
<path fill="none" stroke="#63b8ff" d="M332.53,-126.44C327.63,-135.58 336.37,-144 358.75,-144 370.99,-144 379.15,-141.48 383.23,-137.71"/>
<polygon fill="#63b8ff" stroke="#63b8ff" points="386.67,-138.36 384.74,-127.94 379.75,-137.28 386.67,-138.36"/>
</a>
</g>
</g>
<!-- Node5 -->
<g id="Node000005" class="node">
<title>Node5</title>
<g id="a_Node000005"><a xlink:href="class_fiea_1_1_engine_1_1_r_t_t_i.html#a15bd5993c8ad04da47af440298ebbb30" target="_top" xlink:title=" ">
<polygon fill="white" stroke="#666666" points="567.25,-158 450.75,-158 450.75,-138 567.25,-138 567.25,-158"/>
<text xml:space="preserve" text-anchor="middle" x="509" y="-144.5" font-family="Helvetica,sans-Serif" font-size="10.00">Fiea::Engine::RTTI::As</text>
</a>
</g>
</g>
<!-- Node4&#45;&gt;Node5 -->
<g id="edge5_Node000004_Node000005" class="edge">
<title>Node4&#45;&gt;Node5</title>
<g id="a_edge5_Node000004_Node000005"><a xlink:title=" ">
<path fill="none" stroke="#63b8ff" d="M408.29,-122.44C423.65,-126.38 440.68,-130.74 456.25,-134.74"/>
<polygon fill="#63b8ff" stroke="#63b8ff" points="455.27,-138.1 465.82,-137.19 457,-131.32 455.27,-138.1"/>
</a>
</g>
</g>
<!-- Node6 -->
<g id="Node000006" class="node">
<title>Node6</title>
<g id="a_Node000006"><a xlink:href="class_fiea_1_1_engine_1_1_r_t_t_i.html#ac0a7d875e4513b2aca7594abcd4418ef" target="_top" xlink:title=" ">
<polygon fill="white" stroke="#666666" points="716,-180 603.25,-180 603.25,-160 716,-160 716,-180"/>
<text xml:space="preserve" text-anchor="middle" x="659.62" y="-166.5" font-family="Helvetica,sans-Serif" font-size="10.00">Fiea::Engine::RTTI::Is</text>
</a>
</g>
</g>
<!-- Node4&#45;&gt;Node6 -->
<g id="edge10_Node000004_Node000006" class="edge">
<title>Node4&#45;&gt;Node6</title>
<g id="a_edge10_Node000004_Node000006"><a xlink:title=" ">
<path fill="none" stroke="#63b8ff" d="M378.8,-126.34C396.23,-140.14 423.39,-158.93 450.75,-167 496.47,-180.5 550.35,-180.86 591.8,-178.06"/>
<polygon fill="#63b8ff" stroke="#63b8ff" points="591.93,-181.56 601.63,-177.31 591.39,-174.58 591.93,-181.56"/>
</a>
</g>
</g>
<!-- Node7 -->
<g id="Node000007" class="node">
<title>Node7</title>
<g id="a_Node000007"><a xlink:href="class_fiea_1_1_engine_1_1_r_t_t_i.html#a13000029a2e6cced30b831e466e07cae" target="_top" xlink:title=" ">
<polygon fill="white" stroke="#666666" points="708.88,-126 610.38,-126 610.38,-94 708.88,-94 708.88,-126"/>
<text xml:space="preserve" text-anchor="start" x="618.38" y="-112.5" font-family="Helvetica,sans-Serif" font-size="10.00">Fiea::Engine::RTTI</text>
<text xml:space="preserve" text-anchor="middle" x="659.62" y="-100.5" font-family="Helvetica,sans-Serif" font-size="10.00">::RTTI</text>
</a>
</g>
</g>
<!-- Node4&#45;&gt;Node7 -->
<g id="edge11_Node000004_Node000007" class="edge">
<title>Node4&#45;&gt;Node7</title>
<g id="a_edge11_Node000004_Node000007"><a xlink:title=" ">
<path fill="none" stroke="#63b8ff" d="M408.43,-110C460.32,-110 542.54,-110 598.45,-110"/>
<polygon fill="#63b8ff" stroke="#63b8ff" points="598.45,-113.5 608.45,-110 598.45,-106.5 598.45,-113.5"/>
</a>
</g>
</g>
<!-- Node8 -->
<g id="Node000008" class="node">
<title>Node8</title>
<g id="a_Node000008"><a xlink:href="class_fiea_1_1_engine_1_1_r_t_t_i.html#a7f70ad5ba0f8a3388543d63d72892575" target="_top" xlink:title=" ">
<polygon fill="white" stroke="#666666" points="558.25,-82 459.75,-82 459.75,-50 558.25,-50 558.25,-82"/>
<text xml:space="preserve" text-anchor="start" x="467.75" y="-68.5" font-family="Helvetica,sans-Serif" font-size="10.00">Fiea::Engine::RTTI</text>
<text xml:space="preserve" text-anchor="middle" x="509" y="-56.5" font-family="Helvetica,sans-Serif" font-size="10.00">::Equals</text>
</a>
</g>
</g>
<!-- Node4&#45;&gt;Node8 -->
<g id="edge8_Node000004_Node000008" class="edge">
<title>Node4&#45;&gt;Node8</title>
<g id="a_edge8_Node000004_Node000008"><a xlink:title=" ">
<path fill="none" stroke="#63b8ff" d="M408.29,-95.59C421.09,-91.79 435.05,-87.65 448.36,-83.7"/>
<polygon fill="#63b8ff" stroke="#63b8ff" points="449.31,-87.07 457.9,-80.87 447.31,-80.36 449.31,-87.07"/>
</a>
</g>
</g>
<!-- Node9 -->
<g id="Node000009" class="node">
<title>Node9</title>
<g id="a_Node000009"><a xlink:href="class_fiea_1_1_engine_1_1_r_t_t_i.html#a43a7d187e332a17d2c699bc2c8136a30" target="_top" xlink:title=" ">
<polygon fill="white" stroke="#666666" points="558.25,-32 459.75,-32 459.75,0 558.25,0 558.25,-32"/>
<text xml:space="preserve" text-anchor="start" x="467.75" y="-18.5" font-family="Helvetica,sans-Serif" font-size="10.00">Fiea::Engine::RTTI</text>
<text xml:space="preserve" text-anchor="middle" x="509" y="-6.5" font-family="Helvetica,sans-Serif" font-size="10.00">::ToString</text>
</a>
</g>
</g>
<!-- Node4&#45;&gt;Node9 -->
<g id="edge12_Node000004_Node000009" class="edge">
<title>Node4&#45;&gt;Node9</title>
<g id="a_edge12_Node000004_Node000009"><a xlink:title=" ">
<path fill="none" stroke="#63b8ff" d="M378.69,-93.51C396.47,-78.56 424.24,-56.54 450.75,-41 452.76,-39.82 454.84,-38.66 456.95,-37.53"/>
<polygon fill="#63b8ff" stroke="#63b8ff" points="458.34,-40.75 465.71,-33.13 455.2,-34.5 458.34,-40.75"/>
</a>
</g>
</g>
<!-- Node5&#45;&gt;Node6 -->
<g id="edge6_Node000005_Node000006" class="edge">
<title>Node5&#45;&gt;Node6</title>
<g id="a_edge6_Node000005_Node000006"><a xlink:title=" ">
<path fill="none" stroke="#63b8ff" d="M567.46,-156.51C575.35,-157.67 583.5,-158.88 591.53,-160.07"/>
<polygon fill="#63b8ff" stroke="#63b8ff" points="590.88,-163.51 601.28,-161.51 591.91,-156.59 590.88,-163.51"/>
</a>
</g>
</g>
<!-- Node5&#45;&gt;Node7 -->
<g id="edge7_Node000005_Node000007" class="edge">
<title>Node5&#45;&gt;Node7</title>
<g id="a_edge7_Node000005_Node000007"><a xlink:title=" ">
<path fill="none" stroke="#63b8ff" d="M551.01,-137.52C565.88,-133.71 582.99,-129.34 599.13,-125.21"/>
<polygon fill="#63b8ff" stroke="#63b8ff" points="599.82,-128.65 608.64,-122.78 598.09,-121.87 599.82,-128.65"/>
</a>
</g>
</g>
<!-- Node8&#45;&gt;Node7 -->
<g id="edge9_Node000008_Node000007" class="edge">
<title>Node8&#45;&gt;Node7</title>
<g id="a_edge9_Node000008_Node000007"><a xlink:title=" ">
<path fill="none" stroke="#63b8ff" d="M558.67,-80.41C571.69,-84.26 585.92,-88.47 599.44,-92.48"/>
<polygon fill="#63b8ff" stroke="#63b8ff" points="598.07,-95.72 608.65,-95.21 600.06,-89.01 598.07,-95.72"/>
</a>
</g>
</g>
</g>
</svg>
