<?xml version="1.0" encoding="UTF-8" standalone="no"?>
<!DOCTYPE svg PUBLIC "-//W3C//DTD SVG 1.1//EN"
 "http://www.w3.org/Graphics/SVG/1.1/DTD/svg11.dtd">
<!-- Generated by graphviz version 13.1.0 (20250701.0955)
 -->
<!-- Title: Fiea::Engine::Content::Scope::~Scope Pages: 1 -->
<svg width="561pt" height="62pt"
 viewBox="0.00 0.00 561.00 62.00" xmlns="http://www.w3.org/2000/svg" xmlns:xlink="http://www.w3.org/1999/xlink">
<g id="graph0" class="graph" transform="scale(1 1) rotate(0) translate(4 58)">
<title>Fiea::Engine::Content::Scope::~Scope</title>
<!-- Node1 -->
<g id="Node000001" class="node">
<title>Node1</title>
<g id="a_Node000001"><a xlink:title="Destructor. Clears the Scope.">
<polygon fill="#999999" stroke="#666666" points="111.25,-32 0,-32 0,0 111.25,0 111.25,-32"/>
<text xml:space="preserve" text-anchor="start" x="8" y="-18.5" font-family="Helvetica,sans-Serif" font-size="10.00">Fiea::Engine::Content</text>
<text xml:space="preserve" text-anchor="middle" x="55.62" y="-6.5" font-family="Helvetica,sans-Serif" font-size="10.00">::Scope::~Scope</text>
</a>
</g>
</g>
<!-- Node2 -->
<g id="Node000002" class="node">
<title>Node2</title>
<g id="a_Node000002"><a xlink:href="class_fiea_1_1_engine_1_1_content_1_1_scope.html#a9d741d7fb95ccb49ee35dd6d9f779f1e" target="_top" xlink:title="Clears all data in the Scope.">
<polygon fill="white" stroke="#666666" points="258.5,-32 147.25,-32 147.25,0 258.5,0 258.5,-32"/>
<text xml:space="preserve" text-anchor="start" x="155.25" y="-18.5" font-family="Helvetica,sans-Serif" font-size="10.00">Fiea::Engine::Content</text>
<text xml:space="preserve" text-anchor="middle" x="202.88" y="-6.5" font-family="Helvetica,sans-Serif" font-size="10.00">::Scope::Clear</text>
</a>
</g>
</g>
<!-- Node1&#45;&gt;Node2 -->
<g id="edge1_Node000001_Node000002" class="edge">
<title>Node1&#45;&gt;Node2</title>
<g id="a_edge1_Node000001_Node000002"><a xlink:title=" ">
<path fill="none" stroke="#63b8ff" d="M111.54,-16C119.4,-16 127.56,-16 135.61,-16"/>
<polygon fill="#63b8ff" stroke="#63b8ff" points="135.37,-19.5 145.37,-16 135.37,-12.5 135.37,-19.5"/>
</a>
</g>
</g>
<!-- Node3 -->
<g id="Node000003" class="node">
<title>Node3</title>
<g id="a_Node000003"><a xlink:href="class_fiea_1_1_engine_1_1_content_1_1_scope.html#ac4627f740867a929957ce0647f436e02" target="_top" xlink:title=" ">
<polygon fill="white" stroke="#666666" points="405.75,-54 294.5,-54 294.5,-22 405.75,-22 405.75,-54"/>
<text xml:space="preserve" text-anchor="start" x="302.5" y="-40.5" font-family="Helvetica,sans-Serif" font-size="10.00">Fiea::Engine::Content</text>
<text xml:space="preserve" text-anchor="middle" x="350.12" y="-28.5" font-family="Helvetica,sans-Serif" font-size="10.00">::Scope::GetParent</text>
</a>
</g>
</g>
<!-- Node2&#45;&gt;Node3 -->
<g id="edge2_Node000002_Node000003" class="edge">
<title>Node2&#45;&gt;Node3</title>
<g id="a_edge2_Node000002_Node000003"><a xlink:title=" ">
<path fill="none" stroke="#63b8ff" d="M258.79,-24.32C266.65,-25.51 274.81,-26.74 282.86,-27.96"/>
<polygon fill="#63b8ff" stroke="#63b8ff" points="282.23,-31.41 292.64,-29.44 283.28,-24.49 282.23,-31.41"/>
</a>
</g>
</g>
<!-- Node4 -->
<g id="Node000004" class="node">
<title>Node4</title>
<g id="a_Node000004"><a xlink:href="class_fiea_1_1_engine_1_1_content_1_1_scope.html#a6631343c968c233ab1d9c3e05c3f4fe9" target="_top" xlink:title=" ">
<polygon fill="white" stroke="#666666" points="553,-32 441.75,-32 441.75,0 553,0 553,-32"/>
<text xml:space="preserve" text-anchor="start" x="449.75" y="-18.5" font-family="Helvetica,sans-Serif" font-size="10.00">Fiea::Engine::Content</text>
<text xml:space="preserve" text-anchor="middle" x="497.38" y="-6.5" font-family="Helvetica,sans-Serif" font-size="10.00">::Scope::Scope</text>
</a>
</g>
</g>
<!-- Node2&#45;&gt;Node4 -->
<g id="edge5_Node000002_Node000004" class="edge">
<title>Node2&#45;&gt;Node4</title>
<g id="a_edge5_Node000002_Node000004"><a xlink:title=" ">
<path fill="none" stroke="#63b8ff" d="M258.98,-13.88C270.7,-13.52 283.01,-13.19 294.5,-13 343.94,-12.18 356.31,-12.18 405.75,-13 413.56,-13.13 421.75,-13.32 429.87,-13.55"/>
<polygon fill="#63b8ff" stroke="#63b8ff" points="429.66,-17.04 439.76,-13.84 429.86,-10.04 429.66,-17.04"/>
</a>
</g>
</g>
<!-- Node3&#45;&gt;Node4 -->
<g id="edge3_Node000003_Node000004" class="edge">
<title>Node3&#45;&gt;Node4</title>
<g id="a_edge3_Node000003_Node000004"><a xlink:title=" ">
<path fill="none" stroke="#63b8ff" d="M406.04,-29.68C413.9,-28.49 422.06,-27.26 430.11,-26.04"/>
<polygon fill="#63b8ff" stroke="#63b8ff" points="430.53,-29.51 439.89,-24.56 429.48,-22.59 430.53,-29.51"/>
</a>
</g>
</g>
<!-- Node4&#45;&gt;Node4 -->
<g id="edge4_Node000004_Node000004" class="edge">
<title>Node4&#45;&gt;Node4</title>
<g id="a_edge4_Node000004_Node000004"><a xlink:title=" ">
<path fill="none" stroke="#63b8ff" d="M471.09,-32.44C466.18,-41.58 474.94,-50 497.38,-50 509.64,-50 517.82,-47.48 521.91,-43.71"/>
<polygon fill="#63b8ff" stroke="#63b8ff" points="525.35,-44.36 523.43,-33.94 518.44,-43.28 525.35,-44.36"/>
</a>
</g>
</g>
</g>
</svg>
