<?xml version="1.0" encoding="UTF-8" standalone="no"?>
<!DOCTYPE svg PUBLIC "-//W3C//DTD SVG 1.1//EN"
 "http://www.w3.org/Graphics/SVG/1.1/DTD/svg11.dtd">
<!-- Generated by graphviz version 13.1.0 (20250701.0955)
 -->
<!-- Title: Fiea::Engine::Content::ActionWhileParamHandler::EnterKey Pages: 1 -->
<svg width="993pt" height="456pt"
 viewBox="0.00 0.00 993.00 456.00" xmlns="http://www.w3.org/2000/svg" xmlns:xlink="http://www.w3.org/1999/xlink">
<g id="graph0" class="graph" transform="scale(1 1) rotate(0) translate(4 452)">
<title>Fiea::Engine::Content::ActionWhileParamHandler::EnterKey</title>
<!-- Node1 -->
<g id="Node000001" class="node">
<title>Node1</title>
<g id="a_Node000001"><a xlink:title=" ">
<polygon fill="#999999" stroke="#666666" points="136.75,-60 0,-60 0,-16 136.75,-16 136.75,-60"/>
<text xml:space="preserve" text-anchor="start" x="8" y="-46.5" font-family="Helvetica,sans-Serif" font-size="10.00">Fiea::Engine::Content</text>
<text xml:space="preserve" text-anchor="start" x="8" y="-34.5" font-family="Helvetica,sans-Serif" font-size="10.00">::ActionWhileParamHandler</text>
<text xml:space="preserve" text-anchor="middle" x="68.38" y="-22.5" font-family="Helvetica,sans-Serif" font-size="10.00">::EnterKey</text>
</a>
</g>
</g>
<!-- Node2 -->
<g id="Node000002" class="node">
<title>Node2</title>
<g id="a_Node000002"><a xlink:href="class_fiea_1_1_engine_1_1_content_1_1_scope_writer.html#a542b6ab60fcbb7b17a9e203df367ca01" target="_top" xlink:title=" ">
<polygon fill="white" stroke="#666666" points="323.75,-107 172.75,-107 172.75,-63 323.75,-63 323.75,-107"/>
<text xml:space="preserve" text-anchor="start" x="180.75" y="-93.5" font-family="Helvetica,sans-Serif" font-size="10.00">Fiea::Engine::Content</text>
<text xml:space="preserve" text-anchor="start" x="180.75" y="-81.5" font-family="Helvetica,sans-Serif" font-size="10.00">::ScopeWriter::AddWhileAction</text>
<text xml:space="preserve" text-anchor="middle" x="248.25" y="-69.5" font-family="Helvetica,sans-Serif" font-size="10.00">ParamObject</text>
</a>
</g>
</g>
<!-- Node1&#45;&gt;Node2 -->
<g id="edge1_Node000001_Node000002" class="edge">
<title>Node1&#45;&gt;Node2</title>
<g id="a_edge1_Node000001_Node000002"><a xlink:title=" ">
<path fill="none" stroke="#63b8ff" d="M137.13,-55.9C145.03,-57.99 153.16,-60.14 161.26,-62.28"/>
<polygon fill="#63b8ff" stroke="#63b8ff" points="160.24,-65.63 170.8,-64.8 162.03,-58.86 160.24,-65.63"/>
</a>
</g>
</g>
<!-- Node14 -->
<g id="Node000014" class="node">
<title>Node14</title>
<g id="a_Node000014"><a xlink:href="class_fiea_1_1_engine_1_1_r_t_t_i.html#a15bd5993c8ad04da47af440298ebbb30" target="_top" xlink:title=" ">
<polygon fill="white" stroke="#666666" points="674.12,-48 557.62,-48 557.62,-28 674.12,-28 674.12,-48"/>
<text xml:space="preserve" text-anchor="middle" x="615.88" y="-34.5" font-family="Helvetica,sans-Serif" font-size="10.00">Fiea::Engine::RTTI::As</text>
</a>
</g>
</g>
<!-- Node1&#45;&gt;Node14 -->
<g id="edge22_Node000001_Node000014" class="edge">
<title>Node1&#45;&gt;Node14</title>
<g id="a_edge22_Node000001_Node000014"><a xlink:title=" ">
<path fill="none" stroke="#63b8ff" d="M137.23,-35.33C223.27,-32.34 376.17,-28.36 507,-32 519.62,-32.35 533.05,-32.93 546.01,-33.6"/>
<polygon fill="#63b8ff" stroke="#63b8ff" points="545.55,-37.08 555.72,-34.12 545.93,-30.09 545.55,-37.08"/>
</a>
</g>
</g>
<!-- Node3 -->
<g id="Node000003" class="node">
<title>Node3</title>
<g id="a_Node000003"><a xlink:href="class_fiea_1_1_engine_1_1_content_1_1_scope.html#a002f54731a8996f37c4f725d8175ffee" target="_top" xlink:title="Appends a new Scope as a child under the specified key.">
<polygon fill="white" stroke="#666666" points="491.62,-276 375.12,-276 375.12,-244 491.62,-244 491.62,-276"/>
<text xml:space="preserve" text-anchor="start" x="383.12" y="-262.5" font-family="Helvetica,sans-Serif" font-size="10.00">Fiea::Engine::Content</text>
<text xml:space="preserve" text-anchor="middle" x="433.38" y="-250.5" font-family="Helvetica,sans-Serif" font-size="10.00">::Scope::AppendScope</text>
</a>
</g>
</g>
<!-- Node2&#45;&gt;Node3 -->
<g id="edge2_Node000002_Node000003" class="edge">
<title>Node2&#45;&gt;Node3</title>
<g id="a_edge2_Node000002_Node000003"><a xlink:title=" ">
<path fill="none" stroke="#63b8ff" d="M272.44,-107.16C307.01,-140.2 371.8,-202.11 407.38,-236.12"/>
<polygon fill="#63b8ff" stroke="#63b8ff" points="404.61,-238.3 414.25,-242.68 409.44,-233.24 404.61,-238.3"/>
</a>
</g>
</g>
<!-- Node13 -->
<g id="Node000013" class="node">
<title>Node13</title>
<g id="a_Node000013"><a xlink:href="struct_fiea_1_1_engine_1_1_content_1_1_i_factory_service.html#a06ed01632b58a4faeb159d3e9a0ef51f" target="_top" xlink:title=" ">
<polygon fill="white" stroke="#666666" points="496.5,-123 370.25,-123 370.25,-91 496.5,-91 496.5,-123"/>
<text xml:space="preserve" text-anchor="start" x="378.25" y="-109.5" font-family="Helvetica,sans-Serif" font-size="10.00">Fiea::Engine::Content</text>
<text xml:space="preserve" text-anchor="middle" x="433.38" y="-97.5" font-family="Helvetica,sans-Serif" font-size="10.00">::IFactoryService::Create</text>
</a>
</g>
</g>
<!-- Node2&#45;&gt;Node13 -->
<g id="edge16_Node000002_Node000013" class="edge">
<title>Node2&#45;&gt;Node13</title>
<g id="a_edge16_Node000002_Node000013"><a xlink:title=" ">
<path fill="none" stroke="#63b8ff" d="M324,-93.98C335.42,-95.35 347.21,-96.77 358.61,-98.14"/>
<polygon fill="#63b8ff" stroke="#63b8ff" points="358,-101.59 368.35,-99.31 358.84,-94.64 358,-101.59"/>
</a>
</g>
</g>
<!-- Node18 -->
<g id="Node000018" class="node">
<title>Node18</title>
<g id="a_Node000018"><a xlink:href="class_fiea_1_1_engine_1_1_service_manager.html#a8aac9b15b7e5483c2b1cd5febe590a0c" target="_top" xlink:title=" ">
<polygon fill="white" stroke="#666666" points="507,-73 359.75,-73 359.75,-41 507,-41 507,-73"/>
<text xml:space="preserve" text-anchor="start" x="367.75" y="-59.5" font-family="Helvetica,sans-Serif" font-size="10.00">Fiea::Engine::ServiceManager</text>
<text xml:space="preserve" text-anchor="middle" x="433.38" y="-47.5" font-family="Helvetica,sans-Serif" font-size="10.00">::ProvideInterface</text>
</a>
</g>
</g>
<!-- Node2&#45;&gt;Node18 -->
<g id="edge21_Node000002_Node000018" class="edge">
<title>Node2&#45;&gt;Node18</title>
<g id="a_edge21_Node000002_Node000018"><a xlink:title=" ">
<path fill="none" stroke="#63b8ff" d="M324,-73.57C331.93,-72.36 340.04,-71.12 348.07,-69.89"/>
<polygon fill="#63b8ff" stroke="#63b8ff" points="348.49,-73.37 357.85,-68.39 347.44,-66.45 348.49,-73.37"/>
</a>
</g>
</g>
<!-- Node4 -->
<g id="Node000004" class="node">
<title>Node4</title>
<g id="a_Node000004"><a xlink:href="class_fiea_1_1_engine_1_1_content_1_1_scope.html#aa91d6470fd3d3f402bbb2e765be54455" target="_top" xlink:title="Appends a new Datum with the given key.">
<polygon fill="white" stroke="#666666" points="671.5,-448 560.25,-448 560.25,-416 671.5,-416 671.5,-448"/>
<text xml:space="preserve" text-anchor="start" x="568.25" y="-434.5" font-family="Helvetica,sans-Serif" font-size="10.00">Fiea::Engine::Content</text>
<text xml:space="preserve" text-anchor="middle" x="615.88" y="-422.5" font-family="Helvetica,sans-Serif" font-size="10.00">::Scope::Append</text>
</a>
</g>
</g>
<!-- Node3&#45;&gt;Node4 -->
<g id="edge3_Node000003_Node000004" class="edge">
<title>Node3&#45;&gt;Node4</title>
<g id="a_edge3_Node000003_Node000004"><a xlink:title=" ">
<path fill="none" stroke="#63b8ff" d="M442.15,-276.2C457.37,-306.25 493.93,-370.88 543,-407 545.28,-408.68 547.68,-410.25 550.17,-411.73"/>
<polygon fill="#63b8ff" stroke="#63b8ff" points="548.29,-414.69 558.78,-416.22 551.54,-408.49 548.29,-414.69"/>
</a>
</g>
</g>
<!-- Node5 -->
<g id="Node000005" class="node">
<title>Node5</title>
<g id="a_Node000005"><a xlink:href="class_fiea_1_1_engine_1_1_content_1_1_scope.html#ad924c01785b239991fc0e56a63295612" target="_top" xlink:title="Finds a Datum by key.">
<polygon fill="white" stroke="#666666" points="671.5,-398 560.25,-398 560.25,-366 671.5,-366 671.5,-398"/>
<text xml:space="preserve" text-anchor="start" x="568.25" y="-384.5" font-family="Helvetica,sans-Serif" font-size="10.00">Fiea::Engine::Content</text>
<text xml:space="preserve" text-anchor="middle" x="615.88" y="-372.5" font-family="Helvetica,sans-Serif" font-size="10.00">::Scope::Find</text>
</a>
</g>
</g>
<!-- Node3&#45;&gt;Node5 -->
<g id="edge4_Node000003_Node000005" class="edge">
<title>Node3&#45;&gt;Node5</title>
<g id="a_edge4_Node000003_Node000005"><a xlink:title=" ">
<path fill="none" stroke="#63b8ff" d="M448.66,-276.25C468.11,-297.47 504.87,-334.56 543,-357 545.17,-358.28 547.42,-359.51 549.73,-360.68"/>
<polygon fill="#63b8ff" stroke="#63b8ff" points="548.17,-363.82 558.71,-364.87 551.13,-357.47 548.17,-363.82"/>
</a>
</g>
</g>
<!-- Node6 -->
<g id="Node000006" class="node">
<title>Node6</title>
<g id="a_Node000006"><a xlink:href="class_fiea_1_1_engine_1_1_content_1_1_datum.html#a6e9dfba6e16fddc4efc39b8182dad89f" target="_top" xlink:title=" ">
<polygon fill="white" stroke="#666666" points="671.5,-348 560.25,-348 560.25,-316 671.5,-316 671.5,-348"/>
<text xml:space="preserve" text-anchor="start" x="568.25" y="-334.5" font-family="Helvetica,sans-Serif" font-size="10.00">Fiea::Engine::Content</text>
<text xml:space="preserve" text-anchor="middle" x="615.88" y="-322.5" font-family="Helvetica,sans-Serif" font-size="10.00">::Datum::IsType</text>
</a>
</g>
</g>
<!-- Node3&#45;&gt;Node6 -->
<g id="edge5_Node000003_Node000006" class="edge">
<title>Node3&#45;&gt;Node6</title>
<g id="a_edge5_Node000003_Node000006"><a xlink:title=" ">
<path fill="none" stroke="#63b8ff" d="M470.31,-276.34C491.34,-285.7 518.49,-297.45 543,-307 547.04,-308.57 551.22,-310.16 555.45,-311.72"/>
<polygon fill="#63b8ff" stroke="#63b8ff" points="553.97,-314.9 564.56,-315.02 556.35,-308.32 553.97,-314.9"/>
</a>
</g>
</g>
<!-- Node7 -->
<g id="Node000007" class="node">
<title>Node7</title>
<g id="a_Node000007"><a xlink:href="class_fiea_1_1_engine_1_1_content_1_1_datum.html#acb3ba55fc9b39b876cf3334d0305f4fc" target="_top" xlink:title=" ">
<polygon fill="white" stroke="#666666" points="671.5,-298 560.25,-298 560.25,-266 671.5,-266 671.5,-298"/>
<text xml:space="preserve" text-anchor="start" x="568.25" y="-284.5" font-family="Helvetica,sans-Serif" font-size="10.00">Fiea::Engine::Content</text>
<text xml:space="preserve" text-anchor="middle" x="615.88" y="-272.5" font-family="Helvetica,sans-Serif" font-size="10.00">::Datum::Push</text>
</a>
</g>
</g>
<!-- Node3&#45;&gt;Node7 -->
<g id="edge6_Node000003_Node000007" class="edge">
<title>Node3&#45;&gt;Node7</title>
<g id="a_edge6_Node000003_Node000007"><a xlink:title=" ">
<path fill="none" stroke="#63b8ff" d="M491.98,-267.02C510.01,-269.22 530.05,-271.66 548.62,-273.92"/>
<polygon fill="#63b8ff" stroke="#63b8ff" points="548.11,-277.39 558.46,-275.12 548.96,-270.44 548.11,-277.39"/>
</a>
</g>
</g>
<!-- Node10 -->
<g id="Node000010" class="node">
<title>Node10</title>
<g id="a_Node000010"><a xlink:href="class_fiea_1_1_engine_1_1_content_1_1_scope.html#a6631343c968c233ab1d9c3e05c3f4fe9" target="_top" xlink:title=" ">
<polygon fill="white" stroke="#666666" points="836.75,-223 725.5,-223 725.5,-191 836.75,-191 836.75,-223"/>
<text xml:space="preserve" text-anchor="start" x="733.5" y="-209.5" font-family="Helvetica,sans-Serif" font-size="10.00">Fiea::Engine::Content</text>
<text xml:space="preserve" text-anchor="middle" x="781.12" y="-197.5" font-family="Helvetica,sans-Serif" font-size="10.00">::Scope::Scope</text>
</a>
</g>
</g>
<!-- Node3&#45;&gt;Node10 -->
<g id="edge11_Node000003_Node000010" class="edge">
<title>Node3&#45;&gt;Node10</title>
<g id="a_edge11_Node000003_Node000010"><a xlink:title=" ">
<path fill="none" stroke="#63b8ff" d="M491.86,-251.19C552.99,-241.82 649.57,-227.01 713.86,-217.16"/>
<polygon fill="#63b8ff" stroke="#63b8ff" points="714.23,-220.64 723.58,-215.67 713.17,-213.72 714.23,-220.64"/>
</a>
</g>
</g>
<!-- Node11 -->
<g id="Node000011" class="node">
<title>Node11</title>
<g id="a_Node000011"><a xlink:href="class_fiea_1_1_engine_1_1_content_1_1_scope.html#af6a94922a8fa123c3b22b7b4485963de" target="_top" xlink:title=" ">
<polygon fill="white" stroke="#666666" points="671.5,-210 560.25,-210 560.25,-178 671.5,-178 671.5,-210"/>
<text xml:space="preserve" text-anchor="start" x="568.25" y="-196.5" font-family="Helvetica,sans-Serif" font-size="10.00">Fiea::Engine::Content</text>
<text xml:space="preserve" text-anchor="middle" x="615.88" y="-184.5" font-family="Helvetica,sans-Serif" font-size="10.00">::Scope::SetParent</text>
</a>
</g>
</g>
<!-- Node3&#45;&gt;Node11 -->
<g id="edge13_Node000003_Node000011" class="edge">
<title>Node3&#45;&gt;Node11</title>
<g id="a_edge13_Node000003_Node000011"><a xlink:title=" ">
<path fill="none" stroke="#63b8ff" d="M479.46,-243.52C503.67,-234.66 533.73,-223.67 559.37,-214.3"/>
<polygon fill="#63b8ff" stroke="#63b8ff" points="560.44,-217.63 568.63,-210.91 558.04,-211.06 560.44,-217.63"/>
</a>
</g>
</g>
<!-- Node12 -->
<g id="Node000012" class="node">
<title>Node12</title>
<g id="a_Node000012"><a xlink:href="class_fiea_1_1_engine_1_1_content_1_1_datum.html#a23d1f16d9646f024a5dee1f05dbd5a5e" target="_top" xlink:title=" ">
<polygon fill="white" stroke="#666666" points="671.5,-160 560.25,-160 560.25,-128 671.5,-128 671.5,-160"/>
<text xml:space="preserve" text-anchor="start" x="568.25" y="-146.5" font-family="Helvetica,sans-Serif" font-size="10.00">Fiea::Engine::Content</text>
<text xml:space="preserve" text-anchor="middle" x="615.88" y="-134.5" font-family="Helvetica,sans-Serif" font-size="10.00">::Datum::SetType</text>
</a>
</g>
</g>
<!-- Node3&#45;&gt;Node12 -->
<g id="edge15_Node000003_Node000012" class="edge">
<title>Node3&#45;&gt;Node12</title>
<g id="a_edge15_Node000003_Node000012"><a xlink:title=" ">
<path fill="none" stroke="#63b8ff" d="M449.9,-243.78C469.81,-223.78 506.2,-189.88 543,-169 545.33,-167.68 547.74,-166.41 550.2,-165.2"/>
<polygon fill="#63b8ff" stroke="#63b8ff" points="551.52,-168.44 559.18,-161.12 548.63,-162.07 551.52,-168.44"/>
</a>
</g>
</g>
<!-- Node8 -->
<g id="Node000008" class="node">
<title>Node8</title>
<g id="a_Node000008"><a xlink:href="class_fiea_1_1_engine_1_1_content_1_1_datum.html#a818f812e4489e57885c88951bc0601b3" target="_top" xlink:title=" ">
<polygon fill="white" stroke="#666666" points="836.75,-335 725.5,-335 725.5,-303 836.75,-303 836.75,-335"/>
<text xml:space="preserve" text-anchor="start" x="733.5" y="-321.5" font-family="Helvetica,sans-Serif" font-size="10.00">Fiea::Engine::Content</text>
<text xml:space="preserve" text-anchor="middle" x="781.12" y="-309.5" font-family="Helvetica,sans-Serif" font-size="10.00">::Datum::ResizeArray</text>
</a>
</g>
</g>
<!-- Node7&#45;&gt;Node8 -->
<g id="edge7_Node000007_Node000008" class="edge">
<title>Node7&#45;&gt;Node8</title>
<g id="a_edge7_Node000007_Node000008"><a xlink:title=" ">
<path fill="none" stroke="#63b8ff" d="M671.69,-294.42C685.28,-297.5 699.99,-300.84 714.06,-304.03"/>
<polygon fill="#63b8ff" stroke="#63b8ff" points="713.18,-307.41 723.7,-306.21 714.72,-300.59 713.18,-307.41"/>
</a>
</g>
</g>
<!-- Node9 -->
<g id="Node000009" class="node">
<title>Node9</title>
<g id="a_Node000009"><a xlink:href="class_fiea_1_1_engine_1_1_content_1_1_datum.html#a921193447f6e42f596ac0a7694b02830" target="_top" xlink:title=" ">
<polygon fill="white" stroke="#666666" points="984.75,-313 873.5,-313 873.5,-281 984.75,-281 984.75,-313"/>
<text xml:space="preserve" text-anchor="start" x="881.5" y="-299.5" font-family="Helvetica,sans-Serif" font-size="10.00">Fiea::Engine::Content</text>
<text xml:space="preserve" text-anchor="middle" x="929.12" y="-287.5" font-family="Helvetica,sans-Serif" font-size="10.00">::Datum::Scope</text>
</a>
</g>
</g>
<!-- Node7&#45;&gt;Node9 -->
<g id="edge10_Node000007_Node000009" class="edge">
<title>Node7&#45;&gt;Node9</title>
<g id="a_edge10_Node000007_Node000009"><a xlink:title=" ">
<path fill="none" stroke="#63b8ff" d="M671.8,-284.65C724.87,-287.2 805.3,-291.08 861.88,-293.81"/>
<polygon fill="#63b8ff" stroke="#63b8ff" points="861.55,-297.3 871.71,-294.28 861.89,-290.3 861.55,-297.3"/>
</a>
</g>
</g>
<!-- Node8&#45;&gt;Node9 -->
<g id="edge8_Node000008_Node000009" class="edge">
<title>Node8&#45;&gt;Node9</title>
<g id="a_edge8_Node000008_Node000009"><a xlink:title=" ">
<path fill="none" stroke="#63b8ff" d="M836.91,-310.75C845.03,-309.52 853.47,-308.25 861.8,-306.99"/>
<polygon fill="#63b8ff" stroke="#63b8ff" points="862.17,-310.48 871.54,-305.53 861.13,-303.56 862.17,-310.48"/>
</a>
</g>
</g>
<!-- Node9&#45;&gt;Node9 -->
<g id="edge9_Node000009_Node000009" class="edge">
<title>Node9&#45;&gt;Node9</title>
<g id="a_edge9_Node000009_Node000009"><a xlink:title=" ">
<path fill="none" stroke="#63b8ff" d="M902.7,-313.44C897.77,-322.58 906.58,-331 929.12,-331 941.46,-331 949.68,-328.48 953.79,-324.71"/>
<polygon fill="#63b8ff" stroke="#63b8ff" points="957.23,-325.36 955.31,-314.94 950.31,-324.28 957.23,-325.36"/>
</a>
</g>
</g>
<!-- Node10&#45;&gt;Node10 -->
<g id="edge12_Node000010_Node000010" class="edge">
<title>Node10&#45;&gt;Node10</title>
<g id="a_edge12_Node000010_Node000010"><a xlink:title=" ">
<path fill="none" stroke="#63b8ff" d="M754.7,-223.44C749.77,-232.58 758.58,-241 781.12,-241 793.46,-241 801.68,-238.48 805.79,-234.71"/>
<polygon fill="#63b8ff" stroke="#63b8ff" points="809.23,-235.36 807.31,-224.94 802.31,-234.28 809.23,-235.36"/>
</a>
</g>
</g>
<!-- Node11&#45;&gt;Node10 -->
<g id="edge14_Node000011_Node000010" class="edge">
<title>Node11&#45;&gt;Node10</title>
<g id="a_edge14_Node000011_Node000010"><a xlink:title=" ">
<path fill="none" stroke="#63b8ff" d="M671.69,-198.36C685.28,-199.45 699.99,-200.62 714.06,-201.74"/>
<polygon fill="#63b8ff" stroke="#63b8ff" points="713.42,-205.2 723.67,-202.5 713.98,-198.22 713.42,-205.2"/>
</a>
</g>
</g>
<!-- Node13&#45;&gt;Node14 -->
<g id="edge17_Node000013_Node000014" class="edge">
<title>Node13&#45;&gt;Node14</title>
<g id="a_edge17_Node000013_Node000014"><a xlink:title=" ">
<path fill="none" stroke="#63b8ff" d="M483.34,-90.56C491.28,-87.78 499.39,-84.86 507,-82 531.67,-72.73 559.17,-61.5 580.23,-52.7"/>
<polygon fill="#63b8ff" stroke="#63b8ff" points="581.34,-56.03 589.21,-48.94 578.64,-49.58 581.34,-56.03"/>
</a>
</g>
</g>
<!-- Node17 -->
<g id="Node000017" class="node">
<title>Node17</title>
<g id="a_Node000017"><a xlink:href="struct_fiea_1_1_engine_1_1_content_1_1_i_factory_service.html#a287380a07bd649e87bba6b3762554c20" target="_top" xlink:title=" ">
<polygon fill="white" stroke="#666666" points="688.75,-110 543,-110 543,-78 688.75,-78 688.75,-110"/>
<text xml:space="preserve" text-anchor="start" x="551" y="-96.5" font-family="Helvetica,sans-Serif" font-size="10.00">Fiea::Engine::Content</text>
<text xml:space="preserve" text-anchor="middle" x="615.88" y="-84.5" font-family="Helvetica,sans-Serif" font-size="10.00">::IFactoryService::GetFactory</text>
</a>
</g>
</g>
<!-- Node13&#45;&gt;Node17 -->
<g id="edge20_Node000013_Node000017" class="edge">
<title>Node13&#45;&gt;Node17</title>
<g id="a_edge20_Node000013_Node000017"><a xlink:title=" ">
<path fill="none" stroke="#63b8ff" d="M497,-102.49C508.07,-101.69 519.76,-100.85 531.3,-100.02"/>
<polygon fill="#63b8ff" stroke="#63b8ff" points="531.53,-103.51 541.25,-99.3 531.03,-96.53 531.53,-103.51"/>
</a>
</g>
</g>
<!-- Node15 -->
<g id="Node000015" class="node">
<title>Node15</title>
<g id="a_Node000015"><a xlink:href="class_fiea_1_1_engine_1_1_r_t_t_i.html#ac0a7d875e4513b2aca7594abcd4418ef" target="_top" xlink:title=" ">
<polygon fill="white" stroke="#666666" points="837.5,-70 724.75,-70 724.75,-50 837.5,-50 837.5,-70"/>
<text xml:space="preserve" text-anchor="middle" x="781.12" y="-56.5" font-family="Helvetica,sans-Serif" font-size="10.00">Fiea::Engine::RTTI::Is</text>
</a>
</g>
</g>
<!-- Node14&#45;&gt;Node15 -->
<g id="edge18_Node000014_Node000015" class="edge">
<title>Node14&#45;&gt;Node15</title>
<g id="a_edge18_Node000014_Node000015"><a xlink:title=" ">
<path fill="none" stroke="#63b8ff" d="M674.43,-45.76C687,-47.45 700.4,-49.26 713.29,-50.99"/>
<polygon fill="#63b8ff" stroke="#63b8ff" points="712.58,-54.43 722.96,-52.3 713.52,-47.49 712.58,-54.43"/>
</a>
</g>
</g>
<!-- Node16 -->
<g id="Node000016" class="node">
<title>Node16</title>
<g id="a_Node000016"><a xlink:href="class_fiea_1_1_engine_1_1_r_t_t_i.html#a13000029a2e6cced30b831e466e07cae" target="_top" xlink:title=" ">
<polygon fill="white" stroke="#666666" points="830.38,-32 731.88,-32 731.88,0 830.38,0 830.38,-32"/>
<text xml:space="preserve" text-anchor="start" x="739.88" y="-18.5" font-family="Helvetica,sans-Serif" font-size="10.00">Fiea::Engine::RTTI</text>
<text xml:space="preserve" text-anchor="middle" x="781.12" y="-6.5" font-family="Helvetica,sans-Serif" font-size="10.00">::RTTI</text>
</a>
</g>
</g>
<!-- Node14&#45;&gt;Node16 -->
<g id="edge19_Node000014_Node000016" class="edge">
<title>Node14&#45;&gt;Node16</title>
<g id="a_edge19_Node000014_Node000016"><a xlink:title=" ">
<path fill="none" stroke="#63b8ff" d="M674.43,-30.24C689.28,-28.24 705.3,-26.08 720.26,-24.07"/>
<polygon fill="#63b8ff" stroke="#63b8ff" points="720.52,-27.56 729.96,-22.76 719.59,-20.63 720.52,-27.56"/>
</a>
</g>
</g>
</g>
</svg>
