<?xml version="1.0" encoding="UTF-8" standalone="no"?>
<!DOCTYPE svg PUBLIC "-//W3C//DTD SVG 1.1//EN"
 "http://www.w3.org/Graphics/SVG/1.1/DTD/svg11.dtd">
<!-- Generated by graphviz version 13.1.0 (20250701.0955)
 -->
<!-- Title: Fiea::Engine::GameObject::GameObject Pages: 1 -->
<svg width="825pt" height="626pt"
 viewBox="0.00 0.00 825.00 626.00" xmlns="http://www.w3.org/2000/svg" xmlns:xlink="http://www.w3.org/1999/xlink">
<g id="graph0" class="graph" transform="scale(1 1) rotate(0) translate(4 622)">
<title>Fiea::Engine::GameObject::GameObject</title>
<!-- Node1 -->
<g id="Node000001" class="node">
<title>Node1</title>
<g id="a_Node000001"><a xlink:title=" ">
<polygon fill="#999999" stroke="#666666" points="816.5,-282 685,-282 685,-250 816.5,-250 816.5,-282"/>
<text xml:space="preserve" text-anchor="start" x="693" y="-268.5" font-family="Helvetica,sans-Serif" font-size="10.00">Fiea::Engine::GameObject</text>
<text xml:space="preserve" text-anchor="middle" x="750.75" y="-256.5" font-family="Helvetica,sans-Serif" font-size="10.00">::GameObject</text>
</a>
</g>
</g>
<!-- Node2 -->
<g id="Node000002" class="node">
<title>Node2</title>
<g id="a_Node000002"><a xlink:href="class_fiea_1_1_engine_1_1_game_object.html#a4d89e3a21dd6381eac8a1f1189ea029e" target="_top" xlink:title=" ">
<polygon fill="white" stroke="#666666" points="649,-550 517.5,-550 517.5,-518 649,-518 649,-550"/>
<text xml:space="preserve" text-anchor="start" x="525.5" y="-536.5" font-family="Helvetica,sans-Serif" font-size="10.00">Fiea::Engine::GameObject</text>
<text xml:space="preserve" text-anchor="middle" x="583.25" y="-524.5" font-family="Helvetica,sans-Serif" font-size="10.00">::AddChild</text>
</a>
</g>
</g>
<!-- Node1&#45;&gt;Node2 -->
<g id="edge1_Node000001_Node000002" class="edge">
<title>Node1&#45;&gt;Node2</title>
<g id="a_edge1_Node000001_Node000002"><a xlink:title=" ">
<path fill="none" stroke="#63b8ff" d="M745.61,-293.44C736.73,-343.05 711.36,-448.16 649,-509 645.64,-512.28 641.79,-515.14 637.7,-517.64"/>
<polygon fill="#63b8ff" stroke="#63b8ff" points="749.01,-294.29 747.23,-283.85 742.11,-293.13 749.01,-294.29"/>
</a>
</g>
</g>
<!-- Node9 -->
<g id="Node000009" class="node">
<title>Node9</title>
<g id="a_Node000009"><a xlink:href="class_fiea_1_1_engine_1_1_game_object.html#a2a91c57403c50385cf6b16667e7e0609" target="_top" xlink:title="Creates a deep copy of this Attributed object.">
<polygon fill="white" stroke="#666666" points="649,-282 517.5,-282 517.5,-250 649,-250 649,-282"/>
<text xml:space="preserve" text-anchor="start" x="525.5" y="-268.5" font-family="Helvetica,sans-Serif" font-size="10.00">Fiea::Engine::GameObject</text>
<text xml:space="preserve" text-anchor="middle" x="583.25" y="-256.5" font-family="Helvetica,sans-Serif" font-size="10.00">::Clone</text>
</a>
</g>
</g>
<!-- Node1&#45;&gt;Node9 -->
<g id="edge8_Node000001_Node000009" class="edge">
<title>Node1&#45;&gt;Node9</title>
<g id="a_edge8_Node000001_Node000009"><a xlink:title=" ">
<path fill="none" stroke="#63b8ff" d="M673.47,-266C665.38,-266 657.21,-266 649.27,-266"/>
<polygon fill="#63b8ff" stroke="#63b8ff" points="673.3,-269.5 683.3,-266 673.3,-262.5 673.3,-269.5"/>
</a>
</g>
</g>
<!-- Node10 -->
<g id="Node000010" class="node">
<title>Node10</title>
<g id="a_Node000010"><a xlink:href="class_fiea_1_1_engine_1_1_game_object.html#a31fde54010ab18837926a5c8d8cc45d7" target="_top" xlink:title=" ">
<polygon fill="white" stroke="#666666" points="649,-450 517.5,-450 517.5,-418 649,-418 649,-450"/>
<text xml:space="preserve" text-anchor="start" x="525.5" y="-436.5" font-family="Helvetica,sans-Serif" font-size="10.00">Fiea::Engine::GameObject</text>
<text xml:space="preserve" text-anchor="middle" x="583.25" y="-424.5" font-family="Helvetica,sans-Serif" font-size="10.00">::ForEachChild</text>
</a>
</g>
</g>
<!-- Node1&#45;&gt;Node10 -->
<g id="edge9_Node000001_Node000010" class="edge">
<title>Node1&#45;&gt;Node10</title>
<g id="a_edge9_Node000001_Node000010"><a xlink:title=" ">
<path fill="none" stroke="#63b8ff" d="M737.3,-292.34C721.09,-324.07 689.9,-377.07 649,-409 644.92,-412.19 640.38,-415.01 635.65,-417.5"/>
<polygon fill="#63b8ff" stroke="#63b8ff" points="740.41,-293.94 741.73,-283.43 734.15,-290.82 740.41,-293.94"/>
</a>
</g>
</g>
<!-- Node11 -->
<g id="Node000011" class="node">
<title>Node11</title>
<g id="a_Node000011"><a xlink:href="class_fiea_1_1_engine_1_1_game_object.html#aeb4c9ee0a186812977cff531f215fdb0" target="_top" xlink:title=" ">
<polygon fill="white" stroke="#666666" points="649,-232 517.5,-232 517.5,-200 649,-200 649,-232"/>
<text xml:space="preserve" text-anchor="start" x="525.5" y="-218.5" font-family="Helvetica,sans-Serif" font-size="10.00">Fiea::Engine::GameObject</text>
<text xml:space="preserve" text-anchor="middle" x="583.25" y="-206.5" font-family="Helvetica,sans-Serif" font-size="10.00">::GameObject</text>
</a>
</g>
</g>
<!-- Node1&#45;&gt;Node11 -->
<g id="edge11_Node000001_Node000011" class="edge">
<title>Node1&#45;&gt;Node11</title>
<g id="a_edge11_Node000001_Node000011"><a xlink:title=" ">
<path fill="none" stroke="#63b8ff" d="M684.69,-246.34C669.52,-241.76 653.51,-236.92 638.85,-232.49"/>
<polygon fill="#63b8ff" stroke="#63b8ff" points="683.53,-249.65 694.11,-249.19 685.55,-242.95 683.53,-249.65"/>
</a>
</g>
</g>
<!-- Node12 -->
<g id="Node000012" class="node">
<title>Node12</title>
<g id="a_Node000012"><a xlink:href="class_fiea_1_1_engine_1_1_game_object.html#a2adc27af5b27d639b5169af46c43e6e0" target="_top" xlink:title=" ">
<polygon fill="white" stroke="#666666" points="649,-182 517.5,-182 517.5,-150 649,-150 649,-182"/>
<text xml:space="preserve" text-anchor="start" x="525.5" y="-168.5" font-family="Helvetica,sans-Serif" font-size="10.00">Fiea::Engine::GameObject</text>
<text xml:space="preserve" text-anchor="middle" x="583.25" y="-156.5" font-family="Helvetica,sans-Serif" font-size="10.00">::GameObject</text>
</a>
</g>
</g>
<!-- Node1&#45;&gt;Node12 -->
<g id="edge12_Node000001_Node000012" class="edge">
<title>Node1&#45;&gt;Node12</title>
<g id="a_edge12_Node000001_Node000012"><a xlink:title=" ">
<path fill="none" stroke="#63b8ff" d="M722.48,-242.49C702.96,-226.49 675.54,-205.64 649,-191 643.41,-187.91 637.36,-185.04 631.27,-182.41"/>
<polygon fill="#63b8ff" stroke="#63b8ff" points="720.03,-245.01 729.96,-248.72 724.51,-239.63 720.03,-245.01"/>
</a>
</g>
</g>
<!-- Node13 -->
<g id="Node000013" class="node">
<title>Node13</title>
<g id="a_Node000013"><a xlink:href="class_fiea_1_1_engine_1_1_game_object.html#a419444f6d624e97d5287ffe2c481d67a" target="_top" xlink:title=" ">
<polygon fill="white" stroke="#666666" points="649,-332 517.5,-332 517.5,-300 649,-300 649,-332"/>
<text xml:space="preserve" text-anchor="start" x="525.5" y="-318.5" font-family="Helvetica,sans-Serif" font-size="10.00">Fiea::Engine::GameObject</text>
<text xml:space="preserve" text-anchor="middle" x="583.25" y="-306.5" font-family="Helvetica,sans-Serif" font-size="10.00">::GetChild</text>
</a>
</g>
</g>
<!-- Node1&#45;&gt;Node13 -->
<g id="edge13_Node000001_Node000013" class="edge">
<title>Node1&#45;&gt;Node13</title>
<g id="a_edge13_Node000001_Node000013"><a xlink:title=" ">
<path fill="none" stroke="#63b8ff" d="M684.69,-285.66C669.52,-290.24 653.51,-295.08 638.85,-299.51"/>
<polygon fill="#63b8ff" stroke="#63b8ff" points="685.55,-289.05 694.11,-282.81 683.53,-282.35 685.55,-289.05"/>
</a>
</g>
</g>
<!-- Node15 -->
<g id="Node000015" class="node">
<title>Node15</title>
<g id="a_Node000015"><a xlink:href="class_fiea_1_1_engine_1_1_game_object.html#a71dfc1fae65a0519cd631b680e40b1b9" target="_top" xlink:title=" ">
<polygon fill="white" stroke="#666666" points="649,-132 517.5,-132 517.5,-100 649,-100 649,-132"/>
<text xml:space="preserve" text-anchor="start" x="525.5" y="-118.5" font-family="Helvetica,sans-Serif" font-size="10.00">Fiea::Engine::GameObject</text>
<text xml:space="preserve" text-anchor="middle" x="583.25" y="-106.5" font-family="Helvetica,sans-Serif" font-size="10.00">::operator=</text>
</a>
</g>
</g>
<!-- Node1&#45;&gt;Node15 -->
<g id="edge16_Node000001_Node000015" class="edge">
<title>Node1&#45;&gt;Node15</title>
<g id="a_edge16_Node000001_Node000015"><a xlink:title=" ">
<path fill="none" stroke="#63b8ff" d="M734.62,-240C717.18,-212.08 686.1,-168.07 649,-141 644.62,-137.8 639.78,-134.96 634.77,-132.44"/>
<polygon fill="#63b8ff" stroke="#63b8ff" points="731.43,-241.5 739.62,-248.21 737.4,-237.85 731.43,-241.5"/>
</a>
</g>
</g>
<!-- Node16 -->
<g id="Node000016" class="node">
<title>Node16</title>
<g id="a_Node000016"><a xlink:href="class_fiea_1_1_engine_1_1_game_object.html#aeba25685ae5ae7ca60c620e14b7efc10" target="_top" xlink:title=" ">
<polygon fill="white" stroke="#666666" points="649,-82 517.5,-82 517.5,-50 649,-50 649,-82"/>
<text xml:space="preserve" text-anchor="start" x="525.5" y="-68.5" font-family="Helvetica,sans-Serif" font-size="10.00">Fiea::Engine::GameObject</text>
<text xml:space="preserve" text-anchor="middle" x="583.25" y="-56.5" font-family="Helvetica,sans-Serif" font-size="10.00">::operator=</text>
</a>
</g>
</g>
<!-- Node1&#45;&gt;Node16 -->
<g id="edge17_Node000001_Node000016" class="edge">
<title>Node1&#45;&gt;Node16</title>
<g id="a_edge17_Node000001_Node000016"><a xlink:title=" ">
<path fill="none" stroke="#63b8ff" d="M740.71,-238.81C726.76,-200.76 696.53,-131.72 649,-91 645.25,-87.79 641.04,-84.96 636.61,-82.48"/>
<polygon fill="#63b8ff" stroke="#63b8ff" points="737.38,-239.87 744.01,-248.13 743.97,-237.54 737.38,-239.87"/>
</a>
</g>
</g>
<!-- Node17 -->
<g id="Node000017" class="node">
<title>Node17</title>
<g id="a_Node000017"><a xlink:href="class_fiea_1_1_engine_1_1_game_object.html#afb652b102eac13f7e03e86c64513517e" target="_top" xlink:title=" ">
<polygon fill="white" stroke="#666666" points="649,-500 517.5,-500 517.5,-468 649,-468 649,-500"/>
<text xml:space="preserve" text-anchor="start" x="525.5" y="-486.5" font-family="Helvetica,sans-Serif" font-size="10.00">Fiea::Engine::GameObject</text>
<text xml:space="preserve" text-anchor="middle" x="583.25" y="-474.5" font-family="Helvetica,sans-Serif" font-size="10.00">::RemoveChild</text>
</a>
</g>
</g>
<!-- Node1&#45;&gt;Node17 -->
<g id="edge18_Node000001_Node000017" class="edge">
<title>Node1&#45;&gt;Node17</title>
<g id="a_edge18_Node000001_Node000017"><a xlink:title=" ">
<path fill="none" stroke="#63b8ff" d="M742.31,-293.28C729.72,-334.59 700.42,-413.07 649,-459 645.32,-462.29 641.15,-465.17 636.75,-467.68"/>
<polygon fill="#63b8ff" stroke="#63b8ff" points="745.61,-294.47 745.06,-283.89 738.89,-292.5 745.61,-294.47"/>
</a>
</g>
</g>
<!-- Node18 -->
<g id="Node000018" class="node">
<title>Node18</title>
<g id="a_Node000018"><a xlink:href="class_fiea_1_1_engine_1_1_game_object.html#a98e7dc26718acd4dba6f1b5bbe0483b8" target="_top" xlink:title=" ">
<polygon fill="white" stroke="#666666" points="649,-382 517.5,-382 517.5,-350 649,-350 649,-382"/>
<text xml:space="preserve" text-anchor="start" x="525.5" y="-368.5" font-family="Helvetica,sans-Serif" font-size="10.00">Fiea::Engine::GameObject</text>
<text xml:space="preserve" text-anchor="middle" x="583.25" y="-356.5" font-family="Helvetica,sans-Serif" font-size="10.00">::Update</text>
</a>
</g>
</g>
<!-- Node1&#45;&gt;Node18 -->
<g id="edge20_Node000001_Node000018" class="edge">
<title>Node1&#45;&gt;Node18</title>
<g id="a_edge20_Node000001_Node000018"><a xlink:title=" ">
<path fill="none" stroke="#63b8ff" d="M722.48,-289.51C702.96,-305.51 675.54,-326.36 649,-341 643.41,-344.09 637.36,-346.96 631.27,-349.59"/>
<polygon fill="#63b8ff" stroke="#63b8ff" points="724.51,-292.37 729.96,-283.28 720.03,-286.99 724.51,-292.37"/>
</a>
</g>
</g>
<!-- Node19 -->
<g id="Node000019" class="node">
<title>Node19</title>
<g id="a_Node000019"><a xlink:href="class_fiea_1_1_engine_1_1_game_object.html#a1f8d16161e4a05e88b18e0615b864991" target="_top" xlink:title=" ">
<polygon fill="white" stroke="#666666" points="649,-32 517.5,-32 517.5,0 649,0 649,-32"/>
<text xml:space="preserve" text-anchor="start" x="525.5" y="-18.5" font-family="Helvetica,sans-Serif" font-size="10.00">Fiea::Engine::GameObject</text>
<text xml:space="preserve" text-anchor="middle" x="583.25" y="-6.5" font-family="Helvetica,sans-Serif" font-size="10.00">::~GameObject</text>
</a>
</g>
</g>
<!-- Node1&#45;&gt;Node19 -->
<g id="edge24_Node000001_Node000019" class="edge">
<title>Node1&#45;&gt;Node19</title>
<g id="a_edge24_Node000001_Node000019"><a xlink:title=" ">
<path fill="none" stroke="#63b8ff" d="M744.58,-238.62C734.38,-191.89 707.41,-96.42 649,-41 645.59,-37.77 641.72,-34.94 637.6,-32.46"/>
<polygon fill="#63b8ff" stroke="#63b8ff" points="741.1,-239.1 746.56,-248.18 747.95,-237.68 741.1,-239.1"/>
</a>
</g>
</g>
<!-- Node3 -->
<g id="Node000003" class="node">
<title>Node3</title>
<g id="a_Node000003"><a xlink:href="class_fiea_1_1_engine_1_1_content_1_1_scope_writer.html#a707086401a09fd8b2f07d65a1f95fd72" target="_top" xlink:title=" ">
<polygon fill="white" stroke="#666666" points="481.5,-550 328.25,-550 328.25,-518 481.5,-518 481.5,-550"/>
<text xml:space="preserve" text-anchor="start" x="336.25" y="-536.5" font-family="Helvetica,sans-Serif" font-size="10.00">Fiea::Engine::Content</text>
<text xml:space="preserve" text-anchor="middle" x="404.88" y="-524.5" font-family="Helvetica,sans-Serif" font-size="10.00">::ScopeWriter::AddGameObject</text>
</a>
</g>
</g>
<!-- Node2&#45;&gt;Node3 -->
<g id="edge2_Node000002_Node000003" class="edge">
<title>Node2&#45;&gt;Node3</title>
<g id="a_edge2_Node000002_Node000003"><a xlink:title=" ">
<path fill="none" stroke="#63b8ff" d="M505.62,-534C497.72,-534 489.7,-534 481.81,-534"/>
<polygon fill="#63b8ff" stroke="#63b8ff" points="505.56,-537.5 515.56,-534 505.56,-530.5 505.56,-537.5"/>
</a>
</g>
</g>
<!-- Node8 -->
<g id="Node000008" class="node">
<title>Node8</title>
<g id="a_Node000008"><a xlink:href="namespace_fiea_1_1_engine_1_1_tests.html#a34b2b8dfbe4f7aa6a3ea0a5f24db384f" target="_top" xlink:title=" ">
<polygon fill="white" stroke="#666666" points="455.25,-450 354.5,-450 354.5,-418 455.25,-418 455.25,-450"/>
<text xml:space="preserve" text-anchor="start" x="362.5" y="-436.5" font-family="Helvetica,sans-Serif" font-size="10.00">Fiea::Engine::Tests</text>
<text xml:space="preserve" text-anchor="middle" x="404.88" y="-424.5" font-family="Helvetica,sans-Serif" font-size="10.00">::TEST_CLASS</text>
</a>
</g>
</g>
<!-- Node2&#45;&gt;Node8 -->
<g id="edge7_Node000002_Node000008" class="edge">
<title>Node2&#45;&gt;Node8</title>
<g id="a_edge7_Node000002_Node000008"><a xlink:title=" ">
<path fill="none" stroke="#63b8ff" d="M525.73,-513.05C522.92,-511.74 520.16,-510.39 517.5,-509 484.37,-491.75 449.05,-466.76 427.22,-450.45"/>
<polygon fill="#63b8ff" stroke="#63b8ff" points="524.11,-516.16 534.67,-517.01 526.94,-509.76 524.11,-516.16"/>
</a>
</g>
</g>
<!-- Node4 -->
<g id="Node000004" class="node">
<title>Node4</title>
<g id="a_Node000004"><a xlink:href="class_fiea_1_1_engine_1_1_content_1_1_scope_writer.html#a77fe1b124acb1dd1bd3f2d7f104035cf" target="_top" xlink:title=" ">
<polygon fill="white" stroke="#666666" points="292.25,-550 166,-550 166,-518 292.25,-518 292.25,-550"/>
<text xml:space="preserve" text-anchor="start" x="174" y="-536.5" font-family="Helvetica,sans-Serif" font-size="10.00">Fiea::Engine::Content</text>
<text xml:space="preserve" text-anchor="middle" x="229.12" y="-524.5" font-family="Helvetica,sans-Serif" font-size="10.00">::ScopeWriter::AddScope</text>
</a>
</g>
</g>
<!-- Node3&#45;&gt;Node4 -->
<g id="edge3_Node000003_Node000004" class="edge">
<title>Node3&#45;&gt;Node4</title>
<g id="a_edge3_Node000003_Node000004"><a xlink:title=" ">
<path fill="none" stroke="#63b8ff" d="M316.54,-534C308.48,-534 300.42,-534 292.65,-534"/>
<polygon fill="#63b8ff" stroke="#63b8ff" points="316.4,-537.5 326.4,-534 316.4,-530.5 316.4,-537.5"/>
</a>
</g>
</g>
<!-- Node5 -->
<g id="Node000005" class="node">
<title>Node5</title>
<g id="a_Node000005"><a xlink:href="class_fiea_1_1_engine_1_1_content_1_1_game_object_handler.html#a626573aebcd7beceb84dbd69bc15105b" target="_top" xlink:title=" ">
<polygon fill="white" stroke="#666666" points="123.25,-618 6.75,-618 6.75,-574 123.25,-574 123.25,-618"/>
<text xml:space="preserve" text-anchor="start" x="14.75" y="-604.5" font-family="Helvetica,sans-Serif" font-size="10.00">Fiea::Engine::Content</text>
<text xml:space="preserve" text-anchor="start" x="14.75" y="-592.5" font-family="Helvetica,sans-Serif" font-size="10.00">::GameObjectHandler::</text>
<text xml:space="preserve" text-anchor="middle" x="65" y="-580.5" font-family="Helvetica,sans-Serif" font-size="10.00">EnterKey</text>
</a>
</g>
</g>
<!-- Node4&#45;&gt;Node5 -->
<g id="edge4_Node000004_Node000005" class="edge">
<title>Node4&#45;&gt;Node5</title>
<g id="a_edge4_Node000004_Node000005"><a xlink:title=" ">
<path fill="none" stroke="#63b8ff" d="M174.63,-554.46C158.27,-560.72 140.2,-567.62 123.58,-573.98"/>
<polygon fill="#63b8ff" stroke="#63b8ff" points="175.6,-557.83 183.69,-550.99 173.1,-551.3 175.6,-557.83"/>
</a>
</g>
</g>
<!-- Node6 -->
<g id="Node000006" class="node">
<title>Node6</title>
<g id="a_Node000006"><a xlink:href="class_fiea_1_1_engine_1_1_content_1_1_scope_factory_handler.html#ae5e7d2b134d20238fa9be43f936bf80b" target="_top" xlink:title=" ">
<polygon fill="white" stroke="#666666" points="123.25,-556 6.75,-556 6.75,-512 123.25,-512 123.25,-556"/>
<text xml:space="preserve" text-anchor="start" x="14.75" y="-542.5" font-family="Helvetica,sans-Serif" font-size="10.00">Fiea::Engine::Content</text>
<text xml:space="preserve" text-anchor="start" x="14.75" y="-530.5" font-family="Helvetica,sans-Serif" font-size="10.00">::ScopeFactoryHandler</text>
<text xml:space="preserve" text-anchor="middle" x="65" y="-518.5" font-family="Helvetica,sans-Serif" font-size="10.00">::EnterKey</text>
</a>
</g>
</g>
<!-- Node4&#45;&gt;Node6 -->
<g id="edge5_Node000004_Node000006" class="edge">
<title>Node4&#45;&gt;Node6</title>
<g id="a_edge5_Node000004_Node000006"><a xlink:title=" ">
<path fill="none" stroke="#63b8ff" d="M154.67,-534C144.23,-534 133.61,-534 123.53,-534"/>
<polygon fill="#63b8ff" stroke="#63b8ff" points="154.39,-537.5 164.39,-534 154.39,-530.5 154.39,-537.5"/>
</a>
</g>
</g>
<!-- Node7 -->
<g id="Node000007" class="node">
<title>Node7</title>
<g id="a_Node000007"><a xlink:href="class_fiea_1_1_engine_1_1_content_1_1_scope_handler.html#a593999f6a2df6002af8db4629d8a0176" target="_top" xlink:title=" ">
<polygon fill="white" stroke="#666666" points="130,-494 0,-494 0,-462 130,-462 130,-494"/>
<text xml:space="preserve" text-anchor="start" x="8" y="-480.5" font-family="Helvetica,sans-Serif" font-size="10.00">Fiea::Engine::Content</text>
<text xml:space="preserve" text-anchor="middle" x="65" y="-468.5" font-family="Helvetica,sans-Serif" font-size="10.00">::ScopeHandler::EnterKey</text>
</a>
</g>
</g>
<!-- Node4&#45;&gt;Node7 -->
<g id="edge6_Node000004_Node000007" class="edge">
<title>Node4&#45;&gt;Node7</title>
<g id="a_edge6_Node000004_Node000007"><a xlink:title=" ">
<path fill="none" stroke="#63b8ff" d="M169.5,-513.75C151.17,-507.42 131.18,-500.52 113.7,-494.48"/>
<polygon fill="#63b8ff" stroke="#63b8ff" points="168.33,-517.05 178.93,-517.01 170.62,-510.43 168.33,-517.05"/>
</a>
</g>
</g>
<!-- Node10&#45;&gt;Node8 -->
<g id="edge10_Node000010_Node000008" class="edge">
<title>Node10&#45;&gt;Node8</title>
<g id="a_edge10_Node000010_Node000008"><a xlink:title=" ">
<path fill="none" stroke="#63b8ff" d="M505.98,-434C488.93,-434 471.27,-434 455.62,-434"/>
<polygon fill="#63b8ff" stroke="#63b8ff" points="505.56,-437.5 515.56,-434 505.56,-430.5 505.56,-437.5"/>
</a>
</g>
</g>
<!-- Node13&#45;&gt;Node8 -->
<g id="edge14_Node000013_Node000008" class="edge">
<title>Node13&#45;&gt;Node8</title>
<g id="a_edge14_Node000013_Node000008"><a xlink:title=" ">
<path fill="none" stroke="#63b8ff" d="M524.16,-337.33C521.88,-338.51 519.65,-339.73 517.5,-341 497.82,-352.57 450.17,-394.27 423.94,-417.71"/>
<polygon fill="#63b8ff" stroke="#63b8ff" points="525.51,-340.56 533.01,-333.08 522.48,-334.25 525.51,-340.56"/>
</a>
</g>
</g>
<!-- Node14 -->
<g id="Node000014" class="node">
<title>Node14</title>
<g id="a_Node000014"><a xlink:href="namespace_fiea_1_1_engine_1_1_tests.html#a89b054e30b186f60d7f23c17503265da" target="_top" xlink:title=" ">
<polygon fill="white" stroke="#666666" points="455.25,-357 354.5,-357 354.5,-325 455.25,-325 455.25,-357"/>
<text xml:space="preserve" text-anchor="start" x="362.5" y="-343.5" font-family="Helvetica,sans-Serif" font-size="10.00">Fiea::Engine::Tests</text>
<text xml:space="preserve" text-anchor="middle" x="404.88" y="-331.5" font-family="Helvetica,sans-Serif" font-size="10.00">::TEST_CLASS</text>
</a>
</g>
</g>
<!-- Node13&#45;&gt;Node14 -->
<g id="edge15_Node000013_Node000014" class="edge">
<title>Node13&#45;&gt;Node14</title>
<g id="a_edge15_Node000013_Node000014"><a xlink:title=" ">
<path fill="none" stroke="#63b8ff" d="M505.98,-326.81C488.93,-329.23 471.27,-331.73 455.62,-333.95"/>
<polygon fill="#63b8ff" stroke="#63b8ff" points="506.17,-330.32 515.58,-325.45 505.18,-323.39 506.17,-330.32"/>
</a>
</g>
</g>
<!-- Node17&#45;&gt;Node8 -->
<g id="edge19_Node000017_Node000008" class="edge">
<title>Node17&#45;&gt;Node8</title>
<g id="a_edge19_Node000017_Node000008"><a xlink:title=" ">
<path fill="none" stroke="#63b8ff" d="M513.58,-464.53C494.2,-459.04 473.49,-453.17 455.47,-448.06"/>
<polygon fill="#63b8ff" stroke="#63b8ff" points="512.47,-467.86 523.04,-467.22 514.38,-461.12 512.47,-467.86"/>
</a>
</g>
</g>
<!-- Node18&#45;&gt;Node8 -->
<g id="edge21_Node000018_Node000008" class="edge">
<title>Node18&#45;&gt;Node8</title>
<g id="a_edge21_Node000018_Node000008"><a xlink:title=" ">
<path fill="none" stroke="#63b8ff" d="M528.84,-386.59C503.1,-396.52 472.64,-408.26 448.48,-417.57"/>
<polygon fill="#63b8ff" stroke="#63b8ff" points="530.07,-389.87 538.14,-383.01 527.55,-383.34 530.07,-389.87"/>
</a>
</g>
</g>
<!-- Node18&#45;&gt;Node14 -->
<g id="edge22_Node000018_Node000014" class="edge">
<title>Node18&#45;&gt;Node14</title>
<g id="a_edge22_Node000018_Node000014"><a xlink:title=" ">
<path fill="none" stroke="#63b8ff" d="M505.98,-355.19C488.93,-352.77 471.27,-350.27 455.62,-348.05"/>
<polygon fill="#63b8ff" stroke="#63b8ff" points="505.18,-358.61 515.58,-356.55 506.17,-351.68 505.18,-358.61"/>
</a>
</g>
</g>
<!-- Node18&#45;&gt;Node18 -->
<g id="edge23_Node000018_Node000018" class="edge">
<title>Node18&#45;&gt;Node18</title>
<g id="a_edge23_Node000018_Node000018"><a xlink:title=" ">
<path fill="none" stroke="#63b8ff" d="M611.16,-393.71C606.51,-397.48 597.2,-400 583.25,-400 557.73,-400 547.76,-391.58 553.35,-382.44"/>
<polygon fill="#63b8ff" stroke="#63b8ff" points="614.6,-394.39 612.89,-383.93 607.7,-393.17 614.6,-394.39"/>
</a>
</g>
</g>
</g>
</svg>
