<?xml version="1.0" encoding="UTF-8" standalone="no"?>
<!DOCTYPE svg PUBLIC "-//W3C//DTD SVG 1.1//EN"
 "http://www.w3.org/Graphics/SVG/1.1/DTD/svg11.dtd">
<!-- Generated by graphviz version 13.1.0 (20250701.0955)
 -->
<!-- Title: Fiea::Engine::Actions::ActionDecrement::operator= Pages: 1 -->
<svg width="964pt" height="220pt"
 viewBox="0.00 0.00 964.00 220.00" xmlns="http://www.w3.org/2000/svg" xmlns:xlink="http://www.w3.org/1999/xlink">
<g id="graph0" class="graph" transform="scale(1 1) rotate(0) translate(4 216)">
<title>Fiea::Engine::Actions::ActionDecrement::operator=</title>
<!-- Node1 -->
<g id="Node000001" class="node">
<title>Node1</title>
<g id="a_Node000001"><a xlink:title=" ">
<polygon fill="#999999" stroke="#666666" points="145,-148 0,-148 0,-116 145,-116 145,-148"/>
<text xml:space="preserve" text-anchor="start" x="8" y="-134.5" font-family="Helvetica,sans-Serif" font-size="10.00">Fiea::Engine::Actions</text>
<text xml:space="preserve" text-anchor="middle" x="72.5" y="-122.5" font-family="Helvetica,sans-Serif" font-size="10.00">::ActionDecrement::operator=</text>
</a>
</g>
</g>
<!-- Node2 -->
<g id="Node000002" class="node">
<title>Node2</title>
<g id="a_Node000002"><a xlink:href="class_fiea_1_1_engine_1_1_actions_1_1_action_decrement.html#a8197d1d77997e88be86924b47d7e95a9" target="_top" xlink:title=" ">
<polygon fill="white" stroke="#666666" points="360.5,-148 181,-148 181,-116 360.5,-116 360.5,-148"/>
<text xml:space="preserve" text-anchor="start" x="189" y="-134.5" font-family="Helvetica,sans-Serif" font-size="10.00">Fiea::Engine::Actions</text>
<text xml:space="preserve" text-anchor="middle" x="270.75" y="-122.5" font-family="Helvetica,sans-Serif" font-size="10.00">::ActionDecrement::ActionDecrement</text>
</a>
</g>
</g>
<!-- Node1&#45;&gt;Node2 -->
<g id="edge1_Node000001_Node000002" class="edge">
<title>Node1&#45;&gt;Node2</title>
<g id="a_edge1_Node000001_Node000002"><a xlink:title=" ">
<path fill="none" stroke="#63b8ff" d="M145.46,-132C153.27,-132 161.31,-132 169.38,-132"/>
<polygon fill="#63b8ff" stroke="#63b8ff" points="169.26,-135.5 179.26,-132 169.26,-128.5 169.26,-135.5"/>
</a>
</g>
</g>
<!-- Node3 -->
<g id="Node000003" class="node">
<title>Node3</title>
<g id="a_Node000003"><a xlink:href="class_fiea_1_1_engine_1_1_actions_1_1_action.html#ae2af386f7122152003b00da79393e19e" target="_top" xlink:title=" ">
<polygon fill="white" stroke="#666666" points="506.25,-170 396.5,-170 396.5,-138 506.25,-138 506.25,-170"/>
<text xml:space="preserve" text-anchor="start" x="404.5" y="-156.5" font-family="Helvetica,sans-Serif" font-size="10.00">Fiea::Engine::Actions</text>
<text xml:space="preserve" text-anchor="middle" x="451.38" y="-144.5" font-family="Helvetica,sans-Serif" font-size="10.00">::Action::Action</text>
</a>
</g>
</g>
<!-- Node2&#45;&gt;Node3 -->
<g id="edge2_Node000002_Node000003" class="edge">
<title>Node2&#45;&gt;Node3</title>
<g id="a_edge2_Node000002_Node000003"><a xlink:title=" ">
<path fill="none" stroke="#63b8ff" d="M360.8,-142.97C368.9,-143.97 377.01,-144.96 384.85,-145.93"/>
<polygon fill="#63b8ff" stroke="#63b8ff" points="384.26,-149.38 394.62,-147.13 385.12,-142.44 384.26,-149.38"/>
</a>
</g>
</g>
<!-- Node5 -->
<g id="Node000005" class="node">
<title>Node5</title>
<g id="a_Node000005"><a xlink:href="class_fiea_1_1_engine_1_1_r_t_t_i.html#a876bebbe7b3149483c43a87f55f4ea99" target="_top" xlink:title=" ">
<polygon fill="white" stroke="#666666" points="647.5,-126 549,-126 549,-94 647.5,-94 647.5,-126"/>
<text xml:space="preserve" text-anchor="start" x="557" y="-112.5" font-family="Helvetica,sans-Serif" font-size="10.00">Fiea::Engine::RTTI</text>
<text xml:space="preserve" text-anchor="middle" x="598.25" y="-100.5" font-family="Helvetica,sans-Serif" font-size="10.00">::TypeIdInstance</text>
</a>
</g>
</g>
<!-- Node2&#45;&gt;Node5 -->
<g id="edge15_Node000002_Node000005" class="edge">
<title>Node2&#45;&gt;Node5</title>
<g id="a_edge15_Node000002_Node000005"><a xlink:title=" ">
<path fill="none" stroke="#63b8ff" d="M360.69,-125.99C416.81,-122.2 487.77,-117.4 537.27,-114.05"/>
<polygon fill="#63b8ff" stroke="#63b8ff" points="537.49,-117.55 547.23,-113.38 537.02,-110.56 537.49,-117.55"/>
</a>
</g>
</g>
<!-- Node4 -->
<g id="Node000004" class="node">
<title>Node4</title>
<g id="a_Node000004"><a xlink:href="class_fiea_1_1_engine_1_1_content_1_1_attributed.html#ad1ae014235d9d8b62b36066c94164148" target="_top" xlink:title=" ">
<polygon fill="white" stroke="#666666" points="654.25,-194 542.25,-194 542.25,-162 654.25,-162 654.25,-194"/>
<text xml:space="preserve" text-anchor="start" x="550.25" y="-180.5" font-family="Helvetica,sans-Serif" font-size="10.00">Fiea::Engine::Content</text>
<text xml:space="preserve" text-anchor="middle" x="598.25" y="-168.5" font-family="Helvetica,sans-Serif" font-size="10.00">::Attributed::Attributed</text>
</a>
</g>
</g>
<!-- Node3&#45;&gt;Node4 -->
<g id="edge3_Node000003_Node000004" class="edge">
<title>Node3&#45;&gt;Node4</title>
<g id="a_edge3_Node000003_Node000004"><a xlink:title=" ">
<path fill="none" stroke="#63b8ff" d="M506.73,-163C514.59,-164.31 522.75,-165.66 530.82,-166.99"/>
<polygon fill="#63b8ff" stroke="#63b8ff" points="530.17,-170.44 540.61,-168.62 531.32,-163.53 530.17,-170.44"/>
</a>
</g>
</g>
<!-- Node3&#45;&gt;Node5 -->
<g id="edge5_Node000003_Node000005" class="edge">
<title>Node3&#45;&gt;Node5</title>
<g id="a_edge5_Node000003_Node000005"><a xlink:title=" ">
<path fill="none" stroke="#63b8ff" d="M506.32,-137.62C516.59,-134.5 527.39,-131.22 537.82,-128.05"/>
<polygon fill="#63b8ff" stroke="#63b8ff" points="538.52,-131.5 547.07,-125.24 536.48,-124.8 538.52,-131.5"/>
</a>
</g>
</g>
<!-- Node4&#45;&gt;Node4 -->
<g id="edge4_Node000004_Node000004" class="edge">
<title>Node4&#45;&gt;Node4</title>
<g id="a_edge4_Node000004_Node000004"><a xlink:title=" ">
<path fill="none" stroke="#63b8ff" d="M572.03,-194.44C567.13,-203.58 575.87,-212 598.25,-212 610.49,-212 618.65,-209.48 622.73,-205.71"/>
<polygon fill="#63b8ff" stroke="#63b8ff" points="626.17,-206.36 624.24,-195.94 619.25,-205.28 626.17,-206.36"/>
</a>
</g>
</g>
<!-- Node5&#45;&gt;Node5 -->
<g id="edge14_Node000005_Node000005" class="edge">
<title>Node5&#45;&gt;Node5</title>
<g id="a_edge14_Node000005_Node000005"><a xlink:title=" ">
<path fill="none" stroke="#63b8ff" d="M572.03,-126.44C567.13,-135.58 575.87,-144 598.25,-144 610.49,-144 618.65,-141.48 622.73,-137.71"/>
<polygon fill="#63b8ff" stroke="#63b8ff" points="626.17,-138.36 624.24,-127.94 619.25,-137.28 626.17,-138.36"/>
</a>
</g>
</g>
<!-- Node6 -->
<g id="Node000006" class="node">
<title>Node6</title>
<g id="a_Node000006"><a xlink:href="class_fiea_1_1_engine_1_1_r_t_t_i.html#a15bd5993c8ad04da47af440298ebbb30" target="_top" xlink:title=" ">
<polygon fill="white" stroke="#666666" points="806.75,-158 690.25,-158 690.25,-138 806.75,-138 806.75,-158"/>
<text xml:space="preserve" text-anchor="middle" x="748.5" y="-144.5" font-family="Helvetica,sans-Serif" font-size="10.00">Fiea::Engine::RTTI::As</text>
</a>
</g>
</g>
<!-- Node5&#45;&gt;Node6 -->
<g id="edge6_Node000005_Node000006" class="edge">
<title>Node5&#45;&gt;Node6</title>
<g id="a_edge6_Node000005_Node000006"><a xlink:title=" ">
<path fill="none" stroke="#63b8ff" d="M647.79,-122.44C663.15,-126.38 680.18,-130.74 695.75,-134.74"/>
<polygon fill="#63b8ff" stroke="#63b8ff" points="694.77,-138.1 705.32,-137.19 696.5,-131.32 694.77,-138.1"/>
</a>
</g>
</g>
<!-- Node7 -->
<g id="Node000007" class="node">
<title>Node7</title>
<g id="a_Node000007"><a xlink:href="class_fiea_1_1_engine_1_1_r_t_t_i.html#ac0a7d875e4513b2aca7594abcd4418ef" target="_top" xlink:title=" ">
<polygon fill="white" stroke="#666666" points="955.5,-180 842.75,-180 842.75,-160 955.5,-160 955.5,-180"/>
<text xml:space="preserve" text-anchor="middle" x="899.12" y="-166.5" font-family="Helvetica,sans-Serif" font-size="10.00">Fiea::Engine::RTTI::Is</text>
</a>
</g>
</g>
<!-- Node5&#45;&gt;Node7 -->
<g id="edge11_Node000005_Node000007" class="edge">
<title>Node5&#45;&gt;Node7</title>
<g id="a_edge11_Node000005_Node000007"><a xlink:title=" ">
<path fill="none" stroke="#63b8ff" d="M618.3,-126.34C635.73,-140.14 662.89,-158.93 690.25,-167 735.97,-180.5 789.85,-180.86 831.3,-178.06"/>
<polygon fill="#63b8ff" stroke="#63b8ff" points="831.43,-181.56 841.13,-177.31 830.89,-174.58 831.43,-181.56"/>
</a>
</g>
</g>
<!-- Node8 -->
<g id="Node000008" class="node">
<title>Node8</title>
<g id="a_Node000008"><a xlink:href="class_fiea_1_1_engine_1_1_r_t_t_i.html#a13000029a2e6cced30b831e466e07cae" target="_top" xlink:title=" ">
<polygon fill="white" stroke="#666666" points="948.38,-126 849.88,-126 849.88,-94 948.38,-94 948.38,-126"/>
<text xml:space="preserve" text-anchor="start" x="857.88" y="-112.5" font-family="Helvetica,sans-Serif" font-size="10.00">Fiea::Engine::RTTI</text>
<text xml:space="preserve" text-anchor="middle" x="899.12" y="-100.5" font-family="Helvetica,sans-Serif" font-size="10.00">::RTTI</text>
</a>
</g>
</g>
<!-- Node5&#45;&gt;Node8 -->
<g id="edge12_Node000005_Node000008" class="edge">
<title>Node5&#45;&gt;Node8</title>
<g id="a_edge12_Node000005_Node000008"><a xlink:title=" ">
<path fill="none" stroke="#63b8ff" d="M647.93,-110C699.82,-110 782.04,-110 837.95,-110"/>
<polygon fill="#63b8ff" stroke="#63b8ff" points="837.95,-113.5 847.95,-110 837.95,-106.5 837.95,-113.5"/>
</a>
</g>
</g>
<!-- Node9 -->
<g id="Node000009" class="node">
<title>Node9</title>
<g id="a_Node000009"><a xlink:href="class_fiea_1_1_engine_1_1_r_t_t_i.html#a7f70ad5ba0f8a3388543d63d72892575" target="_top" xlink:title=" ">
<polygon fill="white" stroke="#666666" points="797.75,-82 699.25,-82 699.25,-50 797.75,-50 797.75,-82"/>
<text xml:space="preserve" text-anchor="start" x="707.25" y="-68.5" font-family="Helvetica,sans-Serif" font-size="10.00">Fiea::Engine::RTTI</text>
<text xml:space="preserve" text-anchor="middle" x="748.5" y="-56.5" font-family="Helvetica,sans-Serif" font-size="10.00">::Equals</text>
</a>
</g>
</g>
<!-- Node5&#45;&gt;Node9 -->
<g id="edge9_Node000005_Node000009" class="edge">
<title>Node5&#45;&gt;Node9</title>
<g id="a_edge9_Node000005_Node000009"><a xlink:title=" ">
<path fill="none" stroke="#63b8ff" d="M647.79,-95.59C660.59,-91.79 674.55,-87.65 687.86,-83.7"/>
<polygon fill="#63b8ff" stroke="#63b8ff" points="688.81,-87.07 697.4,-80.87 686.81,-80.36 688.81,-87.07"/>
</a>
</g>
</g>
<!-- Node10 -->
<g id="Node000010" class="node">
<title>Node10</title>
<g id="a_Node000010"><a xlink:href="class_fiea_1_1_engine_1_1_r_t_t_i.html#a43a7d187e332a17d2c699bc2c8136a30" target="_top" xlink:title=" ">
<polygon fill="white" stroke="#666666" points="797.75,-32 699.25,-32 699.25,0 797.75,0 797.75,-32"/>
<text xml:space="preserve" text-anchor="start" x="707.25" y="-18.5" font-family="Helvetica,sans-Serif" font-size="10.00">Fiea::Engine::RTTI</text>
<text xml:space="preserve" text-anchor="middle" x="748.5" y="-6.5" font-family="Helvetica,sans-Serif" font-size="10.00">::ToString</text>
</a>
</g>
</g>
<!-- Node5&#45;&gt;Node10 -->
<g id="edge13_Node000005_Node000010" class="edge">
<title>Node5&#45;&gt;Node10</title>
<g id="a_edge13_Node000005_Node000010"><a xlink:title=" ">
<path fill="none" stroke="#63b8ff" d="M618.19,-93.51C635.97,-78.56 663.74,-56.54 690.25,-41 692.26,-39.82 694.34,-38.66 696.45,-37.53"/>
<polygon fill="#63b8ff" stroke="#63b8ff" points="697.84,-40.75 705.21,-33.13 694.7,-34.5 697.84,-40.75"/>
</a>
</g>
</g>
<!-- Node6&#45;&gt;Node7 -->
<g id="edge7_Node000006_Node000007" class="edge">
<title>Node6&#45;&gt;Node7</title>
<g id="a_edge7_Node000006_Node000007"><a xlink:title=" ">
<path fill="none" stroke="#63b8ff" d="M806.96,-156.51C814.85,-157.67 823,-158.88 831.03,-160.07"/>
<polygon fill="#63b8ff" stroke="#63b8ff" points="830.38,-163.51 840.78,-161.51 831.41,-156.59 830.38,-163.51"/>
</a>
</g>
</g>
<!-- Node6&#45;&gt;Node8 -->
<g id="edge8_Node000006_Node000008" class="edge">
<title>Node6&#45;&gt;Node8</title>
<g id="a_edge8_Node000006_Node000008"><a xlink:title=" ">
<path fill="none" stroke="#63b8ff" d="M790.51,-137.52C805.38,-133.71 822.49,-129.34 838.63,-125.21"/>
<polygon fill="#63b8ff" stroke="#63b8ff" points="839.32,-128.65 848.14,-122.78 837.59,-121.87 839.32,-128.65"/>
</a>
</g>
</g>
<!-- Node9&#45;&gt;Node8 -->
<g id="edge10_Node000009_Node000008" class="edge">
<title>Node9&#45;&gt;Node8</title>
<g id="a_edge10_Node000009_Node000008"><a xlink:title=" ">
<path fill="none" stroke="#63b8ff" d="M798.17,-80.41C811.19,-84.26 825.42,-88.47 838.94,-92.48"/>
<polygon fill="#63b8ff" stroke="#63b8ff" points="837.57,-95.72 848.15,-95.21 839.56,-89.01 837.57,-95.72"/>
</a>
</g>
</g>
</g>
</svg>
