<?xml version="1.0" encoding="UTF-8" standalone="no"?>
<!DOCTYPE svg PUBLIC "-//W3C//DTD SVG 1.1//EN"
 "http://www.w3.org/Graphics/SVG/1.1/DTD/svg11.dtd">
<!-- Generated by graphviz version 13.1.0 (20250701.0955)
 -->
<!-- Title: Fiea::Engine::Actions::Action Pages: 1 -->
<svg width="872pt" height="440pt"
 viewBox="0.00 0.00 872.00 440.00" xmlns="http://www.w3.org/2000/svg" xmlns:xlink="http://www.w3.org/1999/xlink">
<g id="graph0" class="graph" transform="scale(1 1) rotate(0) translate(4 436)">
<title>Fiea::Engine::Actions::Action</title>
<!-- Node1 -->
<g id="Node000001" class="node">
<title>Node1</title>
<g id="a_Node000001"><a xlink:title=" ">
<polygon fill="#999999" stroke="#666666" points="538.75,-232 429,-232 429,-200 538.75,-200 538.75,-232"/>
<text xml:space="preserve" text-anchor="start" x="437" y="-218.5" font-family="Helvetica,sans-Serif" font-size="10.00">Fiea::Engine::Actions</text>
<text xml:space="preserve" text-anchor="middle" x="483.88" y="-206.5" font-family="Helvetica,sans-Serif" font-size="10.00">::Action</text>
</a>
</g>
</g>
<!-- Node5 -->
<g id="Node000005" class="node">
<title>Node5</title>
<g id="a_Node000005"><a xlink:href="class_fiea_1_1_engine_1_1_actions_1_1_action_add_datum.html" target="_top" xlink:title=" ">
<polygon fill="white" stroke="#666666" points="700.62,-432 590.88,-432 590.88,-400 700.62,-400 700.62,-432"/>
<text xml:space="preserve" text-anchor="start" x="598.88" y="-418.5" font-family="Helvetica,sans-Serif" font-size="10.00">Fiea::Engine::Actions</text>
<text xml:space="preserve" text-anchor="middle" x="645.75" y="-406.5" font-family="Helvetica,sans-Serif" font-size="10.00">::ActionAddDatum</text>
</a>
</g>
</g>
<!-- Node1&#45;&gt;Node5 -->
<g id="edge4_Node000001_Node000005" class="edge">
<title>Node1&#45;&gt;Node5</title>
<g id="a_edge4_Node000001_Node000005"><a xlink:title=" ">
<path fill="none" stroke="#63b8ff" d="M491.9,-243.05C503.16,-281.21 528.78,-350.71 574.75,-391 579.41,-395.08 584.78,-398.51 590.44,-401.39"/>
<polygon fill="#63b8ff" stroke="#63b8ff" points="495.36,-242.4 489.27,-233.73 488.62,-244.3 495.36,-242.4"/>
</a>
</g>
</g>
<!-- Node6 -->
<g id="Node000006" class="node">
<title>Node6</title>
<g id="a_Node000006"><a xlink:href="class_fiea_1_1_engine_1_1_actions_1_1_action_condition.html" target="_top" xlink:title=" ">
<polygon fill="white" stroke="#666666" points="700.62,-382 590.88,-382 590.88,-350 700.62,-350 700.62,-382"/>
<text xml:space="preserve" text-anchor="start" x="598.88" y="-368.5" font-family="Helvetica,sans-Serif" font-size="10.00">Fiea::Engine::Actions</text>
<text xml:space="preserve" text-anchor="middle" x="645.75" y="-356.5" font-family="Helvetica,sans-Serif" font-size="10.00">::ActionCondition</text>
</a>
</g>
</g>
<!-- Node1&#45;&gt;Node6 -->
<g id="edge5_Node000001_Node000006" class="edge">
<title>Node1&#45;&gt;Node6</title>
<g id="a_edge5_Node000001_Node000006"><a xlink:title=" ">
<path fill="none" stroke="#63b8ff" d="M497.53,-242.14C512.39,-270.25 539.53,-314.49 574.75,-341 579.6,-344.65 585.02,-347.8 590.65,-350.51"/>
<polygon fill="#63b8ff" stroke="#63b8ff" points="500.82,-240.87 493.14,-233.57 494.59,-244.06 500.82,-240.87"/>
</a>
</g>
</g>
<!-- Node7 -->
<g id="Node000007" class="node">
<title>Node7</title>
<g id="a_Node000007"><a xlink:href="class_fiea_1_1_engine_1_1_actions_1_1_action_conditional_increment.html" target="_top" xlink:title=" ">
<polygon fill="white" stroke="#666666" points="716.75,-332 574.75,-332 574.75,-300 716.75,-300 716.75,-332"/>
<text xml:space="preserve" text-anchor="start" x="582.75" y="-318.5" font-family="Helvetica,sans-Serif" font-size="10.00">Fiea::Engine::Actions</text>
<text xml:space="preserve" text-anchor="middle" x="645.75" y="-306.5" font-family="Helvetica,sans-Serif" font-size="10.00">::ActionConditionalIncrement</text>
</a>
</g>
</g>
<!-- Node1&#45;&gt;Node7 -->
<g id="edge6_Node000001_Node000007" class="edge">
<title>Node1&#45;&gt;Node7</title>
<g id="a_edge6_Node000001_Node000007"><a xlink:title=" ">
<path fill="none" stroke="#63b8ff" d="M509.05,-240.26C526.2,-256.39 550.41,-277.09 574.75,-291 580.24,-294.14 586.19,-296.99 592.23,-299.55"/>
<polygon fill="#63b8ff" stroke="#63b8ff" points="511.5,-237.75 501.86,-233.35 506.65,-242.8 511.5,-237.75"/>
</a>
</g>
</g>
<!-- Node8 -->
<g id="Node000008" class="node">
<title>Node8</title>
<g id="a_Node000008"><a xlink:href="class_fiea_1_1_engine_1_1_actions_1_1_action_decrement.html" target="_top" xlink:title=" ">
<polygon fill="white" stroke="#666666" points="700.62,-282 590.88,-282 590.88,-250 700.62,-250 700.62,-282"/>
<text xml:space="preserve" text-anchor="start" x="598.88" y="-268.5" font-family="Helvetica,sans-Serif" font-size="10.00">Fiea::Engine::Actions</text>
<text xml:space="preserve" text-anchor="middle" x="645.75" y="-256.5" font-family="Helvetica,sans-Serif" font-size="10.00">::ActionDecrement</text>
</a>
</g>
</g>
<!-- Node1&#45;&gt;Node8 -->
<g id="edge7_Node000001_Node000008" class="edge">
<title>Node1&#45;&gt;Node8</title>
<g id="a_edge7_Node000001_Node000008"><a xlink:title=" ">
<path fill="none" stroke="#63b8ff" d="M548.15,-235.79C562.68,-240.33 577.98,-245.12 592.01,-249.51"/>
<polygon fill="#63b8ff" stroke="#63b8ff" points="549.26,-232.47 538.67,-232.82 547.17,-239.15 549.26,-232.47"/>
</a>
</g>
</g>
<!-- Node9 -->
<g id="Node000009" class="node">
<title>Node9</title>
<g id="a_Node000009"><a xlink:href="class_fiea_1_1_engine_1_1_actions_1_1_action_increment.html" target="_top" xlink:title=" ">
<polygon fill="white" stroke="#666666" points="700.62,-232 590.88,-232 590.88,-200 700.62,-200 700.62,-232"/>
<text xml:space="preserve" text-anchor="start" x="598.88" y="-218.5" font-family="Helvetica,sans-Serif" font-size="10.00">Fiea::Engine::Actions</text>
<text xml:space="preserve" text-anchor="middle" x="645.75" y="-206.5" font-family="Helvetica,sans-Serif" font-size="10.00">::ActionIncrement</text>
</a>
</g>
</g>
<!-- Node1&#45;&gt;Node9 -->
<g id="edge8_Node000001_Node000009" class="edge">
<title>Node1&#45;&gt;Node9</title>
<g id="a_edge8_Node000001_Node000009"><a xlink:title=" ">
<path fill="none" stroke="#63b8ff" d="M550.49,-216C563.76,-216 577.57,-216 590.41,-216"/>
<polygon fill="#63b8ff" stroke="#63b8ff" points="550.51,-212.5 540.51,-216 550.51,-219.5 550.51,-212.5"/>
</a>
</g>
</g>
<!-- Node10 -->
<g id="Node000010" class="node">
<title>Node10</title>
<g id="a_Node000010"><a xlink:href="class_fiea_1_1_engine_1_1_actions_1_1_action_list.html" target="_top" xlink:title=" ">
<polygon fill="white" stroke="#666666" points="700.62,-182 590.88,-182 590.88,-150 700.62,-150 700.62,-182"/>
<text xml:space="preserve" text-anchor="start" x="598.88" y="-168.5" font-family="Helvetica,sans-Serif" font-size="10.00">Fiea::Engine::Actions</text>
<text xml:space="preserve" text-anchor="middle" x="645.75" y="-156.5" font-family="Helvetica,sans-Serif" font-size="10.00">::ActionList</text>
</a>
</g>
</g>
<!-- Node1&#45;&gt;Node10 -->
<g id="edge9_Node000001_Node000010" class="edge">
<title>Node1&#45;&gt;Node10</title>
<g id="a_edge9_Node000001_Node000010"><a xlink:title=" ">
<path fill="none" stroke="#63b8ff" d="M548.15,-196.21C562.68,-191.67 577.98,-186.88 592.01,-182.49"/>
<polygon fill="#63b8ff" stroke="#63b8ff" points="547.17,-192.85 538.67,-199.18 549.26,-199.53 547.17,-192.85"/>
</a>
</g>
</g>
<!-- Node14 -->
<g id="Node000014" class="node">
<title>Node14</title>
<g id="a_Node000014"><a xlink:href="class_fiea_1_1_engine_1_1_actions_1_1_action_loop_increment.html" target="_top" xlink:title=" ">
<polygon fill="white" stroke="#666666" points="702.88,-132 588.62,-132 588.62,-100 702.88,-100 702.88,-132"/>
<text xml:space="preserve" text-anchor="start" x="596.62" y="-118.5" font-family="Helvetica,sans-Serif" font-size="10.00">Fiea::Engine::Actions</text>
<text xml:space="preserve" text-anchor="middle" x="645.75" y="-106.5" font-family="Helvetica,sans-Serif" font-size="10.00">::ActionLoopIncrement</text>
</a>
</g>
</g>
<!-- Node1&#45;&gt;Node14 -->
<g id="edge13_Node000001_Node000014" class="edge">
<title>Node1&#45;&gt;Node14</title>
<g id="a_edge13_Node000001_Node000014"><a xlink:title=" ">
<path fill="none" stroke="#63b8ff" d="M509.05,-191.74C526.2,-175.61 550.41,-154.91 574.75,-141 580.24,-137.86 586.19,-135.01 592.23,-132.45"/>
<polygon fill="#63b8ff" stroke="#63b8ff" points="506.65,-189.2 501.86,-198.65 511.5,-194.25 506.65,-189.2"/>
</a>
</g>
</g>
<!-- Node15 -->
<g id="Node000015" class="node">
<title>Node15</title>
<g id="a_Node000015"><a xlink:href="class_fiea_1_1_engine_1_1_actions_1_1_action_output.html" target="_top" xlink:title=" ">
<polygon fill="white" stroke="#666666" points="700.62,-82 590.88,-82 590.88,-50 700.62,-50 700.62,-82"/>
<text xml:space="preserve" text-anchor="start" x="598.88" y="-68.5" font-family="Helvetica,sans-Serif" font-size="10.00">Fiea::Engine::Actions</text>
<text xml:space="preserve" text-anchor="middle" x="645.75" y="-56.5" font-family="Helvetica,sans-Serif" font-size="10.00">::ActionOutput</text>
</a>
</g>
</g>
<!-- Node1&#45;&gt;Node15 -->
<g id="edge14_Node000001_Node000015" class="edge">
<title>Node1&#45;&gt;Node15</title>
<g id="a_edge14_Node000001_Node000015"><a xlink:title=" ">
<path fill="none" stroke="#63b8ff" d="M497.53,-189.86C512.39,-161.75 539.53,-117.51 574.75,-91 579.6,-87.35 585.02,-84.2 590.65,-81.49"/>
<polygon fill="#63b8ff" stroke="#63b8ff" points="494.59,-187.94 493.14,-198.43 500.82,-191.13 494.59,-187.94"/>
</a>
</g>
</g>
<!-- Node16 -->
<g id="Node000016" class="node">
<title>Node16</title>
<g id="a_Node000016"><a xlink:href="class_fiea_1_1_engine_1_1_actions_1_1_action_preamble.html" target="_top" xlink:title=" ">
<polygon fill="white" stroke="#666666" points="700.62,-32 590.88,-32 590.88,0 700.62,0 700.62,-32"/>
<text xml:space="preserve" text-anchor="start" x="598.88" y="-18.5" font-family="Helvetica,sans-Serif" font-size="10.00">Fiea::Engine::Actions</text>
<text xml:space="preserve" text-anchor="middle" x="645.75" y="-6.5" font-family="Helvetica,sans-Serif" font-size="10.00">::ActionPreamble</text>
</a>
</g>
</g>
<!-- Node1&#45;&gt;Node16 -->
<g id="edge15_Node000001_Node000016" class="edge">
<title>Node1&#45;&gt;Node16</title>
<g id="a_edge15_Node000001_Node000016"><a xlink:title=" ">
<path fill="none" stroke="#63b8ff" d="M491.9,-188.95C503.16,-150.79 528.78,-81.29 574.75,-41 579.41,-36.92 584.78,-33.49 590.44,-30.61"/>
<polygon fill="#63b8ff" stroke="#63b8ff" points="488.62,-187.7 489.27,-198.27 495.36,-189.6 488.62,-187.7"/>
</a>
</g>
</g>
<!-- Node2 -->
<g id="Node000002" class="node">
<title>Node2</title>
<g id="a_Node000002"><a xlink:href="class_fiea_1_1_engine_1_1_content_1_1_attributed.html" target="_top" xlink:title=" ">
<polygon fill="white" stroke="#666666" points="393,-232 281.75,-232 281.75,-200 393,-200 393,-232"/>
<text xml:space="preserve" text-anchor="start" x="289.75" y="-218.5" font-family="Helvetica,sans-Serif" font-size="10.00">Fiea::Engine::Content</text>
<text xml:space="preserve" text-anchor="middle" x="337.38" y="-206.5" font-family="Helvetica,sans-Serif" font-size="10.00">::Attributed</text>
</a>
</g>
</g>
<!-- Node2&#45;&gt;Node1 -->
<g id="edge1_Node000001_Node000002" class="edge">
<title>Node2&#45;&gt;Node1</title>
<g id="a_edge1_Node000001_Node000002"><a xlink:title=" ">
<path fill="none" stroke="#63b8ff" d="M404.76,-216C412.86,-216 421.06,-216 428.94,-216"/>
<polygon fill="#63b8ff" stroke="#63b8ff" points="404.93,-212.5 394.93,-216 404.93,-219.5 404.93,-212.5"/>
</a>
</g>
</g>
<!-- Node3 -->
<g id="Node000003" class="node">
<title>Node3</title>
<g id="a_Node000003"><a xlink:href="class_fiea_1_1_engine_1_1_content_1_1_scope.html" target="_top" xlink:title=" ">
<polygon fill="white" stroke="#666666" points="245.75,-232 134.5,-232 134.5,-200 245.75,-200 245.75,-232"/>
<text xml:space="preserve" text-anchor="start" x="142.5" y="-218.5" font-family="Helvetica,sans-Serif" font-size="10.00">Fiea::Engine::Content</text>
<text xml:space="preserve" text-anchor="middle" x="190.12" y="-206.5" font-family="Helvetica,sans-Serif" font-size="10.00">::Scope</text>
</a>
</g>
</g>
<!-- Node3&#45;&gt;Node2 -->
<g id="edge2_Node000002_Node000003" class="edge">
<title>Node3&#45;&gt;Node2</title>
<g id="a_edge2_Node000002_Node000003"><a xlink:title=" ">
<path fill="none" stroke="#63b8ff" d="M257.31,-216C265.36,-216 273.52,-216 281.38,-216"/>
<polygon fill="#63b8ff" stroke="#63b8ff" points="257.55,-212.5 247.55,-216 257.55,-219.5 257.55,-212.5"/>
</a>
</g>
</g>
<!-- Node4 -->
<g id="Node000004" class="node">
<title>Node4</title>
<g id="a_Node000004"><a xlink:href="class_fiea_1_1_engine_1_1_r_t_t_i.html" target="_top" xlink:title=" ">
<polygon fill="white" stroke="#666666" points="98.5,-226 0,-226 0,-206 98.5,-206 98.5,-226"/>
<text xml:space="preserve" text-anchor="middle" x="49.25" y="-212.5" font-family="Helvetica,sans-Serif" font-size="10.00">Fiea::Engine::RTTI</text>
</a>
</g>
</g>
<!-- Node4&#45;&gt;Node3 -->
<g id="edge3_Node000003_Node000004" class="edge">
<title>Node4&#45;&gt;Node3</title>
<g id="a_edge3_Node000003_Node000004"><a xlink:title=" ">
<path fill="none" stroke="#63b8ff" d="M110.28,-216C118.22,-216 126.32,-216 134.17,-216"/>
<polygon fill="#63b8ff" stroke="#63b8ff" points="110.34,-212.5 100.34,-216 110.34,-219.5 110.34,-212.5"/>
</a>
</g>
</g>
<!-- Node11 -->
<g id="Node000011" class="node">
<title>Node11</title>
<g id="a_Node000011"><a xlink:href="class_fiea_1_1_engine_1_1_actions_1_1_action_delayed.html" target="_top" xlink:title=" ">
<polygon fill="white" stroke="#666666" points="863.25,-232 753.5,-232 753.5,-200 863.25,-200 863.25,-232"/>
<text xml:space="preserve" text-anchor="start" x="761.5" y="-218.5" font-family="Helvetica,sans-Serif" font-size="10.00">Fiea::Engine::Actions</text>
<text xml:space="preserve" text-anchor="middle" x="808.38" y="-206.5" font-family="Helvetica,sans-Serif" font-size="10.00">::ActionDelayed</text>
</a>
</g>
</g>
<!-- Node10&#45;&gt;Node11 -->
<g id="edge10_Node000010_Node000011" class="edge">
<title>Node10&#45;&gt;Node11</title>
<g id="a_edge10_Node000010_Node000011"><a xlink:title=" ">
<path fill="none" stroke="#63b8ff" d="M710.32,-185.79C724.92,-190.33 740.29,-195.12 754.39,-199.51"/>
<polygon fill="#63b8ff" stroke="#63b8ff" points="711.38,-182.45 700.79,-182.82 709.3,-189.14 711.38,-182.45"/>
</a>
</g>
</g>
<!-- Node12 -->
<g id="Node000012" class="node">
<title>Node12</title>
<g id="a_Node000012"><a xlink:href="class_fiea_1_1_engine_1_1_actions_1_1_action_list_while_loop.html" target="_top" xlink:title=" ">
<polygon fill="white" stroke="#666666" points="864,-182 752.75,-182 752.75,-150 864,-150 864,-182"/>
<text xml:space="preserve" text-anchor="start" x="760.75" y="-168.5" font-family="Helvetica,sans-Serif" font-size="10.00">Fiea::Engine::Actions</text>
<text xml:space="preserve" text-anchor="middle" x="808.38" y="-156.5" font-family="Helvetica,sans-Serif" font-size="10.00">::ActionListWhileLoop</text>
</a>
</g>
</g>
<!-- Node10&#45;&gt;Node12 -->
<g id="edge11_Node000010_Node000012" class="edge">
<title>Node10&#45;&gt;Node12</title>
<g id="a_edge11_Node000010_Node000012"><a xlink:title=" ">
<path fill="none" stroke="#63b8ff" d="M711.84,-166C725.33,-166 739.41,-166 752.49,-166"/>
<polygon fill="#63b8ff" stroke="#63b8ff" points="712.2,-162.5 702.2,-166 712.2,-169.5 712.2,-162.5"/>
</a>
</g>
</g>
<!-- Node13 -->
<g id="Node000013" class="node">
<title>Node13</title>
<g id="a_Node000013"><a xlink:href="class_fiea_1_1_engine_1_1_actions_1_1_action_timed.html" target="_top" xlink:title=" ">
<polygon fill="white" stroke="#666666" points="863.25,-132 753.5,-132 753.5,-100 863.25,-100 863.25,-132"/>
<text xml:space="preserve" text-anchor="start" x="761.5" y="-118.5" font-family="Helvetica,sans-Serif" font-size="10.00">Fiea::Engine::Actions</text>
<text xml:space="preserve" text-anchor="middle" x="808.38" y="-106.5" font-family="Helvetica,sans-Serif" font-size="10.00">::ActionTimed</text>
</a>
</g>
</g>
<!-- Node10&#45;&gt;Node13 -->
<g id="edge12_Node000010_Node000013" class="edge">
<title>Node10&#45;&gt;Node13</title>
<g id="a_edge12_Node000010_Node000013"><a xlink:title=" ">
<path fill="none" stroke="#63b8ff" d="M710.32,-146.21C724.92,-141.67 740.29,-136.88 754.39,-132.49"/>
<polygon fill="#63b8ff" stroke="#63b8ff" points="709.3,-142.86 700.79,-149.18 711.38,-149.55 709.3,-142.86"/>
</a>
</g>
</g>
</g>
</svg>
