<?xml version="1.0" encoding="UTF-8" standalone="no"?>
<!DOCTYPE svg PUBLIC "-//W3C//DTD SVG 1.1//EN"
 "http://www.w3.org/Graphics/SVG/1.1/DTD/svg11.dtd">
<!-- Generated by graphviz version 13.1.0 (20250701.0955)
 -->
<!-- Title: Fiea::Engine::GameObject::AddChild Pages: 1 -->
<svg width="756pt" height="266pt"
 viewBox="0.00 0.00 756.00 266.00" xmlns="http://www.w3.org/2000/svg" xmlns:xlink="http://www.w3.org/1999/xlink">
<g id="graph0" class="graph" transform="scale(1 1) rotate(0) translate(4 262)">
<title>Fiea::Engine::GameObject::AddChild</title>
<!-- Node1 -->
<g id="Node000001" class="node">
<title>Node1</title>
<g id="a_Node000001"><a xlink:title=" ">
<polygon fill="#999999" stroke="#666666" points="131.5,-172 0,-172 0,-140 131.5,-140 131.5,-172"/>
<text xml:space="preserve" text-anchor="start" x="8" y="-158.5" font-family="Helvetica,sans-Serif" font-size="10.00">Fiea::Engine::GameObject</text>
<text xml:space="preserve" text-anchor="middle" x="65.75" y="-146.5" font-family="Helvetica,sans-Serif" font-size="10.00">::AddChild</text>
</a>
</g>
</g>
<!-- Node2 -->
<g id="Node000002" class="node">
<title>Node2</title>
<g id="a_Node000002"><a xlink:href="class_fiea_1_1_engine_1_1_content_1_1_scope.html#aa91d6470fd3d3f402bbb2e765be54455" target="_top" xlink:title="Appends a new Datum with the given key.">
<polygon fill="white" stroke="#666666" points="288.88,-222 177.62,-222 177.62,-190 288.88,-190 288.88,-222"/>
<text xml:space="preserve" text-anchor="start" x="185.62" y="-208.5" font-family="Helvetica,sans-Serif" font-size="10.00">Fiea::Engine::Content</text>
<text xml:space="preserve" text-anchor="middle" x="233.25" y="-196.5" font-family="Helvetica,sans-Serif" font-size="10.00">::Scope::Append</text>
</a>
</g>
</g>
<!-- Node1&#45;&gt;Node2 -->
<g id="edge1_Node000001_Node000002" class="edge">
<title>Node1&#45;&gt;Node2</title>
<g id="a_edge1_Node000001_Node000002"><a xlink:title=" ">
<path fill="none" stroke="#63b8ff" d="M120.94,-172.37C135.58,-176.8 151.58,-181.63 166.77,-186.22"/>
<polygon fill="#63b8ff" stroke="#63b8ff" points="165.62,-189.53 176.21,-189.07 167.64,-182.83 165.62,-189.53"/>
</a>
</g>
</g>
<!-- Node3 -->
<g id="Node000003" class="node">
<title>Node3</title>
<g id="a_Node000003"><a xlink:href="class_fiea_1_1_engine_1_1_game_object.html#ad3a296dd56ec43cc9f81eef0b1d14db6" target="_top" xlink:title=" ">
<polygon fill="white" stroke="#666666" points="299,-172 167.5,-172 167.5,-140 299,-140 299,-172"/>
<text xml:space="preserve" text-anchor="start" x="175.5" y="-158.5" font-family="Helvetica,sans-Serif" font-size="10.00">Fiea::Engine::GameObject</text>
<text xml:space="preserve" text-anchor="middle" x="233.25" y="-146.5" font-family="Helvetica,sans-Serif" font-size="10.00">::GameObject</text>
</a>
</g>
</g>
<!-- Node1&#45;&gt;Node3 -->
<g id="edge2_Node000001_Node000003" class="edge">
<title>Node1&#45;&gt;Node3</title>
<g id="a_edge2_Node000001_Node000003"><a xlink:title=" ">
<path fill="none" stroke="#63b8ff" d="M131.68,-156C139.63,-156 147.79,-156 155.88,-156"/>
<polygon fill="#63b8ff" stroke="#63b8ff" points="155.72,-159.5 165.72,-156 155.72,-152.5 155.72,-159.5"/>
</a>
</g>
</g>
<!-- Node11 -->
<g id="Node000011" class="node">
<title>Node11</title>
<g id="a_Node000011"><a xlink:href="class_fiea_1_1_engine_1_1_content_1_1_datum.html#acb3ba55fc9b39b876cf3334d0305f4fc" target="_top" xlink:title=" ">
<polygon fill="white" stroke="#666666" points="288.88,-76 177.62,-76 177.62,-44 288.88,-44 288.88,-76"/>
<text xml:space="preserve" text-anchor="start" x="185.62" y="-62.5" font-family="Helvetica,sans-Serif" font-size="10.00">Fiea::Engine::Content</text>
<text xml:space="preserve" text-anchor="middle" x="233.25" y="-50.5" font-family="Helvetica,sans-Serif" font-size="10.00">::Datum::Push</text>
</a>
</g>
</g>
<!-- Node1&#45;&gt;Node11 -->
<g id="edge15_Node000001_Node000011" class="edge">
<title>Node1&#45;&gt;Node11</title>
<g id="a_edge15_Node000001_Node000011"><a xlink:title=" ">
<path fill="none" stroke="#63b8ff" d="M94.82,-139.71C122.17,-123.85 163.93,-99.63 194.23,-82.05"/>
<polygon fill="#63b8ff" stroke="#63b8ff" points="195.83,-85.17 202.73,-77.12 192.32,-79.11 195.83,-85.17"/>
</a>
</g>
</g>
<!-- Node4 -->
<g id="Node000004" class="node">
<title>Node4</title>
<g id="a_Node000004"><a xlink:href="class_fiea_1_1_engine_1_1_content_1_1_attributed.html#ad1ae014235d9d8b62b36066c94164148" target="_top" xlink:title=" ">
<polygon fill="white" stroke="#666666" points="447,-240 335,-240 335,-208 447,-208 447,-240"/>
<text xml:space="preserve" text-anchor="start" x="343" y="-226.5" font-family="Helvetica,sans-Serif" font-size="10.00">Fiea::Engine::Content</text>
<text xml:space="preserve" text-anchor="middle" x="391" y="-214.5" font-family="Helvetica,sans-Serif" font-size="10.00">::Attributed::Attributed</text>
</a>
</g>
</g>
<!-- Node3&#45;&gt;Node4 -->
<g id="edge3_Node000003_Node000004" class="edge">
<title>Node3&#45;&gt;Node4</title>
<g id="a_edge3_Node000003_Node000004"><a xlink:title=" ">
<path fill="none" stroke="#63b8ff" d="M278.37,-172.39C285.32,-175.15 292.39,-178.08 299,-181 315.36,-188.23 318.85,-191.3 335,-199 337.57,-200.23 340.21,-201.47 342.88,-202.72"/>
<polygon fill="#63b8ff" stroke="#63b8ff" points="341.31,-205.85 351.85,-206.88 344.25,-199.5 341.31,-205.85"/>
</a>
</g>
</g>
<!-- Node5 -->
<g id="Node000005" class="node">
<title>Node5</title>
<g id="a_Node000005"><a xlink:href="class_fiea_1_1_engine_1_1_r_t_t_i.html#a876bebbe7b3149483c43a87f55f4ea99" target="_top" xlink:title=" ">
<polygon fill="white" stroke="#666666" points="440.25,-172 341.75,-172 341.75,-140 440.25,-140 440.25,-172"/>
<text xml:space="preserve" text-anchor="start" x="349.75" y="-158.5" font-family="Helvetica,sans-Serif" font-size="10.00">Fiea::Engine::RTTI</text>
<text xml:space="preserve" text-anchor="middle" x="391" y="-146.5" font-family="Helvetica,sans-Serif" font-size="10.00">::TypeIdInstance</text>
</a>
</g>
</g>
<!-- Node3&#45;&gt;Node5 -->
<g id="edge5_Node000003_Node000005" class="edge">
<title>Node3&#45;&gt;Node5</title>
<g id="a_edge5_Node000003_Node000005"><a xlink:title=" ">
<path fill="none" stroke="#63b8ff" d="M299.4,-156C309.7,-156 320.3,-156 330.46,-156"/>
<polygon fill="#63b8ff" stroke="#63b8ff" points="330.19,-159.5 340.19,-156 330.19,-152.5 330.19,-159.5"/>
</a>
</g>
</g>
<!-- Node4&#45;&gt;Node4 -->
<g id="edge4_Node000004_Node000004" class="edge">
<title>Node4&#45;&gt;Node4</title>
<g id="a_edge4_Node000004_Node000004"><a xlink:title=" ">
<path fill="none" stroke="#63b8ff" d="M364.18,-240.44C359.17,-249.58 368.11,-258 391,-258 403.52,-258 411.86,-255.48 416.04,-251.71"/>
<polygon fill="#63b8ff" stroke="#63b8ff" points="419.48,-252.36 417.59,-241.94 412.56,-251.27 419.48,-252.36"/>
</a>
</g>
</g>
<!-- Node5&#45;&gt;Node5 -->
<g id="edge14_Node000005_Node000005" class="edge">
<title>Node5&#45;&gt;Node5</title>
<g id="a_edge14_Node000005_Node000005"><a xlink:title=" ">
<path fill="none" stroke="#63b8ff" d="M364.18,-172.44C359.17,-181.58 368.11,-190 391,-190 403.52,-190 411.86,-187.48 416.04,-183.71"/>
<polygon fill="#63b8ff" stroke="#63b8ff" points="419.48,-184.36 417.59,-173.94 412.56,-183.27 419.48,-184.36"/>
</a>
</g>
</g>
<!-- Node6 -->
<g id="Node000006" class="node">
<title>Node6</title>
<g id="a_Node000006"><a xlink:href="class_fiea_1_1_engine_1_1_r_t_t_i.html#a15bd5993c8ad04da47af440298ebbb30" target="_top" xlink:title=" ">
<polygon fill="white" stroke="#666666" points="599.5,-226 483,-226 483,-206 599.5,-206 599.5,-226"/>
<text xml:space="preserve" text-anchor="middle" x="541.25" y="-212.5" font-family="Helvetica,sans-Serif" font-size="10.00">Fiea::Engine::RTTI::As</text>
</a>
</g>
</g>
<!-- Node5&#45;&gt;Node6 -->
<g id="edge6_Node000005_Node000006" class="edge">
<title>Node5&#45;&gt;Node6</title>
<g id="a_edge6_Node000005_Node000006"><a xlink:title=" ">
<path fill="none" stroke="#63b8ff" d="M432.51,-172.4C454.95,-181.48 482.61,-192.67 504.28,-201.44"/>
<polygon fill="#63b8ff" stroke="#63b8ff" points="502.72,-204.58 513.3,-205.09 505.34,-198.1 502.72,-204.58"/>
</a>
</g>
</g>
<!-- Node7 -->
<g id="Node000007" class="node">
<title>Node7</title>
<g id="a_Node000007"><a xlink:href="class_fiea_1_1_engine_1_1_r_t_t_i.html#ac0a7d875e4513b2aca7594abcd4418ef" target="_top" xlink:title=" ">
<polygon fill="white" stroke="#666666" points="748.25,-248 635.5,-248 635.5,-228 748.25,-228 748.25,-248"/>
<text xml:space="preserve" text-anchor="middle" x="691.88" y="-234.5" font-family="Helvetica,sans-Serif" font-size="10.00">Fiea::Engine::RTTI::Is</text>
</a>
</g>
</g>
<!-- Node5&#45;&gt;Node7 -->
<g id="edge11_Node000005_Node000007" class="edge">
<title>Node5&#45;&gt;Node7</title>
<g id="a_edge11_Node000005_Node000007"><a xlink:title=" ">
<path fill="none" stroke="#63b8ff" d="M414.18,-172.36C424.4,-180.15 436.56,-189.76 447,-199 463.94,-214 462.16,-226.19 483,-235 527.31,-253.73 581.83,-253.77 623.91,-249.5"/>
<polygon fill="#63b8ff" stroke="#63b8ff" points="624.11,-253 633.65,-248.4 623.32,-246.05 624.11,-253"/>
</a>
</g>
</g>
<!-- Node8 -->
<g id="Node000008" class="node">
<title>Node8</title>
<g id="a_Node000008"><a xlink:href="class_fiea_1_1_engine_1_1_r_t_t_i.html#a13000029a2e6cced30b831e466e07cae" target="_top" xlink:title=" ">
<polygon fill="white" stroke="#666666" points="741.12,-194 642.62,-194 642.62,-162 741.12,-162 741.12,-194"/>
<text xml:space="preserve" text-anchor="start" x="650.62" y="-180.5" font-family="Helvetica,sans-Serif" font-size="10.00">Fiea::Engine::RTTI</text>
<text xml:space="preserve" text-anchor="middle" x="691.88" y="-168.5" font-family="Helvetica,sans-Serif" font-size="10.00">::RTTI</text>
</a>
</g>
</g>
<!-- Node5&#45;&gt;Node8 -->
<g id="edge12_Node000005_Node000008" class="edge">
<title>Node5&#45;&gt;Node8</title>
<g id="a_edge12_Node000005_Node000008"><a xlink:title=" ">
<path fill="none" stroke="#63b8ff" d="M440.68,-159.58C492.68,-163.41 575.14,-169.48 631.05,-173.6"/>
<polygon fill="#63b8ff" stroke="#63b8ff" points="630.47,-177.06 640.7,-174.31 630.99,-170.08 630.47,-177.06"/>
</a>
</g>
</g>
<!-- Node9 -->
<g id="Node000009" class="node">
<title>Node9</title>
<g id="a_Node000009"><a xlink:href="class_fiea_1_1_engine_1_1_r_t_t_i.html#a7f70ad5ba0f8a3388543d63d72892575" target="_top" xlink:title=" ">
<polygon fill="white" stroke="#666666" points="590.5,-150 492,-150 492,-118 590.5,-118 590.5,-150"/>
<text xml:space="preserve" text-anchor="start" x="500" y="-136.5" font-family="Helvetica,sans-Serif" font-size="10.00">Fiea::Engine::RTTI</text>
<text xml:space="preserve" text-anchor="middle" x="541.25" y="-124.5" font-family="Helvetica,sans-Serif" font-size="10.00">::Equals</text>
</a>
</g>
</g>
<!-- Node5&#45;&gt;Node9 -->
<g id="edge9_Node000005_Node000009" class="edge">
<title>Node5&#45;&gt;Node9</title>
<g id="a_edge9_Node000005_Node000009"><a xlink:title=" ">
<path fill="none" stroke="#63b8ff" d="M440.54,-148.8C453.21,-146.92 467.02,-144.87 480.21,-142.91"/>
<polygon fill="#63b8ff" stroke="#63b8ff" points="480.72,-146.37 490.1,-141.44 479.7,-139.45 480.72,-146.37"/>
</a>
</g>
</g>
<!-- Node10 -->
<g id="Node000010" class="node">
<title>Node10</title>
<g id="a_Node000010"><a xlink:href="class_fiea_1_1_engine_1_1_r_t_t_i.html#a43a7d187e332a17d2c699bc2c8136a30" target="_top" xlink:title=" ">
<polygon fill="white" stroke="#666666" points="590.5,-100 492,-100 492,-68 590.5,-68 590.5,-100"/>
<text xml:space="preserve" text-anchor="start" x="500" y="-86.5" font-family="Helvetica,sans-Serif" font-size="10.00">Fiea::Engine::RTTI</text>
<text xml:space="preserve" text-anchor="middle" x="541.25" y="-74.5" font-family="Helvetica,sans-Serif" font-size="10.00">::ToString</text>
</a>
</g>
</g>
<!-- Node5&#45;&gt;Node10 -->
<g id="edge13_Node000005_Node000010" class="edge">
<title>Node5&#45;&gt;Node10</title>
<g id="a_edge13_Node000005_Node000010"><a xlink:title=" ">
<path fill="none" stroke="#63b8ff" d="M422.5,-139.62C440.05,-130.35 462.61,-118.71 483,-109 485.71,-107.71 488.5,-106.41 491.32,-105.11"/>
<polygon fill="#63b8ff" stroke="#63b8ff" points="492.55,-108.4 500.22,-101.09 489.67,-102.02 492.55,-108.4"/>
</a>
</g>
</g>
<!-- Node6&#45;&gt;Node7 -->
<g id="edge7_Node000006_Node000007" class="edge">
<title>Node6&#45;&gt;Node7</title>
<g id="a_edge7_Node000006_Node000007"><a xlink:title=" ">
<path fill="none" stroke="#63b8ff" d="M599.71,-224.51C607.6,-225.67 615.75,-226.88 623.78,-228.07"/>
<polygon fill="#63b8ff" stroke="#63b8ff" points="623.13,-231.51 633.53,-229.51 624.16,-224.59 623.13,-231.51"/>
</a>
</g>
</g>
<!-- Node6&#45;&gt;Node8 -->
<g id="edge8_Node000006_Node000008" class="edge">
<title>Node6&#45;&gt;Node8</title>
<g id="a_edge8_Node000006_Node000008"><a xlink:title=" ">
<path fill="none" stroke="#63b8ff" d="M583.26,-205.52C598.13,-201.71 615.24,-197.34 631.38,-193.21"/>
<polygon fill="#63b8ff" stroke="#63b8ff" points="632.07,-196.65 640.89,-190.78 630.34,-189.87 632.07,-196.65"/>
</a>
</g>
</g>
<!-- Node9&#45;&gt;Node8 -->
<g id="edge10_Node000009_Node000008" class="edge">
<title>Node9&#45;&gt;Node8</title>
<g id="a_edge10_Node000009_Node000008"><a xlink:title=" ">
<path fill="none" stroke="#63b8ff" d="M590.92,-148.41C603.94,-152.26 618.17,-156.47 631.69,-160.48"/>
<polygon fill="#63b8ff" stroke="#63b8ff" points="630.32,-163.72 640.9,-163.21 632.31,-157.01 630.32,-163.72"/>
</a>
</g>
</g>
<!-- Node12 -->
<g id="Node000012" class="node">
<title>Node12</title>
<g id="a_Node000012"><a xlink:href="class_fiea_1_1_engine_1_1_content_1_1_datum.html#a818f812e4489e57885c88951bc0601b3" target="_top" xlink:title=" ">
<polygon fill="white" stroke="#666666" points="446.62,-76 335.38,-76 335.38,-44 446.62,-44 446.62,-76"/>
<text xml:space="preserve" text-anchor="start" x="343.38" y="-62.5" font-family="Helvetica,sans-Serif" font-size="10.00">Fiea::Engine::Content</text>
<text xml:space="preserve" text-anchor="middle" x="391" y="-50.5" font-family="Helvetica,sans-Serif" font-size="10.00">::Datum::ResizeArray</text>
</a>
</g>
</g>
<!-- Node11&#45;&gt;Node12 -->
<g id="edge16_Node000011_Node000012" class="edge">
<title>Node11&#45;&gt;Node12</title>
<g id="a_edge16_Node000011_Node000012"><a xlink:title=" ">
<path fill="none" stroke="#63b8ff" d="M289.16,-60C300.33,-60 312.19,-60 323.7,-60"/>
<polygon fill="#63b8ff" stroke="#63b8ff" points="323.55,-63.5 333.55,-60 323.55,-56.5 323.55,-63.5"/>
</a>
</g>
</g>
<!-- Node13 -->
<g id="Node000013" class="node">
<title>Node13</title>
<g id="a_Node000013"><a xlink:href="class_fiea_1_1_engine_1_1_content_1_1_datum.html#a921193447f6e42f596ac0a7694b02830" target="_top" xlink:title=" ">
<polygon fill="white" stroke="#666666" points="596.88,-32 485.62,-32 485.62,0 596.88,0 596.88,-32"/>
<text xml:space="preserve" text-anchor="start" x="493.62" y="-18.5" font-family="Helvetica,sans-Serif" font-size="10.00">Fiea::Engine::Content</text>
<text xml:space="preserve" text-anchor="middle" x="541.25" y="-6.5" font-family="Helvetica,sans-Serif" font-size="10.00">::Datum::Scope</text>
</a>
</g>
</g>
<!-- Node11&#45;&gt;Node13 -->
<g id="edge19_Node000011_Node000013" class="edge">
<title>Node11&#45;&gt;Node13</title>
<g id="a_edge19_Node000011_Node000013"><a xlink:title=" ">
<path fill="none" stroke="#63b8ff" d="M289.36,-44.73C304.1,-41.09 320.07,-37.53 335,-35 381.18,-27.18 433.79,-22.39 474.19,-19.57"/>
<polygon fill="#63b8ff" stroke="#63b8ff" points="474.26,-23.08 484,-18.92 473.79,-16.09 474.26,-23.08"/>
</a>
</g>
</g>
<!-- Node12&#45;&gt;Node13 -->
<g id="edge17_Node000012_Node000013" class="edge">
<title>Node12&#45;&gt;Node13</title>
<g id="a_edge17_Node000012_Node000013"><a xlink:title=" ">
<path fill="none" stroke="#63b8ff" d="M446.78,-43.74C455.79,-41.07 465.21,-38.27 474.46,-35.53"/>
<polygon fill="#63b8ff" stroke="#63b8ff" points="475.16,-38.97 483.75,-32.77 473.17,-32.26 475.16,-38.97"/>
</a>
</g>
</g>
<!-- Node13&#45;&gt;Node13 -->
<g id="edge18_Node000013_Node000013" class="edge">
<title>Node13&#45;&gt;Node13</title>
<g id="a_edge18_Node000013_Node000013"><a xlink:title=" ">
<path fill="none" stroke="#63b8ff" d="M514.43,-32.44C509.42,-41.58 518.36,-50 541.25,-50 553.77,-50 562.11,-47.48 566.29,-43.71"/>
<polygon fill="#63b8ff" stroke="#63b8ff" points="569.73,-44.36 567.84,-33.94 562.81,-43.27 569.73,-44.36"/>
</a>
</g>
</g>
</g>
</svg>
