<?xml version="1.0" encoding="UTF-8" standalone="no"?>
<!DOCTYPE svg PUBLIC "-//W3C//DTD SVG 1.1//EN"
 "http://www.w3.org/Graphics/SVG/1.1/DTD/svg11.dtd">
<!-- Generated by graphviz version 13.1.0 (20250701.0955)
 -->
<!-- Title: Fiea::Engine::Actions::ActionOutput::ActionOutput Pages: 1 -->
<svg width="328pt" height="190pt"
 viewBox="0.00 0.00 328.00 190.00" xmlns="http://www.w3.org/2000/svg" xmlns:xlink="http://www.w3.org/1999/xlink">
<g id="graph0" class="graph" transform="scale(1 1) rotate(0) translate(4 186)">
<title>Fiea::Engine::Actions::ActionOutput::ActionOutput</title>
<!-- Node1 -->
<g id="Node000001" class="node">
<title>Node1</title>
<g id="a_Node000001"><a xlink:title=" ">
<polygon fill="#999999" stroke="#666666" points="320,-107 178,-107 178,-75 320,-75 320,-107"/>
<text xml:space="preserve" text-anchor="start" x="186" y="-93.5" font-family="Helvetica,sans-Serif" font-size="10.00">Fiea::Engine::Actions</text>
<text xml:space="preserve" text-anchor="middle" x="249" y="-81.5" font-family="Helvetica,sans-Serif" font-size="10.00">::ActionOutput::ActionOutput</text>
</a>
</g>
</g>
<!-- Node2 -->
<g id="Node000002" class="node">
<title>Node2</title>
<g id="a_Node000002"><a xlink:href="class_fiea_1_1_engine_1_1_actions_1_1_action_output.html#a195303b9f02e6f383b49c03057a92fd5" target="_top" xlink:title=" ">
<polygon fill="white" stroke="#666666" points="142,-182 0,-182 0,-150 142,-150 142,-182"/>
<text xml:space="preserve" text-anchor="start" x="8" y="-168.5" font-family="Helvetica,sans-Serif" font-size="10.00">Fiea::Engine::Actions</text>
<text xml:space="preserve" text-anchor="middle" x="71" y="-156.5" font-family="Helvetica,sans-Serif" font-size="10.00">::ActionOutput::ActionOutput</text>
</a>
</g>
</g>
<!-- Node1&#45;&gt;Node2 -->
<g id="edge1_Node000001_Node000002" class="edge">
<title>Node1&#45;&gt;Node2</title>
<g id="a_edge1_Node000001_Node000002"><a xlink:title=" ">
<path fill="none" stroke="#63b8ff" d="M205.22,-112.35C186.07,-121.6 163.1,-132.28 142,-141 134.96,-143.91 127.45,-146.8 120.06,-149.54"/>
<polygon fill="#63b8ff" stroke="#63b8ff" points="206.61,-115.56 214.06,-108.04 203.54,-109.27 206.61,-115.56"/>
</a>
</g>
</g>
<!-- Node3 -->
<g id="Node000003" class="node">
<title>Node3</title>
<g id="a_Node000003"><a xlink:href="class_fiea_1_1_engine_1_1_actions_1_1_action_output.html#acd019a2ed7831d5fe8bbbc0bbe87771b" target="_top" xlink:title=" ">
<polygon fill="white" stroke="#666666" points="142,-132 0,-132 0,-100 142,-100 142,-132"/>
<text xml:space="preserve" text-anchor="start" x="8" y="-118.5" font-family="Helvetica,sans-Serif" font-size="10.00">Fiea::Engine::Actions</text>
<text xml:space="preserve" text-anchor="middle" x="71" y="-106.5" font-family="Helvetica,sans-Serif" font-size="10.00">::ActionOutput::ActionOutput</text>
</a>
</g>
</g>
<!-- Node1&#45;&gt;Node3 -->
<g id="edge2_Node000001_Node000003" class="edge">
<title>Node1&#45;&gt;Node3</title>
<g id="a_edge2_Node000001_Node000003"><a xlink:title=" ">
<path fill="none" stroke="#63b8ff" d="M166.45,-102.58C158.44,-103.72 150.37,-104.87 142.49,-105.99"/>
<polygon fill="#63b8ff" stroke="#63b8ff" points="166.77,-106.07 176.18,-101.2 165.79,-99.14 166.77,-106.07"/>
</a>
</g>
</g>
<!-- Node4 -->
<g id="Node000004" class="node">
<title>Node4</title>
<g id="a_Node000004"><a xlink:href="class_fiea_1_1_engine_1_1_actions_1_1_action_output.html#a0bdd3110238065e4be563358d56b910d" target="_top" xlink:title=" ">
<polygon fill="white" stroke="#666666" points="134.12,-82 7.88,-82 7.88,-50 134.12,-50 134.12,-82"/>
<text xml:space="preserve" text-anchor="start" x="15.88" y="-68.5" font-family="Helvetica,sans-Serif" font-size="10.00">Fiea::Engine::Actions</text>
<text xml:space="preserve" text-anchor="middle" x="71" y="-56.5" font-family="Helvetica,sans-Serif" font-size="10.00">::ActionOutput::operator=</text>
</a>
</g>
</g>
<!-- Node1&#45;&gt;Node4 -->
<g id="edge3_Node000001_Node000004" class="edge">
<title>Node1&#45;&gt;Node4</title>
<g id="a_edge3_Node000001_Node000004"><a xlink:title=" ">
<path fill="none" stroke="#63b8ff" d="M166.55,-79.43C155.79,-77.9 144.9,-76.35 134.53,-74.88"/>
<polygon fill="#63b8ff" stroke="#63b8ff" points="165.79,-82.86 176.18,-80.8 166.77,-75.93 165.79,-82.86"/>
</a>
</g>
</g>
<!-- Node5 -->
<g id="Node000005" class="node">
<title>Node5</title>
<g id="a_Node000005"><a xlink:href="class_fiea_1_1_engine_1_1_actions_1_1_action_output.html#a0657623caf872c1e29301168597d6791" target="_top" xlink:title=" ">
<polygon fill="white" stroke="#666666" points="134.12,-32 7.88,-32 7.88,0 134.12,0 134.12,-32"/>
<text xml:space="preserve" text-anchor="start" x="15.88" y="-18.5" font-family="Helvetica,sans-Serif" font-size="10.00">Fiea::Engine::Actions</text>
<text xml:space="preserve" text-anchor="middle" x="71" y="-6.5" font-family="Helvetica,sans-Serif" font-size="10.00">::ActionOutput::operator=</text>
</a>
</g>
</g>
<!-- Node1&#45;&gt;Node5 -->
<g id="edge4_Node000001_Node000005" class="edge">
<title>Node1&#45;&gt;Node5</title>
<g id="a_edge4_Node000001_Node000005"><a xlink:title=" ">
<path fill="none" stroke="#63b8ff" d="M205.22,-69.65C186.07,-60.4 163.1,-49.72 142,-41 134.96,-38.09 127.45,-35.2 120.06,-32.46"/>
<polygon fill="#63b8ff" stroke="#63b8ff" points="203.54,-72.73 214.06,-73.96 206.61,-66.44 203.54,-72.73"/>
</a>
</g>
</g>
</g>
</svg>
