<?xml version="1.0" encoding="UTF-8" standalone="no"?>
<!DOCTYPE svg PUBLIC "-//W3C//DTD SVG 1.1//EN"
 "http://www.w3.org/Graphics/SVG/1.1/DTD/svg11.dtd">
<!-- Generated by graphviz version 13.1.0 (20250701.0955)
 -->
<!-- Title: Fiea::Engine::Content::Scope::AppendScope Pages: 1 -->
<svg width="566pt" height="328pt"
 viewBox="0.00 0.00 566.00 328.00" xmlns="http://www.w3.org/2000/svg" xmlns:xlink="http://www.w3.org/1999/xlink">
<g id="graph0" class="graph" transform="scale(1 1) rotate(0) translate(4 324)">
<title>Fiea::Engine::Content::Scope::AppendScope</title>
<!-- Node1 -->
<g id="Node000001" class="node">
<title>Node1</title>
<g id="a_Node000001"><a xlink:title="Appends a new Scope as a child under the specified key.">
<polygon fill="#999999" stroke="#666666" points="116.5,-170 0,-170 0,-138 116.5,-138 116.5,-170"/>
<text xml:space="preserve" text-anchor="start" x="8" y="-156.5" font-family="Helvetica,sans-Serif" font-size="10.00">Fiea::Engine::Content</text>
<text xml:space="preserve" text-anchor="middle" x="58.25" y="-144.5" font-family="Helvetica,sans-Serif" font-size="10.00">::Scope::AppendScope</text>
</a>
</g>
</g>
<!-- Node2 -->
<g id="Node000002" class="node">
<title>Node2</title>
<g id="a_Node000002"><a xlink:href="class_fiea_1_1_engine_1_1_content_1_1_scope.html#aa91d6470fd3d3f402bbb2e765be54455" target="_top" xlink:title="Appends a new Datum with the given key.">
<polygon fill="white" stroke="#666666" points="263.75,-320 152.5,-320 152.5,-288 263.75,-288 263.75,-320"/>
<text xml:space="preserve" text-anchor="start" x="160.5" y="-306.5" font-family="Helvetica,sans-Serif" font-size="10.00">Fiea::Engine::Content</text>
<text xml:space="preserve" text-anchor="middle" x="208.12" y="-294.5" font-family="Helvetica,sans-Serif" font-size="10.00">::Scope::Append</text>
</a>
</g>
</g>
<!-- Node1&#45;&gt;Node2 -->
<g id="edge1_Node000001_Node000002" class="edge">
<title>Node1&#45;&gt;Node2</title>
<g id="a_edge1_Node000001_Node000002"><a xlink:title=" ">
<path fill="none" stroke="#63b8ff" d="M67.8,-170.25C82.19,-196.26 113.54,-247.52 152.5,-279 153.6,-279.88 154.73,-280.75 155.89,-281.58"/>
<polygon fill="#63b8ff" stroke="#63b8ff" points="153.66,-284.31 163.98,-286.73 157.42,-278.41 153.66,-284.31"/>
</a>
</g>
</g>
<!-- Node3 -->
<g id="Node000003" class="node">
<title>Node3</title>
<g id="a_Node000003"><a xlink:href="class_fiea_1_1_engine_1_1_content_1_1_scope.html#ad924c01785b239991fc0e56a63295612" target="_top" xlink:title="Finds a Datum by key.">
<polygon fill="white" stroke="#666666" points="263.75,-270 152.5,-270 152.5,-238 263.75,-238 263.75,-270"/>
<text xml:space="preserve" text-anchor="start" x="160.5" y="-256.5" font-family="Helvetica,sans-Serif" font-size="10.00">Fiea::Engine::Content</text>
<text xml:space="preserve" text-anchor="middle" x="208.12" y="-244.5" font-family="Helvetica,sans-Serif" font-size="10.00">::Scope::Find</text>
</a>
</g>
</g>
<!-- Node1&#45;&gt;Node3 -->
<g id="edge2_Node000001_Node000003" class="edge">
<title>Node1&#45;&gt;Node3</title>
<g id="a_edge2_Node000001_Node000003"><a xlink:title=" ">
<path fill="none" stroke="#63b8ff" d="M76.82,-170.36C94.86,-186.6 124.22,-211.53 152.5,-229 154.33,-230.13 156.22,-231.24 158.15,-232.33"/>
<polygon fill="#63b8ff" stroke="#63b8ff" points="156.19,-235.25 166.67,-236.83 159.46,-229.06 156.19,-235.25"/>
</a>
</g>
</g>
<!-- Node4 -->
<g id="Node000004" class="node">
<title>Node4</title>
<g id="a_Node000004"><a xlink:href="class_fiea_1_1_engine_1_1_content_1_1_datum.html#a6e9dfba6e16fddc4efc39b8182dad89f" target="_top" xlink:title=" ">
<polygon fill="white" stroke="#666666" points="263.75,-220 152.5,-220 152.5,-188 263.75,-188 263.75,-220"/>
<text xml:space="preserve" text-anchor="start" x="160.5" y="-206.5" font-family="Helvetica,sans-Serif" font-size="10.00">Fiea::Engine::Content</text>
<text xml:space="preserve" text-anchor="middle" x="208.12" y="-194.5" font-family="Helvetica,sans-Serif" font-size="10.00">::Datum::IsType</text>
</a>
</g>
</g>
<!-- Node1&#45;&gt;Node4 -->
<g id="edge3_Node000001_Node000004" class="edge">
<title>Node1&#45;&gt;Node4</title>
<g id="a_edge3_Node000001_Node000004"><a xlink:title=" ">
<path fill="none" stroke="#63b8ff" d="M107.67,-170.37C120.5,-174.71 134.49,-179.44 147.83,-183.95"/>
<polygon fill="#63b8ff" stroke="#63b8ff" points="146.32,-187.13 156.91,-187.02 148.56,-180.5 146.32,-187.13"/>
</a>
</g>
</g>
<!-- Node5 -->
<g id="Node000005" class="node">
<title>Node5</title>
<g id="a_Node000005"><a xlink:href="class_fiea_1_1_engine_1_1_content_1_1_datum.html#acb3ba55fc9b39b876cf3334d0305f4fc" target="_top" xlink:title=" ">
<polygon fill="white" stroke="#666666" points="263.75,-170 152.5,-170 152.5,-138 263.75,-138 263.75,-170"/>
<text xml:space="preserve" text-anchor="start" x="160.5" y="-156.5" font-family="Helvetica,sans-Serif" font-size="10.00">Fiea::Engine::Content</text>
<text xml:space="preserve" text-anchor="middle" x="208.12" y="-144.5" font-family="Helvetica,sans-Serif" font-size="10.00">::Datum::Push</text>
</a>
</g>
</g>
<!-- Node1&#45;&gt;Node5 -->
<g id="edge4_Node000001_Node000005" class="edge">
<title>Node1&#45;&gt;Node5</title>
<g id="a_edge4_Node000001_Node000005"><a xlink:title=" ">
<path fill="none" stroke="#63b8ff" d="M116.85,-154C124.78,-154 132.98,-154 141.06,-154"/>
<polygon fill="#63b8ff" stroke="#63b8ff" points="140.84,-157.5 150.84,-154 140.84,-150.5 140.84,-157.5"/>
</a>
</g>
</g>
<!-- Node8 -->
<g id="Node000008" class="node">
<title>Node8</title>
<g id="a_Node000008"><a xlink:href="class_fiea_1_1_engine_1_1_content_1_1_scope.html#a6631343c968c233ab1d9c3e05c3f4fe9" target="_top" xlink:title=" ">
<polygon fill="white" stroke="#666666" points="411,-95 299.75,-95 299.75,-63 411,-63 411,-95"/>
<text xml:space="preserve" text-anchor="start" x="307.75" y="-81.5" font-family="Helvetica,sans-Serif" font-size="10.00">Fiea::Engine::Content</text>
<text xml:space="preserve" text-anchor="middle" x="355.38" y="-69.5" font-family="Helvetica,sans-Serif" font-size="10.00">::Scope::Scope</text>
</a>
</g>
</g>
<!-- Node1&#45;&gt;Node8 -->
<g id="edge9_Node000001_Node000008" class="edge">
<title>Node1&#45;&gt;Node8</title>
<g id="a_edge9_Node000001_Node000008"><a xlink:title=" ">
<path fill="none" stroke="#63b8ff" d="M116.91,-138.36C128.67,-135.22 140.98,-131.97 152.5,-129 197.78,-117.32 248.92,-104.66 288.4,-95"/>
<polygon fill="#63b8ff" stroke="#63b8ff" points="289.11,-98.43 298,-92.66 287.45,-91.63 289.11,-98.43"/>
</a>
</g>
</g>
<!-- Node9 -->
<g id="Node000009" class="node">
<title>Node9</title>
<g id="a_Node000009"><a xlink:href="class_fiea_1_1_engine_1_1_content_1_1_scope.html#af6a94922a8fa123c3b22b7b4485963de" target="_top" xlink:title=" ">
<polygon fill="white" stroke="#666666" points="263.75,-82 152.5,-82 152.5,-50 263.75,-50 263.75,-82"/>
<text xml:space="preserve" text-anchor="start" x="160.5" y="-68.5" font-family="Helvetica,sans-Serif" font-size="10.00">Fiea::Engine::Content</text>
<text xml:space="preserve" text-anchor="middle" x="208.12" y="-56.5" font-family="Helvetica,sans-Serif" font-size="10.00">::Scope::SetParent</text>
</a>
</g>
</g>
<!-- Node1&#45;&gt;Node9 -->
<g id="edge11_Node000001_Node000009" class="edge">
<title>Node1&#45;&gt;Node9</title>
<g id="a_edge11_Node000001_Node000009"><a xlink:title=" ">
<path fill="none" stroke="#63b8ff" d="M84.75,-137.62C103.37,-125.79 129.3,-109.57 152.5,-96 157.1,-93.31 161.96,-90.54 166.8,-87.83"/>
<polygon fill="#63b8ff" stroke="#63b8ff" points="168.25,-91.02 175.3,-83.11 164.86,-84.9 168.25,-91.02"/>
</a>
</g>
</g>
<!-- Node10 -->
<g id="Node000010" class="node">
<title>Node10</title>
<g id="a_Node000010"><a xlink:href="class_fiea_1_1_engine_1_1_content_1_1_datum.html#a23d1f16d9646f024a5dee1f05dbd5a5e" target="_top" xlink:title=" ">
<polygon fill="white" stroke="#666666" points="263.75,-32 152.5,-32 152.5,0 263.75,0 263.75,-32"/>
<text xml:space="preserve" text-anchor="start" x="160.5" y="-18.5" font-family="Helvetica,sans-Serif" font-size="10.00">Fiea::Engine::Content</text>
<text xml:space="preserve" text-anchor="middle" x="208.12" y="-6.5" font-family="Helvetica,sans-Serif" font-size="10.00">::Datum::SetType</text>
</a>
</g>
</g>
<!-- Node1&#45;&gt;Node10 -->
<g id="edge13_Node000001_Node000010" class="edge">
<title>Node1&#45;&gt;Node10</title>
<g id="a_edge13_Node000001_Node000010"><a xlink:title=" ">
<path fill="none" stroke="#63b8ff" d="M69.17,-137.81C84.49,-113.92 115.99,-69.05 152.5,-41 153.64,-40.12 154.82,-39.27 156.02,-38.44"/>
<polygon fill="#63b8ff" stroke="#63b8ff" points="157.71,-41.51 164.4,-33.29 154.05,-35.54 157.71,-41.51"/>
</a>
</g>
</g>
<!-- Node6 -->
<g id="Node000006" class="node">
<title>Node6</title>
<g id="a_Node000006"><a xlink:href="class_fiea_1_1_engine_1_1_content_1_1_datum.html#a818f812e4489e57885c88951bc0601b3" target="_top" xlink:title=" ">
<polygon fill="white" stroke="#666666" points="411,-207 299.75,-207 299.75,-175 411,-175 411,-207"/>
<text xml:space="preserve" text-anchor="start" x="307.75" y="-193.5" font-family="Helvetica,sans-Serif" font-size="10.00">Fiea::Engine::Content</text>
<text xml:space="preserve" text-anchor="middle" x="355.38" y="-181.5" font-family="Helvetica,sans-Serif" font-size="10.00">::Datum::ResizeArray</text>
</a>
</g>
</g>
<!-- Node5&#45;&gt;Node6 -->
<g id="edge5_Node000005_Node000006" class="edge">
<title>Node5&#45;&gt;Node6</title>
<g id="a_edge5_Node000005_Node000006"><a xlink:title=" ">
<path fill="none" stroke="#63b8ff" d="M264.04,-167.99C271.99,-170.01 280.25,-172.12 288.39,-174.19"/>
<polygon fill="#63b8ff" stroke="#63b8ff" points="287.36,-177.54 297.92,-176.62 289.09,-170.76 287.36,-177.54"/>
</a>
</g>
</g>
<!-- Node7 -->
<g id="Node000007" class="node">
<title>Node7</title>
<g id="a_Node000007"><a xlink:href="class_fiea_1_1_engine_1_1_content_1_1_datum.html#a921193447f6e42f596ac0a7694b02830" target="_top" xlink:title=" ">
<polygon fill="white" stroke="#666666" points="558.25,-185 447,-185 447,-153 558.25,-153 558.25,-185"/>
<text xml:space="preserve" text-anchor="start" x="455" y="-171.5" font-family="Helvetica,sans-Serif" font-size="10.00">Fiea::Engine::Content</text>
<text xml:space="preserve" text-anchor="middle" x="502.62" y="-159.5" font-family="Helvetica,sans-Serif" font-size="10.00">::Datum::Scope</text>
</a>
</g>
</g>
<!-- Node5&#45;&gt;Node7 -->
<g id="edge8_Node000005_Node000007" class="edge">
<title>Node5&#45;&gt;Node7</title>
<g id="a_edge8_Node000005_Node000007"><a xlink:title=" ">
<path fill="none" stroke="#63b8ff" d="M264.14,-156.82C312.76,-159.31 383.77,-162.96 435.47,-165.61"/>
<polygon fill="#63b8ff" stroke="#63b8ff" points="435.18,-169.1 445.34,-166.11 435.54,-162.11 435.18,-169.1"/>
</a>
</g>
</g>
<!-- Node6&#45;&gt;Node7 -->
<g id="edge6_Node000006_Node000007" class="edge">
<title>Node6&#45;&gt;Node7</title>
<g id="a_edge6_Node000006_Node000007"><a xlink:title=" ">
<path fill="none" stroke="#63b8ff" d="M411.29,-182.68C419.15,-181.49 427.31,-180.26 435.36,-179.04"/>
<polygon fill="#63b8ff" stroke="#63b8ff" points="435.78,-182.51 445.14,-177.56 434.73,-175.59 435.78,-182.51"/>
</a>
</g>
</g>
<!-- Node7&#45;&gt;Node7 -->
<g id="edge7_Node000007_Node000007" class="edge">
<title>Node7&#45;&gt;Node7</title>
<g id="a_edge7_Node000007_Node000007"><a xlink:title=" ">
<path fill="none" stroke="#63b8ff" d="M476.34,-185.44C471.43,-194.58 480.19,-203 502.62,-203 514.89,-203 523.07,-200.48 527.16,-196.71"/>
<polygon fill="#63b8ff" stroke="#63b8ff" points="530.6,-197.36 528.68,-186.94 523.69,-196.28 530.6,-197.36"/>
</a>
</g>
</g>
<!-- Node8&#45;&gt;Node8 -->
<g id="edge10_Node000008_Node000008" class="edge">
<title>Node8&#45;&gt;Node8</title>
<g id="a_edge10_Node000008_Node000008"><a xlink:title=" ">
<path fill="none" stroke="#63b8ff" d="M329.09,-95.44C324.18,-104.58 332.94,-113 355.38,-113 367.64,-113 375.82,-110.48 379.91,-106.71"/>
<polygon fill="#63b8ff" stroke="#63b8ff" points="383.35,-107.36 381.43,-96.94 376.44,-106.28 383.35,-107.36"/>
</a>
</g>
</g>
<!-- Node9&#45;&gt;Node8 -->
<g id="edge12_Node000009_Node000008" class="edge">
<title>Node9&#45;&gt;Node8</title>
<g id="a_edge12_Node000009_Node000008"><a xlink:title=" ">
<path fill="none" stroke="#63b8ff" d="M264.04,-70.91C271.9,-71.62 280.06,-72.35 288.11,-73.07"/>
<polygon fill="#63b8ff" stroke="#63b8ff" points="287.6,-76.54 297.88,-73.94 288.23,-69.57 287.6,-76.54"/>
</a>
</g>
</g>
</g>
</svg>
