<?xml version="1.0" encoding="UTF-8" standalone="no"?>
<!DOCTYPE svg PUBLIC "-//W3C//DTD SVG 1.1//EN"
 "http://www.w3.org/Graphics/SVG/1.1/DTD/svg11.dtd">
<!-- Generated by graphviz version 13.1.0 (20250701.0955)
 -->
<!-- Title: Fiea::Engine::Actions::ActionTimed::operator= Pages: 1 -->
<svg width="1052pt" height="220pt"
 viewBox="0.00 0.00 1052.00 220.00" xmlns="http://www.w3.org/2000/svg" xmlns:xlink="http://www.w3.org/1999/xlink">
<g id="graph0" class="graph" transform="scale(1 1) rotate(0) translate(4 216)">
<title>Fiea::Engine::Actions::ActionTimed::operator=</title>
<!-- Node1 -->
<g id="Node000001" class="node">
<title>Node1</title>
<g id="a_Node000001"><a xlink:title=" ">
<polygon fill="#999999" stroke="#666666" points="124,-122 0,-122 0,-90 124,-90 124,-122"/>
<text xml:space="preserve" text-anchor="start" x="8" y="-108.5" font-family="Helvetica,sans-Serif" font-size="10.00">Fiea::Engine::Actions</text>
<text xml:space="preserve" text-anchor="middle" x="62" y="-96.5" font-family="Helvetica,sans-Serif" font-size="10.00">::ActionTimed::operator=</text>
</a>
</g>
</g>
<!-- Node2 -->
<g id="Node000002" class="node">
<title>Node2</title>
<g id="a_Node000002"><a xlink:href="class_fiea_1_1_engine_1_1_actions_1_1_action_timed.html#af910b88250ceb1f96a98e703dd3383e7" target="_top" xlink:title=" ">
<polygon fill="white" stroke="#666666" points="297.5,-122 160,-122 160,-90 297.5,-90 297.5,-122"/>
<text xml:space="preserve" text-anchor="start" x="168" y="-108.5" font-family="Helvetica,sans-Serif" font-size="10.00">Fiea::Engine::Actions</text>
<text xml:space="preserve" text-anchor="middle" x="228.75" y="-96.5" font-family="Helvetica,sans-Serif" font-size="10.00">::ActionTimed::ActionTimed</text>
</a>
</g>
</g>
<!-- Node1&#45;&gt;Node2 -->
<g id="edge1_Node000001_Node000002" class="edge">
<title>Node1&#45;&gt;Node2</title>
<g id="a_edge1_Node000001_Node000002"><a xlink:title=" ">
<path fill="none" stroke="#63b8ff" d="M124.35,-106C132.18,-106 140.29,-106 148.36,-106"/>
<polygon fill="#63b8ff" stroke="#63b8ff" points="148.19,-109.5 158.19,-106 148.19,-102.5 148.19,-109.5"/>
</a>
</g>
</g>
<!-- Node3 -->
<g id="Node000003" class="node">
<title>Node3</title>
<g id="a_Node000003"><a xlink:href="class_fiea_1_1_engine_1_1_actions_1_1_action_list.html#a77dc15425d13d1d10482ec9e97d923fb" target="_top" xlink:title=" ">
<polygon fill="white" stroke="#666666" points="448.5,-144 333.5,-144 333.5,-112 448.5,-112 448.5,-144"/>
<text xml:space="preserve" text-anchor="start" x="341.5" y="-130.5" font-family="Helvetica,sans-Serif" font-size="10.00">Fiea::Engine::Actions</text>
<text xml:space="preserve" text-anchor="middle" x="391" y="-118.5" font-family="Helvetica,sans-Serif" font-size="10.00">::ActionList::ActionList</text>
</a>
</g>
</g>
<!-- Node2&#45;&gt;Node3 -->
<g id="edge2_Node000002_Node000003" class="edge">
<title>Node2&#45;&gt;Node3</title>
<g id="a_edge2_Node000002_Node000003"><a xlink:title=" ">
<path fill="none" stroke="#63b8ff" d="M297.71,-115.33C305.71,-116.43 313.88,-117.55 321.88,-118.65"/>
<polygon fill="#63b8ff" stroke="#63b8ff" points="321.17,-122.08 331.55,-119.98 322.12,-115.15 321.17,-122.08"/>
</a>
</g>
</g>
<!-- Node6 -->
<g id="Node000006" class="node">
<title>Node6</title>
<g id="a_Node000006"><a xlink:href="class_fiea_1_1_engine_1_1_r_t_t_i.html#a876bebbe7b3149483c43a87f55f4ea99" target="_top" xlink:title=" ">
<polygon fill="white" stroke="#666666" points="735.5,-126 637,-126 637,-94 735.5,-94 735.5,-126"/>
<text xml:space="preserve" text-anchor="start" x="645" y="-112.5" font-family="Helvetica,sans-Serif" font-size="10.00">Fiea::Engine::RTTI</text>
<text xml:space="preserve" text-anchor="middle" x="686.25" y="-100.5" font-family="Helvetica,sans-Serif" font-size="10.00">::TypeIdInstance</text>
</a>
</g>
</g>
<!-- Node2&#45;&gt;Node6 -->
<g id="edge17_Node000002_Node000006" class="edge">
<title>Node2&#45;&gt;Node6</title>
<g id="a_edge17_Node000002_Node000006"><a xlink:title=" ">
<path fill="none" stroke="#63b8ff" d="M297.83,-103.75C309.72,-103.44 321.97,-103.17 333.5,-103 384.61,-102.26 397.39,-102.24 448.5,-103 508.7,-103.89 577.49,-106.05 625.35,-107.74"/>
<polygon fill="#63b8ff" stroke="#63b8ff" points="625.11,-111.23 635.23,-108.09 625.36,-104.24 625.11,-111.23"/>
</a>
</g>
</g>
<!-- Node4 -->
<g id="Node000004" class="node">
<title>Node4</title>
<g id="a_Node000004"><a xlink:href="class_fiea_1_1_engine_1_1_actions_1_1_action.html#ae2af386f7122152003b00da79393e19e" target="_top" xlink:title=" ">
<polygon fill="white" stroke="#666666" points="594.25,-182 484.5,-182 484.5,-150 594.25,-150 594.25,-182"/>
<text xml:space="preserve" text-anchor="start" x="492.5" y="-168.5" font-family="Helvetica,sans-Serif" font-size="10.00">Fiea::Engine::Actions</text>
<text xml:space="preserve" text-anchor="middle" x="539.38" y="-156.5" font-family="Helvetica,sans-Serif" font-size="10.00">::Action::Action</text>
</a>
</g>
</g>
<!-- Node3&#45;&gt;Node4 -->
<g id="edge3_Node000003_Node000004" class="edge">
<title>Node3&#45;&gt;Node4</title>
<g id="a_edge3_Node000003_Node000004"><a xlink:title=" ">
<path fill="none" stroke="#63b8ff" d="M448.59,-142.69C456.67,-144.79 465.03,-146.96 473.25,-149.09"/>
<polygon fill="#63b8ff" stroke="#63b8ff" points="472.31,-152.47 482.87,-151.59 474.07,-145.69 472.31,-152.47"/>
</a>
</g>
</g>
<!-- Node3&#45;&gt;Node6 -->
<g id="edge16_Node000003_Node000006" class="edge">
<title>Node3&#45;&gt;Node6</title>
<g id="a_edge16_Node000003_Node000006"><a xlink:title=" ">
<path fill="none" stroke="#63b8ff" d="M448.89,-124.51C499.68,-121.39 573.81,-116.84 625.47,-113.67"/>
<polygon fill="#63b8ff" stroke="#63b8ff" points="625.5,-117.17 635.27,-113.07 625.07,-110.19 625.5,-117.17"/>
</a>
</g>
</g>
<!-- Node5 -->
<g id="Node000005" class="node">
<title>Node5</title>
<g id="a_Node000005"><a xlink:href="class_fiea_1_1_engine_1_1_content_1_1_attributed.html#ad1ae014235d9d8b62b36066c94164148" target="_top" xlink:title=" ">
<polygon fill="white" stroke="#666666" points="742.25,-194 630.25,-194 630.25,-162 742.25,-162 742.25,-194"/>
<text xml:space="preserve" text-anchor="start" x="638.25" y="-180.5" font-family="Helvetica,sans-Serif" font-size="10.00">Fiea::Engine::Content</text>
<text xml:space="preserve" text-anchor="middle" x="686.25" y="-168.5" font-family="Helvetica,sans-Serif" font-size="10.00">::Attributed::Attributed</text>
</a>
</g>
</g>
<!-- Node4&#45;&gt;Node5 -->
<g id="edge4_Node000004_Node000005" class="edge">
<title>Node4&#45;&gt;Node5</title>
<g id="a_edge4_Node000004_Node000005"><a xlink:title=" ">
<path fill="none" stroke="#63b8ff" d="M594.73,-170.5C602.59,-171.15 610.75,-171.83 618.82,-172.5"/>
<polygon fill="#63b8ff" stroke="#63b8ff" points="618.34,-175.97 628.6,-173.31 618.92,-168.99 618.34,-175.97"/>
</a>
</g>
</g>
<!-- Node4&#45;&gt;Node6 -->
<g id="edge6_Node000004_Node000006" class="edge">
<title>Node4&#45;&gt;Node6</title>
<g id="a_edge6_Node000004_Node000006"><a xlink:title=" ">
<path fill="none" stroke="#63b8ff" d="M583.06,-149.5C598.53,-143.52 616.2,-136.69 632.44,-130.41"/>
<polygon fill="#63b8ff" stroke="#63b8ff" points="633.39,-133.8 641.46,-126.93 630.87,-127.27 633.39,-133.8"/>
</a>
</g>
</g>
<!-- Node5&#45;&gt;Node5 -->
<g id="edge5_Node000005_Node000005" class="edge">
<title>Node5&#45;&gt;Node5</title>
<g id="a_edge5_Node000005_Node000005"><a xlink:title=" ">
<path fill="none" stroke="#63b8ff" d="M660.03,-194.44C655.13,-203.58 663.87,-212 686.25,-212 698.49,-212 706.65,-209.48 710.73,-205.71"/>
<polygon fill="#63b8ff" stroke="#63b8ff" points="714.17,-206.36 712.24,-195.94 707.25,-205.28 714.17,-206.36"/>
</a>
</g>
</g>
<!-- Node6&#45;&gt;Node6 -->
<g id="edge15_Node000006_Node000006" class="edge">
<title>Node6&#45;&gt;Node6</title>
<g id="a_edge15_Node000006_Node000006"><a xlink:title=" ">
<path fill="none" stroke="#63b8ff" d="M660.03,-126.44C655.13,-135.58 663.87,-144 686.25,-144 698.49,-144 706.65,-141.48 710.73,-137.71"/>
<polygon fill="#63b8ff" stroke="#63b8ff" points="714.17,-138.36 712.24,-127.94 707.25,-137.28 714.17,-138.36"/>
</a>
</g>
</g>
<!-- Node7 -->
<g id="Node000007" class="node">
<title>Node7</title>
<g id="a_Node000007"><a xlink:href="class_fiea_1_1_engine_1_1_r_t_t_i.html#a15bd5993c8ad04da47af440298ebbb30" target="_top" xlink:title=" ">
<polygon fill="white" stroke="#666666" points="894.75,-158 778.25,-158 778.25,-138 894.75,-138 894.75,-158"/>
<text xml:space="preserve" text-anchor="middle" x="836.5" y="-144.5" font-family="Helvetica,sans-Serif" font-size="10.00">Fiea::Engine::RTTI::As</text>
</a>
</g>
</g>
<!-- Node6&#45;&gt;Node7 -->
<g id="edge7_Node000006_Node000007" class="edge">
<title>Node6&#45;&gt;Node7</title>
<g id="a_edge7_Node000006_Node000007"><a xlink:title=" ">
<path fill="none" stroke="#63b8ff" d="M735.79,-122.44C751.15,-126.38 768.18,-130.74 783.75,-134.74"/>
<polygon fill="#63b8ff" stroke="#63b8ff" points="782.77,-138.1 793.32,-137.19 784.5,-131.32 782.77,-138.1"/>
</a>
</g>
</g>
<!-- Node8 -->
<g id="Node000008" class="node">
<title>Node8</title>
<g id="a_Node000008"><a xlink:href="class_fiea_1_1_engine_1_1_r_t_t_i.html#ac0a7d875e4513b2aca7594abcd4418ef" target="_top" xlink:title=" ">
<polygon fill="white" stroke="#666666" points="1043.5,-180 930.75,-180 930.75,-160 1043.5,-160 1043.5,-180"/>
<text xml:space="preserve" text-anchor="middle" x="987.12" y="-166.5" font-family="Helvetica,sans-Serif" font-size="10.00">Fiea::Engine::RTTI::Is</text>
</a>
</g>
</g>
<!-- Node6&#45;&gt;Node8 -->
<g id="edge12_Node000006_Node000008" class="edge">
<title>Node6&#45;&gt;Node8</title>
<g id="a_edge12_Node000006_Node000008"><a xlink:title=" ">
<path fill="none" stroke="#63b8ff" d="M706.3,-126.34C723.73,-140.14 750.89,-158.93 778.25,-167 823.97,-180.5 877.85,-180.86 919.3,-178.06"/>
<polygon fill="#63b8ff" stroke="#63b8ff" points="919.43,-181.56 929.13,-177.31 918.89,-174.58 919.43,-181.56"/>
</a>
</g>
</g>
<!-- Node9 -->
<g id="Node000009" class="node">
<title>Node9</title>
<g id="a_Node000009"><a xlink:href="class_fiea_1_1_engine_1_1_r_t_t_i.html#a13000029a2e6cced30b831e466e07cae" target="_top" xlink:title=" ">
<polygon fill="white" stroke="#666666" points="1036.38,-126 937.88,-126 937.88,-94 1036.38,-94 1036.38,-126"/>
<text xml:space="preserve" text-anchor="start" x="945.88" y="-112.5" font-family="Helvetica,sans-Serif" font-size="10.00">Fiea::Engine::RTTI</text>
<text xml:space="preserve" text-anchor="middle" x="987.12" y="-100.5" font-family="Helvetica,sans-Serif" font-size="10.00">::RTTI</text>
</a>
</g>
</g>
<!-- Node6&#45;&gt;Node9 -->
<g id="edge13_Node000006_Node000009" class="edge">
<title>Node6&#45;&gt;Node9</title>
<g id="a_edge13_Node000006_Node000009"><a xlink:title=" ">
<path fill="none" stroke="#63b8ff" d="M735.93,-110C787.82,-110 870.04,-110 925.95,-110"/>
<polygon fill="#63b8ff" stroke="#63b8ff" points="925.95,-113.5 935.95,-110 925.95,-106.5 925.95,-113.5"/>
</a>
</g>
</g>
<!-- Node10 -->
<g id="Node000010" class="node">
<title>Node10</title>
<g id="a_Node000010"><a xlink:href="class_fiea_1_1_engine_1_1_r_t_t_i.html#a7f70ad5ba0f8a3388543d63d72892575" target="_top" xlink:title=" ">
<polygon fill="white" stroke="#666666" points="885.75,-82 787.25,-82 787.25,-50 885.75,-50 885.75,-82"/>
<text xml:space="preserve" text-anchor="start" x="795.25" y="-68.5" font-family="Helvetica,sans-Serif" font-size="10.00">Fiea::Engine::RTTI</text>
<text xml:space="preserve" text-anchor="middle" x="836.5" y="-56.5" font-family="Helvetica,sans-Serif" font-size="10.00">::Equals</text>
</a>
</g>
</g>
<!-- Node6&#45;&gt;Node10 -->
<g id="edge10_Node000006_Node000010" class="edge">
<title>Node6&#45;&gt;Node10</title>
<g id="a_edge10_Node000006_Node000010"><a xlink:title=" ">
<path fill="none" stroke="#63b8ff" d="M735.79,-95.59C748.59,-91.79 762.55,-87.65 775.86,-83.7"/>
<polygon fill="#63b8ff" stroke="#63b8ff" points="776.81,-87.07 785.4,-80.87 774.81,-80.36 776.81,-87.07"/>
</a>
</g>
</g>
<!-- Node11 -->
<g id="Node000011" class="node">
<title>Node11</title>
<g id="a_Node000011"><a xlink:href="class_fiea_1_1_engine_1_1_r_t_t_i.html#a43a7d187e332a17d2c699bc2c8136a30" target="_top" xlink:title=" ">
<polygon fill="white" stroke="#666666" points="885.75,-32 787.25,-32 787.25,0 885.75,0 885.75,-32"/>
<text xml:space="preserve" text-anchor="start" x="795.25" y="-18.5" font-family="Helvetica,sans-Serif" font-size="10.00">Fiea::Engine::RTTI</text>
<text xml:space="preserve" text-anchor="middle" x="836.5" y="-6.5" font-family="Helvetica,sans-Serif" font-size="10.00">::ToString</text>
</a>
</g>
</g>
<!-- Node6&#45;&gt;Node11 -->
<g id="edge14_Node000006_Node000011" class="edge">
<title>Node6&#45;&gt;Node11</title>
<g id="a_edge14_Node000006_Node000011"><a xlink:title=" ">
<path fill="none" stroke="#63b8ff" d="M706.19,-93.51C723.97,-78.56 751.74,-56.54 778.25,-41 780.26,-39.82 782.34,-38.66 784.45,-37.53"/>
<polygon fill="#63b8ff" stroke="#63b8ff" points="785.84,-40.75 793.21,-33.13 782.7,-34.5 785.84,-40.75"/>
</a>
</g>
</g>
<!-- Node7&#45;&gt;Node8 -->
<g id="edge8_Node000007_Node000008" class="edge">
<title>Node7&#45;&gt;Node8</title>
<g id="a_edge8_Node000007_Node000008"><a xlink:title=" ">
<path fill="none" stroke="#63b8ff" d="M894.96,-156.51C902.85,-157.67 911,-158.88 919.03,-160.07"/>
<polygon fill="#63b8ff" stroke="#63b8ff" points="918.38,-163.51 928.78,-161.51 919.41,-156.59 918.38,-163.51"/>
</a>
</g>
</g>
<!-- Node7&#45;&gt;Node9 -->
<g id="edge9_Node000007_Node000009" class="edge">
<title>Node7&#45;&gt;Node9</title>
<g id="a_edge9_Node000007_Node000009"><a xlink:title=" ">
<path fill="none" stroke="#63b8ff" d="M878.51,-137.52C893.38,-133.71 910.49,-129.34 926.63,-125.21"/>
<polygon fill="#63b8ff" stroke="#63b8ff" points="927.32,-128.65 936.14,-122.78 925.59,-121.87 927.32,-128.65"/>
</a>
</g>
</g>
<!-- Node10&#45;&gt;Node9 -->
<g id="edge11_Node000010_Node000009" class="edge">
<title>Node10&#45;&gt;Node9</title>
<g id="a_edge11_Node000010_Node000009"><a xlink:title=" ">
<path fill="none" stroke="#63b8ff" d="M886.17,-80.41C899.19,-84.26 913.42,-88.47 926.94,-92.48"/>
<polygon fill="#63b8ff" stroke="#63b8ff" points="925.57,-95.72 936.15,-95.21 927.56,-89.01 925.57,-95.72"/>
</a>
</g>
</g>
</g>
</svg>
