<?xml version="1.0" encoding="UTF-8" standalone="no"?>
<!DOCTYPE svg PUBLIC "-//W3C//DTD SVG 1.1//EN"
 "http://www.w3.org/Graphics/SVG/1.1/DTD/svg11.dtd">
<!-- Generated by graphviz version 13.1.0 (20250701.0955)
 -->
<!-- Title: Fiea::Engine::Content::Datum::GetAsTable Pages: 1 -->
<svg width="448pt" height="944pt"
 viewBox="0.00 0.00 448.00 944.00" xmlns="http://www.w3.org/2000/svg" xmlns:xlink="http://www.w3.org/1999/xlink">
<g id="graph0" class="graph" transform="scale(1 1) rotate(0) translate(4 940)">
<title>Fiea::Engine::Content::Datum::GetAsTable</title>
<!-- Node1 -->
<g id="Node000001" class="node">
<title>Node1</title>
<g id="a_Node000001"><a xlink:title=" ">
<polygon fill="#999999" stroke="#666666" points="439.5,-487 328.25,-487 328.25,-455 439.5,-455 439.5,-487"/>
<text xml:space="preserve" text-anchor="start" x="336.25" y="-473.5" font-family="Helvetica,sans-Serif" font-size="10.00">Fiea::Engine::Content</text>
<text xml:space="preserve" text-anchor="middle" x="383.88" y="-461.5" font-family="Helvetica,sans-Serif" font-size="10.00">::Datum::GetAsTable</text>
</a>
</g>
</g>
<!-- Node2 -->
<g id="Node000002" class="node">
<title>Node2</title>
<g id="a_Node000002"><a xlink:href="class_fiea_1_1_engine_1_1_actions_1_1_action_delayed.html#a83565992cd6fe62828ba89cb8f572513" target="_top" xlink:title=" ">
<polygon fill="white" stroke="#666666" points="292.25,-936 136.75,-936 136.75,-904 292.25,-904 292.25,-936"/>
<text xml:space="preserve" text-anchor="start" x="144.75" y="-922.5" font-family="Helvetica,sans-Serif" font-size="10.00">Fiea::Engine::Actions</text>
<text xml:space="preserve" text-anchor="middle" x="214.5" y="-910.5" font-family="Helvetica,sans-Serif" font-size="10.00">::ActionDelayed::CleanupAction</text>
</a>
</g>
</g>
<!-- Node1&#45;&gt;Node2 -->
<g id="edge1_Node000001_Node000002" class="edge">
<title>Node1&#45;&gt;Node2</title>
<g id="a_edge1_Node000001_Node000002"><a xlink:title=" ">
<path fill="none" stroke="#63b8ff" d="M380.53,-498.62C372.84,-583.06 345.73,-835.62 292.25,-895 289.25,-898.33 285.8,-901.22 282.06,-903.73"/>
<polygon fill="#63b8ff" stroke="#63b8ff" points="384.01,-498.99 381.41,-488.72 377.04,-498.37 384.01,-498.99"/>
</a>
</g>
</g>
<!-- Node3 -->
<g id="Node000003" class="node">
<title>Node3</title>
<g id="a_Node000003"><a xlink:href="class_fiea_1_1_engine_1_1_actions_1_1_action_list.html#a7e02ca4299cca5d542f6e140a7cadc55" target="_top" xlink:title=" ">
<polygon fill="white" stroke="#666666" points="282.12,-886 146.88,-886 146.88,-854 282.12,-854 282.12,-886"/>
<text xml:space="preserve" text-anchor="start" x="154.88" y="-872.5" font-family="Helvetica,sans-Serif" font-size="10.00">Fiea::Engine::Actions</text>
<text xml:space="preserve" text-anchor="middle" x="214.5" y="-860.5" font-family="Helvetica,sans-Serif" font-size="10.00">::ActionList::CleanupAction</text>
</a>
</g>
</g>
<!-- Node1&#45;&gt;Node3 -->
<g id="edge2_Node000001_Node000003" class="edge">
<title>Node1&#45;&gt;Node3</title>
<g id="a_edge2_Node000001_Node000003"><a xlink:title=" ">
<path fill="none" stroke="#63b8ff" d="M379.67,-498.67C370.16,-576.28 339.75,-793.69 292.25,-845 289.2,-848.29 285.72,-851.15 281.96,-853.63"/>
<polygon fill="#63b8ff" stroke="#63b8ff" points="383.12,-499.31 380.84,-488.97 376.17,-498.48 383.12,-499.31"/>
</a>
</g>
</g>
<!-- Node4 -->
<g id="Node000004" class="node">
<title>Node4</title>
<g id="a_Node000004"><a xlink:href="class_fiea_1_1_engine_1_1_actions_1_1_action_list_while_loop.html#ae017bdc5b560cb6fb9f84a50c545c2ed" target="_top" xlink:title=" ">
<polygon fill="white" stroke="#666666" points="270.12,-836 158.88,-836 158.88,-792 270.12,-792 270.12,-836"/>
<text xml:space="preserve" text-anchor="start" x="166.88" y="-822.5" font-family="Helvetica,sans-Serif" font-size="10.00">Fiea::Engine::Actions</text>
<text xml:space="preserve" text-anchor="start" x="166.88" y="-810.5" font-family="Helvetica,sans-Serif" font-size="10.00">::ActionListWhileLoop</text>
<text xml:space="preserve" text-anchor="middle" x="214.5" y="-798.5" font-family="Helvetica,sans-Serif" font-size="10.00">::CleanupAction</text>
</a>
</g>
</g>
<!-- Node1&#45;&gt;Node4 -->
<g id="edge3_Node000001_Node000004" class="edge">
<title>Node1&#45;&gt;Node4</title>
<g id="a_edge3_Node000001_Node000004"><a xlink:title=" ">
<path fill="none" stroke="#63b8ff" d="M382.57,-498.68C380.44,-558.26 367.27,-699.97 292.25,-783 286.18,-789.72 278.45,-795.01 270.24,-799.16"/>
<polygon fill="#63b8ff" stroke="#63b8ff" points="386.07,-498.86 382.83,-488.77 379.07,-498.68 386.07,-498.86"/>
</a>
</g>
</g>
<!-- Node5 -->
<g id="Node000005" class="node">
<title>Node5</title>
<g id="a_Node000005"><a xlink:href="class_fiea_1_1_engine_1_1_actions_1_1_action_timed.html#a6ba5b5e467a4772e9f3a598b3065a9f4" target="_top" xlink:title=" ">
<polygon fill="white" stroke="#666666" points="287.75,-774 141.25,-774 141.25,-742 287.75,-742 287.75,-774"/>
<text xml:space="preserve" text-anchor="start" x="149.25" y="-760.5" font-family="Helvetica,sans-Serif" font-size="10.00">Fiea::Engine::Actions</text>
<text xml:space="preserve" text-anchor="middle" x="214.5" y="-748.5" font-family="Helvetica,sans-Serif" font-size="10.00">::ActionTimed::CleanupAction</text>
</a>
</g>
</g>
<!-- Node1&#45;&gt;Node5 -->
<g id="edge4_Node000001_Node000005" class="edge">
<title>Node1&#45;&gt;Node5</title>
<g id="a_edge4_Node000001_Node000005"><a xlink:title=" ">
<path fill="none" stroke="#63b8ff" d="M381.18,-498.61C376.46,-551.53 358.68,-667.77 292.25,-733 288.95,-736.24 285.23,-739.06 281.24,-741.52"/>
<polygon fill="#63b8ff" stroke="#63b8ff" points="384.65,-499.2 381.95,-488.96 377.67,-498.65 384.65,-499.2"/>
</a>
</g>
</g>
<!-- Node6 -->
<g id="Node000006" class="node">
<title>Node6</title>
<g id="a_Node000006"><a xlink:href="class_fiea_1_1_engine_1_1_game_object.html#a31fde54010ab18837926a5c8d8cc45d7" target="_top" xlink:title=" ">
<polygon fill="white" stroke="#666666" points="280.25,-724 148.75,-724 148.75,-692 280.25,-692 280.25,-724"/>
<text xml:space="preserve" text-anchor="start" x="156.75" y="-710.5" font-family="Helvetica,sans-Serif" font-size="10.00">Fiea::Engine::GameObject</text>
<text xml:space="preserve" text-anchor="middle" x="214.5" y="-698.5" font-family="Helvetica,sans-Serif" font-size="10.00">::ForEachChild</text>
</a>
</g>
</g>
<!-- Node1&#45;&gt;Node6 -->
<g id="edge5_Node000001_Node000006" class="edge">
<title>Node1&#45;&gt;Node6</title>
<g id="a_edge5_Node000001_Node000006"><a xlink:title=" ">
<path fill="none" stroke="#63b8ff" d="M378.57,-498.65C370.12,-543.65 347.17,-632.76 292.25,-683 288.63,-686.31 284.57,-689.18 280.25,-691.68"/>
<polygon fill="#63b8ff" stroke="#63b8ff" points="381.99,-499.39 380.28,-488.94 375.1,-498.18 381.99,-499.39"/>
</a>
</g>
</g>
<!-- Node8 -->
<g id="Node000008" class="node">
<title>Node8</title>
<g id="a_Node000008"><a xlink:href="class_fiea_1_1_engine_1_1_game_object.html#a419444f6d624e97d5287ffe2c481d67a" target="_top" xlink:title=" ">
<polygon fill="white" stroke="#666666" points="280.25,-624 148.75,-624 148.75,-592 280.25,-592 280.25,-624"/>
<text xml:space="preserve" text-anchor="start" x="156.75" y="-610.5" font-family="Helvetica,sans-Serif" font-size="10.00">Fiea::Engine::GameObject</text>
<text xml:space="preserve" text-anchor="middle" x="214.5" y="-598.5" font-family="Helvetica,sans-Serif" font-size="10.00">::GetChild</text>
</a>
</g>
</g>
<!-- Node1&#45;&gt;Node8 -->
<g id="edge7_Node000001_Node000008" class="edge">
<title>Node1&#45;&gt;Node8</title>
<g id="a_edge7_Node000001_Node000008"><a xlink:title=" ">
<path fill="none" stroke="#63b8ff" d="M368.1,-496.89C352.36,-522.25 325.21,-560.32 292.25,-583 287.52,-586.26 282.33,-589.11 276.96,-591.61"/>
<polygon fill="#63b8ff" stroke="#63b8ff" points="370.99,-498.86 373.16,-488.49 365,-495.25 370.99,-498.86"/>
</a>
</g>
</g>
<!-- Node9 -->
<g id="Node000009" class="node">
<title>Node9</title>
<g id="a_Node000009"><a xlink:href="namespace_fiea_1_1_engine_1_1_tests.html#a89b054e30b186f60d7f23c17503265da" target="_top" xlink:title=" ">
<polygon fill="white" stroke="#666666" points="100.75,-556 0,-556 0,-524 100.75,-524 100.75,-556"/>
<text xml:space="preserve" text-anchor="start" x="8" y="-542.5" font-family="Helvetica,sans-Serif" font-size="10.00">Fiea::Engine::Tests</text>
<text xml:space="preserve" text-anchor="middle" x="50.38" y="-530.5" font-family="Helvetica,sans-Serif" font-size="10.00">::TEST_CLASS</text>
</a>
</g>
</g>
<!-- Node1&#45;&gt;Node9 -->
<g id="edge20_Node000001_Node000009" class="edge">
<title>Node1&#45;&gt;Node9</title>
<g id="a_edge20_Node000001_Node000009"><a xlink:title=" ">
<path fill="none" stroke="#63b8ff" d="M316.53,-480.87C266.77,-488.75 197.12,-500.81 136.75,-515 125.17,-517.72 112.84,-521.07 101.25,-524.42"/>
<polygon fill="#63b8ff" stroke="#63b8ff" points="316.95,-484.35 326.29,-479.34 315.87,-477.43 316.95,-484.35"/>
</a>
</g>
</g>
<!-- Node10 -->
<g id="Node000010" class="node">
<title>Node10</title>
<g id="a_Node000010"><a xlink:href="class_fiea_1_1_engine_1_1_actions_1_1_action_list_while_loop.html#ac52e5fce78944ac5a9aa9325d1c32bf7" target="_top" xlink:title=" ">
<polygon fill="white" stroke="#666666" points="270.12,-468 158.88,-468 158.88,-424 270.12,-424 270.12,-468"/>
<text xml:space="preserve" text-anchor="start" x="166.88" y="-454.5" font-family="Helvetica,sans-Serif" font-size="10.00">Fiea::Engine::Actions</text>
<text xml:space="preserve" text-anchor="start" x="166.88" y="-442.5" font-family="Helvetica,sans-Serif" font-size="10.00">::ActionListWhileLoop</text>
<text xml:space="preserve" text-anchor="middle" x="214.5" y="-430.5" font-family="Helvetica,sans-Serif" font-size="10.00">::InitAction</text>
</a>
</g>
</g>
<!-- Node1&#45;&gt;Node10 -->
<g id="edge10_Node000001_Node000010" class="edge">
<title>Node1&#45;&gt;Node10</title>
<g id="a_edge10_Node000001_Node000010"><a xlink:title=" ">
<path fill="none" stroke="#63b8ff" d="M317.02,-461.16C301.59,-458.86 285.32,-456.43 270.43,-454.2"/>
<polygon fill="#63b8ff" stroke="#63b8ff" points="316.17,-464.57 326.57,-462.59 317.2,-457.65 316.17,-464.57"/>
</a>
</g>
</g>
<!-- Node11 -->
<g id="Node000011" class="node">
<title>Node11</title>
<g id="a_Node000011"><a xlink:href="class_fiea_1_1_engine_1_1_actions_1_1_action_list.html#a4d1536d33dd42d194860a728a0a32df1" target="_top" xlink:title=" ">
<polygon fill="white" stroke="#666666" points="282.5,-406 146.5,-406 146.5,-374 282.5,-374 282.5,-406"/>
<text xml:space="preserve" text-anchor="start" x="154.5" y="-392.5" font-family="Helvetica,sans-Serif" font-size="10.00">Fiea::Engine::Actions</text>
<text xml:space="preserve" text-anchor="middle" x="214.5" y="-380.5" font-family="Helvetica,sans-Serif" font-size="10.00">::ActionList::RemoveAction</text>
</a>
</g>
</g>
<!-- Node1&#45;&gt;Node11 -->
<g id="edge11_Node000001_Node000011" class="edge">
<title>Node1&#45;&gt;Node11</title>
<g id="a_edge11_Node000001_Node000011"><a xlink:title=" ">
<path fill="none" stroke="#63b8ff" d="M350.52,-448.39C333.69,-437.31 312.45,-424.37 292.25,-415 285.64,-411.93 278.55,-409.08 271.44,-406.48"/>
<polygon fill="#63b8ff" stroke="#63b8ff" points="348.37,-451.16 358.63,-453.81 352.27,-445.34 348.37,-451.16"/>
</a>
</g>
</g>
<!-- Node12 -->
<g id="Node000012" class="node">
<title>Node12</title>
<g id="a_Node000012"><a xlink:href="class_fiea_1_1_engine_1_1_game_object.html#afb652b102eac13f7e03e86c64513517e" target="_top" xlink:title=" ">
<polygon fill="white" stroke="#666666" points="280.25,-674 148.75,-674 148.75,-642 280.25,-642 280.25,-674"/>
<text xml:space="preserve" text-anchor="start" x="156.75" y="-660.5" font-family="Helvetica,sans-Serif" font-size="10.00">Fiea::Engine::GameObject</text>
<text xml:space="preserve" text-anchor="middle" x="214.5" y="-648.5" font-family="Helvetica,sans-Serif" font-size="10.00">::RemoveChild</text>
</a>
</g>
</g>
<!-- Node1&#45;&gt;Node12 -->
<g id="edge12_Node000001_Node000012" class="edge">
<title>Node1&#45;&gt;Node12</title>
<g id="a_edge12_Node000001_Node000012"><a xlink:title=" ">
<path fill="none" stroke="#63b8ff" d="M374.69,-498.05C362.46,-533.96 336.06,-597 292.25,-633 288.24,-636.29 283.79,-639.15 279.11,-641.64"/>
<polygon fill="#63b8ff" stroke="#63b8ff" points="377.91,-499.45 377.69,-488.85 371.26,-497.27 377.91,-499.45"/>
</a>
</g>
</g>
<!-- Node13 -->
<g id="Node000013" class="node">
<title>Node13</title>
<g id="a_Node000013"><a xlink:href="class_fiea_1_1_engine_1_1_actions_1_1_action_conditional_increment.html#a4cb7636a1237acda5ef08f94cb41ae48" target="_top" xlink:title=" ">
<polygon fill="white" stroke="#666666" points="285.5,-356 143.5,-356 143.5,-312 285.5,-312 285.5,-356"/>
<text xml:space="preserve" text-anchor="start" x="151.5" y="-342.5" font-family="Helvetica,sans-Serif" font-size="10.00">Fiea::Engine::Actions</text>
<text xml:space="preserve" text-anchor="start" x="151.5" y="-330.5" font-family="Helvetica,sans-Serif" font-size="10.00">::ActionConditionalIncrement</text>
<text xml:space="preserve" text-anchor="middle" x="214.5" y="-318.5" font-family="Helvetica,sans-Serif" font-size="10.00">::RunAction</text>
</a>
</g>
</g>
<!-- Node1&#45;&gt;Node13 -->
<g id="edge14_Node000001_Node000013" class="edge">
<title>Node1&#45;&gt;Node13</title>
<g id="a_edge14_Node000001_Node000013"><a xlink:title=" ">
<path fill="none" stroke="#63b8ff" d="M366.42,-445.49C350.07,-421.87 323.03,-387.15 292.25,-365 287.93,-361.89 283.26,-359.04 278.43,-356.43"/>
<polygon fill="#63b8ff" stroke="#63b8ff" points="363.41,-447.29 371.91,-453.61 369.21,-443.37 363.41,-447.29"/>
</a>
</g>
</g>
<!-- Node14 -->
<g id="Node000014" class="node">
<title>Node14</title>
<g id="a_Node000014"><a xlink:href="class_fiea_1_1_engine_1_1_actions_1_1_action_delayed.html#a709534fdda2c17d92f4324f84e29d977" target="_top" xlink:title=" ">
<polygon fill="white" stroke="#666666" points="283.25,-294 145.75,-294 145.75,-262 283.25,-262 283.25,-294"/>
<text xml:space="preserve" text-anchor="start" x="153.75" y="-280.5" font-family="Helvetica,sans-Serif" font-size="10.00">Fiea::Engine::Actions</text>
<text xml:space="preserve" text-anchor="middle" x="214.5" y="-268.5" font-family="Helvetica,sans-Serif" font-size="10.00">::ActionDelayed::RunAction</text>
</a>
</g>
</g>
<!-- Node1&#45;&gt;Node14 -->
<g id="edge15_Node000001_Node000014" class="edge">
<title>Node1&#45;&gt;Node14</title>
<g id="a_edge15_Node000001_Node000014"><a xlink:title=" ">
<path fill="none" stroke="#63b8ff" d="M375.24,-443.81C363.46,-406.74 337.36,-340.65 292.25,-303 288.38,-299.77 284.08,-296.95 279.54,-294.49"/>
<polygon fill="#63b8ff" stroke="#63b8ff" points="371.87,-444.76 378.13,-453.31 378.57,-442.72 371.87,-444.76"/>
</a>
</g>
</g>
<!-- Node15 -->
<g id="Node000015" class="node">
<title>Node15</title>
<g id="a_Node000015"><a xlink:href="class_fiea_1_1_engine_1_1_actions_1_1_action_list.html#a492054b1164d5e86602f968527ac0b9d" target="_top" xlink:title=" ">
<polygon fill="white" stroke="#666666" points="273.12,-244 155.88,-244 155.88,-212 273.12,-212 273.12,-244"/>
<text xml:space="preserve" text-anchor="start" x="163.88" y="-230.5" font-family="Helvetica,sans-Serif" font-size="10.00">Fiea::Engine::Actions</text>
<text xml:space="preserve" text-anchor="middle" x="214.5" y="-218.5" font-family="Helvetica,sans-Serif" font-size="10.00">::ActionList::RunAction</text>
</a>
</g>
</g>
<!-- Node1&#45;&gt;Node15 -->
<g id="edge16_Node000001_Node000015" class="edge">
<title>Node1&#45;&gt;Node15</title>
<g id="a_edge16_Node000001_Node000015"><a xlink:title=" ">
<path fill="none" stroke="#63b8ff" d="M378.98,-443.56C371.02,-397.62 348.63,-305.09 292.25,-253 286.79,-247.96 280.31,-243.94 273.45,-240.72"/>
<polygon fill="#63b8ff" stroke="#63b8ff" points="375.48,-443.89 380.54,-453.2 382.39,-442.77 375.48,-443.89"/>
</a>
</g>
</g>
<!-- Node16 -->
<g id="Node000016" class="node">
<title>Node16</title>
<g id="a_Node000016"><a xlink:href="class_fiea_1_1_engine_1_1_actions_1_1_action_list_while_loop.html#a7290de0f669f9591885d994906b2736f" target="_top" xlink:title=" ">
<polygon fill="white" stroke="#666666" points="270.12,-194 158.88,-194 158.88,-150 270.12,-150 270.12,-194"/>
<text xml:space="preserve" text-anchor="start" x="166.88" y="-180.5" font-family="Helvetica,sans-Serif" font-size="10.00">Fiea::Engine::Actions</text>
<text xml:space="preserve" text-anchor="start" x="166.88" y="-168.5" font-family="Helvetica,sans-Serif" font-size="10.00">::ActionListWhileLoop</text>
<text xml:space="preserve" text-anchor="middle" x="214.5" y="-156.5" font-family="Helvetica,sans-Serif" font-size="10.00">::RunAction</text>
</a>
</g>
</g>
<!-- Node1&#45;&gt;Node16 -->
<g id="edge17_Node000001_Node000016" class="edge">
<title>Node1&#45;&gt;Node16</title>
<g id="a_edge17_Node000001_Node000016"><a xlink:title=" ">
<path fill="none" stroke="#63b8ff" d="M381,-443.56C375.95,-390.35 357.62,-272.26 292.25,-203 286.13,-196.52 278.48,-191.36 270.39,-187.26"/>
<polygon fill="#63b8ff" stroke="#63b8ff" points="377.49,-443.59 381.83,-453.26 384.47,-443 377.49,-443.59"/>
</a>
</g>
</g>
<!-- Node17 -->
<g id="Node000017" class="node">
<title>Node17</title>
<g id="a_Node000017"><a xlink:href="class_fiea_1_1_engine_1_1_actions_1_1_action_timed.html#a1a83c312108a0d9f3ac4f84a5042db38" target="_top" xlink:title=" ">
<polygon fill="white" stroke="#666666" points="278.75,-132 150.25,-132 150.25,-100 278.75,-100 278.75,-132"/>
<text xml:space="preserve" text-anchor="start" x="158.25" y="-118.5" font-family="Helvetica,sans-Serif" font-size="10.00">Fiea::Engine::Actions</text>
<text xml:space="preserve" text-anchor="middle" x="214.5" y="-106.5" font-family="Helvetica,sans-Serif" font-size="10.00">::ActionTimed::RunAction</text>
</a>
</g>
</g>
<!-- Node1&#45;&gt;Node17 -->
<g id="edge18_Node000001_Node000017" class="edge">
<title>Node1&#45;&gt;Node17</title>
<g id="a_edge18_Node000001_Node000017"><a xlink:title=" ">
<path fill="none" stroke="#63b8ff" d="M383.54,-443.46C383.51,-380.98 374.54,-227.24 292.25,-141 288.38,-136.94 283.85,-133.55 278.95,-130.7"/>
<polygon fill="#63b8ff" stroke="#63b8ff" points="380.04,-443.15 383.46,-453.18 387.04,-443.21 380.04,-443.15"/>
</a>
</g>
</g>
<!-- Node18 -->
<g id="Node000018" class="node">
<title>Node18</title>
<g id="a_Node000018"><a xlink:href="namespace_fiea_1_1_engine_1_1_tests.html#a15040015fac83efdce86366a293948ae" target="_top" xlink:title=" ">
<polygon fill="white" stroke="#666666" points="264.88,-82 164.12,-82 164.12,-50 264.88,-50 264.88,-82"/>
<text xml:space="preserve" text-anchor="start" x="172.12" y="-68.5" font-family="Helvetica,sans-Serif" font-size="10.00">Fiea::Engine::Tests</text>
<text xml:space="preserve" text-anchor="middle" x="214.5" y="-56.5" font-family="Helvetica,sans-Serif" font-size="10.00">::TEST_CLASS</text>
</a>
</g>
</g>
<!-- Node1&#45;&gt;Node18 -->
<g id="edge19_Node000001_Node000018" class="edge">
<title>Node1&#45;&gt;Node18</title>
<g id="a_edge19_Node000001_Node000018"><a xlink:title=" ">
<path fill="none" stroke="#63b8ff" d="M379.8,-443.42C370.52,-365.05 340.48,-143.29 292.25,-91 285.03,-83.17 275.33,-77.79 265.26,-74.09"/>
<polygon fill="#63b8ff" stroke="#63b8ff" points="376.3,-443.69 380.93,-453.22 383.26,-442.88 376.3,-443.69"/>
</a>
</g>
</g>
<!-- Node19 -->
<g id="Node000019" class="node">
<title>Node19</title>
<g id="a_Node000019"><a xlink:href="namespace_fiea_1_1_engine_1_1_tests.html#ad3e53e7e3f072321bc7199970c619c1d" target="_top" xlink:title=" ">
<polygon fill="white" stroke="#666666" points="264.88,-32 164.12,-32 164.12,0 264.88,0 264.88,-32"/>
<text xml:space="preserve" text-anchor="start" x="172.12" y="-18.5" font-family="Helvetica,sans-Serif" font-size="10.00">Fiea::Engine::Tests</text>
<text xml:space="preserve" text-anchor="middle" x="214.5" y="-6.5" font-family="Helvetica,sans-Serif" font-size="10.00">::TEST_CLASS</text>
</a>
</g>
</g>
<!-- Node1&#45;&gt;Node19 -->
<g id="edge21_Node000001_Node000019" class="edge">
<title>Node1&#45;&gt;Node19</title>
<g id="a_edge21_Node000001_Node000019"><a xlink:title=" ">
<path fill="none" stroke="#63b8ff" d="M380.61,-443.25C373.11,-357.89 346.43,-101.32 292.25,-41 285.04,-32.97 275.22,-27.51 265.02,-23.8"/>
<polygon fill="#63b8ff" stroke="#63b8ff" points="377.11,-443.39 381.45,-453.05 384.08,-442.79 377.11,-443.39"/>
</a>
</g>
</g>
<!-- Node20 -->
<g id="Node000020" class="node">
<title>Node20</title>
<g id="a_Node000020"><a xlink:href="class_fiea_1_1_engine_1_1_game_object.html#a98e7dc26718acd4dba6f1b5bbe0483b8" target="_top" xlink:title=" ">
<polygon fill="white" stroke="#666666" points="280.25,-556 148.75,-556 148.75,-524 280.25,-524 280.25,-556"/>
<text xml:space="preserve" text-anchor="start" x="156.75" y="-542.5" font-family="Helvetica,sans-Serif" font-size="10.00">Fiea::Engine::GameObject</text>
<text xml:space="preserve" text-anchor="middle" x="214.5" y="-530.5" font-family="Helvetica,sans-Serif" font-size="10.00">::Update</text>
</a>
</g>
</g>
<!-- Node1&#45;&gt;Node20 -->
<g id="edge22_Node000001_Node000020" class="edge">
<title>Node1&#45;&gt;Node20</title>
<g id="a_edge22_Node000001_Node000020"><a xlink:title=" ">
<path fill="none" stroke="#63b8ff" d="M335.24,-491.86C321.42,-497.81 306.27,-504.25 292.25,-510 281.27,-514.51 269.34,-519.25 258.23,-523.59"/>
<polygon fill="#63b8ff" stroke="#63b8ff" points="336.34,-495.2 344.13,-488.01 333.56,-488.77 336.34,-495.2"/>
</a>
</g>
</g>
<!-- Node7 -->
<g id="Node000007" class="node">
<title>Node7</title>
<g id="a_Node000007"><a xlink:href="namespace_fiea_1_1_engine_1_1_tests.html#a34b2b8dfbe4f7aa6a3ea0a5f24db384f" target="_top" xlink:title=" ">
<polygon fill="white" stroke="#666666" points="100.75,-649 0,-649 0,-617 100.75,-617 100.75,-649"/>
<text xml:space="preserve" text-anchor="start" x="8" y="-635.5" font-family="Helvetica,sans-Serif" font-size="10.00">Fiea::Engine::Tests</text>
<text xml:space="preserve" text-anchor="middle" x="50.38" y="-623.5" font-family="Helvetica,sans-Serif" font-size="10.00">::TEST_CLASS</text>
</a>
</g>
</g>
<!-- Node6&#45;&gt;Node7 -->
<g id="edge6_Node000006_Node000007" class="edge">
<title>Node6&#45;&gt;Node7</title>
<g id="a_edge6_Node000006_Node000007"><a xlink:title=" ">
<path fill="none" stroke="#63b8ff" d="M147.55,-687.55C143.87,-686.09 140.24,-684.57 136.75,-683 115.44,-673.42 92.68,-659.91 76.02,-649.35"/>
<polygon fill="#63b8ff" stroke="#63b8ff" points="146.03,-690.72 156.62,-690.98 148.5,-684.17 146.03,-690.72"/>
</a>
</g>
</g>
<!-- Node8&#45;&gt;Node7 -->
<g id="edge8_Node000008_Node000007" class="edge">
<title>Node8&#45;&gt;Node7</title>
<g id="a_edge8_Node000008_Node000007"><a xlink:title=" ">
<path fill="none" stroke="#63b8ff" d="M137.3,-619.75C125.03,-621.64 112.61,-623.56 101.17,-625.32"/>
<polygon fill="#63b8ff" stroke="#63b8ff" points="137.65,-623.24 147,-618.26 136.58,-616.32 137.65,-623.24"/>
</a>
</g>
</g>
<!-- Node8&#45;&gt;Node9 -->
<g id="edge9_Node000008_Node000009" class="edge">
<title>Node8&#45;&gt;Node9</title>
<g id="a_edge9_Node000008_Node000009"><a xlink:title=" ">
<path fill="none" stroke="#63b8ff" d="M148.65,-587.66C144.6,-586.14 140.6,-584.59 136.75,-583 117.88,-575.23 97.43,-565 81.28,-556.46"/>
<polygon fill="#63b8ff" stroke="#63b8ff" points="147.43,-590.93 158.02,-591.03 149.8,-584.35 147.43,-590.93"/>
</a>
</g>
</g>
<!-- Node12&#45;&gt;Node7 -->
<g id="edge13_Node000012_Node000007" class="edge">
<title>Node12&#45;&gt;Node7</title>
<g id="a_edge13_Node000012_Node000007"><a xlink:title=" ">
<path fill="none" stroke="#63b8ff" d="M137.3,-646.25C125.03,-644.36 112.61,-642.44 101.17,-640.68"/>
<polygon fill="#63b8ff" stroke="#63b8ff" points="136.58,-649.68 147,-647.74 137.65,-642.76 136.58,-649.68"/>
</a>
</g>
</g>
<!-- Node20&#45;&gt;Node7 -->
<g id="edge23_Node000020_Node000007" class="edge">
<title>Node20&#45;&gt;Node7</title>
<g id="a_edge23_Node000020_Node000007"><a xlink:title=" ">
<path fill="none" stroke="#63b8ff" d="M174.14,-561.86C162.11,-568.59 148.86,-576.06 136.75,-583 117.37,-594.1 95.66,-606.82 78.98,-616.65"/>
<polygon fill="#63b8ff" stroke="#63b8ff" points="175.56,-565.08 182.58,-557.15 172.15,-558.97 175.56,-565.08"/>
</a>
</g>
</g>
<!-- Node20&#45;&gt;Node9 -->
<g id="edge24_Node000020_Node000009" class="edge">
<title>Node20&#45;&gt;Node9</title>
<g id="a_edge24_Node000020_Node000009"><a xlink:title=" ">
<path fill="none" stroke="#63b8ff" d="M137.3,-540C125.03,-540 112.61,-540 101.17,-540"/>
<polygon fill="#63b8ff" stroke="#63b8ff" points="136.98,-543.5 146.98,-540 136.98,-536.5 136.98,-543.5"/>
</a>
</g>
</g>
<!-- Node20&#45;&gt;Node20 -->
<g id="edge25_Node000020_Node000020" class="edge">
<title>Node20&#45;&gt;Node20</title>
<g id="a_edge25_Node000020_Node000020"><a xlink:title=" ">
<path fill="none" stroke="#63b8ff" d="M241.85,-567.71C237.29,-571.48 228.17,-574 214.5,-574 189.5,-574 179.73,-565.58 185.2,-556.44"/>
<polygon fill="#63b8ff" stroke="#63b8ff" points="245.29,-568.38 243.54,-557.93 238.39,-567.19 245.29,-568.38"/>
</a>
</g>
</g>
</g>
</svg>
