<?xml version="1.0" encoding="UTF-8" standalone="no"?>
<!DOCTYPE svg PUBLIC "-//W3C//DTD SVG 1.1//EN"
 "http://www.w3.org/Graphics/SVG/1.1/DTD/svg11.dtd">
<!-- Generated by graphviz version 13.1.0 (20250701.0955)
 -->
<!-- Title: Fiea::Engine::GameObject::operator= Pages: 1 -->
<svg width="904pt" height="255pt"
 viewBox="0.00 0.00 904.00 255.00" xmlns="http://www.w3.org/2000/svg" xmlns:xlink="http://www.w3.org/1999/xlink">
<g id="graph0" class="graph" transform="scale(1 1) rotate(0) translate(4 250.7)">
<title>Fiea::Engine::GameObject::operator=</title>
<!-- Node1 -->
<g id="Node000001" class="node">
<title>Node1</title>
<g id="a_Node000001"><a xlink:title=" ">
<polygon fill="#999999" stroke="#666666" points="131.5,-97.53 0,-97.53 0,-65.53 131.5,-65.53 131.5,-97.53"/>
<text xml:space="preserve" text-anchor="start" x="8" y="-84.03" font-family="Helvetica,sans-Serif" font-size="10.00">Fiea::Engine::GameObject</text>
<text xml:space="preserve" text-anchor="middle" x="65.75" y="-72.03" font-family="Helvetica,sans-Serif" font-size="10.00">::operator=</text>
</a>
</g>
</g>
<!-- Node2 -->
<g id="Node000002" class="node">
<title>Node2</title>
<g id="a_Node000002"><a xlink:href="class_fiea_1_1_engine_1_1_game_object.html#ad3a296dd56ec43cc9f81eef0b1d14db6" target="_top" xlink:title=" ">
<polygon fill="white" stroke="#666666" points="299,-122.53 167.5,-122.53 167.5,-90.53 299,-90.53 299,-122.53"/>
<text xml:space="preserve" text-anchor="start" x="175.5" y="-109.03" font-family="Helvetica,sans-Serif" font-size="10.00">Fiea::Engine::GameObject</text>
<text xml:space="preserve" text-anchor="middle" x="233.25" y="-97.03" font-family="Helvetica,sans-Serif" font-size="10.00">::GameObject</text>
</a>
</g>
</g>
<!-- Node1&#45;&gt;Node2 -->
<g id="edge1_Node000001_Node000002" class="edge">
<title>Node1&#45;&gt;Node2</title>
<g id="a_edge1_Node000001_Node000002"><a xlink:title=" ">
<path fill="none" stroke="#63b8ff" d="M131.68,-91.34C139.63,-92.54 147.79,-93.77 155.88,-94.99"/>
<polygon fill="#63b8ff" stroke="#63b8ff" points="155.32,-98.45 165.73,-96.48 156.37,-91.53 155.32,-98.45"/>
</a>
</g>
</g>
<!-- Node10 -->
<g id="Node000010" class="node">
<title>Node10</title>
<g id="a_Node000010"><a xlink:href="class_fiea_1_1_engine_1_1_content_1_1_attributed.html#ad00b7ac2fa53d92d617e235da1f83055" target="_top" xlink:title="Copy assignment operator.">
<polygon fill="white" stroke="#666666" points="288.88,-72.53 177.62,-72.53 177.62,-40.53 288.88,-40.53 288.88,-72.53"/>
<text xml:space="preserve" text-anchor="start" x="185.62" y="-59.03" font-family="Helvetica,sans-Serif" font-size="10.00">Fiea::Engine::Content</text>
<text xml:space="preserve" text-anchor="middle" x="233.25" y="-47.03" font-family="Helvetica,sans-Serif" font-size="10.00">::Attributed::operator=</text>
</a>
</g>
</g>
<!-- Node1&#45;&gt;Node10 -->
<g id="edge14_Node000001_Node000010" class="edge">
<title>Node1&#45;&gt;Node10</title>
<g id="a_edge14_Node000001_Node000010"><a xlink:title=" ">
<path fill="none" stroke="#63b8ff" d="M131.68,-71.72C142.96,-70.02 154.7,-68.24 166.01,-66.54"/>
<polygon fill="#63b8ff" stroke="#63b8ff" points="166.28,-70.03 175.64,-65.08 165.23,-63.11 166.28,-70.03"/>
</a>
</g>
</g>
<!-- Node3 -->
<g id="Node000003" class="node">
<title>Node3</title>
<g id="a_Node000003"><a xlink:href="class_fiea_1_1_engine_1_1_content_1_1_attributed.html#ad1ae014235d9d8b62b36066c94164148" target="_top" xlink:title=" ">
<polygon fill="white" stroke="#666666" points="447,-109.53 335,-109.53 335,-77.53 447,-77.53 447,-109.53"/>
<text xml:space="preserve" text-anchor="start" x="343" y="-96.03" font-family="Helvetica,sans-Serif" font-size="10.00">Fiea::Engine::Content</text>
<text xml:space="preserve" text-anchor="middle" x="391" y="-84.03" font-family="Helvetica,sans-Serif" font-size="10.00">::Attributed::Attributed</text>
</a>
</g>
</g>
<!-- Node2&#45;&gt;Node3 -->
<g id="edge2_Node000002_Node000003" class="edge">
<title>Node2&#45;&gt;Node3</title>
<g id="a_edge2_Node000002_Node000003"><a xlink:title=" ">
<path fill="none" stroke="#63b8ff" d="M299.4,-101.09C307.44,-100.42 315.68,-99.73 323.74,-99.06"/>
<polygon fill="#63b8ff" stroke="#63b8ff" points="323.8,-102.57 333.48,-98.25 323.22,-95.59 323.8,-102.57"/>
</a>
</g>
</g>
<!-- Node4 -->
<g id="Node000004" class="node">
<title>Node4</title>
<g id="a_Node000004"><a xlink:href="class_fiea_1_1_engine_1_1_r_t_t_i.html#a876bebbe7b3149483c43a87f55f4ea99" target="_top" xlink:title=" ">
<polygon fill="white" stroke="#666666" points="440.25,-184.53 341.75,-184.53 341.75,-152.53 440.25,-152.53 440.25,-184.53"/>
<text xml:space="preserve" text-anchor="start" x="349.75" y="-171.03" font-family="Helvetica,sans-Serif" font-size="10.00">Fiea::Engine::RTTI</text>
<text xml:space="preserve" text-anchor="middle" x="391" y="-159.03" font-family="Helvetica,sans-Serif" font-size="10.00">::TypeIdInstance</text>
</a>
</g>
</g>
<!-- Node2&#45;&gt;Node4 -->
<g id="edge4_Node000002_Node000004" class="edge">
<title>Node2&#45;&gt;Node4</title>
<g id="a_edge4_Node000002_Node000004"><a xlink:title=" ">
<path fill="none" stroke="#63b8ff" d="M275.58,-122.98C294.75,-130.61 317.75,-139.77 338.08,-147.86"/>
<polygon fill="#63b8ff" stroke="#63b8ff" points="336.76,-151.1 347.34,-151.55 339.35,-144.6 336.76,-151.1"/>
</a>
</g>
</g>
<!-- Node3&#45;&gt;Node3 -->
<g id="edge3_Node000003_Node000003" class="edge">
<title>Node3&#45;&gt;Node3</title>
<g id="a_edge3_Node000003_Node000003"><a xlink:title=" ">
<path fill="none" stroke="#63b8ff" d="M364.18,-109.97C359.17,-119.11 368.11,-127.53 391,-127.53 403.52,-127.53 411.86,-125.01 416.04,-121.24"/>
<polygon fill="#63b8ff" stroke="#63b8ff" points="419.48,-121.89 417.59,-111.47 412.56,-120.8 419.48,-121.89"/>
</a>
</g>
</g>
<!-- Node4&#45;&gt;Node4 -->
<g id="edge13_Node000004_Node000004" class="edge">
<title>Node4&#45;&gt;Node4</title>
<g id="a_edge13_Node000004_Node000004"><a xlink:title=" ">
<path fill="none" stroke="#63b8ff" d="M364.18,-184.97C359.17,-194.11 368.11,-202.53 391,-202.53 403.52,-202.53 411.86,-200.01 416.04,-196.24"/>
<polygon fill="#63b8ff" stroke="#63b8ff" points="419.48,-196.89 417.59,-186.47 412.56,-195.8 419.48,-196.89"/>
</a>
</g>
</g>
<!-- Node5 -->
<g id="Node000005" class="node">
<title>Node5</title>
<g id="a_Node000005"><a xlink:href="class_fiea_1_1_engine_1_1_r_t_t_i.html#a15bd5993c8ad04da47af440298ebbb30" target="_top" xlink:title=" ">
<polygon fill="white" stroke="#666666" points="599.5,-223.53 483,-223.53 483,-203.53 599.5,-203.53 599.5,-223.53"/>
<text xml:space="preserve" text-anchor="middle" x="541.25" y="-210.03" font-family="Helvetica,sans-Serif" font-size="10.00">Fiea::Engine::RTTI::As</text>
</a>
</g>
</g>
<!-- Node4&#45;&gt;Node5 -->
<g id="edge5_Node000004_Node000005" class="edge">
<title>Node4&#45;&gt;Node5</title>
<g id="a_edge5_Node000004_Node000005"><a xlink:title=" ">
<path fill="none" stroke="#63b8ff" d="M440.54,-183.26C458,-188.56 477.61,-194.52 494.8,-199.73"/>
<polygon fill="#63b8ff" stroke="#63b8ff" points="493.66,-203.04 504.24,-202.6 495.69,-196.35 493.66,-203.04"/>
</a>
</g>
</g>
<!-- Node6 -->
<g id="Node000006" class="node">
<title>Node6</title>
<g id="a_Node000006"><a xlink:href="class_fiea_1_1_engine_1_1_r_t_t_i.html#ac0a7d875e4513b2aca7594abcd4418ef" target="_top" xlink:title=" ">
<polygon fill="white" stroke="#666666" points="748.25,-245.53 635.5,-245.53 635.5,-225.53 748.25,-225.53 748.25,-245.53"/>
<text xml:space="preserve" text-anchor="middle" x="691.88" y="-232.03" font-family="Helvetica,sans-Serif" font-size="10.00">Fiea::Engine::RTTI::Is</text>
</a>
</g>
</g>
<!-- Node4&#45;&gt;Node6 -->
<g id="edge10_Node000004_Node000006" class="edge">
<title>Node4&#45;&gt;Node6</title>
<g id="a_edge10_Node000004_Node000006"><a xlink:title=" ">
<path fill="none" stroke="#63b8ff" d="M408.39,-184.76C425.41,-200.38 453.6,-222.99 483,-232.53 528.35,-247.24 582.24,-247.57 623.78,-244.44"/>
<polygon fill="#63b8ff" stroke="#63b8ff" points="623.98,-247.94 633.65,-243.6 623.39,-240.96 623.98,-247.94"/>
</a>
</g>
</g>
<!-- Node7 -->
<g id="Node000007" class="node">
<title>Node7</title>
<g id="a_Node000007"><a xlink:href="class_fiea_1_1_engine_1_1_r_t_t_i.html#a13000029a2e6cced30b831e466e07cae" target="_top" xlink:title=" ">
<polygon fill="white" stroke="#666666" points="741.12,-191.53 642.62,-191.53 642.62,-159.53 741.12,-159.53 741.12,-191.53"/>
<text xml:space="preserve" text-anchor="start" x="650.62" y="-178.03" font-family="Helvetica,sans-Serif" font-size="10.00">Fiea::Engine::RTTI</text>
<text xml:space="preserve" text-anchor="middle" x="691.88" y="-166.03" font-family="Helvetica,sans-Serif" font-size="10.00">::RTTI</text>
</a>
</g>
</g>
<!-- Node4&#45;&gt;Node7 -->
<g id="edge11_Node000004_Node000007" class="edge">
<title>Node4&#45;&gt;Node7</title>
<g id="a_edge11_Node000004_Node000007"><a xlink:title=" ">
<path fill="none" stroke="#63b8ff" d="M440.68,-169.67C492.68,-170.89 575.14,-172.82 631.05,-174.13"/>
<polygon fill="#63b8ff" stroke="#63b8ff" points="630.62,-177.62 640.7,-174.35 630.78,-170.62 630.62,-177.62"/>
</a>
</g>
</g>
<!-- Node8 -->
<g id="Node000008" class="node">
<title>Node8</title>
<g id="a_Node000008"><a xlink:href="class_fiea_1_1_engine_1_1_r_t_t_i.html#a7f70ad5ba0f8a3388543d63d72892575" target="_top" xlink:title=" ">
<polygon fill="white" stroke="#666666" points="590.5,-147.53 492,-147.53 492,-115.53 590.5,-115.53 590.5,-147.53"/>
<text xml:space="preserve" text-anchor="start" x="500" y="-134.03" font-family="Helvetica,sans-Serif" font-size="10.00">Fiea::Engine::RTTI</text>
<text xml:space="preserve" text-anchor="middle" x="541.25" y="-122.03" font-family="Helvetica,sans-Serif" font-size="10.00">::Equals</text>
</a>
</g>
</g>
<!-- Node4&#45;&gt;Node8 -->
<g id="edge8_Node000004_Node000008" class="edge">
<title>Node4&#45;&gt;Node8</title>
<g id="a_edge8_Node000004_Node000008"><a xlink:title=" ">
<path fill="none" stroke="#63b8ff" d="M440.54,-156.41C453.34,-153.22 467.3,-149.74 480.61,-146.41"/>
<polygon fill="#63b8ff" stroke="#63b8ff" points="481.28,-149.86 490.13,-144.04 479.58,-143.06 481.28,-149.86"/>
</a>
</g>
</g>
<!-- Node9 -->
<g id="Node000009" class="node">
<title>Node9</title>
<g id="a_Node000009"><a xlink:href="class_fiea_1_1_engine_1_1_r_t_t_i.html#a43a7d187e332a17d2c699bc2c8136a30" target="_top" xlink:title=" ">
<polygon fill="white" stroke="#666666" points="590.5,-97.53 492,-97.53 492,-65.53 590.5,-65.53 590.5,-97.53"/>
<text xml:space="preserve" text-anchor="start" x="500" y="-84.03" font-family="Helvetica,sans-Serif" font-size="10.00">Fiea::Engine::RTTI</text>
<text xml:space="preserve" text-anchor="middle" x="541.25" y="-72.03" font-family="Helvetica,sans-Serif" font-size="10.00">::ToString</text>
</a>
</g>
</g>
<!-- Node4&#45;&gt;Node9 -->
<g id="edge12_Node000004_Node000009" class="edge">
<title>Node4&#45;&gt;Node9</title>
<g id="a_edge12_Node000004_Node000009"><a xlink:title=" ">
<path fill="none" stroke="#63b8ff" d="M422.25,-152.15C430.46,-147.38 439.22,-141.98 447,-136.53 464.06,-124.58 465.28,-117.47 483,-106.53 484.87,-105.38 486.8,-104.25 488.77,-103.15"/>
<polygon fill="#63b8ff" stroke="#63b8ff" points="490.26,-106.32 497.53,-98.61 487.04,-100.1 490.26,-106.32"/>
</a>
</g>
</g>
<!-- Node5&#45;&gt;Node6 -->
<g id="edge6_Node000005_Node000006" class="edge">
<title>Node5&#45;&gt;Node6</title>
<g id="a_edge6_Node000005_Node000006"><a xlink:title=" ">
<path fill="none" stroke="#63b8ff" d="M599.71,-222.03C607.6,-223.2 615.75,-224.41 623.78,-225.6"/>
<polygon fill="#63b8ff" stroke="#63b8ff" points="623.13,-229.04 633.53,-227.04 624.16,-222.11 623.13,-229.04"/>
</a>
</g>
</g>
<!-- Node5&#45;&gt;Node7 -->
<g id="edge7_Node000005_Node000007" class="edge">
<title>Node5&#45;&gt;Node7</title>
<g id="a_edge7_Node000005_Node000007"><a xlink:title=" ">
<path fill="none" stroke="#63b8ff" d="M583.26,-203.04C598.13,-199.24 615.24,-194.87 631.38,-190.74"/>
<polygon fill="#63b8ff" stroke="#63b8ff" points="632.07,-194.18 640.89,-188.31 630.34,-187.39 632.07,-194.18"/>
</a>
</g>
</g>
<!-- Node8&#45;&gt;Node7 -->
<g id="edge9_Node000008_Node000007" class="edge">
<title>Node8&#45;&gt;Node7</title>
<g id="a_edge9_Node000008_Node000007"><a xlink:title=" ">
<path fill="none" stroke="#63b8ff" d="M590.92,-145.94C603.94,-149.79 618.17,-154 631.69,-158.01"/>
<polygon fill="#63b8ff" stroke="#63b8ff" points="630.32,-161.25 640.9,-160.73 632.31,-154.54 630.32,-161.25"/>
</a>
</g>
</g>
<!-- Node10&#45;&gt;Node3 -->
<g id="edge15_Node000010_Node000003" class="edge">
<title>Node10&#45;&gt;Node3</title>
<g id="a_edge15_Node000010_Node000003"><a xlink:title=" ">
<path fill="none" stroke="#63b8ff" d="M289.16,-69.57C300.31,-72.22 312.15,-75.04 323.65,-77.77"/>
<polygon fill="#63b8ff" stroke="#63b8ff" points="322.52,-81.1 333.06,-80 324.14,-74.29 322.52,-81.1"/>
</a>
</g>
</g>
<!-- Node11 -->
<g id="Node000011" class="node">
<title>Node11</title>
<g id="a_Node000011"><a xlink:href="class_fiea_1_1_engine_1_1_content_1_1_scope.html#abb1ebfa662badfce689226c18a8bf02c" target="_top" xlink:title="Copy assignment operator.">
<polygon fill="white" stroke="#666666" points="446.62,-47.53 335.38,-47.53 335.38,-15.53 446.62,-15.53 446.62,-47.53"/>
<text xml:space="preserve" text-anchor="start" x="343.38" y="-34.03" font-family="Helvetica,sans-Serif" font-size="10.00">Fiea::Engine::Content</text>
<text xml:space="preserve" text-anchor="middle" x="391" y="-22.03" font-family="Helvetica,sans-Serif" font-size="10.00">::Scope::operator=</text>
</a>
</g>
</g>
<!-- Node10&#45;&gt;Node11 -->
<g id="edge16_Node000010_Node000011" class="edge">
<title>Node10&#45;&gt;Node11</title>
<g id="a_edge16_Node000010_Node000011"><a xlink:title=" ">
<path fill="none" stroke="#63b8ff" d="M289.16,-47.71C300.33,-45.92 312.19,-44.02 323.7,-42.17"/>
<polygon fill="#63b8ff" stroke="#63b8ff" points="324.25,-45.63 333.56,-40.59 323.14,-38.72 324.25,-45.63"/>
</a>
</g>
</g>
<!-- Node12 -->
<g id="Node000012" class="node">
<title>Node12</title>
<g id="a_Node000012"><a xlink:href="class_fiea_1_1_engine_1_1_content_1_1_scope.html#a9d741d7fb95ccb49ee35dd6d9f779f1e" target="_top" xlink:title="Clears all data in the Scope.">
<polygon fill="white" stroke="#666666" points="596.88,-47.53 485.62,-47.53 485.62,-15.53 596.88,-15.53 596.88,-47.53"/>
<text xml:space="preserve" text-anchor="start" x="493.62" y="-34.03" font-family="Helvetica,sans-Serif" font-size="10.00">Fiea::Engine::Content</text>
<text xml:space="preserve" text-anchor="middle" x="541.25" y="-22.03" font-family="Helvetica,sans-Serif" font-size="10.00">::Scope::Clear</text>
</a>
</g>
</g>
<!-- Node11&#45;&gt;Node12 -->
<g id="edge17_Node000011_Node000012" class="edge">
<title>Node11&#45;&gt;Node12</title>
<g id="a_edge17_Node000011_Node000012"><a xlink:title=" ">
<path fill="none" stroke="#63b8ff" d="M446.78,-31.53C455.6,-31.53 464.8,-31.53 473.86,-31.53"/>
<polygon fill="#63b8ff" stroke="#63b8ff" points="473.69,-35.03 483.69,-31.53 473.69,-28.03 473.69,-35.03"/>
</a>
</g>
</g>
<!-- Node14 -->
<g id="Node000014" class="node">
<title>Node14</title>
<g id="a_Node000014"><a xlink:href="class_fiea_1_1_engine_1_1_content_1_1_scope.html#a6631343c968c233ab1d9c3e05c3f4fe9" target="_top" xlink:title=" ">
<polygon fill="white" stroke="#666666" points="895.5,-41.53 784.25,-41.53 784.25,-9.53 895.5,-9.53 895.5,-41.53"/>
<text xml:space="preserve" text-anchor="start" x="792.25" y="-28.03" font-family="Helvetica,sans-Serif" font-size="10.00">Fiea::Engine::Content</text>
<text xml:space="preserve" text-anchor="middle" x="839.88" y="-16.03" font-family="Helvetica,sans-Serif" font-size="10.00">::Scope::Scope</text>
</a>
</g>
</g>
<!-- Node11&#45;&gt;Node14 -->
<g id="edge22_Node000011_Node000014" class="edge">
<title>Node11&#45;&gt;Node14</title>
<g id="a_edge22_Node000011_Node000014"><a xlink:title=" ">
<path fill="none" stroke="#63b8ff" d="M442.52,-15.07C455.56,-11.53 469.69,-8.32 483,-6.53 583.55,7.03 701.3,-4.58 772.96,-14.67"/>
<polygon fill="#63b8ff" stroke="#63b8ff" points="772.16,-18.09 782.56,-16.06 773.16,-11.17 772.16,-18.09"/>
</a>
</g>
</g>
<!-- Node13 -->
<g id="Node000013" class="node">
<title>Node13</title>
<g id="a_Node000013"><a xlink:href="class_fiea_1_1_engine_1_1_content_1_1_scope.html#ac4627f740867a929957ce0647f436e02" target="_top" xlink:title=" ">
<polygon fill="white" stroke="#666666" points="747.5,-85.53 636.25,-85.53 636.25,-53.53 747.5,-53.53 747.5,-85.53"/>
<text xml:space="preserve" text-anchor="start" x="644.25" y="-72.03" font-family="Helvetica,sans-Serif" font-size="10.00">Fiea::Engine::Content</text>
<text xml:space="preserve" text-anchor="middle" x="691.88" y="-60.03" font-family="Helvetica,sans-Serif" font-size="10.00">::Scope::GetParent</text>
</a>
</g>
</g>
<!-- Node12&#45;&gt;Node13 -->
<g id="edge18_Node000012_Node000013" class="edge">
<title>Node12&#45;&gt;Node13</title>
<g id="a_edge18_Node000012_Node000013"><a xlink:title=" ">
<path fill="none" stroke="#63b8ff" d="M597.17,-45.57C606.32,-47.91 615.9,-50.36 625.28,-52.76"/>
<polygon fill="#63b8ff" stroke="#63b8ff" points="624.16,-56.08 634.71,-55.17 625.89,-49.3 624.16,-56.08"/>
</a>
</g>
</g>
<!-- Node12&#45;&gt;Node14 -->
<g id="edge21_Node000012_Node000014" class="edge">
<title>Node12&#45;&gt;Node14</title>
<g id="a_edge21_Node000012_Node000014"><a xlink:title=" ">
<path fill="none" stroke="#63b8ff" d="M597.35,-30.41C646.91,-29.41 719.82,-27.94 772.56,-26.87"/>
<polygon fill="#63b8ff" stroke="#63b8ff" points="772.38,-30.37 782.31,-26.67 772.24,-23.38 772.38,-30.37"/>
</a>
</g>
</g>
<!-- Node13&#45;&gt;Node14 -->
<g id="edge19_Node000013_Node000014" class="edge">
<title>Node13&#45;&gt;Node14</title>
<g id="a_edge19_Node000013_Node000014"><a xlink:title=" ">
<path fill="none" stroke="#63b8ff" d="M747.24,-53.15C755.79,-50.57 764.71,-47.88 773.48,-45.24"/>
<polygon fill="#63b8ff" stroke="#63b8ff" points="774.45,-48.6 783.02,-42.36 772.43,-41.9 774.45,-48.6"/>
</a>
</g>
</g>
<!-- Node14&#45;&gt;Node14 -->
<g id="edge20_Node000014_Node000014" class="edge">
<title>Node14&#45;&gt;Node14</title>
<g id="a_edge20_Node000014_Node000014"><a xlink:title=" ">
<path fill="none" stroke="#63b8ff" d="M813.45,-41.97C808.52,-51.11 817.33,-59.53 839.88,-59.53 852.21,-59.53 860.43,-57.01 864.54,-53.24"/>
<polygon fill="#63b8ff" stroke="#63b8ff" points="867.98,-53.89 866.06,-43.47 861.06,-52.81 867.98,-53.89"/>
</a>
</g>
</g>
</g>
</svg>
