<?xml version="1.0" encoding="UTF-8" standalone="no"?>
<!DOCTYPE svg PUBLIC "-//W3C//DTD SVG 1.1//EN"
 "http://www.w3.org/Graphics/SVG/1.1/DTD/svg11.dtd">
<!-- Generated by graphviz version 13.1.0 (20250701.0955)
 -->
<!-- Title: Fiea::Engine::Content::Scope::operator= Pages: 1 -->
<svg width="561pt" height="100pt"
 viewBox="0.00 0.00 561.00 100.00" xmlns="http://www.w3.org/2000/svg" xmlns:xlink="http://www.w3.org/1999/xlink">
<g id="graph0" class="graph" transform="scale(1 1) rotate(0) translate(4 96)">
<title>Fiea::Engine::Content::Scope::operator=</title>
<!-- Node1 -->
<g id="Node000001" class="node">
<title>Node1</title>
<g id="a_Node000001"><a xlink:title="Copy assignment operator.">
<polygon fill="#999999" stroke="#666666" points="111.25,-32 0,-32 0,0 111.25,0 111.25,-32"/>
<text xml:space="preserve" text-anchor="start" x="8" y="-18.5" font-family="Helvetica,sans-Serif" font-size="10.00">Fiea::Engine::Content</text>
<text xml:space="preserve" text-anchor="middle" x="55.62" y="-6.5" font-family="Helvetica,sans-Serif" font-size="10.00">::Scope::operator=</text>
</a>
</g>
</g>
<!-- Node2 -->
<g id="Node000002" class="node">
<title>Node2</title>
<g id="a_Node000002"><a xlink:href="class_fiea_1_1_engine_1_1_content_1_1_scope.html#a9d741d7fb95ccb49ee35dd6d9f779f1e" target="_top" xlink:title="Clears all data in the Scope.">
<polygon fill="white" stroke="#666666" points="258.5,-54 147.25,-54 147.25,-22 258.5,-22 258.5,-54"/>
<text xml:space="preserve" text-anchor="start" x="155.25" y="-40.5" font-family="Helvetica,sans-Serif" font-size="10.00">Fiea::Engine::Content</text>
<text xml:space="preserve" text-anchor="middle" x="202.88" y="-28.5" font-family="Helvetica,sans-Serif" font-size="10.00">::Scope::Clear</text>
</a>
</g>
</g>
<!-- Node1&#45;&gt;Node2 -->
<g id="edge1_Node000001_Node000002" class="edge">
<title>Node1&#45;&gt;Node2</title>
<g id="a_edge1_Node000001_Node000002"><a xlink:title=" ">
<path fill="none" stroke="#63b8ff" d="M111.54,-24.32C119.4,-25.51 127.56,-26.74 135.61,-27.96"/>
<polygon fill="#63b8ff" stroke="#63b8ff" points="134.98,-31.41 145.39,-29.44 136.03,-24.49 134.98,-31.41"/>
</a>
</g>
</g>
<!-- Node4 -->
<g id="Node000004" class="node">
<title>Node4</title>
<g id="a_Node000004"><a xlink:href="class_fiea_1_1_engine_1_1_content_1_1_scope.html#a6631343c968c233ab1d9c3e05c3f4fe9" target="_top" xlink:title=" ">
<polygon fill="white" stroke="#666666" points="553,-48 441.75,-48 441.75,-16 553,-16 553,-48"/>
<text xml:space="preserve" text-anchor="start" x="449.75" y="-34.5" font-family="Helvetica,sans-Serif" font-size="10.00">Fiea::Engine::Content</text>
<text xml:space="preserve" text-anchor="middle" x="497.38" y="-22.5" font-family="Helvetica,sans-Serif" font-size="10.00">::Scope::Scope</text>
</a>
</g>
</g>
<!-- Node1&#45;&gt;Node4 -->
<g id="edge6_Node000001_Node000004" class="edge">
<title>Node1&#45;&gt;Node4</title>
<g id="a_edge6_Node000001_Node000004"><a xlink:title=" ">
<path fill="none" stroke="#63b8ff" d="M111.73,-13.88C123.45,-13.52 135.76,-13.19 147.25,-13 196.69,-12.18 209.09,-11.03 258.5,-13 316.63,-15.32 382.56,-20.81 430.24,-25.3"/>
<polygon fill="#63b8ff" stroke="#63b8ff" points="429.86,-28.77 440.14,-26.24 430.52,-21.81 429.86,-28.77"/>
</a>
</g>
</g>
<!-- Node3 -->
<g id="Node000003" class="node">
<title>Node3</title>
<g id="a_Node000003"><a xlink:href="class_fiea_1_1_engine_1_1_content_1_1_scope.html#ac4627f740867a929957ce0647f436e02" target="_top" xlink:title=" ">
<polygon fill="white" stroke="#666666" points="405.75,-92 294.5,-92 294.5,-60 405.75,-60 405.75,-92"/>
<text xml:space="preserve" text-anchor="start" x="302.5" y="-78.5" font-family="Helvetica,sans-Serif" font-size="10.00">Fiea::Engine::Content</text>
<text xml:space="preserve" text-anchor="middle" x="350.12" y="-66.5" font-family="Helvetica,sans-Serif" font-size="10.00">::Scope::GetParent</text>
</a>
</g>
</g>
<!-- Node2&#45;&gt;Node3 -->
<g id="edge2_Node000002_Node000003" class="edge">
<title>Node2&#45;&gt;Node3</title>
<g id="a_edge2_Node000002_Node000003"><a xlink:title=" ">
<path fill="none" stroke="#63b8ff" d="M258.79,-52.37C266.74,-54.45 275,-56.61 283.14,-58.74"/>
<polygon fill="#63b8ff" stroke="#63b8ff" points="282.11,-62.09 292.67,-61.23 283.88,-55.31 282.11,-62.09"/>
</a>
</g>
</g>
<!-- Node2&#45;&gt;Node4 -->
<g id="edge5_Node000002_Node000004" class="edge">
<title>Node2&#45;&gt;Node4</title>
<g id="a_edge5_Node000002_Node000004"><a xlink:title=" ">
<path fill="none" stroke="#63b8ff" d="M258.89,-36.87C307.51,-35.87 378.52,-34.42 430.22,-33.36"/>
<polygon fill="#63b8ff" stroke="#63b8ff" points="430.17,-36.86 440.09,-33.15 430.02,-29.86 430.17,-36.86"/>
</a>
</g>
</g>
<!-- Node3&#45;&gt;Node4 -->
<g id="edge3_Node000003_Node000004" class="edge">
<title>Node3&#45;&gt;Node4</title>
<g id="a_edge3_Node000003_Node000004"><a xlink:title=" ">
<path fill="none" stroke="#63b8ff" d="M405.21,-59.62C413.72,-57.04 422.59,-54.35 431.31,-51.71"/>
<polygon fill="#63b8ff" stroke="#63b8ff" points="432.24,-55.09 440.8,-48.84 430.21,-48.39 432.24,-55.09"/>
</a>
</g>
</g>
<!-- Node4&#45;&gt;Node4 -->
<g id="edge4_Node000004_Node000004" class="edge">
<title>Node4&#45;&gt;Node4</title>
<g id="a_edge4_Node000004_Node000004"><a xlink:title=" ">
<path fill="none" stroke="#63b8ff" d="M471.09,-48.44C466.18,-57.58 474.94,-66 497.38,-66 509.64,-66 517.82,-63.48 521.91,-59.71"/>
<polygon fill="#63b8ff" stroke="#63b8ff" points="525.35,-60.36 523.43,-49.94 518.44,-59.28 525.35,-60.36"/>
</a>
</g>
</g>
</g>
</svg>
