<?xml version="1.0" encoding="UTF-8" standalone="no"?>
<!DOCTYPE svg PUBLIC "-//W3C//DTD SVG 1.1//EN"
 "http://www.w3.org/Graphics/SVG/1.1/DTD/svg11.dtd">
<!-- Generated by graphviz version 13.1.0 (20250701.0955)
 -->
<!-- Title: Fiea::Engine::Content::Scope::Size Pages: 1 -->
<svg width="424pt" height="134pt"
 viewBox="0.00 0.00 424.00 134.00" xmlns="http://www.w3.org/2000/svg" xmlns:xlink="http://www.w3.org/1999/xlink">
<g id="graph0" class="graph" transform="scale(1 1) rotate(0) translate(4 130)">
<title>Fiea::Engine::Content::Scope::Size</title>
<!-- Node1 -->
<g id="Node000001" class="node">
<title>Node1</title>
<g id="a_Node000001"><a xlink:title="Returns the number of key&#45;value pairs in the Scope.">
<polygon fill="#999999" stroke="#666666" points="415.5,-76 304.25,-76 304.25,-44 415.5,-44 415.5,-76"/>
<text xml:space="preserve" text-anchor="start" x="312.25" y="-62.5" font-family="Helvetica,sans-Serif" font-size="10.00">Fiea::Engine::Content</text>
<text xml:space="preserve" text-anchor="middle" x="359.88" y="-50.5" font-family="Helvetica,sans-Serif" font-size="10.00">::Scope::Size</text>
</a>
</g>
</g>
<!-- Node2 -->
<g id="Node000002" class="node">
<title>Node2</title>
<g id="a_Node000002"><a xlink:href="class_fiea_1_1_engine_1_1_game_object.html#a419444f6d624e97d5287ffe2c481d67a" target="_top" xlink:title=" ">
<polygon fill="white" stroke="#666666" points="268.25,-120 136.75,-120 136.75,-88 268.25,-88 268.25,-120"/>
<text xml:space="preserve" text-anchor="start" x="144.75" y="-106.5" font-family="Helvetica,sans-Serif" font-size="10.00">Fiea::Engine::GameObject</text>
<text xml:space="preserve" text-anchor="middle" x="202.5" y="-94.5" font-family="Helvetica,sans-Serif" font-size="10.00">::GetChild</text>
</a>
</g>
</g>
<!-- Node1&#45;&gt;Node2 -->
<g id="edge1_Node000001_Node000002" class="edge">
<title>Node1&#45;&gt;Node2</title>
<g id="a_edge1_Node000001_Node000002"><a xlink:title=" ">
<path fill="none" stroke="#63b8ff" d="M293.31,-78.57C282.82,-81.54 272.04,-84.59 261.74,-87.51"/>
<polygon fill="#63b8ff" stroke="#63b8ff" points="293.97,-82.02 302.64,-75.93 292.06,-75.28 293.97,-82.02"/>
</a>
</g>
</g>
<!-- Node4 -->
<g id="Node000004" class="node">
<title>Node4</title>
<g id="a_Node000004"><a xlink:href="namespace_fiea_1_1_engine_1_1_tests.html#a89b054e30b186f60d7f23c17503265da" target="_top" xlink:title=" ">
<polygon fill="white" stroke="#666666" points="100.75,-76 0,-76 0,-44 100.75,-44 100.75,-76"/>
<text xml:space="preserve" text-anchor="start" x="8" y="-62.5" font-family="Helvetica,sans-Serif" font-size="10.00">Fiea::Engine::Tests</text>
<text xml:space="preserve" text-anchor="middle" x="50.38" y="-50.5" font-family="Helvetica,sans-Serif" font-size="10.00">::TEST_CLASS</text>
</a>
</g>
</g>
<!-- Node1&#45;&gt;Node4 -->
<g id="edge4_Node000001_Node000004" class="edge">
<title>Node1&#45;&gt;Node4</title>
<g id="a_edge4_Node000001_Node000004"><a xlink:title=" ">
<path fill="none" stroke="#63b8ff" d="M292.72,-60C235.1,-60 152.85,-60 100.8,-60"/>
<polygon fill="#63b8ff" stroke="#63b8ff" points="292.39,-63.5 302.39,-60 292.39,-56.5 292.39,-63.5"/>
</a>
</g>
</g>
<!-- Node5 -->
<g id="Node000005" class="node">
<title>Node5</title>
<g id="a_Node000005"><a xlink:href="namespace_fiea_1_1_engine_1_1_tests.html#ad3e53e7e3f072321bc7199970c619c1d" target="_top" xlink:title=" ">
<polygon fill="white" stroke="#666666" points="252.88,-32 152.12,-32 152.12,0 252.88,0 252.88,-32"/>
<text xml:space="preserve" text-anchor="start" x="160.12" y="-18.5" font-family="Helvetica,sans-Serif" font-size="10.00">Fiea::Engine::Tests</text>
<text xml:space="preserve" text-anchor="middle" x="202.5" y="-6.5" font-family="Helvetica,sans-Serif" font-size="10.00">::TEST_CLASS</text>
</a>
</g>
</g>
<!-- Node1&#45;&gt;Node5 -->
<g id="edge5_Node000001_Node000005" class="edge">
<title>Node1&#45;&gt;Node5</title>
<g id="a_edge5_Node000001_Node000005"><a xlink:title=" ">
<path fill="none" stroke="#63b8ff" d="M293.42,-41.46C279.93,-37.64 265.94,-33.68 253.12,-30.05"/>
<polygon fill="#63b8ff" stroke="#63b8ff" points="292.06,-44.72 302.64,-44.07 293.97,-37.98 292.06,-44.72"/>
</a>
</g>
</g>
<!-- Node3 -->
<g id="Node000003" class="node">
<title>Node3</title>
<g id="a_Node000003"><a xlink:href="namespace_fiea_1_1_engine_1_1_tests.html#a34b2b8dfbe4f7aa6a3ea0a5f24db384f" target="_top" xlink:title=" ">
<polygon fill="white" stroke="#666666" points="100.75,-126 0,-126 0,-94 100.75,-94 100.75,-126"/>
<text xml:space="preserve" text-anchor="start" x="8" y="-112.5" font-family="Helvetica,sans-Serif" font-size="10.00">Fiea::Engine::Tests</text>
<text xml:space="preserve" text-anchor="middle" x="50.38" y="-100.5" font-family="Helvetica,sans-Serif" font-size="10.00">::TEST_CLASS</text>
</a>
</g>
</g>
<!-- Node2&#45;&gt;Node3 -->
<g id="edge2_Node000002_Node000003" class="edge">
<title>Node2&#45;&gt;Node3</title>
<g id="a_edge2_Node000002_Node000003"><a xlink:title=" ">
<path fill="none" stroke="#63b8ff" d="M125.04,-107.06C116.89,-107.38 108.77,-107.71 101.06,-108.01"/>
<polygon fill="#63b8ff" stroke="#63b8ff" points="125.16,-110.55 135.01,-106.66 124.88,-103.56 125.16,-110.55"/>
</a>
</g>
</g>
<!-- Node2&#45;&gt;Node4 -->
<g id="edge3_Node000002_Node000004" class="edge">
<title>Node2&#45;&gt;Node4</title>
<g id="a_edge3_Node000002_Node000004"><a xlink:title=" ">
<path fill="none" stroke="#63b8ff" d="M134.79,-84.45C123.4,-81.11 111.74,-77.69 100.9,-74.51"/>
<polygon fill="#63b8ff" stroke="#63b8ff" points="133.57,-87.74 144.15,-87.19 135.53,-81.02 133.57,-87.74"/>
</a>
</g>
</g>
</g>
</svg>
