<?xml version="1.0" encoding="UTF-8" standalone="no"?>
<!DOCTYPE svg PUBLIC "-//W3C//DTD SVG 1.1//EN"
 "http://www.w3.org/Graphics/SVG/1.1/DTD/svg11.dtd">
<!-- Generated by graphviz version 13.1.0 (20250701.0955)
 -->
<!-- Title: Fiea::Engine::Content::ScopeWriter::AddScope Pages: 1 -->
<svg width="1138pt" height="516pt"
 viewBox="0.00 0.00 1138.00 516.00" xmlns="http://www.w3.org/2000/svg" xmlns:xlink="http://www.w3.org/1999/xlink">
<g id="graph0" class="graph" transform="scale(1 1) rotate(0) translate(4 512)">
<title>Fiea::Engine::Content::ScopeWriter::AddScope</title>
<!-- Node1 -->
<g id="Node000001" class="node">
<title>Node1</title>
<g id="a_Node000001"><a xlink:title=" ">
<polygon fill="#999999" stroke="#666666" points="126.25,-104 0,-104 0,-72 126.25,-72 126.25,-104"/>
<text xml:space="preserve" text-anchor="start" x="8" y="-90.5" font-family="Helvetica,sans-Serif" font-size="10.00">Fiea::Engine::Content</text>
<text xml:space="preserve" text-anchor="middle" x="63.12" y="-78.5" font-family="Helvetica,sans-Serif" font-size="10.00">::ScopeWriter::AddScope</text>
</a>
</g>
</g>
<!-- Node2 -->
<g id="Node000002" class="node">
<title>Node2</title>
<g id="a_Node000002"><a xlink:href="class_fiea_1_1_engine_1_1_content_1_1_scope_writer.html#a707086401a09fd8b2f07d65a1f95fd72" target="_top" xlink:title=" ">
<polygon fill="white" stroke="#666666" points="315.5,-126 162.25,-126 162.25,-94 315.5,-94 315.5,-126"/>
<text xml:space="preserve" text-anchor="start" x="170.25" y="-112.5" font-family="Helvetica,sans-Serif" font-size="10.00">Fiea::Engine::Content</text>
<text xml:space="preserve" text-anchor="middle" x="238.88" y="-100.5" font-family="Helvetica,sans-Serif" font-size="10.00">::ScopeWriter::AddGameObject</text>
</a>
</g>
</g>
<!-- Node1&#45;&gt;Node2 -->
<g id="edge1_Node000001_Node000002" class="edge">
<title>Node1&#45;&gt;Node2</title>
<g id="a_edge1_Node000001_Node000002"><a xlink:title=" ">
<path fill="none" stroke="#63b8ff" d="M126.36,-95.88C134.26,-96.88 142.46,-97.92 150.66,-98.96"/>
<polygon fill="#63b8ff" stroke="#63b8ff" points="149.95,-102.4 160.31,-100.18 150.83,-95.45 149.95,-102.4"/>
</a>
</g>
</g>
<!-- Node16 -->
<g id="Node000016" class="node">
<title>Node16</title>
<g id="a_Node000016"><a xlink:href="class_fiea_1_1_engine_1_1_content_1_1_scope.html#a002f54731a8996f37c4f725d8175ffee" target="_top" xlink:title="Appends a new Scope as a child under the specified key.">
<polygon fill="white" stroke="#666666" points="483.38,-320 366.88,-320 366.88,-288 483.38,-288 483.38,-320"/>
<text xml:space="preserve" text-anchor="start" x="374.88" y="-306.5" font-family="Helvetica,sans-Serif" font-size="10.00">Fiea::Engine::Content</text>
<text xml:space="preserve" text-anchor="middle" x="425.12" y="-294.5" font-family="Helvetica,sans-Serif" font-size="10.00">::Scope::AppendScope</text>
</a>
</g>
</g>
<!-- Node1&#45;&gt;Node16 -->
<g id="edge37_Node000001_Node000016" class="edge">
<title>Node1&#45;&gt;Node16</title>
<g id="a_edge37_Node000001_Node000016"><a xlink:title=" ">
<path fill="none" stroke="#63b8ff" d="M91.48,-104.41C155.42,-142.78 314.71,-238.35 387.18,-281.83"/>
<polygon fill="#63b8ff" stroke="#63b8ff" points="385.14,-284.69 395.51,-286.83 388.74,-278.69 385.14,-284.69"/>
</a>
</g>
</g>
<!-- Node22 -->
<g id="Node000022" class="node">
<title>Node22</title>
<g id="a_Node000022"><a xlink:href="struct_fiea_1_1_engine_1_1_content_1_1_i_factory_service.html#a06ed01632b58a4faeb159d3e9a0ef51f" target="_top" xlink:title=" ">
<polygon fill="white" stroke="#666666" points="488.25,-82 362,-82 362,-50 488.25,-50 488.25,-82"/>
<text xml:space="preserve" text-anchor="start" x="370" y="-68.5" font-family="Helvetica,sans-Serif" font-size="10.00">Fiea::Engine::Content</text>
<text xml:space="preserve" text-anchor="middle" x="425.12" y="-56.5" font-family="Helvetica,sans-Serif" font-size="10.00">::IFactoryService::Create</text>
</a>
</g>
</g>
<!-- Node1&#45;&gt;Node22 -->
<g id="edge38_Node000001_Node000022" class="edge">
<title>Node1&#45;&gt;Node22</title>
<g id="a_edge38_Node000001_Node000022"><a xlink:title=" ">
<path fill="none" stroke="#63b8ff" d="M126.42,-84.19C188.72,-80.39 284.53,-74.53 350.54,-70.5"/>
<polygon fill="#63b8ff" stroke="#63b8ff" points="350.41,-74.01 360.18,-69.91 349.98,-67.02 350.41,-74.01"/>
</a>
</g>
</g>
<!-- Node24 -->
<g id="Node000024" class="node">
<title>Node24</title>
<g id="a_Node000024"><a xlink:href="class_fiea_1_1_engine_1_1_service_manager.html#a8aac9b15b7e5483c2b1cd5febe590a0c" target="_top" xlink:title=" ">
<polygon fill="white" stroke="#666666" points="498.75,-32 351.5,-32 351.5,0 498.75,0 498.75,-32"/>
<text xml:space="preserve" text-anchor="start" x="359.5" y="-18.5" font-family="Helvetica,sans-Serif" font-size="10.00">Fiea::Engine::ServiceManager</text>
<text xml:space="preserve" text-anchor="middle" x="425.12" y="-6.5" font-family="Helvetica,sans-Serif" font-size="10.00">::ProvideInterface</text>
</a>
</g>
</g>
<!-- Node1&#45;&gt;Node24 -->
<g id="edge39_Node000001_Node000024" class="edge">
<title>Node1&#45;&gt;Node24</title>
<g id="a_edge39_Node000001_Node000024"><a xlink:title=" ">
<path fill="none" stroke="#63b8ff" d="M126.42,-75.54C185.49,-63.73 274.67,-45.89 340.03,-32.82"/>
<polygon fill="#63b8ff" stroke="#63b8ff" points="340.52,-36.29 349.64,-30.9 339.15,-29.43 340.52,-36.29"/>
</a>
</g>
</g>
<!-- Node3 -->
<g id="Node000003" class="node">
<title>Node3</title>
<g id="a_Node000003"><a xlink:href="class_fiea_1_1_engine_1_1_game_object.html#a4d89e3a21dd6381eac8a1f1189ea029e" target="_top" xlink:title=" ">
<polygon fill="white" stroke="#666666" points="490.88,-195 359.38,-195 359.38,-163 490.88,-163 490.88,-195"/>
<text xml:space="preserve" text-anchor="start" x="367.38" y="-181.5" font-family="Helvetica,sans-Serif" font-size="10.00">Fiea::Engine::GameObject</text>
<text xml:space="preserve" text-anchor="middle" x="425.12" y="-169.5" font-family="Helvetica,sans-Serif" font-size="10.00">::AddChild</text>
</a>
</g>
</g>
<!-- Node2&#45;&gt;Node3 -->
<g id="edge2_Node000002_Node000003" class="edge">
<title>Node2&#45;&gt;Node3</title>
<g id="a_edge2_Node000002_Node000003"><a xlink:title=" ">
<path fill="none" stroke="#63b8ff" d="M283.54,-126.35C309.28,-135.99 342.08,-148.27 369.52,-158.55"/>
<polygon fill="#63b8ff" stroke="#63b8ff" points="368.13,-161.77 378.72,-162 370.58,-155.21 368.13,-161.77"/>
</a>
</g>
</g>
<!-- Node8 -->
<g id="Node000008" class="node">
<title>Node8</title>
<g id="a_Node000008"><a xlink:href="class_fiea_1_1_engine_1_1_r_t_t_i.html#a15bd5993c8ad04da47af440298ebbb30" target="_top" xlink:title=" ">
<polygon fill="white" stroke="#666666" points="981,-118 864.5,-118 864.5,-98 981,-98 981,-118"/>
<text xml:space="preserve" text-anchor="middle" x="922.75" y="-104.5" font-family="Helvetica,sans-Serif" font-size="10.00">Fiea::Engine::RTTI::As</text>
</a>
</g>
</g>
<!-- Node2&#45;&gt;Node8 -->
<g id="edge32_Node000002_Node000008" class="edge">
<title>Node2&#45;&gt;Node8</title>
<g id="a_edge32_Node000002_Node000008"><a xlink:title=" ">
<path fill="none" stroke="#63b8ff" d="M315.78,-109.78C449.39,-109.39 724.55,-108.58 852.95,-108.2"/>
<polygon fill="#63b8ff" stroke="#63b8ff" points="852.66,-111.7 862.65,-108.17 852.64,-104.7 852.66,-111.7"/>
</a>
</g>
</g>
<!-- Node2&#45;&gt;Node16 -->
<g id="edge22_Node000002_Node000016" class="edge">
<title>Node2&#45;&gt;Node16</title>
<g id="a_edge22_Node000002_Node000016"><a xlink:title=" ">
<path fill="none" stroke="#63b8ff" d="M255.27,-126.21C287.58,-160.23 362.64,-239.26 400.86,-279.5"/>
<polygon fill="#63b8ff" stroke="#63b8ff" points="398.18,-281.76 407.6,-286.61 403.26,-276.94 398.18,-281.76"/>
</a>
</g>
</g>
<!-- Node2&#45;&gt;Node22 -->
<g id="edge33_Node000002_Node000022" class="edge">
<title>Node2&#45;&gt;Node22</title>
<g id="a_edge33_Node000002_Node000022"><a xlink:title=" ">
<path fill="none" stroke="#63b8ff" d="M308.74,-93.55C322.46,-90.28 336.9,-86.83 350.76,-83.52"/>
<polygon fill="#63b8ff" stroke="#63b8ff" points="351.33,-86.98 360.25,-81.25 349.71,-80.17 351.33,-86.98"/>
</a>
</g>
</g>
<!-- Node2&#45;&gt;Node24 -->
<g id="edge36_Node000002_Node000024" class="edge">
<title>Node2&#45;&gt;Node24</title>
<g id="a_edge36_Node000002_Node000024"><a xlink:title=" ">
<path fill="none" stroke="#63b8ff" d="M262.96,-93.61C284.96,-78.51 319.38,-56.22 351.5,-41 354.75,-39.46 358.13,-37.96 361.56,-36.52"/>
<polygon fill="#63b8ff" stroke="#63b8ff" points="362.58,-39.88 370.58,-32.93 359.99,-33.38 362.58,-39.88"/>
</a>
</g>
</g>
<!-- Node4 -->
<g id="Node000004" class="node">
<title>Node4</title>
<g id="a_Node000004"><a xlink:href="class_fiea_1_1_engine_1_1_content_1_1_scope.html#aa91d6470fd3d3f402bbb2e765be54455" target="_top" xlink:title="Appends a new Datum with the given key.">
<polygon fill="white" stroke="#666666" points="663.25,-220 552,-220 552,-188 663.25,-188 663.25,-220"/>
<text xml:space="preserve" text-anchor="start" x="560" y="-206.5" font-family="Helvetica,sans-Serif" font-size="10.00">Fiea::Engine::Content</text>
<text xml:space="preserve" text-anchor="middle" x="607.62" y="-194.5" font-family="Helvetica,sans-Serif" font-size="10.00">::Scope::Append</text>
</a>
</g>
</g>
<!-- Node3&#45;&gt;Node4 -->
<g id="edge3_Node000003_Node000004" class="edge">
<title>Node3&#45;&gt;Node4</title>
<g id="a_edge3_Node000003_Node000004"><a xlink:title=" ">
<path fill="none" stroke="#63b8ff" d="M491.29,-188.03C507.37,-190.25 524.61,-192.64 540.72,-194.87"/>
<polygon fill="#63b8ff" stroke="#63b8ff" points="539.79,-198.28 550.17,-196.18 540.75,-191.34 539.79,-198.28"/>
</a>
</g>
</g>
<!-- Node5 -->
<g id="Node000005" class="node">
<title>Node5</title>
<g id="a_Node000005"><a xlink:href="class_fiea_1_1_engine_1_1_game_object.html#ad3a296dd56ec43cc9f81eef0b1d14db6" target="_top" xlink:title=" ">
<polygon fill="white" stroke="#666666" points="673.38,-170 541.88,-170 541.88,-138 673.38,-138 673.38,-170"/>
<text xml:space="preserve" text-anchor="start" x="549.88" y="-156.5" font-family="Helvetica,sans-Serif" font-size="10.00">Fiea::Engine::GameObject</text>
<text xml:space="preserve" text-anchor="middle" x="607.62" y="-144.5" font-family="Helvetica,sans-Serif" font-size="10.00">::GameObject</text>
</a>
</g>
</g>
<!-- Node3&#45;&gt;Node5 -->
<g id="edge4_Node000003_Node000005" class="edge">
<title>Node3&#45;&gt;Node5</title>
<g id="a_edge4_Node000003_Node000005"><a xlink:title=" ">
<path fill="none" stroke="#63b8ff" d="M491.29,-169.97C503.94,-168.22 517.31,-166.37 530.28,-164.57"/>
<polygon fill="#63b8ff" stroke="#63b8ff" points="530.63,-168.06 540.06,-163.22 529.67,-161.13 530.63,-168.06"/>
</a>
</g>
</g>
<!-- Node13 -->
<g id="Node000013" class="node">
<title>Node13</title>
<g id="a_Node000013"><a xlink:href="class_fiea_1_1_engine_1_1_content_1_1_datum.html#acb3ba55fc9b39b876cf3334d0305f4fc" target="_top" xlink:title=" ">
<polygon fill="white" stroke="#666666" points="663.25,-270 552,-270 552,-238 663.25,-238 663.25,-270"/>
<text xml:space="preserve" text-anchor="start" x="560" y="-256.5" font-family="Helvetica,sans-Serif" font-size="10.00">Fiea::Engine::Content</text>
<text xml:space="preserve" text-anchor="middle" x="607.62" y="-244.5" font-family="Helvetica,sans-Serif" font-size="10.00">::Datum::Push</text>
</a>
</g>
</g>
<!-- Node3&#45;&gt;Node13 -->
<g id="edge17_Node000003_Node000013" class="edge">
<title>Node3&#45;&gt;Node13</title>
<g id="a_edge17_Node000003_Node000013"><a xlink:title=" ">
<path fill="none" stroke="#63b8ff" d="M459.52,-195.39C480.82,-205.59 509.14,-218.68 534.75,-229 538.59,-230.55 542.57,-232.09 546.59,-233.61"/>
<polygon fill="#63b8ff" stroke="#63b8ff" points="545.27,-236.85 555.87,-237.02 547.69,-230.28 545.27,-236.85"/>
</a>
</g>
</g>
<!-- Node6 -->
<g id="Node000006" class="node">
<title>Node6</title>
<g id="a_Node000006"><a xlink:href="class_fiea_1_1_engine_1_1_content_1_1_attributed.html#ad1ae014235d9d8b62b36066c94164148" target="_top" xlink:title=" ">
<polygon fill="white" stroke="#666666" points="828.5,-170 716.5,-170 716.5,-138 828.5,-138 828.5,-170"/>
<text xml:space="preserve" text-anchor="start" x="724.5" y="-156.5" font-family="Helvetica,sans-Serif" font-size="10.00">Fiea::Engine::Content</text>
<text xml:space="preserve" text-anchor="middle" x="772.5" y="-144.5" font-family="Helvetica,sans-Serif" font-size="10.00">::Attributed::Attributed</text>
</a>
</g>
</g>
<!-- Node5&#45;&gt;Node6 -->
<g id="edge5_Node000005_Node000006" class="edge">
<title>Node5&#45;&gt;Node6</title>
<g id="a_edge5_Node000005_Node000006"><a xlink:title=" ">
<path fill="none" stroke="#63b8ff" d="M673.47,-154C683.71,-154 694.33,-154 704.62,-154"/>
<polygon fill="#63b8ff" stroke="#63b8ff" points="704.56,-157.5 714.56,-154 704.56,-150.5 704.56,-157.5"/>
</a>
</g>
</g>
<!-- Node7 -->
<g id="Node000007" class="node">
<title>Node7</title>
<g id="a_Node000007"><a xlink:href="class_fiea_1_1_engine_1_1_r_t_t_i.html#a876bebbe7b3149483c43a87f55f4ea99" target="_top" xlink:title=" ">
<polygon fill="white" stroke="#666666" points="821.75,-238 723.25,-238 723.25,-206 821.75,-206 821.75,-238"/>
<text xml:space="preserve" text-anchor="start" x="731.25" y="-224.5" font-family="Helvetica,sans-Serif" font-size="10.00">Fiea::Engine::RTTI</text>
<text xml:space="preserve" text-anchor="middle" x="772.5" y="-212.5" font-family="Helvetica,sans-Serif" font-size="10.00">::TypeIdInstance</text>
</a>
</g>
</g>
<!-- Node5&#45;&gt;Node7 -->
<g id="edge7_Node000005_Node000007" class="edge">
<title>Node5&#45;&gt;Node7</title>
<g id="a_edge7_Node000005_Node000007"><a xlink:title=" ">
<path fill="none" stroke="#63b8ff" d="M658.43,-170.39C665.89,-173.11 673.44,-176.02 680.5,-179 696.98,-185.95 700.35,-189.3 716.5,-197 719.07,-198.23 721.71,-199.47 724.38,-200.72"/>
<polygon fill="#63b8ff" stroke="#63b8ff" points="722.81,-203.85 733.35,-204.88 725.75,-197.5 722.81,-203.85"/>
</a>
</g>
</g>
<!-- Node6&#45;&gt;Node6 -->
<g id="edge6_Node000006_Node000006" class="edge">
<title>Node6&#45;&gt;Node6</title>
<g id="a_edge6_Node000006_Node000006"><a xlink:title=" ">
<path fill="none" stroke="#63b8ff" d="M745.68,-170.44C740.67,-179.58 749.61,-188 772.5,-188 785.02,-188 793.36,-185.48 797.54,-181.71"/>
<polygon fill="#63b8ff" stroke="#63b8ff" points="800.98,-182.36 799.09,-171.94 794.06,-181.27 800.98,-182.36"/>
</a>
</g>
</g>
<!-- Node7&#45;&gt;Node7 -->
<g id="edge16_Node000007_Node000007" class="edge">
<title>Node7&#45;&gt;Node7</title>
<g id="a_edge16_Node000007_Node000007"><a xlink:title=" ">
<path fill="none" stroke="#63b8ff" d="M745.68,-238.44C740.67,-247.58 749.61,-256 772.5,-256 785.02,-256 793.36,-253.48 797.54,-249.71"/>
<polygon fill="#63b8ff" stroke="#63b8ff" points="800.98,-250.36 799.09,-239.94 794.06,-249.27 800.98,-250.36"/>
</a>
</g>
</g>
<!-- Node7&#45;&gt;Node8 -->
<g id="edge8_Node000007_Node000008" class="edge">
<title>Node7&#45;&gt;Node8</title>
<g id="a_edge8_Node000007_Node000008"><a xlink:title=" ">
<path fill="none" stroke="#63b8ff" d="M816.93,-205.57C821.09,-203.05 825.03,-200.2 828.5,-197 852.76,-174.59 839.91,-154.05 864.5,-132 868.07,-128.8 872.12,-125.99 876.38,-123.53"/>
<polygon fill="#63b8ff" stroke="#63b8ff" points="877.87,-126.7 885.23,-119.08 874.72,-120.45 877.87,-126.7"/>
</a>
</g>
</g>
<!-- Node9 -->
<g id="Node000009" class="node">
<title>Node9</title>
<g id="a_Node000009"><a xlink:href="class_fiea_1_1_engine_1_1_r_t_t_i.html#ac0a7d875e4513b2aca7594abcd4418ef" target="_top" xlink:title=" ">
<polygon fill="white" stroke="#666666" points="1129.75,-137 1017,-137 1017,-117 1129.75,-117 1129.75,-137"/>
<text xml:space="preserve" text-anchor="middle" x="1073.38" y="-123.5" font-family="Helvetica,sans-Serif" font-size="10.00">Fiea::Engine::RTTI::Is</text>
</a>
</g>
</g>
<!-- Node7&#45;&gt;Node9 -->
<g id="edge13_Node000007_Node000009" class="edge">
<title>Node7&#45;&gt;Node9</title>
<g id="a_edge13_Node000007_Node000009"><a xlink:title=" ">
<path fill="none" stroke="#63b8ff" d="M813.32,-205.64C818.56,-202.99 823.75,-200.09 828.5,-197 846.45,-185.33 845.26,-174.38 864.5,-165 908.6,-143.49 963.36,-134.09 1005.6,-130.01"/>
<polygon fill="#63b8ff" stroke="#63b8ff" points="1005.72,-133.51 1015.38,-129.15 1005.11,-126.54 1005.72,-133.51"/>
</a>
</g>
</g>
<!-- Node10 -->
<g id="Node000010" class="node">
<title>Node10</title>
<g id="a_Node000010"><a xlink:href="class_fiea_1_1_engine_1_1_r_t_t_i.html#a13000029a2e6cced30b831e466e07cae" target="_top" xlink:title=" ">
<polygon fill="white" stroke="#666666" points="1122.62,-250 1024.12,-250 1024.12,-218 1122.62,-218 1122.62,-250"/>
<text xml:space="preserve" text-anchor="start" x="1032.12" y="-236.5" font-family="Helvetica,sans-Serif" font-size="10.00">Fiea::Engine::RTTI</text>
<text xml:space="preserve" text-anchor="middle" x="1073.38" y="-224.5" font-family="Helvetica,sans-Serif" font-size="10.00">::RTTI</text>
</a>
</g>
</g>
<!-- Node7&#45;&gt;Node10 -->
<g id="edge14_Node000007_Node000010" class="edge">
<title>Node7&#45;&gt;Node10</title>
<g id="a_edge14_Node000007_Node000010"><a xlink:title=" ">
<path fill="none" stroke="#63b8ff" d="M822.18,-223.95C874.18,-226.04 956.64,-229.35 1012.55,-231.6"/>
<polygon fill="#63b8ff" stroke="#63b8ff" points="1012.07,-235.08 1022.2,-231.99 1012.35,-228.09 1012.07,-235.08"/>
</a>
</g>
</g>
<!-- Node11 -->
<g id="Node000011" class="node">
<title>Node11</title>
<g id="a_Node000011"><a xlink:href="class_fiea_1_1_engine_1_1_r_t_t_i.html#a7f70ad5ba0f8a3388543d63d72892575" target="_top" xlink:title=" ">
<polygon fill="white" stroke="#666666" points="972,-294 873.5,-294 873.5,-262 972,-262 972,-294"/>
<text xml:space="preserve" text-anchor="start" x="881.5" y="-280.5" font-family="Helvetica,sans-Serif" font-size="10.00">Fiea::Engine::RTTI</text>
<text xml:space="preserve" text-anchor="middle" x="922.75" y="-268.5" font-family="Helvetica,sans-Serif" font-size="10.00">::Equals</text>
</a>
</g>
</g>
<!-- Node7&#45;&gt;Node11 -->
<g id="edge11_Node000007_Node000011" class="edge">
<title>Node7&#45;&gt;Node11</title>
<g id="a_edge11_Node000007_Node000011"><a xlink:title=" ">
<path fill="none" stroke="#63b8ff" d="M817.18,-238.5C832.94,-244.45 850.93,-251.25 867.49,-257.5"/>
<polygon fill="#63b8ff" stroke="#63b8ff" points="866.12,-260.73 876.71,-260.99 868.59,-254.18 866.12,-260.73"/>
</a>
</g>
</g>
<!-- Node12 -->
<g id="Node000012" class="node">
<title>Node12</title>
<g id="a_Node000012"><a xlink:href="class_fiea_1_1_engine_1_1_r_t_t_i.html#a43a7d187e332a17d2c699bc2c8136a30" target="_top" xlink:title=" ">
<polygon fill="white" stroke="#666666" points="972,-206 873.5,-206 873.5,-174 972,-174 972,-206"/>
<text xml:space="preserve" text-anchor="start" x="881.5" y="-192.5" font-family="Helvetica,sans-Serif" font-size="10.00">Fiea::Engine::RTTI</text>
<text xml:space="preserve" text-anchor="middle" x="922.75" y="-180.5" font-family="Helvetica,sans-Serif" font-size="10.00">::ToString</text>
</a>
</g>
</g>
<!-- Node7&#45;&gt;Node12 -->
<g id="edge15_Node000007_Node000012" class="edge">
<title>Node7&#45;&gt;Node12</title>
<g id="a_edge15_Node000007_Node000012"><a xlink:title=" ">
<path fill="none" stroke="#63b8ff" d="M822.04,-211.52C834.84,-208.76 848.8,-205.75 862.11,-202.87"/>
<polygon fill="#63b8ff" stroke="#63b8ff" points="862.58,-206.35 871.62,-200.82 861.11,-199.51 862.58,-206.35"/>
</a>
</g>
</g>
<!-- Node8&#45;&gt;Node9 -->
<g id="edge9_Node000008_Node000009" class="edge">
<title>Node8&#45;&gt;Node9</title>
<g id="a_edge9_Node000008_Node000009"><a xlink:title=" ">
<path fill="none" stroke="#63b8ff" d="M981.21,-115.35C989.1,-116.35 997.25,-117.4 1005.28,-118.42"/>
<polygon fill="#63b8ff" stroke="#63b8ff" points="1004.67,-121.87 1015.03,-119.67 1005.56,-114.93 1004.67,-121.87"/>
</a>
</g>
</g>
<!-- Node8&#45;&gt;Node10 -->
<g id="edge10_Node000008_Node000010" class="edge">
<title>Node8&#45;&gt;Node10</title>
<g id="a_edge10_Node000008_Node000010"><a xlink:title=" ">
<path fill="none" stroke="#63b8ff" d="M935.91,-118.31C959.49,-138.3 1011.94,-182.76 1044.51,-210.38"/>
<polygon fill="#63b8ff" stroke="#63b8ff" points="1042.08,-212.91 1051.98,-216.71 1046.61,-207.57 1042.08,-212.91"/>
</a>
</g>
</g>
<!-- Node11&#45;&gt;Node10 -->
<g id="edge12_Node000011_Node000010" class="edge">
<title>Node11&#45;&gt;Node10</title>
<g id="a_edge12_Node000011_Node000010"><a xlink:title=" ">
<path fill="none" stroke="#63b8ff" d="M972.42,-263.59C985.44,-259.74 999.67,-255.53 1013.19,-251.52"/>
<polygon fill="#63b8ff" stroke="#63b8ff" points="1013.81,-254.99 1022.4,-248.79 1011.82,-248.28 1013.81,-254.99"/>
</a>
</g>
</g>
<!-- Node14 -->
<g id="Node000014" class="node">
<title>Node14</title>
<g id="a_Node000014"><a xlink:href="class_fiea_1_1_engine_1_1_content_1_1_datum.html#a818f812e4489e57885c88951bc0601b3" target="_top" xlink:title=" ">
<polygon fill="white" stroke="#666666" points="828.12,-344 716.88,-344 716.88,-312 828.12,-312 828.12,-344"/>
<text xml:space="preserve" text-anchor="start" x="724.88" y="-330.5" font-family="Helvetica,sans-Serif" font-size="10.00">Fiea::Engine::Content</text>
<text xml:space="preserve" text-anchor="middle" x="772.5" y="-318.5" font-family="Helvetica,sans-Serif" font-size="10.00">::Datum::ResizeArray</text>
</a>
</g>
</g>
<!-- Node13&#45;&gt;Node14 -->
<g id="edge18_Node000013_Node000014" class="edge">
<title>Node13&#45;&gt;Node14</title>
<g id="a_edge18_Node000013_Node000014"><a xlink:title=" ">
<path fill="none" stroke="#63b8ff" d="M659.29,-270.48C666.48,-273.15 673.73,-276.02 680.5,-279 683.25,-280.21 708.11,-293.61 731.15,-306.09"/>
<polygon fill="#63b8ff" stroke="#63b8ff" points="729.39,-309.11 739.85,-310.8 732.72,-302.96 729.39,-309.11"/>
</a>
</g>
</g>
<!-- Node15 -->
<g id="Node000015" class="node">
<title>Node15</title>
<g id="a_Node000015"><a xlink:href="class_fiea_1_1_engine_1_1_content_1_1_datum.html#a921193447f6e42f596ac0a7694b02830" target="_top" xlink:title=" ">
<polygon fill="white" stroke="#666666" points="978.38,-344 867.12,-344 867.12,-312 978.38,-312 978.38,-344"/>
<text xml:space="preserve" text-anchor="start" x="875.12" y="-330.5" font-family="Helvetica,sans-Serif" font-size="10.00">Fiea::Engine::Content</text>
<text xml:space="preserve" text-anchor="middle" x="922.75" y="-318.5" font-family="Helvetica,sans-Serif" font-size="10.00">::Datum::Scope</text>
</a>
</g>
</g>
<!-- Node13&#45;&gt;Node15 -->
<g id="edge21_Node000013_Node000015" class="edge">
<title>Node13&#45;&gt;Node15</title>
<g id="a_edge21_Node000013_Node000015"><a xlink:title=" ">
<path fill="none" stroke="#63b8ff" d="M663.44,-265.54C708.02,-275.08 772.48,-289.25 828.5,-303 837.41,-305.19 846.77,-307.58 855.99,-309.99"/>
<polygon fill="#63b8ff" stroke="#63b8ff" points="855.09,-313.38 865.65,-312.55 856.88,-306.61 855.09,-313.38"/>
</a>
</g>
</g>
<!-- Node14&#45;&gt;Node15 -->
<g id="edge19_Node000014_Node000015" class="edge">
<title>Node14&#45;&gt;Node15</title>
<g id="a_edge19_Node000014_Node000015"><a xlink:title=" ">
<path fill="none" stroke="#63b8ff" d="M828.28,-328C837.1,-328 846.3,-328 855.36,-328"/>
<polygon fill="#63b8ff" stroke="#63b8ff" points="855.19,-331.5 865.19,-328 855.19,-324.5 855.19,-331.5"/>
</a>
</g>
</g>
<!-- Node15&#45;&gt;Node15 -->
<g id="edge20_Node000015_Node000015" class="edge">
<title>Node15&#45;&gt;Node15</title>
<g id="a_edge20_Node000015_Node000015"><a xlink:title=" ">
<path fill="none" stroke="#63b8ff" d="M895.93,-344.44C890.92,-353.58 899.86,-362 922.75,-362 935.27,-362 943.61,-359.48 947.79,-355.71"/>
<polygon fill="#63b8ff" stroke="#63b8ff" points="951.23,-356.36 949.34,-345.94 944.31,-355.27 951.23,-356.36"/>
</a>
</g>
</g>
<!-- Node16&#45;&gt;Node4 -->
<g id="edge23_Node000016_Node000004" class="edge">
<title>Node16&#45;&gt;Node4</title>
<g id="a_edge23_Node000016_Node000004"><a xlink:title=" ">
<path fill="none" stroke="#63b8ff" d="M446.31,-287.58C467.37,-271.05 501.85,-245.69 534.75,-229 537.62,-227.54 540.6,-226.14 543.63,-224.78"/>
<polygon fill="#63b8ff" stroke="#63b8ff" points="544.84,-228.07 552.72,-220.99 542.14,-221.62 544.84,-228.07"/>
</a>
</g>
</g>
<!-- Node16&#45;&gt;Node13 -->
<g id="edge26_Node000016_Node000013" class="edge">
<title>Node16&#45;&gt;Node13</title>
<g id="a_edge26_Node000016_Node000013"><a xlink:title=" ">
<path fill="none" stroke="#63b8ff" d="M483.73,-288.04C501.85,-283.02 521.99,-277.45 540.63,-272.28"/>
<polygon fill="#63b8ff" stroke="#63b8ff" points="541.55,-275.66 550.26,-269.61 539.69,-268.91 541.55,-275.66"/>
</a>
</g>
</g>
<!-- Node17 -->
<g id="Node000017" class="node">
<title>Node17</title>
<g id="a_Node000017"><a xlink:href="class_fiea_1_1_engine_1_1_content_1_1_scope.html#ad924c01785b239991fc0e56a63295612" target="_top" xlink:title="Finds a Datum by key.">
<polygon fill="white" stroke="#666666" points="663.25,-370 552,-370 552,-338 663.25,-338 663.25,-370"/>
<text xml:space="preserve" text-anchor="start" x="560" y="-356.5" font-family="Helvetica,sans-Serif" font-size="10.00">Fiea::Engine::Content</text>
<text xml:space="preserve" text-anchor="middle" x="607.62" y="-344.5" font-family="Helvetica,sans-Serif" font-size="10.00">::Scope::Find</text>
</a>
</g>
</g>
<!-- Node16&#45;&gt;Node17 -->
<g id="edge24_Node000016_Node000017" class="edge">
<title>Node16&#45;&gt;Node17</title>
<g id="a_edge24_Node000016_Node000017"><a xlink:title=" ">
<path fill="none" stroke="#63b8ff" d="M483.73,-319.96C501.85,-324.98 521.99,-330.55 540.63,-335.72"/>
<polygon fill="#63b8ff" stroke="#63b8ff" points="539.69,-339.09 550.26,-338.39 541.55,-332.34 539.69,-339.09"/>
</a>
</g>
</g>
<!-- Node18 -->
<g id="Node000018" class="node">
<title>Node18</title>
<g id="a_Node000018"><a xlink:href="class_fiea_1_1_engine_1_1_content_1_1_datum.html#a6e9dfba6e16fddc4efc39b8182dad89f" target="_top" xlink:title=" ">
<polygon fill="white" stroke="#666666" points="663.25,-320 552,-320 552,-288 663.25,-288 663.25,-320"/>
<text xml:space="preserve" text-anchor="start" x="560" y="-306.5" font-family="Helvetica,sans-Serif" font-size="10.00">Fiea::Engine::Content</text>
<text xml:space="preserve" text-anchor="middle" x="607.62" y="-294.5" font-family="Helvetica,sans-Serif" font-size="10.00">::Datum::IsType</text>
</a>
</g>
</g>
<!-- Node16&#45;&gt;Node18 -->
<g id="edge25_Node000016_Node000018" class="edge">
<title>Node16&#45;&gt;Node18</title>
<g id="a_edge25_Node000016_Node000018"><a xlink:title=" ">
<path fill="none" stroke="#63b8ff" d="M483.73,-304C501.76,-304 521.8,-304 540.37,-304"/>
<polygon fill="#63b8ff" stroke="#63b8ff" points="540.2,-307.5 550.2,-304 540.2,-300.5 540.2,-307.5"/>
</a>
</g>
</g>
<!-- Node19 -->
<g id="Node000019" class="node">
<title>Node19</title>
<g id="a_Node000019"><a xlink:href="class_fiea_1_1_engine_1_1_content_1_1_scope.html#a6631343c968c233ab1d9c3e05c3f4fe9" target="_top" xlink:title=" ">
<polygon fill="white" stroke="#666666" points="828.12,-486 716.88,-486 716.88,-454 828.12,-454 828.12,-486"/>
<text xml:space="preserve" text-anchor="start" x="724.88" y="-472.5" font-family="Helvetica,sans-Serif" font-size="10.00">Fiea::Engine::Content</text>
<text xml:space="preserve" text-anchor="middle" x="772.5" y="-460.5" font-family="Helvetica,sans-Serif" font-size="10.00">::Scope::Scope</text>
</a>
</g>
</g>
<!-- Node16&#45;&gt;Node19 -->
<g id="edge27_Node000016_Node000019" class="edge">
<title>Node16&#45;&gt;Node19</title>
<g id="a_edge27_Node000016_Node000019"><a xlink:title=" ">
<path fill="none" stroke="#63b8ff" d="M435.08,-320.15C451.16,-347.48 487.67,-402.45 534.75,-429 563.25,-445.07 645.74,-456.84 705.34,-463.55"/>
<polygon fill="#63b8ff" stroke="#63b8ff" points="704.73,-467 715.05,-464.62 705.49,-460.05 704.73,-467"/>
</a>
</g>
</g>
<!-- Node20 -->
<g id="Node000020" class="node">
<title>Node20</title>
<g id="a_Node000020"><a xlink:href="class_fiea_1_1_engine_1_1_content_1_1_scope.html#af6a94922a8fa123c3b22b7b4485963de" target="_top" xlink:title=" ">
<polygon fill="white" stroke="#666666" points="663.25,-508 552,-508 552,-476 663.25,-476 663.25,-508"/>
<text xml:space="preserve" text-anchor="start" x="560" y="-494.5" font-family="Helvetica,sans-Serif" font-size="10.00">Fiea::Engine::Content</text>
<text xml:space="preserve" text-anchor="middle" x="607.62" y="-482.5" font-family="Helvetica,sans-Serif" font-size="10.00">::Scope::SetParent</text>
</a>
</g>
</g>
<!-- Node16&#45;&gt;Node20 -->
<g id="edge29_Node000016_Node000020" class="edge">
<title>Node16&#45;&gt;Node20</title>
<g id="a_edge29_Node000016_Node000020"><a xlink:title=" ">
<path fill="none" stroke="#63b8ff" d="M433.33,-320.15C448.08,-351.55 484.62,-421.3 534.75,-462 538.41,-464.97 542.41,-467.69 546.58,-470.17"/>
<polygon fill="#63b8ff" stroke="#63b8ff" points="544.77,-473.17 555.23,-474.81 548.08,-467 544.77,-473.17"/>
</a>
</g>
</g>
<!-- Node21 -->
<g id="Node000021" class="node">
<title>Node21</title>
<g id="a_Node000021"><a xlink:href="class_fiea_1_1_engine_1_1_content_1_1_datum.html#a23d1f16d9646f024a5dee1f05dbd5a5e" target="_top" xlink:title=" ">
<polygon fill="white" stroke="#666666" points="663.25,-420 552,-420 552,-388 663.25,-388 663.25,-420"/>
<text xml:space="preserve" text-anchor="start" x="560" y="-406.5" font-family="Helvetica,sans-Serif" font-size="10.00">Fiea::Engine::Content</text>
<text xml:space="preserve" text-anchor="middle" x="607.62" y="-394.5" font-family="Helvetica,sans-Serif" font-size="10.00">::Datum::SetType</text>
</a>
</g>
</g>
<!-- Node16&#45;&gt;Node21 -->
<g id="edge31_Node000016_Node000021" class="edge">
<title>Node16&#45;&gt;Node21</title>
<g id="a_edge31_Node000016_Node000021"><a xlink:title=" ">
<path fill="none" stroke="#63b8ff" d="M446.31,-320.42C467.37,-336.95 501.85,-362.31 534.75,-379 537.62,-380.46 540.6,-381.86 543.63,-383.22"/>
<polygon fill="#63b8ff" stroke="#63b8ff" points="542.14,-386.38 552.72,-387.01 544.84,-379.93 542.14,-386.38"/>
</a>
</g>
</g>
<!-- Node19&#45;&gt;Node19 -->
<g id="edge28_Node000019_Node000019" class="edge">
<title>Node19&#45;&gt;Node19</title>
<g id="a_edge28_Node000019_Node000019"><a xlink:title=" ">
<path fill="none" stroke="#63b8ff" d="M745.68,-486.44C740.67,-495.58 749.61,-504 772.5,-504 785.02,-504 793.36,-501.48 797.54,-497.71"/>
<polygon fill="#63b8ff" stroke="#63b8ff" points="800.98,-498.36 799.09,-487.94 794.06,-497.27 800.98,-498.36"/>
</a>
</g>
</g>
<!-- Node20&#45;&gt;Node19 -->
<g id="edge30_Node000020_Node000019" class="edge">
<title>Node20&#45;&gt;Node19</title>
<g id="a_edge30_Node000020_Node000019"><a xlink:title=" ">
<path fill="none" stroke="#63b8ff" d="M663.31,-484.61C676.8,-482.79 691.4,-480.82 705.37,-478.93"/>
<polygon fill="#63b8ff" stroke="#63b8ff" points="705.46,-482.45 714.9,-477.64 704.52,-475.52 705.46,-482.45"/>
</a>
</g>
</g>
<!-- Node22&#45;&gt;Node8 -->
<g id="edge34_Node000022_Node000008" class="edge">
<title>Node22&#45;&gt;Node8</title>
<g id="a_edge34_Node000022_Node000008"><a xlink:title=" ">
<path fill="none" stroke="#63b8ff" d="M488.6,-69.62C567.79,-74.44 708.46,-83.81 828.5,-96 836.43,-96.8 844.72,-97.74 852.95,-98.72"/>
<polygon fill="#63b8ff" stroke="#63b8ff" points="852.25,-102.16 862.6,-99.91 853.1,-95.22 852.25,-102.16"/>
</a>
</g>
</g>
<!-- Node23 -->
<g id="Node000023" class="node">
<title>Node23</title>
<g id="a_Node000023"><a xlink:href="struct_fiea_1_1_engine_1_1_content_1_1_i_factory_service.html#a287380a07bd649e87bba6b3762554c20" target="_top" xlink:title=" ">
<polygon fill="white" stroke="#666666" points="680.5,-44 534.75,-44 534.75,-12 680.5,-12 680.5,-44"/>
<text xml:space="preserve" text-anchor="start" x="542.75" y="-30.5" font-family="Helvetica,sans-Serif" font-size="10.00">Fiea::Engine::Content</text>
<text xml:space="preserve" text-anchor="middle" x="607.62" y="-18.5" font-family="Helvetica,sans-Serif" font-size="10.00">::IFactoryService::GetFactory</text>
</a>
</g>
</g>
<!-- Node22&#45;&gt;Node23 -->
<g id="edge35_Node000022_Node000023" class="edge">
<title>Node22&#45;&gt;Node23</title>
<g id="a_edge35_Node000022_Node000023"><a xlink:title=" ">
<path fill="none" stroke="#63b8ff" d="M488.75,-52.82C499.94,-50.46 511.75,-47.97 523.41,-45.52"/>
<polygon fill="#63b8ff" stroke="#63b8ff" points="523.97,-48.98 533.03,-43.49 522.53,-42.13 523.97,-48.98"/>
</a>
</g>
</g>
</g>
</svg>
