<?xml version="1.0" encoding="UTF-8" standalone="no"?>
<!DOCTYPE svg PUBLIC "-//W3C//DTD SVG 1.1//EN"
 "http://www.w3.org/Graphics/SVG/1.1/DTD/svg11.dtd">
<!-- Generated by graphviz version 13.1.0 (20250701.0955)
 -->
<!-- Title: Fiea::Engine::Actions::ActionIncrement::RunAction Pages: 1 -->
<svg width="595pt" height="224pt"
 viewBox="0.00 0.00 595.00 224.00" xmlns="http://www.w3.org/2000/svg" xmlns:xlink="http://www.w3.org/1999/xlink">
<g id="graph0" class="graph" transform="scale(1 1) rotate(0) translate(4 220)">
<title>Fiea::Engine::Actions::ActionIncrement::RunAction</title>
<!-- Node1 -->
<g id="Node000001" class="node">
<title>Node1</title>
<g id="a_Node000001"><a xlink:title=" ">
<polygon fill="#999999" stroke="#666666" points="145,-141 0,-141 0,-109 145,-109 145,-141"/>
<text xml:space="preserve" text-anchor="start" x="8" y="-127.5" font-family="Helvetica,sans-Serif" font-size="10.00">Fiea::Engine::Actions</text>
<text xml:space="preserve" text-anchor="middle" x="72.5" y="-115.5" font-family="Helvetica,sans-Serif" font-size="10.00">::ActionIncrement::RunAction</text>
</a>
</g>
</g>
<!-- Node2 -->
<g id="Node000002" class="node">
<title>Node2</title>
<g id="a_Node000002"><a xlink:href="class_fiea_1_1_engine_1_1_content_1_1_datum.html#afe5c48ad15802ef84b150d79ed476898" target="_top" xlink:title=" ">
<polygon fill="white" stroke="#666666" points="292.25,-216 181,-216 181,-184 292.25,-184 292.25,-216"/>
<text xml:space="preserve" text-anchor="start" x="189" y="-202.5" font-family="Helvetica,sans-Serif" font-size="10.00">Fiea::Engine::Content</text>
<text xml:space="preserve" text-anchor="middle" x="236.62" y="-190.5" font-family="Helvetica,sans-Serif" font-size="10.00">::Datum::GetAsFloat</text>
</a>
</g>
</g>
<!-- Node1&#45;&gt;Node2 -->
<g id="edge1_Node000001_Node000002" class="edge">
<title>Node1&#45;&gt;Node2</title>
<g id="a_edge1_Node000001_Node000002"><a xlink:title=" ">
<path fill="none" stroke="#63b8ff" d="M108.82,-141.49C129.78,-151.27 156.89,-163.88 181,-175 183.75,-176.27 186.57,-177.57 189.42,-178.88"/>
<polygon fill="#63b8ff" stroke="#63b8ff" points="187.84,-182 198.39,-182.99 190.76,-175.64 187.84,-182"/>
</a>
</g>
</g>
<!-- Node3 -->
<g id="Node000003" class="node">
<title>Node3</title>
<g id="a_Node000003"><a xlink:href="class_fiea_1_1_engine_1_1_content_1_1_datum.html#a6e9dfba6e16fddc4efc39b8182dad89f" target="_top" xlink:title=" ">
<polygon fill="white" stroke="#666666" points="292.25,-166 181,-166 181,-134 292.25,-134 292.25,-166"/>
<text xml:space="preserve" text-anchor="start" x="189" y="-152.5" font-family="Helvetica,sans-Serif" font-size="10.00">Fiea::Engine::Content</text>
<text xml:space="preserve" text-anchor="middle" x="236.62" y="-140.5" font-family="Helvetica,sans-Serif" font-size="10.00">::Datum::IsType</text>
</a>
</g>
</g>
<!-- Node1&#45;&gt;Node3 -->
<g id="edge2_Node000001_Node000003" class="edge">
<title>Node1&#45;&gt;Node3</title>
<g id="a_edge2_Node000001_Node000003"><a xlink:title=" ">
<path fill="none" stroke="#63b8ff" d="M145.08,-136.04C153.27,-137.3 161.59,-138.58 169.7,-139.83"/>
<polygon fill="#63b8ff" stroke="#63b8ff" points="169.07,-143.28 179.49,-141.34 170.14,-136.36 169.07,-143.28"/>
</a>
</g>
</g>
<!-- Node4 -->
<g id="Node000004" class="node">
<title>Node4</title>
<g id="a_Node000004"><a xlink:href="class_fiea_1_1_engine_1_1_content_1_1_scope.html#ae21ea7cc60b24915a0aac3b0d0f6005c" target="_top" xlink:title=" ">
<polygon fill="white" stroke="#666666" points="292.25,-116 181,-116 181,-84 292.25,-84 292.25,-116"/>
<text xml:space="preserve" text-anchor="start" x="189" y="-102.5" font-family="Helvetica,sans-Serif" font-size="10.00">Fiea::Engine::Content</text>
<text xml:space="preserve" text-anchor="middle" x="236.62" y="-90.5" font-family="Helvetica,sans-Serif" font-size="10.00">::Scope::Search</text>
</a>
</g>
</g>
<!-- Node1&#45;&gt;Node4 -->
<g id="edge3_Node000001_Node000004" class="edge">
<title>Node1&#45;&gt;Node4</title>
<g id="a_edge3_Node000001_Node000004"><a xlink:title=" ">
<path fill="none" stroke="#63b8ff" d="M145.08,-113.96C153.27,-112.7 161.59,-111.42 169.7,-110.17"/>
<polygon fill="#63b8ff" stroke="#63b8ff" points="170.14,-113.64 179.49,-108.66 169.07,-106.72 170.14,-113.64"/>
</a>
</g>
</g>
<!-- Node8 -->
<g id="Node000008" class="node">
<title>Node8</title>
<g id="a_Node000008"><a xlink:href="class_fiea_1_1_engine_1_1_content_1_1_datum.html#af8ca5539cfa1034703824207a4368a04" target="_top" xlink:title=" ">
<polygon fill="white" stroke="#666666" points="292.25,-60 181,-60 181,-28 292.25,-28 292.25,-60"/>
<text xml:space="preserve" text-anchor="start" x="189" y="-46.5" font-family="Helvetica,sans-Serif" font-size="10.00">Fiea::Engine::Content</text>
<text xml:space="preserve" text-anchor="middle" x="236.62" y="-34.5" font-family="Helvetica,sans-Serif" font-size="10.00">::Datum::Set</text>
</a>
</g>
</g>
<!-- Node1&#45;&gt;Node8 -->
<g id="edge9_Node000001_Node000008" class="edge">
<title>Node1&#45;&gt;Node8</title>
<g id="a_edge9_Node000001_Node000008"><a xlink:title=" ">
<path fill="none" stroke="#63b8ff" d="M106.31,-108.61C131.25,-96.15 165.77,-78.9 192.88,-65.36"/>
<polygon fill="#63b8ff" stroke="#63b8ff" points="194.13,-68.64 201.51,-61.04 191,-62.38 194.13,-68.64"/>
</a>
</g>
</g>
<!-- Node5 -->
<g id="Node000005" class="node">
<title>Node5</title>
<g id="a_Node000005"><a xlink:href="class_fiea_1_1_engine_1_1_content_1_1_scope.html#ad924c01785b239991fc0e56a63295612" target="_top" xlink:title="Finds a Datum by key.">
<polygon fill="white" stroke="#666666" points="439.5,-188 328.25,-188 328.25,-156 439.5,-156 439.5,-188"/>
<text xml:space="preserve" text-anchor="start" x="336.25" y="-174.5" font-family="Helvetica,sans-Serif" font-size="10.00">Fiea::Engine::Content</text>
<text xml:space="preserve" text-anchor="middle" x="383.88" y="-162.5" font-family="Helvetica,sans-Serif" font-size="10.00">::Scope::Find</text>
</a>
</g>
</g>
<!-- Node4&#45;&gt;Node5 -->
<g id="edge4_Node000004_Node000005" class="edge">
<title>Node4&#45;&gt;Node5</title>
<g id="a_edge4_Node000004_Node000005"><a xlink:title=" ">
<path fill="none" stroke="#63b8ff" d="M275.23,-116.49C280.99,-119.22 286.82,-122.11 292.25,-125 308.8,-133.81 311.7,-138.19 328.25,-147 330.46,-148.17 332.73,-149.35 335.04,-150.51"/>
<polygon fill="#63b8ff" stroke="#63b8ff" points="333.39,-153.6 343.91,-154.84 336.46,-147.31 333.39,-153.6"/>
</a>
</g>
</g>
<!-- Node6 -->
<g id="Node000006" class="node">
<title>Node6</title>
<g id="a_Node000006"><a xlink:href="class_fiea_1_1_engine_1_1_content_1_1_scope.html#ac4627f740867a929957ce0647f436e02" target="_top" xlink:title=" ">
<polygon fill="white" stroke="#666666" points="439.5,-138 328.25,-138 328.25,-106 439.5,-106 439.5,-138"/>
<text xml:space="preserve" text-anchor="start" x="336.25" y="-124.5" font-family="Helvetica,sans-Serif" font-size="10.00">Fiea::Engine::Content</text>
<text xml:space="preserve" text-anchor="middle" x="383.88" y="-112.5" font-family="Helvetica,sans-Serif" font-size="10.00">::Scope::GetParent</text>
</a>
</g>
</g>
<!-- Node4&#45;&gt;Node6 -->
<g id="edge5_Node000004_Node000006" class="edge">
<title>Node4&#45;&gt;Node6</title>
<g id="a_edge5_Node000004_Node000006"><a xlink:title=" ">
<path fill="none" stroke="#63b8ff" d="M292.54,-108.32C300.4,-109.51 308.56,-110.74 316.61,-111.96"/>
<polygon fill="#63b8ff" stroke="#63b8ff" points="315.98,-115.41 326.39,-113.44 317.03,-108.49 315.98,-115.41"/>
</a>
</g>
</g>
<!-- Node7 -->
<g id="Node000007" class="node">
<title>Node7</title>
<g id="a_Node000007"><a xlink:href="class_fiea_1_1_engine_1_1_content_1_1_scope.html#a6631343c968c233ab1d9c3e05c3f4fe9" target="_top" xlink:title=" ">
<polygon fill="white" stroke="#666666" points="586.75,-116 475.5,-116 475.5,-84 586.75,-84 586.75,-116"/>
<text xml:space="preserve" text-anchor="start" x="483.5" y="-102.5" font-family="Helvetica,sans-Serif" font-size="10.00">Fiea::Engine::Content</text>
<text xml:space="preserve" text-anchor="middle" x="531.12" y="-90.5" font-family="Helvetica,sans-Serif" font-size="10.00">::Scope::Scope</text>
</a>
</g>
</g>
<!-- Node4&#45;&gt;Node7 -->
<g id="edge8_Node000004_Node000007" class="edge">
<title>Node4&#45;&gt;Node7</title>
<g id="a_edge8_Node000004_Node000007"><a xlink:title=" ">
<path fill="none" stroke="#63b8ff" d="M292.73,-97.88C304.45,-97.52 316.76,-97.19 328.25,-97 377.69,-96.18 390.06,-96.18 439.5,-97 447.31,-97.13 455.5,-97.32 463.62,-97.55"/>
<polygon fill="#63b8ff" stroke="#63b8ff" points="463.41,-101.04 473.51,-97.84 463.61,-94.04 463.41,-101.04"/>
</a>
</g>
</g>
<!-- Node6&#45;&gt;Node7 -->
<g id="edge6_Node000006_Node000007" class="edge">
<title>Node6&#45;&gt;Node7</title>
<g id="a_edge6_Node000006_Node000007"><a xlink:title=" ">
<path fill="none" stroke="#63b8ff" d="M439.79,-113.68C447.65,-112.49 455.81,-111.26 463.86,-110.04"/>
<polygon fill="#63b8ff" stroke="#63b8ff" points="464.28,-113.51 473.64,-108.56 463.23,-106.59 464.28,-113.51"/>
</a>
</g>
</g>
<!-- Node7&#45;&gt;Node7 -->
<g id="edge7_Node000007_Node000007" class="edge">
<title>Node7&#45;&gt;Node7</title>
<g id="a_edge7_Node000007_Node000007"><a xlink:title=" ">
<path fill="none" stroke="#63b8ff" d="M504.84,-116.44C499.93,-125.58 508.69,-134 531.12,-134 543.39,-134 551.57,-131.48 555.66,-127.71"/>
<polygon fill="#63b8ff" stroke="#63b8ff" points="559.1,-128.36 557.18,-117.94 552.19,-127.28 559.1,-128.36"/>
</a>
</g>
</g>
<!-- Node9 -->
<g id="Node000009" class="node">
<title>Node9</title>
<g id="a_Node000009"><a xlink:href="class_fiea_1_1_engine_1_1_content_1_1_datum.html#a921193447f6e42f596ac0a7694b02830" target="_top" xlink:title=" ">
<polygon fill="white" stroke="#666666" points="439.5,-32 328.25,-32 328.25,0 439.5,0 439.5,-32"/>
<text xml:space="preserve" text-anchor="start" x="336.25" y="-18.5" font-family="Helvetica,sans-Serif" font-size="10.00">Fiea::Engine::Content</text>
<text xml:space="preserve" text-anchor="middle" x="383.88" y="-6.5" font-family="Helvetica,sans-Serif" font-size="10.00">::Datum::Scope</text>
</a>
</g>
</g>
<!-- Node8&#45;&gt;Node9 -->
<g id="edge10_Node000008_Node000009" class="edge">
<title>Node8&#45;&gt;Node9</title>
<g id="a_edge10_Node000008_Node000009"><a xlink:title=" ">
<path fill="none" stroke="#63b8ff" d="M292.54,-33.41C300.4,-31.9 308.56,-30.33 316.61,-28.77"/>
<polygon fill="#63b8ff" stroke="#63b8ff" points="317.24,-32.22 326.4,-26.89 315.92,-25.34 317.24,-32.22"/>
</a>
</g>
</g>
<!-- Node9&#45;&gt;Node9 -->
<g id="edge11_Node000009_Node000009" class="edge">
<title>Node9&#45;&gt;Node9</title>
<g id="a_edge11_Node000009_Node000009"><a xlink:title=" ">
<path fill="none" stroke="#63b8ff" d="M357.59,-32.44C352.68,-41.58 361.44,-50 383.88,-50 396.14,-50 404.32,-47.48 408.41,-43.71"/>
<polygon fill="#63b8ff" stroke="#63b8ff" points="411.85,-44.36 409.93,-33.94 404.94,-43.28 411.85,-44.36"/>
</a>
</g>
</g>
</g>
</svg>
