<?xml version="1.0" encoding="UTF-8" standalone="no"?>
<!DOCTYPE svg PUBLIC "-//W3C//DTD SVG 1.1//EN"
 "http://www.w3.org/Graphics/SVG/1.1/DTD/svg11.dtd">
<!-- Generated by graphviz version 13.1.0 (20250701.0955)
 -->
<!-- Title: Fiea::Engine::Actions::ActionDecrement::RunAction Pages: 1 -->
<svg width="599pt" height="224pt"
 viewBox="0.00 0.00 599.00 224.00" xmlns="http://www.w3.org/2000/svg" xmlns:xlink="http://www.w3.org/1999/xlink">
<g id="graph0" class="graph" transform="scale(1 1) rotate(0) translate(4 220)">
<title>Fiea::Engine::Actions::ActionDecrement::RunAction</title>
<!-- Node1 -->
<g id="Node000001" class="node">
<title>Node1</title>
<g id="a_Node000001"><a xlink:title=" ">
<polygon fill="#999999" stroke="#666666" points="149.5,-141 0,-141 0,-109 149.5,-109 149.5,-141"/>
<text xml:space="preserve" text-anchor="start" x="8" y="-127.5" font-family="Helvetica,sans-Serif" font-size="10.00">Fiea::Engine::Actions</text>
<text xml:space="preserve" text-anchor="middle" x="74.75" y="-115.5" font-family="Helvetica,sans-Serif" font-size="10.00">::ActionDecrement::RunAction</text>
</a>
</g>
</g>
<!-- Node2 -->
<g id="Node000002" class="node">
<title>Node2</title>
<g id="a_Node000002"><a xlink:href="class_fiea_1_1_engine_1_1_content_1_1_datum.html#afe5c48ad15802ef84b150d79ed476898" target="_top" xlink:title=" ">
<polygon fill="white" stroke="#666666" points="296.75,-216 185.5,-216 185.5,-184 296.75,-184 296.75,-216"/>
<text xml:space="preserve" text-anchor="start" x="193.5" y="-202.5" font-family="Helvetica,sans-Serif" font-size="10.00">Fiea::Engine::Content</text>
<text xml:space="preserve" text-anchor="middle" x="241.12" y="-190.5" font-family="Helvetica,sans-Serif" font-size="10.00">::Datum::GetAsFloat</text>
</a>
</g>
</g>
<!-- Node1&#45;&gt;Node2 -->
<g id="edge1_Node000001_Node000002" class="edge">
<title>Node1&#45;&gt;Node2</title>
<g id="a_edge1_Node000001_Node000002"><a xlink:title=" ">
<path fill="none" stroke="#63b8ff" d="M111.82,-141.46C135.91,-152.45 167.81,-167.01 193.78,-178.85"/>
<polygon fill="#63b8ff" stroke="#63b8ff" points="192.21,-181.98 202.76,-182.95 195.11,-175.62 192.21,-181.98"/>
</a>
</g>
</g>
<!-- Node3 -->
<g id="Node000003" class="node">
<title>Node3</title>
<g id="a_Node000003"><a xlink:href="class_fiea_1_1_engine_1_1_content_1_1_datum.html#a6e9dfba6e16fddc4efc39b8182dad89f" target="_top" xlink:title=" ">
<polygon fill="white" stroke="#666666" points="296.75,-166 185.5,-166 185.5,-134 296.75,-134 296.75,-166"/>
<text xml:space="preserve" text-anchor="start" x="193.5" y="-152.5" font-family="Helvetica,sans-Serif" font-size="10.00">Fiea::Engine::Content</text>
<text xml:space="preserve" text-anchor="middle" x="241.12" y="-140.5" font-family="Helvetica,sans-Serif" font-size="10.00">::Datum::IsType</text>
</a>
</g>
</g>
<!-- Node1&#45;&gt;Node3 -->
<g id="edge2_Node000001_Node000003" class="edge">
<title>Node1&#45;&gt;Node3</title>
<g id="a_edge2_Node000001_Node000003"><a xlink:title=" ">
<path fill="none" stroke="#63b8ff" d="M149.76,-136.26C157.87,-137.49 166.09,-138.74 174.09,-139.96"/>
<polygon fill="#63b8ff" stroke="#63b8ff" points="173.32,-143.38 183.73,-141.42 174.37,-136.46 173.32,-143.38"/>
</a>
</g>
</g>
<!-- Node4 -->
<g id="Node000004" class="node">
<title>Node4</title>
<g id="a_Node000004"><a xlink:href="class_fiea_1_1_engine_1_1_content_1_1_scope.html#ae21ea7cc60b24915a0aac3b0d0f6005c" target="_top" xlink:title=" ">
<polygon fill="white" stroke="#666666" points="296.75,-116 185.5,-116 185.5,-84 296.75,-84 296.75,-116"/>
<text xml:space="preserve" text-anchor="start" x="193.5" y="-102.5" font-family="Helvetica,sans-Serif" font-size="10.00">Fiea::Engine::Content</text>
<text xml:space="preserve" text-anchor="middle" x="241.12" y="-90.5" font-family="Helvetica,sans-Serif" font-size="10.00">::Scope::Search</text>
</a>
</g>
</g>
<!-- Node1&#45;&gt;Node4 -->
<g id="edge3_Node000001_Node000004" class="edge">
<title>Node1&#45;&gt;Node4</title>
<g id="a_edge3_Node000001_Node000004"><a xlink:title=" ">
<path fill="none" stroke="#63b8ff" d="M149.76,-113.74C157.87,-112.51 166.09,-111.26 174.09,-110.04"/>
<polygon fill="#63b8ff" stroke="#63b8ff" points="174.37,-113.54 183.73,-108.58 173.32,-106.62 174.37,-113.54"/>
</a>
</g>
</g>
<!-- Node8 -->
<g id="Node000008" class="node">
<title>Node8</title>
<g id="a_Node000008"><a xlink:href="class_fiea_1_1_engine_1_1_content_1_1_datum.html#af8ca5539cfa1034703824207a4368a04" target="_top" xlink:title=" ">
<polygon fill="white" stroke="#666666" points="296.75,-60 185.5,-60 185.5,-28 296.75,-28 296.75,-60"/>
<text xml:space="preserve" text-anchor="start" x="193.5" y="-46.5" font-family="Helvetica,sans-Serif" font-size="10.00">Fiea::Engine::Content</text>
<text xml:space="preserve" text-anchor="middle" x="241.12" y="-34.5" font-family="Helvetica,sans-Serif" font-size="10.00">::Datum::Set</text>
</a>
</g>
</g>
<!-- Node1&#45;&gt;Node8 -->
<g id="edge9_Node000001_Node000008" class="edge">
<title>Node1&#45;&gt;Node8</title>
<g id="a_edge9_Node000001_Node000008"><a xlink:title=" ">
<path fill="none" stroke="#63b8ff" d="M109.01,-108.61C134.3,-96.15 169.3,-78.9 196.78,-65.36"/>
<polygon fill="#63b8ff" stroke="#63b8ff" points="198.13,-68.6 205.55,-61.04 195.04,-62.32 198.13,-68.6"/>
</a>
</g>
</g>
<!-- Node5 -->
<g id="Node000005" class="node">
<title>Node5</title>
<g id="a_Node000005"><a xlink:href="class_fiea_1_1_engine_1_1_content_1_1_scope.html#ad924c01785b239991fc0e56a63295612" target="_top" xlink:title="Finds a Datum by key.">
<polygon fill="white" stroke="#666666" points="444,-188 332.75,-188 332.75,-156 444,-156 444,-188"/>
<text xml:space="preserve" text-anchor="start" x="340.75" y="-174.5" font-family="Helvetica,sans-Serif" font-size="10.00">Fiea::Engine::Content</text>
<text xml:space="preserve" text-anchor="middle" x="388.38" y="-162.5" font-family="Helvetica,sans-Serif" font-size="10.00">::Scope::Find</text>
</a>
</g>
</g>
<!-- Node4&#45;&gt;Node5 -->
<g id="edge4_Node000004_Node000005" class="edge">
<title>Node4&#45;&gt;Node5</title>
<g id="a_edge4_Node000004_Node000005"><a xlink:title=" ">
<path fill="none" stroke="#63b8ff" d="M279.73,-116.49C285.49,-119.22 291.32,-122.11 296.75,-125 313.3,-133.81 316.2,-138.19 332.75,-147 334.96,-148.17 337.23,-149.35 339.54,-150.51"/>
<polygon fill="#63b8ff" stroke="#63b8ff" points="337.89,-153.6 348.41,-154.84 340.96,-147.31 337.89,-153.6"/>
</a>
</g>
</g>
<!-- Node6 -->
<g id="Node000006" class="node">
<title>Node6</title>
<g id="a_Node000006"><a xlink:href="class_fiea_1_1_engine_1_1_content_1_1_scope.html#ac4627f740867a929957ce0647f436e02" target="_top" xlink:title=" ">
<polygon fill="white" stroke="#666666" points="444,-138 332.75,-138 332.75,-106 444,-106 444,-138"/>
<text xml:space="preserve" text-anchor="start" x="340.75" y="-124.5" font-family="Helvetica,sans-Serif" font-size="10.00">Fiea::Engine::Content</text>
<text xml:space="preserve" text-anchor="middle" x="388.38" y="-112.5" font-family="Helvetica,sans-Serif" font-size="10.00">::Scope::GetParent</text>
</a>
</g>
</g>
<!-- Node4&#45;&gt;Node6 -->
<g id="edge5_Node000004_Node000006" class="edge">
<title>Node4&#45;&gt;Node6</title>
<g id="a_edge5_Node000004_Node000006"><a xlink:title=" ">
<path fill="none" stroke="#63b8ff" d="M297.04,-108.32C304.9,-109.51 313.06,-110.74 321.11,-111.96"/>
<polygon fill="#63b8ff" stroke="#63b8ff" points="320.48,-115.41 330.89,-113.44 321.53,-108.49 320.48,-115.41"/>
</a>
</g>
</g>
<!-- Node7 -->
<g id="Node000007" class="node">
<title>Node7</title>
<g id="a_Node000007"><a xlink:href="class_fiea_1_1_engine_1_1_content_1_1_scope.html#a6631343c968c233ab1d9c3e05c3f4fe9" target="_top" xlink:title=" ">
<polygon fill="white" stroke="#666666" points="591.25,-116 480,-116 480,-84 591.25,-84 591.25,-116"/>
<text xml:space="preserve" text-anchor="start" x="488" y="-102.5" font-family="Helvetica,sans-Serif" font-size="10.00">Fiea::Engine::Content</text>
<text xml:space="preserve" text-anchor="middle" x="535.62" y="-90.5" font-family="Helvetica,sans-Serif" font-size="10.00">::Scope::Scope</text>
</a>
</g>
</g>
<!-- Node4&#45;&gt;Node7 -->
<g id="edge8_Node000004_Node000007" class="edge">
<title>Node4&#45;&gt;Node7</title>
<g id="a_edge8_Node000004_Node000007"><a xlink:title=" ">
<path fill="none" stroke="#63b8ff" d="M297.23,-97.88C308.95,-97.52 321.26,-97.19 332.75,-97 382.19,-96.18 394.56,-96.18 444,-97 451.81,-97.13 460,-97.32 468.12,-97.55"/>
<polygon fill="#63b8ff" stroke="#63b8ff" points="467.91,-101.04 478.01,-97.84 468.11,-94.04 467.91,-101.04"/>
</a>
</g>
</g>
<!-- Node6&#45;&gt;Node7 -->
<g id="edge6_Node000006_Node000007" class="edge">
<title>Node6&#45;&gt;Node7</title>
<g id="a_edge6_Node000006_Node000007"><a xlink:title=" ">
<path fill="none" stroke="#63b8ff" d="M444.29,-113.68C452.15,-112.49 460.31,-111.26 468.36,-110.04"/>
<polygon fill="#63b8ff" stroke="#63b8ff" points="468.78,-113.51 478.14,-108.56 467.73,-106.59 468.78,-113.51"/>
</a>
</g>
</g>
<!-- Node7&#45;&gt;Node7 -->
<g id="edge7_Node000007_Node000007" class="edge">
<title>Node7&#45;&gt;Node7</title>
<g id="a_edge7_Node000007_Node000007"><a xlink:title=" ">
<path fill="none" stroke="#63b8ff" d="M509.34,-116.44C504.43,-125.58 513.19,-134 535.62,-134 547.89,-134 556.07,-131.48 560.16,-127.71"/>
<polygon fill="#63b8ff" stroke="#63b8ff" points="563.6,-128.36 561.68,-117.94 556.69,-127.28 563.6,-128.36"/>
</a>
</g>
</g>
<!-- Node9 -->
<g id="Node000009" class="node">
<title>Node9</title>
<g id="a_Node000009"><a xlink:href="class_fiea_1_1_engine_1_1_content_1_1_datum.html#a921193447f6e42f596ac0a7694b02830" target="_top" xlink:title=" ">
<polygon fill="white" stroke="#666666" points="444,-32 332.75,-32 332.75,0 444,0 444,-32"/>
<text xml:space="preserve" text-anchor="start" x="340.75" y="-18.5" font-family="Helvetica,sans-Serif" font-size="10.00">Fiea::Engine::Content</text>
<text xml:space="preserve" text-anchor="middle" x="388.38" y="-6.5" font-family="Helvetica,sans-Serif" font-size="10.00">::Datum::Scope</text>
</a>
</g>
</g>
<!-- Node8&#45;&gt;Node9 -->
<g id="edge10_Node000008_Node000009" class="edge">
<title>Node8&#45;&gt;Node9</title>
<g id="a_edge10_Node000008_Node000009"><a xlink:title=" ">
<path fill="none" stroke="#63b8ff" d="M297.04,-33.41C304.9,-31.9 313.06,-30.33 321.11,-28.77"/>
<polygon fill="#63b8ff" stroke="#63b8ff" points="321.74,-32.22 330.9,-26.89 320.42,-25.34 321.74,-32.22"/>
</a>
</g>
</g>
<!-- Node9&#45;&gt;Node9 -->
<g id="edge11_Node000009_Node000009" class="edge">
<title>Node9&#45;&gt;Node9</title>
<g id="a_edge11_Node000009_Node000009"><a xlink:title=" ">
<path fill="none" stroke="#63b8ff" d="M362.09,-32.44C357.18,-41.58 365.94,-50 388.38,-50 400.64,-50 408.82,-47.48 412.91,-43.71"/>
<polygon fill="#63b8ff" stroke="#63b8ff" points="416.35,-44.36 414.43,-33.94 409.44,-43.28 416.35,-44.36"/>
</a>
</g>
</g>
</g>
</svg>
