<?xml version="1.0" encoding="UTF-8" standalone="no"?>
<!DOCTYPE svg PUBLIC "-//W3C//DTD SVG 1.1//EN"
 "http://www.w3.org/Graphics/SVG/1.1/DTD/svg11.dtd">
<!-- Generated by graphviz version 13.1.0 (20250701.0955)
 -->
<!-- Title: Fiea::Engine::Actions::ActionAddDatum::operator= Pages: 1 -->
<svg width="930pt" height="220pt"
 viewBox="0.00 0.00 930.00 220.00" xmlns="http://www.w3.org/2000/svg" xmlns:xlink="http://www.w3.org/1999/xlink">
<g id="graph0" class="graph" transform="scale(1 1) rotate(0) translate(4 216)">
<title>Fiea::Engine::Actions::ActionAddDatum::operator=</title>
<!-- Node1 -->
<g id="Node000001" class="node">
<title>Node1</title>
<g id="a_Node000001"><a xlink:title=" ">
<polygon fill="#999999" stroke="#666666" points="143.5,-148 0,-148 0,-116 143.5,-116 143.5,-148"/>
<text xml:space="preserve" text-anchor="start" x="8" y="-134.5" font-family="Helvetica,sans-Serif" font-size="10.00">Fiea::Engine::Actions</text>
<text xml:space="preserve" text-anchor="middle" x="71.75" y="-122.5" font-family="Helvetica,sans-Serif" font-size="10.00">::ActionAddDatum::operator=</text>
</a>
</g>
</g>
<!-- Node2 -->
<g id="Node000002" class="node">
<title>Node2</title>
<g id="a_Node000002"><a xlink:href="class_fiea_1_1_engine_1_1_actions_1_1_action_add_datum.html#ad36c48a3887d261713f6f5406d2b7da1" target="_top" xlink:title=" ">
<polygon fill="white" stroke="#666666" points="326.75,-154 179.5,-154 179.5,-110 326.75,-110 326.75,-154"/>
<text xml:space="preserve" text-anchor="start" x="187.5" y="-140.5" font-family="Helvetica,sans-Serif" font-size="10.00">Fiea::Engine::Actions</text>
<text xml:space="preserve" text-anchor="start" x="187.5" y="-128.5" font-family="Helvetica,sans-Serif" font-size="10.00">::ActionAddDatum::ActionAdd</text>
<text xml:space="preserve" text-anchor="middle" x="253.12" y="-116.5" font-family="Helvetica,sans-Serif" font-size="10.00">Datum</text>
</a>
</g>
</g>
<!-- Node1&#45;&gt;Node2 -->
<g id="edge1_Node000001_Node000002" class="edge">
<title>Node1&#45;&gt;Node2</title>
<g id="a_edge1_Node000001_Node000002"><a xlink:title=" ">
<path fill="none" stroke="#63b8ff" d="M143.9,-132C151.66,-132 159.6,-132 167.5,-132"/>
<polygon fill="#63b8ff" stroke="#63b8ff" points="167.49,-135.5 177.49,-132 167.49,-128.5 167.49,-135.5"/>
</a>
</g>
</g>
<!-- Node3 -->
<g id="Node000003" class="node">
<title>Node3</title>
<g id="a_Node000003"><a xlink:href="class_fiea_1_1_engine_1_1_actions_1_1_action.html#ae2af386f7122152003b00da79393e19e" target="_top" xlink:title=" ">
<polygon fill="white" stroke="#666666" points="472.5,-170 362.75,-170 362.75,-138 472.5,-138 472.5,-170"/>
<text xml:space="preserve" text-anchor="start" x="370.75" y="-156.5" font-family="Helvetica,sans-Serif" font-size="10.00">Fiea::Engine::Actions</text>
<text xml:space="preserve" text-anchor="middle" x="417.62" y="-144.5" font-family="Helvetica,sans-Serif" font-size="10.00">::Action::Action</text>
</a>
</g>
</g>
<!-- Node2&#45;&gt;Node3 -->
<g id="edge2_Node000002_Node000003" class="edge">
<title>Node2&#45;&gt;Node3</title>
<g id="a_edge2_Node000002_Node000003"><a xlink:title=" ">
<path fill="none" stroke="#63b8ff" d="M326.82,-141.84C334.98,-142.95 343.25,-144.07 351.3,-145.16"/>
<polygon fill="#63b8ff" stroke="#63b8ff" points="350.63,-148.6 361.01,-146.47 351.57,-141.66 350.63,-148.6"/>
</a>
</g>
</g>
<!-- Node5 -->
<g id="Node000005" class="node">
<title>Node5</title>
<g id="a_Node000005"><a xlink:href="class_fiea_1_1_engine_1_1_r_t_t_i.html#a876bebbe7b3149483c43a87f55f4ea99" target="_top" xlink:title=" ">
<polygon fill="white" stroke="#666666" points="613.75,-126 515.25,-126 515.25,-94 613.75,-94 613.75,-126"/>
<text xml:space="preserve" text-anchor="start" x="523.25" y="-112.5" font-family="Helvetica,sans-Serif" font-size="10.00">Fiea::Engine::RTTI</text>
<text xml:space="preserve" text-anchor="middle" x="564.5" y="-100.5" font-family="Helvetica,sans-Serif" font-size="10.00">::TypeIdInstance</text>
</a>
</g>
</g>
<!-- Node2&#45;&gt;Node5 -->
<g id="edge15_Node000002_Node000005" class="edge">
<title>Node2&#45;&gt;Node5</title>
<g id="a_edge15_Node000002_Node000005"><a xlink:title=" ">
<path fill="none" stroke="#63b8ff" d="M327.05,-126.81C380.91,-122.98 453.34,-117.83 503.78,-114.25"/>
<polygon fill="#63b8ff" stroke="#63b8ff" points="503.91,-117.75 513.64,-113.55 503.42,-110.76 503.91,-117.75"/>
</a>
</g>
</g>
<!-- Node4 -->
<g id="Node000004" class="node">
<title>Node4</title>
<g id="a_Node000004"><a xlink:href="class_fiea_1_1_engine_1_1_content_1_1_attributed.html#ad1ae014235d9d8b62b36066c94164148" target="_top" xlink:title=" ">
<polygon fill="white" stroke="#666666" points="620.5,-194 508.5,-194 508.5,-162 620.5,-162 620.5,-194"/>
<text xml:space="preserve" text-anchor="start" x="516.5" y="-180.5" font-family="Helvetica,sans-Serif" font-size="10.00">Fiea::Engine::Content</text>
<text xml:space="preserve" text-anchor="middle" x="564.5" y="-168.5" font-family="Helvetica,sans-Serif" font-size="10.00">::Attributed::Attributed</text>
</a>
</g>
</g>
<!-- Node3&#45;&gt;Node4 -->
<g id="edge3_Node000003_Node000004" class="edge">
<title>Node3&#45;&gt;Node4</title>
<g id="a_edge3_Node000003_Node000004"><a xlink:title=" ">
<path fill="none" stroke="#63b8ff" d="M472.98,-163C480.84,-164.31 489,-165.66 497.07,-166.99"/>
<polygon fill="#63b8ff" stroke="#63b8ff" points="496.42,-170.44 506.86,-168.62 497.57,-163.53 496.42,-170.44"/>
</a>
</g>
</g>
<!-- Node3&#45;&gt;Node5 -->
<g id="edge5_Node000003_Node000005" class="edge">
<title>Node3&#45;&gt;Node5</title>
<g id="a_edge5_Node000003_Node000005"><a xlink:title=" ">
<path fill="none" stroke="#63b8ff" d="M472.57,-137.62C482.84,-134.5 493.64,-131.22 504.07,-128.05"/>
<polygon fill="#63b8ff" stroke="#63b8ff" points="504.77,-131.5 513.32,-125.24 502.73,-124.8 504.77,-131.5"/>
</a>
</g>
</g>
<!-- Node4&#45;&gt;Node4 -->
<g id="edge4_Node000004_Node000004" class="edge">
<title>Node4&#45;&gt;Node4</title>
<g id="a_edge4_Node000004_Node000004"><a xlink:title=" ">
<path fill="none" stroke="#63b8ff" d="M538.28,-194.44C533.38,-203.58 542.12,-212 564.5,-212 576.74,-212 584.9,-209.48 588.98,-205.71"/>
<polygon fill="#63b8ff" stroke="#63b8ff" points="592.42,-206.36 590.49,-195.94 585.5,-205.28 592.42,-206.36"/>
</a>
</g>
</g>
<!-- Node5&#45;&gt;Node5 -->
<g id="edge14_Node000005_Node000005" class="edge">
<title>Node5&#45;&gt;Node5</title>
<g id="a_edge14_Node000005_Node000005"><a xlink:title=" ">
<path fill="none" stroke="#63b8ff" d="M538.28,-126.44C533.38,-135.58 542.12,-144 564.5,-144 576.74,-144 584.9,-141.48 588.98,-137.71"/>
<polygon fill="#63b8ff" stroke="#63b8ff" points="592.42,-138.36 590.49,-127.94 585.5,-137.28 592.42,-138.36"/>
</a>
</g>
</g>
<!-- Node6 -->
<g id="Node000006" class="node">
<title>Node6</title>
<g id="a_Node000006"><a xlink:href="class_fiea_1_1_engine_1_1_r_t_t_i.html#a15bd5993c8ad04da47af440298ebbb30" target="_top" xlink:title=" ">
<polygon fill="white" stroke="#666666" points="773,-158 656.5,-158 656.5,-138 773,-138 773,-158"/>
<text xml:space="preserve" text-anchor="middle" x="714.75" y="-144.5" font-family="Helvetica,sans-Serif" font-size="10.00">Fiea::Engine::RTTI::As</text>
</a>
</g>
</g>
<!-- Node5&#45;&gt;Node6 -->
<g id="edge6_Node000005_Node000006" class="edge">
<title>Node5&#45;&gt;Node6</title>
<g id="a_edge6_Node000005_Node000006"><a xlink:title=" ">
<path fill="none" stroke="#63b8ff" d="M614.04,-122.44C629.4,-126.38 646.43,-130.74 662,-134.74"/>
<polygon fill="#63b8ff" stroke="#63b8ff" points="661.02,-138.1 671.57,-137.19 662.75,-131.32 661.02,-138.1"/>
</a>
</g>
</g>
<!-- Node7 -->
<g id="Node000007" class="node">
<title>Node7</title>
<g id="a_Node000007"><a xlink:href="class_fiea_1_1_engine_1_1_r_t_t_i.html#ac0a7d875e4513b2aca7594abcd4418ef" target="_top" xlink:title=" ">
<polygon fill="white" stroke="#666666" points="921.75,-180 809,-180 809,-160 921.75,-160 921.75,-180"/>
<text xml:space="preserve" text-anchor="middle" x="865.38" y="-166.5" font-family="Helvetica,sans-Serif" font-size="10.00">Fiea::Engine::RTTI::Is</text>
</a>
</g>
</g>
<!-- Node5&#45;&gt;Node7 -->
<g id="edge11_Node000005_Node000007" class="edge">
<title>Node5&#45;&gt;Node7</title>
<g id="a_edge11_Node000005_Node000007"><a xlink:title=" ">
<path fill="none" stroke="#63b8ff" d="M584.55,-126.34C601.98,-140.14 629.14,-158.93 656.5,-167 702.22,-180.5 756.1,-180.86 797.55,-178.06"/>
<polygon fill="#63b8ff" stroke="#63b8ff" points="797.68,-181.56 807.38,-177.31 797.14,-174.58 797.68,-181.56"/>
</a>
</g>
</g>
<!-- Node8 -->
<g id="Node000008" class="node">
<title>Node8</title>
<g id="a_Node000008"><a xlink:href="class_fiea_1_1_engine_1_1_r_t_t_i.html#a13000029a2e6cced30b831e466e07cae" target="_top" xlink:title=" ">
<polygon fill="white" stroke="#666666" points="914.62,-126 816.12,-126 816.12,-94 914.62,-94 914.62,-126"/>
<text xml:space="preserve" text-anchor="start" x="824.12" y="-112.5" font-family="Helvetica,sans-Serif" font-size="10.00">Fiea::Engine::RTTI</text>
<text xml:space="preserve" text-anchor="middle" x="865.38" y="-100.5" font-family="Helvetica,sans-Serif" font-size="10.00">::RTTI</text>
</a>
</g>
</g>
<!-- Node5&#45;&gt;Node8 -->
<g id="edge12_Node000005_Node000008" class="edge">
<title>Node5&#45;&gt;Node8</title>
<g id="a_edge12_Node000005_Node000008"><a xlink:title=" ">
<path fill="none" stroke="#63b8ff" d="M614.18,-110C666.07,-110 748.29,-110 804.2,-110"/>
<polygon fill="#63b8ff" stroke="#63b8ff" points="804.2,-113.5 814.2,-110 804.2,-106.5 804.2,-113.5"/>
</a>
</g>
</g>
<!-- Node9 -->
<g id="Node000009" class="node">
<title>Node9</title>
<g id="a_Node000009"><a xlink:href="class_fiea_1_1_engine_1_1_r_t_t_i.html#a7f70ad5ba0f8a3388543d63d72892575" target="_top" xlink:title=" ">
<polygon fill="white" stroke="#666666" points="764,-82 665.5,-82 665.5,-50 764,-50 764,-82"/>
<text xml:space="preserve" text-anchor="start" x="673.5" y="-68.5" font-family="Helvetica,sans-Serif" font-size="10.00">Fiea::Engine::RTTI</text>
<text xml:space="preserve" text-anchor="middle" x="714.75" y="-56.5" font-family="Helvetica,sans-Serif" font-size="10.00">::Equals</text>
</a>
</g>
</g>
<!-- Node5&#45;&gt;Node9 -->
<g id="edge9_Node000005_Node000009" class="edge">
<title>Node5&#45;&gt;Node9</title>
<g id="a_edge9_Node000005_Node000009"><a xlink:title=" ">
<path fill="none" stroke="#63b8ff" d="M614.04,-95.59C626.84,-91.79 640.8,-87.65 654.11,-83.7"/>
<polygon fill="#63b8ff" stroke="#63b8ff" points="655.06,-87.07 663.65,-80.87 653.06,-80.36 655.06,-87.07"/>
</a>
</g>
</g>
<!-- Node10 -->
<g id="Node000010" class="node">
<title>Node10</title>
<g id="a_Node000010"><a xlink:href="class_fiea_1_1_engine_1_1_r_t_t_i.html#a43a7d187e332a17d2c699bc2c8136a30" target="_top" xlink:title=" ">
<polygon fill="white" stroke="#666666" points="764,-32 665.5,-32 665.5,0 764,0 764,-32"/>
<text xml:space="preserve" text-anchor="start" x="673.5" y="-18.5" font-family="Helvetica,sans-Serif" font-size="10.00">Fiea::Engine::RTTI</text>
<text xml:space="preserve" text-anchor="middle" x="714.75" y="-6.5" font-family="Helvetica,sans-Serif" font-size="10.00">::ToString</text>
</a>
</g>
</g>
<!-- Node5&#45;&gt;Node10 -->
<g id="edge13_Node000005_Node000010" class="edge">
<title>Node5&#45;&gt;Node10</title>
<g id="a_edge13_Node000005_Node000010"><a xlink:title=" ">
<path fill="none" stroke="#63b8ff" d="M584.44,-93.51C602.22,-78.56 629.99,-56.54 656.5,-41 658.51,-39.82 660.59,-38.66 662.7,-37.53"/>
<polygon fill="#63b8ff" stroke="#63b8ff" points="664.09,-40.75 671.46,-33.13 660.95,-34.5 664.09,-40.75"/>
</a>
</g>
</g>
<!-- Node6&#45;&gt;Node7 -->
<g id="edge7_Node000006_Node000007" class="edge">
<title>Node6&#45;&gt;Node7</title>
<g id="a_edge7_Node000006_Node000007"><a xlink:title=" ">
<path fill="none" stroke="#63b8ff" d="M773.21,-156.51C781.1,-157.67 789.25,-158.88 797.28,-160.07"/>
<polygon fill="#63b8ff" stroke="#63b8ff" points="796.63,-163.51 807.03,-161.51 797.66,-156.59 796.63,-163.51"/>
</a>
</g>
</g>
<!-- Node6&#45;&gt;Node8 -->
<g id="edge8_Node000006_Node000008" class="edge">
<title>Node6&#45;&gt;Node8</title>
<g id="a_edge8_Node000006_Node000008"><a xlink:title=" ">
<path fill="none" stroke="#63b8ff" d="M756.76,-137.52C771.63,-133.71 788.74,-129.34 804.88,-125.21"/>
<polygon fill="#63b8ff" stroke="#63b8ff" points="805.57,-128.65 814.39,-122.78 803.84,-121.87 805.57,-128.65"/>
</a>
</g>
</g>
<!-- Node9&#45;&gt;Node8 -->
<g id="edge10_Node000009_Node000008" class="edge">
<title>Node9&#45;&gt;Node8</title>
<g id="a_edge10_Node000009_Node000008"><a xlink:title=" ">
<path fill="none" stroke="#63b8ff" d="M764.42,-80.41C777.44,-84.26 791.67,-88.47 805.19,-92.48"/>
<polygon fill="#63b8ff" stroke="#63b8ff" points="803.82,-95.72 814.4,-95.21 805.81,-89.01 803.82,-95.72"/>
</a>
</g>
</g>
</g>
</svg>
