<?xml version="1.0" encoding="UTF-8" standalone="no"?>
<!DOCTYPE svg PUBLIC "-//W3C//DTD SVG 1.1//EN"
 "http://www.w3.org/Graphics/SVG/1.1/DTD/svg11.dtd">
<!-- Generated by graphviz version 13.1.0 (20250701.0955)
 -->
<!-- Title: Fiea::Engine::Actions::Action::operator= Pages: 1 -->
<svg width="862pt" height="255pt"
 viewBox="0.00 0.00 862.00 255.00" xmlns="http://www.w3.org/2000/svg" xmlns:xlink="http://www.w3.org/1999/xlink">
<g id="graph0" class="graph" transform="scale(1 1) rotate(0) translate(4 250.7)">
<title>Fiea::Engine::Actions::Action::operator=</title>
<!-- Node1 -->
<g id="Node000001" class="node">
<title>Node1</title>
<g id="a_Node000001"><a xlink:title=" ">
<polygon fill="#999999" stroke="#666666" points="109.75,-97.53 0,-97.53 0,-65.53 109.75,-65.53 109.75,-97.53"/>
<text xml:space="preserve" text-anchor="start" x="8" y="-84.03" font-family="Helvetica,sans-Serif" font-size="10.00">Fiea::Engine::Actions</text>
<text xml:space="preserve" text-anchor="middle" x="54.88" y="-72.03" font-family="Helvetica,sans-Serif" font-size="10.00">::Action::operator=</text>
</a>
</g>
</g>
<!-- Node2 -->
<g id="Node000002" class="node">
<title>Node2</title>
<g id="a_Node000002"><a xlink:href="class_fiea_1_1_engine_1_1_actions_1_1_action.html#ae2af386f7122152003b00da79393e19e" target="_top" xlink:title=" ">
<polygon fill="white" stroke="#666666" points="256.25,-122.53 146.5,-122.53 146.5,-90.53 256.25,-90.53 256.25,-122.53"/>
<text xml:space="preserve" text-anchor="start" x="154.5" y="-109.03" font-family="Helvetica,sans-Serif" font-size="10.00">Fiea::Engine::Actions</text>
<text xml:space="preserve" text-anchor="middle" x="201.38" y="-97.03" font-family="Helvetica,sans-Serif" font-size="10.00">::Action::Action</text>
</a>
</g>
</g>
<!-- Node1&#45;&gt;Node2 -->
<g id="edge1_Node000001_Node000002" class="edge">
<title>Node1&#45;&gt;Node2</title>
<g id="a_edge1_Node000001_Node000002"><a xlink:title=" ">
<path fill="none" stroke="#63b8ff" d="M110.09,-90.91C118.24,-92.32 126.72,-93.79 135.07,-95.23"/>
<polygon fill="#63b8ff" stroke="#63b8ff" points="134.39,-98.67 144.84,-96.92 135.59,-91.77 134.39,-98.67"/>
</a>
</g>
</g>
<!-- Node10 -->
<g id="Node000010" class="node">
<title>Node10</title>
<g id="a_Node000010"><a xlink:href="class_fiea_1_1_engine_1_1_content_1_1_attributed.html#ad00b7ac2fa53d92d617e235da1f83055" target="_top" xlink:title="Copy assignment operator.">
<polygon fill="white" stroke="#666666" points="257,-72.53 145.75,-72.53 145.75,-40.53 257,-40.53 257,-72.53"/>
<text xml:space="preserve" text-anchor="start" x="153.75" y="-59.03" font-family="Helvetica,sans-Serif" font-size="10.00">Fiea::Engine::Content</text>
<text xml:space="preserve" text-anchor="middle" x="201.38" y="-47.03" font-family="Helvetica,sans-Serif" font-size="10.00">::Attributed::operator=</text>
</a>
</g>
</g>
<!-- Node1&#45;&gt;Node10 -->
<g id="edge14_Node000001_Node000010" class="edge">
<title>Node1&#45;&gt;Node10</title>
<g id="a_edge14_Node000001_Node000010"><a xlink:title=" ">
<path fill="none" stroke="#63b8ff" d="M110.09,-72.15C117.93,-70.79 126.07,-69.38 134.11,-67.99"/>
<polygon fill="#63b8ff" stroke="#63b8ff" points="134.62,-71.46 143.88,-66.3 133.43,-64.56 134.62,-71.46"/>
</a>
</g>
</g>
<!-- Node3 -->
<g id="Node000003" class="node">
<title>Node3</title>
<g id="a_Node000003"><a xlink:href="class_fiea_1_1_engine_1_1_content_1_1_attributed.html#ad1ae014235d9d8b62b36066c94164148" target="_top" xlink:title=" ">
<polygon fill="white" stroke="#666666" points="405,-109.53 293,-109.53 293,-77.53 405,-77.53 405,-109.53"/>
<text xml:space="preserve" text-anchor="start" x="301" y="-96.03" font-family="Helvetica,sans-Serif" font-size="10.00">Fiea::Engine::Content</text>
<text xml:space="preserve" text-anchor="middle" x="349" y="-84.03" font-family="Helvetica,sans-Serif" font-size="10.00">::Attributed::Attributed</text>
</a>
</g>
</g>
<!-- Node2&#45;&gt;Node3 -->
<g id="edge2_Node000002_Node000003" class="edge">
<title>Node2&#45;&gt;Node3</title>
<g id="a_edge2_Node000002_Node000003"><a xlink:title=" ">
<path fill="none" stroke="#63b8ff" d="M256.6,-101.69C264.72,-100.96 273.16,-100.21 281.5,-99.47"/>
<polygon fill="#63b8ff" stroke="#63b8ff" points="281.6,-102.97 291.25,-98.6 280.98,-96 281.6,-102.97"/>
</a>
</g>
</g>
<!-- Node4 -->
<g id="Node000004" class="node">
<title>Node4</title>
<g id="a_Node000004"><a xlink:href="class_fiea_1_1_engine_1_1_r_t_t_i.html#a876bebbe7b3149483c43a87f55f4ea99" target="_top" xlink:title=" ">
<polygon fill="white" stroke="#666666" points="398.25,-184.53 299.75,-184.53 299.75,-152.53 398.25,-152.53 398.25,-184.53"/>
<text xml:space="preserve" text-anchor="start" x="307.75" y="-171.03" font-family="Helvetica,sans-Serif" font-size="10.00">Fiea::Engine::RTTI</text>
<text xml:space="preserve" text-anchor="middle" x="349" y="-159.03" font-family="Helvetica,sans-Serif" font-size="10.00">::TypeIdInstance</text>
</a>
</g>
</g>
<!-- Node2&#45;&gt;Node4 -->
<g id="edge4_Node000002_Node000004" class="edge">
<title>Node2&#45;&gt;Node4</title>
<g id="a_edge4_Node000002_Node000004"><a xlink:title=" ">
<path fill="none" stroke="#63b8ff" d="M241.02,-122.98C258.78,-130.54 280.05,-139.6 298.93,-147.64"/>
<polygon fill="#63b8ff" stroke="#63b8ff" points="297.47,-150.82 308.04,-151.51 300.21,-144.38 297.47,-150.82"/>
</a>
</g>
</g>
<!-- Node3&#45;&gt;Node3 -->
<g id="edge3_Node000003_Node000003" class="edge">
<title>Node3&#45;&gt;Node3</title>
<g id="a_edge3_Node000003_Node000003"><a xlink:title=" ">
<path fill="none" stroke="#63b8ff" d="M322.64,-109.97C317.73,-119.11 326.51,-127.53 349,-127.53 361.3,-127.53 369.5,-125.01 373.6,-121.24"/>
<polygon fill="#63b8ff" stroke="#63b8ff" points="377.04,-121.89 375.12,-111.47 370.13,-120.81 377.04,-121.89"/>
</a>
</g>
</g>
<!-- Node4&#45;&gt;Node4 -->
<g id="edge13_Node000004_Node000004" class="edge">
<title>Node4&#45;&gt;Node4</title>
<g id="a_edge13_Node000004_Node000004"><a xlink:title=" ">
<path fill="none" stroke="#63b8ff" d="M322.64,-184.97C317.73,-194.11 326.51,-202.53 349,-202.53 361.3,-202.53 369.5,-200.01 373.6,-196.24"/>
<polygon fill="#63b8ff" stroke="#63b8ff" points="377.04,-196.89 375.12,-186.47 370.13,-195.81 377.04,-196.89"/>
</a>
</g>
</g>
<!-- Node5 -->
<g id="Node000005" class="node">
<title>Node5</title>
<g id="a_Node000005"><a xlink:href="class_fiea_1_1_engine_1_1_r_t_t_i.html#a15bd5993c8ad04da47af440298ebbb30" target="_top" xlink:title=" ">
<polygon fill="white" stroke="#666666" points="557.5,-223.53 441,-223.53 441,-203.53 557.5,-203.53 557.5,-223.53"/>
<text xml:space="preserve" text-anchor="middle" x="499.25" y="-210.03" font-family="Helvetica,sans-Serif" font-size="10.00">Fiea::Engine::RTTI::As</text>
</a>
</g>
</g>
<!-- Node4&#45;&gt;Node5 -->
<g id="edge5_Node000004_Node000005" class="edge">
<title>Node4&#45;&gt;Node5</title>
<g id="a_edge5_Node000004_Node000005"><a xlink:title=" ">
<path fill="none" stroke="#63b8ff" d="M398.54,-183.26C416,-188.56 435.61,-194.52 452.8,-199.73"/>
<polygon fill="#63b8ff" stroke="#63b8ff" points="451.66,-203.04 462.24,-202.6 453.69,-196.35 451.66,-203.04"/>
</a>
</g>
</g>
<!-- Node6 -->
<g id="Node000006" class="node">
<title>Node6</title>
<g id="a_Node000006"><a xlink:href="class_fiea_1_1_engine_1_1_r_t_t_i.html#ac0a7d875e4513b2aca7594abcd4418ef" target="_top" xlink:title=" ">
<polygon fill="white" stroke="#666666" points="706.25,-245.53 593.5,-245.53 593.5,-225.53 706.25,-225.53 706.25,-245.53"/>
<text xml:space="preserve" text-anchor="middle" x="649.88" y="-232.03" font-family="Helvetica,sans-Serif" font-size="10.00">Fiea::Engine::RTTI::Is</text>
</a>
</g>
</g>
<!-- Node4&#45;&gt;Node6 -->
<g id="edge10_Node000004_Node000006" class="edge">
<title>Node4&#45;&gt;Node6</title>
<g id="a_edge10_Node000004_Node000006"><a xlink:title=" ">
<path fill="none" stroke="#63b8ff" d="M366.39,-184.76C383.41,-200.38 411.6,-222.99 441,-232.53 486.35,-247.24 540.24,-247.57 581.78,-244.44"/>
<polygon fill="#63b8ff" stroke="#63b8ff" points="581.98,-247.94 591.65,-243.6 581.39,-240.96 581.98,-247.94"/>
</a>
</g>
</g>
<!-- Node7 -->
<g id="Node000007" class="node">
<title>Node7</title>
<g id="a_Node000007"><a xlink:href="class_fiea_1_1_engine_1_1_r_t_t_i.html#a13000029a2e6cced30b831e466e07cae" target="_top" xlink:title=" ">
<polygon fill="white" stroke="#666666" points="699.12,-191.53 600.62,-191.53 600.62,-159.53 699.12,-159.53 699.12,-191.53"/>
<text xml:space="preserve" text-anchor="start" x="608.62" y="-178.03" font-family="Helvetica,sans-Serif" font-size="10.00">Fiea::Engine::RTTI</text>
<text xml:space="preserve" text-anchor="middle" x="649.88" y="-166.03" font-family="Helvetica,sans-Serif" font-size="10.00">::RTTI</text>
</a>
</g>
</g>
<!-- Node4&#45;&gt;Node7 -->
<g id="edge11_Node000004_Node000007" class="edge">
<title>Node4&#45;&gt;Node7</title>
<g id="a_edge11_Node000004_Node000007"><a xlink:title=" ">
<path fill="none" stroke="#63b8ff" d="M398.68,-169.67C450.68,-170.89 533.14,-172.82 589.05,-174.13"/>
<polygon fill="#63b8ff" stroke="#63b8ff" points="588.62,-177.62 598.7,-174.35 588.78,-170.62 588.62,-177.62"/>
</a>
</g>
</g>
<!-- Node8 -->
<g id="Node000008" class="node">
<title>Node8</title>
<g id="a_Node000008"><a xlink:href="class_fiea_1_1_engine_1_1_r_t_t_i.html#a7f70ad5ba0f8a3388543d63d72892575" target="_top" xlink:title=" ">
<polygon fill="white" stroke="#666666" points="548.5,-147.53 450,-147.53 450,-115.53 548.5,-115.53 548.5,-147.53"/>
<text xml:space="preserve" text-anchor="start" x="458" y="-134.03" font-family="Helvetica,sans-Serif" font-size="10.00">Fiea::Engine::RTTI</text>
<text xml:space="preserve" text-anchor="middle" x="499.25" y="-122.03" font-family="Helvetica,sans-Serif" font-size="10.00">::Equals</text>
</a>
</g>
</g>
<!-- Node4&#45;&gt;Node8 -->
<g id="edge8_Node000004_Node000008" class="edge">
<title>Node4&#45;&gt;Node8</title>
<g id="a_edge8_Node000004_Node000008"><a xlink:title=" ">
<path fill="none" stroke="#63b8ff" d="M398.54,-156.41C411.34,-153.22 425.3,-149.74 438.61,-146.41"/>
<polygon fill="#63b8ff" stroke="#63b8ff" points="439.28,-149.86 448.13,-144.04 437.58,-143.06 439.28,-149.86"/>
</a>
</g>
</g>
<!-- Node9 -->
<g id="Node000009" class="node">
<title>Node9</title>
<g id="a_Node000009"><a xlink:href="class_fiea_1_1_engine_1_1_r_t_t_i.html#a43a7d187e332a17d2c699bc2c8136a30" target="_top" xlink:title=" ">
<polygon fill="white" stroke="#666666" points="548.5,-97.53 450,-97.53 450,-65.53 548.5,-65.53 548.5,-97.53"/>
<text xml:space="preserve" text-anchor="start" x="458" y="-84.03" font-family="Helvetica,sans-Serif" font-size="10.00">Fiea::Engine::RTTI</text>
<text xml:space="preserve" text-anchor="middle" x="499.25" y="-72.03" font-family="Helvetica,sans-Serif" font-size="10.00">::ToString</text>
</a>
</g>
</g>
<!-- Node4&#45;&gt;Node9 -->
<g id="edge12_Node000004_Node000009" class="edge">
<title>Node4&#45;&gt;Node9</title>
<g id="a_edge12_Node000004_Node000009"><a xlink:title=" ">
<path fill="none" stroke="#63b8ff" d="M380.25,-152.15C388.46,-147.38 397.22,-141.98 405,-136.53 422.06,-124.58 423.28,-117.47 441,-106.53 442.87,-105.38 444.8,-104.25 446.77,-103.15"/>
<polygon fill="#63b8ff" stroke="#63b8ff" points="448.26,-106.32 455.53,-98.61 445.04,-100.1 448.26,-106.32"/>
</a>
</g>
</g>
<!-- Node5&#45;&gt;Node6 -->
<g id="edge6_Node000005_Node000006" class="edge">
<title>Node5&#45;&gt;Node6</title>
<g id="a_edge6_Node000005_Node000006"><a xlink:title=" ">
<path fill="none" stroke="#63b8ff" d="M557.71,-222.03C565.6,-223.2 573.75,-224.41 581.78,-225.6"/>
<polygon fill="#63b8ff" stroke="#63b8ff" points="581.13,-229.04 591.53,-227.04 582.16,-222.11 581.13,-229.04"/>
</a>
</g>
</g>
<!-- Node5&#45;&gt;Node7 -->
<g id="edge7_Node000005_Node000007" class="edge">
<title>Node5&#45;&gt;Node7</title>
<g id="a_edge7_Node000005_Node000007"><a xlink:title=" ">
<path fill="none" stroke="#63b8ff" d="M541.26,-203.04C556.13,-199.24 573.24,-194.87 589.38,-190.74"/>
<polygon fill="#63b8ff" stroke="#63b8ff" points="590.07,-194.18 598.89,-188.31 588.34,-187.39 590.07,-194.18"/>
</a>
</g>
</g>
<!-- Node8&#45;&gt;Node7 -->
<g id="edge9_Node000008_Node000007" class="edge">
<title>Node8&#45;&gt;Node7</title>
<g id="a_edge9_Node000008_Node000007"><a xlink:title=" ">
<path fill="none" stroke="#63b8ff" d="M548.92,-145.94C561.94,-149.79 576.17,-154 589.69,-158.01"/>
<polygon fill="#63b8ff" stroke="#63b8ff" points="588.32,-161.25 598.9,-160.73 590.31,-154.54 588.32,-161.25"/>
</a>
</g>
</g>
<!-- Node10&#45;&gt;Node3 -->
<g id="edge15_Node000010_Node000003" class="edge">
<title>Node10&#45;&gt;Node3</title>
<g id="a_edge15_Node000010_Node000003"><a xlink:title=" ">
<path fill="none" stroke="#63b8ff" d="M257.43,-70.52C265.4,-72.54 273.68,-74.65 281.84,-76.72"/>
<polygon fill="#63b8ff" stroke="#63b8ff" points="280.85,-80.08 291.4,-79.15 282.57,-73.29 280.85,-80.08"/>
</a>
</g>
</g>
<!-- Node11 -->
<g id="Node000011" class="node">
<title>Node11</title>
<g id="a_Node000011"><a xlink:href="class_fiea_1_1_engine_1_1_content_1_1_scope.html#abb1ebfa662badfce689226c18a8bf02c" target="_top" xlink:title="Copy assignment operator.">
<polygon fill="white" stroke="#666666" points="404.62,-47.53 293.38,-47.53 293.38,-15.53 404.62,-15.53 404.62,-47.53"/>
<text xml:space="preserve" text-anchor="start" x="301.38" y="-34.03" font-family="Helvetica,sans-Serif" font-size="10.00">Fiea::Engine::Content</text>
<text xml:space="preserve" text-anchor="middle" x="349" y="-22.03" font-family="Helvetica,sans-Serif" font-size="10.00">::Scope::operator=</text>
</a>
</g>
</g>
<!-- Node10&#45;&gt;Node11 -->
<g id="edge16_Node000010_Node000011" class="edge">
<title>Node10&#45;&gt;Node11</title>
<g id="a_edge16_Node000010_Node000011"><a xlink:title=" ">
<path fill="none" stroke="#63b8ff" d="M257.43,-47.08C265.51,-45.69 273.91,-44.25 282.18,-42.83"/>
<polygon fill="#63b8ff" stroke="#63b8ff" points="282.6,-46.31 291.86,-41.17 281.41,-39.41 282.6,-46.31"/>
</a>
</g>
</g>
<!-- Node12 -->
<g id="Node000012" class="node">
<title>Node12</title>
<g id="a_Node000012"><a xlink:href="class_fiea_1_1_engine_1_1_content_1_1_scope.html#a9d741d7fb95ccb49ee35dd6d9f779f1e" target="_top" xlink:title="Clears all data in the Scope.">
<polygon fill="white" stroke="#666666" points="554.88,-47.53 443.62,-47.53 443.62,-15.53 554.88,-15.53 554.88,-47.53"/>
<text xml:space="preserve" text-anchor="start" x="451.62" y="-34.03" font-family="Helvetica,sans-Serif" font-size="10.00">Fiea::Engine::Content</text>
<text xml:space="preserve" text-anchor="middle" x="499.25" y="-22.03" font-family="Helvetica,sans-Serif" font-size="10.00">::Scope::Clear</text>
</a>
</g>
</g>
<!-- Node11&#45;&gt;Node12 -->
<g id="edge17_Node000011_Node000012" class="edge">
<title>Node11&#45;&gt;Node12</title>
<g id="a_edge17_Node000011_Node000012"><a xlink:title=" ">
<path fill="none" stroke="#63b8ff" d="M404.78,-31.53C413.6,-31.53 422.8,-31.53 431.86,-31.53"/>
<polygon fill="#63b8ff" stroke="#63b8ff" points="431.69,-35.03 441.69,-31.53 431.69,-28.03 431.69,-35.03"/>
</a>
</g>
</g>
<!-- Node14 -->
<g id="Node000014" class="node">
<title>Node14</title>
<g id="a_Node000014"><a xlink:href="class_fiea_1_1_engine_1_1_content_1_1_scope.html#a6631343c968c233ab1d9c3e05c3f4fe9" target="_top" xlink:title=" ">
<polygon fill="white" stroke="#666666" points="853.5,-41.53 742.25,-41.53 742.25,-9.53 853.5,-9.53 853.5,-41.53"/>
<text xml:space="preserve" text-anchor="start" x="750.25" y="-28.03" font-family="Helvetica,sans-Serif" font-size="10.00">Fiea::Engine::Content</text>
<text xml:space="preserve" text-anchor="middle" x="797.88" y="-16.03" font-family="Helvetica,sans-Serif" font-size="10.00">::Scope::Scope</text>
</a>
</g>
</g>
<!-- Node11&#45;&gt;Node14 -->
<g id="edge22_Node000011_Node000014" class="edge">
<title>Node11&#45;&gt;Node14</title>
<g id="a_edge22_Node000011_Node000014"><a xlink:title=" ">
<path fill="none" stroke="#63b8ff" d="M400.52,-15.07C413.56,-11.53 427.69,-8.32 441,-6.53 541.55,7.03 659.3,-4.58 730.96,-14.67"/>
<polygon fill="#63b8ff" stroke="#63b8ff" points="730.16,-18.09 740.56,-16.06 731.16,-11.17 730.16,-18.09"/>
</a>
</g>
</g>
<!-- Node13 -->
<g id="Node000013" class="node">
<title>Node13</title>
<g id="a_Node000013"><a xlink:href="class_fiea_1_1_engine_1_1_content_1_1_scope.html#ac4627f740867a929957ce0647f436e02" target="_top" xlink:title=" ">
<polygon fill="white" stroke="#666666" points="705.5,-85.53 594.25,-85.53 594.25,-53.53 705.5,-53.53 705.5,-85.53"/>
<text xml:space="preserve" text-anchor="start" x="602.25" y="-72.03" font-family="Helvetica,sans-Serif" font-size="10.00">Fiea::Engine::Content</text>
<text xml:space="preserve" text-anchor="middle" x="649.88" y="-60.03" font-family="Helvetica,sans-Serif" font-size="10.00">::Scope::GetParent</text>
</a>
</g>
</g>
<!-- Node12&#45;&gt;Node13 -->
<g id="edge18_Node000012_Node000013" class="edge">
<title>Node12&#45;&gt;Node13</title>
<g id="a_edge18_Node000012_Node000013"><a xlink:title=" ">
<path fill="none" stroke="#63b8ff" d="M555.17,-45.57C564.32,-47.91 573.9,-50.36 583.28,-52.76"/>
<polygon fill="#63b8ff" stroke="#63b8ff" points="582.16,-56.08 592.71,-55.17 583.89,-49.3 582.16,-56.08"/>
</a>
</g>
</g>
<!-- Node12&#45;&gt;Node14 -->
<g id="edge21_Node000012_Node000014" class="edge">
<title>Node12&#45;&gt;Node14</title>
<g id="a_edge21_Node000012_Node000014"><a xlink:title=" ">
<path fill="none" stroke="#63b8ff" d="M555.35,-30.41C604.91,-29.41 677.82,-27.94 730.56,-26.87"/>
<polygon fill="#63b8ff" stroke="#63b8ff" points="730.38,-30.37 740.31,-26.67 730.24,-23.38 730.38,-30.37"/>
</a>
</g>
</g>
<!-- Node13&#45;&gt;Node14 -->
<g id="edge19_Node000013_Node000014" class="edge">
<title>Node13&#45;&gt;Node14</title>
<g id="a_edge19_Node000013_Node000014"><a xlink:title=" ">
<path fill="none" stroke="#63b8ff" d="M705.24,-53.15C713.79,-50.57 722.71,-47.88 731.48,-45.24"/>
<polygon fill="#63b8ff" stroke="#63b8ff" points="732.45,-48.6 741.02,-42.36 730.43,-41.9 732.45,-48.6"/>
</a>
</g>
</g>
<!-- Node14&#45;&gt;Node14 -->
<g id="edge20_Node000014_Node000014" class="edge">
<title>Node14&#45;&gt;Node14</title>
<g id="a_edge20_Node000014_Node000014"><a xlink:title=" ">
<path fill="none" stroke="#63b8ff" d="M771.45,-41.97C766.52,-51.11 775.33,-59.53 797.88,-59.53 810.21,-59.53 818.43,-57.01 822.54,-53.24"/>
<polygon fill="#63b8ff" stroke="#63b8ff" points="825.98,-53.89 824.06,-43.47 819.06,-52.81 825.98,-53.89"/>
</a>
</g>
</g>
</g>
</svg>
