<?xml version="1.0" encoding="UTF-8" standalone="no"?>
<!DOCTYPE svg PUBLIC "-//W3C//DTD SVG 1.1//EN"
 "http://www.w3.org/Graphics/SVG/1.1/DTD/svg11.dtd">
<!-- Generated by graphviz version 13.1.0 (20250701.0955)
 -->
<!-- Title: Fiea::Engine::Actions::ActionConditionalIncrement::operator= Pages: 1 -->
<svg width="923pt" height="220pt"
 viewBox="0.00 0.00 923.00 220.00" xmlns="http://www.w3.org/2000/svg" xmlns:xlink="http://www.w3.org/1999/xlink">
<g id="graph0" class="graph" transform="scale(1 1) rotate(0) translate(4 216)">
<title>Fiea::Engine::Actions::ActionConditionalIncrement::operator=</title>
<!-- Node1 -->
<g id="Node000001" class="node">
<title>Node1</title>
<g id="a_Node000001"><a xlink:title=" ">
<polygon fill="#999999" stroke="#666666" points="142,-154 0,-154 0,-110 142,-110 142,-154"/>
<text xml:space="preserve" text-anchor="start" x="8" y="-140.5" font-family="Helvetica,sans-Serif" font-size="10.00">Fiea::Engine::Actions</text>
<text xml:space="preserve" text-anchor="start" x="8" y="-128.5" font-family="Helvetica,sans-Serif" font-size="10.00">::ActionConditionalIncrement</text>
<text xml:space="preserve" text-anchor="middle" x="71" y="-116.5" font-family="Helvetica,sans-Serif" font-size="10.00">::operator=</text>
</a>
</g>
</g>
<!-- Node2 -->
<g id="Node000002" class="node">
<title>Node2</title>
<g id="a_Node000002"><a xlink:href="class_fiea_1_1_engine_1_1_actions_1_1_action_conditional_increment.html#abebd4f6dd443163399decab19182d771" target="_top" xlink:title=" ">
<polygon fill="white" stroke="#666666" points="320,-154 178,-154 178,-110 320,-110 320,-154"/>
<text xml:space="preserve" text-anchor="start" x="186" y="-140.5" font-family="Helvetica,sans-Serif" font-size="10.00">Fiea::Engine::Actions</text>
<text xml:space="preserve" text-anchor="start" x="186" y="-128.5" font-family="Helvetica,sans-Serif" font-size="10.00">::ActionConditionalIncrement</text>
<text xml:space="preserve" text-anchor="middle" x="249" y="-116.5" font-family="Helvetica,sans-Serif" font-size="10.00">::ActionConditionalIncrement</text>
</a>
</g>
</g>
<!-- Node1&#45;&gt;Node2 -->
<g id="edge1_Node000001_Node000002" class="edge">
<title>Node1&#45;&gt;Node2</title>
<g id="a_edge1_Node000001_Node000002"><a xlink:title=" ">
<path fill="none" stroke="#63b8ff" d="M142.32,-132C150.19,-132 158.26,-132 166.27,-132"/>
<polygon fill="#63b8ff" stroke="#63b8ff" points="165.99,-135.5 175.99,-132 165.99,-128.5 165.99,-135.5"/>
</a>
</g>
</g>
<!-- Node3 -->
<g id="Node000003" class="node">
<title>Node3</title>
<g id="a_Node000003"><a xlink:href="class_fiea_1_1_engine_1_1_actions_1_1_action.html#ae2af386f7122152003b00da79393e19e" target="_top" xlink:title=" ">
<polygon fill="white" stroke="#666666" points="465.75,-170 356,-170 356,-138 465.75,-138 465.75,-170"/>
<text xml:space="preserve" text-anchor="start" x="364" y="-156.5" font-family="Helvetica,sans-Serif" font-size="10.00">Fiea::Engine::Actions</text>
<text xml:space="preserve" text-anchor="middle" x="410.88" y="-144.5" font-family="Helvetica,sans-Serif" font-size="10.00">::Action::Action</text>
</a>
</g>
</g>
<!-- Node2&#45;&gt;Node3 -->
<g id="edge2_Node000002_Node000003" class="edge">
<title>Node2&#45;&gt;Node3</title>
<g id="a_edge2_Node000002_Node000003"><a xlink:title=" ">
<path fill="none" stroke="#63b8ff" d="M320.12,-141.65C328.22,-142.76 336.46,-143.9 344.49,-145"/>
<polygon fill="#63b8ff" stroke="#63b8ff" points="343.79,-148.44 354.17,-146.33 344.74,-141.5 343.79,-148.44"/>
</a>
</g>
</g>
<!-- Node5 -->
<g id="Node000005" class="node">
<title>Node5</title>
<g id="a_Node000005"><a xlink:href="class_fiea_1_1_engine_1_1_r_t_t_i.html#a876bebbe7b3149483c43a87f55f4ea99" target="_top" xlink:title=" ">
<polygon fill="white" stroke="#666666" points="607,-126 508.5,-126 508.5,-94 607,-94 607,-126"/>
<text xml:space="preserve" text-anchor="start" x="516.5" y="-112.5" font-family="Helvetica,sans-Serif" font-size="10.00">Fiea::Engine::RTTI</text>
<text xml:space="preserve" text-anchor="middle" x="557.75" y="-100.5" font-family="Helvetica,sans-Serif" font-size="10.00">::TypeIdInstance</text>
</a>
</g>
</g>
<!-- Node2&#45;&gt;Node5 -->
<g id="edge15_Node000002_Node000005" class="edge">
<title>Node2&#45;&gt;Node5</title>
<g id="a_edge15_Node000002_Node000005"><a xlink:title=" ">
<path fill="none" stroke="#63b8ff" d="M320.37,-126.95C373.71,-123.13 446.2,-117.93 496.79,-114.3"/>
<polygon fill="#63b8ff" stroke="#63b8ff" points="496.96,-117.8 506.68,-113.59 496.46,-110.82 496.96,-117.8"/>
</a>
</g>
</g>
<!-- Node4 -->
<g id="Node000004" class="node">
<title>Node4</title>
<g id="a_Node000004"><a xlink:href="class_fiea_1_1_engine_1_1_content_1_1_attributed.html#ad1ae014235d9d8b62b36066c94164148" target="_top" xlink:title=" ">
<polygon fill="white" stroke="#666666" points="613.75,-194 501.75,-194 501.75,-162 613.75,-162 613.75,-194"/>
<text xml:space="preserve" text-anchor="start" x="509.75" y="-180.5" font-family="Helvetica,sans-Serif" font-size="10.00">Fiea::Engine::Content</text>
<text xml:space="preserve" text-anchor="middle" x="557.75" y="-168.5" font-family="Helvetica,sans-Serif" font-size="10.00">::Attributed::Attributed</text>
</a>
</g>
</g>
<!-- Node3&#45;&gt;Node4 -->
<g id="edge3_Node000003_Node000004" class="edge">
<title>Node3&#45;&gt;Node4</title>
<g id="a_edge3_Node000003_Node000004"><a xlink:title=" ">
<path fill="none" stroke="#63b8ff" d="M466.23,-163C474.09,-164.31 482.25,-165.66 490.32,-166.99"/>
<polygon fill="#63b8ff" stroke="#63b8ff" points="489.67,-170.44 500.11,-168.62 490.82,-163.53 489.67,-170.44"/>
</a>
</g>
</g>
<!-- Node3&#45;&gt;Node5 -->
<g id="edge5_Node000003_Node000005" class="edge">
<title>Node3&#45;&gt;Node5</title>
<g id="a_edge5_Node000003_Node000005"><a xlink:title=" ">
<path fill="none" stroke="#63b8ff" d="M465.82,-137.62C476.09,-134.5 486.89,-131.22 497.32,-128.05"/>
<polygon fill="#63b8ff" stroke="#63b8ff" points="498.02,-131.5 506.57,-125.24 495.98,-124.8 498.02,-131.5"/>
</a>
</g>
</g>
<!-- Node4&#45;&gt;Node4 -->
<g id="edge4_Node000004_Node000004" class="edge">
<title>Node4&#45;&gt;Node4</title>
<g id="a_edge4_Node000004_Node000004"><a xlink:title=" ">
<path fill="none" stroke="#63b8ff" d="M531.53,-194.44C526.63,-203.58 535.37,-212 557.75,-212 569.99,-212 578.15,-209.48 582.23,-205.71"/>
<polygon fill="#63b8ff" stroke="#63b8ff" points="585.67,-206.36 583.74,-195.94 578.75,-205.28 585.67,-206.36"/>
</a>
</g>
</g>
<!-- Node5&#45;&gt;Node5 -->
<g id="edge14_Node000005_Node000005" class="edge">
<title>Node5&#45;&gt;Node5</title>
<g id="a_edge14_Node000005_Node000005"><a xlink:title=" ">
<path fill="none" stroke="#63b8ff" d="M531.53,-126.44C526.63,-135.58 535.37,-144 557.75,-144 569.99,-144 578.15,-141.48 582.23,-137.71"/>
<polygon fill="#63b8ff" stroke="#63b8ff" points="585.67,-138.36 583.74,-127.94 578.75,-137.28 585.67,-138.36"/>
</a>
</g>
</g>
<!-- Node6 -->
<g id="Node000006" class="node">
<title>Node6</title>
<g id="a_Node000006"><a xlink:href="class_fiea_1_1_engine_1_1_r_t_t_i.html#a15bd5993c8ad04da47af440298ebbb30" target="_top" xlink:title=" ">
<polygon fill="white" stroke="#666666" points="766.25,-158 649.75,-158 649.75,-138 766.25,-138 766.25,-158"/>
<text xml:space="preserve" text-anchor="middle" x="708" y="-144.5" font-family="Helvetica,sans-Serif" font-size="10.00">Fiea::Engine::RTTI::As</text>
</a>
</g>
</g>
<!-- Node5&#45;&gt;Node6 -->
<g id="edge6_Node000005_Node000006" class="edge">
<title>Node5&#45;&gt;Node6</title>
<g id="a_edge6_Node000005_Node000006"><a xlink:title=" ">
<path fill="none" stroke="#63b8ff" d="M607.29,-122.44C622.65,-126.38 639.68,-130.74 655.25,-134.74"/>
<polygon fill="#63b8ff" stroke="#63b8ff" points="654.27,-138.1 664.82,-137.19 656,-131.32 654.27,-138.1"/>
</a>
</g>
</g>
<!-- Node7 -->
<g id="Node000007" class="node">
<title>Node7</title>
<g id="a_Node000007"><a xlink:href="class_fiea_1_1_engine_1_1_r_t_t_i.html#ac0a7d875e4513b2aca7594abcd4418ef" target="_top" xlink:title=" ">
<polygon fill="white" stroke="#666666" points="915,-180 802.25,-180 802.25,-160 915,-160 915,-180"/>
<text xml:space="preserve" text-anchor="middle" x="858.62" y="-166.5" font-family="Helvetica,sans-Serif" font-size="10.00">Fiea::Engine::RTTI::Is</text>
</a>
</g>
</g>
<!-- Node5&#45;&gt;Node7 -->
<g id="edge11_Node000005_Node000007" class="edge">
<title>Node5&#45;&gt;Node7</title>
<g id="a_edge11_Node000005_Node000007"><a xlink:title=" ">
<path fill="none" stroke="#63b8ff" d="M577.8,-126.34C595.23,-140.14 622.39,-158.93 649.75,-167 695.47,-180.5 749.35,-180.86 790.8,-178.06"/>
<polygon fill="#63b8ff" stroke="#63b8ff" points="790.93,-181.56 800.63,-177.31 790.39,-174.58 790.93,-181.56"/>
</a>
</g>
</g>
<!-- Node8 -->
<g id="Node000008" class="node">
<title>Node8</title>
<g id="a_Node000008"><a xlink:href="class_fiea_1_1_engine_1_1_r_t_t_i.html#a13000029a2e6cced30b831e466e07cae" target="_top" xlink:title=" ">
<polygon fill="white" stroke="#666666" points="907.88,-126 809.38,-126 809.38,-94 907.88,-94 907.88,-126"/>
<text xml:space="preserve" text-anchor="start" x="817.38" y="-112.5" font-family="Helvetica,sans-Serif" font-size="10.00">Fiea::Engine::RTTI</text>
<text xml:space="preserve" text-anchor="middle" x="858.62" y="-100.5" font-family="Helvetica,sans-Serif" font-size="10.00">::RTTI</text>
</a>
</g>
</g>
<!-- Node5&#45;&gt;Node8 -->
<g id="edge12_Node000005_Node000008" class="edge">
<title>Node5&#45;&gt;Node8</title>
<g id="a_edge12_Node000005_Node000008"><a xlink:title=" ">
<path fill="none" stroke="#63b8ff" d="M607.43,-110C659.32,-110 741.54,-110 797.45,-110"/>
<polygon fill="#63b8ff" stroke="#63b8ff" points="797.45,-113.5 807.45,-110 797.45,-106.5 797.45,-113.5"/>
</a>
</g>
</g>
<!-- Node9 -->
<g id="Node000009" class="node">
<title>Node9</title>
<g id="a_Node000009"><a xlink:href="class_fiea_1_1_engine_1_1_r_t_t_i.html#a7f70ad5ba0f8a3388543d63d72892575" target="_top" xlink:title=" ">
<polygon fill="white" stroke="#666666" points="757.25,-82 658.75,-82 658.75,-50 757.25,-50 757.25,-82"/>
<text xml:space="preserve" text-anchor="start" x="666.75" y="-68.5" font-family="Helvetica,sans-Serif" font-size="10.00">Fiea::Engine::RTTI</text>
<text xml:space="preserve" text-anchor="middle" x="708" y="-56.5" font-family="Helvetica,sans-Serif" font-size="10.00">::Equals</text>
</a>
</g>
</g>
<!-- Node5&#45;&gt;Node9 -->
<g id="edge9_Node000005_Node000009" class="edge">
<title>Node5&#45;&gt;Node9</title>
<g id="a_edge9_Node000005_Node000009"><a xlink:title=" ">
<path fill="none" stroke="#63b8ff" d="M607.29,-95.59C620.09,-91.79 634.05,-87.65 647.36,-83.7"/>
<polygon fill="#63b8ff" stroke="#63b8ff" points="648.31,-87.07 656.9,-80.87 646.31,-80.36 648.31,-87.07"/>
</a>
</g>
</g>
<!-- Node10 -->
<g id="Node000010" class="node">
<title>Node10</title>
<g id="a_Node000010"><a xlink:href="class_fiea_1_1_engine_1_1_r_t_t_i.html#a43a7d187e332a17d2c699bc2c8136a30" target="_top" xlink:title=" ">
<polygon fill="white" stroke="#666666" points="757.25,-32 658.75,-32 658.75,0 757.25,0 757.25,-32"/>
<text xml:space="preserve" text-anchor="start" x="666.75" y="-18.5" font-family="Helvetica,sans-Serif" font-size="10.00">Fiea::Engine::RTTI</text>
<text xml:space="preserve" text-anchor="middle" x="708" y="-6.5" font-family="Helvetica,sans-Serif" font-size="10.00">::ToString</text>
</a>
</g>
</g>
<!-- Node5&#45;&gt;Node10 -->
<g id="edge13_Node000005_Node000010" class="edge">
<title>Node5&#45;&gt;Node10</title>
<g id="a_edge13_Node000005_Node000010"><a xlink:title=" ">
<path fill="none" stroke="#63b8ff" d="M577.69,-93.51C595.47,-78.56 623.24,-56.54 649.75,-41 651.76,-39.82 653.84,-38.66 655.95,-37.53"/>
<polygon fill="#63b8ff" stroke="#63b8ff" points="657.34,-40.75 664.71,-33.13 654.2,-34.5 657.34,-40.75"/>
</a>
</g>
</g>
<!-- Node6&#45;&gt;Node7 -->
<g id="edge7_Node000006_Node000007" class="edge">
<title>Node6&#45;&gt;Node7</title>
<g id="a_edge7_Node000006_Node000007"><a xlink:title=" ">
<path fill="none" stroke="#63b8ff" d="M766.46,-156.51C774.35,-157.67 782.5,-158.88 790.53,-160.07"/>
<polygon fill="#63b8ff" stroke="#63b8ff" points="789.88,-163.51 800.28,-161.51 790.91,-156.59 789.88,-163.51"/>
</a>
</g>
</g>
<!-- Node6&#45;&gt;Node8 -->
<g id="edge8_Node000006_Node000008" class="edge">
<title>Node6&#45;&gt;Node8</title>
<g id="a_edge8_Node000006_Node000008"><a xlink:title=" ">
<path fill="none" stroke="#63b8ff" d="M750.01,-137.52C764.88,-133.71 781.99,-129.34 798.13,-125.21"/>
<polygon fill="#63b8ff" stroke="#63b8ff" points="798.82,-128.65 807.64,-122.78 797.09,-121.87 798.82,-128.65"/>
</a>
</g>
</g>
<!-- Node9&#45;&gt;Node8 -->
<g id="edge10_Node000009_Node000008" class="edge">
<title>Node9&#45;&gt;Node8</title>
<g id="a_edge10_Node000009_Node000008"><a xlink:title=" ">
<path fill="none" stroke="#63b8ff" d="M757.67,-80.41C770.69,-84.26 784.92,-88.47 798.44,-92.48"/>
<polygon fill="#63b8ff" stroke="#63b8ff" points="797.07,-95.72 807.65,-95.21 799.06,-89.01 797.07,-95.72"/>
</a>
</g>
</g>
</g>
</svg>
