<?xml version="1.0" encoding="UTF-8" standalone="no"?>
<!DOCTYPE svg PUBLIC "-//W3C//DTD SVG 1.1//EN"
 "http://www.w3.org/Graphics/SVG/1.1/DTD/svg11.dtd">
<!-- Generated by graphviz version 13.1.0 (20250701.0955)
 -->
<!-- Title: Fiea::Engine::Actions::ActionTimed::CleanupAction Pages: 1 -->
<svg width="459pt" height="300pt"
 viewBox="0.00 0.00 459.00 300.00" xmlns="http://www.w3.org/2000/svg" xmlns:xlink="http://www.w3.org/1999/xlink">
<g id="graph0" class="graph" transform="scale(1 1) rotate(0) translate(4 296)">
<title>Fiea::Engine::Actions::ActionTimed::CleanupAction</title>
<!-- Node1 -->
<g id="Node000001" class="node">
<title>Node1</title>
<g id="a_Node000001"><a xlink:title=" ">
<polygon fill="#999999" stroke="#666666" points="146.5,-157 0,-157 0,-125 146.5,-125 146.5,-157"/>
<text xml:space="preserve" text-anchor="start" x="8" y="-143.5" font-family="Helvetica,sans-Serif" font-size="10.00">Fiea::Engine::Actions</text>
<text xml:space="preserve" text-anchor="middle" x="73.25" y="-131.5" font-family="Helvetica,sans-Serif" font-size="10.00">::ActionTimed::CleanupAction</text>
</a>
</g>
</g>
<!-- Node2 -->
<g id="Node000002" class="node">
<title>Node2</title>
<g id="a_Node000002"><a xlink:href="class_fiea_1_1_engine_1_1_r_t_t_i.html#a15bd5993c8ad04da47af440298ebbb30" target="_top" xlink:title=" ">
<polygon fill="white" stroke="#666666" points="300.5,-270 184,-270 184,-250 300.5,-250 300.5,-270"/>
<text xml:space="preserve" text-anchor="middle" x="242.25" y="-256.5" font-family="Helvetica,sans-Serif" font-size="10.00">Fiea::Engine::RTTI::As</text>
</a>
</g>
</g>
<!-- Node1&#45;&gt;Node2 -->
<g id="edge1_Node000001_Node000002" class="edge">
<title>Node1&#45;&gt;Node2</title>
<g id="a_edge1_Node000001_Node000002"><a xlink:title=" ">
<path fill="none" stroke="#63b8ff" d="M87.65,-157.16C106.63,-179.08 143.41,-218.13 182.5,-241 185.1,-242.52 187.84,-243.94 190.65,-245.25"/>
<polygon fill="#63b8ff" stroke="#63b8ff" points="189.08,-248.39 199.66,-249 191.77,-241.93 189.08,-248.39"/>
</a>
</g>
</g>
<!-- Node5 -->
<g id="Node000005" class="node">
<title>Node5</title>
<g id="a_Node000005"><a xlink:href="class_fiea_1_1_engine_1_1_actions_1_1_action.html#aca4c38723b265f3c4e6013bb8916b376" target="_top" xlink:title=" ">
<polygon fill="white" stroke="#666666" points="302,-232 182.5,-232 182.5,-200 302,-200 302,-232"/>
<text xml:space="preserve" text-anchor="start" x="190.5" y="-218.5" font-family="Helvetica,sans-Serif" font-size="10.00">Fiea::Engine::Actions</text>
<text xml:space="preserve" text-anchor="middle" x="242.25" y="-206.5" font-family="Helvetica,sans-Serif" font-size="10.00">::Action::CleanupAction</text>
</a>
</g>
</g>
<!-- Node1&#45;&gt;Node5 -->
<g id="edge4_Node000001_Node000005" class="edge">
<title>Node1&#45;&gt;Node5</title>
<g id="a_edge4_Node000001_Node000005"><a xlink:title=" ">
<path fill="none" stroke="#63b8ff" d="M109.23,-157.48C130.37,-167.36 157.9,-180.09 182.5,-191 185.59,-192.37 188.78,-193.77 192,-195.17"/>
<polygon fill="#63b8ff" stroke="#63b8ff" points="190.35,-198.27 200.92,-199.03 193.13,-191.85 190.35,-198.27"/>
</a>
</g>
</g>
<!-- Node6 -->
<g id="Node000006" class="node">
<title>Node6</title>
<g id="a_Node000006"><a xlink:href="class_fiea_1_1_engine_1_1_content_1_1_datum.html#ab217ba22f80e6d680e6660cb9b21abdc" target="_top" xlink:title=" ">
<polygon fill="white" stroke="#666666" points="297.88,-182 186.62,-182 186.62,-150 297.88,-150 297.88,-182"/>
<text xml:space="preserve" text-anchor="start" x="194.62" y="-168.5" font-family="Helvetica,sans-Serif" font-size="10.00">Fiea::Engine::Content</text>
<text xml:space="preserve" text-anchor="middle" x="242.25" y="-156.5" font-family="Helvetica,sans-Serif" font-size="10.00">::Datum::Clear</text>
</a>
</g>
</g>
<!-- Node1&#45;&gt;Node6 -->
<g id="edge5_Node000001_Node000006" class="edge">
<title>Node1&#45;&gt;Node6</title>
<g id="a_edge5_Node000001_Node000006"><a xlink:title=" ">
<path fill="none" stroke="#63b8ff" d="M146.53,-151.82C155.99,-153.24 165.65,-154.68 175.01,-156.08"/>
<polygon fill="#63b8ff" stroke="#63b8ff" points="174.33,-159.52 184.74,-157.54 175.37,-152.6 174.33,-159.52"/>
</a>
</g>
</g>
<!-- Node7 -->
<g id="Node000007" class="node">
<title>Node7</title>
<g id="a_Node000007"><a xlink:href="class_fiea_1_1_engine_1_1_content_1_1_scope.html#ad924c01785b239991fc0e56a63295612" target="_top" xlink:title="Finds a Datum by key.">
<polygon fill="white" stroke="#666666" points="297.88,-132 186.62,-132 186.62,-100 297.88,-100 297.88,-132"/>
<text xml:space="preserve" text-anchor="start" x="194.62" y="-118.5" font-family="Helvetica,sans-Serif" font-size="10.00">Fiea::Engine::Content</text>
<text xml:space="preserve" text-anchor="middle" x="242.25" y="-106.5" font-family="Helvetica,sans-Serif" font-size="10.00">::Scope::Find</text>
</a>
</g>
</g>
<!-- Node1&#45;&gt;Node7 -->
<g id="edge6_Node000001_Node000007" class="edge">
<title>Node1&#45;&gt;Node7</title>
<g id="a_edge6_Node000001_Node000007"><a xlink:title=" ">
<path fill="none" stroke="#63b8ff" d="M146.53,-130.18C155.99,-128.76 165.65,-127.32 175.01,-125.92"/>
<polygon fill="#63b8ff" stroke="#63b8ff" points="175.37,-129.4 184.74,-124.46 174.33,-122.48 175.37,-129.4"/>
</a>
</g>
</g>
<!-- Node8 -->
<g id="Node000008" class="node">
<title>Node8</title>
<g id="a_Node000008"><a xlink:href="class_fiea_1_1_engine_1_1_content_1_1_datum.html#a7f92976f27f407987cf287a2f7017e04" target="_top" xlink:title=" ">
<polygon fill="white" stroke="#666666" points="297.88,-82 186.62,-82 186.62,-50 297.88,-50 297.88,-82"/>
<text xml:space="preserve" text-anchor="start" x="194.62" y="-68.5" font-family="Helvetica,sans-Serif" font-size="10.00">Fiea::Engine::Content</text>
<text xml:space="preserve" text-anchor="middle" x="242.25" y="-56.5" font-family="Helvetica,sans-Serif" font-size="10.00">::Datum::GetAsTable</text>
</a>
</g>
</g>
<!-- Node1&#45;&gt;Node8 -->
<g id="edge7_Node000001_Node000008" class="edge">
<title>Node1&#45;&gt;Node8</title>
<g id="a_edge7_Node000001_Node000008"><a xlink:title=" ">
<path fill="none" stroke="#63b8ff" d="M109.23,-124.52C130.37,-114.64 157.9,-101.91 182.5,-91 185.59,-89.63 188.78,-88.23 192,-86.83"/>
<polygon fill="#63b8ff" stroke="#63b8ff" points="193.13,-90.15 200.92,-82.97 190.35,-83.73 193.13,-90.15"/>
</a>
</g>
</g>
<!-- Node10 -->
<g id="Node000010" class="node">
<title>Node10</title>
<g id="a_Node000010"><a xlink:href="class_fiea_1_1_engine_1_1_content_1_1_datum.html#acae68c3bc8b20345e4c3790fa37bd8d5" target="_top" xlink:title=" ">
<polygon fill="white" stroke="#666666" points="297.88,-32 186.62,-32 186.62,0 297.88,0 297.88,-32"/>
<text xml:space="preserve" text-anchor="start" x="194.62" y="-18.5" font-family="Helvetica,sans-Serif" font-size="10.00">Fiea::Engine::Content</text>
<text xml:space="preserve" text-anchor="middle" x="242.25" y="-6.5" font-family="Helvetica,sans-Serif" font-size="10.00">::Datum::Size</text>
</a>
</g>
</g>
<!-- Node1&#45;&gt;Node10 -->
<g id="edge10_Node000001_Node000010" class="edge">
<title>Node1&#45;&gt;Node10</title>
<g id="a_edge10_Node000001_Node000010"><a xlink:title=" ">
<path fill="none" stroke="#63b8ff" d="M88.61,-124.6C108.12,-103.12 144.9,-65.31 182.5,-41 184.32,-39.83 186.19,-38.69 188.12,-37.58"/>
<polygon fill="#63b8ff" stroke="#63b8ff" points="189.46,-40.83 196.67,-33.07 186.19,-34.64 189.46,-40.83"/>
</a>
</g>
</g>
<!-- Node3 -->
<g id="Node000003" class="node">
<title>Node3</title>
<g id="a_Node000003"><a xlink:href="class_fiea_1_1_engine_1_1_r_t_t_i.html#ac0a7d875e4513b2aca7594abcd4418ef" target="_top" xlink:title=" ">
<polygon fill="white" stroke="#666666" points="450.75,-292 338,-292 338,-272 450.75,-272 450.75,-292"/>
<text xml:space="preserve" text-anchor="middle" x="394.38" y="-278.5" font-family="Helvetica,sans-Serif" font-size="10.00">Fiea::Engine::RTTI::Is</text>
</a>
</g>
</g>
<!-- Node2&#45;&gt;Node3 -->
<g id="edge2_Node000002_Node000003" class="edge">
<title>Node2&#45;&gt;Node3</title>
<g id="a_edge2_Node000002_Node000003"><a xlink:title=" ">
<path fill="none" stroke="#63b8ff" d="M300.86,-268.44C309.26,-269.67 317.96,-270.95 326.52,-272.2"/>
<polygon fill="#63b8ff" stroke="#63b8ff" points="325.75,-275.63 336.15,-273.61 326.76,-268.7 325.75,-275.63"/>
</a>
</g>
</g>
<!-- Node4 -->
<g id="Node000004" class="node">
<title>Node4</title>
<g id="a_Node000004"><a xlink:href="class_fiea_1_1_engine_1_1_r_t_t_i.html#a13000029a2e6cced30b831e466e07cae" target="_top" xlink:title=" ">
<polygon fill="white" stroke="#666666" points="443.62,-254 345.12,-254 345.12,-222 443.62,-222 443.62,-254"/>
<text xml:space="preserve" text-anchor="start" x="353.12" y="-240.5" font-family="Helvetica,sans-Serif" font-size="10.00">Fiea::Engine::RTTI</text>
<text xml:space="preserve" text-anchor="middle" x="394.38" y="-228.5" font-family="Helvetica,sans-Serif" font-size="10.00">::RTTI</text>
</a>
</g>
</g>
<!-- Node2&#45;&gt;Node4 -->
<g id="edge3_Node000002_Node000004" class="edge">
<title>Node2&#45;&gt;Node4</title>
<g id="a_edge3_Node000002_Node000004"><a xlink:title=" ">
<path fill="none" stroke="#63b8ff" d="M300.86,-251.56C311.66,-249.97 322.98,-248.32 333.83,-246.73"/>
<polygon fill="#63b8ff" stroke="#63b8ff" points="334.06,-250.23 343.45,-245.32 333.05,-243.3 334.06,-250.23"/>
</a>
</g>
</g>
<!-- Node9 -->
<g id="Node000009" class="node">
<title>Node9</title>
<g id="a_Node000009"><a xlink:href="class_fiea_1_1_engine_1_1_content_1_1_datum.html#a921193447f6e42f596ac0a7694b02830" target="_top" xlink:title=" ">
<polygon fill="white" stroke="#666666" points="450,-82 338.75,-82 338.75,-50 450,-50 450,-82"/>
<text xml:space="preserve" text-anchor="start" x="346.75" y="-68.5" font-family="Helvetica,sans-Serif" font-size="10.00">Fiea::Engine::Content</text>
<text xml:space="preserve" text-anchor="middle" x="394.38" y="-56.5" font-family="Helvetica,sans-Serif" font-size="10.00">::Datum::Scope</text>
</a>
</g>
</g>
<!-- Node8&#45;&gt;Node9 -->
<g id="edge8_Node000008_Node000009" class="edge">
<title>Node8&#45;&gt;Node9</title>
<g id="a_edge8_Node000008_Node000009"><a xlink:title=" ">
<path fill="none" stroke="#63b8ff" d="M298.3,-66C307.58,-66 317.3,-66 326.84,-66"/>
<polygon fill="#63b8ff" stroke="#63b8ff" points="326.82,-69.5 336.82,-66 326.82,-62.5 326.82,-69.5"/>
</a>
</g>
</g>
<!-- Node9&#45;&gt;Node9 -->
<g id="edge9_Node000009_Node000009" class="edge">
<title>Node9&#45;&gt;Node9</title>
<g id="a_edge9_Node000009_Node000009"><a xlink:title=" ">
<path fill="none" stroke="#63b8ff" d="M367.22,-82.44C362.15,-91.58 371.2,-100 394.38,-100 407.05,-100 415.5,-97.48 419.73,-93.71"/>
<polygon fill="#63b8ff" stroke="#63b8ff" points="423.17,-94.37 421.29,-83.94 416.25,-93.26 423.17,-94.37"/>
</a>
</g>
</g>
</g>
</svg>
