<?xml version="1.0" encoding="UTF-8" standalone="no"?>
<!DOCTYPE svg PUBLIC "-//W3C//DTD SVG 1.1//EN"
 "http://www.w3.org/Graphics/SVG/1.1/DTD/svg11.dtd">
<!-- Generated by graphviz version 13.1.0 (20250701.0955)
 -->
<!-- Title: Fiea::Engine::Actions::ActionListWhileLoop::RunAction Pages: 1 -->
<svg width="427pt" height="309pt"
 viewBox="0.00 0.00 427.00 309.00" xmlns="http://www.w3.org/2000/svg" xmlns:xlink="http://www.w3.org/1999/xlink">
<g id="graph0" class="graph" transform="scale(1 1) rotate(0) translate(4 305)">
<title>Fiea::Engine::Actions::ActionListWhileLoop::RunAction</title>
<!-- Node1 -->
<g id="Node000001" class="node">
<title>Node1</title>
<g id="a_Node000001"><a xlink:title=" ">
<polygon fill="#999999" stroke="#666666" points="111.25,-188 0,-188 0,-144 111.25,-144 111.25,-188"/>
<text xml:space="preserve" text-anchor="start" x="8" y="-174.5" font-family="Helvetica,sans-Serif" font-size="10.00">Fiea::Engine::Actions</text>
<text xml:space="preserve" text-anchor="start" x="8" y="-162.5" font-family="Helvetica,sans-Serif" font-size="10.00">::ActionListWhileLoop</text>
<text xml:space="preserve" text-anchor="middle" x="55.62" y="-150.5" font-family="Helvetica,sans-Serif" font-size="10.00">::RunAction</text>
</a>
</g>
</g>
<!-- Node2 -->
<g id="Node000002" class="node">
<title>Node2</title>
<g id="a_Node000002"><a xlink:href="class_fiea_1_1_engine_1_1_r_t_t_i.html#a15bd5993c8ad04da47af440298ebbb30" target="_top" xlink:title=" ">
<polygon fill="white" stroke="#666666" points="263.75,-270 147.25,-270 147.25,-250 263.75,-250 263.75,-270"/>
<text xml:space="preserve" text-anchor="middle" x="205.5" y="-256.5" font-family="Helvetica,sans-Serif" font-size="10.00">Fiea::Engine::RTTI::As</text>
</a>
</g>
</g>
<!-- Node1&#45;&gt;Node2 -->
<g id="edge1_Node000001_Node000002" class="edge">
<title>Node1&#45;&gt;Node2</title>
<g id="a_edge1_Node000001_Node000002"><a xlink:title=" ">
<path fill="none" stroke="#63b8ff" d="M78.71,-188.32C96.07,-204.8 121.52,-226.75 147.25,-241 150.04,-242.55 152.98,-243.99 155.99,-245.34"/>
<polygon fill="#63b8ff" stroke="#63b8ff" points="154.41,-248.48 164.99,-248.99 157.04,-241.99 154.41,-248.48"/>
</a>
</g>
</g>
<!-- Node5 -->
<g id="Node000005" class="node">
<title>Node5</title>
<g id="a_Node000005"><a xlink:href="class_fiea_1_1_engine_1_1_content_1_1_scope.html#ad924c01785b239991fc0e56a63295612" target="_top" xlink:title="Finds a Datum by key.">
<polygon fill="white" stroke="#666666" points="261.12,-232 149.88,-232 149.88,-200 261.12,-200 261.12,-232"/>
<text xml:space="preserve" text-anchor="start" x="157.88" y="-218.5" font-family="Helvetica,sans-Serif" font-size="10.00">Fiea::Engine::Content</text>
<text xml:space="preserve" text-anchor="middle" x="205.5" y="-206.5" font-family="Helvetica,sans-Serif" font-size="10.00">::Scope::Find</text>
</a>
</g>
</g>
<!-- Node1&#45;&gt;Node5 -->
<g id="edge4_Node000001_Node000005" class="edge">
<title>Node1&#45;&gt;Node5</title>
<g id="a_edge4_Node000001_Node000005"><a xlink:title=" ">
<path fill="none" stroke="#63b8ff" d="M111.69,-184.62C122.53,-188.28 133.95,-192.14 144.93,-195.86"/>
<polygon fill="#63b8ff" stroke="#63b8ff" points="143.69,-199.13 154.29,-199.02 145.94,-192.5 143.69,-199.13"/>
</a>
</g>
</g>
<!-- Node6 -->
<g id="Node000006" class="node">
<title>Node6</title>
<g id="a_Node000006"><a xlink:href="class_fiea_1_1_engine_1_1_content_1_1_datum.html#a7f92976f27f407987cf287a2f7017e04" target="_top" xlink:title=" ">
<polygon fill="white" stroke="#666666" points="261.12,-182 149.88,-182 149.88,-150 261.12,-150 261.12,-182"/>
<text xml:space="preserve" text-anchor="start" x="157.88" y="-168.5" font-family="Helvetica,sans-Serif" font-size="10.00">Fiea::Engine::Content</text>
<text xml:space="preserve" text-anchor="middle" x="205.5" y="-156.5" font-family="Helvetica,sans-Serif" font-size="10.00">::Datum::GetAsTable</text>
</a>
</g>
</g>
<!-- Node1&#45;&gt;Node6 -->
<g id="edge5_Node000001_Node000006" class="edge">
<title>Node1&#45;&gt;Node6</title>
<g id="a_edge5_Node000001_Node000006"><a xlink:title=" ">
<path fill="none" stroke="#63b8ff" d="M111.69,-166C120.25,-166 129.18,-166 137.96,-166"/>
<polygon fill="#63b8ff" stroke="#63b8ff" points="137.88,-169.5 147.88,-166 137.88,-162.5 137.88,-169.5"/>
</a>
</g>
</g>
<!-- Node8 -->
<g id="Node000008" class="node">
<title>Node8</title>
<g id="a_Node000008"><a xlink:href="class_fiea_1_1_engine_1_1_content_1_1_datum.html#acae68c3bc8b20345e4c3790fa37bd8d5" target="_top" xlink:title=" ">
<polygon fill="white" stroke="#666666" points="261.12,-132 149.88,-132 149.88,-100 261.12,-100 261.12,-132"/>
<text xml:space="preserve" text-anchor="start" x="157.88" y="-118.5" font-family="Helvetica,sans-Serif" font-size="10.00">Fiea::Engine::Content</text>
<text xml:space="preserve" text-anchor="middle" x="205.5" y="-106.5" font-family="Helvetica,sans-Serif" font-size="10.00">::Datum::Size</text>
</a>
</g>
</g>
<!-- Node1&#45;&gt;Node8 -->
<g id="edge8_Node000001_Node000008" class="edge">
<title>Node1&#45;&gt;Node8</title>
<g id="a_edge8_Node000001_Node000008"><a xlink:title=" ">
<path fill="none" stroke="#63b8ff" d="M111.69,-147.38C122.53,-143.72 133.95,-139.86 144.93,-136.14"/>
<polygon fill="#63b8ff" stroke="#63b8ff" points="145.94,-139.5 154.29,-132.98 143.69,-132.87 145.94,-139.5"/>
</a>
</g>
</g>
<!-- Node9 -->
<g id="Node000009" class="node">
<title>Node9</title>
<g id="a_Node000009"><a xlink:href="class_fiea_1_1_engine_1_1_actions_1_1_action.html#abea83b3796a80d29394f644634477d7b" target="_top" xlink:title=" ">
<polygon fill="white" stroke="#666666" points="260.38,-82 150.62,-82 150.62,-50 260.38,-50 260.38,-82"/>
<text xml:space="preserve" text-anchor="start" x="158.62" y="-68.5" font-family="Helvetica,sans-Serif" font-size="10.00">Fiea::Engine::Actions</text>
<text xml:space="preserve" text-anchor="middle" x="205.5" y="-56.5" font-family="Helvetica,sans-Serif" font-size="10.00">::Action::Update</text>
</a>
</g>
</g>
<!-- Node1&#45;&gt;Node9 -->
<g id="edge9_Node000001_Node000009" class="edge">
<title>Node1&#45;&gt;Node9</title>
<g id="a_edge9_Node000001_Node000009"><a xlink:title=" ">
<path fill="none" stroke="#63b8ff" d="M79.84,-143.67C97.37,-127.61 122.55,-106.2 147.25,-91 149.12,-89.85 151.05,-88.72 153.03,-87.63"/>
<polygon fill="#63b8ff" stroke="#63b8ff" points="154.52,-90.8 161.79,-83.1 151.3,-84.58 154.52,-90.8"/>
</a>
</g>
</g>
<!-- Node3 -->
<g id="Node000003" class="node">
<title>Node3</title>
<g id="a_Node000003"><a xlink:href="class_fiea_1_1_engine_1_1_r_t_t_i.html#ac0a7d875e4513b2aca7594abcd4418ef" target="_top" xlink:title=" ">
<polygon fill="white" stroke="#666666" points="415.88,-301 303.12,-301 303.12,-281 415.88,-281 415.88,-301"/>
<text xml:space="preserve" text-anchor="middle" x="359.5" y="-287.5" font-family="Helvetica,sans-Serif" font-size="10.00">Fiea::Engine::RTTI::Is</text>
</a>
</g>
</g>
<!-- Node2&#45;&gt;Node3 -->
<g id="edge2_Node000002_Node000003" class="edge">
<title>Node2&#45;&gt;Node3</title>
<g id="a_edge2_Node000002_Node000003"><a xlink:title=" ">
<path fill="none" stroke="#63b8ff" d="M257.96,-270.5C270.22,-272.99 283.43,-275.69 296.12,-278.28"/>
<polygon fill="#63b8ff" stroke="#63b8ff" points="295.11,-281.64 305.61,-280.21 296.51,-274.79 295.11,-281.64"/>
</a>
</g>
</g>
<!-- Node4 -->
<g id="Node000004" class="node">
<title>Node4</title>
<g id="a_Node000004"><a xlink:href="class_fiea_1_1_engine_1_1_r_t_t_i.html#a13000029a2e6cced30b831e466e07cae" target="_top" xlink:title=" ">
<polygon fill="white" stroke="#666666" points="408.75,-263 310.25,-263 310.25,-231 408.75,-231 408.75,-263"/>
<text xml:space="preserve" text-anchor="start" x="318.25" y="-249.5" font-family="Helvetica,sans-Serif" font-size="10.00">Fiea::Engine::RTTI</text>
<text xml:space="preserve" text-anchor="middle" x="359.5" y="-237.5" font-family="Helvetica,sans-Serif" font-size="10.00">::RTTI</text>
</a>
</g>
</g>
<!-- Node2&#45;&gt;Node4 -->
<g id="edge3_Node000002_Node000004" class="edge">
<title>Node2&#45;&gt;Node4</title>
<g id="a_edge3_Node000002_Node000004"><a xlink:title=" ">
<path fill="none" stroke="#63b8ff" d="M263.96,-255.09C275.31,-254.11 287.25,-253.09 298.68,-252.12"/>
<polygon fill="#63b8ff" stroke="#63b8ff" points="298.72,-255.63 308.38,-251.29 298.12,-248.65 298.72,-255.63"/>
</a>
</g>
</g>
<!-- Node7 -->
<g id="Node000007" class="node">
<title>Node7</title>
<g id="a_Node000007"><a xlink:href="class_fiea_1_1_engine_1_1_content_1_1_datum.html#a921193447f6e42f596ac0a7694b02830" target="_top" xlink:title=" ">
<polygon fill="white" stroke="#666666" points="415.12,-182 303.88,-182 303.88,-150 415.12,-150 415.12,-182"/>
<text xml:space="preserve" text-anchor="start" x="311.88" y="-168.5" font-family="Helvetica,sans-Serif" font-size="10.00">Fiea::Engine::Content</text>
<text xml:space="preserve" text-anchor="middle" x="359.5" y="-156.5" font-family="Helvetica,sans-Serif" font-size="10.00">::Datum::Scope</text>
</a>
</g>
</g>
<!-- Node6&#45;&gt;Node7 -->
<g id="edge6_Node000006_Node000007" class="edge">
<title>Node6&#45;&gt;Node7</title>
<g id="a_edge6_Node000006_Node000007"><a xlink:title=" ">
<path fill="none" stroke="#63b8ff" d="M261.38,-166C271.32,-166 281.79,-166 292.03,-166"/>
<polygon fill="#63b8ff" stroke="#63b8ff" points="291.94,-169.5 301.94,-166 291.94,-162.5 291.94,-169.5"/>
</a>
</g>
</g>
<!-- Node7&#45;&gt;Node7 -->
<g id="edge7_Node000007_Node000007" class="edge">
<title>Node7&#45;&gt;Node7</title>
<g id="a_edge7_Node000007_Node000007"><a xlink:title=" ">
<path fill="none" stroke="#63b8ff" d="M332.01,-182.44C326.87,-191.58 336.04,-200 359.5,-200 372.33,-200 380.88,-197.48 385.16,-193.71"/>
<polygon fill="#63b8ff" stroke="#63b8ff" points="388.6,-194.37 386.75,-183.94 381.69,-193.25 388.6,-194.37"/>
</a>
</g>
</g>
<!-- Node10 -->
<g id="Node000010" class="node">
<title>Node10</title>
<g id="a_Node000010"><a xlink:href="class_fiea_1_1_engine_1_1_actions_1_1_action.html#aca4c38723b265f3c4e6013bb8916b376" target="_top" xlink:title=" ">
<polygon fill="white" stroke="#666666" points="419.25,-132 299.75,-132 299.75,-100 419.25,-100 419.25,-132"/>
<text xml:space="preserve" text-anchor="start" x="307.75" y="-118.5" font-family="Helvetica,sans-Serif" font-size="10.00">Fiea::Engine::Actions</text>
<text xml:space="preserve" text-anchor="middle" x="359.5" y="-106.5" font-family="Helvetica,sans-Serif" font-size="10.00">::Action::CleanupAction</text>
</a>
</g>
</g>
<!-- Node9&#45;&gt;Node10 -->
<g id="edge10_Node000009_Node000010" class="edge">
<title>Node9&#45;&gt;Node10</title>
<g id="a_edge10_Node000009_Node000010"><a xlink:title=" ">
<path fill="none" stroke="#63b8ff" d="M256.27,-82.37C269.46,-86.71 283.84,-91.44 297.55,-95.95"/>
<polygon fill="#63b8ff" stroke="#63b8ff" points="296.33,-99.23 306.92,-99.03 298.51,-92.58 296.33,-99.23"/>
</a>
</g>
</g>
<!-- Node11 -->
<g id="Node000011" class="node">
<title>Node11</title>
<g id="a_Node000011"><a xlink:href="class_fiea_1_1_engine_1_1_actions_1_1_action.html#a81c0a0c2e60d1d97b21ca306f673b7e7" target="_top" xlink:title=" ">
<polygon fill="white" stroke="#666666" points="414.38,-82 304.62,-82 304.62,-50 414.38,-50 414.38,-82"/>
<text xml:space="preserve" text-anchor="start" x="312.62" y="-68.5" font-family="Helvetica,sans-Serif" font-size="10.00">Fiea::Engine::Actions</text>
<text xml:space="preserve" text-anchor="middle" x="359.5" y="-56.5" font-family="Helvetica,sans-Serif" font-size="10.00">::Action::InitAction</text>
</a>
</g>
</g>
<!-- Node9&#45;&gt;Node11 -->
<g id="edge11_Node000009_Node000011" class="edge">
<title>Node9&#45;&gt;Node11</title>
<g id="a_edge11_Node000009_Node000011"><a xlink:title=" ">
<path fill="none" stroke="#63b8ff" d="M260.52,-66C270.92,-66 281.92,-66 292.65,-66"/>
<polygon fill="#63b8ff" stroke="#63b8ff" points="292.63,-69.5 302.63,-66 292.63,-62.5 292.63,-69.5"/>
</a>
</g>
</g>
<!-- Node12 -->
<g id="Node000012" class="node">
<title>Node12</title>
<g id="a_Node000012"><a xlink:href="class_fiea_1_1_engine_1_1_actions_1_1_action.html#a75aad9a760f6deb44caed1be2611afad" target="_top" xlink:title=" ">
<polygon fill="white" stroke="#666666" points="414.38,-32 304.62,-32 304.62,0 414.38,0 414.38,-32"/>
<text xml:space="preserve" text-anchor="start" x="312.62" y="-18.5" font-family="Helvetica,sans-Serif" font-size="10.00">Fiea::Engine::Actions</text>
<text xml:space="preserve" text-anchor="middle" x="359.5" y="-6.5" font-family="Helvetica,sans-Serif" font-size="10.00">::Action::RunAction</text>
</a>
</g>
</g>
<!-- Node9&#45;&gt;Node12 -->
<g id="edge12_Node000009_Node000012" class="edge">
<title>Node9&#45;&gt;Node12</title>
<g id="a_edge12_Node000009_Node000012"><a xlink:title=" ">
<path fill="none" stroke="#63b8ff" d="M256.27,-49.63C269.46,-45.29 283.84,-40.56 297.55,-36.05"/>
<polygon fill="#63b8ff" stroke="#63b8ff" points="298.51,-39.42 306.92,-32.97 296.33,-32.77 298.51,-39.42"/>
</a>
</g>
</g>
</g>
</svg>
