<?xml version="1.0" encoding="UTF-8" standalone="no"?>
<!DOCTYPE svg PUBLIC "-//W3C//DTD SVG 1.1//EN"
 "http://www.w3.org/Graphics/SVG/1.1/DTD/svg11.dtd">
<!-- Generated by graphviz version 13.1.0 (20250701.0955)
 -->
<!-- Title: Graphical Class Hierarchy Pages: 1 -->
<svg width="268pt" height="90pt"
 viewBox="0.00 0.00 268.00 90.00" xmlns="http://www.w3.org/2000/svg" xmlns:xlink="http://www.w3.org/1999/xlink">
<g id="graph0" class="graph" transform="scale(1 1) rotate(0) translate(4 86)">
<title>Graphical Class Hierarchy</title>
<!-- Node0 -->
<g id="Node000000" class="node">
<title>Node0</title>
<g id="a_Node000000"><a xlink:href="struct_fiea_1_1_engine_1_1_tests_1_1_support_1_1_i_foo_maker.html" target="_top" xlink:title=" ">
<polygon fill="white" stroke="#666666" points="108.25,-82 0,-82 0,-50 108.25,-50 108.25,-82"/>
<text xml:space="preserve" text-anchor="start" x="8" y="-68.5" font-family="Helvetica,sans-Serif" font-size="10.00">Fiea::Engine::Tests</text>
<text xml:space="preserve" text-anchor="middle" x="54.12" y="-56.5" font-family="Helvetica,sans-Serif" font-size="10.00">::Support::IFooMaker</text>
</a>
</g>
</g>
<!-- Node1 -->
<g id="Node000001" class="node">
<title>Node1</title>
<g id="a_Node000001"><a xlink:href="class_fiea_1_1_engine_1_1_tests_1_1_support_1_1_foo_manager.html" target="_top" xlink:title=" ">
<polygon fill="white" stroke="#666666" points="260,-57 144.25,-57 144.25,-25 260,-25 260,-57"/>
<text xml:space="preserve" text-anchor="start" x="152.25" y="-43.5" font-family="Helvetica,sans-Serif" font-size="10.00">Fiea::Engine::Tests</text>
<text xml:space="preserve" text-anchor="middle" x="202.12" y="-31.5" font-family="Helvetica,sans-Serif" font-size="10.00">::Support::FooManager</text>
</a>
</g>
</g>
<!-- Node0&#45;&gt;Node1 -->
<g id="edge51_Node000000_Node000001" class="edge">
<title>Node0&#45;&gt;Node1</title>
<g id="a_edge51_Node000000_Node000001"><a xlink:title=" ">
<path fill="none" stroke="#63b8ff" d="M119.94,-54.9C128.01,-53.52 136.22,-52.11 144.16,-50.75"/>
<polygon fill="#63b8ff" stroke="#63b8ff" points="119.42,-51.44 110.15,-56.58 120.6,-58.34 119.42,-51.44"/>
</a>
</g>
</g>
<!-- Node2 -->
<g id="Node000002" class="node">
<title>Node2</title>
<g id="a_Node000002"><a xlink:href="struct_fiea_1_1_engine_1_1_tests_1_1_support_1_1_i_foo_taker.html" target="_top" xlink:title=" ">
<polygon fill="white" stroke="#666666" points="106.75,-32 1.5,-32 1.5,0 106.75,0 106.75,-32"/>
<text xml:space="preserve" text-anchor="start" x="9.5" y="-18.5" font-family="Helvetica,sans-Serif" font-size="10.00">Fiea::Engine::Tests</text>
<text xml:space="preserve" text-anchor="middle" x="54.12" y="-6.5" font-family="Helvetica,sans-Serif" font-size="10.00">::Support::IFooTaker</text>
</a>
</g>
</g>
<!-- Node2&#45;&gt;Node1 -->
<g id="edge52_Node000002_Node000001" class="edge">
<title>Node2&#45;&gt;Node1</title>
<g id="a_edge52_Node000002_Node000001"><a xlink:title=" ">
<path fill="none" stroke="#63b8ff" d="M118.14,-26.79C126.72,-28.26 135.48,-29.76 143.95,-31.21"/>
<polygon fill="#63b8ff" stroke="#63b8ff" points="118.95,-23.38 108.5,-25.14 117.77,-30.28 118.95,-23.38"/>
</a>
</g>
</g>
</g>
</svg>
