<?xml version="1.0" encoding="UTF-8" standalone="no"?>
<!DOCTYPE svg PUBLIC "-//W3C//DTD SVG 1.1//EN"
 "http://www.w3.org/Graphics/SVG/1.1/DTD/svg11.dtd">
<!-- Generated by graphviz version 13.1.0 (20250701.0955)
 -->
<!-- Title: Graphical Class Hierarchy Pages: 1 -->
<svg width="284pt" height="642pt"
 viewBox="0.00 0.00 284.00 642.00" xmlns="http://www.w3.org/2000/svg" xmlns:xlink="http://www.w3.org/1999/xlink">
<g id="graph0" class="graph" transform="scale(1 1) rotate(0) translate(4 638)">
<title>Graphical Class Hierarchy</title>
<!-- Node0 -->
<g id="Node000000" class="node">
<title>Node0</title>
<g id="a_Node000000"><a xlink:title=" ">
<polygon fill="#e0e0e0" stroke="#999999" points="80.5,-216 0,-216 0,-196 80.5,-196 80.5,-216"/>
<text xml:space="preserve" text-anchor="middle" x="40.25" y="-202.5" font-family="Helvetica,sans-Serif" font-size="10.00">std::false_type</text>
</a>
</g>
</g>
<!-- Node1 -->
<g id="Node000001" class="node">
<title>Node1</title>
<g id="a_Node000001"><a xlink:href="struct_fiea_1_1_engine_1_1_tests_1_1_has_find_3_01_c_00_01typename_01std_1_1enable__if_3_01std_1254c1435299dc8705bc43cb51333bba1.html" target="_top" xlink:title=" ">
<polygon fill="white" stroke="#666666" points="268.25,-414 124,-414 124,-310 268.25,-310 268.25,-414"/>
<text xml:space="preserve" text-anchor="start" x="132" y="-400.5" font-family="Helvetica,sans-Serif" font-size="10.00">Fiea::Engine::Tests</text>
<text xml:space="preserve" text-anchor="start" x="132" y="-388.5" font-family="Helvetica,sans-Serif" font-size="10.00">::HasFind&lt; C, typename</text>
<text xml:space="preserve" text-anchor="start" x="132" y="-376.5" font-family="Helvetica,sans-Serif" font-size="10.00"> std::enable_if&lt; std::</text>
<text xml:space="preserve" text-anchor="start" x="132" y="-364.5" font-family="Helvetica,sans-Serif" font-size="10.00">is_same&lt; decltype(std::</text>
<text xml:space="preserve" text-anchor="start" x="132" y="-352.5" font-family="Helvetica,sans-Serif" font-size="10.00">declval&lt; C &gt;().find(std</text>
<text xml:space="preserve" text-anchor="start" x="132" y="-340.5" font-family="Helvetica,sans-Serif" font-size="10.00">::declval&lt; typename C::value</text>
<text xml:space="preserve" text-anchor="start" x="132" y="-328.5" font-family="Helvetica,sans-Serif" font-size="10.00">_type &gt;())), void &gt;::value &gt;</text>
<text xml:space="preserve" text-anchor="middle" x="196.12" y="-316.5" font-family="Helvetica,sans-Serif" font-size="10.00">::type &gt;</text>
</a>
</g>
</g>
<!-- Node0&#45;&gt;Node1 -->
<g id="edge55_Node000000_Node000001" class="edge">
<title>Node0&#45;&gt;Node1</title>
<g id="a_edge55_Node000000_Node000001"><a xlink:title=" ">
<path fill="none" stroke="#63b8ff" d="M54.72,-225.71C68.89,-245.76 92.43,-277.18 116.5,-301 119.45,-303.92 122.53,-306.82 125.7,-309.7"/>
<polygon fill="#63b8ff" stroke="#63b8ff" points="57.66,-223.81 49.07,-217.61 51.92,-227.82 57.66,-223.81"/>
</a>
</g>
</g>
<!-- Node3 -->
<g id="Node000003" class="node">
<title>Node3</title>
<g id="a_Node000003"><a xlink:href="struct_fiea_1_1_engine_1_1_tests_1_1_has_push_back_3_01_c_00_01typename_01std_1_1enable__if_3_011cbf55de823b36fad36c090c494b74b2.html" target="_top" xlink:title=" ">
<polygon fill="white" stroke="#666666" points="272.38,-292 119.88,-292 119.88,-200 272.38,-200 272.38,-292"/>
<text xml:space="preserve" text-anchor="start" x="127.88" y="-278.5" font-family="Helvetica,sans-Serif" font-size="10.00">Fiea::Engine::Tests</text>
<text xml:space="preserve" text-anchor="start" x="127.88" y="-266.5" font-family="Helvetica,sans-Serif" font-size="10.00">::HasPushBack&lt; C, typename</text>
<text xml:space="preserve" text-anchor="start" x="127.88" y="-254.5" font-family="Helvetica,sans-Serif" font-size="10.00"> std::enable_if&lt; std::is</text>
<text xml:space="preserve" text-anchor="start" x="127.88" y="-242.5" font-family="Helvetica,sans-Serif" font-size="10.00">_same&lt; decltype(std::declval</text>
<text xml:space="preserve" text-anchor="start" x="127.88" y="-230.5" font-family="Helvetica,sans-Serif" font-size="10.00">&lt; C &gt;().push_back(std::declval</text>
<text xml:space="preserve" text-anchor="start" x="127.88" y="-218.5" font-family="Helvetica,sans-Serif" font-size="10.00">&lt; typename C::value_type &gt;()))</text>
<text xml:space="preserve" text-anchor="middle" x="196.12" y="-206.5" font-family="Helvetica,sans-Serif" font-size="10.00">, void &gt;::value &gt;::type &gt;</text>
</a>
</g>
</g>
<!-- Node0&#45;&gt;Node3 -->
<g id="edge56_Node000000_Node000003" class="edge">
<title>Node0&#45;&gt;Node3</title>
<g id="a_edge56_Node000000_Node000003"><a xlink:title=" ">
<path fill="none" stroke="#63b8ff" d="M91.79,-219.14C100.67,-221.45 110.08,-223.89 119.47,-226.33"/>
<polygon fill="#63b8ff" stroke="#63b8ff" points="92.9,-215.81 82.34,-216.68 91.14,-222.59 92.9,-215.81"/>
</a>
</g>
</g>
<!-- Node4 -->
<g id="Node000004" class="node">
<title>Node4</title>
<g id="a_Node000004"><a xlink:href="struct_fiea_1_1_engine_1_1_tests_1_1_has_push_front_3_01_c_00_01typename_01std_1_1enable__if_3_0e0d75ac16739c3283aacd2d6a11ae862.html" target="_top" xlink:title=" ">
<polygon fill="white" stroke="#666666" points="273.88,-634 118.38,-634 118.38,-542 273.88,-542 273.88,-634"/>
<text xml:space="preserve" text-anchor="start" x="126.38" y="-620.5" font-family="Helvetica,sans-Serif" font-size="10.00">Fiea::Engine::Tests</text>
<text xml:space="preserve" text-anchor="start" x="126.38" y="-608.5" font-family="Helvetica,sans-Serif" font-size="10.00">::HasPushFront&lt; C, typename</text>
<text xml:space="preserve" text-anchor="start" x="126.38" y="-596.5" font-family="Helvetica,sans-Serif" font-size="10.00"> std::enable_if&lt; std::is</text>
<text xml:space="preserve" text-anchor="start" x="126.38" y="-584.5" font-family="Helvetica,sans-Serif" font-size="10.00">_same&lt; decltype(std::declval</text>
<text xml:space="preserve" text-anchor="start" x="126.38" y="-572.5" font-family="Helvetica,sans-Serif" font-size="10.00">&lt; C &gt;().push_front(std::declval</text>
<text xml:space="preserve" text-anchor="start" x="126.38" y="-560.5" font-family="Helvetica,sans-Serif" font-size="10.00">&lt; typename C::value_type &gt;())),</text>
<text xml:space="preserve" text-anchor="middle" x="196.12" y="-548.5" font-family="Helvetica,sans-Serif" font-size="10.00"> void &gt;::value &gt;::type &gt;</text>
</a>
</g>
</g>
<!-- Node0&#45;&gt;Node4 -->
<g id="edge57_Node000000_Node000004" class="edge">
<title>Node0&#45;&gt;Node4</title>
<g id="a_edge57_Node000000_Node000004"><a xlink:title=" ">
<path fill="none" stroke="#63b8ff" d="M45.73,-227.39C60.58,-298.02 107.74,-520.01 116.5,-533 118.55,-536.04 120.83,-538.96 123.28,-541.76"/>
<polygon fill="#63b8ff" stroke="#63b8ff" points="49.21,-226.93 43.73,-217.87 42.36,-228.37 49.21,-226.93"/>
</a>
</g>
</g>
<!-- Node5 -->
<g id="Node000005" class="node">
<title>Node5</title>
<g id="a_Node000005"><a xlink:href="struct_fiea_1_1_engine_1_1_tests_1_1_has_reserve_3_01_c_00_01typename_01std_1_1enable__if_3_01st41f9efb77c9aebaf8d1c6a0845bb5302.html" target="_top" xlink:title=" ">
<polygon fill="white" stroke="#666666" points="269.75,-524 122.5,-524 122.5,-432 269.75,-432 269.75,-524"/>
<text xml:space="preserve" text-anchor="start" x="130.5" y="-510.5" font-family="Helvetica,sans-Serif" font-size="10.00">Fiea::Engine::Tests</text>
<text xml:space="preserve" text-anchor="start" x="130.5" y="-498.5" font-family="Helvetica,sans-Serif" font-size="10.00">::HasReserve&lt; C, typename</text>
<text xml:space="preserve" text-anchor="start" x="130.5" y="-486.5" font-family="Helvetica,sans-Serif" font-size="10.00"> std::enable_if&lt; std::is</text>
<text xml:space="preserve" text-anchor="start" x="130.5" y="-474.5" font-family="Helvetica,sans-Serif" font-size="10.00">_same&lt; decltype(std::declval</text>
<text xml:space="preserve" text-anchor="start" x="130.5" y="-462.5" font-family="Helvetica,sans-Serif" font-size="10.00">&lt; C &gt;().reserve(std::declval</text>
<text xml:space="preserve" text-anchor="start" x="130.5" y="-450.5" font-family="Helvetica,sans-Serif" font-size="10.00">&lt; typename C::size_type &gt;()))</text>
<text xml:space="preserve" text-anchor="middle" x="196.12" y="-438.5" font-family="Helvetica,sans-Serif" font-size="10.00">, void &gt;::value &gt;::type &gt;</text>
</a>
</g>
</g>
<!-- Node0&#45;&gt;Node5 -->
<g id="edge58_Node000000_Node000005" class="edge">
<title>Node0&#45;&gt;Node5</title>
<g id="a_edge58_Node000000_Node000005"><a xlink:title=" ">
<path fill="none" stroke="#63b8ff" d="M44.2,-227.47C50.79,-268.95 69.98,-361.43 116.5,-423 118.81,-426.06 121.34,-429.01 124.03,-431.85"/>
<polygon fill="#63b8ff" stroke="#63b8ff" points="47.66,-226.98 42.73,-217.61 40.74,-228.01 47.66,-226.98"/>
</a>
</g>
</g>
<!-- Node6 -->
<g id="Node000006" class="node">
<title>Node6</title>
<g id="a_Node000006"><a xlink:href="struct_fiea_1_1_engine_1_1_tests_1_1_has_find.html" target="_top" xlink:title=" ">
<polygon fill="white" stroke="#666666" points="262.62,-182 129.62,-182 129.62,-150 262.62,-150 262.62,-182"/>
<text xml:space="preserve" text-anchor="start" x="137.62" y="-168.5" font-family="Helvetica,sans-Serif" font-size="10.00">Fiea::Engine::Tests</text>
<text xml:space="preserve" text-anchor="middle" x="196.12" y="-156.5" font-family="Helvetica,sans-Serif" font-size="10.00">::HasFind&lt; C, typename &gt;</text>
</a>
</g>
</g>
<!-- Node0&#45;&gt;Node6 -->
<g id="edge59_Node000000_Node000006" class="edge">
<title>Node0&#45;&gt;Node6</title>
<g id="a_edge59_Node000000_Node000006"><a xlink:title=" ">
<path fill="none" stroke="#63b8ff" d="M91.78,-192.87C104.55,-189.54 118.43,-185.94 131.75,-182.47"/>
<polygon fill="#63b8ff" stroke="#63b8ff" points="91.14,-189.41 82.34,-195.32 92.9,-196.19 91.14,-189.41"/>
</a>
</g>
</g>
<!-- Node7 -->
<g id="Node000007" class="node">
<title>Node7</title>
<g id="a_Node000007"><a xlink:href="struct_fiea_1_1_engine_1_1_tests_1_1_has_push_back.html" target="_top" xlink:title=" ">
<polygon fill="white" stroke="#666666" points="275.75,-132 116.5,-132 116.5,-100 275.75,-100 275.75,-132"/>
<text xml:space="preserve" text-anchor="start" x="124.5" y="-118.5" font-family="Helvetica,sans-Serif" font-size="10.00">Fiea::Engine::Tests</text>
<text xml:space="preserve" text-anchor="middle" x="196.12" y="-106.5" font-family="Helvetica,sans-Serif" font-size="10.00">::HasPushBack&lt; C, typename &gt;</text>
</a>
</g>
</g>
<!-- Node0&#45;&gt;Node7 -->
<g id="edge60_Node000000_Node000007" class="edge">
<title>Node0&#45;&gt;Node7</title>
<g id="a_edge60_Node000000_Node000007"><a xlink:title=" ">
<path fill="none" stroke="#63b8ff" d="M58.4,-187.54C72.71,-173.09 94.29,-153.43 116.5,-141 122.25,-137.78 128.47,-134.91 134.81,-132.37"/>
<polygon fill="#63b8ff" stroke="#63b8ff" points="55.95,-185.03 51.53,-194.66 60.99,-189.89 55.95,-185.03"/>
</a>
</g>
</g>
<!-- Node8 -->
<g id="Node000008" class="node">
<title>Node8</title>
<g id="a_Node000008"><a xlink:href="struct_fiea_1_1_engine_1_1_tests_1_1_has_push_front.html" target="_top" xlink:title=" ">
<polygon fill="white" stroke="#666666" points="275.75,-82 116.5,-82 116.5,-50 275.75,-50 275.75,-82"/>
<text xml:space="preserve" text-anchor="start" x="124.5" y="-68.5" font-family="Helvetica,sans-Serif" font-size="10.00">Fiea::Engine::Tests</text>
<text xml:space="preserve" text-anchor="middle" x="196.12" y="-56.5" font-family="Helvetica,sans-Serif" font-size="10.00">::HasPushFront&lt; C, typename &gt;</text>
</a>
</g>
</g>
<!-- Node0&#45;&gt;Node8 -->
<g id="edge61_Node000000_Node000008" class="edge">
<title>Node0&#45;&gt;Node8</title>
<g id="a_edge61_Node000000_Node000008"><a xlink:title=" ">
<path fill="none" stroke="#63b8ff" d="M49.57,-185.25C60.93,-159.49 83.71,-115.91 116.5,-91 120.83,-87.71 125.61,-84.84 130.61,-82.35"/>
<polygon fill="#63b8ff" stroke="#63b8ff" points="46.41,-183.74 45.75,-194.31 52.86,-186.46 46.41,-183.74"/>
</a>
</g>
</g>
<!-- Node9 -->
<g id="Node000009" class="node">
<title>Node9</title>
<g id="a_Node000009"><a xlink:href="struct_fiea_1_1_engine_1_1_tests_1_1_has_reserve.html" target="_top" xlink:title=" ">
<polygon fill="white" stroke="#666666" points="271.62,-32 120.62,-32 120.62,0 271.62,0 271.62,-32"/>
<text xml:space="preserve" text-anchor="start" x="128.62" y="-18.5" font-family="Helvetica,sans-Serif" font-size="10.00">Fiea::Engine::Tests</text>
<text xml:space="preserve" text-anchor="middle" x="196.12" y="-6.5" font-family="Helvetica,sans-Serif" font-size="10.00">::HasReserve&lt; C, typename &gt;</text>
</a>
</g>
</g>
<!-- Node0&#45;&gt;Node9 -->
<g id="edge62_Node000000_Node000009" class="edge">
<title>Node0&#45;&gt;Node9</title>
<g id="a_edge62_Node000000_Node000009"><a xlink:title=" ">
<path fill="none" stroke="#63b8ff" d="M45.21,-184.53C52.78,-149.45 72.65,-79.88 116.5,-41 120.25,-37.67 124.45,-34.79 128.89,-32.29"/>
<polygon fill="#63b8ff" stroke="#63b8ff" points="41.78,-183.79 43.25,-194.29 48.65,-185.17 41.78,-183.79"/>
</a>
</g>
</g>
<!-- Node2 -->
<g id="Node000002" class="node">
<title>Node2</title>
<g id="a_Node000002"><a xlink:title=" ">
<polygon fill="#e0e0e0" stroke="#999999" points="78.25,-430 2.25,-430 2.25,-410 78.25,-410 78.25,-430"/>
<text xml:space="preserve" text-anchor="middle" x="40.25" y="-416.5" font-family="Helvetica,sans-Serif" font-size="10.00">std::true_type</text>
</a>
</g>
</g>
<!-- Node2&#45;&gt;Node1 -->
<g id="edge63_Node000002_Node000001" class="edge">
<title>Node2&#45;&gt;Node1</title>
<g id="a_edge63_Node000002_Node000001"><a xlink:title=" ">
<path fill="none" stroke="#63b8ff" d="M79.46,-405.6C92.86,-400.55 108.37,-394.7 123.6,-388.96"/>
<polygon fill="#63b8ff" stroke="#63b8ff" points="78.3,-402.29 70.18,-409.1 80.77,-408.84 78.3,-402.29"/>
</a>
</g>
</g>
<!-- Node2&#45;&gt;Node3 -->
<g id="edge64_Node000002_Node000003" class="edge">
<title>Node2&#45;&gt;Node3</title>
<g id="a_edge64_Node000002_Node000003"><a xlink:title=" ">
<path fill="none" stroke="#63b8ff" d="M51.12,-399.28C63.81,-374.09 87.67,-331.21 116.5,-301 119.38,-297.99 122.44,-295.04 125.63,-292.17"/>
<polygon fill="#63b8ff" stroke="#63b8ff" points="48.03,-397.62 46.77,-408.14 54.32,-400.71 48.03,-397.62"/>
</a>
</g>
</g>
<!-- Node2&#45;&gt;Node4 -->
<g id="edge65_Node000002_Node000004" class="edge">
<title>Node2&#45;&gt;Node4</title>
<g id="a_edge65_Node000002_Node000004"><a xlink:title=" ">
<path fill="none" stroke="#63b8ff" d="M51.72,-440.33C64.72,-464.3 88.62,-504.48 116.5,-533 119.41,-535.98 122.5,-538.9 125.71,-541.75"/>
<polygon fill="#63b8ff" stroke="#63b8ff" points="54.88,-438.8 47.1,-431.6 48.69,-442.08 54.88,-438.8"/>
</a>
</g>
</g>
<!-- Node2&#45;&gt;Node5 -->
<g id="edge66_Node000002_Node000005" class="edge">
<title>Node2&#45;&gt;Node5</title>
<g id="a_edge66_Node000002_Node000005"><a xlink:title=" ">
<path fill="none" stroke="#63b8ff" d="M79.21,-434.31C92.28,-439.23 107.39,-444.93 122.29,-450.55"/>
<polygon fill="#63b8ff" stroke="#63b8ff" points="80.77,-431.16 70.18,-430.9 78.3,-437.71 80.77,-431.16"/>
</a>
</g>
</g>
</g>
</svg>
