<?xml version="1.0" encoding="UTF-8" standalone="no"?>
<!DOCTYPE svg PUBLIC "-//W3C//DTD SVG 1.1//EN"
 "http://www.w3.org/Graphics/SVG/1.1/DTD/svg11.dtd">
<!-- Generated by graphviz version 13.1.0 (20250701.0955)
 -->
<!-- Title: Graphical Class Hierarchy Pages: 1 -->
<svg width="387pt" height="40pt"
 viewBox="0.00 0.00 387.00 40.00" xmlns="http://www.w3.org/2000/svg" xmlns:xlink="http://www.w3.org/1999/xlink">
<g id="graph0" class="graph" transform="scale(1 1) rotate(0) translate(4 36)">
<title>Graphical Class Hierarchy</title>
<!-- Node0 -->
<g id="Node000000" class="node">
<title>Node0</title>
<g id="a_Node000000"><a xlink:href="struct_fiea_1_1_engine_1_1_clock_1_1_i_time_provider.html" target="_top" xlink:title=" ">
<polygon fill="white" stroke="#666666" points="102.25,-32 0,-32 0,0 102.25,0 102.25,-32"/>
<text xml:space="preserve" text-anchor="start" x="8" y="-18.5" font-family="Helvetica,sans-Serif" font-size="10.00">Fiea::Engine::Clock</text>
<text xml:space="preserve" text-anchor="middle" x="51.12" y="-6.5" font-family="Helvetica,sans-Serif" font-size="10.00">::ITimeProvider</text>
</a>
</g>
</g>
<!-- Node1 -->
<g id="Node000001" class="node">
<title>Node1</title>
<g id="a_Node000001"><a xlink:href="struct_fiea_1_1_engine_1_1_clock_1_1_i_time_updater.html" target="_top" xlink:title=" ">
<polygon fill="white" stroke="#666666" points="240.5,-32 138.25,-32 138.25,0 240.5,0 240.5,-32"/>
<text xml:space="preserve" text-anchor="start" x="146.25" y="-18.5" font-family="Helvetica,sans-Serif" font-size="10.00">Fiea::Engine::Clock</text>
<text xml:space="preserve" text-anchor="middle" x="189.38" y="-6.5" font-family="Helvetica,sans-Serif" font-size="10.00">::ITimeUpdater</text>
</a>
</g>
</g>
<!-- Node0&#45;&gt;Node1 -->
<g id="edge1_Node000000_Node000001" class="edge">
<title>Node0&#45;&gt;Node1</title>
<g id="a_edge1_Node000000_Node000001"><a xlink:title=" ">
<path fill="none" stroke="#63b8ff" d="M113.72,-16C121.77,-16 129.94,-16 137.78,-16"/>
<polygon fill="#63b8ff" stroke="#63b8ff" points="113.99,-12.5 103.99,-16 113.99,-19.5 113.99,-12.5"/>
</a>
</g>
</g>
<!-- Node2 -->
<g id="Node000002" class="node">
<title>Node2</title>
<g id="a_Node000002"><a xlink:href="class_fiea_1_1_engine_1_1_clock_1_1_clock_service.html" target="_top" xlink:title=" ">
<polygon fill="white" stroke="#666666" points="378.75,-32 276.5,-32 276.5,0 378.75,0 378.75,-32"/>
<text xml:space="preserve" text-anchor="start" x="284.5" y="-18.5" font-family="Helvetica,sans-Serif" font-size="10.00">Fiea::Engine::Clock</text>
<text xml:space="preserve" text-anchor="middle" x="327.62" y="-6.5" font-family="Helvetica,sans-Serif" font-size="10.00">::ClockService</text>
</a>
</g>
</g>
<!-- Node1&#45;&gt;Node2 -->
<g id="edge2_Node000001_Node000002" class="edge">
<title>Node1&#45;&gt;Node2</title>
<g id="a_edge2_Node000001_Node000002"><a xlink:title=" ">
<path fill="none" stroke="#63b8ff" d="M251.97,-16C260.02,-16 268.19,-16 276.03,-16"/>
<polygon fill="#63b8ff" stroke="#63b8ff" points="252.24,-12.5 242.24,-16 252.24,-19.5 252.24,-12.5"/>
</a>
</g>
</g>
</g>
</svg>
