<?xml version="1.0" encoding="UTF-8" standalone="no"?>
<!DOCTYPE svg PUBLIC "-//W3C//DTD SVG 1.1//EN"
 "http://www.w3.org/Graphics/SVG/1.1/DTD/svg11.dtd">
<!-- Generated by graphviz version 13.1.0 (20250701.0955)
 -->
<!-- Title: Graphical Class Hierarchy Pages: 1 -->
<svg width="292pt" height="540pt"
 viewBox="0.00 0.00 292.00 540.00" xmlns="http://www.w3.org/2000/svg" xmlns:xlink="http://www.w3.org/1999/xlink">
<g id="graph0" class="graph" transform="scale(1 1) rotate(0) translate(4 536)">
<title>Graphical Class Hierarchy</title>
<!-- Node0 -->
<g id="Node000000" class="node">
<title>Node0</title>
<g id="a_Node000000"><a xlink:href="struct_fiea_1_1_engine_1_1_content_1_1_i_parse_handler.html" target="_top" xlink:title=" ">
<polygon fill="white" stroke="#666666" points="111.25,-282 0,-282 0,-250 111.25,-250 111.25,-282"/>
<text xml:space="preserve" text-anchor="start" x="8" y="-268.5" font-family="Helvetica,sans-Serif" font-size="10.00">Fiea::Engine::Content</text>
<text xml:space="preserve" text-anchor="middle" x="55.62" y="-256.5" font-family="Helvetica,sans-Serif" font-size="10.00">::IParseHandler</text>
</a>
</g>
</g>
<!-- Node1 -->
<g id="Node000001" class="node">
<title>Node1</title>
<g id="a_Node000001"><a xlink:href="class_fiea_1_1_engine_1_1_content_1_1_action_handler.html" target="_top" xlink:title=" ">
<polygon fill="white" stroke="#666666" points="271.25,-532 160,-532 160,-500 271.25,-500 271.25,-532"/>
<text xml:space="preserve" text-anchor="start" x="168" y="-518.5" font-family="Helvetica,sans-Serif" font-size="10.00">Fiea::Engine::Content</text>
<text xml:space="preserve" text-anchor="middle" x="215.62" y="-506.5" font-family="Helvetica,sans-Serif" font-size="10.00">::ActionHandler</text>
</a>
</g>
</g>
<!-- Node0&#45;&gt;Node1 -->
<g id="edge8_Node000000_Node000001" class="edge">
<title>Node0&#45;&gt;Node1</title>
<g id="a_edge8_Node000000_Node000001"><a xlink:title=" ">
<path fill="none" stroke="#63b8ff" d="M60.43,-293.71C68.29,-340.61 90.58,-435.88 147.25,-491 150.92,-494.57 155.14,-497.63 159.64,-500.27"/>
<polygon fill="#63b8ff" stroke="#63b8ff" points="63.9,-293.2 58.89,-283.86 56.98,-294.28 63.9,-293.2"/>
</a>
</g>
</g>
<!-- Node2 -->
<g id="Node000002" class="node">
<title>Node2</title>
<g id="a_Node000002"><a xlink:href="class_fiea_1_1_engine_1_1_content_1_1_action_list_handler.html" target="_top" xlink:title=" ">
<polygon fill="white" stroke="#666666" points="271.25,-482 160,-482 160,-450 271.25,-450 271.25,-482"/>
<text xml:space="preserve" text-anchor="start" x="168" y="-468.5" font-family="Helvetica,sans-Serif" font-size="10.00">Fiea::Engine::Content</text>
<text xml:space="preserve" text-anchor="middle" x="215.62" y="-456.5" font-family="Helvetica,sans-Serif" font-size="10.00">::ActionListHandler</text>
</a>
</g>
</g>
<!-- Node0&#45;&gt;Node2 -->
<g id="edge9_Node000000_Node000002" class="edge">
<title>Node0&#45;&gt;Node2</title>
<g id="a_edge9_Node000000_Node000002"><a xlink:title=" ">
<path fill="none" stroke="#63b8ff" d="M63.93,-293.26C75.48,-331.4 101.49,-400.53 147.25,-441 150.99,-444.31 155.2,-447.19 159.65,-449.7"/>
<polygon fill="#63b8ff" stroke="#63b8ff" points="67.37,-292.57 61.22,-283.94 60.65,-294.52 67.37,-292.57"/>
</a>
</g>
</g>
<!-- Node3 -->
<g id="Node000003" class="node">
<title>Node3</title>
<g id="a_Node000003"><a xlink:href="class_fiea_1_1_engine_1_1_content_1_1_action_while_param_handler.html" target="_top" xlink:title=" ">
<polygon fill="white" stroke="#666666" points="284,-432 147.25,-432 147.25,-400 284,-400 284,-432"/>
<text xml:space="preserve" text-anchor="start" x="155.25" y="-418.5" font-family="Helvetica,sans-Serif" font-size="10.00">Fiea::Engine::Content</text>
<text xml:space="preserve" text-anchor="middle" x="215.62" y="-406.5" font-family="Helvetica,sans-Serif" font-size="10.00">::ActionWhileParamHandler</text>
</a>
</g>
</g>
<!-- Node0&#45;&gt;Node3 -->
<g id="edge10_Node000000_Node000003" class="edge">
<title>Node0&#45;&gt;Node3</title>
<g id="a_edge10_Node000000_Node000003"><a xlink:title=" ">
<path fill="none" stroke="#63b8ff" d="M69.5,-292.05C84.58,-320.1 112.04,-364.27 147.25,-391 151.52,-394.24 156.26,-397.1 161.19,-399.62"/>
<polygon fill="#63b8ff" stroke="#63b8ff" points="72.77,-290.75 65.04,-283.51 66.57,-293.99 72.77,-290.75"/>
</a>
</g>
</g>
<!-- Node4 -->
<g id="Node000004" class="node">
<title>Node4</title>
<g id="a_Node000004"><a xlink:href="class_fiea_1_1_engine_1_1_content_1_1_float_handler.html" target="_top" xlink:title=" ">
<polygon fill="white" stroke="#666666" points="271.25,-382 160,-382 160,-350 271.25,-350 271.25,-382"/>
<text xml:space="preserve" text-anchor="start" x="168" y="-368.5" font-family="Helvetica,sans-Serif" font-size="10.00">Fiea::Engine::Content</text>
<text xml:space="preserve" text-anchor="middle" x="215.62" y="-356.5" font-family="Helvetica,sans-Serif" font-size="10.00">::FloatHandler</text>
</a>
</g>
</g>
<!-- Node0&#45;&gt;Node4 -->
<g id="edge11_Node000000_Node000004" class="edge">
<title>Node0&#45;&gt;Node4</title>
<g id="a_edge11_Node000000_Node000004"><a xlink:title=" ">
<path fill="none" stroke="#63b8ff" d="M80.62,-289.71C97.98,-305.86 122.62,-326.79 147.25,-341 152.65,-344.12 158.52,-346.97 164.45,-349.54"/>
<polygon fill="#63b8ff" stroke="#63b8ff" points="83.48,-287.6 73.82,-283.26 78.67,-292.68 83.48,-287.6"/>
</a>
</g>
</g>
<!-- Node5 -->
<g id="Node000005" class="node">
<title>Node5</title>
<g id="a_Node000005"><a xlink:href="class_fiea_1_1_engine_1_1_content_1_1_game_object_handler.html" target="_top" xlink:title=" ">
<polygon fill="white" stroke="#666666" points="271.25,-332 160,-332 160,-300 271.25,-300 271.25,-332"/>
<text xml:space="preserve" text-anchor="start" x="168" y="-318.5" font-family="Helvetica,sans-Serif" font-size="10.00">Fiea::Engine::Content</text>
<text xml:space="preserve" text-anchor="middle" x="215.62" y="-306.5" font-family="Helvetica,sans-Serif" font-size="10.00">::GameObjectHandler</text>
</a>
</g>
</g>
<!-- Node0&#45;&gt;Node5 -->
<g id="edge12_Node000000_Node000005" class="edge">
<title>Node0&#45;&gt;Node5</title>
<g id="a_edge12_Node000000_Node000005"><a xlink:title=" ">
<path fill="none" stroke="#63b8ff" d="M119.16,-285.79C133.52,-290.33 148.64,-295.12 162.5,-299.51"/>
<polygon fill="#63b8ff" stroke="#63b8ff" points="120.39,-282.51 109.8,-282.83 118.28,-289.18 120.39,-282.51"/>
</a>
</g>
</g>
<!-- Node6 -->
<g id="Node000006" class="node">
<title>Node6</title>
<g id="a_Node000006"><a xlink:href="class_fiea_1_1_engine_1_1_content_1_1_int_handler.html" target="_top" xlink:title=" ">
<polygon fill="white" stroke="#666666" points="271.25,-282 160,-282 160,-250 271.25,-250 271.25,-282"/>
<text xml:space="preserve" text-anchor="start" x="168" y="-268.5" font-family="Helvetica,sans-Serif" font-size="10.00">Fiea::Engine::Content</text>
<text xml:space="preserve" text-anchor="middle" x="215.62" y="-256.5" font-family="Helvetica,sans-Serif" font-size="10.00">::IntHandler</text>
</a>
</g>
</g>
<!-- Node0&#45;&gt;Node6 -->
<g id="edge13_Node000000_Node000006" class="edge">
<title>Node0&#45;&gt;Node6</title>
<g id="a_edge13_Node000000_Node000006"><a xlink:title=" ">
<path fill="none" stroke="#63b8ff" d="M122.6,-266C134.93,-266 147.69,-266 159.64,-266"/>
<polygon fill="#63b8ff" stroke="#63b8ff" points="122.96,-262.5 112.96,-266 122.96,-269.5 122.96,-262.5"/>
</a>
</g>
</g>
<!-- Node7 -->
<g id="Node000007" class="node">
<title>Node7</title>
<g id="a_Node000007"><a xlink:href="class_fiea_1_1_engine_1_1_content_1_1_primitive_type_handler.html" target="_top" xlink:title=" ">
<polygon fill="white" stroke="#666666" points="273.12,-232 158.12,-232 158.12,-200 273.12,-200 273.12,-232"/>
<text xml:space="preserve" text-anchor="start" x="166.12" y="-218.5" font-family="Helvetica,sans-Serif" font-size="10.00">Fiea::Engine::Content</text>
<text xml:space="preserve" text-anchor="middle" x="215.62" y="-206.5" font-family="Helvetica,sans-Serif" font-size="10.00">::PrimitiveTypeHandler</text>
</a>
</g>
</g>
<!-- Node0&#45;&gt;Node7 -->
<g id="edge14_Node000000_Node000007" class="edge">
<title>Node0&#45;&gt;Node7</title>
<g id="a_edge14_Node000000_Node000007"><a xlink:title=" ">
<path fill="none" stroke="#63b8ff" d="M119.16,-246.21C133.52,-241.67 148.64,-236.88 162.5,-232.49"/>
<polygon fill="#63b8ff" stroke="#63b8ff" points="118.28,-242.82 109.8,-249.17 120.39,-249.49 118.28,-242.82"/>
</a>
</g>
</g>
<!-- Node8 -->
<g id="Node000008" class="node">
<title>Node8</title>
<g id="a_Node000008"><a xlink:href="class_fiea_1_1_engine_1_1_content_1_1_scope_factory_handler.html" target="_top" xlink:title=" ">
<polygon fill="white" stroke="#666666" points="273.88,-182 157.38,-182 157.38,-150 273.88,-150 273.88,-182"/>
<text xml:space="preserve" text-anchor="start" x="165.38" y="-168.5" font-family="Helvetica,sans-Serif" font-size="10.00">Fiea::Engine::Content</text>
<text xml:space="preserve" text-anchor="middle" x="215.62" y="-156.5" font-family="Helvetica,sans-Serif" font-size="10.00">::ScopeFactoryHandler</text>
</a>
</g>
</g>
<!-- Node0&#45;&gt;Node8 -->
<g id="edge15_Node000000_Node000008" class="edge">
<title>Node0&#45;&gt;Node8</title>
<g id="a_edge15_Node000000_Node000008"><a xlink:title=" ">
<path fill="none" stroke="#63b8ff" d="M80.62,-242.29C97.98,-226.14 122.62,-205.21 147.25,-191 152.65,-187.88 158.52,-185.03 164.45,-182.46"/>
<polygon fill="#63b8ff" stroke="#63b8ff" points="78.67,-239.32 73.82,-248.74 83.48,-244.4 78.67,-239.32"/>
</a>
</g>
</g>
<!-- Node9 -->
<g id="Node000009" class="node">
<title>Node9</title>
<g id="a_Node000009"><a xlink:href="class_fiea_1_1_engine_1_1_content_1_1_scope_handler.html" target="_top" xlink:title=" ">
<polygon fill="white" stroke="#666666" points="271.25,-132 160,-132 160,-100 271.25,-100 271.25,-132"/>
<text xml:space="preserve" text-anchor="start" x="168" y="-118.5" font-family="Helvetica,sans-Serif" font-size="10.00">Fiea::Engine::Content</text>
<text xml:space="preserve" text-anchor="middle" x="215.62" y="-106.5" font-family="Helvetica,sans-Serif" font-size="10.00">::ScopeHandler</text>
</a>
</g>
</g>
<!-- Node0&#45;&gt;Node9 -->
<g id="edge16_Node000000_Node000009" class="edge">
<title>Node0&#45;&gt;Node9</title>
<g id="a_edge16_Node000000_Node000009"><a xlink:title=" ">
<path fill="none" stroke="#63b8ff" d="M69.5,-239.95C84.58,-211.9 112.04,-167.73 147.25,-141 151.52,-137.76 156.26,-134.9 161.19,-132.38"/>
<polygon fill="#63b8ff" stroke="#63b8ff" points="66.57,-238.01 65.04,-248.49 72.77,-241.25 66.57,-238.01"/>
</a>
</g>
</g>
<!-- Node10 -->
<g id="Node000010" class="node">
<title>Node10</title>
<g id="a_Node000010"><a xlink:href="class_fiea_1_1_engine_1_1_content_1_1_special_primitives_handler.html" target="_top" xlink:title=" ">
<polygon fill="white" stroke="#666666" points="281.38,-82 149.88,-82 149.88,-50 281.38,-50 281.38,-82"/>
<text xml:space="preserve" text-anchor="start" x="157.88" y="-68.5" font-family="Helvetica,sans-Serif" font-size="10.00">Fiea::Engine::Content</text>
<text xml:space="preserve" text-anchor="middle" x="215.62" y="-56.5" font-family="Helvetica,sans-Serif" font-size="10.00">::SpecialPrimitivesHandler</text>
</a>
</g>
</g>
<!-- Node0&#45;&gt;Node10 -->
<g id="edge17_Node000000_Node000010" class="edge">
<title>Node0&#45;&gt;Node10</title>
<g id="a_edge17_Node000000_Node000010"><a xlink:title=" ">
<path fill="none" stroke="#63b8ff" d="M63.93,-238.74C75.48,-200.6 101.49,-131.47 147.25,-91 150.89,-87.78 154.99,-84.95 159.32,-82.49"/>
<polygon fill="#63b8ff" stroke="#63b8ff" points="60.65,-237.48 61.22,-248.06 67.37,-239.43 60.65,-237.48"/>
</a>
</g>
</g>
<!-- Node11 -->
<g id="Node000011" class="node">
<title>Node11</title>
<g id="a_Node000011"><a xlink:href="class_fiea_1_1_engine_1_1_content_1_1_string_handler.html" target="_top" xlink:title=" ">
<polygon fill="white" stroke="#666666" points="271.25,-32 160,-32 160,0 271.25,0 271.25,-32"/>
<text xml:space="preserve" text-anchor="start" x="168" y="-18.5" font-family="Helvetica,sans-Serif" font-size="10.00">Fiea::Engine::Content</text>
<text xml:space="preserve" text-anchor="middle" x="215.62" y="-6.5" font-family="Helvetica,sans-Serif" font-size="10.00">::StringHandler</text>
</a>
</g>
</g>
<!-- Node0&#45;&gt;Node11 -->
<g id="edge18_Node000000_Node000011" class="edge">
<title>Node0&#45;&gt;Node11</title>
<g id="a_edge18_Node000000_Node000011"><a xlink:title=" ">
<path fill="none" stroke="#63b8ff" d="M60.43,-238.29C68.29,-191.39 90.58,-96.12 147.25,-41 150.92,-37.43 155.14,-34.37 159.64,-31.73"/>
<polygon fill="#63b8ff" stroke="#63b8ff" points="56.98,-237.72 58.89,-248.14 63.9,-238.8 56.98,-237.72"/>
</a>
</g>
</g>
</g>
</svg>
