<?xml version="1.0" encoding="UTF-8" standalone="no"?>
<!DOCTYPE svg PUBLIC "-//W3C//DTD SVG 1.1//EN"
 "http://www.w3.org/Graphics/SVG/1.1/DTD/svg11.dtd">
<!-- Generated by graphviz version 13.1.0 (20250701.0955)
 -->
<!-- Title: Fiea::Engine::Content::ITypeProvider::GetClassDefinition Pages: 1 -->
<svg width="866pt" height="274pt"
 viewBox="0.00 0.00 866.00 274.00" xmlns="http://www.w3.org/2000/svg" xmlns:xlink="http://www.w3.org/1999/xlink">
<g id="graph0" class="graph" transform="scale(1 1) rotate(0) translate(4 269.55)">
<title>Fiea::Engine::Content::ITypeProvider::GetClassDefinition</title>
<!-- Node1 -->
<g id="Node000001" class="node">
<title>Node1</title>
<g id="a_Node000001"><a xlink:title=" ">
<polygon fill="#999999" stroke="#666666" points="857.75,-88.64 687.25,-88.64 687.25,-56.64 857.75,-56.64 857.75,-88.64"/>
<text xml:space="preserve" text-anchor="start" x="695.25" y="-75.14" font-family="Helvetica,sans-Serif" font-size="10.00">Fiea::Engine::Content</text>
<text xml:space="preserve" text-anchor="middle" x="772.5" y="-63.14" font-family="Helvetica,sans-Serif" font-size="10.00">::ITypeProvider::GetClassDefinition</text>
</a>
</g>
</g>
<!-- Node2 -->
<g id="Node000002" class="node">
<title>Node2</title>
<g id="a_Node000002"><a xlink:href="class_fiea_1_1_engine_1_1_content_1_1_attributed.html#adff35ee5e52ab504651c9ba6743b6776" target="_top" xlink:title="Constructor that initializes class attributes based on the provided class definition generator.">
<polygon fill="white" stroke="#666666" points="637,-179.64 525,-179.64 525,-147.64 637,-147.64 637,-179.64"/>
<text xml:space="preserve" text-anchor="start" x="533" y="-166.14" font-family="Helvetica,sans-Serif" font-size="10.00">Fiea::Engine::Content</text>
<text xml:space="preserve" text-anchor="middle" x="581" y="-154.14" font-family="Helvetica,sans-Serif" font-size="10.00">::Attributed::Attributed</text>
</a>
</g>
</g>
<!-- Node1&#45;&gt;Node2 -->
<g id="edge1_Node000001_Node000002" class="edge">
<title>Node1&#45;&gt;Node2</title>
<g id="a_edge1_Node000001_Node000002"><a xlink:title=" ">
<path fill="none" stroke="#63b8ff" d="M734.57,-94.86C711.17,-108.46 679.99,-125.66 651.25,-138.64 644.61,-141.64 637.49,-144.54 630.44,-147.24"/>
<polygon fill="#63b8ff" stroke="#63b8ff" points="736.26,-97.93 743.11,-89.86 732.72,-91.89 736.26,-97.93"/>
</a>
</g>
</g>
<!-- Node3 -->
<g id="Node000003" class="node">
<title>Node3</title>
<g id="a_Node000003"><a xlink:href="class_fiea_1_1_engine_1_1_content_1_1_attributed.html#ab4d8bae8360da2a6204951e3a3791046" target="_top" xlink:title="Retrieves all class attribute names.">
<polygon fill="white" stroke="#666666" points="280.25,-54.64 142.75,-54.64 142.75,-22.64 280.25,-22.64 280.25,-54.64"/>
<text xml:space="preserve" text-anchor="start" x="150.75" y="-41.14" font-family="Helvetica,sans-Serif" font-size="10.00">Fiea::Engine::Content</text>
<text xml:space="preserve" text-anchor="middle" x="211.5" y="-29.14" font-family="Helvetica,sans-Serif" font-size="10.00">::Attributed::ClassAttributes</text>
</a>
</g>
</g>
<!-- Node1&#45;&gt;Node3 -->
<g id="edge2_Node000001_Node000003" class="edge">
<title>Node1&#45;&gt;Node3</title>
<g id="a_edge2_Node000001_Node000003"><a xlink:title=" ">
<path fill="none" stroke="#63b8ff" d="M675.57,-66.81C563.09,-59.97 379.5,-48.8 280.65,-42.79"/>
<polygon fill="#63b8ff" stroke="#63b8ff" points="675.2,-70.29 685.39,-67.41 675.62,-63.3 675.2,-70.29"/>
</a>
</g>
</g>
<!-- Node6 -->
<g id="Node000006" class="node">
<title>Node6</title>
<g id="a_Node000006"><a xlink:href="class_fiea_1_1_engine_1_1_content_1_1_attributed.html#afb5756182b73d6326b8021f88ee51877" target="_top" xlink:title="Retrieves all instance attribute names.">
<polygon fill="white" stroke="#666666" points="286.25,-104.64 136.75,-104.64 136.75,-72.64 286.25,-72.64 286.25,-104.64"/>
<text xml:space="preserve" text-anchor="start" x="144.75" y="-91.14" font-family="Helvetica,sans-Serif" font-size="10.00">Fiea::Engine::Content</text>
<text xml:space="preserve" text-anchor="middle" x="211.5" y="-79.14" font-family="Helvetica,sans-Serif" font-size="10.00">::Attributed::InstanceAttributes</text>
</a>
</g>
</g>
<!-- Node1&#45;&gt;Node6 -->
<g id="edge5_Node000001_Node000006" class="edge">
<title>Node1&#45;&gt;Node6</title>
<g id="a_edge5_Node000001_Node000006"><a xlink:title=" ">
<path fill="none" stroke="#63b8ff" d="M675.46,-75.39C565.21,-78.55 386.74,-83.66 286.65,-86.52"/>
<polygon fill="#63b8ff" stroke="#63b8ff" points="675.49,-78.89 685.39,-75.11 675.29,-71.89 675.49,-78.89"/>
</a>
</g>
</g>
<!-- Node7 -->
<g id="Node000007" class="node">
<title>Node7</title>
<g id="a_Node000007"><a xlink:href="class_fiea_1_1_engine_1_1_content_1_1_attributed.html#af9a419e6aa1b52eed4c923a89931771e" target="_top" xlink:title="Checks if a given key is a class attribute.">
<polygon fill="white" stroke="#666666" points="651.25,-129.64 510.75,-129.64 510.75,-97.64 651.25,-97.64 651.25,-129.64"/>
<text xml:space="preserve" text-anchor="start" x="518.75" y="-116.14" font-family="Helvetica,sans-Serif" font-size="10.00">Fiea::Engine::Content</text>
<text xml:space="preserve" text-anchor="middle" x="581" y="-104.14" font-family="Helvetica,sans-Serif" font-size="10.00">::Attributed::IsClassAttribute</text>
</a>
</g>
</g>
<!-- Node1&#45;&gt;Node7 -->
<g id="edge8_Node000001_Node000007" class="edge">
<title>Node1&#45;&gt;Node7</title>
<g id="a_edge8_Node000001_Node000007"><a xlink:title=" ">
<path fill="none" stroke="#63b8ff" d="M684.01,-91.57C673.17,-93.92 662.2,-96.29 651.67,-98.57"/>
<polygon fill="#63b8ff" stroke="#63b8ff" points="684.73,-95 693.76,-89.46 683.25,-88.16 684.73,-95"/>
</a>
</g>
</g>
<!-- Node4 -->
<g id="Node000004" class="node">
<title>Node4</title>
<g id="a_Node000004"><a xlink:href="namespace_fiea_1_1_engine_1_1_tests.html#ad7d06bf277bf903f5dbc3982540b1563" target="_top" xlink:title=" ">
<polygon fill="white" stroke="#666666" points="100.75,-186.64 0,-186.64 0,-154.64 100.75,-154.64 100.75,-186.64"/>
<text xml:space="preserve" text-anchor="start" x="8" y="-173.14" font-family="Helvetica,sans-Serif" font-size="10.00">Fiea::Engine::Tests</text>
<text xml:space="preserve" text-anchor="middle" x="50.38" y="-161.14" font-family="Helvetica,sans-Serif" font-size="10.00">::TEST_CLASS</text>
</a>
</g>
</g>
<!-- Node3&#45;&gt;Node4 -->
<g id="edge3_Node000003_Node000004" class="edge">
<title>Node3&#45;&gt;Node4</title>
<g id="a_edge3_Node000003_Node000004"><a xlink:title=" ">
<path fill="none" stroke="#63b8ff" d="M140.95,-60.74C139.51,-61.67 138.11,-62.64 136.75,-63.64 114.73,-79.93 117.73,-92.16 100.75,-113.64 89.55,-127.82 76.07,-143.27 66.03,-154.51"/>
<polygon fill="#63b8ff" stroke="#63b8ff" points="142.57,-63.84 149.56,-55.88 139.13,-57.75 142.57,-63.84"/>
</a>
</g>
</g>
<!-- Node5 -->
<g id="Node000005" class="node">
<title>Node5</title>
<g id="a_Node000005"><a xlink:href="namespace_fiea_1_1_engine_1_1_tests.html#a3cdcf27a81b8b07fd7e0f633fb413ca8" target="_top" xlink:title=" ">
<polygon fill="white" stroke="#666666" points="100.75,-104.64 0,-104.64 0,-72.64 100.75,-72.64 100.75,-104.64"/>
<text xml:space="preserve" text-anchor="start" x="8" y="-91.14" font-family="Helvetica,sans-Serif" font-size="10.00">Fiea::Engine::Tests</text>
<text xml:space="preserve" text-anchor="middle" x="50.38" y="-79.14" font-family="Helvetica,sans-Serif" font-size="10.00">::TEST_CLASS</text>
</a>
</g>
</g>
<!-- Node3&#45;&gt;Node5 -->
<g id="edge4_Node000003_Node000005" class="edge">
<title>Node3&#45;&gt;Node5</title>
<g id="a_edge4_Node000003_Node000005"><a xlink:title=" ">
<path fill="none" stroke="#63b8ff" d="M147.84,-58.33C132.34,-63.2 115.95,-68.35 101.16,-73"/>
<polygon fill="#63b8ff" stroke="#63b8ff" points="148.46,-61.8 156.95,-55.47 146.36,-55.13 148.46,-61.8"/>
</a>
</g>
</g>
<!-- Node6&#45;&gt;Node4 -->
<g id="edge6_Node000006_Node000004" class="edge">
<title>Node6&#45;&gt;Node4</title>
<g id="a_edge6_Node000006_Node000004"><a xlink:title=" ">
<path fill="none" stroke="#63b8ff" d="M168.46,-110.31C141.71,-124.09 107.63,-141.66 83.14,-154.27"/>
<polygon fill="#63b8ff" stroke="#63b8ff" points="170.05,-113.42 177.34,-105.73 166.84,-107.2 170.05,-113.42"/>
</a>
</g>
</g>
<!-- Node6&#45;&gt;Node5 -->
<g id="edge7_Node000006_Node000005" class="edge">
<title>Node6&#45;&gt;Node5</title>
<g id="a_edge7_Node000006_Node000005"><a xlink:title=" ">
<path fill="none" stroke="#63b8ff" d="M125.25,-88.64C116.99,-88.64 108.82,-88.64 101.08,-88.64"/>
<polygon fill="#63b8ff" stroke="#63b8ff" points="125.01,-92.14 135.01,-88.64 125.01,-85.14 125.01,-92.14"/>
</a>
</g>
</g>
<!-- Node7&#45;&gt;Node4 -->
<g id="edge16_Node000007_Node000004" class="edge">
<title>Node7&#45;&gt;Node4</title>
<g id="a_edge16_Node000007_Node000004"><a xlink:title=" ">
<path fill="none" stroke="#63b8ff" d="M514.74,-135.73C513.37,-136.66 512.04,-137.63 510.75,-138.64 488.05,-156.43 497.83,-175.35 474.75,-192.64 404.5,-245.28 373.03,-238.38 286.25,-251.64 220.57,-261.68 198.47,-276.26 136.75,-251.64 104.11,-238.62 76.79,-206.53 62.38,-186.88"/>
<polygon fill="#63b8ff" stroke="#63b8ff" points="516.13,-138.97 522.94,-130.86 512.55,-132.96 516.13,-138.97"/>
</a>
</g>
</g>
<!-- Node7&#45;&gt;Node5 -->
<g id="edge17_Node000007_Node000005" class="edge">
<title>Node7&#45;&gt;Node5</title>
<g id="a_edge17_Node000007_Node000005"><a xlink:title=" ">
<path fill="none" stroke="#63b8ff" d="M533.92,-92.65C477.09,-68.03 376.87,-28.65 286.25,-13.64 220.7,-2.79 198.93,9.79 136.75,-13.64 105.73,-25.33 78.66,-53.98 63.71,-72.29"/>
<polygon fill="#63b8ff" stroke="#63b8ff" points="532.4,-95.81 542.97,-96.62 535.21,-89.4 532.4,-95.81"/>
</a>
</g>
</g>
<!-- Node8 -->
<g id="Node000008" class="node">
<title>Node8</title>
<g id="a_Node000008"><a xlink:href="class_fiea_1_1_engine_1_1_content_1_1_attributed.html#a7fc54279fcfc7c8bd925e6b47e396446" target="_top" xlink:title="Appends a new instance attribute.">
<polygon fill="white" stroke="#666666" points="281.75,-242.64 141.25,-242.64 141.25,-198.64 281.75,-198.64 281.75,-242.64"/>
<text xml:space="preserve" text-anchor="start" x="149.25" y="-229.14" font-family="Helvetica,sans-Serif" font-size="10.00">Fiea::Engine::Content</text>
<text xml:space="preserve" text-anchor="start" x="149.25" y="-217.14" font-family="Helvetica,sans-Serif" font-size="10.00">::Attributed::AppendInstance</text>
<text xml:space="preserve" text-anchor="middle" x="211.5" y="-205.14" font-family="Helvetica,sans-Serif" font-size="10.00">Attribute</text>
</a>
</g>
</g>
<!-- Node7&#45;&gt;Node8 -->
<g id="edge9_Node000007_Node000008" class="edge">
<title>Node7&#45;&gt;Node8</title>
<g id="a_edge9_Node000007_Node000008"><a xlink:title=" ">
<path fill="none" stroke="#63b8ff" d="M521.03,-134.29C517.53,-135.72 514.08,-137.17 510.75,-138.64 494.2,-145.95 491.68,-151.26 474.75,-157.64 411.33,-181.56 335.79,-198.57 282.1,-208.84"/>
<polygon fill="#63b8ff" stroke="#63b8ff" points="522.17,-137.61 530.19,-130.69 519.61,-131.09 522.17,-137.61"/>
</a>
</g>
</g>
<!-- Node9 -->
<g id="Node000009" class="node">
<title>Node9</title>
<g id="a_Node000009"><a xlink:href="class_fiea_1_1_engine_1_1_content_1_1_attributed.html#a2bf121c3108ae47b421b831a88b19a49" target="_top" xlink:title="Checks if a given key is an instance attribute.">
<polygon fill="white" stroke="#666666" points="474.75,-148.64 322.25,-148.64 322.25,-116.64 474.75,-116.64 474.75,-148.64"/>
<text xml:space="preserve" text-anchor="start" x="330.25" y="-135.14" font-family="Helvetica,sans-Serif" font-size="10.00">Fiea::Engine::Content</text>
<text xml:space="preserve" text-anchor="middle" x="398.5" y="-123.14" font-family="Helvetica,sans-Serif" font-size="10.00">::Attributed::IsInstanceAttribute</text>
</a>
</g>
</g>
<!-- Node7&#45;&gt;Node9 -->
<g id="edge12_Node000007_Node000009" class="edge">
<title>Node7&#45;&gt;Node9</title>
<g id="a_edge12_Node000007_Node000009"><a xlink:title=" ">
<path fill="none" stroke="#63b8ff" d="M499.18,-122.15C491.13,-123 482.98,-123.85 474.99,-124.7"/>
<polygon fill="#63b8ff" stroke="#63b8ff" points="499.39,-125.65 508.97,-121.12 498.66,-118.69 499.39,-125.65"/>
</a>
</g>
</g>
<!-- Node8&#45;&gt;Node4 -->
<g id="edge10_Node000008_Node000004" class="edge">
<title>Node8&#45;&gt;Node4</title>
<g id="a_edge10_Node000008_Node000004"><a xlink:title=" ">
<path fill="none" stroke="#63b8ff" d="M130.3,-195.44C120.26,-192.29 110.24,-189.14 100.87,-186.19"/>
<polygon fill="#63b8ff" stroke="#63b8ff" points="129.14,-198.74 139.72,-198.4 131.23,-192.07 129.14,-198.74"/>
</a>
</g>
</g>
<!-- Node8&#45;&gt;Node5 -->
<g id="edge11_Node000008_Node000005" class="edge">
<title>Node8&#45;&gt;Node5</title>
<g id="a_edge11_Node000008_Node000005"><a xlink:title=" ">
<path fill="none" stroke="#63b8ff" d="M174.85,-191.07C142.76,-164.45 96.8,-126.32 70.96,-104.89"/>
<polygon fill="#63b8ff" stroke="#63b8ff" points="172.41,-193.59 182.34,-197.28 176.88,-188.21 172.41,-193.59"/>
</a>
</g>
</g>
<!-- Node9&#45;&gt;Node4 -->
<g id="edge14_Node000009_Node000004" class="edge">
<title>Node9&#45;&gt;Node4</title>
<g id="a_edge14_Node000009_Node000004"><a xlink:title=" ">
<path fill="none" stroke="#63b8ff" d="M310.62,-143.77C302.39,-144.77 294.16,-145.74 286.25,-146.64 222.31,-153.93 148.46,-161.31 100.9,-165.92"/>
<polygon fill="#63b8ff" stroke="#63b8ff" points="310.82,-147.28 320.32,-142.59 309.97,-140.33 310.82,-147.28"/>
</a>
</g>
</g>
<!-- Node9&#45;&gt;Node5 -->
<g id="edge15_Node000009_Node000005" class="edge">
<title>Node9&#45;&gt;Node5</title>
<g id="a_edge15_Node000009_Node000005"><a xlink:title=" ">
<path fill="none" stroke="#63b8ff" d="M310.63,-130.92C259.65,-128.76 194.16,-124.02 136.75,-113.64 125.05,-111.53 112.66,-108.42 101.06,-105.12"/>
<polygon fill="#63b8ff" stroke="#63b8ff" points="310.3,-134.41 320.43,-131.3 310.58,-127.41 310.3,-134.41"/>
</a>
</g>
</g>
<!-- Node9&#45;&gt;Node6 -->
<g id="edge13_Node000009_Node000006" class="edge">
<title>Node9&#45;&gt;Node6</title>
<g id="a_edge13_Node000009_Node000006"><a xlink:title=" ">
<path fill="none" stroke="#63b8ff" d="M317.18,-113.54C305.42,-110.74 293.39,-107.88 281.87,-105.14"/>
<polygon fill="#63b8ff" stroke="#63b8ff" points="316.34,-116.94 326.88,-115.85 317.96,-110.13 316.34,-116.94"/>
</a>
</g>
</g>
</g>
</svg>
