<?xml version="1.0" encoding="UTF-8" standalone="no"?>
<!DOCTYPE svg PUBLIC "-//W3C//DTD SVG 1.1//EN"
 "http://www.w3.org/Graphics/SVG/1.1/DTD/svg11.dtd">
<!-- Generated by graphviz version 13.1.0 (20250701.0955)
 -->
<!-- Title: Fiea::Engine::Clock::ITimeProvider Pages: 1 -->
<svg width="110pt" height="176pt"
 viewBox="0.00 0.00 110.00 176.00" xmlns="http://www.w3.org/2000/svg" xmlns:xlink="http://www.w3.org/1999/xlink">
<g id="graph0" class="graph" transform="scale(1 1) rotate(0) translate(4 172)">
<title>Fiea::Engine::Clock::ITimeProvider</title>
<!-- Node1 -->
<g id="Node000001" class="node">
<title>Node1</title>
<g id="a_Node000001"><a xlink:title=" ">
<polygon fill="#999999" stroke="#666666" points="102.25,-168 0,-168 0,-136 102.25,-136 102.25,-168"/>
<text xml:space="preserve" text-anchor="start" x="8" y="-154.5" font-family="Helvetica,sans-Serif" font-size="10.00">Fiea::Engine::Clock</text>
<text xml:space="preserve" text-anchor="middle" x="51.12" y="-142.5" font-family="Helvetica,sans-Serif" font-size="10.00">::ITimeProvider</text>
</a>
</g>
</g>
<!-- Node2 -->
<g id="Node000002" class="node">
<title>Node2</title>
<g id="a_Node000002"><a xlink:href="struct_fiea_1_1_engine_1_1_clock_1_1_i_time_updater.html" target="_top" xlink:title=" ">
<polygon fill="white" stroke="#666666" points="102.25,-100 0,-100 0,-68 102.25,-68 102.25,-100"/>
<text xml:space="preserve" text-anchor="start" x="8" y="-86.5" font-family="Helvetica,sans-Serif" font-size="10.00">Fiea::Engine::Clock</text>
<text xml:space="preserve" text-anchor="middle" x="51.12" y="-74.5" font-family="Helvetica,sans-Serif" font-size="10.00">::ITimeUpdater</text>
</a>
</g>
</g>
<!-- Node1&#45;&gt;Node2 -->
<g id="edge1_Node000001_Node000002" class="edge">
<title>Node1&#45;&gt;Node2</title>
<g id="a_edge1_Node000001_Node000002"><a xlink:title=" ">
<path fill="none" stroke="#63b8ff" d="M51.12,-124.31C51.12,-116.12 51.12,-107.38 51.12,-100.22"/>
<polygon fill="#63b8ff" stroke="#63b8ff" points="47.63,-124.18 51.13,-134.18 54.63,-124.18 47.63,-124.18"/>
</a>
</g>
</g>
<!-- Node3 -->
<g id="Node000003" class="node">
<title>Node3</title>
<g id="a_Node000003"><a xlink:href="class_fiea_1_1_engine_1_1_clock_1_1_clock_service.html" target="_top" xlink:title=" ">
<polygon fill="white" stroke="#666666" points="102.25,-32 0,-32 0,0 102.25,0 102.25,-32"/>
<text xml:space="preserve" text-anchor="start" x="8" y="-18.5" font-family="Helvetica,sans-Serif" font-size="10.00">Fiea::Engine::Clock</text>
<text xml:space="preserve" text-anchor="middle" x="51.12" y="-6.5" font-family="Helvetica,sans-Serif" font-size="10.00">::ClockService</text>
</a>
</g>
</g>
<!-- Node2&#45;&gt;Node3 -->
<g id="edge2_Node000002_Node000003" class="edge">
<title>Node2&#45;&gt;Node3</title>
<g id="a_edge2_Node000002_Node000003"><a xlink:title=" ">
<path fill="none" stroke="#63b8ff" d="M51.12,-56.31C51.12,-48.12 51.12,-39.38 51.12,-32.22"/>
<polygon fill="#63b8ff" stroke="#63b8ff" points="47.63,-56.18 51.13,-66.18 54.63,-56.18 47.63,-56.18"/>
</a>
</g>
</g>
</g>
</svg>
