<?xml version="1.0" encoding="UTF-8" standalone="no"?>
<!DOCTYPE svg PUBLIC "-//W3C//DTD SVG 1.1//EN"
 "http://www.w3.org/Graphics/SVG/1.1/DTD/svg11.dtd">
<!-- Generated by graphviz version 13.1.0 (20250701.0955)
 -->
<!-- Title: Fiea::Engine::Content::IAbstractFactory&lt; BaseType &gt; Pages: 1 -->
<svg width="164pt" height="164pt"
 viewBox="0.00 0.00 164.00 164.00" xmlns="http://www.w3.org/2000/svg" xmlns:xlink="http://www.w3.org/1999/xlink">
<g id="graph0" class="graph" transform="scale(1 1) rotate(0) translate(4 160)">
<title>Fiea::Engine::Content::IAbstractFactory&lt; BaseType &gt;</title>
<!-- Node1 -->
<g id="Node000001" class="node">
<title>Node1</title>
<g id="a_Node000001"><a xlink:title=" ">
<polygon fill="#999999" stroke="#666666" points="156.25,-32 0,-32 0,0 156.25,0 156.25,-32"/>
<text xml:space="preserve" text-anchor="start" x="8" y="-18.5" font-family="Helvetica,sans-Serif" font-size="10.00">Fiea::Engine::Content</text>
<text xml:space="preserve" text-anchor="middle" x="78.12" y="-6.5" font-family="Helvetica,sans-Serif" font-size="10.00">::IAbstractFactory&lt; BaseType &gt;</text>
</a>
</g>
</g>
<!-- Node2 -->
<g id="Node000002" class="node">
<title>Node2</title>
<g id="a_Node000002"><a xlink:href="struct_fiea_1_1_engine_1_1_content_1_1_i_factory_base.html" target="_top" xlink:title=" ">
<polygon fill="white" stroke="#666666" points="133.75,-100 22.5,-100 22.5,-68 133.75,-68 133.75,-100"/>
<text xml:space="preserve" text-anchor="start" x="30.5" y="-86.5" font-family="Helvetica,sans-Serif" font-size="10.00">Fiea::Engine::Content</text>
<text xml:space="preserve" text-anchor="middle" x="78.12" y="-74.5" font-family="Helvetica,sans-Serif" font-size="10.00">::IFactoryBase</text>
</a>
</g>
</g>
<!-- Node2&#45;&gt;Node1 -->
<g id="edge1_Node000001_Node000002" class="edge">
<title>Node2&#45;&gt;Node1</title>
<g id="a_edge1_Node000001_Node000002"><a xlink:title=" ">
<path fill="none" stroke="#63b8ff" d="M78.12,-56.31C78.12,-48.12 78.12,-39.38 78.12,-32.22"/>
<polygon fill="#63b8ff" stroke="#63b8ff" points="74.63,-56.18 78.13,-66.18 81.63,-56.18 74.63,-56.18"/>
</a>
</g>
</g>
<!-- Node3 -->
<g id="Node000003" class="node">
<title>Node3</title>
<g id="a_Node000003"><a xlink:href="class_fiea_1_1_engine_1_1_r_t_t_i.html" target="_top" xlink:title=" ">
<polygon fill="white" stroke="#666666" points="127.38,-156 28.87,-156 28.87,-136 127.38,-136 127.38,-156"/>
<text xml:space="preserve" text-anchor="middle" x="78.12" y="-142.5" font-family="Helvetica,sans-Serif" font-size="10.00">Fiea::Engine::RTTI</text>
</a>
</g>
</g>
<!-- Node3&#45;&gt;Node2 -->
<g id="edge2_Node000002_Node000003" class="edge">
<title>Node3&#45;&gt;Node2</title>
<g id="a_edge2_Node000002_Node000003"><a xlink:title=" ">
<path fill="none" stroke="#63b8ff" d="M78.12,-124.31C78.12,-116.37 78.12,-107.46 78.12,-100.14"/>
<polygon fill="#63b8ff" stroke="#63b8ff" points="74.63,-124.11 78.13,-134.11 81.63,-124.11 74.63,-124.11"/>
</a>
</g>
</g>
</g>
</svg>
