<?xml version="1.0" encoding="UTF-8" standalone="no"?>
<!DOCTYPE svg PUBLIC "-//W3C//DTD SVG 1.1//EN"
 "http://www.w3.org/Graphics/SVG/1.1/DTD/svg11.dtd">
<!-- Generated by graphviz version 13.1.0 (20250701.0955)
 -->
<!-- Title: Fiea::Engine::Memory::IMemoryService::DestroyHeap Pages: 1 -->
<svg width="302pt" height="90pt"
 viewBox="0.00 0.00 302.00 90.00" xmlns="http://www.w3.org/2000/svg" xmlns:xlink="http://www.w3.org/1999/xlink">
<g id="graph0" class="graph" transform="scale(1 1) rotate(0) translate(4 86)">
<title>Fiea::Engine::Memory::IMemoryService::DestroyHeap</title>
<!-- Node1 -->
<g id="Node000001" class="node">
<title>Node1</title>
<g id="a_Node000001"><a xlink:title=" ">
<polygon fill="#999999" stroke="#666666" points="293.75,-57 136.75,-57 136.75,-25 293.75,-25 293.75,-57"/>
<text xml:space="preserve" text-anchor="start" x="144.75" y="-43.5" font-family="Helvetica,sans-Serif" font-size="10.00">Fiea::Engine::Memory</text>
<text xml:space="preserve" text-anchor="middle" x="215.25" y="-31.5" font-family="Helvetica,sans-Serif" font-size="10.00">::IMemoryService::DestroyHeap</text>
</a>
</g>
</g>
<!-- Node2 -->
<g id="Node000002" class="node">
<title>Node2</title>
<g id="a_Node000002"><a xlink:href="namespace_fiea_1_1_engine_1_1_tests.html#a16fc13573dc263e0c19766314b40d399" target="_top" xlink:title=" ">
<polygon fill="white" stroke="#666666" points="100.75,-82 0,-82 0,-50 100.75,-50 100.75,-82"/>
<text xml:space="preserve" text-anchor="start" x="8" y="-68.5" font-family="Helvetica,sans-Serif" font-size="10.00">Fiea::Engine::Tests</text>
<text xml:space="preserve" text-anchor="middle" x="50.38" y="-56.5" font-family="Helvetica,sans-Serif" font-size="10.00">::TEST_CLASS</text>
</a>
</g>
</g>
<!-- Node1&#45;&gt;Node2 -->
<g id="edge1_Node000001_Node000002" class="edge">
<title>Node1&#45;&gt;Node2</title>
<g id="a_edge1_Node000001_Node000002"><a xlink:title=" ">
<path fill="none" stroke="#63b8ff" d="M125.26,-54.66C116.95,-55.94 108.74,-57.19 100.99,-58.38"/>
<polygon fill="#63b8ff" stroke="#63b8ff" points="125.78,-58.12 135.13,-53.14 124.72,-51.2 125.78,-58.12"/>
</a>
</g>
</g>
<!-- Node3 -->
<g id="Node000003" class="node">
<title>Node3</title>
<g id="a_Node000003"><a xlink:href="namespace_fiea_1_1_engine_1_1_tests.html#aceedc88e68490f2629fe8c4dcced8ff3" target="_top" xlink:title=" ">
<polygon fill="white" stroke="#666666" points="100.75,-32 0,-32 0,0 100.75,0 100.75,-32"/>
<text xml:space="preserve" text-anchor="start" x="8" y="-18.5" font-family="Helvetica,sans-Serif" font-size="10.00">Fiea::Engine::Tests</text>
<text xml:space="preserve" text-anchor="middle" x="50.38" y="-6.5" font-family="Helvetica,sans-Serif" font-size="10.00">::TEST_CLASS</text>
</a>
</g>
</g>
<!-- Node1&#45;&gt;Node3 -->
<g id="edge2_Node000001_Node000003" class="edge">
<title>Node1&#45;&gt;Node3</title>
<g id="a_edge2_Node000001_Node000003"><a xlink:title=" ">
<path fill="none" stroke="#63b8ff" d="M125.26,-27.34C116.95,-26.06 108.74,-24.81 100.99,-23.62"/>
<polygon fill="#63b8ff" stroke="#63b8ff" points="124.72,-30.8 135.13,-28.86 125.78,-23.88 124.72,-30.8"/>
</a>
</g>
</g>
</g>
</svg>
