<?xml version="1.0" encoding="UTF-8" standalone="no"?>
<!DOCTYPE svg PUBLIC "-//W3C//DTD SVG 1.1//EN"
 "http://www.w3.org/Graphics/SVG/1.1/DTD/svg11.dtd">
<!-- Generated by graphviz version 13.1.0 (20250701.0955)
 -->
<!-- Title: Fiea::Engine::Content::IFactoryService::Create Pages: 1 -->
<svg width="719pt" height="280pt"
 viewBox="0.00 0.00 719.00 280.00" xmlns="http://www.w3.org/2000/svg" xmlns:xlink="http://www.w3.org/1999/xlink">
<g id="graph0" class="graph" transform="scale(1 1) rotate(0) translate(4 276)">
<title>Fiea::Engine::Content::IFactoryService::Create</title>
<!-- Node1 -->
<g id="Node000001" class="node">
<title>Node1</title>
<g id="a_Node000001"><a xlink:title=" ">
<polygon fill="#999999" stroke="#666666" points="710.5,-160 584.25,-160 584.25,-128 710.5,-128 710.5,-160"/>
<text xml:space="preserve" text-anchor="start" x="592.25" y="-146.5" font-family="Helvetica,sans-Serif" font-size="10.00">Fiea::Engine::Content</text>
<text xml:space="preserve" text-anchor="middle" x="647.38" y="-134.5" font-family="Helvetica,sans-Serif" font-size="10.00">::IFactoryService::Create</text>
</a>
</g>
</g>
<!-- Node2 -->
<g id="Node000002" class="node">
<title>Node2</title>
<g id="a_Node000002"><a xlink:href="class_fiea_1_1_engine_1_1_content_1_1_scope_writer.html#a0a79e65b8a84d1a7275153c32e4d499a" target="_top" xlink:title=" ">
<polygon fill="white" stroke="#666666" points="320.75,-272 166,-272 166,-240 320.75,-240 320.75,-272"/>
<text xml:space="preserve" text-anchor="start" x="174" y="-258.5" font-family="Helvetica,sans-Serif" font-size="10.00">Fiea::Engine::Content</text>
<text xml:space="preserve" text-anchor="middle" x="243.38" y="-246.5" font-family="Helvetica,sans-Serif" font-size="10.00">::ScopeWriter::AddActionObject</text>
</a>
</g>
</g>
<!-- Node1&#45;&gt;Node2 -->
<g id="edge1_Node000001_Node000002" class="edge">
<title>Node1&#45;&gt;Node2</title>
<g id="a_edge1_Node000001_Node000002"><a xlink:title=" ">
<path fill="none" stroke="#63b8ff" d="M629.02,-169.67C611.64,-192.96 582.59,-225.89 548.25,-241 476.09,-272.75 384.78,-272.58 321.18,-266.91"/>
<polygon fill="#63b8ff" stroke="#63b8ff" points="631.84,-171.75 634.85,-161.59 626.16,-167.65 631.84,-171.75"/>
</a>
</g>
</g>
<!-- Node4 -->
<g id="Node000004" class="node">
<title>Node4</title>
<g id="a_Node000004"><a xlink:href="class_fiea_1_1_engine_1_1_content_1_1_scope_writer.html#a8baf6cd60c0807e9e91054132db5183f" target="_top" xlink:title=" ">
<polygon fill="white" stroke="#666666" points="548.25,-232 356.75,-232 356.75,-200 548.25,-200 548.25,-232"/>
<text xml:space="preserve" text-anchor="start" x="364.75" y="-218.5" font-family="Helvetica,sans-Serif" font-size="10.00">Fiea::Engine::Content</text>
<text xml:space="preserve" text-anchor="middle" x="452.5" y="-206.5" font-family="Helvetica,sans-Serif" font-size="10.00">::ScopeWriter::AddActionToPredecessor</text>
</a>
</g>
</g>
<!-- Node1&#45;&gt;Node4 -->
<g id="edge3_Node000001_Node000004" class="edge">
<title>Node1&#45;&gt;Node4</title>
<g id="a_edge3_Node000001_Node000004"><a xlink:title=" ">
<path fill="none" stroke="#63b8ff" d="M606.22,-165.35C588.74,-174.08 567.81,-183.81 548.25,-191 539.87,-194.08 530.94,-196.95 522.04,-199.57"/>
<polygon fill="#63b8ff" stroke="#63b8ff" points="607.4,-168.67 614.73,-161.03 604.23,-162.43 607.4,-168.67"/>
</a>
</g>
</g>
<!-- Node5 -->
<g id="Node000005" class="node">
<title>Node5</title>
<g id="a_Node000005"><a xlink:href="class_fiea_1_1_engine_1_1_content_1_1_scope_writer.html#a707086401a09fd8b2f07d65a1f95fd72" target="_top" xlink:title=" ">
<polygon fill="white" stroke="#666666" points="529.12,-182 375.88,-182 375.88,-150 529.12,-150 529.12,-182"/>
<text xml:space="preserve" text-anchor="start" x="383.88" y="-168.5" font-family="Helvetica,sans-Serif" font-size="10.00">Fiea::Engine::Content</text>
<text xml:space="preserve" text-anchor="middle" x="452.5" y="-156.5" font-family="Helvetica,sans-Serif" font-size="10.00">::ScopeWriter::AddGameObject</text>
</a>
</g>
</g>
<!-- Node1&#45;&gt;Node5 -->
<g id="edge5_Node000001_Node000005" class="edge">
<title>Node1&#45;&gt;Node5</title>
<g id="a_edge5_Node000001_Node000005"><a xlink:title=" ">
<path fill="none" stroke="#63b8ff" d="M572.63,-152.41C558.54,-154.02 543.77,-155.7 529.62,-157.32"/>
<polygon fill="#63b8ff" stroke="#63b8ff" points="572.71,-155.93 582.25,-151.31 571.92,-148.97 572.71,-155.93"/>
</a>
</g>
</g>
<!-- Node6 -->
<g id="Node000006" class="node">
<title>Node6</title>
<g id="a_Node000006"><a xlink:href="class_fiea_1_1_engine_1_1_content_1_1_scope_writer.html#a77fe1b124acb1dd1bd3f2d7f104035cf" target="_top" xlink:title=" ">
<polygon fill="white" stroke="#666666" points="306.5,-151 180.25,-151 180.25,-119 306.5,-119 306.5,-151"/>
<text xml:space="preserve" text-anchor="start" x="188.25" y="-137.5" font-family="Helvetica,sans-Serif" font-size="10.00">Fiea::Engine::Content</text>
<text xml:space="preserve" text-anchor="middle" x="243.38" y="-125.5" font-family="Helvetica,sans-Serif" font-size="10.00">::ScopeWriter::AddScope</text>
</a>
</g>
</g>
<!-- Node1&#45;&gt;Node6 -->
<g id="edge10_Node000001_Node000006" class="edge">
<title>Node1&#45;&gt;Node6</title>
<g id="a_edge10_Node000001_Node000006"><a xlink:title=" ">
<path fill="none" stroke="#63b8ff" d="M572.37,-141.65C564.23,-141.42 556.07,-141.2 548.25,-141 464.77,-138.9 368.38,-137.1 306.94,-136.04"/>
<polygon fill="#63b8ff" stroke="#63b8ff" points="572.21,-145.15 582.31,-141.94 572.42,-138.15 572.21,-145.15"/>
</a>
</g>
</g>
<!-- Node10 -->
<g id="Node000010" class="node">
<title>Node10</title>
<g id="a_Node000010"><a xlink:href="class_fiea_1_1_engine_1_1_content_1_1_scope_writer.html#a542b6ab60fcbb7b17a9e203df367ca01" target="_top" xlink:title=" ">
<polygon fill="white" stroke="#666666" points="528,-94 377,-94 377,-50 528,-50 528,-94"/>
<text xml:space="preserve" text-anchor="start" x="385" y="-80.5" font-family="Helvetica,sans-Serif" font-size="10.00">Fiea::Engine::Content</text>
<text xml:space="preserve" text-anchor="start" x="385" y="-68.5" font-family="Helvetica,sans-Serif" font-size="10.00">::ScopeWriter::AddWhileAction</text>
<text xml:space="preserve" text-anchor="middle" x="452.5" y="-56.5" font-family="Helvetica,sans-Serif" font-size="10.00">ParamObject</text>
</a>
</g>
</g>
<!-- Node1&#45;&gt;Node10 -->
<g id="edge11_Node000001_Node000010" class="edge">
<title>Node1&#45;&gt;Node10</title>
<g id="a_edge11_Node000001_Node000010"><a xlink:title=" ">
<path fill="none" stroke="#63b8ff" d="M592.07,-123.73C567.61,-114.6 538.65,-103.79 513.54,-94.41"/>
<polygon fill="#63b8ff" stroke="#63b8ff" points="590.6,-126.91 601.19,-127.13 593.05,-120.36 590.6,-126.91"/>
</a>
</g>
</g>
<!-- Node12 -->
<g id="Node000012" class="node">
<title>Node12</title>
<g id="a_Node000012"><a xlink:href="namespace_fiea_1_1_engine_1_1_tests.html#a68f566c6aeab43c3e521cc48e0c08362" target="_top" xlink:title=" ">
<polygon fill="white" stroke="#666666" points="502.88,-32 402.12,-32 402.12,0 502.88,0 502.88,-32"/>
<text xml:space="preserve" text-anchor="start" x="410.12" y="-18.5" font-family="Helvetica,sans-Serif" font-size="10.00">Fiea::Engine::Tests</text>
<text xml:space="preserve" text-anchor="middle" x="452.5" y="-6.5" font-family="Helvetica,sans-Serif" font-size="10.00">::TEST_CLASS</text>
</a>
</g>
</g>
<!-- Node1&#45;&gt;Node12 -->
<g id="edge13_Node000001_Node000012" class="edge">
<title>Node1&#45;&gt;Node12</title>
<g id="a_edge13_Node000001_Node000012"><a xlink:title=" ">
<path fill="none" stroke="#63b8ff" d="M628.79,-118.7C611.1,-95.14 581.7,-60.77 548.25,-41 534.63,-32.95 518.4,-27.45 503.26,-23.71"/>
<polygon fill="#63b8ff" stroke="#63b8ff" points="625.79,-120.53 634.52,-126.53 631.44,-116.4 625.79,-120.53"/>
</a>
</g>
</g>
<!-- Node3 -->
<g id="Node000003" class="node">
<title>Node3</title>
<g id="a_Node000003"><a xlink:href="class_fiea_1_1_engine_1_1_content_1_1_action_handler.html#a392af20cfeb37d539b88183bc9672f7a" target="_top" xlink:title=" ">
<polygon fill="white" stroke="#666666" points="130,-272 0,-272 0,-240 130,-240 130,-272"/>
<text xml:space="preserve" text-anchor="start" x="8" y="-258.5" font-family="Helvetica,sans-Serif" font-size="10.00">Fiea::Engine::Content</text>
<text xml:space="preserve" text-anchor="middle" x="65" y="-246.5" font-family="Helvetica,sans-Serif" font-size="10.00">::ActionHandler::EnterKey</text>
</a>
</g>
</g>
<!-- Node2&#45;&gt;Node3 -->
<g id="edge2_Node000002_Node000003" class="edge">
<title>Node2&#45;&gt;Node3</title>
<g id="a_edge2_Node000002_Node000003"><a xlink:title=" ">
<path fill="none" stroke="#63b8ff" d="M154.23,-256C146.22,-256 138.21,-256 130.47,-256"/>
<polygon fill="#63b8ff" stroke="#63b8ff" points="154.01,-259.5 164.01,-256 154.01,-252.5 154.01,-259.5"/>
</a>
</g>
</g>
<!-- Node4&#45;&gt;Node2 -->
<g id="edge4_Node000004_Node000002" class="edge">
<title>Node4&#45;&gt;Node2</title>
<g id="a_edge4_Node000004_Node000002"><a xlink:title=" ">
<path fill="none" stroke="#63b8ff" d="M355.07,-234.62C343.71,-236.82 332.25,-239.03 321.22,-241.16"/>
<polygon fill="#63b8ff" stroke="#63b8ff" points="355.72,-238.06 364.87,-232.73 354.39,-231.19 355.72,-238.06"/>
</a>
</g>
</g>
<!-- Node5&#45;&gt;Node6 -->
<g id="edge6_Node000005_Node000006" class="edge">
<title>Node5&#45;&gt;Node6</title>
<g id="a_edge6_Node000005_Node000006"><a xlink:title=" ">
<path fill="none" stroke="#63b8ff" d="M364.28,-152.95C344.95,-150.05 324.84,-147.04 306.74,-144.33"/>
<polygon fill="#63b8ff" stroke="#63b8ff" points="363.65,-156.39 374.05,-154.41 364.68,-149.47 363.65,-156.39"/>
</a>
</g>
</g>
<!-- Node7 -->
<g id="Node000007" class="node">
<title>Node7</title>
<g id="a_Node000007"><a xlink:href="class_fiea_1_1_engine_1_1_content_1_1_game_object_handler.html#a626573aebcd7beceb84dbd69bc15105b" target="_top" xlink:title=" ">
<polygon fill="white" stroke="#666666" points="123.25,-219 6.75,-219 6.75,-175 123.25,-175 123.25,-219"/>
<text xml:space="preserve" text-anchor="start" x="14.75" y="-205.5" font-family="Helvetica,sans-Serif" font-size="10.00">Fiea::Engine::Content</text>
<text xml:space="preserve" text-anchor="start" x="14.75" y="-193.5" font-family="Helvetica,sans-Serif" font-size="10.00">::GameObjectHandler::</text>
<text xml:space="preserve" text-anchor="middle" x="65" y="-181.5" font-family="Helvetica,sans-Serif" font-size="10.00">EnterKey</text>
</a>
</g>
</g>
<!-- Node6&#45;&gt;Node7 -->
<g id="edge7_Node000006_Node000007" class="edge">
<title>Node6&#45;&gt;Node7</title>
<g id="a_edge7_Node000006_Node000007"><a xlink:title=" ">
<path fill="none" stroke="#63b8ff" d="M184.94,-155.19C165.32,-162.08 143.39,-169.8 123.74,-176.7"/>
<polygon fill="#63b8ff" stroke="#63b8ff" points="185.87,-158.57 194.14,-151.95 183.55,-151.97 185.87,-158.57"/>
</a>
</g>
</g>
<!-- Node8 -->
<g id="Node000008" class="node">
<title>Node8</title>
<g id="a_Node000008"><a xlink:href="class_fiea_1_1_engine_1_1_content_1_1_scope_factory_handler.html#ae5e7d2b134d20238fa9be43f936bf80b" target="_top" xlink:title=" ">
<polygon fill="white" stroke="#666666" points="123.25,-157 6.75,-157 6.75,-113 123.25,-113 123.25,-157"/>
<text xml:space="preserve" text-anchor="start" x="14.75" y="-143.5" font-family="Helvetica,sans-Serif" font-size="10.00">Fiea::Engine::Content</text>
<text xml:space="preserve" text-anchor="start" x="14.75" y="-131.5" font-family="Helvetica,sans-Serif" font-size="10.00">::ScopeFactoryHandler</text>
<text xml:space="preserve" text-anchor="middle" x="65" y="-119.5" font-family="Helvetica,sans-Serif" font-size="10.00">::EnterKey</text>
</a>
</g>
</g>
<!-- Node6&#45;&gt;Node8 -->
<g id="edge8_Node000006_Node000008" class="edge">
<title>Node6&#45;&gt;Node8</title>
<g id="a_edge8_Node000006_Node000008"><a xlink:title=" ">
<path fill="none" stroke="#63b8ff" d="M168.77,-135C153.65,-135 137.95,-135 123.49,-135"/>
<polygon fill="#63b8ff" stroke="#63b8ff" points="168.68,-138.5 178.68,-135 168.68,-131.5 168.68,-138.5"/>
</a>
</g>
</g>
<!-- Node9 -->
<g id="Node000009" class="node">
<title>Node9</title>
<g id="a_Node000009"><a xlink:href="class_fiea_1_1_engine_1_1_content_1_1_scope_handler.html#a593999f6a2df6002af8db4629d8a0176" target="_top" xlink:title=" ">
<polygon fill="white" stroke="#666666" points="130,-95 0,-95 0,-63 130,-63 130,-95"/>
<text xml:space="preserve" text-anchor="start" x="8" y="-81.5" font-family="Helvetica,sans-Serif" font-size="10.00">Fiea::Engine::Content</text>
<text xml:space="preserve" text-anchor="middle" x="65" y="-69.5" font-family="Helvetica,sans-Serif" font-size="10.00">::ScopeHandler::EnterKey</text>
</a>
</g>
</g>
<!-- Node6&#45;&gt;Node9 -->
<g id="edge9_Node000006_Node000009" class="edge">
<title>Node6&#45;&gt;Node9</title>
<g id="a_edge9_Node000006_Node000009"><a xlink:title=" ">
<path fill="none" stroke="#63b8ff" d="M179.72,-115.11C159.47,-108.68 137.27,-101.63 117.9,-95.48"/>
<polygon fill="#63b8ff" stroke="#63b8ff" points="178.38,-118.35 188.97,-118.04 180.5,-111.68 178.38,-118.35"/>
</a>
</g>
</g>
<!-- Node11 -->
<g id="Node000011" class="node">
<title>Node11</title>
<g id="a_Node000011"><a xlink:href="class_fiea_1_1_engine_1_1_content_1_1_action_while_param_handler.html#a0d3cab60b559a3be182c4534883d4614" target="_top" xlink:title=" ">
<polygon fill="white" stroke="#666666" points="311.75,-94 175,-94 175,-50 311.75,-50 311.75,-94"/>
<text xml:space="preserve" text-anchor="start" x="183" y="-80.5" font-family="Helvetica,sans-Serif" font-size="10.00">Fiea::Engine::Content</text>
<text xml:space="preserve" text-anchor="start" x="183" y="-68.5" font-family="Helvetica,sans-Serif" font-size="10.00">::ActionWhileParamHandler</text>
<text xml:space="preserve" text-anchor="middle" x="243.38" y="-56.5" font-family="Helvetica,sans-Serif" font-size="10.00">::EnterKey</text>
</a>
</g>
</g>
<!-- Node10&#45;&gt;Node11 -->
<g id="edge12_Node000010_Node000011" class="edge">
<title>Node10&#45;&gt;Node11</title>
<g id="a_edge12_Node000010_Node000011"><a xlink:title=" ">
<path fill="none" stroke="#63b8ff" d="M365.21,-72C347.5,-72 329.1,-72 312.16,-72"/>
<polygon fill="#63b8ff" stroke="#63b8ff" points="365.21,-75.5 375.21,-72 365.21,-68.5 365.21,-75.5"/>
</a>
</g>
</g>
</g>
</svg>
