<?xml version="1.0" encoding="UTF-8" standalone="no"?>
<!DOCTYPE svg PUBLIC "-//W3C//DTD SVG 1.1//EN"
 "http://www.w3.org/Graphics/SVG/1.1/DTD/svg11.dtd">
<!-- Generated by graphviz version 13.1.0 (20250701.0955)
 -->
<!-- Title: Fiea::Engine::Content::IFactoryService::Create Pages: 1 -->
<svg width="465pt" height="100pt"
 viewBox="0.00 0.00 465.00 100.00" xmlns="http://www.w3.org/2000/svg" xmlns:xlink="http://www.w3.org/1999/xlink">
<g id="graph0" class="graph" transform="scale(1 1) rotate(0) translate(4 96)">
<title>Fiea::Engine::Content::IFactoryService::Create</title>
<!-- Node1 -->
<g id="Node000001" class="node">
<title>Node1</title>
<g id="a_Node000001"><a xlink:title=" ">
<polygon fill="#999999" stroke="#666666" points="126.25,-54 0,-54 0,-22 126.25,-22 126.25,-54"/>
<text xml:space="preserve" text-anchor="start" x="8" y="-40.5" font-family="Helvetica,sans-Serif" font-size="10.00">Fiea::Engine::Content</text>
<text xml:space="preserve" text-anchor="middle" x="63.12" y="-28.5" font-family="Helvetica,sans-Serif" font-size="10.00">::IFactoryService::Create</text>
</a>
</g>
</g>
<!-- Node2 -->
<g id="Node000002" class="node">
<title>Node2</title>
<g id="a_Node000002"><a xlink:href="class_fiea_1_1_engine_1_1_r_t_t_i.html#a15bd5993c8ad04da47af440298ebbb30" target="_top" xlink:title=" ">
<polygon fill="white" stroke="#666666" points="293.38,-70 176.88,-70 176.88,-50 293.38,-50 293.38,-70"/>
<text xml:space="preserve" text-anchor="middle" x="235.12" y="-56.5" font-family="Helvetica,sans-Serif" font-size="10.00">Fiea::Engine::RTTI::As</text>
</a>
</g>
</g>
<!-- Node1&#45;&gt;Node2 -->
<g id="edge1_Node000001_Node000002" class="edge">
<title>Node1&#45;&gt;Node2</title>
<g id="a_edge1_Node000001_Node000002"><a xlink:title=" ">
<path fill="none" stroke="#63b8ff" d="M126.46,-46.07C139.14,-47.71 152.55,-49.44 165.43,-51.11"/>
<polygon fill="#63b8ff" stroke="#63b8ff" points="164.72,-54.55 175.09,-52.36 165.62,-47.61 164.72,-54.55"/>
</a>
</g>
</g>
<!-- Node5 -->
<g id="Node000005" class="node">
<title>Node5</title>
<g id="a_Node000005"><a xlink:href="struct_fiea_1_1_engine_1_1_content_1_1_i_factory_service.html#a287380a07bd649e87bba6b3762554c20" target="_top" xlink:title=" ">
<polygon fill="white" stroke="#666666" points="308,-32 162.25,-32 162.25,0 308,0 308,-32"/>
<text xml:space="preserve" text-anchor="start" x="170.25" y="-18.5" font-family="Helvetica,sans-Serif" font-size="10.00">Fiea::Engine::Content</text>
<text xml:space="preserve" text-anchor="middle" x="235.12" y="-6.5" font-family="Helvetica,sans-Serif" font-size="10.00">::IFactoryService::GetFactory</text>
</a>
</g>
</g>
<!-- Node1&#45;&gt;Node5 -->
<g id="edge4_Node000001_Node000005" class="edge">
<title>Node1&#45;&gt;Node5</title>
<g id="a_edge4_Node000001_Node000005"><a xlink:title=" ">
<path fill="none" stroke="#63b8ff" d="M126.46,-29.93C134.41,-28.9 142.64,-27.84 150.85,-26.78"/>
<polygon fill="#63b8ff" stroke="#63b8ff" points="151.04,-30.28 160.51,-25.53 150.14,-23.34 151.04,-30.28"/>
</a>
</g>
</g>
<!-- Node3 -->
<g id="Node000003" class="node">
<title>Node3</title>
<g id="a_Node000003"><a xlink:href="class_fiea_1_1_engine_1_1_r_t_t_i.html#ac0a7d875e4513b2aca7594abcd4418ef" target="_top" xlink:title=" ">
<polygon fill="white" stroke="#666666" points="456.75,-92 344,-92 344,-72 456.75,-72 456.75,-92"/>
<text xml:space="preserve" text-anchor="middle" x="400.38" y="-78.5" font-family="Helvetica,sans-Serif" font-size="10.00">Fiea::Engine::RTTI::Is</text>
</a>
</g>
</g>
<!-- Node2&#45;&gt;Node3 -->
<g id="edge2_Node000002_Node000003" class="edge">
<title>Node2&#45;&gt;Node3</title>
<g id="a_edge2_Node000002_Node000003"><a xlink:title=" ">
<path fill="none" stroke="#63b8ff" d="M293.68,-67.76C306.25,-69.45 319.65,-71.26 332.54,-72.99"/>
<polygon fill="#63b8ff" stroke="#63b8ff" points="331.83,-76.43 342.21,-74.3 332.77,-69.49 331.83,-76.43"/>
</a>
</g>
</g>
<!-- Node4 -->
<g id="Node000004" class="node">
<title>Node4</title>
<g id="a_Node000004"><a xlink:href="class_fiea_1_1_engine_1_1_r_t_t_i.html#a13000029a2e6cced30b831e466e07cae" target="_top" xlink:title=" ">
<polygon fill="white" stroke="#666666" points="449.62,-54 351.12,-54 351.12,-22 449.62,-22 449.62,-54"/>
<text xml:space="preserve" text-anchor="start" x="359.12" y="-40.5" font-family="Helvetica,sans-Serif" font-size="10.00">Fiea::Engine::RTTI</text>
<text xml:space="preserve" text-anchor="middle" x="400.38" y="-28.5" font-family="Helvetica,sans-Serif" font-size="10.00">::RTTI</text>
</a>
</g>
</g>
<!-- Node2&#45;&gt;Node4 -->
<g id="edge3_Node000002_Node000004" class="edge">
<title>Node2&#45;&gt;Node4</title>
<g id="a_edge3_Node000002_Node000004"><a xlink:title=" ">
<path fill="none" stroke="#63b8ff" d="M293.68,-52.24C308.53,-50.24 324.55,-48.08 339.51,-46.07"/>
<polygon fill="#63b8ff" stroke="#63b8ff" points="339.77,-49.56 349.21,-44.76 338.84,-42.63 339.77,-49.56"/>
</a>
</g>
</g>
</g>
</svg>
